<?xml version="1.0" encoding="UTF-8"?><svg xmlns="http://www.w3.org/2000/svg" xmlns:xlink="http://www.w3.org/1999/xlink" width="343.711" height="129.552" viewBox="0 0 343.711 129.552"><defs><clipPath id="f39f85ed683998867ea7e5642aed9020xv6yid1e__clip-0"><path d="M 55 0 L 140 0 L 140 129.105469 L 55 129.105469 Z M 55 0 " clip-rule="nonzero"/></clipPath><clipPath id="f39f85ed683998867ea7e5642aed9020xv6yid1e__clip-1"><path d="M 83 0 L 168 0 L 168 129.105469 L 83 129.105469 Z M 83 0 " clip-rule="nonzero"/></clipPath><clipPath id="f39f85ed683998867ea7e5642aed9020xv6yid1e__clip-2"><path d="M 55 0 L 168 0 L 168 129.105469 L 55 129.105469 Z M 55 0 " clip-rule="nonzero"/></clipPath><clipPath id="f39f85ed683998867ea7e5642aed9020xv6yid1e__clip-3"><path d="M 175 0 L 289 0 L 289 129.105469 L 175 129.105469 Z M 175 0 " clip-rule="nonzero"/></clipPath><clipPath id="f39f85ed683998867ea7e5642aed9020xv6yid1e__clip-4"><path d="M 175 0 L 261 0 L 261 129.105469 L 175 129.105469 Z M 175 0 " clip-rule="nonzero"/></clipPath><clipPath id="f39f85ed683998867ea7e5642aed9020xv6yid1e__clip-5"><path d="M 203 0 L 289 0 L 289 129.105469 L 203 129.105469 Z M 203 0 " clip-rule="nonzero"/></clipPath></defs><g clip-path="url(#f39f85ed683998867ea7e5642aed9020xv6yid1e__clip-0)"><path fill="none" stroke="rgb(100%, 0%, 0%)" stroke-linecap="butt" stroke-linejoin="miter" stroke-miterlimit="10" stroke-opacity="1" stroke-width="1.99255" d="M -0.000379504 0.00138145 L -0.000379504 -28.346309 C -0.000379504 -49.607077 28.347311 -49.607077 28.347311 -70.867845 L 28.347311 -56.694 C 28.347311 -65.195955 23.812151 -70.29948 18.367607 -74.720967 M 9.979325 -81.184648 C 4.534781 -85.606135 -0.000379504 -90.70966 -0.000379504 -99.215535 L -0.000379504 -127.559306 " transform="matrix(0.996554, 0, 0, -0.996554, 83.176159, 0.993564)"/></g><g clip-path="url(#f39f85ed683998867ea7e5642aed9020xv6yid1e__clip-1)"><path fill="none" stroke="rgb(0%, 0%, 100%)" stroke-linecap="butt" stroke-linejoin="miter" stroke-miterlimit="10" stroke-opacity="1" stroke-width="1.99255" d="M 28.347311 0.00138145 C 28.347311 -21.259386 56.695002 -21.259386 56.695002 -42.520154 L 56.695002 -85.04169 C 56.695002 -93.543645 52.159841 -98.64717 46.715297 -103.068658 M 38.323095 -109.532339 C 32.882471 -113.953826 28.347311 -119.057351 28.347311 -127.559306 " transform="matrix(0.996554, 0, 0, -0.996554, 83.176159, 0.993564)"/></g><g clip-path="url(#f39f85ed683998867ea7e5642aed9020xv6yid1e__clip-2)"><path fill="none" stroke="rgb(0%, 0%, 0%)" stroke-linecap="butt" stroke-linejoin="miter" stroke-miterlimit="10" stroke-opacity="1" stroke-width="1.99255" d="M 56.695002 0.00138145 C 56.695002 -8.504494 52.159841 -13.608019 46.715297 -18.029506 M 38.323095 -24.493187 C 32.882471 -28.914674 28.347311 -34.018199 28.347311 -42.520154 L 28.347311 -28.346309 C 28.347311 -36.852184 23.812151 -41.951789 18.367607 -46.373277 M 9.979325 -52.836958 C 4.534781 -57.262364 -0.000379504 -62.36197 -0.000379504 -70.867845 L -0.000379504 -56.694 C -0.000379504 -77.954767 28.347311 -77.954767 28.347311 -99.215535 L 28.347311 -85.04169 C 28.347311 -106.302458 56.695002 -106.302458 56.695002 -127.559306 " transform="matrix(0.996554, 0, 0, -0.996554, 83.176159, 0.993564)"/></g><path fill="none" stroke="rgb(0%, 0%, 0%)" stroke-linecap="butt" stroke-linejoin="miter" stroke-miterlimit="10" stroke-opacity="1" stroke-width="0.79701" d="M -8.502335 0.00138145 L 65.196957 0.00138145 " transform="matrix(0.996554, 0, 0, -0.996554, 83.176159, 0.993564)"/><path fill="none" stroke="rgb(0%, 0%, 0%)" stroke-linecap="butt" stroke-linejoin="miter" stroke-miterlimit="10" stroke-opacity="1" stroke-width="0.79701" d="M -8.502335 -127.559306 L 65.196957 -127.559306 " transform="matrix(0.996554, 0, 0, -0.996554, 83.176159, 0.993564)"/><g clip-path="url(#f39f85ed683998867ea7e5642aed9020xv6yid1e__clip-3)"><path fill="none" stroke="rgb(100%, 0%, 0%)" stroke-linecap="butt" stroke-linejoin="miter" stroke-miterlimit="10" stroke-opacity="1" stroke-width="1.99255" d="M 0.000793442 0.00138145 C 0.000793442 -21.259386 28.348484 -21.259386 28.348484 -42.520154 L 28.348484 -28.346309 C 28.348484 -49.607077 56.692255 -49.607077 56.692255 -70.867845 L 56.692255 -56.694 C 56.692255 -65.195955 52.157095 -70.29948 46.71647 -74.720967 M 38.324268 -81.184648 C 32.883644 -85.606135 28.348484 -90.70966 28.348484 -99.215535 L 28.348484 -85.04169 C 28.348484 -93.543645 23.813324 -98.64717 18.36878 -103.068658 M 9.976578 -109.532339 C 4.535954 -113.953826 0.000793442 -119.057351 0.000793442 -127.559306 " transform="matrix(0.996554, 0, 0, -0.996554, 203.749209, 0.993564)"/></g><g clip-path="url(#f39f85ed683998867ea7e5642aed9020xv6yid1e__clip-4)"><path fill="none" stroke="rgb(0%, 0%, 100%)" stroke-linecap="butt" stroke-linejoin="miter" stroke-miterlimit="10" stroke-opacity="1" stroke-width="1.99255" d="M 28.348484 0.00138145 C 28.348484 -8.504494 23.813324 -13.608019 18.36878 -18.029506 M 9.976578 -24.493187 C 4.535954 -28.914674 0.000793442 -34.018199 0.000793442 -42.520154 L 0.000793442 -85.04169 C 0.000793442 -106.302458 28.348484 -106.302458 28.348484 -127.559306 " transform="matrix(0.996554, 0, 0, -0.996554, 203.749209, 0.993564)"/></g><g clip-path="url(#f39f85ed683998867ea7e5642aed9020xv6yid1e__clip-5)"><path fill="none" stroke="rgb(0%, 0%, 0%)" stroke-linecap="butt" stroke-linejoin="miter" stroke-miterlimit="10" stroke-opacity="1" stroke-width="1.99255" d="M 56.692255 0.00138145 L 56.692255 -28.346309 C 56.692255 -36.852184 52.157095 -41.951789 46.71647 -46.373277 M 38.324268 -52.836958 C 32.883644 -57.262364 28.348484 -62.36197 28.348484 -70.867845 L 28.348484 -56.694 C 28.348484 -77.954767 56.692255 -77.954767 56.692255 -99.215535 L 56.692255 -127.559306 " transform="matrix(0.996554, 0, 0, -0.996554, 203.749209, 0.993564)"/></g><path fill="none" stroke="rgb(0%, 0%, 0%)" stroke-linecap="butt" stroke-linejoin="miter" stroke-miterlimit="10" stroke-opacity="1" stroke-width="0.79701" d="M -8.505082 0.00138145 L 65.19813 0.00138145 " transform="matrix(0.996554, 0, 0, -0.996554, 203.749209, 0.993564)"/><path fill="none" stroke="rgb(0%, 0%, 0%)" stroke-linecap="butt" stroke-linejoin="miter" stroke-miterlimit="10" stroke-opacity="1" stroke-width="0.79701" d="M -8.505082 -127.559306 L 65.19813 -127.559306 " transform="matrix(0.996554, 0, 0, -0.996554, 203.749209, 0.993564)"/></svg>