<?xml version="1.0" encoding="UTF-8"?><svg xmlns="http://www.w3.org/2000/svg" xmlns:xlink="http://www.w3.org/1999/xlink" width="338.01" height="121.768" viewBox="0 0 338.01 121.768"><defs><g><g id="0dcaec40889565956c205908da15db7976spgxd4__glyph-0-0"><path d="M 0.5 -6.8125 C 0.3125 -6.8125 0.15625 -6.8125 0.15625 -6.625 C 0.15625 -6.453125 0.34375 -6.453125 0.421875 -6.453125 C 0.9375 -6.453125 0.984375 -6.375 0.984375 -5.890625 L 0.984375 -0.921875 C 0.984375 -0.421875 0.9375 -0.34375 0.4375 -0.34375 C 0.34375 -0.34375 0.15625 -0.34375 0.15625 -0.171875 C 0.15625 0 0.3125 0 0.5 0 L 3.359375 0 C 5.09375 0 6.859375 -1.078125 6.859375 -3.53125 C 6.859375 -5.90625 4.984375 -6.8125 3.375 -6.8125 Z M 4.578125 -6.265625 C 6 -5.796875 6.515625 -4.703125 6.515625 -3.53125 C 6.515625 -1.84375 5.609375 -0.921875 4.625 -0.578125 C 5.265625 -1.25 5.46875 -2.359375 5.46875 -3.515625 C 5.46875 -4.9375 5.078125 -5.71875 4.578125 -6.265625 Z M 1.25 -0.34375 C 1.328125 -0.53125 1.328125 -0.765625 1.328125 -0.890625 L 1.328125 -5.90625 C 1.328125 -6.046875 1.328125 -6.28125 1.25 -6.453125 L 2.390625 -6.453125 C 2.25 -6.3125 2.25 -6.09375 2.25 -5.953125 L 2.25 -0.859375 C 2.25 -0.703125 2.25 -0.5 2.390625 -0.34375 Z M 2.609375 -5.921875 C 2.609375 -6.140625 2.609375 -6.234375 2.78125 -6.34375 C 2.875 -6.40625 3.046875 -6.453125 3.265625 -6.453125 C 4.09375 -6.453125 5.125 -5.71875 5.125 -3.515625 C 5.125 -2.25 4.859375 -0.34375 3.1875 -0.34375 C 2.609375 -0.34375 2.609375 -0.703125 2.609375 -0.890625 Z M 2.609375 -5.921875 "/></g><g id="0dcaec40889565956c205908da15db7976spgxd4__glyph-1-0"><path d="M 2.328125 -4.421875 C 2.328125 -4.609375 2.3125 -4.609375 2.125 -4.609375 C 1.671875 -4.171875 1.046875 -4.171875 0.765625 -4.171875 L 0.765625 -3.921875 C 0.921875 -3.921875 1.390625 -3.921875 1.765625 -4.109375 L 1.765625 -0.5625 C 1.765625 -0.34375 1.765625 -0.25 1.078125 -0.25 L 0.8125 -0.25 L 0.8125 0 C 0.9375 0 1.78125 -0.03125 2.046875 -0.03125 C 2.265625 -0.03125 3.140625 0 3.28125 0 L 3.28125 -0.25 L 3.03125 -0.25 C 2.328125 -0.25 2.328125 -0.34375 2.328125 -0.5625 Z M 2.328125 -4.421875 "/></g><g id="0dcaec40889565956c205908da15db7976spgxd4__glyph-1-1"><path d="M 3.59375 -2.21875 C 3.59375 -2.984375 3.5 -3.53125 3.171875 -4.015625 C 2.96875 -4.34375 2.53125 -4.609375 1.96875 -4.609375 C 0.359375 -4.609375 0.359375 -2.71875 0.359375 -2.21875 C 0.359375 -1.71875 0.359375 0.140625 1.96875 0.140625 C 3.59375 0.140625 3.59375 -1.71875 3.59375 -2.21875 Z M 1.96875 -0.0625 C 1.65625 -0.0625 1.234375 -0.25 1.09375 -0.8125 C 1 -1.21875 1 -1.796875 1 -2.3125 C 1 -2.8125 1 -3.34375 1.09375 -3.734375 C 1.25 -4.28125 1.6875 -4.421875 1.96875 -4.421875 C 2.34375 -4.421875 2.71875 -4.1875 2.84375 -3.796875 C 2.953125 -3.40625 2.953125 -2.90625 2.953125 -2.3125 C 2.953125 -1.796875 2.953125 -1.28125 2.859375 -0.84375 C 2.71875 -0.203125 2.25 -0.0625 1.96875 -0.0625 Z M 1.96875 -0.0625 "/></g><g id="0dcaec40889565956c205908da15db7976spgxd4__glyph-2-0"><path d="M 3.859375 -2.765625 L 1.875 -4.734375 C 1.765625 -4.859375 1.734375 -4.875 1.65625 -4.875 C 1.5625 -4.875 1.453125 -4.796875 1.453125 -4.6875 C 1.453125 -4.609375 1.484375 -4.59375 1.59375 -4.484375 L 3.578125 -2.484375 L 1.59375 -0.484375 C 1.484375 -0.375 1.453125 -0.359375 1.453125 -0.28125 C 1.453125 -0.171875 1.5625 -0.09375 1.65625 -0.09375 C 1.734375 -0.09375 1.765625 -0.109375 1.875 -0.234375 L 3.859375 -2.203125 L 5.90625 -0.15625 C 5.9375 -0.140625 6 -0.09375 6.0625 -0.09375 C 6.1875 -0.09375 6.265625 -0.171875 6.265625 -0.28125 C 6.265625 -0.3125 6.265625 -0.34375 6.234375 -0.390625 C 6.21875 -0.421875 4.640625 -1.984375 4.140625 -2.484375 L 5.96875 -4.296875 C 6.015625 -4.359375 6.15625 -4.484375 6.21875 -4.546875 C 6.21875 -4.578125 6.265625 -4.609375 6.265625 -4.6875 C 6.265625 -4.796875 6.1875 -4.875 6.0625 -4.875 C 5.984375 -4.875 5.9375 -4.84375 5.828125 -4.734375 Z M 3.859375 -2.765625 "/></g><g id="0dcaec40889565956c205908da15db7976spgxd4__glyph-3-0"><path d="M 0.34375 -4.765625 C 0.21875 -4.765625 0.109375 -4.765625 0.109375 -4.640625 C 0.109375 -4.515625 0.25 -4.515625 0.296875 -4.515625 C 0.65625 -4.515625 0.6875 -4.46875 0.6875 -4.125 L 0.6875 -0.640625 C 0.6875 -0.296875 0.65625 -0.25 0.3125 -0.25 C 0.234375 -0.25 0.109375 -0.25 0.109375 -0.125 C 0.109375 0 0.21875 0 0.34375 0 L 2.34375 0 C 3.5625 0 4.8125 -0.765625 4.8125 -2.46875 C 4.8125 -4.125 3.484375 -4.765625 2.359375 -4.765625 Z M 3.203125 -4.375 C 4.203125 -4.0625 4.5625 -3.296875 4.5625 -2.46875 C 4.5625 -1.28125 3.921875 -0.640625 3.234375 -0.40625 C 3.6875 -0.875 3.828125 -1.640625 3.828125 -2.453125 C 3.828125 -3.453125 3.546875 -4 3.203125 -4.375 Z M 0.875 -0.25 C 0.9375 -0.375 0.9375 -0.53125 0.9375 -0.625 L 0.9375 -4.140625 C 0.9375 -4.234375 0.9375 -4.390625 0.875 -4.515625 L 1.671875 -4.515625 C 1.578125 -4.421875 1.578125 -4.265625 1.578125 -4.171875 L 1.578125 -0.59375 C 1.578125 -0.5 1.578125 -0.359375 1.671875 -0.25 Z M 1.828125 -4.140625 C 1.828125 -4.296875 1.828125 -4.359375 1.953125 -4.4375 C 2.015625 -4.484375 2.140625 -4.515625 2.28125 -4.515625 C 2.859375 -4.515625 3.578125 -4 3.578125 -2.453125 C 3.578125 -1.578125 3.40625 -0.25 2.234375 -0.25 C 1.828125 -0.25 1.828125 -0.484375 1.828125 -0.625 Z M 1.828125 -4.140625 "/></g><g id="0dcaec40889565956c205908da15db7976spgxd4__glyph-4-0"><path d="M 2.984375 -1.59375 C 2.984375 -1.953125 2.984375 -3.3125 1.6875 -3.3125 C 0.390625 -3.3125 0.390625 -1.953125 0.390625 -1.59375 C 0.390625 -1.234375 0.390625 0.109375 1.6875 0.109375 C 2.984375 0.109375 2.984375 -1.234375 2.984375 -1.59375 Z M 1.6875 -0.046875 C 1.5 -0.046875 1.09375 -0.125 0.96875 -0.625 C 0.890625 -0.890625 0.890625 -1.234375 0.890625 -1.65625 C 0.890625 -2.015625 0.890625 -2.359375 0.96875 -2.640625 C 1.09375 -3.0625 1.46875 -3.140625 1.6875 -3.140625 C 2.0625 -3.140625 2.328125 -2.953125 2.421875 -2.609375 C 2.484375 -2.359375 2.484375 -1.9375 2.484375 -1.65625 C 2.484375 -1.3125 2.484375 -0.90625 2.421875 -0.609375 C 2.28125 -0.125 1.890625 -0.046875 1.6875 -0.046875 Z M 1.6875 -0.046875 "/></g><g id="0dcaec40889565956c205908da15db7976spgxd4__glyph-4-1"><path d="M 2.921875 -0.953125 L 2.71875 -0.953125 C 2.703125 -0.859375 2.65625 -0.5625 2.578125 -0.5 C 2.53125 -0.484375 2.109375 -0.484375 2.046875 -0.484375 L 1.0625 -0.484375 C 1.390625 -0.71875 1.765625 -1 2.0625 -1.203125 C 2.515625 -1.5 2.921875 -1.796875 2.921875 -2.328125 C 2.921875 -2.953125 2.328125 -3.3125 1.609375 -3.3125 C 0.9375 -3.3125 0.453125 -2.921875 0.453125 -2.4375 C 0.453125 -2.171875 0.671875 -2.125 0.734375 -2.125 C 0.875 -2.125 1.03125 -2.21875 1.03125 -2.421875 C 1.03125 -2.609375 0.90625 -2.703125 0.75 -2.71875 C 0.890625 -2.9375 1.171875 -3.09375 1.515625 -3.09375 C 2 -3.09375 2.390625 -2.796875 2.390625 -2.3125 C 2.390625 -1.890625 2.109375 -1.578125 1.71875 -1.25 L 0.515625 -0.234375 C 0.46875 -0.1875 0.453125 -0.1875 0.453125 -0.15625 L 0.453125 0 L 2.765625 0 Z M 2.921875 -0.953125 "/></g><g id="0dcaec40889565956c205908da15db7976spgxd4__glyph-4-2"><path d="M 1.984375 -3.15625 C 1.984375 -3.3125 1.96875 -3.3125 1.796875 -3.3125 C 1.453125 -2.984375 0.890625 -2.984375 0.796875 -2.984375 L 0.703125 -2.984375 L 0.703125 -2.765625 L 0.796875 -2.765625 C 0.90625 -2.765625 1.234375 -2.78125 1.515625 -2.90625 L 1.515625 -0.421875 C 1.515625 -0.265625 1.515625 -0.21875 1 -0.21875 L 0.75 -0.21875 L 0.75 0 C 1.015625 -0.015625 1.453125 -0.015625 1.75 -0.015625 C 2.03125 -0.015625 2.484375 -0.015625 2.75 0 L 2.75 -0.21875 L 2.5 -0.21875 C 1.984375 -0.21875 1.984375 -0.265625 1.984375 -0.421875 Z M 1.984375 -3.15625 "/></g><g id="0dcaec40889565956c205908da15db7976spgxd4__glyph-5-0"><path d="M 2.15625 -2.53125 L 2.984375 -2.53125 C 2.890625 -2.109375 2.734375 -1.46875 2.734375 -0.921875 C 2.734375 -0.640625 2.765625 -0.453125 2.8125 -0.3125 C 2.921875 0.046875 3.015625 0.0625 3.125 0.0625 C 3.28125 0.0625 3.453125 -0.078125 3.453125 -0.25 C 3.453125 -0.296875 3.4375 -0.328125 3.390625 -0.390625 C 3.265625 -0.65625 3.140625 -1.046875 3.140625 -1.625 C 3.140625 -1.75 3.140625 -2.03125 3.234375 -2.53125 L 4.109375 -2.53125 C 4.234375 -2.53125 4.28125 -2.53125 4.359375 -2.578125 C 4.453125 -2.65625 4.484375 -2.765625 4.484375 -2.796875 C 4.484375 -3 4.296875 -3 4.171875 -3 L 1.5625 -3 C 1.265625 -3 1.078125 -2.9375 0.765625 -2.640625 C 0.578125 -2.484375 0.3125 -2.109375 0.3125 -2.046875 C 0.3125 -1.953125 0.40625 -1.953125 0.4375 -1.953125 C 0.5 -1.953125 0.515625 -1.96875 0.5625 -2.03125 C 0.90625 -2.53125 1.34375 -2.53125 1.5 -2.53125 L 1.921875 -2.53125 C 1.703125 -1.765625 1.328125 -0.9375 1.125 -0.515625 C 1.078125 -0.4375 1.015625 -0.28125 0.984375 -0.25 C 0.984375 -0.234375 0.96875 -0.203125 0.96875 -0.15625 C 0.96875 -0.046875 1.046875 0.0625 1.203125 0.0625 C 1.484375 0.0625 1.5625 -0.25 1.734375 -0.875 Z M 2.15625 -2.53125 "/></g><g id="0dcaec40889565956c205908da15db7976spgxd4__glyph-5-1"><path d="M 2.859375 -4.171875 C 2.921875 -4.421875 2.953125 -4.5 3.59375 -4.5 C 3.796875 -4.5 3.875 -4.5 3.875 -4.65625 C 3.875 -4.65625 3.859375 -4.75 3.75 -4.75 C 3.59375 -4.75 3.40625 -4.734375 3.234375 -4.734375 C 3.0625 -4.71875 2.859375 -4.71875 2.6875 -4.71875 C 2.53125 -4.71875 2.34375 -4.734375 2.203125 -4.734375 C 2.0625 -4.734375 1.890625 -4.75 1.75 -4.75 C 1.703125 -4.75 1.609375 -4.75 1.609375 -4.59375 C 1.609375 -4.5 1.6875 -4.5 1.828125 -4.5 C 1.828125 -4.5 1.96875 -4.5 2.09375 -4.484375 C 2.234375 -4.46875 2.25 -4.453125 2.25 -4.390625 C 2.25 -4.375 2.25 -4.34375 2.21875 -4.234375 L 1.296875 -0.546875 C 1.234375 -0.3125 1.21875 -0.25 0.6875 -0.25 C 0.5625 -0.25 0.484375 -0.25 0.484375 -0.109375 C 0.484375 0 0.5625 0 0.6875 0 L 4.1875 0 C 4.359375 0 4.359375 0 4.421875 -0.140625 C 4.484375 -0.328125 5.015625 -1.671875 5.015625 -1.734375 C 5.015625 -1.75 5 -1.828125 4.890625 -1.828125 C 4.8125 -1.828125 4.796875 -1.796875 4.75 -1.6875 C 4.484375 -1.015625 4.1875 -0.25 2.90625 -0.25 L 2.125 -0.25 C 1.90625 -0.25 1.90625 -0.25 1.90625 -0.3125 C 1.90625 -0.328125 1.90625 -0.359375 1.9375 -0.46875 Z M 2.859375 -4.171875 "/></g><g id="0dcaec40889565956c205908da15db7976spgxd4__glyph-5-2"><path d="M 2.875 -4.265625 C 2.921875 -4.453125 2.9375 -4.484375 3.09375 -4.5 L 3.53125 -4.5 C 4.171875 -4.5 4.984375 -4.5 4.984375 -3.78125 C 4.984375 -3.5 4.84375 -3.0625 4.515625 -2.8125 C 4.234375 -2.59375 3.796875 -2.46875 3.328125 -2.46875 L 2.421875 -2.46875 Z M 4.125 -2.359375 C 4.953125 -2.5625 5.6875 -3.0625 5.6875 -3.671875 C 5.6875 -4.28125 4.984375 -4.75 3.984375 -4.75 L 1.84375 -4.75 C 1.703125 -4.75 1.625 -4.75 1.625 -4.59375 C 1.625 -4.5 1.703125 -4.5 1.84375 -4.5 C 1.84375 -4.5 1.984375 -4.5 2.109375 -4.484375 C 2.25 -4.46875 2.265625 -4.453125 2.265625 -4.390625 C 2.265625 -4.375 2.265625 -4.34375 2.234375 -4.234375 L 1.3125 -0.546875 C 1.265625 -0.3125 1.25 -0.25 0.703125 -0.25 C 0.578125 -0.25 0.5 -0.25 0.5 -0.109375 C 0.5 -0.03125 0.546875 0 0.609375 0 C 0.734375 0 0.890625 -0.015625 1.03125 -0.015625 C 1.171875 -0.015625 1.375 -0.03125 1.5 -0.03125 C 1.640625 -0.03125 1.796875 -0.015625 1.9375 -0.015625 C 2.09375 -0.015625 2.265625 0 2.40625 0 C 2.4375 0 2.546875 0 2.546875 -0.140625 C 2.546875 -0.25 2.484375 -0.25 2.328125 -0.25 C 2.21875 -0.25 2.1875 -0.25 2.0625 -0.265625 C 1.90625 -0.28125 1.90625 -0.296875 1.90625 -0.375 C 1.90625 -0.375 1.90625 -0.421875 1.9375 -0.515625 L 2.375 -2.28125 L 3.3125 -2.28125 C 3.921875 -2.28125 4.171875 -1.984375 4.171875 -1.65625 C 4.171875 -1.5625 4.109375 -1.328125 4.078125 -1.171875 C 3.984375 -0.84375 3.96875 -0.75 3.96875 -0.625 C 3.96875 -0.078125 4.46875 0.140625 4.984375 0.140625 C 5.625 0.140625 5.90625 -0.546875 5.90625 -0.671875 C 5.90625 -0.6875 5.890625 -0.765625 5.78125 -0.765625 C 5.6875 -0.765625 5.6875 -0.71875 5.65625 -0.640625 C 5.5625 -0.34375 5.3125 -0.0625 5.015625 -0.0625 C 4.828125 -0.0625 4.703125 -0.125 4.703125 -0.5 C 4.703125 -0.6875 4.734375 -1.046875 4.765625 -1.234375 C 4.796875 -1.421875 4.796875 -1.484375 4.796875 -1.5625 C 4.796875 -1.640625 4.796875 -1.859375 4.609375 -2.078125 C 4.46875 -2.21875 4.28125 -2.3125 4.125 -2.359375 Z M 4.125 -2.359375 "/></g><g id="0dcaec40889565956c205908da15db7976spgxd4__glyph-5-3"><path d="M 2.25 -4.34375 C 2.25 -4.453125 2.171875 -4.609375 1.96875 -4.609375 C 1.78125 -4.609375 1.578125 -4.421875 1.578125 -4.234375 C 1.578125 -4.109375 1.671875 -3.96875 1.859375 -3.96875 C 2.0625 -3.96875 2.25 -4.15625 2.25 -4.34375 Z M 0.828125 -0.8125 C 0.8125 -0.71875 0.765625 -0.640625 0.765625 -0.515625 C 0.765625 -0.1875 1.046875 0.0625 1.4375 0.0625 C 2.125 0.0625 2.4375 -0.890625 2.4375 -1 C 2.4375 -1.078125 2.34375 -1.078125 2.328125 -1.078125 C 2.21875 -1.078125 2.21875 -1.046875 2.1875 -0.96875 C 2.03125 -0.40625 1.71875 -0.125 1.453125 -0.125 C 1.3125 -0.125 1.28125 -0.21875 1.28125 -0.375 C 1.28125 -0.53125 1.328125 -0.65625 1.390625 -0.8125 C 1.453125 -1 1.53125 -1.1875 1.609375 -1.375 C 1.671875 -1.53125 1.921875 -2.171875 1.953125 -2.25 C 1.96875 -2.328125 2 -2.40625 2 -2.46875 C 2 -2.796875 1.71875 -3.0625 1.328125 -3.0625 C 0.640625 -3.0625 0.328125 -2.125 0.328125 -2 C 0.328125 -1.90625 0.421875 -1.90625 0.4375 -1.90625 C 0.546875 -1.90625 0.546875 -1.953125 0.5625 -2.015625 C 0.75 -2.625 1.0625 -2.875 1.3125 -2.875 C 1.421875 -2.875 1.484375 -2.8125 1.484375 -2.625 C 1.484375 -2.46875 1.453125 -2.359375 1.265625 -1.9375 Z M 0.828125 -0.8125 "/></g><g id="0dcaec40889565956c205908da15db7976spgxd4__glyph-6-0"><path d="M 5.671875 -1.734375 C 5.671875 -3.15625 4.5 -4.296875 3.09375 -4.296875 C 1.6875 -4.296875 0.53125 -3.140625 0.53125 -1.75 C 0.53125 -0.3125 1.703125 0.828125 3.09375 0.828125 C 4.515625 0.828125 5.671875 -0.34375 5.671875 -1.734375 Z M 3.09375 0.578125 C 1.8125 0.578125 0.765625 -0.46875 0.765625 -1.734375 C 0.765625 -3.03125 1.828125 -4.0625 3.09375 -4.0625 C 4.390625 -4.0625 5.4375 -3.015625 5.4375 -1.75 C 5.4375 -0.453125 4.375 0.578125 3.09375 0.578125 Z M 3.625 -1.734375 C 3.625 -2.03125 3.390625 -2.265625 3.09375 -2.265625 C 2.796875 -2.265625 2.578125 -2.015625 2.578125 -1.75 C 2.578125 -1.453125 2.8125 -1.21875 3.09375 -1.21875 C 3.40625 -1.21875 3.625 -1.46875 3.625 -1.734375 Z M 3.625 -1.734375 "/></g></g></defs><g fill="rgb(0%, 0%, 0%)" fill-opacity="1"><use xlink:href="#0dcaec40889565956c205908da15db7976spgxd4__glyph-0-0" x="78.246822" y="11.008082"/></g><g fill="rgb(0%, 0%, 0%)" fill-opacity="1"><use xlink:href="#0dcaec40889565956c205908da15db7976spgxd4__glyph-1-0" x="85.421807" y="12.497719"/></g><g fill="rgb(0%, 0%, 0%)" fill-opacity="1"><use xlink:href="#0dcaec40889565956c205908da15db7976spgxd4__glyph-2-0" x="92.085291" y="11.008082"/></g><g fill="rgb(0%, 0%, 0%)" fill-opacity="1"><use xlink:href="#0dcaec40889565956c205908da15db7976spgxd4__glyph-3-0" x="99.811661" y="12.497719"/></g><g fill="rgb(0%, 0%, 0%)" fill-opacity="1"><use xlink:href="#0dcaec40889565956c205908da15db7976spgxd4__glyph-4-0" x="104.832954" y="13.49081"/></g><g fill="rgb(0%, 0%, 0%)" fill-opacity="1"><use xlink:href="#0dcaec40889565956c205908da15db7976spgxd4__glyph-0-0" x="111.414677" y="11.008082"/></g><g fill="rgb(0%, 0%, 0%)" fill-opacity="1"><use xlink:href="#0dcaec40889565956c205908da15db7976spgxd4__glyph-1-0" x="118.588665" y="12.497719"/></g><g fill="rgb(0%, 0%, 0%)" fill-opacity="1"><use xlink:href="#0dcaec40889565956c205908da15db7976spgxd4__glyph-0-0" x="247.145135" y="11.008082"/></g><g fill="rgb(0%, 0%, 0%)" fill-opacity="1"><use xlink:href="#0dcaec40889565956c205908da15db7976spgxd4__glyph-1-0" x="254.319123" y="12.497719"/></g><g fill="rgb(0%, 0%, 0%)" fill-opacity="1"><use xlink:href="#0dcaec40889565956c205908da15db7976spgxd4__glyph-0-0" x="179.279906" y="63.365731"/></g><g fill="rgb(0%, 0%, 0%)" fill-opacity="1"><use xlink:href="#0dcaec40889565956c205908da15db7976spgxd4__glyph-1-0" x="186.453894" y="64.856365"/></g><g fill="rgb(0%, 0%, 0%)" fill-opacity="1"><use xlink:href="#0dcaec40889565956c205908da15db7976spgxd4__glyph-0-0" x="94.831248" y="114.730289"/></g><g fill="rgb(0%, 0%, 0%)" fill-opacity="1"><use xlink:href="#0dcaec40889565956c205908da15db7976spgxd4__glyph-1-0" x="102.005236" y="116.220923"/></g><g fill="rgb(0%, 0%, 0%)" fill-opacity="1"><use xlink:href="#0dcaec40889565956c205908da15db7976spgxd4__glyph-0-0" x="247.145135" y="114.730289"/></g><g fill="rgb(0%, 0%, 0%)" fill-opacity="1"><use xlink:href="#0dcaec40889565956c205908da15db7976spgxd4__glyph-1-1" x="254.319123" y="116.220923"/></g><path fill="none" stroke="rgb(0%, 0%, 0%)" stroke-linecap="butt" stroke-linejoin="miter" stroke-miterlimit="10" stroke-opacity="1" stroke-width="0.39848" d="M -41.111976 51.820922 L 73.978034 51.820922 " transform="matrix(0.99708, 0, 0, -0.99708, 168.511446, 60.193024)"/><path fill="none" stroke="rgb(0%, 0%, 0%)" stroke-linecap="round" stroke-linejoin="round" stroke-miterlimit="10" stroke-opacity="1" stroke-width="0.39848" d="M -2.071502 2.390433 C -1.695404 0.956558 -0.849183 0.278798 0.000956214 0.00064174 C -0.849183 -0.277514 -1.695404 -0.955275 -2.071502 -2.38915 " transform="matrix(0.99708, 0, 0, -0.99708, 242.471703, 8.524077)"/><g fill="rgb(0%, 0%, 0%)" fill-opacity="1"><use xlink:href="#0dcaec40889565956c205908da15db7976spgxd4__glyph-5-0" x="180.833356" y="5.194111"/></g><g fill="rgb(0%, 0%, 0%)" fill-opacity="1"><use xlink:href="#0dcaec40889565956c205908da15db7976spgxd4__glyph-4-1" x="185.47875" y="6.187202"/></g><path fill="none" stroke="rgb(0%, 0%, 0%)" stroke-linecap="butt" stroke-linejoin="miter" stroke-miterlimit="10" stroke-opacity="1" stroke-width="0.39848" d="M -53.836636 42.994364 L 5.970835 5.9095 " transform="matrix(0.99708, 0, 0, -0.99708, 168.511446, 60.193024)"/><path fill="none" stroke="rgb(0%, 0%, 0%)" stroke-linecap="round" stroke-linejoin="round" stroke-miterlimit="10" stroke-opacity="1" stroke-width="0.39848" d="M -2.071926 2.392706 C -1.694164 0.958201 -0.848994 0.279091 0.00175972 -0.000117651 C -0.848913 -0.278638 -1.693115 -0.954196 -2.069936 -2.390985 " transform="matrix(0.847388, 0.525411, 0.525411, -0.847388, 174.635289, 54.405226)"/><g fill="rgb(0%, 0%, 0%)" fill-opacity="1"><use xlink:href="#0dcaec40889565956c205908da15db7976spgxd4__glyph-6-0" x="147.154997" y="32.752395"/></g><path fill="none" stroke="rgb(0%, 0%, 0%)" stroke-linecap="butt" stroke-linejoin="miter" stroke-miterlimit="10" stroke-opacity="1" stroke-width="0.39848" d="M -68.06569 42.994364 L -68.06569 -43.590526 " transform="matrix(0.99708, 0, 0, -0.99708, 168.511446, 60.193024)"/><path fill="none" stroke="rgb(0%, 0%, 0%)" stroke-linecap="round" stroke-linejoin="round" stroke-miterlimit="10" stroke-opacity="1" stroke-width="0.39848" d="M -2.07275 2.389101 C -1.692734 0.955226 -0.850431 0.277466 -0.000291796 -0.000690235 C -0.850431 -0.278846 -1.692734 -0.956607 -2.07275 -2.390482 " transform="matrix(0, 0.99708, 0.99708, 0, 100.645219, 103.85576)"/><g fill="rgb(0%, 0%, 0%)" fill-opacity="1"><use xlink:href="#0dcaec40889565956c205908da15db7976spgxd4__glyph-5-0" x="89.787022" y="61.68964"/></g><g fill="rgb(0%, 0%, 0%)" fill-opacity="1"><use xlink:href="#0dcaec40889565956c205908da15db7976spgxd4__glyph-4-2" x="94.432416" y="62.682732"/></g><path fill="none" stroke="rgb(0%, 0%, 0%)" stroke-linecap="butt" stroke-linejoin="miter" stroke-miterlimit="10" stroke-opacity="1" stroke-width="0.39848" d="M 84.696837 43.989457 L 84.696837 -43.590526 " transform="matrix(0.99708, 0, 0, -0.99708, 168.511446, 60.193024)"/><path fill="none" stroke="rgb(0%, 0%, 0%)" stroke-linecap="round" stroke-linejoin="round" stroke-miterlimit="10" stroke-opacity="1" stroke-width="0.39848" d="M -2.07275 2.389378 C -1.692734 0.955503 -0.850431 0.277743 -0.000291796 -0.000413331 C -0.850431 -0.278569 -1.692734 -0.95633 -2.07275 -2.390205 " transform="matrix(0, 0.99708, 0.99708, 0, 252.96135, 103.85576)"/><g fill="rgb(0%, 0%, 0%)" fill-opacity="1"><use xlink:href="#0dcaec40889565956c205908da15db7976spgxd4__glyph-5-1" x="255.297258" y="62.568068"/></g><path fill="none" stroke="rgb(0%, 0%, 0%)" stroke-linecap="butt" stroke-linejoin="miter" stroke-miterlimit="10" stroke-opacity="1" stroke-width="0.39848" d="M 31.302625 -2.752515 L 78.408943 -38.411338 " transform="matrix(0.99708, 0, 0, -0.99708, 168.511446, 60.193024)"/><path fill="none" stroke="rgb(0%, 0%, 0%)" stroke-linecap="round" stroke-linejoin="round" stroke-miterlimit="10" stroke-opacity="1" stroke-width="0.39848" d="M -2.072051 2.391546 C -1.694236 0.957737 -0.85122 0.279015 -0.000582039 -0.000837978 C -0.850288 -0.280449 -1.693515 -0.958083 -2.073416 -2.390575 " transform="matrix(0.794962, 0.601787, 0.601787, -0.794962, 246.848623, 98.612965)"/><g fill="rgb(0%, 0%, 0%)" fill-opacity="1"><use xlink:href="#0dcaec40889565956c205908da15db7976spgxd4__glyph-5-1" x="225.700943" y="78.498409"/></g><path fill="none" stroke="rgb(0%, 0%, 0%)" stroke-linecap="butt" stroke-linejoin="miter" stroke-miterlimit="10" stroke-opacity="1" stroke-width="0.39848" d="M 22.605351 -14.243102 L 69.707751 -49.901926 " transform="matrix(0.99708, 0, 0, -0.99708, 168.511446, 60.193024)"/><path fill="none" stroke="rgb(0%, 0%, 0%)" stroke-linecap="round" stroke-linejoin="round" stroke-miterlimit="10" stroke-opacity="1" stroke-width="0.39848" d="M -2.071181 2.39276 C -1.691001 0.955827 -0.85035 0.280228 0.000287981 0.000375215 C -0.849418 -0.279236 -1.692645 -0.95687 -2.072546 -2.389362 " transform="matrix(0.794962, 0.601787, 0.601787, -0.794962, 238.175327, 110.070437)"/><g fill="rgb(0%, 0%, 0%)" fill-opacity="1"><use xlink:href="#0dcaec40889565956c205908da15db7976spgxd4__glyph-5-2" x="206.333668" y="99.381245"/></g><path fill="none" stroke="rgb(0%, 0%, 0%)" stroke-linecap="butt" stroke-linejoin="miter" stroke-miterlimit="10" stroke-opacity="1" stroke-width="0.39848" d="M -57.742574 -52.209446 L 73.978034 -52.209446 " transform="matrix(0.99708, 0, 0, -0.99708, 168.511446, 60.193024)"/><path fill="none" stroke="rgb(0%, 0%, 0%)" stroke-linecap="round" stroke-linejoin="round" stroke-miterlimit="10" stroke-opacity="1" stroke-width="0.39848" d="M -2.071502 2.392013 C -1.695404 0.958138 -0.849183 0.280377 0.000956214 -0.00169626 C -0.849183 -0.279852 -1.695404 -0.957613 -2.071502 -2.391488 " transform="matrix(0.99708, 0, 0, -0.99708, 242.471703, 112.248309)"/><g fill="rgb(0%, 0%, 0%)" fill-opacity="1"><use xlink:href="#0dcaec40889565956c205908da15db7976spgxd4__glyph-5-2" x="173.792976" y="119.3358"/></g><path fill="none" stroke="rgb(0%, 0%, 0%)" stroke-linecap="butt" stroke-linejoin="miter" stroke-miterlimit="10" stroke-opacity="1" stroke-width="0.39848" d="M 74.377638 -44.401488 L 27.271321 -8.742664 " transform="matrix(0.99708, 0, 0, -0.99708, 168.511446, 60.193024)"/><path fill="none" stroke="rgb(0%, 0%, 0%)" stroke-linecap="round" stroke-linejoin="round" stroke-miterlimit="10" stroke-opacity="1" stroke-width="0.39848" d="M -2.073119 2.390615 C -1.695304 0.956806 -0.849164 0.280448 0.00147318 0.000595557 C -0.848233 -0.279015 -1.69146 -0.95665 -2.071361 -2.389142 " transform="matrix(-0.794962, -0.601787, -0.601787, 0.794962, 195.544498, 68.789476)"/><path fill="rgb(100%, 100%, 100%)" fill-opacity="1" fill-rule="nonzero" d="M 215.484375 91.007812 L 222.570312 91.007812 L 222.570312 82.128906 L 215.484375 82.128906 Z M 215.484375 91.007812 "/><g fill="rgb(0%, 0%, 0%)" fill-opacity="1"><use xlink:href="#0dcaec40889565956c205908da15db7976spgxd4__glyph-5-3" x="217.622604" y="88.86704"/></g></svg>