<?xml version="1.0" encoding="UTF-8"?><svg xmlns="http://www.w3.org/2000/svg" xmlns:xlink="http://www.w3.org/1999/xlink" width="329.692" height="46.193" viewBox="0 0 329.692 46.193"><defs><g><g id="3113728e3108270d1f3bd590af0663496kg56741__glyph-0-0"><path d="M 7.453125 -6.8125 C 7.453125 -6.84375 7.421875 -6.90625 7.34375 -6.90625 C 7.3125 -6.90625 7.296875 -6.890625 7.1875 -6.796875 L 6.5 -6.03125 C 6.421875 -6.171875 5.96875 -6.90625 4.875 -6.90625 C 2.6875 -6.90625 0.484375 -4.734375 0.484375 -2.46875 C 0.484375 -0.859375 1.640625 0.21875 3.140625 0.21875 C 4 0.21875 4.734375 -0.171875 5.265625 -0.625 C 6.171875 -1.4375 6.34375 -2.328125 6.34375 -2.34375 C 6.34375 -2.453125 6.234375 -2.453125 6.21875 -2.453125 C 6.15625 -2.453125 6.109375 -2.421875 6.09375 -2.34375 C 6 -2.0625 5.78125 -1.375 5.109375 -0.796875 C 4.421875 -0.25 3.8125 -0.09375 3.296875 -0.09375 C 2.421875 -0.09375 1.375 -0.59375 1.375 -2.125 C 1.375 -2.6875 1.59375 -4.265625 2.5625 -5.421875 C 3.171875 -6.109375 4.078125 -6.609375 4.953125 -6.609375 C 5.953125 -6.609375 6.53125 -5.84375 6.53125 -4.71875 C 6.53125 -4.328125 6.5 -4.3125 6.5 -4.21875 C 6.5 -4.109375 6.609375 -4.109375 6.65625 -4.109375 C 6.78125 -4.109375 6.78125 -4.140625 6.828125 -4.3125 Z M 7.453125 -6.8125 "/></g><g id="3113728e3108270d1f3bd590af0663496kg56741__glyph-0-1"><path d="M 1.5625 -0.765625 C 1.46875 -0.375 1.453125 -0.296875 0.671875 -0.296875 C 0.515625 -0.296875 0.40625 -0.296875 0.40625 -0.109375 C 0.40625 0 0.5 0 0.671875 0 L 4.171875 0 C 5.71875 0 6.875 -1.15625 6.875 -2.109375 C 6.875 -2.828125 6.3125 -3.390625 5.359375 -3.5 C 6.375 -3.6875 7.40625 -4.40625 7.40625 -5.34375 C 7.40625 -6.0625 6.765625 -6.6875 5.578125 -6.6875 L 2.296875 -6.6875 C 2.109375 -6.6875 2.015625 -6.6875 2.015625 -6.5 C 2.015625 -6.390625 2.09375 -6.390625 2.28125 -6.390625 C 2.296875 -6.390625 2.484375 -6.390625 2.65625 -6.375 C 2.828125 -6.34375 2.921875 -6.34375 2.921875 -6.21875 C 2.921875 -6.171875 2.90625 -6.140625 2.875 -6.03125 Z M 3.046875 -3.578125 L 3.65625 -6.015625 C 3.75 -6.359375 3.765625 -6.390625 4.1875 -6.390625 L 5.453125 -6.390625 C 6.3125 -6.390625 6.515625 -5.8125 6.515625 -5.375 C 6.515625 -4.515625 5.671875 -3.578125 4.484375 -3.578125 Z M 2.609375 -0.296875 C 2.46875 -0.296875 2.453125 -0.296875 2.390625 -0.3125 C 2.296875 -0.328125 2.265625 -0.328125 2.265625 -0.40625 C 2.265625 -0.4375 2.265625 -0.453125 2.3125 -0.640625 L 2.984375 -3.375 L 4.84375 -3.375 C 5.78125 -3.375 5.96875 -2.640625 5.96875 -2.21875 C 5.96875 -1.25 5.09375 -0.296875 3.9375 -0.296875 Z M 2.609375 -0.296875 "/></g><g id="3113728e3108270d1f3bd590af0663496kg56741__glyph-0-2"><path d="M 1.75 -1.125 C 1.359375 -0.46875 0.984375 -0.328125 0.546875 -0.296875 C 0.4375 -0.296875 0.34375 -0.296875 0.34375 -0.109375 C 0.34375 -0.046875 0.390625 0 0.46875 0 C 0.734375 0 1.03125 -0.03125 1.3125 -0.03125 C 1.640625 -0.03125 1.984375 0 2.296875 0 C 2.34375 0 2.484375 0 2.484375 -0.1875 C 2.484375 -0.296875 2.390625 -0.296875 2.328125 -0.296875 C 2.09375 -0.328125 1.859375 -0.40625 1.859375 -0.640625 C 1.859375 -0.765625 1.921875 -0.875 2 -1.015625 L 2.75 -2.265625 L 5.203125 -2.265625 C 5.21875 -2.0625 5.359375 -0.71875 5.359375 -0.625 C 5.359375 -0.328125 4.84375 -0.296875 4.65625 -0.296875 C 4.515625 -0.296875 4.421875 -0.296875 4.421875 -0.109375 C 4.421875 0 4.53125 0 4.5625 0 C 4.953125 0 5.375 -0.03125 5.78125 -0.03125 C 6.03125 -0.03125 6.640625 0 6.890625 0 C 6.953125 0 7.0625 0 7.0625 -0.203125 C 7.0625 -0.296875 6.96875 -0.296875 6.84375 -0.296875 C 6.234375 -0.296875 6.234375 -0.375 6.203125 -0.65625 L 5.609375 -6.78125 C 5.578125 -6.96875 5.578125 -7.015625 5.421875 -7.015625 C 5.265625 -7.015625 5.21875 -6.953125 5.15625 -6.84375 Z M 2.921875 -2.5625 L 4.859375 -5.796875 L 5.171875 -2.5625 Z M 2.921875 -2.5625 "/></g><g id="3113728e3108270d1f3bd590af0663496kg56741__glyph-0-3"><path d="M 1.5625 -0.765625 C 1.453125 -0.375 1.4375 -0.296875 0.671875 -0.296875 C 0.5 -0.296875 0.390625 -0.296875 0.390625 -0.125 C 0.390625 0 0.484375 0 0.671875 0 L 3.90625 0 C 5.953125 0 7.875 -2.0625 7.875 -4.21875 C 7.875 -5.59375 7.046875 -6.6875 5.578125 -6.6875 L 2.28125 -6.6875 C 2.09375 -6.6875 1.984375 -6.6875 1.984375 -6.5 C 1.984375 -6.390625 2.078125 -6.390625 2.265625 -6.390625 C 2.40625 -6.390625 2.578125 -6.375 2.6875 -6.375 C 2.84375 -6.34375 2.90625 -6.3125 2.90625 -6.21875 C 2.90625 -6.171875 2.90625 -6.140625 2.875 -6.03125 Z M 3.671875 -6.015625 C 3.765625 -6.359375 3.78125 -6.390625 4.203125 -6.390625 L 5.25 -6.390625 C 6.21875 -6.390625 7.03125 -5.875 7.03125 -4.578125 C 7.03125 -4.09375 6.828125 -2.484375 6 -1.40625 C 5.71875 -1.046875 4.9375 -0.296875 3.734375 -0.296875 L 2.625 -0.296875 C 2.484375 -0.296875 2.46875 -0.296875 2.40625 -0.3125 C 2.3125 -0.328125 2.28125 -0.328125 2.28125 -0.40625 C 2.28125 -0.4375 2.28125 -0.453125 2.328125 -0.640625 Z M 3.671875 -6.015625 "/></g><g id="3113728e3108270d1f3bd590af0663496kg56741__glyph-1-0"><path d="M 5.78125 -4.734375 C 5.78125 -4.765625 5.765625 -4.828125 5.6875 -4.828125 C 5.640625 -4.828125 5.625 -4.8125 5.5625 -4.734375 L 5.0625 -4.21875 C 5 -4.296875 4.625 -4.828125 3.78125 -4.828125 C 2.109375 -4.828125 0.484375 -3.34375 0.484375 -1.796875 C 0.484375 -0.671875 1.359375 0.140625 2.59375 0.140625 C 2.953125 0.140625 3.609375 0.0625 4.328125 -0.53125 C 4.859375 -1 5.015625 -1.59375 5.015625 -1.640625 C 5.015625 -1.734375 4.9375 -1.734375 4.890625 -1.734375 C 4.8125 -1.734375 4.796875 -1.703125 4.78125 -1.625 C 4.5 -0.6875 3.53125 -0.109375 2.703125 -0.109375 C 1.96875 -0.109375 1.171875 -0.5 1.171875 -1.578125 C 1.171875 -1.78125 1.21875 -2.875 2 -3.734375 C 2.46875 -4.265625 3.203125 -4.578125 3.84375 -4.578125 C 4.640625 -4.578125 5.109375 -4 5.109375 -3.234375 C 5.109375 -3.03125 5.09375 -2.984375 5.09375 -2.953125 C 5.09375 -2.859375 5.171875 -2.859375 5.21875 -2.859375 C 5.328125 -2.859375 5.328125 -2.875 5.359375 -3.015625 Z M 5.78125 -4.734375 "/></g><g id="3113728e3108270d1f3bd590af0663496kg56741__glyph-1-1"><path d="M 5.71875 -3.9375 C 5.796875 -4.203125 5.90625 -4.421875 6.453125 -4.4375 C 6.484375 -4.4375 6.578125 -4.4375 6.578125 -4.59375 C 6.578125 -4.625 6.546875 -4.6875 6.484375 -4.6875 C 6.25 -4.6875 6 -4.65625 5.765625 -4.65625 C 5.609375 -4.65625 5.203125 -4.6875 5.046875 -4.6875 C 5 -4.6875 4.90625 -4.6875 4.90625 -4.53125 C 4.90625 -4.4375 5 -4.4375 5.0625 -4.4375 C 5.375 -4.4375 5.5 -4.328125 5.5 -4.15625 C 5.5 -4.109375 5.484375 -4.0625 5.46875 -3.984375 L 4.71875 -1 L 2.984375 -4.5625 C 2.921875 -4.6875 2.90625 -4.6875 2.75 -4.6875 L 1.796875 -4.6875 C 1.671875 -4.6875 1.578125 -4.6875 1.578125 -4.53125 C 1.578125 -4.4375 1.671875 -4.4375 1.8125 -4.4375 C 1.953125 -4.4375 2.109375 -4.4375 2.25 -4.40625 L 1.328125 -0.734375 C 1.265625 -0.46875 1.15625 -0.265625 0.625 -0.25 C 0.5625 -0.25 0.46875 -0.234375 0.46875 -0.109375 C 0.46875 -0.03125 0.53125 0 0.578125 0 C 0.796875 0 1.0625 -0.03125 1.296875 -0.03125 C 1.453125 -0.03125 1.859375 0 2.015625 0 C 2.078125 0 2.15625 -0.03125 2.15625 -0.140625 C 2.15625 -0.234375 2.078125 -0.25 2 -0.25 C 1.5625 -0.265625 1.5625 -0.4375 1.5625 -0.53125 C 1.5625 -0.5625 1.5625 -0.59375 1.59375 -0.703125 L 2.46875 -4.21875 L 4.46875 -0.109375 C 4.53125 0 4.546875 0 4.625 0 C 4.734375 0 4.734375 -0.015625 4.765625 -0.140625 Z M 5.71875 -3.9375 "/></g><g id="3113728e3108270d1f3bd590af0663496kg56741__glyph-1-2"><path d="M 7 -4.125 C 7.0625 -4.390625 7.078125 -4.4375 7.59375 -4.4375 C 7.734375 -4.4375 7.8125 -4.4375 7.8125 -4.578125 C 7.8125 -4.6875 7.734375 -4.6875 7.609375 -4.6875 L 6.6875 -4.6875 C 6.484375 -4.6875 6.46875 -4.671875 6.390625 -4.546875 L 3.734375 -0.640625 L 3.0625 -4.5 C 3.03125 -4.671875 3.03125 -4.6875 2.8125 -4.6875 L 1.84375 -4.6875 C 1.703125 -4.6875 1.609375 -4.6875 1.609375 -4.53125 C 1.609375 -4.4375 1.6875 -4.4375 1.84375 -4.4375 C 1.953125 -4.4375 1.984375 -4.4375 2.109375 -4.421875 C 2.25 -4.40625 2.25 -4.390625 2.25 -4.328125 C 2.25 -4.328125 2.25 -4.28125 2.234375 -4.171875 L 1.359375 -0.734375 C 1.296875 -0.5 1.203125 -0.265625 0.65625 -0.25 C 0.59375 -0.25 0.5 -0.234375 0.5 -0.09375 C 0.5 -0.09375 0.515625 0 0.609375 0 C 0.8125 0 1.109375 -0.03125 1.328125 -0.03125 C 1.484375 -0.03125 1.890625 0 2.046875 0 C 2.078125 0 2.1875 0 2.1875 -0.15625 C 2.1875 -0.234375 2.09375 -0.25 2.03125 -0.25 C 1.59375 -0.265625 1.59375 -0.4375 1.59375 -0.53125 C 1.59375 -0.5625 1.59375 -0.59375 1.625 -0.703125 L 2.53125 -4.359375 L 2.546875 -4.359375 L 3.28125 -0.1875 C 3.296875 -0.0625 3.3125 0 3.421875 0 C 3.515625 0 3.5625 -0.078125 3.609375 -0.15625 L 6.5 -4.421875 L 5.53125 -0.53125 C 5.484375 -0.296875 5.46875 -0.25 4.9375 -0.25 C 4.8125 -0.25 4.71875 -0.25 4.71875 -0.09375 C 4.71875 -0.09375 4.71875 0 4.828125 0 C 4.96875 0 5.125 -0.015625 5.265625 -0.015625 C 5.390625 -0.015625 5.5625 -0.03125 5.6875 -0.03125 C 5.890625 -0.03125 6.375 0 6.5625 0 C 6.609375 0 6.703125 0 6.703125 -0.15625 C 6.703125 -0.25 6.625 -0.25 6.484375 -0.25 C 6.484375 -0.25 6.359375 -0.25 6.234375 -0.265625 C 6.078125 -0.28125 6.078125 -0.296875 6.078125 -0.359375 C 6.078125 -0.40625 6.09375 -0.46875 6.09375 -0.515625 Z M 7 -4.125 "/></g><g id="3113728e3108270d1f3bd590af0663496kg56741__glyph-1-3"><path d="M 1.40625 -0.828125 C 1.171875 -0.453125 0.953125 -0.28125 0.546875 -0.25 C 0.484375 -0.234375 0.390625 -0.234375 0.390625 -0.109375 C 0.390625 -0.03125 0.453125 0 0.484375 0 C 0.671875 0 0.890625 -0.03125 1.078125 -0.03125 C 1.296875 -0.03125 1.578125 0 1.78125 0 C 1.8125 0 1.921875 0 1.921875 -0.15625 C 1.921875 -0.234375 1.828125 -0.25 1.796875 -0.25 C 1.75 -0.25 1.5 -0.265625 1.5 -0.453125 C 1.5 -0.53125 1.578125 -0.65625 1.609375 -0.71875 L 2.15625 -1.5625 L 4.109375 -1.5625 L 4.28125 -0.421875 C 4.25 -0.359375 4.21875 -0.25 3.8125 -0.25 C 3.71875 -0.25 3.625 -0.25 3.625 -0.09375 C 3.625 -0.0625 3.65625 0 3.734375 0 C 3.9375 0 4.421875 -0.03125 4.625 -0.03125 C 4.75 -0.03125 4.90625 -0.015625 5.03125 -0.015625 C 5.15625 -0.015625 5.296875 0 5.421875 0 C 5.515625 0 5.5625 -0.0625 5.5625 -0.140625 C 5.5625 -0.25 5.46875 -0.25 5.359375 -0.25 C 4.96875 -0.25 4.953125 -0.296875 4.9375 -0.46875 L 4.328125 -4.703125 C 4.3125 -4.84375 4.296875 -4.890625 4.15625 -4.890625 C 4.03125 -4.890625 3.984375 -4.828125 3.9375 -4.734375 Z M 2.3125 -1.8125 L 3.765625 -4.046875 L 4.078125 -1.8125 Z M 2.3125 -1.8125 "/></g><g id="3113728e3108270d1f3bd590af0663496kg56741__glyph-2-0"><path d="M 2.328125 -1.890625 L 2.875 -1.890625 C 2.984375 -1.890625 2.984375 -1.890625 3 -1.90625 C 3.03125 -1.9375 3.046875 -2 3.046875 -2.03125 C 3.046875 -2.109375 2.96875 -2.109375 2.890625 -2.109375 L 2.359375 -2.109375 C 2.421875 -2.46875 2.53125 -3.09375 2.59375 -3.171875 C 2.65625 -3.25 2.734375 -3.28125 2.828125 -3.28125 C 2.84375 -3.28125 2.953125 -3.28125 3.0625 -3.234375 C 2.859375 -3.140625 2.859375 -2.96875 2.859375 -2.953125 C 2.859375 -2.828125 2.953125 -2.75 3.078125 -2.75 C 3.203125 -2.75 3.390625 -2.859375 3.390625 -3.078125 C 3.390625 -3.359375 3.0625 -3.453125 2.828125 -3.453125 C 2.203125 -3.453125 2.078125 -2.859375 2.046875 -2.640625 C 2 -2.4375 2.03125 -2.5625 1.9375 -2.109375 L 1.5 -2.109375 C 1.40625 -2.109375 1.328125 -2.109375 1.328125 -1.96875 C 1.328125 -1.890625 1.40625 -1.890625 1.484375 -1.890625 L 1.90625 -1.890625 C 1.8125 -1.40625 1.609375 -0.046875 1.46875 0.46875 C 1.4375 0.59375 1.328125 0.84375 1.140625 0.84375 C 1.109375 0.84375 1 0.828125 0.90625 0.78125 C 1.046875 0.734375 1.109375 0.609375 1.109375 0.5 C 1.109375 0.375 1.015625 0.296875 0.890625 0.296875 C 0.765625 0.296875 0.59375 0.40625 0.59375 0.625 C 0.59375 0.921875 0.9375 1 1.125 1 C 1.40625 1 1.625 0.78125 1.734375 0.625 C 1.9375 0.359375 2.046875 -0.296875 2.046875 -0.3125 Z M 2.328125 -1.890625 "/></g><g id="3113728e3108270d1f3bd590af0663496kg56741__glyph-2-1"><path d="M 3.078125 -1.78125 C 3.109375 -1.875 3.109375 -1.875 3.109375 -1.890625 C 3.109375 -1.96875 3.046875 -2.0625 2.921875 -2.0625 C 2.828125 -2.0625 2.71875 -2 2.6875 -1.875 C 2.515625 -2.09375 2.3125 -2.15625 2.09375 -2.15625 C 1.421875 -2.15625 0.734375 -1.53125 0.734375 -0.84375 C 0.734375 -0.328125 1.125 0 1.59375 0 C 1.90625 0 2.171875 -0.171875 2.28125 -0.265625 C 2.265625 -0.21875 2.1875 0.125 2.15625 0.203125 C 2.125 0.375 2.078125 0.515625 1.859375 0.6875 C 1.625 0.84375 1.40625 0.84375 1.265625 0.84375 C 1.234375 0.84375 0.875 0.828125 0.875 0.796875 L 0.890625 0.78125 C 0.984375 0.703125 1 0.59375 1 0.546875 C 1 0.46875 0.953125 0.359375 0.78125 0.359375 C 0.625 0.359375 0.484375 0.484375 0.484375 0.671875 C 0.484375 1 0.984375 1 1.28125 1 C 1.953125 1 2.453125 0.78125 2.5625 0.296875 Z M 2.390625 -0.6875 C 2.359375 -0.609375 2.359375 -0.59375 2.265625 -0.5 C 2.09375 -0.3125 1.859375 -0.171875 1.609375 -0.171875 C 1.421875 -0.171875 1.171875 -0.265625 1.171875 -0.65625 C 1.171875 -0.84375 1.265625 -1.3125 1.453125 -1.59375 C 1.578125 -1.8125 1.828125 -2 2.09375 -2 C 2.5 -2 2.609375 -1.609375 2.609375 -1.5625 C 2.609375 -1.5625 2.59375 -1.53125 2.59375 -1.5 Z M 2.390625 -0.6875 "/></g><g id="3113728e3108270d1f3bd590af0663496kg56741__glyph-3-0"><path d="M 1.28125 -3.875 C 1.28125 -4.046875 1.28125 -4.21875 1.09375 -4.21875 C 0.890625 -4.21875 0.890625 -4.03125 0.890625 -3.875 L 0.890625 -0.125 C 0.890625 0.046875 0.890625 0.21875 1.09375 0.21875 C 1.28125 0.21875 1.28125 0.046875 1.28125 -0.125 Z M 1.28125 -3.875 "/></g><g id="3113728e3108270d1f3bd590af0663496kg56741__glyph-4-0"><path d="M 1.28125 -3.875 C 1.28125 -4.046875 1.28125 -4.21875 1.09375 -4.21875 C 0.890625 -4.21875 0.890625 -4.03125 0.890625 -3.875 L 0.890625 -0.125 C 0.890625 0.046875 0.890625 0.21875 1.09375 0.21875 C 1.28125 0.21875 1.28125 0.046875 1.28125 -0.125 Z M 1.28125 -3.875 "/></g><g id="3113728e3108270d1f3bd590af0663496kg56741__glyph-5-0"><path d="M 1.265625 -3.875 C 1.265625 -4.046875 1.265625 -4.21875 1.078125 -4.21875 C 0.875 -4.21875 0.875 -4.03125 0.875 -3.875 L 0.890625 -0.125 C 0.890625 0.046875 0.890625 0.21875 1.09375 0.21875 C 1.28125 0.21875 1.28125 0.046875 1.28125 -0.125 Z M 1.265625 -3.875 "/></g><g id="3113728e3108270d1f3bd590af0663496kg56741__glyph-6-0"><path d="M 1.296875 -3.875 C 1.296875 -4.046875 1.296875 -4.21875 1.109375 -4.21875 C 0.90625 -4.21875 0.90625 -4.03125 0.90625 -3.875 L 0.890625 -0.125 C 0.890625 0.046875 0.890625 0.21875 1.09375 0.21875 C 1.28125 0.21875 1.28125 0.046875 1.28125 -0.125 Z M 1.296875 -3.875 "/></g><g id="3113728e3108270d1f3bd590af0663496kg56741__glyph-7-0"><path d="M 1.3125 -3.859375 C 1.3125 -4.03125 1.3125 -4.203125 1.125 -4.21875 C 0.921875 -4.21875 0.921875 -4.03125 0.921875 -3.875 L 0.890625 -0.125 C 0.890625 0.046875 0.890625 0.21875 1.09375 0.21875 C 1.28125 0.234375 1.28125 0.0625 1.28125 -0.109375 Z M 1.3125 -3.859375 "/></g><g id="3113728e3108270d1f3bd590af0663496kg56741__glyph-8-0"><path d="M 1.25 -3.890625 C 1.25 -4.0625 1.25 -4.234375 1.0625 -4.21875 C 0.859375 -4.21875 0.859375 -4.03125 0.859375 -3.875 L 0.890625 -0.125 C 0.890625 0.046875 0.890625 0.21875 1.09375 0.21875 C 1.28125 0.203125 1.28125 0.03125 1.28125 -0.140625 Z M 1.25 -3.890625 "/></g><g id="3113728e3108270d1f3bd590af0663496kg56741__glyph-9-0"><path d="M 4.5 4.328125 C 4.59375 4.328125 4.765625 4.328125 4.765625 4.15625 C 4.765625 3.984375 4.609375 3.984375 4.5 3.984375 L 2.546875 3.984375 L 2.546875 0.828125 C 2.546875 0.703125 2.546875 0.53125 2.375 0.53125 C 2.21875 0.53125 2.21875 0.6875 2.21875 0.78125 L 2.21875 3.984375 L 0.265625 3.984375 C 0.15625 3.984375 0 3.984375 0 4.15625 C 0 4.328125 0.171875 4.328125 0.265625 4.328125 Z M 4.5 4.328125 "/></g></g></defs><g fill="rgb(0%, 0%, 0%)" fill-opacity="1"><use xlink:href="#3113728e3108270d1f3bd590af0663496kg56741__glyph-0-0" x="65.877989" y="25.147666"/></g><g fill="rgb(0%, 0%, 0%)" fill-opacity="1"><use xlink:href="#3113728e3108270d1f3bd590af0663496kg56741__glyph-0-1" x="129.008095" y="25.147666"/></g><g fill="rgb(0%, 0%, 0%)" fill-opacity="1"><use xlink:href="#3113728e3108270d1f3bd590af0663496kg56741__glyph-0-2" x="192.357371" y="25.147666"/></g><g fill="rgb(0%, 0%, 0%)" fill-opacity="1"><use xlink:href="#3113728e3108270d1f3bd590af0663496kg56741__glyph-0-3" x="255.131693" y="25.147666"/></g><path fill="none" stroke="rgb(0%, 0%, 0%)" stroke-linecap="butt" stroke-linejoin="miter" stroke-miterlimit="10" stroke-opacity="1" stroke-width="0.39848" d="M -88.221139 -5.761659 C -72.21983 -15.030177 -56.826619 -15.054024 -41.14327 -6.027951 " transform="matrix(0.98283, 0, 0, -0.98283, 164.694644, 21.802113)"/><path fill="none" stroke="rgb(0%, 0%, 0%)" stroke-linecap="round" stroke-linejoin="round" stroke-miterlimit="10" stroke-opacity="1" stroke-width="0.39848" d="M -2.072283 2.392334 C -1.693682 0.954573 -0.848315 0.28 -0.00123452 -0.00116816 C -0.849062 -0.279054 -1.693694 -0.957756 -2.073304 -2.390209 " transform="matrix(0.851789, -0.490245, -0.490245, -0.851789, 124.42626, 27.627306)"/><g fill="rgb(0%, 0%, 0%)" fill-opacity="1"><use xlink:href="#3113728e3108270d1f3bd590af0663496kg56741__glyph-1-0" x="96.267086" y="41.301456"/></g><g fill="rgb(0%, 0%, 0%)" fill-opacity="1"><use xlink:href="#3113728e3108270d1f3bd590af0663496kg56741__glyph-2-0" x="101.882975" y="42.340307"/></g><g fill="rgb(0%, 0%, 0%)" fill-opacity="1"><use xlink:href="#3113728e3108270d1f3bd590af0663496kg56741__glyph-3-0" x="100.191525" y="36.7598"/></g><path fill="none" stroke="rgb(0%, 0%, 0%)" stroke-linecap="butt" stroke-linejoin="miter" stroke-miterlimit="10" stroke-opacity="1" stroke-width="0.39848" d="M -40.79749 3.999695 C -56.826619 13.224493 -72.21983 13.204621 -87.875358 4.134828 " transform="matrix(0.98283, 0, 0, -0.98283, 164.694644, 21.802113)"/><path fill="none" stroke="rgb(0%, 0%, 0%)" stroke-linecap="round" stroke-linejoin="round" stroke-miterlimit="10" stroke-opacity="1" stroke-width="0.39848" d="M -2.07283 2.391224 C -1.692694 0.953912 -0.849167 0.277064 0.00112124 0.000488377 C -0.849434 -0.278539 -1.692448 -0.956935 -2.072486 -2.390327 " transform="matrix(-0.850472, 0.492555, 0.492555, 0.850472, 78.156963, 17.83497)"/><g fill="rgb(0%, 0%, 0%)" fill-opacity="1"><use xlink:href="#3113728e3108270d1f3bd590af0663496kg56741__glyph-2-0" x="96.027275" y="7.830205"/></g><g fill="rgb(0%, 0%, 0%)" fill-opacity="1"><use xlink:href="#3113728e3108270d1f3bd590af0663496kg56741__glyph-1-0" x="100.44313" y="6.791354"/></g><g fill="rgb(0%, 0%, 0%)" fill-opacity="1"><use xlink:href="#3113728e3108270d1f3bd590af0663496kg56741__glyph-4-0" x="100.198405" y="13.535532"/></g><path fill="none" stroke="rgb(0%, 0%, 0%)" stroke-linecap="butt" stroke-linejoin="miter" stroke-miterlimit="10" stroke-opacity="1" stroke-width="0.39848" d="M -23.766788 -5.825251 C -7.654193 -15.050049 7.611834 -14.998381 23.315055 -5.857047 " transform="matrix(0.98283, 0, 0, -0.98283, 164.694644, 21.802113)"/><path fill="none" stroke="rgb(0%, 0%, 0%)" stroke-linecap="round" stroke-linejoin="round" stroke-miterlimit="10" stroke-opacity="1" stroke-width="0.39848" d="M -2.070223 2.391964 C -1.691239 0.957228 -0.849184 0.278515 0.000511478 0.00006676 C -0.850672 -0.277096 -1.691755 -0.955651 -2.071514 -2.390233 " transform="matrix(0.849371, -0.494413, -0.494413, -0.849371, 187.776942, 27.461247)"/><g fill="rgb(0%, 0%, 0%)" fill-opacity="1"><use xlink:href="#3113728e3108270d1f3bd590af0663496kg56741__glyph-1-1" x="161.197736" y="41.27492"/></g><g fill="rgb(0%, 0%, 0%)" fill-opacity="1"><use xlink:href="#3113728e3108270d1f3bd590af0663496kg56741__glyph-5-0" x="163.586995" y="36.73916"/></g><path fill="none" stroke="rgb(0%, 0%, 0%)" stroke-linecap="butt" stroke-linejoin="miter" stroke-miterlimit="10" stroke-opacity="1" stroke-width="0.39848" d="M 23.656862 3.832766 C 7.611834 13.172825 -7.654193 13.224493 -23.421007 4.19842 " transform="matrix(0.98283, 0, 0, -0.98283, 164.694644, 21.802113)"/><path fill="none" stroke="rgb(0%, 0%, 0%)" stroke-linecap="round" stroke-linejoin="round" stroke-miterlimit="10" stroke-opacity="1" stroke-width="0.39848" d="M -2.071122 2.390374 C -1.692804 0.95543 -0.847929 0.279275 -0.000233297 -0.0000246976 C -0.850892 -0.277803 -1.692049 -0.954913 -2.070475 -2.391645 " transform="matrix(-0.85287, 0.488368, 0.488368, 0.85287, 141.507626, 17.773572)"/><g fill="rgb(0%, 0%, 0%)" fill-opacity="1"><use xlink:href="#3113728e3108270d1f3bd590af0663496kg56741__glyph-1-2" x="160.564793" y="8.808121"/></g><g fill="rgb(0%, 0%, 0%)" fill-opacity="1"><use xlink:href="#3113728e3108270d1f3bd590af0663496kg56741__glyph-6-0" x="163.569304" y="13.555188"/></g><path fill="none" stroke="rgb(0%, 0%, 0%)" stroke-linecap="butt" stroke-linejoin="miter" stroke-miterlimit="10" stroke-opacity="1" stroke-width="0.39848" d="M 40.107288 -5.658323 C 56.124494 -15.046075 71.394496 -15.141463 87.185156 -6.159109 " transform="matrix(0.98283, 0, 0, -0.98283, 164.694644, 21.802113)"/><path fill="none" stroke="rgb(0%, 0%, 0%)" stroke-linecap="round" stroke-linejoin="round" stroke-miterlimit="10" stroke-opacity="1" stroke-width="0.39848" d="M -2.070339 2.391133 C -1.69335 0.955763 -0.848507 0.278553 -0.00000843038 0.00166561 C -0.849884 -0.278538 -1.692576 -0.956085 -2.073822 -2.389977 " transform="matrix(0.854246, -0.485931, -0.485931, -0.854246, 250.551598, 27.759231)"/><g fill="rgb(0%, 0%, 0%)" fill-opacity="1"><use xlink:href="#3113728e3108270d1f3bd590af0663496kg56741__glyph-1-3" x="222.380856" y="41.342735"/></g><g fill="rgb(0%, 0%, 0%)" fill-opacity="1"><use xlink:href="#3113728e3108270d1f3bd590af0663496kg56741__glyph-2-1" x="228.268989" y="42.321633"/></g><g fill="rgb(0%, 0%, 0%)" fill-opacity="1"><use xlink:href="#3113728e3108270d1f3bd590af0663496kg56741__glyph-7-0" x="226.26893" y="36.796164"/></g><path fill="none" stroke="rgb(0%, 0%, 0%)" stroke-linecap="butt" stroke-linejoin="miter" stroke-miterlimit="10" stroke-opacity="1" stroke-width="0.39848" d="M 87.530937 4.134828 C 71.394496 13.315906 56.124494 13.216544 40.453069 4.035465 " transform="matrix(0.98283, 0, 0, -0.98283, 164.694644, 21.802113)"/><path fill="none" stroke="rgb(0%, 0%, 0%)" stroke-linecap="round" stroke-linejoin="round" stroke-miterlimit="10" stroke-opacity="1" stroke-width="0.39848" d="M -2.07197 2.389875 C -1.695071 0.957475 -0.849509 0.277773 0.00140641 0.000324993 C -0.849154 -0.279848 -1.692182 -0.956007 -2.072611 -2.391524 " transform="matrix(-0.847946, 0.49683, 0.49683, 0.847946, 204.282281, 17.936526)"/><g fill="rgb(0%, 0%, 0%)" fill-opacity="1"><use xlink:href="#3113728e3108270d1f3bd590af0663496kg56741__glyph-2-1" x="222.380856" y="7.788926"/></g><g fill="rgb(0%, 0%, 0%)" fill-opacity="1"><use xlink:href="#3113728e3108270d1f3bd590af0663496kg56741__glyph-1-3" x="226.476307" y="6.809045"/></g><g fill="rgb(0%, 0%, 0%)" fill-opacity="1"><use xlink:href="#3113728e3108270d1f3bd590af0663496kg56741__glyph-8-0" x="226.300381" y="13.499167"/></g><g fill="rgb(0%, 0%, 0%)" fill-opacity="1"><use xlink:href="#3113728e3108270d1f3bd590af0663496kg56741__glyph-9-0" x="98.903035" y="20.271847"/></g><g fill="rgb(0%, 0%, 0%)" fill-opacity="1"><use xlink:href="#3113728e3108270d1f3bd590af0663496kg56741__glyph-9-0" x="162.285728" y="20.271847"/></g><g fill="rgb(0%, 0%, 0%)" fill-opacity="1"><use xlink:href="#3113728e3108270d1f3bd590af0663496kg56741__glyph-9-0" x="224.993217" y="20.271847"/></g></svg>