<?xml version="1.0" encoding="UTF-8"?><svg xmlns="http://www.w3.org/2000/svg" xmlns:xlink="http://www.w3.org/1999/xlink" width="359.888" height="172.456" viewBox="0 0 359.888 172.456"><defs><g><g id="f4db4c15ee8ccd080caa9ef044d1ce3984i9z008__glyph-0-0"><path d="M 1.78125 -1.140625 C 1.375 -0.484375 1 -0.34375 0.5625 -0.3125 C 0.4375 -0.296875 0.34375 -0.296875 0.34375 -0.109375 C 0.34375 -0.046875 0.390625 0 0.484375 0 C 0.75 0 1.046875 -0.03125 1.328125 -0.03125 C 1.65625 -0.03125 2 0 2.328125 0 C 2.390625 0 2.515625 0 2.515625 -0.1875 C 2.515625 -0.296875 2.421875 -0.3125 2.359375 -0.3125 C 2.125 -0.328125 1.890625 -0.40625 1.890625 -0.65625 C 1.890625 -0.78125 1.953125 -0.890625 2.03125 -1.03125 L 2.78125 -2.296875 L 5.28125 -2.296875 C 5.296875 -2.09375 5.4375 -0.734375 5.4375 -0.640625 C 5.4375 -0.34375 4.921875 -0.3125 4.71875 -0.3125 C 4.578125 -0.3125 4.484375 -0.3125 4.484375 -0.109375 C 4.484375 0 4.59375 0 4.625 0 C 5.03125 0 5.453125 -0.03125 5.859375 -0.03125 C 6.109375 -0.03125 6.734375 0 6.984375 0 C 7.046875 0 7.171875 0 7.171875 -0.203125 C 7.171875 -0.3125 7.0625 -0.3125 6.9375 -0.3125 C 6.3125 -0.3125 6.3125 -0.375 6.296875 -0.671875 L 5.6875 -6.875 C 5.671875 -7.078125 5.671875 -7.109375 5.5 -7.109375 C 5.34375 -7.109375 5.296875 -7.046875 5.234375 -6.953125 Z M 2.96875 -2.609375 L 4.921875 -5.890625 L 5.25 -2.609375 Z M 2.96875 -2.609375 "/></g><g id="f4db4c15ee8ccd080caa9ef044d1ce3984i9z008__glyph-0-1"><path d="M 1.59375 -0.78125 C 1.484375 -0.390625 1.46875 -0.3125 0.6875 -0.3125 C 0.515625 -0.3125 0.421875 -0.3125 0.421875 -0.109375 C 0.421875 0 0.5 0 0.6875 0 L 4.234375 0 C 5.796875 0 6.96875 -1.171875 6.96875 -2.140625 C 6.96875 -2.859375 6.40625 -3.4375 5.4375 -3.546875 C 6.46875 -3.734375 7.515625 -4.46875 7.515625 -5.421875 C 7.515625 -6.15625 6.859375 -6.78125 5.671875 -6.78125 L 2.328125 -6.78125 C 2.140625 -6.78125 2.03125 -6.78125 2.03125 -6.59375 C 2.03125 -6.484375 2.125 -6.484375 2.3125 -6.484375 C 2.328125 -6.484375 2.53125 -6.484375 2.6875 -6.453125 C 2.875 -6.4375 2.96875 -6.421875 2.96875 -6.296875 C 2.96875 -6.265625 2.953125 -6.234375 2.921875 -6.109375 Z M 3.09375 -3.640625 L 3.703125 -6.109375 C 3.796875 -6.453125 3.8125 -6.484375 4.25 -6.484375 L 5.53125 -6.484375 C 6.40625 -6.484375 6.609375 -5.890625 6.609375 -5.453125 C 6.609375 -4.578125 5.75 -3.640625 4.546875 -3.640625 Z M 2.640625 -0.3125 C 2.5 -0.3125 2.484375 -0.3125 2.421875 -0.3125 C 2.328125 -0.328125 2.296875 -0.34375 2.296875 -0.421875 C 2.296875 -0.453125 2.296875 -0.46875 2.34375 -0.640625 L 3.03125 -3.421875 L 4.90625 -3.421875 C 5.859375 -3.421875 6.046875 -2.6875 6.046875 -2.25 C 6.046875 -1.265625 5.171875 -0.3125 4 -0.3125 Z M 2.640625 -0.3125 "/></g><g id="f4db4c15ee8ccd080caa9ef044d1ce3984i9z008__glyph-1-0"><path d="M 2.359375 -1.921875 L 2.921875 -1.921875 C 3.03125 -1.921875 3.03125 -1.921875 3.0625 -1.9375 C 3.078125 -1.96875 3.09375 -2.03125 3.09375 -2.0625 C 3.09375 -2.140625 3.015625 -2.140625 2.9375 -2.140625 L 2.40625 -2.140625 C 2.46875 -2.515625 2.5625 -3.140625 2.625 -3.21875 C 2.703125 -3.296875 2.78125 -3.328125 2.859375 -3.328125 C 2.890625 -3.328125 3 -3.328125 3.109375 -3.28125 C 2.90625 -3.1875 2.90625 -3.015625 2.90625 -3 C 2.90625 -2.875 3 -2.796875 3.125 -2.796875 C 3.265625 -2.796875 3.4375 -2.90625 3.4375 -3.125 C 3.4375 -3.40625 3.109375 -3.5 2.875 -3.5 C 2.234375 -3.5 2.109375 -2.90625 2.078125 -2.6875 C 2.03125 -2.46875 2.0625 -2.609375 1.96875 -2.140625 L 1.515625 -2.140625 C 1.421875 -2.140625 1.34375 -2.140625 1.34375 -2 C 1.34375 -1.921875 1.421875 -1.921875 1.5 -1.921875 L 1.9375 -1.921875 C 1.84375 -1.4375 1.640625 -0.046875 1.5 0.484375 C 1.46875 0.59375 1.34375 0.84375 1.15625 0.84375 C 1.125 0.84375 1.015625 0.84375 0.921875 0.796875 C 1.0625 0.734375 1.125 0.609375 1.125 0.515625 C 1.125 0.390625 1.03125 0.3125 0.90625 0.3125 C 0.78125 0.3125 0.59375 0.421875 0.59375 0.640625 C 0.59375 0.9375 0.953125 1.015625 1.140625 1.015625 C 1.4375 1.015625 1.65625 0.796875 1.765625 0.640625 C 1.96875 0.359375 2.078125 -0.296875 2.09375 -0.3125 Z M 2.359375 -1.921875 "/></g><g id="f4db4c15ee8ccd080caa9ef044d1ce3984i9z008__glyph-1-1"><path d="M 1.234375 -0.40625 C 1.1875 -0.265625 1.1875 -0.21875 0.8125 -0.21875 C 0.6875 -0.21875 0.59375 -0.21875 0.59375 -0.078125 C 0.59375 0 0.6875 0 0.765625 0 L 2.921875 0 C 3.828125 0 4.546875 -0.5625 4.546875 -1.046875 C 4.546875 -1.359375 4.265625 -1.6875 3.578125 -1.78125 C 4.078125 -1.84375 4.78125 -2.171875 4.78125 -2.671875 C 4.78125 -3.078125 4.28125 -3.390625 3.609375 -3.390625 L 1.5625 -3.390625 C 1.46875 -3.390625 1.390625 -3.390625 1.390625 -3.25 C 1.390625 -3.171875 1.453125 -3.171875 1.578125 -3.171875 C 1.625 -3.171875 1.796875 -3.171875 1.890625 -3.140625 C 1.890625 -3.078125 1.890625 -3.078125 1.890625 -3.015625 Z M 2.078125 -1.84375 L 2.359375 -3 C 2.40625 -3.15625 2.40625 -3.171875 2.609375 -3.171875 L 3.515625 -3.171875 C 4.015625 -3.171875 4.25 -2.921875 4.25 -2.65625 C 4.25 -2.25 3.703125 -1.84375 3.015625 -1.84375 Z M 1.828125 -0.21875 C 1.796875 -0.21875 1.71875 -0.21875 1.671875 -0.234375 C 1.671875 -0.265625 1.671875 -0.28125 1.6875 -0.328125 L 2.03125 -1.671875 L 3.234375 -1.671875 C 3.75 -1.671875 4 -1.390625 4 -1.078125 C 4 -0.59375 3.40625 -0.21875 2.796875 -0.21875 Z M 1.828125 -0.21875 "/></g><g id="f4db4c15ee8ccd080caa9ef044d1ce3984i9z008__glyph-2-0"><path d="M 1.328125 -0.546875 C 1.265625 -0.3125 1.25 -0.25 0.703125 -0.25 C 0.59375 -0.25 0.5 -0.25 0.5 -0.109375 C 0.5 0 0.578125 0 0.703125 0 L 3.40625 0 C 4.5625 0 5.46875 -0.796875 5.46875 -1.484375 C 5.46875 -1.984375 5.015625 -2.40625 4.28125 -2.484375 C 5.125 -2.640625 5.8125 -3.15625 5.8125 -3.765625 C 5.8125 -4.296875 5.28125 -4.75 4.375 -4.75 L 1.84375 -4.75 C 1.71875 -4.75 1.625 -4.75 1.625 -4.59375 C 1.625 -4.5 1.703125 -4.5 1.84375 -4.5 C 1.859375 -4.5 1.984375 -4.5 2.109375 -4.484375 C 2.265625 -4.46875 2.28125 -4.453125 2.28125 -4.390625 C 2.28125 -4.375 2.28125 -4.34375 2.25 -4.234375 Z M 2.4375 -2.5625 L 2.859375 -4.265625 C 2.90625 -4.484375 2.921875 -4.5 3.21875 -4.5 L 4.265625 -4.5 C 4.984375 -4.5 5.140625 -4.03125 5.140625 -3.765625 C 5.140625 -3.203125 4.5 -2.5625 3.578125 -2.5625 Z M 2.09375 -0.25 C 1.890625 -0.25 1.875 -0.25 1.875 -0.3125 C 1.875 -0.328125 1.875 -0.359375 1.90625 -0.46875 L 2.390625 -2.375 L 3.859375 -2.375 C 4.515625 -2.375 4.765625 -1.9375 4.765625 -1.53125 C 4.765625 -0.84375 4.0625 -0.25 3.21875 -0.25 Z M 2.09375 -0.25 "/></g><g id="f4db4c15ee8ccd080caa9ef044d1ce3984i9z008__glyph-2-1"><path d="M 2.828125 -2.75 L 3.515625 -2.75 C 3.65625 -2.75 3.734375 -2.75 3.734375 -2.90625 C 3.734375 -3 3.65625 -3 3.53125 -3 L 2.875 -3 C 3.03125 -3.875 3.09375 -4.203125 3.15625 -4.40625 C 3.1875 -4.546875 3.34375 -4.703125 3.5 -4.703125 C 3.515625 -4.703125 3.703125 -4.703125 3.828125 -4.609375 C 3.546875 -4.53125 3.53125 -4.28125 3.53125 -4.234375 C 3.53125 -4.078125 3.640625 -3.984375 3.796875 -3.984375 C 3.984375 -3.984375 4.203125 -4.140625 4.203125 -4.40625 C 4.203125 -4.71875 3.859375 -4.890625 3.5 -4.890625 C 3.203125 -4.890625 2.859375 -4.71875 2.671875 -4.375 C 2.53125 -4.109375 2.46875 -3.796875 2.328125 -3 L 1.78125 -3 C 1.640625 -3 1.546875 -3 1.546875 -2.84375 C 1.546875 -2.75 1.640625 -2.75 1.765625 -2.75 L 2.28125 -2.75 C 2.28125 -2.703125 1.828125 -0.203125 1.671875 0.546875 C 1.640625 0.703125 1.515625 1.21875 1.1875 1.21875 C 1.171875 1.21875 1.015625 1.21875 0.875 1.140625 C 1.15625 1.046875 1.1875 0.796875 1.1875 0.765625 C 1.1875 0.609375 1.0625 0.5 0.90625 0.5 C 0.71875 0.5 0.5 0.65625 0.5 0.921875 C 0.5 1.234375 0.828125 1.421875 1.1875 1.421875 C 1.625 1.421875 1.9375 0.953125 2.015625 0.8125 C 2.265625 0.34375 2.421875 -0.515625 2.4375 -0.59375 Z M 2.828125 -2.75 "/></g><g id="f4db4c15ee8ccd080caa9ef044d1ce3984i9z008__glyph-3-0"><path d="M 1.296875 -3.9375 C 1.296875 -4.109375 1.296875 -4.28125 1.109375 -4.28125 C 0.90625 -4.28125 0.90625 -4.09375 0.90625 -3.921875 L 0.90625 -0.125 C 0.90625 0.046875 0.90625 0.21875 1.109375 0.21875 C 1.296875 0.21875 1.296875 0.046875 1.296875 -0.125 Z M 1.296875 -3.9375 "/></g><g id="f4db4c15ee8ccd080caa9ef044d1ce3984i9z008__glyph-4-0"><path d="M 5.671875 -2.390625 C 5.671875 -2.65625 5.5625 -2.65625 5.546875 -2.65625 C 5.4375 -2.65625 5.4375 -2.46875 5.4375 -2.375 C 5.40625 -1.875 5.03125 -1.28125 4.375 -1.28125 C 3.890625 -1.28125 3.53125 -1.609375 3.15625 -1.953125 C 2.78125 -2.296875 2.359375 -2.671875 1.828125 -2.671875 C 1.03125 -2.671875 0.53125 -1.859375 0.53125 -1.078125 C 0.53125 -0.828125 0.625 -0.8125 0.65625 -0.8125 C 0.765625 -0.8125 0.765625 -1 0.765625 -1.09375 C 0.796875 -1.609375 1.171875 -2.1875 1.828125 -2.1875 C 2.3125 -2.1875 2.671875 -1.859375 3.046875 -1.515625 C 3.421875 -1.1875 3.84375 -0.8125 4.375 -0.8125 C 5.171875 -0.8125 5.671875 -1.625 5.671875 -2.390625 Z M 5.671875 -2.390625 "/></g><g id="f4db4c15ee8ccd080caa9ef044d1ce3984i9z008__glyph-5-0"><path d="M 5.34375 -2.34375 C 5.4375 -2.34375 5.609375 -2.34375 5.609375 -2.515625 C 5.609375 -2.671875 5.4375 -2.671875 5.34375 -2.671875 L 0.75 -2.671875 C 0.65625 -2.671875 0.484375 -2.671875 0.484375 -2.515625 C 0.484375 -2.34375 0.640625 -2.34375 0.75 -2.34375 Z M 5.34375 -0.8125 C 5.4375 -0.8125 5.609375 -0.8125 5.609375 -0.96875 C 5.609375 -1.140625 5.4375 -1.140625 5.34375 -1.140625 L 0.75 -1.140625 C 0.640625 -1.140625 0.484375 -1.140625 0.484375 -0.96875 C 0.484375 -0.8125 0.65625 -0.8125 0.75 -0.8125 Z M 5.34375 -0.8125 "/></g><g id="f4db4c15ee8ccd080caa9ef044d1ce3984i9z008__glyph-5-1"><path d="M 1.46875 -4.296875 C 1.46875 -4.484375 1.296875 -4.6875 1.0625 -4.6875 C 0.859375 -4.6875 0.671875 -4.515625 0.671875 -4.296875 C 0.671875 -4.046875 0.875 -3.890625 1.0625 -3.890625 C 1.28125 -3.890625 1.46875 -4.0625 1.46875 -4.296875 Z M 0.40625 -2.984375 L 0.40625 -2.734375 C 0.84375 -2.734375 0.90625 -2.703125 0.90625 -2.359375 L 0.90625 -0.546875 C 0.90625 -0.25 0.84375 -0.25 0.390625 -0.25 L 0.390625 0 C 0.40625 0 0.890625 -0.03125 1.171875 -0.03125 C 1.40625 -0.03125 1.65625 -0.015625 1.90625 0 L 1.90625 -0.25 C 1.5 -0.25 1.4375 -0.25 1.4375 -0.546875 L 1.4375 -3.0625 Z M 0.40625 -2.984375 "/></g><g id="f4db4c15ee8ccd080caa9ef044d1ce3984i9z008__glyph-5-2"><path d="M 2.46875 -4.75 L 2.46875 -4.5 C 2.9375 -4.5 3 -4.453125 3 -4.109375 L 3 -2.671875 C 2.734375 -2.921875 2.40625 -3.0625 2.015625 -3.0625 C 1.09375 -3.0625 0.3125 -2.375 0.3125 -1.5 C 0.3125 -0.625 1.0625 0.0625 1.9375 0.0625 C 2.515625 0.0625 2.84375 -0.234375 2.96875 -0.359375 L 2.96875 0.0625 L 4.046875 0 L 4.046875 -0.25 C 3.578125 -0.25 3.515625 -0.296875 3.515625 -0.640625 L 3.515625 -4.828125 Z M 2.96875 -0.734375 C 2.78125 -0.40625 2.4375 -0.125 1.984375 -0.125 C 1.59375 -0.125 1.3125 -0.359375 1.171875 -0.5625 C 1.03125 -0.765625 0.953125 -1.046875 0.953125 -1.484375 C 0.953125 -1.640625 0.953125 -2.171875 1.234375 -2.5 C 1.515625 -2.8125 1.859375 -2.875 2.0625 -2.875 C 2.390625 -2.875 2.6875 -2.71875 2.890625 -2.46875 C 2.96875 -2.359375 2.96875 -2.34375 2.96875 -2.21875 Z M 2.96875 -0.734375 "/></g><g id="f4db4c15ee8ccd080caa9ef044d1ce3984i9z008__glyph-6-0"><path d="M 6.828125 -3.25 C 6.96875 -3.25 7.171875 -3.25 7.171875 -3.453125 C 7.171875 -3.640625 6.96875 -3.640625 6.84375 -3.640625 L 0.890625 -3.640625 C 0.75 -3.640625 0.5625 -3.640625 0.5625 -3.453125 C 0.5625 -3.25 0.75 -3.25 0.890625 -3.25 Z M 6.84375 -1.328125 C 6.96875 -1.328125 7.171875 -1.328125 7.171875 -1.515625 C 7.171875 -1.71875 6.96875 -1.71875 6.828125 -1.71875 L 0.890625 -1.71875 C 0.75 -1.71875 0.5625 -1.71875 0.5625 -1.515625 C 0.5625 -1.328125 0.75 -1.328125 0.890625 -1.328125 Z M 6.84375 -1.328125 "/></g></g></defs><g fill="rgb(0%, 0%, 0%)" fill-opacity="1"><use xlink:href="#f4db4c15ee8ccd080caa9ef044d1ce3984i9z008__glyph-0-0" x="64.61081" y="13.7267"/></g><g fill="rgb(0%, 0%, 0%)" fill-opacity="1"><use xlink:href="#f4db4c15ee8ccd080caa9ef044d1ce3984i9z008__glyph-0-1" x="192.535282" y="13.7267"/></g><g fill="rgb(0%, 0%, 0%)" fill-opacity="1"><use xlink:href="#f4db4c15ee8ccd080caa9ef044d1ce3984i9z008__glyph-0-0" x="64.61081" y="63.535582"/></g><g fill="rgb(0%, 0%, 0%)" fill-opacity="1"><use xlink:href="#f4db4c15ee8ccd080caa9ef044d1ce3984i9z008__glyph-0-0" x="128.573046" y="63.535582"/></g><g fill="rgb(0%, 0%, 0%)" fill-opacity="1"><use xlink:href="#f4db4c15ee8ccd080caa9ef044d1ce3984i9z008__glyph-0-1" x="192.535282" y="63.535582"/></g><g fill="rgb(0%, 0%, 0%)" fill-opacity="1"><use xlink:href="#f4db4c15ee8ccd080caa9ef044d1ce3984i9z008__glyph-0-0" x="64.61081" y="113.343466"/></g><g fill="rgb(0%, 0%, 0%)" fill-opacity="1"><use xlink:href="#f4db4c15ee8ccd080caa9ef044d1ce3984i9z008__glyph-0-1" x="128.281964" y="113.343466"/></g><g fill="rgb(0%, 0%, 0%)" fill-opacity="1"><use xlink:href="#f4db4c15ee8ccd080caa9ef044d1ce3984i9z008__glyph-0-1" x="192.535282" y="113.343466"/></g><g fill="rgb(0%, 0%, 0%)" fill-opacity="1"><use xlink:href="#f4db4c15ee8ccd080caa9ef044d1ce3984i9z008__glyph-0-0" x="64.61081" y="163.152348"/></g><g fill="rgb(0%, 0%, 0%)" fill-opacity="1"><use xlink:href="#f4db4c15ee8ccd080caa9ef044d1ce3984i9z008__glyph-0-1" x="192.535282" y="163.152348"/></g><path fill="none" stroke="rgb(0%, 0%, 0%)" stroke-linecap="butt" stroke-linejoin="miter" stroke-miterlimit="10" stroke-opacity="1" stroke-width="0.39848" d="M -56.233958 74.03735 L 55.249415 74.03735 " transform="matrix(0.996855, 0, 0, -0.996855, 132.58838, 85.046726)"/><path fill="none" stroke="rgb(0%, 0%, 0%)" stroke-linecap="round" stroke-linejoin="round" stroke-miterlimit="10" stroke-opacity="1" stroke-width="0.39848" d="M -2.071953 2.391729 C -1.691851 0.957531 -0.849358 0.279618 0.000972051 0.00139983 C -0.849358 -0.280737 -1.691851 -0.954732 -2.071953 -2.392848 " transform="matrix(0.996855, 0, 0, -0.996855, 187.862312, 11.243583)"/><g fill="rgb(0%, 0%, 0%)" fill-opacity="1"><use xlink:href="#f4db4c15ee8ccd080caa9ef044d1ce3984i9z008__glyph-1-0" x="126.88836" y="7.941948"/></g><g fill="rgb(0%, 0%, 0%)" fill-opacity="1"><use xlink:href="#f4db4c15ee8ccd080caa9ef044d1ce3984i9z008__glyph-2-0" x="131.367232" y="6.888271"/></g><g fill="rgb(0%, 0%, 0%)" fill-opacity="1"><use xlink:href="#f4db4c15ee8ccd080caa9ef044d1ce3984i9z008__glyph-3-0" x="131.193779" y="13.7267"/></g><path fill="none" stroke="rgb(0%, 0%, 0%)" stroke-linecap="butt" stroke-linejoin="miter" stroke-miterlimit="10" stroke-opacity="1" stroke-width="2.32874" d="M -64.455122 67.701019 L -64.455122 32.234024 " transform="matrix(0.996855, 0, 0, -0.996855, 132.58838, 85.046726)"/><path fill="none" stroke="rgb(100%, 100%, 100%)" stroke-linecap="butt" stroke-linejoin="miter" stroke-miterlimit="10" stroke-opacity="1" stroke-width="1.53175" d="M -64.455122 67.701019 L -64.455122 32.234024 " transform="matrix(0.996855, 0, 0, -0.996855, 132.58838, 85.046726)"/><path fill="none" stroke="rgb(0%, 0%, 0%)" stroke-linecap="butt" stroke-linejoin="miter" stroke-miterlimit="10" stroke-opacity="1" stroke-width="2.32874" d="M 64.164166 67.701019 L 64.164166 32.234024 " transform="matrix(0.996855, 0, 0, -0.996855, 132.58838, 85.046726)"/><path fill="none" stroke="rgb(100%, 100%, 100%)" stroke-linecap="butt" stroke-linejoin="miter" stroke-miterlimit="10" stroke-opacity="1" stroke-width="1.53175" d="M 64.164166 67.701019 L 64.164166 32.234024 " transform="matrix(0.996855, 0, 0, -0.996855, 132.58838, 85.046726)"/><path fill="none" stroke="rgb(0%, 0%, 0%)" stroke-linecap="butt" stroke-linejoin="miter" stroke-miterlimit="10" stroke-opacity="1" stroke-width="2.32874" d="M -56.233958 24.071638 L -8.517507 24.071638 " transform="matrix(0.996855, 0, 0, -0.996855, 132.58838, 85.046726)"/><path fill="none" stroke="rgb(100%, 100%, 100%)" stroke-linecap="butt" stroke-linejoin="miter" stroke-miterlimit="10" stroke-opacity="1" stroke-width="1.53175" d="M -56.233958 24.071638 L -8.517507 24.071638 " transform="matrix(0.996855, 0, 0, -0.996855, 132.58838, 85.046726)"/><path fill="none" stroke="rgb(0%, 0%, 0%)" stroke-linecap="butt" stroke-linejoin="miter" stroke-miterlimit="10" stroke-opacity="1" stroke-width="2.32874" d="M -64.455122 17.735308 L -64.455122 -17.735606 " transform="matrix(0.996855, 0, 0, -0.996855, 132.58838, 85.046726)"/><path fill="none" stroke="rgb(100%, 100%, 100%)" stroke-linecap="butt" stroke-linejoin="miter" stroke-miterlimit="10" stroke-opacity="1" stroke-width="1.53175" d="M -64.455122 17.735308 L -64.455122 -17.735606 " transform="matrix(0.996855, 0, 0, -0.996855, 132.58838, 85.046726)"/><path fill="none" stroke="rgb(0%, 0%, 0%)" stroke-linecap="butt" stroke-linejoin="miter" stroke-miterlimit="10" stroke-opacity="1" stroke-width="0.39848" d="M 7.932658 24.071638 L 55.249415 24.071638 " transform="matrix(0.996855, 0, 0, -0.996855, 132.58838, 85.046726)"/><path fill="none" stroke="rgb(0%, 0%, 0%)" stroke-linecap="round" stroke-linejoin="round" stroke-miterlimit="10" stroke-opacity="1" stroke-width="0.39848" d="M -2.071953 2.392147 C -1.691851 0.95795 -0.849358 0.280037 0.000972051 0.00181847 C -0.849358 -0.280319 -1.691851 -0.958232 -2.071953 -2.392429 " transform="matrix(0.996855, 0, 0, -0.996855, 187.862312, 61.052594)"/><g fill="rgb(0%, 0%, 0%)" fill-opacity="1"><use xlink:href="#f4db4c15ee8ccd080caa9ef044d1ce3984i9z008__glyph-1-0" x="158.869478" y="69.193733"/></g><g fill="rgb(0%, 0%, 0%)" fill-opacity="1"><use xlink:href="#f4db4c15ee8ccd080caa9ef044d1ce3984i9z008__glyph-2-0" x="163.34835" y="68.140057"/></g><g fill="rgb(0%, 0%, 0%)" fill-opacity="1"><use xlink:href="#f4db4c15ee8ccd080caa9ef044d1ce3984i9z008__glyph-3-0" x="163.174897" y="63.535582"/></g><path fill="none" stroke="rgb(0%, 0%, 0%)" stroke-linecap="butt" stroke-linejoin="miter" stroke-miterlimit="10" stroke-opacity="1" stroke-width="0.39848" d="M -0.292424 17.735308 L -0.292424 -17.335912 " transform="matrix(0.996855, 0, 0, -0.996855, 132.58838, 85.046726)"/><path fill="none" stroke="rgb(0%, 0%, 0%)" stroke-linecap="round" stroke-linejoin="round" stroke-miterlimit="10" stroke-opacity="1" stroke-width="0.39848" d="M -2.071696 2.390204 C -1.695513 0.956007 -0.849101 0.278094 0.00122885 -0.000124416 C -0.849101 -0.278343 -1.695513 -0.956256 -2.071696 -2.390453 " transform="matrix(0, 0.996855, 0.996855, 0, 132.296999, 102.526119)"/><g fill="rgb(0%, 0%, 0%)" fill-opacity="1"><use xlink:href="#f4db4c15ee8ccd080caa9ef044d1ce3984i9z008__glyph-2-1" x="125.308344" y="86.784245"/></g><path fill="none" stroke="rgb(0%, 0%, 0%)" stroke-linecap="butt" stroke-linejoin="miter" stroke-miterlimit="10" stroke-opacity="1" stroke-width="2.32874" d="M 64.164166 17.735308 L 64.164166 -17.735606 " transform="matrix(0.996855, 0, 0, -0.996855, 132.58838, 85.046726)"/><path fill="none" stroke="rgb(100%, 100%, 100%)" stroke-linecap="butt" stroke-linejoin="miter" stroke-miterlimit="10" stroke-opacity="1" stroke-width="1.53175" d="M 64.164166 17.735308 L 64.164166 -17.735606 " transform="matrix(0.996855, 0, 0, -0.996855, 132.58838, 85.046726)"/><path fill="none" stroke="rgb(0%, 0%, 0%)" stroke-linecap="butt" stroke-linejoin="miter" stroke-miterlimit="10" stroke-opacity="1" stroke-width="0.39848" d="M -56.233958 -25.897991 L -9.207176 -25.897991 " transform="matrix(0.996855, 0, 0, -0.996855, 132.58838, 85.046726)"/><path fill="none" stroke="rgb(0%, 0%, 0%)" stroke-linecap="round" stroke-linejoin="round" stroke-miterlimit="10" stroke-opacity="1" stroke-width="0.39848" d="M -2.071613 2.392556 C -1.69543 0.95444 -0.849019 0.280446 0.00131149 -0.00169147 C -0.849019 -0.27991 -1.69543 -0.957823 -2.071613 -2.39202 " transform="matrix(0.996855, 0, 0, -0.996855, 123.608068, 110.861595)"/><g fill="rgb(0%, 0%, 0%)" fill-opacity="1"><use xlink:href="#f4db4c15ee8ccd080caa9ef044d1ce3984i9z008__glyph-1-0" x="94.761701" y="119.001618"/></g><g fill="rgb(0%, 0%, 0%)" fill-opacity="1"><use xlink:href="#f4db4c15ee8ccd080caa9ef044d1ce3984i9z008__glyph-2-0" x="99.240573" y="117.947942"/></g><g fill="rgb(0%, 0%, 0%)" fill-opacity="1"><use xlink:href="#f4db4c15ee8ccd080caa9ef044d1ce3984i9z008__glyph-3-0" x="99.06712" y="113.343466"/></g><path fill="none" stroke="rgb(0%, 0%, 0%)" stroke-linecap="butt" stroke-linejoin="miter" stroke-miterlimit="10" stroke-opacity="1" stroke-width="2.32874" d="M -64.455122 -32.230404 L -64.455122 -67.701317 " transform="matrix(0.996855, 0, 0, -0.996855, 132.58838, 85.046726)"/><path fill="none" stroke="rgb(100%, 100%, 100%)" stroke-linecap="butt" stroke-linejoin="miter" stroke-miterlimit="10" stroke-opacity="1" stroke-width="1.53175" d="M -64.455122 -32.230404 L -64.455122 -67.701317 " transform="matrix(0.996855, 0, 0, -0.996855, 132.58838, 85.046726)"/><path fill="none" stroke="rgb(0%, 0%, 0%)" stroke-linecap="butt" stroke-linejoin="miter" stroke-miterlimit="10" stroke-opacity="1" stroke-width="2.32874" d="M 8.226551 -25.897991 L 55.649109 -25.897991 " transform="matrix(0.996855, 0, 0, -0.996855, 132.58838, 85.046726)"/><path fill="none" stroke="rgb(100%, 100%, 100%)" stroke-linecap="butt" stroke-linejoin="miter" stroke-miterlimit="10" stroke-opacity="1" stroke-width="1.53175" d="M 8.226551 -25.897991 L 55.649109 -25.897991 " transform="matrix(0.996855, 0, 0, -0.996855, 132.58838, 85.046726)"/><path fill="none" stroke="rgb(0%, 0%, 0%)" stroke-linecap="butt" stroke-linejoin="miter" stroke-miterlimit="10" stroke-opacity="1" stroke-width="2.32874" d="M 64.164166 -32.230404 L 64.164166 -67.701317 " transform="matrix(0.996855, 0, 0, -0.996855, 132.58838, 85.046726)"/><path fill="none" stroke="rgb(100%, 100%, 100%)" stroke-linecap="butt" stroke-linejoin="miter" stroke-miterlimit="10" stroke-opacity="1" stroke-width="1.53175" d="M 64.164166 -32.230404 L 64.164166 -67.701317 " transform="matrix(0.996855, 0, 0, -0.996855, 132.58838, 85.046726)"/><path fill="none" stroke="rgb(0%, 0%, 0%)" stroke-linecap="butt" stroke-linejoin="miter" stroke-miterlimit="10" stroke-opacity="1" stroke-width="0.39848" d="M -56.233958 -75.863703 L 55.249415 -75.863703 " transform="matrix(0.996855, 0, 0, -0.996855, 132.58838, 85.046726)"/><path fill="none" stroke="rgb(0%, 0%, 0%)" stroke-linecap="round" stroke-linejoin="round" stroke-miterlimit="10" stroke-opacity="1" stroke-width="0.39848" d="M -2.071953 2.389066 C -1.691851 0.954869 -0.849358 0.280874 0.000972051 -0.00126283 C -0.849358 -0.279481 -1.691851 -0.957394 -2.071953 -2.391592 " transform="matrix(0.996855, 0, 0, -0.996855, 187.862312, 160.670616)"/><g fill="rgb(0%, 0%, 0%)" fill-opacity="1"><use xlink:href="#f4db4c15ee8ccd080caa9ef044d1ce3984i9z008__glyph-1-0" x="126.88836" y="168.810499"/></g><g fill="rgb(0%, 0%, 0%)" fill-opacity="1"><use xlink:href="#f4db4c15ee8ccd080caa9ef044d1ce3984i9z008__glyph-2-0" x="131.367232" y="167.756823"/></g><g fill="rgb(0%, 0%, 0%)" fill-opacity="1"><use xlink:href="#f4db4c15ee8ccd080caa9ef044d1ce3984i9z008__glyph-3-0" x="131.193779" y="163.152348"/></g><path fill="none" stroke="rgb(0%, 0%, 0%)" stroke-linecap="butt" stroke-linejoin="miter" stroke-miterlimit="10" stroke-opacity="1" stroke-width="2.32874" d="M -0.292424 66.364786 L -0.292424 34.420587 " transform="matrix(0.996855, 0, 0, -0.996855, 132.58838, 85.046726)"/><path fill="none" stroke="rgb(100%, 100%, 100%)" stroke-linecap="butt" stroke-linejoin="miter" stroke-miterlimit="10" stroke-opacity="1" stroke-width="1.53175" d="M -0.292424 66.364786 L -0.292424 34.420587 " transform="matrix(0.996855, 0, 0, -0.996855, 132.58838, 85.046726)"/><path fill="none" stroke="rgb(0%, 0%, 0%)" stroke-linecap="round" stroke-linejoin="round" stroke-miterlimit="10" stroke-opacity="1" stroke-width="0.39848" d="M -1.293996 2.558703 C -0.667024 1.206796 1.02188 0.0468984 1.989767 -0.000124416 C 1.02188 -0.0471473 -0.667024 -1.207045 -1.293996 -2.558952 " transform="matrix(0, 0.996855, 0.996855, 0, 132.296999, 50.735239)"/><path fill="rgb(100%, 100%, 100%)" fill-opacity="1" fill-rule="nonzero" d="M 127.054688 36.988281 L 137.539062 36.988281 L 137.539062 27.867188 L 127.054688 27.867188 Z M 127.054688 36.988281 "/><g fill="rgb(0%, 0%, 0%)" fill-opacity="1"><use xlink:href="#f4db4c15ee8ccd080caa9ef044d1ce3984i9z008__glyph-4-0" x="129.194087" y="32.675926"/></g><g fill="rgb(0%, 0%, 0%)" fill-opacity="1"><use xlink:href="#f4db4c15ee8ccd080caa9ef044d1ce3984i9z008__glyph-5-0" x="129.248914" y="34.849071"/></g><path fill="none" stroke="rgb(0%, 0%, 0%)" stroke-linecap="butt" stroke-linejoin="miter" stroke-miterlimit="10" stroke-opacity="1" stroke-width="2.32874" d="M -32.401203 14.404521 L -32.487412 -14.044311 " transform="matrix(0.996855, 0, 0, -0.996855, 132.58838, 85.046726)"/><path fill="none" stroke="rgb(100%, 100%, 100%)" stroke-linecap="butt" stroke-linejoin="miter" stroke-miterlimit="10" stroke-opacity="1" stroke-width="1.53175" d="M -32.401203 14.404521 L -32.487412 -14.044311 " transform="matrix(0.996855, 0, 0, -0.996855, 132.58838, 85.046726)"/><path fill="none" stroke="rgb(0%, 0%, 0%)" stroke-linecap="round" stroke-linejoin="round" stroke-miterlimit="10" stroke-opacity="1" stroke-width="0.39848" d="M -1.293923 2.55767 C -0.666896 1.207559 1.021537 0.0486556 1.989594 0.000549122 C 1.021824 -0.0493108 -0.66766 -1.206356 -1.294614 -2.556222 " transform="matrix(-0.00292079, 0.996826, 0.996826, 0.00292079, 100.204483, 99.04797)"/><path fill="none" stroke="rgb(0%, 0%, 0%)" stroke-linecap="butt" stroke-linejoin="miter" stroke-miterlimit="10" stroke-opacity="1" stroke-width="2.32874" d="M 31.816354 14.404521 L 31.902563 -14.044311 " transform="matrix(0.996855, 0, 0, -0.996855, 132.58838, 85.046726)"/><path fill="none" stroke="rgb(100%, 100%, 100%)" stroke-linecap="butt" stroke-linejoin="miter" stroke-miterlimit="10" stroke-opacity="1" stroke-width="1.53175" d="M 31.816354 14.404521 L 31.902563 -14.044311 " transform="matrix(0.996855, 0, 0, -0.996855, 132.58838, 85.046726)"/><path fill="none" stroke="rgb(0%, 0%, 0%)" stroke-linecap="round" stroke-linejoin="round" stroke-miterlimit="10" stroke-opacity="1" stroke-width="0.39848" d="M -1.294614 2.555983 C -0.667661 1.206117 1.021823 0.049072 1.989593 -0.000787958 C 1.021536 -0.0488944 -0.666896 -1.207798 -1.293924 -2.557909 " transform="matrix(0.00292079, 0.996826, 0.996826, -0.00292079, 164.389506, 99.04797)"/><path fill="none" stroke="rgb(0%, 0%, 0%)" stroke-linecap="butt" stroke-linejoin="miter" stroke-miterlimit="10" stroke-opacity="1" stroke-width="2.32874" d="M -0.292424 -32.230404 L -0.292424 -66.004576 " transform="matrix(0.996855, 0, 0, -0.996855, 132.58838, 85.046726)"/><path fill="none" stroke="rgb(100%, 100%, 100%)" stroke-linecap="butt" stroke-linejoin="miter" stroke-miterlimit="10" stroke-opacity="1" stroke-width="1.53175" d="M -0.292424 -32.230404 L -0.292424 -66.004576 " transform="matrix(0.996855, 0, 0, -0.996855, 132.58838, 85.046726)"/><path fill="none" stroke="rgb(0%, 0%, 0%)" stroke-linecap="round" stroke-linejoin="round" stroke-miterlimit="10" stroke-opacity="1" stroke-width="0.39848" d="M -1.292303 2.558703 C -0.665332 1.206796 1.023573 0.0468984 1.987542 -0.000124416 C 1.023573 -0.0471473 -0.665332 -1.207045 -1.292303 -2.558952 " transform="matrix(0, 0.996855, 0.996855, 0, 132.296999, 150.842927)"/><path fill="rgb(100%, 100%, 100%)" fill-opacity="1" fill-rule="nonzero" d="M 127.054688 143.136719 L 137.539062 143.136719 L 137.539062 134.015625 L 127.054688 134.015625 Z M 127.054688 143.136719 "/><g fill="rgb(0%, 0%, 0%)" fill-opacity="1"><use xlink:href="#f4db4c15ee8ccd080caa9ef044d1ce3984i9z008__glyph-4-0" x="129.194087" y="138.824089"/></g><g fill="rgb(0%, 0%, 0%)" fill-opacity="1"><use xlink:href="#f4db4c15ee8ccd080caa9ef044d1ce3984i9z008__glyph-5-0" x="129.248914" y="140.997234"/></g><g fill="rgb(0%, 0%, 0%)" fill-opacity="1"><use xlink:href="#f4db4c15ee8ccd080caa9ef044d1ce3984i9z008__glyph-6-0" x="208.153017" y="85.046726"/></g><g fill="rgb(0%, 0%, 0%)" fill-opacity="1"><use xlink:href="#f4db4c15ee8ccd080caa9ef044d1ce3984i9z008__glyph-0-0" x="223.46372" y="63.535582"/></g><g fill="rgb(0%, 0%, 0%)" fill-opacity="1"><use xlink:href="#f4db4c15ee8ccd080caa9ef044d1ce3984i9z008__glyph-0-1" x="287.133877" y="63.535582"/></g><g fill="rgb(0%, 0%, 0%)" fill-opacity="1"><use xlink:href="#f4db4c15ee8ccd080caa9ef044d1ce3984i9z008__glyph-0-0" x="223.46372" y="113.343466"/></g><g fill="rgb(0%, 0%, 0%)" fill-opacity="1"><use xlink:href="#f4db4c15ee8ccd080caa9ef044d1ce3984i9z008__glyph-0-1" x="287.133877" y="113.343466"/></g><path fill="none" stroke="rgb(0%, 0%, 0%)" stroke-linecap="butt" stroke-linejoin="miter" stroke-miterlimit="10" stroke-opacity="1" stroke-width="0.39848" d="M -24.003391 24.071638 L 23.019473 24.071638 " transform="matrix(0.996855, 0, 0, -0.996855, 259.314631, 85.046726)"/><path fill="none" stroke="rgb(0%, 0%, 0%)" stroke-linecap="round" stroke-linejoin="round" stroke-miterlimit="10" stroke-opacity="1" stroke-width="0.39848" d="M -2.073425 2.392147 C -1.693323 0.95795 -0.85083 0.280037 -0.000500223 0.00181847 C -0.85083 -0.280319 -1.693323 -0.958232 -2.073425 -2.392429 " transform="matrix(0.996855, 0, 0, -0.996855, 282.461436, 61.052594)"/><g fill="rgb(0%, 0%, 0%)" fill-opacity="1"><use xlink:href="#f4db4c15ee8ccd080caa9ef044d1ce3984i9z008__glyph-1-0" x="253.613615" y="57.750829"/></g><g fill="rgb(0%, 0%, 0%)" fill-opacity="1"><use xlink:href="#f4db4c15ee8ccd080caa9ef044d1ce3984i9z008__glyph-2-0" x="258.093483" y="56.696156"/></g><g fill="rgb(0%, 0%, 0%)" fill-opacity="1"><use xlink:href="#f4db4c15ee8ccd080caa9ef044d1ce3984i9z008__glyph-3-0" x="257.92003" y="63.535582"/></g><path fill="none" stroke="rgb(0%, 0%, 0%)" stroke-linecap="butt" stroke-linejoin="miter" stroke-miterlimit="10" stroke-opacity="1" stroke-width="2.32874" d="M -32.228474 17.735308 L -32.228474 -17.735606 " transform="matrix(0.996855, 0, 0, -0.996855, 259.314631, 85.046726)"/><path fill="none" stroke="rgb(100%, 100%, 100%)" stroke-linecap="butt" stroke-linejoin="miter" stroke-miterlimit="10" stroke-opacity="1" stroke-width="1.53175" d="M -32.228474 17.735308 L -32.228474 -17.735606 " transform="matrix(0.996855, 0, 0, -0.996855, 259.314631, 85.046726)"/><path fill="none" stroke="rgb(0%, 0%, 0%)" stroke-linecap="butt" stroke-linejoin="miter" stroke-miterlimit="10" stroke-opacity="1" stroke-width="2.32874" d="M 31.934224 17.735308 L 31.934224 -17.735606 " transform="matrix(0.996855, 0, 0, -0.996855, 259.314631, 85.046726)"/><path fill="none" stroke="rgb(100%, 100%, 100%)" stroke-linecap="butt" stroke-linejoin="miter" stroke-miterlimit="10" stroke-opacity="1" stroke-width="1.53175" d="M 31.934224 17.735308 L 31.934224 -17.735606 " transform="matrix(0.996855, 0, 0, -0.996855, 259.314631, 85.046726)"/><path fill="none" stroke="rgb(0%, 0%, 0%)" stroke-linecap="butt" stroke-linejoin="miter" stroke-miterlimit="10" stroke-opacity="1" stroke-width="0.39848" d="M -24.003391 -25.897991 L 23.019473 -25.897991 " transform="matrix(0.996855, 0, 0, -0.996855, 259.314631, 85.046726)"/><path fill="none" stroke="rgb(0%, 0%, 0%)" stroke-linecap="round" stroke-linejoin="round" stroke-miterlimit="10" stroke-opacity="1" stroke-width="0.39848" d="M -2.073425 2.392556 C -1.693323 0.95444 -0.85083 0.280446 -0.000500223 -0.00169147 C -0.85083 -0.27991 -1.693323 -0.957823 -2.073425 -2.39202 " transform="matrix(0.996855, 0, 0, -0.996855, 282.461436, 110.861595)"/><g fill="rgb(0%, 0%, 0%)" fill-opacity="1"><use xlink:href="#f4db4c15ee8ccd080caa9ef044d1ce3984i9z008__glyph-1-0" x="253.613615" y="119.001618"/></g><g fill="rgb(0%, 0%, 0%)" fill-opacity="1"><use xlink:href="#f4db4c15ee8ccd080caa9ef044d1ce3984i9z008__glyph-2-0" x="258.093483" y="117.947942"/></g><g fill="rgb(0%, 0%, 0%)" fill-opacity="1"><use xlink:href="#f4db4c15ee8ccd080caa9ef044d1ce3984i9z008__glyph-3-0" x="257.92003" y="113.343466"/></g><path fill="none" stroke="rgb(0%, 0%, 0%)" stroke-linecap="butt" stroke-linejoin="miter" stroke-miterlimit="10" stroke-opacity="1" stroke-width="2.32874" d="M -0.292112 14.404521 L -0.292112 -14.044311 " transform="matrix(0.996855, 0, 0, -0.996855, 259.314631, 85.046726)"/><path fill="none" stroke="rgb(100%, 100%, 100%)" stroke-linecap="butt" stroke-linejoin="miter" stroke-miterlimit="10" stroke-opacity="1" stroke-width="1.53175" d="M -0.292112 14.404521 L -0.292112 -14.044311 " transform="matrix(0.996855, 0, 0, -0.996855, 259.314631, 85.046726)"/><path fill="none" stroke="rgb(0%, 0%, 0%)" stroke-linecap="round" stroke-linejoin="round" stroke-miterlimit="10" stroke-opacity="1" stroke-width="0.39848" d="M -1.293888 2.559015 C -0.666916 1.207108 1.021989 0.0472107 1.989876 0.000187876 C 1.021989 -0.046835 -0.666916 -1.206732 -1.293888 -2.55864 " transform="matrix(0, 0.996855, 0.996855, 0, 259.02325, 99.047631)"/><path fill="rgb(100%, 100%, 100%)" fill-opacity="1" fill-rule="nonzero" d="M 248.390625 92.359375 L 269.65625 92.359375 L 269.65625 79.554688 L 248.390625 79.554688 Z M 248.390625 92.359375 "/><g fill="rgb(0%, 0%, 0%)" fill-opacity="1"><use xlink:href="#f4db4c15ee8ccd080caa9ef044d1ce3984i9z008__glyph-5-1" x="250.52735" y="86.519082"/><use xlink:href="#f4db4c15ee8ccd080caa9ef044d1ce3984i9z008__glyph-5-2" x="252.775585" y="86.519082"/></g><g fill="rgb(0%, 0%, 0%)" fill-opacity="1"><use xlink:href="#f4db4c15ee8ccd080caa9ef044d1ce3984i9z008__glyph-1-0" x="257.161423" y="89.256447"/></g><g fill="rgb(0%, 0%, 0%)" fill-opacity="1"><use xlink:href="#f4db4c15ee8ccd080caa9ef044d1ce3984i9z008__glyph-1-1" x="261.641292" y="87.517931"/></g></svg>