<?xml version="1.0" encoding="UTF-8"?><svg xmlns="http://www.w3.org/2000/svg" xmlns:xlink="http://www.w3.org/1999/xlink" width="343.711" height="72.859" viewBox="0 0 343.711 72.859"><defs><clipPath id="855db6772c8990ceef33f3f0ef40feebtnfpkjnv__clip-0"><path d="M 54 0 L 168 0 L 168 72.71875 L 54 72.71875 Z M 54 0 " clip-rule="nonzero"/></clipPath><clipPath id="855db6772c8990ceef33f3f0ef40feebtnfpkjnv__clip-1"><path d="M 54 0 L 140 0 L 140 72.71875 L 54 72.71875 Z M 54 0 " clip-rule="nonzero"/></clipPath><clipPath id="855db6772c8990ceef33f3f0ef40feebtnfpkjnv__clip-2"><path d="M 83 0 L 168 0 L 168 72.71875 L 83 72.71875 Z M 83 0 " clip-rule="nonzero"/></clipPath><clipPath id="855db6772c8990ceef33f3f0ef40feebtnfpkjnv__clip-3"><path d="M 74 71 L 149 71 L 149 72.71875 L 74 72.71875 Z M 74 71 " clip-rule="nonzero"/></clipPath><clipPath id="855db6772c8990ceef33f3f0ef40feebtnfpkjnv__clip-4"><path d="M 175 0 L 261 0 L 261 72.71875 L 175 72.71875 Z M 175 0 " clip-rule="nonzero"/></clipPath><clipPath id="855db6772c8990ceef33f3f0ef40feebtnfpkjnv__clip-5"><path d="M 203 0 L 289 0 L 289 72.71875 L 203 72.71875 Z M 203 0 " clip-rule="nonzero"/></clipPath><clipPath id="855db6772c8990ceef33f3f0ef40feebtnfpkjnv__clip-6"><path d="M 175 0 L 289 0 L 289 72.71875 L 175 72.71875 Z M 175 0 " clip-rule="nonzero"/></clipPath><clipPath id="855db6772c8990ceef33f3f0ef40feebtnfpkjnv__clip-7"><path d="M 194 71 L 270 71 L 270 72.71875 L 194 72.71875 Z M 194 71 " clip-rule="nonzero"/></clipPath></defs><g clip-path="url(#855db6772c8990ceef33f3f0ef40feebtnfpkjnv__clip-0)"><path fill="none" stroke="rgb(0%, 0%, 0%)" stroke-linecap="butt" stroke-linejoin="miter" stroke-miterlimit="10" stroke-opacity="1" stroke-width="1.99255" d="M 56.693126 -0.00102144 C 56.693126 -8.50573 52.157021 -13.605423 46.716826 -18.028028 M 38.325618 -24.493642 C 32.881509 -28.912333 28.345404 -34.01594 28.345404 -42.520648 L 28.345404 -28.348744 C 28.345404 -36.849538 23.813212 -41.953146 18.369103 -46.375751 M 9.977895 -52.83745 C 4.533786 -57.260055 0.00159476 -62.363663 0.00159476 -70.868371 " transform="matrix(0.998068, 0, 0, -0.998068, 83.041377, 0.995074)"/></g><g clip-path="url(#855db6772c8990ceef33f3f0ef40feebtnfpkjnv__clip-1)"><path fill="none" stroke="rgb(100%, 0%, 0%)" stroke-linecap="butt" stroke-linejoin="miter" stroke-miterlimit="10" stroke-opacity="1" stroke-width="1.99255" d="M 0.00159476 -0.00102144 L 0.00159476 -28.348744 C 0.00159476 -49.608557 28.345404 -49.608557 28.345404 -70.868371 " transform="matrix(0.998068, 0, 0, -0.998068, 83.041377, 0.995074)"/></g><g clip-path="url(#855db6772c8990ceef33f3f0ef40feebtnfpkjnv__clip-2)"><path fill="none" stroke="rgb(0%, 0%, 100%)" stroke-linecap="butt" stroke-linejoin="miter" stroke-miterlimit="10" stroke-opacity="1" stroke-width="1.99255" d="M 28.345404 -0.00102144 C 28.345404 -21.260835 56.693126 -21.260835 56.693126 -42.520648 L 56.693126 -70.868371 " transform="matrix(0.998068, 0, 0, -0.998068, 83.041377, 0.995074)"/></g><path fill="none" stroke="rgb(0%, 0%, 0%)" stroke-linecap="butt" stroke-linejoin="miter" stroke-miterlimit="10" stroke-opacity="1" stroke-width="0.79701" d="M -8.503113 -0.00102144 L 65.197834 -0.00102144 " transform="matrix(0.998068, 0, 0, -0.998068, 83.041377, 0.995074)"/><g clip-path="url(#855db6772c8990ceef33f3f0ef40feebtnfpkjnv__clip-3)"><path fill="none" stroke="rgb(0%, 0%, 0%)" stroke-linecap="butt" stroke-linejoin="miter" stroke-miterlimit="10" stroke-opacity="1" stroke-width="0.79701" d="M -8.503113 -70.868371 L 65.197834 -70.868371 " transform="matrix(0.998068, 0, 0, -0.998068, 83.041377, 0.995074)"/></g><g clip-path="url(#855db6772c8990ceef33f3f0ef40feebtnfpkjnv__clip-4)"><path fill="none" stroke="rgb(0%, 0%, 100%)" stroke-linecap="butt" stroke-linejoin="miter" stroke-miterlimit="10" stroke-opacity="1" stroke-width="1.99255" d="M 28.346912 -0.00102144 C 28.346912 -8.50573 23.810807 -13.605423 18.370611 -18.028028 M 9.979404 -24.493642 C 4.535295 -28.912333 -0.000810621 -34.01594 -0.000810621 -42.520648 L -0.000810621 -70.868371 " transform="matrix(0.998068, 0, 0, -0.998068, 203.797684, 0.995074)"/></g><g clip-path="url(#855db6772c8990ceef33f3f0ef40feebtnfpkjnv__clip-5)"><path fill="none" stroke="rgb(0%, 0%, 0%)" stroke-linecap="butt" stroke-linejoin="miter" stroke-miterlimit="10" stroke-opacity="1" stroke-width="1.99255" d="M 56.694635 -0.00102144 L 56.694635 -28.348744 C 56.694635 -36.849538 52.158529 -41.953146 46.71442 -46.375751 M 38.323212 -52.83745 C 32.883017 -57.260055 28.346912 -62.363663 28.346912 -70.868371 " transform="matrix(0.998068, 0, 0, -0.998068, 203.797684, 0.995074)"/></g><g clip-path="url(#855db6772c8990ceef33f3f0ef40feebtnfpkjnv__clip-6)"><path fill="none" stroke="rgb(100%, 0%, 0%)" stroke-linecap="butt" stroke-linejoin="miter" stroke-miterlimit="10" stroke-opacity="1" stroke-width="1.99255" d="M -0.000810621 -0.00102144 C -0.000810621 -21.260835 28.346912 -21.260835 28.346912 -42.520648 L 28.346912 -28.348744 C 28.346912 -49.608557 56.694635 -49.608557 56.694635 -70.868371 " transform="matrix(0.998068, 0, 0, -0.998068, 203.797684, 0.995074)"/></g><path fill="none" stroke="rgb(0%, 0%, 0%)" stroke-linecap="butt" stroke-linejoin="miter" stroke-miterlimit="10" stroke-opacity="1" stroke-width="0.79701" d="M -8.505519 -0.00102144 L 65.199343 -0.00102144 " transform="matrix(0.998068, 0, 0, -0.998068, 203.797684, 0.995074)"/><g clip-path="url(#855db6772c8990ceef33f3f0ef40feebtnfpkjnv__clip-7)"><path fill="none" stroke="rgb(0%, 0%, 0%)" stroke-linecap="butt" stroke-linejoin="miter" stroke-miterlimit="10" stroke-opacity="1" stroke-width="0.79701" d="M -8.505519 -70.868371 L 65.199343 -70.868371 " transform="matrix(0.998068, 0, 0, -0.998068, 203.797684, 0.995074)"/></g></svg>