<?xml version="1.0" encoding="UTF-8"?><svg xmlns="http://www.w3.org/2000/svg" xmlns:xlink="http://www.w3.org/1999/xlink" width="230.731" height="67.183" viewBox="0 0 230.731 67.183"><defs><g><g id="79c89d130f81120f50f227f163378b9dllfkic3t__glyph-0-0"><path d="M 1.765625 -1.125 C 1.375 -0.46875 0.984375 -0.328125 0.546875 -0.3125 C 0.4375 -0.296875 0.34375 -0.296875 0.34375 -0.109375 C 0.34375 -0.046875 0.390625 0 0.46875 0 C 0.734375 0 1.046875 -0.03125 1.3125 -0.03125 C 1.640625 -0.03125 1.984375 0 2.296875 0 C 2.359375 0 2.484375 0 2.484375 -0.1875 C 2.484375 -0.296875 2.40625 -0.3125 2.328125 -0.3125 C 2.109375 -0.328125 1.875 -0.40625 1.875 -0.65625 C 1.875 -0.765625 1.921875 -0.875 2.015625 -1.015625 L 2.75 -2.28125 L 5.234375 -2.28125 C 5.25 -2.0625 5.390625 -0.734375 5.390625 -0.625 C 5.390625 -0.328125 4.875 -0.3125 4.671875 -0.3125 C 4.53125 -0.3125 4.4375 -0.3125 4.4375 -0.109375 C 4.4375 0 4.5625 0 4.578125 0 C 4.984375 0 5.40625 -0.03125 5.8125 -0.03125 C 6.046875 -0.03125 6.671875 0 6.921875 0 C 6.984375 0 7.09375 0 7.09375 -0.203125 C 7.09375 -0.3125 7 -0.3125 6.875 -0.3125 C 6.265625 -0.3125 6.265625 -0.375 6.234375 -0.65625 L 5.625 -6.8125 C 5.609375 -7.015625 5.609375 -7.046875 5.4375 -7.046875 C 5.28125 -7.046875 5.25 -6.984375 5.1875 -6.875 Z M 2.9375 -2.578125 L 4.875 -5.828125 L 5.203125 -2.578125 Z M 2.9375 -2.578125 "/></g><g id="79c89d130f81120f50f227f163378b9dllfkic3t__glyph-0-1"><path d="M 1.578125 -0.765625 C 1.484375 -0.390625 1.453125 -0.3125 0.671875 -0.3125 C 0.515625 -0.3125 0.40625 -0.3125 0.40625 -0.109375 C 0.40625 0 0.5 0 0.671875 0 L 4.1875 0 C 5.75 0 6.90625 -1.15625 6.90625 -2.125 C 6.90625 -2.828125 6.34375 -3.40625 5.390625 -3.515625 C 6.40625 -3.703125 7.4375 -4.4375 7.4375 -5.359375 C 7.4375 -6.09375 6.796875 -6.71875 5.609375 -6.71875 L 2.296875 -6.71875 C 2.109375 -6.71875 2.015625 -6.71875 2.015625 -6.53125 C 2.015625 -6.421875 2.109375 -6.421875 2.296875 -6.421875 C 2.3125 -6.421875 2.5 -6.421875 2.671875 -6.40625 C 2.84375 -6.375 2.9375 -6.375 2.9375 -6.234375 C 2.9375 -6.203125 2.921875 -6.171875 2.890625 -6.046875 Z M 3.0625 -3.609375 L 3.671875 -6.046875 C 3.765625 -6.390625 3.78125 -6.421875 4.203125 -6.421875 L 5.46875 -6.421875 C 6.34375 -6.421875 6.546875 -5.84375 6.546875 -5.40625 C 6.546875 -4.53125 5.703125 -3.609375 4.5 -3.609375 Z M 2.625 -0.3125 C 2.484375 -0.3125 2.46875 -0.3125 2.40625 -0.3125 C 2.296875 -0.328125 2.28125 -0.328125 2.28125 -0.40625 C 2.28125 -0.4375 2.28125 -0.46875 2.328125 -0.640625 L 3 -3.390625 L 4.859375 -3.390625 C 5.8125 -3.390625 6 -2.65625 6 -2.234375 C 6 -1.265625 5.125 -0.3125 3.953125 -0.3125 Z M 2.625 -0.3125 "/></g><g id="79c89d130f81120f50f227f163378b9dllfkic3t__glyph-0-2"><path d="M 7.484375 -6.84375 C 7.484375 -6.875 7.46875 -6.9375 7.375 -6.9375 C 7.34375 -6.9375 7.328125 -6.9375 7.21875 -6.828125 L 6.53125 -6.0625 C 6.453125 -6.203125 6 -6.9375 4.90625 -6.9375 C 2.703125 -6.9375 0.5 -4.765625 0.5 -2.484375 C 0.5 -0.859375 1.65625 0.21875 3.15625 0.21875 C 4.015625 0.21875 4.765625 -0.171875 5.28125 -0.625 C 6.203125 -1.4375 6.375 -2.328125 6.375 -2.359375 C 6.375 -2.46875 6.265625 -2.46875 6.25 -2.46875 C 6.1875 -2.46875 6.140625 -2.4375 6.125 -2.359375 C 6.03125 -2.078125 5.8125 -1.375 5.125 -0.8125 C 4.453125 -0.25 3.828125 -0.09375 3.3125 -0.09375 C 2.4375 -0.09375 1.390625 -0.59375 1.390625 -2.140625 C 1.390625 -2.703125 1.59375 -4.296875 2.578125 -5.4375 C 3.171875 -6.140625 4.109375 -6.640625 4.984375 -6.640625 C 5.984375 -6.640625 6.5625 -5.875 6.5625 -4.734375 C 6.5625 -4.34375 6.53125 -4.328125 6.53125 -4.234375 C 6.53125 -4.140625 6.640625 -4.140625 6.6875 -4.140625 C 6.8125 -4.140625 6.8125 -4.15625 6.859375 -4.328125 Z M 7.484375 -6.84375 "/></g><g id="79c89d130f81120f50f227f163378b9dllfkic3t__glyph-0-3"><path d="M 1.5625 -0.765625 C 1.46875 -0.390625 1.453125 -0.3125 0.671875 -0.3125 C 0.5 -0.3125 0.390625 -0.3125 0.390625 -0.125 C 0.390625 0 0.484375 0 0.671875 0 L 3.921875 0 C 5.96875 0 7.921875 -2.078125 7.921875 -4.234375 C 7.921875 -5.625 7.078125 -6.71875 5.59375 -6.71875 L 2.296875 -6.71875 C 2.109375 -6.71875 2 -6.71875 2 -6.53125 C 2 -6.421875 2.09375 -6.421875 2.28125 -6.421875 C 2.40625 -6.421875 2.59375 -6.40625 2.703125 -6.40625 C 2.859375 -6.375 2.921875 -6.34375 2.921875 -6.234375 C 2.921875 -6.203125 2.90625 -6.171875 2.890625 -6.046875 Z M 3.6875 -6.046875 C 3.78125 -6.390625 3.796875 -6.421875 4.21875 -6.421875 L 5.28125 -6.421875 C 6.234375 -6.421875 7.0625 -5.890625 7.0625 -4.59375 C 7.0625 -4.109375 6.859375 -2.5 6.03125 -1.421875 C 5.734375 -1.046875 4.96875 -0.3125 3.75 -0.3125 L 2.640625 -0.3125 C 2.5 -0.3125 2.484375 -0.3125 2.421875 -0.3125 C 2.328125 -0.328125 2.296875 -0.328125 2.296875 -0.40625 C 2.296875 -0.4375 2.296875 -0.46875 2.34375 -0.640625 Z M 3.6875 -6.046875 "/></g><g id="79c89d130f81120f50f227f163378b9dllfkic3t__glyph-1-0"><path d="M 3.671875 -2.546875 C 3.6875 -2.640625 3.6875 -2.6875 3.6875 -2.6875 C 3.6875 -2.84375 3.5625 -2.90625 3.453125 -2.90625 C 3.296875 -2.90625 3.171875 -2.78125 3.140625 -2.640625 C 3.03125 -2.828125 2.796875 -3.03125 2.4375 -3.03125 C 1.578125 -3.03125 0.671875 -2.109375 0.671875 -1.125 C 0.671875 -0.421875 1.15625 0 1.71875 0 C 2.03125 0 2.328125 -0.15625 2.578125 -0.375 L 2.421875 0.25 C 2.34375 0.53125 2.296875 0.71875 2.046875 0.953125 C 1.734375 1.21875 1.4375 1.21875 1.265625 1.21875 C 0.953125 1.21875 0.859375 1.1875 0.734375 1.171875 C 0.90625 1.078125 0.953125 0.921875 0.953125 0.8125 C 0.953125 0.65625 0.828125 0.5625 0.6875 0.5625 C 0.5 0.5625 0.296875 0.71875 0.296875 0.984375 C 0.296875 1.40625 0.890625 1.40625 1.28125 1.40625 C 2.359375 1.40625 2.8125 0.859375 2.921875 0.46875 Z M 2.71875 -0.921875 C 2.6875 -0.8125 2.6875 -0.796875 2.5625 -0.65625 C 2.328125 -0.375 2 -0.1875 1.734375 -0.1875 C 1.390625 -0.1875 1.21875 -0.484375 1.21875 -0.84375 C 1.21875 -1.15625 1.40625 -1.921875 1.578125 -2.21875 C 1.875 -2.703125 2.203125 -2.84375 2.4375 -2.84375 C 2.921875 -2.84375 3.046875 -2.328125 3.046875 -2.265625 C 3.046875 -2.25 3.046875 -2.234375 3.03125 -2.15625 Z M 2.71875 -0.921875 "/></g><g id="79c89d130f81120f50f227f163378b9dllfkic3t__glyph-1-1"><path d="M 2.15625 -4.578125 C 2.15625 -4.59375 2.1875 -4.671875 2.1875 -4.6875 C 2.1875 -4.71875 2.15625 -4.78125 2.078125 -4.78125 C 1.9375 -4.78125 1.359375 -4.734375 1.1875 -4.71875 C 1.140625 -4.703125 1.046875 -4.703125 1.046875 -4.546875 C 1.046875 -4.453125 1.140625 -4.453125 1.21875 -4.453125 C 1.546875 -4.453125 1.546875 -4.40625 1.546875 -4.359375 C 1.546875 -4.3125 1.53125 -4.265625 1.515625 -4.203125 L 0.546875 -0.296875 C 0.515625 -0.171875 0.515625 -0.171875 0.515625 -0.15625 C 0.515625 -0.046875 0.59375 0.0625 0.75 0.0625 C 0.828125 0.0625 0.953125 0.03125 1.03125 -0.109375 C 1.046875 -0.15625 1.109375 -0.40625 1.15625 -0.546875 L 1.3125 -1.15625 C 1.328125 -1.265625 1.40625 -1.515625 1.421875 -1.625 C 1.484375 -1.890625 1.484375 -1.890625 1.625 -2.109375 C 1.84375 -2.453125 2.1875 -2.84375 2.734375 -2.84375 C 3.109375 -2.84375 3.140625 -2.53125 3.140625 -2.359375 C 3.140625 -1.953125 2.84375 -1.1875 2.734375 -0.890625 C 2.65625 -0.703125 2.625 -0.640625 2.625 -0.53125 C 2.625 -0.15625 2.921875 0.0625 3.28125 0.0625 C 3.96875 0.0625 4.265625 -0.875 4.265625 -0.984375 C 4.265625 -1.078125 4.1875 -1.078125 4.15625 -1.078125 C 4.0625 -1.078125 4.0625 -1.03125 4.03125 -0.953125 C 3.875 -0.40625 3.5625 -0.125 3.296875 -0.125 C 3.15625 -0.125 3.125 -0.21875 3.125 -0.359375 C 3.125 -0.53125 3.15625 -0.609375 3.28125 -0.921875 C 3.375 -1.140625 3.65625 -1.875 3.65625 -2.25 C 3.65625 -2.359375 3.65625 -2.65625 3.390625 -2.859375 C 3.28125 -2.9375 3.078125 -3.03125 2.75 -3.03125 C 2.25 -3.03125 1.890625 -2.765625 1.640625 -2.46875 Z M 2.15625 -4.578125 "/></g><g id="79c89d130f81120f50f227f163378b9dllfkic3t__glyph-1-2"><path d="M 7.03125 -4.140625 C 7.09375 -4.40625 7.109375 -4.453125 7.625 -4.453125 C 7.765625 -4.453125 7.859375 -4.453125 7.859375 -4.609375 C 7.859375 -4.703125 7.765625 -4.703125 7.65625 -4.703125 L 6.71875 -4.703125 C 6.515625 -4.703125 6.5 -4.703125 6.421875 -4.5625 L 3.75 -0.640625 L 3.078125 -4.515625 C 3.03125 -4.703125 3.03125 -4.703125 2.828125 -4.703125 L 1.84375 -4.703125 C 1.703125 -4.703125 1.625 -4.703125 1.625 -4.546875 C 1.625 -4.453125 1.703125 -4.453125 1.859375 -4.453125 C 1.96875 -4.453125 1.984375 -4.453125 2.109375 -4.4375 C 2.25 -4.4375 2.265625 -4.421875 2.265625 -4.34375 C 2.265625 -4.34375 2.265625 -4.296875 2.234375 -4.203125 L 1.375 -0.734375 C 1.3125 -0.5 1.203125 -0.265625 0.65625 -0.25 C 0.59375 -0.25 0.515625 -0.234375 0.515625 -0.09375 C 0.515625 -0.09375 0.515625 0 0.609375 0 C 0.8125 0 1.109375 -0.03125 1.328125 -0.03125 C 1.5 -0.03125 1.890625 0 2.0625 0 C 2.09375 0 2.203125 0 2.203125 -0.15625 C 2.203125 -0.234375 2.109375 -0.25 2.046875 -0.25 C 1.609375 -0.265625 1.609375 -0.4375 1.609375 -0.53125 C 1.609375 -0.5625 1.609375 -0.59375 1.640625 -0.703125 L 2.546875 -4.375 L 2.5625 -4.375 L 3.296875 -0.1875 C 3.3125 -0.0625 3.328125 0 3.4375 0 C 3.53125 0 3.578125 -0.078125 3.625 -0.15625 L 6.53125 -4.4375 L 5.5625 -0.53125 C 5.5 -0.296875 5.484375 -0.25 4.953125 -0.25 C 4.828125 -0.25 4.75 -0.25 4.75 -0.09375 C 4.75 -0.09375 4.75 0 4.859375 0 C 4.984375 0 5.140625 -0.015625 5.28125 -0.015625 C 5.421875 -0.015625 5.578125 -0.03125 5.71875 -0.03125 C 5.90625 -0.03125 6.40625 0 6.59375 0 C 6.640625 0 6.734375 0 6.734375 -0.15625 C 6.734375 -0.25 6.65625 -0.25 6.515625 -0.25 C 6.515625 -0.25 6.375 -0.25 6.25 -0.265625 C 6.09375 -0.28125 6.09375 -0.296875 6.09375 -0.359375 C 6.09375 -0.40625 6.125 -0.46875 6.125 -0.515625 Z M 7.03125 -4.140625 "/></g><g id="79c89d130f81120f50f227f163378b9dllfkic3t__glyph-2-0"><path d="M 1.296875 -3.890625 C 1.296875 -4.0625 1.296875 -4.25 1.09375 -4.25 C 0.890625 -4.25 0.890625 -4.0625 0.890625 -3.890625 L 0.890625 -0.125 C 0.890625 0.046875 0.890625 0.21875 1.09375 0.21875 C 1.296875 0.21875 1.296875 0.046875 1.296875 -0.125 Z M 1.296875 -3.890625 "/></g></g></defs><g fill="rgb(0%, 0%, 0%)" fill-opacity="1"><use xlink:href="#79c89d130f81120f50f227f163378b9dllfkic3t__glyph-0-0" x="79.90078" y="10.328398"/></g><g fill="rgb(0%, 0%, 0%)" fill-opacity="1"><use xlink:href="#79c89d130f81120f50f227f163378b9dllfkic3t__glyph-0-1" x="143.414402" y="10.328398"/></g><g fill="rgb(0%, 0%, 0%)" fill-opacity="1"><use xlink:href="#79c89d130f81120f50f227f163378b9dllfkic3t__glyph-0-2" x="79.721955" y="59.693083"/></g><g fill="rgb(0%, 0%, 0%)" fill-opacity="1"><use xlink:href="#79c89d130f81120f50f227f163378b9dllfkic3t__glyph-0-3" x="143.183214" y="59.694071"/></g><path fill="none" stroke="rgb(0%, 0%, 0%)" stroke-linecap="butt" stroke-linejoin="miter" stroke-miterlimit="10" stroke-opacity="1" stroke-width="0.39848" d="M 32.11653 17.732275 L 32.11653 -17.333562 " transform="matrix(0.987985, 0, 0, -0.987985, 115.663872, 31.648133)"/><path fill="none" stroke="rgb(0%, 0%, 0%)" stroke-linecap="round" stroke-linejoin="round" stroke-miterlimit="10" stroke-opacity="1" stroke-width="0.39848" d="M -2.071093 2.391821 C -1.695486 0.956609 -0.849383 0.280517 0.000673638 -0.000199643 C -0.849383 -0.276962 -1.695486 -0.957008 -2.071093 -2.39222 " transform="matrix(0, 0.987985, 0.987985, 0, 147.394728, 48.971991)"/><g fill="rgb(0%, 0%, 0%)" fill-opacity="1"><use xlink:href="#79c89d130f81120f50f227f163378b9dllfkic3t__glyph-1-0" x="149.709845" y="32.461245"/></g><path fill="none" stroke="rgb(0%, 0%, 0%)" stroke-linecap="butt" stroke-linejoin="miter" stroke-miterlimit="10" stroke-opacity="1" stroke-width="0.39848" d="M -32.464074 17.732275 L -32.464074 -17.333562 " transform="matrix(0.987985, 0, 0, -0.987985, 115.663872, 31.648133)"/><path fill="none" stroke="rgb(0%, 0%, 0%)" stroke-linecap="round" stroke-linejoin="round" stroke-miterlimit="10" stroke-opacity="1" stroke-width="0.39848" d="M -2.071093 2.390607 C -1.695486 0.955394 -0.849383 0.279302 0.000673638 -0.00141411 C -0.849383 -0.278177 -1.695486 -0.958222 -2.071093 -2.389481 " transform="matrix(0, 0.987985, 0.987985, 0, 83.591241, 48.971991)"/><g fill="rgb(0%, 0%, 0%)" fill-opacity="1"><use xlink:href="#79c89d130f81120f50f227f163378b9dllfkic3t__glyph-1-1" x="76.668092" y="34.040045"/></g><path fill="none" stroke="rgb(0%, 0%, 0%)" stroke-linecap="butt" stroke-linejoin="miter" stroke-miterlimit="10" stroke-opacity="1" stroke-width="0.39848" d="M -24.058395 -25.897392 L 22.967545 -25.897392 " transform="matrix(0.987985, 0, 0, -0.987985, 115.663872, 31.648133)"/><path fill="none" stroke="rgb(0%, 0%, 0%)" stroke-linecap="round" stroke-linejoin="round" stroke-miterlimit="10" stroke-opacity="1" stroke-width="0.39848" d="M -2.072714 2.390929 C -1.693153 0.955717 -0.851004 0.279625 -0.000946846 -0.00109162 C -0.851004 -0.277854 -1.693153 -0.9579 -2.072714 -2.389159 " transform="matrix(0.987985, 0, 0, -0.987985, 138.551717, 57.233296)"/><g fill="rgb(0%, 0%, 0%)" fill-opacity="1"><use xlink:href="#79c89d130f81120f50f227f163378b9dllfkic3t__glyph-1-2" x="111.200154" y="64.256588"/></g><g fill="rgb(0%, 0%, 0%)" fill-opacity="1"><use xlink:href="#79c89d130f81120f50f227f163378b9dllfkic3t__glyph-2-0" x="114.228329" y="59.693083"/></g></svg>