<?xml version="1.0" encoding="UTF-8"?><svg xmlns="http://www.w3.org/2000/svg" xmlns:xlink="http://www.w3.org/1999/xlink" width="343.711" height="101.205" viewBox="0 0 343.711 101.205"><defs><g><g id="85e97b4ec836f111e0da7989518463739txuiw7x__glyph-0-0"><path d="M 6.796875 -3.234375 C 6.9375 -3.234375 7.125 -3.234375 7.125 -3.4375 C 7.125 -3.625 6.9375 -3.625 6.8125 -3.625 L 0.875 -3.625 C 0.734375 -3.625 0.546875 -3.625 0.546875 -3.4375 C 0.546875 -3.234375 0.734375 -3.234375 0.890625 -3.234375 Z M 6.8125 -1.3125 C 6.9375 -1.3125 7.125 -1.3125 7.125 -1.515625 C 7.125 -1.71875 6.9375 -1.71875 6.796875 -1.71875 L 0.890625 -1.71875 C 0.734375 -1.71875 0.546875 -1.71875 0.546875 -1.515625 C 0.546875 -1.3125 0.734375 -1.3125 0.875 -1.3125 Z M 6.8125 -1.3125 "/></g></g><clipPath id="85e97b4ec836f111e0da7989518463739txuiw7x__clip-0"><path d="M 71 0 L 184 0 L 184 100.417969 L 71 100.417969 Z M 71 0 " clip-rule="nonzero"/></clipPath><clipPath id="85e97b4ec836f111e0da7989518463739txuiw7x__clip-1"><path d="M 71 0 L 156 0 L 156 100.417969 L 71 100.417969 Z M 71 0 " clip-rule="nonzero"/></clipPath><clipPath id="85e97b4ec836f111e0da7989518463739txuiw7x__clip-2"><path d="M 71 0 L 184 0 L 184 100.417969 L 71 100.417969 Z M 71 0 " clip-rule="nonzero"/></clipPath><clipPath id="85e97b4ec836f111e0da7989518463739txuiw7x__clip-3"><path d="M 159 0 L 272 0 L 272 100.417969 L 159 100.417969 Z M 159 0 " clip-rule="nonzero"/></clipPath><clipPath id="85e97b4ec836f111e0da7989518463739txuiw7x__clip-4"><path d="M 187 0 L 272 0 L 272 100.417969 L 187 100.417969 Z M 187 0 " clip-rule="nonzero"/></clipPath><clipPath id="85e97b4ec836f111e0da7989518463739txuiw7x__clip-5"><path d="M 159 0 L 272 0 L 272 100.417969 L 159 100.417969 Z M 159 0 " clip-rule="nonzero"/></clipPath></defs><g clip-path="url(#85e97b4ec836f111e0da7989518463739txuiw7x__clip-0)"><path fill="none" stroke="rgb(0%, 0%, 0%)" stroke-linecap="butt" stroke-linejoin="miter" stroke-miterlimit="10" stroke-opacity="1" stroke-width="1.99255" d="M 56.695112 -0.0000445383 L 56.695112 -28.345976 C 56.695112 -36.849756 52.159763 -41.952023 46.714982 -46.373201 M 38.325373 -52.837648 C 32.880592 -57.258826 28.345243 -62.365031 28.345243 -70.86881 L 28.345243 -56.691908 C 28.345243 -65.195687 23.809894 -70.297955 18.36905 -74.72307 M 9.979442 -81.18358 C 4.534661 -85.608695 -0.000688084 -90.710962 -0.000688084 -99.214742 " transform="matrix(0.992206, 0, 0, -0.992206, 99.488964, 0.988237)"/></g><g clip-path="url(#85e97b4ec836f111e0da7989518463739txuiw7x__clip-1)"><path fill="none" stroke="rgb(0%, 0%, 100%)" stroke-linecap="butt" stroke-linejoin="miter" stroke-miterlimit="10" stroke-opacity="1" stroke-width="1.99255" d="M 28.345243 -0.0000445383 C 28.345243 -8.503824 23.809894 -13.606092 18.36905 -18.02727 M 9.979442 -24.491717 C 4.534661 -28.912895 -0.000688084 -34.015162 -0.000688084 -42.518942 L -0.000688084 -56.691908 C -0.000688084 -77.955293 28.345243 -77.955293 28.345243 -99.214742 " transform="matrix(0.992206, 0, 0, -0.992206, 99.488964, 0.988237)"/></g><g clip-path="url(#85e97b4ec836f111e0da7989518463739txuiw7x__clip-2)"><path fill="none" stroke="rgb(100%, 0%, 0%)" stroke-linecap="butt" stroke-linejoin="miter" stroke-miterlimit="10" stroke-opacity="1" stroke-width="1.99255" d="M -0.000688084 -0.0000445383 C -0.000688084 -21.259493 28.345243 -21.259493 28.345243 -42.518942 L 28.345243 -28.345976 C 28.345243 -49.605425 56.695112 -49.605425 56.695112 -70.86881 L 56.695112 -99.214742 " transform="matrix(0.992206, 0, 0, -0.992206, 99.488964, 0.988237)"/></g><path fill="none" stroke="rgb(0%, 0%, 0%)" stroke-linecap="butt" stroke-linejoin="miter" stroke-miterlimit="10" stroke-opacity="1" stroke-width="0.79701" d="M -8.504468 -0.0000445383 L 65.198891 -0.0000445383 " transform="matrix(0.992206, 0, 0, -0.992206, 99.488964, 0.988237)"/><path fill="none" stroke="rgb(0%, 0%, 0%)" stroke-linecap="butt" stroke-linejoin="miter" stroke-miterlimit="10" stroke-opacity="1" stroke-width="0.79701" d="M -8.504468 -99.214742 L 65.198891 -99.214742 " transform="matrix(0.992206, 0, 0, -0.992206, 99.488964, 0.988237)"/><g fill="rgb(0%, 0%, 0%)" fill-opacity="1"><use xlink:href="#85e97b4ec836f111e0da7989518463739txuiw7x__glyph-0-0" x="167.866236" y="100.416196"/></g><g clip-path="url(#85e97b4ec836f111e0da7989518463739txuiw7x__clip-3)"><path fill="none" stroke="rgb(0%, 0%, 0%)" stroke-linecap="butt" stroke-linejoin="miter" stroke-miterlimit="10" stroke-opacity="1" stroke-width="1.99255" d="M 56.695229 -0.0000445383 C 56.695229 -8.503824 52.15988 -13.606092 46.715099 -18.02727 M 38.32549 -24.491717 C 32.880709 -28.912895 28.34536 -34.015162 28.34536 -42.518942 L 28.34536 -28.345976 C 28.34536 -36.849756 23.810011 -41.952023 18.369167 -46.373201 M 9.979559 -52.837648 C 4.534778 -57.258826 -0.000571143 -62.365031 -0.000571143 -70.86881 L -0.000571143 -99.214742 " transform="matrix(0.992206, 0, 0, -0.992206, 187.68416, 0.988237)"/></g><g clip-path="url(#85e97b4ec836f111e0da7989518463739txuiw7x__clip-4)"><path fill="none" stroke="rgb(0%, 0%, 100%)" stroke-linecap="butt" stroke-linejoin="miter" stroke-miterlimit="10" stroke-opacity="1" stroke-width="1.99255" d="M 28.34536 -0.0000445383 C 28.34536 -21.259493 56.695229 -21.259493 56.695229 -42.518942 L 56.695229 -56.691908 C 56.695229 -65.195687 52.15988 -70.297955 46.715099 -74.72307 M 38.32549 -81.18358 C 32.880709 -85.608695 28.34536 -90.710962 28.34536 -99.214742 " transform="matrix(0.992206, 0, 0, -0.992206, 187.68416, 0.988237)"/></g><g clip-path="url(#85e97b4ec836f111e0da7989518463739txuiw7x__clip-5)"><path fill="none" stroke="rgb(100%, 0%, 0%)" stroke-linecap="butt" stroke-linejoin="miter" stroke-miterlimit="10" stroke-opacity="1" stroke-width="1.99255" d="M -0.000571143 -0.0000445383 L -0.000571143 -28.345976 C -0.000571143 -49.605425 28.34536 -49.605425 28.34536 -70.86881 L 28.34536 -56.691908 C 28.34536 -77.955293 56.695229 -77.955293 56.695229 -99.214742 " transform="matrix(0.992206, 0, 0, -0.992206, 187.68416, 0.988237)"/></g><path fill="none" stroke="rgb(0%, 0%, 0%)" stroke-linecap="butt" stroke-linejoin="miter" stroke-miterlimit="10" stroke-opacity="1" stroke-width="0.79701" d="M -8.504351 -0.0000445383 L 65.199008 -0.0000445383 " transform="matrix(0.992206, 0, 0, -0.992206, 187.68416, 0.988237)"/><path fill="none" stroke="rgb(0%, 0%, 0%)" stroke-linecap="butt" stroke-linejoin="miter" stroke-miterlimit="10" stroke-opacity="1" stroke-width="0.79701" d="M -8.504351 -99.214742 L 65.199008 -99.214742 " transform="matrix(0.992206, 0, 0, -0.992206, 187.68416, 0.988237)"/></svg>