<?xml version="1.0" encoding="UTF-8"?><svg xmlns="http://www.w3.org/2000/svg" xmlns:xlink="http://www.w3.org/1999/xlink" width="343.711" height="186.244" viewBox="0 0 343.711 186.244"><defs><clipPath id="19496c81c30bfc753e88f32ad68f4389xl1wg90r__clip-0"><path d="M 8 0 L 11 0 L 11 185.492188 L 8 185.492188 Z M 8 0 " clip-rule="nonzero"/></clipPath><clipPath id="19496c81c30bfc753e88f32ad68f4389xl1wg90r__clip-1"><path d="M 9 0 L 94 0 L 94 185.492188 L 9 185.492188 Z M 9 0 " clip-rule="nonzero"/></clipPath><clipPath id="19496c81c30bfc753e88f32ad68f4389xl1wg90r__clip-2"><path d="M 9 0 L 123 0 L 123 185.492188 L 9 185.492188 Z M 9 0 " clip-rule="nonzero"/></clipPath><clipPath id="19496c81c30bfc753e88f32ad68f4389xl1wg90r__clip-3"><path d="M 66 0 L 151 0 L 151 185.492188 L 66 185.492188 Z M 66 0 " clip-rule="nonzero"/></clipPath><clipPath id="19496c81c30bfc753e88f32ad68f4389xl1wg90r__clip-4"><path d="M 37 0 L 151 0 L 151 185.492188 L 37 185.492188 Z M 37 0 " clip-rule="nonzero"/></clipPath><clipPath id="19496c81c30bfc753e88f32ad68f4389xl1wg90r__clip-5"><path d="M 0.550781 0 L 132 0 L 132 2 L 0.550781 2 Z M 0.550781 0 " clip-rule="nonzero"/></clipPath><clipPath id="19496c81c30bfc753e88f32ad68f4389xl1wg90r__clip-6"><path d="M 0.550781 184 L 132 184 L 132 185 L 0.550781 185 Z M 0.550781 184 " clip-rule="nonzero"/></clipPath><clipPath id="19496c81c30bfc753e88f32ad68f4389xl1wg90r__clip-7"><path d="M 193 0 L 306 0 L 306 185.492188 L 193 185.492188 Z M 193 0 " clip-rule="nonzero"/></clipPath><clipPath id="19496c81c30bfc753e88f32ad68f4389xl1wg90r__clip-8"><path d="M 249 0 L 342.871094 0 L 342.871094 185.492188 L 249 185.492188 Z M 249 0 " clip-rule="nonzero"/></clipPath><clipPath id="19496c81c30bfc753e88f32ad68f4389xl1wg90r__clip-9"><path d="M 193 0 L 334 0 L 334 185.492188 L 193 185.492188 Z M 193 0 " clip-rule="nonzero"/></clipPath><clipPath id="19496c81c30bfc753e88f32ad68f4389xl1wg90r__clip-10"><path d="M 277 0 L 342.871094 0 L 342.871094 185.492188 L 277 185.492188 Z M 277 0 " clip-rule="nonzero"/></clipPath><clipPath id="19496c81c30bfc753e88f32ad68f4389xl1wg90r__clip-11"><path d="M 212 0 L 342.871094 0 L 342.871094 2 L 212 2 Z M 212 0 " clip-rule="nonzero"/></clipPath><clipPath id="19496c81c30bfc753e88f32ad68f4389xl1wg90r__clip-12"><path d="M 212 184 L 342.871094 184 L 342.871094 185 L 212 185 Z M 212 184 " clip-rule="nonzero"/></clipPath></defs><g clip-path="url(#19496c81c30bfc753e88f32ad68f4389xl1wg90r__clip-0)"><path fill="none" stroke="rgb(100%, 0%, 0%)" stroke-linecap="butt" stroke-linejoin="miter" stroke-miterlimit="10" stroke-opacity="1" stroke-width="1.99255" d="M 0.000103758 -0.000214979 L 0.000103758 -184.252921 " transform="matrix(0.995957, 0, 0, -0.995957, 9.417865, 0.991973)"/></g><g clip-path="url(#19496c81c30bfc753e88f32ad68f4389xl1wg90r__clip-1)"><path fill="none" stroke="rgb(0%, 0%, 100%)" stroke-linecap="butt" stroke-linejoin="miter" stroke-miterlimit="10" stroke-opacity="1" stroke-width="1.99255" d="M 28.345165 -0.000214979 L 28.345165 -56.69426 C 28.345165 -77.952076 56.694149 -77.952076 56.694149 -99.213814 L 56.694149 -113.388306 C 56.694149 -121.891432 52.160194 -126.994092 46.716311 -131.414306 M 38.323004 -137.877937 C 32.883042 -142.302073 28.345165 -147.404733 28.345165 -155.907859 L 28.345165 -184.252921 " transform="matrix(0.995957, 0, 0, -0.995957, 9.417865, 0.991973)"/></g><g clip-path="url(#19496c81c30bfc753e88f32ad68f4389xl1wg90r__clip-2)"><path fill="none" stroke="rgb(0%, 100%, 0%)" stroke-linecap="butt" stroke-linejoin="miter" stroke-miterlimit="10" stroke-opacity="1" stroke-width="1.99255" d="M 85.039211 -0.000214979 C 85.039211 -8.503341 80.505256 -13.606001 75.061373 -18.030137 M 66.671987 -24.489846 C 61.228104 -28.913982 56.694149 -34.016642 56.694149 -42.519768 L 56.694149 -56.69426 C 56.694149 -65.197387 52.160194 -70.300047 46.716311 -74.72026 M 38.323004 -81.183892 C 32.883042 -85.608027 28.345165 -90.710688 28.345165 -99.213814 L 28.345165 -113.388306 C 28.345165 -134.646121 56.694149 -134.646121 56.694149 -155.907859 L 56.694149 -184.252921 " transform="matrix(0.995957, 0, 0, -0.995957, 9.417865, 0.991973)"/></g><g clip-path="url(#19496c81c30bfc753e88f32ad68f4389xl1wg90r__clip-3)"><path fill="none" stroke="rgb(100%, 94.898987%, 0%)" stroke-linecap="butt" stroke-linejoin="miter" stroke-miterlimit="10" stroke-opacity="1" stroke-width="1.99255" d="M 113.388194 -0.000214979 L 113.388194 -28.345277 C 113.388194 -36.852325 108.850318 -41.954985 103.410356 -46.375199 M 95.017049 -52.83883 C 89.577088 -57.259044 85.039211 -62.361704 85.039211 -70.868752 L 85.039211 -85.039322 C 85.039211 -106.30106 113.388194 -106.30106 113.388194 -127.558875 L 113.388194 -141.733367 C 113.388194 -150.236494 108.850318 -155.339154 103.410356 -159.76329 M 95.017049 -166.226921 C 89.577088 -170.647134 85.039211 -175.749794 85.039211 -184.252921 " transform="matrix(0.995957, 0, 0, -0.995957, 9.417865, 0.991973)"/></g><g clip-path="url(#19496c81c30bfc753e88f32ad68f4389xl1wg90r__clip-4)"><path fill="none" stroke="rgb(0%, 0%, 0%)" stroke-linecap="butt" stroke-linejoin="miter" stroke-miterlimit="10" stroke-opacity="1" stroke-width="1.99255" d="M 56.694149 -0.000214979 C 56.694149 -21.261953 85.039211 -21.261953 85.039211 -42.519768 L 85.039211 -28.345277 C 85.039211 -49.607014 113.388194 -49.607014 113.388194 -70.868752 L 113.388194 -85.039322 C 113.388194 -93.542448 108.850318 -98.645108 103.410356 -103.069244 M 95.017049 -109.532875 C 89.577088 -113.953089 85.039211 -119.055749 85.039211 -127.558875 L 85.039211 -141.733367 C 85.039211 -162.995105 113.388194 -162.995105 113.388194 -184.252921 " transform="matrix(0.995957, 0, 0, -0.995957, 9.417865, 0.991973)"/></g><g clip-path="url(#19496c81c30bfc753e88f32ad68f4389xl1wg90r__clip-5)"><path fill="none" stroke="rgb(0%, 0%, 0%)" stroke-linecap="butt" stroke-linejoin="miter" stroke-miterlimit="10" stroke-opacity="1" stroke-width="0.79701" d="M -8.503023 -0.000214979 L 121.891321 -0.000214979 " transform="matrix(0.995957, 0, 0, -0.995957, 9.417865, 0.991973)"/></g><g clip-path="url(#19496c81c30bfc753e88f32ad68f4389xl1wg90r__clip-6)"><path fill="none" stroke="rgb(0%, 0%, 0%)" stroke-linecap="butt" stroke-linejoin="miter" stroke-miterlimit="10" stroke-opacity="1" stroke-width="0.79701" d="M -8.503023 -184.252921 L 121.891321 -184.252921 " transform="matrix(0.995957, 0, 0, -0.995957, 9.417865, 0.991973)"/></g><g clip-path="url(#19496c81c30bfc753e88f32ad68f4389xl1wg90r__clip-7)"><path fill="none" stroke="rgb(0%, 0%, 100%)" stroke-linecap="butt" stroke-linejoin="miter" stroke-miterlimit="10" stroke-opacity="1" stroke-width="1.99255" d="M 28.348413 -0.000214979 L 28.348413 -28.345277 C 28.348413 -49.607014 56.693474 -49.607014 56.693474 -70.868752 L 56.693474 -85.039322 C 56.693474 -93.542448 52.15952 -98.645108 46.715636 -103.069244 M 38.326251 -109.532875 C 32.882368 -113.953089 28.348413 -119.055749 28.348413 -127.558875 L 28.348413 -141.733367 C 28.348413 -162.995105 -0.000570955 -162.995105 -0.000570955 -184.252921 " transform="matrix(0.995957, 0, 0, -0.995957, 221.078694, 0.991973)"/><path fill="none" stroke="rgb(0%, 0%, 0%)" stroke-linecap="butt" stroke-linejoin="miter" stroke-miterlimit="10" stroke-opacity="1" stroke-width="1.99255" d="M 56.693474 -0.000214979 L 56.693474 -28.345277 C 56.693474 -36.852325 52.15952 -41.954985 46.715636 -46.375199 M 38.326251 -52.83883 C 32.882368 -57.259044 28.348413 -62.361704 28.348413 -70.868752 L 28.348413 -56.69426 C 28.348413 -77.952076 -0.000570955 -77.952076 -0.000570955 -99.213814 L -0.000570955 -141.733367 C -0.000570955 -150.236494 4.533384 -155.339154 9.977267 -159.76329 M 18.370575 -166.226921 C 23.810536 -170.647134 28.348413 -175.749794 28.348413 -184.252921 " transform="matrix(0.995957, 0, 0, -0.995957, 221.078694, 0.991973)"/></g><g clip-path="url(#19496c81c30bfc753e88f32ad68f4389xl1wg90r__clip-8)"><path fill="none" stroke="rgb(100%, 94.898987%, 0%)" stroke-linecap="butt" stroke-linejoin="miter" stroke-miterlimit="10" stroke-opacity="1" stroke-width="1.99255" d="M 113.38752 -0.000214979 C 113.38752 -8.503341 108.853565 -13.606001 103.409682 -18.030137 M 95.016374 -24.489846 C 89.576413 -28.913982 85.038536 -34.016642 85.038536 -42.519768 L 85.038536 -113.388306 C 85.038536 -121.891432 80.504581 -126.994092 75.060698 -131.414306 M 66.671313 -137.877937 C 61.227429 -142.302073 56.693474 -147.404733 56.693474 -155.907859 L 56.693474 -184.252921 " transform="matrix(0.995957, 0, 0, -0.995957, 221.078694, 0.991973)"/></g><g clip-path="url(#19496c81c30bfc753e88f32ad68f4389xl1wg90r__clip-9)"><path fill="none" stroke="rgb(100%, 0%, 0%)" stroke-linecap="butt" stroke-linejoin="miter" stroke-miterlimit="10" stroke-opacity="1" stroke-width="1.99255" d="M -0.000570955 -0.000214979 L -0.000570955 -56.69426 C -0.000570955 -65.197387 4.533384 -70.300047 9.977267 -74.72026 M 18.370575 -81.183892 C 23.810536 -85.608027 28.348413 -90.710688 28.348413 -99.213814 L 28.348413 -85.039322 C 28.348413 -106.30106 56.693474 -106.30106 56.693474 -127.558875 L 56.693474 -113.388306 C 56.693474 -134.646121 85.038536 -134.646121 85.038536 -155.907859 L 85.038536 -184.252921 " transform="matrix(0.995957, 0, 0, -0.995957, 221.078694, 0.991973)"/></g><g clip-path="url(#19496c81c30bfc753e88f32ad68f4389xl1wg90r__clip-10)"><path fill="none" stroke="rgb(0%, 100%, 0%)" stroke-linecap="butt" stroke-linejoin="miter" stroke-miterlimit="10" stroke-opacity="1" stroke-width="1.99255" d="M 85.038536 -0.000214979 C 85.038536 -21.261953 113.38752 -21.261953 113.38752 -42.519768 L 113.38752 -184.252921 " transform="matrix(0.995957, 0, 0, -0.995957, 221.078694, 0.991973)"/></g><g clip-path="url(#19496c81c30bfc753e88f32ad68f4389xl1wg90r__clip-11)"><path fill="none" stroke="rgb(0%, 0%, 0%)" stroke-linecap="butt" stroke-linejoin="miter" stroke-miterlimit="10" stroke-opacity="1" stroke-width="0.79701" d="M -8.503697 -0.000214979 L 121.890646 -0.000214979 " transform="matrix(0.995957, 0, 0, -0.995957, 221.078694, 0.991973)"/></g><g clip-path="url(#19496c81c30bfc753e88f32ad68f4389xl1wg90r__clip-12)"><path fill="none" stroke="rgb(0%, 0%, 0%)" stroke-linecap="butt" stroke-linejoin="miter" stroke-miterlimit="10" stroke-opacity="1" stroke-width="0.79701" d="M -8.503697 -184.252921 L 121.890646 -184.252921 " transform="matrix(0.995957, 0, 0, -0.995957, 221.078694, 0.991973)"/></g></svg>