<?xml version="1.0" encoding="UTF-8"?><svg xmlns="http://www.w3.org/2000/svg" xmlns:xlink="http://www.w3.org/1999/xlink" width="343.711" height="102.025" viewBox="0 0 343.711 102.025"><defs><g><g id="d9c58d6627a9993f3e99b1ead3c4fa5cjad79sf5__glyph-0-0"><path d="M 6.78125 -3.234375 C 6.9375 -3.234375 7.125 -3.234375 7.125 -3.421875 C 7.125 -3.625 6.9375 -3.625 6.796875 -3.625 L 0.875 -3.625 C 0.734375 -3.625 0.546875 -3.625 0.546875 -3.421875 C 0.546875 -3.234375 0.734375 -3.234375 0.890625 -3.234375 Z M 6.796875 -1.3125 C 6.9375 -1.3125 7.125 -1.3125 7.125 -1.515625 C 7.125 -1.703125 6.9375 -1.703125 6.78125 -1.703125 L 0.890625 -1.703125 C 0.734375 -1.703125 0.546875 -1.703125 0.546875 -1.515625 C 0.546875 -1.3125 0.734375 -1.3125 0.875 -1.3125 Z M 6.796875 -1.3125 "/></g></g><clipPath id="d9c58d6627a9993f3e99b1ead3c4fa5cjad79sf5__clip-0"><path d="M 73 0 L 186 0 L 186 101.058594 L 73 101.058594 Z M 73 0 " clip-rule="nonzero"/></clipPath><clipPath id="d9c58d6627a9993f3e99b1ead3c4fa5cjad79sf5__clip-1"><path d="M 73 0 L 158 0 L 158 101.058594 L 73 101.058594 Z M 73 0 " clip-rule="nonzero"/></clipPath><clipPath id="d9c58d6627a9993f3e99b1ead3c4fa5cjad79sf5__clip-2"><path d="M 73 0 L 186 0 L 186 101.058594 L 73 101.058594 Z M 73 0 " clip-rule="nonzero"/></clipPath><clipPath id="d9c58d6627a9993f3e99b1ead3c4fa5cjad79sf5__clip-3"><path d="M 92 100 L 167 100 L 167 101.058594 L 92 101.058594 Z M 92 100 " clip-rule="nonzero"/></clipPath><clipPath id="d9c58d6627a9993f3e99b1ead3c4fa5cjad79sf5__clip-4"><path d="M 157 0 L 270 0 L 270 101.058594 L 157 101.058594 Z M 157 0 " clip-rule="nonzero"/></clipPath><clipPath id="d9c58d6627a9993f3e99b1ead3c4fa5cjad79sf5__clip-5"><path d="M 185 0 L 270 0 L 270 101.058594 L 185 101.058594 Z M 185 0 " clip-rule="nonzero"/></clipPath><clipPath id="d9c58d6627a9993f3e99b1ead3c4fa5cjad79sf5__clip-6"><path d="M 157 0 L 270 0 L 270 101.058594 L 157 101.058594 Z M 157 0 " clip-rule="nonzero"/></clipPath><clipPath id="d9c58d6627a9993f3e99b1ead3c4fa5cjad79sf5__clip-7"><path d="M 176 100 L 251 100 L 251 101.058594 L 176 101.058594 Z M 176 100 " clip-rule="nonzero"/></clipPath></defs><g clip-path="url(#d9c58d6627a9993f3e99b1ead3c4fa5cjad79sf5__clip-0)"><path fill="none" stroke="rgb(0%, 0%, 0%)" stroke-linecap="butt" stroke-linejoin="miter" stroke-miterlimit="10" stroke-opacity="1" stroke-width="1.99255" d="M 56.691829 -0.000725741 L 56.691829 -28.347179 C 56.691829 -36.849537 52.156712 -41.95253 46.714572 -46.373283 M 38.322634 -52.836811 C 32.880493 -57.261507 28.345376 -62.3645 28.345376 -70.866858 L 28.345376 -56.693632 C 28.345376 -65.19599 23.810259 -70.298983 18.368119 -74.72368 M 9.976181 -81.187207 C 4.53404 -85.60796 -0.0010767 -90.710953 -0.0010767 -99.213312 " transform="matrix(0.990534, 0, 0, -0.990534, 101.516692, 0.987562)"/></g><g clip-path="url(#d9c58d6627a9993f3e99b1ead3c4fa5cjad79sf5__clip-1)"><path fill="none" stroke="rgb(0%, 0%, 100%)" stroke-linecap="butt" stroke-linejoin="miter" stroke-miterlimit="10" stroke-opacity="1" stroke-width="1.99255" d="M 28.345376 -0.000725741 C 28.345376 -8.503084 23.810259 -13.606077 18.368119 -18.02683 M 9.976181 -24.490358 C 4.53404 -28.915054 -0.0010767 -34.018047 -0.0010767 -42.520405 L -0.0010767 -56.693632 C -0.0010767 -77.953472 28.345376 -77.953472 28.345376 -99.213312 " transform="matrix(0.990534, 0, 0, -0.990534, 101.516692, 0.987562)"/></g><g clip-path="url(#d9c58d6627a9993f3e99b1ead3c4fa5cjad79sf5__clip-2)"><path fill="none" stroke="rgb(100%, 0%, 0%)" stroke-linecap="butt" stroke-linejoin="miter" stroke-miterlimit="10" stroke-opacity="1" stroke-width="1.99255" d="M -0.0010767 -0.000725741 C -0.0010767 -21.260566 28.345376 -21.260566 28.345376 -42.520405 L 28.345376 -28.347179 C 28.345376 -49.607019 56.691829 -49.607019 56.691829 -70.866858 L 56.691829 -99.213312 " transform="matrix(0.990534, 0, 0, -0.990534, 101.516692, 0.987562)"/></g><path fill="none" stroke="rgb(0%, 0%, 0%)" stroke-linecap="butt" stroke-linejoin="miter" stroke-miterlimit="10" stroke-opacity="1" stroke-width="0.79701" d="M -8.503435 -0.000725741 L 65.198132 -0.000725741 " transform="matrix(0.990534, 0, 0, -0.990534, 101.516692, 0.987562)"/><g clip-path="url(#d9c58d6627a9993f3e99b1ead3c4fa5cjad79sf5__clip-3)"><path fill="none" stroke="rgb(0%, 0%, 0%)" stroke-linecap="butt" stroke-linejoin="miter" stroke-miterlimit="10" stroke-opacity="1" stroke-width="0.79701" d="M -8.503435 -100.633 L 65.198132 -100.633 " transform="matrix(0.990534, 0, 0, -0.990534, 101.516692, 0.987562)"/></g><g fill="rgb(0%, 0%, 0%)" fill-opacity="1"><use xlink:href="#d9c58d6627a9993f3e99b1ead3c4fa5cjad79sf5__glyph-0-0" x="169.279121" y="50.53011"/></g><g clip-path="url(#d9c58d6627a9993f3e99b1ead3c4fa5cjad79sf5__clip-4)"><path fill="none" stroke="rgb(0%, 0%, 0%)" stroke-linecap="butt" stroke-linejoin="miter" stroke-miterlimit="10" stroke-opacity="1" stroke-width="1.99255" d="M 141.735132 -0.000725741 C 141.735132 -8.503084 137.200015 -13.606077 131.757875 -18.02683 M 123.365937 -24.490358 C 117.923796 -28.915054 113.388679 -34.018047 113.388679 -42.520405 L 113.388679 -28.347179 C 113.388679 -36.849537 108.853562 -41.95253 103.407478 -46.373283 M 95.019484 -52.836811 C 89.577343 -57.261507 85.042226 -62.3645 85.042226 -70.866858 L 85.042226 -99.213312 " transform="matrix(0.990534, 0, 0, -0.990534, 101.516692, 0.987562)"/></g><g clip-path="url(#d9c58d6627a9993f3e99b1ead3c4fa5cjad79sf5__clip-5)"><path fill="none" stroke="rgb(0%, 0%, 100%)" stroke-linecap="butt" stroke-linejoin="miter" stroke-miterlimit="10" stroke-opacity="1" stroke-width="1.99255" d="M 113.388679 -0.000725741 C 113.388679 -21.260566 141.735132 -21.260566 141.735132 -42.520405 L 141.735132 -56.693632 C 141.735132 -65.19599 137.200015 -70.298983 131.757875 -74.72368 M 123.365937 -81.187207 C 117.923796 -85.60796 113.388679 -90.710953 113.388679 -99.213312 " transform="matrix(0.990534, 0, 0, -0.990534, 101.516692, 0.987562)"/></g><g clip-path="url(#d9c58d6627a9993f3e99b1ead3c4fa5cjad79sf5__clip-6)"><path fill="none" stroke="rgb(100%, 0%, 0%)" stroke-linecap="butt" stroke-linejoin="miter" stroke-miterlimit="10" stroke-opacity="1" stroke-width="1.99255" d="M 85.042226 -0.000725741 L 85.042226 -28.347179 C 85.042226 -49.607019 113.388679 -49.607019 113.388679 -70.866858 L 113.388679 -56.693632 C 113.388679 -77.953472 141.735132 -77.953472 141.735132 -99.213312 " transform="matrix(0.990534, 0, 0, -0.990534, 101.516692, 0.987562)"/></g><path fill="none" stroke="rgb(0%, 0%, 0%)" stroke-linecap="butt" stroke-linejoin="miter" stroke-miterlimit="10" stroke-opacity="1" stroke-width="0.79701" d="M 76.535924 -0.000725741 L 150.237491 -0.000725741 " transform="matrix(0.990534, 0, 0, -0.990534, 101.516692, 0.987562)"/><g clip-path="url(#d9c58d6627a9993f3e99b1ead3c4fa5cjad79sf5__clip-7)"><path fill="none" stroke="rgb(0%, 0%, 0%)" stroke-linecap="butt" stroke-linejoin="miter" stroke-miterlimit="10" stroke-opacity="1" stroke-width="0.79701" d="M 76.535924 -100.633 L 150.237491 -100.633 " transform="matrix(0.990534, 0, 0, -0.990534, 101.516692, 0.987562)"/></g></svg>