<?xml version="1.0" encoding="UTF-8"?><svg xmlns="http://www.w3.org/2000/svg" xmlns:xlink="http://www.w3.org/1999/xlink" width="264.767" height="68.474" viewBox="0 0 264.767 68.474"><defs><g><g id="bedd4b95867184a167a58ad5bafe7c97dmngnot6__glyph-0-0"><path d="M 1.765625 -1.140625 C 1.375 -0.46875 0.984375 -0.34375 0.546875 -0.3125 C 0.4375 -0.296875 0.34375 -0.296875 0.34375 -0.109375 C 0.34375 -0.046875 0.390625 0 0.46875 0 C 0.734375 0 1.046875 -0.03125 1.328125 -0.03125 C 1.65625 -0.03125 2 0 2.3125 0 C 2.375 0 2.5 0 2.5 -0.1875 C 2.5 -0.296875 2.40625 -0.3125 2.34375 -0.3125 C 2.109375 -0.328125 1.875 -0.40625 1.875 -0.65625 C 1.875 -0.765625 1.9375 -0.875 2.015625 -1.015625 L 2.765625 -2.28125 L 5.25 -2.28125 C 5.265625 -2.078125 5.40625 -0.734375 5.40625 -0.640625 C 5.40625 -0.34375 4.890625 -0.3125 4.703125 -0.3125 C 4.5625 -0.3125 4.453125 -0.3125 4.453125 -0.109375 C 4.453125 0 4.578125 0 4.59375 0 C 5 0 5.4375 -0.03125 5.828125 -0.03125 C 6.078125 -0.03125 6.703125 0 6.953125 0 C 7.015625 0 7.125 0 7.125 -0.203125 C 7.125 -0.3125 7.03125 -0.3125 6.90625 -0.3125 C 6.296875 -0.3125 6.296875 -0.375 6.265625 -0.65625 L 5.65625 -6.84375 C 5.640625 -7.046875 5.640625 -7.078125 5.46875 -7.078125 C 5.3125 -7.078125 5.265625 -7.015625 5.21875 -6.90625 Z M 2.953125 -2.59375 L 4.90625 -5.859375 L 5.21875 -2.59375 Z M 2.953125 -2.59375 "/></g><g id="bedd4b95867184a167a58ad5bafe7c97dmngnot6__glyph-0-1"><path d="M 1.578125 -0.765625 C 1.484375 -0.390625 1.46875 -0.3125 0.6875 -0.3125 C 0.515625 -0.3125 0.421875 -0.3125 0.421875 -0.109375 C 0.421875 0 0.5 0 0.6875 0 L 4.21875 0 C 5.78125 0 6.9375 -1.171875 6.9375 -2.140625 C 6.9375 -2.84375 6.375 -3.421875 5.40625 -3.53125 C 6.4375 -3.71875 7.484375 -4.453125 7.484375 -5.390625 C 7.484375 -6.125 6.828125 -6.75 5.640625 -6.75 L 2.3125 -6.75 C 2.125 -6.75 2.03125 -6.75 2.03125 -6.5625 C 2.03125 -6.453125 2.109375 -6.453125 2.296875 -6.453125 C 2.328125 -6.453125 2.515625 -6.453125 2.6875 -6.421875 C 2.859375 -6.40625 2.953125 -6.40625 2.953125 -6.265625 C 2.953125 -6.234375 2.9375 -6.203125 2.90625 -6.078125 Z M 3.078125 -3.625 L 3.6875 -6.078125 C 3.78125 -6.421875 3.796875 -6.453125 4.21875 -6.453125 L 5.5 -6.453125 C 6.375 -6.453125 6.578125 -5.859375 6.578125 -5.4375 C 6.578125 -4.5625 5.734375 -3.625 4.515625 -3.625 Z M 2.625 -0.3125 C 2.5 -0.3125 2.46875 -0.3125 2.40625 -0.3125 C 2.3125 -0.328125 2.28125 -0.34375 2.28125 -0.421875 C 2.28125 -0.4375 2.28125 -0.46875 2.328125 -0.640625 L 3.015625 -3.40625 L 4.890625 -3.40625 C 5.828125 -3.40625 6.015625 -2.671875 6.015625 -2.25 C 6.015625 -1.265625 5.140625 -0.3125 3.96875 -0.3125 Z M 2.625 -0.3125 "/></g><g id="bedd4b95867184a167a58ad5bafe7c97dmngnot6__glyph-0-2"><path d="M 7.515625 -6.875 C 7.515625 -6.90625 7.5 -6.96875 7.40625 -6.96875 C 7.375 -6.96875 7.375 -6.96875 7.265625 -6.859375 L 6.5625 -6.09375 C 6.484375 -6.234375 6.015625 -6.96875 4.921875 -6.96875 C 2.71875 -6.96875 0.5 -4.78125 0.5 -2.5 C 0.5 -0.859375 1.65625 0.21875 3.171875 0.21875 C 4.03125 0.21875 4.78125 -0.171875 5.3125 -0.640625 C 6.234375 -1.4375 6.40625 -2.34375 6.40625 -2.375 C 6.40625 -2.46875 6.296875 -2.46875 6.28125 -2.46875 C 6.21875 -2.46875 6.171875 -2.453125 6.15625 -2.375 C 6.0625 -2.09375 5.828125 -1.390625 5.15625 -0.8125 C 4.46875 -0.25 3.84375 -0.09375 3.328125 -0.09375 C 2.4375 -0.09375 1.390625 -0.609375 1.390625 -2.140625 C 1.390625 -2.703125 1.609375 -4.3125 2.59375 -5.46875 C 3.1875 -6.171875 4.125 -6.671875 5 -6.671875 C 6.015625 -6.671875 6.59375 -5.90625 6.59375 -4.75 C 6.59375 -4.359375 6.5625 -4.359375 6.5625 -4.25 C 6.5625 -4.15625 6.671875 -4.15625 6.71875 -4.15625 C 6.84375 -4.15625 6.84375 -4.171875 6.890625 -4.359375 Z M 7.515625 -6.875 "/></g><g id="bedd4b95867184a167a58ad5bafe7c97dmngnot6__glyph-1-0"><path d="M 3.953125 -2.78125 C 3.9375 -2.84375 3.921875 -2.859375 3.921875 -2.859375 C 3.921875 -2.875 3.921875 -2.890625 4.078125 -3 L 4.78125 -3.484375 C 5.703125 -4.125 6.125 -4.4375 6.625 -4.484375 C 6.6875 -4.484375 6.78125 -4.5 6.78125 -4.625 C 6.78125 -4.6875 6.734375 -4.71875 6.6875 -4.71875 C 6.546875 -4.71875 6.359375 -4.703125 6.203125 -4.703125 C 6.015625 -4.703125 5.5625 -4.734375 5.375 -4.734375 C 5.328125 -4.734375 5.21875 -4.734375 5.21875 -4.578125 C 5.21875 -4.5625 5.21875 -4.484375 5.328125 -4.484375 C 5.40625 -4.46875 5.5 -4.453125 5.5 -4.375 C 5.5 -4.25 5.28125 -4.109375 5.203125 -4.046875 L 2.3125 -2 L 2.859375 -4.1875 C 2.921875 -4.421875 2.921875 -4.484375 3.46875 -4.484375 C 3.578125 -4.484375 3.671875 -4.484375 3.671875 -4.625 C 3.671875 -4.6875 3.640625 -4.734375 3.5625 -4.734375 C 3.359375 -4.734375 2.859375 -4.703125 2.65625 -4.703125 C 2.546875 -4.703125 2.296875 -4.703125 2.1875 -4.703125 C 2.046875 -4.71875 1.875 -4.734375 1.75 -4.734375 C 1.703125 -4.734375 1.59375 -4.734375 1.59375 -4.578125 C 1.59375 -4.484375 1.671875 -4.484375 1.828125 -4.484375 C 1.9375 -4.484375 1.96875 -4.484375 2.09375 -4.46875 C 2.234375 -4.453125 2.25 -4.4375 2.25 -4.375 C 2.25 -4.359375 2.25 -4.3125 2.21875 -4.21875 L 1.296875 -0.546875 C 1.234375 -0.296875 1.21875 -0.25 0.6875 -0.25 C 0.5625 -0.25 0.484375 -0.25 0.484375 -0.09375 C 0.484375 -0.09375 0.484375 0 0.59375 0 C 0.796875 0 1.28125 -0.03125 1.484375 -0.03125 C 1.609375 -0.03125 1.84375 -0.03125 1.96875 -0.015625 C 2.109375 -0.015625 2.28125 0 2.40625 0 C 2.453125 0 2.546875 0 2.546875 -0.15625 C 2.546875 -0.25 2.46875 -0.25 2.328125 -0.25 C 2.328125 -0.25 2.1875 -0.25 2.0625 -0.265625 C 1.90625 -0.28125 1.90625 -0.296875 1.90625 -0.359375 C 1.90625 -0.421875 1.984375 -0.671875 2.234375 -1.703125 L 3.390625 -2.5 L 4.390625 -0.5625 C 4.4375 -0.46875 4.4375 -0.46875 4.4375 -0.421875 C 4.4375 -0.265625 4.25 -0.25 4.125 -0.25 C 4.03125 -0.25 3.9375 -0.25 3.9375 -0.09375 C 3.9375 -0.09375 3.953125 0 4.0625 0 C 4.25 0 4.75 -0.03125 4.9375 -0.03125 C 5.15625 -0.03125 5.421875 0 5.625 0 C 5.703125 0 5.765625 -0.046875 5.765625 -0.140625 C 5.765625 -0.25 5.671875 -0.25 5.59375 -0.25 C 5.46875 -0.25 5.265625 -0.25 5.140625 -0.484375 Z M 3.953125 -2.78125 "/></g><g id="bedd4b95867184a167a58ad5bafe7c97dmngnot6__glyph-1-1"><path d="M 2.859375 -4.25 C 2.90625 -4.4375 2.921875 -4.453125 3.078125 -4.484375 L 3.515625 -4.484375 C 4.15625 -4.484375 4.953125 -4.484375 4.953125 -3.765625 C 4.953125 -3.484375 4.828125 -3.046875 4.5 -2.796875 C 4.21875 -2.578125 3.78125 -2.46875 3.3125 -2.46875 L 2.421875 -2.46875 Z M 4.109375 -2.359375 C 4.9375 -2.546875 5.671875 -3.046875 5.671875 -3.65625 C 5.671875 -4.25 4.96875 -4.734375 3.953125 -4.734375 L 1.828125 -4.734375 C 1.703125 -4.734375 1.609375 -4.734375 1.609375 -4.578125 C 1.609375 -4.484375 1.703125 -4.484375 1.828125 -4.484375 C 1.84375 -4.484375 1.96875 -4.484375 2.09375 -4.46875 C 2.25 -4.453125 2.25 -4.4375 2.25 -4.375 C 2.25 -4.359375 2.25 -4.3125 2.234375 -4.21875 L 1.3125 -0.546875 C 1.25 -0.296875 1.234375 -0.25 0.703125 -0.25 C 0.578125 -0.25 0.484375 -0.25 0.484375 -0.109375 C 0.484375 -0.03125 0.546875 0 0.609375 0 C 0.734375 0 0.890625 -0.015625 1.03125 -0.015625 C 1.15625 -0.015625 1.359375 -0.03125 1.484375 -0.03125 C 1.625 -0.03125 1.78125 -0.015625 1.9375 -0.015625 C 2.078125 -0.015625 2.25 0 2.390625 0 C 2.421875 0 2.546875 0 2.546875 -0.140625 C 2.546875 -0.25 2.46875 -0.25 2.3125 -0.25 C 2.203125 -0.25 2.171875 -0.25 2.046875 -0.265625 C 1.890625 -0.28125 1.890625 -0.296875 1.890625 -0.359375 C 1.890625 -0.375 1.890625 -0.421875 1.921875 -0.515625 L 2.359375 -2.265625 L 3.296875 -2.265625 C 3.890625 -2.265625 4.15625 -1.96875 4.15625 -1.640625 C 4.15625 -1.5625 4.09375 -1.328125 4.0625 -1.15625 C 3.96875 -0.84375 3.953125 -0.734375 3.953125 -0.625 C 3.953125 -0.078125 4.453125 0.140625 4.96875 0.140625 C 5.59375 0.140625 5.875 -0.546875 5.875 -0.671875 C 5.875 -0.6875 5.859375 -0.765625 5.765625 -0.765625 C 5.671875 -0.765625 5.65625 -0.71875 5.640625 -0.640625 C 5.53125 -0.34375 5.28125 -0.0625 4.984375 -0.0625 C 4.8125 -0.0625 4.671875 -0.125 4.671875 -0.5 C 4.671875 -0.671875 4.71875 -1.03125 4.75 -1.21875 C 4.78125 -1.40625 4.78125 -1.484375 4.78125 -1.546875 C 4.78125 -1.640625 4.78125 -1.859375 4.578125 -2.0625 C 4.453125 -2.203125 4.265625 -2.296875 4.109375 -2.359375 Z M 4.109375 -2.359375 "/></g><g id="bedd4b95867184a167a58ad5bafe7c97dmngnot6__glyph-1-2"><path d="M 2.375 -2.234375 L 3.109375 -2.234375 C 3.640625 -2.234375 3.71875 -2.140625 3.71875 -1.921875 C 3.71875 -1.8125 3.71875 -1.796875 3.671875 -1.609375 C 3.65625 -1.5625 3.65625 -1.546875 3.65625 -1.515625 C 3.65625 -1.453125 3.703125 -1.421875 3.765625 -1.421875 C 3.859375 -1.421875 3.875 -1.453125 3.90625 -1.578125 L 4.28125 -3.046875 C 4.28125 -3.0625 4.3125 -3.171875 4.3125 -3.1875 C 4.3125 -3.25 4.25 -3.28125 4.1875 -3.28125 C 4.09375 -3.28125 4.078125 -3.25 4.046875 -3.125 C 3.90625 -2.578125 3.703125 -2.484375 3.125 -2.484375 L 2.421875 -2.484375 L 2.859375 -4.21875 C 2.921875 -4.4375 2.921875 -4.453125 3.21875 -4.453125 L 4.28125 -4.453125 C 5.203125 -4.453125 5.375 -4.234375 5.375 -3.65625 C 5.375 -3.421875 5.34375 -3.28125 5.34375 -3.21875 C 5.34375 -3.171875 5.359375 -3.109375 5.46875 -3.109375 C 5.5625 -3.109375 5.578125 -3.171875 5.578125 -3.28125 L 5.703125 -4.5 C 5.734375 -4.703125 5.6875 -4.703125 5.515625 -4.703125 L 1.8125 -4.703125 C 1.6875 -4.703125 1.59375 -4.703125 1.59375 -4.546875 C 1.59375 -4.453125 1.671875 -4.453125 1.8125 -4.453125 C 1.828125 -4.453125 1.953125 -4.453125 2.078125 -4.4375 C 2.21875 -4.421875 2.234375 -4.40625 2.234375 -4.34375 C 2.234375 -4.296875 2.21875 -4.21875 2.203125 -4.1875 L 1.296875 -0.5625 C 1.234375 -0.296875 1.21875 -0.25 0.6875 -0.25 C 0.5625 -0.25 0.484375 -0.25 0.484375 -0.109375 C 0.484375 -0.03125 0.53125 0 0.59375 0 C 0.796875 0 1.296875 -0.03125 1.5 -0.03125 L 2.03125 -0.015625 C 2.21875 -0.015625 2.40625 0 2.578125 0 C 2.625 0 2.734375 0 2.734375 -0.15625 C 2.734375 -0.25 2.65625 -0.25 2.484375 -0.25 C 2.484375 -0.25 2.3125 -0.25 2.125 -0.265625 C 1.984375 -0.28125 1.921875 -0.28125 1.921875 -0.375 C 1.921875 -0.40625 1.921875 -0.421875 1.9375 -0.5 Z M 2.375 -2.234375 "/></g><g id="bedd4b95867184a167a58ad5bafe7c97dmngnot6__glyph-1-3"><path d="M 1.734375 -2.859375 C 1.75 -2.875 1.75 -2.921875 1.75 -2.953125 C 1.75 -2.96875 1.75 -3.046875 1.640625 -3.046875 C 1.640625 -3.046875 1.234375 -3.015625 1.1875 -3.015625 C 1.0625 -3 0.9375 -3 0.796875 -2.984375 C 0.6875 -2.96875 0.609375 -2.96875 0.609375 -2.828125 C 0.609375 -2.734375 0.703125 -2.734375 0.796875 -2.734375 C 1.125 -2.734375 1.125 -2.6875 1.125 -2.625 C 1.125 -2.578125 1.09375 -2.4375 1.0625 -2.359375 L 0.71875 -0.953125 C 0.546875 -0.265625 0.5 -0.125 0.5 -0.09375 C 0.5 0 0.609375 0 0.640625 0 L 0.75 0 C 1.359375 -0.09375 2.25 -0.421875 2.984375 -1.078125 C 3.921875 -1.921875 4.0625 -2.8125 4.0625 -2.828125 C 4.0625 -2.953125 3.96875 -3.046875 3.828125 -3.046875 C 3.578125 -3.046875 3.53125 -2.859375 3.46875 -2.671875 C 3.203125 -1.6875 2.265625 -0.625 1.09375 -0.28125 Z M 1.734375 -2.859375 "/></g><g id="bedd4b95867184a167a58ad5bafe7c97dmngnot6__glyph-2-0"><path d="M 1.296875 -3.921875 C 1.296875 -4.078125 1.296875 -4.265625 1.09375 -4.265625 C 0.90625 -4.265625 0.90625 -4.078125 0.90625 -3.90625 L 0.90625 -0.125 C 0.90625 0.046875 0.90625 0.21875 1.09375 0.21875 C 1.296875 0.21875 1.296875 0.046875 1.296875 -0.125 Z M 1.296875 -3.921875 "/></g></g></defs><g fill="rgb(0%, 0%, 0%)" fill-opacity="1"><use xlink:href="#bedd4b95867184a167a58ad5bafe7c97dmngnot6__glyph-0-0" x="64.706379" y="11.655466"/></g><g fill="rgb(0%, 0%, 0%)" fill-opacity="1"><use xlink:href="#bedd4b95867184a167a58ad5bafe7c97dmngnot6__glyph-0-1" x="128.09147" y="11.655466"/></g><g fill="rgb(0%, 0%, 0%)" fill-opacity="1"><use xlink:href="#bedd4b95867184a167a58ad5bafe7c97dmngnot6__glyph-0-2" x="192.05611" y="11.655466"/></g><g fill="rgb(0%, 0%, 0%)" fill-opacity="1"><use xlink:href="#bedd4b95867184a167a58ad5bafe7c97dmngnot6__glyph-0-0" x="64.706379" y="61.239573"/></g><g fill="rgb(0%, 0%, 0%)" fill-opacity="1"><use xlink:href="#bedd4b95867184a167a58ad5bafe7c97dmngnot6__glyph-0-2" x="192.05611" y="61.240565"/></g><path fill="none" stroke="rgb(0%, 0%, 0%)" stroke-linecap="butt" stroke-linejoin="miter" stroke-miterlimit="10" stroke-opacity="1" stroke-width="0.39848" d="M -56.121994 24.06986 L -9.095534 24.06986 " transform="matrix(0.992377, 0, 0, -0.992377, 132.268384, 33.069965)"/><path fill="none" stroke="rgb(0%, 0%, 0%)" stroke-linecap="round" stroke-linejoin="round" stroke-miterlimit="10" stroke-opacity="1" stroke-width="0.39848" d="M -2.072282 2.389348 C -1.694401 0.956551 -0.848106 0.279514 -0.00181092 0.0000401988 C -0.848106 -0.279434 -1.694401 -0.95647 -2.072282 -2.389268 " transform="matrix(0.992377, 0, 0, -0.992377, 123.439297, 9.183634)"/><g fill="rgb(0%, 0%, 0%)" fill-opacity="1"><use xlink:href="#bedd4b95867184a167a58ad5bafe7c97dmngnot6__glyph-1-0" x="96.542819" y="6.857324"/></g><g fill="rgb(0%, 0%, 0%)" fill-opacity="1"><use xlink:href="#bedd4b95867184a167a58ad5bafe7c97dmngnot6__glyph-2-0" x="99.007883" y="11.655466"/></g><path fill="none" stroke="rgb(0%, 0%, 0%)" stroke-linecap="butt" stroke-linejoin="miter" stroke-miterlimit="10" stroke-opacity="1" stroke-width="2.32874" d="M -64.344835 17.732487 L -64.344835 -17.733187 " transform="matrix(0.992377, 0, 0, -0.992377, 132.268384, 33.069965)"/><path fill="none" stroke="rgb(100%, 100%, 100%)" stroke-linecap="butt" stroke-linejoin="miter" stroke-miterlimit="10" stroke-opacity="1" stroke-width="1.53175" d="M -64.344835 17.732487 L -64.344835 -17.733187 " transform="matrix(0.992377, 0, 0, -0.992377, 132.268384, 33.069965)"/><path fill="none" stroke="rgb(0%, 0%, 0%)" stroke-linecap="butt" stroke-linejoin="miter" stroke-miterlimit="10" stroke-opacity="1" stroke-width="0.39848" d="M 8.338148 24.06986 L 55.360672 24.06986 " transform="matrix(0.992377, 0, 0, -0.992377, 132.268384, 33.069965)"/><path fill="none" stroke="rgb(0%, 0%, 0%)" stroke-linecap="round" stroke-linejoin="round" stroke-miterlimit="10" stroke-opacity="1" stroke-width="0.39848" d="M -2.072996 2.389348 C -1.695116 0.956551 -0.848821 0.279514 0.00141089 0.0000401988 C -0.848821 -0.279434 -1.695116 -0.95647 -2.072996 -2.389268 " transform="matrix(0.992377, 0, 0, -0.992377, 187.40485, 9.183634)"/><g fill="rgb(0%, 0%, 0%)" fill-opacity="1"><use xlink:href="#bedd4b95867184a167a58ad5bafe7c97dmngnot6__glyph-1-1" x="161.075098" y="6.857324"/></g><g fill="rgb(0%, 0%, 0%)" fill-opacity="1"><use xlink:href="#bedd4b95867184a167a58ad5bafe7c97dmngnot6__glyph-2-0" x="162.972523" y="11.655466"/></g><path fill="none" stroke="rgb(0%, 0%, 0%)" stroke-linecap="butt" stroke-linejoin="miter" stroke-miterlimit="10" stroke-opacity="1" stroke-width="2.32874" d="M 64.166078 17.732487 L 64.166078 -17.733187 " transform="matrix(0.992377, 0, 0, -0.992377, 132.268384, 33.069965)"/><path fill="none" stroke="rgb(100%, 100%, 100%)" stroke-linecap="butt" stroke-linejoin="miter" stroke-miterlimit="10" stroke-opacity="1" stroke-width="1.53175" d="M 64.166078 17.732487 L 64.166078 -17.733187 " transform="matrix(0.992377, 0, 0, -0.992377, 132.268384, 33.069965)"/><path fill="none" stroke="rgb(0%, 0%, 0%)" stroke-linecap="butt" stroke-linejoin="miter" stroke-miterlimit="10" stroke-opacity="1" stroke-width="0.39848" d="M -56.121994 -25.896984 L 55.360672 -25.896984 " transform="matrix(0.992377, 0, 0, -0.992377, 132.268384, 33.069965)"/><path fill="none" stroke="rgb(0%, 0%, 0%)" stroke-linecap="round" stroke-linejoin="round" stroke-miterlimit="10" stroke-opacity="1" stroke-width="0.39848" d="M -2.072996 2.39256 C -1.695116 0.955826 -0.848821 0.27879 0.00141089 -0.000683968 C -0.848821 -0.280158 -1.695116 -0.957194 -2.072996 -2.389992 " transform="matrix(0.992377, 0, 0, -0.992377, 187.40485, 58.768852)"/><g fill="rgb(0%, 0%, 0%)" fill-opacity="1"><use xlink:href="#bedd4b95867184a167a58ad5bafe7c97dmngnot6__glyph-1-2" x="129.050106" y="65.823362"/></g><g fill="rgb(0%, 0%, 0%)" fill-opacity="1"><use xlink:href="#bedd4b95867184a167a58ad5bafe7c97dmngnot6__glyph-2-0" x="130.990203" y="61.239573"/></g><path fill="none" stroke="rgb(0%, 0%, 0%)" stroke-linecap="butt" stroke-linejoin="miter" stroke-miterlimit="10" stroke-opacity="1" stroke-width="2.32874" d="M -0.179912 17.732487 L -0.179912 -16.036661 " transform="matrix(0.992377, 0, 0, -0.992377, 132.268384, 33.069965)"/><path fill="none" stroke="rgb(100%, 100%, 100%)" stroke-linecap="butt" stroke-linejoin="miter" stroke-miterlimit="10" stroke-opacity="1" stroke-width="1.53175" d="M -0.179912 17.732487 L -0.179912 -16.036661 " transform="matrix(0.992377, 0, 0, -0.992377, 132.268384, 33.069965)"/><path fill="none" stroke="rgb(0%, 0%, 0%)" stroke-linecap="round" stroke-linejoin="round" stroke-miterlimit="10" stroke-opacity="1" stroke-width="0.39848" d="M -1.292062 2.559215 C -0.666197 1.205143 1.022457 0.047883 1.98684 0.000647957 C 1.022457 -0.0465871 -0.666197 -1.207783 -1.292062 -2.557919 " transform="matrix(0, 0.992377, 0.992377, 0, 132.089201, 48.985337)"/><g fill="rgb(0%, 0%, 0%)" fill-opacity="1"><use xlink:href="#bedd4b95867184a167a58ad5bafe7c97dmngnot6__glyph-1-3" x="125.337625" y="38.264065"/></g></svg>