<?xml version="1.0" encoding="UTF-8"?><svg xmlns="http://www.w3.org/2000/svg" xmlns:xlink="http://www.w3.org/1999/xlink" width="343.711" height="45.332" viewBox="0 0 343.711 45.332"><defs><clipPath id="e027d549853c617e0edc7be673fdcf35tf26p8qg__clip-0"><path d="M 143 0 L 228 0 L 228 44.671875 L 143 44.671875 Z M 143 0 " clip-rule="nonzero"/></clipPath><clipPath id="e027d549853c617e0edc7be673fdcf35tf26p8qg__clip-1"><path d="M 135 43 L 209 43 L 209 44.671875 L 135 44.671875 Z M 135 43 " clip-rule="nonzero"/></clipPath></defs><path fill="none" stroke="rgb(100%, 0%, 0%)" stroke-linecap="butt" stroke-linejoin="miter" stroke-miterlimit="10" stroke-opacity="1" stroke-width="1.99255" d="M -0.00090831 0.00108333 L -0.00090831 -42.518722 " transform="matrix(0.985478, 0, 0, -0.985478, 143.778239, 0.981536)"/><g clip-path="url(#e027d549853c617e0edc7be673fdcf35tf26p8qg__clip-0)"><path fill="none" stroke="rgb(0%, 0%, 0%)" stroke-linecap="butt" stroke-linejoin="miter" stroke-miterlimit="10" stroke-opacity="1" stroke-width="1.99255" d="M 56.693487 0.00108333 C 56.693487 -8.505256 52.158886 -13.606681 46.716573 -18.026331 M 38.325184 -24.491308 C 32.882871 -28.914921 28.348271 -34.016346 28.348271 -42.518722 " transform="matrix(0.985478, 0, 0, -0.985478, 143.778239, 0.981536)"/><path fill="none" stroke="rgb(0%, 0%, 100%)" stroke-linecap="butt" stroke-linejoin="miter" stroke-miterlimit="10" stroke-opacity="1" stroke-width="1.99255" d="M 28.348271 0.00108333 C 28.348271 -21.260801 56.693487 -21.260801 56.693487 -42.518722 " transform="matrix(0.985478, 0, 0, -0.985478, 143.778239, 0.981536)"/></g><path fill="none" stroke="rgb(0%, 0%, 0%)" stroke-linecap="butt" stroke-linejoin="miter" stroke-miterlimit="10" stroke-opacity="1" stroke-width="0.79701" d="M -8.503284 0.00108333 L 65.195862 0.00108333 " transform="matrix(0.985478, 0, 0, -0.985478, 143.778239, 0.981536)"/><g clip-path="url(#e027d549853c617e0edc7be673fdcf35tf26p8qg__clip-1)"><path fill="none" stroke="rgb(0%, 0%, 0%)" stroke-linecap="butt" stroke-linejoin="miter" stroke-miterlimit="10" stroke-opacity="1" stroke-width="0.79701" d="M -8.503284 -43.937766 L 65.195862 -43.937766 " transform="matrix(0.985478, 0, 0, -0.985478, 143.778239, 0.981536)"/></g></svg>