<?xml version="1.0" encoding="UTF-8"?><svg xmlns="http://www.w3.org/2000/svg" xmlns:xlink="http://www.w3.org/1999/xlink" width="343.711" height="261.739" viewBox="0 0 343.711 261.739"><defs><clipPath id="89593da7565f68116699f099342908d4xphup4wy__clip-0"><path d="M 115 104 L 200 104 L 200 261.476562 L 115 261.476562 Z M 115 104 " clip-rule="nonzero"/></clipPath><clipPath id="89593da7565f68116699f099342908d4xphup4wy__clip-1"><path d="M 171 104 L 257 104 L 257 261.476562 L 171 261.476562 Z M 171 104 " clip-rule="nonzero"/></clipPath><clipPath id="89593da7565f68116699f099342908d4xphup4wy__clip-2"><path d="M 106 260 L 238 260 L 238 261.476562 L 106 261.476562 Z M 106 260 " clip-rule="nonzero"/></clipPath></defs><path fill="none" stroke="rgb(100%, 0%, 0%)" stroke-linecap="butt" stroke-linejoin="miter" stroke-miterlimit="10" stroke-opacity="1" stroke-width="1.99255" d="M -0.000902214 -0.0000870314 C -0.000902214 -21.259547 28.347651 -21.259547 28.347651 -42.519006 L 28.347651 -56.693283 C 28.347651 -77.952742 -0.000902214 -77.952742 -0.000902214 -99.212202 L -0.000902214 -127.560755 " transform="matrix(0.999004, 0, 0, -0.999004, 115.07512, 0.996007)"/><path fill="none" stroke="rgb(0%, 0%, 100%)" stroke-linecap="butt" stroke-linejoin="miter" stroke-miterlimit="10" stroke-opacity="1" stroke-width="1.99255" d="M 28.347651 -0.0000870314 C 28.347651 -8.504653 23.811882 -13.607392 18.36896 -18.029767 M 9.977788 -24.493237 C 4.534866 -28.915611 -0.000902214 -34.01444 -0.000902214 -42.519006 L -0.000902214 -56.693283 C -0.000902214 -65.197848 4.534866 -70.300588 9.977788 -74.722962 M 18.36896 -81.186432 C 23.811882 -85.608806 28.347651 -90.711546 28.347651 -99.212202 L 28.347651 -127.560755 " transform="matrix(0.999004, 0, 0, -0.999004, 115.07512, 0.996007)"/><path fill="none" stroke="rgb(0%, 100%, 0%)" stroke-linecap="butt" stroke-linejoin="miter" stroke-miterlimit="10" stroke-opacity="1" stroke-width="1.99255" d="M 85.040846 -0.0000870314 L 85.040846 -28.34864 C 85.040846 -36.849296 80.505078 -41.952035 75.062156 -46.374409 M 66.670984 -52.837879 C 61.228062 -57.260254 56.692293 -62.362993 56.692293 -70.867559 L 56.692293 -127.560755 " transform="matrix(0.999004, 0, 0, -0.999004, 115.07512, 0.996007)"/><path fill="none" stroke="rgb(100%, 94.898987%, 0%)" stroke-linecap="butt" stroke-linejoin="miter" stroke-miterlimit="10" stroke-opacity="1" stroke-width="1.99255" d="M 113.385489 -0.0000870314 L 113.385489 -85.041835 C 113.385489 -93.542491 108.853631 -98.645231 103.410708 -103.067605 M 95.019537 -109.531075 C 89.576615 -113.953449 85.040846 -119.056189 85.040846 -127.560755 " transform="matrix(0.999004, 0, 0, -0.999004, 115.07512, 0.996007)"/><path fill="none" stroke="rgb(0%, 0%, 0%)" stroke-linecap="butt" stroke-linejoin="miter" stroke-miterlimit="10" stroke-opacity="1" stroke-width="1.99255" d="M 56.692293 -0.0000870314 L 56.692293 -28.34864 C 56.692293 -49.608099 85.040846 -49.608099 85.040846 -70.867559 L 85.040846 -85.041835 C 85.040846 -106.301295 113.385489 -106.301295 113.385489 -127.560755 " transform="matrix(0.999004, 0, 0, -0.999004, 115.07512, 0.996007)"/><path fill="none" stroke="rgb(0%, 0%, 0%)" stroke-linecap="butt" stroke-linejoin="miter" stroke-miterlimit="10" stroke-opacity="1" stroke-width="0.79701" d="M -8.505468 -0.0000870314 L 121.890055 -0.0000870314 " transform="matrix(0.999004, 0, 0, -0.999004, 115.07512, 0.996007)"/><path fill="none" stroke="rgb(0%, 0%, 0%)" stroke-linecap="butt" stroke-linejoin="miter" stroke-miterlimit="10" stroke-opacity="1" stroke-width="0.79701" d="M -8.505468 -128.976227 L 121.890055 -128.976227 " transform="matrix(0.999004, 0, 0, -0.999004, 115.07512, 0.996007)"/><path fill="none" stroke="rgb(100%, 0%, 0%)" stroke-linecap="butt" stroke-linejoin="miter" stroke-miterlimit="10" stroke-opacity="1" stroke-width="1.99255" d="M -0.000902214 0.00167412 L -0.000902214 -127.558993 " transform="matrix(0.999004, 0, 0, -0.999004, 115.07512, 132.232141)"/><g clip-path="url(#89593da7565f68116699f099342908d4xphup4wy__clip-0)"><path fill="none" stroke="rgb(0%, 0%, 100%)" stroke-linecap="butt" stroke-linejoin="miter" stroke-miterlimit="10" stroke-opacity="1" stroke-width="1.99255" d="M 28.347651 0.00167412 C 28.347651 -21.261696 56.692293 -21.261696 56.692293 -42.521155 L 56.692293 -56.695432 C 56.692293 -65.196087 52.156525 -70.298827 46.717513 -74.721201 M 38.326341 -81.184671 C 32.883419 -85.607045 28.347651 -90.709785 28.347651 -99.214351 L 28.347651 -127.558993 " transform="matrix(0.999004, 0, 0, -0.999004, 115.07512, 132.232141)"/><path fill="none" stroke="rgb(0%, 0%, 0%)" stroke-linecap="butt" stroke-linejoin="miter" stroke-miterlimit="10" stroke-opacity="1" stroke-width="1.99255" d="M 56.692293 0.00167412 C 56.692293 -8.502892 52.156525 -13.605631 46.717513 -18.028005 M 38.326341 -24.491476 C 32.883419 -28.91385 28.347651 -34.016589 28.347651 -42.521155 L 28.347651 -56.695432 C 28.347651 -77.954891 56.692293 -77.954891 56.692293 -99.214351 L 56.692293 -127.558993 " transform="matrix(0.999004, 0, 0, -0.999004, 115.07512, 132.232141)"/></g><g clip-path="url(#89593da7565f68116699f099342908d4xphup4wy__clip-1)"><path fill="none" stroke="rgb(0%, 100%, 0%)" stroke-linecap="butt" stroke-linejoin="miter" stroke-miterlimit="10" stroke-opacity="1" stroke-width="1.99255" d="M 85.040846 0.00167412 L 85.040846 -28.346879 C 85.040846 -49.606338 113.385489 -49.606338 113.385489 -70.865798 L 113.385489 -85.040074 C 113.385489 -93.54464 108.853631 -98.64738 103.410708 -103.069754 M 95.019537 -109.533224 C 89.576615 -113.955598 85.040846 -119.058338 85.040846 -127.558993 " transform="matrix(0.999004, 0, 0, -0.999004, 115.07512, 132.232141)"/><path fill="none" stroke="rgb(100%, 94.898987%, 0%)" stroke-linecap="butt" stroke-linejoin="miter" stroke-miterlimit="10" stroke-opacity="1" stroke-width="1.99255" d="M 113.385489 0.00167412 L 113.385489 -28.346879 C 113.385489 -36.851445 108.853631 -41.954184 103.410708 -46.376558 M 95.019537 -52.840028 C 89.576615 -57.262403 85.040846 -62.361232 85.040846 -70.865798 L 85.040846 -85.040074 C 85.040846 -106.299534 113.385489 -106.299534 113.385489 -127.558993 " transform="matrix(0.999004, 0, 0, -0.999004, 115.07512, 132.232141)"/></g><path fill="none" stroke="rgb(0%, 0%, 0%)" stroke-linecap="butt" stroke-linejoin="miter" stroke-miterlimit="10" stroke-opacity="1" stroke-width="0.79701" d="M -8.505468 0.00167412 L 121.890055 0.00167412 " transform="matrix(0.999004, 0, 0, -0.999004, 115.07512, 132.232141)"/><g clip-path="url(#89593da7565f68116699f099342908d4xphup4wy__clip-2)"><path fill="none" stroke="rgb(0%, 0%, 0%)" stroke-linecap="butt" stroke-linejoin="miter" stroke-miterlimit="10" stroke-opacity="1" stroke-width="0.79701" d="M -8.505468 -128.978376 L 121.890055 -128.978376 " transform="matrix(0.999004, 0, 0, -0.999004, 115.07512, 132.232141)"/></g></svg>