<?xml version="1.0" encoding="UTF-8"?><svg xmlns="http://www.w3.org/2000/svg" xmlns:xlink="http://www.w3.org/1999/xlink" width="230.733" height="68.474" viewBox="0 0 230.733 68.474"><defs><g><g id="03d188eb55dbd04838aefecb6baf06d3bknrxa6u__glyph-0-0"><path d="M 1.765625 -1.140625 C 1.375 -0.46875 0.984375 -0.34375 0.546875 -0.3125 C 0.4375 -0.296875 0.34375 -0.296875 0.34375 -0.109375 C 0.34375 -0.046875 0.390625 0 0.46875 0 C 0.734375 0 1.046875 -0.03125 1.328125 -0.03125 C 1.65625 -0.03125 2 0 2.3125 0 C 2.375 0 2.5 0 2.5 -0.1875 C 2.5 -0.296875 2.40625 -0.3125 2.34375 -0.3125 C 2.109375 -0.328125 1.875 -0.40625 1.875 -0.65625 C 1.875 -0.765625 1.9375 -0.875 2.015625 -1.015625 L 2.765625 -2.28125 L 5.25 -2.28125 C 5.265625 -2.078125 5.40625 -0.734375 5.40625 -0.640625 C 5.40625 -0.34375 4.890625 -0.3125 4.703125 -0.3125 C 4.5625 -0.3125 4.453125 -0.3125 4.453125 -0.109375 C 4.453125 0 4.578125 0 4.59375 0 C 5 0 5.4375 -0.03125 5.828125 -0.03125 C 6.078125 -0.03125 6.703125 0 6.953125 0 C 7.015625 0 7.125 0 7.125 -0.203125 C 7.125 -0.3125 7.03125 -0.3125 6.90625 -0.3125 C 6.296875 -0.3125 6.296875 -0.375 6.265625 -0.65625 L 5.65625 -6.84375 C 5.640625 -7.046875 5.640625 -7.078125 5.46875 -7.078125 C 5.3125 -7.078125 5.265625 -7.015625 5.21875 -6.90625 Z M 2.953125 -2.59375 L 4.90625 -5.859375 L 5.21875 -2.59375 Z M 2.953125 -2.59375 "/></g><g id="03d188eb55dbd04838aefecb6baf06d3bknrxa6u__glyph-0-1"><path d="M 1.578125 -0.765625 C 1.484375 -0.390625 1.46875 -0.3125 0.6875 -0.3125 C 0.515625 -0.3125 0.421875 -0.3125 0.421875 -0.109375 C 0.421875 0 0.5 0 0.6875 0 L 4.21875 0 C 5.78125 0 6.9375 -1.171875 6.9375 -2.140625 C 6.9375 -2.84375 6.375 -3.421875 5.40625 -3.53125 C 6.4375 -3.71875 7.484375 -4.453125 7.484375 -5.390625 C 7.484375 -6.125 6.828125 -6.75 5.640625 -6.75 L 2.3125 -6.75 C 2.125 -6.75 2.03125 -6.75 2.03125 -6.5625 C 2.03125 -6.453125 2.109375 -6.453125 2.296875 -6.453125 C 2.328125 -6.453125 2.515625 -6.453125 2.6875 -6.421875 C 2.859375 -6.40625 2.953125 -6.40625 2.953125 -6.265625 C 2.953125 -6.234375 2.9375 -6.203125 2.90625 -6.078125 Z M 3.078125 -3.625 L 3.6875 -6.078125 C 3.78125 -6.421875 3.796875 -6.453125 4.21875 -6.453125 L 5.5 -6.453125 C 6.375 -6.453125 6.578125 -5.859375 6.578125 -5.4375 C 6.578125 -4.5625 5.734375 -3.625 4.515625 -3.625 Z M 2.625 -0.3125 C 2.5 -0.3125 2.46875 -0.3125 2.40625 -0.3125 C 2.3125 -0.328125 2.28125 -0.34375 2.28125 -0.421875 C 2.28125 -0.4375 2.28125 -0.46875 2.328125 -0.640625 L 3.015625 -3.40625 L 4.890625 -3.40625 C 5.828125 -3.40625 6.015625 -2.671875 6.015625 -2.25 C 6.015625 -1.265625 5.140625 -0.3125 3.96875 -0.3125 Z M 2.625 -0.3125 "/></g><g id="03d188eb55dbd04838aefecb6baf06d3bknrxa6u__glyph-0-2"><path d="M 7.515625 -6.875 C 7.515625 -6.90625 7.5 -6.96875 7.40625 -6.96875 C 7.375 -6.96875 7.375 -6.96875 7.265625 -6.859375 L 6.5625 -6.09375 C 6.484375 -6.234375 6.015625 -6.96875 4.921875 -6.96875 C 2.71875 -6.96875 0.5 -4.78125 0.5 -2.5 C 0.5 -0.859375 1.65625 0.21875 3.171875 0.21875 C 4.03125 0.21875 4.78125 -0.171875 5.3125 -0.640625 C 6.234375 -1.4375 6.40625 -2.34375 6.40625 -2.375 C 6.40625 -2.46875 6.296875 -2.46875 6.28125 -2.46875 C 6.21875 -2.46875 6.171875 -2.453125 6.15625 -2.375 C 6.0625 -2.09375 5.828125 -1.390625 5.15625 -0.8125 C 4.46875 -0.25 3.84375 -0.09375 3.328125 -0.09375 C 2.4375 -0.09375 1.390625 -0.609375 1.390625 -2.140625 C 1.390625 -2.703125 1.609375 -4.3125 2.59375 -5.46875 C 3.1875 -6.171875 4.125 -6.671875 5 -6.671875 C 6.015625 -6.671875 6.59375 -5.90625 6.59375 -4.75 C 6.59375 -4.359375 6.5625 -4.359375 6.5625 -4.25 C 6.5625 -4.15625 6.671875 -4.15625 6.71875 -4.15625 C 6.84375 -4.15625 6.84375 -4.171875 6.890625 -4.359375 Z M 7.515625 -6.875 "/></g><g id="03d188eb55dbd04838aefecb6baf06d3bknrxa6u__glyph-0-3"><path d="M 1.578125 -0.765625 C 1.46875 -0.390625 1.453125 -0.3125 0.671875 -0.3125 C 0.5 -0.3125 0.390625 -0.3125 0.390625 -0.125 C 0.390625 0 0.484375 0 0.671875 0 L 3.953125 0 C 6 0 7.953125 -2.09375 7.953125 -4.25 C 7.953125 -5.640625 7.109375 -6.75 5.625 -6.75 L 2.296875 -6.75 C 2.109375 -6.75 2 -6.75 2 -6.5625 C 2 -6.453125 2.09375 -6.453125 2.296875 -6.453125 C 2.421875 -6.453125 2.59375 -6.4375 2.71875 -6.421875 C 2.875 -6.40625 2.9375 -6.375 2.9375 -6.265625 C 2.9375 -6.234375 2.921875 -6.203125 2.890625 -6.078125 Z M 3.703125 -6.078125 C 3.796875 -6.421875 3.8125 -6.453125 4.25 -6.453125 L 5.296875 -6.453125 C 6.265625 -6.453125 7.09375 -5.921875 7.09375 -4.625 C 7.09375 -4.140625 6.890625 -2.515625 6.046875 -1.421875 C 5.765625 -1.0625 4.984375 -0.3125 3.765625 -0.3125 L 2.65625 -0.3125 C 2.515625 -0.3125 2.5 -0.3125 2.4375 -0.3125 C 2.328125 -0.328125 2.296875 -0.34375 2.296875 -0.421875 C 2.296875 -0.4375 2.296875 -0.46875 2.359375 -0.640625 Z M 3.703125 -6.078125 "/></g><g id="03d188eb55dbd04838aefecb6baf06d3bknrxa6u__glyph-1-0"><path d="M 7.0625 -4.171875 C 7.125 -4.421875 7.140625 -4.484375 7.65625 -4.484375 C 7.796875 -4.484375 7.890625 -4.484375 7.890625 -4.625 C 7.890625 -4.734375 7.8125 -4.734375 7.6875 -4.734375 L 6.734375 -4.734375 C 6.546875 -4.734375 6.53125 -4.71875 6.4375 -4.59375 L 3.765625 -0.640625 L 3.09375 -4.546875 C 3.046875 -4.71875 3.046875 -4.734375 2.84375 -4.734375 L 1.859375 -4.734375 C 1.71875 -4.734375 1.625 -4.734375 1.625 -4.578125 C 1.625 -4.484375 1.703125 -4.484375 1.859375 -4.484375 C 1.96875 -4.484375 2 -4.484375 2.125 -4.46875 C 2.265625 -4.453125 2.28125 -4.4375 2.28125 -4.375 C 2.28125 -4.359375 2.28125 -4.3125 2.25 -4.21875 L 1.375 -0.734375 C 1.3125 -0.5 1.21875 -0.265625 0.65625 -0.25 C 0.609375 -0.25 0.515625 -0.25 0.515625 -0.09375 C 0.515625 -0.09375 0.515625 0 0.609375 0 C 0.828125 0 1.109375 -0.03125 1.328125 -0.03125 C 1.5 -0.03125 1.90625 0 2.0625 0 C 2.109375 0 2.203125 0 2.203125 -0.15625 C 2.203125 -0.25 2.125 -0.25 2.0625 -0.25 C 1.609375 -0.265625 1.609375 -0.4375 1.609375 -0.546875 C 1.609375 -0.5625 1.609375 -0.609375 1.640625 -0.71875 L 2.5625 -4.390625 L 3.3125 -0.1875 C 3.328125 -0.0625 3.34375 0 3.453125 0 C 3.546875 0 3.59375 -0.078125 3.640625 -0.15625 L 6.5625 -4.46875 L 6.5625 -4.453125 L 5.578125 -0.546875 C 5.53125 -0.296875 5.515625 -0.25 4.984375 -0.25 C 4.859375 -0.25 4.765625 -0.25 4.765625 -0.09375 C 4.765625 -0.09375 4.765625 0 4.875 0 C 5.015625 0 5.171875 -0.015625 5.3125 -0.015625 C 5.453125 -0.015625 5.609375 -0.03125 5.75 -0.03125 C 5.9375 -0.03125 6.4375 0 6.625 0 C 6.671875 0 6.765625 0 6.765625 -0.15625 C 6.765625 -0.25 6.6875 -0.25 6.546875 -0.25 C 6.546875 -0.25 6.40625 -0.25 6.28125 -0.265625 C 6.125 -0.28125 6.125 -0.296875 6.125 -0.359375 C 6.125 -0.40625 6.140625 -0.484375 6.15625 -0.515625 Z M 7.0625 -4.171875 "/></g><g id="03d188eb55dbd04838aefecb6baf06d3bknrxa6u__glyph-1-1"><path d="M 2.8125 -2.734375 L 3.5 -2.734375 C 3.640625 -2.734375 3.71875 -2.734375 3.71875 -2.890625 C 3.71875 -2.984375 3.640625 -2.984375 3.515625 -2.984375 L 2.859375 -2.984375 C 3.03125 -3.859375 3.078125 -4.1875 3.140625 -4.375 C 3.171875 -4.53125 3.328125 -4.671875 3.484375 -4.671875 C 3.5 -4.671875 3.6875 -4.671875 3.8125 -4.59375 C 3.53125 -4.5 3.515625 -4.25 3.515625 -4.21875 C 3.515625 -4.0625 3.625 -3.953125 3.78125 -3.953125 C 3.96875 -3.953125 4.1875 -4.125 4.1875 -4.375 C 4.1875 -4.703125 3.84375 -4.875 3.484375 -4.875 C 3.1875 -4.875 2.84375 -4.703125 2.65625 -4.359375 C 2.515625 -4.09375 2.46875 -3.78125 2.3125 -2.984375 L 1.765625 -2.984375 C 1.640625 -2.984375 1.546875 -2.984375 1.546875 -2.828125 C 1.546875 -2.734375 1.640625 -2.734375 1.765625 -2.734375 L 2.265625 -2.734375 C 2.265625 -2.6875 1.828125 -0.203125 1.65625 0.546875 C 1.625 0.6875 1.515625 1.21875 1.171875 1.21875 C 1.171875 1.21875 1 1.21875 0.875 1.140625 C 1.15625 1.046875 1.171875 0.796875 1.171875 0.75 C 1.171875 0.609375 1.0625 0.5 0.90625 0.5 C 0.71875 0.5 0.5 0.65625 0.5 0.921875 C 0.5 1.234375 0.828125 1.40625 1.171875 1.40625 C 1.625 1.40625 1.921875 0.953125 2 0.796875 C 2.25 0.34375 2.421875 -0.515625 2.421875 -0.59375 Z M 2.8125 -2.734375 "/></g><g id="03d188eb55dbd04838aefecb6baf06d3bknrxa6u__glyph-1-2"><path d="M 3.78125 -0.96875 C 4.421875 -1.640625 4.671875 -2.546875 4.671875 -2.625 C 4.671875 -2.71875 4.59375 -2.71875 4.5625 -2.71875 C 4.46875 -2.71875 4.46875 -2.703125 4.421875 -2.546875 C 4.296875 -2.09375 4.0625 -1.671875 3.765625 -1.296875 C 3.765625 -1.390625 3.75 -1.859375 3.734375 -1.921875 C 3.640625 -2.609375 3.109375 -3.046875 2.421875 -3.046875 C 1.40625 -3.046875 0.421875 -2.109375 0.421875 -1.140625 C 0.421875 -0.5 0.890625 0.0625 1.703125 0.0625 C 2.328125 0.0625 2.90625 -0.21875 3.296875 -0.515625 C 3.453125 -0.015625 3.8125 0.0625 4.015625 0.0625 C 4.421875 0.0625 4.671875 -0.265625 4.671875 -0.421875 C 4.671875 -0.5 4.578125 -0.5 4.546875 -0.5 C 4.453125 -0.5 4.4375 -0.46875 4.4375 -0.421875 C 4.328125 -0.171875 4.125 -0.125 4.03125 -0.125 C 3.9375 -0.125 3.828125 -0.125 3.78125 -0.96875 Z M 3.25 -0.734375 C 2.5625 -0.1875 1.984375 -0.125 1.71875 -0.125 C 1.265625 -0.125 1 -0.421875 1 -0.890625 C 1 -1.09375 1.09375 -1.84375 1.453125 -2.328125 C 1.78125 -2.734375 2.171875 -2.859375 2.421875 -2.859375 C 2.96875 -2.859375 3.125 -2.328125 3.1875 -1.890625 C 3.21875 -1.59375 3.21875 -1.109375 3.25 -0.734375 Z M 3.25 -0.734375 "/></g><g id="03d188eb55dbd04838aefecb6baf06d3bknrxa6u__glyph-1-3"><path d="M 3.6875 -2.546875 C 3.703125 -2.65625 3.703125 -2.6875 3.703125 -2.703125 C 3.703125 -2.859375 3.578125 -2.921875 3.46875 -2.921875 C 3.3125 -2.921875 3.1875 -2.796875 3.15625 -2.65625 C 3.03125 -2.84375 2.796875 -3.046875 2.4375 -3.046875 C 1.578125 -3.046875 0.671875 -2.125 0.671875 -1.140625 C 0.671875 -0.421875 1.15625 0 1.71875 0 C 2.046875 0 2.34375 -0.15625 2.59375 -0.375 L 2.4375 0.25 C 2.359375 0.546875 2.3125 0.734375 2.046875 0.96875 C 1.75 1.21875 1.453125 1.21875 1.28125 1.21875 C 0.953125 1.21875 0.859375 1.203125 0.734375 1.171875 C 0.90625 1.09375 0.96875 0.921875 0.96875 0.828125 C 0.96875 0.65625 0.828125 0.5625 0.6875 0.5625 C 0.5 0.5625 0.296875 0.734375 0.296875 0.984375 C 0.296875 1.40625 0.890625 1.40625 1.28125 1.40625 C 2.375 1.40625 2.828125 0.859375 2.921875 0.46875 Z M 2.734375 -0.921875 C 2.703125 -0.8125 2.703125 -0.796875 2.578125 -0.671875 C 2.34375 -0.375 2 -0.1875 1.75 -0.1875 C 1.390625 -0.1875 1.21875 -0.484375 1.21875 -0.84375 C 1.21875 -1.15625 1.40625 -1.9375 1.59375 -2.234375 C 1.875 -2.71875 2.203125 -2.859375 2.4375 -2.859375 C 2.921875 -2.859375 3.0625 -2.34375 3.0625 -2.265625 C 3.0625 -2.25 3.0625 -2.25 3.03125 -2.171875 Z M 2.734375 -0.921875 "/></g><g id="03d188eb55dbd04838aefecb6baf06d3bknrxa6u__glyph-1-4"><path d="M 5.765625 -3.96875 C 5.84375 -4.234375 5.953125 -4.46875 6.5 -4.484375 C 6.546875 -4.484375 6.640625 -4.484375 6.640625 -4.625 C 6.640625 -4.671875 6.609375 -4.734375 6.546875 -4.734375 C 6.3125 -4.734375 6.0625 -4.703125 5.828125 -4.703125 C 5.65625 -4.703125 5.25 -4.734375 5.09375 -4.734375 C 5.046875 -4.734375 4.953125 -4.734375 4.953125 -4.578125 C 4.953125 -4.484375 5.03125 -4.484375 5.09375 -4.484375 C 5.421875 -4.46875 5.546875 -4.375 5.546875 -4.1875 C 5.546875 -4.140625 5.53125 -4.109375 5.515625 -4.03125 L 4.765625 -1.015625 L 3 -4.609375 C 2.953125 -4.734375 2.9375 -4.734375 2.765625 -4.734375 L 1.828125 -4.734375 C 1.6875 -4.734375 1.59375 -4.734375 1.59375 -4.578125 C 1.59375 -4.484375 1.6875 -4.484375 1.828125 -4.484375 C 1.96875 -4.484375 2.125 -4.46875 2.265625 -4.4375 L 1.34375 -0.734375 C 1.28125 -0.484375 1.15625 -0.265625 0.625 -0.25 C 0.578125 -0.25 0.484375 -0.25 0.484375 -0.109375 C 0.484375 -0.03125 0.53125 0 0.578125 0 C 0.8125 0 1.0625 -0.03125 1.296875 -0.03125 C 1.46875 -0.03125 1.875 0 2.03125 0 C 2.109375 0 2.171875 -0.03125 2.171875 -0.140625 C 2.171875 -0.25 2.09375 -0.25 2.015625 -0.25 C 1.578125 -0.265625 1.578125 -0.4375 1.578125 -0.546875 C 1.578125 -0.5625 1.578125 -0.609375 1.609375 -0.71875 L 2.484375 -4.25 L 4.515625 -0.125 C 4.5625 0 4.59375 0 4.671875 0 C 4.78125 0 4.78125 -0.015625 4.8125 -0.140625 Z M 5.765625 -3.96875 "/></g><g id="03d188eb55dbd04838aefecb6baf06d3bknrxa6u__glyph-2-0"><path d="M 1.296875 -3.921875 C 1.296875 -4.078125 1.296875 -4.265625 1.09375 -4.265625 C 0.90625 -4.265625 0.90625 -4.078125 0.90625 -3.90625 L 0.90625 -0.125 C 0.90625 0.046875 0.90625 0.21875 1.09375 0.21875 C 1.296875 0.21875 1.296875 0.046875 1.296875 -0.125 Z M 1.296875 -3.921875 "/></g></g><clipPath id="03d188eb55dbd04838aefecb6baf06d3bknrxa6u__clip-0"><path d="M 74 0 L 159 0 L 159 67.953125 L 74 67.953125 Z M 74 0 " clip-rule="nonzero"/></clipPath></defs><g fill="rgb(0%, 0%, 0%)" fill-opacity="1"><use xlink:href="#03d188eb55dbd04838aefecb6baf06d3bknrxa6u__glyph-0-0" x="79.746127" y="11.655466"/></g><g fill="rgb(0%, 0%, 0%)" fill-opacity="1"><use xlink:href="#03d188eb55dbd04838aefecb6baf06d3bknrxa6u__glyph-0-1" x="143.543055" y="11.655466"/></g><g fill="rgb(0%, 0%, 0%)" fill-opacity="1"><use xlink:href="#03d188eb55dbd04838aefecb6baf06d3bknrxa6u__glyph-0-2" x="79.567499" y="61.239573"/></g><g fill="rgb(0%, 0%, 0%)" fill-opacity="1"><use xlink:href="#03d188eb55dbd04838aefecb6baf06d3bknrxa6u__glyph-0-3" x="143.309846" y="61.240565"/></g><path fill="none" stroke="rgb(0%, 0%, 0%)" stroke-linecap="butt" stroke-linejoin="miter" stroke-miterlimit="10" stroke-opacity="1" stroke-width="0.39848" d="M -24.236749 24.06986 L 23.203019 24.06986 " transform="matrix(0.992377, 0, 0, -0.992377, 115.669175, 33.069965)"/><path fill="none" stroke="rgb(0%, 0%, 0%)" stroke-linecap="round" stroke-linejoin="round" stroke-miterlimit="10" stroke-opacity="1" stroke-width="0.39848" d="M -2.07102 2.389348 C -1.693139 0.956551 -0.85078 0.279514 -0.000548604 0.0000401988 C -0.85078 -0.279434 -1.693139 -0.95647 -2.07102 -2.389268 " transform="matrix(0.992377, 0, 0, -0.992377, 138.891169, 9.183634)"/><g fill="rgb(0%, 0%, 0%)" fill-opacity="1"><use xlink:href="#03d188eb55dbd04838aefecb6baf06d3bknrxa6u__glyph-1-0" x="111.211418" y="6.857324"/></g><g fill="rgb(0%, 0%, 0%)" fill-opacity="1"><use xlink:href="#03d188eb55dbd04838aefecb6baf06d3bknrxa6u__glyph-2-0" x="114.253053" y="11.655466"/></g><path fill="none" stroke="rgb(0%, 0%, 0%)" stroke-linecap="butt" stroke-linejoin="miter" stroke-miterlimit="10" stroke-opacity="1" stroke-width="0.39848" d="M -32.463525 17.732487 L -32.463525 -17.335625 " transform="matrix(0.992377, 0, 0, -0.992377, 115.669175, 33.069965)"/><path fill="none" stroke="rgb(0%, 0%, 0%)" stroke-linecap="round" stroke-linejoin="round" stroke-miterlimit="10" stroke-opacity="1" stroke-width="0.39848" d="M -2.072563 2.392379 C -1.694682 0.955645 -0.848387 0.278609 0.00184447 -0.000865499 C -0.848387 -0.28034 -1.694682 -0.957376 -2.072563 -2.390173 " transform="matrix(0, 0.992377, 0.992377, 0, 83.453984, 50.470826)"/><g fill="rgb(0%, 0%, 0%)" fill-opacity="1"><use xlink:href="#03d188eb55dbd04838aefecb6baf06d3bknrxa6u__glyph-1-1" x="76.497085" y="34.799678"/></g><g clip-path="url(#03d188eb55dbd04838aefecb6baf06d3bknrxa6u__clip-0)"><path fill="none" stroke="rgb(0%, 0%, 0%)" stroke-linecap="butt" stroke-linejoin="miter" stroke-miterlimit="10" stroke-opacity="1" stroke-width="2.32874" d="M 10.536144 7.368322 L -8.932582 -7.691796 " transform="matrix(0.992377, 0, 0, -0.992377, 115.669175, 33.069965)"/></g><path fill="none" stroke="rgb(100%, 100%, 100%)" stroke-linecap="butt" stroke-linejoin="miter" stroke-miterlimit="10" stroke-opacity="1" stroke-width="1.53175" d="M 10.536144 7.368322 L -8.932582 -7.691796 " transform="matrix(0.992377, 0, 0, -0.992377, 115.669175, 33.069965)"/><path fill="none" stroke="rgb(0%, 0%, 0%)" stroke-linecap="round" stroke-linejoin="round" stroke-miterlimit="10" stroke-opacity="1" stroke-width="0.39848" d="M -1.290974 2.557587 C -0.664026 1.206504 1.024062 0.0497287 1.987078 0.00142445 C 1.022586 -0.0486703 -0.664798 -1.206772 -1.292131 -2.557935 " transform="matrix(-0.784851, 0.607245, 0.607245, 0.784851, 106.804789, 40.702394)"/><path fill="rgb(100%, 100%, 100%)" fill-opacity="1" fill-rule="nonzero" d="M 110.90625 37.511719 L 120.304688 37.511719 L 120.304688 30.273438 L 110.90625 30.273438 Z M 110.90625 37.511719 "/><g fill="rgb(0%, 0%, 0%)" fill-opacity="1"><use xlink:href="#03d188eb55dbd04838aefecb6baf06d3bknrxa6u__glyph-1-2" x="113.035407" y="35.383195"/></g><path fill="none" stroke="rgb(0%, 0%, 0%)" stroke-linecap="butt" stroke-linejoin="miter" stroke-miterlimit="10" stroke-opacity="1" stroke-width="0.39848" d="M 32.11864 17.732487 L 32.11864 -17.335625 " transform="matrix(0.992377, 0, 0, -0.992377, 115.669175, 33.069965)"/><path fill="none" stroke="rgb(0%, 0%, 0%)" stroke-linecap="round" stroke-linejoin="round" stroke-miterlimit="10" stroke-opacity="1" stroke-width="0.39848" d="M -2.072563 2.391218 C -1.694682 0.954484 -0.848387 0.277448 0.00184447 0.00191027 C -0.848387 -0.277564 -1.694682 -0.9546 -2.072563 -2.391334 " transform="matrix(0, 0.992377, 0.992377, 0, 147.541073, 50.470826)"/><g fill="rgb(0%, 0%, 0%)" fill-opacity="1"><use xlink:href="#03d188eb55dbd04838aefecb6baf06d3bknrxa6u__glyph-1-3" x="149.86648" y="33.886691"/></g><path fill="none" stroke="rgb(0%, 0%, 0%)" stroke-linecap="butt" stroke-linejoin="miter" stroke-miterlimit="10" stroke-opacity="1" stroke-width="0.39848" d="M -24.055681 -25.896984 L 22.966843 -25.896984 " transform="matrix(0.992377, 0, 0, -0.992377, 115.669175, 33.069965)"/><path fill="none" stroke="rgb(0%, 0%, 0%)" stroke-linecap="round" stroke-linejoin="round" stroke-miterlimit="10" stroke-opacity="1" stroke-width="0.39848" d="M -2.072995 2.39256 C -1.695114 0.955826 -0.848819 0.27879 0.00141224 -0.000683968 C -0.848819 -0.280158 -1.695114 -0.957194 -2.072995 -2.389992 " transform="matrix(0.992377, 0, 0, -0.992377, 138.658755, 58.768852)"/><g fill="rgb(0%, 0%, 0%)" fill-opacity="1"><use xlink:href="#03d188eb55dbd04838aefecb6baf06d3bknrxa6u__glyph-1-4" x="111.823715" y="65.823362"/></g><g fill="rgb(0%, 0%, 0%)" fill-opacity="1"><use xlink:href="#03d188eb55dbd04838aefecb6baf06d3bknrxa6u__glyph-2-0" x="114.227251" y="61.239573"/></g></svg>