<?xml version="1.0" encoding="UTF-8"?><svg xmlns="http://www.w3.org/2000/svg" xmlns:xlink="http://www.w3.org/1999/xlink" width="343.711" height="186.244" viewBox="0 0 343.711 186.244"><defs><clipPath id="67b6a60efb8cd234df6fa3fce39141270la4kd3n__clip-0"><path d="M 114 0 L 117 0 L 117 185.492188 L 114 185.492188 Z M 114 0 " clip-rule="nonzero"/></clipPath><clipPath id="67b6a60efb8cd234df6fa3fce39141270la4kd3n__clip-1"><path d="M 115 0 L 200 0 L 200 185.492188 L 115 185.492188 Z M 115 0 " clip-rule="nonzero"/></clipPath><clipPath id="67b6a60efb8cd234df6fa3fce39141270la4kd3n__clip-2"><path d="M 115 0 L 229 0 L 229 185.492188 L 115 185.492188 Z M 115 0 " clip-rule="nonzero"/></clipPath><clipPath id="67b6a60efb8cd234df6fa3fce39141270la4kd3n__clip-3"><path d="M 171 0 L 257 0 L 257 185.492188 L 171 185.492188 Z M 171 0 " clip-rule="nonzero"/></clipPath><clipPath id="67b6a60efb8cd234df6fa3fce39141270la4kd3n__clip-4"><path d="M 143 0 L 257 0 L 257 185.492188 L 143 185.492188 Z M 143 0 " clip-rule="nonzero"/></clipPath></defs><g clip-path="url(#67b6a60efb8cd234df6fa3fce39141270la4kd3n__clip-0)"><path fill="none" stroke="rgb(100%, 0%, 0%)" stroke-linecap="butt" stroke-linejoin="miter" stroke-miterlimit="10" stroke-opacity="1" stroke-width="1.99255" d="M 0.00172745 -0.000214979 L 0.00172745 -184.252921 " transform="matrix(0.995957, 0, 0, -0.995957, 115.24828, 0.991973)"/></g><g clip-path="url(#67b6a60efb8cd234df6fa3fce39141270la4kd3n__clip-1)"><path fill="none" stroke="rgb(0%, 0%, 100%)" stroke-linecap="butt" stroke-linejoin="miter" stroke-miterlimit="10" stroke-opacity="1" stroke-width="1.99255" d="M 28.346789 -0.000214979 L 28.346789 -56.69426 C 28.346789 -77.952076 56.691851 -77.952076 56.691851 -99.213814 L 56.691851 -113.388306 C 56.691851 -121.891432 52.157896 -126.994092 46.714012 -131.414306 M 38.324627 -137.877937 C 32.880744 -142.302073 28.346789 -147.404733 28.346789 -155.907859 L 28.346789 -184.252921 " transform="matrix(0.995957, 0, 0, -0.995957, 115.24828, 0.991973)"/></g><g clip-path="url(#67b6a60efb8cd234df6fa3fce39141270la4kd3n__clip-2)"><path fill="none" stroke="rgb(0%, 100%, 0%)" stroke-linecap="butt" stroke-linejoin="miter" stroke-miterlimit="10" stroke-opacity="1" stroke-width="1.99255" d="M 85.040834 -0.000214979 C 85.040834 -8.503341 80.50688 -13.606001 75.062996 -18.030137 M 66.669689 -24.489846 C 61.229728 -28.913982 56.691851 -34.016642 56.691851 -42.519768 L 56.691851 -56.69426 C 56.691851 -65.197387 52.157896 -70.300047 46.714012 -74.72026 M 38.324627 -81.183892 C 32.880744 -85.608027 28.346789 -90.710688 28.346789 -99.213814 L 28.346789 -113.388306 C 28.346789 -134.646121 56.691851 -134.646121 56.691851 -155.907859 L 56.691851 -184.252921 " transform="matrix(0.995957, 0, 0, -0.995957, 115.24828, 0.991973)"/></g><g clip-path="url(#67b6a60efb8cd234df6fa3fce39141270la4kd3n__clip-3)"><path fill="none" stroke="rgb(100%, 94.898987%, 0%)" stroke-linecap="butt" stroke-linejoin="miter" stroke-miterlimit="10" stroke-opacity="1" stroke-width="1.99255" d="M 113.385896 -0.000214979 L 113.385896 -28.345277 C 113.385896 -36.852325 108.851941 -41.954985 103.408058 -46.375199 M 95.018673 -52.83883 C 89.574789 -57.259044 85.040834 -62.361704 85.040834 -70.868752 L 85.040834 -85.039322 C 85.040834 -106.30106 113.385896 -106.30106 113.385896 -127.558875 L 113.385896 -141.733367 C 113.385896 -150.236494 108.851941 -155.339154 103.408058 -159.76329 M 95.018673 -166.226921 C 89.574789 -170.647134 85.040834 -175.749794 85.040834 -184.252921 " transform="matrix(0.995957, 0, 0, -0.995957, 115.24828, 0.991973)"/></g><g clip-path="url(#67b6a60efb8cd234df6fa3fce39141270la4kd3n__clip-4)"><path fill="none" stroke="rgb(0%, 0%, 0%)" stroke-linecap="butt" stroke-linejoin="miter" stroke-miterlimit="10" stroke-opacity="1" stroke-width="1.99255" d="M 56.691851 -0.000214979 C 56.691851 -21.261953 85.040834 -21.261953 85.040834 -42.519768 L 85.040834 -28.345277 C 85.040834 -49.607014 113.385896 -49.607014 113.385896 -70.868752 L 113.385896 -85.039322 C 113.385896 -93.542448 108.851941 -98.645108 103.408058 -103.069244 M 95.018673 -109.532875 C 89.574789 -113.953089 85.040834 -119.055749 85.040834 -127.558875 L 85.040834 -141.733367 C 85.040834 -162.995105 113.385896 -162.995105 113.385896 -184.252921 " transform="matrix(0.995957, 0, 0, -0.995957, 115.24828, 0.991973)"/></g><path fill="none" stroke="rgb(0%, 0%, 0%)" stroke-linecap="butt" stroke-linejoin="miter" stroke-miterlimit="10" stroke-opacity="1" stroke-width="0.79701" d="M -8.505321 -0.000214979 L 121.892944 -0.000214979 " transform="matrix(0.995957, 0, 0, -0.995957, 115.24828, 0.991973)"/><path fill="none" stroke="rgb(0%, 0%, 0%)" stroke-linecap="butt" stroke-linejoin="miter" stroke-miterlimit="10" stroke-opacity="1" stroke-width="0.79701" d="M -8.505321 -184.252921 L 121.892944 -184.252921 " transform="matrix(0.995957, 0, 0, -0.995957, 115.24828, 0.991973)"/></svg>