<?xml version="1.0" encoding="UTF-8"?><svg xmlns="http://www.w3.org/2000/svg" xmlns:xlink="http://www.w3.org/1999/xlink" width="343.711" height="132.308" viewBox="0 0 343.711 132.308"><defs><g><g id="958b12e2673637f86d8c210c53bfbacd5zknkq9d__glyph-0-0"><path d="M 2.015625 -0.015625 C 2.015625 -0.640625 1.765625 -1.046875 1.375 -1.046875 C 1.03125 -1.046875 0.859375 -0.78125 0.859375 -0.53125 C 0.859375 -0.265625 1.015625 0 1.375 0 C 1.53125 0 1.65625 -0.0625 1.75 -0.140625 L 1.765625 -0.15625 C 1.78125 -0.15625 1.796875 -0.15625 1.796875 -0.015625 C 1.796875 0.625 1.515625 1.234375 1.078125 1.6875 C 1.015625 1.75 1.015625 1.765625 1.015625 1.796875 C 1.015625 1.875 1.0625 1.90625 1.109375 1.90625 C 1.234375 1.90625 2.015625 1.125 2.015625 -0.015625 Z M 2.015625 -0.015625 "/></g></g><clipPath id="958b12e2673637f86d8c210c53bfbacd5zknkq9d__clip-0"><path d="M 0.75 0 L 66 0 L 66 131.621094 L 0.75 131.621094 Z M 0.75 0 " clip-rule="nonzero"/></clipPath><clipPath id="958b12e2673637f86d8c210c53bfbacd5zknkq9d__clip-1"><path d="M 37 0 L 123 0 L 123 131.621094 L 37 131.621094 Z M 37 0 " clip-rule="nonzero"/></clipPath><clipPath id="958b12e2673637f86d8c210c53bfbacd5zknkq9d__clip-2"><path d="M 66 0 L 151 0 L 151 131.621094 L 66 131.621094 Z M 66 0 " clip-rule="nonzero"/></clipPath><clipPath id="958b12e2673637f86d8c210c53bfbacd5zknkq9d__clip-3"><path d="M 37 0 L 151 0 L 151 131.621094 L 37 131.621094 Z M 37 0 " clip-rule="nonzero"/></clipPath><clipPath id="958b12e2673637f86d8c210c53bfbacd5zknkq9d__clip-4"><path d="M 0.75 0 L 132 0 L 132 2 L 0.75 2 Z M 0.75 0 " clip-rule="nonzero"/></clipPath><clipPath id="958b12e2673637f86d8c210c53bfbacd5zknkq9d__clip-5"><path d="M 0.75 128 L 132 128 L 132 130 L 0.75 130 Z M 0.75 128 " clip-rule="nonzero"/></clipPath><clipPath id="958b12e2673637f86d8c210c53bfbacd5zknkq9d__clip-6"><path d="M 135 128 L 137 128 L 137 131.621094 L 135 131.621094 Z M 135 128 " clip-rule="nonzero"/></clipPath><clipPath id="958b12e2673637f86d8c210c53bfbacd5zknkq9d__clip-7"><path d="M 149 0 L 234 0 L 234 131.621094 L 149 131.621094 Z M 149 0 " clip-rule="nonzero"/></clipPath><clipPath id="958b12e2673637f86d8c210c53bfbacd5zknkq9d__clip-8"><path d="M 206 0 L 291 0 L 291 131.621094 L 206 131.621094 Z M 206 0 " clip-rule="nonzero"/></clipPath></defs><g clip-path="url(#958b12e2673637f86d8c210c53bfbacd5zknkq9d__clip-0)"><path fill="none" stroke="rgb(100%, 0%, 0%)" stroke-linecap="butt" stroke-linejoin="miter" stroke-miterlimit="10" stroke-opacity="1" stroke-width="1.99255" d="M -0.00163467 -0.00137686 C -0.00163467 -21.260425 28.345072 -21.260425 28.345072 -42.519474 L 28.345072 -56.694791 C 28.345072 -77.953839 -0.00163467 -77.953839 -0.00163467 -99.212888 L -0.00163467 -127.559594 " transform="matrix(0.994797, 0, 0, -0.994797, 9.607095, 0.990818)"/><path fill="none" stroke="rgb(0%, 0%, 100%)" stroke-linecap="butt" stroke-linejoin="miter" stroke-miterlimit="10" stroke-opacity="1" stroke-width="1.99255" d="M 28.345072 -0.00137686 C 28.345072 -8.50264 23.809756 -13.607325 18.367377 -18.028767 M 9.976061 -24.492083 C 4.533681 -28.913526 -0.00163467 -34.01821 -0.00163467 -42.519474 L -0.00163467 -56.694791 C -0.00163467 -65.196054 4.533681 -70.300739 9.976061 -74.722181 M 18.367377 -81.185497 C 23.809756 -85.606939 28.345072 -90.711624 28.345072 -99.212888 L 28.345072 -127.559594 " transform="matrix(0.994797, 0, 0, -0.994797, 9.607095, 0.990818)"/></g><g clip-path="url(#958b12e2673637f86d8c210c53bfbacd5zknkq9d__clip-1)"><path fill="none" stroke="rgb(0%, 100%, 0%)" stroke-linecap="butt" stroke-linejoin="miter" stroke-miterlimit="10" stroke-opacity="1" stroke-width="1.99255" d="M 85.038486 -0.00137686 L 85.038486 -28.348084 C 85.038486 -36.849347 80.50317 -41.954032 75.060791 -46.375474 M 66.669474 -52.83879 C 61.227095 -57.260233 56.691779 -62.364917 56.691779 -70.866181 L 56.691779 -127.559594 " transform="matrix(0.994797, 0, 0, -0.994797, 9.607095, 0.990818)"/></g><g clip-path="url(#958b12e2673637f86d8c210c53bfbacd5zknkq9d__clip-2)"><path fill="none" stroke="rgb(100%, 94.898987%, 0%)" stroke-linecap="butt" stroke-linejoin="miter" stroke-miterlimit="10" stroke-opacity="1" stroke-width="1.99255" d="M 113.38912 -0.00137686 L 113.38912 -85.041497 C 113.38912 -93.542761 108.853803 -98.647446 103.407498 -103.068888 M 95.020108 -109.532204 C 89.577729 -113.953646 85.038486 -119.058331 85.038486 -127.559594 " transform="matrix(0.994797, 0, 0, -0.994797, 9.607095, 0.990818)"/></g><g clip-path="url(#958b12e2673637f86d8c210c53bfbacd5zknkq9d__clip-3)"><path fill="none" stroke="rgb(0%, 0%, 0%)" stroke-linecap="butt" stroke-linejoin="miter" stroke-miterlimit="10" stroke-opacity="1" stroke-width="1.99255" d="M 56.691779 -0.00137686 L 56.691779 -28.348084 C 56.691779 -49.607132 85.038486 -49.607132 85.038486 -70.866181 L 85.038486 -85.041497 C 85.038486 -106.300546 113.38912 -106.300546 113.38912 -127.559594 " transform="matrix(0.994797, 0, 0, -0.994797, 9.607095, 0.990818)"/></g><g clip-path="url(#958b12e2673637f86d8c210c53bfbacd5zknkq9d__clip-4)"><path fill="none" stroke="rgb(0%, 0%, 0%)" stroke-linecap="butt" stroke-linejoin="miter" stroke-miterlimit="10" stroke-opacity="1" stroke-width="0.79701" d="M -8.502898 -0.00137686 L 121.890383 -0.00137686 " transform="matrix(0.994797, 0, 0, -0.994797, 9.607095, 0.990818)"/></g><g clip-path="url(#958b12e2673637f86d8c210c53bfbacd5zknkq9d__clip-5)"><path fill="none" stroke="rgb(0%, 0%, 0%)" stroke-linecap="butt" stroke-linejoin="miter" stroke-miterlimit="10" stroke-opacity="1" stroke-width="0.79701" d="M -8.502898 -128.977126 L 121.890383 -128.977126 " transform="matrix(0.994797, 0, 0, -0.994797, 9.607095, 0.990818)"/></g><g clip-path="url(#958b12e2673637f86d8c210c53bfbacd5zknkq9d__clip-6)"><g fill="rgb(0%, 0%, 0%)" fill-opacity="1"><use xlink:href="#958b12e2673637f86d8c210c53bfbacd5zknkq9d__glyph-0-0" x="134.56255" y="129.692679"/></g></g><path fill="none" stroke="rgb(100%, 0%, 0%)" stroke-linecap="butt" stroke-linejoin="miter" stroke-miterlimit="10" stroke-opacity="1" stroke-width="1.99255" d="M -0.00191096 -0.00137686 L -0.00191096 -127.559594 " transform="matrix(0.994797, 0, 0, -0.994797, 149.474557, 0.990818)"/><g clip-path="url(#958b12e2673637f86d8c210c53bfbacd5zknkq9d__clip-7)"><path fill="none" stroke="rgb(0%, 0%, 100%)" stroke-linecap="butt" stroke-linejoin="miter" stroke-miterlimit="10" stroke-opacity="1" stroke-width="1.99255" d="M 28.348723 -0.00137686 C 28.348723 -21.260425 56.695429 -21.260425 56.695429 -42.519474 L 56.695429 -56.694791 C 56.695429 -65.196054 52.160113 -70.300739 46.713808 -74.722181 M 38.326418 -81.185497 C 32.884039 -85.606939 28.348723 -90.711624 28.348723 -99.212888 L 28.348723 -127.559594 " transform="matrix(0.994797, 0, 0, -0.994797, 149.474557, 0.990818)"/><path fill="none" stroke="rgb(0%, 0%, 0%)" stroke-linecap="butt" stroke-linejoin="miter" stroke-miterlimit="10" stroke-opacity="1" stroke-width="1.99255" d="M 56.695429 -0.00137686 C 56.695429 -8.50264 52.160113 -13.607325 46.713808 -18.028767 M 38.326418 -24.492083 C 32.884039 -28.913526 28.348723 -34.01821 28.348723 -42.519474 L 28.348723 -56.694791 C 28.348723 -77.953839 56.695429 -77.953839 56.695429 -99.212888 L 56.695429 -127.559594 " transform="matrix(0.994797, 0, 0, -0.994797, 149.474557, 0.990818)"/></g><g clip-path="url(#958b12e2673637f86d8c210c53bfbacd5zknkq9d__clip-8)"><path fill="none" stroke="rgb(0%, 100%, 0%)" stroke-linecap="butt" stroke-linejoin="miter" stroke-miterlimit="10" stroke-opacity="1" stroke-width="1.99255" d="M 85.042136 -0.00137686 L 85.042136 -28.348084 C 85.042136 -49.607132 113.388843 -49.607132 113.388843 -70.866181 L 113.388843 -85.041497 C 113.388843 -93.542761 108.853527 -98.647446 103.411148 -103.068888 M 95.019832 -109.532204 C 89.577452 -113.953646 85.042136 -119.058331 85.042136 -127.559594 " transform="matrix(0.994797, 0, 0, -0.994797, 149.474557, 0.990818)"/><path fill="none" stroke="rgb(100%, 94.898987%, 0%)" stroke-linecap="butt" stroke-linejoin="miter" stroke-miterlimit="10" stroke-opacity="1" stroke-width="1.99255" d="M 113.388843 -0.00137686 L 113.388843 -28.348084 C 113.388843 -36.849347 108.853527 -41.954032 103.411148 -46.375474 M 95.019832 -52.83879 C 89.577452 -57.260233 85.042136 -62.364917 85.042136 -70.866181 L 85.042136 -85.041497 C 85.042136 -106.300546 113.388843 -106.300546 113.388843 -127.559594 " transform="matrix(0.994797, 0, 0, -0.994797, 149.474557, 0.990818)"/></g><path fill="none" stroke="rgb(0%, 0%, 0%)" stroke-linecap="butt" stroke-linejoin="miter" stroke-miterlimit="10" stroke-opacity="1" stroke-width="0.79701" d="M -8.503174 -0.00137686 L 121.890107 -0.00137686 " transform="matrix(0.994797, 0, 0, -0.994797, 149.474557, 0.990818)"/><path fill="none" stroke="rgb(0%, 0%, 0%)" stroke-linecap="butt" stroke-linejoin="miter" stroke-miterlimit="10" stroke-opacity="1" stroke-width="0.79701" d="M -8.503174 -128.977126 L 121.890107 -128.977126 " transform="matrix(0.994797, 0, 0, -0.994797, 149.474557, 0.990818)"/></svg>