<?xml version="1.0" encoding="UTF-8"?><svg xmlns="http://www.w3.org/2000/svg" xmlns:xlink="http://www.w3.org/1999/xlink" width="343.711" height="72.859" viewBox="0 0 343.711 72.859"><defs><g><g id="ccc953a836b108180ff436a5321ca6b63xk8ji29__glyph-0-0"><path d="M 6.828125 -3.25 C 6.96875 -3.25 7.171875 -3.25 7.171875 -3.453125 C 7.171875 -3.640625 6.96875 -3.640625 6.84375 -3.640625 L 0.890625 -3.640625 C 0.75 -3.640625 0.5625 -3.640625 0.5625 -3.453125 C 0.5625 -3.25 0.75 -3.25 0.890625 -3.25 Z M 6.84375 -1.328125 C 6.96875 -1.328125 7.171875 -1.328125 7.171875 -1.515625 C 7.171875 -1.71875 6.96875 -1.71875 6.828125 -1.71875 L 0.890625 -1.71875 C 0.75 -1.71875 0.5625 -1.71875 0.5625 -1.515625 C 0.5625 -1.328125 0.75 -1.328125 0.890625 -1.328125 Z M 6.84375 -1.328125 "/></g></g><clipPath id="ccc953a836b108180ff436a5321ca6b63xk8ji29__clip-0"><path d="M 44 0 L 130 0 L 130 72.71875 L 44 72.71875 Z M 44 0 " clip-rule="nonzero"/></clipPath><clipPath id="ccc953a836b108180ff436a5321ca6b63xk8ji29__clip-1"><path d="M 101 0 L 186 0 L 186 72.71875 L 101 72.71875 Z M 101 0 " clip-rule="nonzero"/></clipPath><clipPath id="ccc953a836b108180ff436a5321ca6b63xk8ji29__clip-2"><path d="M 63 71 L 167 71 L 167 72.71875 L 63 72.71875 Z M 63 71 " clip-rule="nonzero"/></clipPath><clipPath id="ccc953a836b108180ff436a5321ca6b63xk8ji29__clip-3"><path d="M 157 0 L 243 0 L 243 72.71875 L 157 72.71875 Z M 157 0 " clip-rule="nonzero"/></clipPath><clipPath id="ccc953a836b108180ff436a5321ca6b63xk8ji29__clip-4"><path d="M 214 0 L 299 0 L 299 72.71875 L 214 72.71875 Z M 214 0 " clip-rule="nonzero"/></clipPath><clipPath id="ccc953a836b108180ff436a5321ca6b63xk8ji29__clip-5"><path d="M 176 71 L 280 71 L 280 72.71875 L 176 72.71875 Z M 176 71 " clip-rule="nonzero"/></clipPath></defs><g clip-path="url(#ccc953a836b108180ff436a5321ca6b63xk8ji29__clip-0)"><path fill="none" stroke="rgb(0%, 0%, 100%)" stroke-linecap="butt" stroke-linejoin="miter" stroke-miterlimit="10" stroke-opacity="1" stroke-width="1.99255" d="M 28.348722 -0.00102144 C 28.348722 -8.50573 23.812617 -13.605423 18.368508 -18.028028 M 9.9773 -24.493642 C 4.537105 -28.912333 0.000999454 -34.01594 0.000999454 -42.520648 L 0.000999454 -70.868371 " transform="matrix(0.998068, 0, 0, -0.998068, 72.690409, 0.995074)"/><path fill="none" stroke="rgb(100%, 0%, 0%)" stroke-linecap="butt" stroke-linejoin="miter" stroke-miterlimit="10" stroke-opacity="1" stroke-width="1.99255" d="M 0.000999454 -0.00102144 C 0.000999454 -21.260835 28.348722 -21.260835 28.348722 -42.520648 L 28.348722 -70.868371 " transform="matrix(0.998068, 0, 0, -0.998068, 72.690409, 0.995074)"/></g><g clip-path="url(#ccc953a836b108180ff436a5321ca6b63xk8ji29__clip-1)"><path fill="none" stroke="rgb(0%, 100%, 0%)" stroke-linecap="butt" stroke-linejoin="miter" stroke-miterlimit="10" stroke-opacity="1" stroke-width="1.99255" d="M 85.040253 -0.00102144 L 85.040253 -28.348744 C 85.040253 -36.849538 80.504148 -41.953146 75.063953 -46.375751 M 66.672745 -52.83745 C 61.228636 -57.260055 56.692531 -62.363663 56.692531 -70.868371 " transform="matrix(0.998068, 0, 0, -0.998068, 72.690409, 0.995074)"/><path fill="none" stroke="rgb(0%, 0%, 0%)" stroke-linecap="butt" stroke-linejoin="miter" stroke-miterlimit="10" stroke-opacity="1" stroke-width="1.99255" d="M 56.692531 -0.00102144 L 56.692531 -28.348744 C 56.692531 -49.608557 85.040253 -49.608557 85.040253 -70.868371 " transform="matrix(0.998068, 0, 0, -0.998068, 72.690409, 0.995074)"/></g><path fill="none" stroke="rgb(0%, 0%, 0%)" stroke-linecap="butt" stroke-linejoin="miter" stroke-miterlimit="10" stroke-opacity="1" stroke-width="0.79701" d="M -8.503709 -0.00102144 L 93.544962 -0.00102144 " transform="matrix(0.998068, 0, 0, -0.998068, 72.690409, 0.995074)"/><g clip-path="url(#ccc953a836b108180ff436a5321ca6b63xk8ji29__clip-2)"><path fill="none" stroke="rgb(0%, 0%, 0%)" stroke-linecap="butt" stroke-linejoin="miter" stroke-miterlimit="10" stroke-opacity="1" stroke-width="0.79701" d="M -8.503709 -70.868371 L 93.544962 -70.868371 " transform="matrix(0.998068, 0, 0, -0.998068, 72.690409, 0.995074)"/></g><g fill="rgb(0%, 0%, 0%)" fill-opacity="1"><use xlink:href="#ccc953a836b108180ff436a5321ca6b63xk8ji29__glyph-0-0" x="169.259524" y="38.183106"/></g><g clip-path="url(#ccc953a836b108180ff436a5321ca6b63xk8ji29__clip-3)"><path fill="none" stroke="rgb(0%, 0%, 100%)" stroke-linecap="butt" stroke-linejoin="miter" stroke-miterlimit="10" stroke-opacity="1" stroke-width="1.99255" d="M 141.735698 -0.00102144 L 141.735698 -28.348744 C 141.735698 -36.849538 137.199593 -41.953146 131.755484 -46.375751 M 123.364276 -52.83745 C 117.924081 -57.260055 113.387976 -62.363663 113.387976 -70.868371 " transform="matrix(0.998068, 0, 0, -0.998068, 72.690409, 0.995074)"/><path fill="none" stroke="rgb(100%, 0%, 0%)" stroke-linecap="butt" stroke-linejoin="miter" stroke-miterlimit="10" stroke-opacity="1" stroke-width="1.99255" d="M 113.387976 -0.00102144 L 113.387976 -28.348744 C 113.387976 -49.608557 141.735698 -49.608557 141.735698 -70.868371 " transform="matrix(0.998068, 0, 0, -0.998068, 72.690409, 0.995074)"/></g><g clip-path="url(#ccc953a836b108180ff436a5321ca6b63xk8ji29__clip-4)"><path fill="none" stroke="rgb(0%, 100%, 0%)" stroke-linecap="butt" stroke-linejoin="miter" stroke-miterlimit="10" stroke-opacity="1" stroke-width="1.99255" d="M 198.42723 -0.00102144 C 198.42723 -8.50573 193.891125 -13.605423 188.450929 -18.028028 M 180.059722 -24.493642 C 174.615613 -28.912333 170.079507 -34.01594 170.079507 -42.520648 L 170.079507 -70.868371 " transform="matrix(0.998068, 0, 0, -0.998068, 72.690409, 0.995074)"/><path fill="none" stroke="rgb(0%, 0%, 0%)" stroke-linecap="butt" stroke-linejoin="miter" stroke-miterlimit="10" stroke-opacity="1" stroke-width="1.99255" d="M 170.079507 -0.00102144 C 170.079507 -21.260835 198.42723 -21.260835 198.42723 -42.520648 L 198.42723 -70.868371 " transform="matrix(0.998068, 0, 0, -0.998068, 72.690409, 0.995074)"/></g><path fill="none" stroke="rgb(0%, 0%, 0%)" stroke-linecap="butt" stroke-linejoin="miter" stroke-miterlimit="10" stroke-opacity="1" stroke-width="0.79701" d="M 104.883268 -0.00102144 L 206.931938 -0.00102144 " transform="matrix(0.998068, 0, 0, -0.998068, 72.690409, 0.995074)"/><g clip-path="url(#ccc953a836b108180ff436a5321ca6b63xk8ji29__clip-5)"><path fill="none" stroke="rgb(0%, 0%, 0%)" stroke-linecap="butt" stroke-linejoin="miter" stroke-miterlimit="10" stroke-opacity="1" stroke-width="0.79701" d="M 104.883268 -70.868371 L 206.931938 -70.868371 " transform="matrix(0.998068, 0, 0, -0.998068, 72.690409, 0.995074)"/></g></svg>