<?xml version="1.0" encoding="UTF-8"?><svg xmlns="http://www.w3.org/2000/svg" xmlns:xlink="http://www.w3.org/1999/xlink" width="343.711" height="300.45" viewBox="0 0 343.711 300.45"><defs><clipPath id="00967bfec90541692fe672c961fc78fcksqk9atp__clip-0"><path d="M 101 0 L 243 0 L 243 299.902344 L 101 299.902344 Z M 101 0 " clip-rule="nonzero"/></clipPath><clipPath id="00967bfec90541692fe672c961fc78fcksqk9atp__clip-1"><path d="M 101 0 L 214 0 L 214 299.902344 L 101 299.902344 Z M 101 0 " clip-rule="nonzero"/></clipPath><clipPath id="00967bfec90541692fe672c961fc78fcksqk9atp__clip-2"><path d="M 129 0 L 243 0 L 243 299.902344 L 129 299.902344 Z M 129 0 " clip-rule="nonzero"/></clipPath><clipPath id="00967bfec90541692fe672c961fc78fcksqk9atp__clip-3"><path d="M 101 0 L 243 0 L 243 299.902344 L 101 299.902344 Z M 101 0 " clip-rule="nonzero"/></clipPath><clipPath id="00967bfec90541692fe672c961fc78fcksqk9atp__clip-4"><path d="M 120 299 L 224 299 L 224 299.902344 L 120 299.902344 Z M 120 299 " clip-rule="nonzero"/></clipPath></defs><g clip-path="url(#00967bfec90541692fe672c961fc78fcksqk9atp__clip-0)"><path fill="none" stroke="rgb(100%, 0%, 0%)" stroke-linecap="butt" stroke-linejoin="miter" stroke-miterlimit="10" stroke-opacity="1" stroke-width="1.99255" d="M 0.00007391 -0.00191719 C 0.00007391 -21.25951 28.348749 -21.25951 28.348749 -42.521016 L 28.348749 -28.346679 C 28.348749 -49.608185 56.69351 -49.608185 56.69351 -70.865778 L 56.69351 -56.695354 C 56.69351 -65.199173 61.229142 -70.298335 66.672682 -74.720477 M 75.063013 -81.185415 C 80.506554 -85.607558 85.042185 -90.710633 85.042185 -99.214453 L 85.042185 -113.38879 C 85.042185 -134.646383 56.69351 -134.646383 56.69351 -155.907889 L 56.69351 -170.082226 C 56.69351 -178.586046 52.157879 -183.685207 46.714338 -188.10735 M 38.324007 -194.572288 C 32.880467 -198.994431 28.348749 -204.097506 28.348749 -212.601325 L 28.348749 -198.426988 C 28.348749 -206.930808 23.813117 -212.033882 18.369577 -216.456025 M 9.979246 -222.920963 C 4.535705 -227.343106 0.00007391 -232.442267 0.00007391 -240.946087 L 0.00007391 -297.643437 " transform="matrix(0.998173, 0, 0, -0.998173, 129.269457, 0.99418)"/></g><g clip-path="url(#00967bfec90541692fe672c961fc78fcksqk9atp__clip-1)"><path fill="none" stroke="rgb(0%, 0%, 100%)" stroke-linecap="butt" stroke-linejoin="miter" stroke-miterlimit="10" stroke-opacity="1" stroke-width="1.99255" d="M 28.348749 -0.00191719 C 28.348749 -8.505737 23.813117 -13.604898 18.369577 -18.027041 M 9.979246 -24.491979 C 4.535705 -28.914122 0.00007391 -34.017196 0.00007391 -42.521016 L 0.00007391 -141.733552 C 0.00007391 -150.237371 4.535705 -155.340446 9.979246 -159.762589 M 18.369577 -166.227527 C 23.813117 -170.64967 28.348749 -175.748831 28.348749 -184.25265 L 28.348749 -170.082226 C 28.348749 -191.339819 56.69351 -191.339819 56.69351 -212.601325 L 56.69351 -226.775663 C 56.69351 -235.279483 52.157879 -240.382557 46.714338 -244.8047 M 38.324007 -251.265725 C 32.880467 -255.687867 28.348749 -260.790942 28.348749 -269.294762 L 28.348749 -297.643437 " transform="matrix(0.998173, 0, 0, -0.998173, 129.269457, 0.99418)"/></g><g clip-path="url(#00967bfec90541692fe672c961fc78fcksqk9atp__clip-2)"><path fill="none" stroke="rgb(0%, 0%, 0%)" stroke-linecap="butt" stroke-linejoin="miter" stroke-miterlimit="10" stroke-opacity="1" stroke-width="1.99255" d="M 56.69351 -0.00191719 L 56.69351 -28.346679 C 56.69351 -36.850498 52.157879 -41.953573 46.714338 -46.375716 M 38.324007 -52.83674 C 32.880467 -57.258883 28.348749 -62.361958 28.348749 -70.865778 L 28.348749 -85.040115 C 28.348749 -106.301621 56.69351 -106.301621 56.69351 -127.559214 L 56.69351 -113.38879 C 56.69351 -121.89261 61.229142 -126.991771 66.672682 -131.413914 M 75.063013 -137.878852 C 80.506554 -142.300995 85.042185 -147.404069 85.042185 -155.907889 L 85.042185 -255.120424 C 85.042185 -276.381931 56.69351 -276.381931 56.69351 -297.643437 " transform="matrix(0.998173, 0, 0, -0.998173, 129.269457, 0.99418)"/></g><g clip-path="url(#00967bfec90541692fe672c961fc78fcksqk9atp__clip-3)"><path fill="none" stroke="rgb(100%, 100%, 100%)" stroke-linecap="butt" stroke-linejoin="miter" stroke-miterlimit="10" stroke-opacity="1" stroke-width="1.99255" d="M 85.042185 -0.00191719 L 85.042185 -56.695354 C 85.042185 -77.952946 56.69351 -77.952946 56.69351 -99.214453 L 56.69351 -85.040115 C 56.69351 -93.543935 52.157879 -98.647009 46.714338 -103.069152 M 38.324007 -109.53409 C 32.880467 -113.956233 28.348749 -119.055394 28.348749 -127.559214 L 28.348749 -141.733552 C 28.348749 -162.995058 0.00007391 -162.995058 0.00007391 -184.25265 L 0.00007391 -198.426988 C 0.00007391 -219.688494 28.348749 -219.688494 28.348749 -240.946087 L 28.348749 -226.775663 C 28.348749 -248.033256 56.69351 -248.033256 56.69351 -269.294762 L 56.69351 -255.120424 C 56.69351 -263.624244 61.229142 -268.727319 66.672682 -273.149461 M 75.063013 -279.6144 C 80.506554 -284.036542 85.042185 -289.135703 85.042185 -297.643437 " transform="matrix(0.998173, 0, 0, -0.998173, 129.269457, 0.99418)"/></g><path fill="none" stroke="rgb(0%, 0%, 0%)" stroke-linecap="butt" stroke-linejoin="miter" stroke-miterlimit="10" stroke-opacity="1" stroke-width="0.79701" d="M -8.503746 -0.00191719 L 93.546005 -0.00191719 " transform="matrix(0.998173, 0, 0, -0.998173, 129.269457, 0.99418)"/><g clip-path="url(#00967bfec90541692fe672c961fc78fcksqk9atp__clip-4)"><path fill="none" stroke="rgb(0%, 0%, 0%)" stroke-linecap="butt" stroke-linejoin="miter" stroke-miterlimit="10" stroke-opacity="1" stroke-width="0.79701" d="M -8.503746 -299.060088 L 93.546005 -299.060088 " transform="matrix(0.998173, 0, 0, -0.998173, 129.269457, 0.99418)"/></g></svg>