<?xml version="1.0" encoding="UTF-8"?><svg xmlns="http://www.w3.org/2000/svg" xmlns:xlink="http://www.w3.org/1999/xlink" width="343.711" height="243.757" viewBox="0 0 343.711 243.757"><defs><clipPath id="b5aaf771ad82956376865321598d97939mi2hais__clip-0"><path d="M 115 0 L 200 0 L 200 243.515625 L 115 243.515625 Z M 115 0 " clip-rule="nonzero"/></clipPath><clipPath id="b5aaf771ad82956376865321598d97939mi2hais__clip-1"><path d="M 143 0 L 229 0 L 229 243.515625 L 143 243.515625 Z M 143 0 " clip-rule="nonzero"/></clipPath><clipPath id="b5aaf771ad82956376865321598d97939mi2hais__clip-2"><path d="M 115 0 L 229 0 L 229 243.515625 L 115 243.515625 Z M 115 0 " clip-rule="nonzero"/></clipPath><clipPath id="b5aaf771ad82956376865321598d97939mi2hais__clip-3"><path d="M 134 242 L 209 242 L 209 243.515625 L 134 243.515625 Z M 134 242 " clip-rule="nonzero"/></clipPath></defs><g clip-path="url(#b5aaf771ad82956376865321598d97939mi2hais__clip-0)"><path fill="none" stroke="rgb(100%, 0%, 0%)" stroke-linecap="butt" stroke-linejoin="miter" stroke-miterlimit="10" stroke-opacity="1" stroke-width="1.99255" d="M 0.00165867 -0.00108675 L 0.00165867 -28.345721 C 0.00165867 -49.605175 28.346293 -49.605175 28.346293 -70.868539 L 28.346293 -56.694266 C 28.346293 -65.19883 23.810526 -70.301568 18.367606 -74.720031 M 9.976436 -81.183499 C 4.533516 -85.605872 0.00165867 -90.70861 0.00165867 -99.213173 L 0.00165867 -85.038901 C 0.00165867 -106.302265 28.346293 -106.302265 28.346293 -127.561718 L 28.346293 -113.387446 C 28.346293 -121.892009 23.810526 -126.994747 18.367606 -131.41712 M 9.976436 -137.880589 C 4.533516 -142.302962 0.00165867 -147.40179 0.00165867 -155.906353 L 0.00165867 -240.948078 " transform="matrix(0.999004, 0, 0, -0.999004, 143.392874, 0.995008)"/></g><g clip-path="url(#b5aaf771ad82956376865321598d97939mi2hais__clip-1)"><path fill="none" stroke="rgb(0%, 0%, 100%)" stroke-linecap="butt" stroke-linejoin="miter" stroke-miterlimit="10" stroke-opacity="1" stroke-width="1.99255" d="M 28.346293 -0.00108675 C 28.346293 -21.26054 56.694838 -21.26054 56.694838 -42.519994 L 56.694838 -141.735991 C 56.694838 -150.236644 52.159071 -155.339382 46.71615 -159.761755 M 38.324981 -166.225223 C 32.882061 -170.647596 28.346293 -175.750334 28.346293 -184.254898 L 28.346293 -170.080625 C 28.346293 -191.340079 56.694838 -191.340079 56.694838 -212.599533 L 56.694838 -198.42917 C 56.694838 -206.929824 52.159071 -212.032562 46.71615 -216.454935 M 38.324981 -222.918403 C 32.882061 -227.340776 28.346293 -232.443514 28.346293 -240.948078 " transform="matrix(0.999004, 0, 0, -0.999004, 143.392874, 0.995008)"/></g><g clip-path="url(#b5aaf771ad82956376865321598d97939mi2hais__clip-2)"><path fill="none" stroke="rgb(0%, 0%, 0%)" stroke-linecap="butt" stroke-linejoin="miter" stroke-miterlimit="10" stroke-opacity="1" stroke-width="1.99255" d="M 56.694838 -0.00108675 C 56.694838 -8.50565 52.159071 -13.604478 46.71615 -18.026851 M 38.324981 -24.490319 C 32.882061 -28.912692 28.346293 -34.01543 28.346293 -42.519994 L 28.346293 -28.345721 C 28.346293 -36.850285 23.810526 -41.953023 18.367606 -46.375396 M 9.976436 -52.838864 C 4.533516 -57.261237 0.00165867 -62.363975 0.00165867 -70.868539 L 0.00165867 -56.694266 C 0.00165867 -77.95372 28.346293 -77.95372 28.346293 -99.213173 L 28.346293 -85.038901 C 28.346293 -93.543465 23.810526 -98.646203 18.367606 -103.068576 M 9.976436 -109.532044 C 4.533516 -113.954417 0.00165867 -119.057155 0.00165867 -127.561718 L 0.00165867 -113.387446 C 0.00165867 -134.646899 28.346293 -134.646899 28.346293 -155.906353 L 28.346293 -141.735991 C 28.346293 -162.995444 56.694838 -162.995444 56.694838 -184.254898 L 56.694838 -170.080625 C 56.694838 -178.585189 52.159071 -183.687927 46.71615 -188.1103 M 38.324981 -194.573768 C 32.882061 -198.996141 28.346293 -204.098879 28.346293 -212.599533 L 28.346293 -198.42917 C 28.346293 -219.688624 56.694838 -219.688624 56.694838 -240.948078 " transform="matrix(0.999004, 0, 0, -0.999004, 143.392874, 0.995008)"/></g><path fill="none" stroke="rgb(0%, 0%, 0%)" stroke-linecap="butt" stroke-linejoin="miter" stroke-miterlimit="10" stroke-opacity="1" stroke-width="0.79701" d="M -8.502905 -0.00108675 L 65.199402 -0.00108675 " transform="matrix(0.999004, 0, 0, -0.999004, 143.392874, 0.995008)"/><g clip-path="url(#b5aaf771ad82956376865321598d97939mi2hais__clip-3)"><path fill="none" stroke="rgb(0%, 0%, 0%)" stroke-linecap="butt" stroke-linejoin="miter" stroke-miterlimit="10" stroke-opacity="1" stroke-width="0.79701" d="M -8.502905 -242.36355 L 65.199402 -242.36355 " transform="matrix(0.999004, 0, 0, -0.999004, 143.392874, 0.995008)"/></g></svg>