<?xml version="1.0" encoding="UTF-8"?><svg xmlns="http://www.w3.org/2000/svg" xmlns:xlink="http://www.w3.org/1999/xlink" width="343.711" height="130.371" viewBox="0 0 343.711 130.371"><defs><clipPath id="e9672c11882f00a76ced7d2565f9f3a2tetxdywv__clip-0"><path d="M 69 0 L 154 0 L 154 129.746094 L 69 129.746094 Z M 69 0 " clip-rule="nonzero"/></clipPath><clipPath id="e9672c11882f00a76ced7d2565f9f3a2tetxdywv__clip-1"><path d="M 97 0 L 183 0 L 183 129.746094 L 97 129.746094 Z M 97 0 " clip-rule="nonzero"/></clipPath><clipPath id="e9672c11882f00a76ced7d2565f9f3a2tetxdywv__clip-2"><path d="M 69 0 L 183 0 L 183 129.746094 L 69 129.746094 Z M 69 0 " clip-rule="nonzero"/></clipPath><clipPath id="e9672c11882f00a76ced7d2565f9f3a2tetxdywv__clip-3"><path d="M 88 128 L 163 128 L 163 129.746094 L 88 129.746094 Z M 88 128 " clip-rule="nonzero"/></clipPath><clipPath id="e9672c11882f00a76ced7d2565f9f3a2tetxdywv__clip-4"><path d="M 189 0 L 274 0 L 274 129.746094 L 189 129.746094 Z M 189 0 " clip-rule="nonzero"/></clipPath><clipPath id="e9672c11882f00a76ced7d2565f9f3a2tetxdywv__clip-5"><path d="M 180 128 L 255 128 L 255 129.746094 L 180 129.746094 Z M 180 128 " clip-rule="nonzero"/></clipPath></defs><g clip-path="url(#e9672c11882f00a76ced7d2565f9f3a2tetxdywv__clip-0)"><path fill="none" stroke="rgb(100%, 0%, 0%)" stroke-linecap="butt" stroke-linejoin="miter" stroke-miterlimit="10" stroke-opacity="1" stroke-width="1.99255" d="M 0.00143556 -0.0009745 L 0.00143556 -28.348021 C 0.00143556 -49.606344 28.348482 -49.606344 28.348482 -70.868591 L 28.348482 -56.695068 C 28.348482 -65.196827 23.811071 -70.299452 18.370887 -74.723036 M 9.979031 -81.183744 C 4.534922 -85.607328 0.00143556 -90.709954 0.00143556 -99.215638 L 0.00143556 -127.558759 " transform="matrix(0.995198, 0, 0, -0.995198, 97.619665, 0.991218)"/></g><g clip-path="url(#e9672c11882f00a76ced7d2565f9f3a2tetxdywv__clip-1)"><path fill="none" stroke="rgb(0%, 0%, 100%)" stroke-linecap="butt" stroke-linejoin="miter" stroke-miterlimit="10" stroke-opacity="1" stroke-width="1.99255" d="M 28.348482 -0.0009745 C 28.348482 -21.259297 56.695529 -21.259297 56.695529 -42.521544 L 56.695529 -85.042114 C 56.695529 -93.543873 52.158117 -98.646499 46.714008 -103.070082 M 38.326077 -109.530791 C 32.881969 -113.954375 28.348482 -119.057 28.348482 -127.558759 " transform="matrix(0.995198, 0, 0, -0.995198, 97.619665, 0.991218)"/></g><g clip-path="url(#e9672c11882f00a76ced7d2565f9f3a2tetxdywv__clip-2)"><path fill="none" stroke="rgb(0%, 0%, 0%)" stroke-linecap="butt" stroke-linejoin="miter" stroke-miterlimit="10" stroke-opacity="1" stroke-width="1.99255" d="M 56.695529 -0.0009745 C 56.695529 -8.502733 52.158117 -13.605359 46.714008 -18.028943 M 38.326077 -24.493576 C 32.881969 -28.913235 28.348482 -34.01586 28.348482 -42.521544 L 28.348482 -28.348021 C 28.348482 -36.84978 23.811071 -41.952405 18.370887 -46.375989 M 9.979031 -52.836698 C 4.534922 -57.260282 0.00143556 -62.362907 0.00143556 -70.868591 L 0.00143556 -56.695068 C 0.00143556 -77.95339 28.348482 -77.95339 28.348482 -99.215638 L 28.348482 -85.042114 C 28.348482 -106.300437 56.695529 -106.300437 56.695529 -127.558759 " transform="matrix(0.995198, 0, 0, -0.995198, 97.619665, 0.991218)"/></g><path fill="none" stroke="rgb(0%, 0%, 0%)" stroke-linecap="butt" stroke-linejoin="miter" stroke-miterlimit="10" stroke-opacity="1" stroke-width="0.79701" d="M -8.504248 -0.0009745 L 65.197288 -0.0009745 " transform="matrix(0.995198, 0, 0, -0.995198, 97.619665, 0.991218)"/><g clip-path="url(#e9672c11882f00a76ced7d2565f9f3a2tetxdywv__clip-3)"><path fill="none" stroke="rgb(0%, 0%, 0%)" stroke-linecap="butt" stroke-linejoin="miter" stroke-miterlimit="10" stroke-opacity="1" stroke-width="0.79701" d="M -8.504248 -128.979644 L 65.197288 -128.979644 " transform="matrix(0.995198, 0, 0, -0.995198, 97.619665, 0.991218)"/></g><path fill="none" stroke="rgb(100%, 0%, 0%)" stroke-linecap="butt" stroke-linejoin="miter" stroke-miterlimit="10" stroke-opacity="1" stroke-width="1.99255" d="M -0.000123605 -0.0009745 L -0.000123605 -127.558759 " transform="matrix(0.995198, 0, 0, -0.995198, 189.382936, 0.991218)"/><g clip-path="url(#e9672c11882f00a76ced7d2565f9f3a2tetxdywv__clip-4)"><path fill="none" stroke="rgb(0%, 0%, 100%)" stroke-linecap="butt" stroke-linejoin="miter" stroke-miterlimit="10" stroke-opacity="1" stroke-width="1.99255" d="M 28.346923 -0.0009745 L 28.346923 -28.348021 C 28.346923 -49.606344 56.69397 -49.606344 56.69397 -70.868591 L 56.69397 -56.695068 C 56.69397 -65.196827 52.156558 -70.299452 46.716374 -74.723036 M 38.324518 -81.183744 C 32.880409 -85.607328 28.346923 -90.709954 28.346923 -99.215638 L 28.346923 -127.558759 " transform="matrix(0.995198, 0, 0, -0.995198, 189.382936, 0.991218)"/><path fill="none" stroke="rgb(0%, 0%, 0%)" stroke-linecap="butt" stroke-linejoin="miter" stroke-miterlimit="10" stroke-opacity="1" stroke-width="1.99255" d="M 56.69397 -0.0009745 L 56.69397 -28.348021 C 56.69397 -36.84978 52.156558 -41.952405 46.716374 -46.375989 M 38.324518 -52.836698 C 32.880409 -57.260282 28.346923 -62.362907 28.346923 -70.868591 L 28.346923 -56.695068 C 28.346923 -77.95339 56.69397 -77.95339 56.69397 -99.215638 L 56.69397 -127.558759 " transform="matrix(0.995198, 0, 0, -0.995198, 189.382936, 0.991218)"/></g><path fill="none" stroke="rgb(0%, 0%, 0%)" stroke-linecap="butt" stroke-linejoin="miter" stroke-miterlimit="10" stroke-opacity="1" stroke-width="0.79701" d="M -8.505808 -0.0009745 L 65.199654 -0.0009745 " transform="matrix(0.995198, 0, 0, -0.995198, 189.382936, 0.991218)"/><g clip-path="url(#e9672c11882f00a76ced7d2565f9f3a2tetxdywv__clip-5)"><path fill="none" stroke="rgb(0%, 0%, 0%)" stroke-linecap="butt" stroke-linejoin="miter" stroke-miterlimit="10" stroke-opacity="1" stroke-width="0.79701" d="M -8.505808 -128.979644 L 65.199654 -128.979644 " transform="matrix(0.995198, 0, 0, -0.995198, 189.382936, 0.991218)"/></g></svg>