<?xml version="1.0" encoding="UTF-8"?><svg xmlns="http://www.w3.org/2000/svg" xmlns:xlink="http://www.w3.org/1999/xlink" width="343.711" height="186.244" viewBox="0 0 343.711 186.244"><defs><clipPath id="728eb85dc5781fc9650892ba56268a1093mnpydv__clip-0"><path d="M 115 0 L 229 0 L 229 185.492188 L 115 185.492188 Z M 115 0 " clip-rule="nonzero"/></clipPath></defs><g clip-path="url(#728eb85dc5781fc9650892ba56268a1093mnpydv__clip-0)"><path fill="none" stroke="rgb(100%, 0%, 0%)" stroke-linecap="butt" stroke-linejoin="miter" stroke-miterlimit="10" stroke-opacity="1" stroke-width="1.99255" d="M 0.000789074 -0.000214979 C 0.000789074 -21.261953 28.345851 -21.261953 28.345851 -42.519768 L 28.345851 -28.345277 C 28.345851 -49.607014 56.694834 -49.607014 56.694834 -70.868752 L 56.694834 -85.039322 C 56.694834 -93.542448 52.156958 -98.645108 46.716996 -103.069244 M 38.323689 -109.532875 C 32.883728 -113.953089 28.345851 -119.055749 28.345851 -127.558875 L 28.345851 -113.388306 C 28.345851 -121.891432 23.811896 -126.994092 18.368012 -131.414306 M 9.978627 -137.877937 C 4.534744 -142.302073 0.000789074 -147.404733 0.000789074 -155.907859 L 0.000789074 -184.252921 " transform="matrix(0.995957, 0, 0, -0.995957, 143.479683, 0.991973)"/><path fill="none" stroke="rgb(0%, 0%, 100%)" stroke-linecap="butt" stroke-linejoin="miter" stroke-miterlimit="10" stroke-opacity="1" stroke-width="1.99255" d="M 28.345851 -0.000214979 C 28.345851 -8.503341 23.811896 -13.606001 18.368012 -18.030137 M 9.978627 -24.489846 C 4.534744 -28.913982 0.000789074 -34.016642 0.000789074 -42.519768 L 0.000789074 -56.69426 C 0.000789074 -77.952076 28.345851 -77.952076 28.345851 -99.213814 L 28.345851 -85.039322 C 28.345851 -106.30106 56.694834 -106.30106 56.694834 -127.558875 L 56.694834 -141.733367 C 56.694834 -150.236494 52.156958 -155.339154 46.716996 -159.76329 M 38.323689 -166.226921 C 32.883728 -170.647134 28.345851 -175.749794 28.345851 -184.252921 " transform="matrix(0.995957, 0, 0, -0.995957, 143.479683, 0.991973)"/><path fill="none" stroke="rgb(0%, 0%, 0%)" stroke-linecap="butt" stroke-linejoin="miter" stroke-miterlimit="10" stroke-opacity="1" stroke-width="1.99255" d="M 56.694834 -0.000214979 L 56.694834 -28.345277 C 56.694834 -36.852325 52.156958 -41.954985 46.716996 -46.375199 M 38.323689 -52.83883 C 32.883728 -57.259044 28.345851 -62.361704 28.345851 -70.868752 L 28.345851 -56.69426 C 28.345851 -65.197387 23.811896 -70.300047 18.368012 -74.72026 M 9.978627 -81.183892 C 4.534744 -85.608027 0.000789074 -90.710688 0.000789074 -99.213814 L 0.000789074 -113.388306 C 0.000789074 -134.646121 28.345851 -134.646121 28.345851 -155.907859 L 28.345851 -141.733367 C 28.345851 -162.995105 56.694834 -162.995105 56.694834 -184.252921 " transform="matrix(0.995957, 0, 0, -0.995957, 143.479683, 0.991973)"/></g><path fill="none" stroke="rgb(0%, 0%, 0%)" stroke-linecap="butt" stroke-linejoin="miter" stroke-miterlimit="10" stroke-opacity="1" stroke-width="0.79701" d="M -8.502337 -0.000214979 L 65.197961 -0.000214979 " transform="matrix(0.995957, 0, 0, -0.995957, 143.479683, 0.991973)"/><path fill="none" stroke="rgb(0%, 0%, 0%)" stroke-linecap="butt" stroke-linejoin="miter" stroke-miterlimit="10" stroke-opacity="1" stroke-width="0.79701" d="M -8.502337 -184.252921 L 65.197961 -184.252921 " transform="matrix(0.995957, 0, 0, -0.995957, 143.479683, 0.991973)"/></svg>