<?xml version="1.0" encoding="UTF-8"?><svg xmlns="http://www.w3.org/2000/svg" xmlns:xlink="http://www.w3.org/1999/xlink" width="343.711" height="72.859" viewBox="0 0 343.711 72.859"><defs><clipPath id="e51d2d008b020ca851fee660c2e03f9frcrk17wm__clip-0"><path d="M 129 0 L 214 0 L 214 72.71875 L 129 72.71875 Z M 129 0 " clip-rule="nonzero"/></clipPath><clipPath id="e51d2d008b020ca851fee660c2e03f9frcrk17wm__clip-1"><path d="M 148 71 L 195 71 L 195 72.71875 L 148 72.71875 Z M 148 71 " clip-rule="nonzero"/></clipPath></defs><g clip-path="url(#e51d2d008b020ca851fee660c2e03f9frcrk17wm__clip-0)"><path fill="none" stroke="rgb(100%, 0%, 0%)" stroke-linecap="butt" stroke-linejoin="miter" stroke-miterlimit="10" stroke-opacity="1" stroke-width="1.99255" d="M 0.00125336 -0.00102144 C 0.00125336 -21.260835 28.345062 -21.260835 28.345062 -42.520648 L 28.345062 -28.348744 C 28.345062 -36.849538 23.812871 -41.953146 18.368762 -46.375751 M 9.977554 -52.83745 C 4.533445 -57.260055 0.00125336 -62.363663 0.00125336 -70.868371 " transform="matrix(0.998068, 0, 0, -0.998068, 157.565155, 0.995074)"/><path fill="none" stroke="rgb(0%, 0%, 100%)" stroke-linecap="butt" stroke-linejoin="miter" stroke-miterlimit="10" stroke-opacity="1" stroke-width="1.99255" d="M 28.345062 -0.00102144 C 28.345062 -8.50573 23.812871 -13.605423 18.368762 -18.028028 M 9.977554 -24.493642 C 4.533445 -28.912333 0.00125336 -34.01594 0.00125336 -42.520648 L 0.00125336 -28.348744 C 0.00125336 -49.608557 28.345062 -49.608557 28.345062 -70.868371 " transform="matrix(0.998068, 0, 0, -0.998068, 157.565155, 0.995074)"/></g><path fill="none" stroke="rgb(0%, 0%, 0%)" stroke-linecap="butt" stroke-linejoin="miter" stroke-miterlimit="10" stroke-opacity="1" stroke-width="0.79701" d="M -8.503455 -0.00102144 L 36.84977 -0.00102144 " transform="matrix(0.998068, 0, 0, -0.998068, 157.565155, 0.995074)"/><g clip-path="url(#e51d2d008b020ca851fee660c2e03f9frcrk17wm__clip-1)"><path fill="none" stroke="rgb(0%, 0%, 0%)" stroke-linecap="butt" stroke-linejoin="miter" stroke-miterlimit="10" stroke-opacity="1" stroke-width="0.79701" d="M -8.503455 -70.868371 L 36.84977 -70.868371 " transform="matrix(0.998068, 0, 0, -0.998068, 157.565155, 0.995074)"/></g></svg>