<?xml version="1.0" encoding="UTF-8"?><svg xmlns="http://www.w3.org/2000/svg" xmlns:xlink="http://www.w3.org/1999/xlink" width="323.702" height="78.165" viewBox="0 0 323.702 78.165"><defs><g><g id="7139109524e54c37406fdb7b0e9aa90anocz5zh3__glyph-0-0"><path d="M 1.765625 -1.140625 C 1.375 -0.46875 0.984375 -0.328125 0.546875 -0.3125 C 0.4375 -0.296875 0.34375 -0.296875 0.34375 -0.109375 C 0.34375 -0.046875 0.390625 0 0.46875 0 C 0.734375 0 1.046875 -0.03125 1.328125 -0.03125 C 1.640625 -0.03125 1.984375 0 2.3125 0 C 2.359375 0 2.5 0 2.5 -0.1875 C 2.5 -0.296875 2.40625 -0.3125 2.34375 -0.3125 C 2.109375 -0.328125 1.875 -0.40625 1.875 -0.65625 C 1.875 -0.765625 1.9375 -0.875 2.015625 -1.015625 L 2.765625 -2.28125 L 5.234375 -2.28125 C 5.25 -2.078125 5.390625 -0.734375 5.390625 -0.625 C 5.390625 -0.328125 4.875 -0.3125 4.6875 -0.3125 C 4.546875 -0.3125 4.453125 -0.3125 4.453125 -0.109375 C 4.453125 0 4.5625 0 4.578125 0 C 4.984375 0 5.40625 -0.03125 5.8125 -0.03125 C 6.0625 -0.03125 6.6875 0 6.9375 0 C 6.984375 0 7.109375 0 7.109375 -0.203125 C 7.109375 -0.3125 7.015625 -0.3125 6.875 -0.3125 C 6.265625 -0.3125 6.265625 -0.375 6.234375 -0.65625 L 5.640625 -6.828125 C 5.625 -7.015625 5.625 -7.0625 5.453125 -7.0625 C 5.296875 -7.0625 5.25 -6.984375 5.203125 -6.890625 Z M 2.953125 -2.578125 L 4.890625 -5.84375 L 5.203125 -2.578125 Z M 2.953125 -2.578125 "/></g><g id="7139109524e54c37406fdb7b0e9aa90anocz5zh3__glyph-0-1"><path d="M 1.578125 -0.765625 C 1.484375 -0.390625 1.453125 -0.3125 0.6875 -0.3125 C 0.515625 -0.3125 0.421875 -0.3125 0.421875 -0.109375 C 0.421875 0 0.5 0 0.6875 0 L 4.203125 0 C 5.765625 0 6.921875 -1.15625 6.921875 -2.125 C 6.921875 -2.84375 6.34375 -3.40625 5.390625 -3.515625 C 6.421875 -3.703125 7.453125 -4.4375 7.453125 -5.375 C 7.453125 -6.109375 6.796875 -6.734375 5.625 -6.734375 L 2.3125 -6.734375 C 2.125 -6.734375 2.015625 -6.734375 2.015625 -6.53125 C 2.015625 -6.421875 2.109375 -6.421875 2.296875 -6.421875 C 2.3125 -6.421875 2.5 -6.421875 2.671875 -6.40625 C 2.84375 -6.390625 2.9375 -6.375 2.9375 -6.25 C 2.9375 -6.21875 2.921875 -6.1875 2.90625 -6.0625 Z M 3.0625 -3.609375 L 3.671875 -6.046875 C 3.765625 -6.40625 3.78125 -6.421875 4.203125 -6.421875 L 5.484375 -6.421875 C 6.34375 -6.421875 6.5625 -5.84375 6.5625 -5.40625 C 6.5625 -4.546875 5.703125 -3.609375 4.5 -3.609375 Z M 2.625 -0.3125 C 2.484375 -0.3125 2.46875 -0.3125 2.40625 -0.3125 C 2.3125 -0.328125 2.28125 -0.328125 2.28125 -0.421875 C 2.28125 -0.4375 2.28125 -0.46875 2.328125 -0.640625 L 3 -3.390625 L 4.875 -3.390625 C 5.8125 -3.390625 6 -2.65625 6 -2.234375 C 6 -1.265625 5.125 -0.3125 3.96875 -0.3125 Z M 2.625 -0.3125 "/></g><g id="7139109524e54c37406fdb7b0e9aa90anocz5zh3__glyph-1-0"><path d="M 2.8125 -2.734375 L 3.484375 -2.734375 C 3.625 -2.734375 3.71875 -2.734375 3.71875 -2.875 C 3.71875 -2.984375 3.625 -2.984375 3.5 -2.984375 L 2.859375 -2.984375 C 3.015625 -3.859375 3.078125 -4.171875 3.125 -4.375 C 3.15625 -4.53125 3.3125 -4.671875 3.484375 -4.671875 C 3.484375 -4.671875 3.671875 -4.671875 3.8125 -4.578125 C 3.515625 -4.5 3.5 -4.25 3.5 -4.203125 C 3.5 -4.046875 3.625 -3.953125 3.78125 -3.953125 C 3.96875 -3.953125 4.171875 -4.109375 4.171875 -4.375 C 4.171875 -4.6875 3.828125 -4.859375 3.484375 -4.859375 C 3.171875 -4.859375 2.84375 -4.6875 2.65625 -4.34375 C 2.515625 -4.09375 2.453125 -3.78125 2.3125 -2.984375 L 1.765625 -2.984375 C 1.625 -2.984375 1.546875 -2.984375 1.546875 -2.828125 C 1.546875 -2.734375 1.625 -2.734375 1.75 -2.734375 L 2.265625 -2.734375 C 2.265625 -2.6875 1.828125 -0.203125 1.65625 0.53125 C 1.625 0.6875 1.5 1.21875 1.171875 1.21875 C 1.171875 1.21875 1 1.21875 0.875 1.125 C 1.15625 1.046875 1.171875 0.796875 1.171875 0.75 C 1.171875 0.59375 1.0625 0.5 0.890625 0.5 C 0.71875 0.5 0.5 0.65625 0.5 0.921875 C 0.5 1.234375 0.828125 1.40625 1.171875 1.40625 C 1.609375 1.40625 1.921875 0.953125 2 0.796875 C 2.25 0.34375 2.40625 -0.515625 2.421875 -0.59375 Z M 2.8125 -2.734375 "/></g><g id="7139109524e54c37406fdb7b0e9aa90anocz5zh3__glyph-1-1"><path d="M 3.671875 -2.546875 C 3.703125 -2.65625 3.703125 -2.6875 3.703125 -2.6875 C 3.703125 -2.84375 3.578125 -2.921875 3.46875 -2.921875 C 3.3125 -2.921875 3.171875 -2.78125 3.15625 -2.65625 C 3.03125 -2.84375 2.796875 -3.046875 2.4375 -3.046875 C 1.578125 -3.046875 0.671875 -2.125 0.671875 -1.125 C 0.671875 -0.421875 1.15625 0 1.71875 0 C 2.03125 0 2.34375 -0.15625 2.578125 -0.375 L 2.4375 0.25 C 2.359375 0.53125 2.3125 0.71875 2.046875 0.953125 C 1.734375 1.21875 1.4375 1.21875 1.265625 1.21875 C 0.953125 1.21875 0.859375 1.1875 0.734375 1.171875 C 0.90625 1.078125 0.953125 0.921875 0.953125 0.828125 C 0.953125 0.65625 0.828125 0.5625 0.6875 0.5625 C 0.5 0.5625 0.296875 0.71875 0.296875 0.984375 C 0.296875 1.40625 0.890625 1.40625 1.28125 1.40625 C 2.359375 1.40625 2.828125 0.859375 2.921875 0.46875 Z M 2.71875 -0.921875 C 2.6875 -0.8125 2.6875 -0.796875 2.578125 -0.65625 C 2.328125 -0.375 2 -0.1875 1.734375 -0.1875 C 1.390625 -0.1875 1.21875 -0.484375 1.21875 -0.84375 C 1.21875 -1.15625 1.40625 -1.921875 1.59375 -2.234375 C 1.875 -2.71875 2.203125 -2.859375 2.4375 -2.859375 C 2.921875 -2.859375 3.046875 -2.328125 3.046875 -2.265625 C 3.046875 -2.25 3.046875 -2.234375 3.03125 -2.15625 Z M 2.71875 -0.921875 "/></g><g id="7139109524e54c37406fdb7b0e9aa90anocz5zh3__glyph-1-2"><path d="M 3.859375 -1.875 C 3.90625 -2.078125 3.921875 -2.09375 3.921875 -2.265625 C 3.921875 -2.375 3.921875 -2.65625 3.65625 -2.859375 C 3.546875 -2.953125 3.34375 -3.046875 3.015625 -3.046875 C 2.734375 -3.046875 2.296875 -2.96875 1.84375 -2.421875 C 1.796875 -2.9375 1.328125 -3.046875 1.125 -3.046875 C 0.84375 -3.046875 0.6875 -2.859375 0.578125 -2.671875 C 0.4375 -2.4375 0.328125 -2.03125 0.328125 -1.984375 C 0.328125 -1.90625 0.421875 -1.90625 0.4375 -1.90625 C 0.53125 -1.90625 0.546875 -1.921875 0.59375 -2.109375 C 0.703125 -2.5 0.828125 -2.859375 1.09375 -2.859375 C 1.28125 -2.859375 1.328125 -2.703125 1.328125 -2.515625 C 1.328125 -2.375 1.265625 -2.125 1.21875 -1.9375 C 1.171875 -1.75 1.09375 -1.46875 1.0625 -1.3125 L 0.84375 -0.4375 C 0.8125 -0.34375 0.78125 -0.171875 0.78125 -0.15625 C 0.78125 0 0.890625 0.0625 1.015625 0.0625 C 1.125 0.0625 1.25 -0.015625 1.28125 -0.078125 C 1.3125 -0.140625 1.375 -0.359375 1.40625 -0.515625 C 1.4375 -0.640625 1.515625 -0.953125 1.546875 -1.125 C 1.59375 -1.28125 1.640625 -1.4375 1.671875 -1.59375 C 1.75 -1.890625 1.75 -1.90625 1.890625 -2.125 C 2.109375 -2.453125 2.453125 -2.859375 2.984375 -2.859375 C 3.375 -2.859375 3.390625 -2.53125 3.390625 -2.375 C 3.390625 -2.1875 3.390625 -2.125 3.34375 -1.984375 L 2.5625 1.109375 C 2.546875 1.21875 2.546875 1.25 2.546875 1.25 C 2.546875 1.40625 2.671875 1.484375 2.78125 1.484375 C 3.03125 1.484375 3.09375 1.25 3.109375 1.140625 Z M 3.859375 -1.875 "/></g><g id="7139109524e54c37406fdb7b0e9aa90anocz5zh3__glyph-1-3"><path d="M 2.40625 -1.546875 C 2.515625 -1.546875 2.640625 -1.546875 2.640625 -1.671875 C 2.640625 -1.796875 2.546875 -1.796875 2.40625 -1.796875 L 1.171875 -1.796875 C 1.375 -2.421875 1.828125 -2.734375 2.4375 -2.734375 L 2.703125 -2.734375 C 2.8125 -2.734375 2.9375 -2.734375 2.9375 -2.859375 C 2.9375 -2.984375 2.84375 -2.984375 2.71875 -2.984375 L 2.421875 -2.984375 C 1.5 -2.984375 0.46875 -2.328125 0.46875 -1.28125 C 0.46875 -0.46875 1.078125 0.0625 1.890625 0.0625 C 2.09375 0.0625 2.375 0.03125 2.75 -0.171875 C 2.890625 -0.25 2.90625 -0.265625 2.90625 -0.3125 C 2.90625 -0.328125 2.90625 -0.453125 2.796875 -0.453125 C 2.765625 -0.453125 2.75 -0.4375 2.71875 -0.421875 C 2.46875 -0.25 2.1875 -0.125 1.90625 -0.125 C 1.625 -0.125 1.046875 -0.265625 1.046875 -1.046875 C 1.046875 -1.140625 1.046875 -1.28125 1.109375 -1.546875 Z M 2.40625 -1.546875 "/></g><g id="7139109524e54c37406fdb7b0e9aa90anocz5zh3__glyph-2-0"><path d="M 3.28125 -0.75 C 3.328125 -0.359375 3.59375 0.0625 4.046875 0.0625 C 4.265625 0.0625 4.859375 -0.078125 4.859375 -0.875 L 4.859375 -1.421875 L 4.609375 -1.421875 L 4.609375 -0.875 C 4.609375 -0.3125 4.375 -0.25 4.265625 -0.25 C 3.9375 -0.25 3.890625 -0.6875 3.890625 -0.734375 L 3.890625 -2.71875 C 3.890625 -3.125 3.890625 -3.515625 3.546875 -3.875 C 3.15625 -4.265625 2.65625 -4.421875 2.1875 -4.421875 C 1.375 -4.421875 0.703125 -3.953125 0.703125 -3.296875 C 0.703125 -3 0.890625 -2.84375 1.15625 -2.84375 C 1.421875 -2.84375 1.609375 -3.03125 1.609375 -3.296875 C 1.609375 -3.40625 1.5625 -3.734375 1.109375 -3.75 C 1.375 -4.09375 1.859375 -4.203125 2.171875 -4.203125 C 2.65625 -4.203125 3.21875 -3.8125 3.21875 -2.9375 L 3.21875 -2.578125 C 2.71875 -2.546875 2.015625 -2.515625 1.40625 -2.21875 C 0.65625 -1.890625 0.421875 -1.375 0.421875 -0.9375 C 0.421875 -0.140625 1.375 0.109375 1.984375 0.109375 C 2.640625 0.109375 3.09375 -0.28125 3.28125 -0.75 Z M 3.21875 -2.359375 L 3.21875 -1.375 C 3.21875 -0.4375 2.5 -0.109375 2.0625 -0.109375 C 1.578125 -0.109375 1.171875 -0.453125 1.171875 -0.953125 C 1.171875 -1.484375 1.59375 -2.3125 3.21875 -2.359375 Z M 3.21875 -2.359375 "/></g><g id="7139109524e54c37406fdb7b0e9aa90anocz5zh3__glyph-2-1"><path d="M 1.078125 -3.390625 L 1.078125 -0.75 C 1.078125 -0.3125 0.96875 -0.3125 0.3125 -0.3125 L 0.3125 0 C 0.65625 -0.015625 1.15625 -0.03125 1.421875 -0.03125 C 1.6875 -0.03125 2.203125 -0.015625 2.53125 0 L 2.53125 -0.3125 C 1.875 -0.3125 1.765625 -0.3125 1.765625 -0.75 L 1.765625 -2.5625 C 1.765625 -3.59375 2.46875 -4.140625 3.09375 -4.140625 C 3.71875 -4.140625 3.828125 -3.609375 3.828125 -3.046875 L 3.828125 -0.75 C 3.828125 -0.3125 3.71875 -0.3125 3.0625 -0.3125 L 3.0625 0 C 3.40625 -0.015625 3.90625 -0.03125 4.171875 -0.03125 C 4.421875 -0.03125 4.9375 -0.015625 5.28125 0 L 5.28125 -0.3125 C 4.765625 -0.3125 4.515625 -0.3125 4.5 -0.59375 L 4.5 -2.484375 C 4.5 -3.328125 4.5 -3.640625 4.203125 -4 C 4.0625 -4.15625 3.734375 -4.359375 3.171875 -4.359375 C 2.4375 -4.359375 1.984375 -3.9375 1.703125 -3.328125 L 1.703125 -4.359375 L 0.3125 -4.25 L 0.3125 -3.9375 C 1 -3.9375 1.078125 -3.875 1.078125 -3.390625 Z M 1.078125 -3.390625 "/></g><g id="7139109524e54c37406fdb7b0e9aa90anocz5zh3__glyph-2-2"><path d="M 3.75 -0.546875 L 3.75 0.109375 L 5.203125 0 L 5.203125 -0.3125 C 4.5 -0.3125 4.421875 -0.375 4.421875 -0.859375 L 4.421875 -6.84375 L 3 -6.734375 L 3 -6.421875 C 3.703125 -6.421875 3.78125 -6.359375 3.78125 -5.875 L 3.78125 -3.75 C 3.484375 -4.09375 3.0625 -4.359375 2.53125 -4.359375 C 1.375 -4.359375 0.328125 -3.390625 0.328125 -2.125 C 0.328125 -0.875 1.296875 0.109375 2.421875 0.109375 C 3.0625 0.109375 3.5 -0.234375 3.75 -0.546875 Z M 3.75 -3.1875 L 3.75 -1.15625 C 3.75 -0.984375 3.75 -0.96875 3.640625 -0.796875 C 3.34375 -0.328125 2.90625 -0.109375 2.46875 -0.109375 C 2.03125 -0.109375 1.671875 -0.359375 1.4375 -0.734375 C 1.1875 -1.140625 1.15625 -1.703125 1.15625 -2.109375 C 1.15625 -2.46875 1.171875 -3.0625 1.453125 -3.515625 C 1.671875 -3.8125 2.046875 -4.140625 2.578125 -4.140625 C 2.921875 -4.140625 3.328125 -4 3.640625 -3.546875 C 3.75 -3.375 3.75 -3.359375 3.75 -3.1875 Z M 3.75 -3.1875 "/></g></g></defs><g fill="rgb(0%, 0%, 0%)" fill-opacity="1"><use xlink:href="#7139109524e54c37406fdb7b0e9aa90anocz5zh3__glyph-0-0" x="66.304677" y="10.343505"/></g><g fill="rgb(0%, 0%, 0%)" fill-opacity="1"><use xlink:href="#7139109524e54c37406fdb7b0e9aa90anocz5zh3__glyph-0-0" x="129.790487" y="10.343505"/></g><g fill="rgb(0%, 0%, 0%)" fill-opacity="1"><use xlink:href="#7139109524e54c37406fdb7b0e9aa90anocz5zh3__glyph-0-1" x="66.015763" y="42.036939"/></g><g fill="rgb(0%, 0%, 0%)" fill-opacity="1"><use xlink:href="#7139109524e54c37406fdb7b0e9aa90anocz5zh3__glyph-0-0" x="66.304677" y="73.731362"/></g><g fill="rgb(0%, 0%, 0%)" fill-opacity="1"><use xlink:href="#7139109524e54c37406fdb7b0e9aa90anocz5zh3__glyph-0-0" x="129.790487" y="73.731362"/></g><path fill="none" stroke="rgb(0%, 0%, 0%)" stroke-linecap="butt" stroke-linejoin="miter" stroke-miterlimit="10" stroke-opacity="1" stroke-width="2.32874" d="M -23.709614 31.118927 L 24.001708 31.118927 " transform="matrix(0.98943, 0, 0, -0.98943, 101.599637, 38.668918)"/><path fill="none" stroke="rgb(100%, 100%, 100%)" stroke-linecap="butt" stroke-linejoin="miter" stroke-miterlimit="10" stroke-opacity="1" stroke-width="1.53175" d="M -23.709614 31.118927 L 24.001708 31.118927 " transform="matrix(0.98943, 0, 0, -0.98943, 101.599637, 38.668918)"/><path fill="none" stroke="rgb(0%, 0%, 0%)" stroke-linecap="butt" stroke-linejoin="miter" stroke-miterlimit="10" stroke-opacity="1" stroke-width="0.39848" d="M -31.937201 24.782421 L -31.937201 7.648194 " transform="matrix(0.98943, 0, 0, -0.98943, 101.599637, 38.668918)"/><path fill="none" stroke="rgb(0%, 0%, 0%)" stroke-linecap="round" stroke-linejoin="round" stroke-miterlimit="10" stroke-opacity="1" stroke-width="0.39848" d="M -2.071016 2.391434 C -1.69201 0.95437 -0.851091 0.279265 0.0016728 -0.00104111 C -0.851091 -0.2774 -1.69201 -0.956452 -2.071016 -2.389568 " transform="matrix(0, 0.98943, 0.98943, 0, 70.00103, 31.299126)"/><g fill="rgb(0%, 0%, 0%)" fill-opacity="1"><use xlink:href="#7139109524e54c37406fdb7b0e9aa90anocz5zh3__glyph-1-0" x="63.065281" y="24.546778"/></g><path fill="none" stroke="rgb(0%, 0%, 0%)" stroke-linecap="butt" stroke-linejoin="miter" stroke-miterlimit="10" stroke-opacity="1" stroke-width="2.32874" d="M 32.229296 24.782421 L 32.229296 -24.78445 " transform="matrix(0.98943, 0, 0, -0.98943, 101.599637, 38.668918)"/><path fill="none" stroke="rgb(100%, 100%, 100%)" stroke-linecap="butt" stroke-linejoin="miter" stroke-miterlimit="10" stroke-opacity="1" stroke-width="1.53175" d="M 32.229296 24.782421 L 32.229296 -24.78445 " transform="matrix(0.98943, 0, 0, -0.98943, 101.599637, 38.668918)"/><path fill="none" stroke="rgb(0%, 0%, 0%)" stroke-linecap="butt" stroke-linejoin="miter" stroke-miterlimit="10" stroke-opacity="1" stroke-width="0.39848" d="M -31.937201 -7.247529 L -31.937201 -24.385705 " transform="matrix(0.98943, 0, 0, -0.98943, 101.599637, 38.668918)"/><path fill="none" stroke="rgb(0%, 0%, 0%)" stroke-linecap="round" stroke-linejoin="round" stroke-miterlimit="10" stroke-opacity="1" stroke-width="0.39848" d="M -2.070197 2.391434 C -1.695139 0.95437 -0.850272 0.279265 -0.00145653 -0.00104111 C -0.850272 -0.2774 -1.695139 -0.956452 -2.070197 -2.389568 " transform="matrix(0, 0.98943, 0.98943, 0, 70.00103, 62.993629)"/><g fill="rgb(0%, 0%, 0%)" fill-opacity="1"><use xlink:href="#7139109524e54c37406fdb7b0e9aa90anocz5zh3__glyph-1-1" x="63.58869" y="55.330926"/></g><path fill="none" stroke="rgb(0%, 0%, 0%)" stroke-linecap="butt" stroke-linejoin="miter" stroke-miterlimit="10" stroke-opacity="1" stroke-width="2.32874" d="M -23.709614 -32.944922 L 24.001708 -32.944922 " transform="matrix(0.98943, 0, 0, -0.98943, 101.599637, 38.668918)"/><path fill="none" stroke="rgb(100%, 100%, 100%)" stroke-linecap="butt" stroke-linejoin="miter" stroke-miterlimit="10" stroke-opacity="1" stroke-width="1.53175" d="M -23.709614 -32.944922 L 24.001708 -32.944922 " transform="matrix(0.98943, 0, 0, -0.98943, 101.599637, 38.668918)"/><path fill="none" stroke="rgb(0%, 0%, 0%)" stroke-linecap="butt" stroke-linejoin="miter" stroke-miterlimit="10" stroke-opacity="1" stroke-width="2.32874" d="M 0.148021 21.454275 L 0.148021 -21.097038 " transform="matrix(0.98943, 0, 0, -0.98943, 101.599637, 38.668918)"/><path fill="none" stroke="rgb(100%, 100%, 100%)" stroke-linecap="butt" stroke-linejoin="miter" stroke-miterlimit="10" stroke-opacity="1" stroke-width="1.53175" d="M 0.148021 21.454275 L 0.148021 -21.097038 " transform="matrix(0.98943, 0, 0, -0.98943, 101.599637, 38.668918)"/><path fill="none" stroke="rgb(0%, 0%, 0%)" stroke-linecap="round" stroke-linejoin="round" stroke-miterlimit="10" stroke-opacity="1" stroke-width="0.39848" d="M -1.293009 2.556213 C -0.66528 1.206005 1.024455 0.049247 1.987762 0.00187125 C 1.024455 -0.0494525 -0.66528 -1.20621 -1.293009 -2.556419 " transform="matrix(0, 0.98943, 0.98943, 0, 101.744242, 59.541061)"/><g fill="rgb(0%, 0%, 0%)" fill-opacity="1"><use xlink:href="#7139109524e54c37406fdb7b0e9aa90anocz5zh3__glyph-1-2" x="104.063319" y="40.387559"/></g><g fill="rgb(0%, 0%, 0%)" fill-opacity="1"><use xlink:href="#7139109524e54c37406fdb7b0e9aa90anocz5zh3__glyph-2-0" x="153.473493" y="38.668918"/><use xlink:href="#7139109524e54c37406fdb7b0e9aa90anocz5zh3__glyph-2-1" x="158.402143" y="38.668918"/><use xlink:href="#7139109524e54c37406fdb7b0e9aa90anocz5zh3__glyph-2-2" x="163.878858" y="38.668918"/></g><g fill="rgb(0%, 0%, 0%)" fill-opacity="1"><use xlink:href="#7139109524e54c37406fdb7b0e9aa90anocz5zh3__glyph-0-1" x="185.645811" y="10.343505"/></g><g fill="rgb(0%, 0%, 0%)" fill-opacity="1"><use xlink:href="#7139109524e54c37406fdb7b0e9aa90anocz5zh3__glyph-0-1" x="249.420536" y="10.343505"/></g><g fill="rgb(0%, 0%, 0%)" fill-opacity="1"><use xlink:href="#7139109524e54c37406fdb7b0e9aa90anocz5zh3__glyph-0-0" x="249.709449" y="42.036939"/></g><g fill="rgb(0%, 0%, 0%)" fill-opacity="1"><use xlink:href="#7139109524e54c37406fdb7b0e9aa90anocz5zh3__glyph-0-1" x="185.645811" y="73.731362"/></g><g fill="rgb(0%, 0%, 0%)" fill-opacity="1"><use xlink:href="#7139109524e54c37406fdb7b0e9aa90anocz5zh3__glyph-0-1" x="249.420536" y="73.731362"/></g><path fill="none" stroke="rgb(0%, 0%, 0%)" stroke-linecap="butt" stroke-linejoin="miter" stroke-miterlimit="10" stroke-opacity="1" stroke-width="2.32874" d="M -23.710618 31.118927 L 23.712502 31.118927 " transform="matrix(0.98943, 0, 0, -0.98943, 221.518599, 38.668918)"/><path fill="none" stroke="rgb(100%, 100%, 100%)" stroke-linecap="butt" stroke-linejoin="miter" stroke-miterlimit="10" stroke-opacity="1" stroke-width="1.53175" d="M -23.710618 31.118927 L 23.712502 31.118927 " transform="matrix(0.98943, 0, 0, -0.98943, 221.518599, 38.668918)"/><path fill="none" stroke="rgb(0%, 0%, 0%)" stroke-linecap="butt" stroke-linejoin="miter" stroke-miterlimit="10" stroke-opacity="1" stroke-width="2.32874" d="M -32.230355 24.782421 L -32.230355 -24.78445 " transform="matrix(0.98943, 0, 0, -0.98943, 221.518599, 38.668918)"/><path fill="none" stroke="rgb(100%, 100%, 100%)" stroke-linecap="butt" stroke-linejoin="miter" stroke-miterlimit="10" stroke-opacity="1" stroke-width="1.53175" d="M -32.230355 24.782421 L -32.230355 -24.78445 " transform="matrix(0.98943, 0, 0, -0.98943, 221.518599, 38.668918)"/><path fill="none" stroke="rgb(0%, 0%, 0%)" stroke-linecap="butt" stroke-linejoin="miter" stroke-miterlimit="10" stroke-opacity="1" stroke-width="0.39848" d="M 32.228292 24.782421 L 32.228292 7.648194 " transform="matrix(0.98943, 0, 0, -0.98943, 221.518599, 38.668918)"/><path fill="none" stroke="rgb(0%, 0%, 0%)" stroke-linecap="round" stroke-linejoin="round" stroke-miterlimit="10" stroke-opacity="1" stroke-width="0.39848" d="M -2.071016 2.392317 C -1.69201 0.955253 -0.851091 0.280148 0.0016728 -0.000158245 C -0.851091 -0.280465 -1.69201 -0.955569 -2.071016 -2.392633 " transform="matrix(0, 0.98943, 0.98943, 0, 253.406407, 31.299126)"/><g fill="rgb(0%, 0%, 0%)" fill-opacity="1"><use xlink:href="#7139109524e54c37406fdb7b0e9aa90anocz5zh3__glyph-1-1" x="255.725186" y="23.636502"/></g><path fill="none" stroke="rgb(0%, 0%, 0%)" stroke-linecap="butt" stroke-linejoin="miter" stroke-miterlimit="10" stroke-opacity="1" stroke-width="0.39848" d="M 32.228292 -7.247529 L 32.228292 -24.385705 " transform="matrix(0.98943, 0, 0, -0.98943, 221.518599, 38.668918)"/><path fill="none" stroke="rgb(0%, 0%, 0%)" stroke-linecap="round" stroke-linejoin="round" stroke-miterlimit="10" stroke-opacity="1" stroke-width="0.39848" d="M -2.070197 2.392317 C -1.695139 0.955253 -0.850272 0.280148 -0.00145653 -0.000158245 C -0.850272 -0.280465 -1.695139 -0.955569 -2.070197 -2.392633 " transform="matrix(0, 0.98943, 0.98943, 0, 253.406407, 62.993629)"/><g fill="rgb(0%, 0%, 0%)" fill-opacity="1"><use xlink:href="#7139109524e54c37406fdb7b0e9aa90anocz5zh3__glyph-1-0" x="255.725186" y="56.241202"/></g><path fill="none" stroke="rgb(0%, 0%, 0%)" stroke-linecap="butt" stroke-linejoin="miter" stroke-miterlimit="10" stroke-opacity="1" stroke-width="2.32874" d="M -23.710618 -32.944922 L 23.712502 -32.944922 " transform="matrix(0.98943, 0, 0, -0.98943, 221.518599, 38.668918)"/><path fill="none" stroke="rgb(100%, 100%, 100%)" stroke-linecap="butt" stroke-linejoin="miter" stroke-miterlimit="10" stroke-opacity="1" stroke-width="1.53175" d="M -23.710618 -32.944922 L 23.712502 -32.944922 " transform="matrix(0.98943, 0, 0, -0.98943, 221.518599, 38.668918)"/><path fill="none" stroke="rgb(0%, 0%, 0%)" stroke-linecap="butt" stroke-linejoin="miter" stroke-miterlimit="10" stroke-opacity="1" stroke-width="2.32874" d="M 0.000942158 21.454275 L 0.000942158 -21.097038 " transform="matrix(0.98943, 0, 0, -0.98943, 221.518599, 38.668918)"/><path fill="none" stroke="rgb(100%, 100%, 100%)" stroke-linecap="butt" stroke-linejoin="miter" stroke-miterlimit="10" stroke-opacity="1" stroke-width="1.53175" d="M 0.000942158 21.454275 L 0.000942158 -21.097038 " transform="matrix(0.98943, 0, 0, -0.98943, 221.518599, 38.668918)"/><path fill="none" stroke="rgb(0%, 0%, 0%)" stroke-linecap="round" stroke-linejoin="round" stroke-miterlimit="10" stroke-opacity="1" stroke-width="0.39848" d="M -1.293009 2.559232 C -0.66528 1.205076 1.024455 0.0483179 1.987762 0.000942158 C 1.024455 -0.0464336 -0.66528 -1.207139 -1.293009 -2.557348 " transform="matrix(0, 0.98943, 0.98943, 0, 221.518599, 59.541061)"/><g fill="rgb(0%, 0%, 0%)" fill-opacity="1"><use xlink:href="#7139109524e54c37406fdb7b0e9aa90anocz5zh3__glyph-1-3" x="215.914465" y="41.058392"/></g></svg>