<?xml version="1.0" encoding="UTF-8"?><svg xmlns="http://www.w3.org/2000/svg" xmlns:xlink="http://www.w3.org/1999/xlink" width="343.711" height="65.414" viewBox="0 0 343.711 65.414"><defs><g><g id="ee6f8f0231968dc4ad10022d1afe3a962dcjt4zz__glyph-0-0"><path d="M 1.4375 -1.875 C 1.4375 -2.09375 1.265625 -2.265625 1.046875 -2.265625 C 0.828125 -2.265625 0.640625 -2.09375 0.640625 -1.875 C 0.640625 -1.65625 0.828125 -1.484375 1.046875 -1.484375 C 1.265625 -1.484375 1.4375 -1.65625 1.4375 -1.875 Z M 1.4375 -1.875 "/></g><g id="ee6f8f0231968dc4ad10022d1afe3a962dcjt4zz__glyph-1-0"><path d="M 5.71875 -4.546875 C 5.796875 -4.8125 5.8125 -4.890625 6.359375 -4.890625 C 6.546875 -4.890625 6.609375 -4.890625 6.609375 -5.046875 C 6.609375 -5.125 6.53125 -5.125 6.5 -5.125 C 6.296875 -5.125 5.75 -5.09375 5.546875 -5.09375 C 5.328125 -5.09375 4.796875 -5.125 4.578125 -5.125 C 4.515625 -5.125 4.4375 -5.125 4.4375 -4.96875 C 4.4375 -4.890625 4.5 -4.890625 4.640625 -4.890625 C 4.65625 -4.890625 4.796875 -4.890625 4.921875 -4.875 C 5.0625 -4.859375 5.125 -4.859375 5.125 -4.75 C 5.125 -4.71875 5.125 -4.703125 5.09375 -4.609375 L 4.65625 -2.78125 L 2.359375 -2.78125 L 2.8125 -4.546875 C 2.875 -4.8125 2.890625 -4.890625 3.4375 -4.890625 C 3.625 -4.890625 3.6875 -4.890625 3.6875 -5.046875 C 3.6875 -5.125 3.609375 -5.125 3.578125 -5.125 C 3.375 -5.125 2.828125 -5.09375 2.625 -5.09375 C 2.40625 -5.09375 1.875 -5.125 1.65625 -5.125 C 1.59375 -5.125 1.515625 -5.125 1.515625 -4.96875 C 1.515625 -4.890625 1.578125 -4.890625 1.71875 -4.890625 C 1.734375 -4.890625 1.875 -4.890625 2.015625 -4.875 C 2.140625 -4.859375 2.21875 -4.859375 2.21875 -4.75 C 2.21875 -4.71875 2.203125 -4.703125 2.1875 -4.609375 L 1.171875 -0.578125 C 1.109375 -0.296875 1.09375 -0.234375 0.5 -0.234375 C 0.359375 -0.234375 0.296875 -0.234375 0.296875 -0.078125 C 0.296875 0 0.375 0 0.390625 0 C 0.609375 0 1.140625 -0.015625 1.34375 -0.015625 C 1.5 -0.015625 1.671875 -0.015625 1.828125 -0.015625 C 2 -0.015625 2.15625 0 2.3125 0 C 2.375 0 2.46875 0 2.46875 -0.15625 C 2.46875 -0.234375 2.40625 -0.234375 2.25 -0.234375 C 1.984375 -0.234375 1.765625 -0.234375 1.765625 -0.375 C 1.765625 -0.40625 1.78125 -0.453125 1.796875 -0.5 L 2.296875 -2.546875 L 4.59375 -2.546875 C 4.28125 -1.3125 4.109375 -0.59375 4.078125 -0.484375 C 4 -0.234375 3.859375 -0.234375 3.390625 -0.234375 C 3.28125 -0.234375 3.203125 -0.234375 3.203125 -0.078125 C 3.203125 0 3.296875 0 3.3125 0 C 3.53125 0 4.0625 -0.015625 4.265625 -0.015625 C 4.421875 -0.015625 4.59375 -0.015625 4.75 -0.015625 C 4.90625 -0.015625 5.078125 0 5.234375 0 C 5.296875 0 5.390625 0 5.390625 -0.15625 C 5.390625 -0.234375 5.3125 -0.234375 5.171875 -0.234375 C 4.890625 -0.234375 4.6875 -0.234375 4.6875 -0.375 C 4.6875 -0.40625 4.703125 -0.453125 4.703125 -0.5 Z M 5.71875 -4.546875 "/></g><g id="ee6f8f0231968dc4ad10022d1afe3a962dcjt4zz__glyph-1-1"><path d="M 2.8125 -4.609375 C 2.859375 -4.78125 2.875 -4.859375 3.015625 -4.875 C 3.09375 -4.890625 3.328125 -4.890625 3.484375 -4.890625 C 4.015625 -4.890625 4.84375 -4.890625 4.84375 -4.140625 C 4.84375 -3.890625 4.71875 -3.375 4.4375 -3.078125 C 4.234375 -2.890625 3.84375 -2.640625 3.171875 -2.640625 L 2.328125 -2.640625 Z M 3.890625 -2.546875 C 4.65625 -2.71875 5.546875 -3.234375 5.546875 -4 C 5.546875 -4.640625 4.875 -5.125 3.890625 -5.125 L 1.75 -5.125 C 1.59375 -5.125 1.53125 -5.125 1.53125 -4.96875 C 1.53125 -4.890625 1.59375 -4.890625 1.734375 -4.890625 C 1.75 -4.890625 1.890625 -4.890625 2.03125 -4.875 C 2.15625 -4.859375 2.234375 -4.859375 2.234375 -4.75 C 2.234375 -4.71875 2.21875 -4.703125 2.203125 -4.609375 L 1.1875 -0.578125 C 1.125 -0.296875 1.109375 -0.234375 0.515625 -0.234375 C 0.375 -0.234375 0.3125 -0.234375 0.3125 -0.078125 C 0.3125 0 0.390625 0 0.40625 0 C 0.625 0 1.140625 -0.015625 1.359375 -0.015625 C 1.5625 -0.015625 2.09375 0 2.3125 0 C 2.375 0 2.453125 0 2.453125 -0.15625 C 2.453125 -0.234375 2.390625 -0.234375 2.25 -0.234375 C 1.96875 -0.234375 1.765625 -0.234375 1.765625 -0.375 C 1.765625 -0.40625 1.78125 -0.453125 1.78125 -0.5 L 2.28125 -2.484375 L 3.171875 -2.484375 C 3.859375 -2.484375 3.984375 -2.0625 3.984375 -1.796875 C 3.984375 -1.6875 3.9375 -1.453125 3.890625 -1.28125 C 3.828125 -1.078125 3.765625 -0.796875 3.765625 -0.640625 C 3.765625 0.171875 4.671875 0.171875 4.765625 0.171875 C 5.40625 0.171875 5.65625 -0.59375 5.65625 -0.703125 C 5.65625 -0.78125 5.578125 -0.78125 5.578125 -0.78125 C 5.5 -0.78125 5.484375 -0.734375 5.46875 -0.6875 C 5.28125 -0.125 4.96875 0 4.796875 0 C 4.546875 0 4.5 -0.171875 4.5 -0.453125 C 4.5 -0.6875 4.53125 -1.078125 4.5625 -1.3125 C 4.578125 -1.421875 4.59375 -1.5625 4.59375 -1.671875 C 4.59375 -2.25 4.09375 -2.46875 3.890625 -2.546875 Z M 3.890625 -2.546875 "/></g><g id="ee6f8f0231968dc4ad10022d1afe3a962dcjt4zz__glyph-1-2"><path d="M 5.3125 -1.75 C 5.328125 -1.78125 5.34375 -1.84375 5.34375 -1.859375 C 5.34375 -1.859375 5.34375 -1.9375 5.25 -1.9375 C 5.1875 -1.9375 5.171875 -1.890625 5.15625 -1.84375 C 4.671875 -0.734375 4.390625 -0.234375 3.109375 -0.234375 L 2.015625 -0.234375 C 1.90625 -0.234375 1.890625 -0.234375 1.859375 -0.234375 C 1.78125 -0.25 1.75 -0.25 1.75 -0.3125 C 1.75 -0.34375 1.75 -0.359375 1.796875 -0.484375 L 2.296875 -2.53125 L 3.046875 -2.53125 C 3.6875 -2.53125 3.6875 -2.375 3.6875 -2.1875 C 3.6875 -2.140625 3.6875 -2.046875 3.625 -1.828125 C 3.609375 -1.78125 3.609375 -1.765625 3.609375 -1.734375 C 3.609375 -1.703125 3.640625 -1.65625 3.703125 -1.65625 C 3.765625 -1.65625 3.78125 -1.6875 3.8125 -1.8125 L 4.25 -3.5625 C 4.25 -3.609375 4.203125 -3.640625 4.15625 -3.640625 C 4.09375 -3.640625 4.078125 -3.59375 4.046875 -3.515625 C 3.890625 -2.9375 3.75 -2.765625 3.0625 -2.765625 L 2.359375 -2.765625 L 2.8125 -4.578125 C 2.875 -4.84375 2.890625 -4.875 3.21875 -4.875 L 4.28125 -4.875 C 5.1875 -4.875 5.421875 -4.65625 5.421875 -4.03125 C 5.421875 -3.859375 5.421875 -3.84375 5.390625 -3.640625 C 5.390625 -3.59375 5.375 -3.546875 5.375 -3.5 C 5.375 -3.46875 5.40625 -3.40625 5.46875 -3.40625 C 5.546875 -3.40625 5.5625 -3.453125 5.578125 -3.59375 L 5.71875 -4.890625 C 5.75 -5.09375 5.703125 -5.09375 5.515625 -5.09375 L 1.734375 -5.09375 C 1.578125 -5.09375 1.5 -5.09375 1.5 -4.953125 C 1.5 -4.875 1.578125 -4.875 1.71875 -4.875 C 2 -4.875 2.203125 -4.875 2.203125 -4.734375 C 2.203125 -4.703125 2.203125 -4.6875 2.171875 -4.546875 L 1.171875 -0.578125 C 1.109375 -0.296875 1.09375 -0.234375 0.5 -0.234375 C 0.375 -0.234375 0.28125 -0.234375 0.28125 -0.09375 C 0.28125 0 0.359375 0 0.5 0 L 4.390625 0 C 4.5625 0 4.5625 0 4.625 -0.125 Z M 5.3125 -1.75 "/></g><g id="ee6f8f0231968dc4ad10022d1afe3a962dcjt4zz__glyph-1-3"><path d="M 1.515625 0 C 1.515625 -0.5 1.328125 -0.796875 1.046875 -0.796875 C 0.796875 -0.796875 0.640625 -0.609375 0.640625 -0.390625 C 0.640625 -0.1875 0.796875 0 1.046875 0 C 1.125 0 1.234375 -0.03125 1.3125 -0.09375 C 1.328125 -0.109375 1.328125 -0.125 1.34375 -0.125 C 1.34375 -0.125 1.359375 -0.109375 1.359375 0 C 1.359375 0.546875 1.09375 1 0.84375 1.25 C 0.765625 1.328125 0.765625 1.34375 0.765625 1.359375 C 0.765625 1.421875 0.796875 1.453125 0.84375 1.453125 C 0.921875 1.453125 1.515625 0.875 1.515625 0 Z M 1.515625 0 "/></g><g id="ee6f8f0231968dc4ad10022d1afe3a962dcjt4zz__glyph-1-4"><path d="M 4.84375 -5.21875 C 4.84375 -5.234375 4.828125 -5.28125 4.75 -5.28125 C 4.71875 -5.28125 4.703125 -5.28125 4.625 -5.171875 L 4.265625 -4.75 C 4.0625 -5.09375 3.671875 -5.28125 3.1875 -5.28125 C 2.234375 -5.28125 1.328125 -4.421875 1.328125 -3.515625 C 1.328125 -2.90625 1.734375 -2.5625 2.109375 -2.453125 L 2.921875 -2.25 C 3.1875 -2.171875 3.609375 -2.0625 3.609375 -1.453125 C 3.609375 -0.765625 3 -0.0625 2.25 -0.0625 C 1.78125 -0.0625 0.9375 -0.234375 0.9375 -1.15625 C 0.9375 -1.34375 0.984375 -1.515625 0.984375 -1.5625 C 1 -1.59375 1 -1.609375 1 -1.625 C 1 -1.6875 0.953125 -1.703125 0.921875 -1.703125 C 0.875 -1.703125 0.859375 -1.6875 0.84375 -1.671875 C 0.8125 -1.640625 0.390625 0.0625 0.390625 0.09375 C 0.390625 0.140625 0.421875 0.171875 0.46875 0.171875 C 0.515625 0.171875 0.515625 0.15625 0.609375 0.046875 L 0.96875 -0.375 C 1.296875 0.0625 1.8125 0.171875 2.25 0.171875 C 3.265625 0.171875 4.140625 -0.828125 4.140625 -1.765625 C 4.140625 -2.28125 3.890625 -2.53125 3.78125 -2.640625 C 3.609375 -2.8125 3.5 -2.84375 2.828125 -3.015625 C 2.65625 -3.0625 2.390625 -3.140625 2.328125 -3.15625 C 2.125 -3.21875 1.875 -3.4375 1.875 -3.828125 C 1.875 -4.4375 2.46875 -5.078125 3.1875 -5.078125 C 3.796875 -5.078125 4.265625 -4.75 4.265625 -3.921875 C 4.265625 -3.671875 4.234375 -3.546875 4.234375 -3.5 C 4.234375 -3.484375 4.234375 -3.421875 4.3125 -3.421875 C 4.390625 -3.421875 4.40625 -3.4375 4.4375 -3.5625 Z M 4.84375 -5.21875 "/></g><g id="ee6f8f0231968dc4ad10022d1afe3a962dcjt4zz__glyph-1-5"><path d="M 1.1875 -0.578125 C 1.125 -0.296875 1.109375 -0.234375 0.515625 -0.234375 C 0.375 -0.234375 0.296875 -0.234375 0.296875 -0.09375 C 0.296875 0 0.375 0 0.515625 0 L 3 0 C 4.546875 0 6.03125 -1.578125 6.03125 -3.21875 C 6.03125 -4.28125 5.390625 -5.125 4.265625 -5.125 L 1.75 -5.125 C 1.609375 -5.125 1.515625 -5.125 1.515625 -4.984375 C 1.515625 -4.890625 1.59375 -4.890625 1.734375 -4.890625 C 1.84375 -4.890625 1.96875 -4.875 2.0625 -4.875 C 2.1875 -4.859375 2.234375 -4.84375 2.234375 -4.75 C 2.234375 -4.71875 2.21875 -4.703125 2.203125 -4.609375 Z M 2.8125 -4.609375 C 2.875 -4.875 2.890625 -4.890625 3.21875 -4.890625 L 4.015625 -4.890625 C 4.75 -4.890625 5.375 -4.5 5.375 -3.5 C 5.375 -3.140625 5.234375 -1.90625 4.59375 -1.078125 C 4.375 -0.796875 3.78125 -0.234375 2.859375 -0.234375 L 2.015625 -0.234375 C 1.90625 -0.234375 1.890625 -0.234375 1.84375 -0.234375 C 1.765625 -0.25 1.75 -0.25 1.75 -0.3125 C 1.75 -0.34375 1.75 -0.359375 1.78125 -0.484375 Z M 2.8125 -4.609375 "/></g><g id="ee6f8f0231968dc4ad10022d1afe3a962dcjt4zz__glyph-2-0"><path d="M 1.703125 -1.3125 C 2.125 -1.5 2.328125 -1.5625 2.453125 -1.625 C 2.546875 -1.671875 2.59375 -1.703125 2.59375 -1.796875 C 2.59375 -1.890625 2.53125 -1.96875 2.4375 -1.96875 C 2.40625 -1.96875 2.390625 -1.96875 2.328125 -1.921875 L 1.609375 -1.4375 L 1.6875 -2.21875 C 1.703125 -2.3125 1.6875 -2.4375 1.53125 -2.4375 C 1.46875 -2.4375 1.375 -2.40625 1.375 -2.28125 C 1.375 -2.234375 1.390625 -2.078125 1.390625 -2.03125 C 1.40625 -1.9375 1.4375 -1.5625 1.453125 -1.4375 L 0.75 -1.921875 C 0.6875 -1.953125 0.671875 -1.96875 0.625 -1.96875 C 0.53125 -1.96875 0.46875 -1.890625 0.46875 -1.796875 C 0.46875 -1.6875 0.53125 -1.671875 0.578125 -1.640625 L 1.375 -1.3125 C 0.9375 -1.125 0.75 -1.046875 0.609375 -0.984375 C 0.515625 -0.9375 0.46875 -0.921875 0.46875 -0.828125 C 0.46875 -0.734375 0.53125 -0.65625 0.625 -0.65625 C 0.671875 -0.65625 0.671875 -0.65625 0.734375 -0.703125 L 1.453125 -1.1875 L 1.375 -0.34375 C 1.375 -0.21875 1.46875 -0.171875 1.53125 -0.171875 C 1.59375 -0.171875 1.703125 -0.21875 1.703125 -0.34375 C 1.703125 -0.390625 1.671875 -0.546875 1.671875 -0.59375 C 1.65625 -0.6875 1.625 -1.0625 1.609375 -1.1875 L 2.234375 -0.765625 C 2.375 -0.65625 2.390625 -0.65625 2.4375 -0.65625 C 2.53125 -0.65625 2.59375 -0.734375 2.59375 -0.828125 C 2.59375 -0.921875 2.53125 -0.953125 2.484375 -0.96875 Z M 1.703125 -1.3125 "/></g><g id="ee6f8f0231968dc4ad10022d1afe3a962dcjt4zz__glyph-3-0"><path d="M 2.484375 1.796875 C 2.484375 1.78125 2.484375 1.765625 2.359375 1.640625 C 1.421875 0.6875 1.171875 -0.734375 1.171875 -1.875 C 1.171875 -3.1875 1.46875 -4.484375 2.390625 -5.421875 C 2.484375 -5.515625 2.484375 -5.53125 2.484375 -5.546875 C 2.484375 -5.609375 2.453125 -5.625 2.40625 -5.625 C 2.328125 -5.625 1.65625 -5.109375 1.21875 -4.15625 C 0.828125 -3.34375 0.75 -2.5 0.75 -1.875 C 0.75 -1.296875 0.828125 -0.375 1.234375 0.46875 C 1.6875 1.390625 2.328125 1.875 2.40625 1.875 C 2.453125 1.875 2.484375 1.859375 2.484375 1.796875 Z M 2.484375 1.796875 "/></g><g id="ee6f8f0231968dc4ad10022d1afe3a962dcjt4zz__glyph-3-1"><path d="M 2.171875 -1.875 C 2.171875 -2.453125 2.078125 -3.375 1.671875 -4.21875 C 1.21875 -5.140625 0.578125 -5.625 0.5 -5.625 C 0.453125 -5.625 0.421875 -5.59375 0.421875 -5.546875 C 0.421875 -5.53125 0.421875 -5.515625 0.5625 -5.375 C 1.3125 -4.640625 1.734375 -3.4375 1.734375 -1.875 C 1.734375 -0.59375 1.453125 0.734375 0.53125 1.671875 C 0.421875 1.765625 0.421875 1.78125 0.421875 1.796875 C 0.421875 1.84375 0.453125 1.875 0.5 1.875 C 0.578125 1.875 1.25 1.359375 1.6875 0.40625 C 2.078125 -0.40625 2.171875 -1.25 2.171875 -1.875 Z M 2.171875 -1.875 "/></g><g id="ee6f8f0231968dc4ad10022d1afe3a962dcjt4zz__glyph-4-0"><path d="M 2.703125 -1.671875 C 2.703125 -2.25 2.640625 -2.671875 2.40625 -3.03125 C 2.234375 -3.28125 1.90625 -3.484375 1.484375 -3.484375 C 0.265625 -3.484375 0.265625 -2.046875 0.265625 -1.671875 C 0.265625 -1.296875 0.265625 0.109375 1.484375 0.109375 C 2.703125 0.109375 2.703125 -1.296875 2.703125 -1.671875 Z M 1.484375 -0.046875 C 1.25 -0.046875 0.921875 -0.1875 0.828125 -0.609375 C 0.75 -0.921875 0.75 -1.359375 0.75 -1.75 C 0.75 -2.125 0.75 -2.53125 0.828125 -2.8125 C 0.9375 -3.234375 1.28125 -3.34375 1.484375 -3.34375 C 1.78125 -3.34375 2.046875 -3.171875 2.140625 -2.859375 C 2.21875 -2.578125 2.234375 -2.203125 2.234375 -1.75 C 2.234375 -1.359375 2.234375 -0.96875 2.15625 -0.640625 C 2.0625 -0.15625 1.703125 -0.046875 1.484375 -0.046875 Z M 1.484375 -0.046875 "/></g><g id="ee6f8f0231968dc4ad10022d1afe3a962dcjt4zz__glyph-4-1"><path d="M 2.4375 -1.1875 L 4.03125 -1.1875 C 4.109375 -1.1875 4.234375 -1.1875 4.234375 -1.3125 C 4.234375 -1.4375 4.109375 -1.4375 4.03125 -1.4375 L 2.4375 -1.4375 L 2.4375 -3.0625 C 2.4375 -3.125 2.4375 -3.25 2.3125 -3.25 C 2.171875 -3.25 2.171875 -3.125 2.171875 -3.0625 L 2.171875 -1.4375 L 0.5625 -1.4375 C 0.5 -1.4375 0.375 -1.4375 0.375 -1.3125 C 0.375 -1.1875 0.484375 -1.1875 0.5625 -1.1875 L 2.171875 -1.1875 L 2.171875 0.421875 C 2.171875 0.5 2.171875 0.625 2.296875 0.625 C 2.4375 0.625 2.4375 0.5 2.4375 0.421875 Z M 2.4375 -1.1875 "/></g><g id="ee6f8f0231968dc4ad10022d1afe3a962dcjt4zz__glyph-4-2"><path d="M 1.765625 -3.34375 C 1.765625 -3.484375 1.75 -3.484375 1.59375 -3.484375 C 1.265625 -3.15625 0.78125 -3.15625 0.578125 -3.15625 L 0.578125 -2.96875 C 0.703125 -2.96875 1.046875 -2.96875 1.328125 -3.109375 L 1.328125 -0.4375 C 1.328125 -0.25 1.328125 -0.1875 0.8125 -0.1875 L 0.609375 -0.1875 L 0.609375 0 C 0.703125 0 1.34375 -0.015625 1.546875 -0.015625 C 1.703125 -0.015625 2.375 0 2.484375 0 L 2.484375 -0.1875 L 2.28125 -0.1875 C 1.765625 -0.1875 1.765625 -0.25 1.765625 -0.4375 Z M 1.765625 -3.34375 "/></g></g></defs><g fill="rgb(0%, 0%, 0%)" fill-opacity="1"><use xlink:href="#ee6f8f0231968dc4ad10022d1afe3a962dcjt4zz__glyph-0-0" x="4.613392" y="19.716929"/></g><g fill="rgb(0%, 0%, 0%)" fill-opacity="1"><use xlink:href="#ee6f8f0231968dc4ad10022d1afe3a962dcjt4zz__glyph-0-0" x="7.951371" y="19.716929"/></g><g fill="rgb(0%, 0%, 0%)" fill-opacity="1"><use xlink:href="#ee6f8f0231968dc4ad10022d1afe3a962dcjt4zz__glyph-0-0" x="11.281845" y="19.716929"/></g><g fill="rgb(0%, 0%, 0%)" fill-opacity="1"><use xlink:href="#ee6f8f0231968dc4ad10022d1afe3a962dcjt4zz__glyph-1-0" x="59.82072" y="19.716929"/></g><g fill="rgb(0%, 0%, 0%)" fill-opacity="1"><use xlink:href="#ee6f8f0231968dc4ad10022d1afe3a962dcjt4zz__glyph-1-1" x="66.667028" y="19.716929"/></g><g fill="rgb(0%, 0%, 0%)" fill-opacity="1"><use xlink:href="#ee6f8f0231968dc4ad10022d1afe3a962dcjt4zz__glyph-2-0" x="72.425054" y="16.993886"/></g><g fill="rgb(0%, 0%, 0%)" fill-opacity="1"><use xlink:href="#ee6f8f0231968dc4ad10022d1afe3a962dcjt4zz__glyph-3-0" x="75.874994" y="19.716929"/></g><g fill="rgb(0%, 0%, 0%)" fill-opacity="1"><use xlink:href="#ee6f8f0231968dc4ad10022d1afe3a962dcjt4zz__glyph-1-2" x="78.793474" y="19.716929"/></g><g fill="rgb(0%, 0%, 0%)" fill-opacity="1"><use xlink:href="#ee6f8f0231968dc4ad10022d1afe3a962dcjt4zz__glyph-4-0" x="84.333373" y="20.842302"/></g><g fill="rgb(0%, 0%, 0%)" fill-opacity="1"><use xlink:href="#ee6f8f0231968dc4ad10022d1afe3a962dcjt4zz__glyph-3-1" x="87.699701" y="19.716929"/></g><g fill="rgb(0%, 0%, 0%)" fill-opacity="1"><use xlink:href="#ee6f8f0231968dc4ad10022d1afe3a962dcjt4zz__glyph-1-0" x="143.199294" y="19.716929"/></g><g fill="rgb(0%, 0%, 0%)" fill-opacity="1"><use xlink:href="#ee6f8f0231968dc4ad10022d1afe3a962dcjt4zz__glyph-1-1" x="150.045603" y="19.716929"/></g><g fill="rgb(0%, 0%, 0%)" fill-opacity="1"><use xlink:href="#ee6f8f0231968dc4ad10022d1afe3a962dcjt4zz__glyph-2-0" x="155.802875" y="16.993886"/></g><g fill="rgb(0%, 0%, 0%)" fill-opacity="1"><use xlink:href="#ee6f8f0231968dc4ad10022d1afe3a962dcjt4zz__glyph-3-0" x="159.253568" y="19.716929"/></g><g fill="rgb(0%, 0%, 0%)" fill-opacity="1"><use xlink:href="#ee6f8f0231968dc4ad10022d1afe3a962dcjt4zz__glyph-1-2" x="162.172048" y="19.716929"/></g><g fill="rgb(0%, 0%, 0%)" fill-opacity="1"><use xlink:href="#ee6f8f0231968dc4ad10022d1afe3a962dcjt4zz__glyph-3-1" x="168.14709" y="19.716929"/></g><g fill="rgb(0%, 0%, 0%)" fill-opacity="1"><use xlink:href="#ee6f8f0231968dc4ad10022d1afe3a962dcjt4zz__glyph-1-0" x="229.773206" y="19.716929"/></g><g fill="rgb(0%, 0%, 0%)" fill-opacity="1"><use xlink:href="#ee6f8f0231968dc4ad10022d1afe3a962dcjt4zz__glyph-1-1" x="236.619514" y="19.716929"/></g><g fill="rgb(0%, 0%, 0%)" fill-opacity="1"><use xlink:href="#ee6f8f0231968dc4ad10022d1afe3a962dcjt4zz__glyph-2-0" x="242.376787" y="16.993886"/></g><g fill="rgb(0%, 0%, 0%)" fill-opacity="1"><use xlink:href="#ee6f8f0231968dc4ad10022d1afe3a962dcjt4zz__glyph-4-1" x="245.451425" y="16.993886"/><use xlink:href="#ee6f8f0231968dc4ad10022d1afe3a962dcjt4zz__glyph-4-2" x="250.058393" y="16.993886"/></g><g fill="rgb(0%, 0%, 0%)" fill-opacity="1"><use xlink:href="#ee6f8f0231968dc4ad10022d1afe3a962dcjt4zz__glyph-3-0" x="253.424881" y="19.716929"/></g><g fill="rgb(0%, 0%, 0%)" fill-opacity="1"><use xlink:href="#ee6f8f0231968dc4ad10022d1afe3a962dcjt4zz__glyph-1-2" x="256.343361" y="19.716929"/></g><g fill="rgb(0%, 0%, 0%)" fill-opacity="1"><use xlink:href="#ee6f8f0231968dc4ad10022d1afe3a962dcjt4zz__glyph-1-3" x="262.318403" y="19.716929"/></g><g fill="rgb(0%, 0%, 0%)" fill-opacity="1"><use xlink:href="#ee6f8f0231968dc4ad10022d1afe3a962dcjt4zz__glyph-1-2" x="265.648877" y="19.716929"/></g><g fill="rgb(0%, 0%, 0%)" fill-opacity="1"><use xlink:href="#ee6f8f0231968dc4ad10022d1afe3a962dcjt4zz__glyph-4-0" x="271.190566" y="20.842302"/></g><g fill="rgb(0%, 0%, 0%)" fill-opacity="1"><use xlink:href="#ee6f8f0231968dc4ad10022d1afe3a962dcjt4zz__glyph-3-1" x="274.557647" y="19.716929"/></g><g fill="rgb(0%, 0%, 0%)" fill-opacity="1"><use xlink:href="#ee6f8f0231968dc4ad10022d1afe3a962dcjt4zz__glyph-0-0" x="330.05724" y="19.716929"/></g><g fill="rgb(0%, 0%, 0%)" fill-opacity="1"><use xlink:href="#ee6f8f0231968dc4ad10022d1afe3a962dcjt4zz__glyph-0-0" x="333.395219" y="19.716929"/></g><g fill="rgb(0%, 0%, 0%)" fill-opacity="1"><use xlink:href="#ee6f8f0231968dc4ad10022d1afe3a962dcjt4zz__glyph-0-0" x="336.725693" y="19.716929"/></g><g fill="rgb(0%, 0%, 0%)" fill-opacity="1"><use xlink:href="#ee6f8f0231968dc4ad10022d1afe3a962dcjt4zz__glyph-0-0" x="4.613392" y="60.210789"/></g><g fill="rgb(0%, 0%, 0%)" fill-opacity="1"><use xlink:href="#ee6f8f0231968dc4ad10022d1afe3a962dcjt4zz__glyph-0-0" x="7.951371" y="60.210789"/></g><g fill="rgb(0%, 0%, 0%)" fill-opacity="1"><use xlink:href="#ee6f8f0231968dc4ad10022d1afe3a962dcjt4zz__glyph-0-0" x="11.281845" y="60.210789"/></g><g fill="rgb(0%, 0%, 0%)" fill-opacity="1"><use xlink:href="#ee6f8f0231968dc4ad10022d1afe3a962dcjt4zz__glyph-1-0" x="55.852536" y="60.210789"/></g><g fill="rgb(0%, 0%, 0%)" fill-opacity="1"><use xlink:href="#ee6f8f0231968dc4ad10022d1afe3a962dcjt4zz__glyph-1-1" x="62.698844" y="60.210789"/></g><g fill="rgb(0%, 0%, 0%)" fill-opacity="1"><use xlink:href="#ee6f8f0231968dc4ad10022d1afe3a962dcjt4zz__glyph-2-0" x="68.456116" y="57.487747"/></g><g fill="rgb(0%, 0%, 0%)" fill-opacity="1"><use xlink:href="#ee6f8f0231968dc4ad10022d1afe3a962dcjt4zz__glyph-3-0" x="71.906056" y="60.210789"/></g><g fill="rgb(0%, 0%, 0%)" fill-opacity="1"><use xlink:href="#ee6f8f0231968dc4ad10022d1afe3a962dcjt4zz__glyph-1-4" x="74.824536" y="60.210789"/></g><g fill="rgb(0%, 0%, 0%)" fill-opacity="1"><use xlink:href="#ee6f8f0231968dc4ad10022d1afe3a962dcjt4zz__glyph-3-0" x="79.861522" y="60.210789"/></g><g fill="rgb(0%, 0%, 0%)" fill-opacity="1"><use xlink:href="#ee6f8f0231968dc4ad10022d1afe3a962dcjt4zz__glyph-1-2" x="82.780002" y="60.210789"/></g><g fill="rgb(0%, 0%, 0%)" fill-opacity="1"><use xlink:href="#ee6f8f0231968dc4ad10022d1afe3a962dcjt4zz__glyph-3-1" x="88.747539" y="60.210789"/><use xlink:href="#ee6f8f0231968dc4ad10022d1afe3a962dcjt4zz__glyph-3-1" x="91.666019" y="60.210789"/></g><g fill="rgb(0%, 0%, 0%)" fill-opacity="1"><use xlink:href="#ee6f8f0231968dc4ad10022d1afe3a962dcjt4zz__glyph-1-0" x="137.070001" y="60.210789"/></g><g fill="rgb(0%, 0%, 0%)" fill-opacity="1"><use xlink:href="#ee6f8f0231968dc4ad10022d1afe3a962dcjt4zz__glyph-1-1" x="143.916309" y="60.210789"/></g><g fill="rgb(0%, 0%, 0%)" fill-opacity="1"><use xlink:href="#ee6f8f0231968dc4ad10022d1afe3a962dcjt4zz__glyph-2-0" x="149.674335" y="57.487747"/></g><g fill="rgb(0%, 0%, 0%)" fill-opacity="1"><use xlink:href="#ee6f8f0231968dc4ad10022d1afe3a962dcjt4zz__glyph-3-0" x="153.124275" y="60.210789"/></g><g fill="rgb(0%, 0%, 0%)" fill-opacity="1"><use xlink:href="#ee6f8f0231968dc4ad10022d1afe3a962dcjt4zz__glyph-1-5" x="156.042755" y="60.210789"/></g><g fill="rgb(0%, 0%, 0%)" fill-opacity="1"><use xlink:href="#ee6f8f0231968dc4ad10022d1afe3a962dcjt4zz__glyph-3-0" x="162.465812" y="60.210789"/></g><g fill="rgb(0%, 0%, 0%)" fill-opacity="1"><use xlink:href="#ee6f8f0231968dc4ad10022d1afe3a962dcjt4zz__glyph-1-2" x="165.384292" y="60.210789"/></g><g fill="rgb(0%, 0%, 0%)" fill-opacity="1"><use xlink:href="#ee6f8f0231968dc4ad10022d1afe3a962dcjt4zz__glyph-3-1" x="171.351829" y="60.210789"/><use xlink:href="#ee6f8f0231968dc4ad10022d1afe3a962dcjt4zz__glyph-3-1" x="174.270309" y="60.210789"/></g><g fill="rgb(0%, 0%, 0%)" fill-opacity="1"><use xlink:href="#ee6f8f0231968dc4ad10022d1afe3a962dcjt4zz__glyph-1-0" x="219.674975" y="60.210789"/></g><g fill="rgb(0%, 0%, 0%)" fill-opacity="1"><use xlink:href="#ee6f8f0231968dc4ad10022d1afe3a962dcjt4zz__glyph-1-1" x="226.521284" y="60.210789"/></g><g fill="rgb(0%, 0%, 0%)" fill-opacity="1"><use xlink:href="#ee6f8f0231968dc4ad10022d1afe3a962dcjt4zz__glyph-2-0" x="232.279309" y="57.487747"/></g><g fill="rgb(0%, 0%, 0%)" fill-opacity="1"><use xlink:href="#ee6f8f0231968dc4ad10022d1afe3a962dcjt4zz__glyph-4-1" x="235.353948" y="57.487747"/><use xlink:href="#ee6f8f0231968dc4ad10022d1afe3a962dcjt4zz__glyph-4-2" x="239.960915" y="57.487747"/></g><g fill="rgb(0%, 0%, 0%)" fill-opacity="1"><use xlink:href="#ee6f8f0231968dc4ad10022d1afe3a962dcjt4zz__glyph-3-0" x="243.327403" y="60.210789"/></g><g fill="rgb(0%, 0%, 0%)" fill-opacity="1"><use xlink:href="#ee6f8f0231968dc4ad10022d1afe3a962dcjt4zz__glyph-1-5" x="246.245883" y="60.210789"/></g><g fill="rgb(0%, 0%, 0%)" fill-opacity="1"><use xlink:href="#ee6f8f0231968dc4ad10022d1afe3a962dcjt4zz__glyph-3-0" x="252.668941" y="60.210789"/></g><g fill="rgb(0%, 0%, 0%)" fill-opacity="1"><use xlink:href="#ee6f8f0231968dc4ad10022d1afe3a962dcjt4zz__glyph-1-2" x="255.587421" y="60.210789"/></g><g fill="rgb(0%, 0%, 0%)" fill-opacity="1"><use xlink:href="#ee6f8f0231968dc4ad10022d1afe3a962dcjt4zz__glyph-3-1" x="261.554958" y="60.210789"/></g><g fill="rgb(0%, 0%, 0%)" fill-opacity="1"><use xlink:href="#ee6f8f0231968dc4ad10022d1afe3a962dcjt4zz__glyph-1-3" x="264.473438" y="60.210789"/></g><g fill="rgb(0%, 0%, 0%)" fill-opacity="1"><use xlink:href="#ee6f8f0231968dc4ad10022d1afe3a962dcjt4zz__glyph-1-4" x="267.811416" y="60.210789"/></g><g fill="rgb(0%, 0%, 0%)" fill-opacity="1"><use xlink:href="#ee6f8f0231968dc4ad10022d1afe3a962dcjt4zz__glyph-3-0" x="272.848402" y="60.210789"/></g><g fill="rgb(0%, 0%, 0%)" fill-opacity="1"><use xlink:href="#ee6f8f0231968dc4ad10022d1afe3a962dcjt4zz__glyph-1-2" x="275.766882" y="60.210789"/></g><g fill="rgb(0%, 0%, 0%)" fill-opacity="1"><use xlink:href="#ee6f8f0231968dc4ad10022d1afe3a962dcjt4zz__glyph-3-1" x="281.734419" y="60.210789"/><use xlink:href="#ee6f8f0231968dc4ad10022d1afe3a962dcjt4zz__glyph-3-1" x="284.652899" y="60.210789"/></g><g fill="rgb(0%, 0%, 0%)" fill-opacity="1"><use xlink:href="#ee6f8f0231968dc4ad10022d1afe3a962dcjt4zz__glyph-0-0" x="330.05724" y="60.210789"/></g><g fill="rgb(0%, 0%, 0%)" fill-opacity="1"><use xlink:href="#ee6f8f0231968dc4ad10022d1afe3a962dcjt4zz__glyph-0-0" x="333.395219" y="60.210789"/></g><g fill="rgb(0%, 0%, 0%)" fill-opacity="1"><use xlink:href="#ee6f8f0231968dc4ad10022d1afe3a962dcjt4zz__glyph-0-0" x="336.725693" y="60.210789"/></g><path fill="none" stroke="rgb(0%, 0%, 0%)" stroke-linecap="butt" stroke-linejoin="miter" stroke-miterlimit="10" stroke-opacity="1" stroke-width="0.39848" d="M -205.722934 26.561941 L -153.43473 26.561941 " transform="matrix(0.753262, 0, 0, -0.753262, 171.713275, 37.847946)"/><path fill="none" stroke="rgb(0%, 0%, 0%)" stroke-linecap="round" stroke-linejoin="round" stroke-miterlimit="10" stroke-opacity="1" stroke-width="0.39848" d="M -2.073656 2.392065 C -1.695094 0.955605 -0.849812 0.281453 0.000655331 0.00142142 C -0.849812 -0.278611 -1.695094 -0.957948 -2.073656 -2.389222 " transform="matrix(0.753262, 0, 0, -0.753262, 56.288569, 17.840914)"/><path fill="none" stroke="rgb(0%, 0%, 0%)" stroke-linecap="butt" stroke-linejoin="miter" stroke-miterlimit="10" stroke-opacity="1" stroke-width="0.39848" d="M -103.16898 26.561941 L -42.739104 26.561941 " transform="matrix(0.753262, 0, 0, -0.753262, 171.713275, 37.847946)"/><path fill="none" stroke="rgb(0%, 0%, 0%)" stroke-linecap="round" stroke-linejoin="round" stroke-miterlimit="10" stroke-opacity="1" stroke-width="0.39848" d="M -2.074355 2.392065 C -1.695794 0.955605 -0.850512 0.281453 -0.0000440772 0.00142142 C -0.850512 -0.278611 -1.695794 -0.957948 -2.074355 -2.389222 " transform="matrix(0.753262, 0, 0, -0.753262, 139.668002, 17.840914)"/><path fill="none" stroke="rgb(0%, 0%, 0%)" stroke-linecap="butt" stroke-linejoin="miter" stroke-miterlimit="10" stroke-opacity="1" stroke-width="0.39848" d="M -128.102202 17.735747 L -128.102202 -17.973524 " transform="matrix(0.753262, 0, 0, -0.753262, 171.713275, 37.847946)"/><path fill="none" stroke="rgb(0%, 0%, 0%)" stroke-linecap="round" stroke-linejoin="round" stroke-miterlimit="10" stroke-opacity="1" stroke-width="0.39848" d="M -2.070702 2.390871 C -1.69214 0.954411 -0.852044 0.28026 -0.00157668 0.000227604 C -0.852044 -0.279804 -1.69214 -0.953956 -2.070702 -2.390416 " transform="matrix(0, 0.753262, 0.753262, 0, 75.218579, 51.536344)"/><path fill="none" stroke="rgb(0%, 0%, 0%)" stroke-linecap="butt" stroke-linejoin="miter" stroke-miterlimit="10" stroke-opacity="1" stroke-width="0.39848" d="M 3.626941 26.561941 L 72.193304 26.561941 " transform="matrix(0.753262, 0, 0, -0.753262, 171.713275, 37.847946)"/><path fill="none" stroke="rgb(0%, 0%, 0%)" stroke-linecap="round" stroke-linejoin="round" stroke-miterlimit="10" stroke-opacity="1" stroke-width="0.39848" d="M -2.069612 2.392065 C -1.69105 0.955605 -0.850954 0.281453 -0.00048673 0.00142142 C -0.850954 -0.278611 -1.69105 -0.957948 -2.069612 -2.389222 " transform="matrix(0.753262, 0, 0, -0.753262, 226.242554, 17.840914)"/><path fill="none" stroke="rgb(0%, 0%, 0%)" stroke-linecap="butt" stroke-linejoin="miter" stroke-miterlimit="10" stroke-opacity="1" stroke-width="0.39848" d="M -19.356429 17.735747 L -19.356429 -17.973524 " transform="matrix(0.753262, 0, 0, -0.753262, 171.713275, 37.847946)"/><path fill="none" stroke="rgb(0%, 0%, 0%)" stroke-linecap="round" stroke-linejoin="round" stroke-miterlimit="10" stroke-opacity="1" stroke-width="0.39848" d="M -2.070702 2.393115 C -1.69214 0.956655 -0.852044 0.277318 -0.00157668 0.00247128 C -0.852044 -0.277561 -1.69214 -0.956898 -2.070702 -2.393358 " transform="matrix(0, 0.753262, 0.753262, 0, 157.130951, 51.536344)"/><path fill="none" stroke="rgb(0%, 0%, 0%)" stroke-linecap="butt" stroke-linejoin="miter" stroke-miterlimit="10" stroke-opacity="1" stroke-width="0.39848" d="M 144.897917 26.561941 L 205.327793 26.561941 " transform="matrix(0.753262, 0, 0, -0.753262, 171.713275, 37.847946)"/><path fill="none" stroke="rgb(0%, 0%, 0%)" stroke-linecap="round" stroke-linejoin="round" stroke-miterlimit="10" stroke-opacity="1" stroke-width="0.39848" d="M -2.070153 2.392065 C -1.691591 0.955605 -0.851495 0.281453 -0.00102709 0.00142142 C -0.851495 -0.278611 -1.691591 -0.957948 -2.070153 -2.389222 " transform="matrix(0.753262, 0, 0, -0.753262, 326.528117, 17.840914)"/><path fill="none" stroke="rgb(0%, 0%, 0%)" stroke-linecap="butt" stroke-linejoin="miter" stroke-miterlimit="10" stroke-opacity="1" stroke-width="0.39848" d="M 108.74267 17.735747 L 108.74267 -17.335673 " transform="matrix(0.753262, 0, 0, -0.753262, 171.713275, 37.847946)"/><path fill="none" stroke="rgb(0%, 0%, 0%)" stroke-linecap="round" stroke-linejoin="round" stroke-miterlimit="10" stroke-opacity="1" stroke-width="0.39848" d="M -2.070923 2.389794 C -1.692361 0.958519 -0.852265 0.279182 -0.00179743 -0.000849934 C -0.852265 -0.280882 -1.692361 -0.955033 -2.070923 -2.391494 " transform="matrix(0, 0.753262, 0.753262, 0, 253.62564, 51.056041)"/><path fill="none" stroke="rgb(0%, 0%, 0%)" stroke-linecap="butt" stroke-linejoin="miter" stroke-miterlimit="10" stroke-opacity="1" stroke-width="0.39848" d="M -205.722934 -27.199024 L -158.698295 -27.199024 " transform="matrix(0.753262, 0, 0, -0.753262, 171.713275, 37.847946)"/><path fill="none" stroke="rgb(0%, 0%, 0%)" stroke-linecap="round" stroke-linejoin="round" stroke-miterlimit="10" stroke-opacity="1" stroke-width="0.39848" d="M -2.073917 2.38976 C -1.695355 0.958485 -0.850073 0.279148 0.000394446 -0.000883568 C -0.850073 -0.280916 -1.695355 -0.955067 -2.073917 -2.391527 " transform="matrix(0.753262, 0, 0, -0.753262, 52.320015, 58.335272)"/><path fill="none" stroke="rgb(0%, 0%, 0%)" stroke-linecap="butt" stroke-linejoin="miter" stroke-miterlimit="10" stroke-opacity="1" stroke-width="0.39848" d="M -97.900229 -27.199024 L -50.880776 -27.199024 " transform="matrix(0.753262, 0, 0, -0.753262, 171.713275, 37.847946)"/><path fill="none" stroke="rgb(0%, 0%, 0%)" stroke-linecap="round" stroke-linejoin="round" stroke-miterlimit="10" stroke-opacity="1" stroke-width="0.39848" d="M -2.073852 2.38976 C -1.69529 0.958485 -0.850008 0.279148 0.000459566 -0.000883568 C -0.850008 -0.280916 -1.69529 -0.955067 -2.073852 -2.391527 " transform="matrix(0.753262, 0, 0, -0.753262, 133.538716, 58.335272)"/><path fill="none" stroke="rgb(0%, 0%, 0%)" stroke-linecap="butt" stroke-linejoin="miter" stroke-miterlimit="10" stroke-opacity="1" stroke-width="0.39848" d="M 11.763428 -27.199024 L 58.788066 -27.199024 " transform="matrix(0.753262, 0, 0, -0.753262, 171.713275, 37.847946)"/><path fill="none" stroke="rgb(0%, 0%, 0%)" stroke-linecap="round" stroke-linejoin="round" stroke-miterlimit="10" stroke-opacity="1" stroke-width="0.39848" d="M -2.074585 2.38976 C -1.696024 0.958485 -0.850742 0.279148 -0.000273972 -0.000883568 C -0.850742 -0.280916 -1.696024 -0.955067 -2.074585 -2.391527 " transform="matrix(0.753262, 0, 0, -0.753262, 216.144738, 58.335272)"/><path fill="none" stroke="rgb(0%, 0%, 0%)" stroke-linecap="butt" stroke-linejoin="miter" stroke-miterlimit="10" stroke-opacity="1" stroke-width="0.39848" d="M 158.303155 -27.199024 L 205.327793 -27.199024 " transform="matrix(0.753262, 0, 0, -0.753262, 171.713275, 37.847946)"/><path fill="none" stroke="rgb(0%, 0%, 0%)" stroke-linecap="round" stroke-linejoin="round" stroke-miterlimit="10" stroke-opacity="1" stroke-width="0.39848" d="M -2.070153 2.38976 C -1.691591 0.958485 -0.851495 0.279148 -0.00102709 -0.000883568 C -0.851495 -0.280916 -1.691591 -0.955067 -2.070153 -2.391527 " transform="matrix(0.753262, 0, 0, -0.753262, 326.528117, 58.335272)"/></svg>