<?xml version="1.0" encoding="UTF-8"?><svg xmlns="http://www.w3.org/2000/svg" xmlns:xlink="http://www.w3.org/1999/xlink" width="343.711" height="77.603" viewBox="0 0 343.711 77.603"><defs><g><g id="62aa0c814ec229a77ab76a542c000c050o0jk877__glyph-0-0"><path d="M 9.171875 -6 C 9.265625 -6.359375 9.28125 -6.453125 10.03125 -6.453125 C 10.25 -6.453125 10.34375 -6.453125 10.34375 -6.65625 C 10.34375 -6.765625 10.25 -6.765625 10.078125 -6.765625 L 8.765625 -6.765625 C 8.515625 -6.765625 8.5 -6.765625 8.375 -6.578125 L 4.765625 -0.9375 L 4 -6.53125 C 3.96875 -6.765625 3.9375 -6.765625 3.6875 -6.765625 L 2.328125 -6.765625 C 2.140625 -6.765625 2.03125 -6.765625 2.03125 -6.578125 C 2.03125 -6.453125 2.125 -6.453125 2.3125 -6.453125 C 2.453125 -6.453125 2.625 -6.453125 2.75 -6.4375 C 2.90625 -6.421875 2.96875 -6.390625 2.96875 -6.28125 C 2.96875 -6.234375 2.953125 -6.21875 2.921875 -6.09375 L 1.671875 -1.046875 C 1.5625 -0.65625 1.390625 -0.34375 0.59375 -0.3125 C 0.546875 -0.3125 0.421875 -0.296875 0.421875 -0.125 C 0.421875 -0.03125 0.46875 0 0.5625 0 C 0.875 0 1.21875 -0.03125 1.546875 -0.03125 C 1.875 -0.03125 2.234375 0 2.5625 0 C 2.609375 0 2.75 0 2.75 -0.203125 C 2.75 -0.3125 2.640625 -0.3125 2.5625 -0.3125 C 2 -0.3125 1.890625 -0.515625 1.890625 -0.75 C 1.890625 -0.8125 1.90625 -0.859375 1.9375 -0.96875 L 3.28125 -6.375 L 4.140625 -0.234375 C 4.15625 -0.109375 4.171875 0 4.296875 0 C 4.390625 0 4.453125 -0.109375 4.5 -0.171875 L 8.515625 -6.453125 L 7.109375 -0.765625 C 7 -0.390625 6.984375 -0.3125 6.203125 -0.3125 C 6.03125 -0.3125 5.921875 -0.3125 5.921875 -0.125 C 5.921875 0 6.046875 0 6.078125 0 C 6.34375 0 7.03125 -0.03125 7.296875 -0.03125 C 7.703125 -0.03125 8.140625 0 8.546875 0 C 8.59375 0 8.734375 0 8.734375 -0.203125 C 8.734375 -0.3125 8.640625 -0.3125 8.453125 -0.3125 C 8.078125 -0.3125 7.8125 -0.3125 7.8125 -0.484375 C 7.8125 -0.53125 7.8125 -0.546875 7.859375 -0.71875 Z M 9.171875 -6 "/></g><g id="62aa0c814ec229a77ab76a542c000c050o0jk877__glyph-0-1"><path d="M 6.390625 -6.890625 C 6.390625 -6.921875 6.375 -6.984375 6.28125 -6.984375 C 6.234375 -6.984375 6.21875 -6.96875 6.109375 -6.828125 L 5.625 -6.265625 C 5.375 -6.734375 4.859375 -6.984375 4.203125 -6.984375 C 2.953125 -6.984375 1.765625 -5.84375 1.765625 -4.640625 C 1.765625 -3.84375 2.28125 -3.390625 2.796875 -3.234375 L 3.859375 -2.96875 C 4.21875 -2.875 4.765625 -2.71875 4.765625 -1.90625 C 4.765625 -1.015625 3.953125 -0.09375 2.984375 -0.09375 C 2.34375 -0.09375 1.25 -0.3125 1.25 -1.53125 C 1.25 -1.765625 1.296875 -2.015625 1.3125 -2.078125 C 1.3125 -2.109375 1.328125 -2.125 1.328125 -2.140625 C 1.328125 -2.234375 1.265625 -2.25 1.203125 -2.25 C 1.15625 -2.25 1.140625 -2.234375 1.109375 -2.203125 C 1.0625 -2.171875 0.515625 0.09375 0.515625 0.125 C 0.515625 0.171875 0.5625 0.21875 0.625 0.21875 C 0.671875 0.21875 0.6875 0.203125 0.796875 0.0625 L 1.28125 -0.5 C 1.71875 0.078125 2.390625 0.21875 2.96875 0.21875 C 4.3125 0.21875 5.484375 -1.09375 5.484375 -2.328125 C 5.484375 -3.015625 5.140625 -3.34375 5 -3.484375 C 4.765625 -3.71875 4.609375 -3.75 3.734375 -3.984375 C 3.515625 -4.046875 3.15625 -4.140625 3.078125 -4.15625 C 2.796875 -4.25 2.46875 -4.53125 2.46875 -5.0625 C 2.46875 -5.859375 3.265625 -6.703125 4.203125 -6.703125 C 5.015625 -6.703125 5.625 -6.28125 5.625 -5.171875 C 5.625 -4.859375 5.59375 -4.671875 5.59375 -4.609375 C 5.59375 -4.609375 5.59375 -4.515625 5.703125 -4.515625 C 5.8125 -4.515625 5.8125 -4.546875 5.859375 -4.71875 Z M 6.390625 -6.890625 "/></g><g id="62aa0c814ec229a77ab76a542c000c050o0jk877__glyph-1-0"><path d="M 7.15625 -2.484375 C 7.15625 -4.296875 5.671875 -5.78125 3.859375 -5.78125 C 2.015625 -5.78125 0.546875 -4.28125 0.546875 -2.484375 C 0.546875 -0.65625 2.03125 0.828125 3.84375 0.828125 C 5.6875 0.828125 7.15625 -0.671875 7.15625 -2.484375 Z M 0.796875 -2.609375 C 0.890625 -4.265625 2.171875 -5.453125 3.71875 -5.53125 L 3.71875 -2.609375 Z M 3.96875 -5.53125 C 5.53125 -5.453125 6.8125 -4.265625 6.90625 -2.609375 L 3.96875 -2.609375 Z M 3.71875 0.578125 C 2.1875 0.5 0.890625 -0.65625 0.796875 -2.359375 L 3.71875 -2.359375 Z M 6.90625 -2.359375 C 6.8125 -0.65625 5.5 0.5 3.96875 0.578125 L 3.96875 -2.359375 Z M 6.90625 -2.359375 "/></g><g id="62aa0c814ec229a77ab76a542c000c050o0jk877__glyph-1-1"><path d="M 3.859375 -2.75 L 1.875 -4.71875 C 1.75 -4.84375 1.734375 -4.859375 1.65625 -4.859375 C 1.5625 -4.859375 1.453125 -4.78125 1.453125 -4.671875 C 1.453125 -4.59375 1.46875 -4.578125 1.578125 -4.46875 L 3.5625 -2.484375 L 1.578125 -0.484375 C 1.46875 -0.375 1.453125 -0.359375 1.453125 -0.28125 C 1.453125 -0.171875 1.5625 -0.09375 1.65625 -0.09375 C 1.734375 -0.09375 1.75 -0.109375 1.875 -0.234375 L 3.84375 -2.203125 L 5.890625 -0.15625 C 5.90625 -0.140625 5.984375 -0.09375 6.046875 -0.09375 C 6.15625 -0.09375 6.234375 -0.171875 6.234375 -0.28125 C 6.234375 -0.3125 6.234375 -0.34375 6.21875 -0.390625 C 6.203125 -0.421875 4.625 -1.96875 4.125 -2.484375 L 5.9375 -4.296875 C 6 -4.34375 6.140625 -4.484375 6.1875 -4.53125 C 6.203125 -4.5625 6.234375 -4.59375 6.234375 -4.671875 C 6.234375 -4.78125 6.15625 -4.859375 6.046875 -4.859375 C 5.96875 -4.859375 5.921875 -4.828125 5.8125 -4.71875 Z M 3.859375 -2.75 "/></g><g id="62aa0c814ec229a77ab76a542c000c050o0jk877__glyph-2-0"><path d="M 2.328125 -4.40625 C 2.328125 -4.59375 2.3125 -4.609375 2.109375 -4.609375 C 1.671875 -4.171875 1.046875 -4.15625 0.75 -4.15625 L 0.75 -3.90625 C 0.921875 -3.90625 1.375 -3.90625 1.765625 -4.109375 L 1.765625 -0.5625 C 1.765625 -0.34375 1.765625 -0.25 1.0625 -0.25 L 0.8125 -0.25 L 0.8125 0 C 0.921875 0 1.78125 -0.03125 2.046875 -0.03125 C 2.25 -0.03125 3.125 0 3.28125 0 L 3.28125 -0.25 L 3.015625 -0.25 C 2.328125 -0.25 2.328125 -0.34375 2.328125 -0.5625 Z M 2.328125 -4.40625 "/></g><g id="62aa0c814ec229a77ab76a542c000c050o0jk877__glyph-2-1"><path d="M 3.46875 -4.78125 C 3.40625 -4.90625 3.390625 -4.953125 3.25 -4.953125 C 3.15625 -4.953125 3.09375 -4.921875 3.03125 -4.8125 L 0.46875 -0.171875 C 0.421875 -0.09375 0.421875 -0.078125 0.421875 -0.0625 C 0.421875 0 0.484375 0 0.59375 0 L 5.90625 0 C 6.015625 0 6.078125 0 6.078125 -0.0625 C 6.078125 -0.078125 6.078125 -0.09375 6.03125 -0.171875 Z M 3.015625 -4.265625 L 5.0625 -0.5625 L 0.984375 -0.5625 Z M 3.015625 -4.265625 "/></g><g id="62aa0c814ec229a77ab76a542c000c050o0jk877__glyph-3-0"><path d="M 2.15625 -2.515625 L 2.984375 -2.515625 C 2.875 -2.109375 2.71875 -1.46875 2.71875 -0.921875 C 2.71875 -0.640625 2.765625 -0.453125 2.796875 -0.3125 C 2.90625 0.046875 3 0.0625 3.109375 0.0625 C 3.28125 0.0625 3.4375 -0.078125 3.4375 -0.25 C 3.4375 -0.296875 3.421875 -0.328125 3.390625 -0.390625 C 3.25 -0.65625 3.125 -1.046875 3.125 -1.609375 C 3.125 -1.75 3.125 -2.03125 3.21875 -2.515625 L 4.09375 -2.515625 C 4.21875 -2.515625 4.28125 -2.515625 4.34375 -2.578125 C 4.453125 -2.640625 4.46875 -2.75 4.46875 -2.78125 C 4.46875 -2.984375 4.28125 -2.984375 4.171875 -2.984375 L 1.546875 -2.984375 C 1.265625 -2.984375 1.078125 -2.921875 0.765625 -2.640625 C 0.578125 -2.484375 0.3125 -2.109375 0.3125 -2.046875 C 0.3125 -1.953125 0.40625 -1.953125 0.4375 -1.953125 C 0.5 -1.953125 0.515625 -1.96875 0.5625 -2.03125 C 0.90625 -2.515625 1.34375 -2.515625 1.484375 -2.515625 L 1.921875 -2.515625 C 1.703125 -1.75 1.328125 -0.9375 1.109375 -0.515625 C 1.078125 -0.4375 1 -0.28125 0.984375 -0.25 C 0.984375 -0.234375 0.96875 -0.203125 0.96875 -0.15625 C 0.96875 -0.046875 1.046875 0.0625 1.203125 0.0625 C 1.484375 0.0625 1.5625 -0.25 1.734375 -0.875 Z M 2.15625 -2.515625 "/></g><g id="62aa0c814ec229a77ab76a542c000c050o0jk877__glyph-4-0"><path d="M 1.78125 -2.296875 C 1.78125 -2.3125 1.828125 -2.40625 1.828125 -2.484375 C 1.828125 -2.65625 1.671875 -2.765625 1.53125 -2.765625 C 1.328125 -2.765625 1.265625 -2.609375 1.25 -2.546875 L 0.484375 -0.390625 C 0.453125 -0.34375 0.453125 -0.328125 0.453125 -0.3125 C 0.453125 -0.234375 0.671875 -0.1875 0.671875 -0.1875 C 0.71875 -0.1875 0.734375 -0.21875 0.765625 -0.265625 Z M 1.78125 -2.296875 "/></g><g id="62aa0c814ec229a77ab76a542c000c050o0jk877__glyph-5-0"><path d="M 3.515625 -2.578125 C 3.515625 -2.671875 3.515625 -2.84375 3.34375 -2.84375 C 3.171875 -2.84375 3.171875 -2.65625 3.171875 -2.546875 L 3.171875 -0.203125 L 0.8125 -0.203125 C 0.703125 -0.203125 0.546875 -0.203125 0.546875 -0.03125 C 0.546875 0.140625 0.6875 0.140625 0.8125 0.140625 L 3.234375 0.140625 C 3.46875 0.140625 3.515625 0.09375 3.515625 -0.125 Z M 3.515625 -2.578125 "/></g><g id="62aa0c814ec229a77ab76a542c000c050o0jk877__glyph-6-0"><path d="M 4.859375 -3.25 C 4.9375 -3.328125 4.953125 -3.375 4.953125 -3.421875 C 4.953125 -3.53125 4.859375 -3.59375 4.78125 -3.59375 C 4.71875 -3.59375 4.703125 -3.578125 4.609375 -3.484375 L 3.09375 -1.984375 L 1.5625 -3.5 C 1.5 -3.5625 1.46875 -3.59375 1.40625 -3.59375 C 1.3125 -3.59375 1.234375 -3.515625 1.234375 -3.421875 C 1.234375 -3.359375 1.25 -3.34375 1.34375 -3.25 L 2.84375 -1.734375 L 1.34375 -0.234375 C 1.234375 -0.125 1.234375 -0.09375 1.234375 -0.0625 C 1.234375 0.046875 1.3125 0.125 1.40625 0.125 C 1.46875 0.125 1.484375 0.09375 1.5625 0.015625 L 3.09375 -1.5 L 4.671875 0.078125 C 4.703125 0.109375 4.75 0.125 4.78125 0.125 C 4.859375 0.125 4.953125 0.0625 4.953125 -0.0625 C 4.953125 -0.109375 4.9375 -0.125 4.921875 -0.140625 C 4.90625 -0.171875 3.5625 -1.515625 3.34375 -1.734375 Z M 4.859375 -3.25 "/></g></g></defs><g fill="rgb(0%, 0%, 0%)" fill-opacity="1"><use xlink:href="#62aa0c814ec229a77ab76a542c000c050o0jk877__glyph-0-0" x="96.532834" y="11.391722"/></g><g fill="rgb(0%, 0%, 0%)" fill-opacity="1"><use xlink:href="#62aa0c814ec229a77ab76a542c000c050o0jk877__glyph-1-0" x="109.429198" y="11.391722"/></g><g fill="rgb(0%, 0%, 0%)" fill-opacity="1"><use xlink:href="#62aa0c814ec229a77ab76a542c000c050o0jk877__glyph-0-0" x="119.339109" y="11.391722"/></g><g fill="rgb(0%, 0%, 0%)" fill-opacity="1"><use xlink:href="#62aa0c814ec229a77ab76a542c000c050o0jk877__glyph-0-0" x="203.071804" y="11.391722"/></g><g fill="rgb(0%, 0%, 0%)" fill-opacity="1"><use xlink:href="#62aa0c814ec229a77ab76a542c000c050o0jk877__glyph-1-1" x="215.968168" y="11.391722"/></g><g fill="rgb(0%, 0%, 0%)" fill-opacity="1"><use xlink:href="#62aa0c814ec229a77ab76a542c000c050o0jk877__glyph-0-0" x="225.887991" y="11.391722"/></g><g fill="rgb(0%, 0%, 0%)" fill-opacity="1"><use xlink:href="#62aa0c814ec229a77ab76a542c000c050o0jk877__glyph-0-1" x="107.738509" y="70.479443"/></g><g fill="rgb(0%, 0%, 0%)" fill-opacity="1"><use xlink:href="#62aa0c814ec229a77ab76a542c000c050o0jk877__glyph-2-0" x="114.387494" y="66.881847"/></g><g fill="rgb(0%, 0%, 0%)" fill-opacity="1"><use xlink:href="#62aa0c814ec229a77ab76a542c000c050o0jk877__glyph-0-1" x="186.153355" y="70.479443"/></g><g fill="rgb(0%, 0%, 0%)" fill-opacity="1"><use xlink:href="#62aa0c814ec229a77ab76a542c000c050o0jk877__glyph-2-0" x="192.802341" y="66.881847"/></g><g fill="rgb(0%, 0%, 0%)" fill-opacity="1"><use xlink:href="#62aa0c814ec229a77ab76a542c000c050o0jk877__glyph-1-1" x="199.451326" y="70.479443"/></g><g fill="rgb(0%, 0%, 0%)" fill-opacity="1"><use xlink:href="#62aa0c814ec229a77ab76a542c000c050o0jk877__glyph-0-1" x="209.361236" y="70.479443"/></g><g fill="rgb(0%, 0%, 0%)" fill-opacity="1"><use xlink:href="#62aa0c814ec229a77ab76a542c000c050o0jk877__glyph-2-0" x="216.012602" y="66.881847"/></g><path fill="none" stroke="rgb(0%, 0%, 0%)" stroke-linecap="butt" stroke-linejoin="miter" stroke-miterlimit="10" stroke-opacity="1" stroke-width="0.39848" d="M -35.961675 29.196335 L 26.634266 29.196335 " transform="matrix(0.99491, 0, 0, -0.99491, 171.712233, 37.961796)"/><path fill="none" stroke="rgb(0%, 0%, 0%)" stroke-linecap="round" stroke-linejoin="miter" stroke-miterlimit="10" stroke-opacity="1" stroke-width="0.39848" d="M -0.0000851227 1.950603 C 0.68308 1.950603 1.236678 1.514791 1.236678 0.976897 C 1.236678 0.439003 0.68308 -0.000734897 -0.0000851227 -0.000734897 " transform="matrix(-0.99491, 0, 0, -0.99491, 135.933509, 8.913331)"/><path fill="none" stroke="rgb(0%, 0%, 0%)" stroke-linecap="round" stroke-linejoin="round" stroke-miterlimit="10" stroke-opacity="1" stroke-width="0.39848" d="M -2.071587 2.390341 C -1.694669 0.957266 -0.850529 0.278028 0.00146407 -0.000734897 C -0.850529 -0.279497 -1.694669 -0.95481 -2.071587 -2.391811 " transform="matrix(0.99491, 0, 0, -0.99491, 198.4087, 8.913331)"/><path fill="none" stroke="rgb(0%, 0%, 0%)" stroke-linecap="butt" stroke-linejoin="miter" stroke-miterlimit="10" stroke-opacity="1" stroke-width="0.39848" d="M -62.04757 22.030959 L -62.04757 -20.329175 " transform="matrix(0.99491, 0, 0, -0.99491, 171.712233, 37.961796)"/><path fill="none" stroke="rgb(0%, 0%, 0%)" stroke-linecap="round" stroke-linejoin="round" stroke-miterlimit="10" stroke-opacity="1" stroke-width="0.39848" d="M -2.073359 2.389296 C -1.692514 0.956221 -0.848374 0.276982 -0.000307548 -0.0017804 C -0.848374 -0.280543 -1.692514 -0.955855 -2.073359 -2.392857 " transform="matrix(0, 0.99491, 0.99491, 0, 109.98224, 58.387025)"/><g fill="rgb(0%, 0%, 0%)" fill-opacity="1"><use xlink:href="#62aa0c814ec229a77ab76a542c000c050o0jk877__glyph-3-0" x="100.085659" y="40.186415"/></g><g fill="rgb(0%, 0%, 0%)" fill-opacity="1"><use xlink:href="#62aa0c814ec229a77ab76a542c000c050o0jk877__glyph-4-0" x="104.969673" y="37.19472"/></g><g fill="rgb(0%, 0%, 0%)" fill-opacity="1"><use xlink:href="#62aa0c814ec229a77ab76a542c000c050o0jk877__glyph-5-0" x="131.086068" y="22.855078"/></g><path fill="none" stroke="rgb(0%, 0%, 0%)" stroke-linecap="butt" stroke-linejoin="miter" stroke-miterlimit="10" stroke-opacity="1" stroke-width="0.39848" d="M 48.362042 22.030959 L 48.362042 -20.329175 " transform="matrix(0.99491, 0, 0, -0.99491, 171.712233, 37.961796)"/><path fill="none" stroke="rgb(0%, 0%, 0%)" stroke-linecap="round" stroke-linejoin="round" stroke-miterlimit="10" stroke-opacity="1" stroke-width="0.39848" d="M -2.073349 2.392299 C -1.692504 0.955297 -0.848364 0.279985 -0.000297548 0.00122247 C -0.848364 -0.27754 -1.692504 -0.956779 -2.073349 -2.389854 " transform="matrix(0, 0.99491, 0.99491, 0, 219.826909, 58.387015)"/><g fill="rgb(0%, 0%, 0%)" fill-opacity="1"><use xlink:href="#62aa0c814ec229a77ab76a542c000c050o0jk877__glyph-3-0" x="222.158163" y="39.049233"/></g><g fill="rgb(0%, 0%, 0%)" fill-opacity="1"><use xlink:href="#62aa0c814ec229a77ab76a542c000c050o0jk877__glyph-6-0" x="227.042729" y="39.049233"/></g><g fill="rgb(0%, 0%, 0%)" fill-opacity="1"><use xlink:href="#62aa0c814ec229a77ab76a542c000c050o0jk877__glyph-3-0" x="233.237942" y="39.049233"/></g><path fill="none" stroke="rgb(0%, 0%, 0%)" stroke-linecap="butt" stroke-linejoin="miter" stroke-miterlimit="10" stroke-opacity="1" stroke-width="0.39848" d="M -48.659114 -30.191873 L 9.629749 -30.191873 " transform="matrix(0.99491, 0, 0, -0.99491, 171.712233, 37.961796)"/><path fill="none" stroke="rgb(0%, 0%, 0%)" stroke-linecap="round" stroke-linejoin="round" stroke-miterlimit="10" stroke-opacity="1" stroke-width="0.39848" d="M -2.070225 2.392533 C -1.693306 0.955532 -0.849166 0.280219 -0.00109954 0.00145685 C -0.849166 -0.277306 -1.693306 -0.956544 -2.070225 -2.389619 " transform="matrix(0.99491, 0, 0, -0.99491, 181.489375, 68.001449)"/><g fill="rgb(0%, 0%, 0%)" fill-opacity="1"><use xlink:href="#62aa0c814ec229a77ab76a542c000c050o0jk877__glyph-2-1" x="149.238205" y="75.073938"/></g></svg>