<?xml version="1.0" encoding="UTF-8"?><svg xmlns="http://www.w3.org/2000/svg" xmlns:xlink="http://www.w3.org/1999/xlink" width="431.754" height="85.139" viewBox="0 0 431.754 85.139"><defs><g><g id="9ff2e9171daccc71a23d58e7417a0cdawrhjaljd__glyph-0-0"><path d="M 1.890625 -2.46875 C 1.890625 -2.75 1.65625 -2.984375 1.375 -2.984375 C 1.078125 -2.984375 0.84375 -2.75 0.84375 -2.46875 C 0.84375 -2.171875 1.078125 -1.9375 1.375 -1.9375 C 1.65625 -1.9375 1.890625 -2.171875 1.890625 -2.46875 Z M 1.890625 -2.46875 "/></g><g id="9ff2e9171daccc71a23d58e7417a0cdawrhjaljd__glyph-1-0"><path d="M 7.5 -6.859375 C 7.5 -6.875 7.46875 -6.953125 7.390625 -6.953125 C 7.359375 -6.953125 7.34375 -6.9375 7.234375 -6.828125 L 6.546875 -6.078125 C 6.453125 -6.21875 6 -6.953125 4.90625 -6.953125 C 2.71875 -6.953125 0.5 -4.765625 0.5 -2.484375 C 0.5 -0.859375 1.65625 0.21875 3.171875 0.21875 C 4.015625 0.21875 4.765625 -0.171875 5.296875 -0.625 C 6.21875 -1.4375 6.375 -2.34375 6.375 -2.359375 C 6.375 -2.46875 6.28125 -2.46875 6.265625 -2.46875 C 6.203125 -2.46875 6.15625 -2.4375 6.125 -2.359375 C 6.046875 -2.078125 5.8125 -1.375 5.140625 -0.8125 C 4.453125 -0.25 3.828125 -0.09375 3.328125 -0.09375 C 2.4375 -0.09375 1.390625 -0.59375 1.390625 -2.140625 C 1.390625 -2.703125 1.59375 -4.296875 2.578125 -5.453125 C 3.1875 -6.15625 4.109375 -6.640625 4.984375 -6.640625 C 6 -6.640625 6.578125 -5.890625 6.578125 -4.75 C 6.578125 -4.34375 6.546875 -4.34375 6.546875 -4.234375 C 6.546875 -4.140625 6.65625 -4.140625 6.6875 -4.140625 C 6.828125 -4.140625 6.828125 -4.15625 6.875 -4.34375 Z M 7.5 -6.859375 "/></g><g id="9ff2e9171daccc71a23d58e7417a0cdawrhjaljd__glyph-1-1"><path d="M 1.578125 -0.765625 C 1.484375 -0.390625 1.453125 -0.3125 0.6875 -0.3125 C 0.515625 -0.3125 0.421875 -0.3125 0.421875 -0.109375 C 0.421875 0 0.5 0 0.6875 0 L 4.203125 0 C 5.765625 0 6.921875 -1.15625 6.921875 -2.125 C 6.921875 -2.84375 6.34375 -3.40625 5.390625 -3.515625 C 6.421875 -3.703125 7.453125 -4.4375 7.453125 -5.375 C 7.453125 -6.109375 6.796875 -6.734375 5.625 -6.734375 L 2.3125 -6.734375 C 2.125 -6.734375 2.015625 -6.734375 2.015625 -6.53125 C 2.015625 -6.421875 2.109375 -6.421875 2.296875 -6.421875 C 2.3125 -6.421875 2.5 -6.421875 2.671875 -6.40625 C 2.84375 -6.390625 2.9375 -6.375 2.9375 -6.25 C 2.9375 -6.21875 2.921875 -6.1875 2.90625 -6.0625 Z M 3.0625 -3.609375 L 3.671875 -6.046875 C 3.765625 -6.40625 3.78125 -6.421875 4.203125 -6.421875 L 5.484375 -6.421875 C 6.34375 -6.421875 6.5625 -5.84375 6.5625 -5.40625 C 6.5625 -4.546875 5.703125 -3.609375 4.5 -3.609375 Z M 2.625 -0.3125 C 2.484375 -0.3125 2.46875 -0.3125 2.40625 -0.3125 C 2.3125 -0.328125 2.28125 -0.328125 2.28125 -0.421875 C 2.28125 -0.4375 2.28125 -0.46875 2.328125 -0.640625 L 3 -3.390625 L 4.875 -3.390625 C 5.8125 -3.390625 6 -2.65625 6 -2.234375 C 6 -1.265625 5.125 -0.3125 3.96875 -0.3125 Z M 2.625 -0.3125 "/></g><g id="9ff2e9171daccc71a23d58e7417a0cdawrhjaljd__glyph-1-2"><path d="M 1.765625 -1.140625 C 1.375 -0.46875 0.984375 -0.328125 0.546875 -0.3125 C 0.4375 -0.296875 0.34375 -0.296875 0.34375 -0.109375 C 0.34375 -0.046875 0.390625 0 0.46875 0 C 0.734375 0 1.046875 -0.03125 1.328125 -0.03125 C 1.640625 -0.03125 1.984375 0 2.3125 0 C 2.359375 0 2.5 0 2.5 -0.1875 C 2.5 -0.296875 2.40625 -0.3125 2.34375 -0.3125 C 2.109375 -0.328125 1.875 -0.40625 1.875 -0.65625 C 1.875 -0.765625 1.9375 -0.875 2.015625 -1.015625 L 2.765625 -2.28125 L 5.234375 -2.28125 C 5.25 -2.078125 5.390625 -0.734375 5.390625 -0.625 C 5.390625 -0.328125 4.875 -0.3125 4.6875 -0.3125 C 4.546875 -0.3125 4.453125 -0.3125 4.453125 -0.109375 C 4.453125 0 4.5625 0 4.578125 0 C 4.984375 0 5.40625 -0.03125 5.8125 -0.03125 C 6.0625 -0.03125 6.6875 0 6.9375 0 C 6.984375 0 7.109375 0 7.109375 -0.203125 C 7.109375 -0.3125 7.015625 -0.3125 6.875 -0.3125 C 6.265625 -0.3125 6.265625 -0.375 6.234375 -0.65625 L 5.640625 -6.828125 C 5.625 -7.015625 5.625 -7.0625 5.453125 -7.0625 C 5.296875 -7.0625 5.25 -6.984375 5.203125 -6.890625 Z M 2.953125 -2.578125 L 4.890625 -5.84375 L 5.203125 -2.578125 Z M 2.953125 -2.578125 "/></g><g id="9ff2e9171daccc71a23d58e7417a0cdawrhjaljd__glyph-1-3"><path d="M 6.984375 -2.296875 C 7 -2.34375 7.03125 -2.421875 7.03125 -2.4375 C 7.03125 -2.4375 7.03125 -2.546875 6.90625 -2.546875 C 6.828125 -2.546875 6.796875 -2.484375 6.78125 -2.421875 C 6.140625 -0.96875 5.78125 -0.3125 4.09375 -0.3125 L 2.65625 -0.3125 C 2.515625 -0.3125 2.5 -0.3125 2.4375 -0.3125 C 2.34375 -0.328125 2.3125 -0.328125 2.3125 -0.421875 C 2.3125 -0.4375 2.3125 -0.46875 2.359375 -0.640625 L 3.03125 -3.328125 L 4 -3.328125 C 4.84375 -3.328125 4.84375 -3.125 4.84375 -2.875 C 4.84375 -2.8125 4.84375 -2.6875 4.765625 -2.390625 C 4.75 -2.34375 4.75 -2.3125 4.75 -2.28125 C 4.75 -2.234375 4.78125 -2.171875 4.875 -2.171875 C 4.953125 -2.171875 4.984375 -2.234375 5.015625 -2.375 L 5.578125 -4.6875 C 5.578125 -4.75 5.53125 -4.796875 5.46875 -4.796875 C 5.375 -4.796875 5.359375 -4.734375 5.328125 -4.609375 C 5.109375 -3.859375 4.9375 -3.640625 4.03125 -3.640625 L 3.109375 -3.640625 L 3.703125 -6.015625 C 3.78125 -6.359375 3.796875 -6.40625 4.234375 -6.40625 L 5.625 -6.40625 C 6.828125 -6.40625 7.125 -6.109375 7.125 -5.296875 C 7.125 -5.0625 7.125 -5.046875 7.078125 -4.78125 C 7.078125 -4.71875 7.0625 -4.65625 7.0625 -4.609375 C 7.0625 -4.5625 7.09375 -4.484375 7.1875 -4.484375 C 7.296875 -4.484375 7.3125 -4.546875 7.328125 -4.734375 L 7.515625 -6.4375 C 7.546875 -6.703125 7.5 -6.703125 7.25 -6.703125 L 2.28125 -6.703125 C 2.078125 -6.703125 1.984375 -6.703125 1.984375 -6.5 C 1.984375 -6.40625 2.078125 -6.40625 2.25 -6.40625 C 2.625 -6.40625 2.90625 -6.40625 2.90625 -6.21875 C 2.90625 -6.1875 2.90625 -6.15625 2.84375 -5.984375 L 1.546875 -0.765625 C 1.453125 -0.390625 1.421875 -0.3125 0.65625 -0.3125 C 0.484375 -0.3125 0.375 -0.3125 0.375 -0.125 C 0.375 0 0.46875 0 0.65625 0 L 5.765625 0 C 6 0 6 -0.015625 6.078125 -0.171875 Z M 6.984375 -2.296875 "/></g><g id="9ff2e9171daccc71a23d58e7417a0cdawrhjaljd__glyph-1-4"><path d="M 1.5625 -0.765625 C 1.46875 -0.390625 1.453125 -0.3125 0.671875 -0.3125 C 0.5 -0.3125 0.390625 -0.3125 0.390625 -0.125 C 0.390625 0 0.484375 0 0.671875 0 L 3.9375 0 C 5.984375 0 7.921875 -2.078125 7.921875 -4.234375 C 7.921875 -5.625 7.09375 -6.734375 5.609375 -6.734375 L 2.296875 -6.734375 C 2.109375 -6.734375 2 -6.734375 2 -6.546875 C 2 -6.421875 2.09375 -6.421875 2.28125 -6.421875 C 2.421875 -6.421875 2.59375 -6.421875 2.71875 -6.40625 C 2.875 -6.390625 2.921875 -6.359375 2.921875 -6.25 C 2.921875 -6.21875 2.921875 -6.1875 2.890625 -6.0625 Z M 3.703125 -6.046875 C 3.78125 -6.40625 3.8125 -6.421875 4.234375 -6.421875 L 5.28125 -6.421875 C 6.25 -6.421875 7.0625 -5.90625 7.0625 -4.609375 C 7.0625 -4.125 6.875 -2.5 6.03125 -1.421875 C 5.75 -1.0625 4.96875 -0.3125 3.75 -0.3125 L 2.640625 -0.3125 C 2.5 -0.3125 2.484375 -0.3125 2.421875 -0.3125 C 2.328125 -0.328125 2.296875 -0.328125 2.296875 -0.421875 C 2.296875 -0.4375 2.296875 -0.46875 2.34375 -0.640625 Z M 3.703125 -6.046875 "/></g><g id="9ff2e9171daccc71a23d58e7417a0cdawrhjaljd__glyph-2-0"><path d="M 0.84375 -0.4375 C 0.8125 -0.34375 0.78125 -0.171875 0.78125 -0.15625 C 0.78125 0 0.890625 0.0625 1.015625 0.0625 C 1.125 0.0625 1.25 -0.015625 1.28125 -0.078125 C 1.3125 -0.140625 1.375 -0.359375 1.40625 -0.515625 C 1.4375 -0.640625 1.515625 -0.953125 1.546875 -1.125 C 1.59375 -1.28125 1.640625 -1.4375 1.671875 -1.59375 C 1.75 -1.875 1.765625 -1.9375 1.96875 -2.21875 C 2.15625 -2.5 2.484375 -2.859375 3 -2.859375 C 3.390625 -2.859375 3.40625 -2.5 3.40625 -2.375 C 3.40625 -1.953125 3.109375 -1.1875 3 -0.890625 C 2.921875 -0.703125 2.890625 -0.640625 2.890625 -0.53125 C 2.890625 -0.15625 3.203125 0.0625 3.546875 0.0625 C 4.234375 0.0625 4.546875 -0.890625 4.546875 -0.984375 C 4.546875 -1.078125 4.453125 -1.078125 4.4375 -1.078125 C 4.34375 -1.078125 4.328125 -1.03125 4.296875 -0.953125 C 4.140625 -0.40625 3.84375 -0.125 3.578125 -0.125 C 3.421875 -0.125 3.390625 -0.21875 3.390625 -0.359375 C 3.390625 -0.53125 3.4375 -0.609375 3.5625 -0.921875 C 3.640625 -1.140625 3.921875 -1.875 3.921875 -2.265625 C 3.921875 -2.921875 3.390625 -3.046875 3.03125 -3.046875 C 2.453125 -3.046875 2.0625 -2.6875 1.859375 -2.421875 C 1.8125 -2.890625 1.40625 -3.046875 1.125 -3.046875 C 0.828125 -3.046875 0.65625 -2.828125 0.578125 -2.671875 C 0.421875 -2.421875 0.328125 -2.03125 0.328125 -1.984375 C 0.328125 -1.90625 0.421875 -1.90625 0.4375 -1.90625 C 0.53125 -1.90625 0.546875 -1.921875 0.59375 -2.109375 C 0.703125 -2.515625 0.828125 -2.859375 1.09375 -2.859375 C 1.28125 -2.859375 1.328125 -2.703125 1.328125 -2.515625 C 1.328125 -2.375 1.265625 -2.125 1.21875 -1.9375 C 1.171875 -1.75 1.09375 -1.46875 1.0625 -1.3125 Z M 0.84375 -0.4375 "/></g><g id="9ff2e9171daccc71a23d58e7417a0cdawrhjaljd__glyph-3-0"><path d="M 3.203125 -1.5625 L 5.3125 -1.5625 C 5.40625 -1.5625 5.5625 -1.5625 5.5625 -1.734375 C 5.5625 -1.90625 5.40625 -1.90625 5.3125 -1.90625 L 3.203125 -1.90625 L 3.203125 -4.015625 C 3.203125 -4.109375 3.203125 -4.28125 3.03125 -4.28125 C 2.859375 -4.28125 2.859375 -4.109375 2.859375 -4.015625 L 2.859375 -1.90625 L 0.734375 -1.90625 C 0.65625 -1.90625 0.484375 -1.90625 0.484375 -1.734375 C 0.484375 -1.5625 0.640625 -1.5625 0.734375 -1.5625 L 2.859375 -1.5625 L 2.859375 0.5625 C 2.859375 0.65625 2.859375 0.8125 3.03125 0.8125 C 3.203125 0.8125 3.203125 0.65625 3.203125 0.5625 Z M 3.203125 -1.5625 "/></g><g id="9ff2e9171daccc71a23d58e7417a0cdawrhjaljd__glyph-3-1"><path d="M 2.3125 -4.390625 C 2.3125 -4.578125 2.296875 -4.578125 2.109375 -4.578125 C 1.671875 -4.15625 1.03125 -4.140625 0.75 -4.140625 L 0.75 -3.890625 C 0.921875 -3.890625 1.375 -3.890625 1.75 -4.09375 L 1.75 -0.5625 C 1.75 -0.34375 1.75 -0.25 1.0625 -0.25 L 0.796875 -0.25 L 0.796875 0 C 0.921875 0 1.78125 -0.03125 2.03125 -0.03125 C 2.25 -0.03125 3.109375 0 3.265625 0 L 3.265625 -0.25 L 3 -0.25 C 2.3125 -0.25 2.3125 -0.34375 2.3125 -0.5625 Z M 2.3125 -4.390625 "/></g><g id="9ff2e9171daccc71a23d58e7417a0cdawrhjaljd__glyph-4-0"><path d="M 5.140625 -1.5625 C 5.25 -1.5625 5.421875 -1.5625 5.421875 -1.734375 C 5.421875 -1.90625 5.25 -1.90625 5.140625 -1.90625 L 1.015625 -1.90625 C 0.90625 -1.90625 0.75 -1.90625 0.75 -1.734375 C 0.75 -1.5625 0.90625 -1.5625 1.015625 -1.5625 Z M 5.140625 -1.5625 "/></g></g></defs><g fill="rgb(0%, 0%, 0%)" fill-opacity="1"><use xlink:href="#9ff2e9171daccc71a23d58e7417a0cdawrhjaljd__glyph-0-0" x="37.636524" y="10.349338"/></g><g fill="rgb(0%, 0%, 0%)" fill-opacity="1"><use xlink:href="#9ff2e9171daccc71a23d58e7417a0cdawrhjaljd__glyph-0-0" x="42.023523" y="10.349338"/></g><g fill="rgb(0%, 0%, 0%)" fill-opacity="1"><use xlink:href="#9ff2e9171daccc71a23d58e7417a0cdawrhjaljd__glyph-0-0" x="46.400659" y="10.349338"/></g><g fill="rgb(0%, 0%, 0%)" fill-opacity="1"><use xlink:href="#9ff2e9171daccc71a23d58e7417a0cdawrhjaljd__glyph-1-0" x="81.422719" y="10.349338"/></g><g fill="rgb(0%, 0%, 0%)" fill-opacity="1"><use xlink:href="#9ff2e9171daccc71a23d58e7417a0cdawrhjaljd__glyph-2-0" x="88.471436" y="11.828381"/></g><g fill="rgb(0%, 0%, 0%)" fill-opacity="1"><use xlink:href="#9ff2e9171daccc71a23d58e7417a0cdawrhjaljd__glyph-3-0" x="93.347028" y="11.828381"/><use xlink:href="#9ff2e9171daccc71a23d58e7417a0cdawrhjaljd__glyph-3-1" x="99.401819" y="11.828381"/></g><g fill="rgb(0%, 0%, 0%)" fill-opacity="1"><use xlink:href="#9ff2e9171daccc71a23d58e7417a0cdawrhjaljd__glyph-1-1" x="181.378875" y="10.349338"/></g><g fill="rgb(0%, 0%, 0%)" fill-opacity="1"><use xlink:href="#9ff2e9171daccc71a23d58e7417a0cdawrhjaljd__glyph-2-0" x="188.859227" y="11.828381"/></g><g fill="rgb(0%, 0%, 0%)" fill-opacity="1"><use xlink:href="#9ff2e9171daccc71a23d58e7417a0cdawrhjaljd__glyph-1-0" x="226.850031" y="10.349338"/></g><g fill="rgb(0%, 0%, 0%)" fill-opacity="1"><use xlink:href="#9ff2e9171daccc71a23d58e7417a0cdawrhjaljd__glyph-2-0" x="233.899738" y="11.828381"/></g><g fill="rgb(0%, 0%, 0%)" fill-opacity="1"><use xlink:href="#9ff2e9171daccc71a23d58e7417a0cdawrhjaljd__glyph-1-1" x="326.916076" y="10.349338"/></g><g fill="rgb(0%, 0%, 0%)" fill-opacity="1"><use xlink:href="#9ff2e9171daccc71a23d58e7417a0cdawrhjaljd__glyph-2-0" x="334.397418" y="11.828381"/></g><g fill="rgb(0%, 0%, 0%)" fill-opacity="1"><use xlink:href="#9ff2e9171daccc71a23d58e7417a0cdawrhjaljd__glyph-4-0" x="339.273009" y="11.828381"/></g><g fill="rgb(0%, 0%, 0%)" fill-opacity="1"><use xlink:href="#9ff2e9171daccc71a23d58e7417a0cdawrhjaljd__glyph-3-1" x="345.437574" y="11.828381"/></g><g fill="rgb(0%, 0%, 0%)" fill-opacity="1"><use xlink:href="#9ff2e9171daccc71a23d58e7417a0cdawrhjaljd__glyph-0-0" x="382.367304" y="10.349338"/></g><g fill="rgb(0%, 0%, 0%)" fill-opacity="1"><use xlink:href="#9ff2e9171daccc71a23d58e7417a0cdawrhjaljd__glyph-0-0" x="386.754304" y="10.349338"/></g><g fill="rgb(0%, 0%, 0%)" fill-opacity="1"><use xlink:href="#9ff2e9171daccc71a23d58e7417a0cdawrhjaljd__glyph-0-0" x="391.13144" y="10.349338"/></g><g fill="rgb(0%, 0%, 0%)" fill-opacity="1"><use xlink:href="#9ff2e9171daccc71a23d58e7417a0cdawrhjaljd__glyph-1-2" x="136.106707" y="44.362369"/></g><g fill="rgb(0%, 0%, 0%)" fill-opacity="1"><use xlink:href="#9ff2e9171daccc71a23d58e7417a0cdawrhjaljd__glyph-2-0" x="143.5039" y="45.841412"/></g><g fill="rgb(0%, 0%, 0%)" fill-opacity="1"><use xlink:href="#9ff2e9171daccc71a23d58e7417a0cdawrhjaljd__glyph-1-2" x="271.548006" y="44.362369"/></g><g fill="rgb(0%, 0%, 0%)" fill-opacity="1"><use xlink:href="#9ff2e9171daccc71a23d58e7417a0cdawrhjaljd__glyph-2-0" x="278.945199" y="45.841412"/></g><g fill="rgb(0%, 0%, 0%)" fill-opacity="1"><use xlink:href="#9ff2e9171daccc71a23d58e7417a0cdawrhjaljd__glyph-4-0" x="283.820791" y="45.841412"/></g><g fill="rgb(0%, 0%, 0%)" fill-opacity="1"><use xlink:href="#9ff2e9171daccc71a23d58e7417a0cdawrhjaljd__glyph-3-1" x="289.985355" y="45.841412"/></g><g fill="rgb(0%, 0%, 0%)" fill-opacity="1"><use xlink:href="#9ff2e9171daccc71a23d58e7417a0cdawrhjaljd__glyph-0-0" x="37.636524" y="78.375399"/></g><g fill="rgb(0%, 0%, 0%)" fill-opacity="1"><use xlink:href="#9ff2e9171daccc71a23d58e7417a0cdawrhjaljd__glyph-0-0" x="42.023523" y="78.375399"/></g><g fill="rgb(0%, 0%, 0%)" fill-opacity="1"><use xlink:href="#9ff2e9171daccc71a23d58e7417a0cdawrhjaljd__glyph-0-0" x="46.400659" y="78.375399"/></g><g fill="rgb(0%, 0%, 0%)" fill-opacity="1"><use xlink:href="#9ff2e9171daccc71a23d58e7417a0cdawrhjaljd__glyph-1-3" x="81.306891" y="78.375399"/></g><g fill="rgb(0%, 0%, 0%)" fill-opacity="1"><use xlink:href="#9ff2e9171daccc71a23d58e7417a0cdawrhjaljd__glyph-2-0" x="88.587265" y="79.855432"/></g><g fill="rgb(0%, 0%, 0%)" fill-opacity="1"><use xlink:href="#9ff2e9171daccc71a23d58e7417a0cdawrhjaljd__glyph-3-0" x="93.462856" y="79.855432"/><use xlink:href="#9ff2e9171daccc71a23d58e7417a0cdawrhjaljd__glyph-3-1" x="99.517648" y="79.855432"/></g><g fill="rgb(0%, 0%, 0%)" fill-opacity="1"><use xlink:href="#9ff2e9171daccc71a23d58e7417a0cdawrhjaljd__glyph-1-4" x="181.036339" y="78.375399"/></g><g fill="rgb(0%, 0%, 0%)" fill-opacity="1"><use xlink:href="#9ff2e9171daccc71a23d58e7417a0cdawrhjaljd__glyph-2-0" x="189.201763" y="79.855432"/></g><g fill="rgb(0%, 0%, 0%)" fill-opacity="1"><use xlink:href="#9ff2e9171daccc71a23d58e7417a0cdawrhjaljd__glyph-1-3" x="226.734202" y="78.375399"/></g><g fill="rgb(0%, 0%, 0%)" fill-opacity="1"><use xlink:href="#9ff2e9171daccc71a23d58e7417a0cdawrhjaljd__glyph-2-0" x="234.015567" y="79.855432"/></g><g fill="rgb(0%, 0%, 0%)" fill-opacity="1"><use xlink:href="#9ff2e9171daccc71a23d58e7417a0cdawrhjaljd__glyph-1-4" x="326.57354" y="78.375399"/></g><g fill="rgb(0%, 0%, 0%)" fill-opacity="1"><use xlink:href="#9ff2e9171daccc71a23d58e7417a0cdawrhjaljd__glyph-2-0" x="334.738964" y="79.855432"/></g><g fill="rgb(0%, 0%, 0%)" fill-opacity="1"><use xlink:href="#9ff2e9171daccc71a23d58e7417a0cdawrhjaljd__glyph-4-0" x="339.614555" y="79.855432"/></g><g fill="rgb(0%, 0%, 0%)" fill-opacity="1"><use xlink:href="#9ff2e9171daccc71a23d58e7417a0cdawrhjaljd__glyph-3-1" x="345.77912" y="79.855432"/></g><g fill="rgb(0%, 0%, 0%)" fill-opacity="1"><use xlink:href="#9ff2e9171daccc71a23d58e7417a0cdawrhjaljd__glyph-0-0" x="382.367304" y="78.375399"/></g><g fill="rgb(0%, 0%, 0%)" fill-opacity="1"><use xlink:href="#9ff2e9171daccc71a23d58e7417a0cdawrhjaljd__glyph-0-0" x="386.754304" y="78.375399"/></g><g fill="rgb(0%, 0%, 0%)" fill-opacity="1"><use xlink:href="#9ff2e9171daccc71a23d58e7417a0cdawrhjaljd__glyph-0-0" x="391.13144" y="78.375399"/></g><path fill="none" stroke="rgb(0%, 0%, 0%)" stroke-linecap="butt" stroke-linejoin="miter" stroke-miterlimit="10" stroke-opacity="1" stroke-width="0.39848" d="M -163.809292 34.60647 L -140.580641 34.60647 " transform="matrix(0.989988, 0, 0, -0.989988, 215.755231, 42.142815)"/><path fill="none" stroke="rgb(0%, 0%, 0%)" stroke-linecap="round" stroke-linejoin="round" stroke-miterlimit="10" stroke-opacity="1" stroke-width="0.39848" d="M -2.073974 2.390796 C -1.695182 0.954542 -0.850791 0.279818 0.00149217 -0.000330391 C -0.850791 -0.280479 -1.695182 -0.955203 -2.073974 -2.391457 " transform="matrix(0.989988, 0, 0, -0.989988, 76.779773, 7.882485)"/><path fill="none" stroke="rgb(0%, 0%, 0%)" stroke-linecap="butt" stroke-linejoin="miter" stroke-miterlimit="10" stroke-opacity="1" stroke-width="0.39848" d="M -111.681943 25.945541 L -85.273016 7.933177 " transform="matrix(0.989988, 0, 0, -0.989988, 215.755231, 42.142815)"/><path fill="none" stroke="rgb(0%, 0%, 0%)" stroke-linecap="round" stroke-linejoin="round" stroke-miterlimit="10" stroke-opacity="1" stroke-width="0.39848" d="M -2.073693 2.391362 C -1.691818 0.956167 -0.84846 0.279966 0.00163854 0.00003986 C -0.849095 -0.279321 -1.692343 -0.954806 -2.074413 -2.390442 " transform="matrix(0.8178, 0.557819, 0.557819, -0.8178, 131.498638, 34.401462)"/><path fill="none" stroke="rgb(0%, 0%, 0%)" stroke-linecap="butt" stroke-linejoin="miter" stroke-miterlimit="10" stroke-opacity="1" stroke-width="0.39848" d="M -124.375432 25.945541 L -124.375432 -25.546541 " transform="matrix(0.989988, 0, 0, -0.989988, 215.755231, 42.142815)"/><path fill="none" stroke="rgb(0%, 0%, 0%)" stroke-linecap="round" stroke-linejoin="round" stroke-miterlimit="10" stroke-opacity="1" stroke-width="0.39848" d="M -2.070636 2.389149 C -1.691844 0.95684 -0.851398 0.278171 0.000884627 0.00196802 C -0.851398 -0.27818 -1.691844 -0.95685 -2.070636 -2.389159 " transform="matrix(0, 0.989988, 0.989988, 0, 92.623052, 67.631937)"/><path fill="none" stroke="rgb(0%, 0%, 0%)" stroke-linecap="butt" stroke-linejoin="miter" stroke-miterlimit="10" stroke-opacity="1" stroke-width="0.39848" d="M -17.256118 34.60647 L 6.319758 34.60647 " transform="matrix(0.989988, 0, 0, -0.989988, 215.755231, 42.142815)"/><path fill="none" stroke="rgb(0%, 0%, 0%)" stroke-linecap="round" stroke-linejoin="round" stroke-miterlimit="10" stroke-opacity="1" stroke-width="0.39848" d="M -2.073854 2.390796 C -1.695062 0.954542 -0.850671 0.279818 0.00161181 -0.000330391 C -0.850671 -0.280479 -1.695062 -0.955203 -2.073854 -2.391457 " transform="matrix(0.989988, 0, 0, -0.989988, 222.209342, 7.882485)"/><path fill="none" stroke="rgb(0%, 0%, 0%)" stroke-linecap="butt" stroke-linejoin="miter" stroke-miterlimit="10" stroke-opacity="1" stroke-width="0.39848" d="M -28.233204 26.778095 L -28.233204 -25.546541 " transform="matrix(0.989988, 0, 0, -0.989988, 215.755231, 42.142815)"/><path fill="none" stroke="rgb(0%, 0%, 0%)" stroke-linecap="round" stroke-linejoin="round" stroke-miterlimit="10" stroke-opacity="1" stroke-width="0.39848" d="M -2.070636 2.392772 C -1.691844 0.956518 -0.851398 0.277848 0.000884627 0.00164573 C -0.851398 -0.278503 -1.691844 -0.957172 -2.070636 -2.389481 " transform="matrix(0, 0.989988, 0.989988, 0, 187.803058, 67.631937)"/><path fill="none" stroke="rgb(0%, 0%, 0%)" stroke-linecap="butt" stroke-linejoin="miter" stroke-miterlimit="10" stroke-opacity="1" stroke-width="0.39848" d="M 28.238419 27.27526 L 55.598273 8.635521 " transform="matrix(0.989988, 0, 0, -0.989988, 215.755231, 42.142815)"/><path fill="none" stroke="rgb(0%, 0%, 0%)" stroke-linecap="round" stroke-linejoin="round" stroke-miterlimit="10" stroke-opacity="1" stroke-width="0.39848" d="M -2.071059 2.391206 C -1.695422 0.956859 -0.850202 0.276959 0.000784692 0.00207091 C -0.85009 -0.276843 -1.694727 -0.957364 -2.074286 -2.39057 " transform="matrix(0.818097, 0.557393, 0.557393, -0.818097, 270.959141, 33.704382)"/><path fill="none" stroke="rgb(0%, 0%, 0%)" stroke-linecap="butt" stroke-linejoin="miter" stroke-miterlimit="10" stroke-opacity="1" stroke-width="0.39848" d="M 17.478349 26.778095 L 17.478349 -25.546541 " transform="matrix(0.989988, 0, 0, -0.989988, 215.755231, 42.142815)"/><path fill="none" stroke="rgb(0%, 0%, 0%)" stroke-linecap="round" stroke-linejoin="round" stroke-miterlimit="10" stroke-opacity="1" stroke-width="0.39848" d="M -2.070636 2.390256 C -1.691844 0.957947 -0.851398 0.279278 0.000884627 -0.000870953 C -0.851398 -0.277074 -1.691844 -0.955743 -2.070636 -2.391998 " transform="matrix(0, 0.989988, 0.989988, 0, 233.059456, 67.631937)"/><path fill="none" stroke="rgb(0%, 0%, 0%)" stroke-linecap="butt" stroke-linejoin="miter" stroke-miterlimit="10" stroke-opacity="1" stroke-width="0.39848" d="M 139.954535 34.60647 L 163.412039 34.60647 " transform="matrix(0.989988, 0, 0, -0.989988, 215.755231, 42.142815)"/><path fill="none" stroke="rgb(0%, 0%, 0%)" stroke-linecap="round" stroke-linejoin="round" stroke-miterlimit="10" stroke-opacity="1" stroke-width="0.39848" d="M -2.073664 2.390796 C -1.694871 0.954542 -0.85048 0.279818 0.00180252 -0.000330391 C -0.85048 -0.280479 -1.694871 -0.955203 -2.073664 -2.391457 " transform="matrix(0.989988, 0, 0, -0.989988, 377.728684, 7.882485)"/><path fill="none" stroke="rgb(0%, 0%, 0%)" stroke-linecap="butt" stroke-linejoin="miter" stroke-miterlimit="10" stroke-opacity="1" stroke-width="0.39848" d="M 123.87559 25.945541 L 123.87559 -25.546541 " transform="matrix(0.989988, 0, 0, -0.989988, 215.755231, 42.142815)"/><path fill="none" stroke="rgb(0%, 0%, 0%)" stroke-linecap="round" stroke-linejoin="round" stroke-miterlimit="10" stroke-opacity="1" stroke-width="0.39848" d="M -2.070636 2.391596 C -1.691844 0.955342 -0.851398 0.280618 0.000884627 0.000469882 C -0.851398 -0.279679 -1.691844 -0.954402 -2.070636 -2.390657 " transform="matrix(0, 0.989988, 0.989988, 0, 338.39016, 67.631937)"/><path fill="none" stroke="rgb(0%, 0%, 0%)" stroke-linecap="butt" stroke-linejoin="miter" stroke-miterlimit="10" stroke-opacity="1" stroke-width="0.39848" d="M -63.133393 8.410613 L -38.985382 26.537404 " transform="matrix(0.989988, 0, 0, -0.989988, 215.755231, 42.142815)"/><path fill="none" stroke="rgb(0%, 0%, 0%)" stroke-linecap="round" stroke-linejoin="round" stroke-miterlimit="10" stroke-opacity="1" stroke-width="0.39848" d="M -2.071736 2.392256 C -1.694956 0.955053 -0.851538 0.27768 -0.000105623 -0.00116296 C -0.850922 -0.280267 -1.69318 -0.955539 -2.071641 -2.393297 " transform="matrix(0.791783, -0.594221, -0.594221, -0.791783, 177.319705, 15.752923)"/><path fill="none" stroke="rgb(0%, 0%, 0%)" stroke-linecap="butt" stroke-linejoin="miter" stroke-miterlimit="10" stroke-opacity="1" stroke-width="0.39848" d="M -63.575318 -7.581526 L -39.427307 -25.708317 " transform="matrix(0.989988, 0, 0, -0.989988, 215.755231, 42.142815)"/><path fill="none" stroke="rgb(0%, 0%, 0%)" stroke-linecap="round" stroke-linejoin="round" stroke-miterlimit="10" stroke-opacity="1" stroke-width="0.39848" d="M -2.073771 2.390192 C -1.694505 0.957982 -0.849878 0.279575 0.000933024 0.000488068 C -0.850485 -0.278365 -1.693881 -0.955743 -2.073002 -2.389779 " transform="matrix(0.791783, 0.594241, 0.594241, -0.791783, 176.881784, 67.71077)"/><path fill="none" stroke="rgb(0%, 0%, 0%)" stroke-linecap="butt" stroke-linejoin="miter" stroke-miterlimit="10" stroke-opacity="1" stroke-width="0.39848" d="M 81.198321 8.410613 L 109.430187 25.736416 " transform="matrix(0.989988, 0, 0, -0.989988, 215.755231, 42.142815)"/><path fill="none" stroke="rgb(0%, 0%, 0%)" stroke-linecap="round" stroke-linejoin="round" stroke-miterlimit="10" stroke-opacity="1" stroke-width="0.39848" d="M -2.074311 2.390008 C -1.694107 0.957555 -0.851572 0.278444 0.00107133 0.000552579 C -0.850377 -0.277866 -1.692291 -0.95567 -2.072103 -2.389308 " transform="matrix(0.843718, -0.517794, -0.517794, -0.843718, 324.257195, 16.559615)"/><path fill="none" stroke="rgb(0%, 0%, 0%)" stroke-linecap="butt" stroke-linejoin="miter" stroke-miterlimit="10" stroke-opacity="1" stroke-width="0.39848" d="M 82.011146 -8.410134 L 110.239066 -25.735937 " transform="matrix(0.989988, 0, 0, -0.989988, 215.755231, 42.142815)"/><path fill="none" stroke="rgb(0%, 0%, 0%)" stroke-linecap="round" stroke-linejoin="round" stroke-miterlimit="10" stroke-opacity="1" stroke-width="0.39848" d="M -2.071176 2.390421 C -1.694675 0.954731 -0.849373 0.279021 -0.00127618 -0.00143181 C -0.850548 -0.277291 -1.693059 -0.956433 -2.071148 -2.392265 " transform="matrix(0.843698, 0.517823, 0.517823, -0.843698, 325.060412, 67.726015)"/><path fill="none" stroke="rgb(0%, 0%, 0%)" stroke-linecap="butt" stroke-linejoin="miter" stroke-miterlimit="10" stroke-opacity="1" stroke-width="0.39848" d="M -163.809292 -34.108826 L -140.699014 -34.108826 " transform="matrix(0.989988, 0, 0, -0.989988, 215.755231, 42.142815)"/><path fill="none" stroke="rgb(0%, 0%, 0%)" stroke-linecap="round" stroke-linejoin="round" stroke-miterlimit="10" stroke-opacity="1" stroke-width="0.39848" d="M -2.071471 2.39096 C -1.692679 0.954706 -0.848287 0.279982 0.0000495703 -0.000166114 C -0.848287 -0.280315 -1.692679 -0.955038 -2.071471 -2.391293 " transform="matrix(0.989988, 0, 0, -0.989988, 76.664013, 75.909992)"/><path fill="none" stroke="rgb(0%, 0%, 0%)" stroke-linecap="butt" stroke-linejoin="miter" stroke-miterlimit="10" stroke-opacity="1" stroke-width="0.39848" d="M -112.411908 -25.945062 L -85.273016 -7.435533 " transform="matrix(0.989988, 0, 0, -0.989988, 215.755231, 42.142815)"/><path fill="none" stroke="rgb(0%, 0%, 0%)" stroke-linecap="round" stroke-linejoin="round" stroke-miterlimit="10" stroke-opacity="1" stroke-width="0.39848" d="M -2.072469 2.393292 C -1.692623 0.954396 -0.849375 0.278911 0.00135875 -0.000450058 C -0.84874 -0.280376 -1.692098 -0.956577 -2.073973 -2.391772 " transform="matrix(0.8178, -0.557819, -0.557819, -0.8178, 131.498638, 49.391015)"/><path fill="none" stroke="rgb(0%, 0%, 0%)" stroke-linecap="butt" stroke-linejoin="miter" stroke-miterlimit="10" stroke-opacity="1" stroke-width="0.39848" d="M -16.908892 -34.108826 L 6.201386 -34.108826 " transform="matrix(0.989988, 0, 0, -0.989988, 215.755231, 42.142815)"/><path fill="none" stroke="rgb(0%, 0%, 0%)" stroke-linecap="round" stroke-linejoin="round" stroke-miterlimit="10" stroke-opacity="1" stroke-width="0.39848" d="M -2.071351 2.39096 C -1.692559 0.954706 -0.848168 0.279982 0.000169211 -0.000166114 C -0.848168 -0.280315 -1.692559 -0.955038 -2.071351 -2.391293 " transform="matrix(0.989988, 0, 0, -0.989988, 222.093582, 75.909992)"/><path fill="none" stroke="rgb(0%, 0%, 0%)" stroke-linecap="butt" stroke-linejoin="miter" stroke-miterlimit="10" stroke-opacity="1" stroke-width="0.39848" d="M 28.356791 -26.698701 L 54.868308 -8.635042 " transform="matrix(0.989988, 0, 0, -0.989988, 215.755231, 42.142815)"/><path fill="none" stroke="rgb(0%, 0%, 0%)" stroke-linecap="round" stroke-linejoin="round" stroke-miterlimit="10" stroke-opacity="1" stroke-width="0.39848" d="M -2.073194 2.390405 C -1.693635 0.957199 -0.852259 0.278899 -0.001384 -0.0000142016 C -0.84911 -0.277124 -1.694329 -0.957024 -2.073228 -2.389149 " transform="matrix(0.818097, -0.557393, -0.557393, -0.818097, 270.235499, 50.581248)"/><path fill="none" stroke="rgb(0%, 0%, 0%)" stroke-linecap="butt" stroke-linejoin="miter" stroke-miterlimit="10" stroke-opacity="1" stroke-width="0.39848" d="M 140.297816 -34.108826 L 163.412039 -34.108826 " transform="matrix(0.989988, 0, 0, -0.989988, 215.755231, 42.142815)"/><path fill="none" stroke="rgb(0%, 0%, 0%)" stroke-linecap="round" stroke-linejoin="round" stroke-miterlimit="10" stroke-opacity="1" stroke-width="0.39848" d="M -2.073664 2.39096 C -1.694871 0.954706 -0.85048 0.279982 0.00180252 -0.000166114 C -0.85048 -0.280315 -1.694871 -0.955038 -2.073664 -2.391293 " transform="matrix(0.989988, 0, 0, -0.989988, 377.728684, 75.909992)"/></svg>