<?xml version="1.0" encoding="UTF-8"?><svg xmlns="http://www.w3.org/2000/svg" xmlns:xlink="http://www.w3.org/1999/xlink" width="318.872" height="59.283" viewBox="0 0 318.872 59.283"><defs><g><g id="2f7861733e22a3d17efc03629b8f0564pey0jgx7__glyph-0-0"><path d="M 2.984375 -3.109375 L 4.65625 -3.109375 C 6.046875 -3.109375 7.421875 -4.140625 7.421875 -5.234375 C 7.421875 -6 6.765625 -6.71875 5.484375 -6.71875 L 2.296875 -6.71875 C 2.109375 -6.71875 2 -6.71875 2 -6.53125 C 2 -6.421875 2.09375 -6.421875 2.28125 -6.421875 C 2.40625 -6.421875 2.59375 -6.40625 2.703125 -6.40625 C 2.859375 -6.375 2.921875 -6.34375 2.921875 -6.234375 C 2.921875 -6.203125 2.90625 -6.171875 2.890625 -6.046875 L 1.5625 -0.765625 C 1.46875 -0.390625 1.453125 -0.3125 0.671875 -0.3125 C 0.5 -0.3125 0.390625 -0.3125 0.390625 -0.125 C 0.390625 0 0.515625 0 0.546875 0 C 0.8125 0 1.515625 -0.03125 1.796875 -0.03125 C 2 -0.03125 2.21875 -0.015625 2.421875 -0.015625 C 2.640625 -0.015625 2.859375 0 3.0625 0 C 3.125 0 3.265625 0 3.265625 -0.203125 C 3.265625 -0.3125 3.171875 -0.3125 2.984375 -0.3125 C 2.625 -0.3125 2.34375 -0.3125 2.34375 -0.484375 C 2.34375 -0.546875 2.359375 -0.59375 2.375 -0.65625 Z M 3.6875 -6.046875 C 3.78125 -6.390625 3.796875 -6.421875 4.21875 -6.421875 L 5.171875 -6.421875 C 5.984375 -6.421875 6.5 -6.15625 6.5 -5.46875 C 6.5 -5.09375 6.3125 -4.25 5.921875 -3.890625 C 5.4375 -3.453125 4.84375 -3.359375 4.40625 -3.359375 L 3.015625 -3.359375 Z M 3.6875 -6.046875 "/></g><g id="2f7861733e22a3d17efc03629b8f0564pey0jgx7__glyph-1-0"><path d="M 0.84375 -0.4375 C 0.8125 -0.34375 0.765625 -0.171875 0.765625 -0.15625 C 0.765625 0 0.890625 0.0625 1 0.0625 C 1.125 0.0625 1.234375 -0.015625 1.28125 -0.078125 C 1.3125 -0.140625 1.359375 -0.359375 1.40625 -0.515625 C 1.4375 -0.640625 1.515625 -0.953125 1.546875 -1.125 C 1.59375 -1.28125 1.640625 -1.4375 1.671875 -1.59375 C 1.75 -1.875 1.75 -1.921875 1.953125 -2.21875 C 2.15625 -2.484375 2.46875 -2.84375 2.984375 -2.84375 C 3.390625 -2.84375 3.390625 -2.5 3.390625 -2.359375 C 3.390625 -1.953125 3.09375 -1.1875 2.984375 -0.890625 C 2.921875 -0.703125 2.890625 -0.640625 2.890625 -0.53125 C 2.890625 -0.15625 3.1875 0.0625 3.546875 0.0625 C 4.234375 0.0625 4.53125 -0.875 4.53125 -0.984375 C 4.53125 -1.078125 4.4375 -1.078125 4.421875 -1.078125 C 4.328125 -1.078125 4.328125 -1.03125 4.296875 -0.953125 C 4.140625 -0.40625 3.84375 -0.125 3.5625 -0.125 C 3.421875 -0.125 3.390625 -0.21875 3.390625 -0.359375 C 3.390625 -0.53125 3.421875 -0.609375 3.546875 -0.921875 C 3.625 -1.140625 3.90625 -1.875 3.90625 -2.25 C 3.90625 -2.921875 3.390625 -3.03125 3.015625 -3.03125 C 2.453125 -3.03125 2.0625 -2.6875 1.859375 -2.40625 C 1.8125 -2.890625 1.40625 -3.03125 1.109375 -3.03125 C 0.8125 -3.03125 0.65625 -2.828125 0.578125 -2.671875 C 0.421875 -2.40625 0.328125 -2.015625 0.328125 -1.984375 C 0.328125 -1.890625 0.421875 -1.890625 0.4375 -1.890625 C 0.53125 -1.890625 0.546875 -1.921875 0.59375 -2.109375 C 0.703125 -2.515625 0.828125 -2.84375 1.09375 -2.84375 C 1.28125 -2.84375 1.328125 -2.6875 1.328125 -2.515625 C 1.328125 -2.375 1.265625 -2.125 1.21875 -1.9375 C 1.171875 -1.75 1.09375 -1.46875 1.0625 -1.3125 Z M 0.84375 -0.4375 "/></g><g id="2f7861733e22a3d17efc03629b8f0564pey0jgx7__glyph-1-1"><path d="M 2.796875 -2.71875 L 3.484375 -2.71875 C 3.625 -2.71875 3.703125 -2.71875 3.703125 -2.875 C 3.703125 -2.96875 3.625 -2.96875 3.5 -2.96875 L 2.859375 -2.96875 C 3.015625 -3.84375 3.0625 -4.15625 3.125 -4.359375 C 3.15625 -4.515625 3.3125 -4.65625 3.46875 -4.65625 C 3.484375 -4.65625 3.671875 -4.65625 3.796875 -4.578125 C 3.515625 -4.484375 3.5 -4.234375 3.5 -4.203125 C 3.5 -4.046875 3.609375 -3.9375 3.765625 -3.9375 C 3.953125 -3.9375 4.15625 -4.09375 4.15625 -4.359375 C 4.15625 -4.671875 3.828125 -4.84375 3.46875 -4.84375 C 3.171875 -4.84375 2.828125 -4.671875 2.640625 -4.328125 C 2.515625 -4.078125 2.453125 -3.765625 2.3125 -2.96875 L 1.765625 -2.96875 C 1.625 -2.96875 1.53125 -2.96875 1.53125 -2.8125 C 1.53125 -2.71875 1.625 -2.71875 1.75 -2.71875 L 2.265625 -2.71875 C 2.25 -2.6875 1.8125 -0.203125 1.65625 0.53125 C 1.625 0.6875 1.5 1.21875 1.171875 1.21875 C 1.171875 1.21875 1 1.21875 0.875 1.125 C 1.15625 1.046875 1.171875 0.796875 1.171875 0.75 C 1.171875 0.59375 1.046875 0.5 0.890625 0.5 C 0.703125 0.5 0.5 0.65625 0.5 0.921875 C 0.5 1.21875 0.828125 1.40625 1.171875 1.40625 C 1.609375 1.40625 1.921875 0.953125 2 0.796875 C 2.25 0.34375 2.40625 -0.515625 2.421875 -0.59375 Z M 2.796875 -2.71875 "/></g><g id="2f7861733e22a3d17efc03629b8f0564pey0jgx7__glyph-1-2"><path d="M 2.96875 -2.59375 C 2.796875 -2.546875 2.6875 -2.40625 2.6875 -2.265625 C 2.6875 -2.109375 2.8125 -2.046875 2.90625 -2.046875 C 2.984375 -2.046875 3.234375 -2.09375 3.234375 -2.4375 C 3.234375 -2.890625 2.75 -3.03125 2.328125 -3.03125 C 1.25 -3.03125 1.046875 -2.25 1.046875 -2.03125 C 1.046875 -1.78125 1.203125 -1.609375 1.296875 -1.53125 C 1.46875 -1.390625 1.59375 -1.359375 2.078125 -1.28125 C 2.21875 -1.25 2.65625 -1.171875 2.65625 -0.828125 C 2.65625 -0.703125 2.578125 -0.453125 2.296875 -0.28125 C 2.03125 -0.125 1.6875 -0.125 1.609375 -0.125 C 1.328125 -0.125 0.9375 -0.1875 0.78125 -0.40625 C 1 -0.4375 1.15625 -0.609375 1.15625 -0.8125 C 1.15625 -0.984375 1.03125 -1.0625 0.890625 -1.0625 C 0.6875 -1.0625 0.484375 -0.90625 0.484375 -0.59375 C 0.484375 -0.1875 0.9375 0.0625 1.59375 0.0625 C 2.859375 0.0625 3.09375 -0.796875 3.09375 -1.0625 C 3.09375 -1.703125 2.40625 -1.828125 2.15625 -1.875 C 2.09375 -1.890625 1.921875 -1.921875 1.875 -1.921875 C 1.625 -1.984375 1.5 -2.125 1.5 -2.28125 C 1.5 -2.4375 1.625 -2.625 1.765625 -2.71875 C 1.953125 -2.828125 2.203125 -2.84375 2.3125 -2.84375 C 2.453125 -2.84375 2.8125 -2.828125 2.96875 -2.59375 Z M 2.96875 -2.59375 "/></g><g id="2f7861733e22a3d17efc03629b8f0564pey0jgx7__glyph-2-0"><path d="M 3.1875 -1.5625 L 5.296875 -1.5625 C 5.390625 -1.5625 5.546875 -1.5625 5.546875 -1.71875 C 5.546875 -1.890625 5.390625 -1.890625 5.296875 -1.890625 L 3.1875 -1.890625 L 3.1875 -4.015625 C 3.1875 -4.09375 3.1875 -4.265625 3.03125 -4.265625 C 2.859375 -4.265625 2.859375 -4.109375 2.859375 -4.015625 L 2.859375 -1.890625 L 0.734375 -1.890625 C 0.640625 -1.890625 0.484375 -1.890625 0.484375 -1.734375 C 0.484375 -1.5625 0.640625 -1.5625 0.734375 -1.5625 L 2.859375 -1.5625 L 2.859375 0.5625 C 2.859375 0.640625 2.859375 0.8125 3.015625 0.8125 C 3.1875 0.8125 3.1875 0.65625 3.1875 0.5625 Z M 3.1875 -1.5625 "/></g><g id="2f7861733e22a3d17efc03629b8f0564pey0jgx7__glyph-2-1"><path d="M 2.3125 -4.375 C 2.3125 -4.5625 2.296875 -4.578125 2.109375 -4.578125 C 1.65625 -4.140625 1.03125 -4.140625 0.75 -4.140625 L 0.75 -3.890625 C 0.921875 -3.890625 1.375 -3.890625 1.75 -4.078125 L 1.75 -0.5625 C 1.75 -0.34375 1.75 -0.25 1.0625 -0.25 L 0.796875 -0.25 L 0.796875 0 C 0.921875 0 1.765625 -0.03125 2.03125 -0.03125 C 2.234375 -0.03125 3.109375 0 3.265625 0 L 3.265625 -0.25 L 3 -0.25 C 2.3125 -0.25 2.3125 -0.34375 2.3125 -0.5625 Z M 2.3125 -4.375 "/></g><g id="2f7861733e22a3d17efc03629b8f0564pey0jgx7__glyph-2-2"><path d="M 3.484375 -1.25 L 3.25 -1.25 C 3.21875 -1.109375 3.15625 -0.703125 3.0625 -0.625 C 3.015625 -0.578125 2.484375 -0.578125 2.390625 -0.578125 L 1.109375 -0.578125 C 1.84375 -1.21875 2.078125 -1.421875 2.5 -1.75 C 3 -2.15625 3.484375 -2.578125 3.484375 -3.234375 C 3.484375 -4.0625 2.75 -4.578125 1.875 -4.578125 C 1.015625 -4.578125 0.4375 -3.96875 0.4375 -3.34375 C 0.4375 -2.984375 0.734375 -2.953125 0.796875 -2.953125 C 0.96875 -2.953125 1.171875 -3.078125 1.171875 -3.328125 C 1.171875 -3.4375 1.109375 -3.6875 0.765625 -3.6875 C 0.96875 -4.171875 1.4375 -4.328125 1.765625 -4.328125 C 2.453125 -4.328125 2.8125 -3.796875 2.8125 -3.234375 C 2.8125 -2.625 2.390625 -2.15625 2.15625 -1.90625 L 0.5 -0.265625 C 0.4375 -0.203125 0.4375 -0.1875 0.4375 0 L 3.265625 0 Z M 3.484375 -1.25 "/></g><g id="2f7861733e22a3d17efc03629b8f0564pey0jgx7__glyph-3-0"><path d="M 5.125 -1.5625 C 5.234375 -1.5625 5.40625 -1.5625 5.40625 -1.71875 C 5.40625 -1.890625 5.25 -1.890625 5.125 -1.890625 L 1.015625 -1.890625 C 0.90625 -1.890625 0.75 -1.890625 0.75 -1.734375 C 0.75 -1.5625 0.90625 -1.5625 1.015625 -1.5625 Z M 5.125 -1.5625 "/></g><g id="2f7861733e22a3d17efc03629b8f0564pey0jgx7__glyph-3-1"><path d="M 2 -3.25 C 2.046875 -3.375 2.0625 -3.421875 2.0625 -3.46875 C 2.0625 -3.6875 1.875 -3.859375 1.65625 -3.859375 C 1.390625 -3.859375 1.3125 -3.640625 1.28125 -3.53125 L 0.359375 -0.546875 C 0.359375 -0.53125 0.328125 -0.4375 0.328125 -0.4375 C 0.328125 -0.34375 0.546875 -0.28125 0.59375 -0.28125 C 0.640625 -0.28125 0.65625 -0.296875 0.703125 -0.40625 Z M 2 -3.25 "/></g><g id="2f7861733e22a3d17efc03629b8f0564pey0jgx7__glyph-4-0"><path d="M 0.953125 -0.484375 C 0.9375 -0.359375 0.875 -0.140625 0.875 -0.125 C 0.875 -0.015625 0.96875 0.046875 1.0625 0.046875 C 1.125 0.046875 1.234375 0.015625 1.296875 -0.109375 C 1.296875 -0.140625 1.359375 -0.359375 1.390625 -0.5 C 1.5625 -1.15625 1.5625 -1.171875 1.5625 -1.1875 C 1.625 -1.3125 1.984375 -2.015625 2.578125 -2.015625 C 2.828125 -2.015625 2.921875 -1.875 2.921875 -1.65625 C 2.921875 -1.375 2.71875 -0.859375 2.609375 -0.578125 C 2.578125 -0.53125 2.5625 -0.46875 2.5625 -0.375 C 2.5625 -0.125 2.8125 0.046875 3.09375 0.046875 C 3.625 0.046875 3.890625 -0.578125 3.890625 -0.703125 C 3.890625 -0.78125 3.8125 -0.78125 3.796875 -0.78125 C 3.703125 -0.78125 3.703125 -0.765625 3.671875 -0.671875 C 3.578125 -0.375 3.359375 -0.109375 3.109375 -0.109375 C 3 -0.109375 2.96875 -0.1875 2.96875 -0.296875 C 2.96875 -0.40625 2.984375 -0.453125 3.03125 -0.5625 C 3.109375 -0.765625 3.34375 -1.3125 3.34375 -1.59375 C 3.34375 -1.953125 3.078125 -2.171875 2.609375 -2.171875 C 2.171875 -2.171875 1.859375 -1.90625 1.6875 -1.6875 C 1.65625 -2.09375 1.265625 -2.171875 1.078125 -2.171875 C 0.59375 -2.171875 0.453125 -1.421875 0.453125 -1.40625 C 0.453125 -1.34375 0.53125 -1.34375 0.546875 -1.34375 C 0.640625 -1.34375 0.640625 -1.375 0.671875 -1.4375 C 0.734375 -1.71875 0.84375 -2.015625 1.0625 -2.015625 C 1.21875 -2.015625 1.265625 -1.84375 1.265625 -1.75 C 1.265625 -1.671875 1.203125 -1.484375 1.1875 -1.359375 C 1.140625 -1.234375 1.09375 -1.03125 1.078125 -0.921875 Z M 0.953125 -0.484375 "/></g><g id="2f7861733e22a3d17efc03629b8f0564pey0jgx7__glyph-5-0"><path d="M 2.671875 -1.09375 L 4.375 -1.09375 C 4.4375 -1.09375 4.578125 -1.09375 4.578125 -1.234375 C 4.578125 -1.375 4.4375 -1.375 4.375 -1.375 L 2.671875 -1.375 L 2.671875 -3.078125 C 2.671875 -3.15625 2.671875 -3.28125 2.53125 -3.28125 C 2.390625 -3.28125 2.390625 -3.15625 2.390625 -3.078125 L 2.390625 -1.375 L 0.671875 -1.375 C 0.609375 -1.375 0.484375 -1.375 0.484375 -1.234375 C 0.484375 -1.09375 0.609375 -1.09375 0.671875 -1.09375 L 2.390625 -1.09375 L 2.390625 0.625 C 2.390625 0.6875 2.390625 0.828125 2.53125 0.828125 C 2.671875 0.828125 2.671875 0.6875 2.671875 0.625 Z M 2.671875 -1.09375 "/></g><g id="2f7861733e22a3d17efc03629b8f0564pey0jgx7__glyph-5-1"><path d="M 1.953125 -3.125 C 1.953125 -3.28125 1.9375 -3.28125 1.78125 -3.28125 C 1.4375 -2.96875 0.890625 -2.96875 0.78125 -2.96875 L 0.703125 -2.96875 L 0.703125 -2.75 L 0.78125 -2.75 C 0.90625 -2.75 1.21875 -2.765625 1.5 -2.890625 L 1.5 -0.421875 C 1.5 -0.265625 1.5 -0.21875 0.984375 -0.21875 L 0.734375 -0.21875 L 0.734375 0 C 1.015625 -0.015625 1.453125 -0.015625 1.734375 -0.015625 C 2.015625 -0.015625 2.453125 -0.015625 2.734375 0 L 2.734375 -0.21875 L 2.484375 -0.21875 C 1.953125 -0.21875 1.953125 -0.265625 1.953125 -0.421875 Z M 1.953125 -3.125 "/></g><g id="2f7861733e22a3d17efc03629b8f0564pey0jgx7__glyph-6-0"><path d="M 4.328125 -1.09375 C 4.40625 -1.09375 4.546875 -1.09375 4.546875 -1.234375 C 4.546875 -1.375 4.40625 -1.375 4.328125 -1.375 L 1 -1.375 C 0.921875 -1.375 0.78125 -1.375 0.78125 -1.234375 C 0.78125 -1.09375 0.921875 -1.09375 1 -1.09375 Z M 4.328125 -1.09375 "/></g><g id="2f7861733e22a3d17efc03629b8f0564pey0jgx7__glyph-6-1"><path d="M 1.765625 -2.28125 C 1.78125 -2.296875 1.828125 -2.390625 1.828125 -2.46875 C 1.828125 -2.640625 1.65625 -2.75 1.515625 -2.75 C 1.3125 -2.75 1.265625 -2.59375 1.234375 -2.53125 L 0.484375 -0.390625 C 0.453125 -0.328125 0.453125 -0.3125 0.453125 -0.3125 C 0.453125 -0.234375 0.671875 -0.1875 0.671875 -0.1875 C 0.71875 -0.1875 0.71875 -0.21875 0.75 -0.265625 Z M 1.765625 -2.28125 "/></g></g></defs><g fill="rgb(0%, 0%, 0%)" fill-opacity="1"><use xlink:href="#2f7861733e22a3d17efc03629b8f0564pey0jgx7__glyph-0-0" x="37.369339" y="13.485894"/></g><g fill="rgb(0%, 0%, 0%)" fill-opacity="1"><use xlink:href="#2f7861733e22a3d17efc03629b8f0564pey0jgx7__glyph-1-0" x="43.688907" y="14.962041"/></g><g fill="rgb(0%, 0%, 0%)" fill-opacity="1"><use xlink:href="#2f7861733e22a3d17efc03629b8f0564pey0jgx7__glyph-2-0" x="48.554952" y="14.962041"/><use xlink:href="#2f7861733e22a3d17efc03629b8f0564pey0jgx7__glyph-2-1" x="54.597888" y="14.962041"/></g><g fill="rgb(0%, 0%, 0%)" fill-opacity="1"><use xlink:href="#2f7861733e22a3d17efc03629b8f0564pey0jgx7__glyph-0-0" x="114.739582" y="13.485894"/></g><g fill="rgb(0%, 0%, 0%)" fill-opacity="1"><use xlink:href="#2f7861733e22a3d17efc03629b8f0564pey0jgx7__glyph-1-0" x="121.05915" y="14.962041"/></g><g fill="rgb(0%, 0%, 0%)" fill-opacity="1"><use xlink:href="#2f7861733e22a3d17efc03629b8f0564pey0jgx7__glyph-0-0" x="182.142377" y="13.485894"/></g><g fill="rgb(0%, 0%, 0%)" fill-opacity="1"><use xlink:href="#2f7861733e22a3d17efc03629b8f0564pey0jgx7__glyph-1-0" x="188.461945" y="14.962041"/></g><g fill="rgb(0%, 0%, 0%)" fill-opacity="1"><use xlink:href="#2f7861733e22a3d17efc03629b8f0564pey0jgx7__glyph-3-0" x="193.32799" y="14.962041"/></g><g fill="rgb(0%, 0%, 0%)" fill-opacity="1"><use xlink:href="#2f7861733e22a3d17efc03629b8f0564pey0jgx7__glyph-2-1" x="199.480484" y="14.962041"/></g><g fill="rgb(0%, 0%, 0%)" fill-opacity="1"><use xlink:href="#2f7861733e22a3d17efc03629b8f0564pey0jgx7__glyph-0-0" x="259.622294" y="13.485894"/></g><g fill="rgb(0%, 0%, 0%)" fill-opacity="1"><use xlink:href="#2f7861733e22a3d17efc03629b8f0564pey0jgx7__glyph-1-0" x="265.941862" y="14.962041"/></g><g fill="rgb(0%, 0%, 0%)" fill-opacity="1"><use xlink:href="#2f7861733e22a3d17efc03629b8f0564pey0jgx7__glyph-3-0" x="270.807907" y="14.962041"/></g><g fill="rgb(0%, 0%, 0%)" fill-opacity="1"><use xlink:href="#2f7861733e22a3d17efc03629b8f0564pey0jgx7__glyph-2-2" x="276.960401" y="14.962041"/></g><g fill="rgb(0%, 0%, 0%)" fill-opacity="1"><use xlink:href="#2f7861733e22a3d17efc03629b8f0564pey0jgx7__glyph-0-0" x="37.369339" y="48.106178"/></g><g fill="rgb(0%, 0%, 0%)" fill-opacity="1"><use xlink:href="#2f7861733e22a3d17efc03629b8f0564pey0jgx7__glyph-1-0" x="43.688907" y="49.583313"/></g><g fill="rgb(0%, 0%, 0%)" fill-opacity="1"><use xlink:href="#2f7861733e22a3d17efc03629b8f0564pey0jgx7__glyph-2-0" x="48.554952" y="49.583313"/><use xlink:href="#2f7861733e22a3d17efc03629b8f0564pey0jgx7__glyph-2-1" x="54.597888" y="49.583313"/></g><g fill="rgb(0%, 0%, 0%)" fill-opacity="1"><use xlink:href="#2f7861733e22a3d17efc03629b8f0564pey0jgx7__glyph-0-0" x="114.739582" y="48.106178"/></g><g fill="rgb(0%, 0%, 0%)" fill-opacity="1"><use xlink:href="#2f7861733e22a3d17efc03629b8f0564pey0jgx7__glyph-3-1" x="122.426611" y="44.534378"/></g><g fill="rgb(0%, 0%, 0%)" fill-opacity="1"><use xlink:href="#2f7861733e22a3d17efc03629b8f0564pey0jgx7__glyph-1-0" x="121.05915" y="50.539746"/></g><g fill="rgb(0%, 0%, 0%)" fill-opacity="1"><use xlink:href="#2f7861733e22a3d17efc03629b8f0564pey0jgx7__glyph-0-0" x="182.142377" y="48.106178"/></g><g fill="rgb(0%, 0%, 0%)" fill-opacity="1"><use xlink:href="#2f7861733e22a3d17efc03629b8f0564pey0jgx7__glyph-3-1" x="189.829406" y="44.534378"/></g><g fill="rgb(0%, 0%, 0%)" fill-opacity="1"><use xlink:href="#2f7861733e22a3d17efc03629b8f0564pey0jgx7__glyph-1-0" x="188.461945" y="50.549626"/></g><g fill="rgb(0%, 0%, 0%)" fill-opacity="1"><use xlink:href="#2f7861733e22a3d17efc03629b8f0564pey0jgx7__glyph-3-0" x="193.32799" y="50.549626"/></g><g fill="rgb(0%, 0%, 0%)" fill-opacity="1"><use xlink:href="#2f7861733e22a3d17efc03629b8f0564pey0jgx7__glyph-2-1" x="199.480484" y="50.549626"/></g><g fill="rgb(0%, 0%, 0%)" fill-opacity="1"><use xlink:href="#2f7861733e22a3d17efc03629b8f0564pey0jgx7__glyph-0-0" x="259.622294" y="48.106178"/></g><g fill="rgb(0%, 0%, 0%)" fill-opacity="1"><use xlink:href="#2f7861733e22a3d17efc03629b8f0564pey0jgx7__glyph-3-1" x="267.309323" y="44.534378"/></g><g fill="rgb(0%, 0%, 0%)" fill-opacity="1"><use xlink:href="#2f7861733e22a3d17efc03629b8f0564pey0jgx7__glyph-1-0" x="265.941862" y="50.549626"/></g><g fill="rgb(0%, 0%, 0%)" fill-opacity="1"><use xlink:href="#2f7861733e22a3d17efc03629b8f0564pey0jgx7__glyph-3-0" x="270.807907" y="50.549626"/></g><g fill="rgb(0%, 0%, 0%)" fill-opacity="1"><use xlink:href="#2f7861733e22a3d17efc03629b8f0564pey0jgx7__glyph-2-2" x="276.960401" y="50.549626"/></g><path fill="none" stroke="rgb(0%, 0%, 0%)" stroke-linecap="butt" stroke-linejoin="miter" stroke-miterlimit="10" stroke-opacity="1" stroke-width="0.39848" d="M -97.083696 18.259239 L -50.060836 18.259239 " transform="matrix(0.98805, 0, 0, -0.98805, 159.372765, 29.064479)"/><path fill="none" stroke="rgb(0%, 0%, 0%)" stroke-linecap="round" stroke-linejoin="round" stroke-miterlimit="10" stroke-opacity="1" stroke-width="0.39848" d="M -2.073002 2.389 C -1.693466 0.957835 -0.851372 0.277834 -0.00137082 0.00108921 C -0.851372 -0.279609 -1.693466 -0.955656 -2.073002 -2.390775 " transform="matrix(0.98805, 0, 0, -0.98805, 110.106823, 11.024514)"/><g fill="rgb(0%, 0%, 0%)" fill-opacity="1"><use xlink:href="#2f7861733e22a3d17efc03629b8f0564pey0jgx7__glyph-1-1" x="78.33982" y="6.904493"/></g><g fill="rgb(0%, 0%, 0%)" fill-opacity="1"><use xlink:href="#2f7861733e22a3d17efc03629b8f0564pey0jgx7__glyph-4-0" x="82.177406" y="7.888591"/></g><g fill="rgb(0%, 0%, 0%)" fill-opacity="1"><use xlink:href="#2f7861733e22a3d17efc03629b8f0564pey0jgx7__glyph-5-0" x="86.512504" y="7.888591"/><use xlink:href="#2f7861733e22a3d17efc03629b8f0564pey0jgx7__glyph-5-1" x="91.571103" y="7.888591"/></g><path fill="none" stroke="rgb(0%, 0%, 0%)" stroke-linecap="butt" stroke-linejoin="miter" stroke-miterlimit="10" stroke-opacity="1" stroke-width="0.39848" d="M -117.333494 9.597133 L -117.333494 -8.221265 " transform="matrix(0.98805, 0, 0, -0.98805, 159.372765, 29.064479)"/><path fill="none" stroke="rgb(0%, 0%, 0%)" stroke-linecap="round" stroke-linejoin="round" stroke-miterlimit="10" stroke-opacity="1" stroke-width="0.39848" d="M -2.072441 2.38994 C -1.692906 0.954822 -0.850811 0.278774 -0.000809967 -0.0019238 C -0.850811 -0.278668 -1.692906 -0.954716 -2.072441 -2.389834 " transform="matrix(0, 0.98805, 0.98805, 0, 43.443307, 37.383613)"/><path fill="none" stroke="rgb(0%, 0%, 0%)" stroke-linecap="butt" stroke-linejoin="miter" stroke-miterlimit="10" stroke-opacity="1" stroke-width="0.39848" d="M -107.722549 9.597133 L -107.722549 -8.221265 " transform="matrix(0.98805, 0, 0, -0.98805, 159.372765, 29.064479)"/><path fill="none" stroke="rgb(0%, 0%, 0%)" stroke-linecap="round" stroke-linejoin="round" stroke-miterlimit="10" stroke-opacity="1" stroke-width="0.39848" d="M -2.072441 2.392445 C -1.692906 0.957326 -0.850811 0.277325 -0.000809967 0.000580736 C -0.850811 -0.280117 -1.692906 -0.956165 -2.072441 -2.391283 " transform="matrix(0, 0.98805, 0.98805, 0, 52.936926, 37.383613)"/><path fill="none" stroke="rgb(0%, 0%, 0%)" stroke-linecap="butt" stroke-linejoin="miter" stroke-miterlimit="10" stroke-opacity="1" stroke-width="0.39848" d="M -28.866153 18.259239 L 18.156708 18.259239 " transform="matrix(0.98805, 0, 0, -0.98805, 159.372765, 29.064479)"/><path fill="none" stroke="rgb(0%, 0%, 0%)" stroke-linecap="round" stroke-linejoin="round" stroke-miterlimit="10" stroke-opacity="1" stroke-width="0.39848" d="M -2.071035 2.389 C -1.695453 0.957835 -0.849405 0.277834 0.000596066 0.00108921 C -0.849405 -0.279609 -1.695453 -0.955656 -2.071035 -2.390775 " transform="matrix(0.98805, 0, 0, -0.98805, 177.51113, 11.024514)"/><g fill="rgb(0%, 0%, 0%)" fill-opacity="1"><use xlink:href="#2f7861733e22a3d17efc03629b8f0564pey0jgx7__glyph-1-1" x="149.946768" y="7.368877"/></g><g fill="rgb(0%, 0%, 0%)" fill-opacity="1"><use xlink:href="#2f7861733e22a3d17efc03629b8f0564pey0jgx7__glyph-4-0" x="153.785342" y="8.353963"/></g><path fill="none" stroke="rgb(0%, 0%, 0%)" stroke-dasharray="2.78941 1.59395" stroke-linecap="butt" stroke-linejoin="miter" stroke-miterlimit="10" stroke-opacity="1" stroke-width="0.39848" d="M -49.661533 13.285743 L -96.723928 -9.225453 " transform="matrix(0.98805, 0, 0, -0.98805, 159.372765, 29.064479)"/><path fill="none" stroke="rgb(0%, 0%, 0%)" stroke-linecap="round" stroke-linejoin="round" stroke-miterlimit="10" stroke-opacity="1" stroke-width="0.39848" d="M -2.073205 2.390502 C -1.694411 0.955871 -0.847874 0.279236 0.000539902 0.000528544 C -0.852239 -0.27966 -1.692783 -0.955761 -2.072625 -2.391292 " transform="matrix(-0.89129, 0.426314, 0.426314, 0.89129, 63.625256, 38.264924)"/><g fill="rgb(0%, 0%, 0%)" fill-opacity="1"><use xlink:href="#2f7861733e22a3d17efc03629b8f0564pey0jgx7__glyph-1-2" x="67.609597" y="23.023541"/></g><g fill="rgb(0%, 0%, 0%)" fill-opacity="1"><use xlink:href="#2f7861733e22a3d17efc03629b8f0564pey0jgx7__glyph-4-0" x="71.324665" y="24.007639"/></g><g fill="rgb(0%, 0%, 0%)" fill-opacity="1"><use xlink:href="#2f7861733e22a3d17efc03629b8f0564pey0jgx7__glyph-5-0" x="75.659763" y="24.007639"/><use xlink:href="#2f7861733e22a3d17efc03629b8f0564pey0jgx7__glyph-5-1" x="80.718362" y="24.007639"/></g><path fill="none" stroke="rgb(0%, 0%, 0%)" stroke-linecap="butt" stroke-linejoin="miter" stroke-miterlimit="10" stroke-opacity="1" stroke-width="0.39848" d="M -41.667567 10.427367 L -41.667567 -7.537311 " transform="matrix(0.98805, 0, 0, -0.98805, 159.372765, 29.064479)"/><path fill="none" stroke="rgb(0%, 0%, 0%)" stroke-linecap="round" stroke-linejoin="round" stroke-miterlimit="10" stroke-opacity="1" stroke-width="0.39848" d="M -2.070492 2.390537 C -1.69491 0.955418 -0.848862 0.279371 0.00113902 -0.00132723 C -0.848862 -0.278072 -1.69491 -0.958073 -2.070492 -2.389238 " transform="matrix(0, 0.98805, 0.98805, 0, 118.204436, 36.709812)"/><path fill="none" stroke="rgb(0%, 0%, 0%)" stroke-linecap="butt" stroke-linejoin="miter" stroke-miterlimit="10" stroke-opacity="1" stroke-width="0.39848" d="M -36.860118 10.427367 L -36.860118 -7.537311 " transform="matrix(0.98805, 0, 0, -0.98805, 159.372765, 29.064479)"/><path fill="none" stroke="rgb(0%, 0%, 0%)" stroke-linecap="round" stroke-linejoin="round" stroke-miterlimit="10" stroke-opacity="1" stroke-width="0.39848" d="M -2.070492 2.389822 C -1.69491 0.954704 -0.848862 0.278656 0.00113902 0.00191179 C -0.848862 -0.278786 -1.69491 -0.954834 -2.070492 -2.389952 " transform="matrix(0, 0.98805, 0.98805, 0, 122.951236, 36.709812)"/><path fill="none" stroke="rgb(0%, 0%, 0%)" stroke-linecap="butt" stroke-linejoin="miter" stroke-miterlimit="10" stroke-opacity="1" stroke-width="0.39848" d="M 49.551406 18.259239 L 96.574266 18.259239 " transform="matrix(0.98805, 0, 0, -0.98805, 159.372765, 29.064479)"/><path fill="none" stroke="rgb(0%, 0%, 0%)" stroke-linecap="round" stroke-linejoin="round" stroke-miterlimit="10" stroke-opacity="1" stroke-width="0.39848" d="M -2.071066 2.389 C -1.695484 0.957835 -0.849437 0.277834 0.000564641 0.00108921 C -0.849437 -0.279609 -1.695484 -0.955656 -2.071066 -2.390775 " transform="matrix(0.98805, 0, 0, -0.98805, 254.99163, 11.024514)"/><g fill="rgb(0%, 0%, 0%)" fill-opacity="1"><use xlink:href="#2f7861733e22a3d17efc03629b8f0564pey0jgx7__glyph-1-1" x="223.086181" y="6.904493"/></g><g fill="rgb(0%, 0%, 0%)" fill-opacity="1"><use xlink:href="#2f7861733e22a3d17efc03629b8f0564pey0jgx7__glyph-4-0" x="226.923767" y="7.888591"/></g><g fill="rgb(0%, 0%, 0%)" fill-opacity="1"><use xlink:href="#2f7861733e22a3d17efc03629b8f0564pey0jgx7__glyph-6-0" x="231.258865" y="7.888591"/></g><g fill="rgb(0%, 0%, 0%)" fill-opacity="1"><use xlink:href="#2f7861733e22a3d17efc03629b8f0564pey0jgx7__glyph-5-1" x="236.590622" y="7.888591"/></g><path fill="none" stroke="rgb(0%, 0%, 0%)" stroke-linecap="butt" stroke-linejoin="miter" stroke-miterlimit="10" stroke-opacity="1" stroke-width="0.39848" d="M 18.556011 10.854344 L -28.506385 -11.644991 " transform="matrix(0.98805, 0, 0, -0.98805, 159.372765, 29.064479)"/><path fill="none" stroke="rgb(0%, 0%, 0%)" stroke-linecap="round" stroke-linejoin="round" stroke-miterlimit="10" stroke-opacity="1" stroke-width="0.39848" d="M -2.070985 2.39113 C -1.691906 0.956566 -0.850504 0.278232 -0.00203026 -0.000309974 C -0.849486 -0.278807 -1.695174 -0.956938 -2.07303 -2.388984 " transform="matrix(-0.891369, 0.426136, 0.426136, 0.891369, 131.029572, 40.653485)"/><g fill="rgb(0%, 0%, 0%)" fill-opacity="1"><use xlink:href="#2f7861733e22a3d17efc03629b8f0564pey0jgx7__glyph-1-2" x="143.421686" y="26.238656"/></g><g fill="rgb(0%, 0%, 0%)" fill-opacity="1"><use xlink:href="#2f7861733e22a3d17efc03629b8f0564pey0jgx7__glyph-4-0" x="147.136754" y="27.222754"/></g><path fill="none" stroke="rgb(0%, 0%, 0%)" stroke-linecap="butt" stroke-linejoin="miter" stroke-miterlimit="10" stroke-opacity="1" stroke-width="0.39848" d="M 36.457433 9.597133 L 36.457433 -7.537311 " transform="matrix(0.98805, 0, 0, -0.98805, 159.372765, 29.064479)"/><path fill="none" stroke="rgb(0%, 0%, 0%)" stroke-linecap="round" stroke-linejoin="round" stroke-miterlimit="10" stroke-opacity="1" stroke-width="0.39848" d="M -2.070492 2.392767 C -1.69491 0.957648 -0.848862 0.277647 0.00113902 0.000902772 C -0.848862 -0.279795 -1.69491 -0.955843 -2.070492 -2.390961 " transform="matrix(0, 0.98805, 0.98805, 0, 195.393639, 36.709812)"/><path fill="none" stroke="rgb(0%, 0%, 0%)" stroke-linecap="butt" stroke-linejoin="miter" stroke-miterlimit="10" stroke-opacity="1" stroke-width="0.39848" d="M 31.653937 9.597133 L 31.653937 -7.537311 " transform="matrix(0.98805, 0, 0, -0.98805, 159.372765, 29.064479)"/><path fill="none" stroke="rgb(0%, 0%, 0%)" stroke-linecap="round" stroke-linejoin="round" stroke-miterlimit="10" stroke-opacity="1" stroke-width="0.39848" d="M -2.070492 2.389548 C -1.69491 0.954429 -0.848862 0.278382 0.00113902 0.00163725 C -0.848862 -0.279061 -1.69491 -0.955108 -2.070492 -2.390227 " transform="matrix(0, 0.98805, 0.98805, 0, 190.64682, 36.709812)"/><path fill="none" stroke="rgb(0%, 0%, 0%)" stroke-linecap="butt" stroke-linejoin="miter" stroke-miterlimit="10" stroke-opacity="1" stroke-width="0.39848" d="M 96.973569 11.336671 L 49.915127 -9.699872 " transform="matrix(0.98805, 0, 0, -0.98805, 159.372765, 29.064479)"/><path fill="none" stroke="rgb(0%, 0%, 0%)" stroke-linecap="round" stroke-linejoin="round" stroke-miterlimit="10" stroke-opacity="1" stroke-width="0.39848" d="M -2.070233 2.391453 C -1.694762 0.954717 -0.849587 0.278093 -0.000351399 -0.00192195 C -0.851988 -0.279494 -1.691634 -0.956519 -2.072054 -2.388824 " transform="matrix(-0.901991, 0.403203, 0.403203, 0.901991, 208.512177, 38.728438)"/><g fill="rgb(0%, 0%, 0%)" fill-opacity="1"><use xlink:href="#2f7861733e22a3d17efc03629b8f0564pey0jgx7__glyph-1-2" x="212.219607" y="24.215129"/></g><g fill="rgb(0%, 0%, 0%)" fill-opacity="1"><use xlink:href="#2f7861733e22a3d17efc03629b8f0564pey0jgx7__glyph-4-0" x="215.934675" y="25.200215"/></g><g fill="rgb(0%, 0%, 0%)" fill-opacity="1"><use xlink:href="#2f7861733e22a3d17efc03629b8f0564pey0jgx7__glyph-6-0" x="220.269773" y="25.200215"/></g><g fill="rgb(0%, 0%, 0%)" fill-opacity="1"><use xlink:href="#2f7861733e22a3d17efc03629b8f0564pey0jgx7__glyph-5-1" x="225.60153" y="25.200215"/></g><path fill="none" stroke="rgb(0%, 0%, 0%)" stroke-linecap="butt" stroke-linejoin="miter" stroke-miterlimit="10" stroke-opacity="1" stroke-width="0.39848" d="M 114.874991 9.597133 L 114.874991 -7.537311 " transform="matrix(0.98805, 0, 0, -0.98805, 159.372765, 29.064479)"/><path fill="none" stroke="rgb(0%, 0%, 0%)" stroke-linecap="round" stroke-linejoin="round" stroke-miterlimit="10" stroke-opacity="1" stroke-width="0.39848" d="M -2.070492 2.392755 C -1.69491 0.957637 -0.848862 0.277636 0.00113902 0.000891347 C -0.848862 -0.279807 -1.69491 -0.955854 -2.070492 -2.390973 " transform="matrix(0, 0.98805, 0.98805, 0, 272.874119, 36.709812)"/><path fill="none" stroke="rgb(0%, 0%, 0%)" stroke-linecap="butt" stroke-linejoin="miter" stroke-miterlimit="10" stroke-opacity="1" stroke-width="0.39848" d="M 110.071496 9.597133 L 110.071496 -7.537311 " transform="matrix(0.98805, 0, 0, -0.98805, 159.372765, 29.064479)"/><path fill="none" stroke="rgb(0%, 0%, 0%)" stroke-linecap="round" stroke-linejoin="round" stroke-miterlimit="10" stroke-opacity="1" stroke-width="0.39848" d="M -2.070492 2.389516 C -1.69491 0.954398 -0.848862 0.27835 0.00113902 0.00160583 C -0.848862 -0.279092 -1.69491 -0.95514 -2.070492 -2.390258 " transform="matrix(0, 0.98805, 0.98805, 0, 268.12732, 36.709812)"/><path fill="none" stroke="rgb(0%, 0%, 0%)" stroke-linecap="butt" stroke-linejoin="miter" stroke-miterlimit="10" stroke-opacity="1" stroke-width="0.39848" d="M -97.083696 -16.78058 L -50.060836 -16.78058 " transform="matrix(0.98805, 0, 0, -0.98805, 159.372765, 29.064479)"/><path fill="none" stroke="rgb(0%, 0%, 0%)" stroke-linecap="round" stroke-linejoin="round" stroke-miterlimit="10" stroke-opacity="1" stroke-width="0.39848" d="M -2.073002 2.392824 C -1.693466 0.957705 -0.851372 0.277704 -0.00137082 0.000959614 C -0.851372 -0.279738 -1.693466 -0.955786 -2.073002 -2.390904 " transform="matrix(0.98805, 0, 0, -0.98805, 110.106823, 45.645479)"/><g fill="rgb(0%, 0%, 0%)" fill-opacity="1"><use xlink:href="#2f7861733e22a3d17efc03629b8f0564pey0jgx7__glyph-1-1" x="78.33982" y="53.665936"/></g><g fill="rgb(0%, 0%, 0%)" fill-opacity="1"><use xlink:href="#2f7861733e22a3d17efc03629b8f0564pey0jgx7__glyph-6-1" x="82.950061" y="50.695857"/></g><g fill="rgb(0%, 0%, 0%)" fill-opacity="1"><use xlink:href="#2f7861733e22a3d17efc03629b8f0564pey0jgx7__glyph-4-0" x="82.178394" y="55.635119"/></g><g fill="rgb(0%, 0%, 0%)" fill-opacity="1"><use xlink:href="#2f7861733e22a3d17efc03629b8f0564pey0jgx7__glyph-5-0" x="86.513492" y="55.635119"/><use xlink:href="#2f7861733e22a3d17efc03629b8f0564pey0jgx7__glyph-5-1" x="91.572091" y="55.635119"/></g><path fill="none" stroke="rgb(0%, 0%, 0%)" stroke-linecap="butt" stroke-linejoin="miter" stroke-miterlimit="10" stroke-opacity="1" stroke-width="0.39848" d="M -28.866153 -16.78058 L 18.156708 -16.78058 " transform="matrix(0.98805, 0, 0, -0.98805, 159.372765, 29.064479)"/><path fill="none" stroke="rgb(0%, 0%, 0%)" stroke-linecap="round" stroke-linejoin="round" stroke-miterlimit="10" stroke-opacity="1" stroke-width="0.39848" d="M -2.071035 2.392824 C -1.695453 0.957705 -0.849405 0.277704 0.000596066 0.000959614 C -0.849405 -0.279738 -1.695453 -0.955786 -2.071035 -2.390904 " transform="matrix(0.98805, 0, 0, -0.98805, 177.51113, 45.645479)"/><g fill="rgb(0%, 0%, 0%)" fill-opacity="1"><use xlink:href="#2f7861733e22a3d17efc03629b8f0564pey0jgx7__glyph-1-1" x="149.946768" y="53.665936"/></g><g fill="rgb(0%, 0%, 0%)" fill-opacity="1"><use xlink:href="#2f7861733e22a3d17efc03629b8f0564pey0jgx7__glyph-6-1" x="154.557997" y="50.695857"/></g><g fill="rgb(0%, 0%, 0%)" fill-opacity="1"><use xlink:href="#2f7861733e22a3d17efc03629b8f0564pey0jgx7__glyph-4-0" x="153.785342" y="55.635119"/></g><path fill="none" stroke="rgb(0%, 0%, 0%)" stroke-linecap="butt" stroke-linejoin="miter" stroke-miterlimit="10" stroke-opacity="1" stroke-width="0.39848" d="M 49.551406 -16.78058 L 96.574266 -16.78058 " transform="matrix(0.98805, 0, 0, -0.98805, 159.372765, 29.064479)"/><path fill="none" stroke="rgb(0%, 0%, 0%)" stroke-linecap="round" stroke-linejoin="round" stroke-miterlimit="10" stroke-opacity="1" stroke-width="0.39848" d="M -2.071066 2.392824 C -1.695484 0.957705 -0.849437 0.277704 0.000564641 0.000959614 C -0.849437 -0.279738 -1.695484 -0.955786 -2.071066 -2.390904 " transform="matrix(0.98805, 0, 0, -0.98805, 254.99163, 45.645479)"/><g fill="rgb(0%, 0%, 0%)" fill-opacity="1"><use xlink:href="#2f7861733e22a3d17efc03629b8f0564pey0jgx7__glyph-1-1" x="223.086181" y="53.665936"/></g><g fill="rgb(0%, 0%, 0%)" fill-opacity="1"><use xlink:href="#2f7861733e22a3d17efc03629b8f0564pey0jgx7__glyph-6-1" x="227.696422" y="50.695857"/></g><g fill="rgb(0%, 0%, 0%)" fill-opacity="1"><use xlink:href="#2f7861733e22a3d17efc03629b8f0564pey0jgx7__glyph-4-0" x="226.923767" y="55.635119"/></g><g fill="rgb(0%, 0%, 0%)" fill-opacity="1"><use xlink:href="#2f7861733e22a3d17efc03629b8f0564pey0jgx7__glyph-6-0" x="231.258865" y="55.635119"/></g><g fill="rgb(0%, 0%, 0%)" fill-opacity="1"><use xlink:href="#2f7861733e22a3d17efc03629b8f0564pey0jgx7__glyph-5-1" x="236.590622" y="55.635119"/></g></svg>