<?xml version="1.0" encoding="UTF-8"?><svg xmlns="http://www.w3.org/2000/svg" xmlns:xlink="http://www.w3.org/1999/xlink" width="479.451" height="59.283" viewBox="0 0 479.451 59.283"><defs><g><g id="4021f679ad2efa1c1a0583fa86aebfdc1idqxwa9__glyph-0-0"><path d="M 1.890625 -2.46875 C 1.890625 -2.75 1.65625 -2.984375 1.375 -2.984375 C 1.078125 -2.984375 0.84375 -2.75 0.84375 -2.46875 C 0.84375 -2.171875 1.078125 -1.9375 1.375 -1.9375 C 1.65625 -1.9375 1.890625 -2.171875 1.890625 -2.46875 Z M 1.890625 -2.46875 "/></g><g id="4021f679ad2efa1c1a0583fa86aebfdc1idqxwa9__glyph-1-0"><path d="M 2.984375 -3.109375 L 4.65625 -3.109375 C 6.046875 -3.109375 7.421875 -4.140625 7.421875 -5.234375 C 7.421875 -6 6.765625 -6.71875 5.484375 -6.71875 L 2.296875 -6.71875 C 2.109375 -6.71875 2 -6.71875 2 -6.53125 C 2 -6.421875 2.09375 -6.421875 2.28125 -6.421875 C 2.40625 -6.421875 2.59375 -6.40625 2.703125 -6.40625 C 2.859375 -6.375 2.921875 -6.34375 2.921875 -6.234375 C 2.921875 -6.203125 2.90625 -6.171875 2.890625 -6.046875 L 1.5625 -0.765625 C 1.46875 -0.390625 1.453125 -0.3125 0.671875 -0.3125 C 0.5 -0.3125 0.390625 -0.3125 0.390625 -0.125 C 0.390625 0 0.515625 0 0.546875 0 C 0.8125 0 1.515625 -0.03125 1.796875 -0.03125 C 2 -0.03125 2.21875 -0.015625 2.421875 -0.015625 C 2.640625 -0.015625 2.859375 0 3.0625 0 C 3.125 0 3.265625 0 3.265625 -0.203125 C 3.265625 -0.3125 3.171875 -0.3125 2.984375 -0.3125 C 2.625 -0.3125 2.34375 -0.3125 2.34375 -0.484375 C 2.34375 -0.546875 2.359375 -0.59375 2.375 -0.65625 Z M 3.6875 -6.046875 C 3.78125 -6.390625 3.796875 -6.421875 4.21875 -6.421875 L 5.171875 -6.421875 C 5.984375 -6.421875 6.5 -6.15625 6.5 -5.46875 C 6.5 -5.09375 6.3125 -4.25 5.921875 -3.890625 C 5.4375 -3.453125 4.84375 -3.359375 4.40625 -3.359375 L 3.015625 -3.359375 Z M 3.6875 -6.046875 "/></g><g id="4021f679ad2efa1c1a0583fa86aebfdc1idqxwa9__glyph-1-1"><path d="M 9.109375 -5.96875 C 9.203125 -6.3125 9.21875 -6.421875 9.96875 -6.421875 C 10.1875 -6.421875 10.28125 -6.421875 10.28125 -6.609375 C 10.28125 -6.71875 10.171875 -6.71875 10.015625 -6.71875 L 8.71875 -6.71875 C 8.453125 -6.71875 8.453125 -6.71875 8.328125 -6.53125 L 4.734375 -0.921875 L 3.96875 -6.5 C 3.9375 -6.71875 3.921875 -6.71875 3.65625 -6.71875 L 2.3125 -6.71875 C 2.125 -6.71875 2.015625 -6.71875 2.015625 -6.53125 C 2.015625 -6.421875 2.109375 -6.421875 2.296875 -6.421875 C 2.4375 -6.421875 2.609375 -6.40625 2.734375 -6.40625 C 2.890625 -6.375 2.9375 -6.34375 2.9375 -6.234375 C 2.9375 -6.203125 2.9375 -6.171875 2.90625 -6.046875 L 1.65625 -1.046875 C 1.5625 -0.65625 1.390625 -0.328125 0.59375 -0.3125 C 0.546875 -0.3125 0.40625 -0.296875 0.40625 -0.125 C 0.40625 -0.03125 0.46875 0 0.546875 0 C 0.859375 0 1.203125 -0.03125 1.53125 -0.03125 C 1.875 -0.03125 2.21875 0 2.546875 0 C 2.59375 0 2.734375 0 2.734375 -0.203125 C 2.734375 -0.3125 2.625 -0.3125 2.546875 -0.3125 C 1.984375 -0.3125 1.875 -0.515625 1.875 -0.734375 C 1.875 -0.8125 1.890625 -0.859375 1.921875 -0.96875 L 3.265625 -6.328125 L 4.109375 -0.21875 C 4.140625 -0.109375 4.140625 0 4.265625 0 C 4.375 0 4.4375 -0.109375 4.484375 -0.171875 L 8.453125 -6.40625 L 8.46875 -6.40625 L 7.0625 -0.765625 C 6.953125 -0.390625 6.9375 -0.3125 6.15625 -0.3125 C 6 -0.3125 5.890625 -0.3125 5.890625 -0.125 C 5.890625 0 6 0 6.03125 0 C 6.3125 0 6.984375 -0.03125 7.25 -0.03125 C 7.65625 -0.03125 8.078125 0 8.484375 0 C 8.546875 0 8.671875 0 8.671875 -0.203125 C 8.671875 -0.3125 8.578125 -0.3125 8.390625 -0.3125 C 8.03125 -0.3125 7.75 -0.3125 7.75 -0.484375 C 7.75 -0.515625 7.75 -0.546875 7.8125 -0.71875 Z M 9.109375 -5.96875 "/></g><g id="4021f679ad2efa1c1a0583fa86aebfdc1idqxwa9__glyph-2-0"><path d="M 0.84375 -0.4375 C 0.8125 -0.34375 0.765625 -0.171875 0.765625 -0.15625 C 0.765625 0 0.890625 0.0625 1 0.0625 C 1.125 0.0625 1.234375 -0.015625 1.28125 -0.078125 C 1.3125 -0.140625 1.359375 -0.359375 1.40625 -0.515625 C 1.4375 -0.640625 1.515625 -0.953125 1.546875 -1.125 C 1.59375 -1.28125 1.640625 -1.4375 1.671875 -1.59375 C 1.75 -1.875 1.75 -1.921875 1.953125 -2.21875 C 2.15625 -2.484375 2.46875 -2.84375 2.984375 -2.84375 C 3.390625 -2.84375 3.390625 -2.5 3.390625 -2.359375 C 3.390625 -1.953125 3.09375 -1.1875 2.984375 -0.890625 C 2.921875 -0.703125 2.890625 -0.640625 2.890625 -0.53125 C 2.890625 -0.15625 3.1875 0.0625 3.546875 0.0625 C 4.234375 0.0625 4.53125 -0.875 4.53125 -0.984375 C 4.53125 -1.078125 4.4375 -1.078125 4.421875 -1.078125 C 4.328125 -1.078125 4.328125 -1.03125 4.296875 -0.953125 C 4.140625 -0.40625 3.84375 -0.125 3.5625 -0.125 C 3.421875 -0.125 3.390625 -0.21875 3.390625 -0.359375 C 3.390625 -0.53125 3.421875 -0.609375 3.546875 -0.921875 C 3.625 -1.140625 3.90625 -1.875 3.90625 -2.25 C 3.90625 -2.921875 3.390625 -3.03125 3.015625 -3.03125 C 2.453125 -3.03125 2.0625 -2.6875 1.859375 -2.40625 C 1.8125 -2.890625 1.40625 -3.03125 1.109375 -3.03125 C 0.8125 -3.03125 0.65625 -2.828125 0.578125 -2.671875 C 0.421875 -2.40625 0.328125 -2.015625 0.328125 -1.984375 C 0.328125 -1.890625 0.421875 -1.890625 0.4375 -1.890625 C 0.53125 -1.890625 0.546875 -1.921875 0.59375 -2.109375 C 0.703125 -2.515625 0.828125 -2.84375 1.09375 -2.84375 C 1.28125 -2.84375 1.328125 -2.6875 1.328125 -2.515625 C 1.328125 -2.375 1.265625 -2.125 1.21875 -1.9375 C 1.171875 -1.75 1.09375 -1.46875 1.0625 -1.3125 Z M 0.84375 -0.4375 "/></g><g id="4021f679ad2efa1c1a0583fa86aebfdc1idqxwa9__glyph-2-1"><path d="M 2.796875 -2.71875 L 3.484375 -2.71875 C 3.625 -2.71875 3.703125 -2.71875 3.703125 -2.875 C 3.703125 -2.96875 3.625 -2.96875 3.5 -2.96875 L 2.859375 -2.96875 C 3.015625 -3.84375 3.0625 -4.15625 3.125 -4.359375 C 3.15625 -4.515625 3.3125 -4.65625 3.46875 -4.65625 C 3.484375 -4.65625 3.671875 -4.65625 3.796875 -4.578125 C 3.515625 -4.484375 3.5 -4.234375 3.5 -4.203125 C 3.5 -4.046875 3.609375 -3.9375 3.765625 -3.9375 C 3.953125 -3.9375 4.15625 -4.09375 4.15625 -4.359375 C 4.15625 -4.671875 3.828125 -4.84375 3.46875 -4.84375 C 3.171875 -4.84375 2.828125 -4.671875 2.640625 -4.328125 C 2.515625 -4.078125 2.453125 -3.765625 2.3125 -2.96875 L 1.765625 -2.96875 C 1.625 -2.96875 1.53125 -2.96875 1.53125 -2.8125 C 1.53125 -2.71875 1.625 -2.71875 1.75 -2.71875 L 2.265625 -2.71875 C 2.25 -2.6875 1.8125 -0.203125 1.65625 0.53125 C 1.625 0.6875 1.5 1.21875 1.171875 1.21875 C 1.171875 1.21875 1 1.21875 0.875 1.125 C 1.15625 1.046875 1.171875 0.796875 1.171875 0.75 C 1.171875 0.59375 1.046875 0.5 0.890625 0.5 C 0.703125 0.5 0.5 0.65625 0.5 0.921875 C 0.5 1.21875 0.828125 1.40625 1.171875 1.40625 C 1.609375 1.40625 1.921875 0.953125 2 0.796875 C 2.25 0.34375 2.40625 -0.515625 2.421875 -0.59375 Z M 2.796875 -2.71875 "/></g><g id="4021f679ad2efa1c1a0583fa86aebfdc1idqxwa9__glyph-2-2"><path d="M 3.765625 -0.96875 C 4.40625 -1.625 4.65625 -2.546875 4.65625 -2.625 C 4.65625 -2.703125 4.578125 -2.703125 4.546875 -2.703125 C 4.4375 -2.703125 4.4375 -2.6875 4.390625 -2.53125 C 4.265625 -2.078125 4.046875 -1.65625 3.75 -1.28125 C 3.75 -1.390625 3.734375 -1.859375 3.71875 -1.921875 C 3.625 -2.59375 3.09375 -3.03125 2.40625 -3.03125 C 1.40625 -3.03125 0.421875 -2.09375 0.421875 -1.125 C 0.421875 -0.5 0.890625 0.0625 1.6875 0.0625 C 2.328125 0.0625 2.890625 -0.21875 3.28125 -0.515625 C 3.4375 -0.015625 3.796875 0.0625 4 0.0625 C 4.390625 0.0625 4.640625 -0.265625 4.640625 -0.40625 C 4.640625 -0.5 4.5625 -0.5 4.53125 -0.5 C 4.4375 -0.5 4.421875 -0.46875 4.40625 -0.421875 C 4.3125 -0.171875 4.09375 -0.125 4.015625 -0.125 C 3.921875 -0.125 3.796875 -0.125 3.765625 -0.96875 Z M 3.234375 -0.734375 C 2.5625 -0.1875 1.96875 -0.125 1.703125 -0.125 C 1.25 -0.125 1 -0.421875 1 -0.890625 C 1 -1.09375 1.09375 -1.84375 1.453125 -2.3125 C 1.765625 -2.734375 2.15625 -2.84375 2.40625 -2.84375 C 2.953125 -2.84375 3.109375 -2.3125 3.171875 -1.890625 C 3.21875 -1.59375 3.203125 -1.109375 3.234375 -0.734375 Z M 3.234375 -0.734375 "/></g><g id="4021f679ad2efa1c1a0583fa86aebfdc1idqxwa9__glyph-2-3"><path d="M 4.359375 -3.90625 C 4.359375 -4.5 3.84375 -4.859375 3.234375 -4.859375 C 2.28125 -4.859375 1.59375 -3.78125 1.421875 -3.09375 L 0.34375 1.25 C 0.328125 1.296875 0.390625 1.34375 0.4375 1.34375 C 0.5 1.34375 0.546875 1.328125 0.5625 1.28125 L 1.03125 -0.546875 C 1.171875 -0.234375 1.5 0.0625 2.0625 0.0625 C 3.03125 0.0625 4.109375 -0.640625 4.109375 -1.6875 C 4.109375 -2.09375 3.921875 -2.515625 3.578125 -2.734375 C 3.90625 -2.953125 4.359375 -3.34375 4.359375 -3.90625 Z M 3 -2.75 C 2.890625 -2.71875 2.84375 -2.6875 2.640625 -2.6875 C 2.53125 -2.6875 2.375 -2.703125 2.328125 -2.734375 C 2.390625 -2.765625 2.578125 -2.78125 2.640625 -2.78125 C 2.75 -2.78125 2.90625 -2.765625 3 -2.75 Z M 3.90625 -4.03125 C 3.90625 -3.65625 3.734375 -3.125 3.296875 -2.875 C 3.171875 -2.921875 3.03125 -2.96875 2.65625 -2.96875 C 2.40625 -2.96875 2.0625 -2.953125 2.0625 -2.703125 C 2.0625 -2.53125 2.28125 -2.515625 2.625 -2.515625 C 2.859375 -2.515625 3.078125 -2.546875 3.28125 -2.609375 C 3.5 -2.453125 3.609375 -2.171875 3.609375 -1.875 C 3.609375 -0.875 2.921875 -0.125 2.078125 -0.125 C 1.546875 -0.125 1.171875 -0.453125 1.171875 -1 C 1.171875 -1.0625 1.171875 -1.140625 1.1875 -1.203125 L 1.640625 -3.03125 C 1.8125 -3.6875 2.421875 -4.671875 3.21875 -4.671875 C 3.625 -4.671875 3.90625 -4.4375 3.90625 -4.03125 Z M 3.90625 -4.03125 "/></g><g id="4021f679ad2efa1c1a0583fa86aebfdc1idqxwa9__glyph-2-4"><path d="M 2.96875 -2.59375 C 2.796875 -2.546875 2.6875 -2.40625 2.6875 -2.265625 C 2.6875 -2.109375 2.8125 -2.046875 2.90625 -2.046875 C 2.984375 -2.046875 3.234375 -2.09375 3.234375 -2.4375 C 3.234375 -2.890625 2.75 -3.03125 2.328125 -3.03125 C 1.25 -3.03125 1.046875 -2.25 1.046875 -2.03125 C 1.046875 -1.78125 1.203125 -1.609375 1.296875 -1.53125 C 1.46875 -1.390625 1.59375 -1.359375 2.078125 -1.28125 C 2.21875 -1.25 2.65625 -1.171875 2.65625 -0.828125 C 2.65625 -0.703125 2.578125 -0.453125 2.296875 -0.28125 C 2.03125 -0.125 1.6875 -0.125 1.609375 -0.125 C 1.328125 -0.125 0.9375 -0.1875 0.78125 -0.40625 C 1 -0.4375 1.15625 -0.609375 1.15625 -0.8125 C 1.15625 -0.984375 1.03125 -1.0625 0.890625 -1.0625 C 0.6875 -1.0625 0.484375 -0.90625 0.484375 -0.59375 C 0.484375 -0.1875 0.9375 0.0625 1.59375 0.0625 C 2.859375 0.0625 3.09375 -0.796875 3.09375 -1.0625 C 3.09375 -1.703125 2.40625 -1.828125 2.15625 -1.875 C 2.09375 -1.890625 1.921875 -1.921875 1.875 -1.921875 C 1.625 -1.984375 1.5 -2.125 1.5 -2.28125 C 1.5 -2.4375 1.625 -2.625 1.765625 -2.71875 C 1.953125 -2.828125 2.203125 -2.84375 2.3125 -2.84375 C 2.453125 -2.84375 2.8125 -2.828125 2.96875 -2.59375 Z M 2.96875 -2.59375 "/></g><g id="4021f679ad2efa1c1a0583fa86aebfdc1idqxwa9__glyph-3-0"><path d="M 3.1875 -1.5625 L 5.296875 -1.5625 C 5.390625 -1.5625 5.546875 -1.5625 5.546875 -1.71875 C 5.546875 -1.890625 5.390625 -1.890625 5.296875 -1.890625 L 3.1875 -1.890625 L 3.1875 -4.015625 C 3.1875 -4.09375 3.1875 -4.265625 3.03125 -4.265625 C 2.859375 -4.265625 2.859375 -4.109375 2.859375 -4.015625 L 2.859375 -1.890625 L 0.734375 -1.890625 C 0.640625 -1.890625 0.484375 -1.890625 0.484375 -1.734375 C 0.484375 -1.5625 0.640625 -1.5625 0.734375 -1.5625 L 2.859375 -1.5625 L 2.859375 0.5625 C 2.859375 0.640625 2.859375 0.8125 3.015625 0.8125 C 3.1875 0.8125 3.1875 0.65625 3.1875 0.5625 Z M 3.1875 -1.5625 "/></g><g id="4021f679ad2efa1c1a0583fa86aebfdc1idqxwa9__glyph-3-1"><path d="M 2.3125 -4.375 C 2.3125 -4.5625 2.296875 -4.578125 2.109375 -4.578125 C 1.65625 -4.140625 1.03125 -4.140625 0.75 -4.140625 L 0.75 -3.890625 C 0.921875 -3.890625 1.375 -3.890625 1.75 -4.078125 L 1.75 -0.5625 C 1.75 -0.34375 1.75 -0.25 1.0625 -0.25 L 0.796875 -0.25 L 0.796875 0 C 0.921875 0 1.765625 -0.03125 2.03125 -0.03125 C 2.234375 -0.03125 3.109375 0 3.265625 0 L 3.265625 -0.25 L 3 -0.25 C 2.3125 -0.25 2.3125 -0.34375 2.3125 -0.5625 Z M 2.3125 -4.375 "/></g><g id="4021f679ad2efa1c1a0583fa86aebfdc1idqxwa9__glyph-3-2"><path d="M 3.5625 -2.203125 C 3.5625 -2.953125 3.46875 -3.5 3.15625 -3.984375 C 2.9375 -4.296875 2.515625 -4.578125 1.953125 -4.578125 C 0.359375 -4.578125 0.359375 -2.6875 0.359375 -2.203125 C 0.359375 -1.703125 0.359375 0.140625 1.953125 0.140625 C 3.5625 0.140625 3.5625 -1.703125 3.5625 -2.203125 Z M 1.953125 -0.0625 C 1.640625 -0.0625 1.21875 -0.234375 1.078125 -0.8125 C 0.984375 -1.21875 0.984375 -1.78125 0.984375 -2.28125 C 0.984375 -2.796875 0.984375 -3.3125 1.09375 -3.6875 C 1.234375 -4.234375 1.671875 -4.375 1.953125 -4.375 C 2.328125 -4.375 2.6875 -4.15625 2.8125 -3.75 C 2.921875 -3.390625 2.921875 -2.890625 2.921875 -2.28125 C 2.921875 -1.78125 2.921875 -1.265625 2.84375 -0.828125 C 2.703125 -0.203125 2.234375 -0.0625 1.953125 -0.0625 Z M 1.953125 -0.0625 "/></g><g id="4021f679ad2efa1c1a0583fa86aebfdc1idqxwa9__glyph-4-0"><path d="M 5.125 -1.5625 C 5.234375 -1.5625 5.40625 -1.5625 5.40625 -1.71875 C 5.40625 -1.890625 5.25 -1.890625 5.125 -1.890625 L 1.015625 -1.890625 C 0.90625 -1.890625 0.75 -1.890625 0.75 -1.734375 C 0.75 -1.5625 0.90625 -1.5625 1.015625 -1.5625 Z M 5.125 -1.5625 "/></g><g id="4021f679ad2efa1c1a0583fa86aebfdc1idqxwa9__glyph-4-1"><path d="M 2 -3.25 C 2.046875 -3.375 2.0625 -3.421875 2.0625 -3.46875 C 2.0625 -3.6875 1.875 -3.859375 1.65625 -3.859375 C 1.390625 -3.859375 1.3125 -3.640625 1.28125 -3.53125 L 0.359375 -0.546875 C 0.359375 -0.53125 0.328125 -0.4375 0.328125 -0.4375 C 0.328125 -0.34375 0.546875 -0.28125 0.59375 -0.28125 C 0.640625 -0.28125 0.65625 -0.296875 0.703125 -0.40625 Z M 2 -3.25 "/></g><g id="4021f679ad2efa1c1a0583fa86aebfdc1idqxwa9__glyph-5-0"><path d="M 4.53125 -3.15625 C 4.53125 -3.9375 4.484375 -4.71875 4.140625 -5.453125 C 3.6875 -6.40625 2.875 -6.5625 2.46875 -6.5625 C 1.875 -6.5625 1.15625 -6.296875 0.75 -5.390625 C 0.4375 -4.703125 0.390625 -3.9375 0.390625 -3.15625 C 0.390625 -2.40625 0.421875 -1.53125 0.828125 -0.78125 C 1.25 0.015625 1.96875 0.21875 2.453125 0.21875 C 2.984375 0.21875 3.734375 0.015625 4.15625 -0.921875 C 4.484375 -1.609375 4.53125 -2.375 4.53125 -3.15625 Z M 2.453125 0 C 2.0625 0 1.484375 -0.25 1.3125 -1.1875 C 1.203125 -1.78125 1.203125 -2.6875 1.203125 -3.265625 C 1.203125 -3.890625 1.203125 -4.546875 1.28125 -5.078125 C 1.46875 -6.25 2.203125 -6.34375 2.453125 -6.34375 C 2.78125 -6.34375 3.421875 -6.15625 3.609375 -5.1875 C 3.71875 -4.640625 3.71875 -3.890625 3.71875 -3.265625 C 3.71875 -2.53125 3.71875 -1.859375 3.609375 -1.234375 C 3.453125 -0.296875 2.890625 0 2.453125 0 Z M 2.453125 0 "/></g><g id="4021f679ad2efa1c1a0583fa86aebfdc1idqxwa9__glyph-6-0"><path d="M 0.953125 -0.484375 C 0.9375 -0.359375 0.875 -0.140625 0.875 -0.125 C 0.875 -0.015625 0.96875 0.046875 1.0625 0.046875 C 1.125 0.046875 1.234375 0.015625 1.296875 -0.109375 C 1.296875 -0.140625 1.359375 -0.359375 1.390625 -0.5 C 1.5625 -1.15625 1.5625 -1.171875 1.5625 -1.1875 C 1.625 -1.3125 1.984375 -2.015625 2.578125 -2.015625 C 2.828125 -2.015625 2.921875 -1.875 2.921875 -1.65625 C 2.921875 -1.375 2.71875 -0.859375 2.609375 -0.578125 C 2.578125 -0.53125 2.5625 -0.46875 2.5625 -0.375 C 2.5625 -0.125 2.8125 0.046875 3.09375 0.046875 C 3.625 0.046875 3.890625 -0.578125 3.890625 -0.703125 C 3.890625 -0.78125 3.8125 -0.78125 3.796875 -0.78125 C 3.703125 -0.78125 3.703125 -0.765625 3.671875 -0.671875 C 3.578125 -0.375 3.359375 -0.109375 3.109375 -0.109375 C 3 -0.109375 2.96875 -0.1875 2.96875 -0.296875 C 2.96875 -0.40625 2.984375 -0.453125 3.03125 -0.5625 C 3.109375 -0.765625 3.34375 -1.3125 3.34375 -1.59375 C 3.34375 -1.953125 3.078125 -2.171875 2.609375 -2.171875 C 2.171875 -2.171875 1.859375 -1.90625 1.6875 -1.6875 C 1.65625 -2.09375 1.265625 -2.171875 1.078125 -2.171875 C 0.59375 -2.171875 0.453125 -1.421875 0.453125 -1.40625 C 0.453125 -1.34375 0.53125 -1.34375 0.546875 -1.34375 C 0.640625 -1.34375 0.640625 -1.375 0.671875 -1.4375 C 0.734375 -1.71875 0.84375 -2.015625 1.0625 -2.015625 C 1.21875 -2.015625 1.265625 -1.84375 1.265625 -1.75 C 1.265625 -1.671875 1.203125 -1.484375 1.1875 -1.359375 C 1.140625 -1.234375 1.09375 -1.03125 1.078125 -0.921875 Z M 0.953125 -0.484375 "/></g><g id="4021f679ad2efa1c1a0583fa86aebfdc1idqxwa9__glyph-7-0"><path d="M 2.671875 -1.09375 L 4.375 -1.09375 C 4.4375 -1.09375 4.578125 -1.09375 4.578125 -1.234375 C 4.578125 -1.375 4.4375 -1.375 4.375 -1.375 L 2.671875 -1.375 L 2.671875 -3.078125 C 2.671875 -3.15625 2.671875 -3.28125 2.53125 -3.28125 C 2.390625 -3.28125 2.390625 -3.15625 2.390625 -3.078125 L 2.390625 -1.375 L 0.671875 -1.375 C 0.609375 -1.375 0.484375 -1.375 0.484375 -1.234375 C 0.484375 -1.09375 0.609375 -1.09375 0.671875 -1.09375 L 2.390625 -1.09375 L 2.390625 0.625 C 2.390625 0.6875 2.390625 0.828125 2.53125 0.828125 C 2.671875 0.828125 2.671875 0.6875 2.671875 0.625 Z M 2.671875 -1.09375 "/></g><g id="4021f679ad2efa1c1a0583fa86aebfdc1idqxwa9__glyph-7-1"><path d="M 1.953125 -3.125 C 1.953125 -3.28125 1.9375 -3.28125 1.78125 -3.28125 C 1.4375 -2.96875 0.890625 -2.96875 0.78125 -2.96875 L 0.703125 -2.96875 L 0.703125 -2.75 L 0.78125 -2.75 C 0.90625 -2.75 1.21875 -2.765625 1.5 -2.890625 L 1.5 -0.421875 C 1.5 -0.265625 1.5 -0.21875 0.984375 -0.21875 L 0.734375 -0.21875 L 0.734375 0 C 1.015625 -0.015625 1.453125 -0.015625 1.734375 -0.015625 C 2.015625 -0.015625 2.453125 -0.015625 2.734375 0 L 2.734375 -0.21875 L 2.484375 -0.21875 C 1.953125 -0.21875 1.953125 -0.265625 1.953125 -0.421875 Z M 1.953125 -3.125 "/></g><g id="4021f679ad2efa1c1a0583fa86aebfdc1idqxwa9__glyph-7-2"><path d="M 2.953125 -1.578125 C 2.953125 -1.921875 2.953125 -3.28125 1.671875 -3.28125 C 0.390625 -3.28125 0.390625 -1.921875 0.390625 -1.578125 C 0.390625 -1.21875 0.390625 0.109375 1.671875 0.109375 C 2.953125 0.109375 2.953125 -1.21875 2.953125 -1.578125 Z M 1.671875 -0.046875 C 1.484375 -0.046875 1.078125 -0.125 0.953125 -0.609375 C 0.890625 -0.875 0.875 -1.234375 0.875 -1.640625 C 0.875 -2 0.875 -2.34375 0.953125 -2.625 C 1.078125 -3.03125 1.46875 -3.109375 1.671875 -3.109375 C 2.03125 -3.109375 2.296875 -2.921875 2.390625 -2.578125 C 2.46875 -2.328125 2.46875 -1.921875 2.46875 -1.640625 C 2.46875 -1.296875 2.46875 -0.90625 2.390625 -0.609375 C 2.265625 -0.125 1.875 -0.046875 1.671875 -0.046875 Z M 1.671875 -0.046875 "/></g><g id="4021f679ad2efa1c1a0583fa86aebfdc1idqxwa9__glyph-8-0"><path d="M 4.328125 -1.09375 C 4.40625 -1.09375 4.546875 -1.09375 4.546875 -1.234375 C 4.546875 -1.375 4.40625 -1.375 4.328125 -1.375 L 1 -1.375 C 0.921875 -1.375 0.78125 -1.375 0.78125 -1.234375 C 0.78125 -1.09375 0.921875 -1.09375 1 -1.09375 Z M 4.328125 -1.09375 "/></g><g id="4021f679ad2efa1c1a0583fa86aebfdc1idqxwa9__glyph-8-1"><path d="M 1.765625 -2.28125 C 1.78125 -2.296875 1.828125 -2.390625 1.828125 -2.46875 C 1.828125 -2.640625 1.65625 -2.75 1.515625 -2.75 C 1.3125 -2.75 1.265625 -2.59375 1.234375 -2.53125 L 0.484375 -0.390625 C 0.453125 -0.328125 0.453125 -0.3125 0.453125 -0.3125 C 0.453125 -0.234375 0.671875 -0.1875 0.671875 -0.1875 C 0.71875 -0.1875 0.71875 -0.21875 0.75 -0.265625 Z M 1.765625 -2.28125 "/></g></g></defs><g fill="rgb(0%, 0%, 0%)" fill-opacity="1"><use xlink:href="#4021f679ad2efa1c1a0583fa86aebfdc1idqxwa9__glyph-0-0" x="38.120814" y="13.485894"/></g><g fill="rgb(0%, 0%, 0%)" fill-opacity="1"><use xlink:href="#4021f679ad2efa1c1a0583fa86aebfdc1idqxwa9__glyph-0-0" x="42.499224" y="13.485894"/></g><g fill="rgb(0%, 0%, 0%)" fill-opacity="1"><use xlink:href="#4021f679ad2efa1c1a0583fa86aebfdc1idqxwa9__glyph-0-0" x="46.86779" y="13.485894"/></g><g fill="rgb(0%, 0%, 0%)" fill-opacity="1"><use xlink:href="#4021f679ad2efa1c1a0583fa86aebfdc1idqxwa9__glyph-1-0" x="81.705675" y="13.485894"/></g><g fill="rgb(0%, 0%, 0%)" fill-opacity="1"><use xlink:href="#4021f679ad2efa1c1a0583fa86aebfdc1idqxwa9__glyph-2-0" x="88.025243" y="14.962041"/></g><g fill="rgb(0%, 0%, 0%)" fill-opacity="1"><use xlink:href="#4021f679ad2efa1c1a0583fa86aebfdc1idqxwa9__glyph-3-0" x="92.891288" y="14.962041"/><use xlink:href="#4021f679ad2efa1c1a0583fa86aebfdc1idqxwa9__glyph-3-1" x="98.934224" y="14.962041"/></g><g fill="rgb(0%, 0%, 0%)" fill-opacity="1"><use xlink:href="#4021f679ad2efa1c1a0583fa86aebfdc1idqxwa9__glyph-1-0" x="159.075919" y="13.485894"/></g><g fill="rgb(0%, 0%, 0%)" fill-opacity="1"><use xlink:href="#4021f679ad2efa1c1a0583fa86aebfdc1idqxwa9__glyph-2-0" x="165.395487" y="14.962041"/></g><g fill="rgb(0%, 0%, 0%)" fill-opacity="1"><use xlink:href="#4021f679ad2efa1c1a0583fa86aebfdc1idqxwa9__glyph-1-0" x="226.479702" y="13.485894"/></g><g fill="rgb(0%, 0%, 0%)" fill-opacity="1"><use xlink:href="#4021f679ad2efa1c1a0583fa86aebfdc1idqxwa9__glyph-2-0" x="232.799269" y="14.962041"/></g><g fill="rgb(0%, 0%, 0%)" fill-opacity="1"><use xlink:href="#4021f679ad2efa1c1a0583fa86aebfdc1idqxwa9__glyph-4-0" x="237.665315" y="14.962041"/></g><g fill="rgb(0%, 0%, 0%)" fill-opacity="1"><use xlink:href="#4021f679ad2efa1c1a0583fa86aebfdc1idqxwa9__glyph-3-1" x="243.817809" y="14.962041"/></g><g fill="rgb(0%, 0%, 0%)" fill-opacity="1"><use xlink:href="#4021f679ad2efa1c1a0583fa86aebfdc1idqxwa9__glyph-0-0" x="280.334355" y="13.485894"/></g><g fill="rgb(0%, 0%, 0%)" fill-opacity="1"><use xlink:href="#4021f679ad2efa1c1a0583fa86aebfdc1idqxwa9__glyph-0-0" x="284.712765" y="13.485894"/></g><g fill="rgb(0%, 0%, 0%)" fill-opacity="1"><use xlink:href="#4021f679ad2efa1c1a0583fa86aebfdc1idqxwa9__glyph-0-0" x="289.081331" y="13.485894"/></g><g fill="rgb(0%, 0%, 0%)" fill-opacity="1"><use xlink:href="#4021f679ad2efa1c1a0583fa86aebfdc1idqxwa9__glyph-1-0" x="323.919217" y="13.485894"/></g><g fill="rgb(0%, 0%, 0%)" fill-opacity="1"><use xlink:href="#4021f679ad2efa1c1a0583fa86aebfdc1idqxwa9__glyph-3-2" x="330.238784" y="14.962041"/></g><g fill="rgb(0%, 0%, 0%)" fill-opacity="1"><use xlink:href="#4021f679ad2efa1c1a0583fa86aebfdc1idqxwa9__glyph-1-1" x="391.761694" y="13.485894"/></g><g fill="rgb(0%, 0%, 0%)" fill-opacity="1"><use xlink:href="#4021f679ad2efa1c1a0583fa86aebfdc1idqxwa9__glyph-5-0" x="435.86627" y="13.485894"/></g><g fill="rgb(0%, 0%, 0%)" fill-opacity="1"><use xlink:href="#4021f679ad2efa1c1a0583fa86aebfdc1idqxwa9__glyph-0-0" x="38.120814" y="48.106178"/></g><g fill="rgb(0%, 0%, 0%)" fill-opacity="1"><use xlink:href="#4021f679ad2efa1c1a0583fa86aebfdc1idqxwa9__glyph-0-0" x="42.499224" y="48.106178"/></g><g fill="rgb(0%, 0%, 0%)" fill-opacity="1"><use xlink:href="#4021f679ad2efa1c1a0583fa86aebfdc1idqxwa9__glyph-0-0" x="46.86779" y="48.106178"/></g><g fill="rgb(0%, 0%, 0%)" fill-opacity="1"><use xlink:href="#4021f679ad2efa1c1a0583fa86aebfdc1idqxwa9__glyph-1-0" x="81.705675" y="48.106178"/></g><g fill="rgb(0%, 0%, 0%)" fill-opacity="1"><use xlink:href="#4021f679ad2efa1c1a0583fa86aebfdc1idqxwa9__glyph-2-0" x="88.025243" y="49.583313"/></g><g fill="rgb(0%, 0%, 0%)" fill-opacity="1"><use xlink:href="#4021f679ad2efa1c1a0583fa86aebfdc1idqxwa9__glyph-3-0" x="92.891288" y="49.583313"/><use xlink:href="#4021f679ad2efa1c1a0583fa86aebfdc1idqxwa9__glyph-3-1" x="98.934224" y="49.583313"/></g><g fill="rgb(0%, 0%, 0%)" fill-opacity="1"><use xlink:href="#4021f679ad2efa1c1a0583fa86aebfdc1idqxwa9__glyph-1-0" x="159.075919" y="48.106178"/></g><g fill="rgb(0%, 0%, 0%)" fill-opacity="1"><use xlink:href="#4021f679ad2efa1c1a0583fa86aebfdc1idqxwa9__glyph-4-1" x="166.762948" y="44.534378"/></g><g fill="rgb(0%, 0%, 0%)" fill-opacity="1"><use xlink:href="#4021f679ad2efa1c1a0583fa86aebfdc1idqxwa9__glyph-2-0" x="165.395487" y="50.539746"/></g><g fill="rgb(0%, 0%, 0%)" fill-opacity="1"><use xlink:href="#4021f679ad2efa1c1a0583fa86aebfdc1idqxwa9__glyph-1-0" x="226.479702" y="48.106178"/></g><g fill="rgb(0%, 0%, 0%)" fill-opacity="1"><use xlink:href="#4021f679ad2efa1c1a0583fa86aebfdc1idqxwa9__glyph-4-1" x="234.165743" y="44.534378"/></g><g fill="rgb(0%, 0%, 0%)" fill-opacity="1"><use xlink:href="#4021f679ad2efa1c1a0583fa86aebfdc1idqxwa9__glyph-2-0" x="232.79927" y="50.549626"/></g><g fill="rgb(0%, 0%, 0%)" fill-opacity="1"><use xlink:href="#4021f679ad2efa1c1a0583fa86aebfdc1idqxwa9__glyph-4-0" x="237.665315" y="50.549626"/></g><g fill="rgb(0%, 0%, 0%)" fill-opacity="1"><use xlink:href="#4021f679ad2efa1c1a0583fa86aebfdc1idqxwa9__glyph-3-1" x="243.817809" y="50.549626"/></g><g fill="rgb(0%, 0%, 0%)" fill-opacity="1"><use xlink:href="#4021f679ad2efa1c1a0583fa86aebfdc1idqxwa9__glyph-0-0" x="280.334355" y="48.106178"/></g><g fill="rgb(0%, 0%, 0%)" fill-opacity="1"><use xlink:href="#4021f679ad2efa1c1a0583fa86aebfdc1idqxwa9__glyph-0-0" x="284.712765" y="48.106178"/></g><g fill="rgb(0%, 0%, 0%)" fill-opacity="1"><use xlink:href="#4021f679ad2efa1c1a0583fa86aebfdc1idqxwa9__glyph-0-0" x="289.081331" y="48.106178"/></g><g fill="rgb(0%, 0%, 0%)" fill-opacity="1"><use xlink:href="#4021f679ad2efa1c1a0583fa86aebfdc1idqxwa9__glyph-1-0" x="323.919217" y="48.106178"/></g><g fill="rgb(0%, 0%, 0%)" fill-opacity="1"><use xlink:href="#4021f679ad2efa1c1a0583fa86aebfdc1idqxwa9__glyph-4-1" x="331.606246" y="44.534378"/></g><g fill="rgb(0%, 0%, 0%)" fill-opacity="1"><use xlink:href="#4021f679ad2efa1c1a0583fa86aebfdc1idqxwa9__glyph-3-2" x="330.238784" y="50.549626"/></g><g fill="rgb(0%, 0%, 0%)" fill-opacity="1"><use xlink:href="#4021f679ad2efa1c1a0583fa86aebfdc1idqxwa9__glyph-1-1" x="390.3804" y="48.106178"/></g><g fill="rgb(0%, 0%, 0%)" fill-opacity="1"><use xlink:href="#4021f679ad2efa1c1a0583fa86aebfdc1idqxwa9__glyph-4-1" x="401.002925" y="44.534378"/></g><g fill="rgb(0%, 0%, 0%)" fill-opacity="1"><use xlink:href="#4021f679ad2efa1c1a0583fa86aebfdc1idqxwa9__glyph-5-0" x="435.86627" y="48.106178"/></g><path fill="none" stroke="rgb(0%, 0%, 0%)" stroke-linecap="butt" stroke-linejoin="miter" stroke-miterlimit="10" stroke-opacity="1" stroke-width="0.39848" d="M -187.661181 18.259239 L -164.5451 18.259239 " transform="matrix(0.98805, 0, 0, -0.98805, 239.453786, 29.064479)"/><path fill="none" stroke="rgb(0%, 0%, 0%)" stroke-linecap="round" stroke-linejoin="round" stroke-miterlimit="10" stroke-opacity="1" stroke-width="0.39848" d="M -2.072616 2.389 C -1.693081 0.957835 -0.850987 0.277834 -0.000985485 0.00108921 C -0.850987 -0.279609 -1.693081 -0.955656 -2.072616 -2.390775 " transform="matrix(0.98805, 0, 0, -0.98805, 77.071286, 11.024514)"/><path fill="none" stroke="rgb(0%, 0%, 0%)" stroke-linecap="butt" stroke-linejoin="miter" stroke-miterlimit="10" stroke-opacity="1" stroke-width="0.39848" d="M -133.2611 18.259239 L -86.238239 18.259239 " transform="matrix(0.98805, 0, 0, -0.98805, 239.453786, 29.064479)"/><path fill="none" stroke="rgb(0%, 0%, 0%)" stroke-linecap="round" stroke-linejoin="round" stroke-miterlimit="10" stroke-opacity="1" stroke-width="0.39848" d="M -2.072646 2.389 C -1.69311 0.957835 -0.851016 0.277834 -0.00101475 0.00108921 C -0.851016 -0.279609 -1.69311 -0.955656 -2.072646 -2.390775 " transform="matrix(0.98805, 0, 0, -0.98805, 154.442409, 11.024514)"/><g fill="rgb(0%, 0%, 0%)" fill-opacity="1"><use xlink:href="#4021f679ad2efa1c1a0583fa86aebfdc1idqxwa9__glyph-2-1" x="122.676157" y="6.904493"/></g><g fill="rgb(0%, 0%, 0%)" fill-opacity="1"><use xlink:href="#4021f679ad2efa1c1a0583fa86aebfdc1idqxwa9__glyph-6-0" x="126.514731" y="7.888591"/></g><g fill="rgb(0%, 0%, 0%)" fill-opacity="1"><use xlink:href="#4021f679ad2efa1c1a0583fa86aebfdc1idqxwa9__glyph-7-0" x="130.849829" y="7.888591"/><use xlink:href="#4021f679ad2efa1c1a0583fa86aebfdc1idqxwa9__glyph-7-1" x="135.908428" y="7.888591"/></g><path fill="none" stroke="rgb(0%, 0%, 0%)" stroke-linecap="butt" stroke-linejoin="miter" stroke-miterlimit="10" stroke-opacity="1" stroke-width="0.39848" d="M -151.107173 9.597133 L -151.107173 -8.221265 " transform="matrix(0.98805, 0, 0, -0.98805, 239.453786, 29.064479)"/><path fill="none" stroke="rgb(0%, 0%, 0%)" stroke-linecap="round" stroke-linejoin="round" stroke-miterlimit="10" stroke-opacity="1" stroke-width="0.39848" d="M -2.072441 2.391931 C -1.692906 0.956812 -0.850811 0.280765 -0.000809967 0.00006678 C -0.850811 -0.280631 -1.692906 -0.956679 -2.072441 -2.391797 " transform="matrix(0, 0.98805, 0.98805, 0, 90.152278, 37.383613)"/><g fill="rgb(0%, 0%, 0%)" fill-opacity="1"><use xlink:href="#4021f679ad2efa1c1a0583fa86aebfdc1idqxwa9__glyph-2-2" x="69.485473" y="29.162296"/></g><g fill="rgb(0%, 0%, 0%)" fill-opacity="1"><use xlink:href="#4021f679ad2efa1c1a0583fa86aebfdc1idqxwa9__glyph-6-0" x="74.603572" y="30.146394"/></g><g fill="rgb(0%, 0%, 0%)" fill-opacity="1"><use xlink:href="#4021f679ad2efa1c1a0583fa86aebfdc1idqxwa9__glyph-7-0" x="78.93867" y="30.146394"/><use xlink:href="#4021f679ad2efa1c1a0583fa86aebfdc1idqxwa9__glyph-7-1" x="83.997269" y="30.146394"/></g><path fill="none" stroke="rgb(0%, 0%, 0%)" stroke-linecap="butt" stroke-linejoin="miter" stroke-miterlimit="10" stroke-opacity="1" stroke-width="0.39848" d="M -146.303678 9.597133 L -146.303678 -8.221265 " transform="matrix(0.98805, 0, 0, -0.98805, 239.453786, 29.064479)"/><path fill="none" stroke="rgb(0%, 0%, 0%)" stroke-linecap="round" stroke-linejoin="round" stroke-miterlimit="10" stroke-opacity="1" stroke-width="0.39848" d="M -2.072441 2.391196 C -1.692906 0.956078 -0.850811 0.28003 -0.000809967 -0.000667698 C -0.850811 -0.277412 -1.692906 -0.957413 -2.072441 -2.392532 " transform="matrix(0, 0.98805, 0.98805, 0, 94.899097, 37.383613)"/><g fill="rgb(0%, 0%, 0%)" fill-opacity="1"><use xlink:href="#4021f679ad2efa1c1a0583fa86aebfdc1idqxwa9__glyph-2-3" x="97.217072" y="30.071302"/></g><g fill="rgb(0%, 0%, 0%)" fill-opacity="1"><use xlink:href="#4021f679ad2efa1c1a0583fa86aebfdc1idqxwa9__glyph-6-0" x="101.681082" y="31.0554"/></g><g fill="rgb(0%, 0%, 0%)" fill-opacity="1"><use xlink:href="#4021f679ad2efa1c1a0583fa86aebfdc1idqxwa9__glyph-7-0" x="106.01618" y="31.0554"/><use xlink:href="#4021f679ad2efa1c1a0583fa86aebfdc1idqxwa9__glyph-7-1" x="111.074779" y="31.0554"/></g><path fill="none" stroke="rgb(0%, 0%, 0%)" stroke-linecap="butt" stroke-linejoin="miter" stroke-miterlimit="10" stroke-opacity="1" stroke-width="0.39848" d="M -65.043557 18.259239 L -18.020696 18.259239 " transform="matrix(0.98805, 0, 0, -0.98805, 239.453786, 29.064479)"/><path fill="none" stroke="rgb(0%, 0%, 0%)" stroke-linecap="round" stroke-linejoin="round" stroke-miterlimit="10" stroke-opacity="1" stroke-width="0.39848" d="M -2.070699 2.389 C -1.695117 0.957835 -0.849069 0.277834 0.000932139 0.00108921 C -0.849069 -0.279609 -1.695117 -0.955656 -2.070699 -2.390775 " transform="matrix(0.98805, 0, 0, -0.98805, 221.846735, 11.024514)"/><g fill="rgb(0%, 0%, 0%)" fill-opacity="1"><use xlink:href="#4021f679ad2efa1c1a0583fa86aebfdc1idqxwa9__glyph-2-1" x="194.283104" y="7.368877"/></g><g fill="rgb(0%, 0%, 0%)" fill-opacity="1"><use xlink:href="#4021f679ad2efa1c1a0583fa86aebfdc1idqxwa9__glyph-6-0" x="198.121679" y="8.353963"/></g><path fill="none" stroke="rgb(0%, 0%, 0%)" stroke-linecap="butt" stroke-linejoin="miter" stroke-miterlimit="10" stroke-opacity="1" stroke-width="0.39848" d="M -85.838937 13.285743 L -132.905286 -9.225453 " transform="matrix(0.98805, 0, 0, -0.98805, 239.453786, 29.064479)"/><path fill="none" stroke="rgb(0%, 0%, 0%)" stroke-linecap="round" stroke-linejoin="round" stroke-miterlimit="10" stroke-opacity="1" stroke-width="0.39848" d="M -2.073544 2.390664 C -1.69475 0.956033 -0.848213 0.279398 0.000200623 0.000690825 C -0.849012 -0.281204 -1.693122 -0.955599 -2.072964 -2.391129 " transform="matrix(-0.89129, 0.426314, 0.426314, 0.89129, 107.960822, 38.264924)"/><g fill="rgb(0%, 0%, 0%)" fill-opacity="1"><use xlink:href="#4021f679ad2efa1c1a0583fa86aebfdc1idqxwa9__glyph-2-4" x="111.945934" y="23.023541"/></g><g fill="rgb(0%, 0%, 0%)" fill-opacity="1"><use xlink:href="#4021f679ad2efa1c1a0583fa86aebfdc1idqxwa9__glyph-6-0" x="115.661002" y="24.007639"/></g><g fill="rgb(0%, 0%, 0%)" fill-opacity="1"><use xlink:href="#4021f679ad2efa1c1a0583fa86aebfdc1idqxwa9__glyph-7-0" x="119.9961" y="24.007639"/><use xlink:href="#4021f679ad2efa1c1a0583fa86aebfdc1idqxwa9__glyph-7-1" x="125.054699" y="24.007639"/></g><path fill="none" stroke="rgb(0%, 0%, 0%)" stroke-linecap="butt" stroke-linejoin="miter" stroke-miterlimit="10" stroke-opacity="1" stroke-width="0.39848" d="M -73.041476 10.427367 L -73.041476 -7.537311 " transform="matrix(0.98805, 0, 0, -0.98805, 239.453786, 29.064479)"/><path fill="none" stroke="rgb(0%, 0%, 0%)" stroke-linecap="round" stroke-linejoin="round" stroke-miterlimit="10" stroke-opacity="1" stroke-width="0.39848" d="M -2.070492 2.390188 C -1.69491 0.95507 -0.848862 0.279022 0.00113902 -0.00167563 C -0.848862 -0.27842 -1.69491 -0.954468 -2.070492 -2.389586 " transform="matrix(0, 0.98805, 0.98805, 0, 167.286812, 36.709812)"/><g fill="rgb(0%, 0%, 0%)" fill-opacity="1"><use xlink:href="#4021f679ad2efa1c1a0583fa86aebfdc1idqxwa9__glyph-2-3" x="169.603591" y="29.556528"/></g><g fill="rgb(0%, 0%, 0%)" fill-opacity="1"><use xlink:href="#4021f679ad2efa1c1a0583fa86aebfdc1idqxwa9__glyph-6-0" x="174.067601" y="30.541614"/></g><path fill="none" stroke="rgb(0%, 0%, 0%)" stroke-linecap="butt" stroke-linejoin="miter" stroke-miterlimit="10" stroke-opacity="1" stroke-width="0.39848" d="M -77.844971 10.427367 L -77.844971 -7.537311 " transform="matrix(0.98805, 0, 0, -0.98805, 239.453786, 29.064479)"/><path fill="none" stroke="rgb(0%, 0%, 0%)" stroke-linecap="round" stroke-linejoin="round" stroke-miterlimit="10" stroke-opacity="1" stroke-width="0.39848" d="M -2.070492 2.390913 C -1.69491 0.955794 -0.848862 0.279747 0.00113902 -0.000951155 C -0.848862 -0.277696 -1.69491 -0.957697 -2.070492 -2.392815 " transform="matrix(0, 0.98805, 0.98805, 0, 162.540002, 36.709812)"/><g fill="rgb(0%, 0%, 0%)" fill-opacity="1"><use xlink:href="#4021f679ad2efa1c1a0583fa86aebfdc1idqxwa9__glyph-2-2" x="150.280298" y="28.825371"/></g><g fill="rgb(0%, 0%, 0%)" fill-opacity="1"><use xlink:href="#4021f679ad2efa1c1a0583fa86aebfdc1idqxwa9__glyph-6-0" x="155.398397" y="29.809468"/></g><path fill="none" stroke="rgb(0%, 0%, 0%)" stroke-linecap="butt" stroke-linejoin="miter" stroke-miterlimit="10" stroke-opacity="1" stroke-width="0.39848" d="M 13.374002 18.259239 L 36.486129 18.259239 " transform="matrix(0.98805, 0, 0, -0.98805, 239.453786, 29.064479)"/><path fill="none" stroke="rgb(0%, 0%, 0%)" stroke-linecap="round" stroke-linejoin="round" stroke-miterlimit="10" stroke-opacity="1" stroke-width="0.39848" d="M -2.070814 2.389 C -1.695232 0.957835 -0.849184 0.277834 0.000817452 0.00108921 C -0.849184 -0.279609 -1.695232 -0.955656 -2.070814 -2.390775 " transform="matrix(0.98805, 0, 0, -0.98805, 275.702317, 11.024514)"/><path fill="none" stroke="rgb(0%, 0%, 0%)" stroke-linecap="butt" stroke-linejoin="miter" stroke-miterlimit="10" stroke-opacity="1" stroke-width="0.39848" d="M -17.621393 10.854344 L -64.683789 -11.644991 " transform="matrix(0.98805, 0, 0, -0.98805, 239.453786, 29.064479)"/><path fill="none" stroke="rgb(0%, 0%, 0%)" stroke-linecap="round" stroke-linejoin="round" stroke-miterlimit="10" stroke-opacity="1" stroke-width="0.39848" d="M -2.071324 2.391292 C -1.692245 0.956728 -0.850843 0.278394 0.00119748 -0.00185306 C -0.849826 -0.278644 -1.695513 -0.956776 -2.069802 -2.390528 " transform="matrix(-0.891369, 0.426136, 0.426136, 0.891369, 175.365138, 40.653485)"/><g fill="rgb(0%, 0%, 0%)" fill-opacity="1"><use xlink:href="#4021f679ad2efa1c1a0583fa86aebfdc1idqxwa9__glyph-2-4" x="187.758022" y="26.237668"/></g><g fill="rgb(0%, 0%, 0%)" fill-opacity="1"><use xlink:href="#4021f679ad2efa1c1a0583fa86aebfdc1idqxwa9__glyph-6-0" x="191.47309" y="27.222754"/></g><path fill="none" stroke="rgb(0%, 0%, 0%)" stroke-linecap="butt" stroke-linejoin="miter" stroke-miterlimit="10" stroke-opacity="1" stroke-width="0.39848" d="M -4.52742 9.597133 L -4.52742 -7.537311 " transform="matrix(0.98805, 0, 0, -0.98805, 239.453786, 29.064479)"/><path fill="none" stroke="rgb(0%, 0%, 0%)" stroke-linecap="round" stroke-linejoin="round" stroke-miterlimit="10" stroke-opacity="1" stroke-width="0.39848" d="M -2.070492 2.389894 C -1.69491 0.954775 -0.848862 0.278728 0.00113902 -0.00197017 C -0.848862 -0.278715 -1.69491 -0.954762 -2.070492 -2.389881 " transform="matrix(0, 0.98805, 0.98805, 0, 234.982415, 36.709812)"/><g fill="rgb(0%, 0%, 0%)" fill-opacity="1"><use xlink:href="#4021f679ad2efa1c1a0583fa86aebfdc1idqxwa9__glyph-2-2" x="214.040152" y="28.825371"/></g><g fill="rgb(0%, 0%, 0%)" fill-opacity="1"><use xlink:href="#4021f679ad2efa1c1a0583fa86aebfdc1idqxwa9__glyph-6-0" x="219.158251" y="29.809468"/></g><g fill="rgb(0%, 0%, 0%)" fill-opacity="1"><use xlink:href="#4021f679ad2efa1c1a0583fa86aebfdc1idqxwa9__glyph-8-0" x="223.493349" y="29.809468"/></g><g fill="rgb(0%, 0%, 0%)" fill-opacity="1"><use xlink:href="#4021f679ad2efa1c1a0583fa86aebfdc1idqxwa9__glyph-7-1" x="228.825106" y="29.809468"/></g><path fill="none" stroke="rgb(0%, 0%, 0%)" stroke-linecap="butt" stroke-linejoin="miter" stroke-miterlimit="10" stroke-opacity="1" stroke-width="0.39848" d="M 0.280029 9.597133 L 0.280029 -7.537311 " transform="matrix(0.98805, 0, 0, -0.98805, 239.453786, 29.064479)"/><path fill="none" stroke="rgb(0%, 0%, 0%)" stroke-linecap="round" stroke-linejoin="round" stroke-miterlimit="10" stroke-opacity="1" stroke-width="0.39848" d="M -2.070492 2.389189 C -1.69491 0.958024 -0.848862 0.278023 0.00113902 0.00127884 C -0.848862 -0.279419 -1.69491 -0.955467 -2.070492 -2.390585 " transform="matrix(0, 0.98805, 0.98805, 0, 239.729205, 36.709812)"/><g fill="rgb(0%, 0%, 0%)" fill-opacity="1"><use xlink:href="#4021f679ad2efa1c1a0583fa86aebfdc1idqxwa9__glyph-2-3" x="242.045441" y="29.734377"/></g><g fill="rgb(0%, 0%, 0%)" fill-opacity="1"><use xlink:href="#4021f679ad2efa1c1a0583fa86aebfdc1idqxwa9__glyph-6-0" x="246.508463" y="30.718474"/></g><g fill="rgb(0%, 0%, 0%)" fill-opacity="1"><use xlink:href="#4021f679ad2efa1c1a0583fa86aebfdc1idqxwa9__glyph-8-0" x="250.843561" y="30.718474"/></g><g fill="rgb(0%, 0%, 0%)" fill-opacity="1"><use xlink:href="#4021f679ad2efa1c1a0583fa86aebfdc1idqxwa9__glyph-7-1" x="256.175319" y="30.718474"/></g><path fill="none" stroke="rgb(0%, 0%, 0%)" stroke-linecap="butt" stroke-linejoin="miter" stroke-miterlimit="10" stroke-opacity="1" stroke-width="0.39848" d="M 57.487091 18.259239 L 80.599218 18.259239 " transform="matrix(0.98805, 0, 0, -0.98805, 239.453786, 29.064479)"/><path fill="none" stroke="rgb(0%, 0%, 0%)" stroke-linecap="round" stroke-linejoin="round" stroke-miterlimit="10" stroke-opacity="1" stroke-width="0.39848" d="M -2.070525 2.389 C -1.694943 0.957835 -0.848895 0.277834 0.00110636 0.00108921 C -0.848895 -0.279609 -1.694943 -0.955656 -2.070525 -2.390775 " transform="matrix(0.98805, 0, 0, -0.98805, 319.287969, 11.024514)"/><path fill="none" stroke="rgb(0%, 0%, 0%)" stroke-linecap="butt" stroke-linejoin="miter" stroke-miterlimit="10" stroke-opacity="1" stroke-width="0.39848" d="M 100.841109 18.259239 L 149.263506 18.259239 " transform="matrix(0.98805, 0, 0, -0.98805, 239.453786, 29.064479)"/><path fill="none" stroke="rgb(0%, 0%, 0%)" stroke-linecap="round" stroke-linejoin="round" stroke-miterlimit="10" stroke-opacity="1" stroke-width="0.39848" d="M -2.07363 2.389 C -1.694094 0.957835 -0.848047 0.277834 0.00195461 0.00108921 C -0.848047 -0.279609 -1.694094 -0.955656 -2.07363 -2.390775 " transform="matrix(0.98805, 0, 0, -0.98805, 387.130881, 11.024514)"/><g fill="rgb(0%, 0%, 0%)" fill-opacity="1"><use xlink:href="#4021f679ad2efa1c1a0583fa86aebfdc1idqxwa9__glyph-2-1" x="359.367486" y="7.368877"/></g><g fill="rgb(0%, 0%, 0%)" fill-opacity="1"><use xlink:href="#4021f679ad2efa1c1a0583fa86aebfdc1idqxwa9__glyph-7-2" x="363.206061" y="8.353963"/></g><path fill="none" stroke="rgb(0%, 0%, 0%)" stroke-linecap="butt" stroke-linejoin="miter" stroke-miterlimit="10" stroke-opacity="1" stroke-width="0.39848" d="M 88.518067 10.427367 L 88.518067 -7.537311 " transform="matrix(0.98805, 0, 0, -0.98805, 239.453786, 29.064479)"/><path fill="none" stroke="rgb(0%, 0%, 0%)" stroke-linecap="round" stroke-linejoin="round" stroke-miterlimit="10" stroke-opacity="1" stroke-width="0.39848" d="M -2.070492 2.391481 C -1.69491 0.956363 -0.848862 0.280315 0.00113902 -0.000382848 C -0.848862 -0.277127 -1.69491 -0.957128 -2.070492 -2.392247 " transform="matrix(0, 0.98805, 0.98805, 0, 326.914441, 36.709812)"/><g fill="rgb(0%, 0%, 0%)" fill-opacity="1"><use xlink:href="#4021f679ad2efa1c1a0583fa86aebfdc1idqxwa9__glyph-2-2" x="315.63837" y="28.825371"/></g><g fill="rgb(0%, 0%, 0%)" fill-opacity="1"><use xlink:href="#4021f679ad2efa1c1a0583fa86aebfdc1idqxwa9__glyph-7-2" x="320.75548" y="29.809468"/></g><path fill="none" stroke="rgb(0%, 0%, 0%)" stroke-linecap="butt" stroke-linejoin="miter" stroke-miterlimit="10" stroke-opacity="1" stroke-width="0.39848" d="M 93.321563 10.427367 L 93.321563 -7.537311 " transform="matrix(0.98805, 0, 0, -0.98805, 239.453786, 29.064479)"/><path fill="none" stroke="rgb(0%, 0%, 0%)" stroke-linecap="round" stroke-linejoin="round" stroke-miterlimit="10" stroke-opacity="1" stroke-width="0.39848" d="M -2.070492 2.390747 C -1.69491 0.955628 -0.848862 0.279581 0.00113902 -0.00111733 C -0.848862 -0.277862 -1.69491 -0.957863 -2.070492 -2.389028 " transform="matrix(0, 0.98805, 0.98805, 0, 331.66126, 36.709812)"/><g fill="rgb(0%, 0%, 0%)" fill-opacity="1"><use xlink:href="#4021f679ad2efa1c1a0583fa86aebfdc1idqxwa9__glyph-2-3" x="333.976578" y="29.556528"/></g><g fill="rgb(0%, 0%, 0%)" fill-opacity="1"><use xlink:href="#4021f679ad2efa1c1a0583fa86aebfdc1idqxwa9__glyph-7-2" x="338.439599" y="30.541614"/></g><path fill="none" stroke="rgb(0%, 0%, 0%)" stroke-linecap="butt" stroke-linejoin="miter" stroke-miterlimit="10" stroke-opacity="1" stroke-width="0.39848" d="M 169.390746 18.259239 L 193.90241 18.259239 " transform="matrix(0.98805, 0, 0, -0.98805, 239.453786, 29.064479)"/><path fill="none" stroke="rgb(0%, 0%, 0%)" stroke-linecap="round" stroke-linejoin="round" stroke-miterlimit="10" stroke-opacity="1" stroke-width="0.39848" d="M -2.073396 2.389 C -1.693861 0.957835 -0.851767 0.277834 -0.00176524 0.00108921 C -0.851767 -0.279609 -1.693861 -0.955656 -2.073396 -2.390775 " transform="matrix(0.98805, 0, 0, -0.98805, 431.236119, 11.024514)"/><path fill="none" stroke="rgb(0%, 0%, 0%)" stroke-linecap="butt" stroke-linejoin="miter" stroke-miterlimit="10" stroke-opacity="1" stroke-width="0.39848" d="M 149.662809 13.222488 L 101.196923 -11.538247 " transform="matrix(0.98805, 0, 0, -0.98805, 239.453786, 29.064479)"/><path fill="none" stroke="rgb(0%, 0%, 0%)" stroke-linecap="round" stroke-linejoin="round" stroke-miterlimit="10" stroke-opacity="1" stroke-width="0.39848" d="M -2.071497 2.392142 C -1.694894 0.95669 -0.850246 0.281039 0.00135614 0.00139295 C -0.851533 -0.277685 -1.695495 -0.956443 -2.072098 -2.38893 " transform="matrix(-0.879878, 0.449474, 0.449474, 0.879878, 339.266192, 40.552852)"/><g fill="rgb(0%, 0%, 0%)" fill-opacity="1"><use xlink:href="#4021f679ad2efa1c1a0583fa86aebfdc1idqxwa9__glyph-2-4" x="353.335441" y="25.021378"/></g><g fill="rgb(0%, 0%, 0%)" fill-opacity="1"><use xlink:href="#4021f679ad2efa1c1a0583fa86aebfdc1idqxwa9__glyph-7-2" x="357.050509" y="26.005476"/></g><path fill="none" stroke="rgb(0%, 0%, 0%)" stroke-linecap="butt" stroke-linejoin="miter" stroke-miterlimit="10" stroke-opacity="1" stroke-width="0.39848" d="M 159.526777 11.921788 L 159.526777 -7.537311 " transform="matrix(0.98805, 0, 0, -0.98805, 239.453786, 29.064479)"/><path fill="none" stroke="rgb(0%, 0%, 0%)" stroke-linecap="round" stroke-linejoin="round" stroke-miterlimit="10" stroke-opacity="1" stroke-width="0.39848" d="M -2.070492 2.391722 C -1.69491 0.956603 -0.848862 0.280556 0.00113902 -0.000142509 C -0.848862 -0.280841 -1.69491 -0.956888 -2.070492 -2.392007 " transform="matrix(0, 0.98805, 0.98805, 0, 397.07436, 36.709812)"/><g fill="rgb(0%, 0%, 0%)" fill-opacity="1"><use xlink:href="#4021f679ad2efa1c1a0583fa86aebfdc1idqxwa9__glyph-2-2" x="399.388452" y="28.579346"/></g><path fill="none" stroke="rgb(0%, 0%, 0%)" stroke-linecap="butt" stroke-linejoin="miter" stroke-miterlimit="10" stroke-opacity="1" stroke-width="0.39848" d="M -187.661181 -16.78058 L -164.5451 -16.78058 " transform="matrix(0.98805, 0, 0, -0.98805, 239.453786, 29.064479)"/><path fill="none" stroke="rgb(0%, 0%, 0%)" stroke-linecap="round" stroke-linejoin="round" stroke-miterlimit="10" stroke-opacity="1" stroke-width="0.39848" d="M -2.072616 2.392824 C -1.693081 0.957705 -0.850987 0.277704 -0.000985485 0.000959614 C -0.850987 -0.279738 -1.693081 -0.955786 -2.072616 -2.390904 " transform="matrix(0.98805, 0, 0, -0.98805, 77.071286, 45.645479)"/><path fill="none" stroke="rgb(0%, 0%, 0%)" stroke-linecap="butt" stroke-linejoin="miter" stroke-miterlimit="10" stroke-opacity="1" stroke-width="0.39848" d="M -133.2611 -16.78058 L -86.238239 -16.78058 " transform="matrix(0.98805, 0, 0, -0.98805, 239.453786, 29.064479)"/><path fill="none" stroke="rgb(0%, 0%, 0%)" stroke-linecap="round" stroke-linejoin="round" stroke-miterlimit="10" stroke-opacity="1" stroke-width="0.39848" d="M -2.072646 2.392824 C -1.69311 0.957705 -0.851016 0.277704 -0.00101475 0.000959614 C -0.851016 -0.279738 -1.69311 -0.955786 -2.072646 -2.390904 " transform="matrix(0.98805, 0, 0, -0.98805, 154.442409, 45.645479)"/><g fill="rgb(0%, 0%, 0%)" fill-opacity="1"><use xlink:href="#4021f679ad2efa1c1a0583fa86aebfdc1idqxwa9__glyph-2-1" x="122.676157" y="53.665936"/></g><g fill="rgb(0%, 0%, 0%)" fill-opacity="1"><use xlink:href="#4021f679ad2efa1c1a0583fa86aebfdc1idqxwa9__glyph-8-1" x="127.286398" y="50.695857"/></g><g fill="rgb(0%, 0%, 0%)" fill-opacity="1"><use xlink:href="#4021f679ad2efa1c1a0583fa86aebfdc1idqxwa9__glyph-6-0" x="126.514731" y="55.635119"/></g><g fill="rgb(0%, 0%, 0%)" fill-opacity="1"><use xlink:href="#4021f679ad2efa1c1a0583fa86aebfdc1idqxwa9__glyph-7-0" x="130.849829" y="55.635119"/><use xlink:href="#4021f679ad2efa1c1a0583fa86aebfdc1idqxwa9__glyph-7-1" x="135.908428" y="55.635119"/></g><path fill="none" stroke="rgb(0%, 0%, 0%)" stroke-linecap="butt" stroke-linejoin="miter" stroke-miterlimit="10" stroke-opacity="1" stroke-width="0.39848" d="M -65.043557 -16.78058 L -18.020696 -16.78058 " transform="matrix(0.98805, 0, 0, -0.98805, 239.453786, 29.064479)"/><path fill="none" stroke="rgb(0%, 0%, 0%)" stroke-linecap="round" stroke-linejoin="round" stroke-miterlimit="10" stroke-opacity="1" stroke-width="0.39848" d="M -2.070699 2.392824 C -1.695117 0.957705 -0.849069 0.277704 0.000932139 0.000959614 C -0.849069 -0.279738 -1.695117 -0.955786 -2.070699 -2.390904 " transform="matrix(0.98805, 0, 0, -0.98805, 221.846735, 45.645479)"/><g fill="rgb(0%, 0%, 0%)" fill-opacity="1"><use xlink:href="#4021f679ad2efa1c1a0583fa86aebfdc1idqxwa9__glyph-2-1" x="194.283104" y="53.665936"/></g><g fill="rgb(0%, 0%, 0%)" fill-opacity="1"><use xlink:href="#4021f679ad2efa1c1a0583fa86aebfdc1idqxwa9__glyph-8-1" x="198.894334" y="50.695857"/></g><g fill="rgb(0%, 0%, 0%)" fill-opacity="1"><use xlink:href="#4021f679ad2efa1c1a0583fa86aebfdc1idqxwa9__glyph-6-0" x="198.121679" y="55.635119"/></g><path fill="none" stroke="rgb(0%, 0%, 0%)" stroke-linecap="butt" stroke-linejoin="miter" stroke-miterlimit="10" stroke-opacity="1" stroke-width="0.39848" d="M 13.374002 -16.78058 L 36.486129 -16.78058 " transform="matrix(0.98805, 0, 0, -0.98805, 239.453786, 29.064479)"/><path fill="none" stroke="rgb(0%, 0%, 0%)" stroke-linecap="round" stroke-linejoin="round" stroke-miterlimit="10" stroke-opacity="1" stroke-width="0.39848" d="M -2.070814 2.392824 C -1.695232 0.957705 -0.849184 0.277704 0.000817452 0.000959614 C -0.849184 -0.279738 -1.695232 -0.955786 -2.070814 -2.390904 " transform="matrix(0.98805, 0, 0, -0.98805, 275.702317, 45.645479)"/><path fill="none" stroke="rgb(0%, 0%, 0%)" stroke-linecap="butt" stroke-linejoin="miter" stroke-miterlimit="10" stroke-opacity="1" stroke-width="0.39848" d="M 57.487091 -16.78058 L 80.599218 -16.78058 " transform="matrix(0.98805, 0, 0, -0.98805, 239.453786, 29.064479)"/><path fill="none" stroke="rgb(0%, 0%, 0%)" stroke-linecap="round" stroke-linejoin="round" stroke-miterlimit="10" stroke-opacity="1" stroke-width="0.39848" d="M -2.070525 2.392824 C -1.694943 0.957705 -0.848895 0.277704 0.00110636 0.000959614 C -0.848895 -0.279738 -1.694943 -0.955786 -2.070525 -2.390904 " transform="matrix(0.98805, 0, 0, -0.98805, 319.287969, 45.645479)"/><path fill="none" stroke="rgb(0%, 0%, 0%)" stroke-linecap="butt" stroke-linejoin="miter" stroke-miterlimit="10" stroke-opacity="1" stroke-width="0.39848" d="M 100.841109 -16.78058 L 147.867923 -16.78058 " transform="matrix(0.98805, 0, 0, -0.98805, 239.453786, 29.064479)"/><path fill="none" stroke="rgb(0%, 0%, 0%)" stroke-linecap="round" stroke-linejoin="round" stroke-miterlimit="10" stroke-opacity="1" stroke-width="0.39848" d="M -2.071663 2.392824 C -1.692128 0.957705 -0.850034 0.277704 -0.0000323582 0.000959614 C -0.850034 -0.279738 -1.692128 -0.955786 -2.071663 -2.390904 " transform="matrix(0.98805, 0, 0, -0.98805, 385.750032, 45.645479)"/><g fill="rgb(0%, 0%, 0%)" fill-opacity="1"><use xlink:href="#4021f679ad2efa1c1a0583fa86aebfdc1idqxwa9__glyph-2-1" x="358.677828" y="53.665936"/></g><g fill="rgb(0%, 0%, 0%)" fill-opacity="1"><use xlink:href="#4021f679ad2efa1c1a0583fa86aebfdc1idqxwa9__glyph-8-1" x="363.288069" y="50.695857"/></g><g fill="rgb(0%, 0%, 0%)" fill-opacity="1"><use xlink:href="#4021f679ad2efa1c1a0583fa86aebfdc1idqxwa9__glyph-7-2" x="362.515414" y="55.635119"/></g><path fill="none" stroke="rgb(0%, 0%, 0%)" stroke-linecap="butt" stroke-linejoin="miter" stroke-miterlimit="10" stroke-opacity="1" stroke-width="0.39848" d="M 170.790283 -16.78058 L 193.90241 -16.78058 " transform="matrix(0.98805, 0, 0, -0.98805, 239.453786, 29.064479)"/><path fill="none" stroke="rgb(0%, 0%, 0%)" stroke-linecap="round" stroke-linejoin="round" stroke-miterlimit="10" stroke-opacity="1" stroke-width="0.39848" d="M -2.073396 2.392824 C -1.693861 0.957705 -0.851767 0.277704 -0.00176524 0.000959614 C -0.851767 -0.279738 -1.693861 -0.955786 -2.073396 -2.390904 " transform="matrix(0.98805, 0, 0, -0.98805, 431.236119, 45.645479)"/></svg>