<?xml version="1.0" encoding="UTF-8"?><svg xmlns="http://www.w3.org/2000/svg" xmlns:xlink="http://www.w3.org/1999/xlink" width="343.711" height="72.859" viewBox="0 0 343.711 72.859"><defs><g><g id="2edb7e6c88e5f887c87510b8a2ba0b071s3fzvqf__glyph-0-0"><path d="M 6.828125 -3.25 C 6.96875 -3.25 7.171875 -3.25 7.171875 -3.453125 C 7.171875 -3.640625 6.96875 -3.640625 6.84375 -3.640625 L 0.890625 -3.640625 C 0.75 -3.640625 0.5625 -3.640625 0.5625 -3.453125 C 0.5625 -3.25 0.75 -3.25 0.890625 -3.25 Z M 6.84375 -1.328125 C 6.96875 -1.328125 7.171875 -1.328125 7.171875 -1.515625 C 7.171875 -1.71875 6.96875 -1.71875 6.828125 -1.71875 L 0.890625 -1.71875 C 0.75 -1.71875 0.5625 -1.71875 0.5625 -1.515625 C 0.5625 -1.328125 0.75 -1.328125 0.890625 -1.328125 Z M 6.84375 -1.328125 "/></g></g><clipPath id="2edb7e6c88e5f887c87510b8a2ba0b071s3fzvqf__clip-0"><path d="M 42 0 L 128 0 L 128 72.71875 L 42 72.71875 Z M 42 0 " clip-rule="nonzero"/></clipPath><clipPath id="2edb7e6c88e5f887c87510b8a2ba0b071s3fzvqf__clip-1"><path d="M 99 0 L 184 0 L 184 72.71875 L 99 72.71875 Z M 99 0 " clip-rule="nonzero"/></clipPath><clipPath id="2edb7e6c88e5f887c87510b8a2ba0b071s3fzvqf__clip-2"><path d="M 61 71 L 165 71 L 165 72.71875 L 61 72.71875 Z M 61 71 " clip-rule="nonzero"/></clipPath><clipPath id="2edb7e6c88e5f887c87510b8a2ba0b071s3fzvqf__clip-3"><path d="M 159 0 L 245 0 L 245 72.71875 L 159 72.71875 Z M 159 0 " clip-rule="nonzero"/></clipPath><clipPath id="2edb7e6c88e5f887c87510b8a2ba0b071s3fzvqf__clip-4"><path d="M 216 0 L 301 0 L 301 72.71875 L 216 72.71875 Z M 216 0 " clip-rule="nonzero"/></clipPath><clipPath id="2edb7e6c88e5f887c87510b8a2ba0b071s3fzvqf__clip-5"><path d="M 178 71 L 282 71 L 282 72.71875 L 178 72.71875 Z M 178 71 " clip-rule="nonzero"/></clipPath></defs><g clip-path="url(#2edb7e6c88e5f887c87510b8a2ba0b071s3fzvqf__clip-0)"><path fill="none" stroke="rgb(0%, 0%, 100%)" stroke-linecap="butt" stroke-linejoin="miter" stroke-miterlimit="10" stroke-opacity="1" stroke-width="1.99255" d="M 28.348128 -0.00102144 C 28.348128 -8.50573 23.812022 -13.605423 18.367913 -18.028028 M 9.976706 -24.493642 C 4.53651 -28.912333 0.000405156 -34.01594 0.000405156 -42.520648 L 0.000405156 -70.868371 " transform="matrix(0.998068, 0, 0, -0.998068, 70.769127, 0.995074)"/><path fill="none" stroke="rgb(100%, 0%, 0%)" stroke-linecap="butt" stroke-linejoin="miter" stroke-miterlimit="10" stroke-opacity="1" stroke-width="1.99255" d="M 0.000405156 -0.00102144 C 0.000405156 -21.260835 28.348128 -21.260835 28.348128 -42.520648 L 28.348128 -70.868371 " transform="matrix(0.998068, 0, 0, -0.998068, 70.769127, 0.995074)"/></g><g clip-path="url(#2edb7e6c88e5f887c87510b8a2ba0b071s3fzvqf__clip-1)"><path fill="none" stroke="rgb(0%, 100%, 0%)" stroke-linecap="butt" stroke-linejoin="miter" stroke-miterlimit="10" stroke-opacity="1" stroke-width="1.99255" d="M 85.039659 -0.00102144 L 85.039659 -28.348744 C 85.039659 -36.849538 80.503554 -41.953146 75.063359 -46.375751 M 66.672151 -52.83745 C 61.228042 -57.260055 56.691936 -62.363663 56.691936 -70.868371 " transform="matrix(0.998068, 0, 0, -0.998068, 70.769127, 0.995074)"/><path fill="none" stroke="rgb(0%, 0%, 0%)" stroke-linecap="butt" stroke-linejoin="miter" stroke-miterlimit="10" stroke-opacity="1" stroke-width="1.99255" d="M 56.691936 -0.00102144 L 56.691936 -28.348744 C 56.691936 -49.608557 85.039659 -49.608557 85.039659 -70.868371 " transform="matrix(0.998068, 0, 0, -0.998068, 70.769127, 0.995074)"/></g><path fill="none" stroke="rgb(0%, 0%, 0%)" stroke-linecap="butt" stroke-linejoin="miter" stroke-miterlimit="10" stroke-opacity="1" stroke-width="0.79701" d="M -8.504303 -0.00102144 L 93.544367 -0.00102144 " transform="matrix(0.998068, 0, 0, -0.998068, 70.769127, 0.995074)"/><g clip-path="url(#2edb7e6c88e5f887c87510b8a2ba0b071s3fzvqf__clip-2)"><path fill="none" stroke="rgb(0%, 0%, 0%)" stroke-linecap="butt" stroke-linejoin="miter" stroke-miterlimit="10" stroke-opacity="1" stroke-width="0.79701" d="M -8.504303 -70.868371 L 93.544367 -70.868371 " transform="matrix(0.998068, 0, 0, -0.998068, 70.769127, 0.995074)"/></g><g fill="rgb(0%, 0%, 0%)" fill-opacity="1"><use xlink:href="#2edb7e6c88e5f887c87510b8a2ba0b071s3fzvqf__glyph-0-0" x="167.842664" y="72.718272"/></g><g clip-path="url(#2edb7e6c88e5f887c87510b8a2ba0b071s3fzvqf__clip-3)"><path fill="none" stroke="rgb(0%, 0%, 100%)" stroke-linecap="butt" stroke-linejoin="miter" stroke-miterlimit="10" stroke-opacity="1" stroke-width="1.99255" d="M 28.347379 -0.00102144 L 28.347379 -28.348744 C 28.347379 -36.849538 23.811274 -41.953146 18.367165 -46.375751 M 9.975957 -52.83745 C 4.535762 -57.260055 -0.000343585 -62.363663 -0.000343585 -70.868371 " transform="matrix(0.998068, 0, 0, -0.998068, 187.777687, 0.995074)"/><path fill="none" stroke="rgb(100%, 0%, 0%)" stroke-linecap="butt" stroke-linejoin="miter" stroke-miterlimit="10" stroke-opacity="1" stroke-width="1.99255" d="M -0.000343585 -0.00102144 L -0.000343585 -28.348744 C -0.000343585 -49.608557 28.347379 -49.608557 28.347379 -70.868371 " transform="matrix(0.998068, 0, 0, -0.998068, 187.777687, 0.995074)"/></g><g clip-path="url(#2edb7e6c88e5f887c87510b8a2ba0b071s3fzvqf__clip-4)"><path fill="none" stroke="rgb(0%, 100%, 0%)" stroke-linecap="butt" stroke-linejoin="miter" stroke-miterlimit="10" stroke-opacity="1" stroke-width="1.99255" d="M 85.03891 -0.00102144 C 85.03891 -8.50573 80.506719 -13.605423 75.06261 -18.028028 M 66.671402 -24.493642 C 61.227293 -28.912333 56.695102 -34.01594 56.695102 -42.520648 L 56.695102 -70.868371 " transform="matrix(0.998068, 0, 0, -0.998068, 187.777687, 0.995074)"/><path fill="none" stroke="rgb(0%, 0%, 0%)" stroke-linecap="butt" stroke-linejoin="miter" stroke-miterlimit="10" stroke-opacity="1" stroke-width="1.99255" d="M 56.695102 -0.00102144 C 56.695102 -21.260835 85.03891 -21.260835 85.03891 -42.520648 L 85.03891 -70.868371 " transform="matrix(0.998068, 0, 0, -0.998068, 187.777687, 0.995074)"/></g><path fill="none" stroke="rgb(0%, 0%, 0%)" stroke-linecap="butt" stroke-linejoin="miter" stroke-miterlimit="10" stroke-opacity="1" stroke-width="0.79701" d="M -8.505052 -0.00102144 L 93.543618 -0.00102144 " transform="matrix(0.998068, 0, 0, -0.998068, 187.777687, 0.995074)"/><g clip-path="url(#2edb7e6c88e5f887c87510b8a2ba0b071s3fzvqf__clip-5)"><path fill="none" stroke="rgb(0%, 0%, 0%)" stroke-linecap="butt" stroke-linejoin="miter" stroke-miterlimit="10" stroke-opacity="1" stroke-width="0.79701" d="M -8.505052 -70.868371 L 93.543618 -70.868371 " transform="matrix(0.998068, 0, 0, -0.998068, 187.777687, 0.995074)"/></g></svg>