<?xml version="1.0" encoding="UTF-8"?><svg xmlns="http://www.w3.org/2000/svg" xmlns:xlink="http://www.w3.org/1999/xlink" width="343.711" height="78.064" viewBox="0 0 343.711 78.064"><defs><g><g id="e176b94791cd1df6279b9ff5f4eb61286ljfgo8q__glyph-0-0"><path d="M 6.96875 -2.296875 C 6.984375 -2.34375 7.015625 -2.40625 7.015625 -2.4375 C 7.015625 -2.4375 7.015625 -2.546875 6.90625 -2.546875 C 6.8125 -2.546875 6.796875 -2.484375 6.765625 -2.421875 C 6.125 -0.96875 5.765625 -0.3125 4.078125 -0.3125 L 2.640625 -0.3125 C 2.515625 -0.3125 2.484375 -0.3125 2.4375 -0.3125 C 2.328125 -0.328125 2.296875 -0.328125 2.296875 -0.40625 C 2.296875 -0.4375 2.296875 -0.46875 2.359375 -0.640625 L 3.015625 -3.328125 L 4 -3.328125 C 4.828125 -3.328125 4.828125 -3.125 4.828125 -2.875 C 4.828125 -2.8125 4.828125 -2.6875 4.765625 -2.390625 C 4.75 -2.34375 4.734375 -2.3125 4.734375 -2.28125 C 4.734375 -2.234375 4.78125 -2.171875 4.859375 -2.171875 C 4.9375 -2.171875 4.96875 -2.21875 5.015625 -2.375 L 5.578125 -4.671875 C 5.578125 -4.734375 5.515625 -4.78125 5.453125 -4.78125 C 5.359375 -4.78125 5.34375 -4.71875 5.3125 -4.609375 C 5.109375 -3.859375 4.9375 -3.625 4.03125 -3.625 L 3.09375 -3.625 L 3.6875 -6 C 3.78125 -6.34375 3.796875 -6.390625 4.21875 -6.390625 L 5.609375 -6.390625 C 6.8125 -6.390625 7.109375 -6.109375 7.109375 -5.296875 C 7.109375 -5.0625 7.109375 -5.046875 7.0625 -4.78125 C 7.0625 -4.71875 7.0625 -4.640625 7.0625 -4.59375 C 7.0625 -4.546875 7.09375 -4.484375 7.171875 -4.484375 C 7.28125 -4.484375 7.296875 -4.53125 7.3125 -4.71875 L 7.515625 -6.421875 C 7.546875 -6.6875 7.484375 -6.6875 7.25 -6.6875 L 2.28125 -6.6875 C 2.078125 -6.6875 1.984375 -6.6875 1.984375 -6.5 C 1.984375 -6.390625 2.0625 -6.390625 2.25 -6.390625 C 2.625 -6.390625 2.890625 -6.390625 2.890625 -6.21875 C 2.890625 -6.171875 2.890625 -6.15625 2.84375 -5.96875 L 1.546875 -0.765625 C 1.453125 -0.390625 1.421875 -0.3125 0.65625 -0.3125 C 0.484375 -0.3125 0.375 -0.3125 0.375 -0.125 C 0.375 0 0.46875 0 0.65625 0 L 5.765625 0 C 5.984375 0 6 -0.015625 6.0625 -0.171875 Z M 6.96875 -2.296875 "/></g><g id="e176b94791cd1df6279b9ff5f4eb61286ljfgo8q__glyph-0-1"><path d="M 3.6875 -5.96875 C 3.765625 -6.3125 3.796875 -6.421875 4.578125 -6.421875 C 4.8125 -6.421875 4.890625 -6.421875 4.890625 -6.609375 C 4.890625 -6.71875 4.78125 -6.71875 4.75 -6.71875 C 4.453125 -6.71875 3.734375 -6.6875 3.453125 -6.6875 C 3.15625 -6.6875 2.4375 -6.71875 2.140625 -6.71875 C 2.0625 -6.71875 1.9375 -6.71875 1.9375 -6.53125 C 1.9375 -6.421875 2.03125 -6.421875 2.21875 -6.421875 C 2.625 -6.421875 2.890625 -6.421875 2.890625 -6.234375 C 2.890625 -6.1875 2.890625 -6.15625 2.875 -6.078125 L 1.546875 -0.765625 C 1.453125 -0.40625 1.421875 -0.3125 0.65625 -0.3125 C 0.421875 -0.3125 0.328125 -0.3125 0.328125 -0.109375 C 0.328125 0 0.453125 0 0.484375 0 C 0.765625 0 1.484375 -0.03125 1.765625 -0.03125 C 2.0625 -0.03125 2.796875 0 3.09375 0 C 3.171875 0 3.28125 0 3.28125 -0.1875 C 3.28125 -0.3125 3.203125 -0.3125 3 -0.3125 C 2.8125 -0.3125 2.765625 -0.3125 2.5625 -0.328125 C 2.359375 -0.34375 2.328125 -0.390625 2.328125 -0.5 C 2.328125 -0.578125 2.34375 -0.65625 2.359375 -0.71875 Z M 3.6875 -5.96875 "/></g><g id="e176b94791cd1df6279b9ff5f4eb61286ljfgo8q__glyph-0-2"><path d="M 1.578125 -0.765625 C 1.484375 -0.390625 1.453125 -0.3125 0.671875 -0.3125 C 0.515625 -0.3125 0.40625 -0.3125 0.40625 -0.109375 C 0.40625 0 0.5 0 0.671875 0 L 4.1875 0 C 5.75 0 6.90625 -1.15625 6.90625 -2.125 C 6.90625 -2.828125 6.34375 -3.40625 5.390625 -3.515625 C 6.40625 -3.703125 7.4375 -4.4375 7.4375 -5.359375 C 7.4375 -6.09375 6.796875 -6.71875 5.609375 -6.71875 L 2.296875 -6.71875 C 2.109375 -6.71875 2.015625 -6.71875 2.015625 -6.53125 C 2.015625 -6.421875 2.109375 -6.421875 2.296875 -6.421875 C 2.3125 -6.421875 2.5 -6.421875 2.671875 -6.40625 C 2.84375 -6.375 2.9375 -6.375 2.9375 -6.234375 C 2.9375 -6.203125 2.921875 -6.171875 2.890625 -6.046875 Z M 3.0625 -3.609375 L 3.671875 -6.046875 C 3.765625 -6.390625 3.78125 -6.421875 4.203125 -6.421875 L 5.46875 -6.421875 C 6.34375 -6.421875 6.546875 -5.84375 6.546875 -5.40625 C 6.546875 -4.53125 5.703125 -3.609375 4.5 -3.609375 Z M 2.625 -0.3125 C 2.484375 -0.3125 2.46875 -0.3125 2.40625 -0.3125 C 2.296875 -0.328125 2.28125 -0.328125 2.28125 -0.40625 C 2.28125 -0.4375 2.28125 -0.46875 2.328125 -0.640625 L 3 -3.390625 L 4.859375 -3.390625 C 5.8125 -3.390625 6 -2.65625 6 -2.234375 C 6 -1.265625 5.125 -0.3125 3.953125 -0.3125 Z M 2.625 -0.3125 "/></g><g id="e176b94791cd1df6279b9ff5f4eb61286ljfgo8q__glyph-1-0"><path d="M 2 -3.25 C 2.046875 -3.375 2.0625 -3.421875 2.0625 -3.46875 C 2.0625 -3.6875 1.875 -3.859375 1.65625 -3.859375 C 1.390625 -3.859375 1.3125 -3.640625 1.28125 -3.53125 L 0.359375 -0.546875 C 0.359375 -0.53125 0.328125 -0.4375 0.328125 -0.4375 C 0.328125 -0.34375 0.546875 -0.28125 0.59375 -0.28125 C 0.640625 -0.28125 0.65625 -0.296875 0.703125 -0.40625 Z M 2 -3.25 "/></g><g id="e176b94791cd1df6279b9ff5f4eb61286ljfgo8q__glyph-1-1"><path d="M 3.5 -1.71875 C 3.5 -2.5625 2.828125 -3.203125 2.015625 -3.203125 C 1.1875 -3.203125 0.53125 -2.53125 0.53125 -1.734375 C 0.53125 -0.890625 1.203125 -0.25 2.015625 -0.25 C 2.84375 -0.25 3.5 -0.921875 3.5 -1.71875 Z M 2.015625 -0.578125 C 1.359375 -0.578125 0.875 -1.109375 0.875 -1.71875 C 0.875 -2.359375 1.375 -2.859375 2.015625 -2.859375 C 2.65625 -2.859375 3.15625 -2.34375 3.15625 -1.734375 C 3.15625 -1.09375 2.640625 -0.578125 2.015625 -0.578125 Z M 2.015625 -0.578125 "/></g><g id="e176b94791cd1df6279b9ff5f4eb61286ljfgo8q__glyph-2-0"><path d="M 3.828125 -2.734375 L 1.859375 -4.703125 C 1.75 -4.8125 1.71875 -4.828125 1.640625 -4.828125 C 1.546875 -4.828125 1.453125 -4.75 1.453125 -4.640625 C 1.453125 -4.5625 1.46875 -4.546875 1.578125 -4.4375 L 3.546875 -2.46875 L 1.578125 -0.484375 C 1.46875 -0.375 1.453125 -0.359375 1.453125 -0.28125 C 1.453125 -0.171875 1.546875 -0.09375 1.640625 -0.09375 C 1.71875 -0.09375 1.75 -0.109375 1.859375 -0.21875 L 3.8125 -2.1875 L 5.859375 -0.140625 C 5.875 -0.140625 5.953125 -0.09375 6 -0.09375 C 6.125 -0.09375 6.203125 -0.171875 6.203125 -0.28125 C 6.203125 -0.3125 6.203125 -0.34375 6.171875 -0.390625 C 6.15625 -0.40625 4.59375 -1.953125 4.109375 -2.46875 L 5.90625 -4.265625 C 5.953125 -4.328125 6.109375 -4.453125 6.15625 -4.515625 C 6.15625 -4.53125 6.203125 -4.5625 6.203125 -4.640625 C 6.203125 -4.75 6.125 -4.828125 6 -4.828125 C 5.921875 -4.828125 5.890625 -4.796875 5.78125 -4.6875 Z M 3.828125 -2.734375 "/></g><g id="e176b94791cd1df6279b9ff5f4eb61286ljfgo8q__glyph-3-0"><path d="M 0.796875 -1.4375 C 0.734375 -1.21875 0.515625 -0.703125 0.515625 -0.515625 C 0.515625 -0.234375 0.71875 0.0625 1.1875 0.0625 C 1.5 0.0625 1.84375 -0.0625 2.125 -0.28125 C 2.515625 -0.59375 2.578125 -0.96875 2.578125 -0.984375 C 2.578125 -1.078125 2.484375 -1.078125 2.46875 -1.078125 C 2.375 -1.078125 2.359375 -1.046875 2.328125 -0.9375 C 2.15625 -0.4375 1.625 -0.125 1.203125 -0.125 C 1.109375 -0.125 1.015625 -0.140625 1.015625 -0.359375 C 1.015625 -0.40625 1.015625 -0.515625 1.09375 -0.71875 C 1.46875 -1.71875 1.71875 -2.796875 1.71875 -2.8125 C 1.71875 -2.9375 1.625 -3.03125 1.484375 -3.03125 C 1.34375 -3.03125 1.234375 -2.9375 1.1875 -2.859375 C 1.140625 -2.734375 1.078125 -2.390625 1.046875 -2.265625 C 1 -2.15625 0.921875 -1.859375 0.890625 -1.75 Z M 0.796875 -1.4375 "/></g><g id="e176b94791cd1df6279b9ff5f4eb61286ljfgo8q__glyph-3-1"><path d="M 2.140625 -2.5 L 2.96875 -2.5 C 2.859375 -2.09375 2.703125 -1.453125 2.703125 -0.921875 C 2.703125 -0.640625 2.75 -0.453125 2.78125 -0.296875 C 2.890625 0.046875 2.984375 0.0625 3.09375 0.0625 C 3.25 0.0625 3.421875 -0.078125 3.421875 -0.234375 C 3.421875 -0.296875 3.40625 -0.328125 3.359375 -0.390625 C 3.234375 -0.640625 3.109375 -1.046875 3.109375 -1.609375 C 3.109375 -1.734375 3.109375 -2.015625 3.203125 -2.5 L 4.0625 -2.5 C 4.1875 -2.5 4.25 -2.5 4.328125 -2.5625 C 4.421875 -2.625 4.4375 -2.734375 4.4375 -2.765625 C 4.4375 -2.96875 4.265625 -2.96875 4.140625 -2.96875 L 1.546875 -2.96875 C 1.265625 -2.96875 1.0625 -2.90625 0.765625 -2.625 C 0.578125 -2.453125 0.3125 -2.09375 0.3125 -2.03125 C 0.3125 -1.9375 0.40625 -1.9375 0.421875 -1.9375 C 0.5 -1.9375 0.515625 -1.953125 0.546875 -2.015625 C 0.90625 -2.5 1.328125 -2.5 1.484375 -2.5 L 1.90625 -2.5 C 1.6875 -1.75 1.3125 -0.9375 1.109375 -0.515625 C 1.0625 -0.421875 1 -0.28125 0.984375 -0.25 C 0.96875 -0.234375 0.953125 -0.203125 0.953125 -0.15625 C 0.953125 -0.046875 1.046875 0.0625 1.203125 0.0625 C 1.46875 0.0625 1.546875 -0.234375 1.71875 -0.859375 Z M 2.140625 -2.5 "/></g><g id="e176b94791cd1df6279b9ff5f4eb61286ljfgo8q__glyph-3-2"><path d="M 5.796875 -4.140625 C 5.859375 -4.40625 5.875 -4.453125 6.375 -4.453125 C 6.53125 -4.453125 6.609375 -4.453125 6.609375 -4.609375 C 6.609375 -4.640625 6.59375 -4.703125 6.5 -4.703125 C 6.3125 -4.703125 5.796875 -4.671875 5.609375 -4.671875 C 5.484375 -4.671875 5.25 -4.671875 5.125 -4.6875 C 4.984375 -4.6875 4.828125 -4.703125 4.6875 -4.703125 C 4.65625 -4.703125 4.546875 -4.703125 4.546875 -4.546875 C 4.546875 -4.453125 4.625 -4.453125 4.765625 -4.453125 C 4.78125 -4.453125 4.90625 -4.453125 5.03125 -4.4375 C 5.171875 -4.4375 5.1875 -4.421875 5.1875 -4.34375 C 5.1875 -4.34375 5.1875 -4.296875 5.15625 -4.203125 L 4.75 -2.5625 L 2.453125 -2.5625 L 2.84375 -4.171875 C 2.90625 -4.40625 2.921875 -4.453125 3.453125 -4.453125 C 3.5625 -4.453125 3.65625 -4.453125 3.65625 -4.609375 C 3.65625 -4.640625 3.640625 -4.703125 3.546875 -4.703125 C 3.34375 -4.703125 2.84375 -4.671875 2.640625 -4.671875 C 2.53125 -4.671875 2.28125 -4.671875 2.171875 -4.6875 C 2.03125 -4.6875 1.875 -4.703125 1.734375 -4.703125 C 1.6875 -4.703125 1.59375 -4.703125 1.59375 -4.546875 C 1.59375 -4.453125 1.671875 -4.453125 1.8125 -4.453125 C 1.8125 -4.453125 1.953125 -4.453125 2.078125 -4.4375 C 2.21875 -4.4375 2.234375 -4.421875 2.234375 -4.34375 C 2.234375 -4.328125 2.234375 -4.296875 2.203125 -4.203125 L 1.28125 -0.53125 C 1.234375 -0.296875 1.21875 -0.25 0.6875 -0.25 C 0.5625 -0.25 0.46875 -0.25 0.46875 -0.109375 C 0.46875 -0.03125 0.53125 0 0.578125 0 C 0.78125 0 1.28125 -0.03125 1.484375 -0.03125 C 1.59375 -0.03125 1.84375 -0.03125 1.953125 -0.015625 C 2.09375 -0.015625 2.265625 0 2.390625 0 C 2.4375 0 2.546875 0 2.546875 -0.140625 C 2.546875 -0.25 2.46875 -0.25 2.3125 -0.25 C 2.203125 -0.25 2.171875 -0.25 2.046875 -0.265625 C 1.90625 -0.28125 1.90625 -0.296875 1.90625 -0.359375 C 1.90625 -0.375 1.90625 -0.40625 1.921875 -0.515625 L 2.390625 -2.328125 L 4.6875 -2.328125 L 4.25 -0.53125 C 4.1875 -0.296875 4.171875 -0.25 3.640625 -0.25 C 3.515625 -0.25 3.4375 -0.25 3.4375 -0.109375 C 3.4375 -0.03125 3.484375 0 3.546875 0 C 3.734375 0 4.234375 -0.03125 4.4375 -0.03125 C 4.546875 -0.03125 4.796875 -0.03125 4.90625 -0.015625 C 5.046875 -0.015625 5.21875 0 5.359375 0 C 5.390625 0 5.5 0 5.5 -0.140625 C 5.5 -0.25 5.4375 -0.25 5.265625 -0.25 C 5.15625 -0.25 5.140625 -0.25 5.015625 -0.265625 C 4.859375 -0.28125 4.859375 -0.296875 4.859375 -0.359375 C 4.859375 -0.40625 4.875 -0.46875 4.890625 -0.515625 Z M 5.796875 -4.140625 "/></g><g id="e176b94791cd1df6279b9ff5f4eb61286ljfgo8q__glyph-3-3"><path d="M 2.234375 -4.3125 C 2.234375 -4.421875 2.15625 -4.5625 1.953125 -4.5625 C 1.765625 -4.5625 1.578125 -4.390625 1.578125 -4.1875 C 1.578125 -4.078125 1.65625 -3.921875 1.84375 -3.921875 C 2.046875 -3.921875 2.234375 -4.125 2.234375 -4.3125 Z M 0.828125 -0.8125 C 0.796875 -0.71875 0.765625 -0.640625 0.765625 -0.515625 C 0.765625 -0.1875 1.046875 0.0625 1.421875 0.0625 C 2.109375 0.0625 2.40625 -0.875 2.40625 -0.984375 C 2.40625 -1.078125 2.328125 -1.078125 2.296875 -1.078125 C 2.203125 -1.078125 2.203125 -1.03125 2.171875 -0.953125 C 2.015625 -0.40625 1.703125 -0.125 1.4375 -0.125 C 1.296875 -0.125 1.265625 -0.21875 1.265625 -0.359375 C 1.265625 -0.53125 1.3125 -0.65625 1.375 -0.8125 C 1.453125 -1 1.515625 -1.171875 1.59375 -1.359375 C 1.65625 -1.515625 1.90625 -2.15625 1.9375 -2.234375 C 1.953125 -2.296875 1.984375 -2.390625 1.984375 -2.453125 C 1.984375 -2.78125 1.703125 -3.03125 1.328125 -3.03125 C 0.640625 -3.03125 0.328125 -2.109375 0.328125 -1.984375 C 0.328125 -1.890625 0.421875 -1.890625 0.4375 -1.890625 C 0.53125 -1.890625 0.546875 -1.921875 0.5625 -2 C 0.75 -2.59375 1.046875 -2.84375 1.296875 -2.84375 C 1.40625 -2.84375 1.46875 -2.796875 1.46875 -2.609375 C 1.46875 -2.453125 1.4375 -2.34375 1.265625 -1.921875 Z M 0.828125 -0.8125 "/></g><g id="e176b94791cd1df6279b9ff5f4eb61286ljfgo8q__glyph-4-0"><path d="M 1.953125 -3.125 C 1.953125 -3.28125 1.9375 -3.28125 1.78125 -3.28125 C 1.4375 -2.96875 0.890625 -2.96875 0.78125 -2.96875 L 0.703125 -2.96875 L 0.703125 -2.75 L 0.78125 -2.75 C 0.90625 -2.75 1.21875 -2.765625 1.5 -2.890625 L 1.5 -0.421875 C 1.5 -0.265625 1.5 -0.21875 0.984375 -0.21875 L 0.734375 -0.21875 L 0.734375 0 C 1.015625 -0.015625 1.453125 -0.015625 1.734375 -0.015625 C 2.015625 -0.015625 2.453125 -0.015625 2.734375 0 L 2.734375 -0.21875 L 2.484375 -0.21875 C 1.953125 -0.21875 1.953125 -0.265625 1.953125 -0.421875 Z M 1.953125 -3.125 "/></g><g id="e176b94791cd1df6279b9ff5f4eb61286ljfgo8q__glyph-5-0"><path d="M 1.765625 -2.28125 C 1.78125 -2.296875 1.828125 -2.390625 1.828125 -2.46875 C 1.828125 -2.640625 1.65625 -2.75 1.515625 -2.75 C 1.3125 -2.75 1.265625 -2.59375 1.234375 -2.53125 L 0.484375 -0.390625 C 0.453125 -0.328125 0.453125 -0.3125 0.453125 -0.3125 C 0.453125 -0.234375 0.671875 -0.1875 0.671875 -0.1875 C 0.71875 -0.1875 0.71875 -0.21875 0.75 -0.265625 Z M 1.765625 -2.28125 "/></g></g></defs><g fill="rgb(0%, 0%, 0%)" fill-opacity="1"><use xlink:href="#e176b94791cd1df6279b9ff5f4eb61286ljfgo8q__glyph-0-0" x="107.591041" y="12.071264"/></g><g fill="rgb(0%, 0%, 0%)" fill-opacity="1"><use xlink:href="#e176b94791cd1df6279b9ff5f4eb61286ljfgo8q__glyph-1-0" x="115.426098" y="8.499094"/></g><g fill="rgb(0%, 0%, 0%)" fill-opacity="1"><use xlink:href="#e176b94791cd1df6279b9ff5f4eb61286ljfgo8q__glyph-2-0" x="120.375751" y="12.071264"/></g><g fill="rgb(0%, 0%, 0%)" fill-opacity="1"><use xlink:href="#e176b94791cd1df6279b9ff5f4eb61286ljfgo8q__glyph-0-1" x="130.218344" y="12.071264"/></g><g fill="rgb(0%, 0%, 0%)" fill-opacity="1"><use xlink:href="#e176b94791cd1df6279b9ff5f4eb61286ljfgo8q__glyph-0-0" x="212.807479" y="12.071264"/></g><g fill="rgb(0%, 0%, 0%)" fill-opacity="1"><use xlink:href="#e176b94791cd1df6279b9ff5f4eb61286ljfgo8q__glyph-0-2" x="108.909236" y="69.471031"/></g><g fill="rgb(0%, 0%, 0%)" fill-opacity="1"><use xlink:href="#e176b94791cd1df6279b9ff5f4eb61286ljfgo8q__glyph-2-0" x="119.054057" y="69.471031"/></g><g fill="rgb(0%, 0%, 0%)" fill-opacity="1"><use xlink:href="#e176b94791cd1df6279b9ff5f4eb61286ljfgo8q__glyph-0-1" x="128.906495" y="69.471031"/></g><g fill="rgb(0%, 0%, 0%)" fill-opacity="1"><use xlink:href="#e176b94791cd1df6279b9ff5f4eb61286ljfgo8q__glyph-0-2" x="191.051339" y="69.471031"/></g><g fill="rgb(0%, 0%, 0%)" fill-opacity="1"><use xlink:href="#e176b94791cd1df6279b9ff5f4eb61286ljfgo8q__glyph-2-0" x="201.19616" y="69.471031"/></g><g fill="rgb(0%, 0%, 0%)" fill-opacity="1"><use xlink:href="#e176b94791cd1df6279b9ff5f4eb61286ljfgo8q__glyph-0-1" x="211.048598" y="69.471031"/></g><path fill="none" stroke="rgb(0%, 0%, 0%)" stroke-linecap="butt" stroke-linejoin="miter" stroke-miterlimit="10" stroke-opacity="1" stroke-width="0.39848" d="M -30.907527 28.206407 L 36.702113 28.206407 " transform="matrix(0.988152, 0, 0, -0.988152, 171.713206, 37.48159)"/><path fill="none" stroke="rgb(0%, 0%, 0%)" stroke-linecap="round" stroke-linejoin="miter" stroke-miterlimit="10" stroke-opacity="1" stroke-width="0.39848" d="M 0.00152663 1.954082 C 0.681458 1.954082 1.23489 1.515289 1.23489 0.977669 C 1.23489 0.436097 0.681458 0.00125704 0.00152663 0.00125704 " transform="matrix(-0.988152, 0, 0, -0.988152, 141.173384, 9.610617)"/><path fill="none" stroke="rgb(0%, 0%, 0%)" stroke-linecap="round" stroke-linejoin="round" stroke-miterlimit="10" stroke-opacity="1" stroke-width="0.39848" d="M -2.07117 2.392874 C -1.691674 0.957904 -0.849666 0.277973 0.000247303 0.00125704 C -0.849666 -0.279412 -1.691674 -0.95539 -2.07117 -2.39036 " transform="matrix(0.988152, 0, 0, -0.988152, 208.175537, 9.610617)"/><g fill="rgb(0%, 0%, 0%)" fill-opacity="1"><use xlink:href="#e176b94791cd1df6279b9ff5f4eb61286ljfgo8q__glyph-3-0" x="166.367304" y="6.310338"/></g><g fill="rgb(0%, 0%, 0%)" fill-opacity="1"><use xlink:href="#e176b94791cd1df6279b9ff5f4eb61286ljfgo8q__glyph-1-1" x="169.280893" y="6.310338"/></g><g fill="rgb(0%, 0%, 0%)" fill-opacity="1"><use xlink:href="#e176b94791cd1df6279b9ff5f4eb61286ljfgo8q__glyph-3-1" x="173.314297" y="6.310338"/></g><g fill="rgb(0%, 0%, 0%)" fill-opacity="1"><use xlink:href="#e176b94791cd1df6279b9ff5f4eb61286ljfgo8q__glyph-4-0" x="177.917812" y="7.294537"/></g><path fill="none" stroke="rgb(0%, 0%, 0%)" stroke-linecap="butt" stroke-linejoin="miter" stroke-miterlimit="10" stroke-opacity="1" stroke-width="0.39848" d="M -54.179347 21.039461 L -54.179347 -21.321815 " transform="matrix(0.988152, 0, 0, -0.988152, 171.713206, 37.48159)"/><path fill="none" stroke="rgb(0%, 0%, 0%)" stroke-linecap="round" stroke-linejoin="round" stroke-miterlimit="10" stroke-opacity="1" stroke-width="0.39848" d="M -2.073568 2.389397 C -1.694072 0.954427 -0.848112 0.278449 0.00180201 0.00173273 C -0.848112 -0.278936 -1.694072 -0.954914 -2.073568 -2.389885 " transform="matrix(0, 0.988152, 0.988152, 0, 118.174069, 58.748219)"/><g fill="rgb(0%, 0%, 0%)" fill-opacity="1"><use xlink:href="#e176b94791cd1df6279b9ff5f4eb61286ljfgo8q__glyph-3-1" x="108.344013" y="40.671344"/></g><g fill="rgb(0%, 0%, 0%)" fill-opacity="1"><use xlink:href="#e176b94791cd1df6279b9ff5f4eb61286ljfgo8q__glyph-5-0" x="113.194851" y="37.699971"/></g><path fill="none" stroke="rgb(0%, 0%, 0%)" stroke-linecap="butt" stroke-linejoin="miter" stroke-miterlimit="10" stroke-opacity="1" stroke-width="0.39848" d="M 45.553074 21.869609 L 45.553074 -21.321815 " transform="matrix(0.988152, 0, 0, -0.988152, 171.713206, 37.48159)"/><path fill="none" stroke="rgb(0%, 0%, 0%)" stroke-linecap="round" stroke-linejoin="round" stroke-miterlimit="10" stroke-opacity="1" stroke-width="0.39848" d="M -2.073568 2.392831 C -1.694072 0.957861 -0.848112 0.27793 0.00180201 0.0012138 C -0.848112 -0.279455 -1.694072 -0.955433 -2.073568 -2.390404 " transform="matrix(0, 0.988152, 0.988152, 0, 216.725363, 58.748219)"/><g fill="rgb(0%, 0%, 0%)" fill-opacity="1"><use xlink:href="#e176b94791cd1df6279b9ff5f4eb61286ljfgo8q__glyph-3-1" x="219.040741" y="38.891682"/></g><path fill="none" stroke="rgb(0%, 0%, 0%)" stroke-linecap="butt" stroke-linejoin="miter" stroke-miterlimit="10" stroke-opacity="1" stroke-width="0.39848" d="M -33.674687 -29.8842 L 14.683421 -29.8842 " transform="matrix(0.988152, 0, 0, -0.988152, 171.713206, 37.48159)"/><path fill="none" stroke="rgb(0%, 0%, 0%)" stroke-linecap="round" stroke-linejoin="round" stroke-miterlimit="10" stroke-opacity="1" stroke-width="0.39848" d="M -2.073242 2.390807 C -1.693746 0.955837 -0.851739 0.279859 -0.00182489 -0.000810108 C -0.851739 -0.277526 -1.693746 -0.957457 -2.073242 -2.392427 " transform="matrix(0.988152, 0, 0, -0.988152, 186.419772, 67.010918)"/><g fill="rgb(0%, 0%, 0%)" fill-opacity="1"><use xlink:href="#e176b94791cd1df6279b9ff5f4eb61286ljfgo8q__glyph-3-2" x="153.709079" y="74.035305"/></g><g fill="rgb(0%, 0%, 0%)" fill-opacity="1"><use xlink:href="#e176b94791cd1df6279b9ff5f4eb61286ljfgo8q__glyph-1-1" x="160.687081" y="74.035305"/></g><g fill="rgb(0%, 0%, 0%)" fill-opacity="1"><use xlink:href="#e176b94791cd1df6279b9ff5f4eb61286ljfgo8q__glyph-3-3" x="164.720485" y="74.035305"/></g><g fill="rgb(0%, 0%, 0%)" fill-opacity="1"><use xlink:href="#e176b94791cd1df6279b9ff5f4eb61286ljfgo8q__glyph-4-0" x="167.502691" y="75.019504"/></g></svg>