<?xml version="1.0" encoding="UTF-8"?><svg xmlns="http://www.w3.org/2000/svg" xmlns:xlink="http://www.w3.org/1999/xlink" width="300.335" height="118.439" viewBox="0 0 300.335 118.439"><defs><g><g id="b06ba7a39fc364a5ab9a8b9a0739689a9075kiuf__glyph-0-0"><path d="M 4.8125 -4.078125 L 3.984375 -6.046875 C 3.953125 -6.125 3.921875 -6.171875 3.921875 -6.1875 C 3.921875 -6.234375 4.09375 -6.421875 4.515625 -6.46875 C 4.609375 -6.484375 4.71875 -6.484375 4.71875 -6.65625 C 4.71875 -6.78125 4.59375 -6.78125 4.5625 -6.78125 C 4.15625 -6.78125 3.734375 -6.75 3.3125 -6.75 C 3.0625 -6.75 2.453125 -6.78125 2.203125 -6.78125 C 2.140625 -6.78125 2.03125 -6.78125 2.03125 -6.578125 C 2.03125 -6.46875 2.125 -6.46875 2.25 -6.46875 C 2.84375 -6.46875 2.90625 -6.375 3 -6.15625 L 4.171875 -3.390625 L 2.078125 -1.125 L 1.9375 -1.015625 C 1.453125 -0.5 0.984375 -0.34375 0.484375 -0.3125 C 0.359375 -0.296875 0.265625 -0.296875 0.265625 -0.109375 C 0.265625 -0.09375 0.265625 0 0.390625 0 C 0.6875 0 1.015625 -0.03125 1.328125 -0.03125 C 1.703125 -0.03125 2.078125 0 2.4375 0 C 2.5 0 2.625 0 2.625 -0.203125 C 2.625 -0.296875 2.515625 -0.3125 2.5 -0.3125 C 2.40625 -0.3125 2.109375 -0.34375 2.109375 -0.609375 C 2.109375 -0.78125 2.25 -0.9375 2.375 -1.0625 L 3.390625 -2.140625 L 4.28125 -3.109375 L 5.28125 -0.734375 C 5.3125 -0.625 5.328125 -0.609375 5.328125 -0.59375 C 5.328125 -0.515625 5.140625 -0.34375 4.75 -0.3125 C 4.640625 -0.296875 4.546875 -0.28125 4.546875 -0.125 C 4.546875 0 4.65625 0 4.703125 0 C 4.984375 0 5.671875 -0.03125 5.953125 -0.03125 C 6.203125 -0.03125 6.8125 0 7.046875 0 C 7.125 0 7.25 0 7.25 -0.1875 C 7.25 -0.3125 7.140625 -0.3125 7.0625 -0.3125 C 6.40625 -0.3125 6.375 -0.34375 6.21875 -0.75 C 5.828125 -1.671875 5.15625 -3.21875 4.9375 -3.8125 C 5.609375 -4.5 6.640625 -5.6875 6.96875 -5.96875 C 7.25 -6.203125 7.625 -6.4375 8.21875 -6.46875 C 8.359375 -6.484375 8.4375 -6.484375 8.4375 -6.671875 C 8.4375 -6.671875 8.4375 -6.78125 8.3125 -6.78125 C 8.015625 -6.78125 7.6875 -6.75 7.375 -6.75 C 7.015625 -6.75 6.640625 -6.78125 6.28125 -6.78125 C 6.21875 -6.78125 6.09375 -6.78125 6.09375 -6.578125 C 6.09375 -6.515625 6.140625 -6.484375 6.21875 -6.46875 C 6.296875 -6.453125 6.609375 -6.4375 6.609375 -6.15625 C 6.609375 -6.015625 6.5 -5.890625 6.421875 -5.796875 Z M 4.8125 -4.078125 "/></g><g id="b06ba7a39fc364a5ab9a8b9a0739689a9075kiuf__glyph-0-1"><path d="M 5.921875 -5.640625 L 6.0625 -5.78125 C 6.359375 -6.078125 6.6875 -6.421875 7.359375 -6.46875 C 7.46875 -6.484375 7.5625 -6.484375 7.5625 -6.65625 C 7.5625 -6.734375 7.515625 -6.78125 7.4375 -6.78125 C 7.171875 -6.78125 6.890625 -6.75 6.625 -6.75 C 6.296875 -6.75 5.9375 -6.78125 5.625 -6.78125 C 5.5625 -6.78125 5.4375 -6.78125 5.4375 -6.59375 C 5.4375 -6.484375 5.53125 -6.46875 5.59375 -6.46875 C 5.65625 -6.46875 5.9375 -6.453125 5.9375 -6.234375 C 5.9375 -6.078125 5.71875 -5.8125 5.671875 -5.765625 L 3.375 -3.109375 L 2.28125 -6.0625 C 2.21875 -6.203125 2.21875 -6.21875 2.21875 -6.234375 C 2.21875 -6.46875 2.703125 -6.46875 2.8125 -6.46875 C 2.953125 -6.46875 3.046875 -6.46875 3.046875 -6.671875 C 3.046875 -6.78125 2.921875 -6.78125 2.890625 -6.78125 C 2.625 -6.78125 1.921875 -6.75 1.640625 -6.75 C 1.40625 -6.75 0.78125 -6.78125 0.53125 -6.78125 C 0.46875 -6.78125 0.34375 -6.78125 0.34375 -6.578125 C 0.34375 -6.46875 0.453125 -6.46875 0.578125 -6.46875 C 1.171875 -6.46875 1.203125 -6.375 1.296875 -6.125 L 2.515625 -2.875 C 2.53125 -2.84375 2.5625 -2.734375 2.5625 -2.703125 C 2.5625 -2.671875 2.15625 -1.078125 2.109375 -0.890625 C 1.984375 -0.34375 1.96875 -0.3125 1.1875 -0.3125 C 0.984375 -0.3125 0.90625 -0.3125 0.90625 -0.109375 C 0.90625 0 1.03125 0 1.046875 0 C 1.328125 0 2.03125 -0.03125 2.296875 -0.03125 C 2.578125 -0.03125 3.296875 0 3.578125 0 C 3.640625 0 3.765625 0 3.765625 -0.203125 C 3.765625 -0.3125 3.671875 -0.3125 3.484375 -0.3125 C 3.46875 -0.3125 3.28125 -0.3125 3.109375 -0.328125 C 2.890625 -0.34375 2.84375 -0.359375 2.84375 -0.484375 C 2.84375 -0.5625 2.921875 -0.90625 2.96875 -1.109375 L 3.328125 -2.515625 C 3.375 -2.703125 3.390625 -2.734375 3.46875 -2.8125 Z M 5.921875 -5.640625 "/></g><g id="b06ba7a39fc364a5ab9a8b9a0739689a9075kiuf__glyph-0-2"><path d="M 1.78125 -1.140625 C 1.375 -0.46875 0.984375 -0.34375 0.5625 -0.3125 C 0.4375 -0.296875 0.34375 -0.296875 0.34375 -0.109375 C 0.34375 -0.046875 0.390625 0 0.46875 0 C 0.75 0 1.046875 -0.03125 1.328125 -0.03125 C 1.65625 -0.03125 2 0 2.328125 0 C 2.375 0 2.515625 0 2.515625 -0.1875 C 2.515625 -0.296875 2.421875 -0.3125 2.34375 -0.3125 C 2.125 -0.328125 1.890625 -0.40625 1.890625 -0.65625 C 1.890625 -0.78125 1.9375 -0.890625 2.03125 -1.015625 L 2.78125 -2.296875 L 5.265625 -2.296875 C 5.28125 -2.078125 5.421875 -0.734375 5.421875 -0.640625 C 5.421875 -0.34375 4.90625 -0.3125 4.71875 -0.3125 C 4.578125 -0.3125 4.46875 -0.3125 4.46875 -0.109375 C 4.46875 0 4.59375 0 4.609375 0 C 5.015625 0 5.453125 -0.03125 5.859375 -0.03125 C 6.109375 -0.03125 6.734375 0 6.96875 0 C 7.03125 0 7.15625 0 7.15625 -0.203125 C 7.15625 -0.3125 7.046875 -0.3125 6.921875 -0.3125 C 6.3125 -0.3125 6.3125 -0.375 6.28125 -0.671875 L 5.671875 -6.859375 C 5.65625 -7.0625 5.65625 -7.109375 5.484375 -7.109375 C 5.328125 -7.109375 5.28125 -7.03125 5.234375 -6.9375 Z M 2.96875 -2.59375 L 4.921875 -5.875 L 5.234375 -2.59375 Z M 2.96875 -2.59375 "/></g><g id="b06ba7a39fc364a5ab9a8b9a0739689a9075kiuf__glyph-0-3"><path d="M 1.59375 -0.78125 C 1.484375 -0.390625 1.46875 -0.3125 0.6875 -0.3125 C 0.515625 -0.3125 0.421875 -0.3125 0.421875 -0.109375 C 0.421875 0 0.5 0 0.6875 0 L 4.234375 0 C 5.796875 0 6.96875 -1.171875 6.96875 -2.140625 C 6.96875 -2.859375 6.390625 -3.4375 5.421875 -3.546875 C 6.453125 -3.734375 7.5 -4.46875 7.5 -5.40625 C 7.5 -6.140625 6.84375 -6.78125 5.65625 -6.78125 L 2.328125 -6.78125 C 2.140625 -6.78125 2.03125 -6.78125 2.03125 -6.578125 C 2.03125 -6.46875 2.125 -6.46875 2.3125 -6.46875 C 2.328125 -6.46875 2.515625 -6.46875 2.6875 -6.453125 C 2.875 -6.421875 2.953125 -6.421875 2.953125 -6.296875 C 2.953125 -6.25 2.953125 -6.21875 2.921875 -6.109375 Z M 3.078125 -3.625 L 3.703125 -6.09375 C 3.796875 -6.4375 3.8125 -6.46875 4.234375 -6.46875 L 5.515625 -6.46875 C 6.390625 -6.46875 6.59375 -5.890625 6.59375 -5.453125 C 6.59375 -4.578125 5.75 -3.625 4.53125 -3.625 Z M 2.640625 -0.3125 C 2.5 -0.3125 2.484375 -0.3125 2.421875 -0.3125 C 2.328125 -0.328125 2.296875 -0.34375 2.296875 -0.421875 C 2.296875 -0.453125 2.296875 -0.46875 2.34375 -0.640625 L 3.03125 -3.40625 L 4.90625 -3.40625 C 5.859375 -3.40625 6.046875 -2.671875 6.046875 -2.25 C 6.046875 -1.265625 5.15625 -0.3125 3.984375 -0.3125 Z M 2.640625 -0.3125 "/></g><g id="b06ba7a39fc364a5ab9a8b9a0739689a9075kiuf__glyph-0-4"><path d="M 7.546875 -6.890625 C 7.546875 -6.921875 7.515625 -7 7.4375 -7 C 7.40625 -7 7.390625 -6.984375 7.28125 -6.875 L 6.59375 -6.109375 C 6.5 -6.25 6.046875 -7 4.9375 -7 C 2.734375 -7 0.5 -4.796875 0.5 -2.5 C 0.5 -0.859375 1.671875 0.21875 3.1875 0.21875 C 4.046875 0.21875 4.796875 -0.171875 5.328125 -0.640625 C 6.25 -1.453125 6.421875 -2.34375 6.421875 -2.375 C 6.421875 -2.484375 6.3125 -2.484375 6.296875 -2.484375 C 6.234375 -2.484375 6.1875 -2.453125 6.171875 -2.375 C 6.078125 -2.09375 5.859375 -1.390625 5.171875 -0.8125 C 4.484375 -0.265625 3.859375 -0.09375 3.34375 -0.09375 C 2.453125 -0.09375 1.40625 -0.609375 1.40625 -2.15625 C 1.40625 -2.71875 1.609375 -4.328125 2.59375 -5.484375 C 3.203125 -6.1875 4.140625 -6.6875 5.015625 -6.6875 C 6.03125 -6.6875 6.625 -5.921875 6.625 -4.765625 C 6.625 -4.375 6.59375 -4.359375 6.59375 -4.265625 C 6.59375 -4.171875 6.703125 -4.171875 6.734375 -4.171875 C 6.859375 -4.171875 6.859375 -4.1875 6.921875 -4.359375 Z M 7.546875 -6.890625 "/></g><g id="b06ba7a39fc364a5ab9a8b9a0739689a9075kiuf__glyph-0-5"><path d="M 1.578125 -0.78125 C 1.484375 -0.390625 1.453125 -0.3125 0.671875 -0.3125 C 0.5 -0.3125 0.390625 -0.3125 0.390625 -0.125 C 0.390625 0 0.484375 0 0.671875 0 L 3.953125 0 C 6.015625 0 7.984375 -2.09375 7.984375 -4.265625 C 7.984375 -5.671875 7.140625 -6.78125 5.640625 -6.78125 L 2.3125 -6.78125 C 2.125 -6.78125 2.015625 -6.78125 2.015625 -6.59375 C 2.015625 -6.46875 2.109375 -6.46875 2.296875 -6.46875 C 2.4375 -6.46875 2.609375 -6.453125 2.734375 -6.453125 C 2.890625 -6.421875 2.953125 -6.40625 2.953125 -6.296875 C 2.953125 -6.25 2.9375 -6.21875 2.90625 -6.109375 Z M 3.71875 -6.09375 C 3.8125 -6.4375 3.828125 -6.46875 4.25 -6.46875 L 5.3125 -6.46875 C 6.296875 -6.46875 7.109375 -5.9375 7.109375 -4.640625 C 7.109375 -4.140625 6.921875 -2.515625 6.078125 -1.421875 C 5.78125 -1.0625 5 -0.3125 3.78125 -0.3125 L 2.65625 -0.3125 C 2.515625 -0.3125 2.5 -0.3125 2.4375 -0.3125 C 2.34375 -0.328125 2.3125 -0.34375 2.3125 -0.421875 C 2.3125 -0.453125 2.3125 -0.46875 2.359375 -0.640625 Z M 3.71875 -6.09375 "/></g><g id="b06ba7a39fc364a5ab9a8b9a0739689a9075kiuf__glyph-1-0"><path d="M 5.78125 -3.984375 C 5.859375 -4.25 5.96875 -4.46875 6.515625 -4.484375 C 6.5625 -4.484375 6.65625 -4.5 6.65625 -4.640625 C 6.65625 -4.6875 6.625 -4.734375 6.5625 -4.734375 C 6.328125 -4.734375 6.078125 -4.703125 5.828125 -4.703125 C 5.671875 -4.703125 5.265625 -4.734375 5.09375 -4.734375 C 5.0625 -4.734375 4.953125 -4.734375 4.953125 -4.578125 C 4.953125 -4.5 5.046875 -4.484375 5.109375 -4.484375 C 5.4375 -4.484375 5.5625 -4.375 5.5625 -4.203125 C 5.5625 -4.15625 5.546875 -4.109375 5.53125 -4.03125 L 4.765625 -1.015625 L 3.015625 -4.625 C 2.953125 -4.734375 2.9375 -4.734375 2.78125 -4.734375 L 1.828125 -4.734375 C 1.6875 -4.734375 1.609375 -4.734375 1.609375 -4.578125 C 1.609375 -4.484375 1.6875 -4.484375 1.828125 -4.484375 C 1.984375 -4.484375 2.125 -4.484375 2.28125 -4.453125 L 1.34375 -0.75 C 1.28125 -0.484375 1.171875 -0.265625 0.625 -0.25 C 0.578125 -0.25 0.484375 -0.25 0.484375 -0.109375 C 0.484375 -0.03125 0.53125 0 0.578125 0 C 0.8125 0 1.0625 -0.03125 1.296875 -0.03125 C 1.46875 -0.03125 1.875 0 2.046875 0 C 2.109375 0 2.171875 -0.03125 2.171875 -0.140625 C 2.171875 -0.25 2.09375 -0.25 2.015625 -0.25 C 1.578125 -0.265625 1.578125 -0.4375 1.578125 -0.546875 C 1.578125 -0.5625 1.578125 -0.609375 1.609375 -0.71875 L 2.5 -4.265625 L 4.515625 -0.125 C 4.578125 0 4.609375 0 4.671875 0 C 4.78125 0 4.78125 -0.015625 4.828125 -0.140625 Z M 5.78125 -3.984375 "/></g><g id="b06ba7a39fc364a5ab9a8b9a0739689a9075kiuf__glyph-1-1"><path d="M 2.171875 -4.609375 C 2.171875 -4.625 2.203125 -4.703125 2.203125 -4.71875 C 2.203125 -4.75 2.171875 -4.8125 2.09375 -4.8125 C 1.953125 -4.8125 1.375 -4.765625 1.203125 -4.75 C 1.140625 -4.734375 1.046875 -4.734375 1.046875 -4.578125 C 1.046875 -4.484375 1.140625 -4.484375 1.234375 -4.484375 C 1.5625 -4.484375 1.5625 -4.4375 1.5625 -4.390625 C 1.5625 -4.34375 1.546875 -4.296875 1.53125 -4.234375 L 0.5625 -0.3125 C 0.515625 -0.1875 0.515625 -0.171875 0.515625 -0.15625 C 0.515625 -0.046875 0.609375 0.0625 0.75 0.0625 C 0.9375 0.0625 1.03125 -0.0625 1.078125 -0.21875 C 1.09375 -0.25 1.390625 -1.46875 1.421875 -1.5625 C 1.90625 -1.515625 2.296875 -1.359375 2.296875 -1 C 2.296875 -0.96875 2.296875 -0.921875 2.296875 -0.859375 C 2.265625 -0.75 2.265625 -0.71875 2.265625 -0.640625 C 2.265625 -0.15625 2.65625 0.0625 3 0.0625 C 3.671875 0.0625 3.875 -0.984375 3.875 -0.984375 C 3.875 -1.078125 3.78125 -1.078125 3.765625 -1.078125 C 3.671875 -1.078125 3.65625 -1.046875 3.625 -0.921875 C 3.546875 -0.625 3.359375 -0.125 3.015625 -0.125 C 2.828125 -0.125 2.78125 -0.296875 2.78125 -0.484375 C 2.78125 -0.609375 2.78125 -0.625 2.8125 -0.796875 C 2.828125 -0.8125 2.84375 -0.9375 2.84375 -1.015625 C 2.84375 -1.625 2.015625 -1.734375 1.734375 -1.75 C 1.921875 -1.875 2.1875 -2.109375 2.296875 -2.203125 C 2.65625 -2.546875 3 -2.859375 3.390625 -2.859375 C 3.46875 -2.859375 3.5625 -2.84375 3.625 -2.78125 C 3.328125 -2.71875 3.265625 -2.484375 3.265625 -2.390625 C 3.265625 -2.234375 3.375 -2.125 3.53125 -2.125 C 3.71875 -2.125 3.9375 -2.28125 3.9375 -2.578125 C 3.9375 -2.796875 3.765625 -3.0625 3.40625 -3.0625 C 3 -3.0625 2.640625 -2.78125 2.296875 -2.453125 C 2 -2.171875 1.765625 -1.953125 1.484375 -1.84375 Z M 2.171875 -4.609375 "/></g><g id="b06ba7a39fc364a5ab9a8b9a0739689a9075kiuf__glyph-1-2"><path d="M 0.828125 -0.953125 C 0.890625 -0.5 1.125 0.078125 1.71875 0.078125 C 1.9375 0.078125 2.1875 0 2.4375 -0.171875 C 2.546875 -0.234375 2.90625 -0.5 2.90625 -0.578125 C 2.90625 -0.625 2.859375 -0.703125 2.796875 -0.703125 C 2.765625 -0.703125 2.75 -0.703125 2.65625 -0.609375 C 2.359375 -0.34375 2.03125 -0.109375 1.71875 -0.109375 C 1.25 -0.109375 1.25 -0.921875 1.25 -1.046875 C 1.25 -1.140625 1.25 -1.15625 1.265625 -1.296875 C 1.265625 -1.359375 1.265625 -1.375 1.359375 -1.453125 C 1.734375 -1.8125 3.046875 -3.078125 3.046875 -4.28125 C 3.046875 -4.390625 3.046875 -4.890625 2.59375 -4.890625 C 2.015625 -4.890625 1.546875 -3.984375 1.4375 -3.78125 C 1.125 -3.1875 0.96875 -2.625 0.890625 -2.28125 C 0.796875 -1.8125 0.796875 -1.5625 0.796875 -1.234375 C 0.75 -1.171875 0.34375 -0.828125 0.28125 -0.765625 C 0.171875 -0.671875 0.15625 -0.671875 0.15625 -0.625 C 0.15625 -0.578125 0.21875 -0.5 0.28125 -0.5 C 0.328125 -0.5 0.515625 -0.671875 0.5625 -0.71875 Z M 1.328125 -1.734375 C 1.453125 -2.453125 2 -4.6875 2.578125 -4.6875 C 2.734375 -4.6875 2.828125 -4.578125 2.828125 -4.328125 C 2.828125 -4.25 2.828125 -3.625 2.234375 -2.78125 C 1.875 -2.28125 1.484375 -1.90625 1.328125 -1.734375 Z M 1.328125 -1.734375 "/></g><g id="b06ba7a39fc364a5ab9a8b9a0739689a9075kiuf__glyph-1-3"><path d="M 2.171875 -4.609375 C 2.171875 -4.625 2.203125 -4.703125 2.203125 -4.71875 C 2.203125 -4.75 2.171875 -4.8125 2.09375 -4.8125 C 1.953125 -4.8125 1.375 -4.765625 1.203125 -4.75 C 1.140625 -4.734375 1.046875 -4.734375 1.046875 -4.578125 C 1.046875 -4.484375 1.140625 -4.484375 1.234375 -4.484375 C 1.5625 -4.484375 1.5625 -4.4375 1.5625 -4.390625 C 1.5625 -4.34375 1.546875 -4.296875 1.53125 -4.234375 L 0.5625 -0.3125 C 0.515625 -0.1875 0.515625 -0.171875 0.515625 -0.15625 C 0.515625 -0.046875 0.609375 0.0625 0.75 0.0625 C 0.828125 0.0625 0.96875 0.03125 1.046875 -0.109375 C 1.0625 -0.15625 1.125 -0.40625 1.15625 -0.546875 L 1.3125 -1.171875 C 1.34375 -1.265625 1.40625 -1.53125 1.421875 -1.640625 C 1.5 -1.90625 1.5 -1.90625 1.640625 -2.125 C 1.859375 -2.46875 2.203125 -2.859375 2.75 -2.859375 C 3.140625 -2.859375 3.15625 -2.546875 3.15625 -2.375 C 3.15625 -1.96875 2.859375 -1.1875 2.75 -0.90625 C 2.671875 -0.703125 2.640625 -0.640625 2.640625 -0.53125 C 2.640625 -0.15625 2.953125 0.0625 3.296875 0.0625 C 4 0.0625 4.296875 -0.890625 4.296875 -0.984375 C 4.296875 -1.078125 4.21875 -1.078125 4.1875 -1.078125 C 4.09375 -1.078125 4.09375 -1.046875 4.0625 -0.96875 C 3.90625 -0.40625 3.59375 -0.125 3.328125 -0.125 C 3.171875 -0.125 3.15625 -0.21875 3.15625 -0.375 C 3.15625 -0.53125 3.1875 -0.625 3.3125 -0.921875 C 3.390625 -1.140625 3.671875 -1.875 3.671875 -2.265625 C 3.671875 -2.375 3.671875 -2.671875 3.421875 -2.875 C 3.296875 -2.96875 3.09375 -3.0625 2.78125 -3.0625 C 2.265625 -3.0625 1.90625 -2.78125 1.640625 -2.484375 Z M 2.171875 -4.609375 "/></g><g id="b06ba7a39fc364a5ab9a8b9a0739689a9075kiuf__glyph-1-4"><path d="M 3.6875 -2.5625 C 3.71875 -2.65625 3.71875 -2.703125 3.71875 -2.703125 C 3.71875 -2.859375 3.59375 -2.921875 3.484375 -2.921875 C 3.328125 -2.921875 3.1875 -2.796875 3.15625 -2.65625 C 3.046875 -2.84375 2.8125 -3.0625 2.453125 -3.0625 C 1.578125 -3.0625 0.671875 -2.125 0.671875 -1.140625 C 0.671875 -0.421875 1.15625 0 1.734375 0 C 2.046875 0 2.359375 -0.15625 2.59375 -0.375 L 2.4375 0.25 C 2.359375 0.546875 2.3125 0.734375 2.046875 0.96875 C 1.75 1.21875 1.453125 1.21875 1.28125 1.21875 C 0.953125 1.21875 0.875 1.203125 0.75 1.171875 C 0.921875 1.09375 0.96875 0.921875 0.96875 0.828125 C 0.96875 0.65625 0.828125 0.5625 0.6875 0.5625 C 0.5 0.5625 0.296875 0.734375 0.296875 0.984375 C 0.296875 1.40625 0.890625 1.421875 1.28125 1.421875 C 2.375 1.421875 2.84375 0.859375 2.9375 0.46875 Z M 2.734375 -0.921875 C 2.703125 -0.8125 2.703125 -0.8125 2.59375 -0.671875 C 2.34375 -0.375 2.015625 -0.1875 1.75 -0.1875 C 1.390625 -0.1875 1.234375 -0.5 1.234375 -0.859375 C 1.234375 -1.15625 1.421875 -1.9375 1.59375 -2.234375 C 1.890625 -2.71875 2.21875 -2.859375 2.453125 -2.859375 C 2.9375 -2.859375 3.0625 -2.34375 3.0625 -2.28125 C 3.0625 -2.265625 3.0625 -2.25 3.046875 -2.171875 Z M 2.734375 -0.921875 "/></g><g id="b06ba7a39fc364a5ab9a8b9a0739689a9075kiuf__glyph-1-5"><path d="M 7.078125 -4.171875 C 7.140625 -4.4375 7.15625 -4.484375 7.671875 -4.484375 C 7.8125 -4.484375 7.90625 -4.484375 7.90625 -4.640625 C 7.90625 -4.734375 7.828125 -4.734375 7.703125 -4.734375 L 6.75 -4.734375 C 6.5625 -4.734375 6.546875 -4.734375 6.453125 -4.59375 L 3.78125 -0.640625 L 3.09375 -4.546875 C 3.0625 -4.734375 3.0625 -4.734375 2.84375 -4.734375 L 1.859375 -4.734375 C 1.71875 -4.734375 1.625 -4.734375 1.625 -4.578125 C 1.625 -4.484375 1.71875 -4.484375 1.859375 -4.484375 C 1.984375 -4.484375 2 -4.484375 2.125 -4.46875 C 2.265625 -4.453125 2.28125 -4.453125 2.28125 -4.375 C 2.28125 -4.375 2.28125 -4.328125 2.25 -4.21875 L 1.375 -0.75 C 1.3125 -0.5 1.21875 -0.265625 0.65625 -0.25 C 0.609375 -0.25 0.515625 -0.25 0.515625 -0.09375 C 0.515625 -0.09375 0.515625 0 0.625 0 C 0.828125 0 1.109375 -0.03125 1.34375 -0.03125 C 1.5 -0.03125 1.90625 0 2.078125 0 C 2.109375 0 2.21875 0 2.21875 -0.15625 C 2.21875 -0.25 2.125 -0.25 2.0625 -0.25 C 1.609375 -0.265625 1.609375 -0.4375 1.609375 -0.546875 C 1.609375 -0.5625 1.609375 -0.609375 1.640625 -0.71875 L 2.5625 -4.40625 L 2.578125 -4.40625 L 3.3125 -0.1875 C 3.34375 -0.0625 3.34375 0 3.453125 0 C 3.546875 0 3.609375 -0.078125 3.65625 -0.15625 L 6.5625 -4.46875 L 6.578125 -4.46875 L 5.59375 -0.546875 C 5.546875 -0.3125 5.53125 -0.25 4.984375 -0.25 C 4.859375 -0.25 4.78125 -0.25 4.78125 -0.09375 C 4.78125 -0.09375 4.78125 0 4.890625 0 C 5.015625 0 5.1875 -0.015625 5.328125 -0.015625 C 5.453125 -0.015625 5.625 -0.03125 5.765625 -0.03125 C 5.953125 -0.03125 6.4375 0 6.640625 0 C 6.6875 0 6.78125 0 6.78125 -0.15625 C 6.78125 -0.25 6.703125 -0.25 6.5625 -0.25 C 6.5625 -0.25 6.421875 -0.25 6.296875 -0.265625 C 6.140625 -0.28125 6.140625 -0.296875 6.140625 -0.375 C 6.140625 -0.40625 6.15625 -0.484375 6.171875 -0.515625 Z M 7.078125 -4.171875 "/></g><g id="b06ba7a39fc364a5ab9a8b9a0739689a9075kiuf__glyph-2-0"><path d="M 1.296875 -3.921875 C 1.296875 -4.09375 1.296875 -4.28125 1.09375 -4.28125 C 0.90625 -4.28125 0.90625 -4.09375 0.90625 -3.921875 L 0.90625 -0.125 C 0.90625 0.046875 0.90625 0.21875 1.09375 0.21875 C 1.296875 0.21875 1.296875 0.046875 1.296875 -0.125 Z M 1.296875 -3.921875 "/></g><g id="b06ba7a39fc364a5ab9a8b9a0739689a9075kiuf__glyph-3-0"><path d="M 6.8125 -3.25 C 6.96875 -3.25 7.15625 -3.25 7.15625 -3.4375 C 7.15625 -3.640625 6.96875 -3.640625 6.828125 -3.640625 L 0.890625 -3.640625 C 0.75 -3.640625 0.5625 -3.640625 0.5625 -3.4375 C 0.5625 -3.25 0.75 -3.25 0.890625 -3.25 Z M 6.828125 -1.3125 C 6.96875 -1.3125 7.15625 -1.3125 7.15625 -1.515625 C 7.15625 -1.71875 6.96875 -1.71875 6.8125 -1.71875 L 0.890625 -1.71875 C 0.75 -1.71875 0.5625 -1.71875 0.5625 -1.515625 C 0.5625 -1.3125 0.75 -1.3125 0.890625 -1.3125 Z M 6.828125 -1.3125 "/></g><g id="b06ba7a39fc364a5ab9a8b9a0739689a9075kiuf__glyph-4-0"><path d="M 1.90625 -1.359375 C 1.921875 -1.46875 2 -2.09375 2 -2.140625 C 2 -2.234375 1.921875 -2.296875 1.828125 -2.296875 C 1.71875 -2.296875 1.65625 -2.21875 1.65625 -2.15625 C 1.65625 -2.09375 1.71875 -1.46875 1.734375 -1.359375 L 0.96875 -1.828125 C 0.921875 -1.859375 0.90625 -1.875 0.859375 -1.875 C 0.78125 -1.875 0.6875 -1.796875 0.6875 -1.6875 C 0.6875 -1.609375 0.734375 -1.5625 0.796875 -1.546875 C 1.0625 -1.4375 1.34375 -1.328125 1.625 -1.234375 C 1.34375 -1.140625 0.890625 -0.96875 0.8125 -0.9375 C 0.765625 -0.921875 0.6875 -0.890625 0.6875 -0.78125 C 0.6875 -0.671875 0.78125 -0.59375 0.859375 -0.59375 C 0.90625 -0.59375 1.0625 -0.6875 1.734375 -1.109375 C 1.71875 -1 1.65625 -0.375 1.65625 -0.328125 C 1.65625 -0.25 1.71875 -0.171875 1.828125 -0.171875 C 1.921875 -0.171875 2 -0.234375 2 -0.328125 C 2 -0.375 1.921875 -1 1.90625 -1.109375 L 2.6875 -0.640625 C 2.71875 -0.609375 2.75 -0.59375 2.78125 -0.59375 C 2.875 -0.59375 2.953125 -0.671875 2.953125 -0.78125 C 2.953125 -0.859375 2.90625 -0.90625 2.859375 -0.9375 C 2.578125 -1.046875 2.296875 -1.140625 2.015625 -1.234375 C 2.296875 -1.34375 2.75 -1.5 2.84375 -1.53125 C 2.875 -1.546875 2.953125 -1.578125 2.953125 -1.6875 C 2.953125 -1.796875 2.875 -1.875 2.78125 -1.875 C 2.75 -1.875 2.71875 -1.859375 2.671875 -1.828125 Z M 1.90625 -1.359375 "/></g><g id="b06ba7a39fc364a5ab9a8b9a0739689a9075kiuf__glyph-5-0"><path d="M 3.953125 -4.546875 C 3.953125 -4.78125 3.90625 -4.8125 3.671875 -4.8125 L 0.8125 -4.8125 C 0.6875 -4.8125 0.53125 -4.8125 0.53125 -4.640625 C 0.53125 -4.46875 0.703125 -4.46875 0.8125 -4.46875 L 3.609375 -4.46875 L 3.609375 -2.578125 L 0.9375 -2.578125 C 0.8125 -2.578125 0.640625 -2.578125 0.640625 -2.40625 C 0.640625 -2.234375 0.796875 -2.234375 0.90625 -2.234375 L 3.609375 -2.234375 L 3.609375 -0.34375 L 0.8125 -0.34375 C 0.6875 -0.34375 0.53125 -0.34375 0.53125 -0.171875 C 0.53125 0 0.703125 0 0.8125 0 L 3.671875 0 C 3.90625 0 3.953125 -0.03125 3.953125 -0.265625 Z M 3.953125 -4.546875 "/></g><g id="b06ba7a39fc364a5ab9a8b9a0739689a9075kiuf__glyph-6-0"><path d="M 1.515625 -4.578125 C 1.515625 -4.828125 1.296875 -4.953125 1.125 -4.953125 C 0.921875 -4.953125 0.71875 -4.8125 0.71875 -4.578125 L 0.984375 -1.515625 C 1 -1.359375 1.03125 -1.34375 1.125 -1.34375 C 1.21875 -1.34375 1.234375 -1.359375 1.25 -1.5 Z M 1.515625 -0.40625 C 1.515625 -0.625 1.34375 -0.796875 1.125 -0.796875 C 0.875 -0.796875 0.71875 -0.609375 0.71875 -0.40625 C 0.71875 -0.15625 0.921875 0 1.109375 0 C 1.34375 0 1.515625 -0.171875 1.515625 -0.40625 Z M 1.515625 -0.40625 "/></g></g><clipPath id="b06ba7a39fc364a5ab9a8b9a0739689a9075kiuf__clip-0"><path d="M 68 0 L 135 0 L 135 117.878906 L 68 117.878906 Z M 68 0 " clip-rule="nonzero"/></clipPath><clipPath id="b06ba7a39fc364a5ab9a8b9a0739689a9075kiuf__clip-1"><path d="M 165 35 L 232 35 L 232 117.878906 L 165 117.878906 Z M 165 35 " clip-rule="nonzero"/></clipPath><clipPath id="b06ba7a39fc364a5ab9a8b9a0739689a9075kiuf__clip-2"><path d="M 176 47 L 220 47 L 220 117.878906 L 176 117.878906 Z M 176 47 " clip-rule="nonzero"/></clipPath></defs><g fill="rgb(0%, 0%, 0%)" fill-opacity="1"><use xlink:href="#b06ba7a39fc364a5ab9a8b9a0739689a9075kiuf__glyph-0-0" x="64.721226" y="11.689631"/></g><g fill="rgb(0%, 0%, 0%)" fill-opacity="1"><use xlink:href="#b06ba7a39fc364a5ab9a8b9a0739689a9075kiuf__glyph-0-1" x="130.110502" y="11.689631"/></g><g fill="rgb(0%, 0%, 0%)" fill-opacity="1"><use xlink:href="#b06ba7a39fc364a5ab9a8b9a0739689a9075kiuf__glyph-0-2" x="65.49954" y="61.419081"/></g><g fill="rgb(0%, 0%, 0%)" fill-opacity="1"><use xlink:href="#b06ba7a39fc364a5ab9a8b9a0739689a9075kiuf__glyph-0-3" x="130.080644" y="61.419081"/></g><g fill="rgb(0%, 0%, 0%)" fill-opacity="1"><use xlink:href="#b06ba7a39fc364a5ab9a8b9a0739689a9075kiuf__glyph-0-4" x="65.319393" y="111.148532"/></g><g fill="rgb(0%, 0%, 0%)" fill-opacity="1"><use xlink:href="#b06ba7a39fc364a5ab9a8b9a0739689a9075kiuf__glyph-0-5" x="129.847747" y="111.149527"/></g><path fill="none" stroke="rgb(0%, 0%, 0%)" stroke-linecap="butt" stroke-linejoin="miter" stroke-miterlimit="10" stroke-opacity="1" stroke-width="0.39848" d="M -23.457791 49.051434 L 23.831551 49.051434 " transform="matrix(0.995286, 0, 0, -0.995286, 101.526892, 58.031129)"/><path fill="none" stroke="rgb(0%, 0%, 0%)" stroke-linecap="round" stroke-linejoin="round" stroke-miterlimit="10" stroke-opacity="1" stroke-width="0.39848" d="M -2.071556 2.392643 C -1.69478 0.956183 -0.850958 0.277201 0.000713004 -0.00145617 C -0.850958 -0.280114 -1.69478 -0.955171 -2.071556 -2.39163 " transform="matrix(0.995286, 0, 0, -0.995286, 125.444603, 9.209488)"/><g fill="rgb(0%, 0%, 0%)" fill-opacity="1"><use xlink:href="#b06ba7a39fc364a5ab9a8b9a0739689a9075kiuf__glyph-1-0" x="98.399704" y="6.877424"/></g><g fill="rgb(0%, 0%, 0%)" fill-opacity="1"><use xlink:href="#b06ba7a39fc364a5ab9a8b9a0739689a9075kiuf__glyph-2-0" x="100.810286" y="11.689631"/></g><path fill="none" stroke="rgb(0%, 0%, 0%)" stroke-linecap="butt" stroke-linejoin="miter" stroke-miterlimit="10" stroke-opacity="1" stroke-width="0.39848" d="M -32.461173 42.716883 L -32.461173 7.649221 " transform="matrix(0.995286, 0, 0, -0.995286, 101.526892, 58.031129)"/><path fill="none" stroke="rgb(0%, 0%, 0%)" stroke-linecap="round" stroke-linejoin="round" stroke-miterlimit="10" stroke-opacity="1" stroke-width="0.39848" d="M -2.072808 2.391661 C -1.692107 0.955202 -0.848285 0.280144 -0.000538346 0.0014869 C -0.848285 -0.277171 -1.692107 -0.956153 -2.072808 -2.392612 " transform="matrix(0, 0.995286, 0.995286, 0, 69.21727, 50.617723)"/><g fill="rgb(0%, 0%, 0%)" fill-opacity="1"><use xlink:href="#b06ba7a39fc364a5ab9a8b9a0739689a9075kiuf__glyph-1-1" x="62.501739" y="35.576488"/></g><path fill="none" stroke="rgb(0%, 0%, 0%)" stroke-linecap="butt" stroke-linejoin="miter" stroke-miterlimit="10" stroke-opacity="1" stroke-width="0.39848" d="M 32.71719 42.716883 L 32.71719 7.649221 " transform="matrix(0.995286, 0, 0, -0.995286, 101.526892, 58.031129)"/><path fill="none" stroke="rgb(0%, 0%, 0%)" stroke-linecap="round" stroke-linejoin="round" stroke-miterlimit="10" stroke-opacity="1" stroke-width="0.39848" d="M -2.072808 2.389424 C -1.692107 0.95689 -0.848285 0.277907 -0.000538346 -0.000749925 C -0.848285 -0.279407 -1.692107 -0.954465 -2.072808 -2.390924 " transform="matrix(0, 0.995286, 0.995286, 0, 134.09059, 50.617723)"/><g fill="rgb(0%, 0%, 0%)" fill-opacity="1"><use xlink:href="#b06ba7a39fc364a5ab9a8b9a0739689a9075kiuf__glyph-1-2" x="136.422604" y="35.576488"/></g><path fill="none" stroke="rgb(0%, 0%, 0%)" stroke-linecap="butt" stroke-linejoin="miter" stroke-miterlimit="10" stroke-opacity="1" stroke-width="0.39848" d="M -32.461173 -7.249139 L -32.461173 -42.316802 " transform="matrix(0.995286, 0, 0, -0.995286, 101.526892, 58.031129)"/><path fill="none" stroke="rgb(0%, 0%, 0%)" stroke-linecap="round" stroke-linejoin="round" stroke-miterlimit="10" stroke-opacity="1" stroke-width="0.39848" d="M -2.072905 2.391661 C -1.692204 0.955202 -0.848382 0.280144 -0.000635489 0.0014869 C -0.848382 -0.277171 -1.692204 -0.956153 -2.072905 -2.392612 " transform="matrix(0, 0.995286, 0.995286, 0, 69.21727, 100.348289)"/><g fill="rgb(0%, 0%, 0%)" fill-opacity="1"><use xlink:href="#b06ba7a39fc364a5ab9a8b9a0739689a9075kiuf__glyph-1-3" x="62.241969" y="85.305939"/></g><path fill="none" stroke="rgb(0%, 0%, 0%)" stroke-linecap="butt" stroke-linejoin="miter" stroke-miterlimit="10" stroke-opacity="1" stroke-width="0.39848" d="M 32.71719 -7.249139 L 32.71719 -42.316802 " transform="matrix(0.995286, 0, 0, -0.995286, 101.526892, 58.031129)"/><path fill="none" stroke="rgb(0%, 0%, 0%)" stroke-linecap="round" stroke-linejoin="round" stroke-miterlimit="10" stroke-opacity="1" stroke-width="0.39848" d="M -2.072905 2.389424 C -1.692204 0.95689 -0.848382 0.277907 -0.000635489 -0.000749925 C -0.848382 -0.279407 -1.692204 -0.954465 -2.072905 -2.390924 " transform="matrix(0, 0.995286, 0.995286, 0, 134.09059, 100.348289)"/><g fill="rgb(0%, 0%, 0%)" fill-opacity="1"><use xlink:href="#b06ba7a39fc364a5ab9a8b9a0739689a9075kiuf__glyph-1-4" x="136.422604" y="83.715472"/></g><path fill="none" stroke="rgb(0%, 0%, 0%)" stroke-linecap="butt" stroke-linejoin="miter" stroke-miterlimit="10" stroke-opacity="1" stroke-width="0.39848" d="M -24.058278 -50.880612 L 23.568592 -50.880612 " transform="matrix(0.995286, 0, 0, -0.995286, 101.526892, 58.031129)"/><path fill="none" stroke="rgb(0%, 0%, 0%)" stroke-linecap="round" stroke-linejoin="round" stroke-miterlimit="10" stroke-opacity="1" stroke-width="0.39848" d="M -2.070925 2.392867 C -1.694148 0.956408 -0.850327 0.277426 0.00134459 -0.00123188 C -0.850327 -0.279889 -1.694148 -0.954947 -2.070925 -2.391406 " transform="matrix(0.995286, 0, 0, -0.995286, 125.182255, 108.670649)"/><g fill="rgb(0%, 0%, 0%)" fill-opacity="1"><use xlink:href="#b06ba7a39fc364a5ab9a8b9a0739689a9075kiuf__glyph-1-5" x="97.328777" y="115.745757"/></g><g fill="rgb(0%, 0%, 0%)" fill-opacity="1"><use xlink:href="#b06ba7a39fc364a5ab9a8b9a0739689a9075kiuf__glyph-2-0" x="100.380323" y="111.148532"/></g><g clip-path="url(#b06ba7a39fc364a5ab9a8b9a0739689a9075kiuf__clip-0)"><path fill="none" stroke="rgb(0%, 0%, 0%)" stroke-linecap="butt" stroke-linejoin="miter" stroke-miterlimit="10" stroke-opacity="1" stroke-width="2.32874" d="M 0.310509 31.421446 L 0.0397016 -31.060612 " transform="matrix(0.995286, 0, 0, -0.995286, 101.526892, 58.031129)"/></g><path fill="none" stroke="rgb(100%, 100%, 100%)" stroke-linecap="butt" stroke-linejoin="miter" stroke-miterlimit="10" stroke-opacity="1" stroke-width="1.53175" d="M 0.310509 31.421446 L 0.0397016 -31.060612 " transform="matrix(0.995286, 0, 0, -0.995286, 101.526892, 58.031129)"/><path fill="none" stroke="rgb(0%, 0%, 0%)" stroke-linecap="round" stroke-linejoin="round" stroke-miterlimit="10" stroke-opacity="1" stroke-width="0.39848" d="M -1.292682 2.556858 C -0.666702 1.205455 1.022106 0.0470417 1.987846 0.000189555 C 1.022513 -0.0471553 -0.66414 -1.204452 -1.294137 -2.557356 " transform="matrix(-0.00429963, 0.995236, 0.995236, 0.00429963, 101.566952, 88.943499)"/><g fill="rgb(0%, 0%, 0%)" fill-opacity="1"><use xlink:href="#b06ba7a39fc364a5ab9a8b9a0739689a9075kiuf__glyph-3-0" x="145.980333" y="58.031129"/></g><g fill="rgb(0%, 0%, 0%)" fill-opacity="1"><use xlink:href="#b06ba7a39fc364a5ab9a8b9a0739689a9075kiuf__glyph-0-0" x="161.611295" y="11.688635"/></g><g fill="rgb(0%, 0%, 0%)" fill-opacity="1"><use xlink:href="#b06ba7a39fc364a5ab9a8b9a0739689a9075kiuf__glyph-0-1" x="226.999576" y="11.688635"/></g><g fill="rgb(0%, 0%, 0%)" fill-opacity="1"><use xlink:href="#b06ba7a39fc364a5ab9a8b9a0739689a9075kiuf__glyph-0-2" x="162.389609" y="61.419081"/></g><g fill="rgb(0%, 0%, 0%)" fill-opacity="1"><use xlink:href="#b06ba7a39fc364a5ab9a8b9a0739689a9075kiuf__glyph-0-3" x="226.970713" y="61.419081"/></g><g fill="rgb(0%, 0%, 0%)" fill-opacity="1"><use xlink:href="#b06ba7a39fc364a5ab9a8b9a0739689a9075kiuf__glyph-0-4" x="162.209462" y="111.148532"/></g><g fill="rgb(0%, 0%, 0%)" fill-opacity="1"><use xlink:href="#b06ba7a39fc364a5ab9a8b9a0739689a9075kiuf__glyph-0-5" x="226.737816" y="111.148532"/></g><path fill="none" stroke="rgb(0%, 0%, 0%)" stroke-linecap="butt" stroke-linejoin="miter" stroke-miterlimit="10" stroke-opacity="1" stroke-width="0.39848" d="M -23.457232 49.051434 L 23.832109 49.051434 " transform="matrix(0.995286, 0, 0, -0.995286, 198.416961, 58.031129)"/><path fill="none" stroke="rgb(0%, 0%, 0%)" stroke-linecap="round" stroke-linejoin="round" stroke-miterlimit="10" stroke-opacity="1" stroke-width="0.39848" d="M -2.070998 2.392643 C -1.694221 0.956183 -0.8504 0.277201 0.00127164 -0.00145617 C -0.8504 -0.280114 -1.694221 -0.955171 -2.070998 -2.39163 " transform="matrix(0.995286, 0, 0, -0.995286, 222.334672, 9.209488)"/><g fill="rgb(0%, 0%, 0%)" fill-opacity="1"><use xlink:href="#b06ba7a39fc364a5ab9a8b9a0739689a9075kiuf__glyph-1-0" x="195.289773" y="6.877424"/></g><g fill="rgb(0%, 0%, 0%)" fill-opacity="1"><use xlink:href="#b06ba7a39fc364a5ab9a8b9a0739689a9075kiuf__glyph-2-0" x="197.700355" y="11.688635"/></g><path fill="none" stroke="rgb(0%, 0%, 0%)" stroke-linecap="butt" stroke-linejoin="miter" stroke-miterlimit="10" stroke-opacity="1" stroke-width="0.39848" d="M -32.464539 42.716883 L -32.464539 7.649221 " transform="matrix(0.995286, 0, 0, -0.995286, 198.416961, 58.031129)"/><path fill="none" stroke="rgb(0%, 0%, 0%)" stroke-linecap="round" stroke-linejoin="round" stroke-miterlimit="10" stroke-opacity="1" stroke-width="0.39848" d="M -2.072808 2.39222 C -1.692107 0.95576 -0.848285 0.280703 -0.000538346 -0.00187922 C -0.848285 -0.280537 -1.692107 -0.955594 -2.072808 -2.392053 " transform="matrix(0, 0.995286, 0.995286, 0, 166.107339, 50.617723)"/><g fill="rgb(0%, 0%, 0%)" fill-opacity="1"><use xlink:href="#b06ba7a39fc364a5ab9a8b9a0739689a9075kiuf__glyph-1-1" x="159.391808" y="35.576488"/></g><path fill="none" stroke="rgb(0%, 0%, 0%)" stroke-linecap="butt" stroke-linejoin="miter" stroke-miterlimit="10" stroke-opacity="1" stroke-width="0.39848" d="M 32.717749 42.716883 L 32.717749 7.649221 " transform="matrix(0.995286, 0, 0, -0.995286, 198.416961, 58.031129)"/><path fill="none" stroke="rgb(0%, 0%, 0%)" stroke-linecap="round" stroke-linejoin="round" stroke-miterlimit="10" stroke-opacity="1" stroke-width="0.39848" d="M -2.072808 2.389983 C -1.692107 0.957448 -0.848285 0.278466 -0.000538346 -0.000191292 C -0.848285 -0.278849 -1.692107 -0.957831 -2.072808 -2.390366 " transform="matrix(0, 0.995286, 0.995286, 0, 230.980659, 50.617723)"/><g fill="rgb(0%, 0%, 0%)" fill-opacity="1"><use xlink:href="#b06ba7a39fc364a5ab9a8b9a0739689a9075kiuf__glyph-1-2" x="233.312673" y="35.576488"/></g><path fill="none" stroke="rgb(0%, 0%, 0%)" stroke-linecap="butt" stroke-linejoin="miter" stroke-miterlimit="10" stroke-opacity="1" stroke-width="0.39848" d="M -24.238258 -0.914589 L 23.800711 -0.914589 " transform="matrix(0.995286, 0, 0, -0.995286, 198.416961, 58.031129)"/><path fill="none" stroke="rgb(0%, 0%, 0%)" stroke-linecap="round" stroke-linejoin="round" stroke-miterlimit="10" stroke-opacity="1" stroke-width="0.39848" d="M -2.072996 2.39275 C -1.692295 0.956291 -0.848473 0.277308 -0.000726382 -0.00134903 C -0.848473 -0.280006 -1.692295 -0.955064 -2.072996 -2.391523 " transform="matrix(0.995286, 0, 0, -0.995286, 222.30541, 58.940064)"/><g fill="rgb(0%, 0%, 0%)" fill-opacity="1"><use xlink:href="#b06ba7a39fc364a5ab9a8b9a0739689a9075kiuf__glyph-1-3" x="185.720101" y="55.257268"/></g><g fill="rgb(0%, 0%, 0%)" fill-opacity="1"><use xlink:href="#b06ba7a39fc364a5ab9a8b9a0739689a9075kiuf__glyph-4-0" x="190.362114" y="52.265439"/></g><g fill="rgb(0%, 0%, 0%)" fill-opacity="1"><use xlink:href="#b06ba7a39fc364a5ab9a8b9a0739689a9075kiuf__glyph-1-5" x="194.507479" y="55.257268"/></g><g fill="rgb(0%, 0%, 0%)" fill-opacity="1"><use xlink:href="#b06ba7a39fc364a5ab9a8b9a0739689a9075kiuf__glyph-1-4" x="202.811599" y="55.257268"/></g><g fill="rgb(0%, 0%, 0%)" fill-opacity="1"><use xlink:href="#b06ba7a39fc364a5ab9a8b9a0739689a9075kiuf__glyph-4-0" x="206.930635" y="52.265439"/></g><g fill="rgb(0%, 0%, 0%)" fill-opacity="1"><use xlink:href="#b06ba7a39fc364a5ab9a8b9a0739689a9075kiuf__glyph-2-0" x="197.296269" y="61.419081"/></g><path fill="none" stroke="rgb(0%, 0%, 0%)" stroke-linecap="butt" stroke-linejoin="miter" stroke-miterlimit="10" stroke-opacity="1" stroke-width="0.39848" d="M -32.464539 -7.249139 L -32.464539 -42.316802 " transform="matrix(0.995286, 0, 0, -0.995286, 198.416961, 58.031129)"/><path fill="none" stroke="rgb(0%, 0%, 0%)" stroke-linecap="round" stroke-linejoin="round" stroke-miterlimit="10" stroke-opacity="1" stroke-width="0.39848" d="M -2.072905 2.39222 C -1.692204 0.95576 -0.848382 0.280703 -0.000635489 -0.00187922 C -0.848382 -0.280537 -1.692204 -0.955594 -2.072905 -2.392053 " transform="matrix(0, 0.995286, 0.995286, 0, 166.107339, 100.348289)"/><g fill="rgb(0%, 0%, 0%)" fill-opacity="1"><use xlink:href="#b06ba7a39fc364a5ab9a8b9a0739689a9075kiuf__glyph-1-3" x="159.132038" y="85.305939"/></g><path fill="none" stroke="rgb(0%, 0%, 0%)" stroke-linecap="butt" stroke-linejoin="miter" stroke-miterlimit="10" stroke-opacity="1" stroke-width="0.39848" d="M 32.717749 -7.249139 L 32.717749 -42.316802 " transform="matrix(0.995286, 0, 0, -0.995286, 198.416961, 58.031129)"/><path fill="none" stroke="rgb(0%, 0%, 0%)" stroke-linecap="round" stroke-linejoin="round" stroke-miterlimit="10" stroke-opacity="1" stroke-width="0.39848" d="M -2.072905 2.389983 C -1.692204 0.957448 -0.848382 0.278466 -0.000635489 -0.000191292 C -0.848382 -0.278849 -1.692204 -0.957831 -2.072905 -2.390366 " transform="matrix(0, 0.995286, 0.995286, 0, 230.980659, 100.348289)"/><g fill="rgb(0%, 0%, 0%)" fill-opacity="1"><use xlink:href="#b06ba7a39fc364a5ab9a8b9a0739689a9075kiuf__glyph-1-4" x="233.312673" y="83.715472"/></g><path fill="none" stroke="rgb(0%, 0%, 0%)" stroke-linecap="butt" stroke-linejoin="miter" stroke-miterlimit="10" stroke-opacity="1" stroke-width="0.39848" d="M -24.05772 -50.880612 L 23.569151 -50.880612 " transform="matrix(0.995286, 0, 0, -0.995286, 198.416961, 58.031129)"/><path fill="none" stroke="rgb(0%, 0%, 0%)" stroke-linecap="round" stroke-linejoin="round" stroke-miterlimit="10" stroke-opacity="1" stroke-width="0.39848" d="M -2.070366 2.392867 C -1.69359 0.956408 -0.849768 0.277426 0.00190323 -0.00123188 C -0.849768 -0.279889 -1.69359 -0.954947 -2.070366 -2.391406 " transform="matrix(0.995286, 0, 0, -0.995286, 222.072324, 108.670649)"/><g fill="rgb(0%, 0%, 0%)" fill-opacity="1"><use xlink:href="#b06ba7a39fc364a5ab9a8b9a0739689a9075kiuf__glyph-1-5" x="194.218846" y="115.745757"/></g><g fill="rgb(0%, 0%, 0%)" fill-opacity="1"><use xlink:href="#b06ba7a39fc364a5ab9a8b9a0739689a9075kiuf__glyph-2-0" x="197.269396" y="111.148532"/></g><path fill="none" stroke="rgb(0%, 0%, 0%)" stroke-linecap="butt" stroke-linejoin="miter" stroke-miterlimit="10" stroke-opacity="1" stroke-width="2.32874" d="M 0.307143 39.388693 L 0.0795077 10.938163 " transform="matrix(0.995286, 0, 0, -0.995286, 198.416961, 58.031129)"/><path fill="none" stroke="rgb(100%, 100%, 100%)" stroke-linecap="butt" stroke-linejoin="miter" stroke-miterlimit="10" stroke-opacity="1" stroke-width="1.53175" d="M 0.307143 39.388693 L 0.0795077 10.938163 " transform="matrix(0.995286, 0, 0, -0.995286, 198.416961, 58.031129)"/><path fill="none" stroke="rgb(0%, 0%, 0%)" stroke-linecap="round" stroke-linejoin="round" stroke-miterlimit="10" stroke-opacity="1" stroke-width="0.39848" d="M -1.29353 2.558347 C -0.666308 1.205367 1.023008 0.049416 1.988988 -0.00161559 C 1.023805 -0.0487042 -0.666362 -1.204624 -1.295174 -2.556028 " transform="matrix(-0.00808172, 0.995206, 0.995206, 0.00808172, 198.494245, 47.14556)"/><g fill="rgb(0%, 0%, 0%)" fill-opacity="1"><use xlink:href="#b06ba7a39fc364a5ab9a8b9a0739689a9075kiuf__glyph-5-0" x="200.933043" y="36.485184"/></g><g fill="rgb(0%, 0%, 0%)" fill-opacity="1"><use xlink:href="#b06ba7a39fc364a5ab9a8b9a0739689a9075kiuf__glyph-6-0" x="205.422432" y="36.485184"/></g><g clip-path="url(#b06ba7a39fc364a5ab9a8b9a0739689a9075kiuf__clip-1)"><path fill="none" stroke="rgb(0%, 0%, 0%)" stroke-linecap="butt" stroke-linejoin="miter" stroke-miterlimit="10" stroke-opacity="1" stroke-width="2.32874" d="M -0.0225358 -10.577329 L -0.0382349 -39.02786 " transform="matrix(0.995286, 0, 0, -0.995286, 198.416961, 58.031129)"/></g><g clip-path="url(#b06ba7a39fc364a5ab9a8b9a0739689a9075kiuf__clip-2)"><path fill="none" stroke="rgb(100%, 100%, 100%)" stroke-linecap="butt" stroke-linejoin="miter" stroke-miterlimit="10" stroke-opacity="1" stroke-width="1.53175" d="M -0.0225358 -10.577329 L -0.0382349 -39.02786 " transform="matrix(0.995286, 0, 0, -0.995286, 198.416961, 58.031129)"/></g><path fill="none" stroke="rgb(0%, 0%, 0%)" stroke-linecap="round" stroke-linejoin="round" stroke-miterlimit="10" stroke-opacity="1" stroke-width="0.39848" d="M -1.293041 2.559253 C -0.664364 1.205513 1.023915 0.0485656 1.98945 -0.00195513 C 1.023966 -0.0495552 -0.667033 -1.20826 -1.294304 -2.558728 " transform="matrix(-0.000517549, 0.995266, 0.995266, 0.000517549, 198.377976, 96.875438)"/></svg>