<?xml version="1.0" encoding="UTF-8"?><svg xmlns="http://www.w3.org/2000/svg" xmlns:xlink="http://www.w3.org/1999/xlink" width="343.711" height="88.589" viewBox="0 0 343.711 88.589"><defs><g><g id="77585833215ec07234c51e1fe680e9f1ktnz7nzj__glyph-0-0"><path d="M 7.578125 -6.015625 C 7.65625 -6.375 7.671875 -6.46875 8.40625 -6.46875 C 8.65625 -6.46875 8.734375 -6.46875 8.734375 -6.671875 C 8.734375 -6.78125 8.625 -6.78125 8.609375 -6.78125 C 8.328125 -6.78125 7.609375 -6.75 7.328125 -6.75 C 7.046875 -6.75 6.34375 -6.78125 6.046875 -6.78125 C 5.96875 -6.78125 5.859375 -6.78125 5.859375 -6.578125 C 5.859375 -6.46875 5.953125 -6.46875 6.140625 -6.46875 C 6.15625 -6.46875 6.34375 -6.46875 6.515625 -6.453125 C 6.703125 -6.421875 6.78125 -6.421875 6.78125 -6.296875 C 6.78125 -6.25 6.78125 -6.234375 6.75 -6.109375 L 6.15625 -3.6875 L 3.125 -3.6875 L 3.703125 -6.015625 C 3.796875 -6.375 3.828125 -6.46875 4.546875 -6.46875 C 4.796875 -6.46875 4.875 -6.46875 4.875 -6.671875 C 4.875 -6.78125 4.765625 -6.78125 4.75 -6.78125 C 4.46875 -6.78125 3.75 -6.75 3.46875 -6.75 C 3.1875 -6.75 2.484375 -6.78125 2.1875 -6.78125 C 2.109375 -6.78125 2 -6.78125 2 -6.578125 C 2 -6.46875 2.09375 -6.46875 2.28125 -6.46875 C 2.296875 -6.46875 2.484375 -6.46875 2.65625 -6.453125 C 2.84375 -6.421875 2.921875 -6.421875 2.921875 -6.296875 C 2.921875 -6.25 2.921875 -6.21875 2.890625 -6.109375 L 1.5625 -0.78125 C 1.453125 -0.390625 1.4375 -0.3125 0.65625 -0.3125 C 0.46875 -0.3125 0.390625 -0.3125 0.390625 -0.109375 C 0.390625 0 0.5 0 0.53125 0 C 0.796875 0 1.515625 -0.03125 1.78125 -0.03125 C 2 -0.03125 2.21875 -0.015625 2.421875 -0.015625 C 2.640625 -0.015625 2.859375 0 3.0625 0 C 3.140625 0 3.265625 0 3.265625 -0.203125 C 3.265625 -0.3125 3.171875 -0.3125 2.984375 -0.3125 C 2.625 -0.3125 2.34375 -0.3125 2.34375 -0.484375 C 2.34375 -0.546875 2.359375 -0.59375 2.375 -0.65625 L 3.046875 -3.375 L 6.078125 -3.375 C 5.65625 -1.71875 5.421875 -0.78125 5.390625 -0.640625 C 5.28125 -0.3125 5.09375 -0.3125 4.484375 -0.3125 C 4.328125 -0.3125 4.25 -0.3125 4.25 -0.109375 C 4.25 0 4.359375 0 4.390625 0 C 4.65625 0 5.375 -0.03125 5.640625 -0.03125 C 5.859375 -0.03125 6.078125 -0.015625 6.28125 -0.015625 C 6.5 -0.015625 6.71875 0 6.921875 0 C 7 0 7.125 0 7.125 -0.203125 C 7.125 -0.3125 7.03125 -0.3125 6.84375 -0.3125 C 6.484375 -0.3125 6.203125 -0.3125 6.203125 -0.484375 C 6.203125 -0.546875 6.21875 -0.59375 6.234375 -0.65625 Z M 7.578125 -6.015625 "/></g><g id="77585833215ec07234c51e1fe680e9f1ktnz7nzj__glyph-0-1"><path d="M 7.03125 -2.3125 C 7.046875 -2.359375 7.078125 -2.4375 7.078125 -2.453125 C 7.078125 -2.453125 7.078125 -2.5625 6.953125 -2.5625 C 6.859375 -2.5625 6.84375 -2.5 6.828125 -2.4375 C 6.1875 -0.96875 5.8125 -0.3125 4.125 -0.3125 L 2.671875 -0.3125 C 2.53125 -0.3125 2.515625 -0.3125 2.453125 -0.3125 C 2.34375 -0.328125 2.328125 -0.34375 2.328125 -0.421875 C 2.328125 -0.453125 2.328125 -0.46875 2.375 -0.640625 L 3.046875 -3.359375 L 4.03125 -3.359375 C 4.875 -3.359375 4.875 -3.140625 4.875 -2.890625 C 4.875 -2.828125 4.875 -2.703125 4.796875 -2.40625 C 4.78125 -2.359375 4.765625 -2.328125 4.765625 -2.296875 C 4.765625 -2.25 4.8125 -2.1875 4.90625 -2.1875 C 4.984375 -2.1875 5.015625 -2.25 5.046875 -2.390625 L 5.609375 -4.71875 C 5.609375 -4.765625 5.5625 -4.828125 5.5 -4.828125 C 5.40625 -4.828125 5.390625 -4.765625 5.359375 -4.640625 C 5.15625 -3.890625 4.96875 -3.65625 4.0625 -3.65625 L 3.125 -3.65625 L 3.71875 -6.046875 C 3.8125 -6.40625 3.8125 -6.4375 4.25 -6.4375 L 5.65625 -6.4375 C 6.859375 -6.4375 7.15625 -6.15625 7.15625 -5.34375 C 7.15625 -5.09375 7.15625 -5.078125 7.125 -4.8125 C 7.125 -4.75 7.109375 -4.6875 7.109375 -4.640625 C 7.109375 -4.578125 7.140625 -4.515625 7.234375 -4.515625 C 7.34375 -4.515625 7.359375 -4.578125 7.375 -4.765625 L 7.578125 -6.484375 C 7.59375 -6.75 7.546875 -6.75 7.296875 -6.75 L 2.296875 -6.75 C 2.09375 -6.75 2 -6.75 2 -6.546875 C 2 -6.4375 2.078125 -6.4375 2.265625 -6.4375 C 2.640625 -6.4375 2.921875 -6.4375 2.921875 -6.265625 C 2.921875 -6.21875 2.921875 -6.203125 2.875 -6.015625 L 1.5625 -0.78125 C 1.453125 -0.390625 1.4375 -0.3125 0.65625 -0.3125 C 0.484375 -0.3125 0.375 -0.3125 0.375 -0.125 C 0.375 0 0.46875 0 0.65625 0 L 5.796875 0 C 6.03125 0 6.046875 -0.015625 6.109375 -0.171875 Z M 7.03125 -2.3125 "/></g><g id="77585833215ec07234c51e1fe680e9f1ktnz7nzj__glyph-0-2"><path d="M 1.59375 -0.78125 C 1.484375 -0.390625 1.46875 -0.3125 0.6875 -0.3125 C 0.515625 -0.3125 0.421875 -0.3125 0.421875 -0.109375 C 0.421875 0 0.5 0 0.6875 0 L 4.234375 0 C 5.796875 0 6.96875 -1.171875 6.96875 -2.140625 C 6.96875 -2.859375 6.390625 -3.4375 5.421875 -3.546875 C 6.453125 -3.734375 7.5 -4.46875 7.5 -5.40625 C 7.5 -6.140625 6.84375 -6.78125 5.65625 -6.78125 L 2.328125 -6.78125 C 2.140625 -6.78125 2.03125 -6.78125 2.03125 -6.578125 C 2.03125 -6.46875 2.125 -6.46875 2.3125 -6.46875 C 2.328125 -6.46875 2.515625 -6.46875 2.6875 -6.453125 C 2.875 -6.421875 2.953125 -6.421875 2.953125 -6.296875 C 2.953125 -6.25 2.953125 -6.21875 2.921875 -6.109375 Z M 3.078125 -3.625 L 3.703125 -6.09375 C 3.796875 -6.4375 3.8125 -6.46875 4.234375 -6.46875 L 5.515625 -6.46875 C 6.390625 -6.46875 6.59375 -5.890625 6.59375 -5.453125 C 6.59375 -4.578125 5.75 -3.625 4.53125 -3.625 Z M 2.640625 -0.3125 C 2.5 -0.3125 2.484375 -0.3125 2.421875 -0.3125 C 2.328125 -0.328125 2.296875 -0.34375 2.296875 -0.421875 C 2.296875 -0.453125 2.296875 -0.46875 2.34375 -0.640625 L 3.03125 -3.40625 L 4.90625 -3.40625 C 5.859375 -3.40625 6.046875 -2.671875 6.046875 -2.25 C 6.046875 -1.265625 5.15625 -0.3125 3.984375 -0.3125 Z M 2.640625 -0.3125 "/></g><g id="77585833215ec07234c51e1fe680e9f1ktnz7nzj__glyph-0-3"><path d="M 3.703125 -6.015625 C 3.796875 -6.375 3.828125 -6.46875 4.609375 -6.46875 C 4.859375 -6.46875 4.9375 -6.46875 4.9375 -6.65625 C 4.9375 -6.78125 4.828125 -6.78125 4.78125 -6.78125 C 4.5 -6.78125 3.765625 -6.75 3.46875 -6.75 C 3.171875 -6.75 2.453125 -6.78125 2.15625 -6.78125 C 2.078125 -6.78125 1.953125 -6.78125 1.953125 -6.578125 C 1.953125 -6.46875 2.046875 -6.46875 2.234375 -6.46875 C 2.65625 -6.46875 2.921875 -6.46875 2.921875 -6.28125 C 2.921875 -6.234375 2.921875 -6.21875 2.890625 -6.125 L 1.5625 -0.78125 C 1.46875 -0.40625 1.4375 -0.3125 0.65625 -0.3125 C 0.421875 -0.3125 0.34375 -0.3125 0.34375 -0.109375 C 0.34375 0 0.453125 0 0.484375 0 C 0.78125 0 1.5 -0.03125 1.78125 -0.03125 C 2.078125 -0.03125 2.8125 0 3.109375 0 C 3.1875 0 3.3125 0 3.3125 -0.1875 C 3.3125 -0.3125 3.234375 -0.3125 3.015625 -0.3125 C 2.84375 -0.3125 2.78125 -0.3125 2.59375 -0.328125 C 2.375 -0.34375 2.34375 -0.390625 2.34375 -0.5 C 2.34375 -0.578125 2.359375 -0.65625 2.375 -0.71875 Z M 3.703125 -6.015625 "/></g><g id="77585833215ec07234c51e1fe680e9f1ktnz7nzj__glyph-1-0"><path d="M 2.234375 -1.734375 C 2.8125 -1.984375 3.0625 -2.078125 3.234375 -2.15625 C 3.375 -2.21875 3.4375 -2.234375 3.4375 -2.375 C 3.4375 -2.484375 3.34375 -2.59375 3.21875 -2.59375 C 3.171875 -2.59375 3.15625 -2.59375 3.078125 -2.53125 L 2.125 -1.90625 L 2.234375 -2.921875 C 2.25 -3.046875 2.234375 -3.21875 2.03125 -3.21875 C 1.9375 -3.21875 1.8125 -3.171875 1.8125 -3.015625 C 1.8125 -2.953125 1.84375 -2.75 1.84375 -2.671875 C 1.859375 -2.5625 1.90625 -2.0625 1.921875 -1.90625 L 0.984375 -2.53125 C 0.921875 -2.578125 0.890625 -2.59375 0.828125 -2.59375 C 0.703125 -2.59375 0.625 -2.484375 0.625 -2.375 C 0.625 -2.234375 0.703125 -2.203125 0.765625 -2.171875 L 1.8125 -1.734375 C 1.234375 -1.484375 0.984375 -1.390625 0.8125 -1.296875 C 0.6875 -1.25 0.625 -1.21875 0.625 -1.09375 C 0.625 -0.96875 0.703125 -0.875 0.828125 -0.875 C 0.875 -0.875 0.890625 -0.875 0.984375 -0.921875 L 1.921875 -1.5625 L 1.8125 -0.4375 C 1.8125 -0.296875 1.9375 -0.234375 2.03125 -0.234375 C 2.109375 -0.234375 2.234375 -0.296875 2.234375 -0.4375 C 2.234375 -0.5 2.21875 -0.71875 2.203125 -0.78125 C 2.1875 -0.90625 2.140625 -1.40625 2.125 -1.5625 L 2.96875 -1 C 3.140625 -0.875 3.15625 -0.875 3.21875 -0.875 C 3.34375 -0.875 3.4375 -0.96875 3.4375 -1.09375 C 3.4375 -1.234375 3.34375 -1.265625 3.28125 -1.296875 Z M 2.234375 -1.734375 "/></g><g id="77585833215ec07234c51e1fe680e9f1ktnz7nzj__glyph-1-1"><path d="M 4.859375 -3.25 C 4.9375 -3.328125 4.953125 -3.375 4.953125 -3.421875 C 4.953125 -3.53125 4.859375 -3.59375 4.78125 -3.59375 C 4.71875 -3.59375 4.703125 -3.578125 4.609375 -3.484375 L 3.09375 -1.984375 L 1.5625 -3.5 C 1.5 -3.5625 1.46875 -3.59375 1.40625 -3.59375 C 1.3125 -3.59375 1.234375 -3.515625 1.234375 -3.421875 C 1.234375 -3.359375 1.25 -3.34375 1.34375 -3.25 L 2.84375 -1.734375 L 1.34375 -0.234375 C 1.234375 -0.125 1.234375 -0.09375 1.234375 -0.0625 C 1.234375 0.046875 1.3125 0.125 1.40625 0.125 C 1.46875 0.125 1.484375 0.09375 1.5625 0.015625 L 3.09375 -1.5 L 4.671875 0.078125 C 4.703125 0.109375 4.75 0.125 4.78125 0.125 C 4.859375 0.125 4.953125 0.0625 4.953125 -0.0625 C 4.953125 -0.109375 4.9375 -0.125 4.921875 -0.140625 C 4.90625 -0.171875 3.5625 -1.515625 3.34375 -1.734375 Z M 4.859375 -3.25 "/></g><g id="77585833215ec07234c51e1fe680e9f1ktnz7nzj__glyph-2-0"><path d="M 1.578125 -7.078125 C 1.578125 -7.265625 1.578125 -7.4375 1.375 -7.4375 C 1.1875 -7.4375 1.1875 -7.265625 1.1875 -7.078125 L 1.1875 2.125 C 1.1875 2.296875 1.1875 2.484375 1.375 2.484375 C 1.578125 2.484375 1.578125 2.296875 1.578125 2.125 Z M 1.578125 -7.078125 "/></g><g id="77585833215ec07234c51e1fe680e9f1ktnz7nzj__glyph-2-1"><path d="M 3.859375 -2.765625 L 1.875 -4.734375 C 1.75 -4.859375 1.734375 -4.875 1.65625 -4.875 C 1.5625 -4.875 1.453125 -4.78125 1.453125 -4.671875 C 1.453125 -4.609375 1.484375 -4.578125 1.59375 -4.46875 L 3.578125 -2.484375 L 1.59375 -0.484375 C 1.484375 -0.375 1.453125 -0.359375 1.453125 -0.28125 C 1.453125 -0.171875 1.5625 -0.09375 1.65625 -0.09375 C 1.734375 -0.09375 1.75 -0.109375 1.875 -0.234375 L 3.84375 -2.203125 L 5.90625 -0.15625 C 5.921875 -0.140625 6 -0.09375 6.046875 -0.09375 C 6.171875 -0.09375 6.25 -0.171875 6.25 -0.28125 C 6.25 -0.3125 6.25 -0.34375 6.21875 -0.390625 C 6.21875 -0.421875 4.640625 -1.96875 4.140625 -2.484375 L 5.953125 -4.296875 C 6 -4.359375 6.15625 -4.484375 6.203125 -4.546875 C 6.21875 -4.5625 6.25 -4.609375 6.25 -4.671875 C 6.25 -4.78125 6.171875 -4.875 6.046875 -4.875 C 5.96875 -4.875 5.9375 -4.828125 5.828125 -4.71875 Z M 3.859375 -2.765625 "/></g><g id="77585833215ec07234c51e1fe680e9f1ktnz7nzj__glyph-3-0"><path d="M 1.3125 -0.546875 C 1.25 -0.3125 1.234375 -0.25 0.703125 -0.25 C 0.59375 -0.25 0.5 -0.25 0.5 -0.109375 C 0.5 0 0.578125 0 0.703125 0 L 3.390625 0 C 4.5625 0 5.453125 -0.796875 5.453125 -1.484375 C 5.453125 -1.984375 5 -2.40625 4.265625 -2.484375 C 5.109375 -2.625 5.8125 -3.15625 5.8125 -3.75 C 5.8125 -4.28125 5.265625 -4.734375 4.375 -4.734375 L 1.84375 -4.734375 C 1.71875 -4.734375 1.625 -4.734375 1.625 -4.578125 C 1.625 -4.484375 1.703125 -4.484375 1.84375 -4.484375 C 1.859375 -4.484375 1.984375 -4.484375 2.109375 -4.46875 C 2.25 -4.453125 2.265625 -4.453125 2.265625 -4.375 C 2.265625 -4.359375 2.265625 -4.328125 2.234375 -4.21875 Z M 2.421875 -2.5625 L 2.84375 -4.25 C 2.90625 -4.46875 2.90625 -4.484375 3.203125 -4.484375 L 4.265625 -4.484375 C 4.96875 -4.484375 5.125 -4.03125 5.125 -3.765625 C 5.125 -3.203125 4.5 -2.5625 3.5625 -2.5625 Z M 2.09375 -0.25 C 1.875 -0.25 1.875 -0.25 1.875 -0.3125 C 1.875 -0.328125 1.875 -0.359375 1.90625 -0.46875 L 2.375 -2.359375 L 3.84375 -2.359375 C 4.5 -2.359375 4.75 -1.9375 4.75 -1.53125 C 4.75 -0.84375 4.046875 -0.25 3.21875 -0.25 Z M 2.09375 -0.25 "/></g><g id="77585833215ec07234c51e1fe680e9f1ktnz7nzj__glyph-3-1"><path d="M 2.859375 -4.1875 C 2.921875 -4.421875 2.9375 -4.484375 3.46875 -4.484375 C 3.640625 -4.484375 3.71875 -4.484375 3.71875 -4.640625 C 3.71875 -4.703125 3.671875 -4.734375 3.609375 -4.734375 C 3.46875 -4.734375 3.28125 -4.71875 3.140625 -4.71875 C 2.984375 -4.71875 2.828125 -4.703125 2.671875 -4.703125 C 2.671875 -4.703125 2.1875 -4.71875 2.1875 -4.71875 C 2.046875 -4.71875 1.859375 -4.734375 1.71875 -4.734375 C 1.671875 -4.734375 1.5625 -4.734375 1.5625 -4.578125 C 1.5625 -4.484375 1.640625 -4.484375 1.796875 -4.484375 C 1.796875 -4.484375 1.9375 -4.484375 2.0625 -4.46875 C 2.203125 -4.453125 2.25 -4.453125 2.25 -4.375 C 2.25 -4.34375 2.234375 -4.28125 2.21875 -4.234375 L 1.296875 -0.546875 C 1.234375 -0.3125 1.21875 -0.25 0.703125 -0.25 C 0.515625 -0.25 0.4375 -0.25 0.4375 -0.09375 C 0.4375 -0.09375 0.4375 0 0.5625 0 C 0.765625 0 1.28125 -0.03125 1.484375 -0.03125 L 1.96875 -0.015625 C 2.125 -0.015625 2.296875 0 2.453125 0 C 2.484375 0 2.59375 0 2.59375 -0.15625 C 2.59375 -0.25 2.515625 -0.25 2.375 -0.25 C 2.359375 -0.25 2.21875 -0.25 2.078125 -0.265625 C 1.921875 -0.28125 1.921875 -0.3125 1.921875 -0.375 C 1.921875 -0.375 1.921875 -0.421875 1.9375 -0.515625 Z M 2.859375 -4.1875 "/></g><g id="77585833215ec07234c51e1fe680e9f1ktnz7nzj__glyph-3-2"><path d="M 2.15625 -2.515625 L 2.984375 -2.515625 C 2.875 -2.109375 2.71875 -1.46875 2.71875 -0.921875 C 2.71875 -0.640625 2.765625 -0.453125 2.796875 -0.3125 C 2.90625 0.046875 3 0.0625 3.109375 0.0625 C 3.28125 0.0625 3.4375 -0.078125 3.4375 -0.25 C 3.4375 -0.296875 3.421875 -0.328125 3.390625 -0.390625 C 3.25 -0.65625 3.125 -1.046875 3.125 -1.609375 C 3.125 -1.75 3.125 -2.03125 3.21875 -2.515625 L 4.09375 -2.515625 C 4.21875 -2.515625 4.28125 -2.515625 4.34375 -2.578125 C 4.453125 -2.640625 4.46875 -2.75 4.46875 -2.78125 C 4.46875 -2.984375 4.28125 -2.984375 4.171875 -2.984375 L 1.546875 -2.984375 C 1.265625 -2.984375 1.078125 -2.921875 0.765625 -2.640625 C 0.578125 -2.484375 0.3125 -2.109375 0.3125 -2.046875 C 0.3125 -1.953125 0.40625 -1.953125 0.4375 -1.953125 C 0.5 -1.953125 0.515625 -1.96875 0.5625 -2.03125 C 0.90625 -2.515625 1.34375 -2.515625 1.484375 -2.515625 L 1.921875 -2.515625 C 1.703125 -1.75 1.328125 -0.9375 1.109375 -0.515625 C 1.078125 -0.4375 1 -0.28125 0.984375 -0.25 C 0.984375 -0.234375 0.96875 -0.203125 0.96875 -0.15625 C 0.96875 -0.046875 1.046875 0.0625 1.203125 0.0625 C 1.484375 0.0625 1.5625 -0.25 1.734375 -0.875 Z M 2.15625 -2.515625 "/></g><g id="77585833215ec07234c51e1fe680e9f1ktnz7nzj__glyph-3-3"><path d="M 5.828125 -4.171875 C 5.890625 -4.4375 5.90625 -4.484375 6.421875 -4.484375 C 6.578125 -4.484375 6.65625 -4.484375 6.65625 -4.640625 C 6.65625 -4.671875 6.640625 -4.734375 6.546875 -4.734375 C 6.34375 -4.734375 5.84375 -4.703125 5.640625 -4.703125 C 5.515625 -4.703125 5.28125 -4.703125 5.15625 -4.71875 C 5.015625 -4.71875 4.859375 -4.734375 4.71875 -4.734375 C 4.6875 -4.734375 4.578125 -4.734375 4.578125 -4.578125 C 4.578125 -4.484375 4.65625 -4.484375 4.796875 -4.484375 C 4.8125 -4.484375 4.9375 -4.484375 5.0625 -4.46875 C 5.203125 -4.453125 5.21875 -4.453125 5.21875 -4.375 C 5.21875 -4.375 5.21875 -4.328125 5.203125 -4.21875 L 4.78125 -2.59375 L 2.46875 -2.59375 L 2.859375 -4.203125 C 2.921875 -4.4375 2.9375 -4.484375 3.46875 -4.484375 C 3.59375 -4.484375 3.6875 -4.484375 3.6875 -4.640625 C 3.6875 -4.671875 3.65625 -4.734375 3.578125 -4.734375 C 3.375 -4.734375 2.859375 -4.703125 2.65625 -4.703125 C 2.546875 -4.703125 2.296875 -4.703125 2.1875 -4.71875 C 2.046875 -4.71875 1.875 -4.734375 1.75 -4.734375 C 1.703125 -4.734375 1.609375 -4.734375 1.609375 -4.578125 C 1.609375 -4.484375 1.6875 -4.484375 1.828125 -4.484375 C 1.828125 -4.484375 1.96875 -4.484375 2.09375 -4.46875 C 2.234375 -4.453125 2.25 -4.453125 2.25 -4.375 C 2.25 -4.359375 2.25 -4.328125 2.21875 -4.21875 L 1.296875 -0.546875 C 1.234375 -0.3125 1.234375 -0.25 0.6875 -0.25 C 0.5625 -0.25 0.484375 -0.25 0.484375 -0.109375 C 0.484375 -0.03125 0.53125 0 0.59375 0 C 0.796875 0 1.296875 -0.03125 1.484375 -0.03125 C 1.609375 -0.03125 1.859375 -0.03125 1.96875 -0.015625 C 2.109375 -0.015625 2.28125 0 2.421875 0 C 2.453125 0 2.5625 0 2.5625 -0.140625 C 2.5625 -0.25 2.484375 -0.25 2.328125 -0.25 C 2.21875 -0.25 2.1875 -0.25 2.0625 -0.265625 C 1.921875 -0.28125 1.921875 -0.296875 1.921875 -0.375 C 1.921875 -0.375 1.921875 -0.421875 1.9375 -0.515625 L 2.40625 -2.34375 L 4.71875 -2.34375 L 4.28125 -0.546875 C 4.21875 -0.3125 4.203125 -0.25 3.65625 -0.25 C 3.546875 -0.25 3.453125 -0.25 3.453125 -0.109375 C 3.453125 -0.03125 3.5 0 3.5625 0 C 3.765625 0 4.265625 -0.03125 4.46875 -0.03125 C 4.578125 -0.03125 4.828125 -0.03125 4.953125 -0.015625 C 5.078125 -0.015625 5.265625 0 5.390625 0 C 5.421875 0 5.53125 0 5.53125 -0.140625 C 5.53125 -0.25 5.46875 -0.25 5.3125 -0.25 C 5.203125 -0.25 5.171875 -0.25 5.046875 -0.265625 C 4.890625 -0.28125 4.890625 -0.296875 4.890625 -0.375 C 4.890625 -0.40625 4.90625 -0.484375 4.921875 -0.515625 Z M 5.828125 -4.171875 "/></g><g id="77585833215ec07234c51e1fe680e9f1ktnz7nzj__glyph-4-0"><path d="M 3.578125 -2.21875 C 3.578125 -2.96875 3.484375 -3.53125 3.171875 -4.015625 C 2.953125 -4.328125 2.53125 -4.609375 1.96875 -4.609375 C 0.359375 -4.609375 0.359375 -2.71875 0.359375 -2.21875 C 0.359375 -1.71875 0.359375 0.140625 1.96875 0.140625 C 3.578125 0.140625 3.578125 -1.71875 3.578125 -2.21875 Z M 1.96875 -0.0625 C 1.65625 -0.0625 1.234375 -0.25 1.09375 -0.8125 C 0.984375 -1.21875 0.984375 -1.796875 0.984375 -2.296875 C 0.984375 -2.8125 0.984375 -3.34375 1.09375 -3.71875 C 1.234375 -4.265625 1.6875 -4.40625 1.96875 -4.40625 C 2.34375 -4.40625 2.703125 -4.1875 2.828125 -3.78125 C 2.9375 -3.40625 2.953125 -2.90625 2.953125 -2.296875 C 2.953125 -1.796875 2.953125 -1.28125 2.859375 -0.84375 C 2.71875 -0.203125 2.25 -0.0625 1.96875 -0.0625 Z M 1.96875 -0.0625 "/></g><g id="77585833215ec07234c51e1fe680e9f1ktnz7nzj__glyph-5-0"><path d="M 4.5625 -3.171875 C 4.5625 -3.96875 4.515625 -4.765625 4.171875 -5.5 C 3.703125 -6.453125 2.890625 -6.609375 2.484375 -6.609375 C 1.890625 -6.609375 1.15625 -6.34375 0.75 -5.421875 C 0.4375 -4.75 0.390625 -3.96875 0.390625 -3.171875 C 0.390625 -2.4375 0.421875 -1.53125 0.828125 -0.78125 C 1.265625 0.015625 1.984375 0.21875 2.46875 0.21875 C 3 0.21875 3.765625 0.015625 4.203125 -0.9375 C 4.515625 -1.625 4.5625 -2.390625 4.5625 -3.171875 Z M 2.46875 0 C 2.078125 0 1.5 -0.25 1.3125 -1.203125 C 1.203125 -1.796875 1.203125 -2.703125 1.203125 -3.296875 C 1.203125 -3.921875 1.203125 -4.578125 1.296875 -5.125 C 1.484375 -6.296875 2.21875 -6.390625 2.46875 -6.390625 C 2.796875 -6.390625 3.453125 -6.21875 3.640625 -5.234375 C 3.734375 -4.671875 3.734375 -3.921875 3.734375 -3.296875 C 3.734375 -2.546875 3.734375 -1.875 3.625 -1.234375 C 3.484375 -0.296875 2.921875 0 2.46875 0 Z M 2.46875 0 "/></g><g id="77585833215ec07234c51e1fe680e9f1ktnz7nzj__glyph-6-0"><path d="M 3.515625 -2.578125 C 3.515625 -2.671875 3.515625 -2.84375 3.34375 -2.84375 C 3.171875 -2.84375 3.171875 -2.65625 3.171875 -2.546875 L 3.171875 -0.203125 L 0.8125 -0.203125 C 0.703125 -0.203125 0.546875 -0.203125 0.546875 -0.03125 C 0.546875 0.140625 0.6875 0.140625 0.8125 0.140625 L 3.234375 0.140625 C 3.46875 0.140625 3.515625 0.09375 3.515625 -0.125 Z M 3.515625 -2.578125 "/></g></g></defs><g fill="rgb(0%, 0%, 0%)" fill-opacity="1"><use xlink:href="#77585833215ec07234c51e1fe680e9f1ktnz7nzj__glyph-0-0" x="29.481032" y="21.975049"/></g><g fill="rgb(0%, 0%, 0%)" fill-opacity="1"><use xlink:href="#77585833215ec07234c51e1fe680e9f1ktnz7nzj__glyph-1-0" x="38.53005" y="18.376743"/></g><g fill="rgb(0%, 0%, 0%)" fill-opacity="1"><use xlink:href="#77585833215ec07234c51e1fe680e9f1ktnz7nzj__glyph-0-1" x="43.0889" y="21.975049"/></g><g fill="rgb(0%, 0%, 0%)" fill-opacity="1"><use xlink:href="#77585833215ec07234c51e1fe680e9f1ktnz7nzj__glyph-2-0" x="50.984491" y="21.975049"/></g><g fill="rgb(0%, 0%, 0%)" fill-opacity="1"><use xlink:href="#77585833215ec07234c51e1fe680e9f1ktnz7nzj__glyph-3-0" x="53.735506" y="23.463145"/></g><g fill="rgb(0%, 0%, 0%)" fill-opacity="1"><use xlink:href="#77585833215ec07234c51e1fe680e9f1ktnz7nzj__glyph-1-1" x="60.067629" y="23.463145"/></g><g fill="rgb(0%, 0%, 0%)" fill-opacity="1"><use xlink:href="#77585833215ec07234c51e1fe680e9f1ktnz7nzj__glyph-3-1" x="66.26578" y="23.463145"/></g><g fill="rgb(0%, 0%, 0%)" fill-opacity="1"><use xlink:href="#77585833215ec07234c51e1fe680e9f1ktnz7nzj__glyph-1-1" x="70.314812" y="23.463145"/></g><g fill="rgb(0%, 0%, 0%)" fill-opacity="1"><use xlink:href="#77585833215ec07234c51e1fe680e9f1ktnz7nzj__glyph-4-0" x="76.512962" y="23.463145"/></g><g fill="rgb(0%, 0%, 0%)" fill-opacity="1"><use xlink:href="#77585833215ec07234c51e1fe680e9f1ktnz7nzj__glyph-0-0" x="147.620934" y="21.975049"/></g><g fill="rgb(0%, 0%, 0%)" fill-opacity="1"><use xlink:href="#77585833215ec07234c51e1fe680e9f1ktnz7nzj__glyph-1-0" x="156.668956" y="18.376743"/></g><g fill="rgb(0%, 0%, 0%)" fill-opacity="1"><use xlink:href="#77585833215ec07234c51e1fe680e9f1ktnz7nzj__glyph-0-1" x="161.227806" y="21.975049"/></g><g fill="rgb(0%, 0%, 0%)" fill-opacity="1"><use xlink:href="#77585833215ec07234c51e1fe680e9f1ktnz7nzj__glyph-0-1" x="274.218596" y="21.975049"/></g><g fill="rgb(0%, 0%, 0%)" fill-opacity="1"><use xlink:href="#77585833215ec07234c51e1fe680e9f1ktnz7nzj__glyph-0-2" x="34.044859" y="81.448129"/></g><g fill="rgb(0%, 0%, 0%)" fill-opacity="1"><use xlink:href="#77585833215ec07234c51e1fe680e9f1ktnz7nzj__glyph-2-1" x="44.263908" y="81.448129"/></g><g fill="rgb(0%, 0%, 0%)" fill-opacity="1"><use xlink:href="#77585833215ec07234c51e1fe680e9f1ktnz7nzj__glyph-0-3" x="54.188434" y="81.448129"/></g><g fill="rgb(0%, 0%, 0%)" fill-opacity="1"><use xlink:href="#77585833215ec07234c51e1fe680e9f1ktnz7nzj__glyph-2-1" x="61.522746" y="81.448129"/></g><g fill="rgb(0%, 0%, 0%)" fill-opacity="1"><use xlink:href="#77585833215ec07234c51e1fe680e9f1ktnz7nzj__glyph-5-0" x="71.437356" y="81.448129"/></g><g fill="rgb(0%, 0%, 0%)" fill-opacity="1"><use xlink:href="#77585833215ec07234c51e1fe680e9f1ktnz7nzj__glyph-0-2" x="137.102732" y="81.448129"/></g><g fill="rgb(0%, 0%, 0%)" fill-opacity="1"><use xlink:href="#77585833215ec07234c51e1fe680e9f1ktnz7nzj__glyph-2-1" x="147.321781" y="81.448129"/></g><g fill="rgb(0%, 0%, 0%)" fill-opacity="1"><use xlink:href="#77585833215ec07234c51e1fe680e9f1ktnz7nzj__glyph-0-3" x="157.246307" y="81.448129"/></g><g fill="rgb(0%, 0%, 0%)" fill-opacity="1"><use xlink:href="#77585833215ec07234c51e1fe680e9f1ktnz7nzj__glyph-2-1" x="164.580619" y="81.448129"/></g><g fill="rgb(0%, 0%, 0%)" fill-opacity="1"><use xlink:href="#77585833215ec07234c51e1fe680e9f1ktnz7nzj__glyph-0-3" x="174.505146" y="81.448129"/></g><g fill="rgb(0%, 0%, 0%)" fill-opacity="1"><use xlink:href="#77585833215ec07234c51e1fe680e9f1ktnz7nzj__glyph-0-2" x="235.776943" y="81.448129"/></g><g fill="rgb(0%, 0%, 0%)" fill-opacity="1"><use xlink:href="#77585833215ec07234c51e1fe680e9f1ktnz7nzj__glyph-2-1" x="245.995992" y="81.448129"/></g><g fill="rgb(0%, 0%, 0%)" fill-opacity="1"><use xlink:href="#77585833215ec07234c51e1fe680e9f1ktnz7nzj__glyph-0-3" x="255.920518" y="81.448129"/></g><path fill="none" stroke="rgb(0%, 0%, 0%)" stroke-linecap="butt" stroke-linejoin="miter" stroke-miterlimit="10" stroke-opacity="1" stroke-width="0.39848" d="M -86.682777 29.043456 L -29.088683 29.043456 " transform="matrix(0.995382, 0, 0, -0.995382, 171.712165, 48.405428)"/><path fill="none" stroke="rgb(0%, 0%, 0%)" stroke-linecap="round" stroke-linejoin="round" stroke-miterlimit="10" stroke-opacity="1" stroke-width="0.39848" d="M -2.073194 2.389129 C -1.692529 0.956733 -0.848789 0.277816 -0.00112474 -0.00081397 C -0.848789 -0.279444 -1.692529 -0.954437 -2.073194 -2.390757 " transform="matrix(0.995382, 0, 0, -0.995382, 142.954245, 19.495284)"/><path fill="none" stroke="rgb(0%, 0%, 0%)" stroke-linecap="butt" stroke-linejoin="miter" stroke-miterlimit="10" stroke-opacity="1" stroke-width="0.39848" d="M -120.353894 20.217542 L -120.353894 -22.142137 " transform="matrix(0.995382, 0, 0, -0.995382, 171.712165, 48.405428)"/><path fill="none" stroke="rgb(0%, 0%, 0%)" stroke-linecap="round" stroke-linejoin="round" stroke-miterlimit="10" stroke-opacity="1" stroke-width="0.39848" d="M -2.072759 2.391993 C -1.692095 0.955673 -0.848355 0.280681 -0.000690357 -0.00187407 C -0.848355 -0.280505 -1.692095 -0.955497 -2.072759 -2.391817 " transform="matrix(0, 0.995382, 0.995382, 0, 51.915928, 70.645218)"/><g fill="rgb(0%, 0%, 0%)" fill-opacity="1"><use xlink:href="#77585833215ec07234c51e1fe680e9f1ktnz7nzj__glyph-6-0" x="75.130247" y="35.095179"/></g><path fill="none" stroke="rgb(0%, 0%, 0%)" stroke-linecap="butt" stroke-linejoin="miter" stroke-miterlimit="10" stroke-opacity="1" stroke-width="0.39848" d="M 1.88639 29.043456 L 98.09631 29.043456 " transform="matrix(0.995382, 0, 0, -0.995382, 171.712165, 48.405428)"/><path fill="none" stroke="rgb(0%, 0%, 0%)" stroke-linecap="round" stroke-linejoin="round" stroke-miterlimit="10" stroke-opacity="1" stroke-width="0.39848" d="M -2.071845 2.389129 C -1.695106 0.956733 -0.851366 0.277816 0.000223324 -0.00081397 C -0.851366 -0.279444 -1.695106 -0.954437 -2.071845 -2.390757 " transform="matrix(0.995382, 0, 0, -0.995382, 269.554465, 19.495284)"/><path fill="none" stroke="rgb(0%, 0%, 0%)" stroke-linecap="butt" stroke-linejoin="miter" stroke-miterlimit="10" stroke-opacity="1" stroke-width="0.39848" d="M -13.402966 22.709519 L -13.402966 -22.142137 " transform="matrix(0.995382, 0, 0, -0.995382, 171.712165, 48.405428)"/><path fill="none" stroke="rgb(0%, 0%, 0%)" stroke-linecap="round" stroke-linejoin="round" stroke-miterlimit="10" stroke-opacity="1" stroke-width="0.39848" d="M -2.072759 2.390417 C -1.692095 0.958021 -0.848355 0.279105 -0.000690357 0.000474166 C -0.848355 -0.278156 -1.692095 -0.957073 -2.072759 -2.389469 " transform="matrix(0, 0.995382, 0.995382, 0, 158.370622, 70.645218)"/><g fill="rgb(0%, 0%, 0%)" fill-opacity="1"><use xlink:href="#77585833215ec07234c51e1fe680e9f1ktnz7nzj__glyph-6-0" x="180.379952" y="32.927237"/></g><path fill="none" stroke="rgb(0%, 0%, 0%)" stroke-linecap="butt" stroke-linejoin="miter" stroke-miterlimit="10" stroke-opacity="1" stroke-width="0.39848" d="M 106.949695 22.709519 L 106.949695 -22.142137 " transform="matrix(0.995382, 0, 0, -0.995382, 171.712165, 48.405428)"/><path fill="none" stroke="rgb(0%, 0%, 0%)" stroke-linecap="round" stroke-linejoin="round" stroke-miterlimit="10" stroke-opacity="1" stroke-width="0.39848" d="M -2.072759 2.391058 C -1.692095 0.954738 -0.848355 0.279746 -0.000690357 0.00111505 C -0.848355 -0.277515 -1.692095 -0.956432 -2.072759 -2.392752 " transform="matrix(0, 0.995382, 0.995382, 0, 278.166859, 70.645218)"/><g fill="rgb(0%, 0%, 0%)" fill-opacity="1"><use xlink:href="#77585833215ec07234c51e1fe680e9f1ktnz7nzj__glyph-3-2" x="280.498462" y="49.817875"/></g><path fill="none" stroke="rgb(0%, 0%, 0%)" stroke-linecap="butt" stroke-linejoin="miter" stroke-miterlimit="10" stroke-opacity="1" stroke-width="0.39848" d="M -89.830123 -30.705118 L -39.657019 -30.705118 " transform="matrix(0.995382, 0, 0, -0.995382, 171.712165, 48.405428)"/><path fill="none" stroke="rgb(0%, 0%, 0%)" stroke-linecap="round" stroke-linejoin="miter" stroke-miterlimit="10" stroke-opacity="1" stroke-width="0.39848" d="M -0.00135652 1.95398 C 0.681484 1.95398 1.234821 1.51445 1.234821 0.976811 C 1.234821 0.435248 0.681484 -0.000357791 -0.00135652 -0.000357791 " transform="matrix(-0.995382, 0, 0, -0.995382, 82.295525, 78.968394)"/><path fill="none" stroke="rgb(0%, 0%, 0%)" stroke-linecap="round" stroke-linejoin="round" stroke-miterlimit="10" stroke-opacity="1" stroke-width="0.39848" d="M -2.071275 2.389585 C -1.694535 0.957189 -0.850795 0.278273 0.000794045 -0.000357791 C -0.850795 -0.278988 -1.694535 -0.957905 -2.071275 -2.390301 " transform="matrix(0.995382, 0, 0, -0.995382, 132.43671, 78.968394)"/><path fill="none" stroke="rgb(0%, 0%, 0%)" stroke-linecap="butt" stroke-linejoin="miter" stroke-miterlimit="10" stroke-opacity="1" stroke-width="0.39848" d="M 12.450801 -30.705118 L 59.476559 -30.705118 " transform="matrix(0.995382, 0, 0, -0.995382, 171.712165, 48.405428)"/><path fill="none" stroke="rgb(0%, 0%, 0%)" stroke-linecap="round" stroke-linejoin="round" stroke-miterlimit="10" stroke-opacity="1" stroke-width="0.39848" d="M -2.070387 2.389585 C -1.693647 0.957189 -0.849907 0.278273 0.00168193 -0.000357791 C -0.849907 -0.278988 -1.693647 -0.957905 -2.070387 -2.390301 " transform="matrix(0.995382, 0, 0, -0.995382, 231.111607, 78.968394)"/><g fill="rgb(0%, 0%, 0%)" fill-opacity="1"><use xlink:href="#77585833215ec07234c51e1fe680e9f1ktnz7nzj__glyph-3-3" x="204.194467" y="86.044804"/></g></svg>