<?xml version="1.0" encoding="UTF-8"?><svg xmlns="http://www.w3.org/2000/svg" xmlns:xlink="http://www.w3.org/1999/xlink" width="343.711" height="187.064" viewBox="0 0 343.711 187.064"><defs><clipPath id="5d6d86643fc04d786f668a05f38d0b1abkxjs938__clip-0"><path d="M 87 0 L 172 0 L 172 186.132812 L 87 186.132812 Z M 87 0 " clip-rule="nonzero"/></clipPath><clipPath id="5d6d86643fc04d786f668a05f38d0b1abkxjs938__clip-1"><path d="M 143 0 L 257 0 L 257 186.132812 L 143 186.132812 Z M 143 0 " clip-rule="nonzero"/></clipPath><clipPath id="5d6d86643fc04d786f668a05f38d0b1abkxjs938__clip-2"><path d="M 143 0 L 228 0 L 228 186.132812 L 143 186.132812 Z M 143 0 " clip-rule="nonzero"/></clipPath><clipPath id="5d6d86643fc04d786f668a05f38d0b1abkxjs938__clip-3"><path d="M 143 0 L 257 0 L 257 186.132812 L 143 186.132812 Z M 143 0 " clip-rule="nonzero"/></clipPath><clipPath id="5d6d86643fc04d786f668a05f38d0b1abkxjs938__clip-4"><path d="M 106 185 L 237 185 L 237 186.132812 L 106 186.132812 Z M 106 185 " clip-rule="nonzero"/></clipPath></defs><g clip-path="url(#5d6d86643fc04d786f668a05f38d0b1abkxjs938__clip-0)"><path fill="none" stroke="rgb(0%, 0%, 100%)" stroke-linecap="butt" stroke-linejoin="miter" stroke-miterlimit="10" stroke-opacity="1" stroke-width="1.99255" d="M 28.347471 -0.00115204 L 28.347471 -28.345395 C 28.347471 -49.607503 -0.000697927 -49.607503 -0.000697927 -70.865686 L -0.000697927 -85.041733 C -0.000697927 -93.545006 4.533596 -98.64854 9.978674 -103.068986 M 18.368099 -109.530845 C 23.813177 -113.955217 28.347471 -119.054825 28.347471 -127.562024 L 28.347471 -141.734145 C 28.347471 -162.992328 -0.000697927 -162.992328 -0.000697927 -184.254436 " transform="matrix(0.995021, 0, 0, -0.995021, 115.301476, 0.991041)"/><path fill="none" stroke="rgb(100%, 0%, 0%)" stroke-linecap="butt" stroke-linejoin="miter" stroke-miterlimit="10" stroke-opacity="1" stroke-width="1.99255" d="M -0.000697927 -0.00115204 L -0.000697927 -28.345395 C -0.000697927 -36.852594 4.533596 -41.952202 9.978674 -46.376574 M 18.368099 -52.838433 C 23.813177 -57.258879 28.347471 -62.362413 28.347471 -70.865686 L 28.347471 -85.041733 C 28.347471 -106.299915 -0.000697927 -106.299915 -0.000697927 -127.562024 L -0.000697927 -141.734145 C -0.000697927 -150.237418 4.533596 -155.340952 9.978674 -159.761398 M 18.368099 -166.227183 C 23.813177 -170.647629 28.347471 -175.751163 28.347471 -184.254436 " transform="matrix(0.995021, 0, 0, -0.995021, 115.301476, 0.991041)"/></g><g clip-path="url(#5d6d86643fc04d786f668a05f38d0b1abkxjs938__clip-1)"><path fill="none" stroke="rgb(100%, 94.898987%, 0%)" stroke-linecap="butt" stroke-linejoin="miter" stroke-miterlimit="10" stroke-opacity="1" stroke-width="1.99255" d="M 113.388052 -0.00115204 L 113.388052 -56.693564 C 113.388052 -77.955672 85.039883 -77.951746 85.039883 -99.213855 L 85.039883 -113.385976 C 85.039883 -134.648084 56.691714 -134.648084 56.691714 -155.906267 L 56.691714 -184.254436 " transform="matrix(0.995021, 0, 0, -0.995021, 115.301476, 0.991041)"/></g><g clip-path="url(#5d6d86643fc04d786f668a05f38d0b1abkxjs938__clip-2)"><path fill="none" stroke="rgb(0%, 100%, 0%)" stroke-linecap="butt" stroke-linejoin="miter" stroke-miterlimit="10" stroke-opacity="1" stroke-width="1.99255" d="M 85.039883 -0.00115204 C 85.039883 -8.504425 80.505589 -13.607959 75.064437 -18.028405 M 66.671086 -24.490264 C 61.229934 -28.914636 56.691714 -34.01817 56.691714 -42.521443 L 56.691714 -113.385976 C 56.691714 -121.889249 61.229934 -126.992783 66.671086 -131.417155 M 75.064437 -137.879014 C 80.505589 -142.29946 85.039883 -147.402994 85.039883 -155.906267 L 85.039883 -184.254436 " transform="matrix(0.995021, 0, 0, -0.995021, 115.301476, 0.991041)"/></g><g clip-path="url(#5d6d86643fc04d786f668a05f38d0b1abkxjs938__clip-3)"><path fill="none" stroke="rgb(0%, 0%, 0%)" stroke-linecap="butt" stroke-linejoin="miter" stroke-miterlimit="10" stroke-opacity="1" stroke-width="1.99255" d="M 56.691714 -0.00115204 C 56.691714 -21.259334 85.039883 -21.259334 85.039883 -42.521443 L 85.039883 -56.693564 C 85.039883 -65.196837 89.574177 -70.300371 95.019255 -74.720817 M 103.40868 -81.186602 C 108.853758 -85.607048 113.388052 -90.710582 113.388052 -99.213855 L 113.388052 -184.254436 " transform="matrix(0.995021, 0, 0, -0.995021, 115.301476, 0.991041)"/></g><path fill="none" stroke="rgb(0%, 0%, 0%)" stroke-linecap="butt" stroke-linejoin="miter" stroke-miterlimit="10" stroke-opacity="1" stroke-width="0.79701" d="M -8.503971 -0.00115204 L 121.891325 -0.00115204 " transform="matrix(0.995021, 0, 0, -0.995021, 115.301476, 0.991041)"/><g clip-path="url(#5d6d86643fc04d786f668a05f38d0b1abkxjs938__clip-4)"><path fill="none" stroke="rgb(0%, 0%, 0%)" stroke-linecap="butt" stroke-linejoin="miter" stroke-miterlimit="10" stroke-opacity="1" stroke-width="0.79701" d="M -8.503971 -185.671648 L 121.891325 -185.671648 " transform="matrix(0.995021, 0, 0, -0.995021, 115.301476, 0.991041)"/></g></svg>