<?xml version="1.0" encoding="UTF-8"?><svg xmlns="http://www.w3.org/2000/svg" xmlns:xlink="http://www.w3.org/1999/xlink" width="343.711" height="87.178" viewBox="0 0 343.711 87.178"><defs><g><g id="f440c97eb48b63367e048d86c8ea9ef7r330ys7e__glyph-0-0"><path d="M 1.765625 -1.140625 C 1.375 -0.46875 0.984375 -0.328125 0.546875 -0.3125 C 0.4375 -0.296875 0.34375 -0.296875 0.34375 -0.109375 C 0.34375 -0.046875 0.390625 0 0.46875 0 C 0.734375 0 1.046875 -0.03125 1.328125 -0.03125 C 1.65625 -0.03125 2 0 2.3125 0 C 2.375 0 2.5 0 2.5 -0.1875 C 2.5 -0.296875 2.40625 -0.3125 2.34375 -0.3125 C 2.109375 -0.328125 1.875 -0.40625 1.875 -0.65625 C 1.875 -0.765625 1.9375 -0.875 2.015625 -1.015625 L 2.765625 -2.28125 L 5.25 -2.28125 C 5.265625 -2.078125 5.40625 -0.734375 5.40625 -0.625 C 5.40625 -0.328125 4.890625 -0.3125 4.6875 -0.3125 C 4.546875 -0.3125 4.453125 -0.3125 4.453125 -0.109375 C 4.453125 0 4.578125 0 4.59375 0 C 5 0 5.421875 -0.03125 5.828125 -0.03125 C 6.078125 -0.03125 6.6875 0 6.9375 0 C 7 0 7.125 0 7.125 -0.203125 C 7.125 -0.3125 7.015625 -0.3125 6.890625 -0.3125 C 6.28125 -0.3125 6.28125 -0.375 6.25 -0.65625 L 5.65625 -6.828125 C 5.625 -7.03125 5.625 -7.078125 5.453125 -7.078125 C 5.296875 -7.078125 5.265625 -7 5.203125 -6.90625 Z M 2.953125 -2.59375 L 4.890625 -5.84375 L 5.21875 -2.59375 Z M 2.953125 -2.59375 "/></g><g id="f440c97eb48b63367e048d86c8ea9ef7r330ys7e__glyph-0-1"><path d="M 1.578125 -0.765625 C 1.484375 -0.390625 1.46875 -0.3125 0.6875 -0.3125 C 0.515625 -0.3125 0.421875 -0.3125 0.421875 -0.109375 C 0.421875 0 0.5 0 0.6875 0 L 4.203125 0 C 5.765625 0 6.9375 -1.171875 6.9375 -2.140625 C 6.9375 -2.84375 6.359375 -3.421875 5.40625 -3.53125 C 6.421875 -3.71875 7.46875 -4.4375 7.46875 -5.375 C 7.46875 -6.109375 6.8125 -6.75 5.625 -6.75 L 2.3125 -6.75 C 2.125 -6.75 2.03125 -6.75 2.03125 -6.546875 C 2.03125 -6.4375 2.109375 -6.4375 2.296875 -6.4375 C 2.328125 -6.4375 2.515625 -6.4375 2.671875 -6.421875 C 2.859375 -6.40625 2.9375 -6.390625 2.9375 -6.265625 C 2.9375 -6.21875 2.9375 -6.1875 2.90625 -6.078125 Z M 3.078125 -3.609375 L 3.6875 -6.0625 C 3.765625 -6.40625 3.796875 -6.4375 4.21875 -6.4375 L 5.484375 -6.4375 C 6.359375 -6.4375 6.5625 -5.859375 6.5625 -5.421875 C 6.5625 -4.546875 5.71875 -3.609375 4.515625 -3.609375 Z M 2.625 -0.3125 C 2.484375 -0.3125 2.46875 -0.3125 2.40625 -0.3125 C 2.3125 -0.328125 2.28125 -0.328125 2.28125 -0.421875 C 2.28125 -0.4375 2.28125 -0.46875 2.328125 -0.640625 L 3.015625 -3.390625 L 4.875 -3.390625 C 5.828125 -3.390625 6.015625 -2.671875 6.015625 -2.234375 C 6.015625 -1.265625 5.140625 -0.3125 3.96875 -0.3125 Z M 2.625 -0.3125 "/></g><g id="f440c97eb48b63367e048d86c8ea9ef7r330ys7e__glyph-1-0"><path d="M 2 -3.265625 C 2.0625 -3.375 2.0625 -3.4375 2.0625 -3.484375 C 2.0625 -3.6875 1.875 -3.859375 1.65625 -3.859375 C 1.390625 -3.859375 1.3125 -3.640625 1.28125 -3.53125 L 0.359375 -0.546875 C 0.359375 -0.53125 0.328125 -0.4375 0.328125 -0.4375 C 0.328125 -0.359375 0.546875 -0.28125 0.59375 -0.28125 C 0.65625 -0.28125 0.65625 -0.296875 0.703125 -0.40625 Z M 2 -3.265625 "/></g><g id="f440c97eb48b63367e048d86c8ea9ef7r330ys7e__glyph-2-0"><path d="M 1.5625 -0.390625 C 1.5625 -0.640625 1.359375 -0.796875 1.171875 -0.796875 C 0.953125 -0.796875 0.78125 -0.609375 0.78125 -0.40625 C 0.78125 -0.15625 0.984375 0 1.171875 0 C 1.390625 0 1.5625 -0.1875 1.5625 -0.390625 Z M 1.5625 -0.390625 "/></g><g id="f440c97eb48b63367e048d86c8ea9ef7r330ys7e__glyph-2-1"><path d="M 2.15625 -4.578125 C 2.171875 -4.59375 2.1875 -4.6875 2.1875 -4.703125 C 2.1875 -4.734375 2.15625 -4.796875 2.078125 -4.796875 C 1.9375 -4.796875 1.375 -4.734375 1.1875 -4.71875 C 1.140625 -4.71875 1.046875 -4.703125 1.046875 -4.5625 C 1.046875 -4.46875 1.140625 -4.46875 1.21875 -4.46875 C 1.546875 -4.46875 1.546875 -4.421875 1.546875 -4.359375 C 1.546875 -4.3125 1.546875 -4.28125 1.53125 -4.21875 L 0.546875 -0.296875 C 0.515625 -0.171875 0.515625 -0.171875 0.515625 -0.15625 C 0.515625 -0.046875 0.59375 0.0625 0.75 0.0625 C 0.828125 0.0625 0.953125 0.03125 1.03125 -0.109375 C 1.0625 -0.15625 1.125 -0.40625 1.15625 -0.546875 L 1.3125 -1.15625 C 1.328125 -1.265625 1.40625 -1.53125 1.421875 -1.625 C 1.484375 -1.890625 1.484375 -1.90625 1.625 -2.125 C 1.84375 -2.453125 2.203125 -2.859375 2.734375 -2.859375 C 3.125 -2.859375 3.140625 -2.53125 3.140625 -2.375 C 3.140625 -1.953125 2.84375 -1.1875 2.734375 -0.890625 C 2.65625 -0.703125 2.625 -0.640625 2.625 -0.53125 C 2.625 -0.15625 2.9375 0.0625 3.28125 0.0625 C 3.984375 0.0625 4.28125 -0.890625 4.28125 -0.984375 C 4.28125 -1.078125 4.1875 -1.078125 4.171875 -1.078125 C 4.078125 -1.078125 4.0625 -1.03125 4.046875 -0.953125 C 3.875 -0.40625 3.578125 -0.125 3.3125 -0.125 C 3.15625 -0.125 3.140625 -0.21875 3.140625 -0.359375 C 3.140625 -0.53125 3.171875 -0.609375 3.296875 -0.921875 C 3.375 -1.140625 3.65625 -1.875 3.65625 -2.265625 C 3.65625 -2.375 3.65625 -2.65625 3.40625 -2.859375 C 3.28125 -2.953125 3.09375 -3.046875 2.765625 -3.046875 C 2.265625 -3.046875 1.890625 -2.765625 1.640625 -2.46875 Z M 2.15625 -4.578125 "/></g><g id="f440c97eb48b63367e048d86c8ea9ef7r330ys7e__glyph-2-2"><path d="M 3.515625 -2.84375 C 3.515625 -2.875 3.53125 -2.921875 3.53125 -2.953125 C 3.53125 -2.984375 3.5 -3.046875 3.4375 -3.046875 C 3.375 -3.046875 3.078125 -2.8125 2.9375 -2.59375 C 2.875 -2.734375 2.640625 -3.046875 2.203125 -3.046875 C 1.3125 -3.046875 0.421875 -2.078125 0.421875 -1.078125 C 0.421875 -0.40625 0.875 0.0625 1.46875 0.0625 C 1.859375 0.0625 2.1875 -0.171875 2.328125 -0.3125 C 2.328125 -0.296875 2.109375 0.578125 2.078125 0.703125 C 1.984375 1.078125 1.984375 1.078125 1.546875 1.09375 C 1.46875 1.09375 1.375 1.09375 1.375 1.25 C 1.375 1.28125 1.40625 1.34375 1.484375 1.34375 C 1.703125 1.34375 1.96875 1.3125 2.203125 1.3125 C 2.4375 1.3125 2.71875 1.34375 2.9375 1.34375 C 3 1.34375 3.078125 1.3125 3.078125 1.1875 C 3.078125 1.09375 2.984375 1.09375 2.890625 1.09375 C 2.734375 1.09375 2.5625 1.09375 2.5625 1.015625 C 2.5625 0.984375 2.5625 0.96875 2.59375 0.859375 Z M 2.46875 -0.875 C 2.4375 -0.75 2.4375 -0.734375 2.34375 -0.625 C 2.078125 -0.3125 1.75 -0.125 1.484375 -0.125 C 1.234375 -0.125 0.984375 -0.296875 0.984375 -0.796875 C 0.984375 -1.15625 1.1875 -1.921875 1.34375 -2.203125 C 1.65625 -2.75 2.015625 -2.859375 2.203125 -2.859375 C 2.6875 -2.859375 2.8125 -2.328125 2.8125 -2.25 C 2.8125 -2.21875 2.796875 -2.171875 2.796875 -2.140625 Z M 2.46875 -0.875 "/></g><g id="f440c97eb48b63367e048d86c8ea9ef7r330ys7e__glyph-2-3"><path d="M 2.8125 -2.734375 L 3.484375 -2.734375 C 3.625 -2.734375 3.71875 -2.734375 3.71875 -2.875 C 3.71875 -2.984375 3.625 -2.984375 3.5 -2.984375 L 2.859375 -2.984375 C 3.015625 -3.859375 3.078125 -4.171875 3.125 -4.375 C 3.15625 -4.53125 3.3125 -4.671875 3.484375 -4.671875 C 3.484375 -4.671875 3.671875 -4.671875 3.8125 -4.578125 C 3.515625 -4.5 3.5 -4.25 3.5 -4.203125 C 3.5 -4.046875 3.625 -3.953125 3.78125 -3.953125 C 3.96875 -3.953125 4.171875 -4.109375 4.171875 -4.375 C 4.171875 -4.6875 3.828125 -4.859375 3.484375 -4.859375 C 3.171875 -4.859375 2.84375 -4.6875 2.65625 -4.34375 C 2.515625 -4.09375 2.453125 -3.78125 2.3125 -2.984375 L 1.765625 -2.984375 C 1.625 -2.984375 1.546875 -2.984375 1.546875 -2.828125 C 1.546875 -2.734375 1.625 -2.734375 1.75 -2.734375 L 2.265625 -2.734375 C 2.265625 -2.6875 1.828125 -0.203125 1.65625 0.53125 C 1.625 0.6875 1.5 1.21875 1.171875 1.21875 C 1.171875 1.21875 1 1.21875 0.875 1.125 C 1.15625 1.046875 1.171875 0.796875 1.171875 0.75 C 1.171875 0.59375 1.0625 0.5 0.890625 0.5 C 0.71875 0.5 0.5 0.65625 0.5 0.921875 C 0.5 1.234375 0.828125 1.40625 1.171875 1.40625 C 1.609375 1.40625 1.921875 0.953125 2 0.796875 C 2.25 0.34375 2.40625 -0.515625 2.421875 -0.59375 Z M 2.8125 -2.734375 "/></g><g id="f440c97eb48b63367e048d86c8ea9ef7r330ys7e__glyph-3-0"><path d="M 4.375 -3.28125 C 4.375 -3.453125 4.375 -3.609375 4.171875 -3.609375 C 3.984375 -3.609375 3.984375 -3.40625 3.984375 -3.234375 L 3.984375 -0.171875 L 0.90625 -0.171875 C 0.71875 -0.171875 0.546875 -0.171875 0.546875 0.015625 C 0.546875 0.21875 0.734375 0.21875 0.90625 0.21875 L 4.03125 0.21875 C 4.34375 0.21875 4.375 0.1875 4.375 -0.125 Z M 4.375 -3.28125 "/></g><g id="f440c97eb48b63367e048d86c8ea9ef7r330ys7e__glyph-4-0"><path d="M 1.78125 -2.296875 C 1.78125 -2.296875 1.828125 -2.390625 1.828125 -2.46875 C 1.828125 -2.640625 1.671875 -2.765625 1.515625 -2.765625 C 1.3125 -2.765625 1.265625 -2.609375 1.234375 -2.53125 L 0.484375 -0.390625 C 0.453125 -0.328125 0.453125 -0.328125 0.453125 -0.3125 C 0.453125 -0.234375 0.671875 -0.1875 0.671875 -0.1875 C 0.71875 -0.1875 0.71875 -0.21875 0.75 -0.265625 Z M 1.78125 -2.296875 "/></g></g></defs><g fill="rgb(0%, 0%, 0%)" fill-opacity="1"><use xlink:href="#f440c97eb48b63367e048d86c8ea9ef7r330ys7e__glyph-0-0" x="123.824385" y="14.963906"/></g><g fill="rgb(0%, 0%, 0%)" fill-opacity="1"><use xlink:href="#f440c97eb48b63367e048d86c8ea9ef7r330ys7e__glyph-1-0" x="131.226589" y="11.382673"/></g><g fill="rgb(0%, 0%, 0%)" fill-opacity="1"><use xlink:href="#f440c97eb48b63367e048d86c8ea9ef7r330ys7e__glyph-0-1" x="211.254012" y="14.963906"/></g><g fill="rgb(0%, 0%, 0%)" fill-opacity="1"><use xlink:href="#f440c97eb48b63367e048d86c8ea9ef7r330ys7e__glyph-1-0" x="219.235752" y="11.382673"/></g><g fill="rgb(0%, 0%, 0%)" fill-opacity="1"><use xlink:href="#f440c97eb48b63367e048d86c8ea9ef7r330ys7e__glyph-2-0" x="166.181995" y="44.751043"/></g><g fill="rgb(0%, 0%, 0%)" fill-opacity="1"><use xlink:href="#f440c97eb48b63367e048d86c8ea9ef7r330ys7e__glyph-3-0" x="169.019243" y="48.333266"/></g><g fill="rgb(0%, 0%, 0%)" fill-opacity="1"><use xlink:href="#f440c97eb48b63367e048d86c8ea9ef7r330ys7e__glyph-2-1" x="173.953716" y="44.751043"/></g><g fill="rgb(0%, 0%, 0%)" fill-opacity="1"><use xlink:href="#f440c97eb48b63367e048d86c8ea9ef7r330ys7e__glyph-0-0" x="125.209326" y="80.066058"/></g><g fill="rgb(0%, 0%, 0%)" fill-opacity="1"><use xlink:href="#f440c97eb48b63367e048d86c8ea9ef7r330ys7e__glyph-0-1" x="212.638953" y="80.066058"/></g><path fill="none" stroke="rgb(0%, 0%, 0%)" stroke-linecap="butt" stroke-linejoin="miter" stroke-miterlimit="10" stroke-opacity="1" stroke-width="0.39848" d="M -34.798155 31.605081 L 33.815415 31.605081 " transform="matrix(0.990659, 0, 0, -0.990659, 172.914515, 43.805954)"/><path fill="none" stroke="rgb(0%, 0%, 0%)" stroke-linecap="round" stroke-linejoin="round" stroke-miterlimit="10" stroke-opacity="1" stroke-width="0.39848" d="M -2.070949 2.390448 C -1.692413 0.955167 -0.848594 0.2809 -0.000831256 0.000940777 C -0.848594 -0.279018 -1.692413 -0.957228 -2.070949 -2.39251 " transform="matrix(0.990659, 0, 0, -0.990659, 206.610198, 12.497026)"/><g fill="rgb(0%, 0%, 0%)" fill-opacity="1"><use xlink:href="#f440c97eb48b63367e048d86c8ea9ef7r330ys7e__glyph-2-2" x="169.358048" y="8.831726"/></g><g fill="rgb(0%, 0%, 0%)" fill-opacity="1"><use xlink:href="#f440c97eb48b63367e048d86c8ea9ef7r330ys7e__glyph-4-0" x="173.22261" y="5.852814"/></g><path fill="none" stroke="rgb(0%, 0%, 0%)" stroke-linecap="butt" stroke-linejoin="miter" stroke-miterlimit="10" stroke-opacity="1" stroke-width="0.39848" d="M -44.419275 25.268548 L -44.419275 -25.549892 " transform="matrix(0.990659, 0, 0, -0.990659, 172.914515, 43.805954)"/><path fill="none" stroke="rgb(0%, 0%, 0%)" stroke-linecap="round" stroke-linejoin="round" stroke-miterlimit="10" stroke-opacity="1" stroke-width="0.39848" d="M -2.073892 2.389853 C -1.695356 0.954571 -0.851536 0.280304 0.000169562 0.000345275 C -0.851536 -0.279614 -1.695356 -0.957824 -2.073892 -2.389162 " transform="matrix(0, 0.990659, 0.990659, 0, 128.909814, 69.316238)"/><g fill="rgb(0%, 0%, 0%)" fill-opacity="1"><use xlink:href="#f440c97eb48b63367e048d86c8ea9ef7r330ys7e__glyph-2-3" x="119.296082" y="46.331144"/></g><g fill="rgb(0%, 0%, 0%)" fill-opacity="1"><use xlink:href="#f440c97eb48b63367e048d86c8ea9ef7r330ys7e__glyph-4-0" x="123.918497" y="43.353223"/></g><path fill="none" stroke="rgb(0%, 0%, 0%)" stroke-linecap="butt" stroke-linejoin="miter" stroke-miterlimit="10" stroke-opacity="1" stroke-width="0.39848" d="M 44.126574 25.268548 L 44.126574 -25.549892 " transform="matrix(0.990659, 0, 0, -0.990659, 172.914515, 43.805954)"/><path fill="none" stroke="rgb(0%, 0%, 0%)" stroke-linecap="round" stroke-linejoin="round" stroke-miterlimit="10" stroke-opacity="1" stroke-width="0.39848" d="M -2.073892 2.392725 C -1.695356 0.957443 -0.851536 0.279233 0.000169562 -0.000726002 C -0.851536 -0.280685 -1.695356 -0.954952 -2.073892 -2.390234 " transform="matrix(0, 0.990659, 0.990659, 0, 216.629625, 69.316238)"/><g fill="rgb(0%, 0%, 0%)" fill-opacity="1"><use xlink:href="#f440c97eb48b63367e048d86c8ea9ef7r330ys7e__glyph-2-3" x="218.951433" y="45.870488"/></g><path fill="none" stroke="rgb(0%, 0%, 0%)" stroke-linecap="butt" stroke-linejoin="miter" stroke-miterlimit="10" stroke-opacity="1" stroke-width="0.39848" d="M -36.194006 -34.114266 L 35.211266 -34.114266 " transform="matrix(0.990659, 0, 0, -0.990659, 172.914515, 43.805954)"/><path fill="none" stroke="rgb(0%, 0%, 0%)" stroke-linecap="round" stroke-linejoin="round" stroke-miterlimit="10" stroke-opacity="1" stroke-width="0.39848" d="M -2.072658 2.391784 C -1.694122 0.956502 -0.850303 0.278292 0.00140284 -0.00166642 C -0.850303 -0.277682 -1.694122 -0.955892 -2.072658 -2.391174 " transform="matrix(0.990659, 0, 0, -0.990659, 207.994704, 77.599912)"/><g fill="rgb(0%, 0%, 0%)" fill-opacity="1"><use xlink:href="#f440c97eb48b63367e048d86c8ea9ef7r330ys7e__glyph-2-2" x="170.692466" y="82.895381"/></g></svg>