<?xml version="1.0" encoding="UTF-8"?><svg xmlns="http://www.w3.org/2000/svg" xmlns:xlink="http://www.w3.org/1999/xlink" width="343.711" height="99.838" viewBox="0 0 343.711 99.838"><defs><g><g id="b69d31c2d25e681b841ae64aeae670cdwpi2944x__glyph-0-0"><path d="M 3.34375 -2.328125 C 3.34375 -2.90625 3.3125 -3.484375 3.046875 -4.03125 C 2.71875 -4.71875 2.125 -4.84375 1.8125 -4.84375 C 1.375 -4.84375 0.84375 -4.65625 0.546875 -3.96875 C 0.3125 -3.46875 0.28125 -2.90625 0.28125 -2.328125 C 0.28125 -1.78125 0.3125 -1.125 0.609375 -0.578125 C 0.921875 0.015625 1.453125 0.15625 1.8125 0.15625 C 2.203125 0.15625 2.75 0 3.078125 -0.6875 C 3.3125 -1.1875 3.34375 -1.75 3.34375 -2.328125 Z M 1.8125 0 C 1.53125 0 1.09375 -0.1875 0.96875 -0.875 C 0.890625 -1.3125 0.890625 -1.984375 0.890625 -2.40625 C 0.890625 -2.875 0.890625 -3.359375 0.9375 -3.75 C 1.078125 -4.609375 1.625 -4.671875 1.8125 -4.671875 C 2.046875 -4.671875 2.53125 -4.546875 2.671875 -3.828125 C 2.734375 -3.421875 2.734375 -2.875 2.734375 -2.40625 C 2.734375 -1.875 2.734375 -1.375 2.65625 -0.90625 C 2.546875 -0.21875 2.140625 0 1.8125 0 Z M 1.8125 0 "/></g><g id="b69d31c2d25e681b841ae64aeae670cdwpi2944x__glyph-0-1"><path d="M 2.40625 1.75 C 2.40625 1.71875 2.40625 1.703125 2.28125 1.578125 C 1.375 0.671875 1.140625 -0.703125 1.140625 -1.8125 C 1.140625 -3.078125 1.421875 -4.34375 2.3125 -5.25 C 2.40625 -5.34375 2.40625 -5.359375 2.40625 -5.375 C 2.40625 -5.421875 2.375 -5.453125 2.328125 -5.453125 C 2.265625 -5.453125 1.609375 -4.953125 1.171875 -4.03125 C 0.8125 -3.234375 0.71875 -2.421875 0.71875 -1.8125 C 0.71875 -1.25 0.796875 -0.375 1.203125 0.453125 C 1.640625 1.34375 2.265625 1.8125 2.328125 1.8125 C 2.375 1.8125 2.40625 1.796875 2.40625 1.75 Z M 2.40625 1.75 "/></g><g id="b69d31c2d25e681b841ae64aeae670cdwpi2944x__glyph-0-2"><path d="M 2.09375 -1.8125 C 2.09375 -2.390625 2.015625 -3.265625 1.625 -4.078125 C 1.1875 -4.984375 0.5625 -5.453125 0.484375 -5.453125 C 0.4375 -5.453125 0.421875 -5.421875 0.421875 -5.375 C 0.421875 -5.359375 0.421875 -5.34375 0.546875 -5.203125 C 1.265625 -4.484375 1.671875 -3.328125 1.671875 -1.8125 C 1.671875 -0.578125 1.40625 0.703125 0.515625 1.625 C 0.421875 1.703125 0.421875 1.71875 0.421875 1.75 C 0.421875 1.78125 0.4375 1.8125 0.484375 1.8125 C 0.5625 1.8125 1.21875 1.328125 1.640625 0.40625 C 2.015625 -0.40625 2.09375 -1.203125 2.09375 -1.8125 Z M 2.09375 -1.8125 "/></g><g id="b69d31c2d25e681b841ae64aeae670cdwpi2944x__glyph-1-0"><path d="M 5.546875 -4.40625 C 5.609375 -4.671875 5.625 -4.734375 6.15625 -4.734375 C 6.34375 -4.734375 6.40625 -4.734375 6.40625 -4.875 C 6.40625 -4.96875 6.328125 -4.96875 6.296875 -4.96875 C 6.09375 -4.96875 5.578125 -4.9375 5.375 -4.9375 C 5.15625 -4.9375 4.640625 -4.96875 4.4375 -4.96875 C 4.375 -4.96875 4.296875 -4.96875 4.296875 -4.8125 C 4.296875 -4.734375 4.359375 -4.734375 4.5 -4.734375 C 4.515625 -4.734375 4.65625 -4.734375 4.78125 -4.71875 C 4.90625 -4.703125 4.96875 -4.703125 4.96875 -4.609375 C 4.96875 -4.578125 4.96875 -4.5625 4.9375 -4.46875 L 4.5 -2.703125 L 2.28125 -2.703125 L 2.71875 -4.40625 C 2.78125 -4.671875 2.796875 -4.734375 3.328125 -4.734375 C 3.515625 -4.734375 3.578125 -4.734375 3.578125 -4.875 C 3.578125 -4.96875 3.5 -4.96875 3.46875 -4.96875 C 3.265625 -4.96875 2.75 -4.9375 2.546875 -4.9375 C 2.328125 -4.9375 1.8125 -4.96875 1.609375 -4.96875 C 1.546875 -4.96875 1.46875 -4.96875 1.46875 -4.8125 C 1.46875 -4.734375 1.53125 -4.734375 1.671875 -4.734375 C 1.6875 -4.734375 1.828125 -4.734375 1.953125 -4.71875 C 2.078125 -4.703125 2.140625 -4.703125 2.140625 -4.609375 C 2.140625 -4.578125 2.140625 -4.5625 2.109375 -4.46875 L 1.140625 -0.5625 C 1.0625 -0.28125 1.046875 -0.21875 0.484375 -0.21875 C 0.34375 -0.21875 0.28125 -0.21875 0.28125 -0.078125 C 0.28125 0 0.375 0 0.390625 0 C 0.59375 0 1.109375 -0.015625 1.3125 -0.015625 C 1.453125 -0.015625 1.625 -0.015625 1.765625 -0.015625 C 1.9375 -0.015625 2.09375 0 2.25 0 C 2.296875 0 2.390625 0 2.390625 -0.140625 C 2.390625 -0.21875 2.328125 -0.21875 2.1875 -0.21875 C 1.921875 -0.21875 1.71875 -0.21875 1.71875 -0.359375 C 1.71875 -0.40625 1.734375 -0.4375 1.734375 -0.484375 L 2.234375 -2.46875 L 4.453125 -2.46875 C 4.140625 -1.265625 3.96875 -0.578125 3.9375 -0.46875 C 3.875 -0.234375 3.734375 -0.21875 3.28125 -0.21875 C 3.171875 -0.21875 3.109375 -0.21875 3.109375 -0.078125 C 3.109375 0 3.203125 0 3.21875 0 C 3.421875 0 3.9375 -0.015625 4.140625 -0.015625 C 4.28125 -0.015625 4.453125 -0.015625 4.59375 -0.015625 C 4.765625 -0.015625 4.921875 0 5.078125 0 C 5.125 0 5.21875 0 5.21875 -0.140625 C 5.21875 -0.21875 5.15625 -0.21875 5.015625 -0.21875 C 4.75 -0.21875 4.546875 -0.21875 4.546875 -0.359375 C 4.546875 -0.40625 4.5625 -0.4375 4.5625 -0.484375 Z M 5.546875 -4.40625 "/></g><g id="b69d31c2d25e681b841ae64aeae670cdwpi2944x__glyph-1-1"><path d="M 4.6875 -5.046875 C 4.6875 -5.078125 4.671875 -5.125 4.609375 -5.125 C 4.5625 -5.125 4.5625 -5.109375 4.46875 -5.015625 L 4.125 -4.59375 C 3.9375 -4.9375 3.5625 -5.125 3.09375 -5.125 C 2.171875 -5.125 1.296875 -4.28125 1.296875 -3.40625 C 1.296875 -2.8125 1.671875 -2.484375 2.046875 -2.375 L 2.828125 -2.171875 C 3.09375 -2.109375 3.5 -2 3.5 -1.40625 C 3.5 -0.75 2.90625 -0.0625 2.1875 -0.0625 C 1.71875 -0.0625 0.921875 -0.21875 0.921875 -1.125 C 0.921875 -1.296875 0.953125 -1.46875 0.953125 -1.515625 C 0.96875 -1.546875 0.96875 -1.5625 0.96875 -1.5625 C 0.96875 -1.640625 0.921875 -1.65625 0.890625 -1.65625 C 0.84375 -1.65625 0.828125 -1.640625 0.8125 -1.625 C 0.78125 -1.59375 0.375 0.0625 0.375 0.09375 C 0.375 0.125 0.421875 0.15625 0.453125 0.15625 C 0.5 0.15625 0.5 0.15625 0.59375 0.046875 L 0.9375 -0.359375 C 1.25 0.0625 1.75 0.15625 2.171875 0.15625 C 3.15625 0.15625 4.015625 -0.8125 4.015625 -1.703125 C 4.015625 -2.203125 3.765625 -2.453125 3.65625 -2.5625 C 3.5 -2.71875 3.390625 -2.75 2.734375 -2.921875 C 2.578125 -2.96875 2.3125 -3.03125 2.25 -3.046875 C 2.0625 -3.109375 1.8125 -3.328125 1.8125 -3.71875 C 1.8125 -4.296875 2.390625 -4.921875 3.078125 -4.921875 C 3.6875 -4.921875 4.125 -4.609375 4.125 -3.796875 C 4.125 -3.5625 4.09375 -3.421875 4.09375 -3.390625 C 4.09375 -3.375 4.09375 -3.3125 4.1875 -3.3125 C 4.25 -3.3125 4.265625 -3.328125 4.296875 -3.453125 Z M 4.6875 -5.046875 "/></g><g id="b69d31c2d25e681b841ae64aeae670cdwpi2944x__glyph-1-2"><path d="M 5.140625 -1.6875 C 5.15625 -1.734375 5.1875 -1.78125 5.1875 -1.796875 C 5.1875 -1.796875 5.1875 -1.875 5.09375 -1.875 C 5.03125 -1.875 5.015625 -1.828125 5 -1.78125 C 4.53125 -0.71875 4.25 -0.21875 3.015625 -0.21875 L 1.953125 -0.21875 C 1.859375 -0.21875 1.84375 -0.21875 1.796875 -0.234375 C 1.71875 -0.234375 1.703125 -0.25 1.703125 -0.3125 C 1.703125 -0.328125 1.703125 -0.34375 1.734375 -0.46875 L 2.234375 -2.453125 L 2.953125 -2.453125 C 3.5625 -2.453125 3.5625 -2.296875 3.5625 -2.125 C 3.5625 -2.078125 3.5625 -1.984375 3.515625 -1.765625 C 3.5 -1.734375 3.5 -1.703125 3.5 -1.6875 C 3.5 -1.65625 3.53125 -1.609375 3.59375 -1.609375 C 3.640625 -1.609375 3.671875 -1.640625 3.703125 -1.75 L 4.109375 -3.453125 C 4.109375 -3.5 4.078125 -3.53125 4.03125 -3.53125 C 3.953125 -3.53125 3.9375 -3.484375 3.921875 -3.40625 C 3.765625 -2.84375 3.640625 -2.6875 2.96875 -2.6875 L 2.28125 -2.6875 L 2.71875 -4.4375 C 2.796875 -4.6875 2.796875 -4.71875 3.109375 -4.71875 L 4.140625 -4.71875 C 5.03125 -4.71875 5.25 -4.5 5.25 -3.90625 C 5.25 -3.734375 5.25 -3.71875 5.21875 -3.53125 C 5.21875 -3.484375 5.203125 -3.421875 5.203125 -3.390625 C 5.203125 -3.359375 5.234375 -3.3125 5.296875 -3.3125 C 5.375 -3.3125 5.390625 -3.34375 5.390625 -3.484375 L 5.546875 -4.75 C 5.5625 -4.9375 5.53125 -4.9375 5.34375 -4.9375 L 1.671875 -4.9375 C 1.53125 -4.9375 1.453125 -4.9375 1.453125 -4.796875 C 1.453125 -4.71875 1.53125 -4.71875 1.65625 -4.71875 C 1.9375 -4.71875 2.140625 -4.71875 2.140625 -4.578125 C 2.140625 -4.5625 2.140625 -4.546875 2.09375 -4.40625 L 1.140625 -0.5625 C 1.0625 -0.28125 1.046875 -0.21875 0.484375 -0.21875 C 0.359375 -0.21875 0.28125 -0.21875 0.28125 -0.09375 C 0.28125 0 0.34375 0 0.484375 0 L 4.25 0 C 4.421875 0 4.421875 0 4.46875 -0.125 Z M 5.140625 -1.6875 "/></g><g id="b69d31c2d25e681b841ae64aeae670cdwpi2944x__glyph-2-0"><path d="M 2.625 -1.625 C 2.625 -2.1875 2.5625 -2.59375 2.328125 -2.9375 C 2.171875 -3.171875 1.859375 -3.375 1.453125 -3.375 C 0.265625 -3.375 0.265625 -1.984375 0.265625 -1.625 C 0.265625 -1.265625 0.265625 0.109375 1.453125 0.109375 C 2.625 0.109375 2.625 -1.265625 2.625 -1.625 Z M 1.453125 -0.046875 C 1.21875 -0.046875 0.90625 -0.171875 0.796875 -0.59375 C 0.734375 -0.890625 0.734375 -1.3125 0.734375 -1.6875 C 0.734375 -2.0625 0.734375 -2.453125 0.8125 -2.734375 C 0.90625 -3.125 1.234375 -3.234375 1.453125 -3.234375 C 1.71875 -3.234375 1.984375 -3.078125 2.078125 -2.78125 C 2.15625 -2.5 2.171875 -2.140625 2.171875 -1.6875 C 2.171875 -1.3125 2.171875 -0.9375 2.09375 -0.609375 C 2 -0.15625 1.65625 -0.046875 1.453125 -0.046875 Z M 1.453125 -0.046875 "/></g><g id="b69d31c2d25e681b841ae64aeae670cdwpi2944x__glyph-2-1"><path d="M 1.703125 -3.234375 C 1.703125 -3.375 1.703125 -3.375 1.546875 -3.375 C 1.234375 -3.0625 0.765625 -3.0625 0.5625 -3.0625 L 0.5625 -2.875 C 0.671875 -2.875 1.015625 -2.875 1.296875 -3.015625 L 1.296875 -0.421875 C 1.296875 -0.25 1.296875 -0.1875 0.78125 -0.1875 L 0.59375 -0.1875 L 0.59375 0 C 0.6875 0 1.3125 -0.015625 1.5 -0.015625 C 1.65625 -0.015625 2.296875 0 2.40625 0 L 2.40625 -0.1875 L 2.21875 -0.1875 C 1.703125 -0.1875 1.703125 -0.25 1.703125 -0.421875 Z M 1.703125 -3.234375 "/></g><g id="b69d31c2d25e681b841ae64aeae670cdwpi2944x__glyph-2-2"><path d="M 2.578125 -0.921875 L 2.40625 -0.921875 C 2.390625 -0.8125 2.328125 -0.515625 2.265625 -0.46875 C 2.21875 -0.4375 1.828125 -0.4375 1.765625 -0.4375 L 0.828125 -0.4375 C 1.359375 -0.90625 1.53125 -1.046875 1.84375 -1.28125 C 2.21875 -1.59375 2.578125 -1.90625 2.578125 -2.390625 C 2.578125 -3 2.03125 -3.375 1.375 -3.375 C 0.75 -3.375 0.328125 -2.9375 0.328125 -2.46875 C 0.328125 -2.203125 0.546875 -2.1875 0.59375 -2.1875 C 0.71875 -2.1875 0.859375 -2.265625 0.859375 -2.453125 C 0.859375 -2.546875 0.828125 -2.71875 0.5625 -2.71875 C 0.71875 -3.09375 1.0625 -3.203125 1.296875 -3.203125 C 1.8125 -3.203125 2.078125 -2.796875 2.078125 -2.390625 C 2.078125 -1.953125 1.765625 -1.59375 1.59375 -1.40625 L 0.375 -0.203125 C 0.328125 -0.15625 0.328125 -0.140625 0.328125 0 L 2.421875 0 Z M 2.578125 -0.921875 "/></g><g id="b69d31c2d25e681b841ae64aeae670cdwpi2944x__glyph-2-3"><path d="M 1.390625 -1.703125 C 1.78125 -1.703125 2.078125 -1.421875 2.078125 -0.875 C 2.078125 -0.25 1.703125 -0.0625 1.40625 -0.0625 C 1.203125 -0.0625 0.765625 -0.109375 0.546875 -0.421875 C 0.78125 -0.421875 0.84375 -0.59375 0.84375 -0.703125 C 0.84375 -0.859375 0.71875 -0.984375 0.5625 -0.984375 C 0.421875 -0.984375 0.28125 -0.890625 0.28125 -0.6875 C 0.28125 -0.203125 0.8125 0.109375 1.421875 0.109375 C 2.125 0.109375 2.625 -0.375 2.625 -0.875 C 2.625 -1.28125 2.296875 -1.671875 1.734375 -1.796875 C 2.265625 -1.984375 2.453125 -2.375 2.453125 -2.671875 C 2.453125 -3.078125 2 -3.375 1.4375 -3.375 C 0.859375 -3.375 0.4375 -3.109375 0.4375 -2.703125 C 0.4375 -2.53125 0.546875 -2.4375 0.703125 -2.4375 C 0.859375 -2.4375 0.953125 -2.546875 0.953125 -2.6875 C 0.953125 -2.84375 0.859375 -2.9375 0.703125 -2.953125 C 0.875 -3.171875 1.234375 -3.234375 1.421875 -3.234375 C 1.640625 -3.234375 1.96875 -3.125 1.96875 -2.671875 C 1.96875 -2.46875 1.890625 -2.234375 1.765625 -2.078125 C 1.59375 -1.875 1.453125 -1.875 1.203125 -1.859375 C 1.0625 -1.84375 1.0625 -1.84375 1.03125 -1.84375 C 1.03125 -1.84375 0.984375 -1.828125 0.984375 -1.765625 C 0.984375 -1.703125 1.03125 -1.703125 1.109375 -1.703125 Z M 1.390625 -1.703125 "/></g><g id="b69d31c2d25e681b841ae64aeae670cdwpi2944x__glyph-2-4"><path d="M 3.90625 -1.71875 C 3.984375 -1.71875 4.109375 -1.71875 4.109375 -1.84375 C 4.109375 -1.96875 3.984375 -1.96875 3.921875 -1.96875 L 0.546875 -1.96875 C 0.484375 -1.96875 0.359375 -1.96875 0.359375 -1.84375 C 0.359375 -1.71875 0.46875 -1.71875 0.546875 -1.71875 Z M 3.921875 -0.59375 C 3.984375 -0.59375 4.109375 -0.59375 4.109375 -0.71875 C 4.109375 -0.84375 3.984375 -0.84375 3.90625 -0.84375 L 0.546875 -0.84375 C 0.46875 -0.84375 0.359375 -0.84375 0.359375 -0.71875 C 0.359375 -0.59375 0.484375 -0.59375 0.546875 -0.59375 Z M 3.921875 -0.59375 "/></g><g id="b69d31c2d25e681b841ae64aeae670cdwpi2944x__glyph-3-0"><path d="M 4.78125 -4.875 C 4.78125 -5 4.78125 -5.109375 4.65625 -5.109375 C 4.640625 -5.109375 4.53125 -5.109375 4.515625 -4.984375 C 4.5 -4.78125 4.328125 -4.78125 4.28125 -4.78125 C 4.03125 -4.78125 3.765625 -4.890625 3.625 -4.953125 C 3.25 -5.109375 2.9375 -5.109375 2.828125 -5.109375 C 1.609375 -5.109375 0.265625 -4.359375 0.265625 -2.484375 C 0.265625 -0.640625 1.578125 0.140625 2.84375 0.140625 C 3.21875 0.140625 3.734375 0.0625 4.265625 -0.265625 C 4.609375 -0.46875 4.984375 -0.828125 4.984375 -0.9375 C 4.984375 -1.03125 4.875 -1.078125 4.828125 -1.078125 C 4.78125 -1.078125 4.75 -1.0625 4.671875 -0.984375 C 4.25 -0.5 3.609375 -0.203125 2.953125 -0.203125 C 1.828125 -0.203125 1.546875 -1.34375 1.546875 -2.484375 C 1.546875 -3.90625 2.078125 -4.859375 2.84375 -4.859375 C 3.390625 -4.859375 4.265625 -4.328125 4.515625 -3.5625 C 4.53125 -3.5 4.5625 -3.421875 4.65625 -3.421875 C 4.78125 -3.421875 4.78125 -3.53125 4.78125 -3.65625 Z M 4.515625 -4.125 C 4.4375 -4.25 4.34375 -4.34375 4.15625 -4.53125 C 4.1875 -4.53125 4.25 -4.53125 4.28125 -4.53125 C 4.359375 -4.53125 4.46875 -4.546875 4.515625 -4.578125 Z M 1.9375 -4.6875 C 1.765625 -4.53125 1.296875 -3.90625 1.296875 -2.484375 C 1.296875 -1.765625 1.40625 -0.75 2.0625 -0.234375 C 0.859375 -0.625 0.515625 -1.59375 0.515625 -2.484375 C 0.515625 -3.828125 1.25 -4.46875 1.9375 -4.703125 Z M 1.9375 -4.6875 "/></g><g id="b69d31c2d25e681b841ae64aeae670cdwpi2944x__glyph-3-1"><path d="M 1.90625 -2.234375 C 1.9375 -2.234375 2.078125 -2.234375 2.09375 -2.234375 L 2.34375 -2.234375 C 3.828125 -2.234375 4.359375 -2.921875 4.359375 -3.609375 C 4.359375 -4.640625 3.421875 -4.984375 2.484375 -4.984375 L 0.359375 -4.984375 C 0.234375 -4.984375 0.109375 -4.984375 0.109375 -4.84375 C 0.109375 -4.71875 0.25 -4.71875 0.3125 -4.71875 C 0.6875 -4.71875 0.71875 -4.671875 0.71875 -4.3125 L 0.71875 -0.671875 C 0.71875 -0.3125 0.6875 -0.25 0.3125 -0.25 C 0.25 -0.25 0.109375 -0.25 0.109375 -0.125 C 0.109375 0 0.234375 0 0.359375 0 L 2.3125 0 C 2.4375 0 2.546875 0 2.546875 -0.125 C 2.546875 -0.25 2.421875 -0.25 2.34375 -0.25 C 1.9375 -0.25 1.90625 -0.3125 1.90625 -0.671875 Z M 3.109375 -2.5625 C 3.328125 -2.875 3.359375 -3.328125 3.359375 -3.625 C 3.359375 -4 3.328125 -4.390625 3.125 -4.65625 C 3.53125 -4.5625 4.09375 -4.34375 4.09375 -3.609375 C 4.09375 -3.109375 3.765625 -2.734375 3.109375 -2.5625 Z M 1.90625 -4.328125 C 1.90625 -4.46875 1.90625 -4.71875 2.34375 -4.71875 C 2.859375 -4.71875 3.109375 -4.53125 3.109375 -3.625 C 3.109375 -2.578125 2.71875 -2.484375 2.265625 -2.484375 L 1.90625 -2.484375 Z M 0.921875 -0.25 C 0.96875 -0.390625 0.96875 -0.5625 0.96875 -0.65625 L 0.96875 -4.328125 C 0.96875 -4.421875 0.96875 -4.59375 0.921875 -4.71875 L 1.75 -4.71875 C 1.65625 -4.609375 1.65625 -4.46875 1.65625 -4.359375 L 1.65625 -0.65625 C 1.65625 -0.578125 1.65625 -0.390625 1.703125 -0.25 Z M 0.921875 -0.25 "/></g><g id="b69d31c2d25e681b841ae64aeae670cdwpi2944x__glyph-4-0"><path d="M 2.15625 -1.953125 C 2.046875 -2.109375 1.875 -2.25 1.625 -2.25 C 0.96875 -2.25 0.3125 -1.53125 0.3125 -0.796875 C 0.3125 -0.296875 0.640625 0.046875 1.078125 0.046875 C 1.359375 0.046875 1.59375 -0.109375 1.796875 -0.3125 C 1.90625 0 2.203125 0.046875 2.328125 0.046875 C 2.515625 0.046875 2.640625 -0.0625 2.734375 -0.21875 C 2.84375 -0.421875 2.90625 -0.703125 2.90625 -0.734375 C 2.90625 -0.796875 2.84375 -0.796875 2.828125 -0.796875 C 2.75 -0.796875 2.75 -0.78125 2.71875 -0.640625 C 2.65625 -0.390625 2.5625 -0.09375 2.34375 -0.09375 C 2.203125 -0.09375 2.171875 -0.203125 2.171875 -0.34375 C 2.171875 -0.421875 2.21875 -0.609375 2.25 -0.75 C 2.28125 -0.875 2.34375 -1.09375 2.359375 -1.203125 L 2.46875 -1.59375 C 2.5 -1.71875 2.5625 -1.96875 2.5625 -1.984375 C 2.5625 -2.09375 2.46875 -2.15625 2.390625 -2.15625 C 2.296875 -2.15625 2.1875 -2.09375 2.15625 -1.953125 Z M 1.828125 -0.640625 C 1.78125 -0.5 1.671875 -0.390625 1.5625 -0.296875 C 1.515625 -0.25 1.3125 -0.09375 1.09375 -0.09375 C 0.90625 -0.09375 0.71875 -0.21875 0.71875 -0.578125 C 0.71875 -0.859375 0.875 -1.421875 0.984375 -1.625 C 1.21875 -2.03125 1.484375 -2.109375 1.625 -2.109375 C 1.984375 -2.109375 2.078125 -1.71875 2.078125 -1.65625 C 2.078125 -1.640625 2.0625 -1.609375 2.0625 -1.59375 Z M 1.828125 -0.640625 "/></g><g id="b69d31c2d25e681b841ae64aeae670cdwpi2944x__glyph-5-0"><path d="M 1.390625 -1.8125 C 1.390625 -2.03125 1.21875 -2.203125 1.015625 -2.203125 C 0.796875 -2.203125 0.625 -2.03125 0.625 -1.8125 C 0.625 -1.609375 0.796875 -1.4375 1.015625 -1.4375 C 1.21875 -1.4375 1.390625 -1.609375 1.390625 -1.8125 Z M 1.390625 -1.8125 "/></g><g id="b69d31c2d25e681b841ae64aeae670cdwpi2944x__glyph-6-0"><path d="M 4.15625 -1.75 C 4.15625 -1.953125 4.078125 -1.953125 4.0625 -1.953125 C 3.984375 -1.953125 3.984375 -1.8125 3.984375 -1.734375 C 3.953125 -1.375 3.6875 -0.9375 3.203125 -0.9375 C 2.84375 -0.9375 2.59375 -1.1875 2.3125 -1.4375 C 2.03125 -1.6875 1.734375 -1.953125 1.328125 -1.953125 C 0.75 -1.953125 0.390625 -1.359375 0.390625 -0.796875 C 0.390625 -0.59375 0.46875 -0.59375 0.484375 -0.59375 C 0.5625 -0.59375 0.5625 -0.734375 0.5625 -0.8125 C 0.578125 -1.171875 0.859375 -1.609375 1.328125 -1.609375 C 1.703125 -1.609375 1.953125 -1.359375 2.234375 -1.109375 C 2.5 -0.859375 2.8125 -0.59375 3.203125 -0.59375 C 3.796875 -0.59375 4.15625 -1.1875 4.15625 -1.75 Z M 4.15625 -1.75 "/></g><g id="b69d31c2d25e681b841ae64aeae670cdwpi2944x__glyph-6-1"><path d="M 3.796875 -1.15625 C 3.875 -1.15625 4 -1.15625 4 -1.28125 C 4 -1.40625 3.875 -1.40625 3.796875 -1.40625 L 0.75 -1.40625 C 0.671875 -1.40625 0.546875 -1.40625 0.546875 -1.28125 C 0.546875 -1.15625 0.671875 -1.15625 0.75 -1.15625 Z M 3.796875 -1.15625 "/></g><g id="b69d31c2d25e681b841ae64aeae670cdwpi2944x__glyph-6-2"><path d="M 3.53125 -2.859375 C 3.53125 -2.9375 3.53125 -3.0625 3.40625 -3.0625 C 3.28125 -3.0625 3.28125 -2.9375 3.28125 -2.859375 L 3.28125 -1.046875 C 3.28125 -0.90625 3.28125 -0.59375 2.84375 -0.34375 C 2.53125 -0.1875 2.171875 -0.140625 1.96875 -0.140625 C 1.5 -0.140625 1.1875 -0.28125 1.0625 -0.359375 C 0.703125 -0.578125 0.640625 -0.796875 0.640625 -1.03125 L 0.640625 -2.859375 C 0.640625 -2.9375 0.640625 -3.0625 0.515625 -3.0625 C 0.390625 -3.0625 0.390625 -2.9375 0.390625 -2.859375 L 0.390625 -1.03125 C 0.390625 -0.1875 1.296875 0.109375 1.953125 0.109375 C 2.609375 0.109375 3.53125 -0.171875 3.53125 -1.03125 Z M 3.53125 -2.859375 "/></g></g></defs><g fill="rgb(0%, 0%, 0%)" fill-opacity="1"><use xlink:href="#b69d31c2d25e681b841ae64aeae670cdwpi2944x__glyph-0-0" x="8.114157" y="20.095727"/></g><g fill="rgb(0%, 0%, 0%)" fill-opacity="1"><use xlink:href="#b69d31c2d25e681b841ae64aeae670cdwpi2944x__glyph-1-0" x="59.394766" y="20.095727"/></g><g fill="rgb(0%, 0%, 0%)" fill-opacity="1"><use xlink:href="#b69d31c2d25e681b841ae64aeae670cdwpi2944x__glyph-2-0" x="66.030788" y="17.455919"/></g><g fill="rgb(0%, 0%, 0%)" fill-opacity="1"><use xlink:href="#b69d31c2d25e681b841ae64aeae670cdwpi2944x__glyph-0-1" x="69.294046" y="20.095727"/></g><g fill="rgb(0%, 0%, 0%)" fill-opacity="1"><use xlink:href="#b69d31c2d25e681b841ae64aeae670cdwpi2944x__glyph-3-0" x="72.122535" y="20.095727"/><use xlink:href="#b69d31c2d25e681b841ae64aeae670cdwpi2944x__glyph-3-1" x="77.375133" y="20.095727"/></g><g fill="rgb(0%, 0%, 0%)" fill-opacity="1"><use xlink:href="#b69d31c2d25e681b841ae64aeae670cdwpi2944x__glyph-2-1" x="81.819994" y="16.883571"/></g><g fill="rgb(0%, 0%, 0%)" fill-opacity="1"><use xlink:href="#b69d31c2d25e681b841ae64aeae670cdwpi2944x__glyph-0-2" x="85.082522" y="20.095727"/></g><g fill="rgb(0%, 0%, 0%)" fill-opacity="1"><use xlink:href="#b69d31c2d25e681b841ae64aeae670cdwpi2944x__glyph-1-0" x="135.554981" y="20.095727"/></g><g fill="rgb(0%, 0%, 0%)" fill-opacity="1"><use xlink:href="#b69d31c2d25e681b841ae64aeae670cdwpi2944x__glyph-2-0" x="142.191003" y="17.455919"/></g><g fill="rgb(0%, 0%, 0%)" fill-opacity="1"><use xlink:href="#b69d31c2d25e681b841ae64aeae670cdwpi2944x__glyph-0-1" x="145.454261" y="20.095727"/></g><g fill="rgb(0%, 0%, 0%)" fill-opacity="1"><use xlink:href="#b69d31c2d25e681b841ae64aeae670cdwpi2944x__glyph-1-1" x="148.282751" y="20.095727"/></g><g fill="rgb(0%, 0%, 0%)" fill-opacity="1"><use xlink:href="#b69d31c2d25e681b841ae64aeae670cdwpi2944x__glyph-0-1" x="153.164423" y="20.095727"/></g><g fill="rgb(0%, 0%, 0%)" fill-opacity="1"><use xlink:href="#b69d31c2d25e681b841ae64aeae670cdwpi2944x__glyph-1-2" x="155.992912" y="20.095727"/></g><g fill="rgb(0%, 0%, 0%)" fill-opacity="1"><use xlink:href="#b69d31c2d25e681b841ae64aeae670cdwpi2944x__glyph-4-0" x="161.358813" y="21.1864"/></g><g fill="rgb(0%, 0%, 0%)" fill-opacity="1"><use xlink:href="#b69d31c2d25e681b841ae64aeae670cdwpi2944x__glyph-0-2" x="164.877584" y="20.095727"/><use xlink:href="#b69d31c2d25e681b841ae64aeae670cdwpi2944x__glyph-0-2" x="167.706073" y="20.095727"/></g><g fill="rgb(0%, 0%, 0%)" fill-opacity="1"><use xlink:href="#b69d31c2d25e681b841ae64aeae670cdwpi2944x__glyph-0-0" x="265.390321" y="20.095727"/></g><g fill="rgb(0%, 0%, 0%)" fill-opacity="1"><use xlink:href="#b69d31c2d25e681b841ae64aeae670cdwpi2944x__glyph-1-0" x="308.416419" y="20.095727"/></g><g fill="rgb(0%, 0%, 0%)" fill-opacity="1"><use xlink:href="#b69d31c2d25e681b841ae64aeae670cdwpi2944x__glyph-2-1" x="315.053171" y="17.455919"/></g><g fill="rgb(0%, 0%, 0%)" fill-opacity="1"><use xlink:href="#b69d31c2d25e681b841ae64aeae670cdwpi2944x__glyph-0-1" x="318.316429" y="20.095727"/></g><g fill="rgb(0%, 0%, 0%)" fill-opacity="1"><use xlink:href="#b69d31c2d25e681b841ae64aeae670cdwpi2944x__glyph-3-0" x="321.144919" y="20.095727"/><use xlink:href="#b69d31c2d25e681b841ae64aeae670cdwpi2944x__glyph-3-1" x="326.397516" y="20.095727"/></g><g fill="rgb(0%, 0%, 0%)" fill-opacity="1"><use xlink:href="#b69d31c2d25e681b841ae64aeae670cdwpi2944x__glyph-2-1" x="330.842377" y="16.883571"/></g><g fill="rgb(0%, 0%, 0%)" fill-opacity="1"><use xlink:href="#b69d31c2d25e681b841ae64aeae670cdwpi2944x__glyph-0-2" x="334.104905" y="20.095727"/></g><g fill="rgb(0%, 0%, 0%)" fill-opacity="1"><use xlink:href="#b69d31c2d25e681b841ae64aeae670cdwpi2944x__glyph-1-0" x="56.162899" y="46.822323"/></g><g fill="rgb(0%, 0%, 0%)" fill-opacity="1"><use xlink:href="#b69d31c2d25e681b841ae64aeae670cdwpi2944x__glyph-2-1" x="62.799651" y="44.182515"/></g><g fill="rgb(0%, 0%, 0%)" fill-opacity="1"><use xlink:href="#b69d31c2d25e681b841ae64aeae670cdwpi2944x__glyph-0-1" x="66.062179" y="46.822323"/></g><g fill="rgb(0%, 0%, 0%)" fill-opacity="1"><use xlink:href="#b69d31c2d25e681b841ae64aeae670cdwpi2944x__glyph-1-1" x="68.890669" y="46.822323"/></g><g fill="rgb(0%, 0%, 0%)" fill-opacity="1"><use xlink:href="#b69d31c2d25e681b841ae64aeae670cdwpi2944x__glyph-0-1" x="73.77234" y="46.822323"/></g><g fill="rgb(0%, 0%, 0%)" fill-opacity="1"><use xlink:href="#b69d31c2d25e681b841ae64aeae670cdwpi2944x__glyph-1-2" x="76.60083" y="46.822323"/></g><g fill="rgb(0%, 0%, 0%)" fill-opacity="1"><use xlink:href="#b69d31c2d25e681b841ae64aeae670cdwpi2944x__glyph-4-0" x="81.967461" y="47.912996"/></g><g fill="rgb(0%, 0%, 0%)" fill-opacity="1"><use xlink:href="#b69d31c2d25e681b841ae64aeae670cdwpi2944x__glyph-0-2" x="85.485502" y="46.822323"/><use xlink:href="#b69d31c2d25e681b841ae64aeae670cdwpi2944x__glyph-0-2" x="88.313991" y="46.822323"/></g><g fill="rgb(0%, 0%, 0%)" fill-opacity="1"><use xlink:href="#b69d31c2d25e681b841ae64aeae670cdwpi2944x__glyph-1-0" x="138.786848" y="46.822323"/></g><g fill="rgb(0%, 0%, 0%)" fill-opacity="1"><use xlink:href="#b69d31c2d25e681b841ae64aeae670cdwpi2944x__glyph-2-0" x="145.4236" y="44.182515"/></g><g fill="rgb(0%, 0%, 0%)" fill-opacity="1"><use xlink:href="#b69d31c2d25e681b841ae64aeae670cdwpi2944x__glyph-0-1" x="148.686128" y="46.822323"/></g><g fill="rgb(0%, 0%, 0%)" fill-opacity="1"><use xlink:href="#b69d31c2d25e681b841ae64aeae670cdwpi2944x__glyph-3-0" x="151.514618" y="46.822323"/><use xlink:href="#b69d31c2d25e681b841ae64aeae670cdwpi2944x__glyph-3-1" x="156.767215" y="46.822323"/></g><g fill="rgb(0%, 0%, 0%)" fill-opacity="1"><use xlink:href="#b69d31c2d25e681b841ae64aeae670cdwpi2944x__glyph-2-1" x="161.212076" y="43.610168"/></g><g fill="rgb(0%, 0%, 0%)" fill-opacity="1"><use xlink:href="#b69d31c2d25e681b841ae64aeae670cdwpi2944x__glyph-0-2" x="164.475334" y="46.822323"/></g><g fill="rgb(0%, 0%, 0%)" fill-opacity="1"><use xlink:href="#b69d31c2d25e681b841ae64aeae670cdwpi2944x__glyph-1-0" x="252.951247" y="46.822323"/></g><g fill="rgb(0%, 0%, 0%)" fill-opacity="1"><use xlink:href="#b69d31c2d25e681b841ae64aeae670cdwpi2944x__glyph-2-2" x="259.588" y="44.182515"/></g><g fill="rgb(0%, 0%, 0%)" fill-opacity="1"><use xlink:href="#b69d31c2d25e681b841ae64aeae670cdwpi2944x__glyph-0-1" x="262.850528" y="46.822323"/></g><g fill="rgb(0%, 0%, 0%)" fill-opacity="1"><use xlink:href="#b69d31c2d25e681b841ae64aeae670cdwpi2944x__glyph-3-0" x="265.679017" y="46.822323"/><use xlink:href="#b69d31c2d25e681b841ae64aeae670cdwpi2944x__glyph-3-1" x="270.931615" y="46.822323"/></g><g fill="rgb(0%, 0%, 0%)" fill-opacity="1"><use xlink:href="#b69d31c2d25e681b841ae64aeae670cdwpi2944x__glyph-2-1" x="275.376476" y="43.610168"/></g><g fill="rgb(0%, 0%, 0%)" fill-opacity="1"><use xlink:href="#b69d31c2d25e681b841ae64aeae670cdwpi2944x__glyph-0-2" x="278.639004" y="46.822323"/></g><g fill="rgb(0%, 0%, 0%)" fill-opacity="1"><use xlink:href="#b69d31c2d25e681b841ae64aeae670cdwpi2944x__glyph-1-0" x="305.186012" y="46.822323"/></g><g fill="rgb(0%, 0%, 0%)" fill-opacity="1"><use xlink:href="#b69d31c2d25e681b841ae64aeae670cdwpi2944x__glyph-2-2" x="311.822764" y="44.182515"/></g><g fill="rgb(0%, 0%, 0%)" fill-opacity="1"><use xlink:href="#b69d31c2d25e681b841ae64aeae670cdwpi2944x__glyph-0-1" x="315.085292" y="46.822323"/></g><g fill="rgb(0%, 0%, 0%)" fill-opacity="1"><use xlink:href="#b69d31c2d25e681b841ae64aeae670cdwpi2944x__glyph-1-1" x="317.913782" y="46.822323"/></g><g fill="rgb(0%, 0%, 0%)" fill-opacity="1"><use xlink:href="#b69d31c2d25e681b841ae64aeae670cdwpi2944x__glyph-0-1" x="322.795454" y="46.822323"/></g><g fill="rgb(0%, 0%, 0%)" fill-opacity="1"><use xlink:href="#b69d31c2d25e681b841ae64aeae670cdwpi2944x__glyph-1-2" x="325.623943" y="46.822323"/></g><g fill="rgb(0%, 0%, 0%)" fill-opacity="1"><use xlink:href="#b69d31c2d25e681b841ae64aeae670cdwpi2944x__glyph-4-0" x="330.990574" y="47.912996"/></g><g fill="rgb(0%, 0%, 0%)" fill-opacity="1"><use xlink:href="#b69d31c2d25e681b841ae64aeae670cdwpi2944x__glyph-0-2" x="334.508615" y="46.822323"/><use xlink:href="#b69d31c2d25e681b841ae64aeae670cdwpi2944x__glyph-0-2" x="337.337104" y="46.822323"/></g><g fill="rgb(0%, 0%, 0%)" fill-opacity="1"><use xlink:href="#b69d31c2d25e681b841ae64aeae670cdwpi2944x__glyph-1-0" x="59.395496" y="73.54892"/></g><g fill="rgb(0%, 0%, 0%)" fill-opacity="1"><use xlink:href="#b69d31c2d25e681b841ae64aeae670cdwpi2944x__glyph-2-1" x="66.031518" y="70.909842"/></g><g fill="rgb(0%, 0%, 0%)" fill-opacity="1"><use xlink:href="#b69d31c2d25e681b841ae64aeae670cdwpi2944x__glyph-0-1" x="69.294776" y="73.54892"/></g><g fill="rgb(0%, 0%, 0%)" fill-opacity="1"><use xlink:href="#b69d31c2d25e681b841ae64aeae670cdwpi2944x__glyph-3-0" x="72.123265" y="73.54892"/><use xlink:href="#b69d31c2d25e681b841ae64aeae670cdwpi2944x__glyph-3-1" x="77.375863" y="73.54892"/></g><g fill="rgb(0%, 0%, 0%)" fill-opacity="1"><use xlink:href="#b69d31c2d25e681b841ae64aeae670cdwpi2944x__glyph-2-1" x="81.820724" y="70.336764"/></g><g fill="rgb(0%, 0%, 0%)" fill-opacity="1"><use xlink:href="#b69d31c2d25e681b841ae64aeae670cdwpi2944x__glyph-0-2" x="85.083252" y="73.54892"/></g><g fill="rgb(0%, 0%, 0%)" fill-opacity="1"><use xlink:href="#b69d31c2d25e681b841ae64aeae670cdwpi2944x__glyph-0-0" x="151.226651" y="73.54892"/></g><g fill="rgb(0%, 0%, 0%)" fill-opacity="1"><use xlink:href="#b69d31c2d25e681b841ae64aeae670cdwpi2944x__glyph-1-0" x="194.253479" y="73.54892"/></g><g fill="rgb(0%, 0%, 0%)" fill-opacity="1"><use xlink:href="#b69d31c2d25e681b841ae64aeae670cdwpi2944x__glyph-2-3" x="200.890231" y="70.909842"/></g><g fill="rgb(0%, 0%, 0%)" fill-opacity="1"><use xlink:href="#b69d31c2d25e681b841ae64aeae670cdwpi2944x__glyph-0-1" x="204.15276" y="73.54892"/></g><g fill="rgb(0%, 0%, 0%)" fill-opacity="1"><use xlink:href="#b69d31c2d25e681b841ae64aeae670cdwpi2944x__glyph-1-1" x="206.981249" y="73.54892"/></g><g fill="rgb(0%, 0%, 0%)" fill-opacity="1"><use xlink:href="#b69d31c2d25e681b841ae64aeae670cdwpi2944x__glyph-0-1" x="211.862921" y="73.54892"/></g><g fill="rgb(0%, 0%, 0%)" fill-opacity="1"><use xlink:href="#b69d31c2d25e681b841ae64aeae670cdwpi2944x__glyph-1-2" x="214.69141" y="73.54892"/></g><g fill="rgb(0%, 0%, 0%)" fill-opacity="1"><use xlink:href="#b69d31c2d25e681b841ae64aeae670cdwpi2944x__glyph-4-0" x="220.057311" y="74.639593"/></g><g fill="rgb(0%, 0%, 0%)" fill-opacity="1"><use xlink:href="#b69d31c2d25e681b841ae64aeae670cdwpi2944x__glyph-0-2" x="223.576082" y="73.54892"/><use xlink:href="#b69d31c2d25e681b841ae64aeae670cdwpi2944x__glyph-0-2" x="226.404572" y="73.54892"/></g><g fill="rgb(0%, 0%, 0%)" fill-opacity="1"><use xlink:href="#b69d31c2d25e681b841ae64aeae670cdwpi2944x__glyph-1-0" x="252.951247" y="73.54892"/></g><g fill="rgb(0%, 0%, 0%)" fill-opacity="1"><use xlink:href="#b69d31c2d25e681b841ae64aeae670cdwpi2944x__glyph-2-2" x="259.588" y="70.909842"/></g><g fill="rgb(0%, 0%, 0%)" fill-opacity="1"><use xlink:href="#b69d31c2d25e681b841ae64aeae670cdwpi2944x__glyph-0-1" x="262.850528" y="73.54892"/></g><g fill="rgb(0%, 0%, 0%)" fill-opacity="1"><use xlink:href="#b69d31c2d25e681b841ae64aeae670cdwpi2944x__glyph-3-0" x="265.679017" y="73.54892"/><use xlink:href="#b69d31c2d25e681b841ae64aeae670cdwpi2944x__glyph-3-1" x="270.931615" y="73.54892"/></g><g fill="rgb(0%, 0%, 0%)" fill-opacity="1"><use xlink:href="#b69d31c2d25e681b841ae64aeae670cdwpi2944x__glyph-2-1" x="275.376476" y="70.336764"/></g><g fill="rgb(0%, 0%, 0%)" fill-opacity="1"><use xlink:href="#b69d31c2d25e681b841ae64aeae670cdwpi2944x__glyph-0-2" x="278.639004" y="73.54892"/></g><g fill="rgb(0%, 0%, 0%)" fill-opacity="1"><use xlink:href="#b69d31c2d25e681b841ae64aeae670cdwpi2944x__glyph-0-0" x="320.857683" y="73.54892"/></g><g fill="rgb(0%, 0%, 0%)" fill-opacity="1"><use xlink:href="#b69d31c2d25e681b841ae64aeae670cdwpi2944x__glyph-5-0" x="35.470045" y="97.014449"/></g><g fill="rgb(0%, 0%, 0%)" fill-opacity="1"><use xlink:href="#b69d31c2d25e681b841ae64aeae670cdwpi2944x__glyph-5-0" x="38.705098" y="97.014449"/></g><g fill="rgb(0%, 0%, 0%)" fill-opacity="1"><use xlink:href="#b69d31c2d25e681b841ae64aeae670cdwpi2944x__glyph-5-0" x="41.932878" y="97.014449"/></g><path fill="none" stroke="rgb(0%, 0%, 0%)" stroke-linecap="butt" stroke-linejoin="miter" stroke-miterlimit="10" stroke-opacity="1" stroke-width="0.39848" d="M -214.630341 50.724815 L -158.746923 50.724815 " transform="matrix(0.730035, 0, 0, -0.730035, 171.715096, 55.308255)"/><path fill="none" stroke="rgb(0%, 0%, 0%)" stroke-linecap="round" stroke-linejoin="round" stroke-miterlimit="10" stroke-opacity="1" stroke-width="0.39848" d="M -2.073141 2.390808 C -1.693237 0.956802 -0.847816 0.277254 -0.00239421 -0.000985432 C -0.847816 -0.279225 -1.693237 -0.958773 -2.073141 -2.392779 " transform="matrix(0.730035, 0, 0, -0.730035, 55.970498, 18.276624)"/><path fill="none" stroke="rgb(0%, 0%, 0%)" stroke-linecap="butt" stroke-linejoin="miter" stroke-miterlimit="10" stroke-opacity="1" stroke-width="0.39848" d="M -110.306422 50.724815 L -54.423004 50.724815 " transform="matrix(0.730035, 0, 0, -0.730035, 171.715096, 55.308255)"/><path fill="none" stroke="rgb(0%, 0%, 0%)" stroke-linecap="round" stroke-linejoin="round" stroke-miterlimit="10" stroke-opacity="1" stroke-width="0.39848" d="M -2.074493 2.390808 C -1.694588 0.956802 -0.849167 0.277254 0.00160536 -0.000985432 C -0.849167 -0.279225 -1.694588 -0.958773 -2.074493 -2.392779 " transform="matrix(0.730035, 0, 0, -0.730035, 132.131641, 18.276624)"/><g fill="rgb(0%, 0%, 0%)" fill-opacity="1"><use xlink:href="#b69d31c2d25e681b841ae64aeae670cdwpi2944x__glyph-6-0" x="109.459865" y="14.974528"/></g><g fill="rgb(0%, 0%, 0%)" fill-opacity="1"><use xlink:href="#b69d31c2d25e681b841ae64aeae670cdwpi2944x__glyph-2-4" x="109.500017" y="16.566005"/></g><path fill="none" stroke="rgb(0%, 0%, 0%)" stroke-linecap="butt" stroke-linejoin="miter" stroke-miterlimit="10" stroke-opacity="1" stroke-width="0.39848" d="M 2.873017 50.724815 L 123.431165 50.724815 " transform="matrix(0.730035, 0, 0, -0.730035, 171.715096, 55.308255)"/><path fill="none" stroke="rgb(0%, 0%, 0%)" stroke-linecap="round" stroke-linejoin="round" stroke-miterlimit="10" stroke-opacity="1" stroke-width="0.39848" d="M -2.071163 2.390808 C -1.691259 0.956802 -0.851188 0.277254 -0.00041621 -0.000985432 C -0.851188 -0.279225 -1.691259 -0.958773 -2.071163 -2.392779 " transform="matrix(0.730035, 0, 0, -0.730035, 261.969054, 18.276624)"/><path fill="none" stroke="rgb(0%, 0%, 0%)" stroke-linecap="butt" stroke-linejoin="miter" stroke-miterlimit="10" stroke-opacity="1" stroke-width="0.39848" d="M 137.787275 50.724815 L 182.369872 50.724815 " transform="matrix(0.730035, 0, 0, -0.730035, 171.715096, 55.308255)"/><path fill="none" stroke="rgb(0%, 0%, 0%)" stroke-linecap="round" stroke-linejoin="round" stroke-miterlimit="10" stroke-opacity="1" stroke-width="0.39848" d="M -2.070567 2.390808 C -1.696013 0.956802 -0.850592 0.277254 0.000180542 -0.000985432 C -0.850592 -0.279225 -1.696013 -0.958773 -2.070567 -2.392779 " transform="matrix(0.730035, 0, 0, -0.730035, 304.995962, 18.276624)"/><path fill="none" stroke="rgb(0%, 0%, 0%)" stroke-linecap="butt" stroke-linejoin="miter" stroke-miterlimit="10" stroke-opacity="1" stroke-width="0.39848" d="M 182.765829 48.156446 L -105.48538 17.202255 " transform="matrix(0.730035, 0, 0, -0.730035, 171.715096, 55.308255)"/><path fill="none" stroke="rgb(0%, 0%, 0%)" stroke-linecap="round" stroke-linejoin="round" stroke-miterlimit="10" stroke-opacity="1" stroke-width="0.39848" d="M -2.072622 2.393364 C -1.693883 0.958828 -0.851699 0.281781 0.000843267 0.00186916 C -0.847274 -0.278392 -1.695107 -0.95693 -2.069788 -2.391283 " transform="matrix(-0.725838, 0.0779459, 0.0779459, 0.725838, 94.562966, 42.764203)"/><path fill="none" stroke="rgb(0%, 0%, 0%)" stroke-linecap="butt" stroke-linejoin="miter" stroke-miterlimit="10" stroke-opacity="1" stroke-width="0.39848" d="M -105.881337 14.114862 L -49.992568 14.114862 " transform="matrix(0.730035, 0, 0, -0.730035, 171.715096, 55.308255)"/><path fill="none" stroke="rgb(0%, 0%, 0%)" stroke-linecap="round" stroke-linejoin="round" stroke-miterlimit="10" stroke-opacity="1" stroke-width="0.39848" d="M -2.070627 2.391345 C -1.696073 0.957339 -0.850652 0.277792 0.000120287 -0.000448369 C -0.850652 -0.278688 -1.696073 -0.958236 -2.070627 -2.392242 " transform="matrix(0.730035, 0, 0, -0.730035, 135.363193, 45.003579)"/><path fill="none" stroke="rgb(0%, 0%, 0%)" stroke-linecap="butt" stroke-linejoin="miter" stroke-miterlimit="10" stroke-opacity="1" stroke-width="0.39848" d="M -1.557418 14.114862 L 106.38897 14.114862 " transform="matrix(0.730035, 0, 0, -0.730035, 171.715096, 55.308255)"/><path fill="none" stroke="rgb(0%, 0%, 0%)" stroke-linecap="round" stroke-linejoin="round" stroke-miterlimit="10" stroke-opacity="1" stroke-width="0.39848" d="M -2.072869 2.391345 C -1.692964 0.957339 -0.847543 0.277792 -0.00212149 -0.000448369 C -0.847543 -0.278688 -1.692964 -0.958236 -2.072869 -2.392242 " transform="matrix(0.730035, 0, 0, -0.730035, 249.528893, 45.003579)"/><g fill="rgb(0%, 0%, 0%)" fill-opacity="1"><use xlink:href="#b69d31c2d25e681b841ae64aeae670cdwpi2944x__glyph-6-1" x="204.316288" y="42.686673"/><use xlink:href="#b69d31c2d25e681b841ae64aeae670cdwpi2944x__glyph-6-2" x="208.86215" y="42.686673"/></g><g fill="rgb(0%, 0%, 0%)" fill-opacity="1"><use xlink:href="#b69d31c2d25e681b841ae64aeae670cdwpi2944x__glyph-4-0" x="212.781295" y="42.686673"/></g><path fill="none" stroke="rgb(0%, 0%, 0%)" stroke-linecap="butt" stroke-linejoin="miter" stroke-miterlimit="10" stroke-opacity="1" stroke-width="0.39848" d="M 154.829471 14.114862 L 177.939436 14.114862 " transform="matrix(0.730035, 0, 0, -0.730035, 171.715096, 55.308255)"/><path fill="none" stroke="rgb(0%, 0%, 0%)" stroke-linecap="round" stroke-linejoin="round" stroke-miterlimit="10" stroke-opacity="1" stroke-width="0.39848" d="M -2.074432 2.391345 C -1.694528 0.957339 -0.849106 0.277792 0.00166561 -0.000448369 C -0.849106 -0.278688 -1.694528 -0.958236 -2.074432 -2.392242 " transform="matrix(0.730035, 0, 0, -0.730035, 301.764409, 45.003579)"/><path fill="none" stroke="rgb(0%, 0%, 0%)" stroke-linecap="butt" stroke-linejoin="miter" stroke-miterlimit="10" stroke-opacity="1" stroke-width="0.39848" d="M 178.340744 11.075626 L -109.910465 -19.878566 " transform="matrix(0.730035, 0, 0, -0.730035, 171.715096, 55.308255)"/><path fill="none" stroke="rgb(0%, 0%, 0%)" stroke-linecap="round" stroke-linejoin="round" stroke-miterlimit="10" stroke-opacity="1" stroke-width="0.39848" d="M -2.074478 2.389892 C -1.69574 0.955357 -0.848235 0.277739 -0.0010131 -0.0016021 C -0.848559 -0.276543 -1.691071 -0.955652 -2.071074 -2.389434 " transform="matrix(-0.725838, 0.0779459, 0.0779459, 0.725838, 91.331421, 69.837179)"/><path fill="none" stroke="rgb(0%, 0%, 0%)" stroke-linecap="butt" stroke-linejoin="miter" stroke-miterlimit="10" stroke-opacity="1" stroke-width="0.39848" d="M -110.306422 -22.495091 L -32.955724 -22.495091 " transform="matrix(0.730035, 0, 0, -0.730035, 171.715096, 55.308255)"/><path fill="none" stroke="rgb(0%, 0%, 0%)" stroke-linecap="round" stroke-linejoin="round" stroke-miterlimit="10" stroke-opacity="1" stroke-width="0.39848" d="M -2.074282 2.391852 C -1.694378 0.957846 -0.848957 0.278299 0.00181557 0.0000586947 C -0.848957 -0.278181 -1.694378 -0.957729 -2.074282 -2.391734 " transform="matrix(0.730035, 0, 0, -0.730035, 147.803362, 71.730512)"/><path fill="none" stroke="rgb(0%, 0%, 0%)" stroke-linecap="butt" stroke-linejoin="miter" stroke-miterlimit="10" stroke-opacity="1" stroke-width="0.39848" d="M -18.594263 -22.495091 L 25.982983 -22.495091 " transform="matrix(0.730035, 0, 0, -0.730035, 171.715096, 55.308255)"/><path fill="none" stroke="rgb(0%, 0%, 0%)" stroke-linecap="round" stroke-linejoin="round" stroke-miterlimit="10" stroke-opacity="1" stroke-width="0.39848" d="M -2.073666 2.391852 C -1.693761 0.957846 -0.84834 0.278299 0.00243232 0.0000586947 C -0.84834 -0.278181 -1.693761 -0.957729 -2.073666 -2.391734 " transform="matrix(0.730035, 0, 0, -0.730035, 190.830256, 71.730512)"/><path fill="none" stroke="rgb(0%, 0%, 0%)" stroke-linecap="butt" stroke-linejoin="miter" stroke-miterlimit="10" stroke-opacity="1" stroke-width="0.39848" d="M 83.273653 -22.495091 L 106.38897 -22.495091 " transform="matrix(0.730035, 0, 0, -0.730035, 171.715096, 55.308255)"/><path fill="none" stroke="rgb(0%, 0%, 0%)" stroke-linecap="round" stroke-linejoin="round" stroke-miterlimit="10" stroke-opacity="1" stroke-width="0.39848" d="M -2.072869 2.391852 C -1.692964 0.957846 -0.847543 0.278299 -0.00212149 0.0000586947 C -0.847543 -0.278181 -1.692964 -0.957729 -2.072869 -2.391734 " transform="matrix(0.730035, 0, 0, -0.730035, 249.528893, 71.730512)"/><path fill="none" stroke="rgb(0%, 0%, 0%)" stroke-linecap="butt" stroke-linejoin="miter" stroke-miterlimit="10" stroke-opacity="1" stroke-width="0.39848" d="M 154.829471 -22.495091 L 199.406717 -22.495091 " transform="matrix(0.730035, 0, 0, -0.730035, 171.715096, 55.308255)"/><path fill="none" stroke="rgb(0%, 0%, 0%)" stroke-linecap="round" stroke-linejoin="round" stroke-miterlimit="10" stroke-opacity="1" stroke-width="0.39848" d="M -2.074222 2.391852 C -1.694318 0.957846 -0.848896 0.278299 0.00187582 0.0000586947 C -0.848896 -0.278181 -1.694318 -0.957729 -2.074222 -2.391734 " transform="matrix(0.730035, 0, 0, -0.730035, 317.436131, 71.730512)"/><path fill="none" stroke="rgb(0%, 0%, 0%)" stroke-linecap="butt" stroke-linejoin="miter" stroke-miterlimit="10" stroke-opacity="1" stroke-width="0.39848" d="M 199.808024 -23.153236 L -77.137013 -49.259632 " transform="matrix(0.730035, 0, 0, -0.730035, 171.715096, 55.308255)"/><path fill="none" stroke="rgb(0%, 0%, 0%)" stroke-linecap="round" stroke-linejoin="round" stroke-miterlimit="10" stroke-opacity="1" stroke-width="0.39848" d="M -2.070694 2.38884 C -1.69515 0.955994 -0.850551 0.279779 -0.000756126 0.000809227 C -0.849503 -0.279298 -1.692791 -0.957654 -2.069619 -2.389452 " transform="matrix(-0.726772, 0.0685065, 0.0685065, 0.726772, 115.257208, 91.28462)"/></svg>