<?xml version="1.0" encoding="UTF-8"?><svg xmlns="http://www.w3.org/2000/svg" xmlns:xlink="http://www.w3.org/1999/xlink" width="445.3" height="128.254" viewBox="0 0 445.3 128.254"><defs><g><g id="2c9ff4565c4a488f1f62e061392e3446mrtk50ff__glyph-0-0"><path d="M 7.5625 -6 C 7.640625 -6.359375 7.671875 -6.453125 8.390625 -6.453125 C 8.640625 -6.453125 8.734375 -6.453125 8.734375 -6.65625 C 8.734375 -6.765625 8.625 -6.765625 8.59375 -6.765625 C 8.3125 -6.765625 7.59375 -6.734375 7.328125 -6.734375 C 7.03125 -6.734375 6.328125 -6.765625 6.046875 -6.765625 C 5.96875 -6.765625 5.859375 -6.765625 5.859375 -6.5625 C 5.859375 -6.453125 5.9375 -6.453125 6.125 -6.453125 C 6.15625 -6.453125 6.34375 -6.453125 6.515625 -6.4375 C 6.6875 -6.421875 6.78125 -6.40625 6.78125 -6.28125 C 6.78125 -6.234375 6.765625 -6.21875 6.734375 -6.09375 L 6.140625 -3.671875 L 3.125 -3.671875 L 3.703125 -6 C 3.796875 -6.359375 3.828125 -6.453125 4.53125 -6.453125 C 4.796875 -6.453125 4.875 -6.453125 4.875 -6.65625 C 4.875 -6.765625 4.765625 -6.765625 4.734375 -6.765625 C 4.453125 -6.765625 3.75 -6.734375 3.46875 -6.734375 C 3.1875 -6.734375 2.484375 -6.765625 2.1875 -6.765625 C 2.109375 -6.765625 2 -6.765625 2 -6.5625 C 2 -6.453125 2.09375 -6.453125 2.28125 -6.453125 C 2.296875 -6.453125 2.484375 -6.453125 2.65625 -6.4375 C 2.828125 -6.421875 2.921875 -6.40625 2.921875 -6.28125 C 2.921875 -6.234375 2.90625 -6.21875 2.875 -6.09375 L 1.5625 -0.765625 C 1.453125 -0.390625 1.4375 -0.3125 0.65625 -0.3125 C 0.46875 -0.3125 0.390625 -0.3125 0.390625 -0.109375 C 0.390625 0 0.5 0 0.53125 0 C 0.796875 0 1.5 -0.03125 1.78125 -0.03125 C 1.984375 -0.03125 2.203125 -0.015625 2.421875 -0.015625 C 2.640625 -0.015625 2.859375 0 3.0625 0 C 3.140625 0 3.265625 0 3.265625 -0.203125 C 3.265625 -0.3125 3.171875 -0.3125 2.984375 -0.3125 C 2.609375 -0.3125 2.34375 -0.3125 2.34375 -0.484375 C 2.34375 -0.546875 2.359375 -0.59375 2.375 -0.65625 L 3.046875 -3.375 L 6.0625 -3.375 C 5.640625 -1.71875 5.421875 -0.78125 5.375 -0.640625 C 5.28125 -0.3125 5.09375 -0.3125 4.484375 -0.3125 C 4.328125 -0.3125 4.234375 -0.3125 4.234375 -0.109375 C 4.234375 0 4.359375 0 4.375 0 C 4.65625 0 5.359375 -0.03125 5.640625 -0.03125 C 5.84375 -0.03125 6.0625 -0.015625 6.265625 -0.015625 C 6.484375 -0.015625 6.703125 0 6.921875 0 C 7 0 7.109375 0 7.109375 -0.203125 C 7.109375 -0.3125 7.03125 -0.3125 6.828125 -0.3125 C 6.46875 -0.3125 6.1875 -0.3125 6.1875 -0.484375 C 6.1875 -0.546875 6.21875 -0.59375 6.21875 -0.65625 Z M 7.5625 -6 "/></g><g id="2c9ff4565c4a488f1f62e061392e3446mrtk50ff__glyph-0-1"><path d="M 6.296875 -5.71875 C 6.390625 -6.125 6.5625 -6.421875 7.359375 -6.453125 C 7.40625 -6.453125 7.53125 -6.46875 7.53125 -6.65625 C 7.53125 -6.671875 7.53125 -6.765625 7.40625 -6.765625 C 7.078125 -6.765625 6.71875 -6.734375 6.390625 -6.734375 C 6.046875 -6.734375 5.6875 -6.765625 5.359375 -6.765625 C 5.296875 -6.765625 5.1875 -6.765625 5.1875 -6.5625 C 5.1875 -6.453125 5.28125 -6.453125 5.359375 -6.453125 C 5.921875 -6.453125 6.03125 -6.234375 6.03125 -6.015625 C 6.03125 -6 6.015625 -5.84375 6 -5.8125 L 5.109375 -2.28125 C 4.78125 -0.953125 3.640625 -0.09375 2.640625 -0.09375 C 1.96875 -0.09375 1.4375 -0.53125 1.4375 -1.375 C 1.4375 -1.390625 1.4375 -1.71875 1.546875 -2.15625 L 2.5 -6 C 2.59375 -6.359375 2.609375 -6.453125 3.34375 -6.453125 C 3.59375 -6.453125 3.671875 -6.453125 3.671875 -6.65625 C 3.671875 -6.765625 3.5625 -6.765625 3.53125 -6.765625 C 3.265625 -6.765625 2.546875 -6.734375 2.265625 -6.734375 C 1.984375 -6.734375 1.28125 -6.765625 0.984375 -6.765625 C 0.90625 -6.765625 0.796875 -6.765625 0.796875 -6.5625 C 0.796875 -6.453125 0.890625 -6.453125 1.078125 -6.453125 C 1.09375 -6.453125 1.28125 -6.453125 1.453125 -6.4375 C 1.640625 -6.421875 1.71875 -6.40625 1.71875 -6.28125 C 1.71875 -6.21875 1.609375 -5.8125 1.5625 -5.578125 L 1.34375 -4.703125 C 1.25 -4.3125 0.765625 -2.453125 0.734375 -2.265625 C 0.65625 -1.984375 0.65625 -1.828125 0.65625 -1.6875 C 0.65625 -0.46875 1.5625 0.21875 2.609375 0.21875 C 3.859375 0.21875 5.078125 -0.90625 5.40625 -2.203125 Z M 6.296875 -5.71875 "/></g><g id="2c9ff4565c4a488f1f62e061392e3446mrtk50ff__glyph-0-2"><path d="M 2.015625 -0.015625 C 2.015625 -0.65625 1.765625 -1.046875 1.375 -1.046875 C 1.046875 -1.046875 0.859375 -0.796875 0.859375 -0.53125 C 0.859375 -0.25 1.046875 0 1.375 0 C 1.5 0 1.625 -0.046875 1.71875 -0.125 C 1.75 -0.15625 1.765625 -0.15625 1.765625 -0.15625 C 1.78125 -0.15625 1.796875 -0.15625 1.796875 -0.015625 C 1.796875 0.71875 1.453125 1.3125 1.125 1.640625 C 1.015625 1.75 1.015625 1.765625 1.015625 1.796875 C 1.015625 1.875 1.0625 1.90625 1.109375 1.90625 C 1.21875 1.90625 2.015625 1.15625 2.015625 -0.015625 Z M 2.015625 -0.015625 "/></g><g id="2c9ff4565c4a488f1f62e061392e3446mrtk50ff__glyph-0-3"><path d="M 3.3125 -2.984375 C 3.375 -3.25 3.59375 -4.15625 4.296875 -4.15625 C 4.34375 -4.15625 4.578125 -4.15625 4.78125 -4.03125 C 4.5 -3.984375 4.3125 -3.734375 4.3125 -3.5 C 4.3125 -3.34375 4.421875 -3.15625 4.6875 -3.15625 C 4.90625 -3.15625 5.21875 -3.328125 5.21875 -3.71875 C 5.21875 -4.234375 4.640625 -4.375 4.296875 -4.375 C 3.71875 -4.375 3.375 -3.859375 3.265625 -3.625 C 3.015625 -4.28125 2.484375 -4.375 2.1875 -4.375 C 1.15625 -4.375 0.59375 -3.09375 0.59375 -2.859375 C 0.59375 -2.75 0.6875 -2.75 0.71875 -2.75 C 0.796875 -2.75 0.828125 -2.78125 0.84375 -2.859375 C 1.171875 -3.90625 1.828125 -4.15625 2.171875 -4.15625 C 2.359375 -4.15625 2.703125 -4.078125 2.703125 -3.5 C 2.703125 -3.1875 2.53125 -2.53125 2.171875 -1.140625 C 2.015625 -0.53125 1.671875 -0.109375 1.234375 -0.109375 C 1.171875 -0.109375 0.9375 -0.109375 0.734375 -0.234375 C 0.984375 -0.28125 1.203125 -0.5 1.203125 -0.765625 C 1.203125 -1.046875 0.984375 -1.125 0.828125 -1.125 C 0.53125 -1.125 0.28125 -0.859375 0.28125 -0.546875 C 0.28125 -0.09375 0.78125 0.109375 1.21875 0.109375 C 1.875 0.109375 2.234375 -0.578125 2.265625 -0.640625 C 2.375 -0.28125 2.734375 0.109375 3.328125 0.109375 C 4.34375 0.109375 4.90625 -1.171875 4.90625 -1.421875 C 4.90625 -1.515625 4.828125 -1.515625 4.796875 -1.515625 C 4.703125 -1.515625 4.6875 -1.46875 4.671875 -1.40625 C 4.34375 -0.34375 3.671875 -0.109375 3.34375 -0.109375 C 2.96875 -0.109375 2.796875 -0.421875 2.796875 -0.765625 C 2.796875 -0.984375 2.859375 -1.203125 2.96875 -1.640625 Z M 3.3125 -2.984375 "/></g><g id="2c9ff4565c4a488f1f62e061392e3446mrtk50ff__glyph-0-4"><path d="M 6.21875 -5.640625 C 6.703125 -6.40625 7.125 -6.4375 7.484375 -6.453125 C 7.609375 -6.46875 7.625 -6.640625 7.625 -6.640625 C 7.625 -6.71875 7.5625 -6.765625 7.484375 -6.765625 C 7.234375 -6.765625 6.9375 -6.734375 6.671875 -6.734375 C 6.34375 -6.734375 6.015625 -6.765625 5.703125 -6.765625 C 5.640625 -6.765625 5.515625 -6.765625 5.515625 -6.578125 C 5.515625 -6.46875 5.59375 -6.453125 5.671875 -6.453125 C 5.9375 -6.4375 6.125 -6.34375 6.125 -6.125 C 6.125 -5.984375 5.96875 -5.765625 5.96875 -5.75 L 2.9375 -0.921875 L 2.265625 -6.15625 C 2.265625 -6.328125 2.484375 -6.453125 2.9375 -6.453125 C 3.078125 -6.453125 3.1875 -6.453125 3.1875 -6.65625 C 3.1875 -6.75 3.109375 -6.765625 3.046875 -6.765625 C 2.65625 -6.765625 2.234375 -6.734375 1.828125 -6.734375 C 1.640625 -6.734375 1.453125 -6.75 1.28125 -6.75 C 1.09375 -6.75 0.90625 -6.765625 0.75 -6.765625 C 0.671875 -6.765625 0.5625 -6.765625 0.5625 -6.578125 C 0.5625 -6.453125 0.640625 -6.453125 0.796875 -6.453125 C 1.359375 -6.453125 1.359375 -6.375 1.390625 -6.125 L 2.171875 -0.015625 C 2.203125 0.1875 2.25 0.21875 2.375 0.21875 C 2.53125 0.21875 2.578125 0.171875 2.65625 0.046875 Z M 6.21875 -5.640625 "/></g><g id="2c9ff4565c4a488f1f62e061392e3446mrtk50ff__glyph-0-5"><path d="M 4.8125 -3.78125 C 4.859375 -3.90625 4.859375 -3.9375 4.859375 -4 C 4.859375 -4.1875 4.71875 -4.265625 4.5625 -4.265625 C 4.46875 -4.265625 4.3125 -4.203125 4.21875 -4.0625 C 4.203125 -4.015625 4.125 -3.703125 4.078125 -3.53125 C 4.015625 -3.265625 3.9375 -3 3.890625 -2.734375 L 3.4375 -0.953125 C 3.390625 -0.796875 2.96875 -0.109375 2.3125 -0.109375 C 1.8125 -0.109375 1.703125 -0.546875 1.703125 -0.90625 C 1.703125 -1.359375 1.875 -1.984375 2.203125 -2.859375 C 2.375 -3.265625 2.40625 -3.375 2.40625 -3.5625 C 2.40625 -4.015625 2.09375 -4.375 1.59375 -4.375 C 0.65625 -4.375 0.28125 -2.9375 0.28125 -2.859375 C 0.28125 -2.75 0.390625 -2.75 0.40625 -2.75 C 0.5 -2.75 0.515625 -2.78125 0.5625 -2.9375 C 0.828125 -3.859375 1.234375 -4.15625 1.5625 -4.15625 C 1.640625 -4.15625 1.8125 -4.15625 1.8125 -3.84375 C 1.8125 -3.59375 1.71875 -3.34375 1.640625 -3.15625 C 1.25 -2.09375 1.0625 -1.53125 1.0625 -1.0625 C 1.0625 -0.1875 1.6875 0.109375 2.28125 0.109375 C 2.671875 0.109375 3 -0.0625 3.28125 -0.34375 C 3.15625 0.171875 3.03125 0.65625 2.640625 1.1875 C 2.375 1.53125 2 1.8125 1.546875 1.8125 C 1.40625 1.8125 0.953125 1.78125 0.796875 1.390625 C 0.953125 1.390625 1.078125 1.390625 1.21875 1.28125 C 1.3125 1.1875 1.421875 1.0625 1.421875 0.875 C 1.421875 0.5625 1.15625 0.53125 1.046875 0.53125 C 0.828125 0.53125 0.5 0.6875 0.5 1.171875 C 0.5 1.671875 0.9375 2.03125 1.546875 2.03125 C 2.5625 2.03125 3.59375 1.125 3.859375 0.015625 Z M 4.8125 -3.78125 "/></g><g id="2c9ff4565c4a488f1f62e061392e3446mrtk50ff__glyph-0-6"><path d="M 6.390625 -6.890625 C 6.390625 -6.921875 6.375 -6.984375 6.28125 -6.984375 C 6.234375 -6.984375 6.21875 -6.96875 6.109375 -6.828125 L 5.625 -6.265625 C 5.375 -6.734375 4.859375 -6.984375 4.203125 -6.984375 C 2.953125 -6.984375 1.765625 -5.84375 1.765625 -4.640625 C 1.765625 -3.84375 2.28125 -3.390625 2.796875 -3.234375 L 3.859375 -2.96875 C 4.21875 -2.875 4.765625 -2.71875 4.765625 -1.90625 C 4.765625 -1.015625 3.953125 -0.09375 2.984375 -0.09375 C 2.34375 -0.09375 1.25 -0.3125 1.25 -1.53125 C 1.25 -1.765625 1.296875 -2.015625 1.3125 -2.078125 C 1.3125 -2.109375 1.328125 -2.125 1.328125 -2.140625 C 1.328125 -2.234375 1.265625 -2.25 1.203125 -2.25 C 1.15625 -2.25 1.140625 -2.234375 1.109375 -2.203125 C 1.0625 -2.171875 0.515625 0.09375 0.515625 0.125 C 0.515625 0.171875 0.5625 0.21875 0.625 0.21875 C 0.671875 0.21875 0.6875 0.203125 0.796875 0.0625 L 1.28125 -0.5 C 1.71875 0.078125 2.390625 0.21875 2.96875 0.21875 C 4.3125 0.21875 5.484375 -1.09375 5.484375 -2.328125 C 5.484375 -3.015625 5.140625 -3.34375 5 -3.484375 C 4.765625 -3.71875 4.609375 -3.75 3.734375 -3.984375 C 3.515625 -4.046875 3.15625 -4.140625 3.078125 -4.15625 C 2.796875 -4.25 2.46875 -4.53125 2.46875 -5.0625 C 2.46875 -5.859375 3.265625 -6.703125 4.203125 -6.703125 C 5.015625 -6.703125 5.625 -6.28125 5.625 -5.171875 C 5.625 -4.859375 5.59375 -4.671875 5.59375 -4.609375 C 5.59375 -4.609375 5.59375 -4.515625 5.703125 -4.515625 C 5.8125 -4.515625 5.8125 -4.546875 5.859375 -4.71875 Z M 6.390625 -6.890625 "/></g><g id="2c9ff4565c4a488f1f62e061392e3446mrtk50ff__glyph-0-7"><path d="M 3.640625 -3.96875 L 4.484375 -3.96875 C 4.6875 -3.96875 4.78125 -3.96875 4.78125 -4.15625 C 4.78125 -4.265625 4.6875 -4.265625 4.515625 -4.265625 L 3.6875 -4.265625 L 3.90625 -5.40625 C 3.9375 -5.609375 4.078125 -6.3125 4.140625 -6.421875 C 4.234375 -6.625 4.390625 -6.765625 4.609375 -6.765625 C 4.640625 -6.765625 4.90625 -6.765625 5.09375 -6.59375 C 4.65625 -6.546875 4.5625 -6.203125 4.5625 -6.046875 C 4.5625 -5.828125 4.734375 -5.703125 4.921875 -5.703125 C 5.1875 -5.703125 5.46875 -5.921875 5.46875 -6.296875 C 5.46875 -6.75 5.015625 -6.984375 4.609375 -6.984375 C 4.265625 -6.984375 3.640625 -6.8125 3.34375 -5.828125 C 3.28125 -5.609375 3.265625 -5.515625 3.015625 -4.265625 L 2.34375 -4.265625 C 2.15625 -4.265625 2.046875 -4.265625 2.046875 -4.078125 C 2.046875 -3.96875 2.125 -3.96875 2.3125 -3.96875 L 2.96875 -3.96875 L 2.234375 -0.046875 C 2.046875 0.90625 1.875 1.8125 1.359375 1.8125 C 1.328125 1.8125 1.078125 1.8125 0.890625 1.640625 C 1.34375 1.609375 1.4375 1.25 1.4375 1.09375 C 1.4375 0.875 1.265625 0.75 1.0625 0.75 C 0.8125 0.75 0.53125 0.96875 0.53125 1.34375 C 0.53125 1.796875 0.953125 2.03125 1.359375 2.03125 C 1.90625 2.03125 2.3125 1.453125 2.484375 1.0625 C 2.796875 0.453125 3.03125 -0.75 3.046875 -0.828125 Z M 3.640625 -3.96875 "/></g><g id="2c9ff4565c4a488f1f62e061392e3446mrtk50ff__glyph-1-0"><path d="M 0.84375 -0.4375 C 0.8125 -0.34375 0.78125 -0.171875 0.78125 -0.15625 C 0.78125 0 0.90625 0.0625 1.015625 0.0625 C 1.140625 0.0625 1.25 -0.015625 1.28125 -0.078125 C 1.3125 -0.140625 1.375 -0.375 1.40625 -0.515625 C 1.4375 -0.640625 1.515625 -0.96875 1.5625 -1.140625 C 1.609375 -1.296875 1.640625 -1.4375 1.671875 -1.609375 C 1.75 -1.890625 1.765625 -1.9375 1.96875 -2.234375 C 2.171875 -2.5 2.484375 -2.859375 3.015625 -2.859375 C 3.40625 -2.859375 3.421875 -2.515625 3.421875 -2.375 C 3.421875 -1.96875 3.125 -1.1875 3.015625 -0.90625 C 2.9375 -0.703125 2.90625 -0.640625 2.90625 -0.53125 C 2.90625 -0.15625 3.21875 0.0625 3.5625 0.0625 C 4.265625 0.0625 4.5625 -0.890625 4.5625 -0.984375 C 4.5625 -1.078125 4.46875 -1.078125 4.453125 -1.078125 C 4.359375 -1.078125 4.34375 -1.046875 4.328125 -0.96875 C 4.15625 -0.40625 3.859375 -0.125 3.59375 -0.125 C 3.4375 -0.125 3.40625 -0.21875 3.40625 -0.375 C 3.40625 -0.53125 3.453125 -0.625 3.578125 -0.921875 C 3.65625 -1.140625 3.9375 -1.875 3.9375 -2.265625 C 3.9375 -2.9375 3.40625 -3.0625 3.03125 -3.0625 C 2.46875 -3.0625 2.078125 -2.703125 1.859375 -2.421875 C 1.8125 -2.90625 1.40625 -3.0625 1.125 -3.0625 C 0.828125 -3.0625 0.671875 -2.84375 0.578125 -2.6875 C 0.421875 -2.421875 0.328125 -2.03125 0.328125 -2 C 0.328125 -1.90625 0.421875 -1.90625 0.4375 -1.90625 C 0.546875 -1.90625 0.546875 -1.921875 0.59375 -2.109375 C 0.703125 -2.53125 0.828125 -2.859375 1.109375 -2.859375 C 1.28125 -2.859375 1.328125 -2.71875 1.328125 -2.53125 C 1.328125 -2.390625 1.265625 -2.140625 1.21875 -1.953125 C 1.171875 -1.765625 1.109375 -1.484375 1.0625 -1.328125 Z M 0.84375 -0.4375 "/></g><g id="2c9ff4565c4a488f1f62e061392e3446mrtk50ff__glyph-1-1"><path d="M 2.25 -4.34375 C 2.25 -4.453125 2.171875 -4.59375 1.96875 -4.59375 C 1.78125 -4.59375 1.578125 -4.421875 1.578125 -4.21875 C 1.578125 -4.09375 1.671875 -3.953125 1.859375 -3.953125 C 2.0625 -3.953125 2.25 -4.15625 2.25 -4.34375 Z M 0.828125 -0.8125 C 0.8125 -0.71875 0.765625 -0.640625 0.765625 -0.515625 C 0.765625 -0.1875 1.046875 0.0625 1.421875 0.0625 C 2.125 0.0625 2.421875 -0.890625 2.421875 -0.984375 C 2.421875 -1.078125 2.34375 -1.078125 2.3125 -1.078125 C 2.21875 -1.078125 2.21875 -1.046875 2.1875 -0.96875 C 2.03125 -0.40625 1.71875 -0.125 1.453125 -0.125 C 1.3125 -0.125 1.28125 -0.21875 1.28125 -0.375 C 1.28125 -0.53125 1.328125 -0.65625 1.390625 -0.8125 C 1.453125 -1 1.53125 -1.1875 1.609375 -1.359375 C 1.671875 -1.53125 1.921875 -2.171875 1.953125 -2.25 C 1.96875 -2.3125 1.984375 -2.40625 1.984375 -2.46875 C 1.984375 -2.796875 1.71875 -3.0625 1.328125 -3.0625 C 0.640625 -3.0625 0.328125 -2.109375 0.328125 -2 C 0.328125 -1.90625 0.421875 -1.90625 0.4375 -1.90625 C 0.546875 -1.90625 0.546875 -1.9375 0.5625 -2.015625 C 0.75 -2.609375 1.046875 -2.859375 1.3125 -2.859375 C 1.421875 -2.859375 1.484375 -2.8125 1.484375 -2.625 C 1.484375 -2.46875 1.4375 -2.359375 1.265625 -1.921875 Z M 0.828125 -0.8125 "/></g><g id="2c9ff4565c4a488f1f62e061392e3446mrtk50ff__glyph-1-2"><path d="M 2.828125 -2.734375 L 3.5 -2.734375 C 3.640625 -2.734375 3.734375 -2.734375 3.734375 -2.890625 C 3.734375 -2.984375 3.640625 -2.984375 3.515625 -2.984375 L 2.875 -2.984375 C 3.03125 -3.875 3.09375 -4.1875 3.140625 -4.390625 C 3.171875 -4.546875 3.328125 -4.6875 3.5 -4.6875 C 3.5 -4.6875 3.6875 -4.6875 3.828125 -4.609375 C 3.53125 -4.515625 3.515625 -4.265625 3.515625 -4.21875 C 3.515625 -4.078125 3.640625 -3.96875 3.796875 -3.96875 C 3.984375 -3.96875 4.1875 -4.125 4.1875 -4.390625 C 4.1875 -4.703125 3.84375 -4.890625 3.5 -4.890625 C 3.1875 -4.890625 2.84375 -4.703125 2.65625 -4.359375 C 2.53125 -4.109375 2.46875 -3.796875 2.328125 -2.984375 L 1.78125 -2.984375 C 1.640625 -2.984375 1.546875 -2.984375 1.546875 -2.84375 C 1.546875 -2.734375 1.640625 -2.734375 1.765625 -2.734375 L 2.28125 -2.734375 C 2.265625 -2.703125 1.828125 -0.203125 1.671875 0.546875 C 1.625 0.6875 1.515625 1.21875 1.171875 1.21875 C 1.171875 1.21875 1 1.21875 0.875 1.140625 C 1.15625 1.046875 1.171875 0.796875 1.171875 0.75 C 1.171875 0.609375 1.0625 0.5 0.90625 0.5 C 0.71875 0.5 0.5 0.65625 0.5 0.921875 C 0.5 1.234375 0.828125 1.421875 1.171875 1.421875 C 1.625 1.421875 1.921875 0.953125 2.015625 0.8125 C 2.265625 0.34375 2.421875 -0.515625 2.4375 -0.59375 Z M 2.828125 -2.734375 "/></g><g id="2c9ff4565c4a488f1f62e061392e3446mrtk50ff__glyph-1-3"><path d="M 2.171875 -4.609375 C 2.171875 -4.625 2.203125 -4.703125 2.203125 -4.71875 C 2.203125 -4.75 2.171875 -4.8125 2.09375 -4.8125 C 1.953125 -4.8125 1.375 -4.765625 1.203125 -4.75 C 1.140625 -4.734375 1.046875 -4.734375 1.046875 -4.578125 C 1.046875 -4.484375 1.140625 -4.484375 1.234375 -4.484375 C 1.5625 -4.484375 1.5625 -4.4375 1.5625 -4.390625 C 1.5625 -4.34375 1.546875 -4.296875 1.53125 -4.234375 L 0.5625 -0.3125 C 0.515625 -0.1875 0.515625 -0.171875 0.515625 -0.15625 C 0.515625 -0.046875 0.609375 0.0625 0.75 0.0625 C 0.9375 0.0625 1.03125 -0.0625 1.078125 -0.21875 C 1.09375 -0.25 1.390625 -1.46875 1.421875 -1.5625 C 1.90625 -1.515625 2.296875 -1.359375 2.296875 -1 C 2.296875 -0.96875 2.296875 -0.921875 2.296875 -0.859375 C 2.265625 -0.75 2.265625 -0.71875 2.265625 -0.640625 C 2.265625 -0.15625 2.65625 0.0625 3 0.0625 C 3.671875 0.0625 3.875 -0.984375 3.875 -0.984375 C 3.875 -1.078125 3.78125 -1.078125 3.765625 -1.078125 C 3.671875 -1.078125 3.65625 -1.046875 3.625 -0.921875 C 3.546875 -0.625 3.359375 -0.125 3.015625 -0.125 C 2.828125 -0.125 2.78125 -0.296875 2.78125 -0.484375 C 2.78125 -0.609375 2.78125 -0.625 2.8125 -0.796875 C 2.828125 -0.8125 2.84375 -0.9375 2.84375 -1.015625 C 2.84375 -1.625 2.015625 -1.734375 1.734375 -1.75 C 1.921875 -1.875 2.1875 -2.109375 2.296875 -2.203125 C 2.65625 -2.546875 3 -2.859375 3.390625 -2.859375 C 3.46875 -2.859375 3.5625 -2.84375 3.625 -2.78125 C 3.328125 -2.71875 3.265625 -2.484375 3.265625 -2.390625 C 3.265625 -2.234375 3.375 -2.125 3.53125 -2.125 C 3.71875 -2.125 3.9375 -2.28125 3.9375 -2.578125 C 3.9375 -2.796875 3.765625 -3.0625 3.40625 -3.0625 C 3 -3.0625 2.640625 -2.78125 2.296875 -2.453125 C 2 -2.171875 1.765625 -1.953125 1.484375 -1.84375 Z M 2.171875 -4.609375 "/></g><g id="2c9ff4565c4a488f1f62e061392e3446mrtk50ff__glyph-1-4"><path d="M 0.515625 0.84375 C 0.46875 1.046875 0.453125 1.09375 0.1875 1.09375 C 0.09375 1.09375 0 1.09375 0 1.234375 C 0 1.3125 0.0625 1.34375 0.09375 1.34375 C 0.265625 1.34375 0.5 1.3125 0.6875 1.3125 C 0.921875 1.3125 1.1875 1.34375 1.421875 1.34375 C 1.484375 1.34375 1.546875 1.328125 1.546875 1.1875 C 1.546875 1.09375 1.453125 1.09375 1.375 1.09375 C 1.21875 1.09375 1.03125 1.09375 1.03125 1.015625 C 1.03125 0.984375 1.078125 0.796875 1.109375 0.6875 C 1.1875 0.328125 1.296875 -0.046875 1.359375 -0.34375 C 1.453125 -0.203125 1.671875 0.0625 2.078125 0.0625 C 2.921875 0.0625 3.859375 -0.875 3.859375 -1.90625 C 3.859375 -2.71875 3.296875 -3.0625 2.828125 -3.0625 C 2.390625 -3.0625 2.03125 -2.765625 1.84375 -2.578125 C 1.71875 -2.96875 1.328125 -3.0625 1.125 -3.0625 C 0.859375 -3.0625 0.6875 -2.875 0.578125 -2.6875 C 0.4375 -2.453125 0.328125 -2.046875 0.328125 -2 C 0.328125 -1.90625 0.421875 -1.90625 0.4375 -1.90625 C 0.546875 -1.90625 0.546875 -1.921875 0.59375 -2.109375 C 0.703125 -2.515625 0.828125 -2.859375 1.109375 -2.859375 C 1.28125 -2.859375 1.328125 -2.71875 1.328125 -2.53125 C 1.328125 -2.453125 1.3125 -2.359375 1.3125 -2.3125 Z M 1.828125 -2.234375 C 2.234375 -2.765625 2.578125 -2.859375 2.796875 -2.859375 C 3.078125 -2.859375 3.3125 -2.65625 3.3125 -2.1875 C 3.3125 -1.90625 3.15625 -1.203125 2.953125 -0.796875 C 2.78125 -0.453125 2.4375 -0.125 2.078125 -0.125 C 1.59375 -0.125 1.46875 -0.65625 1.46875 -0.734375 C 1.46875 -0.75 1.484375 -0.8125 1.484375 -0.828125 Z M 1.828125 -2.234375 "/></g><g id="2c9ff4565c4a488f1f62e061392e3446mrtk50ff__glyph-1-5"><path d="M 3.046875 -4.34375 C 3.046875 -4.453125 2.953125 -4.59375 2.765625 -4.59375 C 2.5625 -4.59375 2.375 -4.40625 2.375 -4.21875 C 2.375 -4.109375 2.46875 -3.953125 2.65625 -3.953125 C 2.84375 -3.953125 3.046875 -4.140625 3.046875 -4.34375 Z M 1.578125 0.34375 C 1.453125 0.8125 1.09375 1.21875 0.6875 1.21875 C 0.59375 1.21875 0.5 1.203125 0.4375 1.171875 C 0.609375 1.09375 0.671875 0.921875 0.671875 0.828125 C 0.671875 0.65625 0.53125 0.5625 0.390625 0.5625 C 0.1875 0.5625 0 0.75 0 0.984375 C 0 1.234375 0.265625 1.421875 0.6875 1.421875 C 1.109375 1.421875 1.921875 1.171875 2.125 0.3125 L 2.75 -2.171875 C 2.78125 -2.234375 2.78125 -2.296875 2.78125 -2.40625 C 2.78125 -2.78125 2.46875 -3.0625 2.046875 -3.0625 C 1.28125 -3.0625 0.828125 -2.09375 0.828125 -2 C 0.828125 -1.90625 0.921875 -1.90625 0.953125 -1.90625 C 1.03125 -1.90625 1.046875 -1.921875 1.09375 -2.03125 C 1.265625 -2.4375 1.625 -2.859375 2.03125 -2.859375 C 2.203125 -2.859375 2.265625 -2.75 2.265625 -2.53125 C 2.265625 -2.453125 2.25 -2.359375 2.234375 -2.3125 Z M 1.578125 0.34375 "/></g><g id="2c9ff4565c4a488f1f62e061392e3446mrtk50ff__glyph-2-0"><path d="M 3.28125 2.375 C 3.28125 2.34375 3.28125 2.328125 3.109375 2.15625 C 1.875 0.90625 1.5625 -0.953125 1.5625 -2.484375 C 1.5625 -4.203125 1.9375 -5.921875 3.15625 -7.15625 C 3.28125 -7.28125 3.28125 -7.296875 3.28125 -7.328125 C 3.28125 -7.40625 3.234375 -7.4375 3.1875 -7.4375 C 3.078125 -7.4375 2.1875 -6.75 1.609375 -5.5 C 1.09375 -4.40625 0.984375 -3.3125 0.984375 -2.484375 C 0.984375 -1.703125 1.09375 -0.5 1.640625 0.609375 C 2.234375 1.828125 3.078125 2.484375 3.1875 2.484375 C 3.234375 2.484375 3.28125 2.453125 3.28125 2.375 Z M 3.28125 2.375 "/></g><g id="2c9ff4565c4a488f1f62e061392e3446mrtk50ff__glyph-2-1"><path d="M 2.859375 -2.484375 C 2.859375 -3.25 2.75 -4.453125 2.203125 -5.5625 C 1.609375 -6.78125 0.765625 -7.4375 0.65625 -7.4375 C 0.609375 -7.4375 0.5625 -7.390625 0.5625 -7.328125 C 0.5625 -7.296875 0.5625 -7.28125 0.75 -7.109375 C 1.71875 -6.125 2.28125 -4.546875 2.28125 -2.484375 C 2.28125 -0.78125 1.921875 0.953125 0.6875 2.203125 C 0.5625 2.328125 0.5625 2.34375 0.5625 2.375 C 0.5625 2.4375 0.609375 2.484375 0.65625 2.484375 C 0.765625 2.484375 1.65625 1.796875 2.234375 0.546875 C 2.75 -0.546875 2.859375 -1.640625 2.859375 -2.484375 Z M 2.859375 -2.484375 "/></g><g id="2c9ff4565c4a488f1f62e061392e3446mrtk50ff__glyph-3-0"><path d="M 6.53125 -2.28125 C 6.703125 -2.28125 6.875 -2.28125 6.875 -2.484375 C 6.875 -2.671875 6.703125 -2.671875 6.53125 -2.671875 L 1.171875 -2.671875 C 1 -2.671875 0.828125 -2.671875 0.828125 -2.484375 C 0.828125 -2.28125 1 -2.28125 1.171875 -2.28125 Z M 6.53125 -2.28125 "/></g><g id="2c9ff4565c4a488f1f62e061392e3446mrtk50ff__glyph-3-1"><path d="M 2.796875 -6.109375 C 2.796875 -6.515625 3.0625 -7.140625 4.140625 -7.21875 C 4.1875 -7.21875 4.234375 -7.265625 4.234375 -7.328125 C 4.234375 -7.4375 4.15625 -7.4375 4.046875 -7.4375 C 3.046875 -7.4375 2.15625 -6.921875 2.140625 -6.1875 L 2.140625 -3.9375 C 2.140625 -3.546875 2.140625 -3.234375 1.75 -2.90625 C 1.390625 -2.609375 1.015625 -2.59375 0.796875 -2.578125 C 0.75 -2.578125 0.71875 -2.53125 0.71875 -2.484375 C 0.71875 -2.375 0.765625 -2.375 0.875 -2.375 C 1.53125 -2.328125 2 -1.96875 2.109375 -1.484375 C 2.140625 -1.375 2.140625 -1.359375 2.140625 -1 L 2.140625 0.953125 C 2.140625 1.375 2.140625 1.6875 2.609375 2.078125 C 3 2.375 3.65625 2.484375 4.046875 2.484375 C 4.15625 2.484375 4.234375 2.484375 4.234375 2.375 C 4.234375 2.265625 4.171875 2.265625 4.078125 2.265625 C 3.453125 2.21875 2.96875 1.90625 2.828125 1.390625 C 2.796875 1.3125 2.796875 1.28125 2.796875 0.9375 L 2.796875 -1.15625 C 2.796875 -1.609375 2.71875 -1.765625 2.40625 -2.09375 C 2.203125 -2.296875 1.90625 -2.390625 1.640625 -2.484375 C 2.453125 -2.703125 2.796875 -3.15625 2.796875 -3.734375 Z M 2.796875 -6.109375 "/></g><g id="2c9ff4565c4a488f1f62e061392e3446mrtk50ff__glyph-3-2"><path d="M 2.140625 1.15625 C 2.140625 1.5625 1.875 2.1875 0.796875 2.265625 C 0.75 2.265625 0.71875 2.3125 0.71875 2.375 C 0.71875 2.484375 0.828125 2.484375 0.90625 2.484375 C 1.875 2.484375 2.796875 1.984375 2.796875 1.234375 L 2.796875 -1.015625 C 2.796875 -1.40625 2.796875 -1.71875 3.203125 -2.046875 C 3.546875 -2.34375 3.921875 -2.359375 4.140625 -2.375 C 4.1875 -2.375 4.234375 -2.421875 4.234375 -2.484375 C 4.234375 -2.578125 4.171875 -2.578125 4.078125 -2.578125 C 3.421875 -2.625 2.9375 -2.984375 2.828125 -3.46875 C 2.796875 -3.578125 2.796875 -3.59375 2.796875 -3.953125 L 2.796875 -5.90625 C 2.796875 -6.328125 2.796875 -6.640625 2.328125 -7.03125 C 1.9375 -7.328125 1.25 -7.4375 0.90625 -7.4375 C 0.828125 -7.4375 0.71875 -7.4375 0.71875 -7.328125 C 0.71875 -7.21875 0.765625 -7.21875 0.875 -7.21875 C 1.5 -7.171875 1.984375 -6.859375 2.109375 -6.34375 C 2.140625 -6.265625 2.140625 -6.234375 2.140625 -5.890625 L 2.140625 -3.796875 C 2.140625 -3.34375 2.21875 -3.1875 2.53125 -2.859375 C 2.75 -2.65625 3.03125 -2.5625 3.3125 -2.484375 C 2.5 -2.25 2.140625 -1.796875 2.140625 -1.21875 Z M 2.140625 1.15625 "/></g><g id="2c9ff4565c4a488f1f62e061392e3446mrtk50ff__glyph-4-0"><path d="M 5.15625 -1.5625 C 5.265625 -1.5625 5.4375 -1.5625 5.4375 -1.734375 C 5.4375 -1.90625 5.28125 -1.90625 5.15625 -1.90625 L 1.03125 -1.90625 C 0.921875 -1.90625 0.75 -1.90625 0.75 -1.734375 C 0.75 -1.5625 0.90625 -1.5625 1.03125 -1.5625 Z M 5.15625 -1.5625 "/></g><g id="2c9ff4565c4a488f1f62e061392e3446mrtk50ff__glyph-4-1"><path d="M 5.65625 -2.390625 C 5.65625 -2.65625 5.5625 -2.65625 5.53125 -2.65625 C 5.4375 -2.65625 5.421875 -2.46875 5.421875 -2.375 C 5.390625 -1.859375 5.015625 -1.28125 4.375 -1.28125 C 3.875 -1.28125 3.53125 -1.609375 3.140625 -1.953125 C 2.78125 -2.296875 2.359375 -2.65625 1.8125 -2.65625 C 1.03125 -2.65625 0.53125 -1.859375 0.53125 -1.078125 C 0.53125 -0.8125 0.625 -0.8125 0.65625 -0.8125 C 0.75 -0.8125 0.765625 -0.984375 0.765625 -1.09375 C 0.796875 -1.609375 1.171875 -2.1875 1.8125 -2.1875 C 2.3125 -2.1875 2.65625 -1.859375 3.046875 -1.515625 C 3.40625 -1.171875 3.828125 -0.8125 4.375 -0.8125 C 5.15625 -0.8125 5.65625 -1.609375 5.65625 -2.390625 Z M 5.65625 -2.390625 "/></g><g id="2c9ff4565c4a488f1f62e061392e3446mrtk50ff__glyph-5-0"><path d="M 2.328125 -4.40625 C 2.328125 -4.59375 2.3125 -4.609375 2.109375 -4.609375 C 1.671875 -4.171875 1.046875 -4.15625 0.75 -4.15625 L 0.75 -3.90625 C 0.921875 -3.90625 1.375 -3.90625 1.765625 -4.109375 L 1.765625 -0.5625 C 1.765625 -0.34375 1.765625 -0.25 1.0625 -0.25 L 0.8125 -0.25 L 0.8125 0 C 0.921875 0 1.78125 -0.03125 2.046875 -0.03125 C 2.25 -0.03125 3.125 0 3.28125 0 L 3.28125 -0.25 L 3.015625 -0.25 C 2.328125 -0.25 2.328125 -0.34375 2.328125 -0.5625 Z M 2.328125 -4.40625 "/></g><g id="2c9ff4565c4a488f1f62e061392e3446mrtk50ff__glyph-5-1"><path d="M 5.328125 -2.328125 C 5.4375 -2.328125 5.59375 -2.328125 5.59375 -2.5 C 5.59375 -2.671875 5.421875 -2.671875 5.328125 -2.671875 L 0.75 -2.671875 C 0.65625 -2.671875 0.484375 -2.671875 0.484375 -2.5 C 0.484375 -2.328125 0.640625 -2.328125 0.75 -2.328125 Z M 5.328125 -0.8125 C 5.421875 -0.8125 5.59375 -0.8125 5.59375 -0.96875 C 5.59375 -1.140625 5.4375 -1.140625 5.328125 -1.140625 L 0.75 -1.140625 C 0.640625 -1.140625 0.484375 -1.140625 0.484375 -0.96875 C 0.484375 -0.8125 0.65625 -0.8125 0.75 -0.8125 Z M 5.328125 -0.8125 "/></g><g id="2c9ff4565c4a488f1f62e061392e3446mrtk50ff__glyph-6-0"><path d="M 1.90625 -1.359375 C 1.921875 -1.46875 2 -2.09375 2 -2.140625 C 2 -2.234375 1.921875 -2.296875 1.828125 -2.296875 C 1.71875 -2.296875 1.65625 -2.21875 1.65625 -2.15625 C 1.65625 -2.09375 1.71875 -1.46875 1.734375 -1.359375 L 0.96875 -1.828125 C 0.921875 -1.859375 0.90625 -1.875 0.859375 -1.875 C 0.78125 -1.875 0.6875 -1.796875 0.6875 -1.6875 C 0.6875 -1.609375 0.734375 -1.5625 0.796875 -1.546875 C 1.0625 -1.4375 1.34375 -1.328125 1.625 -1.234375 C 1.34375 -1.140625 0.890625 -0.96875 0.8125 -0.9375 C 0.765625 -0.921875 0.6875 -0.890625 0.6875 -0.78125 C 0.6875 -0.671875 0.78125 -0.59375 0.859375 -0.59375 C 0.90625 -0.59375 1.0625 -0.6875 1.734375 -1.109375 C 1.71875 -1 1.65625 -0.375 1.65625 -0.328125 C 1.65625 -0.25 1.71875 -0.171875 1.828125 -0.171875 C 1.921875 -0.171875 2 -0.234375 2 -0.328125 C 2 -0.375 1.921875 -1 1.90625 -1.109375 L 2.6875 -0.640625 C 2.71875 -0.609375 2.75 -0.59375 2.78125 -0.59375 C 2.875 -0.59375 2.953125 -0.671875 2.953125 -0.78125 C 2.953125 -0.859375 2.90625 -0.90625 2.859375 -0.9375 C 2.578125 -1.046875 2.296875 -1.140625 2.015625 -1.234375 C 2.296875 -1.34375 2.75 -1.5 2.84375 -1.53125 C 2.875 -1.546875 2.953125 -1.578125 2.953125 -1.6875 C 2.953125 -1.796875 2.875 -1.875 2.78125 -1.875 C 2.75 -1.875 2.71875 -1.859375 2.671875 -1.828125 Z M 1.90625 -1.359375 "/></g><g id="2c9ff4565c4a488f1f62e061392e3446mrtk50ff__glyph-7-0"><path d="M 1.96875 -3.09375 C 1.96875 -3.203125 1.875 -3.296875 1.75 -3.296875 C 1.609375 -3.296875 1.4375 -3.171875 1.4375 -3 C 1.4375 -2.875 1.546875 -2.796875 1.65625 -2.796875 C 1.8125 -2.796875 1.96875 -2.9375 1.96875 -3.09375 Z M 2.1875 -0.71875 C 2.1875 -0.78125 2.109375 -0.78125 2.09375 -0.78125 C 2 -0.78125 2 -0.765625 1.96875 -0.671875 C 1.890625 -0.390625 1.671875 -0.109375 1.421875 -0.109375 C 1.296875 -0.109375 1.265625 -0.1875 1.265625 -0.296875 C 1.265625 -0.40625 1.296875 -0.453125 1.328125 -0.5625 C 1.375 -0.65625 1.40625 -0.75 1.4375 -0.828125 C 1.453125 -0.859375 1.65625 -1.328125 1.71875 -1.5 C 1.765625 -1.609375 1.78125 -1.671875 1.78125 -1.75 C 1.78125 -1.984375 1.5625 -2.1875 1.25 -2.1875 C 0.734375 -2.1875 0.453125 -1.5625 0.453125 -1.421875 C 0.453125 -1.359375 0.53125 -1.359375 0.5625 -1.359375 C 0.640625 -1.359375 0.640625 -1.375 0.671875 -1.453125 C 0.78125 -1.796875 1.015625 -2.015625 1.234375 -2.015625 C 1.328125 -2.015625 1.375 -1.96875 1.375 -1.828125 C 1.375 -1.8125 1.375 -1.75 1.34375 -1.65625 C 1.3125 -1.5625 1.09375 -1.03125 1.015625 -0.859375 C 0.984375 -0.78125 0.984375 -0.765625 0.90625 -0.609375 C 0.890625 -0.53125 0.859375 -0.46875 0.859375 -0.375 C 0.859375 -0.125 1.09375 0.046875 1.390625 0.046875 C 1.921875 0.046875 2.1875 -0.59375 2.1875 -0.71875 Z M 2.1875 -0.71875 "/></g></g></defs><g fill="rgb(0%, 0%, 0%)" fill-opacity="1"><use xlink:href="#2c9ff4565c4a488f1f62e061392e3446mrtk50ff__glyph-0-0" x="185.764547" y="13.102787"/></g><g fill="rgb(0%, 0%, 0%)" fill-opacity="1"><use xlink:href="#2c9ff4565c4a488f1f62e061392e3446mrtk50ff__glyph-1-0" x="193.997659" y="14.588147"/></g><g fill="rgb(0%, 0%, 0%)" fill-opacity="1"><use xlink:href="#2c9ff4565c4a488f1f62e061392e3446mrtk50ff__glyph-2-0" x="199.389298" y="13.102787"/></g><g fill="rgb(0%, 0%, 0%)" fill-opacity="1"><use xlink:href="#2c9ff4565c4a488f1f62e061392e3446mrtk50ff__glyph-0-1" x="203.241347" y="13.102787"/></g><g fill="rgb(0%, 0%, 0%)" fill-opacity="1"><use xlink:href="#2c9ff4565c4a488f1f62e061392e3446mrtk50ff__glyph-1-1" x="210.004553" y="14.588147"/></g><g fill="rgb(0%, 0%, 0%)" fill-opacity="1"><use xlink:href="#2c9ff4565c4a488f1f62e061392e3446mrtk50ff__glyph-0-2" x="213.302371" y="13.102787"/></g><g fill="rgb(0%, 0%, 0%)" fill-opacity="1"><use xlink:href="#2c9ff4565c4a488f1f62e061392e3446mrtk50ff__glyph-0-1" x="217.708109" y="13.102787"/></g><g fill="rgb(0%, 0%, 0%)" fill-opacity="1"><use xlink:href="#2c9ff4565c4a488f1f62e061392e3446mrtk50ff__glyph-1-1" x="224.467429" y="14.588147"/></g><g fill="rgb(0%, 0%, 0%)" fill-opacity="1"><use xlink:href="#2c9ff4565c4a488f1f62e061392e3446mrtk50ff__glyph-3-0" x="229.965449" y="13.102787"/></g><g fill="rgb(0%, 0%, 0%)" fill-opacity="1"><use xlink:href="#2c9ff4565c4a488f1f62e061392e3446mrtk50ff__glyph-3-1" x="239.868455" y="13.102787"/></g><g fill="rgb(0%, 0%, 0%)" fill-opacity="1"><use xlink:href="#2c9ff4565c4a488f1f62e061392e3446mrtk50ff__glyph-0-3" x="244.820948" y="13.102787"/></g><g fill="rgb(0%, 0%, 0%)" fill-opacity="1"><use xlink:href="#2c9ff4565c4a488f1f62e061392e3446mrtk50ff__glyph-1-1" x="250.484101" y="14.588147"/></g><g fill="rgb(0%, 0%, 0%)" fill-opacity="1"><use xlink:href="#2c9ff4565c4a488f1f62e061392e3446mrtk50ff__glyph-3-2" x="253.781919" y="13.102787"/></g><g fill="rgb(0%, 0%, 0%)" fill-opacity="1"><use xlink:href="#2c9ff4565c4a488f1f62e061392e3446mrtk50ff__glyph-2-1" x="258.734412" y="13.102787"/></g><g fill="rgb(0%, 0%, 0%)" fill-opacity="1"><use xlink:href="#2c9ff4565c4a488f1f62e061392e3446mrtk50ff__glyph-0-0" x="335.771022" y="13.102787"/></g><g fill="rgb(0%, 0%, 0%)" fill-opacity="1"><use xlink:href="#2c9ff4565c4a488f1f62e061392e3446mrtk50ff__glyph-1-0" x="344.005128" y="14.588147"/></g><g fill="rgb(0%, 0%, 0%)" fill-opacity="1"><use xlink:href="#2c9ff4565c4a488f1f62e061392e3446mrtk50ff__glyph-2-0" x="349.396767" y="13.102787"/></g><g fill="rgb(0%, 0%, 0%)" fill-opacity="1"><use xlink:href="#2c9ff4565c4a488f1f62e061392e3446mrtk50ff__glyph-0-4" x="353.248816" y="13.102787"/></g><g fill="rgb(0%, 0%, 0%)" fill-opacity="1"><use xlink:href="#2c9ff4565c4a488f1f62e061392e3446mrtk50ff__glyph-0-2" x="359.581074" y="13.102787"/></g><g fill="rgb(0%, 0%, 0%)" fill-opacity="1"><use xlink:href="#2c9ff4565c4a488f1f62e061392e3446mrtk50ff__glyph-0-4" x="363.976908" y="13.102787"/></g><g fill="rgb(0%, 0%, 0%)" fill-opacity="1"><use xlink:href="#2c9ff4565c4a488f1f62e061392e3446mrtk50ff__glyph-3-0" x="374.162206" y="13.102787"/></g><g fill="rgb(0%, 0%, 0%)" fill-opacity="1"><use xlink:href="#2c9ff4565c4a488f1f62e061392e3446mrtk50ff__glyph-3-1" x="384.065211" y="13.102787"/></g><g fill="rgb(0%, 0%, 0%)" fill-opacity="1"><use xlink:href="#2c9ff4565c4a488f1f62e061392e3446mrtk50ff__glyph-0-5" x="389.017705" y="13.102787"/></g><g fill="rgb(0%, 0%, 0%)" fill-opacity="1"><use xlink:href="#2c9ff4565c4a488f1f62e061392e3446mrtk50ff__glyph-3-2" x="394.230699" y="13.102787"/></g><g fill="rgb(0%, 0%, 0%)" fill-opacity="1"><use xlink:href="#2c9ff4565c4a488f1f62e061392e3446mrtk50ff__glyph-2-1" x="399.183193" y="13.102787"/></g><g fill="rgb(0%, 0%, 0%)" fill-opacity="1"><use xlink:href="#2c9ff4565c4a488f1f62e061392e3446mrtk50ff__glyph-0-0" x="36.68866" y="66.549907"/></g><g fill="rgb(0%, 0%, 0%)" fill-opacity="1"><use xlink:href="#2c9ff4565c4a488f1f62e061392e3446mrtk50ff__glyph-1-0" x="44.921771" y="68.035267"/></g><g fill="rgb(0%, 0%, 0%)" fill-opacity="1"><use xlink:href="#2c9ff4565c4a488f1f62e061392e3446mrtk50ff__glyph-2-0" x="50.31341" y="66.549907"/></g><g fill="rgb(0%, 0%, 0%)" fill-opacity="1"><use xlink:href="#2c9ff4565c4a488f1f62e061392e3446mrtk50ff__glyph-0-6" x="54.165459" y="66.549907"/></g><g fill="rgb(0%, 0%, 0%)" fill-opacity="1"><use xlink:href="#2c9ff4565c4a488f1f62e061392e3446mrtk50ff__glyph-1-0" x="60.810354" y="62.954818"/></g><g fill="rgb(0%, 0%, 0%)" fill-opacity="1"><use xlink:href="#2c9ff4565c4a488f1f62e061392e3446mrtk50ff__glyph-0-2" x="66.201993" y="66.549907"/></g><g fill="rgb(0%, 0%, 0%)" fill-opacity="1"><use xlink:href="#2c9ff4565c4a488f1f62e061392e3446mrtk50ff__glyph-0-6" x="70.607731" y="66.549907"/></g><g fill="rgb(0%, 0%, 0%)" fill-opacity="1"><use xlink:href="#2c9ff4565c4a488f1f62e061392e3446mrtk50ff__glyph-1-0" x="77.248738" y="62.954818"/></g><g fill="rgb(0%, 0%, 0%)" fill-opacity="1"><use xlink:href="#2c9ff4565c4a488f1f62e061392e3446mrtk50ff__glyph-3-0" x="84.841574" y="66.549907"/></g><g fill="rgb(0%, 0%, 0%)" fill-opacity="1"><use xlink:href="#2c9ff4565c4a488f1f62e061392e3446mrtk50ff__glyph-3-1" x="94.74458" y="66.549907"/></g><g fill="rgb(0%, 0%, 0%)" fill-opacity="1"><use xlink:href="#2c9ff4565c4a488f1f62e061392e3446mrtk50ff__glyph-0-3" x="99.697073" y="66.549907"/></g><g fill="rgb(0%, 0%, 0%)" fill-opacity="1"><use xlink:href="#2c9ff4565c4a488f1f62e061392e3446mrtk50ff__glyph-1-1" x="105.360226" y="68.035267"/></g><g fill="rgb(0%, 0%, 0%)" fill-opacity="1"><use xlink:href="#2c9ff4565c4a488f1f62e061392e3446mrtk50ff__glyph-3-2" x="108.657049" y="66.549907"/></g><g fill="rgb(0%, 0%, 0%)" fill-opacity="1"><use xlink:href="#2c9ff4565c4a488f1f62e061392e3446mrtk50ff__glyph-2-1" x="113.609543" y="66.549907"/></g><g fill="rgb(0%, 0%, 0%)" fill-opacity="1"><use xlink:href="#2c9ff4565c4a488f1f62e061392e3446mrtk50ff__glyph-0-0" x="173.535678" y="66.549907"/></g><g fill="rgb(0%, 0%, 0%)" fill-opacity="1"><use xlink:href="#2c9ff4565c4a488f1f62e061392e3446mrtk50ff__glyph-1-0" x="181.768789" y="68.035267"/></g><g fill="rgb(0%, 0%, 0%)" fill-opacity="1"><use xlink:href="#2c9ff4565c4a488f1f62e061392e3446mrtk50ff__glyph-2-0" x="187.160428" y="66.549907"/></g><g fill="rgb(0%, 0%, 0%)" fill-opacity="1"><use xlink:href="#2c9ff4565c4a488f1f62e061392e3446mrtk50ff__glyph-0-6" x="191.012477" y="66.549907"/></g><g fill="rgb(0%, 0%, 0%)" fill-opacity="1"><use xlink:href="#2c9ff4565c4a488f1f62e061392e3446mrtk50ff__glyph-1-0" x="197.657372" y="62.954818"/></g><g fill="rgb(0%, 0%, 0%)" fill-opacity="1"><use xlink:href="#2c9ff4565c4a488f1f62e061392e3446mrtk50ff__glyph-0-2" x="203.049011" y="66.549907"/></g><g fill="rgb(0%, 0%, 0%)" fill-opacity="1"><use xlink:href="#2c9ff4565c4a488f1f62e061392e3446mrtk50ff__glyph-0-6" x="207.454749" y="66.549907"/></g><g fill="rgb(0%, 0%, 0%)" fill-opacity="1"><use xlink:href="#2c9ff4565c4a488f1f62e061392e3446mrtk50ff__glyph-1-0" x="214.095756" y="62.954818"/></g><g fill="rgb(0%, 0%, 0%)" fill-opacity="1"><use xlink:href="#2c9ff4565c4a488f1f62e061392e3446mrtk50ff__glyph-3-0" x="221.688592" y="66.549907"/></g><g fill="rgb(0%, 0%, 0%)" fill-opacity="1"><use xlink:href="#2c9ff4565c4a488f1f62e061392e3446mrtk50ff__glyph-0-7" x="231.591598" y="66.549907"/></g><g fill="rgb(0%, 0%, 0%)" fill-opacity="1"><use xlink:href="#2c9ff4565c4a488f1f62e061392e3446mrtk50ff__glyph-4-0" x="237.508574" y="62.954818"/></g><g fill="rgb(0%, 0%, 0%)" fill-opacity="1"><use xlink:href="#2c9ff4565c4a488f1f62e061392e3446mrtk50ff__glyph-5-0" x="243.69947" y="62.954818"/></g><g fill="rgb(0%, 0%, 0%)" fill-opacity="1"><use xlink:href="#2c9ff4565c4a488f1f62e061392e3446mrtk50ff__glyph-2-0" x="248.142719" y="66.549907"/></g><g fill="rgb(0%, 0%, 0%)" fill-opacity="1"><use xlink:href="#2c9ff4565c4a488f1f62e061392e3446mrtk50ff__glyph-3-1" x="251.994769" y="66.549907"/></g><g fill="rgb(0%, 0%, 0%)" fill-opacity="1"><use xlink:href="#2c9ff4565c4a488f1f62e061392e3446mrtk50ff__glyph-0-5" x="256.947262" y="66.549907"/></g><g fill="rgb(0%, 0%, 0%)" fill-opacity="1"><use xlink:href="#2c9ff4565c4a488f1f62e061392e3446mrtk50ff__glyph-3-2" x="262.160257" y="66.549907"/></g><g fill="rgb(0%, 0%, 0%)" fill-opacity="1"><use xlink:href="#2c9ff4565c4a488f1f62e061392e3446mrtk50ff__glyph-2-1" x="267.11275" y="66.549907"/><use xlink:href="#2c9ff4565c4a488f1f62e061392e3446mrtk50ff__glyph-2-1" x="270.9648" y="66.549907"/></g><g fill="rgb(0%, 0%, 0%)" fill-opacity="1"><use xlink:href="#2c9ff4565c4a488f1f62e061392e3446mrtk50ff__glyph-0-0" x="330.888422" y="66.549907"/></g><g fill="rgb(0%, 0%, 0%)" fill-opacity="1"><use xlink:href="#2c9ff4565c4a488f1f62e061392e3446mrtk50ff__glyph-1-0" x="339.122528" y="68.035267"/></g><g fill="rgb(0%, 0%, 0%)" fill-opacity="1"><use xlink:href="#2c9ff4565c4a488f1f62e061392e3446mrtk50ff__glyph-2-0" x="344.514167" y="66.549907"/></g><g fill="rgb(0%, 0%, 0%)" fill-opacity="1"><use xlink:href="#2c9ff4565c4a488f1f62e061392e3446mrtk50ff__glyph-0-6" x="348.366216" y="66.549907"/></g><g fill="rgb(0%, 0%, 0%)" fill-opacity="1"><use xlink:href="#2c9ff4565c4a488f1f62e061392e3446mrtk50ff__glyph-1-0" x="355.011111" y="62.954818"/></g><g fill="rgb(0%, 0%, 0%)" fill-opacity="1"><use xlink:href="#2c9ff4565c4a488f1f62e061392e3446mrtk50ff__glyph-0-2" x="360.40275" y="66.549907"/></g><g fill="rgb(0%, 0%, 0%)" fill-opacity="1"><use xlink:href="#2c9ff4565c4a488f1f62e061392e3446mrtk50ff__glyph-0-6" x="364.808488" y="66.549907"/></g><g fill="rgb(0%, 0%, 0%)" fill-opacity="1"><use xlink:href="#2c9ff4565c4a488f1f62e061392e3446mrtk50ff__glyph-1-0" x="371.449495" y="62.954818"/></g><g fill="rgb(0%, 0%, 0%)" fill-opacity="1"><use xlink:href="#2c9ff4565c4a488f1f62e061392e3446mrtk50ff__glyph-3-0" x="379.041337" y="66.549907"/></g><g fill="rgb(0%, 0%, 0%)" fill-opacity="1"><use xlink:href="#2c9ff4565c4a488f1f62e061392e3446mrtk50ff__glyph-3-1" x="388.944343" y="66.549907"/></g><g fill="rgb(0%, 0%, 0%)" fill-opacity="1"><use xlink:href="#2c9ff4565c4a488f1f62e061392e3446mrtk50ff__glyph-0-5" x="393.896836" y="66.549907"/></g><g fill="rgb(0%, 0%, 0%)" fill-opacity="1"><use xlink:href="#2c9ff4565c4a488f1f62e061392e3446mrtk50ff__glyph-3-2" x="399.109831" y="66.549907"/></g><g fill="rgb(0%, 0%, 0%)" fill-opacity="1"><use xlink:href="#2c9ff4565c4a488f1f62e061392e3446mrtk50ff__glyph-2-1" x="404.062324" y="66.549907"/></g><g fill="rgb(0%, 0%, 0%)" fill-opacity="1"><use xlink:href="#2c9ff4565c4a488f1f62e061392e3446mrtk50ff__glyph-0-0" x="207.493161" y="119.362717"/></g><g fill="rgb(0%, 0%, 0%)" fill-opacity="1"><use xlink:href="#2c9ff4565c4a488f1f62e061392e3446mrtk50ff__glyph-1-0" x="215.726272" y="120.848077"/></g><g fill="rgb(0%, 0%, 0%)" fill-opacity="1"><use xlink:href="#2c9ff4565c4a488f1f62e061392e3446mrtk50ff__glyph-2-0" x="221.117912" y="119.362717"/></g><g fill="rgb(0%, 0%, 0%)" fill-opacity="1"><use xlink:href="#2c9ff4565c4a488f1f62e061392e3446mrtk50ff__glyph-0-6" x="224.969961" y="119.362717"/></g><g fill="rgb(0%, 0%, 0%)" fill-opacity="1"><use xlink:href="#2c9ff4565c4a488f1f62e061392e3446mrtk50ff__glyph-1-0" x="231.614855" y="115.768622"/></g><g fill="rgb(0%, 0%, 0%)" fill-opacity="1"><use xlink:href="#2c9ff4565c4a488f1f62e061392e3446mrtk50ff__glyph-2-1" x="237.006494" y="119.362717"/></g><g fill="rgb(0%, 0%, 0%)" fill-opacity="1"><use xlink:href="#2c9ff4565c4a488f1f62e061392e3446mrtk50ff__glyph-0-0" x="352.71944" y="119.362717"/></g><g fill="rgb(0%, 0%, 0%)" fill-opacity="1"><use xlink:href="#2c9ff4565c4a488f1f62e061392e3446mrtk50ff__glyph-1-0" x="360.952552" y="120.848077"/></g><g fill="rgb(0%, 0%, 0%)" fill-opacity="1"><use xlink:href="#2c9ff4565c4a488f1f62e061392e3446mrtk50ff__glyph-2-0" x="366.344191" y="119.362717"/></g><g fill="rgb(0%, 0%, 0%)" fill-opacity="1"><use xlink:href="#2c9ff4565c4a488f1f62e061392e3446mrtk50ff__glyph-0-6" x="370.19624" y="119.362717"/></g><g fill="rgb(0%, 0%, 0%)" fill-opacity="1"><use xlink:href="#2c9ff4565c4a488f1f62e061392e3446mrtk50ff__glyph-1-0" x="376.841135" y="115.768622"/></g><g fill="rgb(0%, 0%, 0%)" fill-opacity="1"><use xlink:href="#2c9ff4565c4a488f1f62e061392e3446mrtk50ff__glyph-2-1" x="382.232774" y="119.362717"/></g><path fill="none" stroke="rgb(0%, 0%, 0%)" stroke-linecap="butt" stroke-linejoin="miter" stroke-miterlimit="10" stroke-opacity="1" stroke-width="0.39848" d="M 45.009042 53.440199 L 109.243789 53.440199 " transform="matrix(0.994217, 0, 0, -0.994217, 222.302024, 63.756157)"/><path fill="none" stroke="rgb(0%, 0%, 0%)" stroke-linecap="round" stroke-linejoin="round" stroke-miterlimit="10" stroke-opacity="1" stroke-width="0.39848" d="M -2.07337 2.389183 C -1.69226 0.955109 -0.85146 0.279326 0.0011269 0.000368809 C -0.85146 -0.278588 -1.69226 -0.954371 -2.07337 -2.392375 " transform="matrix(0.994217, 0, 0, -0.994217, 331.112161, 10.625367)"/><g fill="rgb(0%, 0%, 0%)" fill-opacity="1"><use xlink:href="#2c9ff4565c4a488f1f62e061392e3446mrtk50ff__glyph-1-2" x="295.17714" y="6.947589"/></g><g fill="rgb(0%, 0%, 0%)" fill-opacity="1"><use xlink:href="#2c9ff4565c4a488f1f62e061392e3446mrtk50ff__glyph-6-0" x="299.039673" y="7.937829"/></g><path fill="none" stroke="rgb(0%, 0%, 0%)" stroke-linecap="butt" stroke-linejoin="miter" stroke-miterlimit="10" stroke-opacity="1" stroke-width="0.39848" d="M -22.408172 44.611801 L -121.414313 8.642071 " transform="matrix(0.994217, 0, 0, -0.994217, 222.302024, 63.756157)"/><path fill="none" stroke="rgb(0%, 0%, 0%)" stroke-linecap="round" stroke-linejoin="round" stroke-miterlimit="10" stroke-opacity="1" stroke-width="0.39848" d="M -2.070508 2.391596 C -1.693786 0.954662 -0.848009 0.279525 -0.000335042 0.000825364 C -0.850529 -0.279719 -1.693893 -0.955691 -2.072787 -2.389828 " transform="matrix(-0.934445, 0.339485, 0.339485, 0.934445, 101.40175, 55.229811)"/><g fill="rgb(0%, 0%, 0%)" fill-opacity="1"><use xlink:href="#2c9ff4565c4a488f1f62e061392e3446mrtk50ff__glyph-4-1" x="142.098534" y="32.851914"/></g><g fill="rgb(0%, 0%, 0%)" fill-opacity="1"><use xlink:href="#2c9ff4565c4a488f1f62e061392e3446mrtk50ff__glyph-5-1" x="142.15421" y="35.019307"/></g><path fill="none" stroke="rgb(0%, 0%, 0%)" stroke-linecap="butt" stroke-linejoin="miter" stroke-miterlimit="10" stroke-opacity="1" stroke-width="0.39848" d="M 1.884656 44.611801 L 1.884656 9.545735 " transform="matrix(0.994217, 0, 0, -0.994217, 222.302024, 63.756157)"/><path fill="none" stroke="rgb(0%, 0%, 0%)" stroke-linecap="round" stroke-linejoin="round" stroke-miterlimit="10" stroke-opacity="1" stroke-width="0.39848" d="M -2.071135 2.38904 C -1.693953 0.954966 -0.849225 0.279183 -0.000566981 0.000226083 C -0.849225 -0.278731 -1.693953 -0.954514 -2.071135 -2.392517 " transform="matrix(0, 0.994217, 0.994217, 0, 224.175556, 54.465407)"/><g fill="rgb(0%, 0%, 0%)" fill-opacity="1"><use xlink:href="#2c9ff4565c4a488f1f62e061392e3446mrtk50ff__glyph-1-3" x="226.505574" y="38.94547"/></g><g fill="rgb(0%, 0%, 0%)" fill-opacity="1"><use xlink:href="#2c9ff4565c4a488f1f62e061392e3446mrtk50ff__glyph-7-0" x="230.717077" y="39.935711"/></g><path fill="none" stroke="rgb(0%, 0%, 0%)" stroke-linecap="butt" stroke-linejoin="miter" stroke-miterlimit="10" stroke-opacity="1" stroke-width="0.39848" d="M 147.955941 44.611801 L 147.955941 8.905312 " transform="matrix(0.994217, 0, 0, -0.994217, 222.302024, 63.756157)"/><path fill="none" stroke="rgb(0%, 0%, 0%)" stroke-linecap="round" stroke-linejoin="round" stroke-miterlimit="10" stroke-opacity="1" stroke-width="0.39848" d="M -2.072281 2.390934 C -1.6951 0.95686 -0.850371 0.277148 -0.00171367 -0.0018091 C -0.850371 -0.280766 -1.6951 -0.956549 -2.072281 -2.390623 " transform="matrix(0, 0.994217, 0.994217, 0, 369.404142, 55.09936)"/><g fill="rgb(0%, 0%, 0%)" fill-opacity="1"><use xlink:href="#2c9ff4565c4a488f1f62e061392e3446mrtk50ff__glyph-4-1" x="371.732847" y="37.597312"/></g><g fill="rgb(0%, 0%, 0%)" fill-opacity="1"><use xlink:href="#2c9ff4565c4a488f1f62e061392e3446mrtk50ff__glyph-5-1" x="371.787529" y="39.764705"/></g><path fill="none" stroke="rgb(0%, 0%, 0%)" stroke-linecap="butt" stroke-linejoin="miter" stroke-miterlimit="10" stroke-opacity="1" stroke-width="0.39848" d="M -53.541338 -0.319912 L -100.563263 -0.319912 " transform="matrix(0.994217, 0, 0, -0.994217, 222.302024, 63.756157)"/><path fill="none" stroke="rgb(0%, 0%, 0%)" stroke-linecap="round" stroke-linejoin="round" stroke-miterlimit="10" stroke-opacity="1" stroke-width="0.39848" d="M -2.073946 2.389926 C -1.692836 0.955852 -0.848107 0.280069 0.000550949 0.00111174 C -0.848107 -0.277845 -1.692836 -0.957557 -2.073946 -2.391632 " transform="matrix(-0.994217, 0, 0, 0.994217, 122.121642, 64.073113)"/><g fill="rgb(0%, 0%, 0%)" fill-opacity="1"><use xlink:href="#2c9ff4565c4a488f1f62e061392e3446mrtk50ff__glyph-1-4" x="141.88776" y="60.394709"/></g><g fill="rgb(0%, 0%, 0%)" fill-opacity="1"><use xlink:href="#2c9ff4565c4a488f1f62e061392e3446mrtk50ff__glyph-7-0" x="145.97101" y="61.384949"/></g><path fill="none" stroke="rgb(0%, 0%, 0%)" stroke-linecap="butt" stroke-linejoin="miter" stroke-miterlimit="10" stroke-opacity="1" stroke-width="0.39848" d="M 57.306721 -0.319912 L 104.332576 -0.319912 " transform="matrix(0.994217, 0, 0, -0.994217, 222.302024, 63.756157)"/><path fill="none" stroke="rgb(0%, 0%, 0%)" stroke-linecap="round" stroke-linejoin="round" stroke-miterlimit="10" stroke-opacity="1" stroke-width="0.39848" d="M -2.073514 2.391632 C -1.692403 0.957557 -0.851604 0.277845 0.000983115 -0.00111174 C -0.851604 -0.280069 -1.692403 -0.955852 -2.073514 -2.389926 " transform="matrix(0.994217, 0, 0, -0.994217, 326.229491, 64.073113)"/><g fill="rgb(0%, 0%, 0%)" fill-opacity="1"><use xlink:href="#2c9ff4565c4a488f1f62e061392e3446mrtk50ff__glyph-1-2" x="298.850772" y="71.21875"/></g><g fill="rgb(0%, 0%, 0%)" fill-opacity="1"><use xlink:href="#2c9ff4565c4a488f1f62e061392e3446mrtk50ff__glyph-6-0" x="302.713305" y="72.20899"/></g><path fill="none" stroke="rgb(0%, 0%, 0%)" stroke-linecap="butt" stroke-linejoin="miter" stroke-miterlimit="10" stroke-opacity="1" stroke-width="0.39848" d="M -19.382864 -45.805609 L -121.115711 -9.281895 " transform="matrix(0.994217, 0, 0, -0.994217, 222.302024, 63.756157)"/><path fill="none" stroke="rgb(0%, 0%, 0%)" stroke-linecap="round" stroke-linejoin="round" stroke-miterlimit="10" stroke-opacity="1" stroke-width="0.39848" d="M -2.07162 2.389627 C -1.694429 0.955351 -0.849896 0.277506 0.00163235 -0.00122752 C -0.850814 -0.278064 -1.692807 -0.956096 -2.071263 -2.390319 " transform="matrix(-0.935687, -0.335946, -0.335946, 0.935687, 101.700334, 72.915759)"/><g fill="rgb(0%, 0%, 0%)" fill-opacity="1"><use xlink:href="#2c9ff4565c4a488f1f62e061392e3446mrtk50ff__glyph-4-1" x="143.751917" y="96.067217"/></g><g fill="rgb(0%, 0%, 0%)" fill-opacity="1"><use xlink:href="#2c9ff4565c4a488f1f62e061392e3446mrtk50ff__glyph-5-1" x="143.806599" y="98.23461"/></g><path fill="none" stroke="rgb(0%, 0%, 0%)" stroke-linecap="butt" stroke-linejoin="miter" stroke-miterlimit="10" stroke-opacity="1" stroke-width="0.39848" d="M 1.884656 -44.611202 L 1.884656 -9.545136 " transform="matrix(0.994217, 0, 0, -0.994217, 222.302024, 63.756157)"/><path fill="none" stroke="rgb(0%, 0%, 0%)" stroke-linecap="round" stroke-linejoin="round" stroke-miterlimit="10" stroke-opacity="1" stroke-width="0.39848" d="M -2.070536 2.392517 C -1.693355 0.954514 -0.848626 0.278731 0.0000318092 -0.000226083 C -0.848626 -0.279183 -1.693355 -0.954966 -2.070536 -2.38904 " transform="matrix(0, -0.994217, -0.994217, 0, 224.175556, 73.046907)"/><g fill="rgb(0%, 0%, 0%)" fill-opacity="1"><use xlink:href="#2c9ff4565c4a488f1f62e061392e3446mrtk50ff__glyph-1-5" x="226.505574" y="92.099297"/></g><path fill="none" stroke="rgb(0%, 0%, 0%)" stroke-linecap="butt" stroke-linejoin="miter" stroke-miterlimit="10" stroke-opacity="1" stroke-width="0.39848" d="M 23.152176 -53.4396 L 126.291595 -53.4396 " transform="matrix(0.994217, 0, 0, -0.994217, 222.302024, 63.756157)"/><path fill="none" stroke="rgb(0%, 0%, 0%)" stroke-linecap="round" stroke-linejoin="round" stroke-miterlimit="10" stroke-opacity="1" stroke-width="0.39848" d="M -2.072345 2.389044 C -1.695163 0.95497 -0.850435 0.279187 -0.00177679 0.000229982 C -0.850435 -0.278727 -1.695163 -0.95451 -2.072345 -2.392513 " transform="matrix(0.994217, 0, 0, -0.994217, 348.06036, 116.886947)"/><g fill="rgb(0%, 0%, 0%)" fill-opacity="1"><use xlink:href="#2c9ff4565c4a488f1f62e061392e3446mrtk50ff__glyph-1-2" x="292.787042" y="124.03156"/></g><g fill="rgb(0%, 0%, 0%)" fill-opacity="1"><use xlink:href="#2c9ff4565c4a488f1f62e061392e3446mrtk50ff__glyph-6-0" x="296.649575" y="125.0218"/></g><path fill="none" stroke="rgb(0%, 0%, 0%)" stroke-linecap="butt" stroke-linejoin="miter" stroke-miterlimit="10" stroke-opacity="1" stroke-width="0.39848" d="M 147.955941 -44.611202 L 147.955941 -9.545136 " transform="matrix(0.994217, 0, 0, -0.994217, 222.302024, 63.756157)"/><path fill="none" stroke="rgb(0%, 0%, 0%)" stroke-linecap="round" stroke-linejoin="round" stroke-miterlimit="10" stroke-opacity="1" stroke-width="0.39848" d="M -2.070536 2.390623 C -1.693355 0.956549 -0.848626 0.280766 0.0000318092 0.0018091 C -0.848626 -0.277148 -1.693355 -0.95686 -2.070536 -2.390934 " transform="matrix(0, -0.994217, -0.994217, 0, 369.404142, 73.046907)"/><g fill="rgb(0%, 0%, 0%)" fill-opacity="1"><use xlink:href="#2c9ff4565c4a488f1f62e061392e3446mrtk50ff__glyph-4-1" x="371.732847" y="90.727277"/></g><g fill="rgb(0%, 0%, 0%)" fill-opacity="1"><use xlink:href="#2c9ff4565c4a488f1f62e061392e3446mrtk50ff__glyph-5-1" x="371.787529" y="92.895665"/></g></svg>