<?xml version="1.0" encoding="UTF-8"?><svg xmlns="http://www.w3.org/2000/svg" xmlns:xlink="http://www.w3.org/1999/xlink" width="299.951" height="114.031" viewBox="0 0 299.951 114.031"><defs><g><g id="4b0139e372d72e4f598561a471915950lhktmrbw__glyph-0-0"><path d="M 1.765625 -1.140625 C 1.375 -0.46875 0.984375 -0.328125 0.546875 -0.3125 C 0.4375 -0.296875 0.34375 -0.296875 0.34375 -0.109375 C 0.34375 -0.046875 0.390625 0 0.46875 0 C 0.734375 0 1.046875 -0.03125 1.328125 -0.03125 C 1.65625 -0.03125 2 0 2.3125 0 C 2.375 0 2.5 0 2.5 -0.1875 C 2.5 -0.296875 2.40625 -0.3125 2.34375 -0.3125 C 2.109375 -0.328125 1.875 -0.40625 1.875 -0.65625 C 1.875 -0.765625 1.9375 -0.875 2.015625 -1.015625 L 2.765625 -2.28125 L 5.25 -2.28125 C 5.265625 -2.078125 5.40625 -0.734375 5.40625 -0.625 C 5.40625 -0.328125 4.890625 -0.3125 4.6875 -0.3125 C 4.546875 -0.3125 4.453125 -0.3125 4.453125 -0.109375 C 4.453125 0 4.578125 0 4.59375 0 C 5 0 5.421875 -0.03125 5.828125 -0.03125 C 6.078125 -0.03125 6.6875 0 6.9375 0 C 7 0 7.125 0 7.125 -0.203125 C 7.125 -0.3125 7.015625 -0.3125 6.890625 -0.3125 C 6.28125 -0.3125 6.28125 -0.375 6.25 -0.65625 L 5.65625 -6.828125 C 5.625 -7.03125 5.625 -7.078125 5.453125 -7.078125 C 5.296875 -7.078125 5.265625 -7 5.203125 -6.90625 Z M 2.953125 -2.59375 L 4.890625 -5.84375 L 5.21875 -2.59375 Z M 2.953125 -2.59375 "/></g><g id="4b0139e372d72e4f598561a471915950lhktmrbw__glyph-0-1"><path d="M 1.578125 -0.765625 C 1.484375 -0.390625 1.46875 -0.3125 0.6875 -0.3125 C 0.515625 -0.3125 0.421875 -0.3125 0.421875 -0.109375 C 0.421875 0 0.5 0 0.6875 0 L 4.203125 0 C 5.765625 0 6.9375 -1.171875 6.9375 -2.140625 C 6.9375 -2.84375 6.359375 -3.421875 5.40625 -3.53125 C 6.421875 -3.71875 7.46875 -4.4375 7.46875 -5.375 C 7.46875 -6.109375 6.8125 -6.75 5.625 -6.75 L 2.3125 -6.75 C 2.125 -6.75 2.03125 -6.75 2.03125 -6.546875 C 2.03125 -6.4375 2.109375 -6.4375 2.296875 -6.4375 C 2.328125 -6.4375 2.515625 -6.4375 2.671875 -6.421875 C 2.859375 -6.40625 2.9375 -6.390625 2.9375 -6.265625 C 2.9375 -6.21875 2.9375 -6.1875 2.90625 -6.078125 Z M 3.078125 -3.609375 L 3.6875 -6.0625 C 3.765625 -6.40625 3.796875 -6.4375 4.21875 -6.4375 L 5.484375 -6.4375 C 6.359375 -6.4375 6.5625 -5.859375 6.5625 -5.421875 C 6.5625 -4.546875 5.71875 -3.609375 4.515625 -3.609375 Z M 2.625 -0.3125 C 2.484375 -0.3125 2.46875 -0.3125 2.40625 -0.3125 C 2.3125 -0.328125 2.28125 -0.328125 2.28125 -0.421875 C 2.28125 -0.4375 2.28125 -0.46875 2.328125 -0.640625 L 3.015625 -3.390625 L 4.875 -3.390625 C 5.828125 -3.390625 6.015625 -2.671875 6.015625 -2.234375 C 6.015625 -1.265625 5.140625 -0.3125 3.96875 -0.3125 Z M 2.625 -0.3125 "/></g><g id="4b0139e372d72e4f598561a471915950lhktmrbw__glyph-1-0"><path d="M 2.8125 -2.734375 L 3.5 -2.734375 C 3.640625 -2.734375 3.71875 -2.734375 3.71875 -2.890625 C 3.71875 -2.984375 3.640625 -2.984375 3.515625 -2.984375 L 2.859375 -2.984375 C 3.03125 -3.859375 3.078125 -4.1875 3.140625 -4.375 C 3.171875 -4.53125 3.328125 -4.671875 3.484375 -4.671875 C 3.5 -4.671875 3.6875 -4.671875 3.8125 -4.59375 C 3.53125 -4.5 3.515625 -4.25 3.515625 -4.21875 C 3.515625 -4.0625 3.625 -3.953125 3.78125 -3.953125 C 3.96875 -3.953125 4.1875 -4.125 4.1875 -4.375 C 4.1875 -4.703125 3.84375 -4.875 3.484375 -4.875 C 3.1875 -4.875 2.84375 -4.703125 2.65625 -4.359375 C 2.515625 -4.09375 2.46875 -3.78125 2.3125 -2.984375 L 1.765625 -2.984375 C 1.640625 -2.984375 1.546875 -2.984375 1.546875 -2.828125 C 1.546875 -2.734375 1.640625 -2.734375 1.765625 -2.734375 L 2.265625 -2.734375 C 2.265625 -2.6875 1.828125 -0.203125 1.65625 0.546875 C 1.625 0.6875 1.515625 1.21875 1.171875 1.21875 C 1.171875 1.21875 1 1.21875 0.875 1.140625 C 1.15625 1.046875 1.171875 0.796875 1.171875 0.75 C 1.171875 0.609375 1.0625 0.5 0.90625 0.5 C 0.71875 0.5 0.5 0.65625 0.5 0.921875 C 0.5 1.234375 0.828125 1.40625 1.171875 1.40625 C 1.625 1.40625 1.921875 0.953125 2 0.796875 C 2.25 0.34375 2.421875 -0.515625 2.421875 -0.59375 Z M 2.8125 -2.734375 "/></g><g id="4b0139e372d72e4f598561a471915950lhktmrbw__glyph-1-1"><path d="M 1.3125 -0.546875 C 1.25 -0.296875 1.234375 -0.25 0.703125 -0.25 C 0.59375 -0.25 0.5 -0.25 0.5 -0.109375 C 0.5 0 0.578125 0 0.703125 0 L 3.390625 0 C 4.546875 0 5.4375 -0.796875 5.4375 -1.484375 C 5.4375 -1.96875 4.984375 -2.390625 4.25 -2.46875 C 5.09375 -2.625 5.796875 -3.15625 5.796875 -3.75 C 5.796875 -4.265625 5.265625 -4.734375 4.359375 -4.734375 L 1.84375 -4.734375 C 1.703125 -4.734375 1.625 -4.734375 1.625 -4.578125 C 1.625 -4.484375 1.703125 -4.484375 1.84375 -4.484375 C 1.84375 -4.484375 1.984375 -4.484375 2.109375 -4.46875 C 2.25 -4.453125 2.265625 -4.4375 2.265625 -4.375 C 2.265625 -4.359375 2.265625 -4.3125 2.234375 -4.21875 Z M 2.421875 -2.546875 L 2.84375 -4.25 C 2.90625 -4.453125 2.90625 -4.484375 3.203125 -4.484375 L 4.25 -4.484375 C 4.953125 -4.484375 5.109375 -4.015625 5.109375 -3.75 C 5.109375 -3.1875 4.484375 -2.546875 3.5625 -2.546875 Z M 2.09375 -0.25 C 1.875 -0.25 1.875 -0.25 1.875 -0.3125 C 1.875 -0.328125 1.875 -0.359375 1.890625 -0.46875 L 2.375 -2.359375 L 3.84375 -2.359375 C 4.5 -2.359375 4.734375 -1.9375 4.734375 -1.53125 C 4.734375 -0.84375 4.046875 -0.25 3.203125 -0.25 Z M 2.09375 -0.25 "/></g><g id="4b0139e372d72e4f598561a471915950lhktmrbw__glyph-1-2"><path d="M 2.25 -4.328125 C 2.25 -4.4375 2.15625 -4.59375 1.96875 -4.59375 C 1.78125 -4.59375 1.578125 -4.40625 1.578125 -4.203125 C 1.578125 -4.09375 1.671875 -3.953125 1.859375 -3.953125 C 2.0625 -3.953125 2.25 -4.140625 2.25 -4.328125 Z M 0.828125 -0.8125 C 0.796875 -0.71875 0.765625 -0.640625 0.765625 -0.515625 C 0.765625 -0.1875 1.046875 0.0625 1.421875 0.0625 C 2.125 0.0625 2.421875 -0.890625 2.421875 -0.984375 C 2.421875 -1.078125 2.328125 -1.078125 2.3125 -1.078125 C 2.21875 -1.078125 2.203125 -1.03125 2.1875 -0.96875 C 2.015625 -0.40625 1.71875 -0.125 1.453125 -0.125 C 1.3125 -0.125 1.28125 -0.21875 1.28125 -0.359375 C 1.28125 -0.53125 1.328125 -0.65625 1.390625 -0.8125 C 1.453125 -1 1.53125 -1.1875 1.609375 -1.359375 C 1.671875 -1.53125 1.921875 -2.15625 1.9375 -2.25 C 1.96875 -2.3125 1.984375 -2.390625 1.984375 -2.46875 C 1.984375 -2.796875 1.703125 -3.046875 1.328125 -3.046875 C 0.640625 -3.046875 0.328125 -2.109375 0.328125 -2 C 0.328125 -1.90625 0.421875 -1.90625 0.4375 -1.90625 C 0.546875 -1.90625 0.546875 -1.9375 0.5625 -2.015625 C 0.75 -2.609375 1.046875 -2.859375 1.3125 -2.859375 C 1.421875 -2.859375 1.484375 -2.796875 1.484375 -2.609375 C 1.484375 -2.453125 1.4375 -2.359375 1.265625 -1.921875 Z M 0.828125 -0.8125 "/></g><g id="4b0139e372d72e4f598561a471915950lhktmrbw__glyph-2-0"><path d="M 2.34375 -1.90625 L 2.90625 -1.90625 C 3 -1.90625 3.015625 -1.90625 3.03125 -1.9375 C 3.0625 -1.953125 3.078125 -2.015625 3.078125 -2.046875 C 3.078125 -2.125 3 -2.125 2.921875 -2.125 L 2.390625 -2.125 C 2.453125 -2.5 2.546875 -3.125 2.609375 -3.1875 C 2.6875 -3.28125 2.765625 -3.3125 2.84375 -3.3125 C 2.875 -3.3125 2.984375 -3.3125 3.09375 -3.265625 C 2.890625 -3.171875 2.890625 -3 2.890625 -2.984375 C 2.890625 -2.859375 2.984375 -2.78125 3.109375 -2.78125 C 3.234375 -2.78125 3.421875 -2.890625 3.421875 -3.09375 C 3.421875 -3.390625 3.09375 -3.484375 2.859375 -3.484375 C 2.234375 -3.484375 2.109375 -2.890625 2.0625 -2.671875 C 2.015625 -2.453125 2.046875 -2.59375 1.953125 -2.125 L 1.515625 -2.125 C 1.421875 -2.125 1.34375 -2.125 1.34375 -1.984375 C 1.34375 -1.90625 1.40625 -1.90625 1.5 -1.90625 L 1.921875 -1.90625 C 1.828125 -1.421875 1.625 -0.046875 1.484375 0.46875 C 1.453125 0.59375 1.34375 0.84375 1.140625 0.84375 C 1.109375 0.84375 1 0.84375 0.921875 0.796875 C 1.046875 0.734375 1.109375 0.609375 1.109375 0.515625 C 1.109375 0.390625 1.015625 0.3125 0.90625 0.3125 C 0.765625 0.3125 0.59375 0.421875 0.59375 0.625 C 0.59375 0.9375 0.953125 1.015625 1.140625 1.015625 C 1.421875 1.015625 1.640625 0.78125 1.75 0.625 C 1.953125 0.359375 2.0625 -0.296875 2.078125 -0.3125 Z M 2.34375 -1.90625 "/></g><g id="4b0139e372d72e4f598561a471915950lhktmrbw__glyph-3-0"><path d="M 1.296875 -3.90625 C 1.296875 -4.078125 1.296875 -4.25 1.09375 -4.25 C 0.90625 -4.25 0.90625 -4.0625 0.90625 -3.90625 L 0.90625 -0.125 C 0.90625 0.046875 0.90625 0.21875 1.09375 0.21875 C 1.296875 0.21875 1.296875 0.046875 1.296875 -0.125 Z M 1.296875 -3.90625 "/></g><g id="4b0139e372d72e4f598561a471915950lhktmrbw__glyph-4-0"><path d="M 6.78125 -3.234375 C 6.9375 -3.234375 7.125 -3.234375 7.125 -3.421875 C 7.125 -3.625 6.9375 -3.625 6.796875 -3.625 L 0.875 -3.625 C 0.734375 -3.625 0.546875 -3.625 0.546875 -3.421875 C 0.546875 -3.234375 0.734375 -3.234375 0.890625 -3.234375 Z M 6.796875 -1.3125 C 6.9375 -1.3125 7.125 -1.3125 7.125 -1.515625 C 7.125 -1.703125 6.9375 -1.703125 6.78125 -1.703125 L 0.890625 -1.703125 C 0.734375 -1.703125 0.546875 -1.703125 0.546875 -1.515625 C 0.546875 -1.3125 0.734375 -1.3125 0.875 -1.3125 Z M 6.796875 -1.3125 "/></g></g><clipPath id="4b0139e372d72e4f598561a471915950lhktmrbw__clip-0"><path d="M 69 34 L 135 34 L 135 113.070312 L 69 113.070312 Z M 69 34 " clip-rule="nonzero"/></clipPath><clipPath id="4b0139e372d72e4f598561a471915950lhktmrbw__clip-1"><path d="M 80 45 L 124 45 L 124 113.070312 L 80 113.070312 Z M 80 45 " clip-rule="nonzero"/></clipPath></defs><g fill="rgb(0%, 0%, 0%)" fill-opacity="1"><use xlink:href="#4b0139e372d72e4f598561a471915950lhktmrbw__glyph-0-0" x="66.121069" y="10.365914"/></g><g fill="rgb(0%, 0%, 0%)" fill-opacity="1"><use xlink:href="#4b0139e372d72e4f598561a471915950lhktmrbw__glyph-0-0" x="130.033957" y="10.365914"/></g><g fill="rgb(0%, 0%, 0%)" fill-opacity="1"><use xlink:href="#4b0139e372d72e4f598561a471915950lhktmrbw__glyph-0-0" x="66.121069" y="59.909904"/></g><g fill="rgb(0%, 0%, 0%)" fill-opacity="1"><use xlink:href="#4b0139e372d72e4f598561a471915950lhktmrbw__glyph-0-1" x="129.744417" y="59.909904"/></g><g fill="rgb(0%, 0%, 0%)" fill-opacity="1"><use xlink:href="#4b0139e372d72e4f598561a471915950lhktmrbw__glyph-0-1" x="65.831529" y="109.454886"/></g><g fill="rgb(0%, 0%, 0%)" fill-opacity="1"><use xlink:href="#4b0139e372d72e4f598561a471915950lhktmrbw__glyph-0-1" x="129.744417" y="109.454886"/></g><path fill="none" stroke="rgb(0%, 0%, 0%)" stroke-linecap="butt" stroke-linejoin="miter" stroke-miterlimit="10" stroke-opacity="1" stroke-width="2.32874" d="M -24.003823 49.054383 L 24.002243 49.054383 " transform="matrix(0.991574, 0, 0, -0.991574, 101.782033, 56.535578)"/><path fill="none" stroke="rgb(100%, 100%, 100%)" stroke-linecap="butt" stroke-linejoin="miter" stroke-miterlimit="10" stroke-opacity="1" stroke-width="1.53175" d="M -24.003823 49.054383 L 24.002243 49.054383 " transform="matrix(0.991574, 0, 0, -0.991574, 101.782033, 56.535578)"/><path fill="none" stroke="rgb(0%, 0%, 0%)" stroke-linecap="butt" stroke-linejoin="miter" stroke-miterlimit="10" stroke-opacity="1" stroke-width="2.32874" d="M -32.229382 42.715818 L -32.229382 7.249003 " transform="matrix(0.991574, 0, 0, -0.991574, 101.782033, 56.535578)"/><path fill="none" stroke="rgb(100%, 100%, 100%)" stroke-linecap="butt" stroke-linejoin="miter" stroke-miterlimit="10" stroke-opacity="1" stroke-width="1.53175" d="M -32.229382 42.715818 L -32.229382 7.249003 " transform="matrix(0.991574, 0, 0, -0.991574, 101.782033, 56.535578)"/><path fill="none" stroke="rgb(0%, 0%, 0%)" stroke-linecap="butt" stroke-linejoin="miter" stroke-miterlimit="10" stroke-opacity="1" stroke-width="0.39848" d="M 32.227802 42.715818 L 32.227802 7.646887 " transform="matrix(0.991574, 0, 0, -0.991574, 101.782033, 56.535578)"/><path fill="none" stroke="rgb(0%, 0%, 0%)" stroke-linecap="round" stroke-linejoin="round" stroke-miterlimit="10" stroke-opacity="1" stroke-width="0.39848" d="M -2.073542 2.390595 C -1.695355 0.956637 -0.848375 0.279053 -0.00139435 -0.000647589 C -0.848375 -0.280348 -1.695355 -0.957933 -2.073542 -2.39189 " transform="matrix(0, 0.991574, 0.991574, 0, 133.738923, 49.14982)"/><g fill="rgb(0%, 0%, 0%)" fill-opacity="1"><use xlink:href="#4b0139e372d72e4f598561a471915950lhktmrbw__glyph-1-0" x="136.062726" y="33.4914"/></g><path fill="none" stroke="rgb(0%, 0%, 0%)" stroke-linecap="butt" stroke-linejoin="miter" stroke-miterlimit="10" stroke-opacity="1" stroke-width="0.39848" d="M -24.003823 -0.913525 L 23.31284 -0.913525 " transform="matrix(0.991574, 0, 0, -0.991574, 101.782033, 56.535578)"/><path fill="none" stroke="rgb(0%, 0%, 0%)" stroke-linecap="round" stroke-linejoin="round" stroke-miterlimit="10" stroke-opacity="1" stroke-width="0.39848" d="M -2.070516 2.390957 C -1.692329 0.956999 -0.849288 0.279415 0.00163207 -0.000285469 C -0.849288 -0.279986 -1.692329 -0.95757 -2.070516 -2.391528 " transform="matrix(0.991574, 0, 0, -0.991574, 125.096038, 57.441123)"/><g fill="rgb(0%, 0%, 0%)" fill-opacity="1"><use xlink:href="#4b0139e372d72e4f598561a471915950lhktmrbw__glyph-2-0" x="96.256983" y="65.538078"/></g><g fill="rgb(0%, 0%, 0%)" fill-opacity="1"><use xlink:href="#4b0139e372d72e4f598561a471915950lhktmrbw__glyph-1-1" x="100.712125" y="64.489984"/></g><g fill="rgb(0%, 0%, 0%)" fill-opacity="1"><use xlink:href="#4b0139e372d72e4f598561a471915950lhktmrbw__glyph-3-0" x="100.539591" y="59.909904"/></g><path fill="none" stroke="rgb(0%, 0%, 0%)" stroke-linecap="butt" stroke-linejoin="miter" stroke-miterlimit="10" stroke-opacity="1" stroke-width="0.39848" d="M -32.229382 -7.248152 L -32.229382 -42.317083 " transform="matrix(0.991574, 0, 0, -0.991574, 101.782033, 56.535578)"/><path fill="none" stroke="rgb(0%, 0%, 0%)" stroke-linecap="round" stroke-linejoin="round" stroke-miterlimit="10" stroke-opacity="1" stroke-width="0.39848" d="M -2.071753 2.390311 C -1.693566 0.956353 -0.850525 0.278769 0.000394594 -0.000931929 C -0.850525 -0.280632 -1.693566 -0.958217 -2.071753 -2.392174 " transform="matrix(0, 0.991574, 0.991574, 0, 69.825143, 98.694921)"/><g fill="rgb(0%, 0%, 0%)" fill-opacity="1"><use xlink:href="#4b0139e372d72e4f598561a471915950lhktmrbw__glyph-1-0" x="62.873664" y="83.036383"/></g><path fill="none" stroke="rgb(0%, 0%, 0%)" stroke-linecap="butt" stroke-linejoin="miter" stroke-miterlimit="10" stroke-opacity="1" stroke-width="2.32874" d="M 32.227802 -7.248152 L 32.227802 -42.714967 " transform="matrix(0.991574, 0, 0, -0.991574, 101.782033, 56.535578)"/><path fill="none" stroke="rgb(100%, 100%, 100%)" stroke-linecap="butt" stroke-linejoin="miter" stroke-miterlimit="10" stroke-opacity="1" stroke-width="1.53175" d="M 32.227802 -7.248152 L 32.227802 -42.714967 " transform="matrix(0.991574, 0, 0, -0.991574, 101.782033, 56.535578)"/><path fill="none" stroke="rgb(0%, 0%, 0%)" stroke-linecap="butt" stroke-linejoin="miter" stroke-miterlimit="10" stroke-opacity="1" stroke-width="2.32874" d="M -23.712304 -50.877495 L 23.710724 -50.877495 " transform="matrix(0.991574, 0, 0, -0.991574, 101.782033, 56.535578)"/><path fill="none" stroke="rgb(100%, 100%, 100%)" stroke-linecap="butt" stroke-linejoin="miter" stroke-miterlimit="10" stroke-opacity="1" stroke-width="1.53175" d="M -23.712304 -50.877495 L 23.710724 -50.877495 " transform="matrix(0.991574, 0, 0, -0.991574, 101.782033, 56.535578)"/><path fill="none" stroke="rgb(0%, 0%, 0%)" stroke-linecap="butt" stroke-linejoin="miter" stroke-miterlimit="10" stroke-opacity="1" stroke-width="2.32874" d="M -0.0283659 39.390927 L -0.111094 10.936322 " transform="matrix(0.991574, 0, 0, -0.991574, 101.782033, 56.535578)"/><path fill="none" stroke="rgb(100%, 100%, 100%)" stroke-linecap="butt" stroke-linejoin="miter" stroke-miterlimit="10" stroke-opacity="1" stroke-width="1.53175" d="M -0.0283659 39.390927 L -0.111094 10.936322 " transform="matrix(0.991574, 0, 0, -0.991574, 101.782033, 56.535578)"/><path fill="none" stroke="rgb(0%, 0%, 0%)" stroke-linecap="round" stroke-linejoin="round" stroke-miterlimit="10" stroke-opacity="1" stroke-width="0.39848" d="M -1.294402 2.557259 C -0.664058 1.207836 1.021538 0.0466642 1.986872 -0.0017216 C 1.021815 -0.0478845 -0.664861 -1.207118 -1.295177 -2.556296 " transform="matrix(-0.00290531, 0.991544, 0.991544, 0.00290531, 101.671542, 45.69009)"/><g clip-path="url(#4b0139e372d72e4f598561a471915950lhktmrbw__clip-0)"><path fill="none" stroke="rgb(0%, 0%, 0%)" stroke-linecap="butt" stroke-linejoin="miter" stroke-miterlimit="10" stroke-opacity="1" stroke-width="2.32874" d="M -0.118973 -10.576982 L -0.0362448 -39.027647 " transform="matrix(0.991574, 0, 0, -0.991574, 101.782033, 56.535578)"/></g><g clip-path="url(#4b0139e372d72e4f598561a471915950lhktmrbw__clip-1)"><path fill="none" stroke="rgb(100%, 100%, 100%)" stroke-linecap="butt" stroke-linejoin="miter" stroke-miterlimit="10" stroke-opacity="1" stroke-width="1.53175" d="M -0.118973 -10.576982 L -0.0362448 -39.027647 " transform="matrix(0.991574, 0, 0, -0.991574, 101.782033, 56.535578)"/></g><path fill="none" stroke="rgb(0%, 0%, 0%)" stroke-linecap="round" stroke-linejoin="round" stroke-miterlimit="10" stroke-opacity="1" stroke-width="0.39848" d="M -1.29338 2.559021 C -0.667015 1.205916 1.0236 0.0466703 1.988658 0.000507381 C 1.023323 -0.0478784 -0.6662 -1.205099 -1.292617 -2.558473 " transform="matrix(0.00290531, 0.991544, 0.991544, -0.00290531, 101.747625, 95.235191)"/><g fill="rgb(0%, 0%, 0%)" fill-opacity="1"><use xlink:href="#4b0139e372d72e4f598561a471915950lhktmrbw__glyph-4-0" x="146.109353" y="56.535578"/></g><g fill="rgb(0%, 0%, 0%)" fill-opacity="1"><use xlink:href="#4b0139e372d72e4f598561a471915950lhktmrbw__glyph-0-0" x="162.459416" y="35.138405"/></g><g fill="rgb(0%, 0%, 0%)" fill-opacity="1"><use xlink:href="#4b0139e372d72e4f598561a471915950lhktmrbw__glyph-0-0" x="226.372304" y="35.138405"/></g><g fill="rgb(0%, 0%, 0%)" fill-opacity="1"><use xlink:href="#4b0139e372d72e4f598561a471915950lhktmrbw__glyph-0-1" x="162.169876" y="84.682395"/></g><g fill="rgb(0%, 0%, 0%)" fill-opacity="1"><use xlink:href="#4b0139e372d72e4f598561a471915950lhktmrbw__glyph-0-1" x="226.082764" y="84.682395"/></g><path fill="none" stroke="rgb(0%, 0%, 0%)" stroke-linecap="butt" stroke-linejoin="miter" stroke-miterlimit="10" stroke-opacity="1" stroke-width="0.39848" d="M -32.227872 17.731863 L -32.227872 -17.337068 " transform="matrix(0.991574, 0, 0, -0.991574, 198.12038, 56.535578)"/><path fill="none" stroke="rgb(0%, 0%, 0%)" stroke-linecap="round" stroke-linejoin="round" stroke-miterlimit="10" stroke-opacity="1" stroke-width="0.39848" d="M -2.072637 2.39182 C -1.694451 0.957863 -0.85141 0.280278 -0.000489879 0.000577873 C -0.85141 -0.279123 -1.694451 -0.956707 -2.072637 -2.390665 " transform="matrix(0, 0.991574, 0.991574, 0, 166.163489, 73.922361)"/><g fill="rgb(0%, 0%, 0%)" fill-opacity="1"><use xlink:href="#4b0139e372d72e4f598561a471915950lhktmrbw__glyph-1-0" x="159.213003" y="58.263892"/></g><path fill="none" stroke="rgb(0%, 0%, 0%)" stroke-linecap="butt" stroke-linejoin="miter" stroke-miterlimit="10" stroke-opacity="1" stroke-width="2.32874" d="M 24.003753 24.070429 L -24.002313 24.070429 " transform="matrix(0.991574, 0, 0, -0.991574, 198.12038, 56.535578)"/><path fill="none" stroke="rgb(100%, 100%, 100%)" stroke-linecap="butt" stroke-linejoin="miter" stroke-miterlimit="10" stroke-opacity="1" stroke-width="1.53175" d="M 24.003753 24.070429 L -24.002313 24.070429 " transform="matrix(0.991574, 0, 0, -0.991574, 198.12038, 56.535578)"/><path fill="none" stroke="rgb(0%, 0%, 0%)" stroke-linecap="butt" stroke-linejoin="miter" stroke-miterlimit="10" stroke-opacity="1" stroke-width="0.39848" d="M 32.229312 17.731863 L 32.229312 -17.337068 " transform="matrix(0.991574, 0, 0, -0.991574, 198.12038, 56.535578)"/><path fill="none" stroke="rgb(0%, 0%, 0%)" stroke-linecap="round" stroke-linejoin="round" stroke-miterlimit="10" stroke-opacity="1" stroke-width="0.39848" d="M -2.072637 2.392105 C -1.694451 0.958147 -0.85141 0.280563 -0.000489879 0.000862213 C -0.85141 -0.278838 -1.694451 -0.956423 -2.072637 -2.39038 " transform="matrix(0, 0.991574, 0.991574, 0, 230.07727, 73.922361)"/><g fill="rgb(0%, 0%, 0%)" fill-opacity="1"><use xlink:href="#4b0139e372d72e4f598561a471915950lhktmrbw__glyph-1-0" x="232.401073" y="58.263892"/></g><path fill="none" stroke="rgb(0%, 0%, 0%)" stroke-linecap="butt" stroke-linejoin="miter" stroke-miterlimit="10" stroke-opacity="1" stroke-width="2.32874" d="M -23.710794 -25.89748 L 23.712234 -25.89748 " transform="matrix(0.991574, 0, 0, -0.991574, 198.12038, 56.535578)"/><path fill="none" stroke="rgb(100%, 100%, 100%)" stroke-linecap="butt" stroke-linejoin="miter" stroke-miterlimit="10" stroke-opacity="1" stroke-width="1.53175" d="M -23.710794 -25.89748 L 23.712234 -25.89748 " transform="matrix(0.991574, 0, 0, -0.991574, 198.12038, 56.535578)"/><path fill="none" stroke="rgb(0%, 0%, 0%)" stroke-linecap="butt" stroke-linejoin="miter" stroke-miterlimit="10" stroke-opacity="1" stroke-width="2.32874" d="M 0.000720043 14.406973 L 0.000720043 -14.043693 " transform="matrix(0.991574, 0, 0, -0.991574, 198.12038, 56.535578)"/><path fill="none" stroke="rgb(100%, 100%, 100%)" stroke-linecap="butt" stroke-linejoin="miter" stroke-miterlimit="10" stroke-opacity="1" stroke-width="1.53175" d="M 0.000720043 14.406973 L 0.000720043 -14.043693 " transform="matrix(0.991574, 0, 0, -0.991574, 198.12038, 56.535578)"/><path fill="none" stroke="rgb(0%, 0%, 0%)" stroke-linecap="round" stroke-linejoin="round" stroke-miterlimit="10" stroke-opacity="1" stroke-width="0.39848" d="M -1.293515 2.557419 C -0.667143 1.20619 1.022878 0.0479934 1.988042 0.000720043 C 1.022878 -0.0465533 -0.667143 -1.20475 -1.293515 -2.555979 " transform="matrix(0, 0.991574, 0.991574, 0, 198.12038, 70.462303)"/><g fill="rgb(0%, 0%, 0%)" fill-opacity="1"><use xlink:href="#4b0139e372d72e4f598561a471915950lhktmrbw__glyph-1-2" x="200.444629" y="58.723982"/></g><g fill="rgb(0%, 0%, 0%)" fill-opacity="1"><use xlink:href="#4b0139e372d72e4f598561a471915950lhktmrbw__glyph-2-0" x="203.239876" y="59.772075"/></g></svg>