<?xml version="1.0" encoding="UTF-8"?><svg xmlns="http://www.w3.org/2000/svg" xmlns:xlink="http://www.w3.org/1999/xlink" width="231.141" height="68.616" viewBox="0 0 231.141 68.616"><defs><g><g id="807a2aab252886501ea505f133145f4d22eamtzp__glyph-0-0"><path d="M 1.765625 -1.140625 C 1.375 -0.46875 0.984375 -0.34375 0.5625 -0.3125 C 0.4375 -0.296875 0.34375 -0.296875 0.34375 -0.109375 C 0.34375 -0.046875 0.390625 0 0.46875 0 C 0.75 0 1.046875 -0.03125 1.328125 -0.03125 C 1.65625 -0.03125 2 0 2.3125 0 C 2.375 0 2.5 0 2.5 -0.1875 C 2.5 -0.296875 2.421875 -0.3125 2.34375 -0.3125 C 2.125 -0.328125 1.875 -0.40625 1.875 -0.65625 C 1.875 -0.765625 1.9375 -0.875 2.015625 -1.015625 L 2.78125 -2.28125 L 5.265625 -2.28125 C 5.28125 -2.078125 5.421875 -0.734375 5.421875 -0.640625 C 5.421875 -0.34375 4.90625 -0.3125 4.703125 -0.3125 C 4.5625 -0.3125 4.46875 -0.3125 4.46875 -0.109375 C 4.46875 0 4.59375 0 4.609375 0 C 5.015625 0 5.4375 -0.03125 5.84375 -0.03125 C 6.09375 -0.03125 6.71875 0 6.96875 0 C 7.03125 0 7.140625 0 7.140625 -0.203125 C 7.140625 -0.3125 7.046875 -0.3125 6.921875 -0.3125 C 6.296875 -0.3125 6.296875 -0.375 6.265625 -0.65625 L 5.671875 -6.859375 C 5.640625 -7.046875 5.640625 -7.09375 5.484375 -7.09375 C 5.3125 -7.09375 5.28125 -7.03125 5.21875 -6.921875 Z M 2.96875 -2.59375 L 4.90625 -5.859375 L 5.234375 -2.59375 Z M 2.96875 -2.59375 "/></g><g id="807a2aab252886501ea505f133145f4d22eamtzp__glyph-0-1"><path d="M 1.578125 -0.765625 C 1.484375 -0.390625 1.46875 -0.3125 0.6875 -0.3125 C 0.515625 -0.3125 0.421875 -0.3125 0.421875 -0.109375 C 0.421875 0 0.5 0 0.6875 0 L 4.21875 0 C 5.78125 0 6.953125 -1.171875 6.953125 -2.140625 C 6.953125 -2.859375 6.375 -3.421875 5.421875 -3.53125 C 6.453125 -3.71875 7.484375 -4.453125 7.484375 -5.40625 C 7.484375 -6.125 6.828125 -6.765625 5.640625 -6.765625 L 2.3125 -6.765625 C 2.125 -6.765625 2.03125 -6.765625 2.03125 -6.5625 C 2.03125 -6.453125 2.125 -6.453125 2.3125 -6.453125 C 2.328125 -6.453125 2.515625 -6.453125 2.6875 -6.4375 C 2.859375 -6.421875 2.953125 -6.40625 2.953125 -6.28125 C 2.953125 -6.234375 2.9375 -6.21875 2.90625 -6.09375 Z M 3.078125 -3.625 L 3.6875 -6.078125 C 3.78125 -6.421875 3.796875 -6.453125 4.234375 -6.453125 L 5.515625 -6.453125 C 6.375 -6.453125 6.59375 -5.875 6.59375 -5.4375 C 6.59375 -4.5625 5.734375 -3.625 4.53125 -3.625 Z M 2.640625 -0.3125 C 2.5 -0.3125 2.484375 -0.3125 2.421875 -0.3125 C 2.3125 -0.328125 2.28125 -0.34375 2.28125 -0.421875 C 2.28125 -0.453125 2.28125 -0.46875 2.34375 -0.640625 L 3.015625 -3.40625 L 4.890625 -3.40625 C 5.84375 -3.40625 6.03125 -2.671875 6.03125 -2.25 C 6.03125 -1.265625 5.15625 -0.3125 3.984375 -0.3125 Z M 2.640625 -0.3125 "/></g><g id="807a2aab252886501ea505f133145f4d22eamtzp__glyph-1-0"><path d="M 2.828125 -2.734375 L 3.5 -2.734375 C 3.640625 -2.734375 3.734375 -2.734375 3.734375 -2.890625 C 3.734375 -2.984375 3.640625 -2.984375 3.515625 -2.984375 L 2.875 -2.984375 C 3.03125 -3.875 3.09375 -4.1875 3.140625 -4.390625 C 3.171875 -4.546875 3.328125 -4.6875 3.5 -4.6875 C 3.5 -4.6875 3.6875 -4.6875 3.828125 -4.609375 C 3.53125 -4.515625 3.515625 -4.265625 3.515625 -4.21875 C 3.515625 -4.078125 3.640625 -3.96875 3.796875 -3.96875 C 3.984375 -3.96875 4.1875 -4.125 4.1875 -4.390625 C 4.1875 -4.703125 3.84375 -4.890625 3.5 -4.890625 C 3.1875 -4.890625 2.84375 -4.703125 2.65625 -4.359375 C 2.53125 -4.109375 2.46875 -3.796875 2.328125 -2.984375 L 1.78125 -2.984375 C 1.640625 -2.984375 1.546875 -2.984375 1.546875 -2.84375 C 1.546875 -2.734375 1.640625 -2.734375 1.765625 -2.734375 L 2.28125 -2.734375 C 2.265625 -2.703125 1.828125 -0.203125 1.671875 0.546875 C 1.625 0.6875 1.515625 1.21875 1.171875 1.21875 C 1.171875 1.21875 1 1.21875 0.875 1.140625 C 1.15625 1.046875 1.171875 0.796875 1.171875 0.75 C 1.171875 0.609375 1.0625 0.5 0.90625 0.5 C 0.71875 0.5 0.5 0.65625 0.5 0.921875 C 0.5 1.234375 0.828125 1.421875 1.171875 1.421875 C 1.625 1.421875 1.921875 0.953125 2.015625 0.8125 C 2.265625 0.34375 2.421875 -0.515625 2.4375 -0.59375 Z M 2.828125 -2.734375 "/></g><g id="807a2aab252886501ea505f133145f4d22eamtzp__glyph-1-1"><path d="M 1.3125 -0.546875 C 1.25 -0.3125 1.234375 -0.25 0.703125 -0.25 C 0.59375 -0.25 0.5 -0.25 0.5 -0.109375 C 0.5 0 0.578125 0 0.703125 0 L 3.390625 0 C 4.5625 0 5.453125 -0.796875 5.453125 -1.484375 C 5.453125 -1.984375 5 -2.40625 4.265625 -2.484375 C 5.109375 -2.625 5.8125 -3.15625 5.8125 -3.75 C 5.8125 -4.28125 5.265625 -4.734375 4.375 -4.734375 L 1.84375 -4.734375 C 1.71875 -4.734375 1.625 -4.734375 1.625 -4.578125 C 1.625 -4.484375 1.703125 -4.484375 1.84375 -4.484375 C 1.859375 -4.484375 1.984375 -4.484375 2.109375 -4.46875 C 2.25 -4.453125 2.265625 -4.453125 2.265625 -4.375 C 2.265625 -4.359375 2.265625 -4.328125 2.234375 -4.21875 Z M 2.421875 -2.5625 L 2.84375 -4.25 C 2.90625 -4.46875 2.90625 -4.484375 3.203125 -4.484375 L 4.265625 -4.484375 C 4.96875 -4.484375 5.125 -4.03125 5.125 -3.765625 C 5.125 -3.203125 4.5 -2.5625 3.5625 -2.5625 Z M 2.09375 -0.25 C 1.875 -0.25 1.875 -0.25 1.875 -0.3125 C 1.875 -0.328125 1.875 -0.359375 1.90625 -0.46875 L 2.375 -2.359375 L 3.84375 -2.359375 C 4.5 -2.359375 4.75 -1.9375 4.75 -1.53125 C 4.75 -0.84375 4.046875 -0.25 3.21875 -0.25 Z M 2.09375 -0.25 "/></g><g id="807a2aab252886501ea505f133145f4d22eamtzp__glyph-2-0"><path d="M 1.296875 -3.921875 C 1.296875 -4.09375 1.296875 -4.265625 1.09375 -4.265625 C 0.90625 -4.265625 0.90625 -4.078125 0.90625 -3.90625 L 0.90625 -0.125 C 0.90625 0.046875 0.90625 0.21875 1.09375 0.21875 C 1.296875 0.21875 1.296875 0.046875 1.296875 -0.125 Z M 1.296875 -3.921875 "/></g><g id="807a2aab252886501ea505f133145f4d22eamtzp__glyph-3-0"><path d="M 1.296875 -3.265625 C 1.296875 -3.4375 1.140625 -3.546875 1 -3.546875 C 0.859375 -3.546875 0.6875 -3.4375 0.6875 -3.265625 C 0.6875 -3.234375 0.703125 -3.171875 0.703125 -3.125 L 0.890625 -1.09375 C 0.890625 -1.015625 0.890625 -0.984375 1 -0.984375 C 1.09375 -0.984375 1.09375 -1.015625 1.109375 -1.09375 Z M 1.296875 -0.296875 C 1.296875 -0.46875 1.15625 -0.609375 1 -0.609375 C 0.828125 -0.609375 0.6875 -0.46875 0.6875 -0.296875 C 0.6875 -0.140625 0.828125 0 1 0 C 1.15625 0 1.296875 -0.140625 1.296875 -0.296875 Z M 1.296875 -0.296875 "/></g></g></defs><g fill="rgb(0%, 0%, 0%)" fill-opacity="1"><use xlink:href="#807a2aab252886501ea505f133145f4d22eamtzp__glyph-0-0" x="79.379041" y="10.395821"/></g><g fill="rgb(0%, 0%, 0%)" fill-opacity="1"><use xlink:href="#807a2aab252886501ea505f133145f4d22eamtzp__glyph-0-0" x="143.476329" y="10.395821"/></g><g fill="rgb(0%, 0%, 0%)" fill-opacity="1"><use xlink:href="#807a2aab252886501ea505f133145f4d22eamtzp__glyph-0-1" x="79.088666" y="60.082755"/></g><g fill="rgb(0%, 0%, 0%)" fill-opacity="1"><use xlink:href="#807a2aab252886501ea505f133145f4d22eamtzp__glyph-0-1" x="143.185954" y="60.082755"/></g><path fill="none" stroke="rgb(0%, 0%, 0%)" stroke-linecap="butt" stroke-linejoin="miter" stroke-miterlimit="10" stroke-opacity="1" stroke-width="2.32874" d="M -24.003038 24.069719 L 24.002404 24.069719 " transform="matrix(0.994435, 0, 0, -0.994435, 115.142893, 31.853735)"/><path fill="none" stroke="rgb(100%, 100%, 100%)" stroke-linecap="butt" stroke-linejoin="miter" stroke-miterlimit="10" stroke-opacity="1" stroke-width="1.53175" d="M -24.003038 24.069719 L 24.002404 24.069719 " transform="matrix(0.994435, 0, 0, -0.994435, 115.142893, 31.853735)"/><path fill="none" stroke="rgb(0%, 0%, 0%)" stroke-linecap="butt" stroke-linejoin="miter" stroke-miterlimit="10" stroke-opacity="1" stroke-width="0.39848" d="M 32.227868 17.733677 L 32.227868 -17.336496 " transform="matrix(0.994435, 0, 0, -0.994435, 115.142893, 31.853735)"/><path fill="none" stroke="rgb(0%, 0%, 0%)" stroke-linecap="round" stroke-linejoin="round" stroke-miterlimit="10" stroke-opacity="1" stroke-width="0.39848" d="M -2.071742 2.391638 C -1.694644 0.957877 -0.8501 0.278314 -0.00162805 -0.0005817 C -0.8501 -0.279478 -1.694644 -0.955113 -2.071742 -2.392801 " transform="matrix(0, 0.994435, 0.994435, 0, 147.191985, 49.290681)"/><g fill="rgb(0%, 0%, 0%)" fill-opacity="1"><use xlink:href="#807a2aab252886501ea505f133145f4d22eamtzp__glyph-1-0" x="149.522492" y="33.588029"/></g><path fill="none" stroke="rgb(0%, 0%, 0%)" stroke-linecap="butt" stroke-linejoin="miter" stroke-miterlimit="10" stroke-opacity="1" stroke-width="0.39848" d="M -32.228502 17.733677 L -32.228502 -17.336496 " transform="matrix(0.994435, 0, 0, -0.994435, 115.142893, 31.853735)"/><path fill="none" stroke="rgb(0%, 0%, 0%)" stroke-linecap="round" stroke-linejoin="round" stroke-miterlimit="10" stroke-opacity="1" stroke-width="0.39848" d="M -2.071742 2.392168 C -1.694644 0.954479 -0.8501 0.278844 -0.00162805 -0.0000516614 C -0.8501 -0.278948 -1.694644 -0.954583 -2.071742 -2.392271 " transform="matrix(0, 0.994435, 0.994435, 0, 83.093801, 49.290681)"/><g fill="rgb(0%, 0%, 0%)" fill-opacity="1"><use xlink:href="#807a2aab252886501ea505f133145f4d22eamtzp__glyph-1-0" x="76.123261" y="33.588029"/></g><path fill="none" stroke="rgb(0%, 0%, 0%)" stroke-linecap="butt" stroke-linejoin="miter" stroke-miterlimit="10" stroke-opacity="1" stroke-width="0.39848" d="M -23.712357 -25.89585 L 23.311057 -25.89585 " transform="matrix(0.994435, 0, 0, -0.994435, 115.142893, 31.853735)"/><path fill="none" stroke="rgb(0%, 0%, 0%)" stroke-linecap="round" stroke-linejoin="round" stroke-miterlimit="10" stroke-opacity="1" stroke-width="0.39848" d="M -2.070844 2.39267 C -1.693745 0.954981 -0.849201 0.279346 -0.000729544 0.000450173 C -0.849201 -0.278446 -1.693745 -0.958009 -2.070844 -2.391769 " transform="matrix(0.994435, 0, 0, -0.994435, 138.524163, 57.605916)"/><g fill="rgb(0%, 0%, 0%)" fill-opacity="1"><use xlink:href="#807a2aab252886501ea505f133145f4d22eamtzp__glyph-2-0" x="114.042054" y="60.082755"/></g><g fill="rgb(0%, 0%, 0%)" fill-opacity="1"><use xlink:href="#807a2aab252886501ea505f133145f4d22eamtzp__glyph-1-0" x="105.627147" y="64.752621"/></g><g fill="rgb(0%, 0%, 0%)" fill-opacity="1"><use xlink:href="#807a2aab252886501ea505f133145f4d22eamtzp__glyph-3-0" x="109.490526" y="65.803738"/></g><g fill="rgb(0%, 0%, 0%)" fill-opacity="1"><use xlink:href="#807a2aab252886501ea505f133145f4d22eamtzp__glyph-1-1" x="111.981585" y="64.752621"/></g><g fill="rgb(0%, 0%, 0%)" fill-opacity="1"><use xlink:href="#807a2aab252886501ea505f133145f4d22eamtzp__glyph-1-0" x="118.307682" y="64.752621"/></g><g fill="rgb(0%, 0%, 0%)" fill-opacity="1"><use xlink:href="#807a2aab252886501ea505f133145f4d22eamtzp__glyph-3-0" x="122.168575" y="65.803738"/></g><path fill="none" stroke="rgb(0%, 0%, 0%)" stroke-linecap="butt" stroke-linejoin="miter" stroke-miterlimit="10" stroke-opacity="1" stroke-width="2.32874" d="M 0.00164737 18.091135 L 0.00164737 -13.043071 " transform="matrix(0.994435, 0, 0, -0.994435, 115.142893, 31.853735)"/><path fill="none" stroke="rgb(100%, 100%, 100%)" stroke-linecap="butt" stroke-linejoin="miter" stroke-miterlimit="10" stroke-opacity="1" stroke-width="1.53175" d="M 0.00164737 18.091135 L 0.00164737 -13.043071 " transform="matrix(0.994435, 0, 0, -0.994435, 115.142893, 31.853735)"/><path fill="none" stroke="rgb(0%, 0%, 0%)" stroke-linecap="round" stroke-linejoin="round" stroke-miterlimit="10" stroke-opacity="1" stroke-width="0.39848" d="M -1.292567 2.558847 C -0.664069 1.207577 1.02109 0.0487847 1.987405 0.00164737 C 1.02109 -0.0494181 -0.664069 -1.208211 -1.292567 -2.559481 " transform="matrix(0, 0.994435, 0.994435, 0, 115.142893, 44.824436)"/></svg>