<?xml version="1.0" encoding="UTF-8"?><svg xmlns="http://www.w3.org/2000/svg" xmlns:xlink="http://www.w3.org/1999/xlink" width="319.075" height="70.964" viewBox="0 0 319.075 70.964"><defs><g><g id="8fac95cadf6e920ae47a60a6c5411cc28xic1esa__glyph-0-0"><path d="M 1.78125 -1.140625 C 1.375 -0.484375 1 -0.34375 0.5625 -0.3125 C 0.4375 -0.296875 0.34375 -0.296875 0.34375 -0.109375 C 0.34375 -0.046875 0.390625 0 0.484375 0 C 0.75 0 1.046875 -0.03125 1.328125 -0.03125 C 1.65625 -0.03125 2 0 2.328125 0 C 2.390625 0 2.515625 0 2.515625 -0.1875 C 2.515625 -0.296875 2.421875 -0.3125 2.359375 -0.3125 C 2.125 -0.328125 1.890625 -0.40625 1.890625 -0.65625 C 1.890625 -0.78125 1.953125 -0.890625 2.03125 -1.03125 L 2.78125 -2.296875 L 5.28125 -2.296875 C 5.296875 -2.09375 5.4375 -0.734375 5.4375 -0.640625 C 5.4375 -0.34375 4.921875 -0.3125 4.71875 -0.3125 C 4.578125 -0.3125 4.484375 -0.3125 4.484375 -0.109375 C 4.484375 0 4.59375 0 4.625 0 C 5.03125 0 5.453125 -0.03125 5.859375 -0.03125 C 6.109375 -0.03125 6.734375 0 6.984375 0 C 7.046875 0 7.171875 0 7.171875 -0.203125 C 7.171875 -0.3125 7.0625 -0.3125 6.9375 -0.3125 C 6.3125 -0.3125 6.3125 -0.375 6.296875 -0.671875 L 5.6875 -6.875 C 5.671875 -7.078125 5.671875 -7.109375 5.5 -7.109375 C 5.34375 -7.109375 5.296875 -7.046875 5.234375 -6.953125 Z M 2.96875 -2.609375 L 4.921875 -5.890625 L 5.25 -2.609375 Z M 2.96875 -2.609375 "/></g><g id="8fac95cadf6e920ae47a60a6c5411cc28xic1esa__glyph-0-1"><path d="M 1.59375 -0.78125 C 1.484375 -0.390625 1.46875 -0.3125 0.6875 -0.3125 C 0.515625 -0.3125 0.421875 -0.3125 0.421875 -0.109375 C 0.421875 0 0.5 0 0.6875 0 L 4.234375 0 C 5.796875 0 6.96875 -1.171875 6.96875 -2.140625 C 6.96875 -2.859375 6.40625 -3.4375 5.4375 -3.546875 C 6.46875 -3.734375 7.515625 -4.46875 7.515625 -5.421875 C 7.515625 -6.15625 6.859375 -6.78125 5.671875 -6.78125 L 2.328125 -6.78125 C 2.140625 -6.78125 2.03125 -6.78125 2.03125 -6.59375 C 2.03125 -6.484375 2.125 -6.484375 2.3125 -6.484375 C 2.328125 -6.484375 2.53125 -6.484375 2.6875 -6.453125 C 2.875 -6.4375 2.96875 -6.421875 2.96875 -6.296875 C 2.96875 -6.265625 2.953125 -6.234375 2.921875 -6.109375 Z M 3.09375 -3.640625 L 3.703125 -6.109375 C 3.796875 -6.453125 3.8125 -6.484375 4.25 -6.484375 L 5.53125 -6.484375 C 6.40625 -6.484375 6.609375 -5.890625 6.609375 -5.453125 C 6.609375 -4.578125 5.75 -3.640625 4.546875 -3.640625 Z M 2.640625 -0.3125 C 2.5 -0.3125 2.484375 -0.3125 2.421875 -0.3125 C 2.328125 -0.328125 2.296875 -0.34375 2.296875 -0.421875 C 2.296875 -0.453125 2.296875 -0.46875 2.34375 -0.640625 L 3.03125 -3.421875 L 4.90625 -3.421875 C 5.859375 -3.421875 6.046875 -2.6875 6.046875 -2.25 C 6.046875 -1.265625 5.171875 -0.3125 4 -0.3125 Z M 2.640625 -0.3125 "/></g><g id="8fac95cadf6e920ae47a60a6c5411cc28xic1esa__glyph-1-0"><path d="M 3.59375 -2.21875 C 3.59375 -2.984375 3.5 -3.53125 3.171875 -4.015625 C 2.96875 -4.34375 2.53125 -4.609375 1.96875 -4.609375 C 0.359375 -4.609375 0.359375 -2.71875 0.359375 -2.21875 C 0.359375 -1.71875 0.359375 0.140625 1.96875 0.140625 C 3.59375 0.140625 3.59375 -1.71875 3.59375 -2.21875 Z M 1.96875 -0.0625 C 1.65625 -0.0625 1.234375 -0.25 1.09375 -0.8125 C 1 -1.21875 1 -1.796875 1 -2.3125 C 1 -2.8125 1 -3.34375 1.09375 -3.734375 C 1.25 -4.28125 1.6875 -4.421875 1.96875 -4.421875 C 2.34375 -4.421875 2.71875 -4.1875 2.84375 -3.796875 C 2.953125 -3.40625 2.953125 -2.90625 2.953125 -2.3125 C 2.953125 -1.796875 2.953125 -1.28125 2.859375 -0.84375 C 2.71875 -0.203125 2.25 -0.0625 1.96875 -0.0625 Z M 1.96875 -0.0625 "/></g><g id="8fac95cadf6e920ae47a60a6c5411cc28xic1esa__glyph-1-1"><path d="M 2.328125 -4.421875 C 2.328125 -4.609375 2.3125 -4.609375 2.125 -4.609375 C 1.671875 -4.171875 1.046875 -4.171875 0.765625 -4.171875 L 0.765625 -3.921875 C 0.921875 -3.921875 1.390625 -3.921875 1.765625 -4.109375 L 1.765625 -0.5625 C 1.765625 -0.34375 1.765625 -0.25 1.078125 -0.25 L 0.8125 -0.25 L 0.8125 0 C 0.9375 0 1.78125 -0.03125 2.046875 -0.03125 C 2.265625 -0.03125 3.140625 0 3.28125 0 L 3.28125 -0.25 L 3.03125 -0.25 C 2.328125 -0.25 2.328125 -0.34375 2.328125 -0.5625 Z M 2.328125 -4.421875 "/></g><g id="8fac95cadf6e920ae47a60a6c5411cc28xic1esa__glyph-1-2"><path d="M 3.515625 -1.265625 L 3.28125 -1.265625 C 3.25 -1.109375 3.1875 -0.703125 3.09375 -0.625 C 3.03125 -0.59375 2.5 -0.59375 2.40625 -0.59375 L 1.125 -0.59375 C 1.859375 -1.234375 2.09375 -1.4375 2.515625 -1.765625 C 3.03125 -2.171875 3.515625 -2.59375 3.515625 -3.265625 C 3.515625 -4.109375 2.78125 -4.609375 1.890625 -4.609375 C 1.015625 -4.609375 0.4375 -4.015625 0.4375 -3.375 C 0.4375 -3.015625 0.734375 -2.984375 0.8125 -2.984375 C 0.96875 -2.984375 1.171875 -3.09375 1.171875 -3.34375 C 1.171875 -3.484375 1.125 -3.71875 0.765625 -3.71875 C 0.984375 -4.21875 1.453125 -4.359375 1.78125 -4.359375 C 2.46875 -4.359375 2.84375 -3.828125 2.84375 -3.265625 C 2.84375 -2.65625 2.40625 -2.171875 2.1875 -1.921875 L 0.5 -0.265625 C 0.4375 -0.203125 0.4375 -0.1875 0.4375 0 L 3.296875 0 Z M 3.515625 -1.265625 "/></g><g id="8fac95cadf6e920ae47a60a6c5411cc28xic1esa__glyph-2-0"><path d="M 1.90625 -2.484375 C 1.90625 -2.765625 1.671875 -3.015625 1.375 -3.015625 C 1.09375 -3.015625 0.859375 -2.765625 0.859375 -2.484375 C 0.859375 -2.203125 1.09375 -1.953125 1.375 -1.953125 C 1.671875 -1.953125 1.90625 -2.203125 1.90625 -2.484375 Z M 1.90625 -2.484375 "/></g><g id="8fac95cadf6e920ae47a60a6c5411cc28xic1esa__glyph-3-0"><path d="M 0.84375 -0.4375 C 0.828125 -0.34375 0.78125 -0.171875 0.78125 -0.15625 C 0.78125 0 0.90625 0.0625 1.015625 0.0625 C 1.140625 0.0625 1.25 -0.015625 1.28125 -0.078125 C 1.328125 -0.140625 1.375 -0.375 1.40625 -0.515625 C 1.453125 -0.640625 1.515625 -0.96875 1.5625 -1.140625 C 1.609375 -1.296875 1.640625 -1.453125 1.6875 -1.609375 C 1.765625 -1.890625 1.765625 -1.953125 1.96875 -2.234375 C 2.171875 -2.515625 2.5 -2.875 3.015625 -2.875 C 3.421875 -2.875 3.421875 -2.515625 3.421875 -2.390625 C 3.421875 -1.96875 3.125 -1.203125 3.015625 -0.90625 C 2.9375 -0.703125 2.90625 -0.640625 2.90625 -0.53125 C 2.90625 -0.15625 3.21875 0.0625 3.578125 0.0625 C 4.265625 0.0625 4.578125 -0.890625 4.578125 -1 C 4.578125 -1.078125 4.484375 -1.078125 4.46875 -1.078125 C 4.359375 -1.078125 4.359375 -1.046875 4.328125 -0.96875 C 4.171875 -0.40625 3.875 -0.125 3.59375 -0.125 C 3.453125 -0.125 3.421875 -0.21875 3.421875 -0.375 C 3.421875 -0.53125 3.453125 -0.625 3.578125 -0.9375 C 3.671875 -1.140625 3.953125 -1.890625 3.953125 -2.28125 C 3.953125 -2.953125 3.40625 -3.0625 3.046875 -3.0625 C 2.46875 -3.0625 2.078125 -2.71875 1.875 -2.4375 C 1.828125 -2.90625 1.40625 -3.0625 1.125 -3.0625 C 0.828125 -3.0625 0.671875 -2.84375 0.578125 -2.6875 C 0.421875 -2.4375 0.328125 -2.03125 0.328125 -2 C 0.328125 -1.90625 0.421875 -1.90625 0.4375 -1.90625 C 0.546875 -1.90625 0.546875 -1.9375 0.59375 -2.125 C 0.703125 -2.53125 0.828125 -2.875 1.109375 -2.875 C 1.28125 -2.875 1.328125 -2.71875 1.328125 -2.53125 C 1.328125 -2.40625 1.265625 -2.140625 1.21875 -1.953125 C 1.171875 -1.765625 1.109375 -1.484375 1.078125 -1.328125 Z M 0.84375 -0.4375 "/></g><g id="8fac95cadf6e920ae47a60a6c5411cc28xic1esa__glyph-3-1"><path d="M 5.5 -1.609375 C 5.546875 -1.703125 5.546875 -1.71875 5.546875 -1.734375 C 5.546875 -1.765625 5.515625 -1.828125 5.4375 -1.828125 C 5.421875 -1.828125 5.375 -1.828125 5.359375 -1.796875 C 5.34375 -1.78125 5.328125 -1.78125 5.25 -1.59375 C 4.796875 -0.59375 4.4375 -0.25 3.3125 -0.25 L 2.125 -0.25 C 1.90625 -0.25 1.90625 -0.25 1.90625 -0.3125 C 1.90625 -0.328125 1.90625 -0.359375 1.9375 -0.46875 L 2.40625 -2.328125 L 3.171875 -2.328125 C 3.734375 -2.328125 3.8125 -2.234375 3.8125 -2.015625 C 3.8125 -1.9375 3.796875 -1.8125 3.765625 -1.703125 C 3.734375 -1.640625 3.734375 -1.625 3.734375 -1.609375 C 3.734375 -1.59375 3.75 -1.515625 3.859375 -1.515625 C 3.953125 -1.515625 3.96875 -1.546875 3.984375 -1.671875 L 4.375 -3.1875 C 4.390625 -3.28125 4.390625 -3.28125 4.390625 -3.296875 C 4.390625 -3.359375 4.34375 -3.390625 4.28125 -3.390625 C 4.1875 -3.390625 4.171875 -3.359375 4.140625 -3.21875 C 3.984375 -2.671875 3.78125 -2.578125 3.1875 -2.578125 L 2.46875 -2.578125 L 2.875 -4.234375 C 2.9375 -4.453125 2.9375 -4.46875 3.234375 -4.46875 L 4.359375 -4.46875 C 5.28125 -4.46875 5.5 -4.28125 5.5 -3.671875 C 5.5 -3.484375 5.484375 -3.28125 5.484375 -3.234375 C 5.484375 -3.1875 5.5 -3.125 5.59375 -3.125 C 5.703125 -3.125 5.703125 -3.1875 5.71875 -3.296875 L 5.84375 -4.515625 C 5.875 -4.71875 5.8125 -4.71875 5.640625 -4.71875 L 1.828125 -4.71875 C 1.6875 -4.71875 1.59375 -4.71875 1.59375 -4.5625 C 1.59375 -4.46875 1.671875 -4.46875 1.828125 -4.46875 C 1.9375 -4.46875 1.96875 -4.46875 2.09375 -4.453125 C 2.234375 -4.4375 2.25 -4.421875 2.25 -4.359375 C 2.25 -4.3125 2.21875 -4.234375 2.21875 -4.203125 L 1.3125 -0.5625 C 1.234375 -0.296875 1.234375 -0.25 0.6875 -0.25 C 0.5625 -0.25 0.484375 -0.25 0.484375 -0.09375 C 0.484375 0 0.5625 0 0.6875 0 L 4.609375 0 C 4.796875 0 4.796875 0 4.859375 -0.125 Z M 5.5 -1.609375 "/></g><g id="8fac95cadf6e920ae47a60a6c5411cc28xic1esa__glyph-3-2"><path d="M 2.828125 -2.75 L 3.515625 -2.75 C 3.65625 -2.75 3.734375 -2.75 3.734375 -2.90625 C 3.734375 -3 3.65625 -3 3.53125 -3 L 2.875 -3 C 3.03125 -3.875 3.09375 -4.203125 3.15625 -4.40625 C 3.1875 -4.546875 3.34375 -4.703125 3.5 -4.703125 C 3.515625 -4.703125 3.703125 -4.703125 3.828125 -4.609375 C 3.546875 -4.53125 3.53125 -4.28125 3.53125 -4.234375 C 3.53125 -4.078125 3.640625 -3.984375 3.796875 -3.984375 C 3.984375 -3.984375 4.203125 -4.140625 4.203125 -4.40625 C 4.203125 -4.71875 3.859375 -4.890625 3.5 -4.890625 C 3.203125 -4.890625 2.859375 -4.71875 2.671875 -4.375 C 2.53125 -4.109375 2.46875 -3.796875 2.328125 -3 L 1.78125 -3 C 1.640625 -3 1.546875 -3 1.546875 -2.84375 C 1.546875 -2.75 1.640625 -2.75 1.765625 -2.75 L 2.28125 -2.75 C 2.28125 -2.703125 1.828125 -0.203125 1.671875 0.546875 C 1.640625 0.703125 1.515625 1.21875 1.1875 1.21875 C 1.171875 1.21875 1.015625 1.21875 0.875 1.140625 C 1.15625 1.046875 1.1875 0.796875 1.1875 0.765625 C 1.1875 0.609375 1.0625 0.5 0.90625 0.5 C 0.71875 0.5 0.5 0.65625 0.5 0.921875 C 0.5 1.234375 0.828125 1.421875 1.1875 1.421875 C 1.625 1.421875 1.9375 0.953125 2.015625 0.8125 C 2.265625 0.34375 2.421875 -0.515625 2.4375 -0.59375 Z M 2.828125 -2.75 "/></g><g id="8fac95cadf6e920ae47a60a6c5411cc28xic1esa__glyph-3-3"><path d="M 3.703125 -2.5625 C 3.734375 -2.671875 3.734375 -2.703125 3.734375 -2.71875 C 3.734375 -2.859375 3.609375 -2.9375 3.484375 -2.9375 C 3.328125 -2.9375 3.203125 -2.796875 3.171875 -2.671875 C 3.046875 -2.859375 2.8125 -3.0625 2.453125 -3.0625 C 1.578125 -3.0625 0.671875 -2.140625 0.671875 -1.140625 C 0.671875 -0.421875 1.15625 0 1.734375 0 C 2.046875 0 2.359375 -0.15625 2.59375 -0.375 L 2.453125 0.25 C 2.375 0.546875 2.328125 0.734375 2.0625 0.96875 C 1.75 1.21875 1.453125 1.21875 1.28125 1.21875 C 0.953125 1.21875 0.875 1.203125 0.75 1.171875 C 0.921875 1.09375 0.96875 0.921875 0.96875 0.828125 C 0.96875 0.65625 0.828125 0.5625 0.703125 0.5625 C 0.5 0.5625 0.296875 0.734375 0.296875 1 C 0.296875 1.40625 0.890625 1.421875 1.28125 1.421875 C 2.375 1.421875 2.84375 0.859375 2.9375 0.46875 Z M 2.734375 -0.921875 C 2.71875 -0.828125 2.71875 -0.8125 2.59375 -0.671875 C 2.34375 -0.375 2.015625 -0.1875 1.75 -0.1875 C 1.390625 -0.1875 1.234375 -0.5 1.234375 -0.859375 C 1.234375 -1.15625 1.421875 -1.9375 1.59375 -2.25 C 1.890625 -2.734375 2.21875 -2.875 2.453125 -2.875 C 2.9375 -2.875 3.078125 -2.34375 3.078125 -2.28125 C 3.078125 -2.265625 3.078125 -2.25 3.046875 -2.171875 Z M 2.734375 -0.921875 "/></g><g id="8fac95cadf6e920ae47a60a6c5411cc28xic1esa__glyph-3-4"><path d="M 2.375 -2.234375 L 3.125 -2.234375 C 3.65625 -2.234375 3.734375 -2.15625 3.734375 -1.921875 C 3.734375 -1.828125 3.734375 -1.8125 3.6875 -1.609375 C 3.671875 -1.578125 3.671875 -1.546875 3.671875 -1.53125 C 3.671875 -1.453125 3.71875 -1.421875 3.796875 -1.421875 C 3.875 -1.421875 3.890625 -1.453125 3.921875 -1.578125 L 4.296875 -3.0625 C 4.296875 -3.078125 4.328125 -3.1875 4.328125 -3.203125 C 4.328125 -3.265625 4.28125 -3.296875 4.203125 -3.296875 C 4.109375 -3.296875 4.109375 -3.265625 4.0625 -3.140625 C 3.921875 -2.59375 3.734375 -2.484375 3.140625 -2.484375 L 2.4375 -2.484375 L 2.875 -4.234375 C 2.9375 -4.453125 2.9375 -4.46875 3.234375 -4.46875 L 4.296875 -4.46875 C 5.21875 -4.46875 5.390625 -4.25 5.390625 -3.671875 C 5.390625 -3.4375 5.375 -3.296875 5.375 -3.234375 C 5.375 -3.1875 5.390625 -3.125 5.484375 -3.125 C 5.59375 -3.125 5.59375 -3.1875 5.609375 -3.296875 L 5.734375 -4.515625 C 5.75 -4.71875 5.703125 -4.71875 5.53125 -4.71875 L 1.828125 -4.71875 C 1.6875 -4.71875 1.59375 -4.71875 1.59375 -4.5625 C 1.59375 -4.46875 1.6875 -4.46875 1.828125 -4.46875 C 1.828125 -4.46875 1.953125 -4.46875 2.09375 -4.453125 C 2.234375 -4.4375 2.25 -4.421875 2.25 -4.359375 C 2.25 -4.3125 2.21875 -4.234375 2.21875 -4.203125 L 1.3125 -0.5625 C 1.234375 -0.296875 1.234375 -0.25 0.6875 -0.25 C 0.5625 -0.25 0.484375 -0.25 0.484375 -0.109375 C 0.484375 -0.03125 0.53125 0 0.59375 0 C 0.796875 0 1.3125 -0.03125 1.515625 -0.03125 L 2.046875 -0.015625 C 2.21875 -0.015625 2.421875 0 2.59375 0 C 2.640625 0 2.75 0 2.75 -0.15625 C 2.75 -0.25 2.65625 -0.25 2.5 -0.25 C 2.484375 -0.25 2.3125 -0.25 2.140625 -0.265625 C 2 -0.28125 1.921875 -0.28125 1.921875 -0.375 C 1.921875 -0.40625 1.921875 -0.4375 1.953125 -0.5 Z M 2.375 -2.234375 "/></g><g id="8fac95cadf6e920ae47a60a6c5411cc28xic1esa__glyph-3-5"><path d="M 3.796875 -0.984375 C 4.4375 -1.640625 4.703125 -2.5625 4.703125 -2.640625 C 4.703125 -2.734375 4.609375 -2.734375 4.578125 -2.734375 C 4.484375 -2.734375 4.484375 -2.71875 4.4375 -2.5625 C 4.3125 -2.09375 4.078125 -1.671875 3.796875 -1.296875 C 3.78125 -1.40625 3.765625 -1.875 3.75 -1.9375 C 3.65625 -2.625 3.125 -3.0625 2.4375 -3.0625 C 1.40625 -3.0625 0.4375 -2.109375 0.4375 -1.140625 C 0.4375 -0.5 0.890625 0.0625 1.703125 0.0625 C 2.34375 0.0625 2.921875 -0.21875 3.3125 -0.515625 C 3.46875 -0.015625 3.828125 0.0625 4.03125 0.0625 C 4.4375 0.0625 4.6875 -0.265625 4.6875 -0.421875 C 4.6875 -0.5 4.609375 -0.5 4.5625 -0.5 C 4.484375 -0.5 4.46875 -0.46875 4.453125 -0.4375 C 4.359375 -0.171875 4.140625 -0.125 4.046875 -0.125 C 3.953125 -0.125 3.84375 -0.125 3.796875 -0.984375 Z M 3.265625 -0.75 C 2.578125 -0.1875 1.984375 -0.125 1.71875 -0.125 C 1.265625 -0.125 1.015625 -0.4375 1.015625 -0.890625 C 1.015625 -1.09375 1.109375 -1.859375 1.46875 -2.34375 C 1.78125 -2.75 2.1875 -2.875 2.421875 -2.875 C 2.984375 -2.875 3.140625 -2.34375 3.203125 -1.90625 C 3.234375 -1.609375 3.21875 -1.109375 3.265625 -0.75 Z M 3.265625 -0.75 "/></g><g id="8fac95cadf6e920ae47a60a6c5411cc28xic1esa__glyph-4-0"><path d="M 1.984375 -3.15625 C 1.984375 -3.3125 1.96875 -3.3125 1.796875 -3.3125 C 1.453125 -2.984375 0.890625 -2.984375 0.796875 -2.984375 L 0.703125 -2.984375 L 0.703125 -2.765625 L 0.796875 -2.765625 C 0.90625 -2.765625 1.234375 -2.78125 1.515625 -2.90625 L 1.515625 -0.421875 C 1.515625 -0.265625 1.515625 -0.21875 1 -0.21875 L 0.75 -0.21875 L 0.75 0 C 1.015625 -0.015625 1.453125 -0.015625 1.75 -0.015625 C 2.03125 -0.015625 2.484375 -0.015625 2.75 0 L 2.75 -0.21875 L 2.5 -0.21875 C 1.984375 -0.21875 1.984375 -0.265625 1.984375 -0.421875 Z M 1.984375 -3.15625 "/></g><g id="8fac95cadf6e920ae47a60a6c5411cc28xic1esa__glyph-4-1"><path d="M 2.921875 -0.953125 L 2.71875 -0.953125 C 2.703125 -0.859375 2.65625 -0.5625 2.578125 -0.5 C 2.53125 -0.484375 2.109375 -0.484375 2.046875 -0.484375 L 1.0625 -0.484375 C 1.390625 -0.71875 1.765625 -1 2.0625 -1.203125 C 2.515625 -1.5 2.921875 -1.796875 2.921875 -2.328125 C 2.921875 -2.953125 2.328125 -3.3125 1.609375 -3.3125 C 0.9375 -3.3125 0.453125 -2.921875 0.453125 -2.4375 C 0.453125 -2.171875 0.671875 -2.125 0.734375 -2.125 C 0.875 -2.125 1.03125 -2.21875 1.03125 -2.421875 C 1.03125 -2.609375 0.90625 -2.703125 0.75 -2.71875 C 0.890625 -2.9375 1.171875 -3.09375 1.515625 -3.09375 C 2 -3.09375 2.390625 -2.796875 2.390625 -2.3125 C 2.390625 -1.890625 2.109375 -1.578125 1.71875 -1.25 L 0.515625 -0.234375 C 0.46875 -0.1875 0.453125 -0.1875 0.453125 -0.15625 L 0.453125 0 L 2.765625 0 Z M 2.921875 -0.953125 "/></g><g id="8fac95cadf6e920ae47a60a6c5411cc28xic1esa__glyph-4-2"><path d="M 1.640625 -1.640625 C 2.09375 -1.640625 2.40625 -1.359375 2.40625 -0.875 C 2.40625 -0.359375 2.09375 -0.09375 1.640625 -0.09375 C 1.59375 -0.09375 1 -0.09375 0.75 -0.359375 C 0.953125 -0.375 1.015625 -0.53125 1.015625 -0.65625 C 1.015625 -0.84375 0.875 -0.953125 0.703125 -0.953125 C 0.546875 -0.953125 0.390625 -0.859375 0.390625 -0.640625 C 0.390625 -0.125 0.984375 0.109375 1.65625 0.109375 C 2.46875 0.109375 2.984375 -0.375 2.984375 -0.859375 C 2.984375 -1.265625 2.625 -1.625 2.046875 -1.75 C 2.640625 -1.9375 2.8125 -2.328125 2.8125 -2.59375 C 2.8125 -3 2.296875 -3.3125 1.671875 -3.3125 C 1.0625 -3.3125 0.578125 -3.046875 0.578125 -2.609375 C 0.578125 -2.375 0.765625 -2.3125 0.859375 -2.3125 C 1 -2.3125 1.140625 -2.421875 1.140625 -2.59375 C 1.140625 -2.703125 1.078125 -2.84375 0.90625 -2.875 C 1.109375 -3.109375 1.5625 -3.125 1.65625 -3.125 C 2.015625 -3.125 2.28125 -2.9375 2.28125 -2.59375 C 2.28125 -2.3125 2.09375 -1.859375 1.5625 -1.828125 C 1.4375 -1.828125 1.40625 -1.8125 1.28125 -1.8125 C 1.234375 -1.8125 1.171875 -1.796875 1.171875 -1.734375 C 1.171875 -1.640625 1.21875 -1.640625 1.3125 -1.640625 Z M 1.640625 -1.640625 "/></g><g id="8fac95cadf6e920ae47a60a6c5411cc28xic1esa__glyph-5-0"><path d="M 1.296875 -3.9375 C 1.296875 -4.109375 1.296875 -4.28125 1.109375 -4.28125 C 0.90625 -4.28125 0.90625 -4.09375 0.90625 -3.921875 L 0.90625 -0.125 C 0.90625 0.046875 0.90625 0.21875 1.109375 0.21875 C 1.296875 0.21875 1.296875 0.046875 1.296875 -0.125 Z M 1.296875 -3.9375 "/></g><g id="8fac95cadf6e920ae47a60a6c5411cc28xic1esa__glyph-6-0"><path d="M 0.96875 -0.484375 C 0.9375 -0.359375 0.890625 -0.140625 0.890625 -0.125 C 0.890625 -0.015625 0.96875 0.046875 1.0625 0.046875 C 1.140625 0.046875 1.25 0.015625 1.3125 -0.109375 C 1.3125 -0.140625 1.375 -0.375 1.40625 -0.5 C 1.5625 -1.171875 1.5625 -1.171875 1.578125 -1.203125 C 1.640625 -1.328125 2 -2.03125 2.609375 -2.03125 C 2.859375 -2.03125 2.953125 -1.890625 2.953125 -1.671875 C 2.953125 -1.390625 2.75 -0.875 2.640625 -0.59375 C 2.609375 -0.53125 2.578125 -0.46875 2.578125 -0.375 C 2.578125 -0.125 2.828125 0.046875 3.125 0.046875 C 3.65625 0.046875 3.9375 -0.59375 3.9375 -0.71875 C 3.9375 -0.78125 3.84375 -0.78125 3.828125 -0.78125 C 3.734375 -0.78125 3.734375 -0.765625 3.703125 -0.671875 C 3.609375 -0.375 3.390625 -0.109375 3.140625 -0.109375 C 3.03125 -0.109375 3 -0.1875 3 -0.296875 C 3 -0.40625 3.015625 -0.453125 3.0625 -0.5625 C 3.140625 -0.765625 3.375 -1.328125 3.375 -1.609375 C 3.375 -1.96875 3.109375 -2.203125 2.640625 -2.203125 C 2.1875 -2.203125 1.875 -1.921875 1.703125 -1.703125 C 1.671875 -2.109375 1.28125 -2.203125 1.09375 -2.203125 C 0.59375 -2.203125 0.453125 -1.4375 0.453125 -1.421875 C 0.453125 -1.359375 0.53125 -1.359375 0.5625 -1.359375 C 0.640625 -1.359375 0.65625 -1.390625 0.671875 -1.453125 C 0.75 -1.734375 0.859375 -2.03125 1.0625 -2.03125 C 1.234375 -2.03125 1.265625 -1.875 1.265625 -1.765625 C 1.265625 -1.6875 1.21875 -1.5 1.1875 -1.375 C 1.15625 -1.234375 1.109375 -1.03125 1.078125 -0.921875 Z M 0.96875 -0.484375 "/></g></g><clipPath id="8fac95cadf6e920ae47a60a6c5411cc28xic1esa__clip-0"><path d="M 125 0.0859375 L 192 0.0859375 L 192 70.84375 L 125 70.84375 Z M 125 0.0859375 " clip-rule="nonzero"/></clipPath><clipPath id="8fac95cadf6e920ae47a60a6c5411cc28xic1esa__clip-1"><path d="M 137 0.0859375 L 181 0.0859375 L 181 70.84375 L 137 70.84375 Z M 137 0.0859375 " clip-rule="nonzero"/></clipPath></defs><g fill="rgb(0%, 0%, 0%)" fill-opacity="1"><use xlink:href="#8fac95cadf6e920ae47a60a6c5411cc28xic1esa__glyph-0-0" x="64.16" y="12.788788"/></g><g fill="rgb(0%, 0%, 0%)" fill-opacity="1"><use xlink:href="#8fac95cadf6e920ae47a60a6c5411cc28xic1esa__glyph-1-0" x="71.610401" y="14.278469"/></g><g fill="rgb(0%, 0%, 0%)" fill-opacity="1"><use xlink:href="#8fac95cadf6e920ae47a60a6c5411cc28xic1esa__glyph-0-0" x="108.504445" y="12.788788"/></g><g fill="rgb(0%, 0%, 0%)" fill-opacity="1"><use xlink:href="#8fac95cadf6e920ae47a60a6c5411cc28xic1esa__glyph-1-1" x="115.954846" y="14.278469"/></g><g fill="rgb(0%, 0%, 0%)" fill-opacity="1"><use xlink:href="#8fac95cadf6e920ae47a60a6c5411cc28xic1esa__glyph-0-0" x="152.806015" y="12.788788"/></g><g fill="rgb(0%, 0%, 0%)" fill-opacity="1"><use xlink:href="#8fac95cadf6e920ae47a60a6c5411cc28xic1esa__glyph-1-2" x="160.256416" y="14.278469"/></g><g fill="rgb(0%, 0%, 0%)" fill-opacity="1"><use xlink:href="#8fac95cadf6e920ae47a60a6c5411cc28xic1esa__glyph-2-0" x="197.108581" y="12.788788"/></g><g fill="rgb(0%, 0%, 0%)" fill-opacity="1"><use xlink:href="#8fac95cadf6e920ae47a60a6c5411cc28xic1esa__glyph-2-0" x="201.527136" y="12.788788"/></g><g fill="rgb(0%, 0%, 0%)" fill-opacity="1"><use xlink:href="#8fac95cadf6e920ae47a60a6c5411cc28xic1esa__glyph-2-0" x="205.935758" y="12.788788"/></g><g fill="rgb(0%, 0%, 0%)" fill-opacity="1"><use xlink:href="#8fac95cadf6e920ae47a60a6c5411cc28xic1esa__glyph-0-0" x="241.134949" y="12.788788"/></g><g fill="rgb(0%, 0%, 0%)" fill-opacity="1"><use xlink:href="#8fac95cadf6e920ae47a60a6c5411cc28xic1esa__glyph-3-0" x="248.58535" y="14.278469"/></g><g fill="rgb(0%, 0%, 0%)" fill-opacity="1"><use xlink:href="#8fac95cadf6e920ae47a60a6c5411cc28xic1esa__glyph-0-1" x="64.117124" y="64.100036"/></g><g fill="rgb(0%, 0%, 0%)" fill-opacity="1"><use xlink:href="#8fac95cadf6e920ae47a60a6c5411cc28xic1esa__glyph-1-0" x="71.65228" y="65.589718"/></g><g fill="rgb(0%, 0%, 0%)" fill-opacity="1"><use xlink:href="#8fac95cadf6e920ae47a60a6c5411cc28xic1esa__glyph-0-1" x="241.09307" y="64.100036"/></g><g fill="rgb(0%, 0%, 0%)" fill-opacity="1"><use xlink:href="#8fac95cadf6e920ae47a60a6c5411cc28xic1esa__glyph-3-0" x="248.628226" y="65.589718"/></g><path fill="none" stroke="rgb(0%, 0%, 0%)" stroke-linecap="butt" stroke-linejoin="miter" stroke-miterlimit="10" stroke-opacity="1" stroke-width="0.39848" d="M -78.764454 25.564302 L -55.607673 25.564302 " transform="matrix(0.997109, 0, 0, -0.997109, 159.075838, 35.795092)"/><path fill="none" stroke="rgb(0%, 0%, 0%)" stroke-linecap="round" stroke-linejoin="round" stroke-miterlimit="10" stroke-opacity="1" stroke-width="0.39848" d="M -2.072714 2.389812 C -1.692709 0.95598 -0.85043 0.278239 -0.000316753 0.0000916532 C -0.85043 -0.278056 -1.692709 -0.955796 -2.072714 -2.389629 " transform="matrix(0.997109, 0, 0, -0.997109, 103.828441, 10.304779)"/><g fill="rgb(0%, 0%, 0%)" fill-opacity="1"><use xlink:href="#8fac95cadf6e920ae47a60a6c5411cc28xic1esa__glyph-3-1" x="87.430538" y="6.974643"/></g><g fill="rgb(0%, 0%, 0%)" fill-opacity="1"><use xlink:href="#8fac95cadf6e920ae47a60a6c5411cc28xic1esa__glyph-4-0" x="93.262631" y="7.967764"/></g><g fill="rgb(0%, 0%, 0%)" fill-opacity="1"><use xlink:href="#8fac95cadf6e920ae47a60a6c5411cc28xic1esa__glyph-5-0" x="91.181664" y="12.788788"/></g><path fill="none" stroke="rgb(0%, 0%, 0%)" stroke-linecap="butt" stroke-linejoin="miter" stroke-miterlimit="10" stroke-opacity="1" stroke-width="0.39848" d="M -89.22046 17.733071 L -89.22046 -17.337054 " transform="matrix(0.997109, 0, 0, -0.997109, 159.075838, 35.795092)"/><path fill="none" stroke="rgb(0%, 0%, 0%)" stroke-linecap="round" stroke-linejoin="round" stroke-miterlimit="10" stroke-opacity="1" stroke-width="0.39848" d="M -2.073994 2.39158 C -1.69399 0.957748 -0.851711 0.280008 -0.00159746 0.00186 C -0.851711 -0.280205 -1.69399 -0.957946 -2.073994 -2.391778 " transform="matrix(0, 0.997109, 0.997109, 0, 70.111427, 53.278937)"/><g fill="rgb(0%, 0%, 0%)" fill-opacity="1"><use xlink:href="#8fac95cadf6e920ae47a60a6c5411cc28xic1esa__glyph-3-2" x="63.123006" y="37.533054"/></g><path fill="none" stroke="rgb(0%, 0%, 0%)" stroke-linecap="butt" stroke-linejoin="miter" stroke-miterlimit="10" stroke-opacity="1" stroke-width="0.39848" d="M -34.288234 25.564302 L -11.174546 25.564302 " transform="matrix(0.997109, 0, 0, -0.997109, 159.075838, 35.795092)"/><path fill="none" stroke="rgb(0%, 0%, 0%)" stroke-linecap="round" stroke-linejoin="round" stroke-miterlimit="10" stroke-opacity="1" stroke-width="0.39848" d="M -2.070747 2.389812 C -1.694659 0.95598 -0.848463 0.278239 0.00165025 0.0000916532 C -0.848463 -0.278056 -1.694659 -0.955796 -2.070747 -2.389629 " transform="matrix(0.997109, 0, 0, -0.997109, 148.131167, 10.304779)"/><g fill="rgb(0%, 0%, 0%)" fill-opacity="1"><use xlink:href="#8fac95cadf6e920ae47a60a6c5411cc28xic1esa__glyph-3-1" x="131.754044" y="6.974643"/></g><g fill="rgb(0%, 0%, 0%)" fill-opacity="1"><use xlink:href="#8fac95cadf6e920ae47a60a6c5411cc28xic1esa__glyph-4-1" x="137.586137" y="7.967764"/></g><g fill="rgb(0%, 0%, 0%)" fill-opacity="1"><use xlink:href="#8fac95cadf6e920ae47a60a6c5411cc28xic1esa__glyph-5-0" x="135.50517" y="12.788788"/></g><path fill="none" stroke="rgb(0%, 0%, 0%)" stroke-linecap="butt" stroke-linejoin="miter" stroke-miterlimit="10" stroke-opacity="1" stroke-width="0.39848" d="M 10.140975 25.564302 L 33.254663 25.564302 " transform="matrix(0.997109, 0, 0, -0.997109, 159.075838, 35.795092)"/><path fill="none" stroke="rgb(0%, 0%, 0%)" stroke-linecap="round" stroke-linejoin="round" stroke-miterlimit="10" stroke-opacity="1" stroke-width="0.39848" d="M -2.072677 2.389812 C -1.692672 0.95598 -0.850394 0.278239 -0.000280312 0.0000916532 C -0.850394 -0.278056 -1.692672 -0.955796 -2.072677 -2.389629 " transform="matrix(0.997109, 0, 0, -0.997109, 192.433873, 10.304779)"/><g fill="rgb(0%, 0%, 0%)" fill-opacity="1"><use xlink:href="#8fac95cadf6e920ae47a60a6c5411cc28xic1esa__glyph-3-1" x="176.056611" y="6.974643"/></g><g fill="rgb(0%, 0%, 0%)" fill-opacity="1"><use xlink:href="#8fac95cadf6e920ae47a60a6c5411cc28xic1esa__glyph-4-2" x="181.887707" y="7.967764"/></g><g fill="rgb(0%, 0%, 0%)" fill-opacity="1"><use xlink:href="#8fac95cadf6e920ae47a60a6c5411cc28xic1esa__glyph-5-0" x="179.806739" y="12.788788"/></g><path fill="none" stroke="rgb(0%, 0%, 0%)" stroke-linecap="butt" stroke-linejoin="miter" stroke-miterlimit="10" stroke-opacity="1" stroke-width="0.39848" d="M 54.252861 25.564302 L 77.409643 25.564302 " transform="matrix(0.997109, 0, 0, -0.997109, 159.075838, 35.795092)"/><path fill="none" stroke="rgb(0%, 0%, 0%)" stroke-linecap="round" stroke-linejoin="round" stroke-miterlimit="10" stroke-opacity="1" stroke-width="0.39848" d="M -2.072878 2.389812 C -1.692873 0.95598 -0.850595 0.278239 -0.000481075 0.0000916532 C -0.850595 -0.278056 -1.692873 -0.955796 -2.072878 -2.389629 " transform="matrix(0.997109, 0, 0, -0.997109, 236.461417, 10.304779)"/><g fill="rgb(0%, 0%, 0%)" fill-opacity="1"><use xlink:href="#8fac95cadf6e920ae47a60a6c5411cc28xic1esa__glyph-3-1" x="219.564481" y="6.974643"/></g><g fill="rgb(0%, 0%, 0%)" fill-opacity="1"><use xlink:href="#8fac95cadf6e920ae47a60a6c5411cc28xic1esa__glyph-6-0" x="225.396574" y="7.967764"/></g><g fill="rgb(0%, 0%, 0%)" fill-opacity="1"><use xlink:href="#8fac95cadf6e920ae47a60a6c5411cc28xic1esa__glyph-5-0" x="223.813165" y="12.788788"/></g><path fill="none" stroke="rgb(0%, 0%, 0%)" stroke-linecap="butt" stroke-linejoin="miter" stroke-miterlimit="10" stroke-opacity="1" stroke-width="0.39848" d="M 88.747102 17.733071 L 88.747102 -17.337054 " transform="matrix(0.997109, 0, 0, -0.997109, 159.075838, 35.795092)"/><path fill="none" stroke="rgb(0%, 0%, 0%)" stroke-linecap="round" stroke-linejoin="round" stroke-miterlimit="10" stroke-opacity="1" stroke-width="0.39848" d="M -2.073994 2.391323 C -1.69399 0.957491 -0.851711 0.27975 -0.00159746 0.00160248 C -0.851711 -0.280463 -1.69399 -0.958203 -2.073994 -2.392035 " transform="matrix(0, 0.997109, 0.997109, 0, 247.564808, 53.278937)"/><g fill="rgb(0%, 0%, 0%)" fill-opacity="1"><use xlink:href="#8fac95cadf6e920ae47a60a6c5411cc28xic1esa__glyph-3-3" x="249.901534" y="36.615713"/></g><path fill="none" stroke="rgb(0%, 0%, 0%)" stroke-linecap="butt" stroke-linejoin="miter" stroke-miterlimit="10" stroke-opacity="1" stroke-width="0.39848" d="M -78.721361 -25.896954 L 77.366549 -25.896954 " transform="matrix(0.997109, 0, 0, -0.997109, 159.075838, 35.795092)"/><path fill="none" stroke="rgb(0%, 0%, 0%)" stroke-linecap="round" stroke-linejoin="round" stroke-miterlimit="10" stroke-opacity="1" stroke-width="0.39848" d="M -2.073591 2.389067 C -1.693586 0.955235 -0.851308 0.277494 -0.00119439 -0.000653538 C -0.851308 -0.278801 -1.693586 -0.956542 -2.073591 -2.390374 " transform="matrix(0.997109, 0, 0, -0.997109, 236.41916, 61.616536)"/><g fill="rgb(0%, 0%, 0%)" fill-opacity="1"><use xlink:href="#8fac95cadf6e920ae47a60a6c5411cc28xic1esa__glyph-3-4" x="155.547068" y="68.704687"/></g><g fill="rgb(0%, 0%, 0%)" fill-opacity="1"><use xlink:href="#8fac95cadf6e920ae47a60a6c5411cc28xic1esa__glyph-5-0" x="157.497414" y="64.100036"/></g><g clip-path="url(#8fac95cadf6e920ae47a60a6c5411cc28xic1esa__clip-0)"><path fill="none" stroke="rgb(0%, 0%, 0%)" stroke-linecap="butt" stroke-linejoin="miter" stroke-miterlimit="10" stroke-opacity="1" stroke-width="2.32874" d="M -0.342453 17.733071 L -0.448228 -16.036419 " transform="matrix(0.997109, 0, 0, -0.997109, 159.075838, 35.795092)"/></g><g clip-path="url(#8fac95cadf6e920ae47a60a6c5411cc28xic1esa__clip-1)"><path fill="none" stroke="rgb(100%, 100%, 100%)" stroke-linecap="butt" stroke-linejoin="miter" stroke-miterlimit="10" stroke-opacity="1" stroke-width="1.53175" d="M -0.342453 17.733071 L -0.448228 -16.036419 " transform="matrix(0.997109, 0, 0, -0.997109, 159.075838, 35.795092)"/></g><path fill="none" stroke="rgb(0%, 0%, 0%)" stroke-linecap="round" stroke-linejoin="round" stroke-miterlimit="10" stroke-opacity="1" stroke-width="0.39848" d="M -1.294408 2.55622 C -0.667311 1.20656 1.024805 0.0482515 1.988706 0.000309655 C 1.021191 -0.049702 -0.667665 -1.206739 -1.29423 -2.556367 " transform="matrix(-0.00309104, 0.997079, 0.997079, 0.00309104, 158.630838, 51.786633)"/><g fill="rgb(0%, 0%, 0%)" fill-opacity="1"><use xlink:href="#8fac95cadf6e920ae47a60a6c5411cc28xic1esa__glyph-3-5" x="161.006242" y="41.013963"/></g></svg>