<?xml version="1.0" encoding="UTF-8"?><svg xmlns="http://www.w3.org/2000/svg" xmlns:xlink="http://www.w3.org/1999/xlink" width="324.336" height="114.031" viewBox="0 0 324.336 114.031"><defs><g><g id="eec28f5c9f8ae6bc0cdacf49923f447en1q6jrpx__glyph-0-0"><path d="M 1.765625 -1.140625 C 1.375 -0.46875 0.984375 -0.328125 0.546875 -0.3125 C 0.4375 -0.296875 0.34375 -0.296875 0.34375 -0.109375 C 0.34375 -0.046875 0.390625 0 0.46875 0 C 0.734375 0 1.046875 -0.03125 1.328125 -0.03125 C 1.65625 -0.03125 2 0 2.3125 0 C 2.375 0 2.5 0 2.5 -0.1875 C 2.5 -0.296875 2.40625 -0.3125 2.34375 -0.3125 C 2.109375 -0.328125 1.875 -0.40625 1.875 -0.65625 C 1.875 -0.765625 1.9375 -0.875 2.015625 -1.015625 L 2.765625 -2.28125 L 5.25 -2.28125 C 5.265625 -2.078125 5.40625 -0.734375 5.40625 -0.625 C 5.40625 -0.328125 4.890625 -0.3125 4.6875 -0.3125 C 4.546875 -0.3125 4.453125 -0.3125 4.453125 -0.109375 C 4.453125 0 4.578125 0 4.59375 0 C 5 0 5.421875 -0.03125 5.828125 -0.03125 C 6.078125 -0.03125 6.6875 0 6.9375 0 C 7 0 7.125 0 7.125 -0.203125 C 7.125 -0.3125 7.015625 -0.3125 6.890625 -0.3125 C 6.28125 -0.3125 6.28125 -0.375 6.25 -0.65625 L 5.65625 -6.828125 C 5.625 -7.03125 5.625 -7.078125 5.453125 -7.078125 C 5.296875 -7.078125 5.265625 -7 5.203125 -6.90625 Z M 2.953125 -2.59375 L 4.890625 -5.84375 L 5.21875 -2.59375 Z M 2.953125 -2.59375 "/></g><g id="eec28f5c9f8ae6bc0cdacf49923f447en1q6jrpx__glyph-0-1"><path d="M 1.578125 -0.765625 C 1.484375 -0.390625 1.46875 -0.3125 0.6875 -0.3125 C 0.515625 -0.3125 0.421875 -0.3125 0.421875 -0.109375 C 0.421875 0 0.5 0 0.6875 0 L 4.203125 0 C 5.765625 0 6.9375 -1.171875 6.9375 -2.140625 C 6.9375 -2.84375 6.359375 -3.421875 5.40625 -3.53125 C 6.421875 -3.71875 7.46875 -4.4375 7.46875 -5.375 C 7.46875 -6.109375 6.8125 -6.75 5.625 -6.75 L 2.3125 -6.75 C 2.125 -6.75 2.03125 -6.75 2.03125 -6.546875 C 2.03125 -6.4375 2.109375 -6.4375 2.296875 -6.4375 C 2.328125 -6.4375 2.515625 -6.4375 2.671875 -6.421875 C 2.859375 -6.40625 2.9375 -6.390625 2.9375 -6.265625 C 2.9375 -6.21875 2.9375 -6.1875 2.90625 -6.078125 Z M 3.078125 -3.609375 L 3.6875 -6.0625 C 3.765625 -6.40625 3.796875 -6.4375 4.21875 -6.4375 L 5.484375 -6.4375 C 6.359375 -6.4375 6.5625 -5.859375 6.5625 -5.421875 C 6.5625 -4.546875 5.71875 -3.609375 4.515625 -3.609375 Z M 2.625 -0.3125 C 2.484375 -0.3125 2.46875 -0.3125 2.40625 -0.3125 C 2.3125 -0.328125 2.28125 -0.328125 2.28125 -0.421875 C 2.28125 -0.4375 2.28125 -0.46875 2.328125 -0.640625 L 3.015625 -3.390625 L 4.875 -3.390625 C 5.828125 -3.390625 6.015625 -2.671875 6.015625 -2.234375 C 6.015625 -1.265625 5.140625 -0.3125 3.96875 -0.3125 Z M 2.625 -0.3125 "/></g><g id="eec28f5c9f8ae6bc0cdacf49923f447en1q6jrpx__glyph-0-2"><path d="M 7.5 -6.859375 C 7.5 -6.890625 7.484375 -6.96875 7.390625 -6.96875 C 7.359375 -6.96875 7.359375 -6.953125 7.25 -6.84375 L 6.5625 -6.078125 C 6.46875 -6.21875 6.015625 -6.96875 4.921875 -6.96875 C 2.71875 -6.96875 0.5 -4.78125 0.5 -2.484375 C 0.5 -0.859375 1.65625 0.21875 3.171875 0.21875 C 4.03125 0.21875 4.78125 -0.171875 5.296875 -0.625 C 6.21875 -1.4375 6.390625 -2.34375 6.390625 -2.375 C 6.390625 -2.46875 6.296875 -2.46875 6.265625 -2.46875 C 6.21875 -2.46875 6.15625 -2.453125 6.140625 -2.375 C 6.046875 -2.078125 5.828125 -1.375 5.140625 -0.8125 C 4.46875 -0.25 3.84375 -0.09375 3.328125 -0.09375 C 2.4375 -0.09375 1.390625 -0.609375 1.390625 -2.140625 C 1.390625 -2.703125 1.59375 -4.3125 2.59375 -5.453125 C 3.1875 -6.15625 4.125 -6.65625 5 -6.65625 C 6 -6.65625 6.59375 -5.890625 6.59375 -4.75 C 6.59375 -4.359375 6.5625 -4.34375 6.5625 -4.25 C 6.5625 -4.140625 6.671875 -4.140625 6.703125 -4.140625 C 6.828125 -4.140625 6.828125 -4.171875 6.890625 -4.34375 Z M 7.5 -6.859375 "/></g><g id="eec28f5c9f8ae6bc0cdacf49923f447en1q6jrpx__glyph-1-0"><path d="M 3.640625 -2.203125 C 3.6875 -2.390625 3.765625 -2.734375 3.765625 -2.765625 C 3.765625 -2.90625 3.65625 -2.984375 3.546875 -2.984375 C 3.40625 -2.984375 3.28125 -2.90625 3.25 -2.78125 C 3.21875 -2.734375 3.15625 -2.4375 3.109375 -2.265625 C 3.015625 -1.875 3.015625 -1.859375 2.90625 -1.46875 C 2.8125 -1.09375 2.796875 -1.03125 2.796875 -0.828125 C 2.828125 -0.6875 2.765625 -0.5625 2.609375 -0.359375 C 2.515625 -0.25 2.375 -0.125 2.140625 -0.125 C 1.875 -0.125 1.515625 -0.21875 1.515625 -0.765625 C 1.515625 -1.109375 1.703125 -1.625 1.84375 -1.984375 C 1.96875 -2.28125 2 -2.34375 2 -2.46875 C 2 -2.796875 1.703125 -3.046875 1.328125 -3.046875 C 0.640625 -3.046875 0.328125 -2.109375 0.328125 -2 C 0.328125 -1.90625 0.421875 -1.90625 0.4375 -1.90625 C 0.546875 -1.90625 0.546875 -1.9375 0.5625 -2.015625 C 0.734375 -2.59375 1.03125 -2.859375 1.3125 -2.859375 C 1.4375 -2.859375 1.484375 -2.78125 1.484375 -2.609375 C 1.484375 -2.453125 1.421875 -2.3125 1.390625 -2.21875 C 1 -1.203125 1 -1.0625 1 -0.84375 C 1 -0.03125 1.734375 0.0625 2.109375 0.0625 C 2.25 0.0625 2.578125 0.0625 2.890625 -0.390625 C 3.046875 -0.078125 3.4375 0.0625 3.859375 0.0625 C 4.46875 0.0625 4.78125 -0.46875 4.921875 -0.75 C 5.21875 -1.328125 5.40625 -2.1875 5.40625 -2.515625 C 5.40625 -3.03125 5.09375 -3.0625 5.046875 -3.0625 C 4.875 -3.0625 4.671875 -2.875 4.671875 -2.6875 C 4.671875 -2.578125 4.75 -2.515625 4.796875 -2.484375 C 4.96875 -2.34375 5.046875 -2.140625 5.046875 -1.921875 C 5.046875 -1.828125 4.765625 -0.125 3.890625 -0.125 C 3.328125 -0.125 3.328125 -0.625 3.328125 -0.734375 C 3.328125 -0.921875 3.34375 -1.03125 3.453125 -1.4375 Z M 3.640625 -2.203125 "/></g><g id="eec28f5c9f8ae6bc0cdacf49923f447en1q6jrpx__glyph-1-1"><path d="M 2.8125 -2.734375 L 3.5 -2.734375 C 3.640625 -2.734375 3.71875 -2.734375 3.71875 -2.890625 C 3.71875 -2.984375 3.640625 -2.984375 3.515625 -2.984375 L 2.859375 -2.984375 C 3.03125 -3.859375 3.078125 -4.1875 3.140625 -4.375 C 3.171875 -4.53125 3.328125 -4.671875 3.484375 -4.671875 C 3.5 -4.671875 3.6875 -4.671875 3.8125 -4.59375 C 3.53125 -4.5 3.515625 -4.25 3.515625 -4.21875 C 3.515625 -4.0625 3.625 -3.953125 3.78125 -3.953125 C 3.96875 -3.953125 4.1875 -4.125 4.1875 -4.375 C 4.1875 -4.703125 3.84375 -4.875 3.484375 -4.875 C 3.1875 -4.875 2.84375 -4.703125 2.65625 -4.359375 C 2.515625 -4.09375 2.46875 -3.78125 2.3125 -2.984375 L 1.765625 -2.984375 C 1.640625 -2.984375 1.546875 -2.984375 1.546875 -2.828125 C 1.546875 -2.734375 1.640625 -2.734375 1.765625 -2.734375 L 2.265625 -2.734375 C 2.265625 -2.6875 1.828125 -0.203125 1.65625 0.546875 C 1.625 0.6875 1.515625 1.21875 1.171875 1.21875 C 1.171875 1.21875 1 1.21875 0.875 1.140625 C 1.15625 1.046875 1.171875 0.796875 1.171875 0.75 C 1.171875 0.609375 1.0625 0.5 0.90625 0.5 C 0.71875 0.5 0.5 0.65625 0.5 0.921875 C 0.5 1.234375 0.828125 1.40625 1.171875 1.40625 C 1.625 1.40625 1.921875 0.953125 2 0.796875 C 2.25 0.34375 2.421875 -0.515625 2.421875 -0.59375 Z M 2.8125 -2.734375 "/></g><g id="eec28f5c9f8ae6bc0cdacf49923f447en1q6jrpx__glyph-2-0"><path d="M 1.296875 -3.25 C 1.296875 -3.4375 1.140625 -3.53125 1 -3.53125 C 0.84375 -3.53125 0.6875 -3.4375 0.6875 -3.25 C 0.6875 -3.234375 0.703125 -3.171875 0.703125 -3.125 L 0.890625 -1.09375 C 0.890625 -1.015625 0.890625 -0.984375 1 -0.984375 C 1.09375 -0.984375 1.09375 -1.015625 1.09375 -1.09375 Z M 1.296875 -0.296875 C 1.296875 -0.46875 1.15625 -0.609375 1 -0.609375 C 0.828125 -0.609375 0.6875 -0.46875 0.6875 -0.296875 C 0.6875 -0.140625 0.828125 0 1 0 C 1.15625 0 1.296875 -0.140625 1.296875 -0.296875 Z M 1.296875 -0.296875 "/></g></g></defs><g fill="rgb(0%, 0%, 0%)" fill-opacity="1"><use xlink:href="#eec28f5c9f8ae6bc0cdacf49923f447en1q6jrpx__glyph-0-0" x="130.332528" y="10.365914"/></g><g fill="rgb(0%, 0%, 0%)" fill-opacity="1"><use xlink:href="#eec28f5c9f8ae6bc0cdacf49923f447en1q6jrpx__glyph-0-0" x="194.13436" y="10.365914"/></g><g fill="rgb(0%, 0%, 0%)" fill-opacity="1"><use xlink:href="#eec28f5c9f8ae6bc0cdacf49923f447en1q6jrpx__glyph-0-1" x="130.042988" y="59.909904"/></g><g fill="rgb(0%, 0%, 0%)" fill-opacity="1"><use xlink:href="#eec28f5c9f8ae6bc0cdacf49923f447en1q6jrpx__glyph-0-2" x="130.153053" y="109.454886"/></g><g fill="rgb(0%, 0%, 0%)" fill-opacity="1"><use xlink:href="#eec28f5c9f8ae6bc0cdacf49923f447en1q6jrpx__glyph-0-2" x="193.955877" y="109.454886"/></g><path fill="none" stroke="rgb(0%, 0%, 0%)" stroke-linecap="butt" stroke-linejoin="miter" stroke-miterlimit="10" stroke-opacity="1" stroke-width="2.32874" d="M -23.892349 49.054383 L 24.003413 49.054383 " transform="matrix(0.991574, 0, 0, -0.991574, 165.882436, 56.535578)"/><path fill="none" stroke="rgb(100%, 100%, 100%)" stroke-linecap="butt" stroke-linejoin="miter" stroke-miterlimit="10" stroke-opacity="1" stroke-width="1.53175" d="M -23.892349 49.054383 L 24.003413 49.054383 " transform="matrix(0.991574, 0, 0, -0.991574, 165.882436, 56.535578)"/><path fill="none" stroke="rgb(0%, 0%, 0%)" stroke-linecap="butt" stroke-linejoin="miter" stroke-miterlimit="10" stroke-opacity="1" stroke-width="0.39848" d="M -32.117908 42.715818 L -32.117908 7.646887 " transform="matrix(0.991574, 0, 0, -0.991574, 165.882436, 56.535578)"/><path fill="none" stroke="rgb(0%, 0%, 0%)" stroke-linecap="round" stroke-linejoin="round" stroke-miterlimit="10" stroke-opacity="1" stroke-width="0.39848" d="M -2.073542 2.390065 C -1.695355 0.956107 -0.848375 0.278523 -0.00139435 -0.00117791 C -0.848375 -0.280878 -1.695355 -0.954523 -2.073542 -2.39242 " transform="matrix(0, 0.991574, 0.991574, 0, 134.036324, 49.14982)"/><g fill="rgb(0%, 0%, 0%)" fill-opacity="1"><use xlink:href="#eec28f5c9f8ae6bc0cdacf49923f447en1q6jrpx__glyph-1-0" x="125.811942" y="33.25144"/></g><path fill="none" stroke="rgb(0%, 0%, 0%)" stroke-linecap="butt" stroke-linejoin="miter" stroke-miterlimit="10" stroke-opacity="1" stroke-width="0.39848" d="M 32.228972 42.715818 L 32.228972 -42.317083 " transform="matrix(0.991574, 0, 0, -0.991574, 165.882436, 56.535578)"/><path fill="none" stroke="rgb(0%, 0%, 0%)" stroke-linecap="round" stroke-linejoin="round" stroke-miterlimit="10" stroke-opacity="1" stroke-width="0.39848" d="M -2.071753 2.391765 C -1.693566 0.957807 -0.850525 0.280223 0.000394594 0.000521992 C -0.850525 -0.279179 -1.693566 -0.956763 -2.071753 -2.390721 " transform="matrix(0, 0.991574, 0.991574, 0, 197.839326, 98.694921)"/><g fill="rgb(0%, 0%, 0%)" fill-opacity="1"><use xlink:href="#eec28f5c9f8ae6bc0cdacf49923f447en1q6jrpx__glyph-1-1" x="200.163129" y="58.263892"/></g><path fill="none" stroke="rgb(0%, 0%, 0%)" stroke-linecap="butt" stroke-linejoin="miter" stroke-miterlimit="10" stroke-opacity="1" stroke-width="0.39848" d="M -32.117908 -7.248152 L -32.117908 -42.317083 " transform="matrix(0.991574, 0, 0, -0.991574, 165.882436, 56.535578)"/><path fill="none" stroke="rgb(0%, 0%, 0%)" stroke-linecap="round" stroke-linejoin="round" stroke-miterlimit="10" stroke-opacity="1" stroke-width="0.39848" d="M -2.071753 2.390065 C -1.693566 0.956107 -0.850525 0.278523 0.000394594 -0.00117791 C -0.850525 -0.280878 -1.693566 -0.954523 -2.071753 -2.39242 " transform="matrix(0, 0.991574, 0.991574, 0, 134.036324, 98.694921)"/><g fill="rgb(0%, 0%, 0%)" fill-opacity="1"><use xlink:href="#eec28f5c9f8ae6bc0cdacf49923f447en1q6jrpx__glyph-1-0" x="118.88679" y="83.036383"/></g><g fill="rgb(0%, 0%, 0%)" fill-opacity="1"><use xlink:href="#eec28f5c9f8ae6bc0cdacf49923f447en1q6jrpx__glyph-2-0" x="124.602222" y="84.084476"/></g><g fill="rgb(0%, 0%, 0%)" fill-opacity="1"><use xlink:href="#eec28f5c9f8ae6bc0cdacf49923f447en1q6jrpx__glyph-1-1" x="127.085123" y="83.036383"/></g><path fill="none" stroke="rgb(0%, 0%, 0%)" stroke-linecap="butt" stroke-linejoin="miter" stroke-miterlimit="10" stroke-opacity="1" stroke-width="2.32874" d="M -23.711134 -50.877495 L 23.822198 -50.877495 " transform="matrix(0.991574, 0, 0, -0.991574, 165.882436, 56.535578)"/><path fill="none" stroke="rgb(100%, 100%, 100%)" stroke-linecap="butt" stroke-linejoin="miter" stroke-miterlimit="10" stroke-opacity="1" stroke-width="1.53175" d="M -23.711134 -50.877495 L 23.822198 -50.877495 " transform="matrix(0.991574, 0, 0, -0.991574, 165.882436, 56.535578)"/><path fill="none" stroke="rgb(0%, 0%, 0%)" stroke-linecap="butt" stroke-linejoin="miter" stroke-miterlimit="10" stroke-opacity="1" stroke-width="2.32874" d="M 0.055532 31.417492 L 0.055532 -31.058152 " transform="matrix(0.991574, 0, 0, -0.991574, 165.882436, 56.535578)"/><path fill="none" stroke="rgb(100%, 100%, 100%)" stroke-linecap="butt" stroke-linejoin="miter" stroke-miterlimit="10" stroke-opacity="1" stroke-width="1.53175" d="M 0.055532 31.417492 L 0.055532 -31.058152 " transform="matrix(0.991574, 0, 0, -0.991574, 165.882436, 56.535578)"/><path fill="none" stroke="rgb(0%, 0%, 0%)" stroke-linecap="round" stroke-linejoin="round" stroke-miterlimit="10" stroke-opacity="1" stroke-width="0.39848" d="M -1.291906 2.556371 C -0.665534 1.205142 1.024487 0.0469454 1.989651 -0.00032796 C 1.024487 -0.0476013 -0.665534 -1.205798 -1.291906 -2.557027 " transform="matrix(0, 0.991574, 0.991574, 0, 165.937825, 87.331801)"/></svg>