<?xml version="1.0" encoding="UTF-8"?><svg xmlns="http://www.w3.org/2000/svg" xmlns:xlink="http://www.w3.org/1999/xlink" width="703.828" height="221.295" viewBox="0 0 703.828 221.295"><defs><g><g id="edb49ed61258017b1ba5aabe93fabfe819lz7wv0__glyph-0-0"><path d="M 4.578125 -3.1875 C 4.578125 -3.96875 4.515625 -4.765625 4.171875 -5.5 C 3.71875 -6.453125 2.90625 -6.625 2.484375 -6.625 C 1.890625 -6.625 1.15625 -6.359375 0.75 -5.4375 C 0.4375 -4.75 0.390625 -3.96875 0.390625 -3.1875 C 0.390625 -2.4375 0.421875 -1.546875 0.828125 -0.78125 C 1.265625 0.015625 1.984375 0.21875 2.46875 0.21875 C 3.015625 0.21875 3.765625 0.015625 4.203125 -0.9375 C 4.515625 -1.625 4.578125 -2.390625 4.578125 -3.1875 Z M 2.46875 0 C 2.09375 0 1.5 -0.25 1.328125 -1.203125 C 1.21875 -1.796875 1.21875 -2.71875 1.21875 -3.296875 C 1.21875 -3.9375 1.21875 -4.59375 1.296875 -5.125 C 1.484375 -6.3125 2.21875 -6.40625 2.46875 -6.40625 C 2.796875 -6.40625 3.453125 -6.21875 3.640625 -5.234375 C 3.75 -4.6875 3.75 -3.921875 3.75 -3.296875 C 3.75 -2.546875 3.75 -1.875 3.640625 -1.25 C 3.484375 -0.296875 2.921875 0 2.46875 0 Z M 2.46875 0 "/></g><g id="edb49ed61258017b1ba5aabe93fabfe819lz7wv0__glyph-0-1"><path d="M 3.296875 2.390625 C 3.296875 2.359375 3.296875 2.328125 3.125 2.171875 C 1.875 0.921875 1.5625 -0.96875 1.5625 -2.484375 C 1.5625 -4.21875 1.9375 -5.9375 3.15625 -7.1875 C 3.296875 -7.296875 3.296875 -7.328125 3.296875 -7.359375 C 3.296875 -7.421875 3.25 -7.453125 3.1875 -7.453125 C 3.09375 -7.453125 2.203125 -6.78125 1.609375 -5.515625 C 1.109375 -4.421875 0.984375 -3.3125 0.984375 -2.484375 C 0.984375 -1.703125 1.09375 -0.5 1.640625 0.609375 C 2.234375 1.84375 3.09375 2.484375 3.1875 2.484375 C 3.25 2.484375 3.296875 2.453125 3.296875 2.390625 Z M 3.296875 2.390625 "/></g><g id="edb49ed61258017b1ba5aabe93fabfe819lz7wv0__glyph-0-2"><path d="M 2.875 -2.484375 C 2.875 -3.265625 2.765625 -4.46875 2.21875 -5.578125 C 1.625 -6.8125 0.765625 -7.453125 0.671875 -7.453125 C 0.609375 -7.453125 0.5625 -7.40625 0.5625 -7.359375 C 0.5625 -7.328125 0.5625 -7.296875 0.75 -7.125 C 1.734375 -6.140625 2.296875 -4.5625 2.296875 -2.484375 C 2.296875 -0.78125 1.921875 0.96875 0.703125 2.21875 C 0.5625 2.328125 0.5625 2.359375 0.5625 2.390625 C 0.5625 2.4375 0.609375 2.484375 0.671875 2.484375 C 0.765625 2.484375 1.65625 1.8125 2.25 0.546875 C 2.75 -0.546875 2.875 -1.65625 2.875 -2.484375 Z M 2.875 -2.484375 "/></g><g id="edb49ed61258017b1ba5aabe93fabfe819lz7wv0__glyph-0-3"><path d="M 6.828125 -3.25 C 6.96875 -3.25 7.171875 -3.25 7.171875 -3.453125 C 7.171875 -3.640625 6.96875 -3.640625 6.84375 -3.640625 L 0.890625 -3.640625 C 0.75 -3.640625 0.5625 -3.640625 0.5625 -3.453125 C 0.5625 -3.25 0.75 -3.25 0.890625 -3.25 Z M 6.84375 -1.328125 C 6.96875 -1.328125 7.171875 -1.328125 7.171875 -1.515625 C 7.171875 -1.71875 6.96875 -1.71875 6.828125 -1.71875 L 0.890625 -1.71875 C 0.75 -1.71875 0.5625 -1.71875 0.5625 -1.515625 C 0.5625 -1.328125 0.75 -1.328125 0.890625 -1.328125 Z M 6.84375 -1.328125 "/></g><g id="edb49ed61258017b1ba5aabe93fabfe819lz7wv0__glyph-1-0"><path d="M 7.578125 -6.015625 C 7.671875 -6.375 7.6875 -6.484375 8.421875 -6.484375 C 8.671875 -6.484375 8.75 -6.484375 8.75 -6.671875 C 8.75 -6.78125 8.640625 -6.78125 8.609375 -6.78125 C 8.34375 -6.78125 7.625 -6.75 7.34375 -6.75 C 7.0625 -6.75 6.34375 -6.78125 6.0625 -6.78125 C 5.984375 -6.78125 5.875 -6.78125 5.875 -6.59375 C 5.875 -6.484375 5.96875 -6.484375 6.15625 -6.484375 C 6.171875 -6.484375 6.359375 -6.484375 6.53125 -6.453125 C 6.703125 -6.4375 6.796875 -6.421875 6.796875 -6.296875 C 6.796875 -6.265625 6.78125 -6.234375 6.75 -6.109375 L 6.15625 -3.6875 L 3.125 -3.6875 L 3.71875 -6.015625 C 3.8125 -6.375 3.828125 -6.484375 4.546875 -6.484375 C 4.8125 -6.484375 4.890625 -6.484375 4.890625 -6.671875 C 4.890625 -6.78125 4.78125 -6.78125 4.75 -6.78125 C 4.46875 -6.78125 3.75 -6.75 3.484375 -6.75 C 3.1875 -6.75 2.484375 -6.78125 2.203125 -6.78125 C 2.109375 -6.78125 2 -6.78125 2 -6.59375 C 2 -6.484375 2.09375 -6.484375 2.28125 -6.484375 C 2.3125 -6.484375 2.5 -6.484375 2.65625 -6.453125 C 2.84375 -6.4375 2.9375 -6.421875 2.9375 -6.296875 C 2.9375 -6.265625 2.921875 -6.234375 2.890625 -6.109375 L 1.5625 -0.78125 C 1.453125 -0.390625 1.4375 -0.3125 0.65625 -0.3125 C 0.484375 -0.3125 0.390625 -0.3125 0.390625 -0.109375 C 0.390625 0 0.5 0 0.53125 0 C 0.8125 0 1.515625 -0.03125 1.78125 -0.03125 C 2 -0.03125 2.21875 -0.015625 2.421875 -0.015625 C 2.640625 -0.015625 2.859375 0 3.078125 0 C 3.15625 0 3.265625 0 3.265625 -0.203125 C 3.265625 -0.3125 3.1875 -0.3125 2.984375 -0.3125 C 2.625 -0.3125 2.34375 -0.3125 2.34375 -0.484375 C 2.34375 -0.546875 2.359375 -0.59375 2.375 -0.65625 L 3.046875 -3.375 L 6.078125 -3.375 C 5.671875 -1.734375 5.4375 -0.78125 5.390625 -0.640625 C 5.296875 -0.3125 5.109375 -0.3125 4.484375 -0.3125 C 4.34375 -0.3125 4.25 -0.3125 4.25 -0.109375 C 4.25 0 4.375 0 4.390625 0 C 4.671875 0 5.375 -0.03125 5.65625 -0.03125 C 5.859375 -0.03125 6.078125 -0.015625 6.296875 -0.015625 C 6.515625 -0.015625 6.734375 0 6.9375 0 C 7.015625 0 7.140625 0 7.140625 -0.203125 C 7.140625 -0.3125 7.046875 -0.3125 6.859375 -0.3125 C 6.484375 -0.3125 6.21875 -0.3125 6.21875 -0.484375 C 6.21875 -0.546875 6.234375 -0.59375 6.234375 -0.65625 Z M 7.578125 -6.015625 "/></g><g id="edb49ed61258017b1ba5aabe93fabfe819lz7wv0__glyph-1-1"><path d="M 4.8125 -4.078125 L 3.984375 -6.0625 C 3.953125 -6.140625 3.9375 -6.1875 3.9375 -6.1875 C 3.9375 -6.25 4.109375 -6.4375 4.515625 -6.484375 C 4.625 -6.484375 4.71875 -6.5 4.71875 -6.671875 C 4.71875 -6.78125 4.59375 -6.78125 4.578125 -6.78125 C 4.15625 -6.78125 3.734375 -6.75 3.3125 -6.75 C 3.078125 -6.75 2.453125 -6.78125 2.203125 -6.78125 C 2.140625 -6.78125 2.03125 -6.78125 2.03125 -6.59375 C 2.03125 -6.484375 2.125 -6.484375 2.25 -6.484375 C 2.859375 -6.484375 2.90625 -6.375 3 -6.15625 L 4.171875 -3.390625 L 2.078125 -1.140625 L 1.953125 -1.03125 C 1.453125 -0.5 1 -0.34375 0.484375 -0.3125 C 0.359375 -0.296875 0.265625 -0.296875 0.265625 -0.109375 C 0.265625 -0.09375 0.265625 0 0.390625 0 C 0.703125 0 1.03125 -0.03125 1.328125 -0.03125 C 1.703125 -0.03125 2.09375 0 2.4375 0 C 2.5 0 2.625 0 2.625 -0.203125 C 2.625 -0.296875 2.53125 -0.3125 2.5 -0.3125 C 2.421875 -0.3125 2.109375 -0.34375 2.109375 -0.609375 C 2.109375 -0.78125 2.25 -0.9375 2.375 -1.0625 L 3.390625 -2.140625 L 4.28125 -3.109375 L 5.28125 -0.734375 C 5.328125 -0.625 5.34375 -0.609375 5.34375 -0.59375 C 5.34375 -0.515625 5.140625 -0.34375 4.765625 -0.3125 C 4.65625 -0.296875 4.5625 -0.28125 4.5625 -0.125 C 4.5625 0 4.671875 0 4.703125 0 C 4.984375 0 5.6875 -0.03125 5.96875 -0.03125 C 6.21875 -0.03125 6.8125 0 7.0625 0 C 7.140625 0 7.25 0 7.25 -0.1875 C 7.25 -0.3125 7.15625 -0.3125 7.078125 -0.3125 C 6.40625 -0.3125 6.390625 -0.34375 6.21875 -0.75 C 5.828125 -1.671875 5.171875 -3.21875 4.9375 -3.8125 C 5.609375 -4.515625 6.65625 -5.6875 6.96875 -5.96875 C 7.265625 -6.21875 7.640625 -6.453125 8.234375 -6.484375 C 8.375 -6.484375 8.453125 -6.484375 8.453125 -6.671875 C 8.453125 -6.6875 8.453125 -6.78125 8.328125 -6.78125 C 8.03125 -6.78125 7.703125 -6.75 7.390625 -6.75 C 7.03125 -6.75 6.640625 -6.78125 6.296875 -6.78125 C 6.234375 -6.78125 6.109375 -6.78125 6.109375 -6.59375 C 6.109375 -6.515625 6.15625 -6.484375 6.21875 -6.484375 C 6.3125 -6.46875 6.625 -6.453125 6.625 -6.171875 C 6.625 -6.03125 6.515625 -5.90625 6.421875 -5.8125 Z M 4.8125 -4.078125 "/></g><g id="edb49ed61258017b1ba5aabe93fabfe819lz7wv0__glyph-1-2"><path d="M 2.015625 -0.015625 C 2.015625 -0.671875 1.765625 -1.046875 1.375 -1.046875 C 1.046875 -1.046875 0.859375 -0.8125 0.859375 -0.53125 C 0.859375 -0.265625 1.046875 0 1.375 0 C 1.5 0 1.625 -0.046875 1.734375 -0.125 C 1.765625 -0.15625 1.765625 -0.15625 1.78125 -0.15625 C 1.78125 -0.15625 1.796875 -0.15625 1.796875 -0.015625 C 1.796875 0.71875 1.453125 1.328125 1.125 1.65625 C 1.015625 1.765625 1.015625 1.78125 1.015625 1.8125 C 1.015625 1.875 1.0625 1.921875 1.109375 1.921875 C 1.21875 1.921875 2.015625 1.15625 2.015625 -0.015625 Z M 2.015625 -0.015625 "/></g><g id="edb49ed61258017b1ba5aabe93fabfe819lz7wv0__glyph-2-0"><path d="M 0.84375 -0.4375 C 0.828125 -0.34375 0.78125 -0.171875 0.78125 -0.15625 C 0.78125 0 0.90625 0.0625 1.015625 0.0625 C 1.140625 0.0625 1.25 -0.015625 1.28125 -0.078125 C 1.328125 -0.140625 1.375 -0.375 1.40625 -0.515625 C 1.453125 -0.640625 1.515625 -0.96875 1.5625 -1.140625 C 1.609375 -1.296875 1.640625 -1.453125 1.6875 -1.609375 C 1.765625 -1.890625 1.765625 -1.953125 1.96875 -2.234375 C 2.171875 -2.515625 2.5 -2.875 3.015625 -2.875 C 3.421875 -2.875 3.421875 -2.515625 3.421875 -2.390625 C 3.421875 -1.96875 3.125 -1.203125 3.015625 -0.90625 C 2.9375 -0.703125 2.90625 -0.640625 2.90625 -0.53125 C 2.90625 -0.15625 3.21875 0.0625 3.578125 0.0625 C 4.265625 0.0625 4.578125 -0.890625 4.578125 -1 C 4.578125 -1.078125 4.484375 -1.078125 4.46875 -1.078125 C 4.359375 -1.078125 4.359375 -1.046875 4.328125 -0.96875 C 4.171875 -0.40625 3.875 -0.125 3.59375 -0.125 C 3.453125 -0.125 3.421875 -0.21875 3.421875 -0.375 C 3.421875 -0.53125 3.453125 -0.625 3.578125 -0.9375 C 3.671875 -1.140625 3.953125 -1.890625 3.953125 -2.28125 C 3.953125 -2.953125 3.40625 -3.0625 3.046875 -3.0625 C 2.46875 -3.0625 2.078125 -2.71875 1.875 -2.4375 C 1.828125 -2.90625 1.40625 -3.0625 1.125 -3.0625 C 0.828125 -3.0625 0.671875 -2.84375 0.578125 -2.6875 C 0.421875 -2.4375 0.328125 -2.03125 0.328125 -2 C 0.328125 -1.90625 0.421875 -1.90625 0.4375 -1.90625 C 0.546875 -1.90625 0.546875 -1.9375 0.59375 -2.125 C 0.703125 -2.53125 0.828125 -2.875 1.109375 -2.875 C 1.28125 -2.875 1.328125 -2.71875 1.328125 -2.53125 C 1.328125 -2.40625 1.265625 -2.140625 1.21875 -1.953125 C 1.171875 -1.765625 1.109375 -1.484375 1.078125 -1.328125 Z M 0.84375 -0.4375 "/></g><g id="edb49ed61258017b1ba5aabe93fabfe819lz7wv0__glyph-2-1"><path d="M 3.046875 -4.34375 C 3.046875 -4.46875 2.96875 -4.609375 2.78125 -4.609375 C 2.578125 -4.609375 2.390625 -4.421875 2.390625 -4.234375 C 2.390625 -4.109375 2.46875 -3.96875 2.65625 -3.96875 C 2.84375 -3.96875 3.046875 -4.140625 3.046875 -4.34375 Z M 1.578125 0.34375 C 1.453125 0.828125 1.09375 1.21875 0.6875 1.21875 C 0.59375 1.21875 0.5 1.203125 0.4375 1.1875 C 0.609375 1.09375 0.671875 0.9375 0.671875 0.828125 C 0.671875 0.65625 0.53125 0.5625 0.390625 0.5625 C 0.1875 0.5625 0 0.765625 0 0.984375 C 0 1.25 0.265625 1.421875 0.6875 1.421875 C 1.109375 1.421875 1.921875 1.171875 2.140625 0.3125 L 2.765625 -2.171875 C 2.78125 -2.25 2.796875 -2.3125 2.796875 -2.40625 C 2.796875 -2.796875 2.46875 -3.0625 2.046875 -3.0625 C 1.28125 -3.0625 0.828125 -2.09375 0.828125 -2 C 0.828125 -1.90625 0.9375 -1.90625 0.953125 -1.90625 C 1.03125 -1.90625 1.046875 -1.9375 1.09375 -2.03125 C 1.265625 -2.4375 1.625 -2.875 2.03125 -2.875 C 2.203125 -2.875 2.265625 -2.75 2.265625 -2.53125 C 2.265625 -2.453125 2.25 -2.359375 2.25 -2.328125 Z M 1.578125 0.34375 "/></g><g id="edb49ed61258017b1ba5aabe93fabfe819lz7wv0__glyph-2-2"><path d="M 2.046875 -3.03125 C 1.015625 -2.765625 0.421875 -1.859375 0.421875 -1.140625 C 0.421875 -0.390625 0.984375 0.078125 1.671875 0.078125 C 2.515625 0.078125 3.171875 -0.90625 3.171875 -1.921875 C 3.171875 -2.59375 2.8125 -2.984375 2.59375 -3.21875 C 2.34375 -3.515625 1.8125 -4.09375 1.8125 -4.40625 C 1.8125 -4.5 1.90625 -4.703125 2.203125 -4.703125 C 2.4375 -4.703125 2.625 -4.59375 2.78125 -4.5 C 2.84375 -4.46875 3.09375 -4.328125 3.203125 -4.328125 C 3.359375 -4.328125 3.484375 -4.484375 3.484375 -4.609375 C 3.484375 -4.796875 3.40625 -4.8125 3.03125 -4.875 C 2.9375 -4.890625 2.625 -4.96875 2.40625 -4.96875 C 1.875 -4.96875 1.578125 -4.65625 1.578125 -4.234375 C 1.578125 -3.859375 1.8125 -3.4375 2.046875 -3.03125 Z M 2.171875 -2.84375 C 2.359375 -2.53125 2.609375 -2.125 2.609375 -1.625 C 2.609375 -1.046875 2.28125 -0.109375 1.6875 -0.109375 C 1.3125 -0.109375 0.9375 -0.359375 0.9375 -0.9375 C 0.9375 -1.390625 1.203125 -2.59375 2.171875 -2.84375 Z M 2.171875 -2.84375 "/></g><g id="edb49ed61258017b1ba5aabe93fabfe819lz7wv0__glyph-2-3"><path d="M 3.96875 -4.609375 C 3.984375 -4.625 4 -4.71875 4 -4.734375 C 4 -4.765625 3.96875 -4.828125 3.890625 -4.828125 C 3.75 -4.828125 3.171875 -4.765625 3 -4.75 C 2.9375 -4.75 2.84375 -4.734375 2.84375 -4.59375 C 2.84375 -4.5 2.9375 -4.5 3.03125 -4.5 C 3.359375 -4.5 3.359375 -4.453125 3.359375 -4.390625 C 3.359375 -4.34375 3.34375 -4.296875 3.328125 -4.234375 L 2.9375 -2.65625 C 2.78125 -2.890625 2.546875 -3.0625 2.21875 -3.0625 C 1.328125 -3.0625 0.421875 -2.09375 0.421875 -1.078125 C 0.421875 -0.40625 0.875 0.0625 1.46875 0.0625 C 1.84375 0.0625 2.1875 -0.140625 2.46875 -0.421875 C 2.59375 0 3 0.0625 3.171875 0.0625 C 3.421875 0.0625 3.609375 -0.078125 3.734375 -0.296875 C 3.875 -0.5625 3.96875 -0.96875 3.96875 -1 C 3.96875 -1.078125 3.875 -1.078125 3.859375 -1.078125 C 3.765625 -1.078125 3.75 -1.0625 3.703125 -0.875 C 3.625 -0.53125 3.484375 -0.125 3.203125 -0.125 C 3.015625 -0.125 2.96875 -0.28125 2.96875 -0.46875 C 2.96875 -0.59375 2.984375 -0.65625 3 -0.75 Z M 2.484375 -0.875 C 2.4375 -0.671875 2.28125 -0.53125 2.140625 -0.40625 C 2.078125 -0.34375 1.796875 -0.125 1.5 -0.125 C 1.234375 -0.125 0.984375 -0.3125 0.984375 -0.796875 C 0.984375 -1.171875 1.1875 -1.9375 1.34375 -2.21875 C 1.671875 -2.765625 2.015625 -2.875 2.21875 -2.875 C 2.703125 -2.875 2.84375 -2.34375 2.84375 -2.265625 C 2.84375 -2.234375 2.828125 -2.1875 2.8125 -2.171875 Z M 2.484375 -0.875 "/></g><g id="edb49ed61258017b1ba5aabe93fabfe819lz7wv0__glyph-3-0"><path d="M 3.21875 -1.578125 L 5.34375 -1.578125 C 5.4375 -1.578125 5.609375 -1.578125 5.609375 -1.734375 C 5.609375 -1.90625 5.4375 -1.90625 5.34375 -1.90625 L 3.21875 -1.90625 L 3.21875 -4.046875 C 3.21875 -4.140625 3.21875 -4.296875 3.046875 -4.296875 C 2.875 -4.296875 2.875 -4.140625 2.875 -4.046875 L 2.875 -1.90625 L 0.75 -1.90625 C 0.65625 -1.90625 0.484375 -1.90625 0.484375 -1.75 C 0.484375 -1.578125 0.640625 -1.578125 0.75 -1.578125 L 2.875 -1.578125 L 2.875 0.5625 C 2.875 0.65625 2.875 0.828125 3.046875 0.828125 C 3.21875 0.828125 3.21875 0.65625 3.21875 0.5625 Z M 3.21875 -1.578125 "/></g><g id="edb49ed61258017b1ba5aabe93fabfe819lz7wv0__glyph-3-1"><path d="M 2.328125 -4.421875 C 2.328125 -4.609375 2.3125 -4.609375 2.125 -4.609375 C 1.671875 -4.171875 1.046875 -4.171875 0.765625 -4.171875 L 0.765625 -3.921875 C 0.921875 -3.921875 1.390625 -3.921875 1.765625 -4.109375 L 1.765625 -0.5625 C 1.765625 -0.34375 1.765625 -0.25 1.078125 -0.25 L 0.8125 -0.25 L 0.8125 0 C 0.9375 0 1.78125 -0.03125 2.046875 -0.03125 C 2.265625 -0.03125 3.140625 0 3.28125 0 L 3.28125 -0.25 L 3.03125 -0.25 C 2.328125 -0.25 2.328125 -0.34375 2.328125 -0.5625 Z M 2.328125 -4.421875 "/></g><g id="edb49ed61258017b1ba5aabe93fabfe819lz7wv0__glyph-3-2"><path d="M 3.515625 -1.265625 L 3.28125 -1.265625 C 3.25 -1.109375 3.1875 -0.703125 3.09375 -0.625 C 3.03125 -0.59375 2.5 -0.59375 2.40625 -0.59375 L 1.125 -0.59375 C 1.859375 -1.234375 2.09375 -1.4375 2.515625 -1.765625 C 3.03125 -2.171875 3.515625 -2.59375 3.515625 -3.265625 C 3.515625 -4.109375 2.78125 -4.609375 1.890625 -4.609375 C 1.015625 -4.609375 0.4375 -4.015625 0.4375 -3.375 C 0.4375 -3.015625 0.734375 -2.984375 0.8125 -2.984375 C 0.96875 -2.984375 1.171875 -3.09375 1.171875 -3.34375 C 1.171875 -3.484375 1.125 -3.71875 0.765625 -3.71875 C 0.984375 -4.21875 1.453125 -4.359375 1.78125 -4.359375 C 2.46875 -4.359375 2.84375 -3.828125 2.84375 -3.265625 C 2.84375 -2.65625 2.40625 -2.171875 2.1875 -1.921875 L 0.5 -0.265625 C 0.4375 -0.203125 0.4375 -0.1875 0.4375 0 L 3.296875 0 Z M 3.515625 -1.265625 "/></g><g id="edb49ed61258017b1ba5aabe93fabfe819lz7wv0__glyph-4-0"><path d="M 7.171875 -3.3125 C 7.171875 -3.53125 7.109375 -3.640625 7.03125 -3.640625 C 6.984375 -3.640625 6.90625 -3.5625 6.890625 -3.375 C 6.859375 -2.421875 6.203125 -1.875 5.5 -1.875 C 4.875 -1.875 4.40625 -2.3125 3.921875 -2.734375 C 3.40625 -3.1875 2.890625 -3.640625 2.21875 -3.640625 C 1.140625 -3.640625 0.546875 -2.546875 0.546875 -1.65625 C 0.546875 -1.328125 0.671875 -1.328125 0.6875 -1.328125 C 0.796875 -1.328125 0.828125 -1.53125 0.828125 -1.5625 C 0.859375 -2.65625 1.609375 -3.09375 2.21875 -3.09375 C 2.84375 -3.09375 3.3125 -2.65625 3.8125 -2.234375 C 4.3125 -1.78125 4.828125 -1.328125 5.5 -1.328125 C 6.59375 -1.328125 7.171875 -2.421875 7.171875 -3.3125 Z M 7.171875 -3.3125 "/></g><g id="edb49ed61258017b1ba5aabe93fabfe819lz7wv0__glyph-4-1"><path d="M 1.90625 -2.484375 C 1.90625 -2.765625 1.671875 -3.015625 1.375 -3.015625 C 1.09375 -3.015625 0.859375 -2.765625 0.859375 -2.484375 C 0.859375 -2.203125 1.09375 -1.953125 1.375 -1.953125 C 1.671875 -1.953125 1.90625 -2.203125 1.90625 -2.484375 Z M 1.90625 -2.484375 "/></g><g id="edb49ed61258017b1ba5aabe93fabfe819lz7wv0__glyph-5-0"><path d="M 5.171875 -1.578125 C 5.28125 -1.578125 5.453125 -1.578125 5.453125 -1.734375 C 5.453125 -1.90625 5.296875 -1.90625 5.171875 -1.90625 L 1.03125 -1.90625 C 0.921875 -1.90625 0.75 -1.90625 0.75 -1.75 C 0.75 -1.578125 0.90625 -1.578125 1.03125 -1.578125 Z M 5.171875 -1.578125 "/></g><g id="edb49ed61258017b1ba5aabe93fabfe819lz7wv0__glyph-6-0"><path d="M 0.96875 -0.484375 C 0.9375 -0.359375 0.890625 -0.140625 0.890625 -0.125 C 0.890625 -0.015625 0.96875 0.046875 1.0625 0.046875 C 1.140625 0.046875 1.25 0.015625 1.3125 -0.109375 C 1.3125 -0.140625 1.375 -0.375 1.40625 -0.5 C 1.5625 -1.171875 1.5625 -1.171875 1.578125 -1.203125 C 1.640625 -1.328125 2 -2.03125 2.609375 -2.03125 C 2.859375 -2.03125 2.953125 -1.890625 2.953125 -1.671875 C 2.953125 -1.390625 2.75 -0.875 2.640625 -0.59375 C 2.609375 -0.53125 2.578125 -0.46875 2.578125 -0.375 C 2.578125 -0.125 2.828125 0.046875 3.125 0.046875 C 3.65625 0.046875 3.9375 -0.59375 3.9375 -0.71875 C 3.9375 -0.78125 3.84375 -0.78125 3.828125 -0.78125 C 3.734375 -0.78125 3.734375 -0.765625 3.703125 -0.671875 C 3.609375 -0.375 3.390625 -0.109375 3.140625 -0.109375 C 3.03125 -0.109375 3 -0.1875 3 -0.296875 C 3 -0.40625 3.015625 -0.453125 3.0625 -0.5625 C 3.140625 -0.765625 3.375 -1.328125 3.375 -1.609375 C 3.375 -1.96875 3.109375 -2.203125 2.640625 -2.203125 C 2.1875 -2.203125 1.875 -1.921875 1.703125 -1.703125 C 1.671875 -2.109375 1.28125 -2.203125 1.09375 -2.203125 C 0.59375 -2.203125 0.453125 -1.4375 0.453125 -1.421875 C 0.453125 -1.359375 0.53125 -1.359375 0.5625 -1.359375 C 0.640625 -1.359375 0.65625 -1.390625 0.671875 -1.453125 C 0.75 -1.734375 0.859375 -2.03125 1.0625 -2.03125 C 1.234375 -2.03125 1.265625 -1.875 1.265625 -1.765625 C 1.265625 -1.6875 1.21875 -1.5 1.1875 -1.375 C 1.15625 -1.234375 1.109375 -1.03125 1.078125 -0.921875 Z M 0.96875 -0.484375 "/></g><g id="edb49ed61258017b1ba5aabe93fabfe819lz7wv0__glyph-7-0"><path d="M 2.6875 -1.109375 L 4.421875 -1.109375 C 4.484375 -1.109375 4.625 -1.109375 4.625 -1.234375 C 4.625 -1.375 4.484375 -1.375 4.421875 -1.375 L 2.6875 -1.375 L 2.6875 -3.109375 C 2.6875 -3.1875 2.6875 -3.3125 2.546875 -3.3125 C 2.421875 -3.3125 2.421875 -3.1875 2.421875 -3.109375 L 2.421875 -1.375 L 0.6875 -1.375 C 0.609375 -1.375 0.484375 -1.375 0.484375 -1.234375 C 0.484375 -1.109375 0.609375 -1.109375 0.6875 -1.109375 L 2.421875 -1.109375 L 2.421875 0.625 C 2.421875 0.703125 2.421875 0.828125 2.546875 0.828125 C 2.6875 0.828125 2.6875 0.703125 2.6875 0.625 Z M 2.6875 -1.109375 "/></g><g id="edb49ed61258017b1ba5aabe93fabfe819lz7wv0__glyph-7-1"><path d="M 1.984375 -3.15625 C 1.984375 -3.3125 1.96875 -3.3125 1.796875 -3.3125 C 1.453125 -2.984375 0.890625 -2.984375 0.796875 -2.984375 L 0.703125 -2.984375 L 0.703125 -2.765625 L 0.796875 -2.765625 C 0.90625 -2.765625 1.234375 -2.78125 1.515625 -2.90625 L 1.515625 -0.421875 C 1.515625 -0.265625 1.515625 -0.21875 1 -0.21875 L 0.75 -0.21875 L 0.75 0 C 1.015625 -0.015625 1.453125 -0.015625 1.75 -0.015625 C 2.03125 -0.015625 2.484375 -0.015625 2.75 0 L 2.75 -0.21875 L 2.5 -0.21875 C 1.984375 -0.21875 1.984375 -0.265625 1.984375 -0.421875 Z M 1.984375 -3.15625 "/></g><g id="edb49ed61258017b1ba5aabe93fabfe819lz7wv0__glyph-8-0"><path d="M 4.375 -1.109375 C 4.453125 -1.109375 4.59375 -1.109375 4.59375 -1.234375 C 4.59375 -1.375 4.453125 -1.375 4.375 -1.375 L 1.015625 -1.375 C 0.921875 -1.375 0.796875 -1.375 0.796875 -1.234375 C 0.796875 -1.109375 0.921875 -1.109375 1.015625 -1.109375 Z M 4.375 -1.109375 "/></g></g></defs><g fill="rgb(0%, 0%, 0%)" fill-opacity="1"><use xlink:href="#edb49ed61258017b1ba5aabe93fabfe819lz7wv0__glyph-0-0" x="423.931567" y="10.034034"/></g><g fill="rgb(0%, 0%, 0%)" fill-opacity="1"><use xlink:href="#edb49ed61258017b1ba5aabe93fabfe819lz7wv0__glyph-0-0" x="138.785982" y="42.627199"/></g><g fill="rgb(0%, 0%, 0%)" fill-opacity="1"><use xlink:href="#edb49ed61258017b1ba5aabe93fabfe819lz7wv0__glyph-1-0" x="277.647597" y="42.627199"/></g><g fill="rgb(0%, 0%, 0%)" fill-opacity="1"><use xlink:href="#edb49ed61258017b1ba5aabe93fabfe819lz7wv0__glyph-2-0" x="285.9023" y="44.116454"/></g><g fill="rgb(0%, 0%, 0%)" fill-opacity="1"><use xlink:href="#edb49ed61258017b1ba5aabe93fabfe819lz7wv0__glyph-0-1" x="291.308078" y="42.627199"/></g><g fill="rgb(0%, 0%, 0%)" fill-opacity="1"><use xlink:href="#edb49ed61258017b1ba5aabe93fabfe819lz7wv0__glyph-1-1" x="295.170229" y="42.627199"/></g><g fill="rgb(0%, 0%, 0%)" fill-opacity="1"><use xlink:href="#edb49ed61258017b1ba5aabe93fabfe819lz7wv0__glyph-2-0" x="303.397563" y="44.116454"/></g><g fill="rgb(0%, 0%, 0%)" fill-opacity="1"><use xlink:href="#edb49ed61258017b1ba5aabe93fabfe819lz7wv0__glyph-3-0" x="308.306821" y="44.116454"/><use xlink:href="#edb49ed61258017b1ba5aabe93fabfe819lz7wv0__glyph-3-1" x="314.403421" y="44.116454"/></g><g fill="rgb(0%, 0%, 0%)" fill-opacity="1"><use xlink:href="#edb49ed61258017b1ba5aabe93fabfe819lz7wv0__glyph-0-2" x="318.858309" y="42.627199"/></g><g fill="rgb(0%, 0%, 0%)" fill-opacity="1"><use xlink:href="#edb49ed61258017b1ba5aabe93fabfe819lz7wv0__glyph-4-0" x="325.479216" y="39.976643"/></g><g fill="rgb(0%, 0%, 0%)" fill-opacity="1"><use xlink:href="#edb49ed61258017b1ba5aabe93fabfe819lz7wv0__glyph-0-3" x="325.479216" y="43.123617"/></g><g fill="rgb(0%, 0%, 0%)" fill-opacity="1"><use xlink:href="#edb49ed61258017b1ba5aabe93fabfe819lz7wv0__glyph-1-0" x="335.96182" y="42.627199"/></g><g fill="rgb(0%, 0%, 0%)" fill-opacity="1"><use xlink:href="#edb49ed61258017b1ba5aabe93fabfe819lz7wv0__glyph-2-0" x="344.217519" y="44.116454"/></g><g fill="rgb(0%, 0%, 0%)" fill-opacity="1"><use xlink:href="#edb49ed61258017b1ba5aabe93fabfe819lz7wv0__glyph-0-1" x="349.623298" y="42.627199"/></g><g fill="rgb(0%, 0%, 0%)" fill-opacity="1"><use xlink:href="#edb49ed61258017b1ba5aabe93fabfe819lz7wv0__glyph-1-1" x="353.485449" y="42.627199"/></g><g fill="rgb(0%, 0%, 0%)" fill-opacity="1"><use xlink:href="#edb49ed61258017b1ba5aabe93fabfe819lz7wv0__glyph-0-2" x="362.487866" y="42.627199"/></g><g fill="rgb(0%, 0%, 0%)" fill-opacity="1"><use xlink:href="#edb49ed61258017b1ba5aabe93fabfe819lz7wv0__glyph-1-0" x="210.242337" y="77.702456"/></g><g fill="rgb(0%, 0%, 0%)" fill-opacity="1"><use xlink:href="#edb49ed61258017b1ba5aabe93fabfe819lz7wv0__glyph-2-0" x="218.498036" y="79.192708"/></g><g fill="rgb(0%, 0%, 0%)" fill-opacity="1"><use xlink:href="#edb49ed61258017b1ba5aabe93fabfe819lz7wv0__glyph-0-1" x="223.903814" y="77.702456"/></g><g fill="rgb(0%, 0%, 0%)" fill-opacity="1"><use xlink:href="#edb49ed61258017b1ba5aabe93fabfe819lz7wv0__glyph-1-1" x="227.765965" y="77.702456"/></g><g fill="rgb(0%, 0%, 0%)" fill-opacity="1"><use xlink:href="#edb49ed61258017b1ba5aabe93fabfe819lz7wv0__glyph-2-0" x="235.993299" y="79.192708"/></g><g fill="rgb(0%, 0%, 0%)" fill-opacity="1"><use xlink:href="#edb49ed61258017b1ba5aabe93fabfe819lz7wv0__glyph-0-2" x="241.399078" y="77.702456"/></g><g fill="rgb(0%, 0%, 0%)" fill-opacity="1"><use xlink:href="#edb49ed61258017b1ba5aabe93fabfe819lz7wv0__glyph-4-1" x="36.87465" y="112.77871"/></g><g fill="rgb(0%, 0%, 0%)" fill-opacity="1"><use xlink:href="#edb49ed61258017b1ba5aabe93fabfe819lz7wv0__glyph-4-1" x="41.291942" y="112.77871"/></g><g fill="rgb(0%, 0%, 0%)" fill-opacity="1"><use xlink:href="#edb49ed61258017b1ba5aabe93fabfe819lz7wv0__glyph-4-1" x="45.699303" y="112.77871"/></g><g fill="rgb(0%, 0%, 0%)" fill-opacity="1"><use xlink:href="#edb49ed61258017b1ba5aabe93fabfe819lz7wv0__glyph-1-0" x="104.680634" y="112.77871"/></g><g fill="rgb(0%, 0%, 0%)" fill-opacity="1"><use xlink:href="#edb49ed61258017b1ba5aabe93fabfe819lz7wv0__glyph-2-0" x="112.936333" y="114.267966"/></g><g fill="rgb(0%, 0%, 0%)" fill-opacity="1"><use xlink:href="#edb49ed61258017b1ba5aabe93fabfe819lz7wv0__glyph-3-0" x="117.845591" y="114.267966"/><use xlink:href="#edb49ed61258017b1ba5aabe93fabfe819lz7wv0__glyph-3-1" x="123.942191" y="114.267966"/></g><g fill="rgb(0%, 0%, 0%)" fill-opacity="1"><use xlink:href="#edb49ed61258017b1ba5aabe93fabfe819lz7wv0__glyph-0-1" x="128.397079" y="112.77871"/></g><g fill="rgb(0%, 0%, 0%)" fill-opacity="1"><use xlink:href="#edb49ed61258017b1ba5aabe93fabfe819lz7wv0__glyph-1-1" x="132.25923" y="112.77871"/></g><g fill="rgb(0%, 0%, 0%)" fill-opacity="1"><use xlink:href="#edb49ed61258017b1ba5aabe93fabfe819lz7wv0__glyph-2-0" x="140.486564" y="114.267966"/></g><g fill="rgb(0%, 0%, 0%)" fill-opacity="1"><use xlink:href="#edb49ed61258017b1ba5aabe93fabfe819lz7wv0__glyph-3-0" x="145.395822" y="114.267966"/><use xlink:href="#edb49ed61258017b1ba5aabe93fabfe819lz7wv0__glyph-3-1" x="151.492422" y="114.267966"/></g><g fill="rgb(0%, 0%, 0%)" fill-opacity="1"><use xlink:href="#edb49ed61258017b1ba5aabe93fabfe819lz7wv0__glyph-1-2" x="155.947309" y="112.77871"/></g><g fill="rgb(0%, 0%, 0%)" fill-opacity="1"><use xlink:href="#edb49ed61258017b1ba5aabe93fabfe819lz7wv0__glyph-1-1" x="160.364601" y="112.77871"/></g><g fill="rgb(0%, 0%, 0%)" fill-opacity="1"><use xlink:href="#edb49ed61258017b1ba5aabe93fabfe819lz7wv0__glyph-2-0" x="168.589035" y="114.267966"/></g><g fill="rgb(0%, 0%, 0%)" fill-opacity="1"><use xlink:href="#edb49ed61258017b1ba5aabe93fabfe819lz7wv0__glyph-0-2" x="173.994814" y="112.77871"/></g><g fill="rgb(0%, 0%, 0%)" fill-opacity="1"><use xlink:href="#edb49ed61258017b1ba5aabe93fabfe819lz7wv0__glyph-1-0" x="290.385019" y="112.77871"/></g><g fill="rgb(0%, 0%, 0%)" fill-opacity="1"><use xlink:href="#edb49ed61258017b1ba5aabe93fabfe819lz7wv0__glyph-2-0" x="298.640718" y="114.267966"/></g><g fill="rgb(0%, 0%, 0%)" fill-opacity="1"><use xlink:href="#edb49ed61258017b1ba5aabe93fabfe819lz7wv0__glyph-0-1" x="304.046496" y="112.77871"/></g><g fill="rgb(0%, 0%, 0%)" fill-opacity="1"><use xlink:href="#edb49ed61258017b1ba5aabe93fabfe819lz7wv0__glyph-1-1" x="307.908647" y="112.77871"/></g><g fill="rgb(0%, 0%, 0%)" fill-opacity="1"><use xlink:href="#edb49ed61258017b1ba5aabe93fabfe819lz7wv0__glyph-2-0" x="316.135981" y="114.267966"/></g><g fill="rgb(0%, 0%, 0%)" fill-opacity="1"><use xlink:href="#edb49ed61258017b1ba5aabe93fabfe819lz7wv0__glyph-1-2" x="321.54176" y="112.77871"/></g><g fill="rgb(0%, 0%, 0%)" fill-opacity="1"><use xlink:href="#edb49ed61258017b1ba5aabe93fabfe819lz7wv0__glyph-1-1" x="325.959052" y="112.77871"/></g><g fill="rgb(0%, 0%, 0%)" fill-opacity="1"><use xlink:href="#edb49ed61258017b1ba5aabe93fabfe819lz7wv0__glyph-2-0" x="334.182489" y="114.267966"/></g><g fill="rgb(0%, 0%, 0%)" fill-opacity="1"><use xlink:href="#edb49ed61258017b1ba5aabe93fabfe819lz7wv0__glyph-5-0" x="339.091747" y="114.267966"/></g><g fill="rgb(0%, 0%, 0%)" fill-opacity="1"><use xlink:href="#edb49ed61258017b1ba5aabe93fabfe819lz7wv0__glyph-3-1" x="345.298878" y="114.267966"/></g><g fill="rgb(0%, 0%, 0%)" fill-opacity="1"><use xlink:href="#edb49ed61258017b1ba5aabe93fabfe819lz7wv0__glyph-0-2" x="349.753882" y="112.77871"/></g><g fill="rgb(0%, 0%, 0%)" fill-opacity="1"><use xlink:href="#edb49ed61258017b1ba5aabe93fabfe819lz7wv0__glyph-1-0" x="494.185752" y="112.77871"/></g><g fill="rgb(0%, 0%, 0%)" fill-opacity="1"><use xlink:href="#edb49ed61258017b1ba5aabe93fabfe819lz7wv0__glyph-2-0" x="502.440454" y="114.267966"/></g><g fill="rgb(0%, 0%, 0%)" fill-opacity="1"><use xlink:href="#edb49ed61258017b1ba5aabe93fabfe819lz7wv0__glyph-5-0" x="507.349712" y="114.267966"/></g><g fill="rgb(0%, 0%, 0%)" fill-opacity="1"><use xlink:href="#edb49ed61258017b1ba5aabe93fabfe819lz7wv0__glyph-3-1" x="513.556843" y="114.267966"/></g><g fill="rgb(0%, 0%, 0%)" fill-opacity="1"><use xlink:href="#edb49ed61258017b1ba5aabe93fabfe819lz7wv0__glyph-0-1" x="518.011847" y="112.77871"/></g><g fill="rgb(0%, 0%, 0%)" fill-opacity="1"><use xlink:href="#edb49ed61258017b1ba5aabe93fabfe819lz7wv0__glyph-1-1" x="521.873998" y="112.77871"/></g><g fill="rgb(0%, 0%, 0%)" fill-opacity="1"><use xlink:href="#edb49ed61258017b1ba5aabe93fabfe819lz7wv0__glyph-2-0" x="530.101332" y="114.267966"/></g><g fill="rgb(0%, 0%, 0%)" fill-opacity="1"><use xlink:href="#edb49ed61258017b1ba5aabe93fabfe819lz7wv0__glyph-5-0" x="535.01059" y="114.267966"/></g><g fill="rgb(0%, 0%, 0%)" fill-opacity="1"><use xlink:href="#edb49ed61258017b1ba5aabe93fabfe819lz7wv0__glyph-3-1" x="541.217721" y="114.267966"/></g><g fill="rgb(0%, 0%, 0%)" fill-opacity="1"><use xlink:href="#edb49ed61258017b1ba5aabe93fabfe819lz7wv0__glyph-1-2" x="545.672725" y="112.77871"/></g><g fill="rgb(0%, 0%, 0%)" fill-opacity="1"><use xlink:href="#edb49ed61258017b1ba5aabe93fabfe819lz7wv0__glyph-1-1" x="550.090017" y="112.77871"/></g><g fill="rgb(0%, 0%, 0%)" fill-opacity="1"><use xlink:href="#edb49ed61258017b1ba5aabe93fabfe819lz7wv0__glyph-2-0" x="558.314451" y="114.267966"/></g><g fill="rgb(0%, 0%, 0%)" fill-opacity="1"><use xlink:href="#edb49ed61258017b1ba5aabe93fabfe819lz7wv0__glyph-5-0" x="563.223709" y="114.267966"/></g><g fill="rgb(0%, 0%, 0%)" fill-opacity="1"><use xlink:href="#edb49ed61258017b1ba5aabe93fabfe819lz7wv0__glyph-3-2" x="569.43084" y="114.267966"/></g><g fill="rgb(0%, 0%, 0%)" fill-opacity="1"><use xlink:href="#edb49ed61258017b1ba5aabe93fabfe819lz7wv0__glyph-0-2" x="573.885844" y="112.77871"/></g><g fill="rgb(0%, 0%, 0%)" fill-opacity="1"><use xlink:href="#edb49ed61258017b1ba5aabe93fabfe819lz7wv0__glyph-4-1" x="655.195807" y="112.77871"/></g><g fill="rgb(0%, 0%, 0%)" fill-opacity="1"><use xlink:href="#edb49ed61258017b1ba5aabe93fabfe819lz7wv0__glyph-4-1" x="659.613099" y="112.77871"/></g><g fill="rgb(0%, 0%, 0%)" fill-opacity="1"><use xlink:href="#edb49ed61258017b1ba5aabe93fabfe819lz7wv0__glyph-4-1" x="664.02046" y="112.77871"/></g><g fill="rgb(0%, 0%, 0%)" fill-opacity="1"><use xlink:href="#edb49ed61258017b1ba5aabe93fabfe819lz7wv0__glyph-1-0" x="398.739823" y="147.853968"/></g><g fill="rgb(0%, 0%, 0%)" fill-opacity="1"><use xlink:href="#edb49ed61258017b1ba5aabe93fabfe819lz7wv0__glyph-2-0" x="406.995522" y="149.34422"/></g><g fill="rgb(0%, 0%, 0%)" fill-opacity="1"><use xlink:href="#edb49ed61258017b1ba5aabe93fabfe819lz7wv0__glyph-5-0" x="411.904779" y="149.34422"/></g><g fill="rgb(0%, 0%, 0%)" fill-opacity="1"><use xlink:href="#edb49ed61258017b1ba5aabe93fabfe819lz7wv0__glyph-3-1" x="418.111911" y="149.34422"/></g><g fill="rgb(0%, 0%, 0%)" fill-opacity="1"><use xlink:href="#edb49ed61258017b1ba5aabe93fabfe819lz7wv0__glyph-0-1" x="422.565918" y="147.853968"/></g><g fill="rgb(0%, 0%, 0%)" fill-opacity="1"><use xlink:href="#edb49ed61258017b1ba5aabe93fabfe819lz7wv0__glyph-1-1" x="426.428069" y="147.853968"/></g><g fill="rgb(0%, 0%, 0%)" fill-opacity="1"><use xlink:href="#edb49ed61258017b1ba5aabe93fabfe819lz7wv0__glyph-2-0" x="434.6564" y="149.34422"/></g><g fill="rgb(0%, 0%, 0%)" fill-opacity="1"><use xlink:href="#edb49ed61258017b1ba5aabe93fabfe819lz7wv0__glyph-5-0" x="439.565658" y="149.34422"/></g><g fill="rgb(0%, 0%, 0%)" fill-opacity="1"><use xlink:href="#edb49ed61258017b1ba5aabe93fabfe819lz7wv0__glyph-3-1" x="445.772789" y="149.34422"/></g><g fill="rgb(0%, 0%, 0%)" fill-opacity="1"><use xlink:href="#edb49ed61258017b1ba5aabe93fabfe819lz7wv0__glyph-0-2" x="450.227793" y="147.853968"/></g><g fill="rgb(0%, 0%, 0%)" fill-opacity="1"><use xlink:href="#edb49ed61258017b1ba5aabe93fabfe819lz7wv0__glyph-0-0" x="319.518206" y="182.930222"/></g><g fill="rgb(0%, 0%, 0%)" fill-opacity="1"><use xlink:href="#edb49ed61258017b1ba5aabe93fabfe819lz7wv0__glyph-1-0" x="486.475316" y="182.930222"/></g><g fill="rgb(0%, 0%, 0%)" fill-opacity="1"><use xlink:href="#edb49ed61258017b1ba5aabe93fabfe819lz7wv0__glyph-2-0" x="494.731015" y="184.419478"/></g><g fill="rgb(0%, 0%, 0%)" fill-opacity="1"><use xlink:href="#edb49ed61258017b1ba5aabe93fabfe819lz7wv0__glyph-5-0" x="499.640272" y="184.419478"/></g><g fill="rgb(0%, 0%, 0%)" fill-opacity="1"><use xlink:href="#edb49ed61258017b1ba5aabe93fabfe819lz7wv0__glyph-3-1" x="505.847404" y="184.419478"/></g><g fill="rgb(0%, 0%, 0%)" fill-opacity="1"><use xlink:href="#edb49ed61258017b1ba5aabe93fabfe819lz7wv0__glyph-0-1" x="510.301411" y="182.930222"/></g><g fill="rgb(0%, 0%, 0%)" fill-opacity="1"><use xlink:href="#edb49ed61258017b1ba5aabe93fabfe819lz7wv0__glyph-1-1" x="514.163562" y="182.930222"/></g><g fill="rgb(0%, 0%, 0%)" fill-opacity="1"><use xlink:href="#edb49ed61258017b1ba5aabe93fabfe819lz7wv0__glyph-2-0" x="522.391893" y="184.419478"/></g><g fill="rgb(0%, 0%, 0%)" fill-opacity="1"><use xlink:href="#edb49ed61258017b1ba5aabe93fabfe819lz7wv0__glyph-0-2" x="527.797671" y="182.930222"/></g><g fill="rgb(0%, 0%, 0%)" fill-opacity="1"><use xlink:href="#edb49ed61258017b1ba5aabe93fabfe819lz7wv0__glyph-4-0" x="534.417581" y="180.279666"/></g><g fill="rgb(0%, 0%, 0%)" fill-opacity="1"><use xlink:href="#edb49ed61258017b1ba5aabe93fabfe819lz7wv0__glyph-0-3" x="534.417581" y="183.426641"/></g><g fill="rgb(0%, 0%, 0%)" fill-opacity="1"><use xlink:href="#edb49ed61258017b1ba5aabe93fabfe819lz7wv0__glyph-1-0" x="544.900186" y="182.930222"/></g><g fill="rgb(0%, 0%, 0%)" fill-opacity="1"><use xlink:href="#edb49ed61258017b1ba5aabe93fabfe819lz7wv0__glyph-2-0" x="553.155885" y="184.419478"/></g><g fill="rgb(0%, 0%, 0%)" fill-opacity="1"><use xlink:href="#edb49ed61258017b1ba5aabe93fabfe819lz7wv0__glyph-5-0" x="558.065143" y="184.419478"/></g><g fill="rgb(0%, 0%, 0%)" fill-opacity="1"><use xlink:href="#edb49ed61258017b1ba5aabe93fabfe819lz7wv0__glyph-3-1" x="564.272274" y="184.419478"/></g><g fill="rgb(0%, 0%, 0%)" fill-opacity="1"><use xlink:href="#edb49ed61258017b1ba5aabe93fabfe819lz7wv0__glyph-0-1" x="568.727278" y="182.930222"/></g><g fill="rgb(0%, 0%, 0%)" fill-opacity="1"><use xlink:href="#edb49ed61258017b1ba5aabe93fabfe819lz7wv0__glyph-1-1" x="572.589429" y="182.930222"/></g><g fill="rgb(0%, 0%, 0%)" fill-opacity="1"><use xlink:href="#edb49ed61258017b1ba5aabe93fabfe819lz7wv0__glyph-0-2" x="581.591846" y="182.930222"/></g><g fill="rgb(0%, 0%, 0%)" fill-opacity="1"><use xlink:href="#edb49ed61258017b1ba5aabe93fabfe819lz7wv0__glyph-0-0" x="617.843803" y="216.957817"/></g><path fill="none" stroke="rgb(0%, 0%, 0%)" stroke-linecap="butt" stroke-linejoin="miter" stroke-miterlimit="10" stroke-opacity="1" stroke-width="0.39848" d="M -204.254262 67.545279 L -146.59851 44.166348 " transform="matrix(0.996824, 0, 0, -0.996824, 351.828273, 110.295621)"/><path fill="none" stroke="rgb(0%, 0%, 0%)" stroke-linecap="round" stroke-linejoin="round" stroke-miterlimit="10" stroke-opacity="1" stroke-width="0.39848" d="M -2.073583 2.392354 C -1.694151 0.956202 -0.848965 0.279819 0.000887957 -0.00139471 C -0.850668 -0.279072 -1.69305 -0.954765 -2.071173 -2.389432 " transform="matrix(0.923727, 0.374607, 0.374607, -0.923727, 205.878608, 66.346035)"/><path fill="none" stroke="rgb(0%, 0%, 0%)" stroke-linecap="butt" stroke-linejoin="miter" stroke-miterlimit="10" stroke-opacity="1" stroke-width="0.39848" d="M -1.649919 79.203395 L 67.464096 100.775809 " transform="matrix(0.996824, 0, 0, -0.996824, 351.828273, 110.295621)"/><path fill="none" stroke="rgb(0%, 0%, 0%)" stroke-linecap="round" stroke-linejoin="round" stroke-miterlimit="10" stroke-opacity="1" stroke-width="0.39848" d="M -2.073803 2.390091 C -1.691792 0.957135 -0.848313 0.279216 -0.0000585799 -0.00197331 C -0.849997 -0.278588 -1.693489 -0.955435 -2.071269 -2.389346 " transform="matrix(0.951499, -0.296994, -0.296994, -0.951499, 419.269001, 9.779355)"/><path fill="none" stroke="rgb(0%, 0%, 0%)" stroke-linecap="butt" stroke-linejoin="miter" stroke-miterlimit="10" stroke-opacity="1" stroke-width="0.39848" d="M -102.419148 43.390446 L -54.007596 61.408604 " transform="matrix(0.996824, 0, 0, -0.996824, 351.828273, 110.295621)"/><path fill="none" stroke="rgb(0%, 0%, 0%)" stroke-linecap="round" stroke-linejoin="round" stroke-miterlimit="10" stroke-opacity="1" stroke-width="0.39848" d="M -2.074374 2.389774 C -1.692485 0.955511 -0.849172 0.277804 0.000509931 -0.000840658 C -0.851034 -0.277655 -1.692889 -0.955326 -2.072396 -2.390521 " transform="matrix(0.934154, -0.347722, -0.347722, -0.934154, 298.178919, 49.011111)"/><path fill="none" stroke="rgb(0%, 0%, 0%)" stroke-linecap="butt" stroke-linejoin="miter" stroke-miterlimit="10" stroke-opacity="1" stroke-width="0.39848" d="M -102.419148 26.986791 L -54.007596 8.964715 " transform="matrix(0.996824, 0, 0, -0.996824, 351.828273, 110.295621)"/><path fill="none" stroke="rgb(0%, 0%, 0%)" stroke-linecap="round" stroke-linejoin="round" stroke-miterlimit="10" stroke-opacity="1" stroke-width="0.39848" d="M -2.072832 2.39169 C -1.693325 0.956495 -0.851469 0.278824 0.000074787 0.00200967 C -0.84824 -0.280308 -1.69292 -0.954342 -2.073442 -2.392278 " transform="matrix(0.934154, 0.347722, 0.347722, -0.934154, 298.178919, 101.427633)"/><g fill="rgb(0%, 0%, 0%)" fill-opacity="1"><use xlink:href="#edb49ed61258017b1ba5aabe93fabfe819lz7wv0__glyph-2-1" x="276.386615" y="88.757238"/></g><g fill="rgb(0%, 0%, 0%)" fill-opacity="1"><use xlink:href="#edb49ed61258017b1ba5aabe93fabfe819lz7wv0__glyph-6-0" x="279.673144" y="89.751072"/></g><path fill="none" stroke="rgb(0%, 0%, 0%)" stroke-linecap="butt" stroke-linejoin="miter" stroke-miterlimit="10" stroke-opacity="1" stroke-width="0.39848" d="M -299.850815 -0.00125798 L -252.826481 -0.00125798 " transform="matrix(0.996824, 0, 0, -0.996824, 351.828273, 110.295621)"/><path fill="none" stroke="rgb(0%, 0%, 0%)" stroke-linecap="round" stroke-linejoin="round" stroke-miterlimit="10" stroke-opacity="1" stroke-width="0.39848" d="M -2.073956 2.389146 C -1.693843 0.954903 -0.851324 0.280888 -0.000967093 -0.00125798 C -0.851324 -0.279485 -1.693843 -0.957419 -2.073956 -2.391662 " transform="matrix(0.996824, 0, 0, -0.996824, 100.00487, 110.295621)"/><path fill="none" stroke="rgb(0%, 0%, 0%)" stroke-linecap="butt" stroke-linejoin="miter" stroke-miterlimit="10" stroke-opacity="1" stroke-width="0.39848" d="M -189.472946 8.827561 L -146.59851 26.21089 " transform="matrix(0.996824, 0, 0, -0.996824, 351.828273, 110.295621)"/><path fill="none" stroke="rgb(0%, 0%, 0%)" stroke-linecap="round" stroke-linejoin="round" stroke-miterlimit="10" stroke-opacity="1" stroke-width="0.39848" d="M -2.070887 2.390418 C -1.692655 0.955781 -0.850223 0.280154 -0.000119682 -0.0010902 C -0.848477 -0.278736 -1.693611 -0.955183 -2.072933 -2.391362 " transform="matrix(0.923757, -0.374537, -0.374537, -0.923757, 205.878608, 84.092698)"/><g fill="rgb(0%, 0%, 0%)" fill-opacity="1"><use xlink:href="#edb49ed61258017b1ba5aabe93fabfe819lz7wv0__glyph-2-2" x="165.211795" y="88.600736"/></g><g fill="rgb(0%, 0%, 0%)" fill-opacity="1"><use xlink:href="#edb49ed61258017b1ba5aabe93fabfe819lz7wv0__glyph-6-0" x="168.821295" y="89.593573"/></g><g fill="rgb(0%, 0%, 0%)" fill-opacity="1"><use xlink:href="#edb49ed61258017b1ba5aabe93fabfe819lz7wv0__glyph-7-0" x="173.194891" y="89.593573"/><use xlink:href="#edb49ed61258017b1ba5aabe93fabfe819lz7wv0__glyph-7-1" x="178.298412" y="89.593573"/></g><path fill="none" stroke="rgb(0%, 0%, 0%)" stroke-linecap="butt" stroke-linejoin="miter" stroke-miterlimit="10" stroke-opacity="1" stroke-width="0.39848" d="M -170.04014 -0.00125798 L -66.527825 -0.00125798 " transform="matrix(0.996824, 0, 0, -0.996824, 351.828273, 110.295621)"/><path fill="none" stroke="rgb(0%, 0%, 0%)" stroke-linecap="round" stroke-linejoin="round" stroke-miterlimit="10" stroke-opacity="1" stroke-width="0.39848" d="M -2.073481 2.389146 C -1.693368 0.954903 -0.850848 0.280888 -0.000491735 -0.00125798 C -0.850848 -0.279485 -1.693368 -0.957419 -2.073481 -2.391662 " transform="matrix(0.996824, 0, 0, -0.996824, 285.711428, 110.295621)"/><g fill="rgb(0%, 0%, 0%)" fill-opacity="1"><use xlink:href="#edb49ed61258017b1ba5aabe93fabfe819lz7wv0__glyph-2-3" x="225.37712" y="117.459797"/></g><g fill="rgb(0%, 0%, 0%)" fill-opacity="1"><use xlink:href="#edb49ed61258017b1ba5aabe93fabfe819lz7wv0__glyph-6-0" x="229.511948" y="118.452634"/></g><g fill="rgb(0%, 0%, 0%)" fill-opacity="1"><use xlink:href="#edb49ed61258017b1ba5aabe93fabfe819lz7wv0__glyph-7-0" x="233.885543" y="118.452634"/><use xlink:href="#edb49ed61258017b1ba5aabe93fabfe819lz7wv0__glyph-7-1" x="238.989065" y="118.452634"/></g><path fill="none" stroke="rgb(0%, 0%, 0%)" stroke-linecap="butt" stroke-linejoin="miter" stroke-miterlimit="10" stroke-opacity="1" stroke-width="0.39848" d="M 6.281519 -0.00125798 L 137.926142 -0.00125798 " transform="matrix(0.996824, 0, 0, -0.996824, 351.828273, 110.295621)"/><path fill="none" stroke="rgb(0%, 0%, 0%)" stroke-linecap="round" stroke-linejoin="round" stroke-miterlimit="10" stroke-opacity="1" stroke-width="0.39848" d="M -2.072014 2.389146 C -1.691901 0.954903 -0.849381 0.280888 0.000975255 -0.00125798 C -0.849381 -0.279485 -1.691901 -0.957419 -2.072014 -2.391662 " transform="matrix(0.996824, 0, 0, -0.996824, 489.514653, 110.295621)"/><g fill="rgb(0%, 0%, 0%)" fill-opacity="1"><use xlink:href="#edb49ed61258017b1ba5aabe93fabfe819lz7wv0__glyph-2-3" x="419.399007" y="117.459797"/></g><g fill="rgb(0%, 0%, 0%)" fill-opacity="1"><use xlink:href="#edb49ed61258017b1ba5aabe93fabfe819lz7wv0__glyph-6-0" x="423.532837" y="118.452634"/></g><path fill="none" stroke="rgb(0%, 0%, 0%)" stroke-linecap="butt" stroke-linejoin="miter" stroke-miterlimit="10" stroke-opacity="1" stroke-width="0.39848" d="M -3.652372 -8.826158 L 48.1802 -26.232999 " transform="matrix(0.996824, 0, 0, -0.996824, 351.828273, 110.295621)"/><path fill="none" stroke="rgb(0%, 0%, 0%)" stroke-linecap="round" stroke-linejoin="round" stroke-miterlimit="10" stroke-opacity="1" stroke-width="0.39848" d="M -2.071881 2.390418 C -1.693159 0.954955 -0.850177 0.278968 0.000591914 -0.00167563 C -0.848925 -0.278701 -1.692589 -0.954758 -2.069818 -2.391918 " transform="matrix(0.94491, 0.317329, 0.317329, -0.94491, 400.042941, 136.509948)"/><g fill="rgb(0%, 0%, 0%)" fill-opacity="1"><use xlink:href="#edb49ed61258017b1ba5aabe93fabfe819lz7wv0__glyph-2-2" x="363.391435" y="134.997925"/></g><g fill="rgb(0%, 0%, 0%)" fill-opacity="1"><use xlink:href="#edb49ed61258017b1ba5aabe93fabfe819lz7wv0__glyph-6-0" x="367.001933" y="135.990762"/></g><path fill="none" stroke="rgb(0%, 0%, 0%)" stroke-linecap="butt" stroke-linejoin="miter" stroke-miterlimit="10" stroke-opacity="1" stroke-width="0.39848" d="M 231.132291 -0.00125798 L 299.450811 -0.00125798 " transform="matrix(0.996824, 0, 0, -0.996824, 351.828273, 110.295621)"/><path fill="none" stroke="rgb(0%, 0%, 0%)" stroke-linecap="round" stroke-linejoin="round" stroke-miterlimit="10" stroke-opacity="1" stroke-width="0.39848" d="M -2.072245 2.389146 C -1.692132 0.954903 -0.849613 0.280888 0.000743967 -0.00125798 C -0.849613 -0.279485 -1.692132 -0.957419 -2.072245 -2.391662 " transform="matrix(0.996824, 0, 0, -0.996824, 650.526602, 110.295621)"/><path fill="none" stroke="rgb(0%, 0%, 0%)" stroke-linecap="butt" stroke-linejoin="miter" stroke-miterlimit="10" stroke-opacity="1" stroke-width="0.39848" d="M 102.387501 -26.362316 L 156.786818 -8.947638 " transform="matrix(0.996824, 0, 0, -0.996824, 351.828273, 110.295621)"/><path fill="none" stroke="rgb(0%, 0%, 0%)" stroke-linecap="round" stroke-linejoin="round" stroke-miterlimit="10" stroke-opacity="1" stroke-width="0.39848" d="M -2.072537 2.390079 C -1.692215 0.955754 -0.851264 0.279235 0.00105773 -0.00179505 C -0.849507 -0.280929 -1.695319 -0.956597 -2.072235 -2.391323 " transform="matrix(0.949336, -0.303852, -0.303852, -0.949336, 508.307044, 119.154867)"/><g fill="rgb(0%, 0%, 0%)" fill-opacity="1"><use xlink:href="#edb49ed61258017b1ba5aabe93fabfe819lz7wv0__glyph-2-1" x="483.527706" y="134.770649"/></g><g fill="rgb(0%, 0%, 0%)" fill-opacity="1"><use xlink:href="#edb49ed61258017b1ba5aabe93fabfe819lz7wv0__glyph-6-0" x="486.814236" y="135.763486"/></g><g fill="rgb(0%, 0%, 0%)" fill-opacity="1"><use xlink:href="#edb49ed61258017b1ba5aabe93fabfe819lz7wv0__glyph-8-0" x="491.187831" y="135.763486"/></g><g fill="rgb(0%, 0%, 0%)" fill-opacity="1"><use xlink:href="#edb49ed61258017b1ba5aabe93fabfe819lz7wv0__glyph-7-1" x="496.566937" y="135.763486"/></g><path fill="none" stroke="rgb(0%, 0%, 0%)" stroke-linecap="butt" stroke-linejoin="miter" stroke-miterlimit="10" stroke-opacity="1" stroke-width="0.39848" d="M 102.387501 -44.016035 L 156.786818 -61.426794 " transform="matrix(0.996824, 0, 0, -0.996824, 351.828273, 110.295621)"/><path fill="none" stroke="rgb(0%, 0%, 0%)" stroke-linecap="round" stroke-linejoin="round" stroke-miterlimit="10" stroke-opacity="1" stroke-width="0.39848" d="M -2.071518 2.389084 C -1.694603 0.954358 -0.848791 0.27869 0.00177429 -0.000443725 C -0.851742 -0.277742 -1.692693 -0.954261 -2.07182 -2.392317 " transform="matrix(0.949336, 0.303852, 0.303852, -0.949336, 508.307044, 171.588883)"/><path fill="none" stroke="rgb(0%, 0%, 0%)" stroke-linecap="butt" stroke-linejoin="miter" stroke-miterlimit="10" stroke-opacity="1" stroke-width="0.39848" d="M -22.944105 -68.033713 L 48.1802 -44.141433 " transform="matrix(0.996824, 0, 0, -0.996824, 351.828273, 110.295621)"/><path fill="none" stroke="rgb(0%, 0%, 0%)" stroke-linecap="round" stroke-linejoin="round" stroke-miterlimit="10" stroke-opacity="1" stroke-width="0.39848" d="M -2.074099 2.391138 C -1.692029 0.956408 -0.84842 0.280277 -0.00017226 -0.000536875 C -0.84972 -0.277393 -1.69401 -0.957026 -2.072855 -2.392461 " transform="matrix(0.94488, -0.317409, -0.317409, -0.94488, 400.042961, 154.233813)"/><path fill="none" stroke="rgb(0%, 0%, 0%)" stroke-linecap="butt" stroke-linejoin="miter" stroke-miterlimit="10" stroke-opacity="1" stroke-width="0.39848" d="M 206.605182 -79.201993 L 262.007685 -101.550307 " transform="matrix(0.996824, 0, 0, -0.996824, 351.828273, 110.295621)"/><path fill="none" stroke="rgb(0%, 0%, 0%)" stroke-linecap="round" stroke-linejoin="round" stroke-miterlimit="10" stroke-opacity="1" stroke-width="0.39848" d="M -2.073379 2.391763 C -1.693038 0.956358 -0.849135 0.27837 -0.00128249 -0.000821913 C -0.848265 -0.279052 -1.694098 -0.958246 -2.071309 -2.390729 " transform="matrix(0.924435, 0.372852, 0.372852, -0.924435, 613.188992, 211.597375)"/></svg>