<?xml version="1.0" encoding="UTF-8"?><svg xmlns="http://www.w3.org/2000/svg" xmlns:xlink="http://www.w3.org/1999/xlink" width="343.711" height="77.448" viewBox="0 0 343.711 77.448"><defs><g><g id="0b294bfdd9473ad61f03e8442524b990gjnqt34f__glyph-0-0"><path d="M 1.578125 -0.765625 C 1.484375 -0.390625 1.46875 -0.3125 0.6875 -0.3125 C 0.515625 -0.3125 0.421875 -0.3125 0.421875 -0.109375 C 0.421875 0 0.5 0 0.6875 0 L 4.21875 0 C 5.78125 0 6.9375 -1.171875 6.9375 -2.140625 C 6.9375 -2.84375 6.375 -3.421875 5.40625 -3.53125 C 6.4375 -3.71875 7.484375 -4.453125 7.484375 -5.390625 C 7.484375 -6.125 6.828125 -6.75 5.640625 -6.75 L 2.3125 -6.75 C 2.125 -6.75 2.03125 -6.75 2.03125 -6.5625 C 2.03125 -6.453125 2.109375 -6.453125 2.296875 -6.453125 C 2.328125 -6.453125 2.515625 -6.453125 2.6875 -6.421875 C 2.859375 -6.40625 2.953125 -6.40625 2.953125 -6.265625 C 2.953125 -6.234375 2.9375 -6.203125 2.90625 -6.078125 Z M 3.078125 -3.625 L 3.6875 -6.078125 C 3.78125 -6.421875 3.796875 -6.453125 4.21875 -6.453125 L 5.5 -6.453125 C 6.375 -6.453125 6.578125 -5.859375 6.578125 -5.4375 C 6.578125 -4.5625 5.734375 -3.625 4.515625 -3.625 Z M 2.625 -0.3125 C 2.5 -0.3125 2.46875 -0.3125 2.40625 -0.3125 C 2.3125 -0.328125 2.28125 -0.34375 2.28125 -0.421875 C 2.28125 -0.4375 2.28125 -0.46875 2.328125 -0.640625 L 3.015625 -3.40625 L 4.890625 -3.40625 C 5.828125 -3.40625 6.015625 -2.671875 6.015625 -2.25 C 6.015625 -1.265625 5.140625 -0.3125 3.96875 -0.3125 Z M 2.625 -0.3125 "/></g><g id="0b294bfdd9473ad61f03e8442524b990gjnqt34f__glyph-0-1"><path d="M 6.375 -6.875 C 6.375 -6.90625 6.359375 -6.96875 6.265625 -6.96875 C 6.21875 -6.96875 6.21875 -6.96875 6.09375 -6.828125 L 5.625 -6.265625 C 5.359375 -6.71875 4.84375 -6.96875 4.203125 -6.96875 C 2.953125 -6.96875 1.765625 -5.828125 1.765625 -4.640625 C 1.765625 -3.84375 2.28125 -3.375 2.796875 -3.234375 L 3.84375 -2.953125 C 4.21875 -2.875 4.75 -2.71875 4.75 -1.90625 C 4.75 -1.015625 3.953125 -0.09375 2.984375 -0.09375 C 2.34375 -0.09375 1.25 -0.3125 1.25 -1.53125 C 1.25 -1.765625 1.296875 -2 1.3125 -2.0625 C 1.3125 -2.109375 1.328125 -2.109375 1.328125 -2.140625 C 1.328125 -2.234375 1.25 -2.25 1.203125 -2.25 C 1.15625 -2.25 1.140625 -2.234375 1.109375 -2.203125 C 1.0625 -2.171875 0.515625 0.09375 0.515625 0.125 C 0.515625 0.171875 0.5625 0.21875 0.625 0.21875 C 0.671875 0.21875 0.6875 0.203125 0.796875 0.0625 L 1.28125 -0.5 C 1.71875 0.078125 2.390625 0.21875 2.953125 0.21875 C 4.296875 0.21875 5.46875 -1.09375 5.46875 -2.328125 C 5.46875 -3 5.140625 -3.34375 4.984375 -3.484375 C 4.75 -3.703125 4.609375 -3.75 3.734375 -3.96875 C 3.515625 -4.03125 3.15625 -4.140625 3.0625 -4.15625 C 2.796875 -4.25 2.46875 -4.53125 2.46875 -5.046875 C 2.46875 -5.859375 3.25 -6.703125 4.1875 -6.703125 C 5.015625 -6.703125 5.625 -6.265625 5.625 -5.15625 C 5.625 -4.84375 5.578125 -4.671875 5.578125 -4.609375 C 5.578125 -4.59375 5.578125 -4.515625 5.703125 -4.515625 C 5.796875 -4.515625 5.8125 -4.546875 5.84375 -4.703125 Z M 6.375 -6.875 "/></g><g id="0b294bfdd9473ad61f03e8442524b990gjnqt34f__glyph-0-2"><path d="M 7.3125 -4.3125 C 7.3125 -5.90625 6.265625 -6.96875 4.796875 -6.96875 C 2.65625 -6.96875 0.484375 -4.734375 0.484375 -2.421875 C 0.484375 -0.78125 1.59375 0.21875 3.015625 0.21875 C 5.109375 0.21875 7.3125 -1.953125 7.3125 -4.3125 Z M 3.078125 -0.046875 C 2.09375 -0.046875 1.40625 -0.84375 1.40625 -2.140625 C 1.40625 -2.578125 1.546875 -4.03125 2.296875 -5.1875 C 2.984375 -6.21875 3.953125 -6.71875 4.734375 -6.71875 C 5.546875 -6.71875 6.4375 -6.171875 6.4375 -4.703125 C 6.4375 -3.984375 6.171875 -2.4375 5.1875 -1.21875 C 4.71875 -0.625 3.90625 -0.046875 3.078125 -0.046875 Z M 3.078125 -0.046875 "/></g><g id="0b294bfdd9473ad61f03e8442524b990gjnqt34f__glyph-1-0"><path d="M 1.890625 -2.3125 C 2.421875 -2.3125 2.8125 -1.9375 2.8125 -1.203125 C 2.8125 -0.34375 2.3125 -0.078125 1.921875 -0.078125 C 1.640625 -0.078125 1.03125 -0.15625 0.734375 -0.5625 C 1.0625 -0.578125 1.140625 -0.8125 1.140625 -0.953125 C 1.140625 -1.171875 0.96875 -1.328125 0.765625 -1.328125 C 0.5625 -1.328125 0.375 -1.21875 0.375 -0.9375 C 0.375 -0.28125 1.09375 0.140625 1.9375 0.140625 C 2.890625 0.140625 3.5625 -0.5 3.5625 -1.203125 C 3.5625 -1.734375 3.109375 -2.28125 2.359375 -2.4375 C 3.078125 -2.703125 3.34375 -3.21875 3.34375 -3.640625 C 3.34375 -4.1875 2.71875 -4.59375 1.9375 -4.59375 C 1.171875 -4.59375 0.59375 -4.21875 0.59375 -3.671875 C 0.59375 -3.4375 0.734375 -3.296875 0.953125 -3.296875 C 1.15625 -3.296875 1.296875 -3.453125 1.296875 -3.65625 C 1.296875 -3.859375 1.15625 -4 0.953125 -4.015625 C 1.1875 -4.3125 1.671875 -4.390625 1.921875 -4.390625 C 2.234375 -4.390625 2.671875 -4.25 2.671875 -3.640625 C 2.671875 -3.34375 2.578125 -3.03125 2.390625 -2.8125 C 2.171875 -2.546875 1.96875 -2.546875 1.625 -2.515625 C 1.453125 -2.5 1.4375 -2.5 1.40625 -2.5 C 1.390625 -2.5 1.328125 -2.484375 1.328125 -2.40625 C 1.328125 -2.3125 1.390625 -2.3125 1.515625 -2.3125 Z M 1.890625 -2.3125 "/></g><g id="0b294bfdd9473ad61f03e8442524b990gjnqt34f__glyph-2-0"><path d="M 3.28125 2.375 C 3.28125 2.34375 3.28125 2.328125 3.109375 2.15625 C 1.875 0.90625 1.546875 -0.953125 1.546875 -2.46875 C 1.546875 -4.1875 1.921875 -5.921875 3.140625 -7.15625 C 3.28125 -7.265625 3.28125 -7.296875 3.28125 -7.3125 C 3.28125 -7.390625 3.234375 -7.421875 3.171875 -7.421875 C 3.078125 -7.421875 2.1875 -6.75 1.609375 -5.484375 C 1.09375 -4.40625 0.984375 -3.296875 0.984375 -2.46875 C 0.984375 -1.703125 1.09375 -0.5 1.625 0.609375 C 2.21875 1.828125 3.078125 2.46875 3.171875 2.46875 C 3.234375 2.46875 3.28125 2.4375 3.28125 2.375 Z M 3.28125 2.375 "/></g><g id="0b294bfdd9473ad61f03e8442524b990gjnqt34f__glyph-2-1"><path d="M 2.875 -3.484375 C 3.671875 -3.75 4.25 -4.4375 4.25 -5.21875 C 4.25 -6.03125 3.375 -6.59375 2.4375 -6.59375 C 1.4375 -6.59375 0.6875 -6 0.6875 -5.234375 C 0.6875 -4.921875 0.90625 -4.734375 1.1875 -4.734375 C 1.5 -4.734375 1.6875 -4.9375 1.6875 -5.234375 C 1.6875 -5.734375 1.21875 -5.734375 1.078125 -5.734375 C 1.390625 -6.21875 2.03125 -6.34375 2.390625 -6.34375 C 2.796875 -6.34375 3.34375 -6.125 3.34375 -5.234375 C 3.34375 -5.109375 3.328125 -4.546875 3.0625 -4.109375 C 2.765625 -3.625 2.4375 -3.59375 2.1875 -3.59375 C 2.109375 -3.578125 1.875 -3.5625 1.796875 -3.5625 C 1.71875 -3.546875 1.65625 -3.546875 1.65625 -3.4375 C 1.65625 -3.328125 1.71875 -3.328125 1.890625 -3.328125 L 2.328125 -3.328125 C 3.140625 -3.328125 3.5 -2.65625 3.5 -1.6875 C 3.5 -0.34375 2.8125 -0.0625 2.390625 -0.0625 C 1.953125 -0.0625 1.21875 -0.234375 0.875 -0.8125 C 1.21875 -0.765625 1.515625 -0.984375 1.515625 -1.359375 C 1.515625 -1.71875 1.25 -1.90625 0.96875 -1.90625 C 0.734375 -1.90625 0.421875 -1.765625 0.421875 -1.328125 C 0.421875 -0.4375 1.328125 0.21875 2.40625 0.21875 C 3.625 0.21875 4.515625 -0.6875 4.515625 -1.6875 C 4.515625 -2.5 3.890625 -3.28125 2.875 -3.484375 Z M 2.875 -3.484375 "/></g><g id="0b294bfdd9473ad61f03e8442524b990gjnqt34f__glyph-2-2"><path d="M 2.859375 -2.46875 C 2.859375 -3.25 2.75 -4.4375 2.203125 -5.5625 C 1.609375 -6.78125 0.765625 -7.421875 0.65625 -7.421875 C 0.609375 -7.421875 0.5625 -7.375 0.5625 -7.3125 C 0.5625 -7.296875 0.5625 -7.265625 0.75 -7.09375 C 1.71875 -6.109375 2.28125 -4.546875 2.28125 -2.46875 C 2.28125 -0.78125 1.921875 0.953125 0.6875 2.203125 C 0.5625 2.328125 0.5625 2.34375 0.5625 2.375 C 0.5625 2.4375 0.609375 2.46875 0.65625 2.46875 C 0.765625 2.46875 1.65625 1.796875 2.234375 0.546875 C 2.734375 -0.546875 2.859375 -1.640625 2.859375 -2.46875 Z M 2.859375 -2.46875 "/></g><g id="0b294bfdd9473ad61f03e8442524b990gjnqt34f__glyph-3-0"><path d="M 2.65625 -3.109375 L 3 -3.109375 L 4.484375 -0.8125 C 4.59375 -0.65625 4.828125 -0.265625 4.9375 -0.125 C 5 0 5.03125 0 5.265625 0 L 6.625 0 C 6.8125 0 6.953125 0 6.953125 -0.171875 C 6.953125 -0.25 6.890625 -0.328125 6.8125 -0.34375 C 6.4375 -0.421875 5.953125 -1.078125 5.71875 -1.390625 C 5.640625 -1.5 5.15625 -2.140625 4.484375 -3.21875 C 5.375 -3.375 6.21875 -3.75 6.21875 -4.921875 C 6.21875 -6.296875 4.765625 -6.78125 3.59375 -6.78125 L 0.5 -6.78125 C 0.3125 -6.78125 0.15625 -6.78125 0.15625 -6.59375 C 0.15625 -6.421875 0.34375 -6.421875 0.421875 -6.421875 C 0.984375 -6.421875 1.03125 -6.359375 1.03125 -5.859375 L 1.03125 -0.90625 C 1.03125 -0.421875 0.984375 -0.34375 0.421875 -0.34375 C 0.34375 -0.34375 0.15625 -0.34375 0.15625 -0.171875 C 0.15625 0 0.3125 0 0.5 0 L 3.203125 0 C 3.375 0 3.53125 0 3.53125 -0.171875 C 3.53125 -0.34375 3.359375 -0.34375 3.25 -0.34375 C 2.6875 -0.34375 2.65625 -0.421875 2.65625 -0.90625 Z M 4.5625 -3.59375 C 4.84375 -3.953125 4.859375 -4.484375 4.859375 -4.921875 C 4.859375 -5.390625 4.8125 -5.921875 4.484375 -6.3125 C 4.890625 -6.234375 5.875 -5.921875 5.875 -4.921875 C 5.875 -4.28125 5.578125 -3.78125 4.5625 -3.59375 Z M 2.65625 -5.890625 C 2.65625 -6.109375 2.65625 -6.421875 3.265625 -6.421875 C 4.109375 -6.421875 4.515625 -6.078125 4.515625 -4.921875 C 4.515625 -3.640625 4.21875 -3.453125 2.65625 -3.453125 Z M 1.3125 -0.34375 C 1.390625 -0.53125 1.390625 -0.796875 1.390625 -0.890625 L 1.390625 -5.890625 C 1.390625 -5.984375 1.390625 -6.25 1.3125 -6.421875 L 2.4375 -6.421875 C 2.296875 -6.265625 2.296875 -6.078125 2.296875 -5.921875 L 2.296875 -0.890625 C 2.296875 -0.796875 2.296875 -0.53125 2.390625 -0.34375 Z M 3.40625 -3.109375 C 3.484375 -3.109375 3.515625 -3.125 3.59375 -3.125 C 3.75 -3.125 3.96875 -3.140625 4.109375 -3.171875 C 4.265625 -2.921875 5.328125 -1.171875 6.15625 -0.34375 L 5.1875 -0.34375 Z M 3.40625 -3.109375 "/></g><g id="0b294bfdd9473ad61f03e8442524b990gjnqt34f__glyph-3-1"><path d="M 2.59375 -3.046875 C 2.625 -3.046875 2.84375 -3.046875 2.859375 -3.03125 L 3.1875 -3.03125 C 5.203125 -3.03125 5.921875 -3.96875 5.921875 -4.921875 C 5.921875 -6.3125 4.65625 -6.78125 3.375 -6.78125 L 0.5 -6.78125 C 0.3125 -6.78125 0.15625 -6.78125 0.15625 -6.59375 C 0.15625 -6.421875 0.34375 -6.421875 0.421875 -6.421875 C 0.9375 -6.421875 0.984375 -6.34375 0.984375 -5.859375 L 0.984375 -0.90625 C 0.984375 -0.421875 0.9375 -0.34375 0.4375 -0.34375 C 0.34375 -0.34375 0.15625 -0.34375 0.15625 -0.171875 C 0.15625 0 0.3125 0 0.5 0 L 3.140625 0 C 3.328125 0 3.46875 0 3.46875 -0.171875 C 3.46875 -0.34375 3.296875 -0.34375 3.1875 -0.34375 C 2.625 -0.34375 2.59375 -0.421875 2.59375 -0.90625 Z M 4.21875 -3.484375 C 4.546875 -3.90625 4.5625 -4.53125 4.5625 -4.921875 C 4.5625 -5.453125 4.515625 -5.96875 4.265625 -6.34375 C 4.8125 -6.21875 5.578125 -5.921875 5.578125 -4.921875 C 5.578125 -4.21875 5.140625 -3.71875 4.21875 -3.484375 Z M 2.59375 -5.890625 C 2.59375 -6.09375 2.59375 -6.421875 3.1875 -6.421875 C 3.890625 -6.421875 4.21875 -6.15625 4.21875 -4.921875 C 4.21875 -3.515625 3.703125 -3.390625 3.078125 -3.390625 L 2.59375 -3.390625 Z M 1.25 -0.34375 C 1.328125 -0.53125 1.328125 -0.765625 1.328125 -0.890625 L 1.328125 -5.890625 C 1.328125 -6.015625 1.328125 -6.25 1.25 -6.421875 L 2.375 -6.421875 C 2.25 -6.265625 2.25 -6.078125 2.25 -5.921875 L 2.25 -0.890625 C 2.25 -0.796875 2.25 -0.53125 2.328125 -0.34375 Z M 1.25 -0.34375 "/></g><g id="0b294bfdd9473ad61f03e8442524b990gjnqt34f__glyph-4-0"><path d="M 2.1875 0.0625 C 2.265625 0.0625 2.34375 0.0625 2.421875 0.0625 C 3.671875 0.0625 4.8125 -0.953125 4.8125 -2.046875 C 4.8125 -2.65625 4.4375 -3.046875 3.90625 -3.046875 C 2.953125 -3.046875 2.4375 -1.828125 2.25 -1.3125 C 2.15625 -1.0625 2 -0.578125 1.96875 -0.4375 C 1.203125 -0.546875 0.71875 -0.890625 0.71875 -1.40625 C 0.71875 -1.40625 0.765625 -2.1875 1.328125 -2.8125 C 1.375 -2.859375 1.375 -2.875 1.375 -2.90625 C 1.375 -2.984375 1.28125 -2.984375 1.265625 -2.984375 C 1.203125 -2.984375 1.171875 -2.984375 1.046875 -2.828125 C 0.65625 -2.359375 0.484375 -1.640625 0.484375 -1.328125 C 0.484375 -0.71875 0.921875 -0.1875 1.828125 0 C 1.46875 1.078125 1.4375 1.21875 1.4375 1.28125 C 1.4375 1.453125 1.59375 1.5 1.671875 1.5 C 1.75 1.5 1.875 1.453125 1.9375 1.34375 C 1.984375 1.234375 2.046875 0.890625 2.1875 0.0625 Z M 2.28125 -0.40625 C 2.421875 -1.203125 2.46875 -1.515625 2.796875 -1.96875 C 3.109375 -2.390625 3.484375 -2.578125 3.828125 -2.578125 C 4.3125 -2.578125 4.5625 -2.265625 4.5625 -1.90625 C 4.5625 -1.203125 3.6875 -0.40625 2.5 -0.40625 C 2.4375 -0.40625 2.34375 -0.40625 2.28125 -0.40625 Z M 2.28125 -0.40625 "/></g><g id="0b294bfdd9473ad61f03e8442524b990gjnqt34f__glyph-4-1"><path d="M 3.515625 -2.859375 C 3.53125 -2.875 3.53125 -2.921875 3.53125 -2.953125 C 3.53125 -3 3.515625 -3.046875 3.453125 -3.046875 C 3.375 -3.046875 3.09375 -2.8125 2.953125 -2.59375 C 2.875 -2.734375 2.65625 -3.046875 2.203125 -3.046875 C 1.328125 -3.046875 0.421875 -2.078125 0.421875 -1.078125 C 0.421875 -0.40625 0.875 0.0625 1.46875 0.0625 C 1.859375 0.0625 2.1875 -0.1875 2.34375 -0.3125 C 2.328125 -0.296875 2.125 0.578125 2.09375 0.703125 C 2 1.078125 1.984375 1.09375 1.5625 1.09375 C 1.46875 1.09375 1.375 1.09375 1.375 1.25 C 1.375 1.28125 1.40625 1.34375 1.484375 1.34375 C 1.703125 1.34375 1.96875 1.3125 2.203125 1.3125 C 2.4375 1.3125 2.734375 1.34375 2.9375 1.34375 C 3 1.34375 3.078125 1.328125 3.078125 1.1875 C 3.078125 1.09375 2.984375 1.09375 2.90625 1.09375 C 2.75 1.09375 2.5625 1.09375 2.5625 1.015625 C 2.5625 0.984375 2.5625 0.96875 2.59375 0.859375 Z M 2.484375 -0.875 C 2.4375 -0.75 2.4375 -0.734375 2.359375 -0.625 C 2.078125 -0.3125 1.765625 -0.125 1.484375 -0.125 C 1.234375 -0.125 0.984375 -0.296875 0.984375 -0.796875 C 0.984375 -1.15625 1.1875 -1.921875 1.34375 -2.203125 C 1.65625 -2.75 2.015625 -2.859375 2.203125 -2.859375 C 2.6875 -2.859375 2.828125 -2.328125 2.828125 -2.25 C 2.828125 -2.21875 2.8125 -2.1875 2.796875 -2.15625 Z M 2.484375 -0.875 "/></g><g id="0b294bfdd9473ad61f03e8442524b990gjnqt34f__glyph-5-0"><path d="M 4.359375 -4.84375 C 4.3125 -4.90625 4.28125 -4.953125 4.25 -5 C 3.859375 -4.703125 3.484375 -4.53125 3.109375 -4.53125 C 2.859375 -4.53125 2.6875 -4.578125 2.3125 -4.765625 C 2.0625 -4.890625 1.8125 -5 1.515625 -5 C 1.03125 -5 0.71875 -4.765625 0.109375 -4.328125 C 0.15625 -4.265625 0.1875 -4.21875 0.234375 -4.171875 C 0.609375 -4.46875 0.984375 -4.640625 1.359375 -4.640625 C 1.609375 -4.640625 1.78125 -4.59375 2.15625 -4.40625 C 2.40625 -4.28125 2.671875 -4.171875 2.953125 -4.171875 C 3.4375 -4.171875 3.75 -4.40625 4.359375 -4.84375 Z M 4.359375 -4.84375 "/></g></g></defs><g fill="rgb(0%, 0%, 0%)" fill-opacity="1"><use xlink:href="#0b294bfdd9473ad61f03e8442524b990gjnqt34f__glyph-0-0" x="127.242473" y="12.661755"/></g><g fill="rgb(0%, 0%, 0%)" fill-opacity="1"><use xlink:href="#0b294bfdd9473ad61f03e8442524b990gjnqt34f__glyph-1-0" x="135.242454" y="9.071345"/></g><g fill="rgb(0%, 0%, 0%)" fill-opacity="1"><use xlink:href="#0b294bfdd9473ad61f03e8442524b990gjnqt34f__glyph-0-1" x="198.275197" y="12.661755"/></g><g fill="rgb(0%, 0%, 0%)" fill-opacity="1"><use xlink:href="#0b294bfdd9473ad61f03e8442524b990gjnqt34f__glyph-0-2" x="204.914772" y="12.661755"/></g><g fill="rgb(0%, 0%, 0%)" fill-opacity="1"><use xlink:href="#0b294bfdd9473ad61f03e8442524b990gjnqt34f__glyph-2-0" x="212.727549" y="12.661755"/><use xlink:href="#0b294bfdd9473ad61f03e8442524b990gjnqt34f__glyph-2-1" x="216.574585" y="12.661755"/><use xlink:href="#0b294bfdd9473ad61f03e8442524b990gjnqt34f__glyph-2-2" x="221.520632" y="12.661755"/></g><g fill="rgb(0%, 0%, 0%)" fill-opacity="1"><use xlink:href="#0b294bfdd9473ad61f03e8442524b990gjnqt34f__glyph-3-0" x="124.647965" y="73.279709"/><use xlink:href="#0b294bfdd9473ad61f03e8442524b990gjnqt34f__glyph-3-1" x="131.792037" y="73.279709"/></g><g fill="rgb(0%, 0%, 0%)" fill-opacity="1"><use xlink:href="#0b294bfdd9473ad61f03e8442524b990gjnqt34f__glyph-1-0" x="137.836962" y="69.690292"/></g><path fill="none" stroke="rgb(0%, 0%, 0%)" stroke-linecap="butt" stroke-linejoin="miter" stroke-miterlimit="10" stroke-opacity="1" stroke-width="0.39848" d="M -27.772343 28.96189 L 21.864086 28.96189 " transform="matrix(0.992923, 0, 0, -0.992923, 171.712519, 38.944429)"/><path fill="none" stroke="rgb(0%, 0%, 0%)" stroke-linecap="round" stroke-linejoin="round" stroke-miterlimit="10" stroke-opacity="1" stroke-width="0.39848" d="M -2.073301 2.392547 C -1.691694 0.956604 -0.849799 0.27994 -0.0000349651 0.000619991 C -0.849799 -0.2787 -1.691694 -0.955364 -2.073301 -2.391307 " transform="matrix(0.992923, 0, 0, -0.992923, 193.621128, 10.188116)"/><g fill="rgb(0%, 0%, 0%)" fill-opacity="1"><use xlink:href="#0b294bfdd9473ad61f03e8442524b990gjnqt34f__glyph-4-0" x="166.375558" y="6.514568"/></g><path fill="none" stroke="rgb(0%, 0%, 0%)" stroke-linecap="butt" stroke-linejoin="miter" stroke-miterlimit="10" stroke-opacity="1" stroke-width="0.39848" d="M -41.844588 22.624069 L -41.844588 -22.228506 " transform="matrix(0.992923, 0, 0, -0.992923, 171.712519, 38.944429)"/><path fill="none" stroke="rgb(0%, 0%, 0%)" stroke-linecap="round" stroke-linejoin="round" stroke-miterlimit="10" stroke-opacity="1" stroke-width="0.39848" d="M -2.071485 2.3923 C -1.693812 0.956357 -0.851917 0.279693 0.00178084 0.000372496 C -0.851917 -0.278948 -1.693812 -0.955612 -2.071485 -2.391555 " transform="matrix(0, 0.992923, 0.992923, 0, 130.163693, 59.787294)"/><path fill="none" stroke="rgb(0%, 0%, 0%)" stroke-linecap="round" stroke-linejoin="round" stroke-miterlimit="10" stroke-opacity="1" stroke-width="0.39848" d="M -2.074036 2.3923 C -1.692429 0.956357 -0.850534 0.279693 -0.000769936 0.000372496 C -0.850534 -0.278948 -1.692429 -0.955612 -2.074036 -2.391555 " transform="matrix(0, 0.992923, 0.992923, 0, 130.163693, 61.211702)"/><g fill="rgb(0%, 0%, 0%)" fill-opacity="1"><use xlink:href="#0b294bfdd9473ad61f03e8442524b990gjnqt34f__glyph-4-1" x="123.961855" y="39.761605"/></g><path fill="none" stroke="rgb(0%, 0%, 0%)" stroke-dasharray="2.78941 1.59395" stroke-linecap="butt" stroke-linejoin="miter" stroke-miterlimit="10" stroke-opacity="1" stroke-width="0.39848" d="M -29.098132 -22.625849 L 28.194039 19.897744 " transform="matrix(0.992923, 0, 0, -0.992923, 171.712519, 38.944429)"/><path fill="none" stroke="rgb(0%, 0%, 0%)" stroke-linecap="round" stroke-linejoin="round" stroke-miterlimit="10" stroke-opacity="1" stroke-width="0.39848" d="M -2.072716 2.390901 C -1.691779 0.956772 -0.848791 0.2772 -0.000736523 0.000529798 C -0.850725 -0.279913 -1.695587 -0.956125 -2.07398 -2.390119 " transform="matrix(0.797268, -0.591742, -0.591742, -0.797268, 199.864182, 19.070299)"/><g fill="rgb(0%, 0%, 0%)" fill-opacity="1"><use xlink:href="#0b294bfdd9473ad61f03e8442524b990gjnqt34f__glyph-5-0" x="174.749871" y="47.509383"/></g><g fill="rgb(0%, 0%, 0%)" fill-opacity="1"><use xlink:href="#0b294bfdd9473ad61f03e8442524b990gjnqt34f__glyph-4-0" x="173.751366" y="47.509383"/></g></svg>