<?xml version="1.0" encoding="UTF-8"?><svg xmlns="http://www.w3.org/2000/svg" xmlns:xlink="http://www.w3.org/1999/xlink" width="478.446" height="54.164" viewBox="0 0 478.446 54.164"><defs><g><g id="b52ddbb656d8b0098040711abab53c3b6whf1m2v__glyph-0-0"><path d="M 7.484375 -5.953125 C 7.578125 -6.296875 7.59375 -6.390625 8.3125 -6.390625 C 8.5625 -6.390625 8.640625 -6.390625 8.640625 -6.59375 C 8.640625 -6.703125 8.53125 -6.703125 8.5 -6.703125 C 8.234375 -6.703125 7.53125 -6.671875 7.25 -6.671875 C 6.96875 -6.671875 6.265625 -6.703125 5.984375 -6.703125 C 5.90625 -6.703125 5.796875 -6.703125 5.796875 -6.5 C 5.796875 -6.390625 5.890625 -6.390625 6.078125 -6.390625 C 6.09375 -6.390625 6.28125 -6.390625 6.453125 -6.375 C 6.625 -6.359375 6.71875 -6.34375 6.71875 -6.21875 C 6.71875 -6.1875 6.703125 -6.15625 6.671875 -6.03125 L 6.078125 -3.640625 L 3.09375 -3.640625 L 3.671875 -5.953125 C 3.765625 -6.296875 3.78125 -6.390625 4.5 -6.390625 C 4.75 -6.390625 4.828125 -6.390625 4.828125 -6.59375 C 4.828125 -6.703125 4.71875 -6.703125 4.6875 -6.703125 C 4.421875 -6.703125 3.703125 -6.671875 3.4375 -6.671875 C 3.15625 -6.671875 2.453125 -6.703125 2.171875 -6.703125 C 2.09375 -6.703125 1.984375 -6.703125 1.984375 -6.5 C 1.984375 -6.390625 2.078125 -6.390625 2.25 -6.390625 C 2.28125 -6.390625 2.46875 -6.390625 2.625 -6.375 C 2.8125 -6.359375 2.890625 -6.34375 2.890625 -6.21875 C 2.890625 -6.1875 2.890625 -6.15625 2.859375 -6.03125 L 1.546875 -0.765625 C 1.4375 -0.375 1.421875 -0.296875 0.640625 -0.296875 C 0.46875 -0.296875 0.375 -0.296875 0.375 -0.109375 C 0.375 0 0.5 0 0.515625 0 C 0.796875 0 1.484375 -0.03125 1.765625 -0.03125 C 1.96875 -0.03125 2.1875 -0.015625 2.390625 -0.015625 C 2.609375 -0.015625 2.828125 0 3.03125 0 C 3.109375 0 3.234375 0 3.234375 -0.203125 C 3.234375 -0.296875 3.140625 -0.296875 2.953125 -0.296875 C 2.59375 -0.296875 2.3125 -0.296875 2.3125 -0.484375 C 2.3125 -0.546875 2.328125 -0.59375 2.34375 -0.640625 L 3.015625 -3.34375 L 6 -3.34375 C 5.59375 -1.703125 5.375 -0.78125 5.328125 -0.625 C 5.234375 -0.3125 5.046875 -0.296875 4.4375 -0.296875 C 4.28125 -0.296875 4.203125 -0.296875 4.203125 -0.109375 C 4.203125 0 4.3125 0 4.34375 0 C 4.609375 0 5.3125 -0.03125 5.578125 -0.03125 C 5.796875 -0.03125 6 -0.015625 6.21875 -0.015625 C 6.421875 -0.015625 6.640625 0 6.84375 0 C 6.921875 0 7.046875 0 7.046875 -0.203125 C 7.046875 -0.296875 6.953125 -0.296875 6.765625 -0.296875 C 6.40625 -0.296875 6.140625 -0.296875 6.140625 -0.484375 C 6.140625 -0.546875 6.15625 -0.59375 6.15625 -0.640625 Z M 7.484375 -5.953125 "/></g><g id="b52ddbb656d8b0098040711abab53c3b6whf1m2v__glyph-0-1"><path d="M 4.765625 -4.03125 L 3.9375 -5.984375 C 3.90625 -6.0625 3.890625 -6.109375 3.890625 -6.109375 C 3.890625 -6.171875 4.046875 -6.359375 4.46875 -6.390625 C 4.5625 -6.40625 4.65625 -6.421875 4.65625 -6.578125 C 4.65625 -6.703125 4.546875 -6.703125 4.515625 -6.703125 C 4.109375 -6.703125 3.6875 -6.671875 3.28125 -6.671875 C 3.03125 -6.671875 2.421875 -6.703125 2.171875 -6.703125 C 2.125 -6.703125 2 -6.703125 2 -6.5 C 2 -6.390625 2.09375 -6.390625 2.234375 -6.390625 C 2.8125 -6.390625 2.875 -6.296875 2.96875 -6.078125 L 4.125 -3.34375 L 2.046875 -1.125 L 1.921875 -1.015625 C 1.4375 -0.484375 0.984375 -0.328125 0.484375 -0.296875 C 0.359375 -0.296875 0.265625 -0.296875 0.265625 -0.109375 C 0.265625 -0.09375 0.265625 0 0.390625 0 C 0.6875 0 1.015625 -0.03125 1.3125 -0.03125 C 1.671875 -0.03125 2.0625 0 2.40625 0 C 2.46875 0 2.59375 0 2.59375 -0.203125 C 2.59375 -0.296875 2.5 -0.296875 2.46875 -0.296875 C 2.390625 -0.3125 2.078125 -0.328125 2.078125 -0.609375 C 2.078125 -0.765625 2.234375 -0.921875 2.34375 -1.046875 L 3.34375 -2.109375 L 4.234375 -3.078125 L 5.21875 -0.71875 C 5.265625 -0.625 5.265625 -0.609375 5.265625 -0.59375 C 5.265625 -0.515625 5.078125 -0.34375 4.703125 -0.296875 C 4.59375 -0.296875 4.5 -0.28125 4.5 -0.125 C 4.5 0 4.609375 0 4.65625 0 C 4.921875 0 5.609375 -0.03125 5.890625 -0.03125 C 6.140625 -0.03125 6.734375 0 6.984375 0 C 7.046875 0 7.15625 0 7.15625 -0.1875 C 7.15625 -0.296875 7.0625 -0.296875 6.984375 -0.296875 C 6.328125 -0.3125 6.3125 -0.34375 6.140625 -0.734375 C 5.765625 -1.65625 5.109375 -3.171875 4.875 -3.765625 C 5.546875 -4.453125 6.578125 -5.625 6.890625 -5.890625 C 7.171875 -6.140625 7.546875 -6.375 8.140625 -6.390625 C 8.265625 -6.40625 8.34375 -6.40625 8.34375 -6.59375 C 8.34375 -6.609375 8.34375 -6.703125 8.21875 -6.703125 C 7.921875 -6.703125 7.609375 -6.671875 7.296875 -6.671875 C 6.9375 -6.671875 6.5625 -6.703125 6.21875 -6.703125 C 6.15625 -6.703125 6.03125 -6.703125 6.03125 -6.5 C 6.03125 -6.4375 6.078125 -6.40625 6.140625 -6.390625 C 6.234375 -6.390625 6.53125 -6.375 6.53125 -6.09375 C 6.53125 -5.953125 6.421875 -5.828125 6.34375 -5.734375 Z M 4.765625 -4.03125 "/></g><g id="b52ddbb656d8b0098040711abab53c3b6whf1m2v__glyph-0-2"><path d="M 1.984375 -0.015625 C 1.984375 -0.65625 1.75 -1.046875 1.359375 -1.046875 C 1.046875 -1.046875 0.84375 -0.796875 0.84375 -0.515625 C 0.84375 -0.25 1.046875 0 1.359375 0 C 1.484375 0 1.609375 -0.046875 1.703125 -0.125 C 1.734375 -0.140625 1.75 -0.15625 1.75 -0.15625 C 1.765625 -0.15625 1.78125 -0.140625 1.78125 -0.015625 C 1.78125 0.71875 1.4375 1.3125 1.109375 1.625 C 1 1.734375 1 1.75 1 1.78125 C 1 1.859375 1.046875 1.890625 1.09375 1.890625 C 1.203125 1.890625 1.984375 1.140625 1.984375 -0.015625 Z M 1.984375 -0.015625 "/></g><g id="b52ddbb656d8b0098040711abab53c3b6whf1m2v__glyph-1-0"><path d="M 3.4375 -4.75 C 3.375 -4.875 3.359375 -4.90625 3.21875 -4.90625 C 3.140625 -4.90625 3.0625 -4.875 3 -4.765625 L 0.46875 -0.171875 C 0.421875 -0.09375 0.421875 -0.078125 0.421875 -0.0625 C 0.421875 0 0.46875 0 0.578125 0 L 5.859375 0 C 5.96875 0 6.015625 0 6.015625 -0.0625 C 6.015625 -0.078125 6.015625 -0.09375 5.96875 -0.171875 Z M 2.984375 -4.234375 L 5.015625 -0.5625 L 0.96875 -0.5625 Z M 2.984375 -4.234375 "/></g><g id="b52ddbb656d8b0098040711abab53c3b6whf1m2v__glyph-1-1"><path d="M 3.1875 -1.546875 L 5.28125 -1.546875 C 5.375 -1.546875 5.546875 -1.546875 5.546875 -1.71875 C 5.546875 -1.890625 5.390625 -1.890625 5.28125 -1.890625 L 3.1875 -1.890625 L 3.1875 -4 C 3.1875 -4.09375 3.1875 -4.25 3.015625 -4.25 C 2.84375 -4.25 2.84375 -4.09375 2.84375 -4 L 2.84375 -1.890625 L 0.734375 -1.890625 C 0.640625 -1.890625 0.484375 -1.890625 0.484375 -1.71875 C 0.484375 -1.546875 0.640625 -1.546875 0.734375 -1.546875 L 2.84375 -1.546875 L 2.84375 0.5625 C 2.84375 0.640625 2.84375 0.8125 3.015625 0.8125 C 3.1875 0.8125 3.1875 0.65625 3.1875 0.5625 Z M 3.1875 -1.546875 "/></g><g id="b52ddbb656d8b0098040711abab53c3b6whf1m2v__glyph-1-2"><path d="M 2.296875 -4.375 C 2.296875 -4.5625 2.296875 -4.5625 2.09375 -4.5625 C 1.65625 -4.125 1.03125 -4.125 0.75 -4.125 L 0.75 -3.875 C 0.921875 -3.875 1.375 -3.875 1.75 -4.0625 L 1.75 -0.5625 C 1.75 -0.34375 1.75 -0.25 1.0625 -0.25 L 0.796875 -0.25 L 0.796875 0 C 0.921875 0 1.765625 -0.03125 2.015625 -0.03125 C 2.234375 -0.03125 3.09375 0 3.25 0 L 3.25 -0.25 L 2.984375 -0.25 C 2.296875 -0.25 2.296875 -0.34375 2.296875 -0.5625 Z M 2.296875 -4.375 "/></g><g id="b52ddbb656d8b0098040711abab53c3b6whf1m2v__glyph-2-0"><path d="M 0.84375 -0.4375 C 0.8125 -0.34375 0.765625 -0.171875 0.765625 -0.15625 C 0.765625 0 0.890625 0.0625 1 0.0625 C 1.125 0.0625 1.234375 -0.015625 1.265625 -0.078125 C 1.3125 -0.140625 1.359375 -0.359375 1.390625 -0.515625 C 1.4375 -0.640625 1.5 -0.953125 1.546875 -1.125 C 1.59375 -1.28125 1.625 -1.4375 1.65625 -1.59375 C 1.734375 -1.875 1.75 -1.921875 1.953125 -2.203125 C 2.140625 -2.484375 2.46875 -2.84375 2.984375 -2.84375 C 3.375 -2.84375 3.390625 -2.484375 3.390625 -2.359375 C 3.390625 -1.953125 3.09375 -1.1875 2.984375 -0.890625 C 2.90625 -0.703125 2.875 -0.640625 2.875 -0.515625 C 2.875 -0.15625 3.1875 0.0625 3.53125 0.0625 C 4.21875 0.0625 4.53125 -0.875 4.53125 -0.984375 C 4.53125 -1.078125 4.4375 -1.078125 4.40625 -1.078125 C 4.3125 -1.078125 4.3125 -1.03125 4.28125 -0.953125 C 4.125 -0.40625 3.828125 -0.125 3.546875 -0.125 C 3.40625 -0.125 3.375 -0.21875 3.375 -0.359375 C 3.375 -0.515625 3.421875 -0.609375 3.546875 -0.921875 C 3.625 -1.140625 3.90625 -1.859375 3.90625 -2.25 C 3.90625 -2.921875 3.375 -3.03125 3.015625 -3.03125 C 2.4375 -3.03125 2.0625 -2.6875 1.84375 -2.40625 C 1.796875 -2.875 1.390625 -3.03125 1.109375 -3.03125 C 0.8125 -3.03125 0.65625 -2.8125 0.578125 -2.65625 C 0.421875 -2.40625 0.328125 -2.015625 0.328125 -1.984375 C 0.328125 -1.890625 0.421875 -1.890625 0.4375 -1.890625 C 0.53125 -1.890625 0.546875 -1.90625 0.59375 -2.09375 C 0.6875 -2.5 0.828125 -2.84375 1.09375 -2.84375 C 1.265625 -2.84375 1.3125 -2.6875 1.3125 -2.5 C 1.3125 -2.375 1.265625 -2.125 1.203125 -1.9375 C 1.15625 -1.75 1.09375 -1.46875 1.0625 -1.3125 Z M 0.84375 -0.4375 "/></g><g id="b52ddbb656d8b0098040711abab53c3b6whf1m2v__glyph-2-1"><path d="M 2.15625 -4.5625 C 2.15625 -4.578125 2.171875 -4.671875 2.171875 -4.671875 C 2.171875 -4.703125 2.15625 -4.765625 2.0625 -4.765625 C 1.9375 -4.765625 1.359375 -4.71875 1.1875 -4.703125 C 1.140625 -4.703125 1.03125 -4.6875 1.03125 -4.546875 C 1.03125 -4.453125 1.140625 -4.453125 1.21875 -4.453125 C 1.546875 -4.453125 1.546875 -4.40625 1.546875 -4.34375 C 1.546875 -4.296875 1.53125 -4.25 1.515625 -4.1875 L 0.546875 -0.296875 C 0.515625 -0.171875 0.515625 -0.171875 0.515625 -0.15625 C 0.515625 -0.046875 0.59375 0.0625 0.75 0.0625 C 0.9375 0.0625 1.03125 -0.0625 1.0625 -0.21875 C 1.078125 -0.25 1.375 -1.453125 1.40625 -1.546875 C 1.890625 -1.5 2.28125 -1.34375 2.28125 -0.984375 C 2.28125 -0.953125 2.28125 -0.921875 2.265625 -0.859375 C 2.234375 -0.75 2.234375 -0.71875 2.234375 -0.640625 C 2.234375 -0.15625 2.640625 0.0625 2.96875 0.0625 C 3.640625 0.0625 3.84375 -0.96875 3.84375 -0.984375 C 3.84375 -1.078125 3.75 -1.078125 3.734375 -1.078125 C 3.640625 -1.078125 3.625 -1.03125 3.59375 -0.90625 C 3.515625 -0.609375 3.328125 -0.125 2.984375 -0.125 C 2.8125 -0.125 2.75 -0.296875 2.75 -0.484375 C 2.75 -0.59375 2.75 -0.609375 2.796875 -0.796875 C 2.796875 -0.8125 2.828125 -0.921875 2.828125 -1 C 2.828125 -1.609375 2 -1.71875 1.71875 -1.734375 C 1.90625 -1.859375 2.171875 -2.078125 2.28125 -2.1875 C 2.640625 -2.515625 2.984375 -2.84375 3.359375 -2.84375 C 3.4375 -2.84375 3.53125 -2.8125 3.59375 -2.75 C 3.296875 -2.703125 3.234375 -2.46875 3.234375 -2.359375 C 3.234375 -2.21875 3.34375 -2.109375 3.5 -2.109375 C 3.6875 -2.109375 3.890625 -2.265625 3.890625 -2.546875 C 3.890625 -2.78125 3.734375 -3.03125 3.375 -3.03125 C 2.984375 -3.03125 2.625 -2.75 2.265625 -2.421875 C 1.984375 -2.15625 1.75 -1.9375 1.46875 -1.828125 Z M 2.15625 -4.5625 "/></g><g id="b52ddbb656d8b0098040711abab53c3b6whf1m2v__glyph-3-0"><path d="M 3.25 2.359375 C 3.25 2.328125 3.25 2.3125 3.078125 2.140625 C 1.859375 0.90625 1.546875 -0.953125 1.546875 -2.453125 C 1.546875 -4.15625 1.90625 -5.875 3.125 -7.09375 C 3.25 -7.21875 3.25 -7.234375 3.25 -7.265625 C 3.25 -7.328125 3.203125 -7.359375 3.15625 -7.359375 C 3.046875 -7.359375 2.171875 -6.6875 1.59375 -5.453125 C 1.09375 -4.359375 0.96875 -3.28125 0.96875 -2.453125 C 0.96875 -1.6875 1.078125 -0.5 1.625 0.609375 C 2.203125 1.8125 3.046875 2.453125 3.15625 2.453125 C 3.203125 2.453125 3.25 2.421875 3.25 2.359375 Z M 3.25 2.359375 "/></g><g id="b52ddbb656d8b0098040711abab53c3b6whf1m2v__glyph-3-1"><path d="M 2.828125 -2.453125 C 2.828125 -3.21875 2.734375 -4.40625 2.1875 -5.515625 C 1.59375 -6.71875 0.75 -7.359375 0.65625 -7.359375 C 0.59375 -7.359375 0.5625 -7.3125 0.5625 -7.265625 C 0.5625 -7.234375 0.5625 -7.21875 0.75 -7.03125 C 1.703125 -6.0625 2.265625 -4.5 2.265625 -2.453125 C 2.265625 -0.78125 1.90625 0.953125 0.6875 2.1875 C 0.5625 2.3125 0.5625 2.328125 0.5625 2.359375 C 0.5625 2.40625 0.59375 2.453125 0.65625 2.453125 C 0.75 2.453125 1.640625 1.78125 2.21875 0.546875 C 2.71875 -0.546875 2.828125 -1.625 2.828125 -2.453125 Z M 2.828125 -2.453125 "/></g><g id="b52ddbb656d8b0098040711abab53c3b6whf1m2v__glyph-4-0"><path d="M 5.109375 -1.546875 C 5.21875 -1.546875 5.390625 -1.546875 5.390625 -1.71875 C 5.390625 -1.890625 5.234375 -1.890625 5.109375 -1.890625 L 1.015625 -1.890625 C 0.90625 -1.890625 0.75 -1.890625 0.75 -1.71875 C 0.75 -1.546875 0.90625 -1.546875 1.015625 -1.546875 Z M 5.109375 -1.546875 "/></g></g></defs><g fill="rgb(0%, 0%, 0%)" fill-opacity="1"><use xlink:href="#b52ddbb656d8b0098040711abab53c3b6whf1m2v__glyph-0-0" x="38.773854" y="11.84419"/></g><g fill="rgb(0%, 0%, 0%)" fill-opacity="1"><use xlink:href="#b52ddbb656d8b0098040711abab53c3b6whf1m2v__glyph-1-0" x="47.72667" y="8.284138"/></g><g fill="rgb(0%, 0%, 0%)" fill-opacity="1"><use xlink:href="#b52ddbb656d8b0098040711abab53c3b6whf1m2v__glyph-2-0" x="46.928982" y="14.2796"/></g><g fill="rgb(0%, 0%, 0%)" fill-opacity="1"><use xlink:href="#b52ddbb656d8b0098040711abab53c3b6whf1m2v__glyph-1-1" x="51.779022" y="14.2796"/><use xlink:href="#b52ddbb656d8b0098040711abab53c3b6whf1m2v__glyph-1-2" x="57.802081" y="14.2796"/></g><g fill="rgb(0%, 0%, 0%)" fill-opacity="1"><use xlink:href="#b52ddbb656d8b0098040711abab53c3b6whf1m2v__glyph-3-0" x="62.20323" y="11.84419"/></g><g fill="rgb(0%, 0%, 0%)" fill-opacity="1"><use xlink:href="#b52ddbb656d8b0098040711abab53c3b6whf1m2v__glyph-0-1" x="66.018794" y="11.84419"/></g><g fill="rgb(0%, 0%, 0%)" fill-opacity="1"><use xlink:href="#b52ddbb656d8b0098040711abab53c3b6whf1m2v__glyph-2-1" x="74.14787" y="13.316466"/></g><g fill="rgb(0%, 0%, 0%)" fill-opacity="1"><use xlink:href="#b52ddbb656d8b0098040711abab53c3b6whf1m2v__glyph-0-2" x="78.974374" y="11.84419"/></g><g fill="rgb(0%, 0%, 0%)" fill-opacity="1"><use xlink:href="#b52ddbb656d8b0098040711abab53c3b6whf1m2v__glyph-0-1" x="83.338382" y="11.84419"/></g><g fill="rgb(0%, 0%, 0%)" fill-opacity="1"><use xlink:href="#b52ddbb656d8b0098040711abab53c3b6whf1m2v__glyph-2-1" x="91.463608" y="13.316466"/></g><g fill="rgb(0%, 0%, 0%)" fill-opacity="1"><use xlink:href="#b52ddbb656d8b0098040711abab53c3b6whf1m2v__glyph-4-0" x="95.799249" y="13.316466"/></g><g fill="rgb(0%, 0%, 0%)" fill-opacity="1"><use xlink:href="#b52ddbb656d8b0098040711abab53c3b6whf1m2v__glyph-1-2" x="101.931506" y="13.316466"/></g><g fill="rgb(0%, 0%, 0%)" fill-opacity="1"><use xlink:href="#b52ddbb656d8b0098040711abab53c3b6whf1m2v__glyph-3-1" x="106.334088" y="11.84419"/></g><g fill="rgb(0%, 0%, 0%)" fill-opacity="1"><use xlink:href="#b52ddbb656d8b0098040711abab53c3b6whf1m2v__glyph-0-0" x="142.14437" y="11.84419"/></g><g fill="rgb(0%, 0%, 0%)" fill-opacity="1"><use xlink:href="#b52ddbb656d8b0098040711abab53c3b6whf1m2v__glyph-1-0" x="151.097187" y="8.284138"/></g><g fill="rgb(0%, 0%, 0%)" fill-opacity="1"><use xlink:href="#b52ddbb656d8b0098040711abab53c3b6whf1m2v__glyph-2-0" x="150.300484" y="14.269752"/></g><g fill="rgb(0%, 0%, 0%)" fill-opacity="1"><use xlink:href="#b52ddbb656d8b0098040711abab53c3b6whf1m2v__glyph-3-0" x="158.033134" y="11.84419"/></g><g fill="rgb(0%, 0%, 0%)" fill-opacity="1"><use xlink:href="#b52ddbb656d8b0098040711abab53c3b6whf1m2v__glyph-0-1" x="161.848697" y="11.84419"/></g><g fill="rgb(0%, 0%, 0%)" fill-opacity="1"><use xlink:href="#b52ddbb656d8b0098040711abab53c3b6whf1m2v__glyph-2-1" x="169.976788" y="13.316466"/></g><g fill="rgb(0%, 0%, 0%)" fill-opacity="1"><use xlink:href="#b52ddbb656d8b0098040711abab53c3b6whf1m2v__glyph-4-0" x="174.312429" y="13.316466"/></g><g fill="rgb(0%, 0%, 0%)" fill-opacity="1"><use xlink:href="#b52ddbb656d8b0098040711abab53c3b6whf1m2v__glyph-1-2" x="180.444686" y="13.316466"/></g><g fill="rgb(0%, 0%, 0%)" fill-opacity="1"><use xlink:href="#b52ddbb656d8b0098040711abab53c3b6whf1m2v__glyph-3-1" x="184.847268" y="11.84419"/></g><g fill="rgb(0%, 0%, 0%)" fill-opacity="1"><use xlink:href="#b52ddbb656d8b0098040711abab53c3b6whf1m2v__glyph-0-0" x="220.658535" y="11.84419"/></g><g fill="rgb(0%, 0%, 0%)" fill-opacity="1"><use xlink:href="#b52ddbb656d8b0098040711abab53c3b6whf1m2v__glyph-1-0" x="229.610367" y="8.284138"/></g><g fill="rgb(0%, 0%, 0%)" fill-opacity="1"><use xlink:href="#b52ddbb656d8b0098040711abab53c3b6whf1m2v__glyph-2-0" x="228.813664" y="14.269752"/></g><g fill="rgb(0%, 0%, 0%)" fill-opacity="1"><use xlink:href="#b52ddbb656d8b0098040711abab53c3b6whf1m2v__glyph-3-0" x="236.546314" y="11.84419"/></g><g fill="rgb(0%, 0%, 0%)" fill-opacity="1"><use xlink:href="#b52ddbb656d8b0098040711abab53c3b6whf1m2v__glyph-0-1" x="240.361877" y="11.84419"/></g><g fill="rgb(0%, 0%, 0%)" fill-opacity="1"><use xlink:href="#b52ddbb656d8b0098040711abab53c3b6whf1m2v__glyph-2-1" x="248.490953" y="13.316466"/></g><g fill="rgb(0%, 0%, 0%)" fill-opacity="1"><use xlink:href="#b52ddbb656d8b0098040711abab53c3b6whf1m2v__glyph-3-1" x="253.317458" y="11.84419"/></g><g fill="rgb(0%, 0%, 0%)" fill-opacity="1"><use xlink:href="#b52ddbb656d8b0098040711abab53c3b6whf1m2v__glyph-0-0" x="289.128725" y="11.84419"/></g><g fill="rgb(0%, 0%, 0%)" fill-opacity="1"><use xlink:href="#b52ddbb656d8b0098040711abab53c3b6whf1m2v__glyph-1-0" x="298.081542" y="8.284138"/></g><g fill="rgb(0%, 0%, 0%)" fill-opacity="1"><use xlink:href="#b52ddbb656d8b0098040711abab53c3b6whf1m2v__glyph-2-0" x="297.283854" y="14.269752"/></g><g fill="rgb(0%, 0%, 0%)" fill-opacity="1"><use xlink:href="#b52ddbb656d8b0098040711abab53c3b6whf1m2v__glyph-3-0" x="305.017488" y="11.84419"/></g><g fill="rgb(0%, 0%, 0%)" fill-opacity="1"><use xlink:href="#b52ddbb656d8b0098040711abab53c3b6whf1m2v__glyph-0-1" x="308.833051" y="11.84419"/></g><g fill="rgb(0%, 0%, 0%)" fill-opacity="1"><use xlink:href="#b52ddbb656d8b0098040711abab53c3b6whf1m2v__glyph-2-1" x="316.961142" y="13.316466"/></g><g fill="rgb(0%, 0%, 0%)" fill-opacity="1"><use xlink:href="#b52ddbb656d8b0098040711abab53c3b6whf1m2v__glyph-0-2" x="321.788632" y="11.84419"/></g><g fill="rgb(0%, 0%, 0%)" fill-opacity="1"><use xlink:href="#b52ddbb656d8b0098040711abab53c3b6whf1m2v__glyph-0-1" x="326.15264" y="11.84419"/></g><g fill="rgb(0%, 0%, 0%)" fill-opacity="1"><use xlink:href="#b52ddbb656d8b0098040711abab53c3b6whf1m2v__glyph-2-1" x="334.276881" y="13.316466"/></g><g fill="rgb(0%, 0%, 0%)" fill-opacity="1"><use xlink:href="#b52ddbb656d8b0098040711abab53c3b6whf1m2v__glyph-4-0" x="338.612522" y="13.316466"/></g><g fill="rgb(0%, 0%, 0%)" fill-opacity="1"><use xlink:href="#b52ddbb656d8b0098040711abab53c3b6whf1m2v__glyph-1-2" x="344.744779" y="13.316466"/></g><g fill="rgb(0%, 0%, 0%)" fill-opacity="1"><use xlink:href="#b52ddbb656d8b0098040711abab53c3b6whf1m2v__glyph-3-1" x="349.147361" y="11.84419"/></g><g fill="rgb(0%, 0%, 0%)" fill-opacity="1"><use xlink:href="#b52ddbb656d8b0098040711abab53c3b6whf1m2v__glyph-0-0" x="384.958628" y="11.84419"/></g><g fill="rgb(0%, 0%, 0%)" fill-opacity="1"><use xlink:href="#b52ddbb656d8b0098040711abab53c3b6whf1m2v__glyph-1-0" x="393.911445" y="8.284138"/></g><g fill="rgb(0%, 0%, 0%)" fill-opacity="1"><use xlink:href="#b52ddbb656d8b0098040711abab53c3b6whf1m2v__glyph-2-0" x="393.113757" y="14.2796"/></g><g fill="rgb(0%, 0%, 0%)" fill-opacity="1"><use xlink:href="#b52ddbb656d8b0098040711abab53c3b6whf1m2v__glyph-4-0" x="397.963796" y="14.2796"/></g><g fill="rgb(0%, 0%, 0%)" fill-opacity="1"><use xlink:href="#b52ddbb656d8b0098040711abab53c3b6whf1m2v__glyph-1-2" x="404.096053" y="14.2796"/></g><g fill="rgb(0%, 0%, 0%)" fill-opacity="1"><use xlink:href="#b52ddbb656d8b0098040711abab53c3b6whf1m2v__glyph-3-0" x="408.497318" y="11.84419"/></g><g fill="rgb(0%, 0%, 0%)" fill-opacity="1"><use xlink:href="#b52ddbb656d8b0098040711abab53c3b6whf1m2v__glyph-0-1" x="412.312881" y="11.84419"/></g><g fill="rgb(0%, 0%, 0%)" fill-opacity="1"><use xlink:href="#b52ddbb656d8b0098040711abab53c3b6whf1m2v__glyph-2-1" x="420.440972" y="13.316466"/></g><g fill="rgb(0%, 0%, 0%)" fill-opacity="1"><use xlink:href="#b52ddbb656d8b0098040711abab53c3b6whf1m2v__glyph-4-0" x="424.776613" y="13.316466"/></g><g fill="rgb(0%, 0%, 0%)" fill-opacity="1"><use xlink:href="#b52ddbb656d8b0098040711abab53c3b6whf1m2v__glyph-1-2" x="430.90887" y="13.316466"/></g><g fill="rgb(0%, 0%, 0%)" fill-opacity="1"><use xlink:href="#b52ddbb656d8b0098040711abab53c3b6whf1m2v__glyph-3-1" x="435.311452" y="11.84419"/></g><g fill="rgb(0%, 0%, 0%)" fill-opacity="1"><use xlink:href="#b52ddbb656d8b0098040711abab53c3b6whf1m2v__glyph-0-0" x="38.773854" y="47.29699"/></g><g fill="rgb(0%, 0%, 0%)" fill-opacity="1"><use xlink:href="#b52ddbb656d8b0098040711abab53c3b6whf1m2v__glyph-2-0" x="46.928982" y="48.769266"/></g><g fill="rgb(0%, 0%, 0%)" fill-opacity="1"><use xlink:href="#b52ddbb656d8b0098040711abab53c3b6whf1m2v__glyph-1-1" x="51.779022" y="48.769266"/><use xlink:href="#b52ddbb656d8b0098040711abab53c3b6whf1m2v__glyph-1-2" x="57.802081" y="48.769266"/></g><g fill="rgb(0%, 0%, 0%)" fill-opacity="1"><use xlink:href="#b52ddbb656d8b0098040711abab53c3b6whf1m2v__glyph-3-0" x="62.20323" y="47.29699"/></g><g fill="rgb(0%, 0%, 0%)" fill-opacity="1"><use xlink:href="#b52ddbb656d8b0098040711abab53c3b6whf1m2v__glyph-0-1" x="66.018794" y="47.29699"/></g><g fill="rgb(0%, 0%, 0%)" fill-opacity="1"><use xlink:href="#b52ddbb656d8b0098040711abab53c3b6whf1m2v__glyph-2-1" x="74.14787" y="48.769266"/></g><g fill="rgb(0%, 0%, 0%)" fill-opacity="1"><use xlink:href="#b52ddbb656d8b0098040711abab53c3b6whf1m2v__glyph-0-2" x="78.974374" y="47.29699"/></g><g fill="rgb(0%, 0%, 0%)" fill-opacity="1"><use xlink:href="#b52ddbb656d8b0098040711abab53c3b6whf1m2v__glyph-0-1" x="83.338382" y="47.29699"/></g><g fill="rgb(0%, 0%, 0%)" fill-opacity="1"><use xlink:href="#b52ddbb656d8b0098040711abab53c3b6whf1m2v__glyph-2-1" x="91.463608" y="48.769266"/></g><g fill="rgb(0%, 0%, 0%)" fill-opacity="1"><use xlink:href="#b52ddbb656d8b0098040711abab53c3b6whf1m2v__glyph-4-0" x="95.799249" y="48.769266"/></g><g fill="rgb(0%, 0%, 0%)" fill-opacity="1"><use xlink:href="#b52ddbb656d8b0098040711abab53c3b6whf1m2v__glyph-1-2" x="101.931506" y="48.769266"/></g><g fill="rgb(0%, 0%, 0%)" fill-opacity="1"><use xlink:href="#b52ddbb656d8b0098040711abab53c3b6whf1m2v__glyph-3-1" x="106.334088" y="47.29699"/></g><g fill="rgb(0%, 0%, 0%)" fill-opacity="1"><use xlink:href="#b52ddbb656d8b0098040711abab53c3b6whf1m2v__glyph-0-0" x="143.340902" y="47.29699"/></g><g fill="rgb(0%, 0%, 0%)" fill-opacity="1"><use xlink:href="#b52ddbb656d8b0098040711abab53c3b6whf1m2v__glyph-2-0" x="151.496031" y="48.769266"/></g><g fill="rgb(0%, 0%, 0%)" fill-opacity="1"><use xlink:href="#b52ddbb656d8b0098040711abab53c3b6whf1m2v__glyph-3-0" x="156.836602" y="47.29699"/></g><g fill="rgb(0%, 0%, 0%)" fill-opacity="1"><use xlink:href="#b52ddbb656d8b0098040711abab53c3b6whf1m2v__glyph-0-1" x="160.652165" y="47.29699"/></g><g fill="rgb(0%, 0%, 0%)" fill-opacity="1"><use xlink:href="#b52ddbb656d8b0098040711abab53c3b6whf1m2v__glyph-2-1" x="168.781241" y="48.769266"/></g><g fill="rgb(0%, 0%, 0%)" fill-opacity="1"><use xlink:href="#b52ddbb656d8b0098040711abab53c3b6whf1m2v__glyph-4-0" x="173.116882" y="48.769266"/></g><g fill="rgb(0%, 0%, 0%)" fill-opacity="1"><use xlink:href="#b52ddbb656d8b0098040711abab53c3b6whf1m2v__glyph-1-2" x="179.249139" y="48.769266"/></g><g fill="rgb(0%, 0%, 0%)" fill-opacity="1"><use xlink:href="#b52ddbb656d8b0098040711abab53c3b6whf1m2v__glyph-3-1" x="183.650736" y="47.29699"/></g><g fill="rgb(0%, 0%, 0%)" fill-opacity="1"><use xlink:href="#b52ddbb656d8b0098040711abab53c3b6whf1m2v__glyph-0-0" x="221.854082" y="47.29699"/></g><g fill="rgb(0%, 0%, 0%)" fill-opacity="1"><use xlink:href="#b52ddbb656d8b0098040711abab53c3b6whf1m2v__glyph-2-0" x="230.010196" y="48.769266"/></g><g fill="rgb(0%, 0%, 0%)" fill-opacity="1"><use xlink:href="#b52ddbb656d8b0098040711abab53c3b6whf1m2v__glyph-3-0" x="235.350766" y="47.29699"/></g><g fill="rgb(0%, 0%, 0%)" fill-opacity="1"><use xlink:href="#b52ddbb656d8b0098040711abab53c3b6whf1m2v__glyph-0-1" x="239.16633" y="47.29699"/></g><g fill="rgb(0%, 0%, 0%)" fill-opacity="1"><use xlink:href="#b52ddbb656d8b0098040711abab53c3b6whf1m2v__glyph-2-1" x="247.294421" y="48.769266"/></g><g fill="rgb(0%, 0%, 0%)" fill-opacity="1"><use xlink:href="#b52ddbb656d8b0098040711abab53c3b6whf1m2v__glyph-3-1" x="252.12191" y="47.29699"/></g><g fill="rgb(0%, 0%, 0%)" fill-opacity="1"><use xlink:href="#b52ddbb656d8b0098040711abab53c3b6whf1m2v__glyph-0-0" x="290.325257" y="47.29699"/></g><g fill="rgb(0%, 0%, 0%)" fill-opacity="1"><use xlink:href="#b52ddbb656d8b0098040711abab53c3b6whf1m2v__glyph-2-0" x="298.480386" y="48.769266"/></g><g fill="rgb(0%, 0%, 0%)" fill-opacity="1"><use xlink:href="#b52ddbb656d8b0098040711abab53c3b6whf1m2v__glyph-3-0" x="303.820956" y="47.29699"/></g><g fill="rgb(0%, 0%, 0%)" fill-opacity="1"><use xlink:href="#b52ddbb656d8b0098040711abab53c3b6whf1m2v__glyph-0-1" x="307.636519" y="47.29699"/></g><g fill="rgb(0%, 0%, 0%)" fill-opacity="1"><use xlink:href="#b52ddbb656d8b0098040711abab53c3b6whf1m2v__glyph-2-1" x="315.76461" y="48.769266"/></g><g fill="rgb(0%, 0%, 0%)" fill-opacity="1"><use xlink:href="#b52ddbb656d8b0098040711abab53c3b6whf1m2v__glyph-0-2" x="320.5921" y="47.29699"/></g><g fill="rgb(0%, 0%, 0%)" fill-opacity="1"><use xlink:href="#b52ddbb656d8b0098040711abab53c3b6whf1m2v__glyph-0-1" x="324.956108" y="47.29699"/></g><g fill="rgb(0%, 0%, 0%)" fill-opacity="1"><use xlink:href="#b52ddbb656d8b0098040711abab53c3b6whf1m2v__glyph-2-1" x="333.081334" y="48.769266"/></g><g fill="rgb(0%, 0%, 0%)" fill-opacity="1"><use xlink:href="#b52ddbb656d8b0098040711abab53c3b6whf1m2v__glyph-4-0" x="337.416975" y="48.769266"/></g><g fill="rgb(0%, 0%, 0%)" fill-opacity="1"><use xlink:href="#b52ddbb656d8b0098040711abab53c3b6whf1m2v__glyph-1-2" x="343.549232" y="48.769266"/></g><g fill="rgb(0%, 0%, 0%)" fill-opacity="1"><use xlink:href="#b52ddbb656d8b0098040711abab53c3b6whf1m2v__glyph-3-1" x="347.950829" y="47.29699"/></g><g fill="rgb(0%, 0%, 0%)" fill-opacity="1"><use xlink:href="#b52ddbb656d8b0098040711abab53c3b6whf1m2v__glyph-0-0" x="384.958628" y="47.29699"/></g><g fill="rgb(0%, 0%, 0%)" fill-opacity="1"><use xlink:href="#b52ddbb656d8b0098040711abab53c3b6whf1m2v__glyph-2-0" x="393.113757" y="48.769266"/></g><g fill="rgb(0%, 0%, 0%)" fill-opacity="1"><use xlink:href="#b52ddbb656d8b0098040711abab53c3b6whf1m2v__glyph-4-0" x="397.963796" y="48.769266"/></g><g fill="rgb(0%, 0%, 0%)" fill-opacity="1"><use xlink:href="#b52ddbb656d8b0098040711abab53c3b6whf1m2v__glyph-1-2" x="404.096053" y="48.769266"/></g><g fill="rgb(0%, 0%, 0%)" fill-opacity="1"><use xlink:href="#b52ddbb656d8b0098040711abab53c3b6whf1m2v__glyph-3-0" x="408.497318" y="47.29699"/></g><g fill="rgb(0%, 0%, 0%)" fill-opacity="1"><use xlink:href="#b52ddbb656d8b0098040711abab53c3b6whf1m2v__glyph-0-1" x="412.312881" y="47.29699"/></g><g fill="rgb(0%, 0%, 0%)" fill-opacity="1"><use xlink:href="#b52ddbb656d8b0098040711abab53c3b6whf1m2v__glyph-2-1" x="420.440972" y="48.769266"/></g><g fill="rgb(0%, 0%, 0%)" fill-opacity="1"><use xlink:href="#b52ddbb656d8b0098040711abab53c3b6whf1m2v__glyph-4-0" x="424.776613" y="48.769266"/></g><g fill="rgb(0%, 0%, 0%)" fill-opacity="1"><use xlink:href="#b52ddbb656d8b0098040711abab53c3b6whf1m2v__glyph-1-2" x="430.90887" y="48.769266"/></g><g fill="rgb(0%, 0%, 0%)" fill-opacity="1"><use xlink:href="#b52ddbb656d8b0098040711abab53c3b6whf1m2v__glyph-3-1" x="435.311452" y="47.29699"/></g><path fill="none" stroke="rgb(0%, 0%, 0%)" stroke-linecap="butt" stroke-linejoin="miter" stroke-miterlimit="10" stroke-opacity="1" stroke-width="0.39848" d="M -126.303619 17.546434 L -103.186616 17.546434 " transform="matrix(0.9848, 0, 0, -0.9848, 238.95021, 26.670354)"/><path fill="none" stroke="rgb(0%, 0%, 0%)" stroke-linecap="round" stroke-linejoin="round" stroke-miterlimit="10" stroke-opacity="1" stroke-width="0.39848" d="M -2.07372 2.392499 C -1.692932 0.956611 -0.848059 0.278332 0.000781363 0.000674403 C -0.848059 -0.276983 -1.692932 -0.955262 -2.07372 -2.39115 " transform="matrix(0.9848, 0, 0, -0.9848, 137.526574, 9.391289)"/><path fill="none" stroke="rgb(0%, 0%, 0%)" stroke-linecap="butt" stroke-linejoin="miter" stroke-miterlimit="10" stroke-opacity="1" stroke-width="0.39848" d="M -46.576136 17.546434 L -23.4631 17.546434 " transform="matrix(0.9848, 0, 0, -0.9848, 238.95021, 26.670354)"/><path fill="none" stroke="rgb(0%, 0%, 0%)" stroke-linecap="round" stroke-linejoin="round" stroke-miterlimit="10" stroke-opacity="1" stroke-width="0.39848" d="M -2.072607 2.392499 C -1.691819 0.956611 -0.850912 0.278332 0.0018941 0.000674403 C -0.850912 -0.276983 -1.691819 -0.955262 -2.072607 -2.39115 " transform="matrix(0.9848, 0, 0, -0.9848, 216.041103, 9.391289)"/><path fill="none" stroke="rgb(0%, 0%, 0%)" stroke-linecap="butt" stroke-linejoin="miter" stroke-miterlimit="10" stroke-opacity="1" stroke-width="0.39848" d="M 22.953368 17.546434 L 46.066405 17.546434 " transform="matrix(0.9848, 0, 0, -0.9848, 238.95021, 26.670354)"/><path fill="none" stroke="rgb(0%, 0%, 0%)" stroke-linecap="round" stroke-linejoin="round" stroke-miterlimit="10" stroke-opacity="1" stroke-width="0.39848" d="M -2.071432 2.392499 C -1.694611 0.956611 -0.849738 0.278332 -0.000897719 0.000674403 C -0.849738 -0.276983 -1.694611 -0.955262 -2.071432 -2.39115 " transform="matrix(0.9848, 0, 0, -0.9848, 284.512603, 9.391289)"/><path fill="none" stroke="rgb(0%, 0%, 0%)" stroke-linecap="butt" stroke-linejoin="miter" stroke-miterlimit="10" stroke-opacity="1" stroke-width="0.39848" d="M 120.264529 17.546434 L 143.377566 17.546434 " transform="matrix(0.9848, 0, 0, -0.9848, 238.95021, 26.670354)"/><path fill="none" stroke="rgb(0%, 0%, 0%)" stroke-linecap="round" stroke-linejoin="round" stroke-miterlimit="10" stroke-opacity="1" stroke-width="0.39848" d="M -2.070261 2.392499 C -1.69344 0.956611 -0.848567 0.278332 0.000273176 0.000674403 C -0.848567 -0.276983 -1.69344 -0.955262 -2.070261 -2.39115 " transform="matrix(0.9848, 0, 0, -0.9848, 380.343481, 9.391289)"/><path fill="none" stroke="rgb(0%, 0%, 0%)" stroke-linecap="butt" stroke-linejoin="miter" stroke-miterlimit="10" stroke-opacity="1" stroke-width="0.39848" d="M -126.303619 -18.453896 L -101.972854 -18.453896 " transform="matrix(0.9848, 0, 0, -0.9848, 238.95021, 26.670354)"/><path fill="none" stroke="rgb(0%, 0%, 0%)" stroke-linecap="round" stroke-linejoin="round" stroke-miterlimit="10" stroke-opacity="1" stroke-width="0.39848" d="M -2.070742 2.392549 C -1.69392 0.956661 -0.849047 0.278382 -0.00020696 0.000724387 C -0.849047 -0.2809 -1.69392 -0.955212 -2.070742 -2.3911 " transform="matrix(0.9848, 0, 0, -0.9848, 138.72286, 44.844463)"/><path fill="none" stroke="rgb(0%, 0%, 0%)" stroke-linecap="butt" stroke-linejoin="miter" stroke-miterlimit="10" stroke-opacity="1" stroke-width="0.39848" d="M -47.789898 -18.453896 L -22.245371 -18.453896 " transform="matrix(0.9848, 0, 0, -0.9848, 238.95021, 26.670354)"/><path fill="none" stroke="rgb(0%, 0%, 0%)" stroke-linecap="round" stroke-linejoin="round" stroke-miterlimit="10" stroke-opacity="1" stroke-width="0.39848" d="M -2.073605 2.392549 C -1.692817 0.956661 -0.851911 0.278382 0.000895778 0.000724387 C -0.851911 -0.2809 -1.692817 -0.955212 -2.073605 -2.3911 " transform="matrix(0.9848, 0, 0, -0.9848, 217.237399, 44.844463)"/><path fill="none" stroke="rgb(0%, 0%, 0%)" stroke-linecap="butt" stroke-linejoin="miter" stroke-miterlimit="10" stroke-opacity="1" stroke-width="0.39848" d="M 21.739607 -18.453896 L 47.280167 -18.453896 " transform="matrix(0.9848, 0, 0, -0.9848, 238.95021, 26.670354)"/><path fill="none" stroke="rgb(0%, 0%, 0%)" stroke-linecap="round" stroke-linejoin="round" stroke-miterlimit="10" stroke-opacity="1" stroke-width="0.39848" d="M -2.072451 2.392549 C -1.691663 0.956661 -0.850756 0.278382 -0.00191604 0.000724387 C -0.850756 -0.2809 -1.691663 -0.955212 -2.072451 -2.3911 " transform="matrix(0.9848, 0, 0, -0.9848, 285.708918, 44.844463)"/><path fill="none" stroke="rgb(0%, 0%, 0%)" stroke-linecap="butt" stroke-linejoin="miter" stroke-miterlimit="10" stroke-opacity="1" stroke-width="0.39848" d="M 119.046801 -18.453896 L 143.377566 -18.453896 " transform="matrix(0.9848, 0, 0, -0.9848, 238.95021, 26.670354)"/><path fill="none" stroke="rgb(0%, 0%, 0%)" stroke-linecap="round" stroke-linejoin="round" stroke-miterlimit="10" stroke-opacity="1" stroke-width="0.39848" d="M -2.070261 2.392549 C -1.69344 0.956661 -0.848567 0.278382 0.000273176 0.000724387 C -0.848567 -0.2809 -1.69344 -0.955212 -2.070261 -2.3911 " transform="matrix(0.9848, 0, 0, -0.9848, 380.343481, 44.844463)"/><path fill="none" stroke="rgb(0%, 0%, 0%)" stroke-linecap="butt" stroke-linejoin="miter" stroke-miterlimit="10" stroke-opacity="1" stroke-width="0.39848" d="M -167.0281 7.907739 L -167.0281 -9.22772 " transform="matrix(0.9848, 0, 0, -0.9848, 238.95021, 26.670354)"/><path fill="none" stroke="rgb(0%, 0%, 0%)" stroke-linecap="round" stroke-linejoin="round" stroke-miterlimit="10" stroke-opacity="1" stroke-width="0.39848" d="M -2.073117 2.389558 C -1.692329 0.957636 -0.851423 0.279358 0.00138386 0.00169998 C -0.851423 -0.279924 -1.692329 -0.958203 -2.073117 -2.390125 " transform="matrix(0, 0.9848, 0.9848, 0, 74.459263, 35.955668)"/><path fill="none" stroke="rgb(0%, 0%, 0%)" stroke-linecap="butt" stroke-linejoin="miter" stroke-miterlimit="10" stroke-opacity="1" stroke-width="0.39848" d="M -74.683049 8.72088 L -74.683049 -9.22772 " transform="matrix(0.9848, 0, 0, -0.9848, 238.95021, 26.670354)"/><path fill="none" stroke="rgb(0%, 0%, 0%)" stroke-linecap="round" stroke-linejoin="round" stroke-miterlimit="10" stroke-opacity="1" stroke-width="0.39848" d="M -2.073117 2.391485 C -1.692329 0.955597 -0.851423 0.277319 0.00138386 -0.000338995 C -0.851423 -0.277997 -1.692329 -0.956275 -2.073117 -2.392163 " transform="matrix(0, 0.9848, 0.9848, 0, 165.402678, 35.955668)"/><path fill="none" stroke="rgb(0%, 0%, 0%)" stroke-linecap="butt" stroke-linejoin="miter" stroke-miterlimit="10" stroke-opacity="1" stroke-width="0.39848" d="M -0.0565385 8.72088 L -0.0565385 -9.22772 " transform="matrix(0.9848, 0, 0, -0.9848, 238.95021, 26.670354)"/><path fill="none" stroke="rgb(0%, 0%, 0%)" stroke-linecap="round" stroke-linejoin="round" stroke-miterlimit="10" stroke-opacity="1" stroke-width="0.39848" d="M -2.073117 2.390626 C -1.692329 0.954738 -0.851423 0.280426 0.00138386 -0.00119854 C -0.851423 -0.278856 -1.692329 -0.957135 -2.073117 -2.389056 " transform="matrix(0, 0.9848, 0.9848, 0, 238.895712, 35.955668)"/><path fill="none" stroke="rgb(0%, 0%, 0%)" stroke-linecap="butt" stroke-linejoin="miter" stroke-miterlimit="10" stroke-opacity="1" stroke-width="0.39848" d="M 83.363794 8.72088 L 83.363794 -9.22772 " transform="matrix(0.9848, 0, 0, -0.9848, 238.95021, 26.670354)"/><path fill="none" stroke="rgb(0%, 0%, 0%)" stroke-linecap="round" stroke-linejoin="round" stroke-miterlimit="10" stroke-opacity="1" stroke-width="0.39848" d="M -2.073117 2.391799 C -1.692329 0.955911 -0.851423 0.277632 0.00138386 -0.0000257271 C -0.851423 -0.277684 -1.692329 -0.955962 -2.073117 -2.39185 " transform="matrix(0, 0.9848, 0.9848, 0, 321.0469, 35.955668)"/><path fill="none" stroke="rgb(0%, 0%, 0%)" stroke-linecap="butt" stroke-linejoin="miter" stroke-miterlimit="10" stroke-opacity="1" stroke-width="0.39848" d="M 175.764377 7.907739 L 175.764377 -9.22772 " transform="matrix(0.9848, 0, 0, -0.9848, 238.95021, 26.670354)"/><path fill="none" stroke="rgb(0%, 0%, 0%)" stroke-linecap="round" stroke-linejoin="round" stroke-miterlimit="10" stroke-opacity="1" stroke-width="0.39848" d="M -2.073117 2.389951 C -1.692329 0.95803 -0.851423 0.279751 0.00138386 -0.00187312 C -0.851423 -0.279531 -1.692329 -0.95781 -2.073117 -2.389731 " transform="matrix(0, 0.9848, 0.9848, 0, 412.044813, 35.955668)"/></svg>