<?xml version="1.0" encoding="UTF-8"?><svg xmlns="http://www.w3.org/2000/svg" xmlns:xlink="http://www.w3.org/1999/xlink" width="343.711" height="65.816" viewBox="0 0 343.711 65.816"><defs><g><g id="8746bc94f5373bb364fc0bc2385751b6voehxsrm__glyph-0-0"><path d="M 2.40625 1.75 C 2.40625 1.71875 2.40625 1.703125 2.28125 1.578125 C 1.375 0.671875 1.140625 -0.703125 1.140625 -1.8125 C 1.140625 -3.078125 1.421875 -4.34375 2.3125 -5.25 C 2.40625 -5.34375 2.40625 -5.359375 2.40625 -5.375 C 2.40625 -5.421875 2.375 -5.453125 2.328125 -5.453125 C 2.265625 -5.453125 1.609375 -4.953125 1.171875 -4.03125 C 0.8125 -3.234375 0.71875 -2.421875 0.71875 -1.8125 C 0.71875 -1.25 0.796875 -0.375 1.203125 0.453125 C 1.640625 1.34375 2.265625 1.8125 2.328125 1.8125 C 2.375 1.8125 2.40625 1.796875 2.40625 1.75 Z M 2.40625 1.75 "/></g><g id="8746bc94f5373bb364fc0bc2385751b6voehxsrm__glyph-0-1"><path d="M 2.09375 -1.8125 C 2.09375 -2.390625 2.015625 -3.265625 1.625 -4.078125 C 1.1875 -4.984375 0.5625 -5.453125 0.484375 -5.453125 C 0.4375 -5.453125 0.421875 -5.421875 0.421875 -5.375 C 0.421875 -5.359375 0.421875 -5.34375 0.546875 -5.203125 C 1.265625 -4.484375 1.671875 -3.328125 1.671875 -1.8125 C 1.671875 -0.578125 1.40625 0.703125 0.515625 1.625 C 0.421875 1.703125 0.421875 1.71875 0.421875 1.75 C 0.421875 1.78125 0.4375 1.8125 0.484375 1.8125 C 0.5625 1.8125 1.21875 1.328125 1.640625 0.40625 C 2.015625 -0.40625 2.09375 -1.203125 2.09375 -1.8125 Z M 2.09375 -1.8125 "/></g><g id="8746bc94f5373bb364fc0bc2385751b6voehxsrm__glyph-1-0"><path d="M 4.78125 -1.671875 C 4.90625 -1.671875 5.046875 -1.671875 5.046875 -1.8125 C 5.046875 -1.96875 4.90625 -1.96875 4.78125 -1.96875 L 0.859375 -1.96875 C 0.734375 -1.96875 0.609375 -1.96875 0.609375 -1.8125 C 0.609375 -1.671875 0.734375 -1.671875 0.859375 -1.671875 Z M 4.78125 -1.671875 "/></g><g id="8746bc94f5373bb364fc0bc2385751b6voehxsrm__glyph-1-1"><path d="M 5.25 -1.8125 C 5.25 -3.15625 4.15625 -4.234375 2.828125 -4.234375 C 1.46875 -4.234375 0.40625 -3.140625 0.40625 -1.8125 C 0.40625 -0.484375 1.484375 0.609375 2.8125 0.609375 C 4.171875 0.609375 5.25 -0.5 5.25 -1.8125 Z M 1.375 -3.375 C 1.359375 -3.390625 1.3125 -3.4375 1.3125 -3.453125 C 1.3125 -3.484375 1.90625 -4.046875 2.8125 -4.046875 C 3.078125 -4.046875 3.734375 -4.015625 4.34375 -3.453125 L 2.828125 -1.9375 Z M 1.171875 -0.296875 C 0.71875 -0.796875 0.578125 -1.34375 0.578125 -1.8125 C 0.578125 -2.375 0.796875 -2.90625 1.171875 -3.328125 L 2.6875 -1.8125 Z M 4.46875 -3.328125 C 4.8125 -2.96875 5.0625 -2.40625 5.0625 -1.8125 C 5.0625 -1.25 4.859375 -0.71875 4.46875 -0.296875 L 2.953125 -1.8125 Z M 4.265625 -0.25 C 4.28125 -0.234375 4.328125 -0.1875 4.328125 -0.171875 C 4.328125 -0.140625 3.734375 0.421875 2.828125 0.421875 C 2.578125 0.421875 1.90625 0.390625 1.3125 -0.171875 L 2.8125 -1.6875 Z M 4.265625 -0.25 "/></g><g id="8746bc94f5373bb364fc0bc2385751b6voehxsrm__glyph-2-0"><path d="M 3.53125 -2.984375 L 2.90625 -4.4375 C 2.890625 -4.484375 2.875 -4.515625 2.875 -4.53125 C 2.875 -4.5625 3 -4.703125 3.3125 -4.734375 C 3.375 -4.75 3.453125 -4.75 3.453125 -4.875 C 3.453125 -4.96875 3.359375 -4.96875 3.34375 -4.96875 C 3.046875 -4.96875 2.734375 -4.9375 2.421875 -4.9375 C 2.25 -4.9375 1.796875 -4.96875 1.609375 -4.96875 C 1.5625 -4.96875 1.484375 -4.96875 1.484375 -4.8125 C 1.484375 -4.734375 1.5625 -4.734375 1.65625 -4.734375 C 2.078125 -4.734375 2.125 -4.671875 2.1875 -4.5 L 3.046875 -2.484375 L 1.515625 -0.828125 L 1.421875 -0.75 C 1.0625 -0.359375 0.71875 -0.25 0.359375 -0.21875 C 0.265625 -0.21875 0.203125 -0.21875 0.203125 -0.078125 C 0.203125 -0.078125 0.203125 0 0.296875 0 C 0.515625 0 0.75 -0.015625 0.96875 -0.015625 C 1.25 -0.015625 1.53125 0 1.78125 0 C 1.828125 0 1.921875 0 1.921875 -0.140625 C 1.921875 -0.21875 1.84375 -0.21875 1.828125 -0.21875 C 1.765625 -0.234375 1.546875 -0.25 1.546875 -0.453125 C 1.546875 -0.5625 1.65625 -0.6875 1.734375 -0.78125 L 2.484375 -1.5625 L 3.125 -2.28125 L 3.859375 -0.53125 C 3.890625 -0.453125 3.90625 -0.453125 3.90625 -0.4375 C 3.90625 -0.375 3.765625 -0.25 3.484375 -0.21875 C 3.40625 -0.21875 3.328125 -0.203125 3.328125 -0.09375 C 3.328125 0 3.421875 0 3.4375 0 C 3.640625 0 4.15625 -0.015625 4.359375 -0.015625 C 4.546875 -0.015625 4.984375 0 5.171875 0 C 5.21875 0 5.296875 0 5.296875 -0.140625 C 5.296875 -0.21875 5.234375 -0.21875 5.171875 -0.21875 C 4.6875 -0.234375 4.671875 -0.25 4.546875 -0.546875 C 4.265625 -1.21875 3.78125 -2.359375 3.609375 -2.796875 C 4.109375 -3.296875 4.875 -4.15625 5.09375 -4.359375 C 5.3125 -4.546875 5.59375 -4.71875 6.015625 -4.734375 C 6.125 -4.75 6.1875 -4.75 6.1875 -4.875 C 6.1875 -4.890625 6.1875 -4.96875 6.09375 -4.96875 C 5.875 -4.96875 5.625 -4.9375 5.40625 -4.9375 C 5.140625 -4.9375 4.859375 -4.96875 4.59375 -4.96875 C 4.5625 -4.96875 4.46875 -4.96875 4.46875 -4.8125 C 4.46875 -4.765625 4.5 -4.75 4.546875 -4.734375 C 4.609375 -4.734375 4.84375 -4.71875 4.84375 -4.515625 C 4.84375 -4.40625 4.765625 -4.3125 4.703125 -4.25 Z M 3.53125 -2.984375 "/></g><g id="8746bc94f5373bb364fc0bc2385751b6voehxsrm__glyph-2-1"><path d="M 1.125 -2.21875 C 0.328125 -1.703125 0.171875 -1.015625 0.171875 -0.75 C 0.171875 -0.40625 0.359375 -0.203125 0.375 -0.1875 C 0.609375 0.0625 0.671875 0.09375 1.21875 0.296875 L 2.09375 0.625 C 2.203125 0.6875 2.359375 0.734375 2.359375 0.9375 C 2.359375 1.109375 2.21875 1.328125 2 1.328125 C 1.671875 1.328125 1.4375 1.15625 1.359375 1.09375 C 1.3125 1.0625 1.3125 1.0625 1.28125 1.0625 C 1.21875 1.0625 1.203125 1.109375 1.203125 1.140625 C 1.203125 1.234375 1.59375 1.484375 2 1.484375 C 2.453125 1.484375 2.75 1.0625 2.75 0.71875 C 2.75 0.359375 2.484375 0.234375 2.40625 0.203125 C 2.296875 0.15625 2.0625 0.0625 1.96875 0.03125 C 1.8125 -0.03125 1.671875 -0.09375 1.515625 -0.140625 L 1.078125 -0.3125 C 0.75 -0.4375 0.53125 -0.65625 0.53125 -0.953125 C 0.53125 -1.25 0.828125 -1.890625 1.4375 -2.1875 C 1.703125 -2.09375 1.921875 -2.09375 2.078125 -2.09375 C 2.28125 -2.09375 2.75 -2.09375 2.75 -2.328125 C 2.75 -2.5 2.4375 -2.515625 2.15625 -2.515625 C 2.015625 -2.515625 1.8125 -2.515625 1.546875 -2.4375 C 1.34375 -2.625 1.328125 -2.859375 1.328125 -3 C 1.328125 -3.40625 1.578125 -3.96875 2.125 -4.234375 C 2.265625 -4.078125 2.421875 -4.078125 2.59375 -4.078125 C 2.78125 -4.078125 3.234375 -4.078125 3.234375 -4.296875 C 3.234375 -4.484375 2.921875 -4.5 2.640625 -4.5 C 2.546875 -4.5 2.375 -4.5 2.171875 -4.46875 C 2.15625 -4.53125 2.140625 -4.578125 2.140625 -4.703125 C 2.140625 -4.796875 2.171875 -4.953125 2.171875 -4.96875 C 2.171875 -5.03125 2.140625 -5.0625 2.09375 -5.0625 C 1.96875 -5.0625 1.96875 -4.734375 1.96875 -4.703125 C 1.96875 -4.5625 2 -4.453125 2.015625 -4.421875 C 1.234375 -4.203125 0.734375 -3.625 0.734375 -3.0625 C 0.734375 -2.796875 0.875 -2.484375 1.21875 -2.296875 Z M 2.296875 -4.296875 C 2.40625 -4.34375 2.5625 -4.34375 2.640625 -4.34375 C 2.890625 -4.34375 2.921875 -4.328125 3.046875 -4.296875 C 3 -4.265625 2.921875 -4.234375 2.59375 -4.234375 C 2.46875 -4.234375 2.375 -4.234375 2.296875 -4.296875 Z M 1.734375 -2.3125 C 1.890625 -2.359375 2.0625 -2.359375 2.140625 -2.359375 C 2.390625 -2.359375 2.421875 -2.359375 2.5625 -2.3125 C 2.5 -2.28125 2.421875 -2.265625 2.09375 -2.265625 C 1.921875 -2.265625 1.859375 -2.265625 1.734375 -2.3125 Z M 1.734375 -2.3125 "/></g><g id="8746bc94f5373bb364fc0bc2385751b6voehxsrm__glyph-3-0"><path d="M 1.109375 -3.359375 C 1.109375 -3.546875 0.953125 -3.640625 0.828125 -3.640625 C 0.671875 -3.640625 0.53125 -3.53125 0.53125 -3.359375 L 0.734375 -1.109375 C 0.734375 -1 0.75 -0.984375 0.828125 -0.984375 C 0.890625 -0.984375 0.90625 -1 0.921875 -1.109375 Z M 1.109375 -0.296875 C 1.109375 -0.453125 0.984375 -0.578125 0.828125 -0.578125 C 0.640625 -0.578125 0.53125 -0.4375 0.53125 -0.296875 C 0.53125 -0.109375 0.671875 0 0.8125 0 C 0.984375 0 1.109375 -0.125 1.109375 -0.296875 Z M 1.109375 -0.296875 "/></g><g id="8746bc94f5373bb364fc0bc2385751b6voehxsrm__glyph-3-1"><path d="M 1.078125 -3.140625 C 1.078125 -3.296875 0.953125 -3.4375 0.78125 -3.4375 C 0.625 -3.4375 0.484375 -3.3125 0.484375 -3.140625 C 0.484375 -2.953125 0.640625 -2.84375 0.78125 -2.84375 C 0.9375 -2.84375 1.078125 -2.96875 1.078125 -3.140625 Z M 0.296875 -2.1875 L 0.296875 -2 C 0.625 -2 0.671875 -1.96875 0.671875 -1.734375 L 0.671875 -0.40625 C 0.671875 -0.1875 0.609375 -0.1875 0.28125 -0.1875 L 0.28125 0 C 0.296875 0 0.65625 -0.015625 0.859375 -0.015625 C 1.03125 -0.015625 1.21875 -0.015625 1.390625 0 L 1.390625 -0.1875 C 1.09375 -0.1875 1.046875 -0.1875 1.046875 -0.390625 L 1.046875 -2.25 Z M 0.296875 -2.1875 "/></g><g id="8746bc94f5373bb364fc0bc2385751b6voehxsrm__glyph-3-2"><path d="M 1.8125 -3.484375 L 1.8125 -3.296875 C 2.15625 -3.296875 2.203125 -3.265625 2.203125 -3.015625 L 2.203125 -1.953125 C 2 -2.140625 1.765625 -2.25 1.484375 -2.25 C 0.8125 -2.25 0.234375 -1.734375 0.234375 -1.09375 C 0.234375 -0.453125 0.78125 0.046875 1.421875 0.046875 C 1.84375 0.046875 2.09375 -0.171875 2.171875 -0.265625 L 2.171875 0.046875 L 2.953125 0 L 2.953125 -0.1875 C 2.625 -0.1875 2.578125 -0.21875 2.578125 -0.46875 L 2.578125 -3.53125 Z M 2.171875 -0.53125 C 2.046875 -0.296875 1.78125 -0.09375 1.453125 -0.09375 C 1.171875 -0.09375 0.96875 -0.265625 0.859375 -0.40625 C 0.765625 -0.5625 0.703125 -0.765625 0.703125 -1.09375 C 0.703125 -1.203125 0.703125 -1.59375 0.90625 -1.828125 C 1.109375 -2.0625 1.359375 -2.109375 1.5 -2.109375 C 1.75 -2.109375 1.96875 -1.984375 2.109375 -1.8125 C 2.171875 -1.734375 2.171875 -1.71875 2.171875 -1.625 Z M 2.171875 -0.53125 "/></g><g id="8746bc94f5373bb364fc0bc2385751b6voehxsrm__glyph-3-3"><path d="M 1.8125 -3.828125 C 0.84375 -3.140625 0.578125 -2.0625 0.578125 -1.28125 C 0.578125 -0.5625 0.796875 0.5625 1.8125 1.265625 C 1.84375 1.265625 1.90625 1.265625 1.90625 1.203125 C 1.90625 1.171875 1.890625 1.171875 1.859375 1.125 C 1.1875 0.515625 0.9375 -0.34375 0.9375 -1.28125 C 0.9375 -2.65625 1.453125 -3.328125 1.875 -3.703125 C 1.890625 -3.71875 1.90625 -3.734375 1.90625 -3.765625 C 1.90625 -3.828125 1.84375 -3.828125 1.8125 -3.828125 Z M 1.8125 -3.828125 "/></g><g id="8746bc94f5373bb364fc0bc2385751b6voehxsrm__glyph-3-4"><path d="M 0.453125 -3.828125 C 0.421875 -3.828125 0.359375 -3.828125 0.359375 -3.765625 C 0.359375 -3.734375 0.375 -3.71875 0.40625 -3.6875 C 0.84375 -3.28125 1.328125 -2.59375 1.328125 -1.28125 C 1.328125 -0.21875 1 0.59375 0.453125 1.09375 C 0.359375 1.171875 0.359375 1.1875 0.359375 1.203125 C 0.359375 1.234375 0.375 1.265625 0.421875 1.265625 C 0.484375 1.265625 0.96875 0.9375 1.3125 0.296875 C 1.53125 -0.125 1.6875 -0.671875 1.6875 -1.28125 C 1.6875 -1.984375 1.46875 -3.109375 0.453125 -3.828125 Z M 0.453125 -3.828125 "/></g><g id="8746bc94f5373bb364fc0bc2385751b6voehxsrm__glyph-4-0"><path d="M 1.640625 -1.265625 C 2.0625 -1.453125 2.25 -1.515625 2.375 -1.578125 C 2.46875 -1.625 2.515625 -1.640625 2.515625 -1.734375 C 2.515625 -1.828125 2.453125 -1.90625 2.359375 -1.90625 C 2.328125 -1.90625 2.3125 -1.90625 2.25 -1.859375 L 1.5625 -1.390625 L 1.640625 -2.15625 C 1.65625 -2.234375 1.640625 -2.375 1.484375 -2.375 C 1.421875 -2.375 1.328125 -2.328125 1.328125 -2.21875 C 1.328125 -2.171875 1.34375 -2.015625 1.359375 -1.96875 C 1.359375 -1.875 1.40625 -1.515625 1.40625 -1.390625 L 0.71875 -1.859375 C 0.671875 -1.890625 0.65625 -1.90625 0.609375 -1.90625 C 0.515625 -1.90625 0.453125 -1.828125 0.453125 -1.734375 C 0.453125 -1.640625 0.515625 -1.609375 0.5625 -1.59375 L 1.328125 -1.28125 C 0.90625 -1.09375 0.71875 -1.015625 0.59375 -0.953125 C 0.5 -0.921875 0.453125 -0.890625 0.453125 -0.796875 C 0.453125 -0.71875 0.515625 -0.640625 0.609375 -0.640625 C 0.640625 -0.640625 0.65625 -0.640625 0.71875 -0.6875 L 1.40625 -1.140625 L 1.328125 -0.328125 C 1.328125 -0.21875 1.421875 -0.171875 1.484375 -0.171875 C 1.546875 -0.171875 1.640625 -0.21875 1.640625 -0.328125 C 1.640625 -0.375 1.625 -0.53125 1.625 -0.578125 C 1.609375 -0.65625 1.578125 -1.03125 1.5625 -1.140625 L 2.171875 -0.734375 C 2.3125 -0.640625 2.3125 -0.640625 2.359375 -0.640625 C 2.453125 -0.640625 2.515625 -0.71875 2.515625 -0.796875 C 2.515625 -0.90625 2.453125 -0.921875 2.421875 -0.953125 Z M 1.640625 -1.265625 "/></g><g id="8746bc94f5373bb364fc0bc2385751b6voehxsrm__glyph-4-1"><path d="M 4.15625 -1.28125 C 4.15625 -2.3125 3.296875 -3.15625 2.265625 -3.15625 C 1.234375 -3.15625 0.390625 -2.296875 0.390625 -1.28125 C 0.390625 -0.234375 1.25 0.59375 2.265625 0.59375 C 3.3125 0.59375 4.15625 -0.25 4.15625 -1.28125 Z M 1.125 -2.546875 C 1.34375 -2.734375 1.734375 -2.984375 2.265625 -2.984375 C 2.8125 -2.984375 3.203125 -2.734375 3.40625 -2.546875 L 2.265625 -1.40625 Z M 1.015625 -0.140625 C 0.734375 -0.421875 0.5625 -0.859375 0.5625 -1.28125 C 0.5625 -1.71875 0.75 -2.140625 1.015625 -2.421875 L 2.15625 -1.28125 Z M 3.53125 -2.421875 C 3.8125 -2.125 3.984375 -1.703125 3.984375 -1.28125 C 3.984375 -0.828125 3.796875 -0.40625 3.53125 -0.140625 L 2.390625 -1.28125 Z M 3.40625 -0.015625 C 3.203125 0.171875 2.8125 0.421875 2.265625 0.421875 C 1.734375 0.421875 1.34375 0.171875 1.125 -0.015625 L 2.265625 -1.15625 Z M 3.40625 -0.015625 "/></g><g id="8746bc94f5373bb364fc0bc2385751b6voehxsrm__glyph-5-0"><path d="M 2.234375 -1.953125 C 2.046875 -1.921875 1.96875 -1.78125 1.96875 -1.671875 C 1.96875 -1.53125 2.078125 -1.484375 2.171875 -1.484375 C 2.28125 -1.484375 2.453125 -1.5625 2.453125 -1.796875 C 2.453125 -2.15625 2.0625 -2.25 1.78125 -2.25 C 1.03125 -2.25 0.3125 -1.546875 0.3125 -0.828125 C 0.3125 -0.390625 0.625 0.046875 1.265625 0.046875 C 2.125 0.046875 2.515625 -0.453125 2.515625 -0.53125 C 2.515625 -0.5625 2.46875 -0.609375 2.4375 -0.609375 C 2.40625 -0.609375 2.390625 -0.59375 2.359375 -0.5625 C 1.953125 -0.09375 1.359375 -0.09375 1.265625 -0.09375 C 0.90625 -0.09375 0.734375 -0.34375 0.734375 -0.65625 C 0.734375 -0.8125 0.8125 -1.359375 1.078125 -1.71875 C 1.265625 -1.96875 1.53125 -2.109375 1.78125 -2.109375 C 1.859375 -2.109375 2.109375 -2.09375 2.234375 -1.953125 Z M 2.234375 -1.953125 "/></g><g id="8746bc94f5373bb364fc0bc2385751b6voehxsrm__glyph-5-1"><path d="M 2.84375 -1.390625 C 2.890625 -1.53125 2.890625 -1.546875 2.890625 -1.671875 C 2.890625 -1.75 2.890625 -1.96875 2.703125 -2.109375 C 2.609375 -2.171875 2.46875 -2.25 2.21875 -2.25 C 2.015625 -2.25 1.703125 -2.1875 1.359375 -1.78125 C 1.328125 -2.171875 0.984375 -2.25 0.828125 -2.25 C 0.625 -2.25 0.5 -2.109375 0.421875 -1.96875 C 0.328125 -1.796875 0.234375 -1.5 0.234375 -1.46875 C 0.234375 -1.40625 0.3125 -1.40625 0.328125 -1.40625 C 0.390625 -1.40625 0.40625 -1.421875 0.4375 -1.546875 C 0.515625 -1.84375 0.609375 -2.109375 0.8125 -2.109375 C 0.9375 -2.109375 0.984375 -1.984375 0.984375 -1.859375 C 0.984375 -1.75 0.9375 -1.5625 0.890625 -1.4375 C 0.859375 -1.296875 0.8125 -1.078125 0.78125 -0.96875 L 0.625 -0.328125 C 0.59375 -0.25 0.578125 -0.125 0.578125 -0.109375 C 0.578125 0 0.65625 0.046875 0.75 0.046875 C 0.828125 0.046875 0.921875 -0.015625 0.9375 -0.0625 C 0.96875 -0.109375 1.015625 -0.265625 1.03125 -0.375 C 1.0625 -0.46875 1.109375 -0.703125 1.140625 -0.828125 C 1.171875 -0.953125 1.203125 -1.0625 1.234375 -1.171875 C 1.28125 -1.390625 1.28125 -1.40625 1.390625 -1.5625 C 1.546875 -1.8125 1.8125 -2.109375 2.203125 -2.109375 C 2.484375 -2.109375 2.5 -1.875 2.5 -1.75 C 2.5 -1.609375 2.5 -1.5625 2.46875 -1.46875 L 1.890625 0.8125 C 1.875 0.890625 1.875 0.921875 1.875 0.921875 C 1.875 1.046875 1.96875 1.09375 2.046875 1.09375 C 2.234375 1.09375 2.28125 0.921875 2.296875 0.84375 Z M 2.84375 -1.390625 "/></g><g id="8746bc94f5373bb364fc0bc2385751b6voehxsrm__glyph-5-2"><path d="M 2.828125 -1.953125 L 3.3125 -2.4375 C 3.96875 -3.078125 4.171875 -3.265625 4.625 -3.296875 C 4.6875 -3.296875 4.75 -3.296875 4.75 -3.40625 C 4.75 -3.46875 4.703125 -3.484375 4.6875 -3.484375 C 4.53125 -3.484375 4.359375 -3.453125 4.203125 -3.453125 C 4.0625 -3.453125 3.75 -3.484375 3.609375 -3.484375 C 3.578125 -3.484375 3.515625 -3.46875 3.515625 -3.359375 C 3.515625 -3.359375 3.515625 -3.296875 3.59375 -3.296875 C 3.625 -3.296875 3.765625 -3.28125 3.765625 -3.171875 C 3.765625 -3.09375 3.6875 -3.015625 3.625 -2.953125 C 3.59375 -2.921875 2.9375 -2.296875 2.75 -2.09375 L 2.234375 -3.09375 C 2.234375 -3.109375 2.21875 -3.140625 2.21875 -3.171875 C 2.21875 -3.203125 2.3125 -3.28125 2.484375 -3.296875 C 2.515625 -3.296875 2.59375 -3.296875 2.59375 -3.40625 C 2.59375 -3.40625 2.59375 -3.484375 2.5 -3.484375 C 2.40625 -3.484375 2.265625 -3.46875 2.171875 -3.46875 C 2.0625 -3.46875 1.9375 -3.453125 1.828125 -3.453125 C 1.75 -3.453125 1.625 -3.453125 1.53125 -3.46875 C 1.453125 -3.46875 1.34375 -3.484375 1.265625 -3.484375 C 1.234375 -3.484375 1.15625 -3.484375 1.15625 -3.359375 C 1.15625 -3.296875 1.21875 -3.296875 1.296875 -3.296875 C 1.59375 -3.296875 1.625 -3.25 1.671875 -3.140625 L 2.390625 -1.734375 L 2.09375 -1.453125 C 2 -1.359375 1.765625 -1.125 1.671875 -1.03125 C 1.046875 -0.421875 0.84375 -0.203125 0.375 -0.1875 C 0.3125 -0.171875 0.25 -0.171875 0.25 -0.078125 C 0.25 -0.046875 0.265625 0 0.328125 0 C 0.46875 0 0.640625 -0.015625 0.796875 -0.015625 C 0.890625 -0.015625 1.015625 -0.015625 1.09375 -0.015625 C 1.1875 -0.015625 1.296875 0 1.390625 0 C 1.421875 0 1.5 0 1.5 -0.109375 C 1.5 -0.171875 1.4375 -0.1875 1.40625 -0.1875 C 1.359375 -0.1875 1.25 -0.203125 1.25 -0.3125 C 1.25 -0.390625 1.3125 -0.453125 1.421875 -0.578125 L 2.453125 -1.578125 L 3.078125 -0.375 C 3.109375 -0.328125 3.109375 -0.3125 3.109375 -0.3125 C 3.109375 -0.28125 3.015625 -0.203125 2.84375 -0.1875 C 2.796875 -0.171875 2.71875 -0.171875 2.71875 -0.078125 C 2.71875 -0.0625 2.734375 0 2.8125 0 C 2.921875 0 3.046875 -0.015625 3.15625 -0.015625 C 3.265625 -0.015625 3.375 -0.015625 3.484375 -0.015625 C 3.578125 -0.015625 3.6875 -0.015625 3.78125 -0.015625 C 3.875 -0.015625 3.984375 0 4.0625 0 C 4.078125 0 4.171875 0 4.171875 -0.109375 C 4.171875 -0.1875 4.09375 -0.1875 4.015625 -0.1875 C 3.71875 -0.1875 3.703125 -0.234375 3.65625 -0.328125 Z M 2.828125 -1.953125 "/></g><g id="8746bc94f5373bb364fc0bc2385751b6voehxsrm__glyph-5-3"><path d="M 1.375 0.34375 C 1.421875 0.359375 1.546875 0.40625 1.59375 0.421875 C 1.84375 0.515625 1.90625 0.53125 1.90625 0.65625 C 1.90625 0.734375 1.84375 0.890625 1.671875 0.890625 C 1.59375 0.890625 1.40625 0.875 1.1875 0.75 C 1.140625 0.71875 1.140625 0.71875 1.109375 0.71875 C 1.078125 0.71875 1.046875 0.75 1.046875 0.796875 C 1.046875 0.890625 1.40625 1.046875 1.671875 1.046875 C 2.03125 1.046875 2.234375 0.71875 2.234375 0.484375 C 2.234375 0.296875 2.125 0.1875 2.015625 0.125 C 1.96875 0.109375 1.34375 -0.109375 1.28125 -0.125 C 0.796875 -0.296875 0.515625 -0.390625 0.515625 -0.6875 C 0.515625 -0.859375 0.6875 -1.265625 1.125 -1.5 C 1.34375 -1.421875 1.5625 -1.421875 1.65625 -1.421875 C 1.84375 -1.421875 2.1875 -1.421875 2.1875 -1.609375 C 2.1875 -1.765625 1.890625 -1.765625 1.71875 -1.765625 C 1.59375 -1.765625 1.4375 -1.765625 1.234375 -1.703125 C 1.09375 -1.8125 1.0625 -1.96875 1.0625 -2.09375 C 1.0625 -2.390625 1.265625 -2.734375 1.65625 -2.921875 C 1.765625 -2.796875 1.890625 -2.796875 2.015625 -2.796875 C 2.1875 -2.796875 2.53125 -2.796875 2.53125 -2.984375 C 2.53125 -3.140625 2.234375 -3.140625 2.046875 -3.140625 C 1.96875 -3.140625 1.859375 -3.140625 1.71875 -3.125 C 1.71875 -3.125 1.703125 -3.203125 1.703125 -3.265625 C 1.703125 -3.328125 1.71875 -3.390625 1.71875 -3.4375 C 1.734375 -3.453125 1.734375 -3.46875 1.734375 -3.484375 C 1.734375 -3.515625 1.703125 -3.5625 1.65625 -3.5625 C 1.53125 -3.5625 1.53125 -3.359375 1.53125 -3.28125 C 1.53125 -3.265625 1.53125 -3.140625 1.5625 -3.078125 C 0.859375 -2.890625 0.609375 -2.453125 0.609375 -2.125 C 0.609375 -1.921875 0.703125 -1.71875 0.953125 -1.578125 C 0.375 -1.25 0.203125 -0.734375 0.203125 -0.53125 C 0.203125 -0.0625 0.703125 0.109375 0.859375 0.171875 Z M 2.328125 -2.96875 C 2.28125 -2.953125 2.21875 -2.9375 2.015625 -2.9375 C 1.9375 -2.9375 1.875 -2.9375 1.8125 -2.96875 C 1.90625 -3 1.953125 -3 2.0625 -3 C 2.21875 -3 2.25 -2.984375 2.328125 -2.96875 Z M 1.984375 -1.59375 C 1.90625 -1.578125 1.84375 -1.5625 1.671875 -1.5625 C 1.578125 -1.5625 1.515625 -1.5625 1.421875 -1.59375 C 1.546875 -1.625 1.59375 -1.625 1.71875 -1.625 C 1.875 -1.625 1.890625 -1.625 1.984375 -1.59375 Z M 1.984375 -1.59375 "/></g><g id="8746bc94f5373bb364fc0bc2385751b6voehxsrm__glyph-5-4"><path d="M 1.78125 -1.140625 C 1.859375 -1.140625 1.953125 -1.140625 1.953125 -1.234375 C 1.953125 -1.328125 1.875 -1.328125 1.78125 -1.328125 L 0.859375 -1.328125 C 1.015625 -1.78125 1.34375 -2.015625 1.796875 -2.015625 L 1.984375 -2.015625 C 2.078125 -2.015625 2.171875 -2.015625 2.171875 -2.109375 C 2.171875 -2.203125 2.09375 -2.203125 2 -2.203125 L 1.78125 -2.203125 C 1.109375 -2.203125 0.34375 -1.71875 0.34375 -0.953125 C 0.34375 -0.34375 0.796875 0.046875 1.390625 0.046875 C 1.546875 0.046875 1.75 0.03125 2.03125 -0.125 C 2.125 -0.1875 2.140625 -0.203125 2.140625 -0.234375 C 2.140625 -0.25 2.140625 -0.328125 2.0625 -0.328125 C 2.046875 -0.328125 2.03125 -0.328125 2 -0.3125 C 1.828125 -0.1875 1.609375 -0.09375 1.40625 -0.09375 C 1.203125 -0.09375 0.78125 -0.1875 0.78125 -0.78125 C 0.78125 -0.84375 0.78125 -0.953125 0.8125 -1.140625 Z M 1.78125 -1.140625 "/></g><g id="8746bc94f5373bb364fc0bc2385751b6voehxsrm__glyph-6-0"><path d="M 0.953125 -2.390625 C 0.953125 -2.53125 0.84375 -2.609375 0.734375 -2.609375 C 0.625 -2.609375 0.515625 -2.53125 0.515625 -2.390625 C 0.515625 -2.375 0.515625 -2.328125 0.515625 -2.296875 L 0.65625 -0.8125 C 0.65625 -0.75 0.65625 -0.71875 0.734375 -0.71875 C 0.796875 -0.71875 0.8125 -0.75 0.8125 -0.8125 Z M 0.953125 -0.21875 C 0.953125 -0.34375 0.859375 -0.4375 0.734375 -0.4375 C 0.609375 -0.4375 0.515625 -0.34375 0.515625 -0.21875 C 0.515625 -0.09375 0.609375 0 0.734375 0 C 0.859375 0 0.953125 -0.09375 0.953125 -0.21875 Z M 0.953125 -0.21875 "/></g><g id="8746bc94f5373bb364fc0bc2385751b6voehxsrm__glyph-7-0"><path d="M 0.515625 -3.53125 L 0.515625 0 L 1.96875 0 C 2.71875 0 3.296875 -0.453125 3.296875 -0.953125 C 3.296875 -1.40625 2.828125 -1.765625 2.265625 -1.84375 C 2.796875 -1.96875 3.140625 -2.28125 3.140625 -2.65625 C 3.140625 -3.125 2.5625 -3.53125 1.8125 -3.53125 Z M 0.984375 -2 L 0.984375 -3.234375 L 1.65625 -3.234375 C 2.234375 -3.234375 2.703125 -2.96875 2.703125 -2.640625 C 2.703125 -2.296875 2.234375 -2 1.671875 -2 Z M 0.984375 -0.296875 L 0.984375 -1.671875 L 1.71875 -1.671875 C 2.359375 -1.671875 2.84375 -1.34375 2.84375 -0.96875 C 2.84375 -0.578125 2.359375 -0.296875 1.796875 -0.296875 Z M 0.984375 -0.296875 "/></g><g id="8746bc94f5373bb364fc0bc2385751b6voehxsrm__glyph-7-1"><path d="M 3.15625 -0.625 C 2.796875 -0.40625 2.640625 -0.3125 2.125 -0.3125 C 1.328125 -0.3125 0.859375 -1.046875 0.859375 -1.78125 C 0.859375 -2.53125 1.375 -3.234375 2.125 -3.234375 C 2.453125 -3.234375 2.8125 -3.125 3.046875 -2.953125 L 3.125 -3.421875 C 2.765625 -3.546875 2.484375 -3.59375 2.109375 -3.59375 C 1.09375 -3.59375 0.34375 -2.75 0.34375 -1.765625 C 0.34375 -0.71875 1.140625 0.046875 2.140625 0.046875 C 2.640625 0.046875 2.84375 -0.046875 3.1875 -0.234375 Z M 3.15625 -0.625 "/></g><g id="8746bc94f5373bb364fc0bc2385751b6voehxsrm__glyph-8-0"><path d="M 1.40625 -1 C 1.40625 -1.078125 1.46875 -1.546875 1.46875 -1.578125 C 1.46875 -1.640625 1.40625 -1.6875 1.34375 -1.6875 C 1.265625 -1.6875 1.21875 -1.640625 1.21875 -1.578125 C 1.21875 -1.546875 1.265625 -1.078125 1.28125 -1 L 0.71875 -1.34375 C 0.671875 -1.359375 0.65625 -1.375 0.625 -1.375 C 0.578125 -1.375 0.5 -1.328125 0.5 -1.234375 C 0.5 -1.1875 0.546875 -1.140625 0.578125 -1.125 C 0.78125 -1.046875 0.984375 -0.984375 1.1875 -0.90625 C 0.984375 -0.828125 0.65625 -0.71875 0.59375 -0.6875 C 0.5625 -0.671875 0.5 -0.65625 0.5 -0.578125 C 0.5 -0.5 0.578125 -0.4375 0.625 -0.4375 C 0.671875 -0.4375 0.78125 -0.515625 1.28125 -0.8125 C 1.265625 -0.734375 1.21875 -0.265625 1.21875 -0.234375 C 1.21875 -0.1875 1.265625 -0.125 1.34375 -0.125 C 1.40625 -0.125 1.46875 -0.171875 1.46875 -0.234375 C 1.46875 -0.265625 1.40625 -0.734375 1.40625 -0.8125 L 1.984375 -0.46875 C 2 -0.453125 2.015625 -0.4375 2.046875 -0.4375 C 2.109375 -0.4375 2.171875 -0.5 2.171875 -0.578125 C 2.171875 -0.640625 2.140625 -0.671875 2.09375 -0.6875 C 1.890625 -0.765625 1.6875 -0.84375 1.484375 -0.90625 C 1.6875 -0.984375 2.03125 -1.109375 2.09375 -1.125 C 2.109375 -1.140625 2.171875 -1.15625 2.171875 -1.234375 C 2.171875 -1.328125 2.109375 -1.375 2.046875 -1.375 C 2.015625 -1.375 2 -1.359375 1.96875 -1.34375 Z M 1.40625 -1 "/></g><g id="8746bc94f5373bb364fc0bc2385751b6voehxsrm__glyph-9-0"><path d="M 2.375 -1.390625 L 3.15625 -2.078125 C 3.375 -2.28125 3.5625 -2.3125 3.78125 -2.328125 C 3.828125 -2.328125 3.859375 -2.390625 3.859375 -2.421875 C 3.859375 -2.453125 3.828125 -2.484375 3.796875 -2.484375 C 3.734375 -2.484375 3.65625 -2.46875 3.59375 -2.46875 C 3.53125 -2.46875 3.46875 -2.46875 3.40625 -2.46875 C 3.328125 -2.46875 3.25 -2.46875 3.171875 -2.46875 C 3.109375 -2.46875 3.015625 -2.484375 2.953125 -2.484375 C 2.921875 -2.484375 2.859375 -2.484375 2.859375 -2.390625 C 2.859375 -2.328125 2.90625 -2.328125 2.9375 -2.328125 C 2.984375 -2.3125 3.046875 -2.296875 3.046875 -2.25 C 3.046875 -2.203125 3.015625 -2.171875 2.90625 -2.0625 L 2.296875 -1.515625 L 1.84375 -2.25 C 1.90625 -2.296875 1.984375 -2.3125 2.046875 -2.328125 C 2.0625 -2.328125 2.125 -2.328125 2.125 -2.421875 C 2.125 -2.46875 2.09375 -2.484375 2.0625 -2.484375 C 1.984375 -2.484375 1.890625 -2.46875 1.796875 -2.46875 C 1.71875 -2.46875 1.625 -2.46875 1.546875 -2.46875 C 1.46875 -2.46875 1.390625 -2.46875 1.3125 -2.46875 C 1.234375 -2.46875 1.15625 -2.484375 1.078125 -2.484375 C 1.015625 -2.484375 1 -2.4375 1 -2.390625 C 1 -2.328125 1.046875 -2.328125 1.125 -2.328125 C 1.359375 -2.328125 1.375 -2.28125 1.40625 -2.234375 L 2 -1.25 L 1.125 -0.453125 C 1.109375 -0.4375 1.078125 -0.421875 1.0625 -0.40625 C 0.90625 -0.28125 0.765625 -0.171875 0.421875 -0.15625 C 0.359375 -0.15625 0.359375 -0.0625 0.359375 -0.0625 C 0.359375 -0.015625 0.390625 0 0.40625 0 C 0.46875 0 0.546875 -0.015625 0.609375 -0.015625 C 0.671875 -0.015625 0.734375 -0.015625 0.796875 -0.015625 C 0.875 -0.015625 0.953125 -0.015625 1.03125 -0.015625 C 1.09375 -0.015625 1.171875 0 1.25 0 C 1.296875 0 1.34375 -0.03125 1.34375 -0.109375 C 1.34375 -0.15625 1.28125 -0.15625 1.265625 -0.15625 C 1.171875 -0.171875 1.15625 -0.21875 1.15625 -0.234375 C 1.15625 -0.28125 1.203125 -0.328125 1.21875 -0.34375 C 1.234375 -0.359375 1.9375 -0.984375 2.078125 -1.125 L 2.578125 -0.28125 C 2.59375 -0.265625 2.609375 -0.234375 2.609375 -0.234375 C 2.609375 -0.21875 2.546875 -0.171875 2.40625 -0.15625 C 2.390625 -0.15625 2.328125 -0.15625 2.328125 -0.0625 C 2.328125 -0.015625 2.359375 0 2.390625 0 C 2.46875 0 2.5625 -0.015625 2.65625 -0.015625 C 2.734375 -0.015625 2.828125 -0.015625 2.90625 -0.015625 C 2.984375 -0.015625 3.0625 -0.015625 3.140625 -0.015625 C 3.21875 -0.015625 3.296875 0 3.375 0 C 3.4375 0 3.453125 -0.046875 3.453125 -0.109375 C 3.453125 -0.15625 3.40625 -0.15625 3.34375 -0.15625 C 3.109375 -0.15625 3.078125 -0.203125 3.046875 -0.25 Z M 2.375 -1.390625 "/></g></g><clipPath id="8746bc94f5373bb364fc0bc2385751b6voehxsrm__clip-0"><path d="M 195 0 L 322 0 L 322 65.632812 L 195 65.632812 Z M 195 0 " clip-rule="nonzero"/></clipPath><clipPath id="8746bc94f5373bb364fc0bc2385751b6voehxsrm__clip-1"><path d="M 204 9 L 313 9 L 313 65.632812 L 204 65.632812 Z M 204 9 " clip-rule="nonzero"/></clipPath></defs><g fill="rgb(0%, 0%, 0%)" fill-opacity="1"><use xlink:href="#8746bc94f5373bb364fc0bc2385751b6voehxsrm__glyph-0-0" x="13.114282" y="20.326156"/></g><g fill="rgb(0%, 0%, 0%)" fill-opacity="1"><use xlink:href="#8746bc94f5373bb364fc0bc2385751b6voehxsrm__glyph-1-0" x="15.941318" y="20.326156"/></g><g fill="rgb(0%, 0%, 0%)" fill-opacity="1"><use xlink:href="#8746bc94f5373bb364fc0bc2385751b6voehxsrm__glyph-0-1" x="21.595388" y="20.326156"/></g><g fill="rgb(0%, 0%, 0%)" fill-opacity="1"><use xlink:href="#8746bc94f5373bb364fc0bc2385751b6voehxsrm__glyph-0-0" x="84.874165" y="20.326156"/></g><g fill="rgb(0%, 0%, 0%)" fill-opacity="1"><use xlink:href="#8746bc94f5373bb364fc0bc2385751b6voehxsrm__glyph-1-0" x="87.7012" y="20.326156"/></g><g fill="rgb(0%, 0%, 0%)" fill-opacity="1"><use xlink:href="#8746bc94f5373bb364fc0bc2385751b6voehxsrm__glyph-0-1" x="93.355271" y="20.326156"/></g><g fill="rgb(0%, 0%, 0%)" fill-opacity="1"><use xlink:href="#8746bc94f5373bb364fc0bc2385751b6voehxsrm__glyph-1-1" x="97.796094" y="20.326156"/></g><g fill="rgb(0%, 0%, 0%)" fill-opacity="1"><use xlink:href="#8746bc94f5373bb364fc0bc2385751b6voehxsrm__glyph-2-0" x="105.063952" y="20.326156"/></g><g fill="rgb(0%, 0%, 0%)" fill-opacity="1"><use xlink:href="#8746bc94f5373bb364fc0bc2385751b6voehxsrm__glyph-3-0" x="111.088664" y="21.416268"/></g><g fill="rgb(0%, 0%, 0%)" fill-opacity="1"><use xlink:href="#8746bc94f5373bb364fc0bc2385751b6voehxsrm__glyph-2-1" x="113.098148" y="20.326156"/></g><g fill="rgb(0%, 0%, 0%)" fill-opacity="1"><use xlink:href="#8746bc94f5373bb364fc0bc2385751b6voehxsrm__glyph-2-0" x="177.064531" y="20.326156"/></g><g fill="rgb(0%, 0%, 0%)" fill-opacity="1"><use xlink:href="#8746bc94f5373bb364fc0bc2385751b6voehxsrm__glyph-3-0" x="183.087145" y="21.416268"/></g><g fill="rgb(0%, 0%, 0%)" fill-opacity="1"><use xlink:href="#8746bc94f5373bb364fc0bc2385751b6voehxsrm__glyph-0-0" x="185.0959" y="20.326156"/></g><g fill="rgb(0%, 0%, 0%)" fill-opacity="1"><use xlink:href="#8746bc94f5373bb364fc0bc2385751b6voehxsrm__glyph-2-0" x="187.922935" y="20.326156"/></g><g fill="rgb(0%, 0%, 0%)" fill-opacity="1"><use xlink:href="#8746bc94f5373bb364fc0bc2385751b6voehxsrm__glyph-4-0" x="194.515812" y="17.688434"/></g><g fill="rgb(0%, 0%, 0%)" fill-opacity="1"><use xlink:href="#8746bc94f5373bb364fc0bc2385751b6voehxsrm__glyph-0-0" x="197.857655" y="20.326156"/></g><g fill="rgb(0%, 0%, 0%)" fill-opacity="1"><use xlink:href="#8746bc94f5373bb364fc0bc2385751b6voehxsrm__glyph-1-0" x="200.68469" y="20.326156"/></g><g fill="rgb(0%, 0%, 0%)" fill-opacity="1"><use xlink:href="#8746bc94f5373bb364fc0bc2385751b6voehxsrm__glyph-0-1" x="206.338761" y="20.326156"/></g><g fill="rgb(0%, 0%, 0%)" fill-opacity="1"><use xlink:href="#8746bc94f5373bb364fc0bc2385751b6voehxsrm__glyph-1-1" x="210.779584" y="20.326156"/></g><g fill="rgb(0%, 0%, 0%)" fill-opacity="1"><use xlink:href="#8746bc94f5373bb364fc0bc2385751b6voehxsrm__glyph-2-1" x="218.047442" y="20.326156"/></g><g fill="rgb(0%, 0%, 0%)" fill-opacity="1"><use xlink:href="#8746bc94f5373bb364fc0bc2385751b6voehxsrm__glyph-0-1" x="221.562154" y="20.326156"/></g><g fill="rgb(0%, 0%, 0%)" fill-opacity="1"><use xlink:href="#8746bc94f5373bb364fc0bc2385751b6voehxsrm__glyph-2-0" x="3.464527" y="59.085701"/></g><g fill="rgb(0%, 0%, 0%)" fill-opacity="1"><use xlink:href="#8746bc94f5373bb364fc0bc2385751b6voehxsrm__glyph-4-0" x="9.487142" y="60.176543"/></g><g fill="rgb(0%, 0%, 0%)" fill-opacity="1"><use xlink:href="#8746bc94f5373bb364fc0bc2385751b6voehxsrm__glyph-2-0" x="12.828985" y="59.085701"/></g><g fill="rgb(0%, 0%, 0%)" fill-opacity="1"><use xlink:href="#8746bc94f5373bb364fc0bc2385751b6voehxsrm__glyph-4-0" x="19.422194" y="56.447979"/></g><g fill="rgb(0%, 0%, 0%)" fill-opacity="1"><use xlink:href="#8746bc94f5373bb364fc0bc2385751b6voehxsrm__glyph-0-0" x="22.764037" y="59.085701"/></g><g fill="rgb(0%, 0%, 0%)" fill-opacity="1"><use xlink:href="#8746bc94f5373bb364fc0bc2385751b6voehxsrm__glyph-1-0" x="25.591073" y="59.085701"/></g><g fill="rgb(0%, 0%, 0%)" fill-opacity="1"><use xlink:href="#8746bc94f5373bb364fc0bc2385751b6voehxsrm__glyph-0-1" x="31.245143" y="59.085701"/></g><g fill="rgb(0%, 0%, 0%)" fill-opacity="1"><use xlink:href="#8746bc94f5373bb364fc0bc2385751b6voehxsrm__glyph-2-0" x="75.22441" y="59.085701"/></g><g fill="rgb(0%, 0%, 0%)" fill-opacity="1"><use xlink:href="#8746bc94f5373bb364fc0bc2385751b6voehxsrm__glyph-4-0" x="81.247025" y="60.176543"/></g><g fill="rgb(0%, 0%, 0%)" fill-opacity="1"><use xlink:href="#8746bc94f5373bb364fc0bc2385751b6voehxsrm__glyph-2-0" x="84.588868" y="59.085701"/></g><g fill="rgb(0%, 0%, 0%)" fill-opacity="1"><use xlink:href="#8746bc94f5373bb364fc0bc2385751b6voehxsrm__glyph-4-0" x="91.181347" y="56.447979"/></g><g fill="rgb(0%, 0%, 0%)" fill-opacity="1"><use xlink:href="#8746bc94f5373bb364fc0bc2385751b6voehxsrm__glyph-0-0" x="94.52319" y="59.085701"/></g><g fill="rgb(0%, 0%, 0%)" fill-opacity="1"><use xlink:href="#8746bc94f5373bb364fc0bc2385751b6voehxsrm__glyph-1-0" x="97.350226" y="59.085701"/></g><g fill="rgb(0%, 0%, 0%)" fill-opacity="1"><use xlink:href="#8746bc94f5373bb364fc0bc2385751b6voehxsrm__glyph-0-1" x="103.004296" y="59.085701"/></g><g fill="rgb(0%, 0%, 0%)" fill-opacity="1"><use xlink:href="#8746bc94f5373bb364fc0bc2385751b6voehxsrm__glyph-1-1" x="107.445119" y="59.085701"/></g><g fill="rgb(0%, 0%, 0%)" fill-opacity="1"><use xlink:href="#8746bc94f5373bb364fc0bc2385751b6voehxsrm__glyph-2-0" x="114.712977" y="59.085701"/></g><g fill="rgb(0%, 0%, 0%)" fill-opacity="1"><use xlink:href="#8746bc94f5373bb364fc0bc2385751b6voehxsrm__glyph-3-0" x="120.738419" y="60.176543"/></g><g fill="rgb(0%, 0%, 0%)" fill-opacity="1"><use xlink:href="#8746bc94f5373bb364fc0bc2385751b6voehxsrm__glyph-2-1" x="122.747903" y="59.085701"/></g><g fill="rgb(0%, 0%, 0%)" fill-opacity="1"><use xlink:href="#8746bc94f5373bb364fc0bc2385751b6voehxsrm__glyph-2-0" x="167.414776" y="59.085701"/></g><g fill="rgb(0%, 0%, 0%)" fill-opacity="1"><use xlink:href="#8746bc94f5373bb364fc0bc2385751b6voehxsrm__glyph-3-0" x="173.43739" y="60.176543"/></g><g fill="rgb(0%, 0%, 0%)" fill-opacity="1"><use xlink:href="#8746bc94f5373bb364fc0bc2385751b6voehxsrm__glyph-0-0" x="175.446874" y="59.085701"/></g><g fill="rgb(0%, 0%, 0%)" fill-opacity="1"><use xlink:href="#8746bc94f5373bb364fc0bc2385751b6voehxsrm__glyph-2-0" x="178.27391" y="59.085701"/></g><g fill="rgb(0%, 0%, 0%)" fill-opacity="1"><use xlink:href="#8746bc94f5373bb364fc0bc2385751b6voehxsrm__glyph-4-0" x="184.866057" y="56.447979"/></g><g fill="rgb(0%, 0%, 0%)" fill-opacity="1"><use xlink:href="#8746bc94f5373bb364fc0bc2385751b6voehxsrm__glyph-2-0" x="188.20863" y="59.085701"/></g><g fill="rgb(0%, 0%, 0%)" fill-opacity="1"><use xlink:href="#8746bc94f5373bb364fc0bc2385751b6voehxsrm__glyph-4-0" x="194.230515" y="60.176543"/></g><g fill="rgb(0%, 0%, 0%)" fill-opacity="1"><use xlink:href="#8746bc94f5373bb364fc0bc2385751b6voehxsrm__glyph-2-0" x="197.572358" y="59.085701"/></g><g fill="rgb(0%, 0%, 0%)" fill-opacity="1"><use xlink:href="#8746bc94f5373bb364fc0bc2385751b6voehxsrm__glyph-4-0" x="204.165567" y="56.447979"/></g><g fill="rgb(0%, 0%, 0%)" fill-opacity="1"><use xlink:href="#8746bc94f5373bb364fc0bc2385751b6voehxsrm__glyph-0-0" x="207.50741" y="59.085701"/></g><g fill="rgb(0%, 0%, 0%)" fill-opacity="1"><use xlink:href="#8746bc94f5373bb364fc0bc2385751b6voehxsrm__glyph-1-0" x="210.334445" y="59.085701"/></g><g fill="rgb(0%, 0%, 0%)" fill-opacity="1"><use xlink:href="#8746bc94f5373bb364fc0bc2385751b6voehxsrm__glyph-0-1" x="215.988516" y="59.085701"/></g><g fill="rgb(0%, 0%, 0%)" fill-opacity="1"><use xlink:href="#8746bc94f5373bb364fc0bc2385751b6voehxsrm__glyph-1-1" x="220.429339" y="59.085701"/></g><g fill="rgb(0%, 0%, 0%)" fill-opacity="1"><use xlink:href="#8746bc94f5373bb364fc0bc2385751b6voehxsrm__glyph-2-1" x="227.697197" y="59.085701"/></g><g fill="rgb(0%, 0%, 0%)" fill-opacity="1"><use xlink:href="#8746bc94f5373bb364fc0bc2385751b6voehxsrm__glyph-0-1" x="231.211909" y="59.085701"/></g><g fill="rgb(0%, 0%, 0%)" fill-opacity="1"><use xlink:href="#8746bc94f5373bb364fc0bc2385751b6voehxsrm__glyph-2-0" x="292.640503" y="59.085701"/></g><g fill="rgb(0%, 0%, 0%)" fill-opacity="1"><use xlink:href="#8746bc94f5373bb364fc0bc2385751b6voehxsrm__glyph-3-0" x="298.663118" y="60.176543"/></g><g fill="rgb(0%, 0%, 0%)" fill-opacity="1"><use xlink:href="#8746bc94f5373bb364fc0bc2385751b6voehxsrm__glyph-0-0" x="300.671872" y="59.085701"/></g><g fill="rgb(0%, 0%, 0%)" fill-opacity="1"><use xlink:href="#8746bc94f5373bb364fc0bc2385751b6voehxsrm__glyph-2-0" x="303.498907" y="59.085701"/></g><g fill="rgb(0%, 0%, 0%)" fill-opacity="1"><use xlink:href="#8746bc94f5373bb364fc0bc2385751b6voehxsrm__glyph-4-0" x="310.091784" y="56.447979"/></g><g fill="rgb(0%, 0%, 0%)" fill-opacity="1"><use xlink:href="#8746bc94f5373bb364fc0bc2385751b6voehxsrm__glyph-0-0" x="313.433627" y="59.085701"/></g><g fill="rgb(0%, 0%, 0%)" fill-opacity="1"><use xlink:href="#8746bc94f5373bb364fc0bc2385751b6voehxsrm__glyph-1-0" x="316.260663" y="59.085701"/></g><g fill="rgb(0%, 0%, 0%)" fill-opacity="1"><use xlink:href="#8746bc94f5373bb364fc0bc2385751b6voehxsrm__glyph-0-1" x="321.914733" y="59.085701"/></g><g fill="rgb(0%, 0%, 0%)" fill-opacity="1"><use xlink:href="#8746bc94f5373bb364fc0bc2385751b6voehxsrm__glyph-1-1" x="326.355556" y="59.085701"/></g><g fill="rgb(0%, 0%, 0%)" fill-opacity="1"><use xlink:href="#8746bc94f5373bb364fc0bc2385751b6voehxsrm__glyph-2-1" x="333.623414" y="59.085701"/></g><g fill="rgb(0%, 0%, 0%)" fill-opacity="1"><use xlink:href="#8746bc94f5373bb364fc0bc2385751b6voehxsrm__glyph-0-1" x="337.138126" y="59.085701"/></g><path fill="none" stroke="rgb(0%, 0%, 0%)" stroke-linecap="butt" stroke-linejoin="miter" stroke-miterlimit="10" stroke-opacity="1" stroke-width="0.39848" d="M -197.381682 26.562041 L -123.904619 26.562041 " transform="matrix(0.72966, 0, 0, -0.72966, 171.716852, 37.889075)"/><path fill="none" stroke="rgb(0%, 0%, 0%)" stroke-linecap="round" stroke-linejoin="round" stroke-miterlimit="10" stroke-opacity="1" stroke-width="0.39848" d="M -2.070831 2.389191 C -1.696085 0.954448 -0.850229 0.279904 0.000980763 0.00152143 C -0.850229 -0.276862 -1.696085 -0.956759 -2.070831 -2.391502 " transform="matrix(0.72966, 0, 0, -0.72966, 81.452409, 18.508923)"/><g fill="rgb(0%, 0%, 0%)" fill-opacity="1"><use xlink:href="#8746bc94f5373bb364fc0bc2385751b6voehxsrm__glyph-3-1" x="48.649459" y="16.192631"/><use xlink:href="#8746bc94f5373bb364fc0bc2385751b6voehxsrm__glyph-3-2" x="50.295081" y="16.192631"/></g><g fill="rgb(0%, 0%, 0%)" fill-opacity="1"><use xlink:href="#8746bc94f5373bb364fc0bc2385751b6voehxsrm__glyph-4-1" x="53.505927" y="16.192631"/></g><g fill="rgb(0%, 0%, 0%)" fill-opacity="1"><use xlink:href="#8746bc94f5373bb364fc0bc2385751b6voehxsrm__glyph-5-0" x="58.049452" y="16.192631"/></g><path fill="none" stroke="rgb(0%, 0%, 0%)" stroke-linecap="butt" stroke-linejoin="miter" stroke-miterlimit="10" stroke-opacity="1" stroke-width="0.39848" d="M -209.619828 17.734087 L -209.619828 -17.336823 " transform="matrix(0.72966, 0, 0, -0.72966, 171.716852, 37.889075)"/><path fill="none" stroke="rgb(0%, 0%, 0%)" stroke-linecap="round" stroke-linejoin="round" stroke-miterlimit="10" stroke-opacity="1" stroke-width="0.39848" d="M -2.071439 2.391575 C -1.691339 0.956832 -0.850837 0.276935 0.000372957 -0.00144848 C -0.850837 -0.279832 -1.691339 -0.954375 -2.071439 -2.389118 " transform="matrix(0, 0.72966, 0.72966, 0, 18.766682, 50.683322)"/><g fill="rgb(0%, 0%, 0%)" fill-opacity="1"><use xlink:href="#8746bc94f5373bb364fc0bc2385751b6voehxsrm__glyph-5-1" x="13.880425" y="38.489585"/></g><path fill="none" stroke="rgb(0%, 0%, 0%)" stroke-linecap="butt" stroke-linejoin="miter" stroke-miterlimit="10" stroke-opacity="1" stroke-width="0.39848" d="M -97.270857 17.734087 L -97.270857 -17.336823 " transform="matrix(0.72966, 0, 0, -0.72966, 171.716852, 37.889075)"/><path fill="none" stroke="rgb(0%, 0%, 0%)" stroke-linecap="round" stroke-linejoin="round" stroke-miterlimit="10" stroke-opacity="1" stroke-width="0.39848" d="M -2.071439 2.392246 C -1.691339 0.957503 -0.850837 0.277606 0.000372957 -0.00077739 C -0.850837 -0.27916 -1.691339 -0.953704 -2.071439 -2.388447 " transform="matrix(0, 0.72966, 0.72966, 0, 100.742755, 50.683322)"/><g fill="rgb(0%, 0%, 0%)" fill-opacity="1"><use xlink:href="#8746bc94f5373bb364fc0bc2385751b6voehxsrm__glyph-5-1" x="81.898611" y="39.160872"/></g><g fill="rgb(0%, 0%, 0%)" fill-opacity="1"><use xlink:href="#8746bc94f5373bb364fc0bc2385751b6voehxsrm__glyph-4-1" x="85.076891" y="39.160872"/></g><g fill="rgb(0%, 0%, 0%)" fill-opacity="1"><use xlink:href="#8746bc94f5373bb364fc0bc2385751b6voehxsrm__glyph-5-2" x="89.620415" y="39.160872"/></g><g fill="rgb(0%, 0%, 0%)" fill-opacity="1"><use xlink:href="#8746bc94f5373bb364fc0bc2385751b6voehxsrm__glyph-6-0" x="94.386744" y="39.932123"/></g><g fill="rgb(0%, 0%, 0%)" fill-opacity="1"><use xlink:href="#8746bc94f5373bb364fc0bc2385751b6voehxsrm__glyph-5-3" x="96.214542" y="39.160872"/></g><path fill="none" stroke="rgb(0%, 0%, 0%)" stroke-linecap="butt" stroke-linejoin="miter" stroke-miterlimit="10" stroke-opacity="1" stroke-width="0.39848" d="M 2.839967 26.562041 L -70.631742 26.562041 " transform="matrix(0.72966, 0, 0, -0.72966, 171.716852, 37.889075)"/><path fill="none" stroke="rgb(0%, 0%, 0%)" stroke-linecap="round" stroke-linejoin="round" stroke-miterlimit="10" stroke-opacity="1" stroke-width="0.39848" d="M -2.07463 2.391502 C -1.69453 0.956759 -0.848674 0.276862 0.00253554 -0.00152143 C -0.848674 -0.279904 -1.69453 -0.954448 -2.07463 -2.389191 " transform="matrix(-0.72966, 0, 0, 0.72966, 120.0331, 18.508923)"/><g fill="rgb(0%, 0%, 0%)" fill-opacity="1"><use xlink:href="#8746bc94f5373bb364fc0bc2385751b6voehxsrm__glyph-7-0" x="142.39546" y="16.026998"/><use xlink:href="#8746bc94f5373bb364fc0bc2385751b6voehxsrm__glyph-7-1" x="145.999648" y="16.026998"/></g><g fill="rgb(0%, 0%, 0%)" fill-opacity="1"><use xlink:href="#8746bc94f5373bb364fc0bc2385751b6voehxsrm__glyph-6-0" x="149.454192" y="16.798249"/></g><path fill="none" stroke="rgb(0%, 0%, 0%)" stroke-linecap="butt" stroke-linejoin="miter" stroke-miterlimit="10" stroke-opacity="1" stroke-width="0.39848" d="M 39.763194 17.734087 L 39.763194 -17.336823 " transform="matrix(0.72966, 0, 0, -0.72966, 171.716852, 37.889075)"/><path fill="none" stroke="rgb(0%, 0%, 0%)" stroke-linecap="round" stroke-linejoin="round" stroke-miterlimit="10" stroke-opacity="1" stroke-width="0.39848" d="M -2.071439 2.389744 C -1.691339 0.955001 -0.850837 0.280458 0.000372957 0.0020745 C -0.850837 -0.276309 -1.691339 -0.956206 -2.071439 -2.390949 " transform="matrix(0, 0.72966, 0.72966, 0, 200.728955, 50.683322)"/><path fill="rgb(100%, 100%, 100%)" fill-opacity="1" fill-rule="nonzero" d="M 184.222656 42.03125 L 217.234375 42.03125 L 217.234375 33.746094 L 184.222656 33.746094 Z M 184.222656 42.03125 "/><g fill="rgb(0%, 0%, 0%)" fill-opacity="1"><use xlink:href="#8746bc94f5373bb364fc0bc2385751b6voehxsrm__glyph-5-2" x="185.788347" y="39.195166"/></g><g fill="rgb(0%, 0%, 0%)" fill-opacity="1"><use xlink:href="#8746bc94f5373bb364fc0bc2385751b6voehxsrm__glyph-6-0" x="190.555946" y="39.966417"/></g><g fill="rgb(0%, 0%, 0%)" fill-opacity="1"><use xlink:href="#8746bc94f5373bb364fc0bc2385751b6voehxsrm__glyph-3-3" x="192.383015" y="39.195166"/></g><g fill="rgb(0%, 0%, 0%)" fill-opacity="1"><use xlink:href="#8746bc94f5373bb364fc0bc2385751b6voehxsrm__glyph-5-2" x="194.654523" y="39.195166"/></g><g fill="rgb(0%, 0%, 0%)" fill-opacity="1"><use xlink:href="#8746bc94f5373bb364fc0bc2385751b6voehxsrm__glyph-8-0" x="199.817522" y="37.001078"/></g><g fill="rgb(0%, 0%, 0%)" fill-opacity="1"><use xlink:href="#8746bc94f5373bb364fc0bc2385751b6voehxsrm__glyph-5-1" x="202.856556" y="39.195166"/></g><g fill="rgb(0%, 0%, 0%)" fill-opacity="1"><use xlink:href="#8746bc94f5373bb364fc0bc2385751b6voehxsrm__glyph-4-1" x="206.034836" y="39.195166"/></g><g fill="rgb(0%, 0%, 0%)" fill-opacity="1"><use xlink:href="#8746bc94f5373bb364fc0bc2385751b6voehxsrm__glyph-5-3" x="210.578361" y="39.195166"/></g><g fill="rgb(0%, 0%, 0%)" fill-opacity="1"><use xlink:href="#8746bc94f5373bb364fc0bc2385751b6voehxsrm__glyph-3-4" x="213.396374" y="39.195166"/></g><g clip-path="url(#8746bc94f5373bb364fc0bc2385751b6voehxsrm__clip-0)"><path fill="none" stroke="rgb(0%, 0%, 0%)" stroke-linecap="butt" stroke-linejoin="miter" stroke-miterlimit="10" stroke-opacity="1" stroke-width="2.32874" d="M 66.081099 17.734087 L 171.84524 -17.732983 " transform="matrix(0.72966, 0, 0, -0.72966, 171.716852, 37.889075)"/></g><g clip-path="url(#8746bc94f5373bb364fc0bc2385751b6voehxsrm__clip-1)"><path fill="none" stroke="rgb(100%, 100%, 100%)" stroke-linecap="butt" stroke-linejoin="miter" stroke-miterlimit="10" stroke-opacity="1" stroke-width="1.53175" d="M 66.081099 17.734087 L 171.84524 -17.732983 " transform="matrix(0.72966, 0, 0, -0.72966, 171.716852, 37.889075)"/></g><path fill="none" stroke="rgb(0%, 0%, 0%)" stroke-linecap="butt" stroke-linejoin="miter" stroke-miterlimit="10" stroke-opacity="1" stroke-width="0.39848" d="M -184.158487 -26.560938 L -137.133167 -26.560938 " transform="matrix(0.72966, 0, 0, -0.72966, 171.716852, 37.889075)"/><path fill="none" stroke="rgb(0%, 0%, 0%)" stroke-linecap="round" stroke-linejoin="round" stroke-miterlimit="10" stroke-opacity="1" stroke-width="0.39848" d="M -2.074499 2.392606 C -1.6944 0.957862 -0.848543 0.277965 0.00266632 -0.000417707 C -0.848543 -0.278801 -1.6944 -0.958698 -2.074499 -2.393441 " transform="matrix(0.72966, 0, 0, -0.72966, 71.802742, 57.269226)"/><g fill="rgb(0%, 0%, 0%)" fill-opacity="1"><use xlink:href="#8746bc94f5373bb364fc0bc2385751b6voehxsrm__glyph-3-1" x="48.649459" y="62.512914"/><use xlink:href="#8746bc94f5373bb364fc0bc2385751b6voehxsrm__glyph-3-2" x="50.295081" y="62.512914"/></g><g fill="rgb(0%, 0%, 0%)" fill-opacity="1"><use xlink:href="#8746bc94f5373bb364fc0bc2385751b6voehxsrm__glyph-4-1" x="53.505927" y="62.512914"/></g><g fill="rgb(0%, 0%, 0%)" fill-opacity="1"><use xlink:href="#8746bc94f5373bb364fc0bc2385751b6voehxsrm__glyph-5-0" x="58.049452" y="62.512914"/></g><path fill="none" stroke="rgb(0%, 0%, 0%)" stroke-linecap="butt" stroke-linejoin="miter" stroke-miterlimit="10" stroke-opacity="1" stroke-width="0.39848" d="M -10.383228 -26.560938 L -57.408547 -26.560938 " transform="matrix(0.72966, 0, 0, -0.72966, 171.716852, 37.889075)"/><path fill="none" stroke="rgb(0%, 0%, 0%)" stroke-linecap="round" stroke-linejoin="round" stroke-miterlimit="10" stroke-opacity="1" stroke-width="0.39848" d="M -2.072945 2.393441 C -1.692845 0.958698 -0.852342 0.278801 -0.00113242 0.000417707 C -0.852342 -0.277965 -1.692845 -0.957862 -2.072945 -2.392606 " transform="matrix(-0.72966, 0, 0, 0.72966, 129.682767, 57.269226)"/><g fill="rgb(0%, 0%, 0%)" fill-opacity="1"><use xlink:href="#8746bc94f5373bb364fc0bc2385751b6voehxsrm__glyph-7-0" x="142.39546" y="62.512914"/><use xlink:href="#8746bc94f5373bb364fc0bc2385751b6voehxsrm__glyph-7-1" x="145.999648" y="62.512914"/></g><g fill="rgb(0%, 0%, 0%)" fill-opacity="1"><use xlink:href="#8746bc94f5373bb364fc0bc2385751b6voehxsrm__glyph-6-0" x="149.454192" y="63.284165"/></g><path fill="none" stroke="rgb(0%, 0%, 0%)" stroke-linecap="butt" stroke-linejoin="miter" stroke-miterlimit="10" stroke-opacity="1" stroke-width="0.39848" d="M 89.904263 -26.560938 L 160.843757 -26.560938 " transform="matrix(0.72966, 0, 0, -0.72966, 171.716852, 37.889075)"/><path fill="none" stroke="rgb(0%, 0%, 0%)" stroke-linecap="round" stroke-linejoin="round" stroke-miterlimit="10" stroke-opacity="1" stroke-width="0.39848" d="M -2.070595 2.392606 C -1.695849 0.957862 -0.849993 0.277965 0.00121697 -0.000417707 C -0.849993 -0.278801 -1.695849 -0.958698 -2.070595 -2.393441 " transform="matrix(0.72966, 0, 0, -0.72966, 289.221768, 57.269226)"/><g fill="rgb(0%, 0%, 0%)" fill-opacity="1"><use xlink:href="#8746bc94f5373bb364fc0bc2385751b6voehxsrm__glyph-5-2" x="249.016314" y="62.795293"/></g><g fill="rgb(0%, 0%, 0%)" fill-opacity="1"><use xlink:href="#8746bc94f5373bb364fc0bc2385751b6voehxsrm__glyph-6-0" x="253.783913" y="63.566543"/></g><g fill="rgb(0%, 0%, 0%)" fill-opacity="1"><use xlink:href="#8746bc94f5373bb364fc0bc2385751b6voehxsrm__glyph-3-3" x="255.610982" y="62.795293"/></g><g fill="rgb(0%, 0%, 0%)" fill-opacity="1"><use xlink:href="#8746bc94f5373bb364fc0bc2385751b6voehxsrm__glyph-5-4" x="257.88249" y="62.795293"/></g><g fill="rgb(0%, 0%, 0%)" fill-opacity="1"><use xlink:href="#8746bc94f5373bb364fc0bc2385751b6voehxsrm__glyph-9-0" x="260.305615" y="63.803683"/></g><g fill="rgb(0%, 0%, 0%)" fill-opacity="1"><use xlink:href="#8746bc94f5373bb364fc0bc2385751b6voehxsrm__glyph-8-0" x="264.629581" y="62.734001"/></g><g fill="rgb(0%, 0%, 0%)" fill-opacity="1"><use xlink:href="#8746bc94f5373bb364fc0bc2385751b6voehxsrm__glyph-4-1" x="268.031986" y="62.795293"/></g><g fill="rgb(0%, 0%, 0%)" fill-opacity="1"><use xlink:href="#8746bc94f5373bb364fc0bc2385751b6voehxsrm__glyph-5-3" x="272.575511" y="62.795293"/></g><g fill="rgb(0%, 0%, 0%)" fill-opacity="1"><use xlink:href="#8746bc94f5373bb364fc0bc2385751b6voehxsrm__glyph-3-4" x="275.393525" y="62.795293"/></g></svg>