<?xml version="1.0" encoding="UTF-8"?><svg xmlns="http://www.w3.org/2000/svg" xmlns:xlink="http://www.w3.org/1999/xlink" width="343.711" height="81.411" viewBox="0 0 343.711 81.411"><defs><g><g id="52daddffe04099b763e317ec413fd38f41g4jhbw__glyph-0-0"><path d="M 7 -2.296875 C 7.015625 -2.359375 7.046875 -2.421875 7.046875 -2.4375 C 7.046875 -2.453125 7.046875 -2.546875 6.9375 -2.546875 C 6.84375 -2.546875 6.828125 -2.5 6.8125 -2.4375 C 6.15625 -0.96875 5.796875 -0.3125 4.109375 -0.3125 L 2.65625 -0.3125 C 2.515625 -0.3125 2.5 -0.3125 2.4375 -0.3125 C 2.34375 -0.328125 2.3125 -0.34375 2.3125 -0.421875 C 2.3125 -0.4375 2.3125 -0.46875 2.359375 -0.640625 L 3.03125 -3.34375 L 4.015625 -3.34375 C 4.859375 -3.34375 4.859375 -3.140625 4.859375 -2.890625 C 4.859375 -2.8125 4.859375 -2.703125 4.78125 -2.40625 C 4.765625 -2.359375 4.75 -2.328125 4.75 -2.296875 C 4.75 -2.25 4.796875 -2.1875 4.890625 -2.1875 C 4.96875 -2.1875 5 -2.234375 5.03125 -2.390625 L 5.59375 -4.703125 C 5.59375 -4.75 5.546875 -4.8125 5.484375 -4.8125 C 5.390625 -4.8125 5.375 -4.75 5.34375 -4.625 C 5.140625 -3.875 4.953125 -3.65625 4.046875 -3.65625 L 3.109375 -3.65625 L 3.703125 -6.03125 C 3.796875 -6.375 3.8125 -6.421875 4.25 -6.421875 L 5.640625 -6.421875 C 6.84375 -6.421875 7.140625 -6.125 7.140625 -5.328125 C 7.140625 -5.078125 7.140625 -5.0625 7.09375 -4.796875 C 7.09375 -4.734375 7.09375 -4.671875 7.09375 -4.625 C 7.09375 -4.5625 7.125 -4.5 7.203125 -4.5 C 7.3125 -4.5 7.328125 -4.5625 7.34375 -4.75 L 7.546875 -6.453125 C 7.578125 -6.71875 7.53125 -6.71875 7.28125 -6.71875 L 2.28125 -6.71875 C 2.09375 -6.71875 1.984375 -6.71875 1.984375 -6.53125 C 1.984375 -6.421875 2.078125 -6.421875 2.265625 -6.421875 C 2.625 -6.421875 2.90625 -6.421875 2.90625 -6.234375 C 2.90625 -6.203125 2.90625 -6.1875 2.859375 -6 L 1.546875 -0.765625 C 1.453125 -0.390625 1.4375 -0.3125 0.65625 -0.3125 C 0.484375 -0.3125 0.375 -0.3125 0.375 -0.125 C 0.375 0 0.46875 0 0.65625 0 L 5.78125 0 C 6.015625 0 6.015625 -0.015625 6.09375 -0.171875 Z M 7 -2.296875 "/></g><g id="52daddffe04099b763e317ec413fd38f41g4jhbw__glyph-0-1"><path d="M 6.21875 -5.625 C 6.703125 -6.40625 7.109375 -6.421875 7.484375 -6.453125 C 7.59375 -6.453125 7.609375 -6.625 7.609375 -6.640625 C 7.609375 -6.71875 7.5625 -6.75 7.484375 -6.75 C 7.21875 -6.75 6.9375 -6.71875 6.671875 -6.71875 C 6.34375 -6.71875 6 -6.75 5.6875 -6.75 C 5.625 -6.75 5.5 -6.75 5.5 -6.5625 C 5.5 -6.453125 5.59375 -6.453125 5.65625 -6.453125 C 5.921875 -6.421875 6.109375 -6.328125 6.109375 -6.125 C 6.109375 -5.96875 5.96875 -5.75 5.96875 -5.75 L 2.921875 -0.921875 L 2.25 -6.15625 C 2.25 -6.3125 2.484375 -6.453125 2.9375 -6.453125 C 3.078125 -6.453125 3.1875 -6.453125 3.1875 -6.640625 C 3.1875 -6.734375 3.109375 -6.75 3.046875 -6.75 C 2.65625 -6.75 2.21875 -6.71875 1.8125 -6.71875 C 1.640625 -6.71875 1.453125 -6.734375 1.28125 -6.734375 C 1.09375 -6.734375 0.90625 -6.75 0.734375 -6.75 C 0.671875 -6.75 0.546875 -6.75 0.546875 -6.5625 C 0.546875 -6.453125 0.640625 -6.453125 0.796875 -6.453125 C 1.359375 -6.453125 1.359375 -6.359375 1.390625 -6.109375 L 2.171875 -0.015625 C 2.203125 0.1875 2.25 0.21875 2.375 0.21875 C 2.53125 0.21875 2.578125 0.171875 2.65625 0.046875 Z M 6.21875 -5.625 "/></g><g id="52daddffe04099b763e317ec413fd38f41g4jhbw__glyph-1-0"><path d="M 2.234375 -1.71875 C 2.796875 -1.96875 3.0625 -2.0625 3.234375 -2.15625 C 3.359375 -2.203125 3.421875 -2.234375 3.421875 -2.375 C 3.421875 -2.484375 3.34375 -2.59375 3.21875 -2.59375 C 3.15625 -2.59375 3.15625 -2.59375 3.0625 -2.53125 L 2.125 -1.890625 L 2.234375 -2.921875 C 2.25 -3.046875 2.234375 -3.21875 2.015625 -3.21875 C 1.9375 -3.21875 1.8125 -3.15625 1.8125 -3.015625 C 1.8125 -2.953125 1.828125 -2.734375 1.84375 -2.671875 C 1.859375 -2.546875 1.90625 -2.0625 1.921875 -1.890625 L 0.984375 -2.53125 C 0.90625 -2.5625 0.890625 -2.59375 0.828125 -2.59375 C 0.703125 -2.59375 0.609375 -2.484375 0.609375 -2.375 C 0.609375 -2.234375 0.703125 -2.1875 0.765625 -2.171875 L 1.8125 -1.734375 C 1.234375 -1.484375 0.984375 -1.390625 0.8125 -1.296875 C 0.671875 -1.25 0.609375 -1.21875 0.609375 -1.09375 C 0.609375 -0.96875 0.703125 -0.859375 0.828125 -0.859375 C 0.875 -0.859375 0.890625 -0.859375 0.96875 -0.921875 L 1.921875 -1.5625 L 1.8125 -0.4375 C 1.8125 -0.296875 1.9375 -0.234375 2.015625 -0.234375 C 2.109375 -0.234375 2.234375 -0.296875 2.234375 -0.4375 C 2.234375 -0.5 2.203125 -0.71875 2.203125 -0.78125 C 2.1875 -0.90625 2.140625 -1.390625 2.125 -1.5625 L 2.953125 -1 C 3.140625 -0.859375 3.15625 -0.859375 3.21875 -0.859375 C 3.34375 -0.859375 3.421875 -0.96875 3.421875 -1.09375 C 3.421875 -1.21875 3.34375 -1.265625 3.28125 -1.28125 Z M 2.234375 -1.71875 "/></g><g id="52daddffe04099b763e317ec413fd38f41g4jhbw__glyph-1-1"><path d="M 2 -3.265625 C 2.0625 -3.390625 2.0625 -3.4375 2.0625 -3.484375 C 2.0625 -3.703125 1.875 -3.875 1.65625 -3.875 C 1.390625 -3.875 1.3125 -3.65625 1.28125 -3.546875 L 0.359375 -0.546875 C 0.359375 -0.53125 0.328125 -0.4375 0.328125 -0.4375 C 0.328125 -0.359375 0.546875 -0.28125 0.609375 -0.28125 C 0.65625 -0.28125 0.65625 -0.296875 0.703125 -0.40625 Z M 2 -3.265625 "/></g><g id="52daddffe04099b763e317ec413fd38f41g4jhbw__glyph-2-0"><path d="M 1.578125 -0.390625 C 1.578125 -0.640625 1.359375 -0.796875 1.171875 -0.796875 C 0.953125 -0.796875 0.78125 -0.609375 0.78125 -0.40625 C 0.78125 -0.15625 0.984375 0 1.171875 0 C 1.390625 0 1.578125 -0.1875 1.578125 -0.390625 Z M 1.578125 -0.390625 "/></g><g id="52daddffe04099b763e317ec413fd38f41g4jhbw__glyph-2-1"><path d="M 2.8125 -2.734375 L 3.5 -2.734375 C 3.640625 -2.734375 3.71875 -2.734375 3.71875 -2.890625 C 3.71875 -2.984375 3.640625 -2.984375 3.515625 -2.984375 L 2.859375 -2.984375 C 3.03125 -3.859375 3.078125 -4.1875 3.140625 -4.375 C 3.171875 -4.53125 3.328125 -4.671875 3.484375 -4.671875 C 3.5 -4.671875 3.6875 -4.671875 3.8125 -4.59375 C 3.53125 -4.5 3.515625 -4.25 3.515625 -4.21875 C 3.515625 -4.0625 3.625 -3.953125 3.78125 -3.953125 C 3.96875 -3.953125 4.1875 -4.125 4.1875 -4.375 C 4.1875 -4.703125 3.84375 -4.875 3.484375 -4.875 C 3.1875 -4.875 2.84375 -4.703125 2.65625 -4.359375 C 2.515625 -4.09375 2.46875 -3.78125 2.3125 -2.984375 L 1.765625 -2.984375 C 1.640625 -2.984375 1.546875 -2.984375 1.546875 -2.828125 C 1.546875 -2.734375 1.640625 -2.734375 1.765625 -2.734375 L 2.265625 -2.734375 C 2.265625 -2.6875 1.828125 -0.203125 1.65625 0.546875 C 1.625 0.6875 1.515625 1.21875 1.171875 1.21875 C 1.171875 1.21875 1 1.21875 0.875 1.140625 C 1.15625 1.046875 1.171875 0.796875 1.171875 0.75 C 1.171875 0.609375 1.0625 0.5 0.90625 0.5 C 0.71875 0.5 0.5 0.65625 0.5 0.921875 C 0.5 1.234375 0.828125 1.40625 1.171875 1.40625 C 1.625 1.40625 1.921875 0.953125 2 0.796875 C 2.25 0.34375 2.421875 -0.515625 2.421875 -0.59375 Z M 2.8125 -2.734375 "/></g><g id="52daddffe04099b763e317ec413fd38f41g4jhbw__glyph-2-2"><path d="M 3.6875 -2.546875 C 3.703125 -2.65625 3.703125 -2.6875 3.703125 -2.703125 C 3.703125 -2.859375 3.578125 -2.921875 3.46875 -2.921875 C 3.3125 -2.921875 3.1875 -2.796875 3.15625 -2.65625 C 3.03125 -2.84375 2.796875 -3.046875 2.4375 -3.046875 C 1.578125 -3.046875 0.671875 -2.125 0.671875 -1.140625 C 0.671875 -0.421875 1.15625 0 1.71875 0 C 2.046875 0 2.34375 -0.15625 2.59375 -0.375 L 2.4375 0.25 C 2.359375 0.546875 2.3125 0.734375 2.046875 0.96875 C 1.75 1.21875 1.453125 1.21875 1.28125 1.21875 C 0.953125 1.21875 0.859375 1.203125 0.734375 1.171875 C 0.90625 1.09375 0.96875 0.921875 0.96875 0.828125 C 0.96875 0.65625 0.828125 0.5625 0.6875 0.5625 C 0.5 0.5625 0.296875 0.734375 0.296875 0.984375 C 0.296875 1.40625 0.890625 1.40625 1.28125 1.40625 C 2.375 1.40625 2.828125 0.859375 2.921875 0.46875 Z M 2.734375 -0.921875 C 2.703125 -0.8125 2.703125 -0.796875 2.578125 -0.671875 C 2.34375 -0.375 2 -0.1875 1.75 -0.1875 C 1.390625 -0.1875 1.21875 -0.484375 1.21875 -0.84375 C 1.21875 -1.15625 1.40625 -1.9375 1.59375 -2.234375 C 1.875 -2.71875 2.203125 -2.859375 2.4375 -2.859375 C 2.921875 -2.859375 3.0625 -2.34375 3.0625 -2.265625 C 3.0625 -2.25 3.0625 -2.25 3.03125 -2.171875 Z M 2.734375 -0.921875 "/></g><g id="52daddffe04099b763e317ec413fd38f41g4jhbw__glyph-3-0"><path d="M 4.375 -3.28125 C 4.375 -3.453125 4.375 -3.625 4.1875 -3.625 C 3.984375 -3.625 3.984375 -3.40625 3.984375 -3.25 L 3.984375 -0.171875 L 0.90625 -0.171875 C 0.71875 -0.171875 0.546875 -0.171875 0.546875 0.015625 C 0.546875 0.21875 0.734375 0.21875 0.90625 0.21875 L 4.03125 0.21875 C 4.359375 0.21875 4.375 0.1875 4.375 -0.125 Z M 4.375 -3.28125 "/></g></g></defs><g fill="rgb(0%, 0%, 0%)" fill-opacity="1"><use xlink:href="#52daddffe04099b763e317ec413fd38f41g4jhbw__glyph-0-0" x="59.564911" y="11.367755"/></g><g fill="rgb(0%, 0%, 0%)" fill-opacity="1"><use xlink:href="#52daddffe04099b763e317ec413fd38f41g4jhbw__glyph-0-1" x="125.031268" y="11.367755"/></g><g fill="rgb(0%, 0%, 0%)" fill-opacity="1"><use xlink:href="#52daddffe04099b763e317ec413fd38f41g4jhbw__glyph-1-0" x="130.801521" y="12.852017"/></g><g fill="rgb(0%, 0%, 0%)" fill-opacity="1"><use xlink:href="#52daddffe04099b763e317ec413fd38f41g4jhbw__glyph-0-1" x="209.249955" y="11.367755"/></g><g fill="rgb(0%, 0%, 0%)" fill-opacity="1"><use xlink:href="#52daddffe04099b763e317ec413fd38f41g4jhbw__glyph-0-0" x="275.987119" y="11.367755"/></g><g fill="rgb(0%, 0%, 0%)" fill-opacity="1"><use xlink:href="#52daddffe04099b763e317ec413fd38f41g4jhbw__glyph-2-0" x="167.817713" y="38.692067"/></g><g fill="rgb(0%, 0%, 0%)" fill-opacity="1"><use xlink:href="#52daddffe04099b763e317ec413fd38f41g4jhbw__glyph-3-0" x="170.661141" y="42.281101"/></g><g fill="rgb(0%, 0%, 0%)" fill-opacity="1"><use xlink:href="#52daddffe04099b763e317ec413fd38f41g4jhbw__glyph-0-0" x="58.177945" y="74.761111"/></g><g fill="rgb(0%, 0%, 0%)" fill-opacity="1"><use xlink:href="#52daddffe04099b763e317ec413fd38f41g4jhbw__glyph-1-1" x="66.048999" y="71.172078"/></g><g fill="rgb(0%, 0%, 0%)" fill-opacity="1"><use xlink:href="#52daddffe04099b763e317ec413fd38f41g4jhbw__glyph-0-1" x="124.818806" y="74.761111"/></g><g fill="rgb(0%, 0%, 0%)" fill-opacity="1"><use xlink:href="#52daddffe04099b763e317ec413fd38f41g4jhbw__glyph-1-1" x="132.786163" y="71.172078"/></g><g fill="rgb(0%, 0%, 0%)" fill-opacity="1"><use xlink:href="#52daddffe04099b763e317ec413fd38f41g4jhbw__glyph-1-0" x="130.589058" y="77.20642"/></g><g fill="rgb(0%, 0%, 0%)" fill-opacity="1"><use xlink:href="#52daddffe04099b763e317ec413fd38f41g4jhbw__glyph-0-1" x="207.86299" y="74.761111"/></g><g fill="rgb(0%, 0%, 0%)" fill-opacity="1"><use xlink:href="#52daddffe04099b763e317ec413fd38f41g4jhbw__glyph-1-1" x="215.830347" y="71.172078"/></g><g fill="rgb(0%, 0%, 0%)" fill-opacity="1"><use xlink:href="#52daddffe04099b763e317ec413fd38f41g4jhbw__glyph-0-0" x="274.600153" y="74.761111"/></g><g fill="rgb(0%, 0%, 0%)" fill-opacity="1"><use xlink:href="#52daddffe04099b763e317ec413fd38f41g4jhbw__glyph-1-1" x="282.471207" y="71.172078"/></g><path fill="none" stroke="rgb(0%, 0%, 0%)" stroke-linecap="butt" stroke-linejoin="miter" stroke-miterlimit="10" stroke-opacity="1" stroke-width="0.39848" d="M -108.995441 25.90662 L -108.995441 -22.365899 " transform="matrix(0.992817, 0, 0, -0.992817, 171.712534, 40.908035)"/><path fill="none" stroke="rgb(0%, 0%, 0%)" stroke-linecap="round" stroke-linejoin="round" stroke-miterlimit="10" stroke-opacity="1" stroke-width="0.39848" d="M -2.071278 2.392032 C -1.693565 0.955936 -0.85158 0.2792 -0.00172525 -0.000150616 C -0.85158 -0.279501 -1.693565 -0.956237 -2.071278 -2.392333 " transform="matrix(0, 0.992817, 0.992817, 0, 63.50015, 63.310307)"/><g fill="rgb(0%, 0%, 0%)" fill-opacity="1"><use xlink:href="#52daddffe04099b763e317ec413fd38f41g4jhbw__glyph-2-1" x="56.54079" y="41.077806"/></g><path fill="none" stroke="rgb(0%, 0%, 0%)" stroke-linecap="butt" stroke-linejoin="miter" stroke-miterlimit="10" stroke-opacity="1" stroke-width="0.39848" d="M -51.508296 32.245118 L -100.14279 32.245118 " transform="matrix(0.992817, 0, 0, -0.992817, 171.712534, 40.908035)"/><path fill="none" stroke="rgb(0%, 0%, 0%)" stroke-linecap="round" stroke-linejoin="round" stroke-miterlimit="10" stroke-opacity="1" stroke-width="0.39848" d="M -2.072977 2.391615 C -1.695264 0.955518 -0.849344 0.278783 0.000510252 -0.000567754 C -0.849344 -0.279918 -1.695264 -0.956654 -2.072977 -2.392751 " transform="matrix(-0.992817, 0, 0, 0.992817, 72.09035, 8.895095)"/><path fill="none" stroke="rgb(0%, 0%, 0%)" stroke-linecap="butt" stroke-linejoin="miter" stroke-miterlimit="10" stroke-opacity="1" stroke-width="0.39848" d="M -32.138697 32.245118 L 32.922382 32.245118 " transform="matrix(0.992817, 0, 0, -0.992817, 171.712534, 40.908035)"/><path fill="none" stroke="rgb(0%, 0%, 0%)" stroke-linecap="round" stroke-linejoin="round" stroke-miterlimit="10" stroke-opacity="1" stroke-width="0.39848" d="M -2.072485 2.392751 C -1.694772 0.956654 -0.848852 0.279918 0.0010023 0.000567754 C -0.848852 -0.278783 -1.694772 -0.955518 -2.072485 -2.391615 " transform="matrix(0.992817, 0, 0, -0.992817, 204.596661, 8.895095)"/><path fill="none" stroke="rgb(0%, 0%, 0%)" stroke-linecap="butt" stroke-linejoin="miter" stroke-miterlimit="10" stroke-opacity="1" stroke-width="0.39848" d="M -41.821529 24.41544 L -41.821529 -22.365899 " transform="matrix(0.992817, 0, 0, -0.992817, 171.712534, 40.908035)"/><path fill="none" stroke="rgb(0%, 0%, 0%)" stroke-linecap="round" stroke-linejoin="round" stroke-miterlimit="10" stroke-opacity="1" stroke-width="0.39848" d="M -2.071278 2.389529 C -1.693565 0.957367 -0.85158 0.280631 -0.00172525 0.00128093 C -0.85158 -0.278069 -1.693565 -0.954805 -2.071278 -2.390902 " transform="matrix(0, 0.992817, 0.992817, 0, 130.190135, 63.310307)"/><path fill="none" stroke="rgb(0%, 0%, 0%)" stroke-linecap="butt" stroke-linejoin="miter" stroke-miterlimit="10" stroke-opacity="1" stroke-width="0.39848" d="M 50.324726 32.245118 L 100.143508 32.245118 " transform="matrix(0.992817, 0, 0, -0.992817, 171.712534, 40.908035)"/><path fill="none" stroke="rgb(0%, 0%, 0%)" stroke-linecap="round" stroke-linejoin="round" stroke-miterlimit="10" stroke-opacity="1" stroke-width="0.39848" d="M -2.072259 2.392751 C -1.694546 0.956654 -0.848626 0.279918 0.00122797 0.000567754 C -0.848626 -0.278783 -1.694546 -0.955518 -2.072259 -2.391615 " transform="matrix(0.992817, 0, 0, -0.992817, 271.334718, 8.895095)"/><path fill="none" stroke="rgb(0%, 0%, 0%)" stroke-linecap="butt" stroke-linejoin="miter" stroke-miterlimit="10" stroke-opacity="1" stroke-width="0.39848" d="M 41.822247 25.90662 L 41.822247 -22.365899 " transform="matrix(0.992817, 0, 0, -0.992817, 171.712534, 40.908035)"/><path fill="none" stroke="rgb(0%, 0%, 0%)" stroke-linecap="round" stroke-linejoin="round" stroke-miterlimit="10" stroke-opacity="1" stroke-width="0.39848" d="M -2.071278 2.39162 C -1.693565 0.955523 -0.85158 0.278787 -0.00172525 -0.000563203 C -0.85158 -0.279914 -1.693565 -0.956649 -2.071278 -2.392746 " transform="matrix(0, 0.992817, 0.992817, 0, 213.234934, 63.310307)"/><g fill="rgb(0%, 0%, 0%)" fill-opacity="1"><use xlink:href="#52daddffe04099b763e317ec413fd38f41g4jhbw__glyph-2-2" x="215.561293" y="40.164415"/></g><path fill="none" stroke="rgb(0%, 0%, 0%)" stroke-linecap="butt" stroke-linejoin="miter" stroke-miterlimit="10" stroke-opacity="1" stroke-width="0.39848" d="M 108.996158 25.90662 L 108.996158 -22.365899 " transform="matrix(0.992817, 0, 0, -0.992817, 171.712534, 40.908035)"/><path fill="none" stroke="rgb(0%, 0%, 0%)" stroke-linecap="round" stroke-linejoin="round" stroke-miterlimit="10" stroke-opacity="1" stroke-width="0.39848" d="M -2.071278 2.389117 C -1.693565 0.956955 -0.85158 0.280219 -0.00172525 0.000868339 C -0.85158 -0.278482 -1.693565 -0.955218 -2.071278 -2.391315 " transform="matrix(0, 0.992817, 0.992817, 0, 279.924919, 63.310307)"/><g fill="rgb(0%, 0%, 0%)" fill-opacity="1"><use xlink:href="#52daddffe04099b763e317ec413fd38f41g4jhbw__glyph-2-1" x="282.249809" y="41.077806"/></g><path fill="none" stroke="rgb(0%, 0%, 0%)" stroke-linecap="butt" stroke-linejoin="miter" stroke-miterlimit="10" stroke-opacity="1" stroke-width="0.39848" d="M -51.72076 -31.608066 L -98.746039 -31.608066 " transform="matrix(0.992817, 0, 0, -0.992817, 171.712534, 40.908035)"/><path fill="none" stroke="rgb(0%, 0%, 0%)" stroke-linecap="round" stroke-linejoin="round" stroke-miterlimit="10" stroke-opacity="1" stroke-width="0.39848" d="M -2.072189 2.392169 C -1.694476 0.956072 -0.848556 0.279337 0.00129874 -0.0000137559 C -0.848556 -0.279364 -1.694476 -0.9561 -2.072189 -2.392197 " transform="matrix(-0.992817, 0, 0, 0.992817, 73.477852, 72.289076)"/><path fill="none" stroke="rgb(0%, 0%, 0%)" stroke-linecap="butt" stroke-linejoin="miter" stroke-miterlimit="10" stroke-opacity="1" stroke-width="0.39848" d="M -31.922299 -31.608066 L 31.525631 -31.608066 " transform="matrix(0.992817, 0, 0, -0.992817, 171.712534, 40.908035)"/><path fill="none" stroke="rgb(0%, 0%, 0%)" stroke-linecap="round" stroke-linejoin="round" stroke-miterlimit="10" stroke-opacity="1" stroke-width="0.39848" d="M -2.071667 2.392197 C -1.693954 0.9561 -0.848034 0.279364 0.00182078 0.0000137559 C -0.848034 -0.279337 -1.693954 -0.956072 -2.071667 -2.392169 " transform="matrix(0.992817, 0, 0, -0.992817, 203.20913, 72.289076)"/><path fill="none" stroke="rgb(0%, 0%, 0%)" stroke-linecap="butt" stroke-linejoin="miter" stroke-miterlimit="10" stroke-opacity="1" stroke-width="0.39848" d="M 51.721477 -31.608066 L 98.746756 -31.608066 " transform="matrix(0.992817, 0, 0, -0.992817, 171.712534, 40.908035)"/><path fill="none" stroke="rgb(0%, 0%, 0%)" stroke-linecap="round" stroke-linejoin="round" stroke-miterlimit="10" stroke-opacity="1" stroke-width="0.39848" d="M -2.071471 2.392197 C -1.693758 0.9561 -0.851772 0.279364 -0.00191805 0.0000137559 C -0.851772 -0.279337 -1.693758 -0.956072 -2.071471 -2.392169 " transform="matrix(0.992817, 0, 0, -0.992817, 269.947217, 72.289076)"/></svg>