<?xml version="1.0" encoding="UTF-8"?><svg xmlns="http://www.w3.org/2000/svg" xmlns:xlink="http://www.w3.org/1999/xlink" width="343.711" height="83.335" viewBox="0 0 343.711 83.335"><defs><g><g id="fc5ed33a7fff635ab9f3a7086b3fe42756t9oz67__glyph-0-0"><path d="M 1.6875 -1.078125 C 1.3125 -0.453125 0.9375 -0.328125 0.53125 -0.296875 C 0.421875 -0.28125 0.328125 -0.28125 0.328125 -0.109375 C 0.328125 -0.046875 0.375 0 0.453125 0 C 0.703125 0 1 -0.03125 1.265625 -0.03125 C 1.578125 -0.03125 1.90625 0 2.203125 0 C 2.265625 0 2.390625 0 2.390625 -0.171875 C 2.390625 -0.28125 2.296875 -0.296875 2.234375 -0.296875 C 2.015625 -0.3125 1.796875 -0.390625 1.796875 -0.625 C 1.796875 -0.734375 1.84375 -0.84375 1.921875 -0.96875 L 2.640625 -2.1875 L 5.015625 -2.1875 C 5.03125 -1.984375 5.15625 -0.703125 5.15625 -0.609375 C 5.15625 -0.328125 4.671875 -0.296875 4.484375 -0.296875 C 4.34375 -0.296875 4.25 -0.296875 4.25 -0.109375 C 4.25 0 4.375 0 4.390625 0 C 4.78125 0 5.1875 -0.03125 5.5625 -0.03125 C 5.796875 -0.03125 6.40625 0 6.640625 0 C 6.6875 0 6.796875 0 6.796875 -0.1875 C 6.796875 -0.296875 6.703125 -0.296875 6.59375 -0.296875 C 6 -0.296875 6 -0.359375 5.96875 -0.625 L 5.390625 -6.53125 C 5.375 -6.71875 5.375 -6.75 5.21875 -6.75 C 5.0625 -6.75 5.03125 -6.6875 4.96875 -6.59375 Z M 2.828125 -2.46875 L 4.6875 -5.59375 L 4.984375 -2.46875 Z M 2.828125 -2.46875 "/></g><g id="fc5ed33a7fff635ab9f3a7086b3fe42756t9oz67__glyph-0-1"><path d="M 1.515625 -0.734375 C 1.421875 -0.375 1.390625 -0.296875 0.65625 -0.296875 C 0.484375 -0.296875 0.390625 -0.296875 0.390625 -0.109375 C 0.390625 0 0.484375 0 0.65625 0 L 4.015625 0 C 5.515625 0 6.625 -1.109375 6.625 -2.03125 C 6.625 -2.71875 6.078125 -3.265625 5.15625 -3.375 C 6.140625 -3.546875 7.140625 -4.25 7.140625 -5.140625 C 7.140625 -5.84375 6.515625 -6.453125 5.375 -6.453125 L 2.203125 -6.453125 C 2.03125 -6.453125 1.9375 -6.453125 1.9375 -6.25 C 1.9375 -6.15625 2.015625 -6.15625 2.203125 -6.15625 C 2.21875 -6.15625 2.390625 -6.15625 2.5625 -6.140625 C 2.734375 -6.109375 2.8125 -6.109375 2.8125 -5.984375 C 2.8125 -5.953125 2.796875 -5.921875 2.78125 -5.796875 Z M 2.9375 -3.453125 L 3.515625 -5.796875 C 3.609375 -6.125 3.625 -6.15625 4.03125 -6.15625 L 5.25 -6.15625 C 6.078125 -6.15625 6.28125 -5.59375 6.28125 -5.1875 C 6.28125 -4.34375 5.46875 -3.453125 4.3125 -3.453125 Z M 2.515625 -0.296875 C 2.375 -0.296875 2.359375 -0.296875 2.296875 -0.296875 C 2.203125 -0.3125 2.1875 -0.328125 2.1875 -0.390625 C 2.1875 -0.421875 2.1875 -0.4375 2.234375 -0.609375 L 2.875 -3.25 L 4.65625 -3.25 C 5.5625 -3.25 5.75 -2.546875 5.75 -2.140625 C 5.75 -1.203125 4.90625 -0.296875 3.796875 -0.296875 Z M 2.515625 -0.296875 "/></g><g id="fc5ed33a7fff635ab9f3a7086b3fe42756t9oz67__glyph-1-0"><path d="M 4.6875 -1.484375 C 4.6875 -1.53125 4.640625 -1.546875 4.59375 -1.546875 C 4.421875 -1.546875 4.203125 -1.40625 4.1875 -1.40625 C 4 -1.28125 3.96875 -1.21875 3.84375 -1.0625 C 3.5625 -0.609375 3.140625 -0.296875 2.53125 -0.296875 C 1.6875 -0.296875 0.921875 -0.90625 0.921875 -2.328125 C 0.921875 -3.171875 1.25 -4.296875 1.75 -5.046875 C 2.171875 -5.640625 2.6875 -6.140625 3.65625 -6.140625 C 4.015625 -6.140625 4.234375 -6 4.234375 -5.65625 C 4.234375 -5.328125 3.890625 -4.65625 3.78125 -4.46875 C 3.71875 -4.359375 3.71875 -4.34375 3.71875 -4.328125 C 3.71875 -4.25 3.765625 -4.25 3.828125 -4.25 C 4.015625 -4.25 4.359375 -4.46875 4.46875 -4.609375 C 4.5 -4.65625 5.046875 -5.578125 5.046875 -6.0625 C 5.046875 -6.578125 4.609375 -6.65625 4.28125 -6.65625 C 2.90625 -6.65625 1.78125 -5.75 1.34375 -5.234375 C 0.21875 -3.875 0.109375 -2.40625 0.109375 -1.921875 C 0.109375 -0.53125 0.8125 0.21875 1.90625 0.21875 C 3.421875 0.21875 4.6875 -1.25 4.6875 -1.484375 Z M 4.6875 -1.484375 "/></g><g id="fc5ed33a7fff635ab9f3a7086b3fe42756t9oz67__glyph-1-1"><path d="M 2.59375 -4.03125 C 2.609375 -4.15625 2.609375 -4.390625 2.359375 -4.390625 C 2.203125 -4.390625 2.078125 -4.265625 2.109375 -4.140625 L 2.109375 -4.015625 L 2.25 -2.5625 L 1.03125 -3.4375 C 0.953125 -3.484375 0.9375 -3.5 0.875 -3.5 C 0.734375 -3.5 0.609375 -3.375 0.609375 -3.234375 C 0.609375 -3.09375 0.703125 -3.046875 0.796875 -3 L 2.140625 -2.359375 L 0.84375 -1.734375 C 0.6875 -1.65625 0.609375 -1.609375 0.609375 -1.46875 C 0.609375 -1.328125 0.734375 -1.203125 0.875 -1.203125 C 0.9375 -1.203125 0.953125 -1.203125 1.1875 -1.390625 L 2.25 -2.15625 L 2.109375 -0.5625 C 2.109375 -0.375 2.28125 -0.328125 2.34375 -0.328125 C 2.46875 -0.328125 2.609375 -0.390625 2.609375 -0.5625 L 2.46875 -2.15625 L 3.671875 -1.28125 C 3.75 -1.234375 3.78125 -1.203125 3.84375 -1.203125 C 3.96875 -1.203125 4.09375 -1.34375 4.09375 -1.46875 C 4.09375 -1.609375 4.015625 -1.65625 3.890625 -1.71875 C 3.328125 -2 3.3125 -2 2.5625 -2.34375 L 3.875 -2.984375 C 4.015625 -3.0625 4.09375 -3.09375 4.09375 -3.234375 C 4.09375 -3.375 3.96875 -3.5 3.84375 -3.5 C 3.78125 -3.5 3.75 -3.5 3.515625 -3.328125 L 2.46875 -2.5625 Z M 2.59375 -4.03125 "/></g><g id="fc5ed33a7fff635ab9f3a7086b3fe42756t9oz67__glyph-2-0"><path d="M 6.484375 -3.09375 C 6.625 -3.09375 6.796875 -3.09375 6.796875 -3.28125 C 6.796875 -3.46875 6.625 -3.46875 6.5 -3.46875 L 0.84375 -3.46875 C 0.703125 -3.46875 0.53125 -3.46875 0.53125 -3.28125 C 0.53125 -3.09375 0.703125 -3.09375 0.84375 -3.09375 Z M 6.5 -1.25 C 6.625 -1.25 6.796875 -1.25 6.796875 -1.4375 C 6.796875 -1.625 6.625 -1.625 6.484375 -1.625 L 0.84375 -1.625 C 0.703125 -1.625 0.53125 -1.625 0.53125 -1.4375 C 0.53125 -1.25 0.703125 -1.25 0.84375 -1.25 Z M 6.5 -1.25 "/></g><g id="fc5ed33a7fff635ab9f3a7086b3fe42756t9oz67__glyph-3-0"><path d="M 3.359375 -2.71875 C 3.375 -2.75 3.375 -2.796875 3.375 -2.828125 C 3.375 -2.859375 3.34375 -2.921875 3.296875 -2.921875 C 3.21875 -2.921875 2.953125 -2.6875 2.8125 -2.484375 C 2.75 -2.609375 2.53125 -2.921875 2.109375 -2.921875 C 1.265625 -2.921875 0.40625 -1.984375 0.40625 -1.03125 C 0.40625 -0.390625 0.828125 0.0625 1.40625 0.0625 C 1.78125 0.0625 2.09375 -0.171875 2.234375 -0.296875 C 2.234375 -0.28125 2.015625 0.5625 2 0.671875 C 1.90625 1.03125 1.890625 1.03125 1.484375 1.046875 C 1.40625 1.046875 1.3125 1.046875 1.3125 1.1875 C 1.3125 1.234375 1.34375 1.28125 1.421875 1.28125 C 1.625 1.28125 1.875 1.25 2.109375 1.25 C 2.328125 1.25 2.609375 1.28125 2.8125 1.28125 C 2.875 1.28125 2.9375 1.265625 2.9375 1.140625 C 2.9375 1.046875 2.84375 1.046875 2.765625 1.046875 C 2.625 1.046875 2.453125 1.046875 2.453125 0.96875 C 2.453125 0.9375 2.453125 0.9375 2.484375 0.8125 Z M 2.359375 -0.828125 C 2.328125 -0.71875 2.328125 -0.703125 2.25 -0.59375 C 1.984375 -0.296875 1.671875 -0.125 1.421875 -0.125 C 1.171875 -0.125 0.9375 -0.296875 0.9375 -0.765625 C 0.9375 -1.109375 1.125 -1.84375 1.28125 -2.109375 C 1.59375 -2.625 1.921875 -2.734375 2.109375 -2.734375 C 2.578125 -2.734375 2.703125 -2.21875 2.703125 -2.15625 C 2.703125 -2.125 2.6875 -2.078125 2.671875 -2.0625 Z M 2.359375 -0.828125 "/></g><g id="fc5ed33a7fff635ab9f3a7086b3fe42756t9oz67__glyph-3-1"><path d="M 3.671875 -2.53125 L 4.296875 -3.15625 C 5.15625 -3.984375 5.40625 -4.25 6 -4.28125 C 6.09375 -4.28125 6.171875 -4.28125 6.171875 -4.421875 C 6.171875 -4.5 6.09375 -4.515625 6.078125 -4.515625 C 5.875 -4.515625 5.65625 -4.484375 5.453125 -4.484375 C 5.28125 -4.484375 4.859375 -4.515625 4.6875 -4.515625 C 4.640625 -4.515625 4.546875 -4.5 4.546875 -4.375 C 4.546875 -4.359375 4.546875 -4.28125 4.65625 -4.28125 C 4.71875 -4.265625 4.875 -4.25 4.875 -4.109375 C 4.875 -4.015625 4.78125 -3.90625 4.71875 -3.84375 C 4.65625 -3.796875 3.8125 -2.96875 3.578125 -2.71875 L 2.90625 -4.015625 C 2.890625 -4.03125 2.875 -4.078125 2.875 -4.109375 C 2.875 -4.15625 3 -4.265625 3.21875 -4.28125 C 3.265625 -4.28125 3.359375 -4.28125 3.359375 -4.421875 C 3.359375 -4.421875 3.359375 -4.515625 3.25 -4.515625 C 3.109375 -4.515625 2.953125 -4.5 2.8125 -4.5 C 2.671875 -4.5 2.515625 -4.484375 2.375 -4.484375 C 2.265625 -4.484375 2.109375 -4.484375 1.984375 -4.5 C 1.875 -4.5 1.734375 -4.515625 1.625 -4.515625 C 1.59375 -4.515625 1.5 -4.515625 1.5 -4.375 C 1.5 -4.28125 1.578125 -4.28125 1.6875 -4.28125 C 2.0625 -4.28125 2.109375 -4.203125 2.171875 -4.078125 L 3.09375 -2.25 L 2.71875 -1.890625 C 2.59375 -1.765625 2.28125 -1.46875 2.171875 -1.34375 C 1.359375 -0.546875 1.09375 -0.265625 0.5 -0.234375 C 0.40625 -0.234375 0.328125 -0.234375 0.328125 -0.09375 C 0.328125 -0.0625 0.34375 0 0.421875 0 C 0.609375 0 0.84375 -0.03125 1.03125 -0.03125 C 1.15625 -0.03125 1.3125 -0.03125 1.421875 -0.015625 C 1.546875 -0.015625 1.6875 0 1.796875 0 C 1.84375 0 1.9375 0 1.9375 -0.140625 C 1.9375 -0.234375 1.859375 -0.234375 1.828125 -0.234375 C 1.765625 -0.25 1.625 -0.265625 1.625 -0.40625 C 1.625 -0.515625 1.703125 -0.59375 1.84375 -0.734375 L 3.1875 -2.0625 L 3.984375 -0.484375 C 4.03125 -0.421875 4.03125 -0.40625 4.03125 -0.40625 C 4.03125 -0.359375 3.90625 -0.25 3.6875 -0.234375 C 3.625 -0.234375 3.53125 -0.234375 3.53125 -0.09375 C 3.53125 -0.078125 3.546875 0 3.640625 0 C 3.78125 0 3.953125 -0.015625 4.09375 -0.015625 C 4.234375 -0.015625 4.375 -0.03125 4.515625 -0.03125 C 4.640625 -0.03125 4.796875 -0.03125 4.90625 -0.015625 C 5.015625 -0.015625 5.15625 0 5.265625 0 C 5.296875 0 5.40625 0 5.40625 -0.140625 C 5.40625 -0.234375 5.328125 -0.234375 5.21875 -0.234375 C 4.828125 -0.234375 4.796875 -0.3125 4.734375 -0.421875 Z M 3.671875 -2.53125 "/></g><g id="fc5ed33a7fff635ab9f3a7086b3fe42756t9oz67__glyph-3-2"><path d="M 1.25 -0.515625 C 1.203125 -0.296875 1.1875 -0.234375 0.671875 -0.234375 C 0.5625 -0.234375 0.46875 -0.234375 0.46875 -0.09375 C 0.46875 0 0.5625 0 0.671875 0 L 3.234375 0 C 4.34375 0 5.1875 -0.765625 5.1875 -1.421875 C 5.1875 -1.890625 4.765625 -2.28125 4.0625 -2.359375 C 4.859375 -2.5 5.53125 -3 5.53125 -3.578125 C 5.53125 -4.078125 5.015625 -4.515625 4.15625 -4.515625 L 1.765625 -4.515625 C 1.625 -4.515625 1.546875 -4.515625 1.546875 -4.375 C 1.546875 -4.28125 1.625 -4.28125 1.765625 -4.28125 C 1.765625 -4.28125 1.890625 -4.28125 2.015625 -4.265625 C 2.140625 -4.25 2.15625 -4.234375 2.15625 -4.171875 C 2.15625 -4.15625 2.15625 -4.125 2.140625 -4.03125 Z M 2.3125 -2.4375 L 2.71875 -4.046875 C 2.765625 -4.25 2.78125 -4.28125 3.046875 -4.28125 L 4.0625 -4.28125 C 4.734375 -4.28125 4.890625 -3.828125 4.890625 -3.578125 C 4.890625 -3.046875 4.28125 -2.4375 3.390625 -2.4375 Z M 2 -0.234375 C 1.796875 -0.234375 1.78125 -0.25 1.78125 -0.296875 C 1.78125 -0.3125 1.78125 -0.34375 1.8125 -0.4375 L 2.265625 -2.25 L 3.671875 -2.25 C 4.296875 -2.25 4.53125 -1.84375 4.53125 -1.453125 C 4.53125 -0.8125 3.859375 -0.234375 3.0625 -0.234375 Z M 2 -0.234375 "/></g><g id="fc5ed33a7fff635ab9f3a7086b3fe42756t9oz67__glyph-3-3"><path d="M 1.359375 -0.796875 C 1.125 -0.4375 0.921875 -0.265625 0.53125 -0.234375 C 0.46875 -0.234375 0.375 -0.234375 0.375 -0.09375 C 0.375 -0.03125 0.4375 0 0.46875 0 C 0.640625 0 0.859375 -0.03125 1.03125 -0.03125 C 1.25 -0.03125 1.515625 0 1.71875 0 C 1.75 0 1.84375 0 1.84375 -0.140625 C 1.84375 -0.234375 1.765625 -0.234375 1.734375 -0.234375 C 1.6875 -0.25 1.453125 -0.25 1.453125 -0.4375 C 1.453125 -0.515625 1.515625 -0.625 1.546875 -0.6875 L 2.078125 -1.5 L 3.96875 -1.5 L 4.125 -0.40625 C 4.09375 -0.34375 4.0625 -0.234375 3.671875 -0.234375 C 3.59375 -0.234375 3.5 -0.234375 3.5 -0.09375 C 3.5 -0.0625 3.515625 0 3.609375 0 C 3.796875 0 4.265625 -0.03125 4.453125 -0.03125 C 4.578125 -0.03125 4.71875 -0.015625 4.84375 -0.015625 C 4.96875 -0.015625 5.109375 0 5.21875 0 C 5.3125 0 5.359375 -0.046875 5.359375 -0.140625 C 5.359375 -0.234375 5.28125 -0.234375 5.171875 -0.234375 C 4.78125 -0.234375 4.765625 -0.296875 4.75 -0.453125 L 4.171875 -4.53125 C 4.15625 -4.671875 4.140625 -4.71875 4.015625 -4.71875 C 3.890625 -4.71875 3.84375 -4.65625 3.78125 -4.5625 Z M 2.234375 -1.75 L 3.625 -3.90625 L 3.9375 -1.75 Z M 2.234375 -1.75 "/></g><g id="fc5ed33a7fff635ab9f3a7086b3fe42756t9oz67__glyph-4-0"><path d="M 1.921875 1.65625 L 1.921875 1.328125 L 1.21875 1.328125 L 1.21875 -4.640625 L 1.921875 -4.640625 L 1.921875 -4.953125 L 0.90625 -4.953125 L 0.90625 1.65625 Z M 1.921875 1.65625 "/></g><g id="fc5ed33a7fff635ab9f3a7086b3fe42756t9oz67__glyph-4-1"><path d="M 1.234375 -4.953125 L 0.21875 -4.953125 L 0.21875 -4.640625 L 0.90625 -4.640625 L 0.90625 1.328125 L 0.21875 1.328125 L 0.21875 1.65625 L 1.234375 1.65625 Z M 1.234375 -4.953125 "/></g><g id="fc5ed33a7fff635ab9f3a7086b3fe42756t9oz67__glyph-4-2"><path d="M 1.453125 -4.359375 C 1.453125 -4.59375 1.25 -4.71875 1.078125 -4.71875 C 0.875 -4.71875 0.6875 -4.578125 0.6875 -4.359375 L 0.9375 -1.4375 C 0.953125 -1.296875 0.984375 -1.28125 1.078125 -1.28125 C 1.15625 -1.28125 1.171875 -1.296875 1.1875 -1.4375 Z M 1.453125 -0.390625 C 1.453125 -0.59375 1.28125 -0.765625 1.078125 -0.765625 C 0.84375 -0.765625 0.6875 -0.578125 0.6875 -0.390625 C 0.6875 -0.15625 0.875 0 1.0625 0 C 1.28125 0 1.453125 -0.171875 1.453125 -0.390625 Z M 1.453125 -0.390625 "/></g><g id="fc5ed33a7fff635ab9f3a7086b3fe42756t9oz67__glyph-5-0"><path d="M 3.765625 -4.328125 C 3.765625 -4.546875 3.71875 -4.59375 3.5 -4.59375 L 0.765625 -4.59375 C 0.65625 -4.59375 0.515625 -4.59375 0.515625 -4.421875 C 0.515625 -4.265625 0.671875 -4.265625 0.765625 -4.265625 L 3.4375 -4.265625 L 3.4375 -2.453125 L 0.890625 -2.453125 C 0.78125 -2.453125 0.609375 -2.453125 0.609375 -2.296875 C 0.609375 -2.140625 0.765625 -2.140625 0.859375 -2.140625 L 3.4375 -2.140625 L 3.4375 -0.328125 L 0.765625 -0.328125 C 0.65625 -0.328125 0.515625 -0.328125 0.515625 -0.15625 C 0.515625 0 0.671875 0 0.765625 0 L 3.5 0 C 3.71875 0 3.765625 -0.03125 3.765625 -0.25 Z M 3.765625 -4.328125 "/></g><g id="fc5ed33a7fff635ab9f3a7086b3fe42756t9oz67__glyph-6-0"><path d="M 1.234375 -3.109375 C 1.234375 -3.28125 1.078125 -3.375 0.953125 -3.375 C 0.8125 -3.375 0.65625 -3.28125 0.65625 -3.109375 C 0.65625 -3.09375 0.671875 -3.03125 0.671875 -2.984375 L 0.84375 -1.046875 C 0.84375 -0.96875 0.859375 -0.9375 0.953125 -0.9375 C 1.046875 -0.9375 1.046875 -0.96875 1.046875 -1.046875 Z M 1.234375 -0.28125 C 1.234375 -0.453125 1.109375 -0.578125 0.953125 -0.578125 C 0.796875 -0.578125 0.65625 -0.453125 0.65625 -0.28125 C 0.65625 -0.125 0.78125 0 0.953125 0 C 1.109375 0 1.234375 -0.125 1.234375 -0.28125 Z M 1.234375 -0.28125 "/></g></g><clipPath id="fc5ed33a7fff635ab9f3a7086b3fe42756t9oz67__clip-0"><path d="M 269 12 L 342 12 L 342 82.675781 L 269 82.675781 Z M 269 12 " clip-rule="nonzero"/></clipPath></defs><g fill="rgb(0%, 0%, 0%)" fill-opacity="1"><use xlink:href="#fc5ed33a7fff635ab9f3a7086b3fe42756t9oz67__glyph-0-0" x="5.27865" y="23.597931"/></g><g fill="rgb(0%, 0%, 0%)" fill-opacity="1"><use xlink:href="#fc5ed33a7fff635ab9f3a7086b3fe42756t9oz67__glyph-0-1" x="65.762462" y="23.597931"/></g><g fill="rgb(0%, 0%, 0%)" fill-opacity="1"><use xlink:href="#fc5ed33a7fff635ab9f3a7086b3fe42756t9oz67__glyph-1-0" x="139.639983" y="23.597931"/></g><g fill="rgb(0%, 0%, 0%)" fill-opacity="1"><use xlink:href="#fc5ed33a7fff635ab9f3a7086b3fe42756t9oz67__glyph-0-0" x="214.026965" y="23.597931"/></g><g fill="rgb(0%, 0%, 0%)" fill-opacity="1"><use xlink:href="#fc5ed33a7fff635ab9f3a7086b3fe42756t9oz67__glyph-1-0" x="332.635727" y="23.597931"/></g><g fill="rgb(0%, 0%, 0%)" fill-opacity="1"><use xlink:href="#fc5ed33a7fff635ab9f3a7086b3fe42756t9oz67__glyph-2-0" x="175.923452" y="50.945947"/></g><g fill="rgb(0%, 0%, 0%)" fill-opacity="1"><use xlink:href="#fc5ed33a7fff635ab9f3a7086b3fe42756t9oz67__glyph-1-1" x="104.157637" y="79.222924"/></g><g fill="rgb(0%, 0%, 0%)" fill-opacity="1"><use xlink:href="#fc5ed33a7fff635ab9f3a7086b3fe42756t9oz67__glyph-1-1" x="274.510777" y="79.222924"/></g><path fill="none" stroke="rgb(0%, 0%, 0%)" stroke-linecap="butt" stroke-linejoin="miter" stroke-miterlimit="10" stroke-opacity="1" stroke-width="0.39848" d="M -163.803799 28.458833 L -116.777993 28.458833 " transform="matrix(0.946953, 0, 0, -0.946953, 171.716138, 48.187472)"/><path fill="none" stroke="rgb(0%, 0%, 0%)" stroke-linecap="round" stroke-linejoin="round" stroke-miterlimit="10" stroke-opacity="1" stroke-width="0.39848" d="M -2.072375 2.390009 C -1.692869 0.954484 -0.851354 0.277973 -0.0015899 0.00159297 C -0.851354 -0.278912 -1.692869 -0.955423 -2.072375 -2.390948 " transform="matrix(0.946953, 0, 0, -0.946953, 61.321818, 21.23979)"/><g fill="rgb(0%, 0%, 0%)" fill-opacity="1"><use xlink:href="#fc5ed33a7fff635ab9f3a7086b3fe42756t9oz67__glyph-3-0" x="37.210868" y="17.736289"/></g><path fill="none" stroke="rgb(0%, 0%, 0%)" stroke-linecap="butt" stroke-linejoin="miter" stroke-miterlimit="10" stroke-opacity="1" stroke-width="0.39848" d="M -163.803799 23.781003 L -76.179047 -26.119978 " transform="matrix(0.946953, 0, 0, -0.946953, 171.716138, 48.187472)"/><path fill="none" stroke="rgb(0%, 0%, 0%)" stroke-linecap="round" stroke-linejoin="round" stroke-miterlimit="10" stroke-opacity="1" stroke-width="0.39848" d="M -2.073584 2.391292 C -1.693 0.955971 -0.850769 0.277243 -0.000770565 0.00170827 C -0.852115 -0.278951 -1.694847 -0.958221 -2.070012 -2.391897 " transform="matrix(0.822846, 0.468562, 0.468562, -0.822846, 99.742021, 73.013485)"/><path fill="none" stroke="rgb(0%, 0%, 0%)" stroke-linecap="butt" stroke-linejoin="miter" stroke-miterlimit="10" stroke-opacity="1" stroke-width="0.39848" d="M -99.345444 28.458833 L -38.760531 28.458833 " transform="matrix(0.946953, 0, 0, -0.946953, 171.716138, 48.187472)"/><path fill="none" stroke="rgb(0%, 0%, 0%)" stroke-linecap="round" stroke-linejoin="round" stroke-miterlimit="10" stroke-opacity="1" stroke-width="0.39848" d="M -2.072263 2.390009 C -1.692756 0.954484 -0.851242 0.277973 -0.0014774 0.00159297 C -0.851242 -0.278912 -1.692756 -0.955423 -2.072263 -2.390948 " transform="matrix(0.946953, 0, 0, -0.946953, 135.200618, 21.23979)"/><g fill="rgb(0%, 0%, 0%)" fill-opacity="1"><use xlink:href="#fc5ed33a7fff635ab9f3a7086b3fe42756t9oz67__glyph-3-1" x="103.166176" y="17.416219"/></g><path fill="none" stroke="rgb(0%, 0%, 0%)" stroke-linecap="butt" stroke-linejoin="miter" stroke-miterlimit="10" stroke-opacity="1" stroke-width="0.339" d="M 0.00189271 0.000256833 L 7.076389 0.000256833 " transform="matrix(0.946953, 0, 0, -0.946953, 103.166176, 18.539306)"/><path fill="none" stroke="rgb(0%, 0%, 0%)" stroke-linecap="butt" stroke-linejoin="miter" stroke-miterlimit="10" stroke-opacity="1" stroke-width="0.39848" d="M -103.656143 22.122724 L -73.048119 -23.962566 " transform="matrix(0.946953, 0, 0, -0.946953, 171.716138, 48.187472)"/><path fill="none" stroke="rgb(0%, 0%, 0%)" stroke-linecap="round" stroke-linejoin="round" stroke-miterlimit="10" stroke-opacity="1" stroke-width="0.39848" d="M -2.072435 2.390121 C -1.693514 0.954856 -0.849095 0.280122 -0.000782601 -0.00101303 C -0.849268 -0.279374 -1.694773 -0.955897 -2.072146 -2.389044 " transform="matrix(0.523874, 0.788774, 0.788774, -0.523874, 102.64574, 71.035243)"/><path fill="none" stroke="rgb(0%, 0%, 0%)" stroke-linecap="butt" stroke-linejoin="miter" stroke-miterlimit="10" stroke-opacity="1" stroke-width="0.39848" d="M 56.644105 28.458833 L 165.046838 28.458833 " transform="matrix(0.946953, 0, 0, -0.946953, 171.716138, 48.187472)"/><path fill="none" stroke="rgb(0%, 0%, 0%)" stroke-linecap="round" stroke-linejoin="round" stroke-miterlimit="10" stroke-opacity="1" stroke-width="0.39848" d="M -2.073804 2.390009 C -1.694297 0.954484 -0.848658 0.277973 0.00110667 0.00159297 C -0.848658 -0.278912 -1.694297 -0.955423 -2.073804 -2.390948 " transform="matrix(0.946953, 0, 0, -0.946953, 328.198171, 21.23979)"/><g fill="rgb(0%, 0%, 0%)" fill-opacity="1"><use xlink:href="#fc5ed33a7fff635ab9f3a7086b3fe42756t9oz67__glyph-3-1" x="273.519317" y="17.416219"/></g><path fill="none" stroke="rgb(0%, 0%, 0%)" stroke-linecap="butt" stroke-linejoin="miter" stroke-miterlimit="10" stroke-opacity="1" stroke-width="0.339" d="M 0.000226749 0.000256833 L 7.074723 0.000256833 " transform="matrix(0.946953, 0, 0, -0.946953, 273.519317, 18.539306)"/><path fill="none" stroke="rgb(0%, 0%, 0%)" stroke-linecap="butt" stroke-linejoin="miter" stroke-miterlimit="10" stroke-opacity="1" stroke-width="0.39848" d="M 55.171455 22.122724 L 104.371173 -24.020317 " transform="matrix(0.946953, 0, 0, -0.946953, 171.716138, 48.187472)"/><path fill="none" stroke="rgb(0%, 0%, 0%)" stroke-linecap="round" stroke-linejoin="round" stroke-miterlimit="10" stroke-opacity="1" stroke-width="0.39848" d="M -2.072486 2.389704 C -1.695297 0.956301 -0.85026 0.278367 -0.00115281 0.000133512 C -0.847718 -0.279145 -1.695343 -0.955303 -2.074105 -2.390718 " transform="matrix(0.690698, 0.647754, 0.647754, -0.690698, 270.68821, 71.063339)"/><path fill="none" stroke="rgb(0%, 0%, 0%)" stroke-linecap="butt" stroke-linejoin="miter" stroke-miterlimit="10" stroke-opacity="1" stroke-width="0.39848" d="M -64.991855 -24.292571 L -35.262471 21.784469 " transform="matrix(0.946953, 0, 0, -0.946953, 171.716138, 48.187472)"/><path fill="none" stroke="rgb(0%, 0%, 0%)" stroke-linecap="round" stroke-linejoin="round" stroke-miterlimit="10" stroke-opacity="1" stroke-width="0.39848" d="M -2.07318 2.391122 C -1.693076 0.95739 -0.848493 0.279898 0.000889466 -0.00175408 C -0.850046 -0.280761 -1.694374 -0.958067 -2.071731 -2.38958 " transform="matrix(0.513372, -0.795687, -0.795687, -0.513372, 138.427835, 27.398245)"/><g fill="rgb(0%, 0%, 0%)" fill-opacity="1"><use xlink:href="#fc5ed33a7fff635ab9f3a7086b3fe42756t9oz67__glyph-3-1" x="126.571078" y="56.388089"/></g><g fill="rgb(0%, 0%, 0%)" fill-opacity="1"><use xlink:href="#fc5ed33a7fff635ab9f3a7086b3fe42756t9oz67__glyph-4-0" x="133.27334" y="56.388089"/></g><g fill="rgb(0%, 0%, 0%)" fill-opacity="1"><use xlink:href="#fc5ed33a7fff635ab9f3a7086b3fe42756t9oz67__glyph-3-2" x="135.409029" y="56.388089"/></g><g fill="rgb(0%, 0%, 0%)" fill-opacity="1"><use xlink:href="#fc5ed33a7fff635ab9f3a7086b3fe42756t9oz67__glyph-4-1" x="141.42647" y="56.388089"/></g><path fill="none" stroke="rgb(0%, 0%, 0%)" stroke-linecap="butt" stroke-linejoin="miter" stroke-miterlimit="10" stroke-opacity="1" stroke-width="0.39848" d="M 112.699691 -24.292571 C 120.322821 3.275276 138.865014 20.893453 165.059213 26.722178 " transform="matrix(0.946953, 0, 0, -0.946953, 171.716138, 48.187472)"/><path fill="none" stroke="rgb(0%, 0%, 0%)" stroke-linecap="round" stroke-linejoin="round" stroke-miterlimit="10" stroke-opacity="1" stroke-width="0.39848" d="M -2.0706 2.392434 C -1.692859 0.956007 -0.850469 0.278349 0.000522207 0.000266958 C -0.85195 -0.27918 -1.691994 -0.958656 -2.074031 -2.390866 " transform="matrix(0.924293, -0.20564, -0.20564, -0.924293, 328.202697, 22.840198)"/><path fill="rgb(100%, 100%, 100%)" fill-opacity="1" fill-rule="nonzero" d="M 286.324219 44.640625 L 307.035156 44.640625 L 307.035156 33.972656 L 286.324219 33.972656 Z M 286.324219 44.640625 "/><g fill="rgb(0%, 0%, 0%)" fill-opacity="1"><use xlink:href="#fc5ed33a7fff635ab9f3a7086b3fe42756t9oz67__glyph-3-1" x="288.355236" y="40.957482"/></g><g fill="rgb(0%, 0%, 0%)" fill-opacity="1"><use xlink:href="#fc5ed33a7fff635ab9f3a7086b3fe42756t9oz67__glyph-4-0" x="295.057498" y="40.957482"/></g><g fill="rgb(0%, 0%, 0%)" fill-opacity="1"><use xlink:href="#fc5ed33a7fff635ab9f3a7086b3fe42756t9oz67__glyph-3-3" x="297.193188" y="40.957482"/></g><g fill="rgb(0%, 0%, 0%)" fill-opacity="1"><use xlink:href="#fc5ed33a7fff635ab9f3a7086b3fe42756t9oz67__glyph-4-1" x="302.866567" y="40.957482"/></g><path fill="none" stroke="rgb(0%, 0%, 0%)" stroke-linecap="butt" stroke-linejoin="miter" stroke-miterlimit="10" stroke-opacity="1" stroke-width="0.39848" d="M 118.025157 -28.731147 C 145.031995 -22.720919 163.570063 -5.098617 170.991065 21.739093 " transform="matrix(0.946953, 0, 0, -0.946953, 171.716138, 48.187472)"/><path fill="none" stroke="rgb(0%, 0%, 0%)" stroke-linecap="round" stroke-linejoin="round" stroke-miterlimit="10" stroke-opacity="1" stroke-width="0.39848" d="M -2.07334 2.388878 C -1.694542 0.957067 -0.848043 0.279477 -0.000414929 0.000247354 C -0.85223 -0.278094 -1.692147 -0.955474 -2.073866 -2.392134 " transform="matrix(0.252363, -0.912655, -0.912655, -0.252363, 333.68783, 27.421559)"/><g fill="rgb(0%, 0%, 0%)" fill-opacity="1"><use xlink:href="#fc5ed33a7fff635ab9f3a7086b3fe42756t9oz67__glyph-3-1" x="317.743937" y="66.021446"/></g><g fill="rgb(0%, 0%, 0%)" fill-opacity="1"><use xlink:href="#fc5ed33a7fff635ab9f3a7086b3fe42756t9oz67__glyph-4-0" x="324.446199" y="66.021446"/></g><g fill="rgb(0%, 0%, 0%)" fill-opacity="1"><use xlink:href="#fc5ed33a7fff635ab9f3a7086b3fe42756t9oz67__glyph-3-2" x="326.581888" y="66.021446"/></g><g fill="rgb(0%, 0%, 0%)" fill-opacity="1"><use xlink:href="#fc5ed33a7fff635ab9f3a7086b3fe42756t9oz67__glyph-4-1" x="332.599329" y="66.021446"/></g><path fill="none" stroke="rgb(0%, 0%, 0%)" stroke-linecap="butt" stroke-linejoin="miter" stroke-miterlimit="10" stroke-opacity="1" stroke-width="2.32874" d="M -64.818603 22.130974 L -55.227813 7.086842 " transform="matrix(0.946953, 0, 0, -0.946953, 171.716138, 48.187472)"/><path fill="none" stroke="rgb(100%, 100%, 100%)" stroke-linecap="butt" stroke-linejoin="miter" stroke-miterlimit="10" stroke-opacity="1" stroke-width="1.53175" d="M -64.818603 22.130974 L -55.227813 7.086842 " transform="matrix(0.946953, 0, 0, -0.946953, 171.716138, 48.187472)"/><path fill="none" stroke="rgb(0%, 0%, 0%)" stroke-linecap="round" stroke-linejoin="round" stroke-miterlimit="10" stroke-opacity="1" stroke-width="0.39848" d="M -1.292862 2.556388 C -0.665625 1.20739 1.02201 0.0482944 1.988873 -0.000603037 C 1.022878 -0.0501052 -0.666684 -1.203856 -1.29364 -2.555607 " transform="matrix(0.509035, 0.798443, 0.798443, -0.509035, 119.417763, 41.478098)"/><path fill="none" stroke="rgb(0%, 0%, 0%)" stroke-linecap="butt" stroke-linejoin="miter" stroke-miterlimit="10" stroke-opacity="1" stroke-width="2.32874" d="M 115.649116 24.259511 L 125.747289 15.048228 " transform="matrix(0.946953, 0, 0, -0.946953, 171.716138, 48.187472)"/><path fill="none" stroke="rgb(100%, 100%, 100%)" stroke-linecap="butt" stroke-linejoin="miter" stroke-miterlimit="10" stroke-opacity="1" stroke-width="1.53175" d="M 115.649116 24.259511 L 125.747289 15.048228 " transform="matrix(0.946953, 0, 0, -0.946953, 171.716138, 48.187472)"/><path fill="none" stroke="rgb(0%, 0%, 0%)" stroke-linecap="round" stroke-linejoin="round" stroke-miterlimit="10" stroke-opacity="1" stroke-width="0.39848" d="M -1.293401 2.559588 C -0.666548 1.205016 1.023639 0.0497505 1.98803 0.00247588 C 1.02213 -0.0465446 -0.666518 -1.207017 -1.292306 -2.55946 " transform="matrix(0.699609, 0.638086, 0.638086, -0.699609, 290.79117, 33.936324)"/><g clip-path="url(#fc5ed33a7fff635ab9f3a7086b3fe42756t9oz67__clip-0)"><path fill="none" stroke="rgb(0%, 0%, 0%)" stroke-linecap="butt" stroke-linejoin="miter" stroke-miterlimit="10" stroke-opacity="1" stroke-width="2.32874" d="M 136.348721 4.830428 L 145.964261 -5.139868 " transform="matrix(0.946953, 0, 0, -0.946953, 171.716138, 48.187472)"/></g><path fill="none" stroke="rgb(100%, 100%, 100%)" stroke-linecap="butt" stroke-linejoin="miter" stroke-miterlimit="10" stroke-opacity="1" stroke-width="1.53175" d="M 136.348721 4.830428 L 145.964261 -5.139868 " transform="matrix(0.946953, 0, 0, -0.946953, 171.716138, 48.187472)"/><path fill="none" stroke="rgb(0%, 0%, 0%)" stroke-linecap="round" stroke-linejoin="round" stroke-miterlimit="10" stroke-opacity="1" stroke-width="0.39848" d="M -1.294019 2.555566 C -0.665612 1.204522 1.021218 0.0477161 1.987786 -0.00185727 C 1.02291 -0.0456109 -0.665622 -1.208193 -1.29172 -2.558647 " transform="matrix(0.657328, 0.681608, 0.681608, -0.657328, 309.936827, 53.054045)"/><g fill="rgb(0%, 0%, 0%)" fill-opacity="1"><use xlink:href="#fc5ed33a7fff635ab9f3a7086b3fe42756t9oz67__glyph-5-0" x="308.320803" y="45.57388"/></g><g fill="rgb(0%, 0%, 0%)" fill-opacity="1"><use xlink:href="#fc5ed33a7fff635ab9f3a7086b3fe42756t9oz67__glyph-4-2" x="312.592183" y="45.57388"/></g><g fill="rgb(0%, 0%, 0%)" fill-opacity="1"><use xlink:href="#fc5ed33a7fff635ab9f3a7086b3fe42756t9oz67__glyph-3-0" x="314.727872" y="45.57388"/></g><g fill="rgb(0%, 0%, 0%)" fill-opacity="1"><use xlink:href="#fc5ed33a7fff635ab9f3a7086b3fe42756t9oz67__glyph-6-0" x="318.186164" y="46.57481"/></g></svg>