<?xml version="1.0" encoding="UTF-8"?><svg xmlns="http://www.w3.org/2000/svg" xmlns:xlink="http://www.w3.org/1999/xlink" width="343.711" height="84.085" viewBox="0 0 343.711 84.085"><defs><g><g id="791f656d8648ae2a34979ec62ea4ad573irbz37j__glyph-0-0"><path d="M 2.21875 -1.546875 C 2.21875 -1.9375 2.203125 -2.3125 2.03125 -2.671875 C 1.8125 -3.140625 1.40625 -3.21875 1.203125 -3.21875 C 0.921875 -3.21875 0.5625 -3.09375 0.359375 -2.640625 C 0.21875 -2.3125 0.1875 -1.9375 0.1875 -1.546875 C 0.1875 -1.1875 0.203125 -0.75 0.40625 -0.375 C 0.609375 0.015625 0.96875 0.109375 1.203125 0.109375 C 1.46875 0.109375 1.828125 0 2.046875 -0.453125 C 2.203125 -0.78125 2.21875 -1.15625 2.21875 -1.546875 Z M 1.203125 0 C 1.015625 0 0.734375 -0.125 0.640625 -0.578125 C 0.59375 -0.875 0.59375 -1.3125 0.59375 -1.609375 C 0.59375 -1.90625 0.59375 -2.234375 0.625 -2.484375 C 0.71875 -3.0625 1.078125 -3.109375 1.203125 -3.109375 C 1.359375 -3.109375 1.6875 -3.015625 1.765625 -2.546875 C 1.8125 -2.28125 1.8125 -1.90625 1.8125 -1.609375 C 1.8125 -1.234375 1.8125 -0.90625 1.765625 -0.609375 C 1.6875 -0.140625 1.421875 0 1.203125 0 Z M 1.203125 0 "/></g><g id="791f656d8648ae2a34979ec62ea4ad573irbz37j__glyph-0-1"><path d="M 0.515625 -0.359375 C 0.515625 -0.15625 0.453125 -0.15625 0.140625 -0.15625 L 0.140625 0 C 0.296875 0 0.515625 -0.015625 0.65625 -0.015625 C 0.8125 -0.015625 1 -0.015625 1.1875 0 L 1.1875 -0.15625 C 0.875 -0.15625 0.8125 -0.15625 0.8125 -0.359375 L 0.8125 -0.859375 L 1.125 -1.125 C 1.5 -0.625 1.703125 -0.34375 1.703125 -0.265625 C 1.703125 -0.171875 1.625 -0.15625 1.53125 -0.15625 L 1.53125 0 C 1.65625 0 1.953125 -0.015625 2.046875 -0.015625 C 2.1875 -0.015625 2.328125 -0.015625 2.46875 0 L 2.46875 -0.15625 C 2.28125 -0.15625 2.1875 -0.15625 2 -0.40625 L 1.390625 -1.265625 C 1.375 -1.28125 1.359375 -1.3125 1.359375 -1.328125 C 1.359375 -1.34375 1.703125 -1.625 1.75 -1.671875 C 2.046875 -1.921875 2.25 -1.921875 2.359375 -1.9375 L 2.359375 -2.078125 C 2.21875 -2.0625 2.15625 -2.0625 2.015625 -2.0625 C 1.84375 -2.0625 1.546875 -2.078125 1.484375 -2.078125 L 1.484375 -1.9375 C 1.5625 -1.921875 1.625 -1.875 1.625 -1.8125 C 1.625 -1.71875 1.546875 -1.65625 1.515625 -1.625 L 0.828125 -1.03125 L 0.828125 -3.34375 L 0.140625 -3.296875 L 0.140625 -3.140625 C 0.46875 -3.140625 0.515625 -3.109375 0.515625 -2.875 Z M 0.515625 -0.359375 "/></g><g id="791f656d8648ae2a34979ec62ea4ad573irbz37j__glyph-0-2"><path d="M 0.546875 -1.21875 C 0.5625 -1.9375 0.96875 -2.0625 1.140625 -2.0625 C 1.640625 -2.0625 1.6875 -1.40625 1.6875 -1.21875 Z M 0.53125 -1.109375 L 1.890625 -1.109375 C 1.984375 -1.109375 2 -1.109375 2 -1.21875 C 2 -1.6875 1.75 -2.15625 1.140625 -2.15625 C 0.578125 -2.15625 0.140625 -1.671875 0.140625 -1.0625 C 0.140625 -0.421875 0.640625 0.046875 1.203125 0.046875 C 1.78125 0.046875 2 -0.484375 2 -0.578125 C 2 -0.625 1.96875 -0.625 1.9375 -0.625 C 1.890625 -0.625 1.890625 -0.609375 1.875 -0.5625 C 1.703125 -0.0625 1.28125 -0.0625 1.21875 -0.0625 C 0.984375 -0.0625 0.796875 -0.21875 0.6875 -0.390625 C 0.53125 -0.625 0.53125 -0.9375 0.53125 -1.109375 Z M 0.53125 -1.109375 "/></g><g id="791f656d8648ae2a34979ec62ea4ad573irbz37j__glyph-0-3"><path d="M 0.8125 -1.609375 L 0.8125 -2.140625 L 0.140625 -2.078125 L 0.140625 -1.9375 C 0.46875 -1.9375 0.515625 -1.890625 0.515625 -1.65625 L 0.515625 -0.359375 C 0.515625 -0.15625 0.453125 -0.15625 0.140625 -0.15625 L 0.140625 0 C 0.328125 0 0.546875 -0.015625 0.6875 -0.015625 C 0.875 -0.015625 1.109375 -0.015625 1.296875 0 L 1.296875 -0.15625 L 1.203125 -0.15625 C 0.84375 -0.15625 0.828125 -0.203125 0.828125 -0.375 L 0.828125 -1.125 C 0.828125 -1.59375 1.03125 -2.03125 1.40625 -2.03125 C 1.4375 -2.03125 1.4375 -2.03125 1.453125 -2.015625 C 1.4375 -2.015625 1.34375 -1.953125 1.34375 -1.828125 C 1.34375 -1.703125 1.4375 -1.625 1.546875 -1.625 C 1.640625 -1.625 1.75 -1.6875 1.75 -1.84375 C 1.75 -2 1.609375 -2.140625 1.40625 -2.140625 C 1.046875 -2.140625 0.875 -1.8125 0.8125 -1.609375 Z M 0.8125 -1.609375 "/></g><g id="791f656d8648ae2a34979ec62ea4ad573irbz37j__glyph-0-4"><path d="M 3.3125 -1.578125 C 3.390625 -1.578125 3.484375 -1.578125 3.484375 -1.671875 C 3.484375 -1.765625 3.390625 -1.765625 3.328125 -1.765625 L 0.4375 -1.765625 C 0.359375 -1.765625 0.265625 -1.765625 0.265625 -1.671875 C 0.265625 -1.578125 0.359375 -1.578125 0.4375 -1.578125 Z M 3.328125 -0.640625 C 3.390625 -0.640625 3.484375 -0.640625 3.484375 -0.734375 C 3.484375 -0.828125 3.390625 -0.828125 3.3125 -0.828125 L 0.4375 -0.828125 C 0.359375 -0.828125 0.265625 -0.828125 0.265625 -0.734375 C 0.265625 -0.640625 0.359375 -0.640625 0.4375 -0.640625 Z M 3.328125 -0.640625 "/></g><g id="791f656d8648ae2a34979ec62ea4ad573irbz37j__glyph-0-5"><path d="M 0.859375 -2.140625 L 0.171875 -2.078125 L 0.171875 -1.9375 C 0.5 -1.9375 0.53125 -1.90625 0.53125 -1.671875 L 0.53125 -0.359375 C 0.53125 -0.15625 0.484375 -0.15625 0.15625 -0.15625 L 0.15625 0 C 0.3125 0 0.578125 -0.015625 0.6875 -0.015625 C 0.859375 -0.015625 1.03125 0 1.1875 0 L 1.1875 -0.15625 C 0.875 -0.15625 0.859375 -0.171875 0.859375 -0.359375 Z M 0.875 -2.96875 C 0.875 -3.125 0.75 -3.234375 0.625 -3.234375 C 0.46875 -3.234375 0.359375 -3.09375 0.359375 -2.96875 C 0.359375 -2.84375 0.46875 -2.71875 0.625 -2.71875 C 0.75 -2.71875 0.875 -2.8125 0.875 -2.96875 Z M 0.875 -2.96875 "/></g><g id="791f656d8648ae2a34979ec62ea4ad573irbz37j__glyph-0-6"><path d="M 0.53125 -1.65625 L 0.53125 -0.359375 C 0.53125 -0.15625 0.484375 -0.15625 0.15625 -0.15625 L 0.15625 0 C 0.328125 0 0.5625 -0.015625 0.703125 -0.015625 C 0.828125 -0.015625 1.078125 0 1.234375 0 L 1.234375 -0.15625 C 0.921875 -0.15625 0.859375 -0.15625 0.859375 -0.359375 L 0.859375 -1.25 C 0.859375 -1.75 1.203125 -2.03125 1.515625 -2.03125 C 1.8125 -2.03125 1.875 -1.765625 1.875 -1.484375 L 1.875 -0.359375 C 1.875 -0.15625 1.8125 -0.15625 1.5 -0.15625 L 1.5 0 C 1.671875 0 1.90625 -0.015625 2.046875 -0.015625 C 2.171875 -0.015625 2.421875 0 2.578125 0 L 2.578125 -0.15625 C 2.265625 -0.15625 2.203125 -0.15625 2.203125 -0.359375 L 2.203125 -1.25 C 2.203125 -1.75 2.546875 -2.03125 2.859375 -2.03125 C 3.15625 -2.03125 3.21875 -1.765625 3.21875 -1.484375 L 3.21875 -0.359375 C 3.21875 -0.15625 3.15625 -0.15625 2.84375 -0.15625 L 2.84375 0 C 3.015625 0 3.25 -0.015625 3.390625 -0.015625 C 3.515625 -0.015625 3.765625 0 3.921875 0 L 3.921875 -0.15625 C 3.671875 -0.15625 3.546875 -0.15625 3.546875 -0.296875 L 3.546875 -1.21875 C 3.546875 -1.625 3.546875 -1.78125 3.40625 -1.953125 C 3.328125 -2.03125 3.171875 -2.140625 2.890625 -2.140625 C 2.484375 -2.140625 2.28125 -1.84375 2.1875 -1.65625 C 2.125 -2.078125 1.765625 -2.140625 1.546875 -2.140625 C 1.203125 -2.140625 0.96875 -1.921875 0.828125 -1.625 L 0.828125 -2.140625 L 0.15625 -2.078125 L 0.15625 -1.9375 C 0.5 -1.9375 0.53125 -1.890625 0.53125 -1.65625 Z M 0.53125 -1.65625 "/></g><g id="791f656d8648ae2a34979ec62ea4ad573irbz37j__glyph-0-7"><path d="M 1.59375 1.15625 C 1.59375 1.140625 1.59375 1.140625 1.515625 1.046875 C 0.90625 0.4375 0.765625 -0.46875 0.765625 -1.203125 C 0.765625 -2.046875 0.9375 -2.890625 1.53125 -3.484375 C 1.59375 -3.546875 1.59375 -3.5625 1.59375 -3.578125 C 1.59375 -3.609375 1.578125 -3.625 1.546875 -3.625 C 1.5 -3.625 1.0625 -3.296875 0.78125 -2.671875 C 0.53125 -2.15625 0.484375 -1.609375 0.484375 -1.203125 C 0.484375 -0.828125 0.53125 -0.25 0.796875 0.296875 C 1.09375 0.890625 1.5 1.203125 1.546875 1.203125 C 1.578125 1.203125 1.59375 1.1875 1.59375 1.15625 Z M 1.59375 1.15625 "/></g><g id="791f656d8648ae2a34979ec62ea4ad573irbz37j__glyph-0-8"><path d="M 1.390625 -1.203125 C 1.390625 -1.578125 1.34375 -2.171875 1.078125 -2.71875 C 0.78125 -3.3125 0.375 -3.625 0.328125 -3.625 C 0.296875 -3.625 0.28125 -3.609375 0.28125 -3.578125 C 0.28125 -3.5625 0.28125 -3.546875 0.359375 -3.46875 C 0.84375 -2.984375 1.109375 -2.21875 1.109375 -1.203125 C 1.109375 -0.375 0.9375 0.46875 0.34375 1.078125 C 0.28125 1.140625 0.28125 1.140625 0.28125 1.15625 C 0.28125 1.1875 0.296875 1.203125 0.328125 1.203125 C 0.375 1.203125 0.8125 0.875 1.09375 0.265625 C 1.34375 -0.265625 1.390625 -0.796875 1.390625 -1.203125 Z M 1.390625 -1.203125 "/></g><g id="791f656d8648ae2a34979ec62ea4ad573irbz37j__glyph-1-0"><path d="M 1.921875 -3.015625 C 1.921875 -3.109375 1.84375 -3.1875 1.734375 -3.1875 C 1.625 -3.1875 1.484375 -3.078125 1.484375 -2.9375 C 1.484375 -2.84375 1.546875 -2.765625 1.65625 -2.765625 C 1.78125 -2.765625 1.921875 -2.890625 1.921875 -3.015625 Z M 0.953125 0.234375 C 0.859375 0.609375 0.625 0.890625 0.359375 0.890625 C 0.328125 0.890625 0.25 0.890625 0.171875 0.84375 C 0.3125 0.8125 0.375 0.6875 0.375 0.578125 C 0.375 0.5 0.328125 0.421875 0.203125 0.421875 C 0.078125 0.421875 -0.0625 0.515625 -0.0625 0.6875 C -0.0625 0.890625 0.125 0.984375 0.359375 0.984375 C 0.703125 0.984375 1.15625 0.734375 1.265625 0.25 L 1.71875 -1.515625 C 1.734375 -1.609375 1.734375 -1.671875 1.734375 -1.6875 C 1.734375 -1.96875 1.53125 -2.140625 1.296875 -2.140625 C 0.796875 -2.140625 0.53125 -1.4375 0.53125 -1.390625 C 0.53125 -1.34375 0.578125 -1.34375 0.578125 -1.34375 C 0.625 -1.34375 0.625 -1.34375 0.671875 -1.4375 C 0.796875 -1.734375 1.015625 -2.03125 1.28125 -2.03125 C 1.34375 -2.03125 1.4375 -2.015625 1.4375 -1.8125 C 1.4375 -1.6875 1.421875 -1.640625 1.40625 -1.5625 Z M 0.953125 0.234375 "/></g><g id="791f656d8648ae2a34979ec62ea4ad573irbz37j__glyph-1-1"><path d="M 1.28125 -2.109375 C 0.671875 -1.96875 0.203125 -1.34375 0.203125 -0.75 C 0.203125 -0.296875 0.515625 0.0625 0.96875 0.0625 C 1.53125 0.0625 1.9375 -0.703125 1.9375 -1.359375 C 1.9375 -1.8125 1.734375 -2.046875 1.578125 -2.265625 C 1.40625 -2.484375 1.109375 -2.84375 1.109375 -3.0625 C 1.109375 -3.15625 1.21875 -3.28125 1.375 -3.28125 C 1.53125 -3.28125 1.625 -3.21875 1.71875 -3.140625 C 1.8125 -3.09375 1.921875 -3.03125 1.984375 -3.03125 C 2.109375 -3.03125 2.1875 -3.140625 2.1875 -3.21875 C 2.1875 -3.328125 2.109375 -3.34375 1.9375 -3.375 C 1.6875 -3.4375 1.609375 -3.4375 1.53125 -3.4375 C 1.15625 -3.4375 0.984375 -3.21875 0.984375 -2.9375 C 0.984375 -2.671875 1.125 -2.40625 1.28125 -2.109375 Z M 1.328125 -2 C 1.453125 -1.78125 1.59375 -1.515625 1.59375 -1.171875 C 1.59375 -0.859375 1.421875 -0.046875 0.96875 -0.046875 C 0.703125 -0.046875 0.5 -0.25 0.5 -0.625 C 0.5 -0.921875 0.6875 -1.828125 1.328125 -2 Z M 1.328125 -2 "/></g><g id="791f656d8648ae2a34979ec62ea4ad573irbz37j__glyph-1-2"><path d="M 3.6875 -2.921875 C 3.734375 -3.09375 3.734375 -3.140625 4.09375 -3.140625 C 4.21875 -3.140625 4.25 -3.140625 4.25 -3.25 C 4.25 -3.296875 4.203125 -3.296875 4.1875 -3.296875 C 4.046875 -3.296875 3.703125 -3.28125 3.5625 -3.28125 C 3.421875 -3.28125 3.078125 -3.296875 2.9375 -3.296875 C 2.90625 -3.296875 2.859375 -3.296875 2.859375 -3.203125 C 2.859375 -3.140625 2.890625 -3.140625 2.984375 -3.140625 C 3 -3.140625 3.09375 -3.140625 3.171875 -3.140625 C 3.265625 -3.125 3.296875 -3.125 3.296875 -3.0625 C 3.296875 -3.046875 3.296875 -3.03125 3.28125 -2.96875 L 3 -1.796875 L 1.515625 -1.796875 L 1.8125 -2.921875 C 1.84375 -3.09375 1.859375 -3.140625 2.21875 -3.140625 C 2.34375 -3.140625 2.375 -3.140625 2.375 -3.25 C 2.375 -3.296875 2.328125 -3.296875 2.3125 -3.296875 C 2.171875 -3.296875 1.828125 -3.28125 1.6875 -3.28125 C 1.546875 -3.28125 1.203125 -3.296875 1.0625 -3.296875 C 1.03125 -3.296875 0.96875 -3.296875 0.96875 -3.203125 C 0.96875 -3.140625 1.015625 -3.140625 1.109375 -3.140625 C 1.125 -3.140625 1.21875 -3.140625 1.296875 -3.140625 C 1.375 -3.125 1.421875 -3.125 1.421875 -3.0625 C 1.421875 -3.046875 1.421875 -3.03125 1.40625 -2.96875 L 0.765625 -0.375 C 0.703125 -0.1875 0.703125 -0.15625 0.3125 -0.15625 C 0.234375 -0.15625 0.1875 -0.15625 0.1875 -0.046875 C 0.1875 0 0.25 0 0.25 0 C 0.390625 0 0.734375 -0.015625 0.875 -0.015625 C 0.96875 -0.015625 1.078125 -0.015625 1.171875 -0.015625 C 1.28125 -0.015625 1.390625 0 1.484375 0 C 1.53125 0 1.59375 0 1.59375 -0.09375 C 1.59375 -0.15625 1.546875 -0.15625 1.453125 -0.15625 C 1.28125 -0.15625 1.140625 -0.15625 1.140625 -0.234375 C 1.140625 -0.265625 1.15625 -0.296875 1.15625 -0.3125 L 1.484375 -1.640625 L 2.953125 -1.640625 C 2.75 -0.84375 2.640625 -0.375 2.625 -0.3125 C 2.578125 -0.15625 2.484375 -0.15625 2.1875 -0.15625 C 2.109375 -0.15625 2.0625 -0.15625 2.0625 -0.046875 C 2.0625 0 2.125 0 2.140625 0 C 2.265625 0 2.609375 -0.015625 2.75 -0.015625 C 2.84375 -0.015625 2.953125 -0.015625 3.0625 -0.015625 C 3.15625 -0.015625 3.265625 0 3.375 0 C 3.40625 0 3.46875 0 3.46875 -0.09375 C 3.46875 -0.15625 3.421875 -0.15625 3.328125 -0.15625 C 3.15625 -0.15625 3.015625 -0.15625 3.015625 -0.234375 C 3.015625 -0.265625 3.03125 -0.296875 3.03125 -0.3125 Z M 3.6875 -2.921875 "/></g><g id="791f656d8648ae2a34979ec62ea4ad573irbz37j__glyph-1-3"><path d="M 2.34375 -1.984375 L 1.9375 -2.9375 C 1.921875 -2.984375 1.90625 -3 1.90625 -3.015625 C 1.90625 -3.03125 2 -3.125 2.203125 -3.140625 C 2.25 -3.15625 2.296875 -3.15625 2.296875 -3.234375 C 2.296875 -3.296875 2.234375 -3.296875 2.21875 -3.296875 C 2.015625 -3.296875 1.8125 -3.28125 1.609375 -3.28125 C 1.484375 -3.28125 1.1875 -3.296875 1.078125 -3.296875 C 1.046875 -3.296875 0.984375 -3.296875 0.984375 -3.203125 C 0.984375 -3.140625 1.03125 -3.140625 1.09375 -3.140625 C 1.390625 -3.140625 1.421875 -3.09375 1.453125 -3 L 2.03125 -1.640625 L 1.015625 -0.546875 L 0.953125 -0.5 C 0.703125 -0.234375 0.484375 -0.171875 0.234375 -0.15625 C 0.171875 -0.140625 0.125 -0.140625 0.125 -0.046875 C 0.125 -0.046875 0.125 0 0.1875 0 C 0.34375 0 0.5 -0.015625 0.640625 -0.015625 C 0.828125 -0.015625 1.015625 0 1.1875 0 C 1.21875 0 1.28125 0 1.28125 -0.09375 C 1.28125 -0.140625 1.21875 -0.15625 1.21875 -0.15625 C 1.171875 -0.15625 1.03125 -0.171875 1.03125 -0.296875 C 1.03125 -0.375 1.09375 -0.453125 1.15625 -0.515625 L 1.640625 -1.03125 L 2.078125 -1.515625 L 2.5625 -0.359375 C 2.59375 -0.296875 2.59375 -0.296875 2.59375 -0.296875 C 2.59375 -0.25 2.5 -0.171875 2.3125 -0.15625 C 2.265625 -0.140625 2.21875 -0.140625 2.21875 -0.0625 C 2.21875 0 2.265625 0 2.28125 0 C 2.421875 0 2.765625 -0.015625 2.890625 -0.015625 C 3.015625 -0.015625 3.3125 0 3.4375 0 C 3.46875 0 3.53125 0 3.53125 -0.09375 C 3.53125 -0.15625 3.46875 -0.15625 3.4375 -0.15625 C 3.109375 -0.15625 3.109375 -0.171875 3.015625 -0.359375 C 2.828125 -0.8125 2.515625 -1.5625 2.40625 -1.859375 C 2.734375 -2.1875 3.234375 -2.765625 3.390625 -2.90625 C 3.53125 -3.015625 3.71875 -3.140625 4 -3.140625 C 4.0625 -3.15625 4.109375 -3.15625 4.109375 -3.25 C 4.109375 -3.25 4.109375 -3.296875 4.046875 -3.296875 C 3.90625 -3.296875 3.734375 -3.28125 3.59375 -3.28125 C 3.40625 -3.28125 3.234375 -3.296875 3.0625 -3.296875 C 3.03125 -3.296875 2.96875 -3.296875 2.96875 -3.203125 C 2.96875 -3.171875 2.984375 -3.15625 3.015625 -3.140625 C 3.0625 -3.140625 3.21875 -3.140625 3.21875 -3 C 3.21875 -2.9375 3.15625 -2.875 3.125 -2.828125 Z M 2.34375 -1.984375 "/></g><g id="791f656d8648ae2a34979ec62ea4ad573irbz37j__glyph-1-4"><path d="M 3.109375 -3.359375 C 3.109375 -3.375 3.109375 -3.40625 3.0625 -3.40625 C 3.03125 -3.40625 3.03125 -3.40625 2.96875 -3.328125 L 2.75 -3.0625 C 2.609375 -3.28125 2.359375 -3.40625 2.046875 -3.40625 C 1.4375 -3.40625 0.859375 -2.84375 0.859375 -2.265625 C 0.859375 -1.875 1.109375 -1.65625 1.359375 -1.578125 L 1.875 -1.4375 C 2.0625 -1.40625 2.328125 -1.328125 2.328125 -0.9375 C 2.328125 -0.5 1.921875 -0.046875 1.453125 -0.046875 C 1.140625 -0.046875 0.609375 -0.15625 0.609375 -0.75 C 0.609375 -0.859375 0.625 -0.984375 0.640625 -1.015625 C 0.640625 -1.03125 0.640625 -1.03125 0.640625 -1.046875 C 0.640625 -1.09375 0.609375 -1.09375 0.59375 -1.09375 C 0.5625 -1.09375 0.5625 -1.09375 0.546875 -1.078125 C 0.515625 -1.0625 0.25 0.046875 0.25 0.0625 C 0.25 0.09375 0.28125 0.109375 0.296875 0.109375 C 0.328125 0.109375 0.328125 0.09375 0.390625 0.03125 L 0.625 -0.234375 C 0.828125 0.03125 1.15625 0.109375 1.4375 0.109375 C 2.09375 0.109375 2.671875 -0.53125 2.671875 -1.140625 C 2.671875 -1.46875 2.5 -1.625 2.4375 -1.703125 C 2.328125 -1.8125 2.25 -1.828125 1.8125 -1.9375 C 1.71875 -1.96875 1.546875 -2.015625 1.5 -2.03125 C 1.359375 -2.078125 1.203125 -2.21875 1.203125 -2.46875 C 1.203125 -2.859375 1.59375 -3.265625 2.046875 -3.265625 C 2.453125 -3.265625 2.75 -3.0625 2.75 -2.515625 C 2.75 -2.359375 2.71875 -2.28125 2.71875 -2.25 C 2.71875 -2.25 2.71875 -2.203125 2.78125 -2.203125 C 2.828125 -2.203125 2.828125 -2.21875 2.859375 -2.296875 Z M 3.109375 -3.359375 "/></g><g id="791f656d8648ae2a34979ec62ea4ad573irbz37j__glyph-1-5"><path d="M 1.375 -3.015625 C 1.375 -3.109375 1.296875 -3.1875 1.1875 -3.1875 C 1.0625 -3.1875 0.9375 -3.0625 0.9375 -2.9375 C 0.9375 -2.84375 1 -2.765625 1.109375 -2.765625 C 1.21875 -2.765625 1.375 -2.875 1.375 -3.015625 Z M 1 -1.203125 C 1.0625 -1.34375 1.0625 -1.359375 1.109375 -1.484375 C 1.15625 -1.578125 1.171875 -1.640625 1.171875 -1.734375 C 1.171875 -1.953125 1.015625 -2.140625 0.78125 -2.140625 C 0.328125 -2.140625 0.140625 -1.4375 0.140625 -1.390625 C 0.140625 -1.34375 0.1875 -1.34375 0.203125 -1.34375 C 0.25 -1.34375 0.25 -1.359375 0.28125 -1.421875 C 0.40625 -1.890625 0.59375 -2.03125 0.765625 -2.03125 C 0.796875 -2.03125 0.890625 -2.03125 0.890625 -1.875 C 0.890625 -1.765625 0.84375 -1.671875 0.828125 -1.625 C 0.796875 -1.5 0.578125 -0.9375 0.5 -0.734375 C 0.453125 -0.609375 0.390625 -0.4375 0.390625 -0.34375 C 0.390625 -0.109375 0.546875 0.046875 0.78125 0.046875 C 1.234375 0.046875 1.421875 -0.640625 1.421875 -0.6875 C 1.421875 -0.734375 1.375 -0.734375 1.359375 -0.734375 C 1.3125 -0.734375 1.3125 -0.71875 1.28125 -0.65625 C 1.203125 -0.34375 1.03125 -0.046875 0.796875 -0.046875 C 0.703125 -0.046875 0.671875 -0.09375 0.671875 -0.21875 C 0.671875 -0.328125 0.703125 -0.40625 0.8125 -0.6875 Z M 1 -1.203125 "/></g><g id="791f656d8648ae2a34979ec62ea4ad573irbz37j__glyph-2-0"><path d="M 1.09375 -0.84375 C 1.359375 -0.96875 1.484375 -1.015625 1.578125 -1.046875 C 1.640625 -1.078125 1.671875 -1.09375 1.671875 -1.15625 C 1.671875 -1.21875 1.625 -1.265625 1.5625 -1.265625 C 1.546875 -1.265625 1.53125 -1.265625 1.5 -1.234375 L 1.03125 -0.921875 L 1.09375 -1.421875 C 1.09375 -1.484375 1.09375 -1.5625 0.984375 -1.5625 C 0.9375 -1.5625 0.875 -1.546875 0.875 -1.46875 C 0.875 -1.4375 0.890625 -1.34375 0.890625 -1.296875 C 0.90625 -1.25 0.921875 -1 0.9375 -0.921875 L 0.484375 -1.234375 C 0.453125 -1.25 0.4375 -1.265625 0.40625 -1.265625 C 0.34375 -1.265625 0.296875 -1.21875 0.296875 -1.15625 C 0.296875 -1.09375 0.34375 -1.0625 0.375 -1.0625 L 0.875 -0.84375 C 0.609375 -0.71875 0.484375 -0.671875 0.390625 -0.640625 C 0.328125 -0.609375 0.296875 -0.59375 0.296875 -0.53125 C 0.296875 -0.46875 0.34375 -0.421875 0.40625 -0.421875 C 0.421875 -0.421875 0.4375 -0.421875 0.46875 -0.453125 L 0.9375 -0.765625 L 0.875 -0.21875 C 0.875 -0.140625 0.9375 -0.109375 0.984375 -0.109375 C 1.03125 -0.109375 1.09375 -0.140625 1.09375 -0.21875 C 1.09375 -0.25 1.078125 -0.34375 1.078125 -0.375 C 1.0625 -0.4375 1.046875 -0.6875 1.03125 -0.765625 L 1.4375 -0.484375 C 1.53125 -0.421875 1.53125 -0.421875 1.5625 -0.421875 C 1.625 -0.421875 1.671875 -0.46875 1.671875 -0.53125 C 1.671875 -0.59375 1.625 -0.609375 1.59375 -0.625 Z M 1.09375 -0.84375 "/></g><g id="791f656d8648ae2a34979ec62ea4ad573irbz37j__glyph-2-1"><path d="M 2.515625 -0.765625 C 2.5625 -0.765625 2.640625 -0.765625 2.640625 -0.84375 C 2.640625 -0.921875 2.5625 -0.921875 2.515625 -0.921875 L 0.5 -0.921875 C 0.453125 -0.921875 0.359375 -0.921875 0.359375 -0.84375 C 0.359375 -0.765625 0.4375 -0.765625 0.5 -0.765625 Z M 2.515625 -0.765625 "/></g><g id="791f656d8648ae2a34979ec62ea4ad573irbz37j__glyph-3-0"><path d="M 0.40625 -0.21875 C 0.390625 -0.171875 0.375 -0.078125 0.375 -0.078125 C 0.375 0 0.4375 0.03125 0.5 0.03125 C 0.546875 0.03125 0.609375 -0.015625 0.625 -0.046875 C 0.640625 -0.078125 0.671875 -0.171875 0.6875 -0.25 C 0.703125 -0.3125 0.734375 -0.46875 0.765625 -0.546875 C 0.78125 -0.625 0.796875 -0.703125 0.8125 -0.78125 C 0.859375 -0.921875 0.859375 -0.9375 0.953125 -1.078125 C 1.046875 -1.21875 1.21875 -1.390625 1.46875 -1.390625 C 1.65625 -1.390625 1.65625 -1.21875 1.65625 -1.15625 C 1.65625 -0.953125 1.515625 -0.578125 1.46875 -0.4375 C 1.421875 -0.34375 1.421875 -0.3125 1.421875 -0.25 C 1.421875 -0.078125 1.5625 0.03125 1.734375 0.03125 C 2.078125 0.03125 2.21875 -0.4375 2.21875 -0.484375 C 2.21875 -0.53125 2.171875 -0.53125 2.171875 -0.53125 C 2.125 -0.53125 2.109375 -0.5 2.109375 -0.46875 C 2.03125 -0.203125 1.875 -0.0625 1.75 -0.0625 C 1.671875 -0.0625 1.65625 -0.109375 1.65625 -0.171875 C 1.65625 -0.25 1.671875 -0.296875 1.734375 -0.453125 C 1.78125 -0.5625 1.921875 -0.921875 1.921875 -1.109375 C 1.921875 -1.4375 1.65625 -1.484375 1.484375 -1.484375 C 1.203125 -1.484375 1.015625 -1.3125 0.90625 -1.1875 C 0.890625 -1.421875 0.6875 -1.484375 0.546875 -1.484375 C 0.40625 -1.484375 0.328125 -1.390625 0.28125 -1.3125 C 0.203125 -1.1875 0.15625 -0.984375 0.15625 -0.96875 C 0.15625 -0.921875 0.203125 -0.921875 0.21875 -0.921875 C 0.265625 -0.921875 0.265625 -0.9375 0.296875 -1.03125 C 0.34375 -1.234375 0.40625 -1.390625 0.53125 -1.390625 C 0.625 -1.390625 0.640625 -1.3125 0.640625 -1.234375 C 0.640625 -1.171875 0.625 -1.046875 0.59375 -0.953125 C 0.578125 -0.859375 0.53125 -0.71875 0.515625 -0.640625 Z M 0.40625 -0.21875 "/></g><g id="791f656d8648ae2a34979ec62ea4ad573irbz37j__glyph-3-1"><path d="M 1.484375 -2.109375 C 1.484375 -2.171875 1.4375 -2.234375 1.34375 -2.234375 C 1.25 -2.234375 1.15625 -2.140625 1.15625 -2.046875 C 1.15625 -2 1.203125 -1.921875 1.296875 -1.921875 C 1.390625 -1.921875 1.484375 -2.015625 1.484375 -2.109375 Z M 0.765625 0.171875 C 0.703125 0.390625 0.53125 0.59375 0.328125 0.59375 C 0.28125 0.59375 0.25 0.59375 0.203125 0.578125 C 0.296875 0.53125 0.328125 0.453125 0.328125 0.40625 C 0.328125 0.328125 0.265625 0.28125 0.1875 0.28125 C 0.09375 0.28125 0 0.375 0 0.46875 C 0 0.609375 0.125 0.6875 0.328125 0.6875 C 0.53125 0.6875 0.9375 0.5625 1.03125 0.15625 L 1.34375 -1.046875 C 1.34375 -1.09375 1.359375 -1.125 1.359375 -1.171875 C 1.359375 -1.359375 1.203125 -1.484375 1 -1.484375 C 0.625 -1.484375 0.40625 -1.015625 0.40625 -0.96875 C 0.40625 -0.921875 0.453125 -0.921875 0.46875 -0.921875 C 0.5 -0.921875 0.5 -0.9375 0.53125 -0.984375 C 0.609375 -1.1875 0.796875 -1.390625 0.984375 -1.390625 C 1.0625 -1.390625 1.09375 -1.34375 1.09375 -1.234375 C 1.09375 -1.1875 1.09375 -1.140625 1.09375 -1.125 Z M 0.765625 0.171875 "/></g><g id="791f656d8648ae2a34979ec62ea4ad573irbz37j__glyph-3-2"><path d="M 1 -1.46875 C 0.484375 -1.34375 0.203125 -0.90625 0.203125 -0.546875 C 0.203125 -0.1875 0.484375 0.046875 0.8125 0.046875 C 1.21875 0.046875 1.53125 -0.4375 1.53125 -0.9375 C 1.53125 -1.265625 1.359375 -1.453125 1.265625 -1.5625 C 1.140625 -1.703125 0.875 -1.984375 0.875 -2.140625 C 0.875 -2.1875 0.921875 -2.28125 1.0625 -2.28125 C 1.1875 -2.28125 1.28125 -2.234375 1.34375 -2.1875 C 1.375 -2.171875 1.5 -2.09375 1.546875 -2.09375 C 1.640625 -2.09375 1.6875 -2.171875 1.6875 -2.234375 C 1.6875 -2.328125 1.65625 -2.328125 1.46875 -2.375 C 1.421875 -2.375 1.265625 -2.40625 1.171875 -2.40625 C 0.90625 -2.40625 0.765625 -2.265625 0.765625 -2.0625 C 0.765625 -1.875 0.875 -1.671875 1 -1.46875 Z M 1.046875 -1.375 C 1.140625 -1.21875 1.265625 -1.03125 1.265625 -0.78125 C 1.265625 -0.515625 1.109375 -0.046875 0.8125 -0.046875 C 0.640625 -0.046875 0.453125 -0.171875 0.453125 -0.453125 C 0.453125 -0.671875 0.578125 -1.265625 1.046875 -1.375 Z M 1.046875 -1.375 "/></g><g id="791f656d8648ae2a34979ec62ea4ad573irbz37j__glyph-3-3"><path d="M 1.09375 -2.109375 C 1.09375 -2.15625 1.046875 -2.234375 0.953125 -2.234375 C 0.875 -2.234375 0.765625 -2.15625 0.765625 -2.046875 C 0.765625 -2 0.8125 -1.921875 0.90625 -1.921875 C 1 -1.921875 1.09375 -2.015625 1.09375 -2.109375 Z M 0.40625 -0.390625 C 0.390625 -0.34375 0.375 -0.3125 0.375 -0.25 C 0.375 -0.09375 0.515625 0.03125 0.6875 0.03125 C 1.03125 0.03125 1.1875 -0.4375 1.1875 -0.484375 C 1.1875 -0.53125 1.140625 -0.53125 1.125 -0.53125 C 1.078125 -0.53125 1.078125 -0.5 1.0625 -0.46875 C 0.984375 -0.203125 0.84375 -0.0625 0.703125 -0.0625 C 0.640625 -0.0625 0.625 -0.109375 0.625 -0.171875 C 0.625 -0.25 0.640625 -0.328125 0.671875 -0.390625 C 0.703125 -0.484375 0.75 -0.578125 0.78125 -0.671875 C 0.8125 -0.75 0.9375 -1.046875 0.953125 -1.09375 C 0.953125 -1.125 0.96875 -1.171875 0.96875 -1.203125 C 0.96875 -1.359375 0.828125 -1.484375 0.640625 -1.484375 C 0.3125 -1.484375 0.15625 -1.03125 0.15625 -0.96875 C 0.15625 -0.921875 0.203125 -0.921875 0.21875 -0.921875 C 0.265625 -0.921875 0.265625 -0.9375 0.28125 -0.984375 C 0.359375 -1.265625 0.515625 -1.390625 0.640625 -1.390625 C 0.6875 -1.390625 0.71875 -1.359375 0.71875 -1.28125 C 0.71875 -1.203125 0.703125 -1.140625 0.625 -0.9375 Z M 0.40625 -0.390625 "/></g><g id="791f656d8648ae2a34979ec62ea4ad573irbz37j__glyph-4-0"><path d="M 3.484375 -1.203125 C 3.484375 -2.09375 2.765625 -2.8125 1.875 -2.8125 C 0.984375 -2.8125 0.265625 -2.078125 0.265625 -1.203125 C 0.265625 -0.3125 0.984375 0.40625 1.875 0.40625 C 2.765625 0.40625 3.484375 -0.328125 3.484375 -1.203125 Z M 0.390625 -1.265625 C 0.4375 -2.078125 1.0625 -2.65625 1.8125 -2.6875 L 1.8125 -1.265625 Z M 1.9375 -2.6875 C 2.6875 -2.65625 3.3125 -2.078125 3.359375 -1.265625 L 1.9375 -1.265625 Z M 1.8125 0.28125 C 1.0625 0.234375 0.4375 -0.328125 0.390625 -1.15625 L 1.8125 -1.15625 Z M 3.359375 -1.15625 C 3.3125 -0.328125 2.671875 0.234375 1.9375 0.28125 L 1.9375 -1.15625 Z M 3.359375 -1.15625 "/></g><g id="791f656d8648ae2a34979ec62ea4ad573irbz37j__glyph-4-1"><path d="M 1.875 -1.34375 L 0.90625 -2.296875 C 0.859375 -2.359375 0.84375 -2.375 0.8125 -2.375 C 0.765625 -2.375 0.703125 -2.328125 0.703125 -2.28125 C 0.703125 -2.234375 0.71875 -2.234375 0.765625 -2.171875 L 1.734375 -1.203125 L 0.765625 -0.234375 C 0.71875 -0.1875 0.703125 -0.171875 0.703125 -0.140625 C 0.703125 -0.09375 0.765625 -0.046875 0.8125 -0.046875 C 0.84375 -0.046875 0.859375 -0.046875 0.90625 -0.109375 L 1.875 -1.078125 L 2.875 -0.078125 C 2.875 -0.0625 2.921875 -0.046875 2.9375 -0.046875 C 3 -0.046875 3.046875 -0.09375 3.046875 -0.140625 C 3.046875 -0.15625 3.046875 -0.171875 3.03125 -0.1875 C 3.015625 -0.203125 2.25 -0.953125 2.015625 -1.203125 L 2.890625 -2.09375 C 2.921875 -2.125 3 -2.1875 3.015625 -2.21875 C 3.015625 -2.21875 3.046875 -2.234375 3.046875 -2.28125 C 3.046875 -2.328125 3 -2.375 2.9375 -2.375 C 2.90625 -2.375 2.890625 -2.34375 2.828125 -2.296875 Z M 1.875 -1.34375 "/></g><g id="791f656d8648ae2a34979ec62ea4ad573irbz37j__glyph-5-0"><path d="M 1.125 -2.140625 C 1.125 -2.234375 1.125 -2.234375 1.03125 -2.234375 C 0.8125 -2.03125 0.5 -2.03125 0.375 -2.03125 L 0.375 -1.90625 C 0.453125 -1.90625 0.671875 -1.90625 0.859375 -2 L 0.859375 -0.28125 C 0.859375 -0.171875 0.859375 -0.125 0.515625 -0.125 L 0.390625 -0.125 L 0.390625 0 C 0.453125 0 0.875 -0.015625 1 -0.015625 C 1.09375 -0.015625 1.515625 0 1.59375 0 L 1.59375 -0.125 L 1.46875 -0.125 C 1.125 -0.125 1.125 -0.171875 1.125 -0.28125 Z M 1.125 -2.140625 "/></g><g id="791f656d8648ae2a34979ec62ea4ad573irbz37j__glyph-6-0"><path d="M 0.921875 -0.671875 C 0.9375 -0.71875 0.96875 -1.015625 0.96875 -1.046875 C 0.96875 -1.078125 0.9375 -1.125 0.890625 -1.125 C 0.828125 -1.125 0.796875 -1.078125 0.796875 -1.046875 C 0.796875 -1.015625 0.84375 -0.71875 0.84375 -0.671875 L 0.46875 -0.890625 C 0.453125 -0.90625 0.4375 -0.90625 0.421875 -0.90625 C 0.375 -0.90625 0.328125 -0.875 0.328125 -0.828125 C 0.328125 -0.78125 0.359375 -0.765625 0.390625 -0.75 C 0.515625 -0.703125 0.65625 -0.640625 0.796875 -0.609375 C 0.65625 -0.546875 0.4375 -0.46875 0.390625 -0.453125 C 0.375 -0.453125 0.328125 -0.4375 0.328125 -0.375 C 0.328125 -0.328125 0.375 -0.296875 0.421875 -0.296875 C 0.4375 -0.296875 0.515625 -0.34375 0.84375 -0.53125 C 0.84375 -0.484375 0.796875 -0.1875 0.796875 -0.15625 C 0.796875 -0.125 0.828125 -0.078125 0.890625 -0.078125 C 0.9375 -0.078125 0.96875 -0.109375 0.96875 -0.15625 C 0.96875 -0.1875 0.9375 -0.484375 0.921875 -0.53125 L 1.3125 -0.3125 C 1.328125 -0.296875 1.328125 -0.296875 1.359375 -0.296875 C 1.390625 -0.296875 1.4375 -0.328125 1.4375 -0.375 C 1.4375 -0.421875 1.40625 -0.4375 1.390625 -0.453125 C 1.25 -0.5 1.109375 -0.546875 0.984375 -0.59375 C 1.109375 -0.65625 1.34375 -0.734375 1.375 -0.75 C 1.390625 -0.75 1.4375 -0.765625 1.4375 -0.828125 C 1.4375 -0.875 1.390625 -0.90625 1.359375 -0.90625 C 1.328125 -0.90625 1.328125 -0.90625 1.296875 -0.890625 Z M 0.921875 -0.671875 "/></g></g></defs><g fill="rgb(0%, 0%, 0%)" fill-opacity="1"><use xlink:href="#791f656d8648ae2a34979ec62ea4ad573irbz37j__glyph-0-0" x="113.323095" y="15.717157"/></g><g fill="rgb(0%, 0%, 0%)" fill-opacity="1"><use xlink:href="#791f656d8648ae2a34979ec62ea4ad573irbz37j__glyph-0-0" x="209.612688" y="15.717157"/></g><g fill="rgb(0%, 0%, 0%)" fill-opacity="1"><use xlink:href="#791f656d8648ae2a34979ec62ea4ad573irbz37j__glyph-0-1" x="143.496027" y="31.286783"/></g><g fill="rgb(0%, 0%, 0%)" fill-opacity="1"><use xlink:href="#791f656d8648ae2a34979ec62ea4ad573irbz37j__glyph-0-2" x="145.90786" y="31.286783"/><use xlink:href="#791f656d8648ae2a34979ec62ea4ad573irbz37j__glyph-0-3" x="148.052355" y="31.286783"/></g><g fill="rgb(0%, 0%, 0%)" fill-opacity="1"><use xlink:href="#791f656d8648ae2a34979ec62ea4ad573irbz37j__glyph-1-0" x="152.089931" y="31.286783"/></g><g fill="rgb(0%, 0%, 0%)" fill-opacity="1"><use xlink:href="#791f656d8648ae2a34979ec62ea4ad573irbz37j__glyph-2-0" x="154.351753" y="29.535297"/></g><g fill="rgb(0%, 0%, 0%)" fill-opacity="1"><use xlink:href="#791f656d8648ae2a34979ec62ea4ad573irbz37j__glyph-0-4" x="157.910912" y="31.286783"/></g><g fill="rgb(0%, 0%, 0%)" fill-opacity="1"><use xlink:href="#791f656d8648ae2a34979ec62ea4ad573irbz37j__glyph-0-5" x="163.005776" y="31.286783"/><use xlink:href="#791f656d8648ae2a34979ec62ea4ad573irbz37j__glyph-0-6" x="164.346327" y="31.286783"/></g><g fill="rgb(0%, 0%, 0%)" fill-opacity="1"><use xlink:href="#791f656d8648ae2a34979ec62ea4ad573irbz37j__glyph-1-1" x="169.709012" y="31.286783"/></g><g fill="rgb(0%, 0%, 0%)" fill-opacity="1"><use xlink:href="#791f656d8648ae2a34979ec62ea4ad573irbz37j__glyph-1-2" x="5.393094" y="48.371523"/></g><g fill="rgb(0%, 0%, 0%)" fill-opacity="1"><use xlink:href="#791f656d8648ae2a34979ec62ea4ad573irbz37j__glyph-3-0" x="9.796512" y="46.620037"/></g><g fill="rgb(0%, 0%, 0%)" fill-opacity="1"><use xlink:href="#791f656d8648ae2a34979ec62ea4ad573irbz37j__glyph-0-7" x="12.423257" y="48.371523"/></g><g fill="rgb(0%, 0%, 0%)" fill-opacity="1"><use xlink:href="#791f656d8648ae2a34979ec62ea4ad573irbz37j__glyph-1-3" x="14.299931" y="48.371523"/></g><g fill="rgb(0%, 0%, 0%)" fill-opacity="1"><use xlink:href="#791f656d8648ae2a34979ec62ea4ad573irbz37j__glyph-0-8" x="18.674334" y="48.371523"/></g><g fill="rgb(0%, 0%, 0%)" fill-opacity="1"><use xlink:href="#791f656d8648ae2a34979ec62ea4ad573irbz37j__glyph-4-0" x="21.627116" y="48.371523"/></g><g fill="rgb(0%, 0%, 0%)" fill-opacity="1"><use xlink:href="#791f656d8648ae2a34979ec62ea4ad573irbz37j__glyph-1-2" x="26.451747" y="48.371523"/></g><g fill="rgb(0%, 0%, 0%)" fill-opacity="1"><use xlink:href="#791f656d8648ae2a34979ec62ea4ad573irbz37j__glyph-3-0" x="30.854548" y="46.620037"/></g><g fill="rgb(0%, 0%, 0%)" fill-opacity="1"><use xlink:href="#791f656d8648ae2a34979ec62ea4ad573irbz37j__glyph-0-7" x="33.481292" y="48.371523"/></g><g fill="rgb(0%, 0%, 0%)" fill-opacity="1"><use xlink:href="#791f656d8648ae2a34979ec62ea4ad573irbz37j__glyph-1-3" x="35.357967" y="48.371523"/></g><g fill="rgb(0%, 0%, 0%)" fill-opacity="1"><use xlink:href="#791f656d8648ae2a34979ec62ea4ad573irbz37j__glyph-0-8" x="39.732369" y="48.371523"/></g><g fill="rgb(0%, 0%, 0%)" fill-opacity="1"><use xlink:href="#791f656d8648ae2a34979ec62ea4ad573irbz37j__glyph-1-2" x="101.29955" y="48.371523"/></g><g fill="rgb(0%, 0%, 0%)" fill-opacity="1"><use xlink:href="#791f656d8648ae2a34979ec62ea4ad573irbz37j__glyph-3-0" x="105.702968" y="46.620037"/></g><g fill="rgb(0%, 0%, 0%)" fill-opacity="1"><use xlink:href="#791f656d8648ae2a34979ec62ea4ad573irbz37j__glyph-0-7" x="108.329713" y="48.371523"/></g><g fill="rgb(0%, 0%, 0%)" fill-opacity="1"><use xlink:href="#791f656d8648ae2a34979ec62ea4ad573irbz37j__glyph-1-3" x="110.206387" y="48.371523"/></g><g fill="rgb(0%, 0%, 0%)" fill-opacity="1"><use xlink:href="#791f656d8648ae2a34979ec62ea4ad573irbz37j__glyph-4-1" x="115.656898" y="48.371523"/></g><g fill="rgb(0%, 0%, 0%)" fill-opacity="1"><use xlink:href="#791f656d8648ae2a34979ec62ea4ad573irbz37j__glyph-1-4" x="120.481529" y="48.371523"/></g><g fill="rgb(0%, 0%, 0%)" fill-opacity="1"><use xlink:href="#791f656d8648ae2a34979ec62ea4ad573irbz37j__glyph-5-0" x="123.7177" y="46.620037"/></g><g fill="rgb(0%, 0%, 0%)" fill-opacity="1"><use xlink:href="#791f656d8648ae2a34979ec62ea4ad573irbz37j__glyph-0-8" x="125.882839" y="48.371523"/></g><g fill="rgb(0%, 0%, 0%)" fill-opacity="1"><use xlink:href="#791f656d8648ae2a34979ec62ea4ad573irbz37j__glyph-1-2" x="187.77094" y="48.371523"/></g><g fill="rgb(0%, 0%, 0%)" fill-opacity="1"><use xlink:href="#791f656d8648ae2a34979ec62ea4ad573irbz37j__glyph-3-0" x="192.174358" y="46.620037"/></g><g fill="rgb(0%, 0%, 0%)" fill-opacity="1"><use xlink:href="#791f656d8648ae2a34979ec62ea4ad573irbz37j__glyph-2-1" x="194.559837" y="46.620037"/></g><g fill="rgb(0%, 0%, 0%)" fill-opacity="1"><use xlink:href="#791f656d8648ae2a34979ec62ea4ad573irbz37j__glyph-5-0" x="197.57597" y="46.620037"/></g><g fill="rgb(0%, 0%, 0%)" fill-opacity="1"><use xlink:href="#791f656d8648ae2a34979ec62ea4ad573irbz37j__glyph-0-7" x="199.74072" y="48.371523"/></g><g fill="rgb(0%, 0%, 0%)" fill-opacity="1"><use xlink:href="#791f656d8648ae2a34979ec62ea4ad573irbz37j__glyph-1-3" x="201.617394" y="48.371523"/></g><g fill="rgb(0%, 0%, 0%)" fill-opacity="1"><use xlink:href="#791f656d8648ae2a34979ec62ea4ad573irbz37j__glyph-0-8" x="205.991797" y="48.371523"/></g><g fill="rgb(0%, 0%, 0%)" fill-opacity="1"><use xlink:href="#791f656d8648ae2a34979ec62ea4ad573irbz37j__glyph-4-0" x="208.944579" y="48.371523"/></g><g fill="rgb(0%, 0%, 0%)" fill-opacity="1"><use xlink:href="#791f656d8648ae2a34979ec62ea4ad573irbz37j__glyph-1-2" x="213.76921" y="48.371523"/></g><g fill="rgb(0%, 0%, 0%)" fill-opacity="1"><use xlink:href="#791f656d8648ae2a34979ec62ea4ad573irbz37j__glyph-3-0" x="218.171527" y="46.620037"/></g><g fill="rgb(0%, 0%, 0%)" fill-opacity="1"><use xlink:href="#791f656d8648ae2a34979ec62ea4ad573irbz37j__glyph-2-1" x="220.557005" y="46.620037"/></g><g fill="rgb(0%, 0%, 0%)" fill-opacity="1"><use xlink:href="#791f656d8648ae2a34979ec62ea4ad573irbz37j__glyph-5-0" x="223.573139" y="46.620037"/></g><g fill="rgb(0%, 0%, 0%)" fill-opacity="1"><use xlink:href="#791f656d8648ae2a34979ec62ea4ad573irbz37j__glyph-0-7" x="225.737888" y="48.371523"/></g><g fill="rgb(0%, 0%, 0%)" fill-opacity="1"><use xlink:href="#791f656d8648ae2a34979ec62ea4ad573irbz37j__glyph-1-3" x="227.614563" y="48.371523"/></g><g fill="rgb(0%, 0%, 0%)" fill-opacity="1"><use xlink:href="#791f656d8648ae2a34979ec62ea4ad573irbz37j__glyph-0-8" x="231.988965" y="48.371523"/></g><g fill="rgb(0%, 0%, 0%)" fill-opacity="1"><use xlink:href="#791f656d8648ae2a34979ec62ea4ad573irbz37j__glyph-1-2" x="291.937862" y="48.371523"/></g><g fill="rgb(0%, 0%, 0%)" fill-opacity="1"><use xlink:href="#791f656d8648ae2a34979ec62ea4ad573irbz37j__glyph-3-0" x="296.34128" y="46.620037"/></g><g fill="rgb(0%, 0%, 0%)" fill-opacity="1"><use xlink:href="#791f656d8648ae2a34979ec62ea4ad573irbz37j__glyph-2-1" x="298.726758" y="46.620037"/></g><g fill="rgb(0%, 0%, 0%)" fill-opacity="1"><use xlink:href="#791f656d8648ae2a34979ec62ea4ad573irbz37j__glyph-5-0" x="301.742892" y="46.620037"/></g><g fill="rgb(0%, 0%, 0%)" fill-opacity="1"><use xlink:href="#791f656d8648ae2a34979ec62ea4ad573irbz37j__glyph-0-7" x="303.907642" y="48.371523"/></g><g fill="rgb(0%, 0%, 0%)" fill-opacity="1"><use xlink:href="#791f656d8648ae2a34979ec62ea4ad573irbz37j__glyph-1-3" x="305.784316" y="48.371523"/></g><g fill="rgb(0%, 0%, 0%)" fill-opacity="1"><use xlink:href="#791f656d8648ae2a34979ec62ea4ad573irbz37j__glyph-0-8" x="310.158719" y="48.371523"/></g><g fill="rgb(0%, 0%, 0%)" fill-opacity="1"><use xlink:href="#791f656d8648ae2a34979ec62ea4ad573irbz37j__glyph-4-0" x="313.111501" y="48.371523"/></g><g fill="rgb(0%, 0%, 0%)" fill-opacity="1"><use xlink:href="#791f656d8648ae2a34979ec62ea4ad573irbz37j__glyph-1-2" x="317.936132" y="48.371523"/></g><g fill="rgb(0%, 0%, 0%)" fill-opacity="1"><use xlink:href="#791f656d8648ae2a34979ec62ea4ad573irbz37j__glyph-3-0" x="322.338448" y="46.620037"/></g><g fill="rgb(0%, 0%, 0%)" fill-opacity="1"><use xlink:href="#791f656d8648ae2a34979ec62ea4ad573irbz37j__glyph-2-1" x="324.723927" y="46.620037"/></g><g fill="rgb(0%, 0%, 0%)" fill-opacity="1"><use xlink:href="#791f656d8648ae2a34979ec62ea4ad573irbz37j__glyph-5-0" x="327.74006" y="46.620037"/></g><g fill="rgb(0%, 0%, 0%)" fill-opacity="1"><use xlink:href="#791f656d8648ae2a34979ec62ea4ad573irbz37j__glyph-0-7" x="329.90481" y="48.371523"/></g><g fill="rgb(0%, 0%, 0%)" fill-opacity="1"><use xlink:href="#791f656d8648ae2a34979ec62ea4ad573irbz37j__glyph-1-3" x="331.781484" y="48.371523"/></g><g fill="rgb(0%, 0%, 0%)" fill-opacity="1"><use xlink:href="#791f656d8648ae2a34979ec62ea4ad573irbz37j__glyph-0-8" x="336.155887" y="48.371523"/></g><g fill="rgb(0%, 0%, 0%)" fill-opacity="1"><use xlink:href="#791f656d8648ae2a34979ec62ea4ad573irbz37j__glyph-0-1" x="57.347712" y="65.147233"/></g><g fill="rgb(0%, 0%, 0%)" fill-opacity="1"><use xlink:href="#791f656d8648ae2a34979ec62ea4ad573irbz37j__glyph-0-2" x="59.759545" y="65.147233"/><use xlink:href="#791f656d8648ae2a34979ec62ea4ad573irbz37j__glyph-0-3" x="61.90404" y="65.147233"/></g><g fill="rgb(0%, 0%, 0%)" fill-opacity="1"><use xlink:href="#791f656d8648ae2a34979ec62ea4ad573irbz37j__glyph-1-5" x="64.6001" y="65.147233"/></g><g fill="rgb(0%, 0%, 0%)" fill-opacity="1"><use xlink:href="#791f656d8648ae2a34979ec62ea4ad573irbz37j__glyph-2-0" x="66.262079" y="63.395747"/></g><g fill="rgb(0%, 0%, 0%)" fill-opacity="1"><use xlink:href="#791f656d8648ae2a34979ec62ea4ad573irbz37j__glyph-0-4" x="69.821238" y="65.147233"/></g><g fill="rgb(0%, 0%, 0%)" fill-opacity="1"><use xlink:href="#791f656d8648ae2a34979ec62ea4ad573irbz37j__glyph-0-5" x="74.916102" y="65.147233"/><use xlink:href="#791f656d8648ae2a34979ec62ea4ad573irbz37j__glyph-0-6" x="76.256653" y="65.147233"/></g><g fill="rgb(0%, 0%, 0%)" fill-opacity="1"><use xlink:href="#791f656d8648ae2a34979ec62ea4ad573irbz37j__glyph-1-0" x="81.078871" y="65.147233"/></g><g fill="rgb(0%, 0%, 0%)" fill-opacity="1"><use xlink:href="#791f656d8648ae2a34979ec62ea4ad573irbz37j__glyph-2-0" x="83.344396" y="63.395747"/></g><g fill="rgb(0%, 0%, 0%)" fill-opacity="1"><use xlink:href="#791f656d8648ae2a34979ec62ea4ad573irbz37j__glyph-0-1" x="249.604792" y="65.147233"/></g><g fill="rgb(0%, 0%, 0%)" fill-opacity="1"><use xlink:href="#791f656d8648ae2a34979ec62ea4ad573irbz37j__glyph-0-2" x="252.016625" y="65.147233"/><use xlink:href="#791f656d8648ae2a34979ec62ea4ad573irbz37j__glyph-0-3" x="254.16112" y="65.147233"/></g><g fill="rgb(0%, 0%, 0%)" fill-opacity="1"><use xlink:href="#791f656d8648ae2a34979ec62ea4ad573irbz37j__glyph-1-1" x="256.857181" y="65.147233"/></g><g fill="rgb(0%, 0%, 0%)" fill-opacity="1"><use xlink:href="#791f656d8648ae2a34979ec62ea4ad573irbz37j__glyph-0-4" x="260.526564" y="65.147233"/></g><g fill="rgb(0%, 0%, 0%)" fill-opacity="1"><use xlink:href="#791f656d8648ae2a34979ec62ea4ad573irbz37j__glyph-0-5" x="265.616602" y="65.147233"/><use xlink:href="#791f656d8648ae2a34979ec62ea4ad573irbz37j__glyph-0-6" x="266.957153" y="65.147233"/></g><g fill="rgb(0%, 0%, 0%)" fill-opacity="1"><use xlink:href="#791f656d8648ae2a34979ec62ea4ad573irbz37j__glyph-1-5" x="272.319838" y="65.147233"/></g><g fill="rgb(0%, 0%, 0%)" fill-opacity="1"><use xlink:href="#791f656d8648ae2a34979ec62ea4ad573irbz37j__glyph-2-0" x="273.982708" y="63.395747"/></g><g fill="rgb(0%, 0%, 0%)" fill-opacity="1"><use xlink:href="#791f656d8648ae2a34979ec62ea4ad573irbz37j__glyph-0-0" x="22.295709" y="81.413385"/></g><g fill="rgb(0%, 0%, 0%)" fill-opacity="1"><use xlink:href="#791f656d8648ae2a34979ec62ea4ad573irbz37j__glyph-0-0" x="113.323095" y="81.413385"/></g><g fill="rgb(0%, 0%, 0%)" fill-opacity="1"><use xlink:href="#791f656d8648ae2a34979ec62ea4ad573irbz37j__glyph-0-0" x="209.612688" y="81.413385"/></g><g fill="rgb(0%, 0%, 0%)" fill-opacity="1"><use xlink:href="#791f656d8648ae2a34979ec62ea4ad573irbz37j__glyph-0-0" x="313.780094" y="81.413385"/></g><path fill="none" stroke="rgb(0%, 0%, 0%)" stroke-linecap="butt" stroke-linejoin="miter" stroke-miterlimit="10" stroke-opacity="1" stroke-width="0.39848" d="M 73.752253 65.054328 L -0.224142 43.336414 " transform="matrix(0.484371, 0, 0, -0.484371, 171.714037, 47.01044)"/><path fill="none" stroke="rgb(0%, 0%, 0%)" stroke-linecap="round" stroke-linejoin="round" stroke-miterlimit="10" stroke-opacity="1" stroke-width="0.39848" d="M -2.072529 2.392898 C -1.696171 0.954452 -0.852399 0.278181 -0.000223659 0.00288846 C -0.84751 -0.277988 -1.693192 -0.954374 -2.072356 -2.389638 " transform="matrix(-0.464749, 0.136384, 0.136384, 0.464749, 171.511221, 26.045563)"/><path fill="none" stroke="rgb(0%, 0%, 0%)" stroke-linecap="butt" stroke-linejoin="miter" stroke-miterlimit="10" stroke-opacity="1" stroke-width="0.39848" d="M -51.764875 43.223509 L -110.708892 64.449485 " transform="matrix(0.484371, 0, 0, -0.484371, 171.714037, 47.01044)"/><path fill="none" stroke="rgb(0%, 0%, 0%)" stroke-linecap="round" stroke-linejoin="round" stroke-miterlimit="10" stroke-opacity="1" stroke-width="0.39848" d="M -2.068229 2.388184 C -1.689612 0.955889 -0.846972 0.282138 -0.00102815 0.00387988 C -0.851477 -0.276649 -1.694911 -0.957525 -2.071461 -2.387457 " transform="matrix(-0.455711, -0.1641, -0.1641, 0.455711, 118.000168, 15.759782)"/><path fill="none" stroke="rgb(0%, 0%, 0%)" stroke-linecap="butt" stroke-linejoin="miter" stroke-miterlimit="10" stroke-opacity="1" stroke-width="0.39848" d="M -49.724536 26.683055 L -93.741015 9.29582 " transform="matrix(0.484371, 0, 0, -0.484371, 171.714037, 47.01044)"/><path fill="none" stroke="rgb(0%, 0%, 0%)" stroke-linecap="round" stroke-linejoin="round" stroke-miterlimit="10" stroke-opacity="1" stroke-width="0.39848" d="M -2.071765 2.391927 C -1.692757 0.958795 -0.851187 0.279448 0.00214923 0.00301703 C -0.845822 -0.277654 -1.695094 -0.956703 -2.072377 -2.39455 " transform="matrix(-0.450465, 0.177968, 0.177968, 0.450465, 126.219181, 42.545133)"/><path fill="none" stroke="rgb(0%, 0%, 0%)" stroke-linecap="butt" stroke-linejoin="miter" stroke-miterlimit="10" stroke-opacity="1" stroke-width="0.39848" d="M -149.862429 -0.317159 L -263.718173 -0.317159 " transform="matrix(0.484371, 0, 0, -0.484371, 171.714037, 47.01044)"/><path fill="none" stroke="rgb(0%, 0%, 0%)" stroke-linecap="round" stroke-linejoin="round" stroke-miterlimit="10" stroke-opacity="1" stroke-width="0.39848" d="M -2.070119 2.39354 C -1.691084 0.958044 -0.852368 0.28062 0.00247767 -0.00164062 C -0.852368 -0.275836 -1.691084 -0.953261 -2.070119 -2.388756 " transform="matrix(-0.484371, 0, 0, 0.484371, 43.880106, 47.164857)"/><g fill="rgb(0%, 0%, 0%)" fill-opacity="1"><use xlink:href="#791f656d8648ae2a34979ec62ea4ad573irbz37j__glyph-3-1" x="69.550474" y="45.372781"/></g><g fill="rgb(0%, 0%, 0%)" fill-opacity="1"><use xlink:href="#791f656d8648ae2a34979ec62ea4ad573irbz37j__glyph-6-0" x="71.342647" y="43.916277"/></g><path fill="none" stroke="rgb(0%, 0%, 0%)" stroke-linecap="butt" stroke-linejoin="miter" stroke-miterlimit="10" stroke-opacity="1" stroke-width="0.39848" d="M -140.717195 -9.147875 L -185.37884 -26.53511 " transform="matrix(0.484371, 0, 0, -0.484371, 171.714037, 47.01044)"/><path fill="none" stroke="rgb(0%, 0%, 0%)" stroke-linecap="round" stroke-linejoin="round" stroke-miterlimit="10" stroke-opacity="1" stroke-width="0.39848" d="M -2.07183 2.390449 C -1.696187 0.954612 -0.851267 0.279427 0.000500697 -0.000301159 C -0.850666 -0.274717 -1.696577 -0.957956 -2.071343 -2.387212 " transform="matrix(-0.451337, 0.17574, 0.17574, 0.451337, 81.83231, 59.898485)"/><path fill="none" stroke="rgb(0%, 0%, 0%)" stroke-linecap="butt" stroke-linejoin="miter" stroke-miterlimit="10" stroke-opacity="1" stroke-width="0.39848" d="M 51.348849 9.142593 L -2.732227 26.554022 " transform="matrix(0.484371, 0, 0, -0.484371, 171.714037, 47.01044)"/><path fill="none" stroke="rgb(0%, 0%, 0%)" stroke-linecap="round" stroke-linejoin="round" stroke-miterlimit="10" stroke-opacity="1" stroke-width="0.39848" d="M -2.075361 2.39084 C -1.689627 0.956083 -0.852379 0.276741 -0.000805837 0.000225158 C -0.850446 -0.281829 -1.691382 -0.959294 -2.070705 -2.386219 " transform="matrix(-0.461044, -0.148455, -0.148455, 0.461044, 170.300443, 34.116964)"/><path fill="none" stroke="rgb(0%, 0%, 0%)" stroke-linecap="butt" stroke-linejoin="miter" stroke-miterlimit="10" stroke-opacity="1" stroke-width="0.39848" d="M 28.663184 -0.317159 L -85.86192 -0.317159 " transform="matrix(0.484371, 0, 0, -0.484371, 171.714037, 47.01044)"/><path fill="none" stroke="rgb(0%, 0%, 0%)" stroke-linecap="round" stroke-linejoin="round" stroke-miterlimit="10" stroke-opacity="1" stroke-width="0.39848" d="M -2.076107 2.39354 C -1.697072 0.958044 -0.850291 0.28062 -0.00351007 -0.00164062 C -0.850291 -0.275836 -1.697072 -0.953261 -2.076107 -2.388756 " transform="matrix(-0.484371, 0, 0, 0.484371, 130.02955, 47.164857)"/><g fill="rgb(0%, 0%, 0%)" fill-opacity="1"><use xlink:href="#791f656d8648ae2a34979ec62ea4ad573irbz37j__glyph-3-2" x="156.82689" y="46.029588"/></g><path fill="none" stroke="rgb(0%, 0%, 0%)" stroke-linecap="butt" stroke-linejoin="miter" stroke-miterlimit="10" stroke-opacity="1" stroke-width="0.39848" d="M 243.721346 -0.317159 L 133.204338 -0.317159 " transform="matrix(0.484371, 0, 0, -0.484371, 171.714037, 47.01044)"/><path fill="none" stroke="rgb(0%, 0%, 0%)" stroke-linecap="round" stroke-linejoin="round" stroke-miterlimit="10" stroke-opacity="1" stroke-width="0.39848" d="M -2.075296 2.39354 C -1.69626 0.958044 -0.849479 0.28062 -0.00269838 -0.00164062 C -0.849479 -0.275836 -1.69626 -0.953261 -2.075296 -2.388756 " transform="matrix(-0.484371, 0, 0, 0.484371, 236.139318, 47.164857)"/><g fill="rgb(0%, 0%, 0%)" fill-opacity="1"><use xlink:href="#791f656d8648ae2a34979ec62ea4ad573irbz37j__glyph-3-3" x="261.211294" y="46.029588"/></g><g fill="rgb(0%, 0%, 0%)" fill-opacity="1"><use xlink:href="#791f656d8648ae2a34979ec62ea4ad573irbz37j__glyph-6-0" x="262.576736" y="44.573084"/></g><path fill="none" stroke="rgb(0%, 0%, 0%)" stroke-linecap="butt" stroke-linejoin="miter" stroke-miterlimit="10" stroke-opacity="1" stroke-width="0.39848" d="M 268.398962 -9.147875 L 214.325951 -26.559304 " transform="matrix(0.484371, 0, 0, -0.484371, 171.714037, 47.01044)"/><path fill="none" stroke="rgb(0%, 0%, 0%)" stroke-linecap="round" stroke-linejoin="round" stroke-miterlimit="10" stroke-opacity="1" stroke-width="0.39848" d="M -2.071004 2.391843 C -1.694152 0.957242 -0.853216 0.279777 -0.00357626 -0.002278 C -0.847473 -0.281266 -1.692397 -0.958136 -2.070455 -2.395365 " transform="matrix(-0.461044, 0.148455, 0.148455, 0.461044, 275.436189, 59.903925)"/><path fill="none" stroke="rgb(0%, 0%, 0%)" stroke-linecap="butt" stroke-linejoin="miter" stroke-miterlimit="10" stroke-opacity="1" stroke-width="0.39848" d="M -230.6292 -26.680272 L -280.387661 -9.276908 " transform="matrix(0.484371, 0, 0, -0.484371, 171.714037, 47.01044)"/><path fill="none" stroke="rgb(0%, 0%, 0%)" stroke-linecap="round" stroke-linejoin="round" stroke-miterlimit="10" stroke-opacity="1" stroke-width="0.39848" d="M -2.070557 2.395454 C -1.694828 0.954794 -0.850796 0.276 -0.00249094 0.000263856 C -0.852817 -0.28006 -1.692189 -0.958115 -2.071573 -2.389481 " transform="matrix(-0.457198, -0.15991, -0.15991, 0.457198, 35.811403, 51.472137)"/><path fill="none" stroke="rgb(0%, 0%, 0%)" stroke-linecap="butt" stroke-linejoin="miter" stroke-miterlimit="10" stroke-opacity="1" stroke-width="0.39848" d="M -231.371142 -43.228791 L -298.637806 -66.043489 " transform="matrix(0.484371, 0, 0, -0.484371, 171.714037, 47.01044)"/><path fill="none" stroke="rgb(0%, 0%, 0%)" stroke-linecap="round" stroke-linejoin="round" stroke-miterlimit="10" stroke-opacity="1" stroke-width="0.39848" d="M -2.068816 2.389413 C -1.69378 0.959242 -0.850624 0.281517 -0.000276684 0.00160938 C -0.853573 -0.279546 -1.696196 -0.956062 -2.07097 -2.387391 " transform="matrix(-0.45869, 0.15558, 0.15558, 0.45869, 26.972279, 79.030555)"/><path fill="none" stroke="rgb(0%, 0%, 0%)" stroke-linecap="butt" stroke-linejoin="miter" stroke-miterlimit="10" stroke-opacity="1" stroke-width="0.39848" d="M 162.583604 -26.680272 L 108.518658 -9.268843 " transform="matrix(0.484371, 0, 0, -0.484371, 171.714037, 47.01044)"/><path fill="none" stroke="rgb(0%, 0%, 0%)" stroke-linecap="round" stroke-linejoin="round" stroke-miterlimit="10" stroke-opacity="1" stroke-width="0.39848" d="M -2.07248 2.388874 C -1.696894 0.959322 -0.85197 0.282452 0.00207534 -0.00174094 C -0.850037 -0.276119 -1.690972 -0.953584 -2.075501 -2.390657 " transform="matrix(-0.461044, -0.148455, -0.148455, 0.461044, 224.184292, 51.469861)"/><path fill="none" stroke="rgb(0%, 0%, 0%)" stroke-linecap="butt" stroke-linejoin="miter" stroke-miterlimit="10" stroke-opacity="1" stroke-width="0.39848" d="M 167.978808 -41.293292 L 88.091076 -66.237038 " transform="matrix(0.484371, 0, 0, -0.484371, 171.714037, 47.01044)"/><path fill="none" stroke="rgb(0%, 0%, 0%)" stroke-linecap="round" stroke-linejoin="round" stroke-miterlimit="10" stroke-opacity="1" stroke-width="0.39848" d="M -2.075585 2.392679 C -1.696225 0.95611 -0.851744 0.278348 0.000368679 0.0037667 C -0.848765 -0.280235 -1.693024 -0.954425 -2.073838 -2.390157 " transform="matrix(-0.462318, 0.144391, 0.144391, 0.462318, 214.292595, 79.123205)"/><path fill="none" stroke="rgb(0%, 0%, 0%)" stroke-linecap="butt" stroke-linejoin="miter" stroke-miterlimit="10" stroke-opacity="1" stroke-width="0.39848" d="M -125.039651 -65.898326 L -184.70948 -43.365889 " transform="matrix(0.484371, 0, 0, -0.484371, 171.714037, 47.01044)"/><path fill="none" stroke="rgb(0%, 0%, 0%)" stroke-linecap="round" stroke-linejoin="round" stroke-miterlimit="10" stroke-opacity="1" stroke-width="0.39848" d="M -2.071471 2.394939 C -1.693466 0.960085 -0.84993 0.278601 -0.00163858 -0.00453367 C -0.845827 -0.280195 -1.694771 -0.954204 -2.074735 -2.390783 " transform="matrix(-0.453124, -0.171099, -0.171099, 0.453124, 82.154732, 67.982243)"/><path fill="none" stroke="rgb(0%, 0%, 0%)" stroke-linecap="butt" stroke-linejoin="miter" stroke-miterlimit="10" stroke-opacity="1" stroke-width="0.39848" d="M 288.818479 -66.358007 L 208.930747 -41.406196 " transform="matrix(0.484371, 0, 0, -0.484371, 171.714037, 47.01044)"/><path fill="none" stroke="rgb(0%, 0%, 0%)" stroke-linecap="round" stroke-linejoin="round" stroke-miterlimit="10" stroke-opacity="1" stroke-width="0.39848" d="M -2.069292 2.388029 C -1.690884 0.959996 -0.851919 0.275703 0.00250943 0.00180396 C -0.847199 -0.280475 -1.691679 -0.958238 -2.073444 -2.387108 " transform="matrix(-0.462318, -0.144391, -0.144391, 0.462318, 272.821733, 67.038591)"/></svg>