<?xml version="1.0" encoding="UTF-8"?><svg xmlns="http://www.w3.org/2000/svg" xmlns:xlink="http://www.w3.org/1999/xlink" width="343.711" height="75.078" viewBox="0 0 343.711 75.078"><defs><g><g id="73382a81f9e1506d7877975f052d9dddqkvw7y97__glyph-0-0"><path d="M 6.96875 -2.296875 C 6.984375 -2.34375 7.015625 -2.40625 7.015625 -2.4375 C 7.015625 -2.4375 7.015625 -2.546875 6.90625 -2.546875 C 6.8125 -2.546875 6.796875 -2.484375 6.765625 -2.421875 C 6.125 -0.96875 5.765625 -0.3125 4.078125 -0.3125 L 2.640625 -0.3125 C 2.515625 -0.3125 2.484375 -0.3125 2.4375 -0.3125 C 2.328125 -0.328125 2.296875 -0.328125 2.296875 -0.40625 C 2.296875 -0.4375 2.296875 -0.46875 2.359375 -0.640625 L 3.015625 -3.328125 L 4 -3.328125 C 4.828125 -3.328125 4.828125 -3.125 4.828125 -2.875 C 4.828125 -2.8125 4.828125 -2.6875 4.765625 -2.390625 C 4.75 -2.34375 4.734375 -2.3125 4.734375 -2.28125 C 4.734375 -2.234375 4.78125 -2.171875 4.859375 -2.171875 C 4.9375 -2.171875 4.96875 -2.21875 5.015625 -2.375 L 5.578125 -4.671875 C 5.578125 -4.734375 5.515625 -4.78125 5.453125 -4.78125 C 5.359375 -4.78125 5.34375 -4.71875 5.3125 -4.609375 C 5.109375 -3.859375 4.9375 -3.625 4.03125 -3.625 L 3.09375 -3.625 L 3.6875 -6 C 3.78125 -6.34375 3.796875 -6.390625 4.21875 -6.390625 L 5.609375 -6.390625 C 6.8125 -6.390625 7.109375 -6.109375 7.109375 -5.296875 C 7.109375 -5.0625 7.109375 -5.046875 7.0625 -4.78125 C 7.0625 -4.71875 7.0625 -4.640625 7.0625 -4.59375 C 7.0625 -4.546875 7.09375 -4.484375 7.171875 -4.484375 C 7.28125 -4.484375 7.296875 -4.53125 7.3125 -4.71875 L 7.515625 -6.421875 C 7.546875 -6.6875 7.484375 -6.6875 7.25 -6.6875 L 2.28125 -6.6875 C 2.078125 -6.6875 1.984375 -6.6875 1.984375 -6.5 C 1.984375 -6.390625 2.0625 -6.390625 2.25 -6.390625 C 2.625 -6.390625 2.890625 -6.390625 2.890625 -6.21875 C 2.890625 -6.171875 2.890625 -6.15625 2.84375 -5.96875 L 1.546875 -0.765625 C 1.453125 -0.390625 1.421875 -0.3125 0.65625 -0.3125 C 0.484375 -0.3125 0.375 -0.3125 0.375 -0.125 C 0.375 0 0.46875 0 0.65625 0 L 5.765625 0 C 5.984375 0 6 -0.015625 6.0625 -0.171875 Z M 6.96875 -2.296875 "/></g><g id="73382a81f9e1506d7877975f052d9dddqkvw7y97__glyph-0-1"><path d="M 1.578125 -0.765625 C 1.484375 -0.390625 1.453125 -0.3125 0.671875 -0.3125 C 0.515625 -0.3125 0.40625 -0.3125 0.40625 -0.109375 C 0.40625 0 0.5 0 0.671875 0 L 4.1875 0 C 5.75 0 6.90625 -1.15625 6.90625 -2.125 C 6.90625 -2.828125 6.34375 -3.40625 5.390625 -3.515625 C 6.40625 -3.703125 7.4375 -4.4375 7.4375 -5.359375 C 7.4375 -6.09375 6.796875 -6.71875 5.609375 -6.71875 L 2.296875 -6.71875 C 2.109375 -6.71875 2.015625 -6.71875 2.015625 -6.53125 C 2.015625 -6.421875 2.109375 -6.421875 2.296875 -6.421875 C 2.3125 -6.421875 2.5 -6.421875 2.671875 -6.40625 C 2.84375 -6.375 2.9375 -6.375 2.9375 -6.234375 C 2.9375 -6.203125 2.921875 -6.171875 2.890625 -6.046875 Z M 3.0625 -3.609375 L 3.671875 -6.046875 C 3.765625 -6.390625 3.78125 -6.421875 4.203125 -6.421875 L 5.46875 -6.421875 C 6.34375 -6.421875 6.546875 -5.84375 6.546875 -5.40625 C 6.546875 -4.53125 5.703125 -3.609375 4.5 -3.609375 Z M 2.625 -0.3125 C 2.484375 -0.3125 2.46875 -0.3125 2.40625 -0.3125 C 2.296875 -0.328125 2.28125 -0.328125 2.28125 -0.40625 C 2.28125 -0.4375 2.28125 -0.46875 2.328125 -0.640625 L 3 -3.390625 L 4.859375 -3.390625 C 5.8125 -3.390625 6 -2.65625 6 -2.234375 C 6 -1.265625 5.125 -0.3125 3.953125 -0.3125 Z M 2.625 -0.3125 "/></g><g id="73382a81f9e1506d7877975f052d9dddqkvw7y97__glyph-1-0"><path d="M 2 -3.25 C 2.046875 -3.375 2.0625 -3.421875 2.0625 -3.46875 C 2.0625 -3.6875 1.875 -3.859375 1.65625 -3.859375 C 1.390625 -3.859375 1.3125 -3.640625 1.28125 -3.53125 L 0.359375 -0.546875 C 0.359375 -0.53125 0.328125 -0.4375 0.328125 -0.4375 C 0.328125 -0.34375 0.546875 -0.28125 0.59375 -0.28125 C 0.640625 -0.28125 0.65625 -0.296875 0.703125 -0.40625 Z M 2 -3.25 "/></g><g id="73382a81f9e1506d7877975f052d9dddqkvw7y97__glyph-2-0"><path d="M 2.796875 -2.71875 L 3.484375 -2.71875 C 3.625 -2.71875 3.703125 -2.71875 3.703125 -2.875 C 3.703125 -2.96875 3.625 -2.96875 3.5 -2.96875 L 2.859375 -2.96875 C 3.015625 -3.84375 3.0625 -4.15625 3.125 -4.359375 C 3.15625 -4.515625 3.3125 -4.65625 3.46875 -4.65625 C 3.484375 -4.65625 3.671875 -4.65625 3.796875 -4.578125 C 3.515625 -4.484375 3.5 -4.234375 3.5 -4.203125 C 3.5 -4.046875 3.609375 -3.9375 3.765625 -3.9375 C 3.953125 -3.9375 4.15625 -4.09375 4.15625 -4.359375 C 4.15625 -4.671875 3.828125 -4.84375 3.46875 -4.84375 C 3.171875 -4.84375 2.828125 -4.671875 2.640625 -4.328125 C 2.515625 -4.078125 2.453125 -3.765625 2.3125 -2.96875 L 1.765625 -2.96875 C 1.625 -2.96875 1.53125 -2.96875 1.53125 -2.8125 C 1.53125 -2.71875 1.625 -2.71875 1.75 -2.71875 L 2.265625 -2.71875 C 2.25 -2.6875 1.8125 -0.203125 1.65625 0.53125 C 1.625 0.6875 1.5 1.21875 1.171875 1.21875 C 1.171875 1.21875 1 1.21875 0.875 1.125 C 1.15625 1.046875 1.171875 0.796875 1.171875 0.75 C 1.171875 0.59375 1.046875 0.5 0.890625 0.5 C 0.703125 0.5 0.5 0.65625 0.5 0.921875 C 0.5 1.21875 0.828125 1.40625 1.171875 1.40625 C 1.609375 1.40625 1.921875 0.953125 2 0.796875 C 2.25 0.34375 2.40625 -0.515625 2.421875 -0.59375 Z M 2.796875 -2.71875 "/></g><g id="73382a81f9e1506d7877975f052d9dddqkvw7y97__glyph-2-1"><path d="M 2.140625 -2.5 L 2.96875 -2.5 C 2.859375 -2.09375 2.703125 -1.453125 2.703125 -0.921875 C 2.703125 -0.640625 2.75 -0.453125 2.78125 -0.296875 C 2.890625 0.046875 2.984375 0.0625 3.09375 0.0625 C 3.25 0.0625 3.421875 -0.078125 3.421875 -0.234375 C 3.421875 -0.296875 3.40625 -0.328125 3.359375 -0.390625 C 3.234375 -0.640625 3.109375 -1.046875 3.109375 -1.609375 C 3.109375 -1.734375 3.109375 -2.015625 3.203125 -2.5 L 4.0625 -2.5 C 4.1875 -2.5 4.25 -2.5 4.328125 -2.5625 C 4.421875 -2.625 4.4375 -2.734375 4.4375 -2.765625 C 4.4375 -2.96875 4.265625 -2.96875 4.140625 -2.96875 L 1.546875 -2.96875 C 1.265625 -2.96875 1.0625 -2.90625 0.765625 -2.625 C 0.578125 -2.453125 0.3125 -2.09375 0.3125 -2.03125 C 0.3125 -1.9375 0.40625 -1.9375 0.421875 -1.9375 C 0.5 -1.9375 0.515625 -1.953125 0.546875 -2.015625 C 0.90625 -2.5 1.328125 -2.5 1.484375 -2.5 L 1.90625 -2.5 C 1.6875 -1.75 1.3125 -0.9375 1.109375 -0.515625 C 1.0625 -0.421875 1 -0.28125 0.984375 -0.25 C 0.96875 -0.234375 0.953125 -0.203125 0.953125 -0.15625 C 0.953125 -0.046875 1.046875 0.0625 1.203125 0.0625 C 1.46875 0.0625 1.546875 -0.234375 1.71875 -0.859375 Z M 2.140625 -2.5 "/></g><g id="73382a81f9e1506d7877975f052d9dddqkvw7y97__glyph-3-0"><path d="M 1.765625 -2.28125 C 1.78125 -2.296875 1.828125 -2.390625 1.828125 -2.46875 C 1.828125 -2.640625 1.65625 -2.75 1.515625 -2.75 C 1.3125 -2.75 1.265625 -2.59375 1.234375 -2.53125 L 0.484375 -0.390625 C 0.453125 -0.328125 0.453125 -0.3125 0.453125 -0.3125 C 0.453125 -0.234375 0.671875 -0.1875 0.671875 -0.1875 C 0.71875 -0.1875 0.71875 -0.21875 0.75 -0.265625 Z M 1.765625 -2.28125 "/></g></g></defs><g fill="rgb(0%, 0%, 0%)" fill-opacity="1"><use xlink:href="#73382a81f9e1506d7877975f052d9dddqkvw7y97__glyph-0-0" x="125.160935" y="14.002047"/></g><g fill="rgb(0%, 0%, 0%)" fill-opacity="1"><use xlink:href="#73382a81f9e1506d7877975f052d9dddqkvw7y97__glyph-0-0" x="209.686909" y="14.002047"/></g><g fill="rgb(0%, 0%, 0%)" fill-opacity="1"><use xlink:href="#73382a81f9e1506d7877975f052d9dddqkvw7y97__glyph-1-0" x="217.519718" y="10.430903"/></g><g fill="rgb(0%, 0%, 0%)" fill-opacity="1"><use xlink:href="#73382a81f9e1506d7877975f052d9dddqkvw7y97__glyph-0-1" x="165.088601" y="70.565417"/></g><path fill="none" stroke="rgb(0%, 0%, 0%)" stroke-linecap="butt" stroke-linejoin="miter" stroke-miterlimit="10" stroke-opacity="1" stroke-width="0.39848" d="M -34.708535 27.373277 L 33.553181 27.373277 " transform="matrix(0.987868, 0, 0, -0.987868, 171.713247, 38.584165)"/><path fill="none" stroke="rgb(0%, 0%, 0%)" stroke-linecap="round" stroke-linejoin="round" stroke-miterlimit="10" stroke-opacity="1" stroke-width="0.39848" d="M -2.070505 2.390641 C -1.694854 0.955259 -0.848651 0.279087 0.00150639 -0.00166289 C -0.848651 -0.278458 -1.694854 -0.95463 -2.070505 -2.390012 " transform="matrix(0.987868, 0, 0, -0.987868, 205.057106, 11.541326)"/><g fill="rgb(0%, 0%, 0%)" fill-opacity="1"><use xlink:href="#73382a81f9e1506d7877975f052d9dddqkvw7y97__glyph-2-0" x="169.036124" y="7.887141"/></g><path fill="none" stroke="rgb(0%, 0%, 0%)" stroke-linecap="butt" stroke-linejoin="miter" stroke-miterlimit="10" stroke-opacity="1" stroke-width="0.39848" d="M -41.63633 21.038615 L -9.164268 -21.405992 " transform="matrix(0.987868, 0, 0, -0.987868, 171.713247, 38.584165)"/><path fill="none" stroke="rgb(0%, 0%, 0%)" stroke-linecap="round" stroke-linejoin="round" stroke-miterlimit="10" stroke-opacity="1" stroke-width="0.39848" d="M -2.071963 2.391413 C -1.691897 0.955413 -0.848946 0.280566 0.000948831 -0.00126352 C -0.850392 -0.280969 -1.694448 -0.954619 -2.07289 -2.392816 " transform="matrix(0.600268, 0.784526, 0.784526, -0.600268, 162.781672, 59.885216)"/><g fill="rgb(0%, 0%, 0%)" fill-opacity="1"><use xlink:href="#73382a81f9e1506d7877975f052d9dddqkvw7y97__glyph-2-1" x="139.576899" y="44.20316"/></g><path fill="none" stroke="rgb(0%, 0%, 0%)" stroke-linecap="butt" stroke-linejoin="miter" stroke-miterlimit="10" stroke-opacity="1" stroke-width="0.39848" d="M 38.662035 21.038615 L 4.197045 -21.409947 " transform="matrix(0.987868, 0, 0, -0.987868, 171.713247, 38.584165)"/><path fill="none" stroke="rgb(0%, 0%, 0%)" stroke-linecap="round" stroke-linejoin="round" stroke-miterlimit="10" stroke-opacity="1" stroke-width="0.39848" d="M -2.071119 2.390857 C -1.694528 0.954621 -0.850986 0.279523 0.00267229 -0.000252334 C -0.850035 -0.279994 -1.6931 -0.954298 -2.069949 -2.391032 " transform="matrix(-0.622653, 0.766902, 0.766902, 0.622653, 175.736232, 59.888733)"/><g fill="rgb(0%, 0%, 0%)" fill-opacity="1"><use xlink:href="#73382a81f9e1506d7877975f052d9dddqkvw7y97__glyph-2-1" x="195.075347" y="46.940544"/></g><g fill="rgb(0%, 0%, 0%)" fill-opacity="1"><use xlink:href="#73382a81f9e1506d7877975f052d9dddqkvw7y97__glyph-3-0" x="199.924793" y="43.971011"/></g></svg>