<?xml version="1.0" encoding="UTF-8"?><svg xmlns="http://www.w3.org/2000/svg" xmlns:xlink="http://www.w3.org/1999/xlink" width="354.189" height="69.409" viewBox="0 0 354.189 69.409"><defs><g><g id="57990075cc4c288100c84c63c637f978yq1m27nj__glyph-0-0"><path d="M 3.265625 2.375 C 3.265625 2.34375 3.265625 2.328125 3.09375 2.15625 C 1.859375 0.90625 1.546875 -0.953125 1.546875 -2.46875 C 1.546875 -4.1875 1.921875 -5.90625 3.140625 -7.140625 C 3.265625 -7.265625 3.265625 -7.28125 3.265625 -7.3125 C 3.265625 -7.375 3.234375 -7.40625 3.171875 -7.40625 C 3.078125 -7.40625 2.1875 -6.734375 1.59375 -5.484375 C 1.09375 -4.390625 0.984375 -3.296875 0.984375 -2.46875 C 0.984375 -1.703125 1.09375 -0.5 1.625 0.609375 C 2.21875 1.828125 3.078125 2.46875 3.171875 2.46875 C 3.234375 2.46875 3.265625 2.4375 3.265625 2.375 Z M 3.265625 2.375 "/></g><g id="57990075cc4c288100c84c63c637f978yq1m27nj__glyph-0-1"><path d="M 2.859375 -2.46875 C 2.859375 -3.234375 2.75 -4.4375 2.203125 -5.546875 C 1.609375 -6.765625 0.765625 -7.40625 0.65625 -7.40625 C 0.609375 -7.40625 0.5625 -7.359375 0.5625 -7.3125 C 0.5625 -7.28125 0.5625 -7.265625 0.75 -7.078125 C 1.71875 -6.109375 2.28125 -4.53125 2.28125 -2.46875 C 2.28125 -0.78125 1.921875 0.953125 0.6875 2.203125 C 0.5625 2.328125 0.5625 2.34375 0.5625 2.375 C 0.5625 2.421875 0.609375 2.46875 0.65625 2.46875 C 0.765625 2.46875 1.65625 1.796875 2.234375 0.546875 C 2.734375 -0.546875 2.859375 -1.640625 2.859375 -2.46875 Z M 2.859375 -2.46875 "/></g><g id="57990075cc4c288100c84c63c637f978yq1m27nj__glyph-1-0"><path d="M 6.265625 -5.703125 C 6.375 -6.109375 6.546875 -6.40625 7.34375 -6.4375 C 7.390625 -6.4375 7.5 -6.453125 7.5 -6.640625 C 7.5 -6.640625 7.5 -6.75 7.375 -6.75 C 7.046875 -6.75 6.703125 -6.71875 6.375 -6.71875 C 6.03125 -6.71875 5.671875 -6.75 5.34375 -6.75 C 5.28125 -6.75 5.171875 -6.75 5.171875 -6.546875 C 5.171875 -6.4375 5.265625 -6.4375 5.34375 -6.4375 C 5.90625 -6.421875 6.015625 -6.21875 6.015625 -6 C 6.015625 -5.96875 6 -5.828125 5.984375 -5.796875 L 5.09375 -2.265625 C 4.765625 -0.953125 3.625 -0.09375 2.640625 -0.09375 C 1.96875 -0.09375 1.4375 -0.515625 1.4375 -1.375 C 1.4375 -1.390625 1.4375 -1.703125 1.546875 -2.140625 L 2.5 -5.984375 C 2.59375 -6.34375 2.609375 -6.4375 3.328125 -6.4375 C 3.578125 -6.4375 3.65625 -6.4375 3.65625 -6.640625 C 3.65625 -6.75 3.5625 -6.75 3.53125 -6.75 C 3.25 -6.75 2.53125 -6.71875 2.265625 -6.71875 C 1.96875 -6.71875 1.28125 -6.75 0.984375 -6.75 C 0.90625 -6.75 0.796875 -6.75 0.796875 -6.546875 C 0.796875 -6.4375 0.890625 -6.4375 1.078125 -6.4375 C 1.09375 -6.4375 1.28125 -6.4375 1.453125 -6.421875 C 1.625 -6.40625 1.71875 -6.390625 1.71875 -6.265625 C 1.71875 -6.203125 1.609375 -5.78125 1.546875 -5.5625 L 1.328125 -4.6875 C 1.25 -4.3125 0.765625 -2.4375 0.734375 -2.25 C 0.65625 -1.96875 0.65625 -1.828125 0.65625 -1.671875 C 0.65625 -0.46875 1.5625 0.21875 2.59375 0.21875 C 3.84375 0.21875 5.0625 -0.90625 5.390625 -2.203125 Z M 6.265625 -5.703125 "/></g><g id="57990075cc4c288100c84c63c637f978yq1m27nj__glyph-1-1"><path d="M 6.203125 -5.625 C 6.6875 -6.390625 7.09375 -6.421875 7.46875 -6.4375 C 7.578125 -6.453125 7.59375 -6.609375 7.59375 -6.625 C 7.59375 -6.703125 7.546875 -6.75 7.46875 -6.75 C 7.203125 -6.75 6.921875 -6.71875 6.65625 -6.71875 C 6.328125 -6.71875 6 -6.75 5.671875 -6.75 C 5.625 -6.75 5.484375 -6.75 5.484375 -6.5625 C 5.484375 -6.453125 5.578125 -6.4375 5.65625 -6.4375 C 5.921875 -6.421875 6.109375 -6.3125 6.109375 -6.109375 C 6.109375 -5.96875 5.953125 -5.75 5.953125 -5.734375 L 2.921875 -0.921875 L 2.25 -6.140625 C 2.25 -6.3125 2.484375 -6.4375 2.9375 -6.4375 C 3.078125 -6.4375 3.1875 -6.4375 3.1875 -6.640625 C 3.1875 -6.71875 3.09375 -6.75 3.046875 -6.75 C 2.640625 -6.75 2.21875 -6.71875 1.8125 -6.71875 C 1.640625 -6.71875 1.453125 -6.71875 1.28125 -6.71875 C 1.09375 -6.71875 0.90625 -6.75 0.734375 -6.75 C 0.671875 -6.75 0.546875 -6.75 0.546875 -6.5625 C 0.546875 -6.4375 0.640625 -6.4375 0.796875 -6.4375 C 1.359375 -6.4375 1.359375 -6.34375 1.390625 -6.109375 L 2.171875 -0.015625 C 2.203125 0.1875 2.234375 0.21875 2.375 0.21875 C 2.53125 0.21875 2.5625 0.171875 2.640625 0.046875 Z M 6.203125 -5.625 "/></g><g id="57990075cc4c288100c84c63c637f978yq1m27nj__glyph-1-2"><path d="M 2.609375 -3.6875 L 3.734375 -3.6875 C 3.40625 -2.21875 3.3125 -1.796875 3.3125 -1.140625 C 3.3125 -0.984375 3.3125 -0.71875 3.390625 -0.390625 C 3.5 0.046875 3.609375 0.109375 3.75 0.109375 C 3.953125 0.109375 4.15625 -0.0625 4.15625 -0.265625 C 4.15625 -0.328125 4.15625 -0.34375 4.09375 -0.484375 C 3.8125 -1.1875 3.8125 -1.84375 3.8125 -2.109375 C 3.8125 -2.640625 3.875 -3.171875 3.984375 -3.6875 L 5.109375 -3.6875 C 5.25 -3.6875 5.59375 -3.6875 5.59375 -4.015625 C 5.59375 -4.25 5.390625 -4.25 5.203125 -4.25 L 1.890625 -4.25 C 1.671875 -4.25 1.296875 -4.25 0.875 -3.796875 C 0.515625 -3.40625 0.265625 -2.953125 0.265625 -2.90625 C 0.265625 -2.890625 0.265625 -2.796875 0.390625 -2.796875 C 0.46875 -2.796875 0.484375 -2.84375 0.546875 -2.921875 C 1.03125 -3.6875 1.59375 -3.6875 1.796875 -3.6875 L 2.359375 -3.6875 C 2.046875 -2.484375 1.515625 -1.296875 1.09375 -0.390625 C 1.015625 -0.25 1.015625 -0.234375 1.015625 -0.15625 C 1.015625 0.03125 1.171875 0.109375 1.296875 0.109375 C 1.59375 0.109375 1.671875 -0.171875 1.796875 -0.53125 C 1.9375 -0.984375 1.9375 -1 2.0625 -1.5 Z M 2.609375 -3.6875 "/></g><g id="57990075cc4c288100c84c63c637f978yq1m27nj__glyph-2-0"><path d="M 6.03125 -3.75 C 6.03125 -5.25 4.515625 -5.90625 3.28125 -5.90625 C 2 -5.90625 0.546875 -5.21875 0.546875 -3.765625 L 0.546875 -0.140625 C 0.546875 0.046875 0.546875 0.21875 0.734375 0.21875 C 0.9375 0.21875 0.9375 0.046875 0.9375 -0.140625 L 0.9375 -3.71875 C 0.9375 -5.1875 2.546875 -5.515625 3.28125 -5.515625 C 3.734375 -5.515625 4.359375 -5.421875 4.875 -5.078125 C 5.640625 -4.609375 5.640625 -3.96875 5.640625 -3.703125 L 5.640625 -0.140625 C 5.640625 0.046875 5.640625 0.21875 5.84375 0.21875 C 6.03125 0.21875 6.03125 0.046875 6.03125 -0.140625 Z M 6.03125 -3.75 "/></g><g id="57990075cc4c288100c84c63c637f978yq1m27nj__glyph-2-1"><path d="M 3.84375 -2.75 L 1.859375 -4.703125 C 1.75 -4.828125 1.734375 -4.84375 1.65625 -4.84375 C 1.546875 -4.84375 1.453125 -4.765625 1.453125 -4.65625 C 1.453125 -4.578125 1.46875 -4.5625 1.578125 -4.453125 L 3.5625 -2.46875 L 1.578125 -0.484375 C 1.46875 -0.375 1.453125 -0.359375 1.453125 -0.28125 C 1.453125 -0.171875 1.546875 -0.09375 1.65625 -0.09375 C 1.734375 -0.09375 1.75 -0.109375 1.859375 -0.234375 L 3.828125 -2.1875 L 5.875 -0.140625 C 5.890625 -0.140625 5.96875 -0.09375 6.03125 -0.09375 C 6.140625 -0.09375 6.21875 -0.171875 6.21875 -0.28125 C 6.21875 -0.3125 6.21875 -0.34375 6.1875 -0.390625 C 6.1875 -0.421875 4.609375 -1.96875 4.125 -2.46875 L 5.921875 -4.28125 C 5.96875 -4.328125 6.125 -4.46875 6.171875 -4.515625 C 6.1875 -4.546875 6.21875 -4.578125 6.21875 -4.65625 C 6.21875 -4.765625 6.140625 -4.84375 6.03125 -4.84375 C 5.9375 -4.84375 5.90625 -4.8125 5.796875 -4.703125 Z M 3.84375 -2.75 "/></g><g id="57990075cc4c288100c84c63c637f978yq1m27nj__glyph-3-0"><path d="M 2.640625 -3.09375 L 3 -3.09375 L 4.484375 -0.8125 C 4.578125 -0.65625 4.8125 -0.265625 4.921875 -0.125 C 5 0 5.03125 0 5.25 0 L 6.609375 0 C 6.796875 0 6.9375 0 6.9375 -0.171875 C 6.9375 -0.25 6.890625 -0.328125 6.796875 -0.34375 C 6.421875 -0.421875 5.9375 -1.078125 5.703125 -1.390625 C 5.640625 -1.484375 5.140625 -2.140625 4.484375 -3.203125 C 5.359375 -3.375 6.21875 -3.75 6.21875 -4.921875 C 6.21875 -6.296875 4.765625 -6.765625 3.59375 -6.765625 L 0.5 -6.765625 C 0.3125 -6.765625 0.15625 -6.765625 0.15625 -6.59375 C 0.15625 -6.421875 0.34375 -6.421875 0.421875 -6.421875 C 0.984375 -6.421875 1.03125 -6.34375 1.03125 -5.859375 L 1.03125 -0.90625 C 1.03125 -0.421875 0.984375 -0.34375 0.421875 -0.34375 C 0.34375 -0.34375 0.15625 -0.34375 0.15625 -0.171875 C 0.15625 0 0.3125 0 0.5 0 L 3.203125 0 C 3.375 0 3.53125 0 3.53125 -0.171875 C 3.53125 -0.34375 3.359375 -0.34375 3.25 -0.34375 C 2.6875 -0.34375 2.640625 -0.421875 2.640625 -0.90625 Z M 4.546875 -3.578125 C 4.828125 -3.953125 4.859375 -4.46875 4.859375 -4.90625 C 4.859375 -5.375 4.796875 -5.90625 4.484375 -6.3125 C 4.890625 -6.21875 5.859375 -5.921875 5.859375 -4.921875 C 5.859375 -4.28125 5.5625 -3.765625 4.546875 -3.578125 Z M 2.640625 -5.890625 C 2.640625 -6.09375 2.640625 -6.421875 3.265625 -6.421875 C 4.09375 -6.421875 4.515625 -6.078125 4.515625 -4.90625 C 4.515625 -3.640625 4.203125 -3.453125 2.640625 -3.453125 Z M 1.296875 -0.34375 C 1.375 -0.515625 1.375 -0.796875 1.375 -0.890625 L 1.375 -5.875 C 1.375 -5.96875 1.375 -6.234375 1.296875 -6.421875 L 2.421875 -6.421875 C 2.296875 -6.265625 2.296875 -6.0625 2.296875 -5.921875 L 2.296875 -0.890625 C 2.296875 -0.796875 2.296875 -0.515625 2.375 -0.34375 Z M 3.40625 -3.09375 C 3.46875 -3.109375 3.515625 -3.125 3.59375 -3.125 C 3.75 -3.125 3.953125 -3.140625 4.109375 -3.15625 C 4.25 -2.921875 5.328125 -1.171875 6.140625 -0.34375 L 5.1875 -0.34375 Z M 3.40625 -3.09375 "/></g><g id="57990075cc4c288100c84c63c637f978yq1m27nj__glyph-4-0"><path d="M 2.171875 -4.59375 C 2.171875 -4.609375 2.1875 -4.703125 2.1875 -4.703125 C 2.1875 -4.734375 2.171875 -4.796875 2.078125 -4.796875 C 1.9375 -4.796875 1.375 -4.75 1.203125 -4.734375 C 1.140625 -4.734375 1.046875 -4.71875 1.046875 -4.578125 C 1.046875 -4.484375 1.140625 -4.484375 1.21875 -4.484375 C 1.5625 -4.484375 1.5625 -4.4375 1.5625 -4.375 C 1.5625 -4.328125 1.546875 -4.28125 1.53125 -4.21875 L 0.546875 -0.296875 C 0.515625 -0.1875 0.515625 -0.171875 0.515625 -0.15625 C 0.515625 -0.046875 0.609375 0.0625 0.75 0.0625 C 0.9375 0.0625 1.03125 -0.0625 1.078125 -0.21875 C 1.09375 -0.25 1.390625 -1.46875 1.40625 -1.5625 C 1.90625 -1.515625 2.296875 -1.359375 2.296875 -1 C 2.296875 -0.96875 2.296875 -0.921875 2.28125 -0.859375 C 2.25 -0.75 2.25 -0.71875 2.25 -0.640625 C 2.25 -0.15625 2.65625 0.0625 2.984375 0.0625 C 3.65625 0.0625 3.875 -0.984375 3.875 -0.984375 C 3.875 -1.078125 3.78125 -1.078125 3.765625 -1.078125 C 3.65625 -1.078125 3.65625 -1.046875 3.625 -0.90625 C 3.53125 -0.609375 3.34375 -0.125 3.015625 -0.125 C 2.828125 -0.125 2.765625 -0.296875 2.765625 -0.484375 C 2.765625 -0.609375 2.765625 -0.609375 2.8125 -0.796875 C 2.8125 -0.8125 2.84375 -0.9375 2.84375 -1.015625 C 2.84375 -1.625 2.015625 -1.71875 1.71875 -1.75 C 1.921875 -1.875 2.1875 -2.09375 2.296875 -2.203125 C 2.65625 -2.53125 3 -2.859375 3.390625 -2.859375 C 3.46875 -2.859375 3.5625 -2.84375 3.609375 -2.765625 C 3.3125 -2.71875 3.25 -2.484375 3.25 -2.375 C 3.25 -2.234375 3.375 -2.125 3.53125 -2.125 C 3.71875 -2.125 3.921875 -2.28125 3.921875 -2.5625 C 3.921875 -2.796875 3.765625 -3.046875 3.390625 -3.046875 C 3 -3.046875 2.640625 -2.765625 2.28125 -2.4375 C 2 -2.171875 1.765625 -1.953125 1.484375 -1.828125 Z M 2.171875 -4.59375 "/></g><g id="57990075cc4c288100c84c63c637f978yq1m27nj__glyph-4-1"><path d="M 2.15625 -2.515625 L 2.96875 -2.515625 C 2.875 -2.09375 2.71875 -1.46875 2.71875 -0.921875 C 2.71875 -0.640625 2.75 -0.453125 2.796875 -0.296875 C 2.90625 0.046875 3 0.0625 3.109375 0.0625 C 3.265625 0.0625 3.4375 -0.078125 3.4375 -0.25 C 3.4375 -0.296875 3.421875 -0.328125 3.375 -0.390625 C 3.25 -0.65625 3.125 -1.046875 3.125 -1.609375 C 3.125 -1.75 3.125 -2.015625 3.21875 -2.515625 L 4.078125 -2.515625 C 4.203125 -2.515625 4.265625 -2.515625 4.34375 -2.5625 C 4.4375 -2.640625 4.453125 -2.75 4.453125 -2.78125 C 4.453125 -2.984375 4.28125 -2.984375 4.15625 -2.984375 L 1.546875 -2.984375 C 1.265625 -2.984375 1.078125 -2.921875 0.765625 -2.625 C 0.578125 -2.46875 0.3125 -2.09375 0.3125 -2.03125 C 0.3125 -1.953125 0.40625 -1.953125 0.421875 -1.953125 C 0.5 -1.953125 0.515625 -1.96875 0.546875 -2.03125 C 0.90625 -2.515625 1.328125 -2.515625 1.484375 -2.515625 L 1.90625 -2.515625 C 1.703125 -1.75 1.328125 -0.9375 1.109375 -0.515625 C 1.078125 -0.421875 1 -0.28125 0.984375 -0.25 C 0.96875 -0.234375 0.96875 -0.203125 0.96875 -0.15625 C 0.96875 -0.046875 1.046875 0.0625 1.203125 0.0625 C 1.484375 0.0625 1.5625 -0.25 1.71875 -0.859375 Z M 2.15625 -2.515625 "/></g><g id="57990075cc4c288100c84c63c637f978yq1m27nj__glyph-5-0"><path d="M 5.15625 -1.5625 C 5.265625 -1.5625 5.421875 -1.5625 5.421875 -1.734375 C 5.421875 -1.90625 5.265625 -1.90625 5.15625 -1.90625 L 1.03125 -1.90625 C 0.90625 -1.90625 0.75 -1.90625 0.75 -1.734375 C 0.75 -1.5625 0.90625 -1.5625 1.03125 -1.5625 Z M 5.15625 -1.5625 "/></g><g id="57990075cc4c288100c84c63c637f978yq1m27nj__glyph-6-0"><path d="M 2.3125 -4.40625 C 2.3125 -4.59375 2.3125 -4.59375 2.109375 -4.59375 C 1.671875 -4.15625 1.03125 -4.15625 0.75 -4.15625 L 0.75 -3.90625 C 0.921875 -3.90625 1.375 -3.90625 1.765625 -4.09375 L 1.765625 -0.5625 C 1.765625 -0.34375 1.765625 -0.25 1.0625 -0.25 L 0.796875 -0.25 L 0.796875 0 C 0.921875 0 1.78125 -0.03125 2.03125 -0.03125 C 2.25 -0.03125 3.125 0 3.28125 0 L 3.28125 -0.25 L 3.015625 -0.25 C 2.3125 -0.25 2.3125 -0.34375 2.3125 -0.5625 Z M 2.3125 -4.40625 "/></g><g id="57990075cc4c288100c84c63c637f978yq1m27nj__glyph-6-1"><path d="M 3.3125 -4.15625 C 3.3125 -4.390625 3.3125 -4.484375 3.96875 -4.484375 L 4.203125 -4.484375 L 4.203125 -4.734375 C 4.0625 -4.71875 3.265625 -4.703125 3.015625 -4.703125 C 2.609375 -4.703125 1.875 -4.71875 1.8125 -4.734375 L 1.8125 -4.484375 L 2.0625 -4.484375 C 2.703125 -4.484375 2.703125 -4.390625 2.703125 -4.15625 L 2.703125 -1.171875 C 1.671875 -1.40625 1.640625 -2.421875 1.640625 -2.890625 C 1.640625 -2.96875 1.640625 -3.828125 0.9375 -3.828125 L 0.6875 -3.828125 C 0.578125 -3.828125 0.484375 -3.828125 0.484375 -3.71875 C 0.484375 -3.640625 0.5625 -3.625 0.59375 -3.625 C 1.03125 -3.578125 1.03125 -2.953125 1.03125 -2.90625 C 1.03125 -2.609375 1.03125 -2.015625 1.484375 -1.515625 C 1.734375 -1.234375 2.15625 -1.03125 2.703125 -0.96875 L 2.703125 -0.5625 C 2.703125 -0.34375 2.703125 -0.25 2.0625 -0.25 L 1.8125 -0.25 L 1.8125 0 C 1.96875 0 2.75 -0.03125 3.015625 -0.03125 C 3.421875 -0.03125 4.140625 0 4.203125 0 L 4.203125 -0.25 L 3.96875 -0.25 C 3.3125 -0.25 3.3125 -0.34375 3.3125 -0.5625 L 3.3125 -0.96875 C 4.109375 -1.046875 4.421875 -1.359375 4.578125 -1.53125 C 4.90625 -1.859375 5.03125 -2.421875 5.03125 -2.734375 C 5.03125 -2.96875 5.03125 -3.171875 5.140625 -3.390625 C 5.25 -3.59375 5.375 -3.609375 5.5 -3.640625 C 5.546875 -3.640625 5.578125 -3.671875 5.578125 -3.71875 C 5.578125 -3.828125 5.484375 -3.828125 5.390625 -3.828125 L 5.125 -3.828125 C 4.5 -3.828125 4.421875 -3.1875 4.421875 -2.75 C 4.421875 -2.21875 4.234375 -1.328125 3.3125 -1.171875 Z M 3.3125 -4.15625 "/></g><g id="57990075cc4c288100c84c63c637f978yq1m27nj__glyph-6-2"><path d="M 3.09375 -0.96875 C 4.234375 -1.046875 5.15625 -1.640625 5.15625 -2.359375 C 5.15625 -3.109375 4.203125 -3.6875 3.09375 -3.765625 L 3.09375 -4.15625 C 3.09375 -4.390625 3.09375 -4.484375 3.75 -4.484375 L 4 -4.484375 L 4 -4.734375 C 3.84375 -4.71875 3.046875 -4.703125 2.796875 -4.703125 C 2.390625 -4.703125 1.671875 -4.71875 1.59375 -4.734375 L 1.59375 -4.484375 L 1.84375 -4.484375 C 2.484375 -4.484375 2.484375 -4.390625 2.484375 -4.15625 L 2.484375 -3.765625 C 1.28125 -3.65625 0.484375 -3.03125 0.484375 -2.375 C 0.484375 -1.671875 1.3125 -1.0625 2.484375 -0.96875 L 2.484375 -0.5625 C 2.484375 -0.34375 2.484375 -0.25 1.84375 -0.25 L 1.59375 -0.25 L 1.59375 0 C 1.75 0 2.546875 -0.03125 2.796875 -0.03125 C 3.203125 -0.03125 3.921875 0 4 0 L 4 -0.25 L 3.75 -0.25 C 3.09375 -0.25 3.09375 -0.34375 3.09375 -0.5625 Z M 2.484375 -1.15625 C 1.921875 -1.21875 1.203125 -1.46875 1.203125 -2.359375 C 1.203125 -3.28125 1.9375 -3.515625 2.484375 -3.5625 Z M 3.09375 -3.5625 C 3.734375 -3.515625 4.4375 -3.234375 4.4375 -2.375 C 4.4375 -1.453125 3.6875 -1.203125 3.09375 -1.15625 Z M 3.09375 -3.5625 "/></g><g id="57990075cc4c288100c84c63c637f978yq1m27nj__glyph-7-0"><path d="M 4.34375 -1.09375 C 4.421875 -1.09375 4.5625 -1.09375 4.5625 -1.234375 C 4.5625 -1.375 4.421875 -1.375 4.34375 -1.375 L 1 -1.375 C 0.921875 -1.375 0.796875 -1.375 0.796875 -1.234375 C 0.796875 -1.09375 0.921875 -1.09375 1 -1.09375 Z M 4.34375 -1.09375 "/></g><g id="57990075cc4c288100c84c63c637f978yq1m27nj__glyph-8-0"><path d="M 1.96875 -3.140625 C 1.96875 -3.28125 1.953125 -3.28125 1.78125 -3.28125 C 1.4375 -2.96875 0.890625 -2.96875 0.796875 -2.96875 L 0.703125 -2.96875 L 0.703125 -2.75 L 0.796875 -2.75 C 0.90625 -2.75 1.21875 -2.765625 1.515625 -2.890625 L 1.515625 -0.421875 C 1.515625 -0.265625 1.515625 -0.21875 0.984375 -0.21875 L 0.734375 -0.21875 L 0.734375 0 C 1.015625 -0.015625 1.453125 -0.015625 1.734375 -0.015625 C 2.03125 -0.015625 2.46875 -0.015625 2.734375 0 L 2.734375 -0.21875 L 2.484375 -0.21875 C 1.96875 -0.21875 1.96875 -0.265625 1.96875 -0.421875 Z M 1.96875 -3.140625 "/></g></g></defs><g fill="rgb(0%, 0%, 0%)" fill-opacity="1"><use xlink:href="#57990075cc4c288100c84c63c637f978yq1m27nj__glyph-0-0" x="36.746527" y="13.194651"/></g><g fill="rgb(0%, 0%, 0%)" fill-opacity="1"><use xlink:href="#57990075cc4c288100c84c63c637f978yq1m27nj__glyph-1-0" x="40.588271" y="13.194651"/></g><g fill="rgb(0%, 0%, 0%)" fill-opacity="1"><use xlink:href="#57990075cc4c288100c84c63c637f978yq1m27nj__glyph-2-0" x="50.603081" y="13.194651"/></g><g fill="rgb(0%, 0%, 0%)" fill-opacity="1"><use xlink:href="#57990075cc4c288100c84c63c637f978yq1m27nj__glyph-1-1" x="59.382093" y="13.194651"/></g><g fill="rgb(0%, 0%, 0%)" fill-opacity="1"><use xlink:href="#57990075cc4c288100c84c63c637f978yq1m27nj__glyph-0-1" x="67.347117" y="13.194651"/></g><g fill="rgb(0%, 0%, 0%)" fill-opacity="1"><use xlink:href="#57990075cc4c288100c84c63c637f978yq1m27nj__glyph-2-1" x="73.381885" y="13.194651"/></g><g fill="rgb(0%, 0%, 0%)" fill-opacity="1"><use xlink:href="#57990075cc4c288100c84c63c637f978yq1m27nj__glyph-3-0" x="83.258396" y="13.194651"/></g><g fill="rgb(0%, 0%, 0%)" fill-opacity="1"><use xlink:href="#57990075cc4c288100c84c63c637f978yq1m27nj__glyph-4-0" x="90.393735" y="9.60918"/></g><g fill="rgb(0%, 0%, 0%)" fill-opacity="1"><use xlink:href="#57990075cc4c288100c84c63c637f978yq1m27nj__glyph-1-2" x="151.177179" y="13.194651"/></g><g fill="rgb(0%, 0%, 0%)" fill-opacity="1"><use xlink:href="#57990075cc4c288100c84c63c637f978yq1m27nj__glyph-5-0" x="157.162218" y="9.60918"/></g><g fill="rgb(0%, 0%, 0%)" fill-opacity="1"><use xlink:href="#57990075cc4c288100c84c63c637f978yq1m27nj__glyph-6-0" x="163.336551" y="9.60918"/></g><g fill="rgb(0%, 0%, 0%)" fill-opacity="1"><use xlink:href="#57990075cc4c288100c84c63c637f978yq1m27nj__glyph-0-0" x="167.767914" y="13.194651"/></g><g fill="rgb(0%, 0%, 0%)" fill-opacity="1"><use xlink:href="#57990075cc4c288100c84c63c637f978yq1m27nj__glyph-1-0" x="171.609657" y="13.194651"/></g><g fill="rgb(0%, 0%, 0%)" fill-opacity="1"><use xlink:href="#57990075cc4c288100c84c63c637f978yq1m27nj__glyph-2-0" x="181.624467" y="13.194651"/></g><g fill="rgb(0%, 0%, 0%)" fill-opacity="1"><use xlink:href="#57990075cc4c288100c84c63c637f978yq1m27nj__glyph-1-1" x="190.403479" y="13.194651"/></g><g fill="rgb(0%, 0%, 0%)" fill-opacity="1"><use xlink:href="#57990075cc4c288100c84c63c637f978yq1m27nj__glyph-0-1" x="198.368503" y="13.194651"/></g><g fill="rgb(0%, 0%, 0%)" fill-opacity="1"><use xlink:href="#57990075cc4c288100c84c63c637f978yq1m27nj__glyph-0-0" x="258.130499" y="13.194651"/></g><g fill="rgb(0%, 0%, 0%)" fill-opacity="1"><use xlink:href="#57990075cc4c288100c84c63c637f978yq1m27nj__glyph-1-0" x="261.972243" y="13.194651"/></g><g fill="rgb(0%, 0%, 0%)" fill-opacity="1"><use xlink:href="#57990075cc4c288100c84c63c637f978yq1m27nj__glyph-2-0" x="271.987053" y="13.194651"/></g><g fill="rgb(0%, 0%, 0%)" fill-opacity="1"><use xlink:href="#57990075cc4c288100c84c63c637f978yq1m27nj__glyph-1-1" x="280.766065" y="13.194651"/></g><g fill="rgb(0%, 0%, 0%)" fill-opacity="1"><use xlink:href="#57990075cc4c288100c84c63c637f978yq1m27nj__glyph-0-1" x="288.731089" y="13.194651"/></g><g fill="rgb(0%, 0%, 0%)" fill-opacity="1"><use xlink:href="#57990075cc4c288100c84c63c637f978yq1m27nj__glyph-2-1" x="294.765857" y="13.194651"/></g><g fill="rgb(0%, 0%, 0%)" fill-opacity="1"><use xlink:href="#57990075cc4c288100c84c63c637f978yq1m27nj__glyph-3-0" x="304.642368" y="13.194651"/></g><g fill="rgb(0%, 0%, 0%)" fill-opacity="1"><use xlink:href="#57990075cc4c288100c84c63c637f978yq1m27nj__glyph-4-0" x="311.777707" y="9.60918"/></g><g fill="rgb(0%, 0%, 0%)" fill-opacity="1"><use xlink:href="#57990075cc4c288100c84c63c637f978yq1m27nj__glyph-1-0" x="163.31483" y="65.207772"/></g><g fill="rgb(0%, 0%, 0%)" fill-opacity="1"><use xlink:href="#57990075cc4c288100c84c63c637f978yq1m27nj__glyph-2-0" x="173.329641" y="65.207772"/></g><g fill="rgb(0%, 0%, 0%)" fill-opacity="1"><use xlink:href="#57990075cc4c288100c84c63c637f978yq1m27nj__glyph-1-1" x="182.108652" y="65.207772"/></g><path fill="none" stroke="rgb(0%, 0%, 0%)" stroke-linecap="butt" stroke-linejoin="miter" stroke-miterlimit="10" stroke-opacity="1" stroke-width="0.39848" d="M -77.644343 24.488104 L -30.618403 24.488104 " transform="matrix(0.991557, 0, 0, -0.991557, 176.691928, 35.007916)"/><path fill="none" stroke="rgb(0%, 0%, 0%)" stroke-linecap="round" stroke-linejoin="round" stroke-miterlimit="10" stroke-opacity="1" stroke-width="0.39848" d="M -2.07299 2.389487 C -1.694797 0.955505 -0.851742 0.277909 -0.000807819 -0.00179645 C -0.851742 -0.277562 -1.694797 -0.955158 -2.07299 -2.38914 " transform="matrix(0.991557, 0, 0, -0.991557, 146.528145, 10.724781)"/><g fill="rgb(0%, 0%, 0%)" fill-opacity="1"><use xlink:href="#57990075cc4c288100c84c63c637f978yq1m27nj__glyph-6-1" x="115.580278" y="8.400472"/></g><g fill="rgb(0%, 0%, 0%)" fill-opacity="1"><use xlink:href="#57990075cc4c288100c84c63c637f978yq1m27nj__glyph-7-0" x="121.644641" y="5.419851"/></g><g fill="rgb(0%, 0%, 0%)" fill-opacity="1"><use xlink:href="#57990075cc4c288100c84c63c637f978yq1m27nj__glyph-8-0" x="126.995324" y="5.419851"/></g><path fill="none" stroke="rgb(0%, 0%, 0%)" stroke-linecap="butt" stroke-linejoin="miter" stroke-miterlimit="10" stroke-opacity="1" stroke-width="0.39848" d="M -92.850854 15.6636 L -17.720445 -19.634417 " transform="matrix(0.991557, 0, 0, -0.991557, 176.691928, 35.007916)"/><path fill="none" stroke="rgb(0%, 0%, 0%)" stroke-linecap="round" stroke-linejoin="round" stroke-miterlimit="10" stroke-opacity="1" stroke-width="0.39848" d="M -2.072842 2.389247 C -1.695466 0.956026 -0.850231 0.278006 -0.000553986 -0.00182462 C -0.849741 -0.278917 -1.692888 -0.957978 -2.073312 -2.390306 " transform="matrix(0.897419, 0.42163, 0.42163, -0.897419, 159.298141, 54.561096)"/><g fill="rgb(0%, 0%, 0%)" fill-opacity="1"><use xlink:href="#57990075cc4c288100c84c63c637f978yq1m27nj__glyph-4-1" x="111.253123" y="42.362296"/></g><g fill="rgb(0%, 0%, 0%)" fill-opacity="1"><use xlink:href="#57990075cc4c288100c84c63c637f978yq1m27nj__glyph-8-0" x="115.872787" y="43.349887"/></g><path fill="none" stroke="rgb(0%, 0%, 0%)" stroke-linecap="butt" stroke-linejoin="miter" stroke-miterlimit="10" stroke-opacity="1" stroke-width="0.39848" d="M 30.219461 24.488104 L 77.2454 24.488104 " transform="matrix(0.991557, 0, 0, -0.991557, 176.691928, 35.007916)"/><path fill="none" stroke="rgb(0%, 0%, 0%)" stroke-linecap="round" stroke-linejoin="round" stroke-miterlimit="10" stroke-opacity="1" stroke-width="0.39848" d="M -2.070737 2.389487 C -1.692544 0.955505 -0.849489 0.277909 0.00144538 -0.00179645 C -0.849489 -0.277562 -1.692544 -0.955158 -2.070737 -2.38914 " transform="matrix(0.991557, 0, 0, -0.991557, 253.482942, 10.724781)"/><g fill="rgb(0%, 0%, 0%)" fill-opacity="1"><use xlink:href="#57990075cc4c288100c84c63c637f978yq1m27nj__glyph-6-2" x="227.349591" y="8.400472"/></g><path fill="none" stroke="rgb(0%, 0%, 0%)" stroke-linecap="butt" stroke-linejoin="miter" stroke-miterlimit="10" stroke-opacity="1" stroke-width="0.39848" d="M -0.000525991 15.6636 L -0.000525991 -19.405925 " transform="matrix(0.991557, 0, 0, -0.991557, 176.691928, 35.007916)"/><path fill="none" stroke="rgb(0%, 0%, 0%)" stroke-linecap="round" stroke-linejoin="round" stroke-miterlimit="10" stroke-opacity="1" stroke-width="0.39848" d="M -2.070493 2.390757 C -1.6923 0.956775 -0.849244 0.279179 0.00169001 -0.000525991 C -0.849244 -0.280231 -1.6923 -0.957827 -2.070493 -2.391809 " transform="matrix(0, 0.991557, 0.991557, 0, 176.691928, 54.447543)"/><g fill="rgb(0%, 0%, 0%)" fill-opacity="1"><use xlink:href="#57990075cc4c288100c84c63c637f978yq1m27nj__glyph-4-1" x="179.016138" y="38.549759"/></g><path fill="none" stroke="rgb(0%, 0%, 0%)" stroke-linecap="butt" stroke-linejoin="miter" stroke-miterlimit="10" stroke-opacity="1" stroke-width="0.39848" d="M 92.849802 15.6636 L 17.723333 -19.634417 " transform="matrix(0.991557, 0, 0, -0.991557, 176.691928, 35.007916)"/><path fill="none" stroke="rgb(0%, 0%, 0%)" stroke-linecap="round" stroke-linejoin="round" stroke-miterlimit="10" stroke-opacity="1" stroke-width="0.39848" d="M -2.07236 2.389859 C -1.691936 0.957531 -0.848788 0.278469 0.000398173 0.00137727 C -0.849279 -0.278454 -1.694514 -0.956473 -2.07189 -2.389695 " transform="matrix(-0.897419, 0.42163, 0.42163, 0.897419, 194.085714, 54.561096)"/><g fill="rgb(0%, 0%, 0%)" fill-opacity="1"><use xlink:href="#57990075cc4c288100c84c63c637f978yq1m27nj__glyph-4-1" x="233.655894" y="42.362296"/></g><g fill="rgb(0%, 0%, 0%)" fill-opacity="1"><use xlink:href="#57990075cc4c288100c84c63c637f978yq1m27nj__glyph-8-0" x="238.275559" y="43.349887"/></g></svg>