<?xml version="1.0" encoding="UTF-8"?><svg xmlns="http://www.w3.org/2000/svg" xmlns:xlink="http://www.w3.org/1999/xlink" width="709.494" height="223.208" viewBox="0 0 709.494 223.208"><defs><g><g id="a2e289c7b6940d941d82031e9d2919af7qrszrin__glyph-0-0"><path d="M 4.5625 -3.171875 C 4.5625 -3.96875 4.515625 -4.765625 4.171875 -5.5 C 3.703125 -6.453125 2.890625 -6.609375 2.484375 -6.609375 C 1.890625 -6.609375 1.15625 -6.34375 0.75 -5.421875 C 0.4375 -4.75 0.390625 -3.96875 0.390625 -3.171875 C 0.390625 -2.4375 0.421875 -1.53125 0.828125 -0.78125 C 1.265625 0.015625 1.984375 0.21875 2.46875 0.21875 C 3 0.21875 3.765625 0.015625 4.203125 -0.9375 C 4.515625 -1.625 4.5625 -2.390625 4.5625 -3.171875 Z M 2.46875 0 C 2.078125 0 1.5 -0.25 1.3125 -1.203125 C 1.203125 -1.796875 1.203125 -2.703125 1.203125 -3.296875 C 1.203125 -3.921875 1.203125 -4.578125 1.296875 -5.125 C 1.484375 -6.296875 2.21875 -6.390625 2.46875 -6.390625 C 2.796875 -6.390625 3.453125 -6.21875 3.640625 -5.234375 C 3.734375 -4.671875 3.734375 -3.921875 3.734375 -3.296875 C 3.734375 -2.546875 3.734375 -1.875 3.625 -1.234375 C 3.484375 -0.296875 2.921875 0 2.46875 0 Z M 2.46875 0 "/></g><g id="a2e289c7b6940d941d82031e9d2919af7qrszrin__glyph-0-1"><path d="M 3.28125 2.375 C 3.28125 2.34375 3.28125 2.328125 3.109375 2.15625 C 1.875 0.90625 1.5625 -0.96875 1.5625 -2.484375 C 1.5625 -4.203125 1.9375 -5.9375 3.15625 -7.171875 C 3.28125 -7.296875 3.28125 -7.3125 3.28125 -7.34375 C 3.28125 -7.40625 3.25 -7.4375 3.1875 -7.4375 C 3.078125 -7.4375 2.1875 -6.765625 1.609375 -5.5 C 1.09375 -4.421875 0.984375 -3.3125 0.984375 -2.484375 C 0.984375 -1.703125 1.09375 -0.5 1.640625 0.609375 C 2.234375 1.828125 3.078125 2.484375 3.1875 2.484375 C 3.25 2.484375 3.28125 2.453125 3.28125 2.375 Z M 3.28125 2.375 "/></g><g id="a2e289c7b6940d941d82031e9d2919af7qrszrin__glyph-0-2"><path d="M 2.875 -2.484375 C 2.875 -3.25 2.765625 -4.453125 2.21875 -5.578125 C 1.625 -6.796875 0.765625 -7.4375 0.671875 -7.4375 C 0.609375 -7.4375 0.5625 -7.40625 0.5625 -7.34375 C 0.5625 -7.3125 0.5625 -7.296875 0.75 -7.109375 C 1.71875 -6.125 2.296875 -4.546875 2.296875 -2.484375 C 2.296875 -0.78125 1.921875 0.96875 0.6875 2.21875 C 0.5625 2.328125 0.5625 2.34375 0.5625 2.375 C 0.5625 2.4375 0.609375 2.484375 0.671875 2.484375 C 0.765625 2.484375 1.65625 1.8125 2.25 0.546875 C 2.75 -0.546875 2.875 -1.640625 2.875 -2.484375 Z M 2.875 -2.484375 "/></g><g id="a2e289c7b6940d941d82031e9d2919af7qrszrin__glyph-0-3"><path d="M 6.8125 -3.25 C 6.96875 -3.25 7.15625 -3.25 7.15625 -3.4375 C 7.15625 -3.640625 6.96875 -3.640625 6.828125 -3.640625 L 0.890625 -3.640625 C 0.75 -3.640625 0.5625 -3.640625 0.5625 -3.4375 C 0.5625 -3.25 0.75 -3.25 0.890625 -3.25 Z M 6.828125 -1.3125 C 6.96875 -1.3125 7.15625 -1.3125 7.15625 -1.515625 C 7.15625 -1.71875 6.96875 -1.71875 6.8125 -1.71875 L 0.890625 -1.71875 C 0.75 -1.71875 0.5625 -1.71875 0.5625 -1.515625 C 0.5625 -1.3125 0.75 -1.3125 0.890625 -1.3125 Z M 6.828125 -1.3125 "/></g><g id="a2e289c7b6940d941d82031e9d2919af7qrszrin__glyph-1-0"><path d="M 7.578125 -6.015625 C 7.65625 -6.375 7.671875 -6.46875 8.40625 -6.46875 C 8.65625 -6.46875 8.734375 -6.46875 8.734375 -6.671875 C 8.734375 -6.78125 8.625 -6.78125 8.609375 -6.78125 C 8.328125 -6.78125 7.609375 -6.75 7.328125 -6.75 C 7.046875 -6.75 6.34375 -6.78125 6.046875 -6.78125 C 5.96875 -6.78125 5.859375 -6.78125 5.859375 -6.578125 C 5.859375 -6.46875 5.953125 -6.46875 6.140625 -6.46875 C 6.15625 -6.46875 6.34375 -6.46875 6.515625 -6.453125 C 6.703125 -6.421875 6.78125 -6.421875 6.78125 -6.296875 C 6.78125 -6.25 6.78125 -6.234375 6.75 -6.109375 L 6.15625 -3.6875 L 3.125 -3.6875 L 3.703125 -6.015625 C 3.796875 -6.375 3.828125 -6.46875 4.546875 -6.46875 C 4.796875 -6.46875 4.875 -6.46875 4.875 -6.671875 C 4.875 -6.78125 4.765625 -6.78125 4.75 -6.78125 C 4.46875 -6.78125 3.75 -6.75 3.46875 -6.75 C 3.1875 -6.75 2.484375 -6.78125 2.1875 -6.78125 C 2.109375 -6.78125 2 -6.78125 2 -6.578125 C 2 -6.46875 2.09375 -6.46875 2.28125 -6.46875 C 2.296875 -6.46875 2.484375 -6.46875 2.65625 -6.453125 C 2.84375 -6.421875 2.921875 -6.421875 2.921875 -6.296875 C 2.921875 -6.25 2.921875 -6.21875 2.890625 -6.109375 L 1.5625 -0.78125 C 1.453125 -0.390625 1.4375 -0.3125 0.65625 -0.3125 C 0.46875 -0.3125 0.390625 -0.3125 0.390625 -0.109375 C 0.390625 0 0.5 0 0.53125 0 C 0.796875 0 1.515625 -0.03125 1.78125 -0.03125 C 2 -0.03125 2.21875 -0.015625 2.421875 -0.015625 C 2.640625 -0.015625 2.859375 0 3.0625 0 C 3.140625 0 3.265625 0 3.265625 -0.203125 C 3.265625 -0.3125 3.171875 -0.3125 2.984375 -0.3125 C 2.625 -0.3125 2.34375 -0.3125 2.34375 -0.484375 C 2.34375 -0.546875 2.359375 -0.59375 2.375 -0.65625 L 3.046875 -3.375 L 6.078125 -3.375 C 5.65625 -1.71875 5.421875 -0.78125 5.390625 -0.640625 C 5.28125 -0.3125 5.09375 -0.3125 4.484375 -0.3125 C 4.328125 -0.3125 4.25 -0.3125 4.25 -0.109375 C 4.25 0 4.359375 0 4.390625 0 C 4.65625 0 5.375 -0.03125 5.640625 -0.03125 C 5.859375 -0.03125 6.078125 -0.015625 6.28125 -0.015625 C 6.5 -0.015625 6.71875 0 6.921875 0 C 7 0 7.125 0 7.125 -0.203125 C 7.125 -0.3125 7.03125 -0.3125 6.84375 -0.3125 C 6.484375 -0.3125 6.203125 -0.3125 6.203125 -0.484375 C 6.203125 -0.546875 6.21875 -0.59375 6.234375 -0.65625 Z M 7.578125 -6.015625 "/></g><g id="a2e289c7b6940d941d82031e9d2919af7qrszrin__glyph-1-1"><path d="M 4.8125 -4.078125 L 3.984375 -6.046875 C 3.953125 -6.125 3.921875 -6.171875 3.921875 -6.1875 C 3.921875 -6.234375 4.09375 -6.421875 4.515625 -6.46875 C 4.609375 -6.484375 4.71875 -6.484375 4.71875 -6.65625 C 4.71875 -6.78125 4.59375 -6.78125 4.5625 -6.78125 C 4.15625 -6.78125 3.734375 -6.75 3.3125 -6.75 C 3.0625 -6.75 2.453125 -6.78125 2.203125 -6.78125 C 2.140625 -6.78125 2.03125 -6.78125 2.03125 -6.578125 C 2.03125 -6.46875 2.125 -6.46875 2.25 -6.46875 C 2.84375 -6.46875 2.90625 -6.375 3 -6.15625 L 4.171875 -3.390625 L 2.078125 -1.125 L 1.9375 -1.015625 C 1.453125 -0.5 0.984375 -0.34375 0.484375 -0.3125 C 0.359375 -0.296875 0.265625 -0.296875 0.265625 -0.109375 C 0.265625 -0.09375 0.265625 0 0.390625 0 C 0.6875 0 1.015625 -0.03125 1.328125 -0.03125 C 1.703125 -0.03125 2.078125 0 2.4375 0 C 2.5 0 2.625 0 2.625 -0.203125 C 2.625 -0.296875 2.515625 -0.3125 2.5 -0.3125 C 2.40625 -0.3125 2.109375 -0.34375 2.109375 -0.609375 C 2.109375 -0.78125 2.25 -0.9375 2.375 -1.0625 L 3.390625 -2.140625 L 4.28125 -3.109375 L 5.28125 -0.734375 C 5.3125 -0.625 5.328125 -0.609375 5.328125 -0.59375 C 5.328125 -0.515625 5.140625 -0.34375 4.75 -0.3125 C 4.640625 -0.296875 4.546875 -0.28125 4.546875 -0.125 C 4.546875 0 4.65625 0 4.703125 0 C 4.984375 0 5.671875 -0.03125 5.953125 -0.03125 C 6.203125 -0.03125 6.8125 0 7.046875 0 C 7.125 0 7.25 0 7.25 -0.1875 C 7.25 -0.3125 7.140625 -0.3125 7.0625 -0.3125 C 6.40625 -0.3125 6.375 -0.34375 6.21875 -0.75 C 5.828125 -1.671875 5.15625 -3.21875 4.9375 -3.8125 C 5.609375 -4.5 6.640625 -5.6875 6.96875 -5.96875 C 7.25 -6.203125 7.625 -6.4375 8.21875 -6.46875 C 8.359375 -6.484375 8.4375 -6.484375 8.4375 -6.671875 C 8.4375 -6.671875 8.4375 -6.78125 8.3125 -6.78125 C 8.015625 -6.78125 7.6875 -6.75 7.375 -6.75 C 7.015625 -6.75 6.640625 -6.78125 6.28125 -6.78125 C 6.21875 -6.78125 6.09375 -6.78125 6.09375 -6.578125 C 6.09375 -6.515625 6.140625 -6.484375 6.21875 -6.46875 C 6.296875 -6.453125 6.609375 -6.4375 6.609375 -6.15625 C 6.609375 -6.015625 6.5 -5.890625 6.421875 -5.796875 Z M 4.8125 -4.078125 "/></g><g id="a2e289c7b6940d941d82031e9d2919af7qrszrin__glyph-1-2"><path d="M 2.015625 -0.015625 C 2.015625 -0.671875 1.765625 -1.046875 1.375 -1.046875 C 1.046875 -1.046875 0.859375 -0.796875 0.859375 -0.53125 C 0.859375 -0.265625 1.046875 0 1.375 0 C 1.5 0 1.625 -0.046875 1.71875 -0.125 C 1.75 -0.15625 1.765625 -0.15625 1.78125 -0.15625 C 1.78125 -0.15625 1.796875 -0.15625 1.796875 -0.015625 C 1.796875 0.71875 1.453125 1.3125 1.125 1.640625 C 1.015625 1.75 1.015625 1.78125 1.015625 1.8125 C 1.015625 1.875 1.0625 1.921875 1.109375 1.921875 C 1.21875 1.921875 2.015625 1.15625 2.015625 -0.015625 Z M 2.015625 -0.015625 "/></g><g id="a2e289c7b6940d941d82031e9d2919af7qrszrin__glyph-2-0"><path d="M 0.84375 -0.4375 C 0.828125 -0.34375 0.78125 -0.171875 0.78125 -0.15625 C 0.78125 0 0.90625 0.0625 1.015625 0.0625 C 1.140625 0.0625 1.25 -0.015625 1.28125 -0.078125 C 1.328125 -0.140625 1.375 -0.375 1.40625 -0.515625 C 1.453125 -0.640625 1.515625 -0.96875 1.5625 -1.140625 C 1.609375 -1.296875 1.640625 -1.453125 1.6875 -1.609375 C 1.765625 -1.890625 1.765625 -1.953125 1.96875 -2.234375 C 2.171875 -2.515625 2.5 -2.875 3.015625 -2.875 C 3.421875 -2.875 3.421875 -2.515625 3.421875 -2.390625 C 3.421875 -1.96875 3.125 -1.203125 3.015625 -0.90625 C 2.9375 -0.703125 2.90625 -0.640625 2.90625 -0.53125 C 2.90625 -0.15625 3.21875 0.0625 3.578125 0.0625 C 4.265625 0.0625 4.578125 -0.890625 4.578125 -1 C 4.578125 -1.078125 4.484375 -1.078125 4.46875 -1.078125 C 4.359375 -1.078125 4.359375 -1.046875 4.328125 -0.96875 C 4.171875 -0.40625 3.875 -0.125 3.59375 -0.125 C 3.453125 -0.125 3.421875 -0.21875 3.421875 -0.375 C 3.421875 -0.53125 3.453125 -0.625 3.578125 -0.9375 C 3.671875 -1.140625 3.953125 -1.890625 3.953125 -2.28125 C 3.953125 -2.953125 3.40625 -3.0625 3.046875 -3.0625 C 2.46875 -3.0625 2.078125 -2.71875 1.875 -2.4375 C 1.828125 -2.90625 1.40625 -3.0625 1.125 -3.0625 C 0.828125 -3.0625 0.671875 -2.84375 0.578125 -2.6875 C 0.421875 -2.4375 0.328125 -2.03125 0.328125 -2 C 0.328125 -1.90625 0.421875 -1.90625 0.4375 -1.90625 C 0.546875 -1.90625 0.546875 -1.9375 0.59375 -2.125 C 0.703125 -2.53125 0.828125 -2.875 1.109375 -2.875 C 1.28125 -2.875 1.328125 -2.71875 1.328125 -2.53125 C 1.328125 -2.40625 1.265625 -2.140625 1.21875 -1.953125 C 1.171875 -1.765625 1.109375 -1.484375 1.078125 -1.328125 Z M 0.84375 -0.4375 "/></g><g id="a2e289c7b6940d941d82031e9d2919af7qrszrin__glyph-2-1"><path d="M 3.046875 -4.34375 C 3.046875 -4.46875 2.96875 -4.609375 2.78125 -4.609375 C 2.578125 -4.609375 2.390625 -4.421875 2.390625 -4.234375 C 2.390625 -4.109375 2.46875 -3.96875 2.65625 -3.96875 C 2.84375 -3.96875 3.046875 -4.140625 3.046875 -4.34375 Z M 1.578125 0.34375 C 1.453125 0.828125 1.09375 1.21875 0.6875 1.21875 C 0.59375 1.21875 0.5 1.203125 0.4375 1.1875 C 0.609375 1.09375 0.671875 0.9375 0.671875 0.828125 C 0.671875 0.65625 0.53125 0.5625 0.390625 0.5625 C 0.1875 0.5625 0 0.765625 0 0.984375 C 0 1.25 0.265625 1.421875 0.6875 1.421875 C 1.109375 1.421875 1.921875 1.171875 2.140625 0.3125 L 2.765625 -2.171875 C 2.78125 -2.25 2.796875 -2.3125 2.796875 -2.40625 C 2.796875 -2.796875 2.46875 -3.0625 2.046875 -3.0625 C 1.28125 -3.0625 0.828125 -2.09375 0.828125 -2 C 0.828125 -1.90625 0.9375 -1.90625 0.953125 -1.90625 C 1.03125 -1.90625 1.046875 -1.9375 1.09375 -2.03125 C 1.265625 -2.4375 1.625 -2.875 2.03125 -2.875 C 2.203125 -2.875 2.265625 -2.75 2.265625 -2.53125 C 2.265625 -2.453125 2.25 -2.359375 2.25 -2.328125 Z M 1.578125 0.34375 "/></g><g id="a2e289c7b6940d941d82031e9d2919af7qrszrin__glyph-2-2"><path d="M 2.046875 -3.03125 C 1.015625 -2.765625 0.421875 -1.859375 0.421875 -1.140625 C 0.421875 -0.390625 0.984375 0.078125 1.671875 0.078125 C 2.515625 0.078125 3.171875 -0.90625 3.171875 -1.921875 C 3.171875 -2.59375 2.8125 -2.984375 2.59375 -3.21875 C 2.34375 -3.515625 1.8125 -4.09375 1.8125 -4.40625 C 1.8125 -4.5 1.90625 -4.703125 2.203125 -4.703125 C 2.4375 -4.703125 2.625 -4.59375 2.78125 -4.5 C 2.84375 -4.46875 3.09375 -4.328125 3.203125 -4.328125 C 3.359375 -4.328125 3.484375 -4.484375 3.484375 -4.609375 C 3.484375 -4.796875 3.40625 -4.8125 3.03125 -4.875 C 2.9375 -4.890625 2.625 -4.96875 2.40625 -4.96875 C 1.875 -4.96875 1.578125 -4.65625 1.578125 -4.234375 C 1.578125 -3.859375 1.8125 -3.4375 2.046875 -3.03125 Z M 2.171875 -2.84375 C 2.359375 -2.53125 2.609375 -2.125 2.609375 -1.625 C 2.609375 -1.046875 2.28125 -0.109375 1.6875 -0.109375 C 1.3125 -0.109375 0.9375 -0.359375 0.9375 -0.9375 C 0.9375 -1.390625 1.203125 -2.59375 2.171875 -2.84375 Z M 2.171875 -2.84375 "/></g><g id="a2e289c7b6940d941d82031e9d2919af7qrszrin__glyph-2-3"><path d="M 3.96875 -4.609375 C 3.984375 -4.625 4 -4.71875 4 -4.734375 C 4 -4.765625 3.96875 -4.828125 3.890625 -4.828125 C 3.75 -4.828125 3.171875 -4.765625 3 -4.75 C 2.9375 -4.75 2.84375 -4.734375 2.84375 -4.59375 C 2.84375 -4.5 2.9375 -4.5 3.03125 -4.5 C 3.359375 -4.5 3.359375 -4.453125 3.359375 -4.390625 C 3.359375 -4.34375 3.34375 -4.296875 3.328125 -4.234375 L 2.9375 -2.65625 C 2.78125 -2.890625 2.546875 -3.0625 2.21875 -3.0625 C 1.328125 -3.0625 0.421875 -2.09375 0.421875 -1.078125 C 0.421875 -0.40625 0.875 0.0625 1.46875 0.0625 C 1.84375 0.0625 2.1875 -0.140625 2.46875 -0.421875 C 2.59375 0 3 0.0625 3.171875 0.0625 C 3.421875 0.0625 3.609375 -0.078125 3.734375 -0.296875 C 3.875 -0.5625 3.96875 -0.96875 3.96875 -1 C 3.96875 -1.078125 3.875 -1.078125 3.859375 -1.078125 C 3.765625 -1.078125 3.75 -1.0625 3.703125 -0.875 C 3.625 -0.53125 3.484375 -0.125 3.203125 -0.125 C 3.015625 -0.125 2.96875 -0.28125 2.96875 -0.46875 C 2.96875 -0.59375 2.984375 -0.65625 3 -0.75 Z M 2.484375 -0.875 C 2.4375 -0.671875 2.28125 -0.53125 2.140625 -0.40625 C 2.078125 -0.34375 1.796875 -0.125 1.5 -0.125 C 1.234375 -0.125 0.984375 -0.3125 0.984375 -0.796875 C 0.984375 -1.171875 1.1875 -1.9375 1.34375 -2.21875 C 1.671875 -2.765625 2.015625 -2.875 2.21875 -2.875 C 2.703125 -2.875 2.84375 -2.34375 2.84375 -2.265625 C 2.84375 -2.234375 2.828125 -2.1875 2.8125 -2.171875 Z M 2.484375 -0.875 "/></g><g id="a2e289c7b6940d941d82031e9d2919af7qrszrin__glyph-3-0"><path d="M 3.21875 -1.578125 L 5.34375 -1.578125 C 5.4375 -1.578125 5.609375 -1.578125 5.609375 -1.734375 C 5.609375 -1.90625 5.4375 -1.90625 5.34375 -1.90625 L 3.21875 -1.90625 L 3.21875 -4.046875 C 3.21875 -4.140625 3.21875 -4.296875 3.046875 -4.296875 C 2.875 -4.296875 2.875 -4.140625 2.875 -4.046875 L 2.875 -1.90625 L 0.75 -1.90625 C 0.65625 -1.90625 0.484375 -1.90625 0.484375 -1.75 C 0.484375 -1.578125 0.640625 -1.578125 0.75 -1.578125 L 2.875 -1.578125 L 2.875 0.5625 C 2.875 0.65625 2.875 0.828125 3.046875 0.828125 C 3.21875 0.828125 3.21875 0.65625 3.21875 0.5625 Z M 3.21875 -1.578125 "/></g><g id="a2e289c7b6940d941d82031e9d2919af7qrszrin__glyph-3-1"><path d="M 2.328125 -4.421875 C 2.328125 -4.609375 2.3125 -4.609375 2.125 -4.609375 C 1.671875 -4.171875 1.046875 -4.171875 0.765625 -4.171875 L 0.765625 -3.921875 C 0.921875 -3.921875 1.390625 -3.921875 1.765625 -4.109375 L 1.765625 -0.5625 C 1.765625 -0.34375 1.765625 -0.25 1.078125 -0.25 L 0.8125 -0.25 L 0.8125 0 C 0.9375 0 1.78125 -0.03125 2.046875 -0.03125 C 2.265625 -0.03125 3.140625 0 3.28125 0 L 3.28125 -0.25 L 3.03125 -0.25 C 2.328125 -0.25 2.328125 -0.34375 2.328125 -0.5625 Z M 2.328125 -4.421875 "/></g><g id="a2e289c7b6940d941d82031e9d2919af7qrszrin__glyph-3-2"><path d="M 3.515625 -1.265625 L 3.28125 -1.265625 C 3.25 -1.109375 3.1875 -0.703125 3.09375 -0.625 C 3.03125 -0.59375 2.5 -0.59375 2.40625 -0.59375 L 1.125 -0.59375 C 1.859375 -1.234375 2.09375 -1.4375 2.515625 -1.765625 C 3.03125 -2.171875 3.515625 -2.59375 3.515625 -3.265625 C 3.515625 -4.109375 2.78125 -4.609375 1.890625 -4.609375 C 1.015625 -4.609375 0.4375 -4.015625 0.4375 -3.375 C 0.4375 -3.015625 0.734375 -2.984375 0.8125 -2.984375 C 0.96875 -2.984375 1.171875 -3.09375 1.171875 -3.34375 C 1.171875 -3.484375 1.125 -3.71875 0.765625 -3.71875 C 0.984375 -4.21875 1.453125 -4.359375 1.78125 -4.359375 C 2.46875 -4.359375 2.84375 -3.828125 2.84375 -3.265625 C 2.84375 -2.65625 2.40625 -2.171875 2.1875 -1.921875 L 0.5 -0.265625 C 0.4375 -0.203125 0.4375 -0.1875 0.4375 0 L 3.296875 0 Z M 3.515625 -1.265625 "/></g><g id="a2e289c7b6940d941d82031e9d2919af7qrszrin__glyph-4-0"><path d="M 7.15625 -3.3125 C 7.15625 -3.53125 7.109375 -3.625 7.03125 -3.625 C 6.96875 -3.625 6.890625 -3.5625 6.890625 -3.375 C 6.84375 -2.421875 6.1875 -1.875 5.5 -1.875 C 4.875 -1.875 4.390625 -2.296875 3.90625 -2.734375 C 3.40625 -3.1875 2.890625 -3.640625 2.21875 -3.640625 C 1.125 -3.640625 0.546875 -2.546875 0.546875 -1.640625 C 0.546875 -1.328125 0.671875 -1.328125 0.6875 -1.328125 C 0.796875 -1.328125 0.828125 -1.53125 0.828125 -1.5625 C 0.859375 -2.65625 1.609375 -3.078125 2.21875 -3.078125 C 2.84375 -3.078125 3.3125 -2.65625 3.796875 -2.234375 C 4.3125 -1.78125 4.828125 -1.3125 5.5 -1.3125 C 6.578125 -1.3125 7.15625 -2.40625 7.15625 -3.3125 Z M 7.15625 -3.3125 "/></g><g id="a2e289c7b6940d941d82031e9d2919af7qrszrin__glyph-4-1"><path d="M 1.90625 -2.484375 C 1.90625 -2.765625 1.671875 -3 1.375 -3 C 1.09375 -3 0.859375 -2.765625 0.859375 -2.484375 C 0.859375 -2.1875 1.09375 -1.953125 1.375 -1.953125 C 1.671875 -1.953125 1.90625 -2.1875 1.90625 -2.484375 Z M 1.90625 -2.484375 "/></g><g id="a2e289c7b6940d941d82031e9d2919af7qrszrin__glyph-5-0"><path d="M 5.171875 -1.578125 C 5.28125 -1.578125 5.453125 -1.578125 5.453125 -1.734375 C 5.453125 -1.90625 5.296875 -1.90625 5.171875 -1.90625 L 1.03125 -1.90625 C 0.921875 -1.90625 0.75 -1.90625 0.75 -1.75 C 0.75 -1.578125 0.90625 -1.578125 1.03125 -1.578125 Z M 5.171875 -1.578125 "/></g><g id="a2e289c7b6940d941d82031e9d2919af7qrszrin__glyph-6-0"><path d="M 0.96875 -0.484375 C 0.9375 -0.359375 0.890625 -0.140625 0.890625 -0.125 C 0.890625 -0.015625 0.96875 0.046875 1.0625 0.046875 C 1.140625 0.046875 1.25 0.015625 1.3125 -0.109375 C 1.3125 -0.140625 1.375 -0.375 1.40625 -0.5 C 1.5625 -1.171875 1.5625 -1.171875 1.578125 -1.203125 C 1.640625 -1.328125 2 -2.03125 2.609375 -2.03125 C 2.859375 -2.03125 2.953125 -1.890625 2.953125 -1.671875 C 2.953125 -1.390625 2.75 -0.875 2.640625 -0.59375 C 2.609375 -0.53125 2.578125 -0.46875 2.578125 -0.375 C 2.578125 -0.125 2.828125 0.046875 3.125 0.046875 C 3.65625 0.046875 3.9375 -0.59375 3.9375 -0.71875 C 3.9375 -0.78125 3.84375 -0.78125 3.828125 -0.78125 C 3.734375 -0.78125 3.734375 -0.765625 3.703125 -0.671875 C 3.609375 -0.375 3.390625 -0.109375 3.140625 -0.109375 C 3.03125 -0.109375 3 -0.1875 3 -0.296875 C 3 -0.40625 3.015625 -0.453125 3.0625 -0.5625 C 3.140625 -0.765625 3.375 -1.328125 3.375 -1.609375 C 3.375 -1.96875 3.109375 -2.203125 2.640625 -2.203125 C 2.1875 -2.203125 1.875 -1.921875 1.703125 -1.703125 C 1.671875 -2.109375 1.28125 -2.203125 1.09375 -2.203125 C 0.59375 -2.203125 0.453125 -1.4375 0.453125 -1.421875 C 0.453125 -1.359375 0.53125 -1.359375 0.5625 -1.359375 C 0.640625 -1.359375 0.65625 -1.390625 0.671875 -1.453125 C 0.75 -1.734375 0.859375 -2.03125 1.0625 -2.03125 C 1.234375 -2.03125 1.265625 -1.875 1.265625 -1.765625 C 1.265625 -1.6875 1.21875 -1.5 1.1875 -1.375 C 1.15625 -1.234375 1.109375 -1.03125 1.078125 -0.921875 Z M 0.96875 -0.484375 "/></g><g id="a2e289c7b6940d941d82031e9d2919af7qrszrin__glyph-7-0"><path d="M 2.6875 -1.109375 L 4.421875 -1.109375 C 4.484375 -1.109375 4.625 -1.109375 4.625 -1.234375 C 4.625 -1.375 4.484375 -1.375 4.421875 -1.375 L 2.6875 -1.375 L 2.6875 -3.109375 C 2.6875 -3.1875 2.6875 -3.3125 2.546875 -3.3125 C 2.421875 -3.3125 2.421875 -3.1875 2.421875 -3.109375 L 2.421875 -1.375 L 0.6875 -1.375 C 0.609375 -1.375 0.484375 -1.375 0.484375 -1.234375 C 0.484375 -1.109375 0.609375 -1.109375 0.6875 -1.109375 L 2.421875 -1.109375 L 2.421875 0.625 C 2.421875 0.703125 2.421875 0.828125 2.546875 0.828125 C 2.6875 0.828125 2.6875 0.703125 2.6875 0.625 Z M 2.6875 -1.109375 "/></g><g id="a2e289c7b6940d941d82031e9d2919af7qrszrin__glyph-7-1"><path d="M 1.984375 -3.15625 C 1.984375 -3.3125 1.96875 -3.3125 1.796875 -3.3125 C 1.453125 -2.984375 0.890625 -2.984375 0.796875 -2.984375 L 0.703125 -2.984375 L 0.703125 -2.765625 L 0.796875 -2.765625 C 0.90625 -2.765625 1.234375 -2.78125 1.515625 -2.90625 L 1.515625 -0.421875 C 1.515625 -0.265625 1.515625 -0.21875 1 -0.21875 L 0.75 -0.21875 L 0.75 0 C 1.015625 -0.015625 1.453125 -0.015625 1.75 -0.015625 C 2.03125 -0.015625 2.484375 -0.015625 2.75 0 L 2.75 -0.21875 L 2.5 -0.21875 C 1.984375 -0.21875 1.984375 -0.265625 1.984375 -0.421875 Z M 1.984375 -3.15625 "/></g><g id="a2e289c7b6940d941d82031e9d2919af7qrszrin__glyph-8-0"><path d="M 4.375 -1.109375 C 4.453125 -1.109375 4.59375 -1.109375 4.59375 -1.234375 C 4.59375 -1.375 4.453125 -1.375 4.375 -1.375 L 1.015625 -1.375 C 0.921875 -1.375 0.796875 -1.375 0.796875 -1.234375 C 0.796875 -1.109375 0.921875 -1.109375 1.015625 -1.109375 Z M 4.375 -1.109375 "/></g></g></defs><g fill="rgb(0%, 0%, 0%)" fill-opacity="1"><use xlink:href="#a2e289c7b6940d941d82031e9d2919af7qrszrin__glyph-0-0" x="427.379282" y="10.030409"/></g><g fill="rgb(0%, 0%, 0%)" fill-opacity="1"><use xlink:href="#a2e289c7b6940d941d82031e9d2919af7qrszrin__glyph-0-0" x="139.110136" y="42.611802"/></g><g fill="rgb(0%, 0%, 0%)" fill-opacity="1"><use xlink:href="#a2e289c7b6940d941d82031e9d2919af7qrszrin__glyph-1-0" x="279.131304" y="42.611802"/></g><g fill="rgb(0%, 0%, 0%)" fill-opacity="1"><use xlink:href="#a2e289c7b6940d941d82031e9d2919af7qrszrin__glyph-2-0" x="288.189165" y="39.009584"/></g><g fill="rgb(0%, 0%, 0%)" fill-opacity="1"><use xlink:href="#a2e289c7b6940d941d82031e9d2919af7qrszrin__glyph-0-1" x="293.59299" y="42.611802"/></g><g fill="rgb(0%, 0%, 0%)" fill-opacity="1"><use xlink:href="#a2e289c7b6940d941d82031e9d2919af7qrszrin__glyph-1-1" x="297.453746" y="42.611802"/></g><g fill="rgb(0%, 0%, 0%)" fill-opacity="1"><use xlink:href="#a2e289c7b6940d941d82031e9d2919af7qrszrin__glyph-2-0" x="305.679106" y="44.10052"/></g><g fill="rgb(0%, 0%, 0%)" fill-opacity="1"><use xlink:href="#a2e289c7b6940d941d82031e9d2919af7qrszrin__glyph-3-0" x="310.58659" y="44.10052"/><use xlink:href="#a2e289c7b6940d941d82031e9d2919af7qrszrin__glyph-3-1" x="316.680988" y="44.10052"/></g><g fill="rgb(0%, 0%, 0%)" fill-opacity="1"><use xlink:href="#a2e289c7b6940d941d82031e9d2919af7qrszrin__glyph-0-2" x="321.134267" y="42.611802"/></g><g fill="rgb(0%, 0%, 0%)" fill-opacity="1"><use xlink:href="#a2e289c7b6940d941d82031e9d2919af7qrszrin__glyph-4-0" x="327.751786" y="39.962204"/></g><g fill="rgb(0%, 0%, 0%)" fill-opacity="1"><use xlink:href="#a2e289c7b6940d941d82031e9d2919af7qrszrin__glyph-0-3" x="327.751786" y="43.108041"/></g><g fill="rgb(0%, 0%, 0%)" fill-opacity="1"><use xlink:href="#a2e289c7b6940d941d82031e9d2919af7qrszrin__glyph-1-0" x="338.231601" y="42.611802"/></g><g fill="rgb(0%, 0%, 0%)" fill-opacity="1"><use xlink:href="#a2e289c7b6940d941d82031e9d2919af7qrszrin__glyph-2-0" x="347.289461" y="39.009584"/></g><g fill="rgb(0%, 0%, 0%)" fill-opacity="1"><use xlink:href="#a2e289c7b6940d941d82031e9d2919af7qrszrin__glyph-0-1" x="352.693287" y="42.611802"/></g><g fill="rgb(0%, 0%, 0%)" fill-opacity="1"><use xlink:href="#a2e289c7b6940d941d82031e9d2919af7qrszrin__glyph-1-1" x="356.554043" y="42.611802"/></g><g fill="rgb(0%, 0%, 0%)" fill-opacity="1"><use xlink:href="#a2e289c7b6940d941d82031e9d2919af7qrszrin__glyph-0-2" x="365.553209" y="42.611802"/></g><g fill="rgb(0%, 0%, 0%)" fill-opacity="1"><use xlink:href="#a2e289c7b6940d941d82031e9d2919af7qrszrin__glyph-1-0" x="210.94425" y="77.674391"/></g><g fill="rgb(0%, 0%, 0%)" fill-opacity="1"><use xlink:href="#a2e289c7b6940d941d82031e9d2919af7qrszrin__glyph-2-0" x="220.003106" y="74.072173"/></g><g fill="rgb(0%, 0%, 0%)" fill-opacity="1"><use xlink:href="#a2e289c7b6940d941d82031e9d2919af7qrszrin__glyph-0-1" x="225.406932" y="77.674391"/></g><g fill="rgb(0%, 0%, 0%)" fill-opacity="1"><use xlink:href="#a2e289c7b6940d941d82031e9d2919af7qrszrin__glyph-1-1" x="229.267688" y="77.674391"/></g><g fill="rgb(0%, 0%, 0%)" fill-opacity="1"><use xlink:href="#a2e289c7b6940d941d82031e9d2919af7qrszrin__glyph-2-0" x="237.492051" y="79.164105"/></g><g fill="rgb(0%, 0%, 0%)" fill-opacity="1"><use xlink:href="#a2e289c7b6940d941d82031e9d2919af7qrszrin__glyph-0-2" x="242.895877" y="77.674391"/></g><g fill="rgb(0%, 0%, 0%)" fill-opacity="1"><use xlink:href="#a2e289c7b6940d941d82031e9d2919af7qrszrin__glyph-4-1" x="36.832045" y="113.373721"/></g><g fill="rgb(0%, 0%, 0%)" fill-opacity="1"><use xlink:href="#a2e289c7b6940d941d82031e9d2919af7qrszrin__glyph-4-1" x="41.247741" y="113.373721"/></g><g fill="rgb(0%, 0%, 0%)" fill-opacity="1"><use xlink:href="#a2e289c7b6940d941d82031e9d2919af7qrszrin__glyph-4-1" x="45.65351" y="113.373721"/></g><g fill="rgb(0%, 0%, 0%)" fill-opacity="1"><use xlink:href="#a2e289c7b6940d941d82031e9d2919af7qrszrin__glyph-1-0" x="104.613539" y="113.373721"/></g><g fill="rgb(0%, 0%, 0%)" fill-opacity="1"><use xlink:href="#a2e289c7b6940d941d82031e9d2919af7qrszrin__glyph-2-0" x="113.672395" y="109.770506"/></g><g fill="rgb(0%, 0%, 0%)" fill-opacity="1"><use xlink:href="#a2e289c7b6940d941d82031e9d2919af7qrszrin__glyph-3-0" x="118.57988" y="109.770506"/><use xlink:href="#a2e289c7b6940d941d82031e9d2919af7qrszrin__glyph-3-1" x="124.674278" y="109.770506"/></g><g fill="rgb(0%, 0%, 0%)" fill-opacity="1"><use xlink:href="#a2e289c7b6940d941d82031e9d2919af7qrszrin__glyph-0-1" x="129.127556" y="113.373721"/></g><g fill="rgb(0%, 0%, 0%)" fill-opacity="1"><use xlink:href="#a2e289c7b6940d941d82031e9d2919af7qrszrin__glyph-1-1" x="132.988313" y="113.373721"/></g><g fill="rgb(0%, 0%, 0%)" fill-opacity="1"><use xlink:href="#a2e289c7b6940d941d82031e9d2919af7qrszrin__glyph-2-0" x="141.213672" y="114.862438"/></g><g fill="rgb(0%, 0%, 0%)" fill-opacity="1"><use xlink:href="#a2e289c7b6940d941d82031e9d2919af7qrszrin__glyph-3-0" x="146.121156" y="114.862438"/><use xlink:href="#a2e289c7b6940d941d82031e9d2919af7qrszrin__glyph-3-1" x="152.215554" y="114.862438"/></g><g fill="rgb(0%, 0%, 0%)" fill-opacity="1"><use xlink:href="#a2e289c7b6940d941d82031e9d2919af7qrszrin__glyph-1-2" x="156.668833" y="113.373721"/></g><g fill="rgb(0%, 0%, 0%)" fill-opacity="1"><use xlink:href="#a2e289c7b6940d941d82031e9d2919af7qrszrin__glyph-1-1" x="161.084529" y="113.373721"/></g><g fill="rgb(0%, 0%, 0%)" fill-opacity="1"><use xlink:href="#a2e289c7b6940d941d82031e9d2919af7qrszrin__glyph-2-0" x="169.304996" y="114.862438"/></g><g fill="rgb(0%, 0%, 0%)" fill-opacity="1"><use xlink:href="#a2e289c7b6940d941d82031e9d2919af7qrszrin__glyph-0-2" x="174.708822" y="113.373721"/></g><g fill="rgb(0%, 0%, 0%)" fill-opacity="1"><use xlink:href="#a2e289c7b6940d941d82031e9d2919af7qrszrin__glyph-1-0" x="292.267693" y="113.373721"/></g><g fill="rgb(0%, 0%, 0%)" fill-opacity="1"><use xlink:href="#a2e289c7b6940d941d82031e9d2919af7qrszrin__glyph-2-0" x="301.32655" y="109.770506"/></g><g fill="rgb(0%, 0%, 0%)" fill-opacity="1"><use xlink:href="#a2e289c7b6940d941d82031e9d2919af7qrszrin__glyph-0-1" x="306.730375" y="113.373721"/></g><g fill="rgb(0%, 0%, 0%)" fill-opacity="1"><use xlink:href="#a2e289c7b6940d941d82031e9d2919af7qrszrin__glyph-1-1" x="310.591132" y="113.373721"/></g><g fill="rgb(0%, 0%, 0%)" fill-opacity="1"><use xlink:href="#a2e289c7b6940d941d82031e9d2919af7qrszrin__glyph-2-0" x="318.815494" y="114.862438"/></g><g fill="rgb(0%, 0%, 0%)" fill-opacity="1"><use xlink:href="#a2e289c7b6940d941d82031e9d2919af7qrszrin__glyph-1-2" x="324.21932" y="113.373721"/></g><g fill="rgb(0%, 0%, 0%)" fill-opacity="1"><use xlink:href="#a2e289c7b6940d941d82031e9d2919af7qrszrin__glyph-1-1" x="328.635017" y="113.373721"/></g><g fill="rgb(0%, 0%, 0%)" fill-opacity="1"><use xlink:href="#a2e289c7b6940d941d82031e9d2919af7qrszrin__glyph-2-0" x="336.855484" y="114.862438"/></g><g fill="rgb(0%, 0%, 0%)" fill-opacity="1"><use xlink:href="#a2e289c7b6940d941d82031e9d2919af7qrszrin__glyph-5-0" x="341.762968" y="114.862438"/></g><g fill="rgb(0%, 0%, 0%)" fill-opacity="1"><use xlink:href="#a2e289c7b6940d941d82031e9d2919af7qrszrin__glyph-3-1" x="347.967858" y="114.862438"/></g><g fill="rgb(0%, 0%, 0%)" fill-opacity="1"><use xlink:href="#a2e289c7b6940d941d82031e9d2919af7qrszrin__glyph-0-2" x="352.421252" y="113.373721"/></g><g fill="rgb(0%, 0%, 0%)" fill-opacity="1"><use xlink:href="#a2e289c7b6940d941d82031e9d2919af7qrszrin__glyph-1-0" x="498.414231" y="113.373721"/></g><g fill="rgb(0%, 0%, 0%)" fill-opacity="1"><use xlink:href="#a2e289c7b6940d941d82031e9d2919af7qrszrin__glyph-2-0" x="507.473088" y="109.770506"/></g><g fill="rgb(0%, 0%, 0%)" fill-opacity="1"><use xlink:href="#a2e289c7b6940d941d82031e9d2919af7qrszrin__glyph-5-0" x="512.380573" y="109.770506"/></g><g fill="rgb(0%, 0%, 0%)" fill-opacity="1"><use xlink:href="#a2e289c7b6940d941d82031e9d2919af7qrszrin__glyph-3-1" x="518.585462" y="109.770506"/></g><g fill="rgb(0%, 0%, 0%)" fill-opacity="1"><use xlink:href="#a2e289c7b6940d941d82031e9d2919af7qrszrin__glyph-0-1" x="523.038857" y="113.373721"/></g><g fill="rgb(0%, 0%, 0%)" fill-opacity="1"><use xlink:href="#a2e289c7b6940d941d82031e9d2919af7qrszrin__glyph-1-1" x="526.899613" y="113.373721"/></g><g fill="rgb(0%, 0%, 0%)" fill-opacity="1"><use xlink:href="#a2e289c7b6940d941d82031e9d2919af7qrszrin__glyph-2-0" x="535.123976" y="114.862438"/></g><g fill="rgb(0%, 0%, 0%)" fill-opacity="1"><use xlink:href="#a2e289c7b6940d941d82031e9d2919af7qrszrin__glyph-5-0" x="540.03146" y="114.862438"/></g><g fill="rgb(0%, 0%, 0%)" fill-opacity="1"><use xlink:href="#a2e289c7b6940d941d82031e9d2919af7qrszrin__glyph-3-1" x="546.23635" y="114.862438"/></g><g fill="rgb(0%, 0%, 0%)" fill-opacity="1"><use xlink:href="#a2e289c7b6940d941d82031e9d2919af7qrszrin__glyph-1-2" x="550.689744" y="113.373721"/></g><g fill="rgb(0%, 0%, 0%)" fill-opacity="1"><use xlink:href="#a2e289c7b6940d941d82031e9d2919af7qrszrin__glyph-1-1" x="555.105441" y="113.373721"/></g><g fill="rgb(0%, 0%, 0%)" fill-opacity="1"><use xlink:href="#a2e289c7b6940d941d82031e9d2919af7qrszrin__glyph-2-0" x="563.325908" y="114.862438"/></g><g fill="rgb(0%, 0%, 0%)" fill-opacity="1"><use xlink:href="#a2e289c7b6940d941d82031e9d2919af7qrszrin__glyph-5-0" x="568.233392" y="114.862438"/></g><g fill="rgb(0%, 0%, 0%)" fill-opacity="1"><use xlink:href="#a2e289c7b6940d941d82031e9d2919af7qrszrin__glyph-3-2" x="574.438282" y="114.862438"/></g><g fill="rgb(0%, 0%, 0%)" fill-opacity="1"><use xlink:href="#a2e289c7b6940d941d82031e9d2919af7qrszrin__glyph-0-2" x="578.891676" y="113.373721"/></g><g fill="rgb(0%, 0%, 0%)" fill-opacity="1"><use xlink:href="#a2e289c7b6940d941d82031e9d2919af7qrszrin__glyph-4-1" x="660.57584" y="113.373721"/></g><g fill="rgb(0%, 0%, 0%)" fill-opacity="1"><use xlink:href="#a2e289c7b6940d941d82031e9d2919af7qrszrin__glyph-4-1" x="664.991536" y="113.373721"/></g><g fill="rgb(0%, 0%, 0%)" fill-opacity="1"><use xlink:href="#a2e289c7b6940d941d82031e9d2919af7qrszrin__glyph-4-1" x="669.397305" y="113.373721"/></g><g fill="rgb(0%, 0%, 0%)" fill-opacity="1"><use xlink:href="#a2e289c7b6940d941d82031e9d2919af7qrszrin__glyph-1-0" x="401.793068" y="149.072054"/></g><g fill="rgb(0%, 0%, 0%)" fill-opacity="1"><use xlink:href="#a2e289c7b6940d941d82031e9d2919af7qrszrin__glyph-2-0" x="410.851925" y="145.468839"/></g><g fill="rgb(0%, 0%, 0%)" fill-opacity="1"><use xlink:href="#a2e289c7b6940d941d82031e9d2919af7qrszrin__glyph-5-0" x="415.75941" y="145.468839"/></g><g fill="rgb(0%, 0%, 0%)" fill-opacity="1"><use xlink:href="#a2e289c7b6940d941d82031e9d2919af7qrszrin__glyph-3-1" x="421.964299" y="145.468839"/></g><g fill="rgb(0%, 0%, 0%)" fill-opacity="1"><use xlink:href="#a2e289c7b6940d941d82031e9d2919af7qrszrin__glyph-0-1" x="426.417694" y="149.072054"/></g><g fill="rgb(0%, 0%, 0%)" fill-opacity="1"><use xlink:href="#a2e289c7b6940d941d82031e9d2919af7qrszrin__glyph-1-1" x="430.27845" y="149.072054"/></g><g fill="rgb(0%, 0%, 0%)" fill-opacity="1"><use xlink:href="#a2e289c7b6940d941d82031e9d2919af7qrszrin__glyph-2-0" x="438.502813" y="150.560771"/></g><g fill="rgb(0%, 0%, 0%)" fill-opacity="1"><use xlink:href="#a2e289c7b6940d941d82031e9d2919af7qrszrin__glyph-5-0" x="443.410297" y="150.560771"/></g><g fill="rgb(0%, 0%, 0%)" fill-opacity="1"><use xlink:href="#a2e289c7b6940d941d82031e9d2919af7qrszrin__glyph-3-1" x="449.615187" y="150.560771"/></g><g fill="rgb(0%, 0%, 0%)" fill-opacity="1"><use xlink:href="#a2e289c7b6940d941d82031e9d2919af7qrszrin__glyph-0-2" x="454.068581" y="149.072054"/></g><g fill="rgb(0%, 0%, 0%)" fill-opacity="1"><use xlink:href="#a2e289c7b6940d941d82031e9d2919af7qrszrin__glyph-0-0" x="321.79293" y="184.770387"/></g><g fill="rgb(0%, 0%, 0%)" fill-opacity="1"><use xlink:href="#a2e289c7b6940d941d82031e9d2919af7qrszrin__glyph-1-0" x="490.303012" y="184.770387"/></g><g fill="rgb(0%, 0%, 0%)" fill-opacity="1"><use xlink:href="#a2e289c7b6940d941d82031e9d2919af7qrszrin__glyph-2-0" x="499.361869" y="181.168168"/></g><g fill="rgb(0%, 0%, 0%)" fill-opacity="1"><use xlink:href="#a2e289c7b6940d941d82031e9d2919af7qrszrin__glyph-5-0" x="504.269353" y="181.168168"/></g><g fill="rgb(0%, 0%, 0%)" fill-opacity="1"><use xlink:href="#a2e289c7b6940d941d82031e9d2919af7qrszrin__glyph-3-1" x="510.474243" y="181.168168"/></g><g fill="rgb(0%, 0%, 0%)" fill-opacity="1"><use xlink:href="#a2e289c7b6940d941d82031e9d2919af7qrszrin__glyph-0-1" x="514.927637" y="184.770387"/></g><g fill="rgb(0%, 0%, 0%)" fill-opacity="1"><use xlink:href="#a2e289c7b6940d941d82031e9d2919af7qrszrin__glyph-1-1" x="518.788394" y="184.770387"/></g><g fill="rgb(0%, 0%, 0%)" fill-opacity="1"><use xlink:href="#a2e289c7b6940d941d82031e9d2919af7qrszrin__glyph-2-0" x="527.012756" y="186.259104"/></g><g fill="rgb(0%, 0%, 0%)" fill-opacity="1"><use xlink:href="#a2e289c7b6940d941d82031e9d2919af7qrszrin__glyph-0-2" x="532.416582" y="184.770387"/></g><g fill="rgb(0%, 0%, 0%)" fill-opacity="1"><use xlink:href="#a2e289c7b6940d941d82031e9d2919af7qrszrin__glyph-4-0" x="539.035098" y="182.120788"/></g><g fill="rgb(0%, 0%, 0%)" fill-opacity="1"><use xlink:href="#a2e289c7b6940d941d82031e9d2919af7qrszrin__glyph-0-3" x="539.035098" y="185.266626"/></g><g fill="rgb(0%, 0%, 0%)" fill-opacity="1"><use xlink:href="#a2e289c7b6940d941d82031e9d2919af7qrszrin__glyph-1-0" x="549.513916" y="184.770387"/></g><g fill="rgb(0%, 0%, 0%)" fill-opacity="1"><use xlink:href="#a2e289c7b6940d941d82031e9d2919af7qrszrin__glyph-2-0" x="558.572773" y="181.168168"/></g><g fill="rgb(0%, 0%, 0%)" fill-opacity="1"><use xlink:href="#a2e289c7b6940d941d82031e9d2919af7qrszrin__glyph-5-0" x="563.480258" y="181.168168"/></g><g fill="rgb(0%, 0%, 0%)" fill-opacity="1"><use xlink:href="#a2e289c7b6940d941d82031e9d2919af7qrszrin__glyph-3-1" x="569.685147" y="181.168168"/></g><g fill="rgb(0%, 0%, 0%)" fill-opacity="1"><use xlink:href="#a2e289c7b6940d941d82031e9d2919af7qrszrin__glyph-0-1" x="574.138542" y="184.770387"/></g><g fill="rgb(0%, 0%, 0%)" fill-opacity="1"><use xlink:href="#a2e289c7b6940d941d82031e9d2919af7qrszrin__glyph-1-1" x="577.999298" y="184.770387"/></g><g fill="rgb(0%, 0%, 0%)" fill-opacity="1"><use xlink:href="#a2e289c7b6940d941d82031e9d2919af7qrszrin__glyph-0-2" x="586.998463" y="184.770387"/></g><g fill="rgb(0%, 0%, 0%)" fill-opacity="1"><use xlink:href="#a2e289c7b6940d941d82031e9d2919af7qrszrin__glyph-0-0" x="623.237327" y="218.785691"/></g><path fill="none" stroke="rgb(0%, 0%, 0%)" stroke-linecap="butt" stroke-linejoin="miter" stroke-miterlimit="10" stroke-opacity="1" stroke-width="0.39848" d="M -148.057446 44.969964 L -206.310286 68.380863 " transform="matrix(0.996464, 0, 0, -0.996464, 354.494895, 111.2094)"/><path fill="none" stroke="rgb(0%, 0%, 0%)" stroke-linecap="round" stroke-linejoin="round" stroke-miterlimit="10" stroke-opacity="1" stroke-width="0.39848" d="M -2.070557 2.39213 C -1.69191 0.955728 -0.850033 0.280062 0.00140348 0.00115143 C -0.849872 -0.27756 -1.693234 -0.954456 -2.070944 -2.390606 " transform="matrix(-0.924579, -0.371542, -0.371542, 0.924579, 148.728288, 42.995551)"/><path fill="none" stroke="rgb(0%, 0%, 0%)" stroke-linecap="butt" stroke-linejoin="miter" stroke-miterlimit="10" stroke-opacity="1" stroke-width="0.39848" d="M 68.654097 101.878206 L -1.355155 80.278398 " transform="matrix(0.996464, 0, 0, -0.996464, 354.494895, 111.2094)"/><path fill="none" stroke="rgb(0%, 0%, 0%)" stroke-linecap="round" stroke-linejoin="round" stroke-miterlimit="10" stroke-opacity="1" stroke-width="0.39848" d="M -2.074324 2.390134 C -1.692395 0.955329 -0.851304 0.277337 -0.00182909 -0.00117945 C -0.850009 -0.276924 -1.695334 -0.955612 -2.072306 -2.39011 " transform="matrix(-0.952122, 0.293778, 0.293778, 0.952122, 352.955636, 31.275098)"/><path fill="none" stroke="rgb(0%, 0%, 0%)" stroke-linecap="butt" stroke-linejoin="miter" stroke-miterlimit="10" stroke-opacity="1" stroke-width="0.39848" d="M -54.339367 62.504617 L -103.258424 44.523071 " transform="matrix(0.996464, 0, 0, -0.996464, 354.494895, 111.2094)"/><path fill="none" stroke="rgb(0%, 0%, 0%)" stroke-linecap="round" stroke-linejoin="round" stroke-miterlimit="10" stroke-opacity="1" stroke-width="0.39848" d="M -2.073811 2.390305 C -1.694622 0.956154 -0.849599 0.278001 0.000158193 -0.000930883 C -0.849182 -0.277651 -1.692219 -0.957651 -2.073324 -2.392178 " transform="matrix(-0.935251, 0.34377, 0.34377, 0.935251, 251.41453, 66.910972)"/><path fill="none" stroke="rgb(0%, 0%, 0%)" stroke-linecap="butt" stroke-linejoin="miter" stroke-miterlimit="10" stroke-opacity="1" stroke-width="0.39848" d="M -53.904235 9.144075 L -103.258424 27.611715 " transform="matrix(0.996464, 0, 0, -0.996464, 354.494895, 111.2094)"/><path fill="none" stroke="rgb(0%, 0%, 0%)" stroke-linecap="round" stroke-linejoin="round" stroke-miterlimit="10" stroke-opacity="1" stroke-width="0.39848" d="M -2.070451 2.390321 C -1.693443 0.957538 -0.84877 0.277361 -0.000124015 0.000501613 C -0.849648 -0.27967 -1.693504 -0.955367 -2.073126 -2.390792 " transform="matrix(-0.933229, -0.349161, -0.349161, 0.933229, 251.414122, 83.624489)"/><g fill="rgb(0%, 0%, 0%)" fill-opacity="1"><use xlink:href="#a2e289c7b6940d941d82031e9d2919af7qrszrin__glyph-2-1" x="265.516613" y="99.760025"/></g><g fill="rgb(0%, 0%, 0%)" fill-opacity="1"><use xlink:href="#a2e289c7b6940d941d82031e9d2919af7qrszrin__glyph-6-0" x="268.801955" y="100.752504"/></g><path fill="none" stroke="rgb(0%, 0%, 0%)" stroke-linecap="butt" stroke-linejoin="miter" stroke-miterlimit="10" stroke-opacity="1" stroke-width="0.39848" d="M -255.260705 0.319906 L -302.282429 0.319906 " transform="matrix(0.996464, 0, 0, -0.996464, 354.494895, 111.2094)"/><path fill="none" stroke="rgb(0%, 0%, 0%)" stroke-linecap="round" stroke-linejoin="round" stroke-miterlimit="10" stroke-opacity="1" stroke-width="0.39848" d="M -2.070434 2.390161 C -1.694103 0.955401 -0.851279 0.277222 -0.000615532 -0.00110624 C -0.851279 -0.279434 -1.694103 -0.957613 -2.070434 -2.392374 " transform="matrix(-0.996464, 0, 0, 0.996464, 53.081418, 110.891727)"/><path fill="none" stroke="rgb(0%, 0%, 0%)" stroke-linecap="butt" stroke-linejoin="miter" stroke-miterlimit="10" stroke-opacity="1" stroke-width="0.39848" d="M -147.661515 27.317706 L -190.163352 9.935937 " transform="matrix(0.996464, 0, 0, -0.996464, 354.494895, 111.2094)"/><path fill="none" stroke="rgb(0%, 0%, 0%)" stroke-linecap="round" stroke-linejoin="round" stroke-miterlimit="10" stroke-opacity="1" stroke-width="0.39848" d="M -2.073295 2.390832 C -1.694173 0.956657 -0.84837 0.280361 -0.00095116 0.00153989 C -0.848323 -0.278742 -1.693683 -0.957982 -2.072402 -2.391396 " transform="matrix(-0.922268, 0.377202, 0.377202, 0.922268, 164.818854, 101.385657)"/><g fill="rgb(0%, 0%, 0%)" fill-opacity="1"><use xlink:href="#a2e289c7b6940d941d82031e9d2919af7qrszrin__glyph-2-2" x="188.332482" y="99.886576"/></g><g fill="rgb(0%, 0%, 0%)" fill-opacity="1"><use xlink:href="#a2e289c7b6940d941d82031e9d2919af7qrszrin__glyph-6-0" x="191.940679" y="100.879055"/></g><g fill="rgb(0%, 0%, 0%)" fill-opacity="1"><use xlink:href="#a2e289c7b6940d941d82031e9d2919af7qrszrin__glyph-7-0" x="196.312695" y="100.879055"/><use xlink:href="#a2e289c7b6940d941d82031e9d2919af7qrszrin__glyph-7-1" x="201.414373" y="100.879055"/></g><path fill="none" stroke="rgb(0%, 0%, 0%)" stroke-linecap="butt" stroke-linejoin="miter" stroke-miterlimit="10" stroke-opacity="1" stroke-width="0.39848" d="M -66.938602 0.319906 L -171.664351 0.319906 " transform="matrix(0.996464, 0, 0, -0.996464, 354.494895, 111.2094)"/><path fill="none" stroke="rgb(0%, 0%, 0%)" stroke-linecap="round" stroke-linejoin="round" stroke-miterlimit="10" stroke-opacity="1" stroke-width="0.39848" d="M -2.072832 2.390161 C -1.692581 0.955401 -0.849758 0.277222 0.000906262 -0.00110624 C -0.849758 -0.279434 -1.692581 -0.957613 -2.072832 -2.392374 " transform="matrix(-0.996464, 0, 0, 0.996464, 183.239184, 110.891727)"/><g fill="rgb(0%, 0%, 0%)" fill-opacity="1"><use xlink:href="#a2e289c7b6940d941d82031e9d2919af7qrszrin__glyph-2-3" x="226.678421" y="106.736272"/></g><g fill="rgb(0%, 0%, 0%)" fill-opacity="1"><use xlink:href="#a2e289c7b6940d941d82031e9d2919af7qrszrin__glyph-6-0" x="230.810758" y="107.72875"/></g><g fill="rgb(0%, 0%, 0%)" fill-opacity="1"><use xlink:href="#a2e289c7b6940d941d82031e9d2919af7qrszrin__glyph-7-0" x="235.182774" y="107.72875"/><use xlink:href="#a2e289c7b6940d941d82031e9d2919af7qrszrin__glyph-7-1" x="240.284452" y="107.72875"/></g><path fill="none" stroke="rgb(0%, 0%, 0%)" stroke-linecap="butt" stroke-linejoin="miter" stroke-miterlimit="10" stroke-opacity="1" stroke-width="0.39848" d="M 139.941304 0.319906 L 6.681072 0.319906 " transform="matrix(0.996464, 0, 0, -0.996464, 354.494895, 111.2094)"/><path fill="none" stroke="rgb(0%, 0%, 0%)" stroke-linecap="round" stroke-linejoin="round" stroke-miterlimit="10" stroke-opacity="1" stroke-width="0.39848" d="M -2.073144 2.390161 C -1.692894 0.955401 -0.85007 0.277222 0.000594055 -0.00110624 C -0.85007 -0.279434 -1.692894 -0.957613 -2.073144 -2.392374 " transform="matrix(-0.996464, 0, 0, 0.996464, 360.953717, 110.891727)"/><g fill="rgb(0%, 0%, 0%)" fill-opacity="1"><use xlink:href="#a2e289c7b6940d941d82031e9d2919af7qrszrin__glyph-2-3" x="422.847362" y="107.563337"/></g><g fill="rgb(0%, 0%, 0%)" fill-opacity="1"><use xlink:href="#a2e289c7b6940d941d82031e9d2919af7qrszrin__glyph-6-0" x="426.980696" y="108.555816"/></g><path fill="none" stroke="rgb(0%, 0%, 0%)" stroke-linecap="butt" stroke-linejoin="miter" stroke-miterlimit="10" stroke-opacity="1" stroke-width="0.39848" d="M 47.642305 -26.042836 L -3.848345 -8.633626 " transform="matrix(0.996464, 0, 0, -0.996464, 354.494895, 111.2094)"/><path fill="none" stroke="rgb(0%, 0%, 0%)" stroke-linecap="round" stroke-linejoin="round" stroke-miterlimit="10" stroke-opacity="1" stroke-width="0.39848" d="M -2.072549 2.389772 C -1.69583 0.957032 -0.849972 0.278769 0.00163836 -0.000286327 C -0.851331 -0.28034 -1.693943 -0.958293 -2.070968 -2.389256 " transform="matrix(-0.943961, -0.319088, -0.319088, 0.943961, 350.470205, 119.750793)"/><g fill="rgb(0%, 0%, 0%)" fill-opacity="1"><use xlink:href="#a2e289c7b6940d941d82031e9d2919af7qrszrin__glyph-2-2" x="378.460857" y="125.09513"/></g><g fill="rgb(0%, 0%, 0%)" fill-opacity="1"><use xlink:href="#a2e289c7b6940d941d82031e9d2919af7qrszrin__glyph-6-0" x="382.069054" y="126.087608"/></g><path fill="none" stroke="rgb(0%, 0%, 0%)" stroke-linecap="butt" stroke-linejoin="miter" stroke-miterlimit="10" stroke-opacity="1" stroke-width="0.39848" d="M 302.680767 0.319906 L 233.957312 0.319906 " transform="matrix(0.996464, 0, 0, -0.996464, 354.494895, 111.2094)"/><path fill="none" stroke="rgb(0%, 0%, 0%)" stroke-linecap="round" stroke-linejoin="round" stroke-miterlimit="10" stroke-opacity="1" stroke-width="0.39848" d="M -2.072474 2.390161 C -1.692224 0.955401 -0.8494 0.277222 0.00126396 -0.00110624 C -0.8494 -0.279434 -1.692224 -0.957613 -2.072474 -2.392374 " transform="matrix(-0.996464, 0, 0, 0.996464, 587.427041, 110.891727)"/><path fill="none" stroke="rgb(0%, 0%, 0%)" stroke-linecap="butt" stroke-linejoin="miter" stroke-miterlimit="10" stroke-opacity="1" stroke-width="0.39848" d="M 159.381132 -8.508182 L 105.36201 -25.921313 " transform="matrix(0.996464, 0, 0, -0.996464, 354.494895, 111.2094)"/><path fill="none" stroke="rgb(0%, 0%, 0%)" stroke-linecap="round" stroke-linejoin="round" stroke-miterlimit="10" stroke-opacity="1" stroke-width="0.39848" d="M -2.070054 2.391731 C -1.692518 0.956136 -0.847718 0.2802 0.000596209 -0.00145892 C -0.850832 -0.278959 -1.69458 -0.954343 -2.070814 -2.390002 " transform="matrix(-0.948385, 0.305675, 0.305675, 0.948385, 459.29398, 137.098858)"/><g fill="rgb(0%, 0%, 0%)" fill-opacity="1"><use xlink:href="#a2e289c7b6940d941d82031e9d2919af7qrszrin__glyph-2-1" x="466.961833" y="124.267068"/></g><g fill="rgb(0%, 0%, 0%)" fill-opacity="1"><use xlink:href="#a2e289c7b6940d941d82031e9d2919af7qrszrin__glyph-6-0" x="470.247175" y="125.260543"/></g><g fill="rgb(0%, 0%, 0%)" fill-opacity="1"><use xlink:href="#a2e289c7b6940d941d82031e9d2919af7qrszrin__glyph-8-0" x="474.619191" y="125.260543"/></g><g fill="rgb(0%, 0%, 0%)" fill-opacity="1"><use xlink:href="#a2e289c7b6940d941d82031e9d2919af7qrszrin__glyph-7-1" x="479.996354" y="125.260543"/></g><path fill="none" stroke="rgb(0%, 0%, 0%)" stroke-linecap="butt" stroke-linejoin="miter" stroke-miterlimit="10" stroke-opacity="1" stroke-width="0.39848" d="M 157.397556 -61.868725 L 103.382355 -44.455595 " transform="matrix(0.996464, 0, 0, -0.996464, 354.494895, 111.2094)"/><path fill="none" stroke="rgb(0%, 0%, 0%)" stroke-linecap="round" stroke-linejoin="round" stroke-miterlimit="10" stroke-opacity="1" stroke-width="0.39848" d="M -2.072502 2.390349 C -1.69248 0.955913 -0.848706 0.280565 0.000202883 -0.00183336 C -0.849301 -0.279796 -1.69407 -0.955764 -2.071546 -2.391371 " transform="matrix(-0.948375, -0.305715, -0.305715, 0.948375, 457.323851, 155.447113)"/><path fill="none" stroke="rgb(0%, 0%, 0%)" stroke-linecap="butt" stroke-linejoin="miter" stroke-miterlimit="10" stroke-opacity="1" stroke-width="0.39848" d="M 49.539638 -44.334071 L -22.970643 -68.846521 " transform="matrix(0.996464, 0, 0, -0.996464, 354.494895, 111.2094)"/><path fill="none" stroke="rgb(0%, 0%, 0%)" stroke-linecap="round" stroke-linejoin="round" stroke-miterlimit="10" stroke-opacity="1" stroke-width="0.39848" d="M -2.072019 2.392491 C -1.692536 0.956558 -0.849924 0.278605 -0.000668271 -0.000192918 C -0.848565 -0.280504 -1.693168 -0.955053 -2.071142 -2.391507 " transform="matrix(-0.943961, 0.319088, 0.319088, 0.943961, 331.417399, 179.875395)"/><path fill="none" stroke="rgb(0%, 0%, 0%)" stroke-linecap="butt" stroke-linejoin="miter" stroke-miterlimit="10" stroke-opacity="1" stroke-width="0.39848" d="M 265.212352 -102.680994 L 209.205735 -80.308924 " transform="matrix(0.996464, 0, 0, -0.996464, 354.494895, 111.2094)"/><path fill="none" stroke="rgb(0%, 0%, 0%)" stroke-linecap="round" stroke-linejoin="round" stroke-miterlimit="10" stroke-opacity="1" stroke-width="0.39848" d="M -2.070657 2.391016 C -1.691247 0.955286 -0.850713 0.277918 -0.00127758 0.000934969 C -0.851672 -0.279712 -1.691311 -0.957112 -2.07191 -2.392527 " transform="matrix(-0.925307, -0.369678, -0.369678, 0.925307, 562.776507, 191.158819)"/></svg>