<?xml version="1.0" encoding="UTF-8"?><svg xmlns="http://www.w3.org/2000/svg" xmlns:xlink="http://www.w3.org/1999/xlink" width="343.711" height="80.119" viewBox="0 0 343.711 80.119"><defs><g><g id="a6469f053a21f964f40cfc0d42383b1bat29ps47__glyph-0-0"><path d="M 7.65625 -4.75 C 7.65625 -6 7.109375 -6.953125 5.90625 -6.953125 C 4.875 -6.953125 4.015625 -6.125 3.9375 -6.0625 C 3.15625 -5.28125 2.859375 -4.390625 2.859375 -4.375 C 2.859375 -4.3125 2.90625 -4.3125 2.953125 -4.3125 C 3.140625 -4.3125 3.296875 -4.40625 3.453125 -4.515625 C 3.625 -4.640625 3.640625 -4.671875 3.75 -4.90625 C 3.828125 -5.09375 4.0625 -5.578125 4.421875 -6 C 4.65625 -6.265625 4.859375 -6.40625 5.25 -6.40625 C 6.21875 -6.40625 6.828125 -5.625 6.828125 -4.328125 C 6.828125 -2.3125 5.390625 -0.328125 3.5625 -0.328125 C 2.171875 -0.328125 1.40625 -1.4375 1.40625 -2.84375 C 1.40625 -4.1875 2.09375 -5.671875 3.53125 -6.515625 C 3.625 -6.578125 3.921875 -6.75 3.921875 -6.875 C 3.921875 -6.953125 3.84375 -6.953125 3.828125 -6.953125 C 3.484375 -6.953125 0.5625 -5.390625 0.5625 -2.421875 C 0.5625 -1.046875 1.28125 0.21875 2.921875 0.21875 C 4.84375 0.21875 7.65625 -1.71875 7.65625 -4.75 Z M 7.65625 -4.75 "/></g><g id="a6469f053a21f964f40cfc0d42383b1bat29ps47__glyph-1-0"><path d="M 3.265625 2.359375 C 3.265625 2.34375 3.265625 2.3125 3.09375 2.15625 C 1.859375 0.90625 1.546875 -0.953125 1.546875 -2.46875 C 1.546875 -4.1875 1.921875 -5.890625 3.140625 -7.125 C 3.265625 -7.25 3.265625 -7.265625 3.265625 -7.296875 C 3.265625 -7.359375 3.21875 -7.390625 3.171875 -7.390625 C 3.0625 -7.390625 2.171875 -6.71875 1.59375 -5.46875 C 1.09375 -4.390625 0.96875 -3.296875 0.96875 -2.46875 C 0.96875 -1.703125 1.078125 -0.5 1.625 0.609375 C 2.21875 1.828125 3.0625 2.46875 3.171875 2.46875 C 3.21875 2.46875 3.265625 2.4375 3.265625 2.359375 Z M 3.265625 2.359375 "/></g><g id="a6469f053a21f964f40cfc0d42383b1bat29ps47__glyph-1-1"><path d="M 5.46875 -6.703125 L 0.328125 -6.703125 L 0.328125 -6.40625 L 0.5625 -6.40625 C 1.328125 -6.40625 1.34375 -6.296875 1.34375 -5.9375 L 1.34375 -0.765625 C 1.34375 -0.421875 1.328125 -0.3125 0.5625 -0.3125 L 0.328125 -0.3125 L 0.328125 0 C 0.671875 -0.03125 1.4375 -0.03125 1.828125 -0.03125 C 2.234375 -0.03125 3.125 -0.03125 3.484375 0 L 3.484375 -0.3125 L 3.15625 -0.3125 C 2.21875 -0.3125 2.21875 -0.4375 2.21875 -0.78125 L 2.21875 -6 C 2.21875 -6.328125 2.234375 -6.40625 2.703125 -6.40625 L 3.71875 -6.40625 C 5.125 -6.40625 5.328125 -5.8125 5.484375 -4.484375 L 5.734375 -4.484375 Z M 5.46875 -6.703125 "/></g><g id="a6469f053a21f964f40cfc0d42383b1bat29ps47__glyph-1-2"><path d="M 2.84375 -2.46875 C 2.84375 -3.234375 2.734375 -4.421875 2.203125 -5.546875 C 1.609375 -6.75 0.765625 -7.390625 0.65625 -7.390625 C 0.59375 -7.390625 0.5625 -7.359375 0.5625 -7.296875 C 0.5625 -7.265625 0.5625 -7.25 0.75 -7.0625 C 1.71875 -6.09375 2.28125 -4.53125 2.28125 -2.46875 C 2.28125 -0.78125 1.90625 0.953125 0.6875 2.203125 C 0.5625 2.3125 0.5625 2.34375 0.5625 2.359375 C 0.5625 2.421875 0.59375 2.46875 0.65625 2.46875 C 0.765625 2.46875 1.640625 1.796875 2.234375 0.546875 C 2.734375 -0.546875 2.84375 -1.640625 2.84375 -2.46875 Z M 2.84375 -2.46875 "/></g><g id="a6469f053a21f964f40cfc0d42383b1bat29ps47__glyph-2-0"><path d="M 3.546875 9.859375 L 3.546875 9.46875 C 2.53125 9.46875 2.53125 8.984375 2.53125 8.6875 L 2.53125 0.390625 L 6.765625 0.390625 L 6.765625 8.6875 C 6.765625 8.984375 6.765625 9.46875 5.765625 9.46875 L 5.765625 9.859375 L 8.75 9.859375 L 8.75 9.46875 C 7.734375 9.46875 7.734375 8.984375 7.734375 8.6875 L 7.734375 1.171875 C 7.734375 0.875 7.734375 0.390625 8.75 0.390625 L 8.75 0 L 0.546875 0 L 0.546875 0.390625 C 1.5625 0.390625 1.5625 0.875 1.5625 1.171875 L 1.5625 8.6875 C 1.5625 8.984375 1.5625 9.46875 0.546875 9.46875 L 0.546875 9.859375 Z M 3.546875 9.859375 "/></g><g id="a6469f053a21f964f40cfc0d42383b1bat29ps47__glyph-3-0"><path d="M 3.671875 -2.5 C 3.671875 -3.03125 3.359375 -3.046875 3.328125 -3.046875 C 3.15625 -3.046875 2.96875 -2.859375 2.96875 -2.6875 C 2.96875 -2.5625 3.03125 -2.515625 3.078125 -2.46875 C 3.203125 -2.375 3.328125 -2.1875 3.328125 -1.921875 C 3.328125 -1.609375 2.875 -0.125 2.0625 -0.125 C 1.5 -0.125 1.5 -0.625 1.5 -0.734375 C 1.5 -1.046875 1.625 -1.4375 1.875 -2.078125 C 1.9375 -2.21875 1.984375 -2.328125 1.984375 -2.453125 C 1.984375 -2.796875 1.671875 -3.03125 1.328125 -3.03125 C 0.640625 -3.03125 0.328125 -2.09375 0.328125 -1.984375 C 0.328125 -1.890625 0.421875 -1.890625 0.4375 -1.890625 C 0.53125 -1.890625 0.546875 -1.921875 0.5625 -2 C 0.734375 -2.5625 1.03125 -2.84375 1.296875 -2.84375 C 1.421875 -2.84375 1.46875 -2.765625 1.46875 -2.609375 C 1.46875 -2.453125 1.421875 -2.296875 1.34375 -2.140625 C 1.046875 -1.375 0.984375 -1.078125 0.984375 -0.828125 C 0.984375 -0.15625 1.515625 0.0625 2.046875 0.0625 C 3.203125 0.0625 3.671875 -1.9375 3.671875 -2.5 Z M 3.671875 -2.5 "/></g><g id="a6469f053a21f964f40cfc0d42383b1bat29ps47__glyph-3-1"><path d="M 4.921875 -3.890625 C 5.1875 -4.265625 5.40625 -4.4375 5.78125 -4.453125 C 5.859375 -4.46875 5.9375 -4.46875 5.9375 -4.609375 C 5.9375 -4.625 5.921875 -4.703125 5.84375 -4.703125 C 5.671875 -4.703125 5.453125 -4.671875 5.28125 -4.671875 C 5.0625 -4.671875 4.78125 -4.703125 4.5625 -4.703125 C 4.5 -4.703125 4.4375 -4.6875 4.4375 -4.546875 C 4.4375 -4.46875 4.53125 -4.453125 4.546875 -4.453125 C 4.78125 -4.4375 4.84375 -4.359375 4.84375 -4.265625 C 4.84375 -4.15625 4.78125 -4.09375 4.71875 -3.984375 L 2.453125 -0.640625 L 1.828125 -4.171875 C 1.8125 -4.234375 1.8125 -4.25 1.8125 -4.265625 C 1.8125 -4.453125 2.203125 -4.453125 2.25 -4.453125 C 2.359375 -4.453125 2.453125 -4.453125 2.453125 -4.609375 C 2.453125 -4.609375 2.453125 -4.703125 2.328125 -4.703125 C 2.140625 -4.703125 1.640625 -4.671875 1.453125 -4.671875 C 1.28125 -4.671875 0.859375 -4.703125 0.6875 -4.703125 C 0.625 -4.703125 0.546875 -4.6875 0.546875 -4.546875 C 0.546875 -4.453125 0.640625 -4.453125 0.71875 -4.453125 C 1.109375 -4.453125 1.109375 -4.421875 1.140625 -4.234375 L 1.890625 -0.046875 C 1.921875 0.09375 1.921875 0.140625 2.0625 0.140625 C 2.1875 0.140625 2.21875 0.09375 2.296875 -0.015625 Z M 4.921875 -3.890625 "/></g><g id="a6469f053a21f964f40cfc0d42383b1bat29ps47__glyph-3-2"><path d="M 1.546875 -1.578125 C 1.734375 -1.578125 2.28125 -1.578125 2.65625 -1.71875 C 3.15625 -1.890625 3.265625 -2.21875 3.265625 -2.4375 C 3.265625 -2.8125 2.875 -3.03125 2.40625 -3.03125 C 1.578125 -3.03125 0.46875 -2.40625 0.46875 -1.21875 C 0.46875 -0.53125 0.890625 0.0625 1.703125 0.0625 C 2.859375 0.0625 3.40625 -0.609375 3.40625 -0.703125 C 3.40625 -0.75 3.34375 -0.828125 3.296875 -0.828125 C 3.25 -0.828125 3.234375 -0.8125 3.1875 -0.765625 C 2.640625 -0.125 1.84375 -0.125 1.71875 -0.125 C 1.296875 -0.125 1.03125 -0.40625 1.03125 -0.953125 C 1.03125 -1.046875 1.03125 -1.1875 1.109375 -1.578125 Z M 1.171875 -1.765625 C 1.453125 -2.765625 2.21875 -2.84375 2.40625 -2.84375 C 2.703125 -2.84375 2.96875 -2.6875 2.96875 -2.4375 C 2.96875 -1.765625 1.796875 -1.765625 1.5 -1.765625 Z M 1.171875 -1.765625 "/></g><g id="a6469f053a21f964f40cfc0d42383b1bat29ps47__glyph-3-3"><path d="M 5.453125 -1.59375 C 5.5 -1.6875 5.5 -1.703125 5.5 -1.71875 C 5.5 -1.75 5.46875 -1.8125 5.375 -1.8125 C 5.375 -1.8125 5.328125 -1.8125 5.3125 -1.78125 C 5.296875 -1.765625 5.28125 -1.765625 5.203125 -1.578125 C 4.75 -0.59375 4.40625 -0.25 3.28125 -0.25 L 2.109375 -0.25 C 1.890625 -0.25 1.890625 -0.25 1.890625 -0.3125 C 1.890625 -0.328125 1.890625 -0.359375 1.921875 -0.46875 L 2.375 -2.3125 L 3.15625 -2.3125 C 3.6875 -2.3125 3.78125 -2.21875 3.78125 -1.984375 C 3.78125 -1.921875 3.75 -1.796875 3.734375 -1.6875 C 3.703125 -1.625 3.703125 -1.609375 3.703125 -1.59375 C 3.703125 -1.578125 3.71875 -1.5 3.828125 -1.5 C 3.921875 -1.5 3.921875 -1.53125 3.953125 -1.65625 L 4.328125 -3.15625 C 4.359375 -3.25 4.359375 -3.265625 4.359375 -3.265625 C 4.359375 -3.328125 4.296875 -3.359375 4.234375 -3.359375 C 4.140625 -3.359375 4.140625 -3.328125 4.09375 -3.1875 C 3.953125 -2.640625 3.75 -2.5625 3.15625 -2.5625 L 2.4375 -2.5625 L 2.859375 -4.203125 C 2.90625 -4.40625 2.921875 -4.4375 3.203125 -4.4375 L 4.328125 -4.4375 C 5.234375 -4.4375 5.453125 -4.25 5.453125 -3.625 C 5.453125 -3.453125 5.4375 -3.25 5.4375 -3.21875 C 5.4375 -3.15625 5.453125 -3.09375 5.546875 -3.09375 C 5.65625 -3.09375 5.65625 -3.15625 5.671875 -3.265625 L 5.796875 -4.46875 C 5.8125 -4.671875 5.765625 -4.671875 5.59375 -4.671875 L 1.8125 -4.671875 C 1.671875 -4.671875 1.578125 -4.671875 1.578125 -4.53125 C 1.578125 -4.4375 1.65625 -4.4375 1.8125 -4.4375 C 1.921875 -4.4375 1.953125 -4.4375 2.078125 -4.421875 C 2.21875 -4.40625 2.21875 -4.390625 2.21875 -4.328125 C 2.21875 -4.265625 2.203125 -4.203125 2.203125 -4.171875 L 1.296875 -0.5625 C 1.21875 -0.296875 1.21875 -0.25 0.6875 -0.25 C 0.5625 -0.25 0.46875 -0.25 0.46875 -0.09375 C 0.46875 0 0.5625 0 0.6875 0 L 4.578125 0 C 4.75 0 4.75 0 4.8125 -0.125 Z M 5.453125 -1.59375 "/></g><g id="a6469f053a21f964f40cfc0d42383b1bat29ps47__glyph-3-4"><path d="M 2.90625 -2.625 C 2.765625 -2.859375 2.53125 -3.03125 2.203125 -3.03125 C 1.3125 -3.03125 0.421875 -2.0625 0.421875 -1.078125 C 0.421875 -0.40625 0.875 0.0625 1.453125 0.0625 C 1.828125 0.0625 2.15625 -0.140625 2.4375 -0.40625 C 2.5625 0 2.96875 0.0625 3.15625 0.0625 C 3.390625 0.0625 3.5625 -0.078125 3.6875 -0.296875 C 3.84375 -0.5625 3.9375 -0.953125 3.9375 -0.984375 C 3.9375 -1.078125 3.84375 -1.078125 3.828125 -1.078125 C 3.734375 -1.078125 3.71875 -1.046875 3.671875 -0.859375 C 3.59375 -0.53125 3.453125 -0.125 3.171875 -0.125 C 2.984375 -0.125 2.9375 -0.28125 2.9375 -0.46875 C 2.9375 -0.578125 3 -0.828125 3.046875 -1 C 3.09375 -1.1875 3.15625 -1.46875 3.203125 -1.625 L 3.328125 -2.15625 C 3.375 -2.328125 3.453125 -2.65625 3.453125 -2.6875 C 3.453125 -2.84375 3.328125 -2.90625 3.21875 -2.90625 C 3.109375 -2.90625 2.953125 -2.828125 2.90625 -2.625 Z M 2.46875 -0.859375 C 2.421875 -0.671875 2.265625 -0.53125 2.109375 -0.40625 C 2.046875 -0.34375 1.78125 -0.125 1.484375 -0.125 C 1.21875 -0.125 0.984375 -0.296875 0.984375 -0.796875 C 0.984375 -1.15625 1.171875 -1.921875 1.34375 -2.1875 C 1.65625 -2.75 2 -2.84375 2.203125 -2.84375 C 2.6875 -2.84375 2.8125 -2.328125 2.8125 -2.25 C 2.8125 -2.21875 2.796875 -2.171875 2.796875 -2.15625 Z M 2.46875 -0.859375 "/></g><g id="a6469f053a21f964f40cfc0d42383b1bat29ps47__glyph-3-5"><path d="M 1.421875 -0.828125 C 1.171875 -0.453125 0.953125 -0.28125 0.546875 -0.25 C 0.484375 -0.234375 0.390625 -0.234375 0.390625 -0.109375 C 0.390625 -0.03125 0.453125 0 0.484375 0 C 0.671875 0 0.890625 -0.03125 1.078125 -0.03125 C 1.296875 -0.03125 1.578125 0 1.796875 0 C 1.828125 0 1.921875 0 1.921875 -0.15625 C 1.921875 -0.234375 1.84375 -0.25 1.8125 -0.25 C 1.75 -0.25 1.515625 -0.265625 1.515625 -0.453125 C 1.515625 -0.53125 1.578125 -0.65625 1.609375 -0.71875 L 2.15625 -1.578125 L 4.140625 -1.578125 L 4.296875 -0.421875 C 4.265625 -0.359375 4.234375 -0.25 3.828125 -0.25 C 3.734375 -0.25 3.640625 -0.25 3.640625 -0.09375 C 3.640625 -0.0625 3.671875 0 3.75 0 C 3.953125 0 4.4375 -0.03125 4.640625 -0.03125 C 4.765625 -0.03125 4.921875 -0.015625 5.046875 -0.015625 C 5.171875 -0.015625 5.3125 0 5.4375 0 C 5.53125 0 5.578125 -0.0625 5.578125 -0.140625 C 5.578125 -0.25 5.5 -0.25 5.390625 -0.25 C 4.984375 -0.25 4.96875 -0.296875 4.953125 -0.46875 L 4.34375 -4.71875 C 4.328125 -4.859375 4.3125 -4.90625 4.1875 -4.90625 C 4.046875 -4.90625 4.015625 -4.84375 3.953125 -4.75 Z M 2.328125 -1.8125 L 3.78125 -4.078125 L 4.09375 -1.8125 Z M 2.328125 -1.8125 "/></g><g id="a6469f053a21f964f40cfc0d42383b1bat29ps47__glyph-3-6"><path d="M 0.375 1.109375 C 0.34375 1.21875 0.34375 1.25 0.34375 1.25 C 0.34375 1.40625 0.46875 1.46875 0.578125 1.46875 C 0.828125 1.46875 0.875 1.265625 0.9375 1.046875 C 1.03125 0.6875 1.21875 -0.09375 1.28125 -0.359375 C 1.34375 -0.25 1.578125 0.0625 2.046875 0.0625 C 2.921875 0.0625 3.859375 -0.875 3.859375 -1.875 C 3.859375 -2.609375 3.375 -3.03125 2.765625 -3.03125 C 2.09375 -3.03125 1.265625 -2.453125 1.015625 -1.46875 Z M 2.046875 -0.125 C 1.53125 -0.125 1.375 -0.640625 1.375 -0.71875 C 1.375 -0.734375 1.421875 -0.890625 1.4375 -0.96875 C 1.640625 -1.8125 1.6875 -1.984375 1.890625 -2.28125 C 2.140625 -2.640625 2.484375 -2.84375 2.75 -2.84375 C 3.03125 -2.84375 3.3125 -2.640625 3.3125 -2.15625 C 3.3125 -1.828125 3.125 -1.0625 2.921875 -0.71875 C 2.59375 -0.234375 2.25 -0.125 2.046875 -0.125 Z M 2.046875 -0.125 "/></g><g id="a6469f053a21f964f40cfc0d42383b1bat29ps47__glyph-3-7"><path d="M 1.6875 -2.71875 L 2.390625 -2.71875 C 2.53125 -2.71875 2.625 -2.71875 2.625 -2.875 C 2.625 -2.96875 2.53125 -2.96875 2.40625 -2.96875 L 1.75 -2.96875 L 2.015625 -3.984375 C 2.015625 -4.03125 2.03125 -4.0625 2.03125 -4.09375 C 2.03125 -4.203125 1.9375 -4.3125 1.796875 -4.3125 C 1.625 -4.3125 1.515625 -4.1875 1.46875 -4.015625 C 1.421875 -3.84375 1.515625 -4.171875 1.21875 -2.96875 L 0.515625 -2.96875 C 0.375 -2.96875 0.296875 -2.96875 0.296875 -2.8125 C 0.296875 -2.71875 0.375 -2.71875 0.5 -2.71875 L 1.15625 -2.71875 L 0.75 -1.09375 C 0.703125 -0.921875 0.640625 -0.671875 0.640625 -0.578125 C 0.640625 -0.171875 0.984375 0.0625 1.375 0.0625 C 2.140625 0.0625 2.578125 -0.890625 2.578125 -0.984375 C 2.578125 -1.078125 2.484375 -1.078125 2.46875 -1.078125 C 2.390625 -1.078125 2.375 -1.0625 2.328125 -0.9375 C 2.125 -0.515625 1.78125 -0.125 1.40625 -0.125 C 1.25 -0.125 1.15625 -0.21875 1.15625 -0.46875 C 1.15625 -0.53125 1.1875 -0.671875 1.203125 -0.75 Z M 1.6875 -2.71875 "/></g><g id="a6469f053a21f964f40cfc0d42383b1bat29ps47__glyph-3-8"><path d="M 1.453125 -0.109375 C 1.453125 0.265625 1.390625 0.703125 0.921875 1.15625 C 0.890625 1.171875 0.875 1.203125 0.875 1.234375 C 0.875 1.28125 0.921875 1.328125 0.96875 1.328125 C 1.0625 1.328125 1.640625 0.78125 1.640625 -0.046875 C 1.640625 -0.46875 1.484375 -0.796875 1.171875 -0.796875 C 0.9375 -0.796875 0.765625 -0.609375 0.765625 -0.40625 C 0.765625 -0.171875 0.9375 0 1.171875 0 C 1.34375 0 1.453125 -0.109375 1.453125 -0.109375 Z M 1.453125 -0.109375 "/></g><g id="a6469f053a21f964f40cfc0d42383b1bat29ps47__glyph-4-0"><path d="M 4.28125 -1.5625 C 4.390625 -1.5625 4.546875 -1.5625 4.546875 -1.71875 C 4.546875 -1.890625 4.390625 -1.890625 4.28125 -1.890625 L 1.09375 -1.890625 C 1.1875 -2.890625 2.03125 -3.640625 3.09375 -3.640625 L 4.28125 -3.640625 C 4.390625 -3.640625 4.546875 -3.640625 4.546875 -3.796875 C 4.546875 -3.96875 4.390625 -3.96875 4.28125 -3.96875 L 3.078125 -3.96875 C 1.796875 -3.96875 0.75 -2.96875 0.75 -1.734375 C 0.75 -0.46875 1.8125 0.53125 3.078125 0.53125 L 4.28125 0.53125 C 4.390625 0.53125 4.546875 0.53125 4.546875 0.359375 C 4.546875 0.1875 4.390625 0.1875 4.28125 0.1875 L 3.09375 0.1875 C 2.03125 0.1875 1.1875 -0.5625 1.09375 -1.5625 Z M 4.28125 -1.5625 "/></g><g id="a6469f053a21f964f40cfc0d42383b1bat29ps47__glyph-4-1"><path d="M 5.125 -1.5625 C 5.234375 -1.5625 5.40625 -1.5625 5.40625 -1.71875 C 5.40625 -1.890625 5.25 -1.890625 5.125 -1.890625 L 1.015625 -1.890625 C 0.90625 -1.890625 0.75 -1.890625 0.75 -1.734375 C 0.75 -1.5625 0.90625 -1.5625 1.015625 -1.5625 Z M 5.125 -1.5625 "/></g><g id="a6469f053a21f964f40cfc0d42383b1bat29ps47__glyph-5-0"><path d="M 2.453125 -5.171875 C 1.140625 -4.25 0.796875 -2.78125 0.796875 -1.734375 C 0.796875 -0.765625 1.078125 0.75 2.453125 1.71875 C 2.5 1.71875 2.578125 1.71875 2.578125 1.640625 C 2.578125 1.59375 2.5625 1.578125 2.515625 1.53125 C 1.59375 0.703125 1.265625 -0.46875 1.265625 -1.71875 C 1.265625 -3.578125 1.96875 -4.5 2.53125 -5 C 2.5625 -5.03125 2.578125 -5.046875 2.578125 -5.078125 C 2.578125 -5.171875 2.5 -5.171875 2.453125 -5.171875 Z M 2.453125 -5.171875 "/></g><g id="a6469f053a21f964f40cfc0d42383b1bat29ps47__glyph-5-1"><path d="M 4.28125 -4.671875 L 0.390625 -4.671875 L 0.390625 -4.4375 L 0.546875 -4.4375 C 1.078125 -4.4375 1.09375 -4.359375 1.09375 -4.125 L 1.09375 -0.5625 C 1.09375 -0.328125 1.078125 -0.25 0.546875 -0.25 L 0.390625 -0.25 L 0.390625 0 C 0.390625 0 1.171875 -0.03125 1.4375 -0.03125 C 1.71875 -0.03125 2.53125 0 2.640625 0 L 2.640625 -0.25 L 2.390625 -0.25 C 1.75 -0.25 1.75 -0.34375 1.75 -0.5625 L 1.75 -4.15625 C 1.75 -4.375 1.75 -4.4375 2.078125 -4.4375 L 2.921875 -4.4375 C 3.96875 -4.4375 4.140625 -4.046875 4.25 -3.09375 L 4.484375 -3.09375 Z M 4.28125 -4.671875 "/></g><g id="a6469f053a21f964f40cfc0d42383b1bat29ps47__glyph-5-2"><path d="M 0.625 -5.171875 C 0.578125 -5.171875 0.484375 -5.171875 0.484375 -5.078125 C 0.484375 -5.046875 0.515625 -5.03125 0.546875 -4.984375 C 1.140625 -4.4375 1.8125 -3.5 1.8125 -1.734375 C 1.8125 -0.296875 1.359375 0.796875 0.609375 1.46875 C 0.5 1.59375 0.484375 1.59375 0.484375 1.640625 C 0.484375 1.671875 0.515625 1.71875 0.578125 1.71875 C 0.65625 1.71875 1.3125 1.265625 1.765625 0.40625 C 2.078125 -0.171875 2.28125 -0.921875 2.28125 -1.71875 C 2.28125 -2.6875 1.984375 -4.203125 0.625 -5.171875 Z M 0.625 -5.171875 "/></g><g id="a6469f053a21f964f40cfc0d42383b1bat29ps47__glyph-5-3"><path d="M 3.1875 -1.5625 L 5.296875 -1.5625 C 5.390625 -1.5625 5.546875 -1.5625 5.546875 -1.71875 C 5.546875 -1.890625 5.390625 -1.890625 5.296875 -1.890625 L 3.1875 -1.890625 L 3.1875 -4.015625 C 3.1875 -4.09375 3.1875 -4.265625 3.03125 -4.265625 C 2.859375 -4.265625 2.859375 -4.109375 2.859375 -4.015625 L 2.859375 -1.890625 L 0.734375 -1.890625 C 0.640625 -1.890625 0.484375 -1.890625 0.484375 -1.734375 C 0.484375 -1.5625 0.640625 -1.5625 0.734375 -1.5625 L 2.859375 -1.5625 L 2.859375 0.5625 C 2.859375 0.640625 2.859375 0.8125 3.015625 0.8125 C 3.1875 0.8125 3.1875 0.65625 3.1875 0.5625 Z M 3.1875 -1.5625 "/></g><g id="a6469f053a21f964f40cfc0d42383b1bat29ps47__glyph-6-0"><path d="M 3.546875 -0.90625 L 3.453125 -1.078125 C 3.125 -0.875 2.734375 -0.671875 2.421875 -0.578125 C 2.125 -0.84375 1.78125 -1.15625 1.59375 -1.453125 C 1.546875 -1.75 1.53125 -2.078125 1.53125 -2.421875 C 1.53125 -2.90625 1.5625 -3.59375 1.734375 -3.890625 C 2.09375 -3.890625 2.59375 -3.640625 2.921875 -3.359375 L 3 -3.375 L 3.515625 -4.15625 C 3.1875 -4.375 2.84375 -4.5625 2.453125 -4.59375 L 0.828125 -3.578125 C 0.703125 -3.03125 0.703125 -2.4375 0.703125 -2.15625 C 0.703125 -1.703125 0.734375 -1.265625 0.765625 -0.828125 C 1.09375 -0.4375 1.453125 -0.046875 1.84375 0.28125 Z M 3.546875 -0.90625 "/></g><g id="a6469f053a21f964f40cfc0d42383b1bat29ps47__glyph-6-1"><path d="M 0.828125 -3.609375 C 0.734375 -3.03125 0.6875 -2.4375 0.6875 -1.859375 C 0.6875 -1.515625 0.703125 -1.171875 0.734375 -0.84375 C 1.078125 -0.421875 1.46875 -0.0625 1.859375 0.3125 C 2.4375 -0.046875 3 -0.4375 3.53125 -0.859375 L 3.484375 -1.015625 L 2.75 -0.625 C 2.703125 -0.609375 2.5625 -0.609375 2.53125 -0.59375 C 2.125 -0.78125 1.5625 -1.25 1.53125 -1.375 C 1.515625 -1.453125 1.484375 -1.546875 1.484375 -1.640625 C 2.0625 -2.09375 2.90625 -2.875 3.59375 -3.53125 C 3.15625 -3.828125 2.75 -4.1875 2.421875 -4.609375 Z M 1.453125 -1.90625 C 1.453125 -2.765625 1.484375 -3.921875 1.71875 -3.921875 C 1.71875 -3.921875 1.734375 -3.921875 1.734375 -3.90625 C 2.046875 -3.59375 2.421875 -3.3125 2.796875 -3.078125 C 2.421875 -2.671875 1.90625 -2.234375 1.453125 -1.90625 Z M 1.453125 -1.90625 "/></g><g id="a6469f053a21f964f40cfc0d42383b1bat29ps47__glyph-7-0"><path d="M 3.15625 -1.75 C 3.15625 -2.078125 2.96875 -2.1875 2.875 -2.1875 C 2.734375 -2.1875 2.578125 -2.03125 2.578125 -1.890625 C 2.578125 -1.796875 2.640625 -1.75 2.671875 -1.734375 C 2.734375 -1.6875 2.875 -1.578125 2.875 -1.359375 C 2.875 -1.09375 2.5 -0.109375 1.90625 -0.109375 C 1.65625 -0.109375 1.4375 -0.21875 1.4375 -0.5625 C 1.4375 -0.8125 1.5625 -1.140625 1.71875 -1.5 C 1.75 -1.578125 1.78125 -1.65625 1.78125 -1.75 C 1.78125 -1.984375 1.546875 -2.171875 1.234375 -2.171875 C 0.71875 -2.171875 0.453125 -1.546875 0.453125 -1.40625 C 0.453125 -1.34375 0.53125 -1.34375 0.546875 -1.34375 C 0.640625 -1.34375 0.640625 -1.375 0.671875 -1.4375 C 0.765625 -1.765625 1 -2.015625 1.21875 -2.015625 C 1.3125 -2.015625 1.375 -1.953125 1.375 -1.828125 C 1.375 -1.71875 1.34375 -1.671875 1.28125 -1.53125 C 1.09375 -1.046875 1.015625 -0.8125 1.015625 -0.625 C 1.015625 -0.140625 1.40625 0.046875 1.890625 0.046875 C 2.28125 0.046875 2.5625 -0.234375 2.75 -0.5 C 3.09375 -1.03125 3.15625 -1.671875 3.15625 -1.75 Z M 3.15625 -1.75 "/></g><g id="a6469f053a21f964f40cfc0d42383b1bat29ps47__glyph-7-1"><path d="M 4.140625 -2.75 C 4.171875 -2.796875 4.171875 -2.8125 4.234375 -2.875 C 4.328125 -2.96875 4.46875 -3.125 4.78125 -3.140625 C 4.84375 -3.140625 4.921875 -3.140625 4.921875 -3.28125 C 4.921875 -3.3125 4.90625 -3.359375 4.84375 -3.359375 C 4.78125 -3.359375 4.703125 -3.34375 4.625 -3.34375 C 4.546875 -3.34375 4.46875 -3.34375 4.390625 -3.34375 C 4.296875 -3.34375 4.21875 -3.34375 4.125 -3.34375 C 4.03125 -3.34375 3.9375 -3.359375 3.84375 -3.359375 C 3.765625 -3.359375 3.71875 -3.3125 3.71875 -3.21875 C 3.71875 -3.140625 3.796875 -3.140625 3.84375 -3.140625 C 3.90625 -3.140625 4.046875 -3.109375 4.046875 -3.015625 C 4.046875 -2.984375 4.015625 -2.921875 3.953125 -2.828125 L 2.21875 -0.453125 L 1.65625 -2.96875 C 1.640625 -3.015625 1.640625 -3.03125 1.640625 -3.046875 C 1.640625 -3.109375 1.796875 -3.140625 1.96875 -3.140625 C 2.03125 -3.140625 2.125 -3.140625 2.125 -3.28125 C 2.125 -3.3125 2.09375 -3.359375 2.03125 -3.359375 C 1.921875 -3.359375 1.8125 -3.34375 1.703125 -3.34375 C 1.578125 -3.34375 1.46875 -3.34375 1.359375 -3.34375 C 1.25 -3.34375 1.140625 -3.34375 1.03125 -3.34375 C 0.9375 -3.34375 0.84375 -3.359375 0.75 -3.359375 C 0.71875 -3.359375 0.625 -3.359375 0.625 -3.21875 C 0.625 -3.140625 0.703125 -3.140625 0.78125 -3.140625 C 1.078125 -3.140625 1.078125 -3.109375 1.109375 -3 L 1.78125 -0.03125 C 1.8125 0.0625 1.8125 0.109375 1.9375 0.109375 C 2 0.109375 2.0625 0.109375 2.140625 0 Z M 4.140625 -2.75 "/></g><g id="a6469f053a21f964f40cfc0d42383b1bat29ps47__glyph-7-2"><path d="M 1.40625 -1.109375 C 1.90625 -1.109375 2.78125 -1.171875 2.78125 -1.734375 C 2.78125 -1.984375 2.53125 -2.171875 2.078125 -2.171875 C 1.40625 -2.171875 0.546875 -1.734375 0.546875 -0.90625 C 0.546875 -0.46875 0.84375 0.046875 1.59375 0.046875 C 1.6875 0.046875 2.078125 0.046875 2.40625 -0.078125 C 2.734375 -0.203125 2.9375 -0.421875 2.9375 -0.484375 C 2.9375 -0.515625 2.875 -0.59375 2.828125 -0.59375 C 2.796875 -0.59375 2.796875 -0.59375 2.71875 -0.515625 C 2.46875 -0.234375 2.03125 -0.109375 1.59375 -0.109375 C 1.1875 -0.109375 1 -0.359375 1 -0.734375 C 1 -0.78125 1 -0.90625 1.046875 -1.109375 Z M 1.09375 -1.28125 C 1.3125 -1.953125 1.921875 -2.015625 2.0625 -2.015625 C 2.3125 -2.015625 2.53125 -1.90625 2.53125 -1.734375 C 2.53125 -1.28125 1.609375 -1.28125 1.375 -1.28125 Z M 1.09375 -1.28125 "/></g><g id="a6469f053a21f964f40cfc0d42383b1bat29ps47__glyph-7-3"><path d="M 4.546875 -1.171875 C 4.546875 -1.1875 4.578125 -1.234375 4.578125 -1.25 C 4.578125 -1.28125 4.546875 -1.34375 4.46875 -1.34375 C 4.390625 -1.34375 4.390625 -1.328125 4.34375 -1.203125 C 3.984375 -0.453125 3.703125 -0.21875 2.828125 -0.21875 L 1.828125 -0.21875 C 1.796875 -0.21875 1.734375 -0.21875 1.671875 -0.234375 C 1.6875 -0.265625 1.6875 -0.28125 1.6875 -0.3125 L 2.015625 -1.625 L 2.65625 -1.625 C 3.125 -1.625 3.140625 -1.546875 3.140625 -1.390625 C 3.140625 -1.34375 3.140625 -1.296875 3.109375 -1.171875 C 3.109375 -1.15625 3.109375 -1.140625 3.109375 -1.125 C 3.109375 -1.125 3.109375 -1.046875 3.203125 -1.046875 C 3.296875 -1.046875 3.296875 -1.078125 3.328125 -1.15625 L 3.609375 -2.265625 C 3.609375 -2.28125 3.625 -2.3125 3.625 -2.34375 C 3.625 -2.375 3.59375 -2.421875 3.515625 -2.421875 C 3.4375 -2.421875 3.421875 -2.390625 3.40625 -2.3125 C 3.28125 -1.90625 3.125 -1.84375 2.671875 -1.84375 L 2.078125 -1.84375 L 2.359375 -2.953125 C 2.390625 -3.109375 2.390625 -3.125 2.59375 -3.125 L 3.546875 -3.125 C 4.25 -3.125 4.453125 -3 4.453125 -2.484375 C 4.453125 -2.421875 4.4375 -2.328125 4.4375 -2.265625 C 4.4375 -2.1875 4.5 -2.171875 4.546875 -2.171875 C 4.640625 -2.171875 4.640625 -2.203125 4.65625 -2.296875 L 4.734375 -3.171875 L 4.75 -3.25 C 4.75 -3.34375 4.671875 -3.34375 4.578125 -3.34375 L 1.53125 -3.34375 C 1.4375 -3.34375 1.359375 -3.34375 1.359375 -3.203125 C 1.359375 -3.125 1.421875 -3.125 1.546875 -3.125 C 1.59375 -3.125 1.75 -3.125 1.859375 -3.09375 C 1.859375 -3.03125 1.859375 -3.015625 1.84375 -2.96875 L 1.203125 -0.40625 C 1.15625 -0.265625 1.15625 -0.21875 0.78125 -0.21875 C 0.65625 -0.21875 0.578125 -0.21875 0.578125 -0.078125 C 0.578125 0 0.65625 0 0.734375 0 L 3.875 0 C 4 0 4 0 4.046875 -0.09375 Z M 4.546875 -1.171875 "/></g><g id="a6469f053a21f964f40cfc0d42383b1bat29ps47__glyph-8-0"><path d="M 3.640625 -1.09375 C 3.71875 -1.09375 3.859375 -1.09375 3.859375 -1.234375 C 3.859375 -1.375 3.71875 -1.375 3.640625 -1.375 L 1.078125 -1.375 C 1.125 -2.078125 1.796875 -2.6875 2.671875 -2.6875 L 3.640625 -2.6875 C 3.71875 -2.6875 3.859375 -2.6875 3.859375 -2.8125 C 3.859375 -2.953125 3.71875 -2.953125 3.640625 -2.953125 L 2.65625 -2.953125 C 1.671875 -2.953125 0.78125 -2.21875 0.78125 -1.234375 C 0.78125 -0.234375 1.671875 0.5 2.65625 0.5 L 3.640625 0.5 C 3.71875 0.5 3.859375 0.5 3.859375 0.359375 C 3.859375 0.21875 3.71875 0.21875 3.640625 0.21875 L 2.671875 0.21875 C 1.796875 0.21875 1.125 -0.390625 1.078125 -1.09375 Z M 3.640625 -1.09375 "/></g><g id="a6469f053a21f964f40cfc0d42383b1bat29ps47__glyph-9-0"><path d="M 2.171875 -3.578125 C 2.171875 -3.578125 2.1875 -3.59375 2.1875 -3.625 C 2.1875 -3.640625 2.171875 -3.6875 2.109375 -3.6875 C 2 -3.6875 0.734375 -2.90625 0.734375 -1.234375 C 0.734375 0.4375 2 1.234375 2.109375 1.234375 C 2.171875 1.234375 2.1875 1.1875 2.1875 1.15625 C 2.1875 1.125 2.171875 1.109375 2.140625 1.09375 C 1.28125 0.40625 1.125 -0.59375 1.125 -1.234375 C 1.125 -2.4375 1.671875 -3.234375 2.171875 -3.578125 Z M 2.171875 -3.578125 "/></g><g id="a6469f053a21f964f40cfc0d42383b1bat29ps47__glyph-9-1"><path d="M 3.53125 -3.34375 L 0.40625 -3.34375 L 0.40625 -3.125 L 0.5625 -3.125 C 0.953125 -3.125 0.953125 -3.078125 0.953125 -2.921875 L 0.953125 -0.421875 C 0.953125 -0.265625 0.953125 -0.21875 0.5625 -0.21875 L 0.40625 -0.21875 L 0.40625 0 C 0.671875 -0.015625 0.9375 -0.015625 1.234375 -0.015625 C 1.515625 -0.015625 1.890625 -0.015625 2.15625 0 L 2.15625 -0.21875 L 1.953125 -0.21875 C 1.484375 -0.21875 1.484375 -0.265625 1.484375 -0.421875 L 1.484375 -2.9375 C 1.484375 -3.09375 1.484375 -3.125 1.71875 -3.125 L 2.4375 -3.125 C 3.265625 -3.125 3.390625 -2.84375 3.484375 -2.171875 L 3.6875 -2.171875 Z M 3.53125 -3.34375 "/></g><g id="a6469f053a21f964f40cfc0d42383b1bat29ps47__glyph-9-2"><path d="M 1.921875 -1.234375 C 1.921875 -2.90625 0.65625 -3.6875 0.5625 -3.6875 C 0.484375 -3.6875 0.484375 -3.625 0.484375 -3.625 C 0.484375 -3.625 0.484375 -3.59375 0.515625 -3.5625 C 1.25 -2.96875 1.546875 -2.109375 1.546875 -1.234375 C 1.546875 -0.78125 1.46875 -0.328125 1.296875 0.078125 C 1.0625 0.640625 0.75 0.90625 0.5 1.109375 C 0.5 1.125 0.484375 1.140625 0.484375 1.15625 C 0.484375 1.171875 0.484375 1.234375 0.5625 1.234375 C 0.65625 1.234375 1.921875 0.4375 1.921875 -1.234375 Z M 1.921875 -1.234375 "/></g><g id="a6469f053a21f964f40cfc0d42383b1bat29ps47__glyph-9-3"><path d="M 2.671875 -1.09375 L 4.375 -1.09375 C 4.4375 -1.09375 4.578125 -1.09375 4.578125 -1.234375 C 4.578125 -1.375 4.4375 -1.375 4.375 -1.375 L 2.671875 -1.375 L 2.671875 -3.078125 C 2.671875 -3.15625 2.671875 -3.28125 2.53125 -3.28125 C 2.390625 -3.28125 2.390625 -3.15625 2.390625 -3.078125 L 2.390625 -1.375 L 0.671875 -1.375 C 0.609375 -1.375 0.484375 -1.375 0.484375 -1.234375 C 0.484375 -1.09375 0.609375 -1.09375 0.671875 -1.09375 L 2.390625 -1.09375 L 2.390625 0.625 C 2.390625 0.6875 2.390625 0.828125 2.53125 0.828125 C 2.671875 0.828125 2.671875 0.6875 2.671875 0.625 Z M 2.671875 -1.09375 "/></g></g></defs><g fill="rgb(0%, 0%, 0%)" fill-opacity="1"><use xlink:href="#a6469f053a21f964f40cfc0d42383b1bat29ps47__glyph-0-0" x="108.659413" y="15.613314"/></g><g fill="rgb(0%, 0%, 0%)" fill-opacity="1"><use xlink:href="#a6469f053a21f964f40cfc0d42383b1bat29ps47__glyph-1-0" x="116.780294" y="15.613314"/><use xlink:href="#a6469f053a21f964f40cfc0d42383b1bat29ps47__glyph-1-1" x="120.612608" y="15.613314"/><use xlink:href="#a6469f053a21f964f40cfc0d42383b1bat29ps47__glyph-1-2" x="126.771509" y="15.613314"/></g><g fill="rgb(0%, 0%, 0%)" fill-opacity="1"><use xlink:href="#a6469f053a21f964f40cfc0d42383b1bat29ps47__glyph-2-0" x="204.124664" y="8.222583"/></g><g fill="rgb(0%, 0%, 0%)" fill-opacity="1"><use xlink:href="#a6469f053a21f964f40cfc0d42383b1bat29ps47__glyph-3-0" x="213.431326" y="18.569804"/></g><g fill="rgb(0%, 0%, 0%)" fill-opacity="1"><use xlink:href="#a6469f053a21f964f40cfc0d42383b1bat29ps47__glyph-4-0" x="217.621141" y="18.569804"/></g><g fill="rgb(0%, 0%, 0%)" fill-opacity="1"><use xlink:href="#a6469f053a21f964f40cfc0d42383b1bat29ps47__glyph-3-1" x="222.931182" y="18.569804"/></g><g fill="rgb(0%, 0%, 0%)" fill-opacity="1"><use xlink:href="#a6469f053a21f964f40cfc0d42383b1bat29ps47__glyph-5-0" x="229.281434" y="18.569804"/><use xlink:href="#a6469f053a21f964f40cfc0d42383b1bat29ps47__glyph-5-1" x="232.360678" y="18.569804"/><use xlink:href="#a6469f053a21f964f40cfc0d42383b1bat29ps47__glyph-5-2" x="237.23339" y="18.569804"/></g><g fill="rgb(0%, 0%, 0%)" fill-opacity="1"><use xlink:href="#a6469f053a21f964f40cfc0d42383b1bat29ps47__glyph-0-0" x="242.448252" y="15.613314"/></g><g fill="rgb(0%, 0%, 0%)" fill-opacity="1"><use xlink:href="#a6469f053a21f964f40cfc0d42383b1bat29ps47__glyph-1-0" x="250.569132" y="15.613314"/></g><g fill="rgb(0%, 0%, 0%)" fill-opacity="1"><use xlink:href="#a6469f053a21f964f40cfc0d42383b1bat29ps47__glyph-6-0" x="254.401447" y="15.613314"/></g><g fill="rgb(0%, 0%, 0%)" fill-opacity="1"><use xlink:href="#a6469f053a21f964f40cfc0d42383b1bat29ps47__glyph-3-0" x="258.23763" y="17.091064"/></g><g fill="rgb(0%, 0%, 0%)" fill-opacity="1"><use xlink:href="#a6469f053a21f964f40cfc0d42383b1bat29ps47__glyph-1-2" x="262.919151" y="15.613314"/></g><g fill="rgb(0%, 0%, 0%)" fill-opacity="1"><use xlink:href="#a6469f053a21f964f40cfc0d42383b1bat29ps47__glyph-2-0" x="90.921462" y="62.982436"/></g><g fill="rgb(0%, 0%, 0%)" fill-opacity="1"><use xlink:href="#a6469f053a21f964f40cfc0d42383b1bat29ps47__glyph-3-2" x="100.228125" y="73.329657"/></g><g fill="rgb(0%, 0%, 0%)" fill-opacity="1"><use xlink:href="#a6469f053a21f964f40cfc0d42383b1bat29ps47__glyph-4-0" x="103.966813" y="73.329657"/></g><g fill="rgb(0%, 0%, 0%)" fill-opacity="1"><use xlink:href="#a6469f053a21f964f40cfc0d42383b1bat29ps47__glyph-3-3" x="109.276855" y="73.329657"/></g><g fill="rgb(0%, 0%, 0%)" fill-opacity="1"><use xlink:href="#a6469f053a21f964f40cfc0d42383b1bat29ps47__glyph-5-0" x="115.441552" y="73.329657"/><use xlink:href="#a6469f053a21f964f40cfc0d42383b1bat29ps47__glyph-5-1" x="118.520796" y="73.329657"/><use xlink:href="#a6469f053a21f964f40cfc0d42383b1bat29ps47__glyph-5-2" x="123.393508" y="73.329657"/></g><g fill="rgb(0%, 0%, 0%)" fill-opacity="1"><use xlink:href="#a6469f053a21f964f40cfc0d42383b1bat29ps47__glyph-0-0" x="128.609044" y="70.373167"/></g><g fill="rgb(0%, 0%, 0%)" fill-opacity="1"><use xlink:href="#a6469f053a21f964f40cfc0d42383b1bat29ps47__glyph-1-0" x="136.729925" y="70.373167"/></g><g fill="rgb(0%, 0%, 0%)" fill-opacity="1"><use xlink:href="#a6469f053a21f964f40cfc0d42383b1bat29ps47__glyph-6-1" x="140.562239" y="70.373167"/></g><g fill="rgb(0%, 0%, 0%)" fill-opacity="1"><use xlink:href="#a6469f053a21f964f40cfc0d42383b1bat29ps47__glyph-1-2" x="144.508863" y="70.373167"/></g><g fill="rgb(0%, 0%, 0%)" fill-opacity="1"><use xlink:href="#a6469f053a21f964f40cfc0d42383b1bat29ps47__glyph-2-0" x="204.19687" y="62.982436"/></g><g fill="rgb(0%, 0%, 0%)" fill-opacity="1"><use xlink:href="#a6469f053a21f964f40cfc0d42383b1bat29ps47__glyph-3-4" x="213.504521" y="73.329657"/></g><g fill="rgb(0%, 0%, 0%)" fill-opacity="1"><use xlink:href="#a6469f053a21f964f40cfc0d42383b1bat29ps47__glyph-4-0" x="217.77918" y="73.329657"/></g><g fill="rgb(0%, 0%, 0%)" fill-opacity="1"><use xlink:href="#a6469f053a21f964f40cfc0d42383b1bat29ps47__glyph-3-5" x="223.089222" y="73.329657"/></g><g fill="rgb(0%, 0%, 0%)" fill-opacity="1"><use xlink:href="#a6469f053a21f964f40cfc0d42383b1bat29ps47__glyph-5-0" x="229.01525" y="73.329657"/><use xlink:href="#a6469f053a21f964f40cfc0d42383b1bat29ps47__glyph-5-1" x="232.094494" y="73.329657"/><use xlink:href="#a6469f053a21f964f40cfc0d42383b1bat29ps47__glyph-5-2" x="236.967206" y="73.329657"/></g><g fill="rgb(0%, 0%, 0%)" fill-opacity="1"><use xlink:href="#a6469f053a21f964f40cfc0d42383b1bat29ps47__glyph-0-0" x="242.182178" y="70.373167"/></g><g fill="rgb(0%, 0%, 0%)" fill-opacity="1"><use xlink:href="#a6469f053a21f964f40cfc0d42383b1bat29ps47__glyph-1-0" x="250.303058" y="70.373167"/></g><g fill="rgb(0%, 0%, 0%)" fill-opacity="1"><use xlink:href="#a6469f053a21f964f40cfc0d42383b1bat29ps47__glyph-6-1" x="254.135373" y="70.373167"/></g><g fill="rgb(0%, 0%, 0%)" fill-opacity="1"><use xlink:href="#a6469f053a21f964f40cfc0d42383b1bat29ps47__glyph-3-4" x="258.07937" y="71.850917"/></g><g fill="rgb(0%, 0%, 0%)" fill-opacity="1"><use xlink:href="#a6469f053a21f964f40cfc0d42383b1bat29ps47__glyph-1-2" x="262.846945" y="70.373167"/></g><path fill="none" stroke="rgb(0%, 0%, 0%)" stroke-linecap="butt" stroke-linejoin="miter" stroke-miterlimit="10" stroke-opacity="1" stroke-width="0.39848" d="M -44.279276 28.80298 L 20.681175 28.80298 " transform="matrix(0.989123, 0, 0, -0.989123, 178.836733, 41.638141)"/><path fill="none" stroke="rgb(0%, 0%, 0%)" stroke-linecap="round" stroke-linejoin="round" stroke-miterlimit="10" stroke-opacity="1" stroke-width="0.39848" d="M -2.073437 2.390079 C -1.694313 0.956518 -0.849184 0.277255 -0.000104729 0.000810398 C -0.849184 -0.279583 -1.694313 -0.954897 -2.073437 -2.392407 " transform="matrix(0.989123, 0, 0, -0.989123, 199.488385, 13.149239)"/><g fill="rgb(0%, 0%, 0%)" fill-opacity="1"><use xlink:href="#a6469f053a21f964f40cfc0d42383b1bat29ps47__glyph-5-0" x="148.246112" y="8.279952"/></g><g fill="rgb(0%, 0%, 0%)" fill-opacity="1"><use xlink:href="#a6469f053a21f964f40cfc0d42383b1bat29ps47__glyph-3-6" x="151.325357" y="8.279952"/></g><g fill="rgb(0%, 0%, 0%)" fill-opacity="1"><use xlink:href="#a6469f053a21f964f40cfc0d42383b1bat29ps47__glyph-7-0" x="155.41429" y="9.265119"/></g><g fill="rgb(0%, 0%, 0%)" fill-opacity="1"><use xlink:href="#a6469f053a21f964f40cfc0d42383b1bat29ps47__glyph-5-2" x="159.641804" y="8.279952"/></g><g fill="rgb(0%, 0%, 0%)" fill-opacity="1"><use xlink:href="#a6469f053a21f964f40cfc0d42383b1bat29ps47__glyph-7-0" x="162.721934" y="9.599443"/></g><g fill="rgb(0%, 0%, 0%)" fill-opacity="1"><use xlink:href="#a6469f053a21f964f40cfc0d42383b1bat29ps47__glyph-8-0" x="166.457677" y="9.599443"/></g><g fill="rgb(0%, 0%, 0%)" fill-opacity="1"><use xlink:href="#a6469f053a21f964f40cfc0d42383b1bat29ps47__glyph-7-1" x="171.111342" y="9.599443"/></g><g fill="rgb(0%, 0%, 0%)" fill-opacity="1"><use xlink:href="#a6469f053a21f964f40cfc0d42383b1bat29ps47__glyph-9-0" x="176.559752" y="9.599443"/><use xlink:href="#a6469f053a21f964f40cfc0d42383b1bat29ps47__glyph-9-1" x="179.228774" y="9.599443"/><use xlink:href="#a6469f053a21f964f40cfc0d42383b1bat29ps47__glyph-9-2" x="183.32124" y="9.599443"/></g><path fill="none" stroke="rgb(0%, 0%, 0%)" stroke-linecap="butt" stroke-linejoin="miter" stroke-miterlimit="10" stroke-opacity="1" stroke-width="0.39848" d="M -59.858885 19.97651 L -59.858885 -17.335566 " transform="matrix(0.989123, 0, 0, -0.989123, 178.836733, 41.638141)"/><path fill="none" stroke="rgb(0%, 0%, 0%)" stroke-linecap="round" stroke-linejoin="round" stroke-miterlimit="10" stroke-opacity="1" stroke-width="0.39848" d="M -2.070886 2.392453 C -1.691763 0.954942 -0.850582 0.279629 -0.00150357 -0.000764856 C -0.850582 -0.277209 -1.691763 -0.956472 -2.070886 -2.390033 " transform="matrix(0, 0.989123, 0.989123, 0, 119.629663, 58.981956)"/><g fill="rgb(0%, 0%, 0%)" fill-opacity="1"><use xlink:href="#a6469f053a21f964f40cfc0d42383b1bat29ps47__glyph-5-0" x="74.552458" y="41.840911"/></g><g fill="rgb(0%, 0%, 0%)" fill-opacity="1"><use xlink:href="#a6469f053a21f964f40cfc0d42383b1bat29ps47__glyph-3-6" x="77.631703" y="41.840911"/></g><g fill="rgb(0%, 0%, 0%)" fill-opacity="1"><use xlink:href="#a6469f053a21f964f40cfc0d42383b1bat29ps47__glyph-7-2" x="81.720636" y="44.199971"/></g><g fill="rgb(0%, 0%, 0%)" fill-opacity="1"><use xlink:href="#a6469f053a21f964f40cfc0d42383b1bat29ps47__glyph-9-3" x="85.05596" y="42.749916"/></g><g fill="rgb(0%, 0%, 0%)" fill-opacity="1"><use xlink:href="#a6469f053a21f964f40cfc0d42383b1bat29ps47__glyph-5-2" x="91.105439" y="41.840911"/></g><g fill="rgb(0%, 0%, 0%)" fill-opacity="1"><use xlink:href="#a6469f053a21f964f40cfc0d42383b1bat29ps47__glyph-7-2" x="94.18557" y="43.160402"/></g><g fill="rgb(0%, 0%, 0%)" fill-opacity="1"><use xlink:href="#a6469f053a21f964f40cfc0d42383b1bat29ps47__glyph-8-0" x="97.52123" y="43.160402"/></g><g fill="rgb(0%, 0%, 0%)" fill-opacity="1"><use xlink:href="#a6469f053a21f964f40cfc0d42383b1bat29ps47__glyph-7-3" x="102.174896" y="43.160402"/></g><g fill="rgb(0%, 0%, 0%)" fill-opacity="1"><use xlink:href="#a6469f053a21f964f40cfc0d42383b1bat29ps47__glyph-9-0" x="107.38779" y="43.160402"/><use xlink:href="#a6469f053a21f964f40cfc0d42383b1bat29ps47__glyph-9-1" x="110.056811" y="43.160402"/><use xlink:href="#a6469f053a21f964f40cfc0d42383b1bat29ps47__glyph-9-2" x="114.149277" y="43.160402"/></g><path fill="none" stroke="rgb(0%, 0%, 0%)" stroke-linecap="butt" stroke-linejoin="miter" stroke-miterlimit="10" stroke-opacity="1" stroke-width="0.39848" d="M 57.223157 17.733362 L 57.223157 -17.335566 " transform="matrix(0.989123, 0, 0, -0.989123, 178.836733, 41.638141)"/><path fill="none" stroke="rgb(0%, 0%, 0%)" stroke-linecap="round" stroke-linejoin="round" stroke-miterlimit="10" stroke-opacity="1" stroke-width="0.39848" d="M -2.070886 2.391644 C -1.691763 0.958083 -0.850582 0.27882 -0.00150357 -0.00157322 C -0.850582 -0.278017 -1.691763 -0.957281 -2.070886 -2.390841 " transform="matrix(0, 0.989123, 0.989123, 0, 235.439056, 58.981956)"/><g fill="rgb(0%, 0%, 0%)" fill-opacity="1"><use xlink:href="#a6469f053a21f964f40cfc0d42383b1bat29ps47__glyph-3-7" x="237.756839" y="43.759811"/></g><path fill="none" stroke="rgb(0%, 0%, 0%)" stroke-linecap="butt" stroke-linejoin="miter" stroke-miterlimit="10" stroke-opacity="1" stroke-width="0.39848" d="M -26.345942 -26.560906 L 20.752261 -26.560906 " transform="matrix(0.989123, 0, 0, -0.989123, 178.836733, 41.638141)"/><path fill="none" stroke="rgb(0%, 0%, 0%)" stroke-linecap="round" stroke-linejoin="round" stroke-miterlimit="10" stroke-opacity="1" stroke-width="0.39848" d="M -2.071582 2.388942 C -1.692458 0.955381 -0.851278 0.280067 0.00175014 -0.000326055 C -0.851278 -0.28072 -1.692458 -0.956033 -2.071582 -2.389594 " transform="matrix(0.989123, 0, 0, -0.989123, 199.560769, 67.909834)"/><g fill="rgb(0%, 0%, 0%)" fill-opacity="1"><use xlink:href="#a6469f053a21f964f40cfc0d42383b1bat29ps47__glyph-5-0" x="165.913835" y="75.40187"/><use xlink:href="#a6469f053a21f964f40cfc0d42383b1bat29ps47__glyph-5-3" x="168.99308" y="75.40187"/></g><g fill="rgb(0%, 0%, 0%)" fill-opacity="1"><use xlink:href="#a6469f053a21f964f40cfc0d42383b1bat29ps47__glyph-3-8" x="175.042581" y="75.40187"/></g><g fill="rgb(0%, 0%, 0%)" fill-opacity="1"><use xlink:href="#a6469f053a21f964f40cfc0d42383b1bat29ps47__glyph-4-1" x="177.383055" y="75.40187"/></g><g fill="rgb(0%, 0%, 0%)" fill-opacity="1"><use xlink:href="#a6469f053a21f964f40cfc0d42383b1bat29ps47__glyph-5-2" x="183.542234" y="75.40187"/></g></svg>