<?xml version="1.0" encoding="UTF-8"?><svg xmlns="http://www.w3.org/2000/svg" xmlns:xlink="http://www.w3.org/1999/xlink" width="343.711" height="105.895" viewBox="0 0 343.711 105.895"><defs><g><g id="34afbba4969f24e14037a3b012d82d5b0vjf2rdm__glyph-0-0"><path d="M 3.5 -2.875 C 4.734375 -2.875 5.796875 -3.78125 5.796875 -4.890625 C 5.796875 -5.96875 4.8125 -6.90625 3.4375 -6.90625 L 0.953125 -6.90625 L 0.953125 0 L 1.84375 0 L 1.84375 -2.875 Z M 3.21875 -6.34375 C 4.3125 -6.34375 4.984375 -5.75 4.984375 -4.890625 C 4.984375 -4.109375 4.359375 -3.453125 3.21875 -3.453125 L 1.8125 -3.453125 L 1.8125 -6.34375 Z M 3.21875 -6.34375 "/></g><g id="34afbba4969f24e14037a3b012d82d5b0vjf2rdm__glyph-0-1"><path d="M 1.5625 -2.125 C 1.5625 -3.125 2.28125 -3.84375 3.25 -3.859375 L 3.25 -4.53125 C 2.375 -4.515625 1.828125 -4.03125 1.515625 -3.578125 L 1.515625 -4.484375 L 0.8125 -4.484375 L 0.8125 0 L 1.5625 0 Z M 1.5625 -2.125 "/></g><g id="34afbba4969f24e14037a3b012d82d5b0vjf2rdm__glyph-0-2"><path d="M 5.796875 -1.140625 C 5.203125 -0.75 4.859375 -0.53125 3.875 -0.53125 C 2.453125 -0.53125 1.546875 -2.03125 1.546875 -3.46875 C 1.546875 -4.8125 2.375 -6.375 3.90625 -6.375 C 4.609375 -6.375 5.0625 -6.203125 5.609375 -5.859375 L 5.75 -6.671875 C 5.3125 -6.890625 4.546875 -7.015625 3.90625 -7.015625 C 2.0625 -7.015625 0.65625 -5.46875 0.65625 -3.375 C 0.65625 -1.796875 1.84375 0.109375 3.90625 0.109375 C 4.828125 0.109375 5.203125 -0.046875 5.859375 -0.453125 Z M 5.796875 -1.140625 "/></g><g id="34afbba4969f24e14037a3b012d82d5b0vjf2rdm__glyph-0-3"><path d="M 3.96875 -2.875 C 3.96875 -3.890625 3.25 -4.59375 2.328125 -4.59375 C 1.6875 -4.59375 1.234375 -4.421875 0.765625 -4.15625 L 0.828125 -3.5 C 1.34375 -3.875 1.84375 -4 2.328125 -4 C 2.796875 -4 3.1875 -3.609375 3.1875 -2.859375 L 3.1875 -2.4375 C 1.703125 -2.421875 0.4375 -2 0.4375 -1.125 C 0.4375 -0.703125 0.703125 0.109375 1.578125 0.109375 C 1.71875 0.109375 2.640625 0.09375 3.21875 -0.359375 L 3.21875 0 L 3.96875 0 Z M 3.1875 -1.3125 C 3.1875 -1.125 3.1875 -0.875 2.859375 -0.6875 C 2.5625 -0.5 2.1875 -0.5 2.078125 -0.5 C 1.609375 -0.5 1.15625 -0.734375 1.15625 -1.140625 C 1.15625 -1.84375 2.765625 -1.90625 3.1875 -1.9375 Z M 3.1875 -1.3125 "/></g><g id="34afbba4969f24e14037a3b012d82d5b0vjf2rdm__glyph-0-4"><path d="M 1.734375 -3.84375 L 3.140625 -3.84375 L 3.140625 -4.421875 L 1.734375 -4.421875 L 1.734375 -5.6875 L 1.0625 -5.6875 L 1.0625 -4.421875 L 0.1875 -4.421875 L 0.1875 -3.84375 L 1.03125 -3.84375 L 1.03125 -1.1875 C 1.03125 -0.59375 1.171875 0.109375 1.84375 0.109375 C 2.546875 0.109375 3.0625 -0.140625 3.296875 -0.265625 L 3.140625 -0.859375 C 2.890625 -0.640625 2.5625 -0.53125 2.25 -0.53125 C 1.875 -0.53125 1.734375 -0.828125 1.734375 -1.359375 Z M 1.734375 -3.84375 "/></g><g id="34afbba4969f24e14037a3b012d82d5b0vjf2rdm__glyph-1-0"><path d="M 2.875 -4.1875 C 2.9375 -4.4375 2.953125 -4.515625 3.59375 -4.515625 C 3.8125 -4.515625 3.875 -4.515625 3.875 -4.65625 C 3.875 -4.671875 3.875 -4.765625 3.765625 -4.765625 C 3.609375 -4.765625 3.421875 -4.75 3.25 -4.734375 C 3.078125 -4.734375 2.859375 -4.734375 2.6875 -4.734375 C 2.546875 -4.734375 2.359375 -4.734375 2.203125 -4.734375 C 2.0625 -4.734375 1.890625 -4.765625 1.75 -4.765625 C 1.71875 -4.765625 1.609375 -4.765625 1.609375 -4.609375 C 1.609375 -4.515625 1.6875 -4.515625 1.828125 -4.515625 C 1.84375 -4.515625 1.96875 -4.515625 2.09375 -4.5 C 2.25 -4.484375 2.265625 -4.46875 2.265625 -4.390625 C 2.265625 -4.390625 2.265625 -4.34375 2.234375 -4.25 L 1.296875 -0.546875 C 1.234375 -0.3125 1.21875 -0.25 0.6875 -0.25 C 0.578125 -0.25 0.484375 -0.25 0.484375 -0.109375 C 0.484375 0 0.5625 0 0.6875 0 L 4.1875 0 C 4.375 0 4.375 0 4.4375 -0.140625 C 4.5 -0.328125 5.03125 -1.671875 5.03125 -1.734375 C 5.03125 -1.75 5.015625 -1.828125 4.90625 -1.828125 C 4.828125 -1.828125 4.8125 -1.796875 4.765625 -1.6875 C 4.5 -1.03125 4.1875 -0.25 2.921875 -0.25 L 2.125 -0.25 C 1.921875 -0.25 1.90625 -0.265625 1.90625 -0.328125 C 1.90625 -0.328125 1.90625 -0.359375 1.9375 -0.46875 Z M 2.875 -4.1875 "/></g><g id="34afbba4969f24e14037a3b012d82d5b0vjf2rdm__glyph-1-1"><path d="M 1.46875 -0.109375 C 1.46875 0.265625 1.40625 0.71875 0.921875 1.15625 C 0.90625 1.1875 0.875 1.21875 0.875 1.25 C 0.875 1.296875 0.9375 1.34375 0.96875 1.34375 C 1.078125 1.34375 1.671875 0.78125 1.671875 -0.046875 C 1.671875 -0.46875 1.5 -0.796875 1.171875 -0.796875 C 0.953125 -0.796875 0.78125 -0.625 0.78125 -0.40625 C 0.78125 -0.1875 0.9375 0 1.1875 0 C 1.359375 0 1.46875 -0.109375 1.46875 -0.109375 Z M 1.46875 -0.109375 "/></g><g id="34afbba4969f24e14037a3b012d82d5b0vjf2rdm__glyph-1-2"><path d="M 5.875 -4.8125 C 5.875 -4.84375 5.859375 -4.90625 5.78125 -4.90625 C 5.734375 -4.90625 5.71875 -4.890625 5.65625 -4.8125 L 5.15625 -4.28125 C 5.09375 -4.359375 4.703125 -4.90625 3.84375 -4.90625 C 2.140625 -4.90625 0.484375 -3.40625 0.484375 -1.828125 C 0.484375 -0.75 1.3125 0.140625 2.640625 0.140625 C 3.265625 0.140625 3.90625 -0.015625 4.265625 -0.40625 C 4.34375 -0.265625 4.53125 0 4.609375 0 C 4.671875 0 4.6875 -0.03125 4.71875 -0.1875 L 4.859375 -0.71875 C 4.890625 -0.84375 4.984375 -1.265625 5.015625 -1.34375 C 5.09375 -1.65625 5.09375 -1.671875 5.515625 -1.671875 C 5.5625 -1.671875 5.671875 -1.671875 5.671875 -1.8125 C 5.671875 -1.890625 5.609375 -1.921875 5.5625 -1.921875 C 5.328125 -1.921875 5.03125 -1.890625 4.796875 -1.890625 C 4.625 -1.890625 4.390625 -1.890625 4.21875 -1.90625 C 4.046875 -1.90625 3.84375 -1.921875 3.671875 -1.921875 C 3.609375 -1.921875 3.515625 -1.921875 3.515625 -1.765625 C 3.515625 -1.671875 3.59375 -1.671875 3.765625 -1.671875 C 3.890625 -1.671875 4.03125 -1.671875 4.171875 -1.65625 C 4.390625 -1.640625 4.390625 -1.609375 4.390625 -1.53125 C 4.390625 -1.5 4.390625 -1.484375 4.34375 -1.296875 C 4.296875 -1.109375 4.21875 -0.796875 4.1875 -0.71875 C 4 -0.296875 3.34375 -0.109375 2.796875 -0.109375 C 2.109375 -0.109375 1.1875 -0.453125 1.1875 -1.625 C 1.1875 -2.375 1.546875 -3.296875 2.0625 -3.828125 C 2.78125 -4.53125 3.515625 -4.640625 3.90625 -4.640625 C 4.71875 -4.640625 5.1875 -4.0625 5.1875 -3.28125 C 5.1875 -3.09375 5.171875 -3.03125 5.171875 -3 C 5.171875 -2.90625 5.265625 -2.90625 5.296875 -2.90625 C 5.40625 -2.90625 5.40625 -2.921875 5.4375 -3.0625 Z M 5.875 -4.8125 "/></g><g id="34afbba4969f24e14037a3b012d82d5b0vjf2rdm__glyph-1-3"><path d="M 3.0625 -4.359375 C 3.0625 -4.46875 2.96875 -4.625 2.78125 -4.625 C 2.578125 -4.625 2.390625 -4.421875 2.390625 -4.234375 C 2.390625 -4.125 2.46875 -3.96875 2.671875 -3.96875 C 2.859375 -3.96875 3.0625 -4.15625 3.0625 -4.359375 Z M 1.578125 0.34375 C 1.46875 0.828125 1.09375 1.21875 0.6875 1.21875 C 0.59375 1.21875 0.515625 1.21875 0.4375 1.1875 C 0.609375 1.09375 0.671875 0.9375 0.671875 0.828125 C 0.671875 0.65625 0.53125 0.578125 0.390625 0.578125 C 0.1875 0.578125 0 0.765625 0 0.984375 C 0 1.25 0.265625 1.421875 0.6875 1.421875 C 1.109375 1.421875 1.921875 1.171875 2.140625 0.328125 L 2.765625 -2.171875 C 2.78125 -2.25 2.796875 -2.3125 2.796875 -2.421875 C 2.796875 -2.796875 2.46875 -3.078125 2.0625 -3.078125 C 1.28125 -3.078125 0.84375 -2.109375 0.84375 -2 C 0.84375 -1.921875 0.9375 -1.921875 0.953125 -1.921875 C 1.03125 -1.921875 1.046875 -1.9375 1.09375 -2.046875 C 1.265625 -2.453125 1.625 -2.875 2.03125 -2.875 C 2.203125 -2.875 2.265625 -2.765625 2.265625 -2.53125 C 2.265625 -2.453125 2.265625 -2.359375 2.25 -2.328125 Z M 1.578125 0.34375 "/></g><g id="34afbba4969f24e14037a3b012d82d5b0vjf2rdm__glyph-2-0"><path d="M 2.546875 -2.984375 C 2.0625 -3.171875 1.71875 -3.203125 1.46875 -3.203125 C 1.296875 -3.203125 0.25 -3.203125 0.25 -2.265625 C 0.25 -1.9375 0.421875 -1.765625 0.515625 -1.671875 C 0.765625 -1.4375 1.046875 -1.375 1.421875 -1.3125 C 1.75 -1.25 2.125 -1.171875 2.125 -0.84375 C 2.125 -0.40625 1.546875 -0.40625 1.453125 -0.40625 C 1 -0.40625 0.578125 -0.5625 0.3125 -0.765625 L 0.203125 -0.234375 C 0.453125 -0.125 0.875 0.0625 1.453125 0.0625 C 1.765625 0.0625 2.0625 0.015625 2.328125 -0.171875 C 2.578125 -0.359375 2.671875 -0.671875 2.671875 -0.90625 C 2.671875 -1.03125 2.65625 -1.296875 2.359375 -1.5625 C 2.109375 -1.796875 1.859375 -1.84375 1.515625 -1.90625 C 1.109375 -1.984375 0.78125 -2.046875 0.78125 -2.359375 C 0.78125 -2.75 1.296875 -2.75 1.40625 -2.75 C 1.796875 -2.75 2.109375 -2.671875 2.453125 -2.484375 Z M 2.546875 -2.984375 "/></g><g id="34afbba4969f24e14037a3b012d82d5b0vjf2rdm__glyph-2-1"><path d="M 1.3125 -2.65625 L 2.34375 -2.65625 L 2.34375 -3.09375 L 1.3125 -3.09375 L 1.3125 -3.984375 L 0.78125 -3.984375 L 0.78125 -3.09375 L 0.140625 -3.09375 L 0.140625 -2.65625 L 0.75 -2.65625 L 0.75 -0.890625 C 0.75 -0.421875 0.875 0.0625 1.375 0.0625 C 1.875 0.0625 2.265625 -0.09375 2.46875 -0.1875 L 2.34375 -0.640625 C 2.125 -0.46875 1.875 -0.40625 1.671875 -0.40625 C 1.390625 -0.40625 1.3125 -0.703125 1.3125 -1.015625 Z M 1.3125 -2.65625 "/></g><g id="34afbba4969f24e14037a3b012d82d5b0vjf2rdm__glyph-2-2"><path d="M 3 -0.765625 C 2.609375 -0.484375 2.171875 -0.390625 1.875 -0.390625 C 1.265625 -0.390625 0.796875 -0.890625 0.78125 -1.53125 L 3.0625 -1.53125 C 3.0625 -1.84375 3.03125 -2.3125 2.765625 -2.703125 C 2.515625 -3.0625 2.09375 -3.203125 1.75 -3.203125 C 0.90625 -3.203125 0.25 -2.453125 0.25 -1.5625 C 0.25 -0.671875 0.9375 0.0625 1.859375 0.0625 C 2.265625 0.0625 2.6875 -0.046875 3.03125 -0.265625 Z M 0.828125 -1.9375 C 0.984375 -2.5 1.40625 -2.734375 1.75 -2.734375 C 2.0625 -2.734375 2.515625 -2.59375 2.640625 -1.9375 Z M 0.828125 -1.9375 "/></g><g id="34afbba4969f24e14037a3b012d82d5b0vjf2rdm__glyph-2-3"><path d="M 1.9375 -1.59375 L 3.28125 -3.09375 L 2.671875 -3.09375 L 1.671875 -1.953125 L 0.671875 -3.09375 L 0.046875 -3.09375 L 1.4375 -1.59375 L 0 0 L 0.625 0 L 1.671875 -1.3125 L 2.78125 0 L 3.40625 0 Z M 1.9375 -1.59375 "/></g><g id="34afbba4969f24e14037a3b012d82d5b0vjf2rdm__glyph-3-0"><path d="M 6.390625 -4.5 C 6.390625 -4.71875 6.046875 -4.765625 5.890625 -4.765625 L 2.65625 -4.765625 C 2 -4.765625 1.59375 -4.4375 1.5 -4.25 C 1.484375 -4.21875 1.46875 -4.1875 1.46875 -4.15625 C 1.46875 -4.109375 1.5 -4.09375 1.546875 -4.09375 C 1.703125 -4.09375 1.90625 -4.21875 2.015625 -4.328125 C 2.140625 -4.34375 2.390625 -4.34375 2.5625 -4.34375 L 3.21875 -4.34375 C 3.03125 -3.375 2.875 -2.953125 2.671875 -2.359375 C 2.515625 -1.84375 1.859375 -0.390625 1.65625 -0.203125 C 1.109375 -0.203125 0.96875 -0.484375 0.875 -0.671875 C 0.84375 -0.6875 0.828125 -0.703125 0.796875 -0.703125 C 0.59375 -0.703125 0.234375 -0.453125 0.234375 -0.328125 C 0.234375 -0.28125 0.46875 0.234375 1.125 0.234375 C 1.578125 0.234375 2.078125 -0.09375 2.296875 -0.4375 C 2.5625 -0.828125 2.9375 -1.65625 3.109375 -2.109375 L 4.609375 -2.109375 L 4.609375 -2.078125 C 4.625 -2.046875 4.640625 -2.03125 4.6875 -2.03125 C 4.890625 -2.03125 5.28125 -2.25 5.28125 -2.46875 C 5.28125 -2.5 5.25 -2.53125 5.21875 -2.53125 L 3.28125 -2.53125 C 3.515625 -3.109375 3.6875 -3.71875 3.8125 -4.34375 L 5.234375 -4.34375 C 5.5 -4.34375 5.75 -4.3125 5.75 -4.1875 C 5.75 -4.15625 5.75 -4.140625 5.75 -4.125 C 5.75 -4.09375 5.765625 -4.078125 5.828125 -4.078125 C 5.921875 -4.078125 6.390625 -4.25 6.390625 -4.5 Z M 6.390625 -4.5 "/></g><g id="34afbba4969f24e14037a3b012d82d5b0vjf2rdm__glyph-3-1"><path d="M 5.1875 -1.578125 C 5.296875 -1.578125 5.46875 -1.578125 5.46875 -1.734375 C 5.46875 -1.921875 5.296875 -1.921875 5.1875 -1.921875 L 1.03125 -1.921875 C 0.921875 -1.921875 0.75 -1.921875 0.75 -1.75 C 0.75 -1.578125 0.90625 -1.578125 1.03125 -1.578125 Z M 5.1875 -1.578125 "/></g><g id="34afbba4969f24e14037a3b012d82d5b0vjf2rdm__glyph-4-0"><path d="M 2.5625 -1.921875 C 2.46875 -1.890625 2.328125 -1.78125 2.328125 -1.625 C 2.328125 -1.484375 2.421875 -1.421875 2.546875 -1.421875 C 2.671875 -1.421875 2.859375 -1.515625 2.859375 -1.765625 C 2.859375 -2.125 2.375 -2.203125 2.109375 -2.203125 C 1.265625 -2.203125 0.53125 -1.515625 0.53125 -0.84375 C 0.53125 -0.421875 0.84375 0.046875 1.59375 0.046875 C 1.6875 0.046875 2.09375 0.046875 2.421875 -0.078125 C 2.765625 -0.203125 2.96875 -0.4375 2.96875 -0.484375 C 2.96875 -0.53125 2.890625 -0.59375 2.859375 -0.59375 C 2.828125 -0.59375 2.828125 -0.59375 2.75 -0.515625 C 2.515625 -0.265625 2.109375 -0.109375 1.609375 -0.109375 C 1.1875 -0.109375 0.984375 -0.34375 0.984375 -0.6875 C 0.984375 -1.203125 1.3125 -2.03125 2.109375 -2.03125 C 2.15625 -2.03125 2.40625 -2.03125 2.5625 -1.921875 Z M 2.5625 -1.921875 "/></g><g id="34afbba4969f24e14037a3b012d82d5b0vjf2rdm__glyph-5-0"><path d="M 14.328125 -5.71875 L 14.390625 -5.96875 L 7.171875 -7.6875 L -0.03125 -5.96875 L 0.03125 -5.71875 L 7.1875 -7.09375 Z M 14.328125 -5.71875 "/></g><g id="34afbba4969f24e14037a3b012d82d5b0vjf2rdm__glyph-6-0"><path d="M 3.125 -0.96875 C 4.265625 -1.046875 5.1875 -1.65625 5.1875 -2.375 C 5.1875 -3.125 4.234375 -3.71875 3.125 -3.796875 L 3.125 -4.1875 C 3.125 -4.421875 3.125 -4.515625 3.78125 -4.515625 L 4.015625 -4.515625 L 4.015625 -4.765625 C 3.875 -4.75 3.078125 -4.734375 2.8125 -4.734375 C 2.40625 -4.734375 1.671875 -4.75 1.609375 -4.765625 L 1.609375 -4.515625 L 1.859375 -4.515625 C 2.515625 -4.515625 2.515625 -4.421875 2.515625 -4.1875 L 2.515625 -3.78125 C 1.296875 -3.6875 0.484375 -3.046875 0.484375 -2.390625 C 0.484375 -1.6875 1.328125 -1.078125 2.515625 -0.96875 L 2.515625 -0.578125 C 2.515625 -0.34375 2.515625 -0.25 1.859375 -0.25 L 1.609375 -0.25 L 1.609375 0 C 1.765625 0 2.5625 -0.03125 2.8125 -0.03125 C 3.21875 -0.03125 3.953125 0 4.015625 0 L 4.015625 -0.25 L 3.78125 -0.25 C 3.125 -0.25 3.125 -0.34375 3.125 -0.578125 Z M 2.515625 -1.171875 C 1.9375 -1.21875 1.203125 -1.484375 1.203125 -2.375 C 1.203125 -3.296875 1.953125 -3.53125 2.515625 -3.59375 Z M 3.125 -3.59375 C 3.75 -3.546875 4.46875 -3.265625 4.46875 -2.390625 C 4.46875 -1.46875 3.703125 -1.21875 3.125 -1.171875 Z M 3.125 -3.59375 "/></g><g id="34afbba4969f24e14037a3b012d82d5b0vjf2rdm__glyph-6-1"><path d="M 2.46875 -5.21875 C 1.15625 -4.296875 0.796875 -2.8125 0.796875 -1.75 C 0.796875 -0.765625 1.09375 0.765625 2.46875 1.734375 C 2.53125 1.734375 2.609375 1.734375 2.609375 1.65625 C 2.609375 1.609375 2.59375 1.59375 2.546875 1.546875 C 1.609375 0.703125 1.28125 -0.46875 1.28125 -1.734375 C 1.28125 -3.625 2 -4.546875 2.5625 -5.0625 C 2.59375 -5.09375 2.609375 -5.109375 2.609375 -5.140625 C 2.609375 -5.21875 2.53125 -5.21875 2.46875 -5.21875 Z M 2.46875 -5.21875 "/></g><g id="34afbba4969f24e14037a3b012d82d5b0vjf2rdm__glyph-6-2"><path d="M 0.625 -5.21875 C 0.578125 -5.21875 0.5 -5.21875 0.5 -5.140625 C 0.5 -5.109375 0.515625 -5.09375 0.5625 -5.03125 C 1.15625 -4.484375 1.828125 -3.546875 1.828125 -1.75 C 1.828125 -0.296875 1.375 0.8125 0.625 1.484375 C 0.5 1.609375 0.5 1.609375 0.5 1.65625 C 0.5 1.6875 0.515625 1.734375 0.578125 1.734375 C 0.671875 1.734375 1.328125 1.28125 1.796875 0.40625 C 2.09375 -0.171875 2.296875 -0.921875 2.296875 -1.734375 C 2.296875 -2.71875 2 -4.25 0.625 -5.21875 Z M 0.625 -5.21875 "/></g><g id="34afbba4969f24e14037a3b012d82d5b0vjf2rdm__glyph-6-3"><path d="M 1.53125 -2.59375 C 1.53125 -2.84375 1.328125 -3 1.125 -3 C 0.890625 -3 0.71875 -2.8125 0.71875 -2.609375 C 0.71875 -2.359375 0.921875 -2.203125 1.125 -2.203125 C 1.359375 -2.203125 1.53125 -2.390625 1.53125 -2.59375 Z M 1.53125 -0.390625 C 1.53125 -0.640625 1.328125 -0.796875 1.125 -0.796875 C 0.890625 -0.796875 0.71875 -0.609375 0.71875 -0.40625 C 0.71875 -0.15625 0.921875 0 1.125 0 C 1.359375 0 1.53125 -0.1875 1.53125 -0.390625 Z M 1.53125 -0.390625 "/></g><g id="34afbba4969f24e14037a3b012d82d5b0vjf2rdm__glyph-6-4"><path d="M 5.359375 -2.34375 C 5.453125 -2.34375 5.609375 -2.34375 5.609375 -2.515625 C 5.609375 -2.6875 5.453125 -2.6875 5.359375 -2.6875 L 0.75 -2.6875 C 0.65625 -2.6875 0.484375 -2.6875 0.484375 -2.515625 C 0.484375 -2.34375 0.640625 -2.34375 0.75 -2.34375 Z M 5.359375 -0.8125 C 5.453125 -0.8125 5.609375 -0.8125 5.609375 -0.96875 C 5.609375 -1.15625 5.453125 -1.15625 5.359375 -1.15625 L 0.75 -1.15625 C 0.640625 -1.15625 0.484375 -1.15625 0.484375 -0.96875 C 0.484375 -0.8125 0.65625 -0.8125 0.75 -0.8125 Z M 5.359375 -0.8125 "/></g><g id="34afbba4969f24e14037a3b012d82d5b0vjf2rdm__glyph-7-0"><path d="M 5.234375 -3.203125 C 5.234375 -3.40625 4.859375 -3.390625 4.71875 -3.390625 L 2.296875 -3.390625 C 2.109375 -3.390625 1.65625 -3.390625 1.375 -3.125 C 1.328125 -3.078125 1.265625 -3 1.265625 -2.921875 C 1.265625 -2.90625 1.296875 -2.875 1.3125 -2.875 C 1.453125 -2.875 1.5625 -2.9375 1.6875 -3.03125 C 1.78125 -3.0625 2.078125 -3.046875 2.171875 -3.046875 L 2.671875 -3.046875 C 2.625 -2.734375 2.484375 -2.171875 2.265625 -1.640625 C 1.984375 -0.921875 1.609375 -0.203125 1.515625 -0.15625 C 1.5 -0.15625 1.484375 -0.15625 1.46875 -0.15625 C 0.953125 -0.15625 0.890625 -0.515625 0.8125 -0.515625 C 0.59375 -0.515625 0.359375 -0.3125 0.359375 -0.234375 C 0.359375 -0.15625 0.609375 0.1875 1.09375 0.1875 C 1.375 0.1875 1.71875 0.03125 1.984375 -0.25 C 2.125 -0.40625 2.375 -0.921875 2.625 -1.46875 L 3.84375 -1.46875 C 3.84375 -1.4375 3.890625 -1.421875 3.921875 -1.421875 C 4.078125 -1.421875 4.375 -1.5625 4.375 -1.765625 C 4.375 -1.78125 4.359375 -1.8125 4.3125 -1.8125 L 2.765625 -1.8125 C 2.921875 -2.1875 3.0625 -2.671875 3.140625 -3.046875 L 4.28125 -3.046875 C 4.359375 -3.046875 4.71875 -3.046875 4.71875 -2.96875 L 4.71875 -2.953125 L 4.734375 -2.90625 C 4.75 -2.890625 4.78125 -2.890625 4.796875 -2.890625 C 4.953125 -2.890625 5.234375 -3.03125 5.234375 -3.203125 Z M 5.234375 -3.203125 "/></g><g id="34afbba4969f24e14037a3b012d82d5b0vjf2rdm__glyph-7-1"><path d="M 1.90625 -1.375 C 1.921875 -1.46875 2 -2.109375 2 -2.15625 C 2 -2.234375 1.921875 -2.3125 1.828125 -2.3125 C 1.71875 -2.3125 1.65625 -2.234375 1.65625 -2.15625 C 1.65625 -2.109375 1.734375 -1.46875 1.75 -1.375 L 0.96875 -1.828125 C 0.921875 -1.859375 0.90625 -1.875 0.859375 -1.875 C 0.78125 -1.875 0.6875 -1.796875 0.6875 -1.6875 C 0.6875 -1.609375 0.734375 -1.5625 0.796875 -1.546875 C 1.0625 -1.4375 1.34375 -1.34375 1.625 -1.234375 C 1.34375 -1.140625 0.890625 -0.96875 0.8125 -0.9375 C 0.78125 -0.921875 0.6875 -0.890625 0.6875 -0.78125 C 0.6875 -0.671875 0.78125 -0.59375 0.859375 -0.59375 C 0.921875 -0.59375 1.0625 -0.703125 1.75 -1.109375 C 1.734375 -1 1.65625 -0.375 1.65625 -0.328125 C 1.65625 -0.25 1.71875 -0.171875 1.828125 -0.171875 C 1.921875 -0.171875 2 -0.234375 2 -0.328125 C 2 -0.375 1.921875 -1.015625 1.90625 -1.109375 L 2.703125 -0.640625 C 2.734375 -0.609375 2.75 -0.59375 2.796875 -0.59375 C 2.875 -0.59375 2.96875 -0.671875 2.96875 -0.78125 C 2.96875 -0.859375 2.921875 -0.921875 2.859375 -0.9375 C 2.59375 -1.046875 2.3125 -1.140625 2.03125 -1.234375 C 2.3125 -1.34375 2.765625 -1.5 2.84375 -1.546875 C 2.875 -1.5625 2.96875 -1.578125 2.96875 -1.6875 C 2.96875 -1.796875 2.875 -1.875 2.796875 -1.875 C 2.75 -1.875 2.734375 -1.859375 2.6875 -1.828125 Z M 1.90625 -1.375 "/></g><g id="34afbba4969f24e14037a3b012d82d5b0vjf2rdm__glyph-8-0"><path d="M 4.390625 -4.875 C 4.34375 -4.9375 4.3125 -4.984375 4.265625 -5.03125 C 3.875 -4.734375 3.5 -4.5625 3.140625 -4.5625 C 2.890625 -4.5625 2.703125 -4.609375 2.328125 -4.796875 C 2.078125 -4.921875 1.8125 -5.03125 1.53125 -5.03125 C 1.046875 -5.03125 0.71875 -4.796875 0.109375 -4.359375 C 0.15625 -4.296875 0.1875 -4.25 0.234375 -4.203125 C 0.625 -4.5 1 -4.671875 1.359375 -4.671875 C 1.609375 -4.671875 1.796875 -4.625 2.171875 -4.4375 C 2.421875 -4.3125 2.6875 -4.203125 2.96875 -4.203125 C 3.453125 -4.203125 3.78125 -4.4375 4.390625 -4.875 Z M 4.390625 -4.875 "/></g><g id="34afbba4969f24e14037a3b012d82d5b0vjf2rdm__glyph-9-0"><path d="M 2.609375 -0.734375 C 3.609375 -0.796875 4.265625 -1.21875 4.265625 -1.6875 C 4.265625 -2.1875 3.59375 -2.59375 2.609375 -2.65625 L 2.609375 -2.96875 C 2.609375 -3.125 2.609375 -3.171875 3.078125 -3.171875 L 3.296875 -3.171875 L 3.296875 -3.390625 C 2.984375 -3.375 2.65625 -3.375 2.359375 -3.375 C 2.0625 -3.375 1.734375 -3.375 1.421875 -3.390625 L 1.421875 -3.171875 L 1.640625 -3.171875 C 2.109375 -3.171875 2.109375 -3.125 2.109375 -2.96875 L 2.109375 -2.65625 C 1.25 -2.609375 0.484375 -2.21875 0.484375 -1.703125 C 0.484375 -1.171875 1.265625 -0.78125 2.109375 -0.734375 L 2.109375 -0.421875 C 2.109375 -0.265625 2.109375 -0.21875 1.640625 -0.21875 L 1.421875 -0.21875 L 1.421875 0 C 1.734375 -0.015625 2.0625 -0.015625 2.359375 -0.015625 C 2.65625 -0.015625 2.984375 -0.015625 3.296875 0 L 3.296875 -0.21875 L 3.078125 -0.21875 C 2.609375 -0.21875 2.609375 -0.265625 2.609375 -0.421875 Z M 2.109375 -0.90625 C 1.546875 -0.9375 1.046875 -1.15625 1.046875 -1.6875 C 1.046875 -2.265625 1.578125 -2.453125 2.109375 -2.5 Z M 2.609375 -2.5 C 2.875 -2.484375 3.71875 -2.390625 3.71875 -1.703125 C 3.71875 -1.015625 2.921875 -0.921875 2.609375 -0.890625 Z M 2.609375 -2.5 "/></g><g id="34afbba4969f24e14037a3b012d82d5b0vjf2rdm__glyph-10-0"><path d="M 3.125 -3.46875 C 3.09375 -3.515625 3.078125 -3.546875 3.046875 -3.59375 C 2.765625 -3.375 2.5 -3.25 2.234375 -3.25 C 2.0625 -3.25 1.9375 -3.296875 1.671875 -3.421875 C 1.484375 -3.515625 1.296875 -3.59375 1.09375 -3.59375 C 0.75 -3.59375 0.515625 -3.421875 0.078125 -3.109375 C 0.109375 -3.0625 0.140625 -3.03125 0.15625 -3 C 0.4375 -3.203125 0.703125 -3.328125 0.96875 -3.328125 C 1.15625 -3.328125 1.28125 -3.296875 1.546875 -3.171875 C 1.734375 -3.078125 1.90625 -3 2.125 -3 C 2.46875 -3 2.6875 -3.15625 3.125 -3.46875 Z M 3.125 -3.46875 "/></g><g id="34afbba4969f24e14037a3b012d82d5b0vjf2rdm__glyph-11-0"><path d="M 4.5625 4.390625 C 4.671875 4.390625 4.84375 4.390625 4.84375 4.21875 C 4.84375 4.046875 4.671875 4.046875 4.5625 4.046875 L 2.59375 4.046875 L 2.59375 0.84375 C 2.59375 0.71875 2.59375 0.53125 2.421875 0.53125 C 2.25 0.53125 2.25 0.703125 2.25 0.796875 L 2.25 4.046875 L 0.265625 4.046875 C 0.15625 4.046875 0 4.046875 0 4.21875 C 0 4.390625 0.171875 4.390625 0.265625 4.390625 Z M 4.5625 4.390625 "/></g></g></defs><g fill="rgb(0%, 0%, 0%)" fill-opacity="1"><use xlink:href="#34afbba4969f24e14037a3b012d82d5b0vjf2rdm__glyph-0-0" x="6.550408" y="41.814539"/><use xlink:href="#34afbba4969f24e14037a3b012d82d5b0vjf2rdm__glyph-0-1" x="12.909208" y="41.814539"/></g><g fill="rgb(0%, 0%, 0%)" fill-opacity="1"><use xlink:href="#34afbba4969f24e14037a3b012d82d5b0vjf2rdm__glyph-1-0" x="16.447594" y="37.031282"/><use xlink:href="#34afbba4969f24e14037a3b012d82d5b0vjf2rdm__glyph-1-1" x="21.907548" y="37.031282"/></g><g fill="rgb(0%, 0%, 0%)" fill-opacity="1"><use xlink:href="#34afbba4969f24e14037a3b012d82d5b0vjf2rdm__glyph-2-0" x="24.271414" y="37.031282"/><use xlink:href="#34afbba4969f24e14037a3b012d82d5b0vjf2rdm__glyph-2-1" x="27.109029" y="37.031282"/></g><g fill="rgb(0%, 0%, 0%)" fill-opacity="1"><use xlink:href="#34afbba4969f24e14037a3b012d82d5b0vjf2rdm__glyph-1-2" x="16.447594" y="44.739638"/></g><g fill="rgb(0%, 0%, 0%)" fill-opacity="1"><use xlink:href="#34afbba4969f24e14037a3b012d82d5b0vjf2rdm__glyph-0-0" x="112.929928" y="41.814539"/><use xlink:href="#34afbba4969f24e14037a3b012d82d5b0vjf2rdm__glyph-0-1" x="119.288728" y="41.814539"/></g><g fill="rgb(0%, 0%, 0%)" fill-opacity="1"><use xlink:href="#34afbba4969f24e14037a3b012d82d5b0vjf2rdm__glyph-1-0" x="122.827114" y="37.031282"/><use xlink:href="#34afbba4969f24e14037a3b012d82d5b0vjf2rdm__glyph-1-1" x="128.287067" y="37.031282"/></g><g fill="rgb(0%, 0%, 0%)" fill-opacity="1"><use xlink:href="#34afbba4969f24e14037a3b012d82d5b0vjf2rdm__glyph-2-0" x="130.650934" y="37.031282"/><use xlink:href="#34afbba4969f24e14037a3b012d82d5b0vjf2rdm__glyph-2-1" x="133.488549" y="37.031282"/></g><g fill="rgb(0%, 0%, 0%)" fill-opacity="1"><use xlink:href="#34afbba4969f24e14037a3b012d82d5b0vjf2rdm__glyph-1-2" x="122.827114" y="44.739638"/><use xlink:href="#34afbba4969f24e14037a3b012d82d5b0vjf2rdm__glyph-1-1" x="129.023468" y="44.739638"/></g><g fill="rgb(0%, 0%, 0%)" fill-opacity="1"><use xlink:href="#34afbba4969f24e14037a3b012d82d5b0vjf2rdm__glyph-3-0" x="131.387334" y="44.739638"/></g><g fill="rgb(0%, 0%, 0%)" fill-opacity="1"><use xlink:href="#34afbba4969f24e14037a3b012d82d5b0vjf2rdm__glyph-4-0" x="137.791276" y="42.748613"/></g><g fill="rgb(0%, 0%, 0%)" fill-opacity="1"><use xlink:href="#34afbba4969f24e14037a3b012d82d5b0vjf2rdm__glyph-0-2" x="200.780819" y="41.814539"/><use xlink:href="#34afbba4969f24e14037a3b012d82d5b0vjf2rdm__glyph-0-3" x="207.139619" y="41.814539"/><use xlink:href="#34afbba4969f24e14037a3b012d82d5b0vjf2rdm__glyph-0-4" x="211.922902" y="41.814539"/></g><g fill="rgb(0%, 0%, 0%)" fill-opacity="1"><use xlink:href="#34afbba4969f24e14037a3b012d82d5b0vjf2rdm__glyph-2-2" x="215.516208" y="37.362953"/><use xlink:href="#34afbba4969f24e14037a3b012d82d5b0vjf2rdm__glyph-2-3" x="218.805975" y="37.362953"/></g><g fill="rgb(0%, 0%, 0%)" fill-opacity="1"><use xlink:href="#34afbba4969f24e14037a3b012d82d5b0vjf2rdm__glyph-1-2" x="215.516208" y="44.275099"/></g><g fill="rgb(0%, 0%, 0%)" fill-opacity="1"><use xlink:href="#34afbba4969f24e14037a3b012d82d5b0vjf2rdm__glyph-0-2" x="302.945518" y="41.814539"/><use xlink:href="#34afbba4969f24e14037a3b012d82d5b0vjf2rdm__glyph-0-3" x="309.304318" y="41.814539"/><use xlink:href="#34afbba4969f24e14037a3b012d82d5b0vjf2rdm__glyph-0-4" x="314.087601" y="41.814539"/></g><g fill="rgb(0%, 0%, 0%)" fill-opacity="1"><use xlink:href="#34afbba4969f24e14037a3b012d82d5b0vjf2rdm__glyph-2-2" x="317.680907" y="37.362953"/><use xlink:href="#34afbba4969f24e14037a3b012d82d5b0vjf2rdm__glyph-2-3" x="320.970673" y="37.362953"/></g><g fill="rgb(0%, 0%, 0%)" fill-opacity="1"><use xlink:href="#34afbba4969f24e14037a3b012d82d5b0vjf2rdm__glyph-1-2" x="317.680907" y="44.275099"/><use xlink:href="#34afbba4969f24e14037a3b012d82d5b0vjf2rdm__glyph-1-1" x="323.877261" y="44.275099"/></g><g fill="rgb(0%, 0%, 0%)" fill-opacity="1"><use xlink:href="#34afbba4969f24e14037a3b012d82d5b0vjf2rdm__glyph-3-0" x="326.241127" y="44.275099"/></g><g fill="rgb(0%, 0%, 0%)" fill-opacity="1"><use xlink:href="#34afbba4969f24e14037a3b012d82d5b0vjf2rdm__glyph-4-0" x="332.645069" y="42.284073"/></g><g fill="rgb(0%, 0%, 0%)" fill-opacity="1"><use xlink:href="#34afbba4969f24e14037a3b012d82d5b0vjf2rdm__glyph-5-0" x="7.88009" y="96.674143"/></g><g fill="rgb(0%, 0%, 0%)" fill-opacity="1"><use xlink:href="#34afbba4969f24e14037a3b012d82d5b0vjf2rdm__glyph-0-2" x="7.700268" y="99.300539"/><use xlink:href="#34afbba4969f24e14037a3b012d82d5b0vjf2rdm__glyph-0-3" x="14.059068" y="99.300539"/><use xlink:href="#34afbba4969f24e14037a3b012d82d5b0vjf2rdm__glyph-0-4" x="18.842351" y="99.300539"/></g><g fill="rgb(0%, 0%, 0%)" fill-opacity="1"><use xlink:href="#34afbba4969f24e14037a3b012d82d5b0vjf2rdm__glyph-1-2" x="22.435657" y="100.793059"/></g><g fill="rgb(0%, 0%, 0%)" fill-opacity="1"><use xlink:href="#34afbba4969f24e14037a3b012d82d5b0vjf2rdm__glyph-5-0" x="110.690148" y="96.674143"/></g><g fill="rgb(0%, 0%, 0%)" fill-opacity="1"><use xlink:href="#34afbba4969f24e14037a3b012d82d5b0vjf2rdm__glyph-0-2" x="110.510327" y="99.300539"/><use xlink:href="#34afbba4969f24e14037a3b012d82d5b0vjf2rdm__glyph-0-3" x="116.869127" y="99.300539"/><use xlink:href="#34afbba4969f24e14037a3b012d82d5b0vjf2rdm__glyph-0-4" x="121.652409" y="99.300539"/></g><g fill="rgb(0%, 0%, 0%)" fill-opacity="1"><use xlink:href="#34afbba4969f24e14037a3b012d82d5b0vjf2rdm__glyph-1-2" x="125.245716" y="100.793059"/><use xlink:href="#34afbba4969f24e14037a3b012d82d5b0vjf2rdm__glyph-1-1" x="131.44207" y="100.793059"/></g><g fill="rgb(0%, 0%, 0%)" fill-opacity="1"><use xlink:href="#34afbba4969f24e14037a3b012d82d5b0vjf2rdm__glyph-3-0" x="133.805936" y="100.793059"/></g><g fill="rgb(0%, 0%, 0%)" fill-opacity="1"><use xlink:href="#34afbba4969f24e14037a3b012d82d5b0vjf2rdm__glyph-4-0" x="140.209878" y="98.802033"/></g><g fill="rgb(0%, 0%, 0%)" fill-opacity="1"><use xlink:href="#34afbba4969f24e14037a3b012d82d5b0vjf2rdm__glyph-0-2" x="201.03257" y="99.300539"/><use xlink:href="#34afbba4969f24e14037a3b012d82d5b0vjf2rdm__glyph-0-3" x="207.39137" y="99.300539"/><use xlink:href="#34afbba4969f24e14037a3b012d82d5b0vjf2rdm__glyph-0-4" x="212.174652" y="99.300539"/></g><g fill="rgb(0%, 0%, 0%)" fill-opacity="1"><use xlink:href="#34afbba4969f24e14037a3b012d82d5b0vjf2rdm__glyph-1-2" x="215.768958" y="100.793059"/></g><g fill="rgb(0%, 0%, 0%)" fill-opacity="1"><use xlink:href="#34afbba4969f24e14037a3b012d82d5b0vjf2rdm__glyph-0-2" x="302.945518" y="99.300539"/><use xlink:href="#34afbba4969f24e14037a3b012d82d5b0vjf2rdm__glyph-0-3" x="309.304318" y="99.300539"/><use xlink:href="#34afbba4969f24e14037a3b012d82d5b0vjf2rdm__glyph-0-4" x="314.087601" y="99.300539"/></g><g fill="rgb(0%, 0%, 0%)" fill-opacity="1"><use xlink:href="#34afbba4969f24e14037a3b012d82d5b0vjf2rdm__glyph-1-2" x="317.680907" y="100.793059"/><use xlink:href="#34afbba4969f24e14037a3b012d82d5b0vjf2rdm__glyph-1-1" x="323.877261" y="100.793059"/></g><g fill="rgb(0%, 0%, 0%)" fill-opacity="1"><use xlink:href="#34afbba4969f24e14037a3b012d82d5b0vjf2rdm__glyph-3-0" x="326.241127" y="100.793059"/></g><g fill="rgb(0%, 0%, 0%)" fill-opacity="1"><use xlink:href="#34afbba4969f24e14037a3b012d82d5b0vjf2rdm__glyph-4-0" x="332.645069" y="98.802033"/></g><path fill="none" stroke="rgb(0%, 0%, 0%)" stroke-dasharray="2.78941 1.59395" stroke-linecap="butt" stroke-linejoin="miter" stroke-miterlimit="10" stroke-opacity="1" stroke-width="0.39848" d="M -137.085716 35.588361 C -115.239858 45.844615 -82.492576 45.844615 -63.688793 37.015556 " transform="matrix(0.999009, 0, 0, -0.999009, 171.711643, 67.209359)"/><path fill="none" stroke="rgb(0%, 0%, 0%)" stroke-linecap="round" stroke-linejoin="round" stroke-miterlimit="10" stroke-opacity="1" stroke-width="0.39848" d="M -2.071981 2.39075 C -1.692768 0.957496 -0.850664 0.277248 0.00136049 -0.000915008 C -0.848646 -0.279067 -1.692753 -0.956196 -2.072775 -2.39171 " transform="matrix(0.904253, 0.424579, 0.424579, -0.904253, 108.264783, 30.315001)"/><g fill="rgb(0%, 0%, 0%)" fill-opacity="1"><use xlink:href="#34afbba4969f24e14037a3b012d82d5b0vjf2rdm__glyph-6-0" x="52.474872" y="19.732434"/></g><g fill="rgb(0%, 0%, 0%)" fill-opacity="1"><use xlink:href="#34afbba4969f24e14037a3b012d82d5b0vjf2rdm__glyph-7-0" x="58.156238" y="16.728413"/></g><g fill="rgb(0%, 0%, 0%)" fill-opacity="1"><use xlink:href="#34afbba4969f24e14037a3b012d82d5b0vjf2rdm__glyph-6-1" x="64.083361" y="19.732434"/></g><g fill="rgb(0%, 0%, 0%)" fill-opacity="1"><use xlink:href="#34afbba4969f24e14037a3b012d82d5b0vjf2rdm__glyph-3-1" x="67.193382" y="19.732434"/></g><g fill="rgb(0%, 0%, 0%)" fill-opacity="1"><use xlink:href="#34afbba4969f24e14037a3b012d82d5b0vjf2rdm__glyph-6-2" x="73.41412" y="19.732434"/><use xlink:href="#34afbba4969f24e14037a3b012d82d5b0vjf2rdm__glyph-6-3" x="76.52414" y="19.732434"/><use xlink:href="#34afbba4969f24e14037a3b012d82d5b0vjf2rdm__glyph-6-4" x="78.777233" y="19.732434"/></g><g fill="rgb(0%, 0%, 0%)" fill-opacity="1"><use xlink:href="#34afbba4969f24e14037a3b012d82d5b0vjf2rdm__glyph-8-0" x="84.482135" y="18.122031"/></g><g fill="rgb(0%, 0%, 0%)" fill-opacity="1"><use xlink:href="#34afbba4969f24e14037a3b012d82d5b0vjf2rdm__glyph-1-3" x="84.887733" y="19.732434"/></g><g fill="rgb(0%, 0%, 0%)" fill-opacity="1"><use xlink:href="#34afbba4969f24e14037a3b012d82d5b0vjf2rdm__glyph-7-1" x="88.583069" y="16.728413"/></g><path fill="none" stroke="rgb(0%, 0%, 0%)" stroke-linecap="butt" stroke-linejoin="miter" stroke-miterlimit="10" stroke-opacity="1" stroke-width="0.39848" d="M -153.449582 18.645797 L -153.449582 -17.777001 " transform="matrix(0.999009, 0, 0, -0.999009, 171.711643, 67.209359)"/><path fill="none" stroke="rgb(0%, 0%, 0%)" stroke-linecap="round" stroke-linejoin="round" stroke-miterlimit="10" stroke-opacity="1" stroke-width="0.39848" d="M -2.073228 2.389403 C -1.693946 0.954388 -0.84936 0.277937 -0.000863101 0.000317914 C -0.84936 -0.277301 -1.693946 -0.957662 -2.073228 -2.392678 " transform="matrix(0, 0.999009, 0.999009, 0, 18.413745, 85.168831)"/><path fill="none" stroke="rgb(0%, 0%, 0%)" stroke-linecap="butt" stroke-linejoin="miter" stroke-miterlimit="10" stroke-opacity="1" stroke-width="0.39848" d="M -63.329062 18.974248 C -82.492576 9.977054 -115.239858 9.977054 -136.722075 20.065172 " transform="matrix(0.999009, 0, 0, -0.999009, 171.711643, 67.209359)"/><path fill="none" stroke="rgb(0%, 0%, 0%)" stroke-linecap="round" stroke-linejoin="round" stroke-miterlimit="10" stroke-opacity="1" stroke-width="0.39848" d="M -2.070519 2.390545 C -1.694919 0.955625 -0.85098 0.280544 0.00102241 0.0023419 C -0.850867 -0.280967 -1.691459 -0.956386 -2.071547 -2.391867 " transform="matrix(-0.904283, -0.424539, -0.424539, 0.904283, 34.943325, 47.080348)"/><g fill="rgb(0%, 0%, 0%)" fill-opacity="1"><use xlink:href="#34afbba4969f24e14037a3b012d82d5b0vjf2rdm__glyph-6-1" x="53.13222" y="65.034515"/></g><g fill="rgb(0%, 0%, 0%)" fill-opacity="1"><use xlink:href="#34afbba4969f24e14037a3b012d82d5b0vjf2rdm__glyph-3-1" x="56.24224" y="65.034515"/></g><g fill="rgb(0%, 0%, 0%)" fill-opacity="1"><use xlink:href="#34afbba4969f24e14037a3b012d82d5b0vjf2rdm__glyph-6-2" x="62.462978" y="65.034515"/></g><g fill="rgb(0%, 0%, 0%)" fill-opacity="1"><use xlink:href="#34afbba4969f24e14037a3b012d82d5b0vjf2rdm__glyph-9-0" x="65.573883" y="62.030494"/></g><g fill="rgb(0%, 0%, 0%)" fill-opacity="1"><use xlink:href="#34afbba4969f24e14037a3b012d82d5b0vjf2rdm__glyph-10-0" x="72.139373" y="60.772741"/></g><g fill="rgb(0%, 0%, 0%)" fill-opacity="1"><use xlink:href="#34afbba4969f24e14037a3b012d82d5b0vjf2rdm__glyph-7-0" x="70.342155" y="62.030494"/></g><g fill="rgb(0%, 0%, 0%)" fill-opacity="1"><use xlink:href="#34afbba4969f24e14037a3b012d82d5b0vjf2rdm__glyph-6-3" x="76.269278" y="65.034515"/><use xlink:href="#34afbba4969f24e14037a3b012d82d5b0vjf2rdm__glyph-6-4" x="78.522371" y="65.034515"/></g><g fill="rgb(0%, 0%, 0%)" fill-opacity="1"><use xlink:href="#34afbba4969f24e14037a3b012d82d5b0vjf2rdm__glyph-1-3" x="84.632335" y="65.034515"/></g><g fill="rgb(0%, 0%, 0%)" fill-opacity="1"><use xlink:href="#34afbba4969f24e14037a3b012d82d5b0vjf2rdm__glyph-7-1" x="87.92572" y="66.029529"/></g><path fill="none" stroke="rgb(0%, 0%, 0%)" stroke-linecap="butt" stroke-linejoin="miter" stroke-miterlimit="10" stroke-opacity="1" stroke-width="0.39848" d="M -44.282851 17.292895 L -44.282851 -17.777001 " transform="matrix(0.999009, 0, 0, -0.999009, 171.711643, 67.209359)"/><path fill="none" stroke="rgb(0%, 0%, 0%)" stroke-linecap="round" stroke-linejoin="round" stroke-miterlimit="10" stroke-opacity="1" stroke-width="0.39848" d="M -2.073248 2.391924 C -1.693966 0.956909 -0.84938 0.280457 -0.000883101 -0.00107148 C -0.84938 -0.27869 -1.693966 -0.955142 -2.073248 -2.390157 " transform="matrix(0, 0.999009, 0.999009, 0, 127.473727, 85.168851)"/><path fill="none" stroke="rgb(0%, 0%, 0%)" stroke-dasharray="2.78941 1.59395" stroke-linecap="butt" stroke-linejoin="miter" stroke-miterlimit="10" stroke-opacity="1" stroke-width="0.39848" d="M 55.542595 35.22472 C 77.971062 45.844615 110.452455 45.844615 129.162395 36.992096 " transform="matrix(0.999009, 0, 0, -0.999009, 171.711643, 67.209359)"/><path fill="none" stroke="rgb(0%, 0%, 0%)" stroke-linecap="round" stroke-linejoin="round" stroke-miterlimit="10" stroke-opacity="1" stroke-width="0.39848" d="M -2.070687 2.390276 C -1.694356 0.954783 -0.850264 0.276994 -0.000961166 -0.000352032 C -0.850156 -0.280987 -1.693958 -0.957048 -2.071459 -2.390138 " transform="matrix(0.903005, 0.427216, 0.427216, -0.903005, 300.9268, 30.339936)"/><g fill="rgb(0%, 0%, 0%)" fill-opacity="1"><use xlink:href="#34afbba4969f24e14037a3b012d82d5b0vjf2rdm__glyph-6-0" x="245.274701" y="19.780387"/></g><g fill="rgb(0%, 0%, 0%)" fill-opacity="1"><use xlink:href="#34afbba4969f24e14037a3b012d82d5b0vjf2rdm__glyph-7-0" x="250.956068" y="16.777364"/></g><g fill="rgb(0%, 0%, 0%)" fill-opacity="1"><use xlink:href="#34afbba4969f24e14037a3b012d82d5b0vjf2rdm__glyph-6-1" x="256.883191" y="19.780387"/></g><g fill="rgb(0%, 0%, 0%)" fill-opacity="1"><use xlink:href="#34afbba4969f24e14037a3b012d82d5b0vjf2rdm__glyph-3-1" x="259.993212" y="19.780387"/></g><g fill="rgb(0%, 0%, 0%)" fill-opacity="1"><use xlink:href="#34afbba4969f24e14037a3b012d82d5b0vjf2rdm__glyph-6-2" x="266.213949" y="19.780387"/><use xlink:href="#34afbba4969f24e14037a3b012d82d5b0vjf2rdm__glyph-6-3" x="269.32397" y="19.780387"/><use xlink:href="#34afbba4969f24e14037a3b012d82d5b0vjf2rdm__glyph-6-4" x="271.577063" y="19.780387"/></g><g fill="rgb(0%, 0%, 0%)" fill-opacity="1"><use xlink:href="#34afbba4969f24e14037a3b012d82d5b0vjf2rdm__glyph-8-0" x="277.281965" y="18.169984"/></g><g fill="rgb(0%, 0%, 0%)" fill-opacity="1"><use xlink:href="#34afbba4969f24e14037a3b012d82d5b0vjf2rdm__glyph-1-3" x="277.686563" y="19.780387"/></g><g fill="rgb(0%, 0%, 0%)" fill-opacity="1"><use xlink:href="#34afbba4969f24e14037a3b012d82d5b0vjf2rdm__glyph-7-1" x="281.382898" y="16.777364"/></g><path fill="none" stroke="rgb(0%, 0%, 0%)" stroke-linecap="butt" stroke-linejoin="miter" stroke-miterlimit="10" stroke-opacity="1" stroke-width="0.39848" d="M 40.078057 19.111102 L 40.078057 -20.959841 " transform="matrix(0.999009, 0, 0, -0.999009, 171.711643, 67.209359)"/><path fill="none" stroke="rgb(0%, 0%, 0%)" stroke-linecap="round" stroke-linejoin="round" stroke-miterlimit="10" stroke-opacity="1" stroke-width="0.39848" d="M -2.072948 2.390173 C -1.693666 0.955157 -0.84908 0.278706 -0.000582788 0.00108732 C -0.84908 -0.280442 -1.693666 -0.956893 -2.072948 -2.391908 " transform="matrix(0, 0.999009, 0.999009, 0, 211.748914, 88.348238)"/><path fill="none" stroke="rgb(0%, 0%, 0%)" stroke-linecap="butt" stroke-linejoin="miter" stroke-miterlimit="10" stroke-opacity="1" stroke-width="0.39848" d="M 126.878883 17.758199 C 110.452455 9.977054 77.971062 9.977054 55.902326 20.424903 " transform="matrix(0.999009, 0, 0, -0.999009, 171.711643, 67.209359)"/><path fill="none" stroke="rgb(0%, 0%, 0%)" stroke-linecap="round" stroke-linejoin="round" stroke-miterlimit="10" stroke-opacity="1" stroke-width="0.39848" d="M -2.072399 2.388682 C -1.692158 0.954945 -0.849555 0.280903 0.00150165 0.000239445 C -0.849302 -0.277084 -1.691264 -0.956905 -2.071932 -2.391781 " transform="matrix(-0.902885, -0.427446, -0.427446, 0.902885, 227.380364, 46.719176)"/><g fill="rgb(0%, 0%, 0%)" fill-opacity="1"><use xlink:href="#34afbba4969f24e14037a3b012d82d5b0vjf2rdm__glyph-6-1" x="245.601377" y="65.141409"/></g><g fill="rgb(0%, 0%, 0%)" fill-opacity="1"><use xlink:href="#34afbba4969f24e14037a3b012d82d5b0vjf2rdm__glyph-3-1" x="248.711398" y="65.141409"/></g><g fill="rgb(0%, 0%, 0%)" fill-opacity="1"><use xlink:href="#34afbba4969f24e14037a3b012d82d5b0vjf2rdm__glyph-6-2" x="254.932136" y="65.141409"/></g><g fill="rgb(0%, 0%, 0%)" fill-opacity="1"><use xlink:href="#34afbba4969f24e14037a3b012d82d5b0vjf2rdm__glyph-9-0" x="258.043041" y="62.137388"/></g><g fill="rgb(0%, 0%, 0%)" fill-opacity="1"><use xlink:href="#34afbba4969f24e14037a3b012d82d5b0vjf2rdm__glyph-10-0" x="264.608531" y="60.879635"/></g><g fill="rgb(0%, 0%, 0%)" fill-opacity="1"><use xlink:href="#34afbba4969f24e14037a3b012d82d5b0vjf2rdm__glyph-7-0" x="262.811313" y="62.137388"/></g><g fill="rgb(0%, 0%, 0%)" fill-opacity="1"><use xlink:href="#34afbba4969f24e14037a3b012d82d5b0vjf2rdm__glyph-6-3" x="268.738436" y="65.141409"/><use xlink:href="#34afbba4969f24e14037a3b012d82d5b0vjf2rdm__glyph-6-4" x="270.991529" y="65.141409"/></g><g fill="rgb(0%, 0%, 0%)" fill-opacity="1"><use xlink:href="#34afbba4969f24e14037a3b012d82d5b0vjf2rdm__glyph-1-3" x="277.101493" y="65.141409"/></g><g fill="rgb(0%, 0%, 0%)" fill-opacity="1"><use xlink:href="#34afbba4969f24e14037a3b012d82d5b0vjf2rdm__glyph-7-1" x="280.394878" y="66.136423"/></g><path fill="none" stroke="rgb(0%, 0%, 0%)" stroke-linecap="butt" stroke-linejoin="miter" stroke-miterlimit="10" stroke-opacity="1" stroke-width="0.39848" d="M 148.34546 17.754289 L 148.34546 -20.959841 " transform="matrix(0.999009, 0, 0, -0.999009, 171.711643, 67.209359)"/><path fill="none" stroke="rgb(0%, 0%, 0%)" stroke-linecap="round" stroke-linejoin="round" stroke-miterlimit="10" stroke-opacity="1" stroke-width="0.39848" d="M -2.072958 2.392095 C -1.693676 0.95708 -0.84909 0.280628 -0.000592788 -0.000900417 C -0.84909 -0.278519 -1.693676 -0.95497 -2.072958 -2.389986 " transform="matrix(0, 0.999009, 0.999009, 0, 319.911056, 88.348248)"/><path fill="none" stroke="rgb(0%, 0%, 0%)" stroke-linecap="butt" stroke-linejoin="miter" stroke-miterlimit="10" stroke-opacity="1" stroke-width="0.39848" d="M -65.749428 -29.632494 L -137.83646 -29.632494 " transform="matrix(0.999009, 0, 0, -0.999009, 171.711643, 67.209359)"/><path fill="none" stroke="rgb(0%, 0%, 0%)" stroke-linecap="round" stroke-linejoin="round" stroke-miterlimit="10" stroke-opacity="1" stroke-width="0.39848" d="M -2.072699 2.38926 C -1.693417 0.958154 -0.84883 0.277793 -0.000333707 0.000174263 C -0.84883 -0.277444 -1.693417 -0.957806 -2.072699 -2.392821 " transform="matrix(-0.999009, 0, 0, 0.999009, 33.812167, 96.812326)"/><g fill="rgb(0%, 0%, 0%)" fill-opacity="1"><use xlink:href="#34afbba4969f24e14037a3b012d82d5b0vjf2rdm__glyph-6-1" x="60.636779" y="92.729055"/></g><g fill="rgb(0%, 0%, 0%)" fill-opacity="1"><use xlink:href="#34afbba4969f24e14037a3b012d82d5b0vjf2rdm__glyph-3-1" x="63.746799" y="92.729055"/></g><g fill="rgb(0%, 0%, 0%)" fill-opacity="1"><use xlink:href="#34afbba4969f24e14037a3b012d82d5b0vjf2rdm__glyph-6-2" x="69.967537" y="92.729055"/></g><g fill="rgb(0%, 0%, 0%)" fill-opacity="1"><use xlink:href="#34afbba4969f24e14037a3b012d82d5b0vjf2rdm__glyph-10-0" x="74.873662" y="88.46728"/></g><g fill="rgb(0%, 0%, 0%)" fill-opacity="1"><use xlink:href="#34afbba4969f24e14037a3b012d82d5b0vjf2rdm__glyph-7-0" x="73.077443" y="89.725033"/></g><path fill="none" stroke="rgb(0%, 0%, 0%)" stroke-linecap="butt" stroke-linejoin="miter" stroke-miterlimit="10" stroke-opacity="1" stroke-width="0.39848" d="M 126.878883 -29.632494 L 55.691179 -29.632494 " transform="matrix(0.999009, 0, 0, -0.999009, 171.711643, 67.209359)"/><path fill="none" stroke="rgb(0%, 0%, 0%)" stroke-linecap="round" stroke-linejoin="round" stroke-miterlimit="10" stroke-opacity="1" stroke-width="0.39848" d="M -2.073468 2.38926 C -1.694186 0.958154 -0.8496 0.277793 -0.00110311 0.000174263 C -0.8496 -0.277444 -1.694186 -0.957806 -2.073468 -2.392821 " transform="matrix(-0.999009, 0, 0, 0.999009, 227.147335, 96.812326)"/><g fill="rgb(0%, 0%, 0%)" fill-opacity="1"><use xlink:href="#34afbba4969f24e14037a3b012d82d5b0vjf2rdm__glyph-6-1" x="253.520525" y="92.729055"/></g><g fill="rgb(0%, 0%, 0%)" fill-opacity="1"><use xlink:href="#34afbba4969f24e14037a3b012d82d5b0vjf2rdm__glyph-3-1" x="256.630546" y="92.729055"/></g><g fill="rgb(0%, 0%, 0%)" fill-opacity="1"><use xlink:href="#34afbba4969f24e14037a3b012d82d5b0vjf2rdm__glyph-6-2" x="262.851284" y="92.729055"/></g><g fill="rgb(0%, 0%, 0%)" fill-opacity="1"><use xlink:href="#34afbba4969f24e14037a3b012d82d5b0vjf2rdm__glyph-10-0" x="267.757409" y="88.46728"/></g><g fill="rgb(0%, 0%, 0%)" fill-opacity="1"><use xlink:href="#34afbba4969f24e14037a3b012d82d5b0vjf2rdm__glyph-7-0" x="265.96119" y="89.725033"/></g><g fill="rgb(0%, 0%, 0%)" fill-opacity="1"><use xlink:href="#34afbba4969f24e14037a3b012d82d5b0vjf2rdm__glyph-11-0" x="70.190306" y="36.858453"/></g><g fill="rgb(0%, 0%, 0%)" fill-opacity="1"><use xlink:href="#34afbba4969f24e14037a3b012d82d5b0vjf2rdm__glyph-11-0" x="262.825299" y="36.936376"/></g></svg>