<?xml version="1.0" encoding="UTF-8"?><svg xmlns="http://www.w3.org/2000/svg" xmlns:xlink="http://www.w3.org/1999/xlink" width="343.711" height="187.064" viewBox="0 0 343.711 187.064"><defs><clipPath id="0b47925183a2e11fc6427996b1bdef0duf9iomvh__clip-0"><path d="M 41 0 L 154 0 L 154 186.132812 L 41 186.132812 Z M 41 0 " clip-rule="nonzero"/></clipPath><clipPath id="0b47925183a2e11fc6427996b1bdef0duf9iomvh__clip-1"><path d="M 69 0 L 183 0 L 183 186.132812 L 69 186.132812 Z M 69 0 " clip-rule="nonzero"/></clipPath><clipPath id="0b47925183a2e11fc6427996b1bdef0duf9iomvh__clip-2"><path d="M 41 0 L 183 0 L 183 186.132812 L 41 186.132812 Z M 41 0 " clip-rule="nonzero"/></clipPath><clipPath id="0b47925183a2e11fc6427996b1bdef0duf9iomvh__clip-3"><path d="M 60 185 L 163 185 L 163 186.132812 L 60 186.132812 Z M 60 185 " clip-rule="nonzero"/></clipPath><clipPath id="0b47925183a2e11fc6427996b1bdef0duf9iomvh__clip-4"><path d="M 161 0 L 274 0 L 274 186.132812 L 161 186.132812 Z M 161 0 " clip-rule="nonzero"/></clipPath><clipPath id="0b47925183a2e11fc6427996b1bdef0duf9iomvh__clip-5"><path d="M 189 0 L 303 0 L 303 186.132812 L 189 186.132812 Z M 189 0 " clip-rule="nonzero"/></clipPath><clipPath id="0b47925183a2e11fc6427996b1bdef0duf9iomvh__clip-6"><path d="M 217 0 L 303 0 L 303 186.132812 L 217 186.132812 Z M 217 0 " clip-rule="nonzero"/></clipPath><clipPath id="0b47925183a2e11fc6427996b1bdef0duf9iomvh__clip-7"><path d="M 161 0 L 303 0 L 303 186.132812 L 161 186.132812 Z M 161 0 " clip-rule="nonzero"/></clipPath><clipPath id="0b47925183a2e11fc6427996b1bdef0duf9iomvh__clip-8"><path d="M 180 185 L 283 185 L 283 186.132812 L 180 186.132812 Z M 180 185 " clip-rule="nonzero"/></clipPath></defs><g clip-path="url(#0b47925183a2e11fc6427996b1bdef0duf9iomvh__clip-0)"><path fill="none" stroke="rgb(0%, 0%, 0%)" stroke-linecap="butt" stroke-linejoin="miter" stroke-miterlimit="10" stroke-opacity="1" stroke-width="1.99255" d="M 56.694098 -0.00115204 L 56.694098 -28.345395 C 56.694098 -36.852594 52.159804 -41.952202 46.714726 -46.376574 M 38.325301 -52.838433 C 32.880223 -57.258879 28.345929 -62.362413 28.345929 -70.865686 L 28.345929 -56.693564 C 28.345929 -65.196837 23.811636 -70.300371 18.370483 -74.720817 M 9.977132 -81.186602 C 4.53598 -85.607048 0.00168611 -90.710582 0.00168611 -99.213855 L 0.00168611 -184.254436 " transform="matrix(0.995021, 0, 0, -0.995021, 69.42801, 0.991041)"/><path fill="none" stroke="rgb(0%, 0%, 100%)" stroke-linecap="butt" stroke-linejoin="miter" stroke-miterlimit="10" stroke-opacity="1" stroke-width="1.99255" d="M 28.345929 -0.00115204 C 28.345929 -8.504425 23.811636 -13.607959 18.370483 -18.028405 M 9.977132 -24.490264 C 4.53598 -28.914636 0.00168611 -34.01817 0.00168611 -42.521443 L 0.00168611 -56.693564 C 0.00168611 -77.955672 28.345929 -77.951746 28.345929 -99.213855 L 28.345929 -113.385976 C 28.345929 -121.889249 32.880223 -126.992783 38.325301 -131.417155 M 46.714726 -137.879014 C 52.159804 -142.29946 56.694098 -147.402994 56.694098 -155.906267 L 56.694098 -141.734145 C 56.694098 -162.992328 28.345929 -162.992328 28.345929 -184.254436 " transform="matrix(0.995021, 0, 0, -0.995021, 69.42801, 0.991041)"/></g><g clip-path="url(#0b47925183a2e11fc6427996b1bdef0duf9iomvh__clip-1)"><path fill="none" stroke="rgb(0%, 100%, 0%)" stroke-linecap="butt" stroke-linejoin="miter" stroke-miterlimit="10" stroke-opacity="1" stroke-width="1.99255" d="M 85.042267 -0.00115204 L 85.042267 -85.041733 C 85.042267 -93.545006 80.504048 -98.64854 75.062895 -103.068986 M 66.669544 -109.530845 C 61.228392 -113.955217 56.694098 -119.054825 56.694098 -127.562024 L 56.694098 -113.385976 C 56.694098 -134.648084 28.345929 -134.648084 28.345929 -155.906267 L 28.345929 -141.734145 C 28.345929 -150.237418 32.880223 -155.340952 38.325301 -159.761398 M 46.714726 -166.227183 C 52.159804 -170.647629 56.694098 -175.751163 56.694098 -184.254436 " transform="matrix(0.995021, 0, 0, -0.995021, 69.42801, 0.991041)"/></g><g clip-path="url(#0b47925183a2e11fc6427996b1bdef0duf9iomvh__clip-2)"><path fill="none" stroke="rgb(100%, 0%, 0%)" stroke-linecap="butt" stroke-linejoin="miter" stroke-miterlimit="10" stroke-opacity="1" stroke-width="1.99255" d="M 0.00168611 -0.00115204 C 0.00168611 -21.259334 28.345929 -21.259334 28.345929 -42.521443 L 28.345929 -28.345395 C 28.345929 -49.607503 56.694098 -49.607503 56.694098 -70.865686 L 56.694098 -85.041733 C 56.694098 -106.299915 85.042267 -106.299915 85.042267 -127.562024 L 85.042267 -184.254436 " transform="matrix(0.995021, 0, 0, -0.995021, 69.42801, 0.991041)"/></g><path fill="none" stroke="rgb(0%, 0%, 0%)" stroke-linecap="butt" stroke-linejoin="miter" stroke-miterlimit="10" stroke-opacity="1" stroke-width="0.79701" d="M -8.505513 -0.00115204 L 93.54554 -0.00115204 " transform="matrix(0.995021, 0, 0, -0.995021, 69.42801, 0.991041)"/><g clip-path="url(#0b47925183a2e11fc6427996b1bdef0duf9iomvh__clip-3)"><path fill="none" stroke="rgb(0%, 0%, 0%)" stroke-linecap="butt" stroke-linejoin="miter" stroke-miterlimit="10" stroke-opacity="1" stroke-width="0.79701" d="M -8.505513 -185.671648 L 93.54554 -185.671648 " transform="matrix(0.995021, 0, 0, -0.995021, 69.42801, 0.991041)"/></g><g clip-path="url(#0b47925183a2e11fc6427996b1bdef0duf9iomvh__clip-4)"><path fill="none" stroke="rgb(0%, 0%, 0%)" stroke-linecap="butt" stroke-linejoin="miter" stroke-miterlimit="10" stroke-opacity="1" stroke-width="1.99255" d="M 56.695425 -0.00115204 C 56.695425 -8.504425 52.157205 -13.607959 46.716053 -18.028405 M 38.322702 -24.490264 C 32.88155 -28.914636 28.347256 -34.01817 28.347256 -42.521443 L 28.347256 -28.345395 C 28.347256 -36.852594 23.812962 -41.952202 18.367884 -46.376574 M 9.978459 -52.838433 C 4.533381 -57.258879 -0.000913019 -62.362413 -0.000913019 -70.865686 L -0.000913019 -184.254436 " transform="matrix(0.995021, 0, 0, -0.995021, 189.379815, 0.991041)"/></g><g clip-path="url(#0b47925183a2e11fc6427996b1bdef0duf9iomvh__clip-5)"><path fill="none" stroke="rgb(0%, 0%, 100%)" stroke-linecap="butt" stroke-linejoin="miter" stroke-miterlimit="10" stroke-opacity="1" stroke-width="1.99255" d="M 28.347256 -0.00115204 C 28.347256 -21.259334 56.695425 -21.259334 56.695425 -42.521443 L 56.695425 -56.693564 C 56.695425 -77.955672 85.039668 -77.951746 85.039668 -99.213855 L 85.039668 -85.041733 C 85.039668 -93.545006 80.505374 -98.64854 75.064222 -103.068986 M 66.670871 -109.530845 C 61.229719 -113.955217 56.695425 -119.054825 56.695425 -127.562024 L 56.695425 -113.385976 C 56.695425 -121.889249 52.157205 -126.992783 46.716053 -131.417155 M 38.322702 -137.879014 C 32.88155 -142.29946 28.347256 -147.402994 28.347256 -155.906267 L 28.347256 -184.254436 " transform="matrix(0.995021, 0, 0, -0.995021, 189.379815, 0.991041)"/></g><g clip-path="url(#0b47925183a2e11fc6427996b1bdef0duf9iomvh__clip-6)"><path fill="none" stroke="rgb(0%, 100%, 0%)" stroke-linecap="butt" stroke-linejoin="miter" stroke-miterlimit="10" stroke-opacity="1" stroke-width="1.99255" d="M 85.039668 -0.00115204 L 85.039668 -56.693564 C 85.039668 -65.196837 80.505374 -70.300371 75.064222 -74.720817 M 66.670871 -81.186602 C 61.229719 -85.607048 56.695425 -90.710582 56.695425 -99.213855 L 56.695425 -85.041733 C 56.695425 -106.299915 85.039668 -106.299915 85.039668 -127.562024 L 85.039668 -141.734145 C 85.039668 -150.237418 80.505374 -155.340952 75.064222 -159.761398 M 66.670871 -166.227183 C 61.229719 -170.647629 56.695425 -175.751163 56.695425 -184.254436 " transform="matrix(0.995021, 0, 0, -0.995021, 189.379815, 0.991041)"/></g><g clip-path="url(#0b47925183a2e11fc6427996b1bdef0duf9iomvh__clip-7)"><path fill="none" stroke="rgb(100%, 0%, 0%)" stroke-linecap="butt" stroke-linejoin="miter" stroke-miterlimit="10" stroke-opacity="1" stroke-width="1.99255" d="M -0.000913019 -0.00115204 L -0.000913019 -28.345395 C -0.000913019 -49.607503 28.347256 -49.607503 28.347256 -70.865686 L 28.347256 -113.385976 C 28.347256 -134.648084 56.695425 -134.648084 56.695425 -155.906267 L 56.695425 -141.734145 C 56.695425 -162.992328 85.039668 -162.992328 85.039668 -184.254436 " transform="matrix(0.995021, 0, 0, -0.995021, 189.379815, 0.991041)"/></g><path fill="none" stroke="rgb(0%, 0%, 0%)" stroke-linecap="butt" stroke-linejoin="miter" stroke-miterlimit="10" stroke-opacity="1" stroke-width="0.79701" d="M -8.504186 -0.00115204 L 93.542941 -0.00115204 " transform="matrix(0.995021, 0, 0, -0.995021, 189.379815, 0.991041)"/><g clip-path="url(#0b47925183a2e11fc6427996b1bdef0duf9iomvh__clip-8)"><path fill="none" stroke="rgb(0%, 0%, 0%)" stroke-linecap="butt" stroke-linejoin="miter" stroke-miterlimit="10" stroke-opacity="1" stroke-width="0.79701" d="M -8.504186 -185.671648 L 93.542941 -185.671648 " transform="matrix(0.995021, 0, 0, -0.995021, 189.379815, 0.991041)"/></g></svg>