<?xml version="1.0" encoding="UTF-8"?><svg xmlns="http://www.w3.org/2000/svg" xmlns:xlink="http://www.w3.org/1999/xlink" width="394.956" height="53.162" viewBox="0 0 394.956 53.162"><defs><g><g id="043742a20ce9a9827a64ddf7ec887b65vnnpbb38__glyph-0-0"><path d="M 7.484375 -5.953125 C 7.578125 -6.296875 7.59375 -6.390625 8.3125 -6.390625 C 8.5625 -6.390625 8.640625 -6.390625 8.640625 -6.59375 C 8.640625 -6.703125 8.53125 -6.703125 8.5 -6.703125 C 8.234375 -6.703125 7.53125 -6.671875 7.25 -6.671875 C 6.96875 -6.671875 6.265625 -6.703125 5.984375 -6.703125 C 5.90625 -6.703125 5.796875 -6.703125 5.796875 -6.5 C 5.796875 -6.390625 5.890625 -6.390625 6.078125 -6.390625 C 6.09375 -6.390625 6.28125 -6.390625 6.453125 -6.375 C 6.625 -6.359375 6.71875 -6.34375 6.71875 -6.21875 C 6.71875 -6.1875 6.703125 -6.15625 6.671875 -6.03125 L 6.078125 -3.640625 L 3.09375 -3.640625 L 3.671875 -5.953125 C 3.765625 -6.296875 3.78125 -6.390625 4.5 -6.390625 C 4.75 -6.390625 4.828125 -6.390625 4.828125 -6.59375 C 4.828125 -6.703125 4.71875 -6.703125 4.6875 -6.703125 C 4.421875 -6.703125 3.703125 -6.671875 3.4375 -6.671875 C 3.15625 -6.671875 2.453125 -6.703125 2.171875 -6.703125 C 2.09375 -6.703125 1.984375 -6.703125 1.984375 -6.5 C 1.984375 -6.390625 2.078125 -6.390625 2.25 -6.390625 C 2.28125 -6.390625 2.46875 -6.390625 2.625 -6.375 C 2.8125 -6.359375 2.890625 -6.34375 2.890625 -6.21875 C 2.890625 -6.1875 2.890625 -6.15625 2.859375 -6.03125 L 1.546875 -0.765625 C 1.4375 -0.375 1.421875 -0.296875 0.640625 -0.296875 C 0.46875 -0.296875 0.375 -0.296875 0.375 -0.109375 C 0.375 0 0.5 0 0.515625 0 C 0.796875 0 1.484375 -0.03125 1.765625 -0.03125 C 1.96875 -0.03125 2.1875 -0.015625 2.390625 -0.015625 C 2.609375 -0.015625 2.828125 0 3.03125 0 C 3.109375 0 3.234375 0 3.234375 -0.203125 C 3.234375 -0.296875 3.140625 -0.296875 2.953125 -0.296875 C 2.59375 -0.296875 2.3125 -0.296875 2.3125 -0.484375 C 2.3125 -0.546875 2.328125 -0.59375 2.34375 -0.640625 L 3.015625 -3.34375 L 6 -3.34375 C 5.59375 -1.703125 5.375 -0.78125 5.328125 -0.625 C 5.234375 -0.3125 5.046875 -0.296875 4.4375 -0.296875 C 4.28125 -0.296875 4.203125 -0.296875 4.203125 -0.109375 C 4.203125 0 4.3125 0 4.34375 0 C 4.609375 0 5.3125 -0.03125 5.578125 -0.03125 C 5.796875 -0.03125 6 -0.015625 6.21875 -0.015625 C 6.421875 -0.015625 6.640625 0 6.84375 0 C 6.921875 0 7.046875 0 7.046875 -0.203125 C 7.046875 -0.296875 6.953125 -0.296875 6.765625 -0.296875 C 6.40625 -0.296875 6.140625 -0.296875 6.140625 -0.484375 C 6.140625 -0.546875 6.15625 -0.59375 6.15625 -0.640625 Z M 7.484375 -5.953125 "/></g><g id="043742a20ce9a9827a64ddf7ec887b65vnnpbb38__glyph-0-1"><path d="M 4.765625 -4.03125 L 3.9375 -5.984375 C 3.90625 -6.0625 3.890625 -6.109375 3.890625 -6.109375 C 3.890625 -6.171875 4.046875 -6.359375 4.46875 -6.390625 C 4.5625 -6.40625 4.65625 -6.421875 4.65625 -6.578125 C 4.65625 -6.703125 4.546875 -6.703125 4.515625 -6.703125 C 4.109375 -6.703125 3.6875 -6.671875 3.28125 -6.671875 C 3.03125 -6.671875 2.421875 -6.703125 2.171875 -6.703125 C 2.125 -6.703125 2 -6.703125 2 -6.5 C 2 -6.390625 2.09375 -6.390625 2.234375 -6.390625 C 2.8125 -6.390625 2.875 -6.296875 2.96875 -6.078125 L 4.125 -3.34375 L 2.046875 -1.125 L 1.921875 -1.015625 C 1.4375 -0.484375 0.984375 -0.328125 0.484375 -0.296875 C 0.359375 -0.296875 0.265625 -0.296875 0.265625 -0.109375 C 0.265625 -0.09375 0.265625 0 0.390625 0 C 0.6875 0 1.015625 -0.03125 1.3125 -0.03125 C 1.671875 -0.03125 2.0625 0 2.40625 0 C 2.46875 0 2.59375 0 2.59375 -0.203125 C 2.59375 -0.296875 2.5 -0.296875 2.46875 -0.296875 C 2.390625 -0.3125 2.078125 -0.328125 2.078125 -0.609375 C 2.078125 -0.765625 2.234375 -0.921875 2.34375 -1.046875 L 3.34375 -2.109375 L 4.234375 -3.078125 L 5.21875 -0.71875 C 5.265625 -0.625 5.265625 -0.609375 5.265625 -0.59375 C 5.265625 -0.515625 5.078125 -0.34375 4.703125 -0.296875 C 4.59375 -0.296875 4.5 -0.28125 4.5 -0.125 C 4.5 0 4.609375 0 4.65625 0 C 4.921875 0 5.609375 -0.03125 5.890625 -0.03125 C 6.140625 -0.03125 6.734375 0 6.984375 0 C 7.046875 0 7.15625 0 7.15625 -0.1875 C 7.15625 -0.296875 7.0625 -0.296875 6.984375 -0.296875 C 6.328125 -0.3125 6.3125 -0.34375 6.140625 -0.734375 C 5.765625 -1.65625 5.109375 -3.171875 4.875 -3.765625 C 5.546875 -4.453125 6.578125 -5.625 6.890625 -5.890625 C 7.171875 -6.140625 7.546875 -6.375 8.140625 -6.390625 C 8.265625 -6.40625 8.34375 -6.40625 8.34375 -6.59375 C 8.34375 -6.609375 8.34375 -6.703125 8.21875 -6.703125 C 7.921875 -6.703125 7.609375 -6.671875 7.296875 -6.671875 C 6.9375 -6.671875 6.5625 -6.703125 6.21875 -6.703125 C 6.15625 -6.703125 6.03125 -6.703125 6.03125 -6.5 C 6.03125 -6.4375 6.078125 -6.40625 6.140625 -6.390625 C 6.234375 -6.390625 6.53125 -6.375 6.53125 -6.09375 C 6.53125 -5.953125 6.421875 -5.828125 6.34375 -5.734375 Z M 4.765625 -4.03125 "/></g><g id="043742a20ce9a9827a64ddf7ec887b65vnnpbb38__glyph-0-2"><path d="M 1.984375 -0.015625 C 1.984375 -0.65625 1.75 -1.046875 1.359375 -1.046875 C 1.046875 -1.046875 0.84375 -0.796875 0.84375 -0.515625 C 0.84375 -0.25 1.046875 0 1.359375 0 C 1.484375 0 1.609375 -0.046875 1.703125 -0.125 C 1.734375 -0.140625 1.75 -0.15625 1.75 -0.15625 C 1.765625 -0.15625 1.78125 -0.140625 1.78125 -0.015625 C 1.78125 0.71875 1.4375 1.3125 1.109375 1.625 C 1 1.734375 1 1.75 1 1.78125 C 1 1.859375 1.046875 1.890625 1.09375 1.890625 C 1.203125 1.890625 1.984375 1.140625 1.984375 -0.015625 Z M 1.984375 -0.015625 "/></g><g id="043742a20ce9a9827a64ddf7ec887b65vnnpbb38__glyph-0-3"><path d="M 1.75 -1.125 C 1.359375 -0.46875 0.984375 -0.328125 0.546875 -0.296875 C 0.4375 -0.296875 0.34375 -0.296875 0.34375 -0.109375 C 0.34375 -0.046875 0.390625 0 0.46875 0 C 0.734375 0 1.046875 -0.03125 1.3125 -0.03125 C 1.640625 -0.03125 1.984375 0 2.296875 0 C 2.359375 0 2.484375 0 2.484375 -0.1875 C 2.484375 -0.296875 2.390625 -0.296875 2.328125 -0.296875 C 2.09375 -0.328125 1.859375 -0.40625 1.859375 -0.640625 C 1.859375 -0.765625 1.921875 -0.875 2 -1.015625 L 2.75 -2.265625 L 5.203125 -2.265625 C 5.234375 -2.0625 5.375 -0.71875 5.375 -0.625 C 5.375 -0.328125 4.859375 -0.296875 4.65625 -0.296875 C 4.53125 -0.296875 4.421875 -0.296875 4.421875 -0.109375 C 4.421875 0 4.546875 0 4.5625 0 C 4.96875 0 5.390625 -0.03125 5.796875 -0.03125 C 6.03125 -0.03125 6.65625 0 6.890625 0 C 6.953125 0 7.078125 0 7.078125 -0.203125 C 7.078125 -0.296875 6.984375 -0.296875 6.84375 -0.296875 C 6.234375 -0.296875 6.234375 -0.375 6.21875 -0.65625 L 5.609375 -6.796875 C 5.59375 -6.984375 5.59375 -7.03125 5.421875 -7.03125 C 5.265625 -7.03125 5.234375 -6.953125 5.171875 -6.859375 Z M 2.9375 -2.578125 L 4.859375 -5.8125 L 5.1875 -2.578125 Z M 2.9375 -2.578125 "/></g><g id="043742a20ce9a9827a64ddf7ec887b65vnnpbb38__glyph-0-4"><path d="M 6.15625 -5.578125 C 6.640625 -6.34375 7.0625 -6.375 7.421875 -6.390625 C 7.53125 -6.40625 7.546875 -6.578125 7.546875 -6.578125 C 7.546875 -6.65625 7.5 -6.703125 7.421875 -6.703125 C 7.15625 -6.703125 6.875 -6.671875 6.609375 -6.671875 C 6.296875 -6.671875 5.953125 -6.703125 5.640625 -6.703125 C 5.578125 -6.703125 5.453125 -6.703125 5.453125 -6.515625 C 5.453125 -6.40625 5.546875 -6.390625 5.609375 -6.390625 C 5.875 -6.375 6.0625 -6.28125 6.0625 -6.078125 C 6.0625 -5.921875 5.921875 -5.703125 5.921875 -5.703125 L 2.90625 -0.90625 L 2.234375 -6.109375 C 2.234375 -6.265625 2.46875 -6.390625 2.921875 -6.390625 C 3.046875 -6.390625 3.15625 -6.390625 3.15625 -6.59375 C 3.15625 -6.6875 3.078125 -6.703125 3.015625 -6.703125 C 2.625 -6.703125 2.203125 -6.671875 1.8125 -6.671875 C 1.625 -6.671875 1.4375 -6.6875 1.265625 -6.6875 C 1.09375 -6.6875 0.90625 -6.703125 0.734375 -6.703125 C 0.671875 -6.703125 0.546875 -6.703125 0.546875 -6.515625 C 0.546875 -6.390625 0.640625 -6.390625 0.796875 -6.390625 C 1.34375 -6.390625 1.359375 -6.3125 1.390625 -6.0625 L 2.15625 -0.015625 C 2.1875 0.1875 2.234375 0.21875 2.359375 0.21875 C 2.515625 0.21875 2.546875 0.171875 2.625 0.046875 Z M 6.15625 -5.578125 "/></g><g id="043742a20ce9a9827a64ddf7ec887b65vnnpbb38__glyph-0-5"><path d="M 4.3125 -6.984375 C 4.359375 -7.109375 4.359375 -7.15625 4.359375 -7.15625 C 4.359375 -7.265625 4.265625 -7.359375 4.15625 -7.359375 C 4.09375 -7.359375 4.015625 -7.328125 4 -7.265625 L 0.59375 2.078125 C 0.546875 2.203125 0.546875 2.25 0.546875 2.25 C 0.546875 2.359375 0.625 2.453125 0.734375 2.453125 C 0.859375 2.453125 0.890625 2.390625 0.953125 2.21875 Z M 4.3125 -6.984375 "/></g><g id="043742a20ce9a9827a64ddf7ec887b65vnnpbb38__glyph-1-0"><path d="M 0.84375 -0.4375 C 0.8125 -0.34375 0.765625 -0.171875 0.765625 -0.15625 C 0.765625 0 0.890625 0.0625 1 0.0625 C 1.125 0.0625 1.234375 -0.015625 1.265625 -0.078125 C 1.296875 -0.140625 1.359375 -0.359375 1.390625 -0.5 C 1.421875 -0.640625 1.5 -0.953125 1.546875 -1.125 C 1.578125 -1.28125 1.625 -1.421875 1.65625 -1.578125 C 1.734375 -1.859375 1.75 -1.921875 1.953125 -2.203125 C 2.140625 -2.46875 2.46875 -2.828125 2.984375 -2.828125 C 3.375 -2.828125 3.375 -2.484375 3.375 -2.359375 C 3.375 -1.9375 3.09375 -1.1875 2.984375 -0.890625 C 2.90625 -0.703125 2.875 -0.640625 2.875 -0.515625 C 2.875 -0.15625 3.171875 0.0625 3.53125 0.0625 C 4.21875 0.0625 4.515625 -0.875 4.515625 -0.984375 C 4.515625 -1.0625 4.421875 -1.0625 4.40625 -1.0625 C 4.3125 -1.0625 4.296875 -1.03125 4.265625 -0.953125 C 4.109375 -0.40625 3.828125 -0.125 3.546875 -0.125 C 3.40625 -0.125 3.375 -0.21875 3.375 -0.359375 C 3.375 -0.515625 3.40625 -0.609375 3.53125 -0.921875 C 3.609375 -1.125 3.890625 -1.859375 3.890625 -2.25 C 3.890625 -2.90625 3.375 -3.03125 3 -3.03125 C 2.4375 -3.03125 2.046875 -2.671875 1.84375 -2.40625 C 1.796875 -2.875 1.390625 -3.03125 1.109375 -3.03125 C 0.8125 -3.03125 0.65625 -2.8125 0.5625 -2.65625 C 0.421875 -2.40625 0.328125 -2.015625 0.328125 -1.96875 C 0.328125 -1.890625 0.421875 -1.890625 0.4375 -1.890625 C 0.53125 -1.890625 0.546875 -1.90625 0.59375 -2.09375 C 0.6875 -2.5 0.828125 -2.828125 1.09375 -2.828125 C 1.265625 -2.828125 1.3125 -2.6875 1.3125 -2.5 C 1.3125 -2.359375 1.25 -2.109375 1.203125 -1.921875 C 1.15625 -1.75 1.09375 -1.46875 1.0625 -1.3125 Z M 0.84375 -0.4375 "/></g><g id="043742a20ce9a9827a64ddf7ec887b65vnnpbb38__glyph-1-1"><path d="M 3.484375 -2.828125 C 3.5 -2.859375 3.5 -2.890625 3.5 -2.921875 C 3.5 -2.96875 3.484375 -3.03125 3.421875 -3.03125 C 3.34375 -3.03125 3.0625 -2.796875 2.921875 -2.578125 C 2.859375 -2.703125 2.625 -3.03125 2.1875 -3.03125 C 1.3125 -3.03125 0.421875 -2.0625 0.421875 -1.0625 C 0.421875 -0.40625 0.859375 0.0625 1.453125 0.0625 C 1.84375 0.0625 2.171875 -0.171875 2.3125 -0.3125 C 2.3125 -0.28125 2.09375 0.578125 2.078125 0.6875 C 1.96875 1.0625 1.96875 1.078125 1.546875 1.078125 C 1.46875 1.078125 1.359375 1.078125 1.359375 1.234375 C 1.359375 1.28125 1.40625 1.328125 1.46875 1.328125 C 1.6875 1.328125 1.953125 1.296875 2.1875 1.296875 C 2.421875 1.296875 2.703125 1.328125 2.921875 1.328125 C 2.984375 1.328125 3.046875 1.3125 3.046875 1.1875 C 3.046875 1.078125 2.953125 1.078125 2.875 1.078125 C 2.71875 1.078125 2.53125 1.078125 2.53125 1 C 2.53125 0.984375 2.53125 0.96875 2.578125 0.84375 Z M 2.453125 -0.859375 C 2.421875 -0.75 2.421875 -0.734375 2.328125 -0.625 C 2.0625 -0.3125 1.75 -0.125 1.46875 -0.125 C 1.21875 -0.125 0.96875 -0.296875 0.96875 -0.78125 C 0.96875 -1.15625 1.171875 -1.90625 1.328125 -2.1875 C 1.640625 -2.734375 2 -2.828125 2.1875 -2.828125 C 2.671875 -2.828125 2.796875 -2.3125 2.796875 -2.234375 C 2.796875 -2.203125 2.78125 -2.15625 2.78125 -2.140625 Z M 2.453125 -0.859375 "/></g><g id="043742a20ce9a9827a64ddf7ec887b65vnnpbb38__glyph-2-0"><path d="M 3.25 2.359375 C 3.25 2.328125 3.25 2.3125 3.078125 2.140625 C 1.859375 0.90625 1.546875 -0.953125 1.546875 -2.453125 C 1.546875 -4.15625 1.90625 -5.875 3.125 -7.09375 C 3.25 -7.21875 3.25 -7.234375 3.25 -7.265625 C 3.25 -7.328125 3.203125 -7.359375 3.15625 -7.359375 C 3.046875 -7.359375 2.171875 -6.6875 1.59375 -5.453125 C 1.09375 -4.359375 0.96875 -3.28125 0.96875 -2.453125 C 0.96875 -1.6875 1.078125 -0.5 1.625 0.609375 C 2.203125 1.8125 3.046875 2.453125 3.15625 2.453125 C 3.203125 2.453125 3.25 2.421875 3.25 2.359375 Z M 3.25 2.359375 "/></g><g id="043742a20ce9a9827a64ddf7ec887b65vnnpbb38__glyph-2-1"><path d="M 2.828125 -2.453125 C 2.828125 -3.21875 2.734375 -4.40625 2.1875 -5.515625 C 1.59375 -6.71875 0.75 -7.359375 0.65625 -7.359375 C 0.59375 -7.359375 0.5625 -7.3125 0.5625 -7.265625 C 0.5625 -7.234375 0.5625 -7.21875 0.75 -7.03125 C 1.703125 -6.0625 2.265625 -4.5 2.265625 -2.453125 C 2.265625 -0.78125 1.90625 0.953125 0.6875 2.1875 C 0.5625 2.3125 0.5625 2.328125 0.5625 2.359375 C 0.5625 2.40625 0.59375 2.453125 0.65625 2.453125 C 0.75 2.453125 1.640625 1.78125 2.21875 0.546875 C 2.71875 -0.546875 2.828125 -1.625 2.828125 -2.453125 Z M 2.828125 -2.453125 "/></g><g id="043742a20ce9a9827a64ddf7ec887b65vnnpbb38__glyph-3-0"><path d="M 6.46875 -2.25 C 6.640625 -2.25 6.8125 -2.25 6.8125 -2.453125 C 6.8125 -2.65625 6.640625 -2.65625 6.46875 -2.65625 L 1.15625 -2.65625 C 0.984375 -2.65625 0.8125 -2.65625 0.8125 -2.453125 C 0.8125 -2.25 0.984375 -2.25 1.15625 -2.25 Z M 6.46875 -2.25 "/></g><g id="043742a20ce9a9827a64ddf7ec887b65vnnpbb38__glyph-4-0"><path d="M 5.59375 -2.359375 C 5.59375 -2.625 5.5 -2.625 5.46875 -2.625 C 5.375 -2.625 5.359375 -2.4375 5.359375 -2.34375 C 5.328125 -1.84375 4.953125 -1.265625 4.328125 -1.265625 C 3.828125 -1.265625 3.484375 -1.59375 3.109375 -1.9375 C 2.75 -2.265625 2.328125 -2.640625 1.796875 -2.640625 C 1.015625 -2.640625 0.53125 -1.828125 0.53125 -1.0625 C 0.53125 -0.8125 0.625 -0.796875 0.640625 -0.796875 C 0.75 -0.796875 0.75 -0.984375 0.765625 -1.078125 C 0.78125 -1.578125 1.15625 -2.15625 1.796875 -2.15625 C 2.28125 -2.15625 2.640625 -1.84375 3.015625 -1.5 C 3.375 -1.171875 3.78125 -0.796875 4.328125 -0.796875 C 5.109375 -0.796875 5.59375 -1.59375 5.59375 -2.359375 Z M 5.59375 -2.359375 "/></g><g id="043742a20ce9a9827a64ddf7ec887b65vnnpbb38__glyph-5-0"><path d="M 5.265625 -2.3125 C 5.375 -2.3125 5.53125 -2.3125 5.53125 -2.46875 C 5.53125 -2.640625 5.359375 -2.640625 5.28125 -2.640625 L 0.734375 -2.640625 C 0.640625 -2.640625 0.484375 -2.640625 0.484375 -2.46875 C 0.484375 -2.3125 0.640625 -2.3125 0.734375 -2.3125 Z M 5.28125 -0.796875 C 5.359375 -0.796875 5.53125 -0.796875 5.53125 -0.953125 C 5.53125 -1.125 5.375 -1.125 5.265625 -1.125 L 0.734375 -1.125 C 0.640625 -1.125 0.484375 -1.125 0.484375 -0.953125 C 0.484375 -0.796875 0.640625 -0.796875 0.734375 -0.796875 Z M 5.28125 -0.796875 "/></g><g id="043742a20ce9a9827a64ddf7ec887b65vnnpbb38__glyph-6-0"><path d="M 1.890625 -1.359375 C 1.90625 -1.453125 1.984375 -2.078125 1.984375 -2.125 C 1.984375 -2.21875 1.90625 -2.28125 1.8125 -2.28125 C 1.703125 -2.28125 1.640625 -2.203125 1.640625 -2.125 C 1.640625 -2.078125 1.703125 -1.453125 1.71875 -1.359375 L 0.96875 -1.8125 C 0.90625 -1.84375 0.890625 -1.859375 0.84375 -1.859375 C 0.765625 -1.859375 0.6875 -1.78125 0.6875 -1.671875 C 0.6875 -1.59375 0.734375 -1.546875 0.78125 -1.53125 C 1.0625 -1.421875 1.328125 -1.3125 1.609375 -1.21875 C 1.328125 -1.125 0.890625 -0.96875 0.796875 -0.921875 C 0.765625 -0.90625 0.6875 -0.890625 0.6875 -0.78125 C 0.6875 -0.671875 0.765625 -0.59375 0.84375 -0.59375 C 0.90625 -0.59375 1.0625 -0.6875 1.71875 -1.09375 C 1.703125 -0.984375 1.640625 -0.375 1.640625 -0.3125 C 1.640625 -0.25 1.703125 -0.171875 1.8125 -0.171875 C 1.90625 -0.171875 1.984375 -0.234375 1.984375 -0.328125 C 1.984375 -0.375 1.90625 -1 1.890625 -1.09375 L 2.65625 -0.625 C 2.703125 -0.609375 2.71875 -0.59375 2.765625 -0.59375 C 2.84375 -0.59375 2.921875 -0.671875 2.921875 -0.78125 C 2.921875 -0.859375 2.875 -0.90625 2.828125 -0.921875 C 2.5625 -1.03125 2.28125 -1.125 2 -1.21875 C 2.28125 -1.328125 2.734375 -1.484375 2.8125 -1.515625 C 2.84375 -1.53125 2.921875 -1.5625 2.921875 -1.671875 C 2.921875 -1.78125 2.84375 -1.859375 2.765625 -1.859375 C 2.71875 -1.859375 2.703125 -1.84375 2.65625 -1.8125 Z M 1.890625 -1.359375 "/></g></g></defs><g fill="rgb(0%, 0%, 0%)" fill-opacity="1"><use xlink:href="#043742a20ce9a9827a64ddf7ec887b65vnnpbb38__glyph-0-0" x="50.020395" y="10.945465"/></g><g fill="rgb(0%, 0%, 0%)" fill-opacity="1"><use xlink:href="#043742a20ce9a9827a64ddf7ec887b65vnnpbb38__glyph-1-0" x="58.17387" y="12.41628"/></g><g fill="rgb(0%, 0%, 0%)" fill-opacity="1"><use xlink:href="#043742a20ce9a9827a64ddf7ec887b65vnnpbb38__glyph-2-0" x="63.512713" y="10.945465"/></g><g fill="rgb(0%, 0%, 0%)" fill-opacity="1"><use xlink:href="#043742a20ce9a9827a64ddf7ec887b65vnnpbb38__glyph-0-1" x="67.327043" y="10.945465"/></g><g fill="rgb(0%, 0%, 0%)" fill-opacity="1"><use xlink:href="#043742a20ce9a9827a64ddf7ec887b65vnnpbb38__glyph-0-2" x="75.678551" y="10.945465"/></g><g fill="rgb(0%, 0%, 0%)" fill-opacity="1"><use xlink:href="#043742a20ce9a9827a64ddf7ec887b65vnnpbb38__glyph-0-3" x="80.031339" y="10.945465"/></g><g fill="rgb(0%, 0%, 0%)" fill-opacity="1"><use xlink:href="#043742a20ce9a9827a64ddf7ec887b65vnnpbb38__glyph-2-1" x="87.387335" y="10.945465"/></g><g fill="rgb(0%, 0%, 0%)" fill-opacity="1"><use xlink:href="#043742a20ce9a9827a64ddf7ec887b65vnnpbb38__glyph-0-0" x="145.804536" y="10.945465"/></g><g fill="rgb(0%, 0%, 0%)" fill-opacity="1"><use xlink:href="#043742a20ce9a9827a64ddf7ec887b65vnnpbb38__glyph-1-0" x="153.957027" y="12.41628"/></g><g fill="rgb(0%, 0%, 0%)" fill-opacity="1"><use xlink:href="#043742a20ce9a9827a64ddf7ec887b65vnnpbb38__glyph-2-0" x="159.29587" y="10.945465"/></g><g fill="rgb(0%, 0%, 0%)" fill-opacity="1"><use xlink:href="#043742a20ce9a9827a64ddf7ec887b65vnnpbb38__glyph-0-1" x="163.1102" y="10.945465"/></g><g fill="rgb(0%, 0%, 0%)" fill-opacity="1"><use xlink:href="#043742a20ce9a9827a64ddf7ec887b65vnnpbb38__glyph-0-2" x="171.461707" y="10.945465"/></g><g fill="rgb(0%, 0%, 0%)" fill-opacity="1"><use xlink:href="#043742a20ce9a9827a64ddf7ec887b65vnnpbb38__glyph-0-4" x="175.824304" y="10.945465"/></g><g fill="rgb(0%, 0%, 0%)" fill-opacity="1"><use xlink:href="#043742a20ce9a9827a64ddf7ec887b65vnnpbb38__glyph-2-1" x="183.722682" y="10.945465"/></g><g fill="rgb(0%, 0%, 0%)" fill-opacity="1"><use xlink:href="#043742a20ce9a9827a64ddf7ec887b65vnnpbb38__glyph-0-0" x="253.031306" y="10.945465"/></g><g fill="rgb(0%, 0%, 0%)" fill-opacity="1"><use xlink:href="#043742a20ce9a9827a64ddf7ec887b65vnnpbb38__glyph-1-0" x="261.183797" y="12.41628"/></g><g fill="rgb(0%, 0%, 0%)" fill-opacity="1"><use xlink:href="#043742a20ce9a9827a64ddf7ec887b65vnnpbb38__glyph-2-0" x="266.52264" y="10.945465"/></g><g fill="rgb(0%, 0%, 0%)" fill-opacity="1"><use xlink:href="#043742a20ce9a9827a64ddf7ec887b65vnnpbb38__glyph-0-1" x="270.336969" y="10.945465"/></g><g fill="rgb(0%, 0%, 0%)" fill-opacity="1"><use xlink:href="#043742a20ce9a9827a64ddf7ec887b65vnnpbb38__glyph-3-0" x="281.4151" y="10.945465"/></g><g fill="rgb(0%, 0%, 0%)" fill-opacity="1"><use xlink:href="#043742a20ce9a9827a64ddf7ec887b65vnnpbb38__glyph-0-3" x="291.221133" y="10.945465"/><use xlink:href="#043742a20ce9a9827a64ddf7ec887b65vnnpbb38__glyph-0-2" x="298.57713" y="10.945465"/></g><g fill="rgb(0%, 0%, 0%)" fill-opacity="1"><use xlink:href="#043742a20ce9a9827a64ddf7ec887b65vnnpbb38__glyph-0-4" x="302.939726" y="10.945465"/></g><g fill="rgb(0%, 0%, 0%)" fill-opacity="1"><use xlink:href="#043742a20ce9a9827a64ddf7ec887b65vnnpbb38__glyph-3-0" x="313.015479" y="10.945465"/></g><g fill="rgb(0%, 0%, 0%)" fill-opacity="1"><use xlink:href="#043742a20ce9a9827a64ddf7ec887b65vnnpbb38__glyph-0-3" x="322.821513" y="10.945465"/></g><g fill="rgb(0%, 0%, 0%)" fill-opacity="1"><use xlink:href="#043742a20ce9a9827a64ddf7ec887b65vnnpbb38__glyph-2-1" x="330.177509" y="10.945465"/></g><g fill="rgb(0%, 0%, 0%)" fill-opacity="1"><use xlink:href="#043742a20ce9a9827a64ddf7ec887b65vnnpbb38__glyph-0-0" x="38.441908" y="45.586415"/></g><g fill="rgb(0%, 0%, 0%)" fill-opacity="1"><use xlink:href="#043742a20ce9a9827a64ddf7ec887b65vnnpbb38__glyph-1-0" x="46.594399" y="47.05723"/></g><g fill="rgb(0%, 0%, 0%)" fill-opacity="1"><use xlink:href="#043742a20ce9a9827a64ddf7ec887b65vnnpbb38__glyph-2-0" x="51.933242" y="45.586415"/></g><g fill="rgb(0%, 0%, 0%)" fill-opacity="1"><use xlink:href="#043742a20ce9a9827a64ddf7ec887b65vnnpbb38__glyph-0-1" x="55.747572" y="45.586415"/></g><g fill="rgb(0%, 0%, 0%)" fill-opacity="1"><use xlink:href="#043742a20ce9a9827a64ddf7ec887b65vnnpbb38__glyph-0-5" x="63.824456" y="45.586415"/></g><g fill="rgb(0%, 0%, 0%)" fill-opacity="1"><use xlink:href="#043742a20ce9a9827a64ddf7ec887b65vnnpbb38__glyph-0-3" x="68.189014" y="45.586415"/><use xlink:href="#043742a20ce9a9827a64ddf7ec887b65vnnpbb38__glyph-0-2" x="75.54501" y="45.586415"/></g><g fill="rgb(0%, 0%, 0%)" fill-opacity="1"><use xlink:href="#043742a20ce9a9827a64ddf7ec887b65vnnpbb38__glyph-0-3" x="79.897798" y="45.586415"/><use xlink:href="#043742a20ce9a9827a64ddf7ec887b65vnnpbb38__glyph-0-5" x="87.253795" y="45.586415"/></g><g fill="rgb(0%, 0%, 0%)" fill-opacity="1"><use xlink:href="#043742a20ce9a9827a64ddf7ec887b65vnnpbb38__glyph-0-3" x="91.618352" y="45.586415"/></g><g fill="rgb(0%, 0%, 0%)" fill-opacity="1"><use xlink:href="#043742a20ce9a9827a64ddf7ec887b65vnnpbb38__glyph-2-1" x="98.974349" y="45.586415"/></g><g fill="rgb(0%, 0%, 0%)" fill-opacity="1"><use xlink:href="#043742a20ce9a9827a64ddf7ec887b65vnnpbb38__glyph-0-0" x="134.770468" y="45.586415"/></g><g fill="rgb(0%, 0%, 0%)" fill-opacity="1"><use xlink:href="#043742a20ce9a9827a64ddf7ec887b65vnnpbb38__glyph-1-0" x="142.922959" y="47.05723"/></g><g fill="rgb(0%, 0%, 0%)" fill-opacity="1"><use xlink:href="#043742a20ce9a9827a64ddf7ec887b65vnnpbb38__glyph-2-0" x="148.261802" y="45.586415"/></g><g fill="rgb(0%, 0%, 0%)" fill-opacity="1"><use xlink:href="#043742a20ce9a9827a64ddf7ec887b65vnnpbb38__glyph-0-1" x="152.076131" y="45.586415"/></g><g fill="rgb(0%, 0%, 0%)" fill-opacity="1"><use xlink:href="#043742a20ce9a9827a64ddf7ec887b65vnnpbb38__glyph-0-5" x="160.153015" y="45.586415"/></g><g fill="rgb(0%, 0%, 0%)" fill-opacity="1"><use xlink:href="#043742a20ce9a9827a64ddf7ec887b65vnnpbb38__glyph-0-3" x="164.517573" y="45.586415"/><use xlink:href="#043742a20ce9a9827a64ddf7ec887b65vnnpbb38__glyph-0-2" x="171.873569" y="45.586415"/></g><g fill="rgb(0%, 0%, 0%)" fill-opacity="1"><use xlink:href="#043742a20ce9a9827a64ddf7ec887b65vnnpbb38__glyph-0-4" x="176.226358" y="45.586415"/></g><g fill="rgb(0%, 0%, 0%)" fill-opacity="1"><use xlink:href="#043742a20ce9a9827a64ddf7ec887b65vnnpbb38__glyph-0-5" x="183.036049" y="45.586415"/></g><g fill="rgb(0%, 0%, 0%)" fill-opacity="1"><use xlink:href="#043742a20ce9a9827a64ddf7ec887b65vnnpbb38__glyph-0-3" x="187.400607" y="45.586415"/></g><g fill="rgb(0%, 0%, 0%)" fill-opacity="1"><use xlink:href="#043742a20ce9a9827a64ddf7ec887b65vnnpbb38__glyph-2-1" x="194.756603" y="45.586415"/></g><g fill="rgb(0%, 0%, 0%)" fill-opacity="1"><use xlink:href="#043742a20ce9a9827a64ddf7ec887b65vnnpbb38__glyph-0-0" x="230.554609" y="45.586415"/></g><g fill="rgb(0%, 0%, 0%)" fill-opacity="1"><use xlink:href="#043742a20ce9a9827a64ddf7ec887b65vnnpbb38__glyph-1-0" x="238.7071" y="47.05723"/></g><g fill="rgb(0%, 0%, 0%)" fill-opacity="1"><use xlink:href="#043742a20ce9a9827a64ddf7ec887b65vnnpbb38__glyph-2-0" x="244.045943" y="45.586415"/></g><g fill="rgb(0%, 0%, 0%)" fill-opacity="1"><use xlink:href="#043742a20ce9a9827a64ddf7ec887b65vnnpbb38__glyph-0-1" x="247.860272" y="45.586415"/></g><g fill="rgb(0%, 0%, 0%)" fill-opacity="1"><use xlink:href="#043742a20ce9a9827a64ddf7ec887b65vnnpbb38__glyph-0-5" x="255.937156" y="45.586415"/></g><g fill="rgb(0%, 0%, 0%)" fill-opacity="1"><use xlink:href="#043742a20ce9a9827a64ddf7ec887b65vnnpbb38__glyph-0-3" x="260.301714" y="45.586415"/></g><g fill="rgb(0%, 0%, 0%)" fill-opacity="1"><use xlink:href="#043742a20ce9a9827a64ddf7ec887b65vnnpbb38__glyph-3-0" x="269.835086" y="45.586415"/></g><g fill="rgb(0%, 0%, 0%)" fill-opacity="1"><use xlink:href="#043742a20ce9a9827a64ddf7ec887b65vnnpbb38__glyph-0-3" x="279.641119" y="45.586415"/><use xlink:href="#043742a20ce9a9827a64ddf7ec887b65vnnpbb38__glyph-0-5" x="286.997116" y="45.586415"/></g><g fill="rgb(0%, 0%, 0%)" fill-opacity="1"><use xlink:href="#043742a20ce9a9827a64ddf7ec887b65vnnpbb38__glyph-0-3" x="291.351866" y="45.586415"/><use xlink:href="#043742a20ce9a9827a64ddf7ec887b65vnnpbb38__glyph-0-2" x="298.707862" y="45.586415"/></g><g fill="rgb(0%, 0%, 0%)" fill-opacity="1"><use xlink:href="#043742a20ce9a9827a64ddf7ec887b65vnnpbb38__glyph-0-4" x="303.070458" y="45.586415"/></g><g fill="rgb(0%, 0%, 0%)" fill-opacity="1"><use xlink:href="#043742a20ce9a9827a64ddf7ec887b65vnnpbb38__glyph-0-5" x="309.880149" y="45.586415"/></g><g fill="rgb(0%, 0%, 0%)" fill-opacity="1"><use xlink:href="#043742a20ce9a9827a64ddf7ec887b65vnnpbb38__glyph-0-3" x="314.244707" y="45.586415"/></g><g fill="rgb(0%, 0%, 0%)" fill-opacity="1"><use xlink:href="#043742a20ce9a9827a64ddf7ec887b65vnnpbb38__glyph-3-0" x="323.778078" y="45.586415"/></g><g fill="rgb(0%, 0%, 0%)" fill-opacity="1"><use xlink:href="#043742a20ce9a9827a64ddf7ec887b65vnnpbb38__glyph-0-3" x="333.584112" y="45.586415"/><use xlink:href="#043742a20ce9a9827a64ddf7ec887b65vnnpbb38__glyph-0-5" x="340.940108" y="45.586415"/></g><g fill="rgb(0%, 0%, 0%)" fill-opacity="1"><use xlink:href="#043742a20ce9a9827a64ddf7ec887b65vnnpbb38__glyph-0-3" x="345.304666" y="45.586415"/></g><g fill="rgb(0%, 0%, 0%)" fill-opacity="1"><use xlink:href="#043742a20ce9a9827a64ddf7ec887b65vnnpbb38__glyph-2-1" x="352.660663" y="45.586415"/></g><path fill="none" stroke="rgb(0%, 0%, 0%)" stroke-linecap="butt" stroke-linejoin="miter" stroke-miterlimit="10" stroke-opacity="1" stroke-width="0.39848" d="M -103.436523 17.594949 L -57.354206 17.594949 " transform="matrix(0.984481, 0, 0, -0.984481, 197.456341, 25.814089)"/><path fill="none" stroke="rgb(0%, 0%, 0%)" stroke-linecap="round" stroke-linejoin="round" stroke-miterlimit="10" stroke-opacity="1" stroke-width="0.39848" d="M -2.07254 2.389569 C -1.691628 0.957185 -0.850449 0.278687 -0.00133498 0.000938967 C -0.850449 -0.280777 -1.691628 -0.955307 -2.07254 -2.391659 " transform="matrix(0.984481, 0, 0, -0.984481, 141.188814, 8.493112)"/><path fill="none" stroke="rgb(0%, 0%, 0%)" stroke-linecap="butt" stroke-linejoin="miter" stroke-miterlimit="10" stroke-opacity="1" stroke-width="0.39848" d="M 51.963334 17.594949 L -5.189214 17.594949 " transform="matrix(0.984481, 0, 0, -0.984481, 197.456341, 25.814089)"/><path fill="none" stroke="rgb(0%, 0%, 0%)" stroke-linecap="round" stroke-linejoin="round" stroke-miterlimit="10" stroke-opacity="1" stroke-width="0.39848" d="M -2.073029 2.391659 C -1.692118 0.955307 -0.850939 0.280777 -0.00182469 -0.000938967 C -0.850939 -0.278687 -1.692118 -0.957185 -2.073029 -2.389569 " transform="matrix(-0.984481, 0, 0, 0.984481, 192.150547, 8.493112)"/><g fill="rgb(0%, 0%, 0%)" fill-opacity="1"><use xlink:href="#043742a20ce9a9827a64ddf7ec887b65vnnpbb38__glyph-4-0" x="217.217838" y="13.437188"/></g><g fill="rgb(0%, 0%, 0%)" fill-opacity="1"><use xlink:href="#043742a20ce9a9827a64ddf7ec887b65vnnpbb38__glyph-5-0" x="217.272969" y="15.584342"/></g><path fill="none" stroke="rgb(0%, 0%, 0%)" stroke-linecap="butt" stroke-linejoin="miter" stroke-miterlimit="10" stroke-opacity="1" stroke-width="0.39848" d="M -128.842505 8.766539 L -128.842505 -8.370496 " transform="matrix(0.984481, 0, 0, -0.984481, 197.456341, 25.814089)"/><path fill="none" stroke="rgb(0%, 0%, 0%)" stroke-linecap="round" stroke-linejoin="round" stroke-miterlimit="10" stroke-opacity="1" stroke-width="0.39848" d="M -2.070327 2.389786 C -1.693384 0.957401 -0.848237 0.278903 0.000877514 0.00115504 C -0.848237 -0.280561 -1.693384 -0.955091 -2.070327 -2.391443 " transform="matrix(0, 0.984481, 0.984481, 0, 70.612144, 34.249136)"/><g fill="rgb(0%, 0%, 0%)" fill-opacity="1"><use xlink:href="#043742a20ce9a9827a64ddf7ec887b65vnnpbb38__glyph-1-1" x="72.921403" y="26.624317"/></g><g fill="rgb(0%, 0%, 0%)" fill-opacity="1"><use xlink:href="#043742a20ce9a9827a64ddf7ec887b65vnnpbb38__glyph-6-0" x="76.515745" y="27.604861"/></g><path fill="none" stroke="rgb(0%, 0%, 0%)" stroke-linecap="butt" stroke-linejoin="miter" stroke-miterlimit="10" stroke-opacity="1" stroke-width="0.39848" d="M -31.273694 8.766539 L -31.273694 -8.370496 " transform="matrix(0.984481, 0, 0, -0.984481, 197.456341, 25.814089)"/><path fill="none" stroke="rgb(0%, 0%, 0%)" stroke-linecap="round" stroke-linejoin="round" stroke-miterlimit="10" stroke-opacity="1" stroke-width="0.39848" d="M -2.070327 2.390864 C -1.693384 0.954512 -0.848237 0.279982 0.000877514 -0.00173406 C -0.848237 -0.279482 -1.693384 -0.95798 -2.070327 -2.390365 " transform="matrix(0, 0.984481, 0.984481, 0, 166.669676, 34.249136)"/><g fill="rgb(0%, 0%, 0%)" fill-opacity="1"><use xlink:href="#043742a20ce9a9827a64ddf7ec887b65vnnpbb38__glyph-1-1" x="168.977261" y="26.624317"/></g><g fill="rgb(0%, 0%, 0%)" fill-opacity="1"><use xlink:href="#043742a20ce9a9827a64ddf7ec887b65vnnpbb38__glyph-6-0" x="172.572587" y="27.604861"/></g><path fill="none" stroke="rgb(0%, 0%, 0%)" stroke-linecap="butt" stroke-linejoin="miter" stroke-miterlimit="10" stroke-opacity="1" stroke-width="0.39848" d="M 97.573479 8.766539 L 97.573479 -8.370496 " transform="matrix(0.984481, 0, 0, -0.984481, 197.456341, 25.814089)"/><path fill="none" stroke="rgb(0%, 0%, 0%)" stroke-linecap="round" stroke-linejoin="round" stroke-miterlimit="10" stroke-opacity="1" stroke-width="0.39848" d="M -2.070327 2.39041 C -1.693384 0.958025 -0.848237 0.279527 0.000877514 0.00177944 C -0.848237 -0.279936 -1.693384 -0.954466 -2.070327 -2.390819 " transform="matrix(0, 0.984481, 0.984481, 0, 293.513873, 34.249136)"/><g fill="rgb(0%, 0%, 0%)" fill-opacity="1"><use xlink:href="#043742a20ce9a9827a64ddf7ec887b65vnnpbb38__glyph-1-1" x="295.819824" y="26.624317"/></g><g fill="rgb(0%, 0%, 0%)" fill-opacity="1"><use xlink:href="#043742a20ce9a9827a64ddf7ec887b65vnnpbb38__glyph-6-0" x="299.415151" y="27.604861"/></g><path fill="none" stroke="rgb(0%, 0%, 0%)" stroke-linecap="butt" stroke-linejoin="miter" stroke-miterlimit="10" stroke-opacity="1" stroke-width="0.39848" d="M -91.67589 -17.595689 L -68.563311 -17.595689 " transform="matrix(0.984481, 0, 0, -0.984481, 197.456341, 25.814089)"/><path fill="none" stroke="rgb(0%, 0%, 0%)" stroke-linecap="round" stroke-linejoin="round" stroke-miterlimit="10" stroke-opacity="1" stroke-width="0.39848" d="M -2.073514 2.390909 C -1.692603 0.954557 -0.851424 0.280027 0.00165789 -0.00168885 C -0.851424 -0.279437 -1.692603 -0.957935 -2.073514 -2.390319 " transform="matrix(0.984481, 0, 0, -0.984481, 130.154618, 43.135056)"/><path fill="none" stroke="rgb(0%, 0%, 0%)" stroke-linecap="butt" stroke-linejoin="miter" stroke-miterlimit="10" stroke-opacity="1" stroke-width="0.39848" d="M 29.13247 -17.595689 L 6.019891 -17.595689 " transform="matrix(0.984481, 0, 0, -0.984481, 197.456341, 25.814089)"/><path fill="none" stroke="rgb(0%, 0%, 0%)" stroke-linecap="round" stroke-linejoin="round" stroke-miterlimit="10" stroke-opacity="1" stroke-width="0.39848" d="M -2.074024 2.390319 C -1.693113 0.957935 -0.847966 0.279437 0.00114818 0.00168885 C -0.847966 -0.280027 -1.693113 -0.954557 -2.074024 -2.390909 " transform="matrix(-0.984481, 0, 0, 0.984481, 203.184724, 43.135056)"/><g fill="rgb(0%, 0%, 0%)" fill-opacity="1"><use xlink:href="#043742a20ce9a9827a64ddf7ec887b65vnnpbb38__glyph-4-0" x="211.497016" y="48.079122"/></g><g fill="rgb(0%, 0%, 0%)" fill-opacity="1"><use xlink:href="#043742a20ce9a9827a64ddf7ec887b65vnnpbb38__glyph-5-0" x="211.551163" y="50.225292"/></g></svg>