<?xml version="1.0" encoding="UTF-8"?><svg xmlns="http://www.w3.org/2000/svg" xmlns:xlink="http://www.w3.org/1999/xlink" width="568.521" height="119.436" viewBox="0 0 568.521 119.436"><defs><g><g id="bdabee82c3b841483556aaaeb2d6f33bzfyq3ocz__glyph-0-0"><path d="M 1.78125 -1.140625 C 1.375 -0.46875 0.984375 -0.34375 0.5625 -0.3125 C 0.4375 -0.296875 0.34375 -0.296875 0.34375 -0.109375 C 0.34375 -0.046875 0.390625 0 0.46875 0 C 0.75 0 1.046875 -0.03125 1.328125 -0.03125 C 1.65625 -0.03125 2 0 2.328125 0 C 2.375 0 2.515625 0 2.515625 -0.1875 C 2.515625 -0.296875 2.421875 -0.3125 2.34375 -0.3125 C 2.125 -0.328125 1.890625 -0.40625 1.890625 -0.65625 C 1.890625 -0.78125 1.9375 -0.890625 2.03125 -1.015625 L 2.78125 -2.296875 L 5.265625 -2.296875 C 5.28125 -2.078125 5.421875 -0.734375 5.421875 -0.640625 C 5.421875 -0.34375 4.90625 -0.3125 4.71875 -0.3125 C 4.578125 -0.3125 4.46875 -0.3125 4.46875 -0.109375 C 4.46875 0 4.59375 0 4.609375 0 C 5.015625 0 5.453125 -0.03125 5.859375 -0.03125 C 6.109375 -0.03125 6.734375 0 6.96875 0 C 7.03125 0 7.15625 0 7.15625 -0.203125 C 7.15625 -0.3125 7.046875 -0.3125 6.921875 -0.3125 C 6.3125 -0.3125 6.3125 -0.375 6.28125 -0.671875 L 5.671875 -6.859375 C 5.65625 -7.0625 5.65625 -7.109375 5.484375 -7.109375 C 5.328125 -7.109375 5.28125 -7.03125 5.234375 -6.9375 Z M 2.96875 -2.59375 L 4.921875 -5.875 L 5.234375 -2.59375 Z M 2.96875 -2.59375 "/></g><g id="bdabee82c3b841483556aaaeb2d6f33bzfyq3ocz__glyph-0-1"><path d="M 1.59375 -0.78125 C 1.484375 -0.390625 1.46875 -0.3125 0.6875 -0.3125 C 0.515625 -0.3125 0.421875 -0.3125 0.421875 -0.109375 C 0.421875 0 0.5 0 0.6875 0 L 4.234375 0 C 5.796875 0 6.96875 -1.171875 6.96875 -2.140625 C 6.96875 -2.859375 6.390625 -3.4375 5.421875 -3.546875 C 6.453125 -3.734375 7.5 -4.46875 7.5 -5.40625 C 7.5 -6.140625 6.84375 -6.78125 5.65625 -6.78125 L 2.328125 -6.78125 C 2.140625 -6.78125 2.03125 -6.78125 2.03125 -6.578125 C 2.03125 -6.46875 2.125 -6.46875 2.3125 -6.46875 C 2.328125 -6.46875 2.515625 -6.46875 2.6875 -6.453125 C 2.875 -6.421875 2.953125 -6.421875 2.953125 -6.296875 C 2.953125 -6.25 2.953125 -6.21875 2.921875 -6.109375 Z M 3.078125 -3.625 L 3.703125 -6.09375 C 3.796875 -6.4375 3.8125 -6.46875 4.234375 -6.46875 L 5.515625 -6.46875 C 6.390625 -6.46875 6.59375 -5.890625 6.59375 -5.453125 C 6.59375 -4.578125 5.75 -3.625 4.53125 -3.625 Z M 2.640625 -0.3125 C 2.5 -0.3125 2.484375 -0.3125 2.421875 -0.3125 C 2.328125 -0.328125 2.296875 -0.34375 2.296875 -0.421875 C 2.296875 -0.453125 2.296875 -0.46875 2.34375 -0.640625 L 3.03125 -3.40625 L 4.90625 -3.40625 C 5.859375 -3.40625 6.046875 -2.671875 6.046875 -2.25 C 6.046875 -1.265625 5.15625 -0.3125 3.984375 -0.3125 Z M 2.640625 -0.3125 "/></g><g id="bdabee82c3b841483556aaaeb2d6f33bzfyq3ocz__glyph-0-2"><path d="M 7.546875 -6.890625 C 7.546875 -6.921875 7.515625 -7 7.4375 -7 C 7.40625 -7 7.390625 -6.984375 7.28125 -6.875 L 6.59375 -6.109375 C 6.5 -6.25 6.046875 -7 4.9375 -7 C 2.734375 -7 0.5 -4.796875 0.5 -2.5 C 0.5 -0.859375 1.671875 0.21875 3.1875 0.21875 C 4.046875 0.21875 4.796875 -0.171875 5.328125 -0.640625 C 6.25 -1.453125 6.421875 -2.34375 6.421875 -2.375 C 6.421875 -2.484375 6.3125 -2.484375 6.296875 -2.484375 C 6.234375 -2.484375 6.1875 -2.453125 6.171875 -2.375 C 6.078125 -2.09375 5.859375 -1.390625 5.171875 -0.8125 C 4.484375 -0.265625 3.859375 -0.09375 3.34375 -0.09375 C 2.453125 -0.09375 1.40625 -0.609375 1.40625 -2.15625 C 1.40625 -2.71875 1.609375 -4.328125 2.59375 -5.484375 C 3.203125 -6.1875 4.140625 -6.6875 5.015625 -6.6875 C 6.03125 -6.6875 6.625 -5.921875 6.625 -4.765625 C 6.625 -4.375 6.59375 -4.359375 6.59375 -4.265625 C 6.59375 -4.171875 6.703125 -4.171875 6.734375 -4.171875 C 6.859375 -4.171875 6.859375 -4.1875 6.921875 -4.359375 Z M 7.546875 -6.890625 "/></g><g id="bdabee82c3b841483556aaaeb2d6f33bzfyq3ocz__glyph-1-0"><path d="M 1.90625 -2.484375 C 1.90625 -2.765625 1.671875 -3 1.375 -3 C 1.09375 -3 0.859375 -2.765625 0.859375 -2.484375 C 0.859375 -2.1875 1.09375 -1.953125 1.375 -1.953125 C 1.671875 -1.953125 1.90625 -2.1875 1.90625 -2.484375 Z M 1.90625 -2.484375 "/></g><g id="bdabee82c3b841483556aaaeb2d6f33bzfyq3ocz__glyph-2-0"><path d="M 3.96875 -2.78125 C 3.9375 -2.84375 3.921875 -2.859375 3.921875 -2.875 C 3.921875 -2.890625 3.9375 -2.890625 4.09375 -3 L 4.796875 -3.5 C 5.703125 -4.140625 6.140625 -4.453125 6.625 -4.484375 C 6.703125 -4.5 6.796875 -4.5 6.796875 -4.640625 C 6.796875 -4.703125 6.75 -4.734375 6.703125 -4.734375 C 6.5625 -4.734375 6.375 -4.703125 6.21875 -4.703125 C 6.03125 -4.703125 5.578125 -4.734375 5.390625 -4.734375 C 5.34375 -4.734375 5.234375 -4.734375 5.234375 -4.578125 C 5.234375 -4.578125 5.234375 -4.5 5.34375 -4.484375 C 5.421875 -4.484375 5.515625 -4.46875 5.515625 -4.390625 C 5.515625 -4.265625 5.296875 -4.109375 5.203125 -4.046875 L 2.3125 -2.015625 L 2.859375 -4.203125 C 2.921875 -4.4375 2.9375 -4.484375 3.46875 -4.484375 C 3.59375 -4.484375 3.6875 -4.484375 3.6875 -4.640625 C 3.6875 -4.703125 3.640625 -4.734375 3.578125 -4.734375 C 3.375 -4.734375 2.859375 -4.703125 2.65625 -4.703125 C 2.546875 -4.703125 2.296875 -4.703125 2.1875 -4.71875 C 2.046875 -4.71875 1.875 -4.734375 1.75 -4.734375 C 1.703125 -4.734375 1.609375 -4.734375 1.609375 -4.578125 C 1.609375 -4.484375 1.671875 -4.484375 1.828125 -4.484375 C 1.9375 -4.484375 1.96875 -4.484375 2.09375 -4.46875 C 2.234375 -4.453125 2.25 -4.453125 2.25 -4.375 C 2.25 -4.359375 2.25 -4.328125 2.21875 -4.21875 L 1.296875 -0.546875 C 1.234375 -0.3125 1.234375 -0.25 0.6875 -0.25 C 0.5625 -0.25 0.484375 -0.25 0.484375 -0.09375 C 0.484375 -0.09375 0.484375 0 0.59375 0 C 0.796875 0 1.296875 -0.03125 1.484375 -0.03125 C 1.609375 -0.03125 1.859375 -0.03125 1.96875 -0.015625 C 2.109375 -0.015625 2.28125 0 2.421875 0 C 2.453125 0 2.5625 0 2.5625 -0.15625 C 2.5625 -0.25 2.484375 -0.25 2.34375 -0.25 C 2.328125 -0.25 2.203125 -0.25 2.078125 -0.265625 C 1.921875 -0.28125 1.921875 -0.296875 1.921875 -0.375 C 1.921875 -0.421875 1.984375 -0.6875 2.234375 -1.703125 L 3.390625 -2.515625 L 4.390625 -0.5625 C 4.453125 -0.46875 4.453125 -0.46875 4.453125 -0.4375 C 4.453125 -0.265625 4.25 -0.25 4.125 -0.25 C 4.046875 -0.25 3.953125 -0.25 3.953125 -0.09375 C 3.953125 -0.09375 3.953125 0 4.0625 0 C 4.265625 0 4.765625 -0.03125 4.953125 -0.03125 C 5.15625 -0.03125 5.4375 0 5.640625 0 C 5.71875 0 5.765625 -0.046875 5.765625 -0.140625 C 5.765625 -0.25 5.6875 -0.25 5.609375 -0.25 C 5.484375 -0.25 5.265625 -0.25 5.15625 -0.484375 Z M 3.96875 -2.78125 "/></g><g id="bdabee82c3b841483556aaaeb2d6f33bzfyq3ocz__glyph-2-1"><path d="M 5.5 -1.609375 C 5.53125 -1.6875 5.53125 -1.71875 5.53125 -1.734375 C 5.53125 -1.765625 5.515625 -1.828125 5.421875 -1.828125 C 5.40625 -1.828125 5.375 -1.828125 5.34375 -1.796875 C 5.328125 -1.78125 5.328125 -1.78125 5.234375 -1.59375 C 4.78125 -0.59375 4.4375 -0.25 3.296875 -0.25 L 2.125 -0.25 C 1.90625 -0.25 1.90625 -0.25 1.90625 -0.3125 C 1.90625 -0.328125 1.90625 -0.359375 1.921875 -0.46875 L 2.390625 -2.328125 L 3.171875 -2.328125 C 3.71875 -2.328125 3.796875 -2.234375 3.796875 -2 C 3.796875 -1.921875 3.78125 -1.8125 3.75 -1.6875 C 3.734375 -1.625 3.734375 -1.625 3.734375 -1.609375 C 3.734375 -1.59375 3.734375 -1.515625 3.84375 -1.515625 C 3.953125 -1.515625 3.953125 -1.546875 3.984375 -1.671875 L 4.359375 -3.1875 C 4.390625 -3.265625 4.390625 -3.28125 4.390625 -3.28125 C 4.390625 -3.359375 4.328125 -3.390625 4.265625 -3.390625 C 4.171875 -3.390625 4.171875 -3.34375 4.125 -3.203125 C 3.984375 -2.65625 3.78125 -2.578125 3.1875 -2.578125 L 2.453125 -2.578125 L 2.875 -4.21875 C 2.921875 -4.4375 2.9375 -4.453125 3.21875 -4.453125 L 4.359375 -4.453125 C 5.265625 -4.453125 5.5 -4.28125 5.5 -3.65625 C 5.5 -3.46875 5.46875 -3.265625 5.46875 -3.234375 C 5.46875 -3.171875 5.484375 -3.109375 5.578125 -3.109375 C 5.6875 -3.109375 5.703125 -3.171875 5.703125 -3.296875 L 5.828125 -4.5 C 5.859375 -4.703125 5.8125 -4.703125 5.640625 -4.703125 L 1.8125 -4.703125 C 1.671875 -4.703125 1.59375 -4.703125 1.59375 -4.5625 C 1.59375 -4.453125 1.671875 -4.453125 1.828125 -4.453125 C 1.9375 -4.453125 1.96875 -4.453125 2.09375 -4.453125 C 2.234375 -4.4375 2.234375 -4.421875 2.234375 -4.34375 C 2.234375 -4.296875 2.21875 -4.234375 2.21875 -4.203125 L 1.296875 -0.5625 C 1.234375 -0.296875 1.234375 -0.25 0.6875 -0.25 C 0.5625 -0.25 0.484375 -0.25 0.484375 -0.09375 C 0.484375 0 0.5625 0 0.6875 0 L 4.609375 0 C 4.78125 0 4.78125 0 4.84375 -0.125 Z M 5.5 -1.609375 "/></g><g id="bdabee82c3b841483556aaaeb2d6f33bzfyq3ocz__glyph-2-2"><path d="M 2.375 -2.234375 L 3.109375 -2.234375 C 3.640625 -2.234375 3.734375 -2.15625 3.734375 -1.921875 C 3.734375 -1.8125 3.734375 -1.796875 3.6875 -1.609375 C 3.671875 -1.5625 3.65625 -1.546875 3.65625 -1.53125 C 3.65625 -1.453125 3.71875 -1.421875 3.78125 -1.421875 C 3.875 -1.421875 3.875 -1.453125 3.90625 -1.578125 L 4.28125 -3.046875 C 4.296875 -3.078125 4.3125 -3.171875 4.3125 -3.1875 C 4.3125 -3.265625 4.265625 -3.296875 4.203125 -3.296875 C 4.09375 -3.296875 4.09375 -3.25 4.0625 -3.125 C 3.921875 -2.59375 3.71875 -2.484375 3.125 -2.484375 L 2.4375 -2.484375 L 2.875 -4.21875 C 2.921875 -4.4375 2.9375 -4.453125 3.21875 -4.453125 L 4.28125 -4.453125 C 5.203125 -4.453125 5.390625 -4.234375 5.390625 -3.65625 C 5.390625 -3.4375 5.359375 -3.28125 5.359375 -3.234375 C 5.359375 -3.171875 5.375 -3.109375 5.46875 -3.109375 C 5.578125 -3.109375 5.578125 -3.171875 5.59375 -3.296875 L 5.71875 -4.5 C 5.75 -4.703125 5.703125 -4.703125 5.515625 -4.703125 L 1.8125 -4.703125 C 1.6875 -4.703125 1.59375 -4.703125 1.59375 -4.5625 C 1.59375 -4.453125 1.671875 -4.453125 1.8125 -4.453125 C 1.828125 -4.453125 1.953125 -4.453125 2.078125 -4.453125 C 2.234375 -4.4375 2.234375 -4.421875 2.234375 -4.34375 C 2.234375 -4.296875 2.21875 -4.234375 2.21875 -4.203125 L 1.296875 -0.5625 C 1.234375 -0.296875 1.234375 -0.25 0.6875 -0.25 C 0.5625 -0.25 0.484375 -0.25 0.484375 -0.109375 C 0.484375 -0.03125 0.53125 0 0.59375 0 C 0.796875 0 1.296875 -0.03125 1.5 -0.03125 L 2.046875 -0.015625 C 2.21875 -0.015625 2.421875 0 2.59375 0 C 2.640625 0 2.734375 0 2.734375 -0.15625 C 2.734375 -0.25 2.65625 -0.25 2.5 -0.25 C 2.484375 -0.25 2.3125 -0.25 2.140625 -0.265625 C 1.984375 -0.28125 1.921875 -0.28125 1.921875 -0.375 C 1.921875 -0.40625 1.921875 -0.4375 1.9375 -0.5 Z M 2.375 -2.234375 "/></g><g id="bdabee82c3b841483556aaaeb2d6f33bzfyq3ocz__glyph-2-3"><path d="M 2.859375 -4.25 C 2.90625 -4.453125 2.921875 -4.46875 3.078125 -4.484375 L 3.53125 -4.484375 C 4.171875 -4.484375 4.96875 -4.484375 4.96875 -3.78125 C 4.96875 -3.484375 4.828125 -3.046875 4.515625 -2.796875 C 4.21875 -2.578125 3.796875 -2.46875 3.3125 -2.46875 L 2.421875 -2.46875 Z M 4.125 -2.359375 C 4.953125 -2.546875 5.6875 -3.046875 5.6875 -3.671875 C 5.6875 -4.265625 4.96875 -4.734375 3.96875 -4.734375 L 1.84375 -4.734375 C 1.703125 -4.734375 1.609375 -4.734375 1.609375 -4.578125 C 1.609375 -4.484375 1.703125 -4.484375 1.84375 -4.484375 C 1.84375 -4.484375 1.984375 -4.484375 2.109375 -4.46875 C 2.25 -4.453125 2.265625 -4.453125 2.265625 -4.375 C 2.265625 -4.359375 2.265625 -4.328125 2.234375 -4.21875 L 1.3125 -0.546875 C 1.25 -0.3125 1.234375 -0.25 0.703125 -0.25 C 0.578125 -0.25 0.5 -0.25 0.5 -0.109375 C 0.5 -0.03125 0.546875 0 0.609375 0 C 0.734375 0 0.890625 -0.015625 1.03125 -0.015625 C 1.171875 -0.015625 1.359375 -0.03125 1.484375 -0.03125 C 1.625 -0.03125 1.796875 -0.015625 1.9375 -0.015625 C 2.078125 -0.015625 2.25 0 2.40625 0 C 2.4375 0 2.546875 0 2.546875 -0.140625 C 2.546875 -0.25 2.484375 -0.25 2.3125 -0.25 C 2.203125 -0.25 2.171875 -0.25 2.046875 -0.265625 C 1.90625 -0.28125 1.90625 -0.296875 1.90625 -0.375 C 1.90625 -0.375 1.90625 -0.421875 1.921875 -0.515625 L 2.359375 -2.28125 L 3.3125 -2.28125 C 3.90625 -2.28125 4.15625 -1.984375 4.15625 -1.65625 C 4.15625 -1.5625 4.09375 -1.328125 4.0625 -1.171875 C 3.984375 -0.84375 3.953125 -0.75 3.953125 -0.625 C 3.953125 -0.078125 4.453125 0.140625 4.96875 0.140625 C 5.609375 0.140625 5.890625 -0.546875 5.890625 -0.671875 C 5.890625 -0.6875 5.875 -0.765625 5.765625 -0.765625 C 5.6875 -0.765625 5.671875 -0.71875 5.640625 -0.640625 C 5.546875 -0.34375 5.296875 -0.0625 5 -0.0625 C 4.828125 -0.0625 4.6875 -0.125 4.6875 -0.5 C 4.6875 -0.6875 4.734375 -1.046875 4.765625 -1.234375 C 4.78125 -1.421875 4.78125 -1.484375 4.78125 -1.546875 C 4.78125 -1.640625 4.78125 -1.859375 4.59375 -2.0625 C 4.453125 -2.21875 4.28125 -2.296875 4.125 -2.359375 Z M 4.125 -2.359375 "/></g><g id="bdabee82c3b841483556aaaeb2d6f33bzfyq3ocz__glyph-2-4"><path d="M 1.734375 -2.859375 C 1.75 -2.890625 1.75 -2.921875 1.75 -2.96875 C 1.75 -2.96875 1.75 -3.0625 1.640625 -3.0625 C 1.640625 -3.0625 1.234375 -3.03125 1.1875 -3.03125 C 1.0625 -3.015625 0.9375 -3 0.8125 -2.984375 C 0.6875 -2.984375 0.609375 -2.96875 0.609375 -2.828125 C 0.609375 -2.734375 0.703125 -2.734375 0.796875 -2.734375 C 1.125 -2.734375 1.125 -2.6875 1.125 -2.625 C 1.125 -2.59375 1.09375 -2.453125 1.0625 -2.359375 L 0.71875 -0.953125 C 0.546875 -0.265625 0.5 -0.125 0.5 -0.09375 C 0.5 0 0.609375 0 0.640625 0 L 0.75 0 C 1.359375 -0.09375 2.25 -0.421875 2.984375 -1.078125 C 3.9375 -1.921875 4.078125 -2.828125 4.078125 -2.84375 C 4.078125 -2.96875 3.96875 -3.0625 3.84375 -3.0625 C 3.59375 -3.0625 3.546875 -2.859375 3.484375 -2.671875 C 3.203125 -1.6875 2.28125 -0.625 1.09375 -0.28125 Z M 1.734375 -2.859375 "/></g><g id="bdabee82c3b841483556aaaeb2d6f33bzfyq3ocz__glyph-3-0"><path d="M 1.296875 -3.921875 C 1.296875 -4.09375 1.296875 -4.28125 1.09375 -4.28125 C 0.90625 -4.28125 0.90625 -4.09375 0.90625 -3.921875 L 0.90625 -0.125 C 0.90625 0.046875 0.90625 0.21875 1.09375 0.21875 C 1.296875 0.21875 1.296875 0.046875 1.296875 -0.125 Z M 1.296875 -3.921875 "/></g><g id="bdabee82c3b841483556aaaeb2d6f33bzfyq3ocz__glyph-4-0"><path d="M 1.96875 -3.15625 C 1.96875 -3.296875 1.953125 -3.296875 1.796875 -3.296875 C 1.4375 -2.984375 0.890625 -2.984375 0.796875 -2.984375 L 0.703125 -2.984375 L 0.703125 -2.765625 L 0.796875 -2.765625 C 0.90625 -2.765625 1.234375 -2.78125 1.515625 -2.90625 L 1.515625 -0.421875 C 1.515625 -0.265625 1.515625 -0.21875 0.984375 -0.21875 L 0.75 -0.21875 L 0.75 0 C 1.015625 -0.015625 1.453125 -0.015625 1.75 -0.015625 C 2.03125 -0.015625 2.46875 -0.015625 2.75 0 L 2.75 -0.21875 L 2.5 -0.21875 C 1.96875 -0.21875 1.96875 -0.265625 1.96875 -0.421875 Z M 1.96875 -3.15625 "/></g><g id="bdabee82c3b841483556aaaeb2d6f33bzfyq3ocz__glyph-5-0"><path d="M 0.96875 -0.484375 C 0.9375 -0.359375 0.875 -0.140625 0.875 -0.125 C 0.875 -0.015625 0.96875 0.046875 1.0625 0.046875 C 1.140625 0.046875 1.25 0.015625 1.296875 -0.109375 C 1.3125 -0.140625 1.359375 -0.359375 1.390625 -0.5 C 1.5625 -1.15625 1.5625 -1.171875 1.578125 -1.1875 C 1.640625 -1.328125 2 -2.015625 2.59375 -2.015625 C 2.84375 -2.015625 2.953125 -1.890625 2.953125 -1.671875 C 2.953125 -1.375 2.734375 -0.875 2.625 -0.59375 C 2.59375 -0.53125 2.578125 -0.46875 2.578125 -0.375 C 2.578125 -0.125 2.828125 0.046875 3.109375 0.046875 C 3.640625 0.046875 3.921875 -0.59375 3.921875 -0.71875 C 3.921875 -0.78125 3.828125 -0.78125 3.8125 -0.78125 C 3.734375 -0.78125 3.71875 -0.765625 3.6875 -0.671875 C 3.59375 -0.375 3.375 -0.109375 3.140625 -0.109375 C 3.015625 -0.109375 2.984375 -0.1875 2.984375 -0.296875 C 2.984375 -0.40625 3 -0.453125 3.046875 -0.5625 C 3.140625 -0.765625 3.359375 -1.328125 3.359375 -1.59375 C 3.359375 -1.96875 3.09375 -2.1875 2.625 -2.1875 C 2.171875 -2.1875 1.875 -1.921875 1.6875 -1.703125 C 1.671875 -2.109375 1.265625 -2.1875 1.09375 -2.1875 C 0.59375 -2.1875 0.453125 -1.4375 0.453125 -1.421875 C 0.453125 -1.359375 0.53125 -1.359375 0.5625 -1.359375 C 0.640625 -1.359375 0.65625 -1.375 0.671875 -1.453125 C 0.75 -1.734375 0.859375 -2.015625 1.0625 -2.015625 C 1.234375 -2.015625 1.265625 -1.859375 1.265625 -1.765625 C 1.265625 -1.6875 1.21875 -1.5 1.1875 -1.375 C 1.15625 -1.234375 1.109375 -1.03125 1.078125 -0.921875 Z M 0.96875 -0.484375 "/></g><g id="bdabee82c3b841483556aaaeb2d6f33bzfyq3ocz__glyph-6-0"><path d="M 6.8125 -3.25 C 6.96875 -3.25 7.15625 -3.25 7.15625 -3.4375 C 7.15625 -3.640625 6.96875 -3.640625 6.828125 -3.640625 L 0.890625 -3.640625 C 0.75 -3.640625 0.5625 -3.640625 0.5625 -3.4375 C 0.5625 -3.25 0.75 -3.25 0.890625 -3.25 Z M 6.828125 -1.3125 C 6.96875 -1.3125 7.15625 -1.3125 7.15625 -1.515625 C 7.15625 -1.71875 6.96875 -1.71875 6.8125 -1.71875 L 0.890625 -1.71875 C 0.75 -1.71875 0.5625 -1.71875 0.5625 -1.515625 C 0.5625 -1.3125 0.75 -1.3125 0.890625 -1.3125 Z M 6.828125 -1.3125 "/></g><g id="bdabee82c3b841483556aaaeb2d6f33bzfyq3ocz__glyph-7-0"><path d="M 3.953125 -4.546875 C 3.953125 -4.78125 3.90625 -4.8125 3.671875 -4.8125 L 0.8125 -4.8125 C 0.6875 -4.8125 0.53125 -4.8125 0.53125 -4.640625 C 0.53125 -4.46875 0.703125 -4.46875 0.8125 -4.46875 L 3.609375 -4.46875 L 3.609375 -2.578125 L 0.9375 -2.578125 C 0.8125 -2.578125 0.640625 -2.578125 0.640625 -2.40625 C 0.640625 -2.234375 0.796875 -2.234375 0.90625 -2.234375 L 3.609375 -2.234375 L 3.609375 -0.34375 L 0.8125 -0.34375 C 0.6875 -0.34375 0.53125 -0.34375 0.53125 -0.171875 C 0.53125 0 0.703125 0 0.8125 0 L 3.671875 0 C 3.90625 0 3.953125 -0.03125 3.953125 -0.265625 Z M 3.953125 -4.546875 "/></g><g id="bdabee82c3b841483556aaaeb2d6f33bzfyq3ocz__glyph-8-0"><path d="M 1.515625 -4.578125 C 1.515625 -4.828125 1.296875 -4.953125 1.125 -4.953125 C 0.921875 -4.953125 0.71875 -4.8125 0.71875 -4.578125 L 0.984375 -1.515625 C 1 -1.359375 1.03125 -1.34375 1.125 -1.34375 C 1.21875 -1.34375 1.234375 -1.359375 1.25 -1.5 Z M 1.515625 -0.40625 C 1.515625 -0.625 1.34375 -0.796875 1.125 -0.796875 C 0.875 -0.796875 0.71875 -0.609375 0.71875 -0.40625 C 0.71875 -0.15625 0.921875 0 1.109375 0 C 1.34375 0 1.515625 -0.171875 1.515625 -0.40625 Z M 1.515625 -0.40625 "/></g></g><clipPath id="bdabee82c3b841483556aaaeb2d6f33bzfyq3ocz__clip-0"><path d="M 362 33 L 430 33 L 430 118.875 L 362 118.875 Z M 362 33 " clip-rule="nonzero"/></clipPath><clipPath id="bdabee82c3b841483556aaaeb2d6f33bzfyq3ocz__clip-1"><path d="M 373 44 L 419 44 L 419 118.875 L 373 118.875 Z M 373 44 " clip-rule="nonzero"/></clipPath></defs><g fill="rgb(0%, 0%, 0%)" fill-opacity="1"><use xlink:href="#bdabee82c3b841483556aaaeb2d6f33bzfyq3ocz__glyph-0-0" x="65.098426" y="37.546697"/></g><g fill="rgb(0%, 0%, 0%)" fill-opacity="1"><use xlink:href="#bdabee82c3b841483556aaaeb2d6f33bzfyq3ocz__glyph-0-1" x="128.670227" y="37.546697"/></g><g fill="rgb(0%, 0%, 0%)" fill-opacity="1"><use xlink:href="#bdabee82c3b841483556aaaeb2d6f33bzfyq3ocz__glyph-1-0" x="192.823284" y="37.546697"/></g><g fill="rgb(0%, 0%, 0%)" fill-opacity="1"><use xlink:href="#bdabee82c3b841483556aaaeb2d6f33bzfyq3ocz__glyph-1-0" x="197.233821" y="37.546697"/></g><g fill="rgb(0%, 0%, 0%)" fill-opacity="1"><use xlink:href="#bdabee82c3b841483556aaaeb2d6f33bzfyq3ocz__glyph-1-0" x="201.634443" y="37.546697"/></g><g fill="rgb(0%, 0%, 0%)" fill-opacity="1"><use xlink:href="#bdabee82c3b841483556aaaeb2d6f33bzfyq3ocz__glyph-0-2" x="260.525581" y="37.546697"/></g><g fill="rgb(0%, 0%, 0%)" fill-opacity="1"><use xlink:href="#bdabee82c3b841483556aaaeb2d6f33bzfyq3ocz__glyph-0-0" x="65.098426" y="87.277857"/></g><g fill="rgb(0%, 0%, 0%)" fill-opacity="1"><use xlink:href="#bdabee82c3b841483556aaaeb2d6f33bzfyq3ocz__glyph-0-2" x="260.525581" y="87.277857"/></g><path fill="none" stroke="rgb(0%, 0%, 0%)" stroke-linecap="butt" stroke-linejoin="miter" stroke-miterlimit="10" stroke-opacity="1" stroke-width="0.39848" d="M -90.1303 24.071003 L -43.108516 24.071003 " transform="matrix(0.9953, 0, 0, -0.9953, 166.710593, 59.024276)"/><path fill="none" stroke="rgb(0%, 0%, 0%)" stroke-linecap="round" stroke-linejoin="round" stroke-miterlimit="10" stroke-opacity="1" stroke-width="0.39848" d="M -2.071976 2.391323 C -1.695205 0.954885 -0.851396 0.279837 0.000263474 0.00118337 C -0.851396 -0.27747 -1.695205 -0.956442 -2.071976 -2.388957 " transform="matrix(0.9953, 0, 0, -0.9953, 124.003644, 35.067584)"/><g fill="rgb(0%, 0%, 0%)" fill-opacity="1"><use xlink:href="#bdabee82c3b841483556aaaeb2d6f33bzfyq3ocz__glyph-2-0" x="97.028645" y="32.735417"/></g><g fill="rgb(0%, 0%, 0%)" fill-opacity="1"><use xlink:href="#bdabee82c3b841483556aaaeb2d6f33bzfyq3ocz__glyph-3-0" x="99.50097" y="37.546697"/></g><path fill="none" stroke="rgb(0%, 0%, 0%)" stroke-linecap="butt" stroke-linejoin="miter" stroke-miterlimit="10" stroke-opacity="1" stroke-width="2.32874" d="M -98.356463 17.732619 L -98.356463 -17.734859 " transform="matrix(0.9953, 0, 0, -0.9953, 166.710593, 59.024276)"/><path fill="none" stroke="rgb(100%, 100%, 100%)" stroke-linecap="butt" stroke-linejoin="miter" stroke-miterlimit="10" stroke-opacity="1" stroke-width="1.53175" d="M -98.356463 17.732619 L -98.356463 -17.734859 " transform="matrix(0.9953, 0, 0, -0.9953, 166.710593, 59.024276)"/><path fill="none" stroke="rgb(0%, 0%, 0%)" stroke-linecap="butt" stroke-linejoin="miter" stroke-miterlimit="10" stroke-opacity="1" stroke-width="0.39848" d="M -25.675016 24.071003 L 21.350692 24.071003 " transform="matrix(0.9953, 0, 0, -0.9953, 166.710593, 59.024276)"/><path fill="none" stroke="rgb(0%, 0%, 0%)" stroke-linecap="round" stroke-linejoin="round" stroke-miterlimit="10" stroke-opacity="1" stroke-width="0.39848" d="M -2.073622 2.391323 C -1.692927 0.954885 -0.849117 0.279837 -0.00138294 0.00118337 C -0.849117 -0.27747 -1.692927 -0.956442 -2.073622 -2.388957 " transform="matrix(0.9953, 0, 0, -0.9953, 188.157626, 35.067584)"/><g fill="rgb(0%, 0%, 0%)" fill-opacity="1"><use xlink:href="#bdabee82c3b841483556aaaeb2d6f33bzfyq3ocz__glyph-2-1" x="159.909709" y="31.743103"/></g><g fill="rgb(0%, 0%, 0%)" fill-opacity="1"><use xlink:href="#bdabee82c3b841483556aaaeb2d6f33bzfyq3ocz__glyph-4-0" x="165.731218" y="32.735417"/></g><g fill="rgb(0%, 0%, 0%)" fill-opacity="1"><use xlink:href="#bdabee82c3b841483556aaaeb2d6f33bzfyq3ocz__glyph-3-0" x="163.654027" y="37.546697"/></g><path fill="none" stroke="rgb(0%, 0%, 0%)" stroke-linecap="butt" stroke-linejoin="miter" stroke-miterlimit="10" stroke-opacity="1" stroke-width="0.39848" d="M 42.347816 24.071003 L 89.373525 24.071003 " transform="matrix(0.9953, 0, 0, -0.9953, 166.710593, 59.024276)"/><path fill="none" stroke="rgb(0%, 0%, 0%)" stroke-linecap="round" stroke-linejoin="round" stroke-miterlimit="10" stroke-opacity="1" stroke-width="0.39848" d="M -2.070275 2.391323 C -1.693505 0.954885 -0.849695 0.279837 -0.00196063 0.00118337 C -0.849695 -0.27747 -1.693505 -0.956442 -2.070275 -2.388957 " transform="matrix(0.9953, 0, 0, -0.9953, 255.861326, 35.067584)"/><g fill="rgb(0%, 0%, 0%)" fill-opacity="1"><use xlink:href="#bdabee82c3b841483556aaaeb2d6f33bzfyq3ocz__glyph-2-1" x="227.116346" y="31.743103"/></g><g fill="rgb(0%, 0%, 0%)" fill-opacity="1"><use xlink:href="#bdabee82c3b841483556aaaeb2d6f33bzfyq3ocz__glyph-5-0" x="232.937855" y="32.735417"/></g><g fill="rgb(0%, 0%, 0%)" fill-opacity="1"><use xlink:href="#bdabee82c3b841483556aaaeb2d6f33bzfyq3ocz__glyph-3-0" x="231.357319" y="37.546697"/></g><path fill="none" stroke="rgb(0%, 0%, 0%)" stroke-linecap="butt" stroke-linejoin="miter" stroke-miterlimit="10" stroke-opacity="1" stroke-width="2.32874" d="M 98.176618 17.732619 L 98.176618 -17.734859 " transform="matrix(0.9953, 0, 0, -0.9953, 166.710593, 59.024276)"/><path fill="none" stroke="rgb(100%, 100%, 100%)" stroke-linecap="butt" stroke-linejoin="miter" stroke-miterlimit="10" stroke-opacity="1" stroke-width="1.53175" d="M 98.176618 17.732619 L 98.176618 -17.734859 " transform="matrix(0.9953, 0, 0, -0.9953, 166.710593, 59.024276)"/><path fill="none" stroke="rgb(0%, 0%, 0%)" stroke-linecap="butt" stroke-linejoin="miter" stroke-miterlimit="10" stroke-opacity="1" stroke-width="0.39848" d="M -90.1303 -25.898227 L 89.373525 -25.898227 " transform="matrix(0.9953, 0, 0, -0.9953, 166.710593, 59.024276)"/><path fill="none" stroke="rgb(0%, 0%, 0%)" stroke-linecap="round" stroke-linejoin="round" stroke-miterlimit="10" stroke-opacity="1" stroke-width="0.39848" d="M -2.070275 2.392138 C -1.693505 0.955699 -0.849695 0.280651 -0.00196063 -0.00192702 C -0.849695 -0.28058 -1.693505 -0.955628 -2.070275 -2.392067 " transform="matrix(0.9953, 0, 0, -0.9953, 255.861326, 84.798863)"/><g fill="rgb(0%, 0%, 0%)" fill-opacity="1"><use xlink:href="#bdabee82c3b841483556aaaeb2d6f33bzfyq3ocz__glyph-2-2" x="163.482836" y="91.874152"/></g><g fill="rgb(0%, 0%, 0%)" fill-opacity="1"><use xlink:href="#bdabee82c3b841483556aaaeb2d6f33bzfyq3ocz__glyph-3-0" x="165.428647" y="87.277857"/></g><path fill="none" stroke="rgb(0%, 0%, 0%)" stroke-linecap="butt" stroke-linejoin="miter" stroke-miterlimit="10" stroke-opacity="1" stroke-width="2.32874" d="M -1.938454 23.372407 L -0.604058 -14.053494 " transform="matrix(0.9953, 0, 0, -0.9953, 166.710593, 59.024276)"/><path fill="none" stroke="rgb(100%, 100%, 100%)" stroke-linecap="butt" stroke-linejoin="miter" stroke-miterlimit="10" stroke-opacity="1" stroke-width="1.53175" d="M -1.938454 23.372407 L -0.604058 -14.053494 " transform="matrix(0.9953, 0, 0, -0.9953, 166.710593, 59.024276)"/><path fill="none" stroke="rgb(0%, 0%, 0%)" stroke-linecap="round" stroke-linejoin="round" stroke-miterlimit="10" stroke-opacity="1" stroke-width="0.39848" d="M -1.293971 2.558554 C -0.666755 1.204834 1.023951 0.0488243 1.988277 -0.00127609 C 1.024376 -0.049373 -0.666353 -1.206535 -1.29189 -2.558777 " transform="matrix(0.0354725, 0.994643, 0.994643, -0.0354725, 166.110428, 73.01061)"/><g fill="rgb(0%, 0%, 0%)" fill-opacity="1"><use xlink:href="#bdabee82c3b841483556aaaeb2d6f33bzfyq3ocz__glyph-6-0" x="275.896994" y="59.024276"/></g><g fill="rgb(0%, 0%, 0%)" fill-opacity="1"><use xlink:href="#bdabee82c3b841483556aaaeb2d6f33bzfyq3ocz__glyph-0-0" x="291.183807" y="12.681117"/></g><g fill="rgb(0%, 0%, 0%)" fill-opacity="1"><use xlink:href="#bdabee82c3b841483556aaaeb2d6f33bzfyq3ocz__glyph-0-1" x="354.754613" y="12.681117"/></g><g fill="rgb(0%, 0%, 0%)" fill-opacity="1"><use xlink:href="#bdabee82c3b841483556aaaeb2d6f33bzfyq3ocz__glyph-1-0" x="427.446349" y="12.681117"/></g><g fill="rgb(0%, 0%, 0%)" fill-opacity="1"><use xlink:href="#bdabee82c3b841483556aaaeb2d6f33bzfyq3ocz__glyph-1-0" x="431.856886" y="12.681117"/></g><g fill="rgb(0%, 0%, 0%)" fill-opacity="1"><use xlink:href="#bdabee82c3b841483556aaaeb2d6f33bzfyq3ocz__glyph-1-0" x="436.257507" y="12.681117"/></g><g fill="rgb(0%, 0%, 0%)" fill-opacity="1"><use xlink:href="#bdabee82c3b841483556aaaeb2d6f33bzfyq3ocz__glyph-0-2" x="495.14964" y="12.681117"/></g><g fill="rgb(0%, 0%, 0%)" fill-opacity="1"><use xlink:href="#bdabee82c3b841483556aaaeb2d6f33bzfyq3ocz__glyph-0-0" x="291.183807" y="62.412277"/></g><g fill="rgb(0%, 0%, 0%)" fill-opacity="1"><use xlink:href="#bdabee82c3b841483556aaaeb2d6f33bzfyq3ocz__glyph-0-1" x="354.754613" y="62.412277"/></g><g fill="rgb(0%, 0%, 0%)" fill-opacity="1"><use xlink:href="#bdabee82c3b841483556aaaeb2d6f33bzfyq3ocz__glyph-0-2" x="495.14964" y="62.412277"/></g><g fill="rgb(0%, 0%, 0%)" fill-opacity="1"><use xlink:href="#bdabee82c3b841483556aaaeb2d6f33bzfyq3ocz__glyph-0-0" x="291.183807" y="112.142442"/></g><g fill="rgb(0%, 0%, 0%)" fill-opacity="1"><use xlink:href="#bdabee82c3b841483556aaaeb2d6f33bzfyq3ocz__glyph-0-2" x="495.14964" y="112.142442"/></g><path fill="none" stroke="rgb(0%, 0%, 0%)" stroke-linecap="butt" stroke-linejoin="miter" stroke-miterlimit="10" stroke-opacity="1" stroke-width="0.39848" d="M -94.422665 49.051694 L -47.396957 49.051694 " transform="matrix(0.9953, 0, 0, -0.9953, 397.064816, 59.024276)"/><path fill="none" stroke="rgb(0%, 0%, 0%)" stroke-linecap="round" stroke-linejoin="round" stroke-miterlimit="10" stroke-opacity="1" stroke-width="0.39848" d="M -2.070917 2.392868 C -1.694146 0.95643 -0.850336 0.277457 0.0013227 -0.00119614 C -0.850336 -0.27985 -1.694146 -0.954897 -2.070917 -2.391336 " transform="matrix(0.9953, 0, 0, -0.9953, 350.088527, 10.201934)"/><g fill="rgb(0%, 0%, 0%)" fill-opacity="1"><use xlink:href="#bdabee82c3b841483556aaaeb2d6f33bzfyq3ocz__glyph-2-0" x="323.113031" y="7.869837"/></g><g fill="rgb(0%, 0%, 0%)" fill-opacity="1"><use xlink:href="#bdabee82c3b841483556aaaeb2d6f33bzfyq3ocz__glyph-3-0" x="325.586351" y="12.681117"/></g><path fill="none" stroke="rgb(0%, 0%, 0%)" stroke-linecap="butt" stroke-linejoin="miter" stroke-miterlimit="10" stroke-opacity="1" stroke-width="2.32874" d="M -102.644903 42.717234 L -102.644903 7.249756 " transform="matrix(0.9953, 0, 0, -0.9953, 397.064816, 59.024276)"/><path fill="none" stroke="rgb(100%, 100%, 100%)" stroke-linecap="butt" stroke-linejoin="miter" stroke-miterlimit="10" stroke-opacity="1" stroke-width="1.53175" d="M -102.644903 42.717234 L -102.644903 7.249756 " transform="matrix(0.9953, 0, 0, -0.9953, 397.064816, 59.024276)"/><path fill="none" stroke="rgb(0%, 0%, 0%)" stroke-linecap="butt" stroke-linejoin="miter" stroke-miterlimit="10" stroke-opacity="1" stroke-width="0.39848" d="M -29.963457 49.051694 L 25.637712 49.051694 " transform="matrix(0.9953, 0, 0, -0.9953, 397.064816, 59.024276)"/><path fill="none" stroke="rgb(0%, 0%, 0%)" stroke-linecap="round" stroke-linejoin="round" stroke-miterlimit="10" stroke-opacity="1" stroke-width="0.39848" d="M -2.072198 2.392868 C -1.695427 0.95643 -0.851617 0.277457 0.0000418979 -0.00119614 C -0.851617 -0.27985 -1.695427 -0.954897 -2.072198 -2.391336 " transform="matrix(0.9953, 0, 0, -0.9953, 422.781208, 10.201934)"/><g fill="rgb(0%, 0%, 0%)" fill-opacity="1"><use xlink:href="#bdabee82c3b841483556aaaeb2d6f33bzfyq3ocz__glyph-2-1" x="390.264927" y="6.878518"/></g><g fill="rgb(0%, 0%, 0%)" fill-opacity="1"><use xlink:href="#bdabee82c3b841483556aaaeb2d6f33bzfyq3ocz__glyph-4-0" x="396.086436" y="7.869837"/></g><g fill="rgb(0%, 0%, 0%)" fill-opacity="1"><use xlink:href="#bdabee82c3b841483556aaaeb2d6f33bzfyq3ocz__glyph-3-0" x="394.00825" y="12.681117"/></g><path fill="none" stroke="rgb(0%, 0%, 0%)" stroke-linecap="butt" stroke-linejoin="miter" stroke-miterlimit="10" stroke-opacity="1" stroke-width="2.32874" d="M -38.480047 42.717234 L -38.480047 7.249756 " transform="matrix(0.9953, 0, 0, -0.9953, 397.064816, 59.024276)"/><path fill="none" stroke="rgb(100%, 100%, 100%)" stroke-linecap="butt" stroke-linejoin="miter" stroke-miterlimit="10" stroke-opacity="1" stroke-width="1.53175" d="M -38.480047 42.717234 L -38.480047 7.249756 " transform="matrix(0.9953, 0, 0, -0.9953, 397.064816, 59.024276)"/><path fill="none" stroke="rgb(0%, 0%, 0%)" stroke-linecap="butt" stroke-linejoin="miter" stroke-miterlimit="10" stroke-opacity="1" stroke-width="0.39848" d="M 46.638761 49.051694 L 93.660545 49.051694 " transform="matrix(0.9953, 0, 0, -0.9953, 397.064816, 59.024276)"/><path fill="none" stroke="rgb(0%, 0%, 0%)" stroke-linecap="round" stroke-linejoin="round" stroke-miterlimit="10" stroke-opacity="1" stroke-width="0.39848" d="M -2.072775 2.392868 C -1.69208 0.95643 -0.84827 0.277457 -0.00053579 -0.00119614 C -0.84827 -0.27985 -1.69208 -0.954897 -2.072775 -2.391336 " transform="matrix(0.9953, 0, 0, -0.9953, 490.484908, 10.201934)"/><g fill="rgb(0%, 0%, 0%)" fill-opacity="1"><use xlink:href="#bdabee82c3b841483556aaaeb2d6f33bzfyq3ocz__glyph-2-1" x="461.740405" y="6.878518"/></g><g fill="rgb(0%, 0%, 0%)" fill-opacity="1"><use xlink:href="#bdabee82c3b841483556aaaeb2d6f33bzfyq3ocz__glyph-5-0" x="467.561915" y="7.869837"/></g><g fill="rgb(0%, 0%, 0%)" fill-opacity="1"><use xlink:href="#bdabee82c3b841483556aaaeb2d6f33bzfyq3ocz__glyph-3-0" x="465.980383" y="12.681117"/></g><path fill="none" stroke="rgb(0%, 0%, 0%)" stroke-linecap="butt" stroke-linejoin="miter" stroke-miterlimit="10" stroke-opacity="1" stroke-width="2.32874" d="M 102.467563 42.717234 L 102.467563 7.249756 " transform="matrix(0.9953, 0, 0, -0.9953, 397.064816, 59.024276)"/><path fill="none" stroke="rgb(100%, 100%, 100%)" stroke-linecap="butt" stroke-linejoin="miter" stroke-miterlimit="10" stroke-opacity="1" stroke-width="1.53175" d="M 102.467563 42.717234 L 102.467563 7.249756 " transform="matrix(0.9953, 0, 0, -0.9953, 397.064816, 59.024276)"/><path fill="none" stroke="rgb(0%, 0%, 0%)" stroke-linecap="butt" stroke-linejoin="miter" stroke-miterlimit="10" stroke-opacity="1" stroke-width="0.39848" d="M -94.422665 -0.913612 L -47.396957 -0.913612 " transform="matrix(0.9953, 0, 0, -0.9953, 397.064816, 59.024276)"/><path fill="none" stroke="rgb(0%, 0%, 0%)" stroke-linecap="round" stroke-linejoin="round" stroke-miterlimit="10" stroke-opacity="1" stroke-width="0.39848" d="M -2.070917 2.389768 C -1.694146 0.957254 -0.850336 0.278282 0.0013227 -0.000371826 C -0.850336 -0.279025 -1.694146 -0.957998 -2.070917 -2.390512 " transform="matrix(0.9953, 0, 0, -0.9953, 350.088527, 59.933224)"/><g fill="rgb(0%, 0%, 0%)" fill-opacity="1"><use xlink:href="#bdabee82c3b841483556aaaeb2d6f33bzfyq3ocz__glyph-2-0" x="323.113031" y="67.009568"/></g><g fill="rgb(0%, 0%, 0%)" fill-opacity="1"><use xlink:href="#bdabee82c3b841483556aaaeb2d6f33bzfyq3ocz__glyph-3-0" x="325.586351" y="62.412277"/></g><path fill="none" stroke="rgb(0%, 0%, 0%)" stroke-linecap="butt" stroke-linejoin="miter" stroke-miterlimit="10" stroke-opacity="1" stroke-width="2.32874" d="M -102.644903 -7.248071 L -102.644903 -42.71555 " transform="matrix(0.9953, 0, 0, -0.9953, 397.064816, 59.024276)"/><path fill="none" stroke="rgb(100%, 100%, 100%)" stroke-linecap="butt" stroke-linejoin="miter" stroke-miterlimit="10" stroke-opacity="1" stroke-width="1.53175" d="M -102.644903 -7.248071 L -102.644903 -42.71555 " transform="matrix(0.9953, 0, 0, -0.9953, 397.064816, 59.024276)"/><path fill="none" stroke="rgb(0%, 0%, 0%)" stroke-linecap="butt" stroke-linejoin="miter" stroke-miterlimit="10" stroke-opacity="1" stroke-width="0.39848" d="M -29.963457 -0.913612 L 93.660545 -0.913612 " transform="matrix(0.9953, 0, 0, -0.9953, 397.064816, 59.024276)"/><path fill="none" stroke="rgb(0%, 0%, 0%)" stroke-linecap="round" stroke-linejoin="round" stroke-miterlimit="10" stroke-opacity="1" stroke-width="0.39848" d="M -2.072775 2.389768 C -1.69208 0.957254 -0.84827 0.278282 -0.00053579 -0.000371826 C -0.84827 -0.279025 -1.69208 -0.957998 -2.072775 -2.390512 " transform="matrix(0.9953, 0, 0, -0.9953, 490.484908, 59.933224)"/><g fill="rgb(0%, 0%, 0%)" fill-opacity="1"><use xlink:href="#bdabee82c3b841483556aaaeb2d6f33bzfyq3ocz__glyph-2-3" x="425.95738" y="57.600002"/></g><g fill="rgb(0%, 0%, 0%)" fill-opacity="1"><use xlink:href="#bdabee82c3b841483556aaaeb2d6f33bzfyq3ocz__glyph-3-0" x="427.860393" y="62.412277"/></g><path fill="none" stroke="rgb(0%, 0%, 0%)" stroke-linecap="butt" stroke-linejoin="miter" stroke-miterlimit="10" stroke-opacity="1" stroke-width="2.32874" d="M 102.467563 -7.248071 L 102.467563 -42.71555 " transform="matrix(0.9953, 0, 0, -0.9953, 397.064816, 59.024276)"/><path fill="none" stroke="rgb(100%, 100%, 100%)" stroke-linecap="butt" stroke-linejoin="miter" stroke-miterlimit="10" stroke-opacity="1" stroke-width="1.53175" d="M 102.467563 -7.248071 L 102.467563 -42.71555 " transform="matrix(0.9953, 0, 0, -0.9953, 397.064816, 59.024276)"/><path fill="none" stroke="rgb(0%, 0%, 0%)" stroke-linecap="butt" stroke-linejoin="miter" stroke-miterlimit="10" stroke-opacity="1" stroke-width="0.39848" d="M -94.422665 -50.878918 L 93.660545 -50.878918 " transform="matrix(0.9953, 0, 0, -0.9953, 397.064816, 59.024276)"/><path fill="none" stroke="rgb(0%, 0%, 0%)" stroke-linecap="round" stroke-linejoin="round" stroke-miterlimit="10" stroke-opacity="1" stroke-width="0.39848" d="M -2.072775 2.390602 C -1.69208 0.958088 -0.84827 0.279116 -0.00053579 0.000462488 C -0.84827 -0.278191 -1.69208 -0.957163 -2.072775 -2.389677 " transform="matrix(0.9953, 0, 0, -0.9953, 490.484908, 109.664523)"/><g fill="rgb(0%, 0%, 0%)" fill-opacity="1"><use xlink:href="#bdabee82c3b841483556aaaeb2d6f33bzfyq3ocz__glyph-2-2" x="393.837058" y="116.739732"/></g><g fill="rgb(0%, 0%, 0%)" fill-opacity="1"><use xlink:href="#bdabee82c3b841483556aaaeb2d6f33bzfyq3ocz__glyph-3-0" x="395.78287" y="112.142442"/></g><path fill="none" stroke="rgb(0%, 0%, 0%)" stroke-linecap="butt" stroke-linejoin="miter" stroke-miterlimit="10" stroke-opacity="1" stroke-width="2.32874" d="M 35.794826 42.717234 L 32.890551 8.909902 " transform="matrix(0.9953, 0, 0, -0.9953, 397.064816, 59.024276)"/><path fill="none" stroke="rgb(100%, 100%, 100%)" stroke-linecap="butt" stroke-linejoin="miter" stroke-miterlimit="10" stroke-opacity="1" stroke-width="1.53175" d="M 35.794826 42.717234 L 32.890551 8.909902 " transform="matrix(0.9953, 0, 0, -0.9953, 397.064816, 59.024276)"/><path fill="none" stroke="rgb(0%, 0%, 0%)" stroke-linecap="round" stroke-linejoin="round" stroke-miterlimit="10" stroke-opacity="1" stroke-width="0.39848" d="M -1.29341 2.559098 C -0.665205 1.206708 1.021825 0.0476367 1.987053 0.000503349 C 1.022061 -0.0468855 -0.666673 -1.208191 -1.291392 -2.557842 " transform="matrix(-0.085128, 0.991617, 0.991617, 0.085128, 429.801467, 50.15456)"/><g fill="rgb(0%, 0%, 0%)" fill-opacity="1"><use xlink:href="#bdabee82c3b841483556aaaeb2d6f33bzfyq3ocz__glyph-7-0" x="421.788068" y="35.541168"/></g><g fill="rgb(0%, 0%, 0%)" fill-opacity="1"><use xlink:href="#bdabee82c3b841483556aaaeb2d6f33bzfyq3ocz__glyph-8-0" x="426.277522" y="35.541168"/></g><g clip-path="url(#bdabee82c3b841483556aaaeb2d6f33bzfyq3ocz__clip-0)"><path fill="none" stroke="rgb(0%, 0%, 0%)" stroke-linecap="butt" stroke-linejoin="miter" stroke-miterlimit="10" stroke-opacity="1" stroke-width="2.32874" d="M -1.737043 -7.248071 L -0.532161 -41.02793 " transform="matrix(0.9953, 0, 0, -0.9953, 397.064816, 59.024276)"/></g><g clip-path="url(#bdabee82c3b841483556aaaeb2d6f33bzfyq3ocz__clip-1)"><path fill="none" stroke="rgb(100%, 100%, 100%)" stroke-linecap="butt" stroke-linejoin="miter" stroke-miterlimit="10" stroke-opacity="1" stroke-width="1.53175" d="M -1.737043 -7.248071 L -0.532161 -41.02793 " transform="matrix(0.9953, 0, 0, -0.9953, 397.064816, 59.024276)"/></g><path fill="none" stroke="rgb(0%, 0%, 0%)" stroke-linecap="round" stroke-linejoin="round" stroke-miterlimit="10" stroke-opacity="1" stroke-width="0.39848" d="M -1.293824 2.559416 C -0.666609 1.205696 1.024098 0.0496862 1.988424 -0.000414189 C 1.024523 -0.0485111 -0.666206 -1.205673 -1.291743 -2.557915 " transform="matrix(0.0354725, 0.994643, 0.994643, -0.0354725, 396.535346, 99.85815)"/><g fill="rgb(0%, 0%, 0%)" fill-opacity="1"><use xlink:href="#bdabee82c3b841483556aaaeb2d6f33bzfyq3ocz__glyph-2-4" x="389.326359" y="89.099256"/></g></svg>