<?xml version="1.0" encoding="UTF-8"?><svg xmlns="http://www.w3.org/2000/svg" xmlns:xlink="http://www.w3.org/1999/xlink" width="343.711" height="72.859" viewBox="0 0 343.711 72.859"><defs><clipPath id="d86b9f70fcf76c485d035d7ba6f731388e9rardp__clip-0"><path d="M 101 0 L 186 0 L 186 72.71875 L 101 72.71875 Z M 101 0 " clip-rule="nonzero"/></clipPath><clipPath id="d86b9f70fcf76c485d035d7ba6f731388e9rardp__clip-1"><path d="M 157 0 L 243 0 L 243 72.71875 L 157 72.71875 Z M 157 0 " clip-rule="nonzero"/></clipPath><clipPath id="d86b9f70fcf76c485d035d7ba6f731388e9rardp__clip-2"><path d="M 120 71 L 224 71 L 224 72.71875 L 120 72.71875 Z M 120 71 " clip-rule="nonzero"/></clipPath></defs><g clip-path="url(#d86b9f70fcf76c485d035d7ba6f731388e9rardp__clip-0)"><path fill="none" stroke="rgb(0%, 0%, 100%)" stroke-linecap="butt" stroke-linejoin="miter" stroke-miterlimit="10" stroke-opacity="1" stroke-width="1.99255" d="M 28.347253 -0.00102144 C 28.347253 -8.50573 23.811148 -13.605423 18.367039 -18.028028 M 9.975831 -24.493642 C 4.535636 -28.912333 -0.000469215 -34.01594 -0.000469215 -42.520648 L -0.000469215 -70.868371 " transform="matrix(0.998068, 0, 0, -0.998068, 129.273906, 0.995074)"/><path fill="none" stroke="rgb(100%, 0%, 0%)" stroke-linecap="butt" stroke-linejoin="miter" stroke-miterlimit="10" stroke-opacity="1" stroke-width="1.99255" d="M -0.000469215 -0.00102144 C -0.000469215 -21.260835 28.347253 -21.260835 28.347253 -42.520648 L 28.347253 -70.868371 " transform="matrix(0.998068, 0, 0, -0.998068, 129.273906, 0.995074)"/></g><g clip-path="url(#d86b9f70fcf76c485d035d7ba6f731388e9rardp__clip-1)"><path fill="none" stroke="rgb(0%, 100%, 0%)" stroke-linecap="butt" stroke-linejoin="miter" stroke-miterlimit="10" stroke-opacity="1" stroke-width="1.99255" d="M 85.038785 -0.00102144 L 85.038785 -28.348744 C 85.038785 -36.849538 80.506593 -41.953146 75.062484 -46.375751 M 66.671276 -52.83745 C 61.227167 -57.260055 56.694976 -62.363663 56.694976 -70.868371 " transform="matrix(0.998068, 0, 0, -0.998068, 129.273906, 0.995074)"/><path fill="none" stroke="rgb(0%, 0%, 0%)" stroke-linecap="butt" stroke-linejoin="miter" stroke-miterlimit="10" stroke-opacity="1" stroke-width="1.99255" d="M 56.694976 -0.00102144 L 56.694976 -28.348744 C 56.694976 -49.608557 85.038785 -49.608557 85.038785 -70.868371 " transform="matrix(0.998068, 0, 0, -0.998068, 129.273906, 0.995074)"/></g><path fill="none" stroke="rgb(0%, 0%, 0%)" stroke-linecap="butt" stroke-linejoin="miter" stroke-miterlimit="10" stroke-opacity="1" stroke-width="0.79701" d="M -8.505177 -0.00102144 L 93.543493 -0.00102144 " transform="matrix(0.998068, 0, 0, -0.998068, 129.273906, 0.995074)"/><g clip-path="url(#d86b9f70fcf76c485d035d7ba6f731388e9rardp__clip-2)"><path fill="none" stroke="rgb(0%, 0%, 0%)" stroke-linecap="butt" stroke-linejoin="miter" stroke-miterlimit="10" stroke-opacity="1" stroke-width="0.79701" d="M -8.505177 -70.868371 L 93.543493 -70.868371 " transform="matrix(0.998068, 0, 0, -0.998068, 129.273906, 0.995074)"/></g></svg>