<?xml version="1.0" encoding="UTF-8"?><svg xmlns="http://www.w3.org/2000/svg" xmlns:xlink="http://www.w3.org/1999/xlink" width="343.711" height="52.528" viewBox="0 0 343.711 52.528"><defs><g><g id="fbf2d5fbf041385b90d0ab2a19544a9f94s93j4w__glyph-0-0"><path d="M 4.59375 -6.578125 C 4.046875 -6.90625 3.5 -7.078125 2.78125 -7.078125 C 1.40625 -7.078125 0.546875 -6.109375 0.546875 -5.125 C 0.546875 -4.703125 0.6875 -4.28125 1.09375 -3.875 C 1.5 -3.421875 1.9375 -3.3125 2.515625 -3.171875 C 3.359375 -2.96875 3.453125 -2.9375 3.734375 -2.6875 C 3.9375 -2.515625 4.140625 -2.1875 4.140625 -1.765625 C 4.140625 -1.109375 3.609375 -0.46875 2.703125 -0.46875 C 2.296875 -0.46875 1.40625 -0.5625 0.578125 -1.265625 L 0.4375 -0.46875 C 1.296875 0.078125 2.09375 0.21875 2.71875 0.21875 C 4.015625 0.21875 4.921875 -0.78125 4.921875 -1.859375 C 4.921875 -2.515625 4.625 -2.984375 4.40625 -3.21875 C 3.9375 -3.71875 3.609375 -3.796875 2.703125 -4.03125 C 2.140625 -4.171875 1.96875 -4.203125 1.671875 -4.46875 C 1.609375 -4.515625 1.328125 -4.8125 1.328125 -5.25 C 1.328125 -5.828125 1.859375 -6.421875 2.78125 -6.421875 C 3.609375 -6.421875 4.078125 -6.09375 4.4375 -5.78125 Z M 4.59375 -6.578125 "/></g><g id="fbf2d5fbf041385b90d0ab2a19544a9f94s93j4w__glyph-0-1"><path d="M 1.578125 -0.453125 C 1.890625 -0.171875 2.328125 0.109375 2.90625 0.109375 C 3.875 0.109375 4.734375 -0.859375 4.734375 -2.203125 C 4.734375 -3.390625 4.125 -4.5 3.171875 -4.5 C 2.578125 -4.5 2 -4.28125 1.546875 -3.90625 L 1.546875 -4.390625 L 0.8125 -4.390625 L 0.8125 1.921875 L 1.578125 1.921875 Z M 1.578125 -3.28125 C 1.8125 -3.640625 2.203125 -3.859375 2.625 -3.859375 C 3.375 -3.859375 3.96875 -3.109375 3.96875 -2.203125 C 3.96875 -1.1875 3.265625 -0.5 2.53125 -0.5 C 2.140625 -0.5 1.875 -0.6875 1.671875 -0.953125 C 1.578125 -1.109375 1.578125 -1.125 1.578125 -1.296875 Z M 1.578125 -3.28125 "/></g><g id="fbf2d5fbf041385b90d0ab2a19544a9f94s93j4w__glyph-1-0"><path d="M 7.046875 -4.15625 C 7.109375 -4.40625 7.125 -4.46875 7.640625 -4.46875 C 7.78125 -4.46875 7.875 -4.46875 7.875 -4.609375 C 7.875 -4.71875 7.796875 -4.71875 7.671875 -4.71875 L 6.734375 -4.71875 C 6.53125 -4.71875 6.515625 -4.703125 6.4375 -4.578125 L 3.765625 -0.640625 L 3.078125 -4.53125 C 3.046875 -4.703125 3.046875 -4.71875 2.84375 -4.71875 L 1.84375 -4.71875 C 1.71875 -4.71875 1.625 -4.71875 1.625 -4.5625 C 1.625 -4.46875 1.703125 -4.46875 1.859375 -4.46875 C 1.96875 -4.46875 2 -4.46875 2.125 -4.453125 C 2.265625 -4.4375 2.265625 -4.421875 2.265625 -4.359375 C 2.265625 -4.34375 2.265625 -4.3125 2.25 -4.203125 L 1.375 -0.734375 C 1.3125 -0.5 1.203125 -0.265625 0.65625 -0.25 C 0.59375 -0.25 0.515625 -0.234375 0.515625 -0.09375 C 0.515625 -0.09375 0.515625 0 0.609375 0 C 0.828125 0 1.109375 -0.03125 1.328125 -0.03125 C 1.5 -0.03125 1.90625 0 2.0625 0 C 2.09375 0 2.203125 0 2.203125 -0.15625 C 2.203125 -0.234375 2.109375 -0.25 2.046875 -0.25 C 1.609375 -0.265625 1.609375 -0.4375 1.609375 -0.53125 C 1.609375 -0.5625 1.609375 -0.59375 1.640625 -0.71875 L 2.5625 -4.390625 L 3.296875 -0.1875 C 3.328125 -0.0625 3.328125 0 3.4375 0 C 3.53125 0 3.59375 -0.078125 3.640625 -0.15625 L 6.546875 -4.453125 L 5.578125 -0.53125 C 5.515625 -0.296875 5.5 -0.25 4.96875 -0.25 C 4.84375 -0.25 4.765625 -0.25 4.765625 -0.09375 C 4.765625 -0.09375 4.765625 0 4.875 0 C 5 0 5.15625 -0.015625 5.296875 -0.015625 C 5.4375 -0.015625 5.59375 -0.03125 5.734375 -0.03125 C 5.921875 -0.03125 6.421875 0 6.609375 0 C 6.65625 0 6.75 0 6.75 -0.15625 C 6.75 -0.25 6.671875 -0.25 6.53125 -0.25 C 6.53125 -0.25 6.390625 -0.25 6.265625 -0.265625 C 6.109375 -0.28125 6.109375 -0.296875 6.109375 -0.359375 C 6.109375 -0.40625 6.125 -0.46875 6.140625 -0.515625 Z M 7.046875 -4.15625 "/></g><g id="fbf2d5fbf041385b90d0ab2a19544a9f94s93j4w__glyph-2-0"><path d="M 1.296875 -3.25 C 1.296875 -3.4375 1.140625 -3.53125 1 -3.53125 C 0.84375 -3.53125 0.6875 -3.4375 0.6875 -3.25 C 0.6875 -3.234375 0.703125 -3.171875 0.703125 -3.125 L 0.890625 -1.09375 C 0.890625 -1.015625 0.890625 -0.984375 1 -0.984375 C 1.09375 -0.984375 1.09375 -1.015625 1.09375 -1.09375 Z M 1.296875 -0.296875 C 1.296875 -0.46875 1.15625 -0.609375 1 -0.609375 C 0.828125 -0.609375 0.6875 -0.46875 0.6875 -0.296875 C 0.6875 -0.140625 0.828125 0 1 0 C 1.15625 0 1.296875 -0.140625 1.296875 -0.296875 Z M 1.296875 -0.296875 "/></g><g id="fbf2d5fbf041385b90d0ab2a19544a9f94s93j4w__glyph-3-0"><path d="M 1.90625 -1.359375 C 1.90625 -1.46875 1.984375 -2.09375 1.984375 -2.140625 C 1.984375 -2.234375 1.921875 -2.296875 1.8125 -2.296875 C 1.71875 -2.296875 1.640625 -2.21875 1.640625 -2.140625 C 1.640625 -2.09375 1.71875 -1.46875 1.734375 -1.359375 L 0.96875 -1.828125 C 0.921875 -1.84375 0.90625 -1.859375 0.859375 -1.859375 C 0.78125 -1.859375 0.6875 -1.796875 0.6875 -1.6875 C 0.6875 -1.609375 0.734375 -1.5625 0.796875 -1.53125 C 1.0625 -1.421875 1.34375 -1.328125 1.625 -1.234375 C 1.34375 -1.125 0.890625 -0.96875 0.8125 -0.9375 C 0.765625 -0.921875 0.6875 -0.890625 0.6875 -0.78125 C 0.6875 -0.671875 0.78125 -0.59375 0.859375 -0.59375 C 0.90625 -0.59375 1.0625 -0.6875 1.734375 -1.09375 C 1.71875 -1 1.640625 -0.375 1.640625 -0.328125 C 1.640625 -0.25 1.71875 -0.171875 1.8125 -0.171875 C 1.921875 -0.171875 1.984375 -0.234375 1.984375 -0.328125 C 1.984375 -0.375 1.90625 -1 1.90625 -1.09375 L 2.6875 -0.625 C 2.71875 -0.609375 2.734375 -0.59375 2.78125 -0.59375 C 2.859375 -0.59375 2.953125 -0.671875 2.953125 -0.78125 C 2.953125 -0.859375 2.890625 -0.90625 2.84375 -0.921875 C 2.578125 -1.03125 2.296875 -1.140625 2.015625 -1.234375 C 2.296875 -1.328125 2.75 -1.5 2.828125 -1.53125 C 2.859375 -1.546875 2.953125 -1.578125 2.953125 -1.6875 C 2.953125 -1.796875 2.859375 -1.859375 2.78125 -1.859375 C 2.734375 -1.859375 2.71875 -1.84375 2.671875 -1.828125 Z M 1.90625 -1.359375 "/></g><g id="fbf2d5fbf041385b90d0ab2a19544a9f94s93j4w__glyph-4-0"><path d="M 4.609375 4.265625 C 4.703125 4.265625 4.875 4.265625 4.875 4.109375 C 4.859375 3.9375 4.703125 3.9375 4.59375 3.9375 L 2.625 3.96875 L 2.578125 0.78125 C 2.578125 0.671875 2.578125 0.484375 2.40625 0.484375 C 2.25 0.5 2.25 0.65625 2.25 0.765625 L 2.296875 3.984375 L 0.328125 4.015625 C 0.21875 4.015625 0.0625 4.015625 0.078125 4.1875 C 0.078125 4.34375 0.25 4.34375 0.34375 4.34375 Z M 4.609375 4.265625 "/></g><g id="fbf2d5fbf041385b90d0ab2a19544a9f94s93j4w__glyph-5-0"><path d="M 4.453125 4.421875 C 4.546875 4.421875 4.71875 4.421875 4.71875 4.265625 C 4.734375 4.09375 4.578125 4.09375 4.46875 4.09375 L 2.5 4.0625 L 2.546875 0.875 C 2.546875 0.765625 2.546875 0.578125 2.375 0.578125 C 2.21875 0.5625 2.21875 0.71875 2.21875 0.828125 L 2.171875 4.046875 L 0.203125 4.015625 C 0.09375 4.015625 -0.0625 4.015625 -0.078125 4.1875 C -0.078125 4.34375 0.09375 4.34375 0.1875 4.34375 Z M 4.453125 4.421875 "/></g></g></defs><g fill="rgb(0%, 0%, 0%)" fill-opacity="1"><use xlink:href="#fbf2d5fbf041385b90d0ab2a19544a9f94s93j4w__glyph-0-0" x="128.794433" y="29.142138"/><use xlink:href="#fbf2d5fbf041385b90d0ab2a19544a9f94s93j4w__glyph-0-1" x="134.280359" y="29.142138"/></g><g fill="rgb(0%, 0%, 0%)" fill-opacity="1"><use xlink:href="#fbf2d5fbf041385b90d0ab2a19544a9f94s93j4w__glyph-1-0" x="139.381303" y="24.726813"/></g><g fill="rgb(0%, 0%, 0%)" fill-opacity="1"><use xlink:href="#fbf2d5fbf041385b90d0ab2a19544a9f94s93j4w__glyph-0-0" x="204.043271" y="29.142138"/><use xlink:href="#fbf2d5fbf041385b90d0ab2a19544a9f94s93j4w__glyph-0-1" x="209.529197" y="29.142138"/></g><path fill="none" stroke="rgb(0%, 0%, 0%)" stroke-linecap="butt" stroke-linejoin="miter" stroke-miterlimit="10" stroke-opacity="1" stroke-width="0.39848" d="M -19.29083 9.055616 C -8.515178 16.780663 12.937592 16.780663 27.808306 6.123251 " transform="matrix(0.991094, 0, 0, -0.991094, 171.712782, 25.533563)"/><path fill="none" stroke="rgb(0%, 0%, 0%)" stroke-linecap="round" stroke-linejoin="round" stroke-miterlimit="10" stroke-opacity="1" stroke-width="0.39848" d="M -2.074332 2.391546 C -1.695405 0.956152 -0.849862 0.277072 -0.000374404 -0.00153462 C -0.848517 -0.279638 -1.6919 -0.956826 -2.069921 -2.391592 " transform="matrix(0.805522, 0.577312, 0.577312, -0.805522, 199.434781, 19.581011)"/><g fill="rgb(0%, 0%, 0%)" fill-opacity="1"><use xlink:href="#fbf2d5fbf041385b90d0ab2a19544a9f94s93j4w__glyph-1-0" x="169.445159" y="7.836583"/></g><g fill="rgb(0%, 0%, 0%)" fill-opacity="1"><use xlink:href="#fbf2d5fbf041385b90d0ab2a19544a9f94s93j4w__glyph-2-0" x="176.974502" y="8.88417"/></g><path fill="none" stroke="rgb(0%, 0%, 0%)" stroke-linecap="butt" stroke-linejoin="miter" stroke-miterlimit="10" stroke-opacity="1" stroke-width="0.39848" d="M -21.998538 -9.425376 C -8.515178 -19.085625 12.937592 -19.085625 27.808306 -8.424273 " transform="matrix(0.991094, 0, 0, -0.991094, 171.712782, 25.533563)"/><path fill="none" stroke="rgb(0%, 0%, 0%)" stroke-linecap="round" stroke-linejoin="round" stroke-miterlimit="10" stroke-opacity="1" stroke-width="0.39848" d="M -2.071414 2.389509 C -1.693393 0.954742 -0.85001 0.277555 -0.00186739 -0.000548534 C -0.851355 -0.279156 -1.694602 -0.955031 -2.073528 -2.390425 " transform="matrix(0.805522, -0.577312, -0.577312, -0.805522, 199.434781, 33.768011)"/><g fill="rgb(0%, 0%, 0%)" fill-opacity="1"><use xlink:href="#fbf2d5fbf041385b90d0ab2a19544a9f94s93j4w__glyph-1-0" x="168.286569" y="48.947176"/></g><g fill="rgb(0%, 0%, 0%)" fill-opacity="1"><use xlink:href="#fbf2d5fbf041385b90d0ab2a19544a9f94s93j4w__glyph-3-0" x="175.816904" y="49.934306"/></g><path fill="none" stroke="rgb(0%, 0%, 0%)" stroke-linecap="butt" stroke-linejoin="miter" stroke-miterlimit="10" stroke-opacity="1" stroke-width="0.39848" d="M 28.131497 -1.152481 L -18.892754 -1.152481 " transform="matrix(0.991094, 0, 0, -0.991094, 171.712782, 25.533563)"/><path fill="none" stroke="rgb(0%, 0%, 0%)" stroke-linecap="round" stroke-linejoin="round" stroke-miterlimit="10" stroke-opacity="1" stroke-width="0.39848" d="M -2.073769 2.38966 C -1.6954 0.955008 -0.848009 0.277096 -0.000618871 0.00120139 C -0.848009 -0.278634 -1.6954 -0.956547 -2.073769 -2.391198 " transform="matrix(-0.991094, 0, 0, 0.991094, 152.792355, 26.674591)"/><path fill="rgb(100%, 100%, 100%)" fill-opacity="1" fill-rule="nonzero" d="M 167.769531 31.4375 L 184.421875 31.4375 L 184.421875 21.910156 L 167.769531 21.910156 Z M 167.769531 31.4375 "/><g fill="rgb(0%, 0%, 0%)" fill-opacity="1"><use xlink:href="#fbf2d5fbf041385b90d0ab2a19544a9f94s93j4w__glyph-1-0" x="169.895115" y="29.312606"/></g><g fill="rgb(0%, 0%, 0%)" fill-opacity="1"><use xlink:href="#fbf2d5fbf041385b90d0ab2a19544a9f94s93j4w__glyph-3-0" x="178.165798" y="26.332386"/></g><g fill="rgb(0%, 0%, 0%)" fill-opacity="1"><use xlink:href="#fbf2d5fbf041385b90d0ab2a19544a9f94s93j4w__glyph-4-0" x="172.830737" y="16.535418"/></g><g fill="rgb(0%, 0%, 0%)" fill-opacity="1"><use xlink:href="#fbf2d5fbf041385b90d0ab2a19544a9f94s93j4w__glyph-5-0" x="172.748476" y="31.798271"/></g></svg>