<?xml version="1.0" encoding="UTF-8"?><svg xmlns="http://www.w3.org/2000/svg" xmlns:xlink="http://www.w3.org/1999/xlink" width="473.513" height="130.98" viewBox="0 0 473.513 130.98"><defs><g><g id="68ee5339e4bd9a39ee507c33ea11e85dy6e7uvpo__glyph-0-0"><path d="M 7.59375 -6.03125 C 7.6875 -6.390625 7.703125 -6.484375 8.4375 -6.484375 C 8.6875 -6.484375 8.765625 -6.484375 8.765625 -6.6875 C 8.765625 -6.796875 8.65625 -6.796875 8.625 -6.796875 C 8.34375 -6.796875 7.640625 -6.765625 7.359375 -6.765625 C 7.0625 -6.765625 6.359375 -6.796875 6.078125 -6.796875 C 5.984375 -6.796875 5.875 -6.796875 5.875 -6.59375 C 5.875 -6.484375 5.96875 -6.484375 6.15625 -6.484375 C 6.1875 -6.484375 6.375 -6.484375 6.546875 -6.46875 C 6.71875 -6.453125 6.8125 -6.4375 6.8125 -6.3125 C 6.8125 -6.265625 6.796875 -6.25 6.765625 -6.125 L 6.171875 -3.6875 L 3.140625 -3.6875 L 3.71875 -6.03125 C 3.8125 -6.390625 3.84375 -6.484375 4.5625 -6.484375 C 4.8125 -6.484375 4.890625 -6.484375 4.890625 -6.6875 C 4.890625 -6.796875 4.78125 -6.796875 4.75 -6.796875 C 4.484375 -6.796875 3.765625 -6.765625 3.484375 -6.765625 C 3.1875 -6.765625 2.484375 -6.796875 2.203125 -6.796875 C 2.125 -6.796875 2.015625 -6.796875 2.015625 -6.59375 C 2.015625 -6.484375 2.09375 -6.484375 2.296875 -6.484375 C 2.3125 -6.484375 2.5 -6.484375 2.671875 -6.46875 C 2.84375 -6.453125 2.9375 -6.4375 2.9375 -6.3125 C 2.9375 -6.265625 2.921875 -6.234375 2.890625 -6.125 L 1.5625 -0.78125 C 1.46875 -0.390625 1.4375 -0.3125 0.65625 -0.3125 C 0.484375 -0.3125 0.390625 -0.3125 0.390625 -0.109375 C 0.390625 0 0.5 0 0.53125 0 C 0.8125 0 1.515625 -0.03125 1.796875 -0.03125 C 2 -0.03125 2.21875 -0.015625 2.421875 -0.015625 C 2.640625 -0.015625 2.859375 0 3.078125 0 C 3.15625 0 3.28125 0 3.28125 -0.203125 C 3.28125 -0.3125 3.1875 -0.3125 3 -0.3125 C 2.625 -0.3125 2.34375 -0.3125 2.34375 -0.484375 C 2.34375 -0.546875 2.375 -0.59375 2.375 -0.65625 L 3.0625 -3.390625 L 6.09375 -3.390625 C 5.671875 -1.734375 5.4375 -0.78125 5.40625 -0.640625 C 5.3125 -0.3125 5.109375 -0.3125 4.5 -0.3125 C 4.34375 -0.3125 4.265625 -0.3125 4.265625 -0.109375 C 4.265625 0 4.375 0 4.40625 0 C 4.671875 0 5.390625 -0.03125 5.65625 -0.03125 C 5.875 -0.03125 6.09375 -0.015625 6.296875 -0.015625 C 6.515625 -0.015625 6.734375 0 6.953125 0 C 7.03125 0 7.140625 0 7.140625 -0.203125 C 7.140625 -0.3125 7.0625 -0.3125 6.875 -0.3125 C 6.5 -0.3125 6.21875 -0.3125 6.21875 -0.484375 C 6.21875 -0.546875 6.234375 -0.59375 6.25 -0.65625 Z M 7.59375 -6.03125 "/></g><g id="68ee5339e4bd9a39ee507c33ea11e85dy6e7uvpo__glyph-0-1"><path d="M 1.578125 -0.78125 C 1.484375 -0.390625 1.46875 -0.3125 0.671875 -0.3125 C 0.5 -0.3125 0.390625 -0.3125 0.390625 -0.125 C 0.390625 0 0.484375 0 0.671875 0 L 3.96875 0 C 6.046875 0 8 -2.09375 8 -4.28125 C 8 -5.6875 7.15625 -6.796875 5.65625 -6.796875 L 2.3125 -6.796875 C 2.125 -6.796875 2.015625 -6.796875 2.015625 -6.609375 C 2.015625 -6.484375 2.109375 -6.484375 2.3125 -6.484375 C 2.4375 -6.484375 2.625 -6.484375 2.734375 -6.46875 C 2.890625 -6.453125 2.953125 -6.421875 2.953125 -6.3125 C 2.953125 -6.265625 2.953125 -6.234375 2.921875 -6.125 Z M 3.734375 -6.109375 C 3.828125 -6.453125 3.84375 -6.484375 4.265625 -6.484375 L 5.328125 -6.484375 C 6.3125 -6.484375 7.140625 -5.96875 7.140625 -4.640625 C 7.140625 -4.15625 6.9375 -2.53125 6.09375 -1.4375 C 5.796875 -1.0625 5.015625 -0.3125 3.796875 -0.3125 L 2.671875 -0.3125 C 2.53125 -0.3125 2.515625 -0.3125 2.453125 -0.3125 C 2.34375 -0.328125 2.3125 -0.34375 2.3125 -0.421875 C 2.3125 -0.453125 2.3125 -0.46875 2.375 -0.640625 Z M 3.734375 -6.109375 "/></g><g id="68ee5339e4bd9a39ee507c33ea11e85dy6e7uvpo__glyph-0-2"><path d="M 2.015625 -0.015625 C 2.015625 -0.671875 1.765625 -1.0625 1.390625 -1.0625 C 1.0625 -1.0625 0.859375 -0.8125 0.859375 -0.53125 C 0.859375 -0.265625 1.0625 0 1.390625 0 C 1.5 0 1.625 -0.046875 1.734375 -0.125 C 1.765625 -0.15625 1.765625 -0.15625 1.78125 -0.15625 C 1.796875 -0.15625 1.796875 -0.15625 1.796875 -0.015625 C 1.796875 0.734375 1.453125 1.328125 1.125 1.65625 C 1.015625 1.765625 1.015625 1.78125 1.015625 1.8125 C 1.015625 1.875 1.0625 1.921875 1.109375 1.921875 C 1.21875 1.921875 2.015625 1.15625 2.015625 -0.015625 Z M 2.015625 -0.015625 "/></g><g id="68ee5339e4bd9a39ee507c33ea11e85dy6e7uvpo__glyph-0-3"><path d="M 4.609375 -3.375 C 4.515625 -3.984375 4.09375 -4.546875 3.328125 -4.546875 C 2.71875 -4.546875 2.0625 -4.390625 1.296875 -3.609375 C 0.46875 -2.78125 0.390625 -1.859375 0.390625 -1.546875 C 0.390625 -0.9375 0.84375 0.21875 2.234375 0.21875 C 4.59375 0.21875 5.640625 -3.125 5.640625 -4.546875 C 5.640625 -6.125 4.703125 -7.125 3.484375 -7.125 C 2.046875 -7.125 1.578125 -5.828125 1.578125 -5.546875 C 1.578125 -5.421875 1.65625 -5.203125 1.953125 -5.203125 C 2.296875 -5.203125 2.5 -5.5 2.5 -5.734375 C 2.5 -6.078125 2.1875 -6.078125 2.03125 -6.078125 C 2.46875 -6.8125 3.171875 -6.875 3.46875 -6.875 C 4.1875 -6.875 4.890625 -6.359375 4.890625 -5.078125 C 4.890625 -4.6875 4.828125 -4.1875 4.625 -3.375 Z M 2.265625 -0.0625 C 1.171875 -0.0625 1.171875 -1.078125 1.171875 -1.1875 C 1.171875 -1.453125 1.40625 -2.84375 1.828125 -3.4375 C 2.21875 -4.015625 2.703125 -4.328125 3.328125 -4.328125 C 4.40625 -4.328125 4.421875 -3.21875 4.421875 -3.015625 C 4.421875 -2.296875 3.796875 -0.0625 2.265625 -0.0625 Z M 2.265625 -0.0625 "/></g><g id="68ee5339e4bd9a39ee507c33ea11e85dy6e7uvpo__glyph-0-4"><path d="M 6.421875 -6.921875 C 6.421875 -6.953125 6.40625 -7.015625 6.3125 -7.015625 C 6.265625 -7.015625 6.25 -7 6.125 -6.875 L 5.65625 -6.296875 C 5.390625 -6.765625 4.875 -7.015625 4.234375 -7.015625 C 2.96875 -7.015625 1.765625 -5.875 1.765625 -4.671875 C 1.765625 -3.859375 2.296875 -3.40625 2.8125 -3.25 L 3.875 -2.96875 C 4.234375 -2.890625 4.78125 -2.734375 4.78125 -1.921875 C 4.78125 -1.03125 3.96875 -0.09375 3 -0.09375 C 2.359375 -0.09375 1.25 -0.3125 1.25 -1.546875 C 1.25 -1.78125 1.296875 -2.015625 1.3125 -2.078125 C 1.328125 -2.125 1.328125 -2.125 1.328125 -2.15625 C 1.328125 -2.25 1.265625 -2.265625 1.21875 -2.265625 C 1.171875 -2.265625 1.140625 -2.25 1.109375 -2.21875 C 1.078125 -2.1875 0.515625 0.09375 0.515625 0.125 C 0.515625 0.171875 0.5625 0.21875 0.625 0.21875 C 0.671875 0.21875 0.6875 0.203125 0.8125 0.0625 L 1.296875 -0.5 C 1.71875 0.078125 2.40625 0.21875 2.96875 0.21875 C 4.328125 0.21875 5.5 -1.109375 5.5 -2.34375 C 5.5 -3.03125 5.171875 -3.359375 5.015625 -3.5 C 4.78125 -3.734375 4.640625 -3.765625 3.75 -4 C 3.53125 -4.0625 3.171875 -4.15625 3.078125 -4.1875 C 2.8125 -4.265625 2.484375 -4.5625 2.484375 -5.09375 C 2.484375 -5.890625 3.28125 -6.734375 4.21875 -6.734375 C 5.046875 -6.734375 5.65625 -6.3125 5.65625 -5.203125 C 5.65625 -4.875 5.609375 -4.703125 5.609375 -4.640625 C 5.609375 -4.625 5.609375 -4.53125 5.734375 -4.53125 C 5.828125 -4.53125 5.84375 -4.5625 5.875 -4.734375 Z M 6.421875 -6.921875 "/></g><g id="68ee5339e4bd9a39ee507c33ea11e85dy6e7uvpo__glyph-0-5"><path d="M 4.828125 -4.09375 L 3.984375 -6.078125 C 3.96875 -6.15625 3.9375 -6.1875 3.9375 -6.203125 C 3.9375 -6.265625 4.109375 -6.453125 4.53125 -6.484375 C 4.625 -6.5 4.734375 -6.515625 4.734375 -6.671875 C 4.734375 -6.796875 4.609375 -6.796875 4.578125 -6.796875 C 4.171875 -6.796875 3.75 -6.765625 3.328125 -6.765625 C 3.078125 -6.765625 2.453125 -6.796875 2.203125 -6.796875 C 2.15625 -6.796875 2.03125 -6.796875 2.03125 -6.59375 C 2.03125 -6.484375 2.125 -6.484375 2.265625 -6.484375 C 2.859375 -6.484375 2.921875 -6.390625 3 -6.171875 L 4.1875 -3.390625 L 2.078125 -1.140625 L 1.953125 -1.03125 C 1.46875 -0.5 1 -0.34375 0.484375 -0.3125 C 0.359375 -0.296875 0.265625 -0.296875 0.265625 -0.109375 C 0.265625 -0.09375 0.265625 0 0.390625 0 C 0.703125 0 1.03125 -0.03125 1.328125 -0.03125 C 1.703125 -0.03125 2.09375 0 2.453125 0 C 2.515625 0 2.625 0 2.625 -0.203125 C 2.625 -0.296875 2.53125 -0.3125 2.515625 -0.3125 C 2.421875 -0.3125 2.109375 -0.34375 2.109375 -0.609375 C 2.109375 -0.78125 2.265625 -0.9375 2.375 -1.0625 L 3.390625 -2.140625 L 4.296875 -3.109375 L 5.296875 -0.734375 C 5.328125 -0.625 5.34375 -0.609375 5.34375 -0.59375 C 5.34375 -0.515625 5.15625 -0.34375 4.765625 -0.3125 C 4.65625 -0.296875 4.5625 -0.28125 4.5625 -0.125 C 4.5625 0 4.671875 0 4.71875 0 C 5 0 5.6875 -0.03125 5.96875 -0.03125 C 6.21875 -0.03125 6.828125 0 7.078125 0 C 7.140625 0 7.265625 0 7.265625 -0.1875 C 7.265625 -0.3125 7.171875 -0.3125 7.09375 -0.3125 C 6.421875 -0.3125 6.40625 -0.34375 6.234375 -0.75 C 5.84375 -1.671875 5.171875 -3.21875 4.953125 -3.828125 C 5.625 -4.515625 6.671875 -5.703125 6.984375 -5.984375 C 7.28125 -6.21875 7.65625 -6.453125 8.25 -6.484375 C 8.375 -6.5 8.46875 -6.5 8.46875 -6.6875 C 8.46875 -6.703125 8.46875 -6.796875 8.34375 -6.796875 C 8.046875 -6.796875 7.71875 -6.765625 7.40625 -6.765625 C 7.03125 -6.765625 6.65625 -6.796875 6.296875 -6.796875 C 6.234375 -6.796875 6.109375 -6.796875 6.109375 -6.59375 C 6.109375 -6.53125 6.15625 -6.5 6.234375 -6.484375 C 6.3125 -6.484375 6.625 -6.453125 6.625 -6.1875 C 6.625 -6.046875 6.515625 -5.90625 6.4375 -5.828125 Z M 4.828125 -4.09375 "/></g><g id="68ee5339e4bd9a39ee507c33ea11e85dy6e7uvpo__glyph-0-6"><path d="M 4.375 -7.09375 C 4.421875 -7.21875 4.421875 -7.25 4.421875 -7.265625 C 4.421875 -7.375 4.328125 -7.46875 4.21875 -7.46875 C 4.15625 -7.46875 4.078125 -7.4375 4.046875 -7.375 L 0.59375 2.109375 C 0.546875 2.234375 0.546875 2.28125 0.546875 2.296875 C 0.546875 2.40625 0.640625 2.484375 0.75 2.484375 C 0.875 2.484375 0.90625 2.421875 0.96875 2.25 Z M 4.375 -7.09375 "/></g><g id="68ee5339e4bd9a39ee507c33ea11e85dy6e7uvpo__glyph-1-0"><path d="M 0.84375 -0.4375 C 0.828125 -0.34375 0.78125 -0.171875 0.78125 -0.15625 C 0.78125 0 0.90625 0.0625 1.015625 0.0625 C 1.140625 0.0625 1.25 -0.015625 1.296875 -0.078125 C 1.328125 -0.140625 1.375 -0.375 1.421875 -0.515625 C 1.453125 -0.640625 1.53125 -0.96875 1.5625 -1.140625 C 1.609375 -1.296875 1.65625 -1.453125 1.6875 -1.609375 C 1.765625 -1.890625 1.78125 -1.953125 1.984375 -2.234375 C 2.171875 -2.515625 2.5 -2.875 3.03125 -2.875 C 3.421875 -2.875 3.4375 -2.515625 3.4375 -2.390625 C 3.4375 -1.96875 3.140625 -1.203125 3.03125 -0.90625 C 2.953125 -0.703125 2.921875 -0.640625 2.921875 -0.53125 C 2.921875 -0.15625 3.21875 0.0625 3.578125 0.0625 C 4.28125 0.0625 4.578125 -0.890625 4.578125 -1 C 4.578125 -1.09375 4.5 -1.09375 4.46875 -1.09375 C 4.375 -1.09375 4.375 -1.046875 4.34375 -0.96875 C 4.1875 -0.40625 3.875 -0.125 3.609375 -0.125 C 3.453125 -0.125 3.421875 -0.21875 3.421875 -0.375 C 3.421875 -0.53125 3.46875 -0.625 3.59375 -0.9375 C 3.671875 -1.15625 3.953125 -1.890625 3.953125 -2.28125 C 3.953125 -2.953125 3.421875 -3.078125 3.046875 -3.078125 C 2.46875 -3.078125 2.078125 -2.71875 1.875 -2.4375 C 1.828125 -2.921875 1.421875 -3.078125 1.125 -3.078125 C 0.828125 -3.078125 0.671875 -2.859375 0.578125 -2.703125 C 0.421875 -2.4375 0.328125 -2.046875 0.328125 -2 C 0.328125 -1.921875 0.421875 -1.921875 0.453125 -1.921875 C 0.546875 -1.921875 0.546875 -1.9375 0.59375 -2.125 C 0.703125 -2.53125 0.84375 -2.875 1.109375 -2.875 C 1.296875 -2.875 1.34375 -2.71875 1.34375 -2.53125 C 1.34375 -2.40625 1.28125 -2.140625 1.21875 -1.953125 C 1.171875 -1.765625 1.109375 -1.484375 1.078125 -1.328125 Z M 0.84375 -0.4375 "/></g><g id="68ee5339e4bd9a39ee507c33ea11e85dy6e7uvpo__glyph-1-1"><path d="M 3.8125 -0.984375 C 4.453125 -1.640625 4.703125 -2.578125 4.703125 -2.640625 C 4.703125 -2.734375 4.625 -2.734375 4.59375 -2.734375 C 4.5 -2.734375 4.5 -2.71875 4.453125 -2.5625 C 4.328125 -2.109375 4.09375 -1.671875 3.796875 -1.296875 C 3.796875 -1.40625 3.78125 -1.875 3.765625 -1.9375 C 3.65625 -2.625 3.140625 -3.078125 2.4375 -3.078125 C 1.421875 -3.078125 0.4375 -2.125 0.4375 -1.140625 C 0.4375 -0.5 0.90625 0.0625 1.703125 0.0625 C 2.34375 0.0625 2.921875 -0.21875 3.3125 -0.515625 C 3.484375 -0.015625 3.828125 0.0625 4.046875 0.0625 C 4.453125 0.0625 4.703125 -0.265625 4.703125 -0.421875 C 4.703125 -0.5 4.609375 -0.5 4.578125 -0.5 C 4.484375 -0.5 4.46875 -0.46875 4.453125 -0.4375 C 4.359375 -0.171875 4.140625 -0.125 4.0625 -0.125 C 3.96875 -0.125 3.84375 -0.125 3.8125 -0.984375 Z M 3.265625 -0.75 C 2.578125 -0.1875 2 -0.125 1.734375 -0.125 C 1.265625 -0.125 1.015625 -0.4375 1.015625 -0.90625 C 1.015625 -1.09375 1.109375 -1.859375 1.46875 -2.34375 C 1.796875 -2.765625 2.1875 -2.875 2.4375 -2.875 C 2.984375 -2.875 3.15625 -2.34375 3.203125 -1.90625 C 3.25 -1.609375 3.234375 -1.109375 3.265625 -0.75 Z M 3.265625 -0.75 "/></g><g id="68ee5339e4bd9a39ee507c33ea11e85dy6e7uvpo__glyph-1-2"><path d="M 4.40625 -3.9375 C 4.40625 -4.5625 3.875 -4.90625 3.265625 -4.90625 C 2.3125 -4.90625 1.609375 -3.828125 1.4375 -3.125 L 0.34375 1.265625 C 0.328125 1.3125 0.390625 1.359375 0.4375 1.359375 C 0.5 1.359375 0.5625 1.34375 0.578125 1.296875 L 1.03125 -0.5625 C 1.1875 -0.234375 1.515625 0.0625 2.078125 0.0625 C 3.0625 0.0625 4.15625 -0.640625 4.15625 -1.703125 C 4.15625 -2.125 3.96875 -2.53125 3.609375 -2.765625 C 3.953125 -2.984375 4.40625 -3.375 4.40625 -3.9375 Z M 3.03125 -2.78125 C 2.921875 -2.75 2.875 -2.71875 2.671875 -2.71875 C 2.5625 -2.71875 2.390625 -2.734375 2.34375 -2.765625 C 2.421875 -2.796875 2.609375 -2.8125 2.671875 -2.8125 C 2.78125 -2.8125 2.9375 -2.796875 3.03125 -2.78125 Z M 3.953125 -4.0625 C 3.953125 -3.703125 3.765625 -3.15625 3.34375 -2.90625 C 3.203125 -2.953125 3.078125 -3 2.6875 -3 C 2.4375 -3 2.09375 -2.984375 2.09375 -2.734375 C 2.09375 -2.5625 2.3125 -2.53125 2.65625 -2.53125 C 2.90625 -2.53125 3.109375 -2.578125 3.328125 -2.640625 C 3.53125 -2.484375 3.640625 -2.203125 3.640625 -1.890625 C 3.640625 -0.890625 2.953125 -0.125 2.109375 -0.125 C 1.5625 -0.125 1.1875 -0.453125 1.1875 -1.015625 C 1.1875 -1.078125 1.1875 -1.15625 1.203125 -1.21875 L 1.671875 -3.0625 C 1.828125 -3.734375 2.453125 -4.71875 3.25 -4.71875 C 3.671875 -4.71875 3.953125 -4.5 3.953125 -4.0625 Z M 3.953125 -4.0625 "/></g><g id="68ee5339e4bd9a39ee507c33ea11e85dy6e7uvpo__glyph-1-3"><path d="M 2.0625 -3.03125 C 1.015625 -2.765625 0.421875 -1.875 0.421875 -1.140625 C 0.421875 -0.390625 0.984375 0.078125 1.671875 0.078125 C 2.515625 0.078125 3.171875 -0.90625 3.171875 -1.921875 C 3.171875 -2.59375 2.8125 -3 2.59375 -3.234375 C 2.34375 -3.53125 1.8125 -4.09375 1.8125 -4.421875 C 1.8125 -4.515625 1.921875 -4.703125 2.203125 -4.703125 C 2.4375 -4.703125 2.640625 -4.59375 2.78125 -4.515625 C 2.84375 -4.484375 3.09375 -4.328125 3.203125 -4.328125 C 3.375 -4.328125 3.5 -4.484375 3.5 -4.625 C 3.5 -4.796875 3.40625 -4.8125 3.03125 -4.890625 C 2.953125 -4.90625 2.625 -4.96875 2.40625 -4.96875 C 1.875 -4.96875 1.59375 -4.671875 1.59375 -4.25 C 1.59375 -3.875 1.8125 -3.453125 2.0625 -3.03125 Z M 2.171875 -2.84375 C 2.375 -2.53125 2.625 -2.125 2.625 -1.625 C 2.625 -1.046875 2.28125 -0.109375 1.6875 -0.109375 C 1.3125 -0.109375 0.9375 -0.359375 0.9375 -0.9375 C 0.9375 -1.40625 1.203125 -2.609375 2.171875 -2.84375 Z M 2.171875 -2.84375 "/></g><g id="68ee5339e4bd9a39ee507c33ea11e85dy6e7uvpo__glyph-1-4"><path d="M 2.203125 0.0625 C 2.28125 0.0625 2.359375 0.0625 2.4375 0.0625 C 3.6875 0.0625 4.84375 -0.953125 4.84375 -2.0625 C 4.84375 -2.671875 4.46875 -3.078125 3.9375 -3.078125 C 2.96875 -3.078125 2.453125 -1.84375 2.265625 -1.328125 C 2.171875 -1.0625 2.015625 -0.578125 1.984375 -0.453125 C 1.21875 -0.546875 0.71875 -0.90625 0.71875 -1.421875 C 0.71875 -1.421875 0.765625 -2.203125 1.328125 -2.828125 C 1.375 -2.875 1.390625 -2.890625 1.390625 -2.921875 C 1.390625 -3 1.296875 -3 1.28125 -3 C 1.21875 -3 1.1875 -3 1.046875 -2.84375 C 0.65625 -2.375 0.484375 -1.640625 0.484375 -1.34375 C 0.484375 -0.71875 0.9375 -0.1875 1.828125 0 C 1.484375 1.09375 1.4375 1.21875 1.4375 1.28125 C 1.4375 1.46875 1.609375 1.5 1.671875 1.5 C 1.75 1.5 1.890625 1.453125 1.953125 1.359375 C 2 1.25 2.0625 0.890625 2.203125 0.0625 Z M 2.296875 -0.40625 C 2.4375 -1.21875 2.484375 -1.53125 2.828125 -1.984375 C 3.140625 -2.40625 3.5 -2.59375 3.859375 -2.59375 C 4.328125 -2.59375 4.59375 -2.28125 4.59375 -1.921875 C 4.59375 -1.21875 3.71875 -0.40625 2.515625 -0.40625 C 2.453125 -0.40625 2.359375 -0.40625 2.296875 -0.40625 Z M 2.296875 -0.40625 "/></g><g id="68ee5339e4bd9a39ee507c33ea11e85dy6e7uvpo__glyph-1-5"><path d="M 3.984375 -4.625 C 3.984375 -4.640625 4 -4.734375 4 -4.734375 C 4 -4.78125 3.984375 -4.84375 3.890625 -4.84375 C 3.75 -4.84375 3.171875 -4.78125 3 -4.765625 C 2.953125 -4.765625 2.84375 -4.75 2.84375 -4.609375 C 2.84375 -4.515625 2.953125 -4.515625 3.03125 -4.515625 C 3.359375 -4.515625 3.359375 -4.453125 3.359375 -4.40625 C 3.359375 -4.359375 3.359375 -4.3125 3.34375 -4.25 L 2.9375 -2.65625 C 2.796875 -2.890625 2.5625 -3.078125 2.21875 -3.078125 C 1.328125 -3.078125 0.421875 -2.09375 0.421875 -1.09375 C 0.421875 -0.40625 0.875 0.0625 1.484375 0.0625 C 1.859375 0.0625 2.1875 -0.140625 2.46875 -0.421875 C 2.59375 0 3 0.0625 3.1875 0.0625 C 3.4375 0.0625 3.609375 -0.078125 3.734375 -0.296875 C 3.890625 -0.578125 3.984375 -0.96875 3.984375 -1 C 3.984375 -1.09375 3.890625 -1.09375 3.875 -1.09375 C 3.765625 -1.09375 3.765625 -1.0625 3.71875 -0.875 C 3.625 -0.53125 3.5 -0.125 3.203125 -0.125 C 3.03125 -0.125 2.96875 -0.28125 2.96875 -0.46875 C 2.96875 -0.59375 2.984375 -0.65625 3.015625 -0.75 Z M 2.5 -0.875 C 2.453125 -0.671875 2.296875 -0.53125 2.140625 -0.40625 C 2.078125 -0.34375 1.796875 -0.125 1.5 -0.125 C 1.234375 -0.125 0.984375 -0.3125 0.984375 -0.796875 C 0.984375 -1.171875 1.1875 -1.9375 1.359375 -2.21875 C 1.671875 -2.78125 2.03125 -2.875 2.21875 -2.875 C 2.703125 -2.875 2.84375 -2.34375 2.84375 -2.265625 C 2.84375 -2.25 2.828125 -2.1875 2.828125 -2.171875 Z M 2.5 -0.875 "/></g><g id="68ee5339e4bd9a39ee507c33ea11e85dy6e7uvpo__glyph-1-6"><path d="M 3.546875 -2.875 C 3.546875 -2.90625 3.5625 -2.9375 3.5625 -2.96875 C 3.5625 -3.015625 3.53125 -3.078125 3.46875 -3.078125 C 3.40625 -3.078125 3.109375 -2.84375 2.96875 -2.609375 C 2.90625 -2.75 2.671875 -3.078125 2.21875 -3.078125 C 1.328125 -3.078125 0.421875 -2.09375 0.421875 -1.09375 C 0.421875 -0.40625 0.875 0.0625 1.484375 0.0625 C 1.875 0.0625 2.203125 -0.1875 2.359375 -0.3125 C 2.34375 -0.296875 2.125 0.578125 2.109375 0.703125 C 2 1.09375 2 1.09375 1.5625 1.09375 C 1.484375 1.09375 1.390625 1.09375 1.390625 1.25 C 1.390625 1.296875 1.421875 1.359375 1.484375 1.359375 C 1.71875 1.359375 1.984375 1.328125 2.21875 1.328125 C 2.453125 1.328125 2.75 1.359375 2.96875 1.359375 C 3.03125 1.359375 3.09375 1.328125 3.09375 1.203125 C 3.09375 1.09375 3 1.09375 2.921875 1.09375 C 2.765625 1.09375 2.578125 1.09375 2.578125 1.015625 C 2.578125 1 2.578125 0.984375 2.609375 0.859375 Z M 2.5 -0.875 C 2.453125 -0.765625 2.453125 -0.75 2.375 -0.640625 C 2.09375 -0.3125 1.765625 -0.125 1.5 -0.125 C 1.234375 -0.125 0.984375 -0.3125 0.984375 -0.796875 C 0.984375 -1.171875 1.1875 -1.9375 1.359375 -2.21875 C 1.671875 -2.78125 2.03125 -2.875 2.21875 -2.875 C 2.703125 -2.875 2.84375 -2.34375 2.84375 -2.265625 C 2.84375 -2.234375 2.828125 -2.1875 2.828125 -2.171875 Z M 2.5 -0.875 "/></g><g id="68ee5339e4bd9a39ee507c33ea11e85dy6e7uvpo__glyph-1-7"><path d="M 3.0625 -4.359375 C 3.0625 -4.46875 2.96875 -4.625 2.78125 -4.625 C 2.578125 -4.625 2.390625 -4.421875 2.390625 -4.234375 C 2.390625 -4.125 2.46875 -3.96875 2.671875 -3.96875 C 2.859375 -3.96875 3.0625 -4.15625 3.0625 -4.359375 Z M 1.578125 0.34375 C 1.46875 0.828125 1.09375 1.21875 0.6875 1.21875 C 0.59375 1.21875 0.515625 1.21875 0.4375 1.1875 C 0.609375 1.09375 0.671875 0.9375 0.671875 0.828125 C 0.671875 0.65625 0.53125 0.578125 0.390625 0.578125 C 0.1875 0.578125 0 0.765625 0 0.984375 C 0 1.25 0.265625 1.421875 0.6875 1.421875 C 1.109375 1.421875 1.921875 1.171875 2.140625 0.328125 L 2.765625 -2.171875 C 2.78125 -2.25 2.796875 -2.3125 2.796875 -2.421875 C 2.796875 -2.796875 2.46875 -3.078125 2.0625 -3.078125 C 1.28125 -3.078125 0.84375 -2.109375 0.84375 -2 C 0.84375 -1.921875 0.9375 -1.921875 0.953125 -1.921875 C 1.03125 -1.921875 1.046875 -1.9375 1.09375 -2.046875 C 1.265625 -2.453125 1.625 -2.875 2.03125 -2.875 C 2.203125 -2.875 2.265625 -2.765625 2.265625 -2.53125 C 2.265625 -2.453125 2.265625 -2.359375 2.25 -2.328125 Z M 1.578125 0.34375 "/></g><g id="68ee5339e4bd9a39ee507c33ea11e85dy6e7uvpo__glyph-2-0"><path d="M 3.296875 2.390625 C 3.296875 2.359375 3.296875 2.34375 3.125 2.171875 C 1.875 0.921875 1.5625 -0.96875 1.5625 -2.484375 C 1.5625 -4.21875 1.9375 -5.953125 3.171875 -7.203125 C 3.296875 -7.3125 3.296875 -7.328125 3.296875 -7.359375 C 3.296875 -7.4375 3.25 -7.46875 3.1875 -7.46875 C 3.09375 -7.46875 2.203125 -6.78125 1.609375 -5.53125 C 1.109375 -4.421875 0.984375 -3.328125 0.984375 -2.484375 C 0.984375 -1.71875 1.09375 -0.5 1.640625 0.609375 C 2.234375 1.84375 3.09375 2.484375 3.1875 2.484375 C 3.25 2.484375 3.296875 2.453125 3.296875 2.390625 Z M 3.296875 2.390625 "/></g><g id="68ee5339e4bd9a39ee507c33ea11e85dy6e7uvpo__glyph-2-1"><path d="M 2.875 -2.484375 C 2.875 -3.265625 2.765625 -4.46875 2.21875 -5.59375 C 1.625 -6.8125 0.765625 -7.46875 0.671875 -7.46875 C 0.609375 -7.46875 0.5625 -7.421875 0.5625 -7.359375 C 0.5625 -7.328125 0.5625 -7.3125 0.75 -7.140625 C 1.734375 -6.15625 2.296875 -4.5625 2.296875 -2.484375 C 2.296875 -0.78125 1.9375 0.96875 0.703125 2.21875 C 0.5625 2.34375 0.5625 2.359375 0.5625 2.390625 C 0.5625 2.453125 0.609375 2.484375 0.671875 2.484375 C 0.765625 2.484375 1.65625 1.8125 2.25 0.546875 C 2.75 -0.546875 2.875 -1.65625 2.875 -2.484375 Z M 2.875 -2.484375 "/></g><g id="68ee5339e4bd9a39ee507c33ea11e85dy6e7uvpo__glyph-3-0"><path d="M 5.390625 -7.1875 C 4.890625 -6.78125 4.375 -6.484375 3.859375 -6.484375 C 3.46875 -6.484375 3.171875 -6.65625 2.828125 -6.84375 C 2.53125 -7.015625 2.234375 -7.1875 1.828125 -7.1875 C 1.578125 -7.1875 1.328125 -7.109375 1.109375 -7 C 0.90625 -6.90625 0.703125 -6.796875 0.53125 -6.65625 L 0 -6.21875 L 0.140625 -6.046875 C 0.625 -6.453125 1.15625 -6.765625 1.65625 -6.765625 C 2.0625 -6.765625 2.34375 -6.59375 2.703125 -6.390625 C 2.984375 -6.21875 3.296875 -6.046875 3.6875 -6.046875 C 3.9375 -6.046875 4.203125 -6.125 4.421875 -6.234375 C 4.625 -6.328125 4.8125 -6.4375 4.984375 -6.578125 L 5.53125 -7.015625 Z M 5.390625 -7.1875 "/></g><g id="68ee5339e4bd9a39ee507c33ea11e85dy6e7uvpo__glyph-4-0"><path d="M 5.1875 -1.578125 C 5.296875 -1.578125 5.46875 -1.578125 5.46875 -1.734375 C 5.46875 -1.921875 5.296875 -1.921875 5.1875 -1.921875 L 1.03125 -1.921875 C 0.921875 -1.921875 0.75 -1.921875 0.75 -1.75 C 0.75 -1.578125 0.90625 -1.578125 1.03125 -1.578125 Z M 5.1875 -1.578125 "/></g><g id="68ee5339e4bd9a39ee507c33ea11e85dy6e7uvpo__glyph-4-1"><path d="M 5.671875 -2.390625 C 5.671875 -2.65625 5.578125 -2.671875 5.5625 -2.671875 C 5.453125 -2.671875 5.4375 -2.46875 5.4375 -2.390625 C 5.421875 -1.875 5.03125 -1.296875 4.390625 -1.296875 C 3.890625 -1.296875 3.546875 -1.609375 3.15625 -1.96875 C 2.78125 -2.296875 2.375 -2.671875 1.828125 -2.671875 C 1.03125 -2.671875 0.53125 -1.859375 0.53125 -1.09375 C 0.53125 -0.828125 0.640625 -0.8125 0.65625 -0.8125 C 0.765625 -0.8125 0.765625 -1 0.78125 -1.09375 C 0.796875 -1.609375 1.171875 -2.1875 1.828125 -2.1875 C 2.328125 -2.1875 2.671875 -1.875 3.0625 -1.515625 C 3.421875 -1.1875 3.84375 -0.8125 4.390625 -0.8125 C 5.1875 -0.8125 5.671875 -1.625 5.671875 -2.390625 Z M 5.671875 -2.390625 "/></g><g id="68ee5339e4bd9a39ee507c33ea11e85dy6e7uvpo__glyph-5-0"><path d="M 2.328125 -4.4375 C 2.328125 -4.625 2.328125 -4.625 2.125 -4.625 C 1.671875 -4.1875 1.046875 -4.1875 0.765625 -4.1875 L 0.765625 -3.9375 C 0.921875 -3.9375 1.390625 -3.9375 1.765625 -4.125 L 1.765625 -0.578125 C 1.765625 -0.34375 1.765625 -0.25 1.078125 -0.25 L 0.8125 -0.25 L 0.8125 0 C 0.9375 0 1.796875 -0.03125 2.046875 -0.03125 C 2.265625 -0.03125 3.140625 0 3.296875 0 L 3.296875 -0.25 L 3.03125 -0.25 C 2.328125 -0.25 2.328125 -0.34375 2.328125 -0.578125 Z M 2.328125 -4.4375 "/></g><g id="68ee5339e4bd9a39ee507c33ea11e85dy6e7uvpo__glyph-5-1"><path d="M 3.515625 -1.265625 L 3.28125 -1.265625 C 3.265625 -1.109375 3.1875 -0.703125 3.09375 -0.640625 C 3.046875 -0.59375 2.515625 -0.59375 2.40625 -0.59375 L 1.125 -0.59375 C 1.859375 -1.234375 2.109375 -1.4375 2.515625 -1.765625 C 3.03125 -2.171875 3.515625 -2.609375 3.515625 -3.265625 C 3.515625 -4.109375 2.78125 -4.625 1.890625 -4.625 C 1.03125 -4.625 0.4375 -4.015625 0.4375 -3.375 C 0.4375 -3.03125 0.734375 -2.984375 0.8125 -2.984375 C 0.96875 -2.984375 1.171875 -3.109375 1.171875 -3.359375 C 1.171875 -3.484375 1.125 -3.734375 0.765625 -3.734375 C 0.984375 -4.21875 1.453125 -4.375 1.78125 -4.375 C 2.484375 -4.375 2.84375 -3.828125 2.84375 -3.265625 C 2.84375 -2.65625 2.40625 -2.1875 2.1875 -1.9375 L 0.515625 -0.265625 C 0.4375 -0.203125 0.4375 -0.1875 0.4375 0 L 3.3125 0 Z M 3.515625 -1.265625 "/></g><g id="68ee5339e4bd9a39ee507c33ea11e85dy6e7uvpo__glyph-5-2"><path d="M 5.359375 -2.34375 C 5.453125 -2.34375 5.609375 -2.34375 5.609375 -2.515625 C 5.609375 -2.6875 5.453125 -2.6875 5.359375 -2.6875 L 0.75 -2.6875 C 0.65625 -2.6875 0.484375 -2.6875 0.484375 -2.515625 C 0.484375 -2.34375 0.640625 -2.34375 0.75 -2.34375 Z M 5.359375 -0.8125 C 5.453125 -0.8125 5.609375 -0.8125 5.609375 -0.96875 C 5.609375 -1.15625 5.453125 -1.15625 5.359375 -1.15625 L 0.75 -1.15625 C 0.640625 -1.15625 0.484375 -1.15625 0.484375 -0.96875 C 0.484375 -0.8125 0.65625 -0.8125 0.75 -0.8125 Z M 5.359375 -0.8125 "/></g><g id="68ee5339e4bd9a39ee507c33ea11e85dy6e7uvpo__glyph-5-3"><path d="M 3.125 -0.96875 C 4.265625 -1.046875 5.1875 -1.65625 5.1875 -2.375 C 5.1875 -3.125 4.234375 -3.71875 3.125 -3.796875 L 3.125 -4.1875 C 3.125 -4.421875 3.125 -4.515625 3.78125 -4.515625 L 4.015625 -4.515625 L 4.015625 -4.765625 C 3.875 -4.75 3.078125 -4.734375 2.8125 -4.734375 C 2.40625 -4.734375 1.671875 -4.75 1.609375 -4.765625 L 1.609375 -4.515625 L 1.859375 -4.515625 C 2.515625 -4.515625 2.515625 -4.421875 2.515625 -4.1875 L 2.515625 -3.78125 C 1.296875 -3.6875 0.484375 -3.046875 0.484375 -2.390625 C 0.484375 -1.6875 1.328125 -1.078125 2.515625 -0.96875 L 2.515625 -0.578125 C 2.515625 -0.34375 2.515625 -0.25 1.859375 -0.25 L 1.609375 -0.25 L 1.609375 0 C 1.765625 0 2.5625 -0.03125 2.8125 -0.03125 C 3.21875 -0.03125 3.953125 0 4.015625 0 L 4.015625 -0.25 L 3.78125 -0.25 C 3.125 -0.25 3.125 -0.34375 3.125 -0.578125 Z M 2.515625 -1.171875 C 1.9375 -1.21875 1.203125 -1.484375 1.203125 -2.375 C 1.203125 -3.296875 1.953125 -3.53125 2.515625 -3.59375 Z M 3.125 -3.59375 C 3.75 -3.546875 4.46875 -3.265625 4.46875 -2.390625 C 4.46875 -1.46875 3.703125 -1.21875 3.125 -1.171875 Z M 3.125 -3.59375 "/></g><g id="68ee5339e4bd9a39ee507c33ea11e85dy6e7uvpo__glyph-5-4"><path d="M 3.484375 -4.8125 C 3.421875 -4.9375 3.40625 -4.96875 3.265625 -4.96875 C 3.171875 -4.96875 3.109375 -4.953125 3.046875 -4.84375 L 0.46875 -0.171875 C 0.421875 -0.09375 0.421875 -0.078125 0.421875 -0.0625 C 0.421875 0 0.484375 0 0.59375 0 L 5.9375 0 C 6.046875 0 6.109375 0 6.109375 -0.0625 C 6.109375 -0.078125 6.109375 -0.09375 6.0625 -0.171875 Z M 3.03125 -4.28125 L 5.078125 -0.578125 L 0.984375 -0.578125 Z M 3.03125 -4.28125 "/></g><g id="68ee5339e4bd9a39ee507c33ea11e85dy6e7uvpo__glyph-6-0"><path d="M 0.96875 -0.484375 C 0.9375 -0.359375 0.890625 -0.140625 0.890625 -0.125 C 0.890625 -0.015625 0.96875 0.046875 1.0625 0.046875 C 1.140625 0.046875 1.25 0.015625 1.3125 -0.109375 C 1.3125 -0.140625 1.375 -0.375 1.40625 -0.5 C 1.5625 -1.171875 1.5625 -1.171875 1.578125 -1.203125 C 1.640625 -1.328125 2 -2.03125 2.609375 -2.03125 C 2.859375 -2.03125 2.953125 -1.890625 2.953125 -1.671875 C 2.953125 -1.390625 2.75 -0.875 2.640625 -0.59375 C 2.609375 -0.53125 2.578125 -0.46875 2.578125 -0.375 C 2.578125 -0.125 2.828125 0.046875 3.125 0.046875 C 3.65625 0.046875 3.9375 -0.59375 3.9375 -0.71875 C 3.9375 -0.78125 3.84375 -0.78125 3.828125 -0.78125 C 3.734375 -0.78125 3.734375 -0.765625 3.703125 -0.671875 C 3.609375 -0.375 3.390625 -0.109375 3.140625 -0.109375 C 3.03125 -0.109375 3 -0.1875 3 -0.296875 C 3 -0.40625 3.015625 -0.453125 3.0625 -0.5625 C 3.140625 -0.765625 3.375 -1.328125 3.375 -1.609375 C 3.375 -1.96875 3.109375 -2.203125 2.640625 -2.203125 C 2.1875 -2.203125 1.875 -1.921875 1.703125 -1.703125 C 1.671875 -2.109375 1.28125 -2.203125 1.09375 -2.203125 C 0.59375 -2.203125 0.453125 -1.4375 0.453125 -1.421875 C 0.453125 -1.359375 0.53125 -1.359375 0.5625 -1.359375 C 0.640625 -1.359375 0.65625 -1.390625 0.671875 -1.453125 C 0.75 -1.734375 0.859375 -2.03125 1.0625 -2.03125 C 1.234375 -2.03125 1.265625 -1.875 1.265625 -1.765625 C 1.265625 -1.6875 1.21875 -1.5 1.1875 -1.375 C 1.15625 -1.234375 1.109375 -1.03125 1.078125 -0.921875 Z M 0.96875 -0.484375 "/></g><g id="68ee5339e4bd9a39ee507c33ea11e85dy6e7uvpo__glyph-6-1"><path d="M 3.25 -0.703125 C 3.6875 -1.09375 3.9375 -1.78125 3.9375 -1.890625 C 3.9375 -1.953125 3.859375 -1.953125 3.828125 -1.953125 C 3.734375 -1.953125 3.734375 -1.9375 3.71875 -1.828125 C 3.59375 -1.421875 3.359375 -1.109375 3.234375 -0.953125 C 3.21875 -1.0625 3.21875 -1.078125 3.203125 -1.21875 C 3.140625 -1.96875 2.546875 -2.203125 2.09375 -2.203125 C 1.265625 -2.203125 0.53125 -1.515625 0.53125 -0.84375 C 0.53125 -0.34375 0.9375 0.046875 1.578125 0.046875 C 1.8125 0.046875 2.3125 0 2.859375 -0.375 C 2.953125 -0.15625 3.140625 0.046875 3.46875 0.046875 C 3.796875 0.046875 3.984375 -0.1875 3.984375 -0.296875 C 3.984375 -0.375 3.921875 -0.375 3.875 -0.375 C 3.828125 -0.375 3.796875 -0.375 3.78125 -0.296875 C 3.703125 -0.140625 3.515625 -0.109375 3.484375 -0.109375 C 3.375 -0.109375 3.28125 -0.203125 3.25 -0.703125 Z M 2.828125 -0.5625 C 2.625 -0.421875 2.171875 -0.109375 1.59375 -0.109375 C 1.28125 -0.109375 0.984375 -0.265625 0.984375 -0.703125 C 0.984375 -0.859375 1.0625 -1.328125 1.3125 -1.640625 C 1.46875 -1.84375 1.78125 -2.03125 2.09375 -2.03125 C 2.59375 -2.03125 2.71875 -1.515625 2.765625 -1.234375 C 2.78125 -1.125 2.78125 -0.859375 2.828125 -0.5625 Z M 2.828125 -0.5625 "/></g><g id="68ee5339e4bd9a39ee507c33ea11e85dy6e7uvpo__glyph-6-2"><path d="M 1.34375 -0.0625 C 1.34375 0.40625 1.078125 0.6875 0.953125 0.796875 C 0.90625 0.828125 0.890625 0.84375 0.890625 0.875 C 0.890625 0.90625 0.9375 0.96875 0.984375 0.96875 C 1.046875 0.96875 1.515625 0.578125 1.515625 -0.046875 C 1.515625 -0.375 1.359375 -0.609375 1.140625 -0.609375 C 0.953125 -0.609375 0.828125 -0.453125 0.828125 -0.296875 C 0.828125 -0.140625 0.953125 0 1.140625 0 C 1.21875 0 1.28125 -0.015625 1.34375 -0.0625 Z M 1.34375 -0.0625 "/></g><g id="68ee5339e4bd9a39ee507c33ea11e85dy6e7uvpo__glyph-6-3"><path d="M 3.625 -2.78125 C 3.625 -3.296875 3.109375 -3.515625 2.65625 -3.515625 C 2.015625 -3.515625 1.390625 -2.828125 1.25 -2.25 L 0.46875 0.875 C 0.453125 0.9375 0.5 0.96875 0.578125 0.96875 C 0.625 0.96875 0.65625 0.953125 0.671875 0.890625 L 0.984375 -0.375 L 1 -0.375 C 1.203125 -0.078125 1.46875 0.046875 1.8125 0.046875 C 2.6875 0.046875 3.46875 -0.484375 3.46875 -1.171875 C 3.46875 -1.53125 3.3125 -1.765625 3.046875 -1.96875 C 3.296875 -2.09375 3.625 -2.390625 3.625 -2.78125 Z M 2.5 -1.953125 C 2.421875 -1.9375 2.328125 -1.9375 2.21875 -1.9375 C 2.15625 -1.9375 2.078125 -1.9375 2 -1.953125 C 2.09375 -1.96875 2.203125 -1.984375 2.296875 -1.984375 C 2.359375 -1.984375 2.4375 -1.96875 2.5 -1.953125 Z M 3.25 -2.875 C 3.25 -2.546875 3.078125 -2.234375 2.796875 -2.078125 C 2.6875 -2.109375 2.4375 -2.140625 2.296875 -2.140625 C 2.15625 -2.140625 1.765625 -2.15625 1.765625 -1.9375 C 1.765625 -1.796875 1.921875 -1.765625 2.21875 -1.765625 C 2.5 -1.765625 2.609375 -1.796875 2.78125 -1.84375 C 2.984375 -1.71875 3.0625 -1.515625 3.0625 -1.296875 C 3.0625 -0.59375 2.53125 -0.125 1.859375 -0.125 C 1.46875 -0.125 1.109375 -0.3125 1.109375 -0.734375 C 1.109375 -0.78125 1.109375 -0.84375 1.125 -0.921875 L 1.4375 -2.171875 C 1.578125 -2.75 2.09375 -3.34375 2.65625 -3.34375 C 2.921875 -3.34375 3.25 -3.25 3.25 -2.875 Z M 3.25 -2.875 "/></g><g id="68ee5339e4bd9a39ee507c33ea11e85dy6e7uvpo__glyph-7-0"><path d="M 1.90625 -1.375 C 1.921875 -1.46875 2 -2.109375 2 -2.15625 C 2 -2.234375 1.921875 -2.3125 1.828125 -2.3125 C 1.71875 -2.3125 1.65625 -2.234375 1.65625 -2.15625 C 1.65625 -2.109375 1.734375 -1.46875 1.75 -1.375 L 0.96875 -1.828125 C 0.921875 -1.859375 0.90625 -1.875 0.859375 -1.875 C 0.78125 -1.875 0.6875 -1.796875 0.6875 -1.6875 C 0.6875 -1.609375 0.734375 -1.5625 0.796875 -1.546875 C 1.0625 -1.4375 1.34375 -1.34375 1.625 -1.234375 C 1.34375 -1.140625 0.890625 -0.96875 0.8125 -0.9375 C 0.78125 -0.921875 0.6875 -0.890625 0.6875 -0.78125 C 0.6875 -0.671875 0.78125 -0.59375 0.859375 -0.59375 C 0.921875 -0.59375 1.0625 -0.703125 1.75 -1.109375 C 1.734375 -1 1.65625 -0.375 1.65625 -0.328125 C 1.65625 -0.25 1.71875 -0.171875 1.828125 -0.171875 C 1.921875 -0.171875 2 -0.234375 2 -0.328125 C 2 -0.375 1.921875 -1.015625 1.90625 -1.109375 L 2.703125 -0.640625 C 2.734375 -0.609375 2.75 -0.59375 2.796875 -0.59375 C 2.875 -0.59375 2.96875 -0.671875 2.96875 -0.78125 C 2.96875 -0.859375 2.921875 -0.921875 2.859375 -0.9375 C 2.59375 -1.046875 2.3125 -1.140625 2.03125 -1.234375 C 2.3125 -1.34375 2.765625 -1.5 2.84375 -1.546875 C 2.875 -1.5625 2.96875 -1.578125 2.96875 -1.6875 C 2.96875 -1.796875 2.875 -1.875 2.796875 -1.875 C 2.75 -1.875 2.734375 -1.859375 2.6875 -1.828125 Z M 1.90625 -1.375 "/></g><g id="68ee5339e4bd9a39ee507c33ea11e85dy6e7uvpo__glyph-7-1"><path d="M 4.375 -1.109375 C 4.453125 -1.109375 4.59375 -1.109375 4.59375 -1.234375 C 4.59375 -1.375 4.453125 -1.375 4.375 -1.375 L 1.015625 -1.375 C 0.921875 -1.375 0.796875 -1.375 0.796875 -1.234375 C 0.796875 -1.109375 0.921875 -1.109375 1.015625 -1.109375 Z M 4.375 -1.109375 "/></g><g id="68ee5339e4bd9a39ee507c33ea11e85dy6e7uvpo__glyph-8-0"><path d="M 1.984375 -3.15625 C 1.984375 -3.3125 1.96875 -3.3125 1.796875 -3.3125 C 1.453125 -2.984375 0.890625 -2.984375 0.796875 -2.984375 L 0.703125 -2.984375 L 0.703125 -2.765625 L 0.796875 -2.765625 C 0.90625 -2.765625 1.234375 -2.78125 1.515625 -2.90625 L 1.515625 -0.421875 C 1.515625 -0.265625 1.515625 -0.21875 1 -0.21875 L 0.75 -0.21875 L 0.75 0 C 1.015625 -0.015625 1.453125 -0.015625 1.75 -0.015625 C 2.03125 -0.015625 2.484375 -0.015625 2.75 0 L 2.75 -0.21875 L 2.5 -0.21875 C 1.984375 -0.21875 1.984375 -0.265625 1.984375 -0.421875 Z M 1.984375 -3.15625 "/></g></g></defs><g fill="rgb(0%, 0%, 0%)" fill-opacity="1"><use xlink:href="#68ee5339e4bd9a39ee507c33ea11e85dy6e7uvpo__glyph-0-0" x="37.824099" y="13.813149"/></g><g fill="rgb(0%, 0%, 0%)" fill-opacity="1"><use xlink:href="#68ee5339e4bd9a39ee507c33ea11e85dy6e7uvpo__glyph-1-0" x="46.097589" y="15.305614"/></g><g fill="rgb(0%, 0%, 0%)" fill-opacity="1"><use xlink:href="#68ee5339e4bd9a39ee507c33ea11e85dy6e7uvpo__glyph-2-0" x="51.515018" y="13.813149"/></g><g fill="rgb(0%, 0%, 0%)" fill-opacity="1"><use xlink:href="#68ee5339e4bd9a39ee507c33ea11e85dy6e7uvpo__glyph-0-1" x="55.385492" y="13.813149"/></g><g fill="rgb(0%, 0%, 0%)" fill-opacity="1"><use xlink:href="#68ee5339e4bd9a39ee507c33ea11e85dy6e7uvpo__glyph-1-0" x="63.901279" y="10.201863"/></g><g fill="rgb(0%, 0%, 0%)" fill-opacity="1"><use xlink:href="#68ee5339e4bd9a39ee507c33ea11e85dy6e7uvpo__glyph-1-1" x="63.624563" y="16.273618"/></g><g fill="rgb(0%, 0%, 0%)" fill-opacity="1"><use xlink:href="#68ee5339e4bd9a39ee507c33ea11e85dy6e7uvpo__glyph-0-2" x="69.318707" y="13.813149"/></g><g fill="rgb(0%, 0%, 0%)" fill-opacity="1"><use xlink:href="#68ee5339e4bd9a39ee507c33ea11e85dy6e7uvpo__glyph-0-3" x="73.745518" y="13.813149"/></g><g fill="rgb(0%, 0%, 0%)" fill-opacity="1"><use xlink:href="#68ee5339e4bd9a39ee507c33ea11e85dy6e7uvpo__glyph-0-1" x="79.576609" y="13.813149"/></g><g fill="rgb(0%, 0%, 0%)" fill-opacity="1"><use xlink:href="#68ee5339e4bd9a39ee507c33ea11e85dy6e7uvpo__glyph-1-0" x="88.094396" y="10.201863"/></g><g fill="rgb(0%, 0%, 0%)" fill-opacity="1"><use xlink:href="#68ee5339e4bd9a39ee507c33ea11e85dy6e7uvpo__glyph-1-1" x="87.81868" y="16.273618"/></g><g fill="rgb(0%, 0%, 0%)" fill-opacity="1"><use xlink:href="#68ee5339e4bd9a39ee507c33ea11e85dy6e7uvpo__glyph-2-1" x="93.511825" y="13.813149"/></g><g fill="rgb(0%, 0%, 0%)" fill-opacity="1"><use xlink:href="#68ee5339e4bd9a39ee507c33ea11e85dy6e7uvpo__glyph-3-0" x="174.134905" y="11.297736"/></g><g fill="rgb(0%, 0%, 0%)" fill-opacity="1"><use xlink:href="#68ee5339e4bd9a39ee507c33ea11e85dy6e7uvpo__glyph-0-0" x="171.805301" y="13.813149"/></g><g fill="rgb(0%, 0%, 0%)" fill-opacity="1"><use xlink:href="#68ee5339e4bd9a39ee507c33ea11e85dy6e7uvpo__glyph-1-0" x="180.077793" y="15.305614"/></g><g fill="rgb(0%, 0%, 0%)" fill-opacity="1"><use xlink:href="#68ee5339e4bd9a39ee507c33ea11e85dy6e7uvpo__glyph-4-0" x="184.997631" y="15.305614"/></g><g fill="rgb(0%, 0%, 0%)" fill-opacity="1"><use xlink:href="#68ee5339e4bd9a39ee507c33ea11e85dy6e7uvpo__glyph-5-0" x="191.218139" y="15.305614"/></g><g fill="rgb(0%, 0%, 0%)" fill-opacity="1"><use xlink:href="#68ee5339e4bd9a39ee507c33ea11e85dy6e7uvpo__glyph-2-0" x="195.682744" y="13.813149"/></g><g fill="rgb(0%, 0%, 0%)" fill-opacity="1"><use xlink:href="#68ee5339e4bd9a39ee507c33ea11e85dy6e7uvpo__glyph-0-3" x="199.553218" y="13.813149"/></g><g fill="rgb(0%, 0%, 0%)" fill-opacity="1"><use xlink:href="#68ee5339e4bd9a39ee507c33ea11e85dy6e7uvpo__glyph-0-1" x="205.394261" y="13.813149"/></g><g fill="rgb(0%, 0%, 0%)" fill-opacity="1"><use xlink:href="#68ee5339e4bd9a39ee507c33ea11e85dy6e7uvpo__glyph-1-0" x="213.906001" y="10.201863"/></g><g fill="rgb(0%, 0%, 0%)" fill-opacity="1"><use xlink:href="#68ee5339e4bd9a39ee507c33ea11e85dy6e7uvpo__glyph-1-1" x="213.630285" y="16.273618"/></g><g fill="rgb(0%, 0%, 0%)" fill-opacity="1"><use xlink:href="#68ee5339e4bd9a39ee507c33ea11e85dy6e7uvpo__glyph-2-1" x="219.32343" y="13.813149"/></g><g fill="rgb(0%, 0%, 0%)" fill-opacity="1"><use xlink:href="#68ee5339e4bd9a39ee507c33ea11e85dy6e7uvpo__glyph-3-0" x="341.789475" y="11.297736"/></g><g fill="rgb(0%, 0%, 0%)" fill-opacity="1"><use xlink:href="#68ee5339e4bd9a39ee507c33ea11e85dy6e7uvpo__glyph-0-0" x="339.459871" y="13.813149"/></g><g fill="rgb(0%, 0%, 0%)" fill-opacity="1"><use xlink:href="#68ee5339e4bd9a39ee507c33ea11e85dy6e7uvpo__glyph-1-0" x="347.732363" y="15.305614"/></g><g fill="rgb(0%, 0%, 0%)" fill-opacity="1"><use xlink:href="#68ee5339e4bd9a39ee507c33ea11e85dy6e7uvpo__glyph-4-0" x="352.652201" y="15.305614"/></g><g fill="rgb(0%, 0%, 0%)" fill-opacity="1"><use xlink:href="#68ee5339e4bd9a39ee507c33ea11e85dy6e7uvpo__glyph-5-0" x="358.872709" y="15.305614"/></g><g fill="rgb(0%, 0%, 0%)" fill-opacity="1"><use xlink:href="#68ee5339e4bd9a39ee507c33ea11e85dy6e7uvpo__glyph-2-0" x="363.337314" y="13.813149"/></g><g fill="rgb(0%, 0%, 0%)" fill-opacity="1"><use xlink:href="#68ee5339e4bd9a39ee507c33ea11e85dy6e7uvpo__glyph-0-4" x="367.207788" y="13.813149"/></g><g fill="rgb(0%, 0%, 0%)" fill-opacity="1"><use xlink:href="#68ee5339e4bd9a39ee507c33ea11e85dy6e7uvpo__glyph-1-0" x="373.884466" y="9.555528"/></g><g fill="rgb(0%, 0%, 0%)" fill-opacity="1"><use xlink:href="#68ee5339e4bd9a39ee507c33ea11e85dy6e7uvpo__glyph-4-0" x="378.804304" y="9.555528"/></g><g fill="rgb(0%, 0%, 0%)" fill-opacity="1"><use xlink:href="#68ee5339e4bd9a39ee507c33ea11e85dy6e7uvpo__glyph-5-0" x="385.024812" y="9.555528"/></g><g fill="rgb(0%, 0%, 0%)" fill-opacity="1"><use xlink:href="#68ee5339e4bd9a39ee507c33ea11e85dy6e7uvpo__glyph-1-2" x="373.311056" y="16.815061"/></g><g fill="rgb(0%, 0%, 0%)" fill-opacity="1"><use xlink:href="#68ee5339e4bd9a39ee507c33ea11e85dy6e7uvpo__glyph-2-1" x="389.489417" y="13.813149"/></g><g fill="rgb(0%, 0%, 0%)" fill-opacity="1"><use xlink:href="#68ee5339e4bd9a39ee507c33ea11e85dy6e7uvpo__glyph-0-0" x="35.920057" y="70.987346"/></g><g fill="rgb(0%, 0%, 0%)" fill-opacity="1"><use xlink:href="#68ee5339e4bd9a39ee507c33ea11e85dy6e7uvpo__glyph-1-0" x="44.192549" y="72.479811"/></g><g fill="rgb(0%, 0%, 0%)" fill-opacity="1"><use xlink:href="#68ee5339e4bd9a39ee507c33ea11e85dy6e7uvpo__glyph-2-0" x="49.609977" y="70.987346"/></g><g fill="rgb(0%, 0%, 0%)" fill-opacity="1"><use xlink:href="#68ee5339e4bd9a39ee507c33ea11e85dy6e7uvpo__glyph-0-5" x="53.480451" y="70.987346"/></g><g fill="rgb(0%, 0%, 0%)" fill-opacity="1"><use xlink:href="#68ee5339e4bd9a39ee507c33ea11e85dy6e7uvpo__glyph-1-0" x="61.725516" y="72.479811"/></g><g fill="rgb(0%, 0%, 0%)" fill-opacity="1"><use xlink:href="#68ee5339e4bd9a39ee507c33ea11e85dy6e7uvpo__glyph-0-2" x="67.142945" y="70.987346"/></g><g fill="rgb(0%, 0%, 0%)" fill-opacity="1"><use xlink:href="#68ee5339e4bd9a39ee507c33ea11e85dy6e7uvpo__glyph-0-5" x="71.569756" y="70.987346"/></g><g fill="rgb(0%, 0%, 0%)" fill-opacity="1"><use xlink:href="#68ee5339e4bd9a39ee507c33ea11e85dy6e7uvpo__glyph-1-0" x="79.811915" y="72.479811"/></g><g fill="rgb(0%, 0%, 0%)" fill-opacity="1"><use xlink:href="#68ee5339e4bd9a39ee507c33ea11e85dy6e7uvpo__glyph-4-0" x="84.731752" y="72.479811"/></g><g fill="rgb(0%, 0%, 0%)" fill-opacity="1"><use xlink:href="#68ee5339e4bd9a39ee507c33ea11e85dy6e7uvpo__glyph-5-0" x="90.952261" y="72.479811"/></g><g fill="rgb(0%, 0%, 0%)" fill-opacity="1"><use xlink:href="#68ee5339e4bd9a39ee507c33ea11e85dy6e7uvpo__glyph-2-1" x="95.416865" y="70.987346"/></g><g fill="rgb(0%, 0%, 0%)" fill-opacity="1"><use xlink:href="#68ee5339e4bd9a39ee507c33ea11e85dy6e7uvpo__glyph-3-0" x="172.095003" y="68.470934"/></g><g fill="rgb(0%, 0%, 0%)" fill-opacity="1"><use xlink:href="#68ee5339e4bd9a39ee507c33ea11e85dy6e7uvpo__glyph-0-0" x="169.765399" y="70.987346"/></g><g fill="rgb(0%, 0%, 0%)" fill-opacity="1"><use xlink:href="#68ee5339e4bd9a39ee507c33ea11e85dy6e7uvpo__glyph-1-0" x="178.037891" y="72.479811"/></g><g fill="rgb(0%, 0%, 0%)" fill-opacity="1"><use xlink:href="#68ee5339e4bd9a39ee507c33ea11e85dy6e7uvpo__glyph-4-0" x="182.957729" y="72.479811"/></g><g fill="rgb(0%, 0%, 0%)" fill-opacity="1"><use xlink:href="#68ee5339e4bd9a39ee507c33ea11e85dy6e7uvpo__glyph-5-0" x="189.178237" y="72.479811"/></g><g fill="rgb(0%, 0%, 0%)" fill-opacity="1"><use xlink:href="#68ee5339e4bd9a39ee507c33ea11e85dy6e7uvpo__glyph-2-0" x="193.642842" y="70.987346"/></g><g fill="rgb(0%, 0%, 0%)" fill-opacity="1"><use xlink:href="#68ee5339e4bd9a39ee507c33ea11e85dy6e7uvpo__glyph-0-5" x="197.513316" y="70.987346"/></g><g fill="rgb(0%, 0%, 0%)" fill-opacity="1"><use xlink:href="#68ee5339e4bd9a39ee507c33ea11e85dy6e7uvpo__glyph-1-0" x="205.758381" y="72.479811"/></g><g fill="rgb(0%, 0%, 0%)" fill-opacity="1"><use xlink:href="#68ee5339e4bd9a39ee507c33ea11e85dy6e7uvpo__glyph-4-0" x="210.678219" y="72.479811"/></g><g fill="rgb(0%, 0%, 0%)" fill-opacity="1"><use xlink:href="#68ee5339e4bd9a39ee507c33ea11e85dy6e7uvpo__glyph-5-0" x="216.898727" y="72.479811"/></g><g fill="rgb(0%, 0%, 0%)" fill-opacity="1"><use xlink:href="#68ee5339e4bd9a39ee507c33ea11e85dy6e7uvpo__glyph-2-1" x="221.363332" y="70.987346"/></g><g fill="rgb(0%, 0%, 0%)" fill-opacity="1"><use xlink:href="#68ee5339e4bd9a39ee507c33ea11e85dy6e7uvpo__glyph-3-0" x="326.591107" y="68.470934"/></g><g fill="rgb(0%, 0%, 0%)" fill-opacity="1"><use xlink:href="#68ee5339e4bd9a39ee507c33ea11e85dy6e7uvpo__glyph-0-0" x="324.262502" y="70.987346"/></g><g fill="rgb(0%, 0%, 0%)" fill-opacity="1"><use xlink:href="#68ee5339e4bd9a39ee507c33ea11e85dy6e7uvpo__glyph-1-0" x="332.534993" y="72.479811"/></g><g fill="rgb(0%, 0%, 0%)" fill-opacity="1"><use xlink:href="#68ee5339e4bd9a39ee507c33ea11e85dy6e7uvpo__glyph-4-0" x="337.454831" y="72.479811"/></g><g fill="rgb(0%, 0%, 0%)" fill-opacity="1"><use xlink:href="#68ee5339e4bd9a39ee507c33ea11e85dy6e7uvpo__glyph-5-0" x="343.675339" y="72.479811"/></g><g fill="rgb(0%, 0%, 0%)" fill-opacity="1"><use xlink:href="#68ee5339e4bd9a39ee507c33ea11e85dy6e7uvpo__glyph-2-0" x="348.139944" y="70.987346"/></g><g fill="rgb(0%, 0%, 0%)" fill-opacity="1"><use xlink:href="#68ee5339e4bd9a39ee507c33ea11e85dy6e7uvpo__glyph-0-5" x="352.010418" y="70.987346"/></g><g fill="rgb(0%, 0%, 0%)" fill-opacity="1"><use xlink:href="#68ee5339e4bd9a39ee507c33ea11e85dy6e7uvpo__glyph-1-0" x="360.255483" y="72.479811"/></g><g fill="rgb(0%, 0%, 0%)" fill-opacity="1"><use xlink:href="#68ee5339e4bd9a39ee507c33ea11e85dy6e7uvpo__glyph-4-0" x="365.175321" y="72.479811"/></g><g fill="rgb(0%, 0%, 0%)" fill-opacity="1"><use xlink:href="#68ee5339e4bd9a39ee507c33ea11e85dy6e7uvpo__glyph-5-0" x="371.395829" y="72.479811"/></g><g fill="rgb(0%, 0%, 0%)" fill-opacity="1"><use xlink:href="#68ee5339e4bd9a39ee507c33ea11e85dy6e7uvpo__glyph-0-6" x="375.860434" y="70.987346"/><use xlink:href="#68ee5339e4bd9a39ee507c33ea11e85dy6e7uvpo__glyph-0-5" x="380.836616" y="70.987346"/></g><g fill="rgb(0%, 0%, 0%)" fill-opacity="1"><use xlink:href="#68ee5339e4bd9a39ee507c33ea11e85dy6e7uvpo__glyph-1-0" x="389.081836" y="72.479811"/></g><g fill="rgb(0%, 0%, 0%)" fill-opacity="1"><use xlink:href="#68ee5339e4bd9a39ee507c33ea11e85dy6e7uvpo__glyph-4-0" x="394.001674" y="72.479811"/></g><g fill="rgb(0%, 0%, 0%)" fill-opacity="1"><use xlink:href="#68ee5339e4bd9a39ee507c33ea11e85dy6e7uvpo__glyph-5-1" x="400.222182" y="72.479811"/></g><g fill="rgb(0%, 0%, 0%)" fill-opacity="1"><use xlink:href="#68ee5339e4bd9a39ee507c33ea11e85dy6e7uvpo__glyph-2-1" x="404.686787" y="70.987346"/></g><g fill="rgb(0%, 0%, 0%)" fill-opacity="1"><use xlink:href="#68ee5339e4bd9a39ee507c33ea11e85dy6e7uvpo__glyph-0-0" x="155.628938" y="124.052769"/></g><g fill="rgb(0%, 0%, 0%)" fill-opacity="1"><use xlink:href="#68ee5339e4bd9a39ee507c33ea11e85dy6e7uvpo__glyph-1-0" x="163.90143" y="125.545234"/></g><g fill="rgb(0%, 0%, 0%)" fill-opacity="1"><use xlink:href="#68ee5339e4bd9a39ee507c33ea11e85dy6e7uvpo__glyph-4-0" x="168.821268" y="125.545234"/></g><g fill="rgb(0%, 0%, 0%)" fill-opacity="1"><use xlink:href="#68ee5339e4bd9a39ee507c33ea11e85dy6e7uvpo__glyph-5-0" x="175.041776" y="125.545234"/></g><g fill="rgb(0%, 0%, 0%)" fill-opacity="1"><use xlink:href="#68ee5339e4bd9a39ee507c33ea11e85dy6e7uvpo__glyph-2-0" x="179.506381" y="124.052769"/></g><g fill="rgb(0%, 0%, 0%)" fill-opacity="1"><use xlink:href="#68ee5339e4bd9a39ee507c33ea11e85dy6e7uvpo__glyph-0-5" x="183.376855" y="124.052769"/></g><g fill="rgb(0%, 0%, 0%)" fill-opacity="1"><use xlink:href="#68ee5339e4bd9a39ee507c33ea11e85dy6e7uvpo__glyph-1-0" x="191.62192" y="125.545234"/></g><g fill="rgb(0%, 0%, 0%)" fill-opacity="1"><use xlink:href="#68ee5339e4bd9a39ee507c33ea11e85dy6e7uvpo__glyph-4-0" x="196.541758" y="125.545234"/></g><g fill="rgb(0%, 0%, 0%)" fill-opacity="1"><use xlink:href="#68ee5339e4bd9a39ee507c33ea11e85dy6e7uvpo__glyph-5-0" x="202.762266" y="125.545234"/></g><g fill="rgb(0%, 0%, 0%)" fill-opacity="1"><use xlink:href="#68ee5339e4bd9a39ee507c33ea11e85dy6e7uvpo__glyph-0-2" x="207.226871" y="124.052769"/></g><g fill="rgb(0%, 0%, 0%)" fill-opacity="1"><use xlink:href="#68ee5339e4bd9a39ee507c33ea11e85dy6e7uvpo__glyph-0-5" x="211.653682" y="124.052769"/></g><g fill="rgb(0%, 0%, 0%)" fill-opacity="1"><use xlink:href="#68ee5339e4bd9a39ee507c33ea11e85dy6e7uvpo__glyph-1-0" x="219.895841" y="125.545234"/></g><g fill="rgb(0%, 0%, 0%)" fill-opacity="1"><use xlink:href="#68ee5339e4bd9a39ee507c33ea11e85dy6e7uvpo__glyph-4-0" x="224.815678" y="125.545234"/></g><g fill="rgb(0%, 0%, 0%)" fill-opacity="1"><use xlink:href="#68ee5339e4bd9a39ee507c33ea11e85dy6e7uvpo__glyph-5-1" x="231.036187" y="125.545234"/></g><g fill="rgb(0%, 0%, 0%)" fill-opacity="1"><use xlink:href="#68ee5339e4bd9a39ee507c33ea11e85dy6e7uvpo__glyph-2-1" x="235.500791" y="124.052769"/></g><g fill="rgb(0%, 0%, 0%)" fill-opacity="1"><use xlink:href="#68ee5339e4bd9a39ee507c33ea11e85dy6e7uvpo__glyph-0-0" x="295.712864" y="124.052769"/></g><g fill="rgb(0%, 0%, 0%)" fill-opacity="1"><use xlink:href="#68ee5339e4bd9a39ee507c33ea11e85dy6e7uvpo__glyph-1-0" x="303.985356" y="125.545234"/></g><g fill="rgb(0%, 0%, 0%)" fill-opacity="1"><use xlink:href="#68ee5339e4bd9a39ee507c33ea11e85dy6e7uvpo__glyph-4-0" x="308.905194" y="125.545234"/></g><g fill="rgb(0%, 0%, 0%)" fill-opacity="1"><use xlink:href="#68ee5339e4bd9a39ee507c33ea11e85dy6e7uvpo__glyph-5-0" x="315.125702" y="125.545234"/></g><g fill="rgb(0%, 0%, 0%)" fill-opacity="1"><use xlink:href="#68ee5339e4bd9a39ee507c33ea11e85dy6e7uvpo__glyph-2-0" x="319.590307" y="124.052769"/></g><g fill="rgb(0%, 0%, 0%)" fill-opacity="1"><use xlink:href="#68ee5339e4bd9a39ee507c33ea11e85dy6e7uvpo__glyph-0-5" x="323.460781" y="124.052769"/></g><g fill="rgb(0%, 0%, 0%)" fill-opacity="1"><use xlink:href="#68ee5339e4bd9a39ee507c33ea11e85dy6e7uvpo__glyph-1-0" x="331.705846" y="125.545234"/></g><g fill="rgb(0%, 0%, 0%)" fill-opacity="1"><use xlink:href="#68ee5339e4bd9a39ee507c33ea11e85dy6e7uvpo__glyph-4-0" x="336.625684" y="125.545234"/></g><g fill="rgb(0%, 0%, 0%)" fill-opacity="1"><use xlink:href="#68ee5339e4bd9a39ee507c33ea11e85dy6e7uvpo__glyph-5-0" x="342.846192" y="125.545234"/></g><g fill="rgb(0%, 0%, 0%)" fill-opacity="1"><use xlink:href="#68ee5339e4bd9a39ee507c33ea11e85dy6e7uvpo__glyph-0-6" x="347.310797" y="124.052769"/><use xlink:href="#68ee5339e4bd9a39ee507c33ea11e85dy6e7uvpo__glyph-0-5" x="352.286979" y="124.052769"/></g><g fill="rgb(0%, 0%, 0%)" fill-opacity="1"><use xlink:href="#68ee5339e4bd9a39ee507c33ea11e85dy6e7uvpo__glyph-1-0" x="360.532199" y="125.545234"/></g><g fill="rgb(0%, 0%, 0%)" fill-opacity="1"><use xlink:href="#68ee5339e4bd9a39ee507c33ea11e85dy6e7uvpo__glyph-4-0" x="365.452036" y="125.545234"/></g><g fill="rgb(0%, 0%, 0%)" fill-opacity="1"><use xlink:href="#68ee5339e4bd9a39ee507c33ea11e85dy6e7uvpo__glyph-5-1" x="371.672545" y="125.545234"/></g><g fill="rgb(0%, 0%, 0%)" fill-opacity="1"><use xlink:href="#68ee5339e4bd9a39ee507c33ea11e85dy6e7uvpo__glyph-0-2" x="376.137149" y="124.052769"/></g><g fill="rgb(0%, 0%, 0%)" fill-opacity="1"><use xlink:href="#68ee5339e4bd9a39ee507c33ea11e85dy6e7uvpo__glyph-0-5" x="380.563961" y="124.052769"/></g><g fill="rgb(0%, 0%, 0%)" fill-opacity="1"><use xlink:href="#68ee5339e4bd9a39ee507c33ea11e85dy6e7uvpo__glyph-1-0" x="388.80612" y="125.545234"/></g><g fill="rgb(0%, 0%, 0%)" fill-opacity="1"><use xlink:href="#68ee5339e4bd9a39ee507c33ea11e85dy6e7uvpo__glyph-4-0" x="393.725957" y="125.545234"/></g><g fill="rgb(0%, 0%, 0%)" fill-opacity="1"><use xlink:href="#68ee5339e4bd9a39ee507c33ea11e85dy6e7uvpo__glyph-5-1" x="399.946465" y="125.545234"/></g><g fill="rgb(0%, 0%, 0%)" fill-opacity="1"><use xlink:href="#68ee5339e4bd9a39ee507c33ea11e85dy6e7uvpo__glyph-0-6" x="404.410071" y="124.052769"/><use xlink:href="#68ee5339e4bd9a39ee507c33ea11e85dy6e7uvpo__glyph-0-5" x="409.386253" y="124.052769"/></g><g fill="rgb(0%, 0%, 0%)" fill-opacity="1"><use xlink:href="#68ee5339e4bd9a39ee507c33ea11e85dy6e7uvpo__glyph-1-0" x="417.632472" y="125.545234"/></g><g fill="rgb(0%, 0%, 0%)" fill-opacity="1"><use xlink:href="#68ee5339e4bd9a39ee507c33ea11e85dy6e7uvpo__glyph-4-0" x="422.55231" y="125.545234"/></g><g fill="rgb(0%, 0%, 0%)" fill-opacity="1"><use xlink:href="#68ee5339e4bd9a39ee507c33ea11e85dy6e7uvpo__glyph-5-1" x="428.772818" y="125.545234"/></g><g fill="rgb(0%, 0%, 0%)" fill-opacity="1"><use xlink:href="#68ee5339e4bd9a39ee507c33ea11e85dy6e7uvpo__glyph-2-1" x="433.236424" y="124.052769"/></g><path fill="none" stroke="rgb(0%, 0%, 0%)" stroke-linecap="butt" stroke-linejoin="miter" stroke-miterlimit="10" stroke-opacity="1" stroke-width="0.39848" d="M -134.785044 54.05649 L -69.663449 54.05649 " transform="matrix(0.998973, 0, 0, -0.998973, 236.51375, 65.32517)"/><path fill="none" stroke="rgb(0%, 0%, 0%)" stroke-linecap="round" stroke-linejoin="round" stroke-miterlimit="10" stroke-opacity="1" stroke-width="0.39848" d="M -2.072867 2.389293 C -1.693571 0.958135 -0.848953 0.277749 -0.000425071 0.000119827 C -0.848953 -0.277509 -1.693571 -0.957896 -2.072867 -2.389054 " transform="matrix(0.998973, 0, 0, -0.998973, 167.121518, 11.324338)"/><g fill="rgb(0%, 0%, 0%)" fill-opacity="1"><use xlink:href="#68ee5339e4bd9a39ee507c33ea11e85dy6e7uvpo__glyph-4-1" x="131.483771" y="6.805356"/></g><g fill="rgb(0%, 0%, 0%)" fill-opacity="1"><use xlink:href="#68ee5339e4bd9a39ee507c33ea11e85dy6e7uvpo__glyph-5-2" x="131.539714" y="8.983116"/></g><path fill="none" stroke="rgb(0%, 0%, 0%)" stroke-linecap="butt" stroke-linejoin="miter" stroke-miterlimit="10" stroke-opacity="1" stroke-width="0.39848" d="M -134.785044 54.05649 L -69.663449 54.05649 " transform="matrix(0.998973, 0, 0, -0.998973, 236.51375, 65.32517)"/><path fill="none" stroke="rgb(0%, 0%, 0%)" stroke-linecap="round" stroke-linejoin="round" stroke-miterlimit="10" stroke-opacity="1" stroke-width="0.39848" d="M -2.072867 2.389293 C -1.693571 0.958135 -0.848953 0.277749 -0.000425071 0.000119827 C -0.848953 -0.277509 -1.693571 -0.957896 -2.072867 -2.389054 " transform="matrix(0.998973, 0, 0, -0.998973, 167.121518, 11.324338)"/><g fill="rgb(0%, 0%, 0%)" fill-opacity="1"><use xlink:href="#68ee5339e4bd9a39ee507c33ea11e85dy6e7uvpo__glyph-1-3" x="130.344942" y="18.504324"/></g><g fill="rgb(0%, 0%, 0%)" fill-opacity="1"><use xlink:href="#68ee5339e4bd9a39ee507c33ea11e85dy6e7uvpo__glyph-6-0" x="133.962222" y="19.5003"/></g><path fill="none" stroke="rgb(0%, 0%, 0%)" stroke-linecap="butt" stroke-linejoin="miter" stroke-miterlimit="10" stroke-opacity="1" stroke-width="0.39848" d="M -169.08591 45.231016 L -169.08591 6.050136 " transform="matrix(0.998973, 0, 0, -0.998973, 236.51375, 65.32517)"/><path fill="none" stroke="rgb(0%, 0%, 0%)" stroke-linecap="round" stroke-linejoin="round" stroke-miterlimit="10" stroke-opacity="1" stroke-width="0.39848" d="M -2.070243 2.389183 C -1.694858 0.958025 -0.85024 0.277639 -0.00171195 0.0000095477 C -0.85024 -0.277619 -1.694858 -0.958006 -2.070243 -2.389164 " transform="matrix(0, 0.998973, 0.998973, 0, 67.601553, 59.482179)"/><g fill="rgb(0%, 0%, 0%)" fill-opacity="1"><use xlink:href="#68ee5339e4bd9a39ee507c33ea11e85dy6e7uvpo__glyph-5-3" x="48.594022" y="41.310868"/></g><g fill="rgb(0%, 0%, 0%)" fill-opacity="1"><use xlink:href="#68ee5339e4bd9a39ee507c33ea11e85dy6e7uvpo__glyph-6-1" x="54.275179" y="42.305845"/><use xlink:href="#68ee5339e4bd9a39ee507c33ea11e85dy6e7uvpo__glyph-6-2" x="58.819926" y="42.305845"/></g><g fill="rgb(0%, 0%, 0%)" fill-opacity="1"><use xlink:href="#68ee5339e4bd9a39ee507c33ea11e85dy6e7uvpo__glyph-7-0" x="61.10051" y="42.305845"/></g><path fill="none" stroke="rgb(0%, 0%, 0%)" stroke-linecap="butt" stroke-linejoin="miter" stroke-miterlimit="10" stroke-opacity="1" stroke-width="0.39848" d="M -8.843148 54.05649 L 98.165233 54.05649 " transform="matrix(0.998973, 0, 0, -0.998973, 236.51375, 65.32517)"/><path fill="none" stroke="rgb(0%, 0%, 0%)" stroke-linecap="round" stroke-linejoin="round" stroke-miterlimit="10" stroke-opacity="1" stroke-width="0.39848" d="M -2.073335 2.389293 C -1.694039 0.958135 -0.849422 0.277749 -0.000893493 0.000119827 C -0.849422 -0.277509 -1.694039 -0.957896 -2.073335 -2.389054 " transform="matrix(0.998973, 0, 0, -0.998973, 334.778236, 11.324338)"/><g fill="rgb(0%, 0%, 0%)" fill-opacity="1"><use xlink:href="#68ee5339e4bd9a39ee507c33ea11e85dy6e7uvpo__glyph-5-4" x="270.469826" y="6.960197"/></g><g fill="rgb(0%, 0%, 0%)" fill-opacity="1"><use xlink:href="#68ee5339e4bd9a39ee507c33ea11e85dy6e7uvpo__glyph-6-1" x="277.008102" y="8.016111"/><use xlink:href="#68ee5339e4bd9a39ee507c33ea11e85dy6e7uvpo__glyph-6-3" x="281.552849" y="8.016111"/></g><g fill="rgb(0%, 0%, 0%)" fill-opacity="1"><use xlink:href="#68ee5339e4bd9a39ee507c33ea11e85dy6e7uvpo__glyph-6-2" x="285.740804" y="8.016111"/></g><g fill="rgb(0%, 0%, 0%)" fill-opacity="1"><use xlink:href="#68ee5339e4bd9a39ee507c33ea11e85dy6e7uvpo__glyph-7-0" x="288.021388" y="8.016111"/></g><path fill="none" stroke="rgb(0%, 0%, 0%)" stroke-linecap="butt" stroke-linejoin="miter" stroke-miterlimit="10" stroke-opacity="1" stroke-width="0.39848" d="M -39.053875 45.231016 L -39.053875 8.290719 " transform="matrix(0.998973, 0, 0, -0.998973, 236.51375, 65.32517)"/><path fill="none" stroke="rgb(0%, 0%, 0%)" stroke-linecap="round" stroke-linejoin="round" stroke-miterlimit="10" stroke-opacity="1" stroke-width="0.39848" d="M -2.073117 2.389709 C -1.693821 0.954641 -0.849203 0.278164 -0.000675234 0.000535363 C -0.849203 -0.277094 -1.693821 -0.95748 -2.073117 -2.392548 " transform="matrix(0, 0.998973, 0.998973, 0, 197.499465, 57.242862)"/><g fill="rgb(0%, 0%, 0%)" fill-opacity="1"><use xlink:href="#68ee5339e4bd9a39ee507c33ea11e85dy6e7uvpo__glyph-1-4" x="178.936966" y="39.310925"/></g><g fill="rgb(0%, 0%, 0%)" fill-opacity="1"><use xlink:href="#68ee5339e4bd9a39ee507c33ea11e85dy6e7uvpo__glyph-6-1" x="184.171583" y="40.305901"/><use xlink:href="#68ee5339e4bd9a39ee507c33ea11e85dy6e7uvpo__glyph-6-2" x="188.71633" y="40.305901"/></g><g fill="rgb(0%, 0%, 0%)" fill-opacity="1"><use xlink:href="#68ee5339e4bd9a39ee507c33ea11e85dy6e7uvpo__glyph-7-0" x="190.996914" y="40.305901"/></g><path fill="none" stroke="rgb(0%, 0%, 0%)" stroke-linecap="butt" stroke-linejoin="miter" stroke-miterlimit="10" stroke-opacity="1" stroke-width="0.39848" d="M -132.880744 -3.178096 L -71.704608 -3.178096 " transform="matrix(0.998973, 0, 0, -0.998973, 236.51375, 65.32517)"/><path fill="none" stroke="rgb(0%, 0%, 0%)" stroke-linecap="round" stroke-linejoin="round" stroke-miterlimit="10" stroke-opacity="1" stroke-width="0.39848" d="M -2.071976 2.391948 C -1.692681 0.95688 -0.848063 0.280404 0.000465288 -0.00113573 C -0.848063 -0.278765 -1.692681 -0.955241 -2.071976 -2.390309 " transform="matrix(0.998973, 0, 0, -0.998973, 165.081566, 68.498865)"/><g fill="rgb(0%, 0%, 0%)" fill-opacity="1"><use xlink:href="#68ee5339e4bd9a39ee507c33ea11e85dy6e7uvpo__glyph-1-3" x="130.277012" y="65.162337"/></g><g fill="rgb(0%, 0%, 0%)" fill-opacity="1"><use xlink:href="#68ee5339e4bd9a39ee507c33ea11e85dy6e7uvpo__glyph-6-0" x="133.894292" y="66.157314"/></g><path fill="none" stroke="rgb(0%, 0%, 0%)" stroke-linecap="butt" stroke-linejoin="miter" stroke-miterlimit="10" stroke-opacity="1" stroke-width="0.39848" d="M -147.481682 -12.00357 L -61.025668 -47.321106 " transform="matrix(0.998973, 0, 0, -0.998973, 236.51375, 65.32517)"/><path fill="none" stroke="rgb(0%, 0%, 0%)" stroke-linecap="round" stroke-linejoin="round" stroke-miterlimit="10" stroke-opacity="1" stroke-width="0.39848" d="M -2.073083 2.389401 C -1.694452 0.9558 -0.851504 0.277899 0.000863461 0.000913644 C -0.84817 -0.278323 -1.694284 -0.957658 -2.071593 -2.391694 " transform="matrix(0.924749, 0.377751, 0.377751, -0.924749, 175.733231, 112.672394)"/><g fill="rgb(0%, 0%, 0%)" fill-opacity="1"><use xlink:href="#68ee5339e4bd9a39ee507c33ea11e85dy6e7uvpo__glyph-1-5" x="121.187361" y="102.211233"/></g><g fill="rgb(0%, 0%, 0%)" fill-opacity="1"><use xlink:href="#68ee5339e4bd9a39ee507c33ea11e85dy6e7uvpo__glyph-6-0" x="125.3301" y="103.20621"/></g><path fill="none" stroke="rgb(0%, 0%, 0%)" stroke-linecap="butt" stroke-linejoin="miter" stroke-miterlimit="10" stroke-opacity="1" stroke-width="0.39848" d="M -6.801988 -3.178096 L 82.954292 -3.178096 " transform="matrix(0.998973, 0, 0, -0.998973, 236.51375, 65.32517)"/><path fill="none" stroke="rgb(0%, 0%, 0%)" stroke-linecap="round" stroke-linejoin="round" stroke-miterlimit="10" stroke-opacity="1" stroke-width="0.39848" d="M -2.070826 2.391948 C -1.69544 0.95688 -0.850822 0.280404 0.00161589 -0.00113573 C -0.850822 -0.278765 -1.69544 -0.955241 -2.070826 -2.390309 " transform="matrix(0.998973, 0, 0, -0.998973, 319.580417, 68.498865)"/><g fill="rgb(0%, 0%, 0%)" fill-opacity="1"><use xlink:href="#68ee5339e4bd9a39ee507c33ea11e85dy6e7uvpo__glyph-1-6" x="270.844441" y="64.802707"/></g><g fill="rgb(0%, 0%, 0%)" fill-opacity="1"><use xlink:href="#68ee5339e4bd9a39ee507c33ea11e85dy6e7uvpo__glyph-7-0" x="274.49169" y="65.797684"/></g><path fill="none" stroke="rgb(0%, 0%, 0%)" stroke-linecap="butt" stroke-linejoin="miter" stroke-miterlimit="10" stroke-opacity="1" stroke-width="0.39848" d="M -39.053875 -12.00357 L -39.053875 -47.070849 " transform="matrix(0.998973, 0, 0, -0.998973, 236.51375, 65.32517)"/><path fill="none" stroke="rgb(0%, 0%, 0%)" stroke-linecap="round" stroke-linejoin="round" stroke-miterlimit="10" stroke-opacity="1" stroke-width="0.39848" d="M -2.070279 2.389709 C -1.694894 0.954641 -0.850276 0.278164 -0.00174781 0.000535363 C -0.850276 -0.277094 -1.694894 -0.95748 -2.070279 -2.392548 " transform="matrix(0, 0.998973, 0.998973, 0, 197.499465, 112.548621)"/><g fill="rgb(0%, 0%, 0%)" fill-opacity="1"><use xlink:href="#68ee5339e4bd9a39ee507c33ea11e85dy6e7uvpo__glyph-1-7" x="178.206717" y="96.424185"/></g><g fill="rgb(0%, 0%, 0%)" fill-opacity="1"><use xlink:href="#68ee5339e4bd9a39ee507c33ea11e85dy6e7uvpo__glyph-6-0" x="181.50033" y="97.42016"/></g><g fill="rgb(0%, 0%, 0%)" fill-opacity="1"><use xlink:href="#68ee5339e4bd9a39ee507c33ea11e85dy6e7uvpo__glyph-7-1" x="185.883351" y="97.42016"/></g><g fill="rgb(0%, 0%, 0%)" fill-opacity="1"><use xlink:href="#68ee5339e4bd9a39ee507c33ea11e85dy6e7uvpo__glyph-8-0" x="191.274049" y="97.42016"/></g><path fill="none" stroke="rgb(0%, 0%, 0%)" stroke-linecap="butt" stroke-linejoin="miter" stroke-miterlimit="10" stroke-opacity="1" stroke-width="0.39848" d="M 130.030003 7.891872 L 130.030003 42.959151 " transform="matrix(0.998973, 0, 0, -0.998973, 236.51375, 65.32517)"/><path fill="none" stroke="rgb(0%, 0%, 0%)" stroke-linecap="round" stroke-linejoin="round" stroke-miterlimit="10" stroke-opacity="1" stroke-width="0.39848" d="M -2.073568 2.390681 C -1.694272 0.955612 -0.849654 0.279136 -0.00112573 0.00150719 C -0.849654 -0.280032 -1.694272 -0.956508 -2.073568 -2.391577 " transform="matrix(0, -0.998973, -0.998973, 0, 366.411662, 22.209813)"/><g fill="rgb(0%, 0%, 0%)" fill-opacity="1"><use xlink:href="#68ee5339e4bd9a39ee507c33ea11e85dy6e7uvpo__glyph-1-6" x="368.751745" y="40.214995"/></g><g fill="rgb(0%, 0%, 0%)" fill-opacity="1"><use xlink:href="#68ee5339e4bd9a39ee507c33ea11e85dy6e7uvpo__glyph-6-3" x="372.398994" y="41.270909"/></g><g fill="rgb(0%, 0%, 0%)" fill-opacity="1"><use xlink:href="#68ee5339e4bd9a39ee507c33ea11e85dy6e7uvpo__glyph-6-2" x="376.586949" y="41.270909"/></g><g fill="rgb(0%, 0%, 0%)" fill-opacity="1"><use xlink:href="#68ee5339e4bd9a39ee507c33ea11e85dy6e7uvpo__glyph-7-0" x="378.867533" y="41.270909"/></g><path fill="none" stroke="rgb(0%, 0%, 0%)" stroke-linecap="butt" stroke-linejoin="miter" stroke-miterlimit="10" stroke-opacity="1" stroke-width="0.39848" d="M 130.030003 -12.00357 L 130.030003 -47.070849 " transform="matrix(0.998973, 0, 0, -0.998973, 236.51375, 65.32517)"/><path fill="none" stroke="rgb(0%, 0%, 0%)" stroke-linecap="round" stroke-linejoin="round" stroke-miterlimit="10" stroke-opacity="1" stroke-width="0.39848" d="M -2.070279 2.391577 C -1.694894 0.956508 -0.850276 0.280032 -0.00174781 -0.00150719 C -0.850276 -0.279136 -1.694894 -0.955612 -2.070279 -2.390681 " transform="matrix(0, 0.998973, 0.998973, 0, 366.411662, 112.548621)"/><g fill="rgb(0%, 0%, 0%)" fill-opacity="1"><use xlink:href="#68ee5339e4bd9a39ee507c33ea11e85dy6e7uvpo__glyph-4-1" x="368.751745" y="95.280361"/></g><g fill="rgb(0%, 0%, 0%)" fill-opacity="1"><use xlink:href="#68ee5339e4bd9a39ee507c33ea11e85dy6e7uvpo__glyph-5-2" x="368.806689" y="97.45912"/></g><path fill="none" stroke="rgb(0%, 0%, 0%)" stroke-linecap="butt" stroke-linejoin="miter" stroke-miterlimit="10" stroke-opacity="1" stroke-width="0.39848" d="M 7.34927 -56.29908 L 54.374147 -56.29908 " transform="matrix(0.998973, 0, 0, -0.998973, 236.51375, 65.32517)"/><path fill="none" stroke="rgb(0%, 0%, 0%)" stroke-linecap="round" stroke-linejoin="round" stroke-miterlimit="10" stroke-opacity="1" stroke-width="0.39848" d="M -2.071351 2.391994 C -1.692055 0.956926 -0.851348 0.280449 0.00109065 -0.00108987 C -0.851348 -0.278719 -1.692055 -0.955195 -2.071351 -2.390263 " transform="matrix(0.998973, 0, 0, -0.998973, 291.03016, 121.565317)"/><g fill="rgb(0%, 0%, 0%)" fill-opacity="1"><use xlink:href="#68ee5339e4bd9a39ee507c33ea11e85dy6e7uvpo__glyph-4-1" x="264.432036" y="126.582168"/></g><g fill="rgb(0%, 0%, 0%)" fill-opacity="1"><use xlink:href="#68ee5339e4bd9a39ee507c33ea11e85dy6e7uvpo__glyph-5-2" x="264.48698" y="128.759928"/></g></svg>