<?xml version="1.0" encoding="UTF-8"?><svg xmlns="http://www.w3.org/2000/svg" xmlns:xlink="http://www.w3.org/1999/xlink" width="212.693" height="55.021" viewBox="0 0 212.693 55.021"><defs><g><g id="31206c9b796fcd17d519a392615ec355qer58ty7__glyph-0-0"><path d="M 1.75 -1.125 C 1.359375 -0.46875 0.984375 -0.328125 0.546875 -0.296875 C 0.4375 -0.296875 0.34375 -0.296875 0.34375 -0.109375 C 0.34375 -0.046875 0.390625 0 0.46875 0 C 0.734375 0 1.03125 -0.03125 1.3125 -0.03125 C 1.640625 -0.03125 1.96875 0 2.28125 0 C 2.34375 0 2.46875 0 2.46875 -0.1875 C 2.46875 -0.296875 2.390625 -0.296875 2.3125 -0.296875 C 2.09375 -0.328125 1.859375 -0.40625 1.859375 -0.640625 C 1.859375 -0.765625 1.921875 -0.875 2 -1 L 2.734375 -2.265625 L 5.1875 -2.265625 C 5.21875 -2.046875 5.34375 -0.71875 5.34375 -0.625 C 5.34375 -0.328125 4.84375 -0.296875 4.640625 -0.296875 C 4.515625 -0.296875 4.40625 -0.296875 4.40625 -0.109375 C 4.40625 0 4.53125 0 4.546875 0 C 4.953125 0 5.375 -0.03125 5.765625 -0.03125 C 6.015625 -0.03125 6.625 0 6.875 0 C 6.9375 0 7.046875 0 7.046875 -0.203125 C 7.046875 -0.296875 6.953125 -0.296875 6.828125 -0.296875 C 6.21875 -0.296875 6.21875 -0.375 6.1875 -0.65625 L 5.59375 -6.765625 C 5.578125 -6.96875 5.578125 -7 5.40625 -7 C 5.25 -7 5.21875 -6.9375 5.15625 -6.84375 Z M 2.921875 -2.5625 L 4.84375 -5.796875 L 5.171875 -2.5625 Z M 2.921875 -2.5625 "/></g><g id="31206c9b796fcd17d519a392615ec355qer58ty7__glyph-0-1"><path d="M 1.5625 -0.765625 C 1.46875 -0.375 1.453125 -0.296875 0.671875 -0.296875 C 0.515625 -0.296875 0.40625 -0.296875 0.40625 -0.109375 C 0.40625 0 0.5 0 0.671875 0 L 4.171875 0 C 5.71875 0 6.859375 -1.15625 6.859375 -2.109375 C 6.859375 -2.8125 6.296875 -3.390625 5.34375 -3.484375 C 6.375 -3.671875 7.390625 -4.40625 7.390625 -5.328125 C 7.390625 -6.046875 6.75 -6.6875 5.578125 -6.6875 L 2.28125 -6.6875 C 2.109375 -6.6875 2 -6.6875 2 -6.484375 C 2 -6.375 2.09375 -6.375 2.28125 -6.375 C 2.296875 -6.375 2.484375 -6.375 2.65625 -6.359375 C 2.828125 -6.34375 2.921875 -6.328125 2.921875 -6.203125 C 2.921875 -6.15625 2.90625 -6.140625 2.875 -6.015625 Z M 3.046875 -3.578125 L 3.65625 -6 C 3.734375 -6.34375 3.75 -6.375 4.171875 -6.375 L 5.4375 -6.375 C 6.296875 -6.375 6.5 -5.796875 6.5 -5.375 C 6.5 -4.515625 5.65625 -3.578125 4.46875 -3.578125 Z M 2.609375 -0.296875 C 2.46875 -0.296875 2.453125 -0.296875 2.390625 -0.3125 C 2.28125 -0.328125 2.265625 -0.328125 2.265625 -0.40625 C 2.265625 -0.4375 2.265625 -0.453125 2.3125 -0.640625 L 2.984375 -3.359375 L 4.828125 -3.359375 C 5.765625 -3.359375 5.953125 -2.640625 5.953125 -2.21875 C 5.953125 -1.25 5.09375 -0.296875 3.9375 -0.296875 Z M 2.609375 -0.296875 "/></g><g id="31206c9b796fcd17d519a392615ec355qer58ty7__glyph-0-2"><path d="M 7.4375 -6.796875 C 7.4375 -6.828125 7.421875 -6.890625 7.328125 -6.890625 C 7.296875 -6.890625 7.28125 -6.890625 7.171875 -6.78125 L 6.5 -6.03125 C 6.40625 -6.15625 5.953125 -6.890625 4.875 -6.890625 C 2.6875 -6.890625 0.484375 -4.734375 0.484375 -2.46875 C 0.484375 -0.84375 1.640625 0.21875 3.140625 0.21875 C 3.984375 0.21875 4.734375 -0.171875 5.25 -0.625 C 6.15625 -1.421875 6.328125 -2.3125 6.328125 -2.34375 C 6.328125 -2.453125 6.234375 -2.453125 6.21875 -2.453125 C 6.15625 -2.453125 6.109375 -2.421875 6.078125 -2.34375 C 6 -2.0625 5.765625 -1.375 5.09375 -0.796875 C 4.421875 -0.25 3.8125 -0.09375 3.296875 -0.09375 C 2.421875 -0.09375 1.375 -0.59375 1.375 -2.125 C 1.375 -2.6875 1.578125 -4.265625 2.5625 -5.40625 C 3.15625 -6.109375 4.078125 -6.59375 4.953125 -6.59375 C 5.953125 -6.59375 6.53125 -5.84375 6.53125 -4.703125 C 6.53125 -4.3125 6.5 -4.296875 6.5 -4.203125 C 6.5 -4.109375 6.609375 -4.109375 6.640625 -4.109375 C 6.765625 -4.109375 6.765625 -4.125 6.8125 -4.296875 Z M 7.4375 -6.796875 "/></g><g id="31206c9b796fcd17d519a392615ec355qer58ty7__glyph-0-3"><path d="M 1.5625 -0.765625 C 1.453125 -0.375 1.4375 -0.296875 0.671875 -0.296875 C 0.5 -0.296875 0.390625 -0.296875 0.390625 -0.125 C 0.390625 0 0.484375 0 0.671875 0 L 3.90625 0 C 5.9375 0 7.859375 -2.0625 7.859375 -4.203125 C 7.859375 -5.578125 7.03125 -6.6875 5.5625 -6.6875 L 2.28125 -6.6875 C 2.09375 -6.6875 1.984375 -6.6875 1.984375 -6.5 C 1.984375 -6.375 2.078125 -6.375 2.265625 -6.375 C 2.390625 -6.375 2.578125 -6.375 2.6875 -6.359375 C 2.84375 -6.34375 2.90625 -6.3125 2.90625 -6.203125 C 2.90625 -6.15625 2.890625 -6.140625 2.859375 -6.015625 Z M 3.671875 -6 C 3.75 -6.34375 3.78125 -6.375 4.203125 -6.375 L 5.25 -6.375 C 6.203125 -6.375 7.015625 -5.859375 7.015625 -4.5625 C 7.015625 -4.09375 6.8125 -2.484375 5.984375 -1.40625 C 5.703125 -1.046875 4.9375 -0.296875 3.734375 -0.296875 L 2.625 -0.296875 C 2.484375 -0.296875 2.46875 -0.296875 2.40625 -0.3125 C 2.3125 -0.328125 2.28125 -0.328125 2.28125 -0.40625 C 2.28125 -0.4375 2.28125 -0.453125 2.328125 -0.640625 Z M 3.671875 -6 "/></g><g id="31206c9b796fcd17d519a392615ec355qer58ty7__glyph-1-0"><path d="M 1.984375 -3.234375 C 2.046875 -3.359375 2.046875 -3.40625 2.046875 -3.453125 C 2.046875 -3.671875 1.859375 -3.828125 1.640625 -3.828125 C 1.390625 -3.828125 1.296875 -3.625 1.265625 -3.515625 L 0.359375 -0.546875 C 0.359375 -0.53125 0.328125 -0.4375 0.328125 -0.4375 C 0.328125 -0.34375 0.546875 -0.28125 0.59375 -0.28125 C 0.640625 -0.28125 0.65625 -0.296875 0.703125 -0.390625 Z M 1.984375 -3.234375 "/></g><g id="31206c9b796fcd17d519a392615ec355qer58ty7__glyph-2-0"><path d="M 2.796875 -2.703125 L 3.46875 -2.703125 C 3.59375 -2.703125 3.6875 -2.703125 3.6875 -2.859375 C 3.6875 -2.953125 3.59375 -2.953125 3.484375 -2.953125 L 2.84375 -2.953125 C 3 -3.828125 3.046875 -4.140625 3.109375 -4.34375 C 3.140625 -4.5 3.296875 -4.640625 3.453125 -4.640625 C 3.46875 -4.640625 3.65625 -4.640625 3.78125 -4.546875 C 3.5 -4.46875 3.484375 -4.21875 3.484375 -4.171875 C 3.484375 -4.03125 3.59375 -3.921875 3.75 -3.921875 C 3.9375 -3.921875 4.140625 -4.078125 4.140625 -4.34375 C 4.140625 -4.65625 3.8125 -4.828125 3.453125 -4.828125 C 3.15625 -4.828125 2.8125 -4.65625 2.640625 -4.3125 C 2.5 -4.0625 2.4375 -3.75 2.296875 -2.953125 L 1.75 -2.953125 C 1.625 -2.953125 1.53125 -2.953125 1.53125 -2.8125 C 1.53125 -2.703125 1.625 -2.703125 1.75 -2.703125 L 2.25 -2.703125 C 2.25 -2.671875 1.8125 -0.203125 1.640625 0.53125 C 1.609375 0.6875 1.5 1.203125 1.171875 1.203125 C 1.15625 1.203125 1 1.203125 0.859375 1.125 C 1.140625 1.03125 1.171875 0.78125 1.171875 0.75 C 1.171875 0.59375 1.046875 0.5 0.890625 0.5 C 0.703125 0.5 0.5 0.65625 0.5 0.90625 C 0.5 1.21875 0.828125 1.40625 1.171875 1.40625 C 1.609375 1.40625 1.90625 0.953125 1.984375 0.796875 C 2.234375 0.34375 2.390625 -0.5 2.40625 -0.59375 Z M 2.796875 -2.703125 "/></g><g id="31206c9b796fcd17d519a392615ec355qer58ty7__glyph-2-1"><path d="M 3.65625 -2.53125 C 3.671875 -2.640625 3.671875 -2.671875 3.671875 -2.671875 C 3.671875 -2.828125 3.546875 -2.890625 3.4375 -2.890625 C 3.28125 -2.890625 3.15625 -2.765625 3.125 -2.640625 C 3.015625 -2.8125 2.78125 -3.03125 2.421875 -3.03125 C 1.5625 -3.03125 0.671875 -2.109375 0.671875 -1.125 C 0.671875 -0.421875 1.140625 0 1.703125 0 C 2.03125 0 2.328125 -0.15625 2.5625 -0.375 L 2.421875 0.25 C 2.34375 0.53125 2.296875 0.71875 2.03125 0.953125 C 1.734375 1.203125 1.4375 1.203125 1.265625 1.203125 C 0.953125 1.203125 0.859375 1.1875 0.734375 1.15625 C 0.90625 1.078125 0.953125 0.90625 0.953125 0.8125 C 0.953125 0.65625 0.828125 0.5625 0.6875 0.5625 C 0.5 0.5625 0.296875 0.71875 0.296875 0.984375 C 0.296875 1.390625 0.890625 1.40625 1.265625 1.40625 C 2.34375 1.40625 2.8125 0.84375 2.90625 0.453125 Z M 2.703125 -0.90625 C 2.671875 -0.8125 2.671875 -0.796875 2.5625 -0.65625 C 2.3125 -0.375 1.984375 -0.1875 1.734375 -0.1875 C 1.375 -0.1875 1.21875 -0.484375 1.21875 -0.84375 C 1.21875 -1.140625 1.40625 -1.90625 1.578125 -2.21875 C 1.859375 -2.703125 2.1875 -2.828125 2.421875 -2.828125 C 2.90625 -2.828125 3.03125 -2.3125 3.03125 -2.25 C 3.03125 -2.234375 3.03125 -2.21875 3.015625 -2.140625 Z M 2.703125 -0.90625 "/></g><g id="31206c9b796fcd17d519a392615ec355qer58ty7__glyph-2-2"><path d="M 2.140625 -4.546875 C 2.15625 -4.5625 2.171875 -4.65625 2.171875 -4.671875 C 2.171875 -4.703125 2.140625 -4.765625 2.0625 -4.765625 C 1.921875 -4.765625 1.359375 -4.703125 1.1875 -4.6875 C 1.125 -4.6875 1.03125 -4.671875 1.03125 -4.53125 C 1.03125 -4.4375 1.125 -4.4375 1.21875 -4.4375 C 1.546875 -4.4375 1.546875 -4.390625 1.546875 -4.328125 C 1.546875 -4.28125 1.53125 -4.25 1.515625 -4.1875 L 0.546875 -0.296875 C 0.515625 -0.171875 0.515625 -0.171875 0.515625 -0.15625 C 0.515625 -0.046875 0.59375 0.0625 0.75 0.0625 C 0.828125 0.0625 0.953125 0.03125 1.03125 -0.109375 C 1.046875 -0.15625 1.109375 -0.390625 1.140625 -0.546875 L 1.296875 -1.15625 C 1.328125 -1.25 1.390625 -1.515625 1.40625 -1.625 C 1.484375 -1.875 1.484375 -1.890625 1.625 -2.109375 C 1.84375 -2.4375 2.1875 -2.828125 2.71875 -2.828125 C 3.09375 -2.828125 3.125 -2.515625 3.125 -2.359375 C 3.125 -1.9375 2.828125 -1.1875 2.71875 -0.890625 C 2.640625 -0.703125 2.609375 -0.640625 2.609375 -0.515625 C 2.609375 -0.15625 2.921875 0.0625 3.265625 0.0625 C 3.953125 0.0625 4.25 -0.875 4.25 -0.984375 C 4.25 -1.0625 4.15625 -1.0625 4.140625 -1.0625 C 4.046875 -1.0625 4.046875 -1.03125 4.015625 -0.953125 C 3.859375 -0.40625 3.546875 -0.125 3.28125 -0.125 C 3.140625 -0.125 3.109375 -0.21875 3.109375 -0.359375 C 3.109375 -0.515625 3.140625 -0.609375 3.265625 -0.921875 C 3.359375 -1.125 3.640625 -1.859375 3.640625 -2.25 C 3.640625 -2.359375 3.640625 -2.640625 3.375 -2.84375 C 3.265625 -2.921875 3.0625 -3.03125 2.75 -3.03125 C 2.25 -3.03125 1.875 -2.75 1.625 -2.453125 Z M 2.140625 -4.546875 "/></g><g id="31206c9b796fcd17d519a392615ec355qer58ty7__glyph-2-3"><path d="M 3.75 -0.96875 C 4.390625 -1.625 4.640625 -2.53125 4.640625 -2.609375 C 4.640625 -2.703125 4.546875 -2.703125 4.515625 -2.703125 C 4.421875 -2.703125 4.421875 -2.671875 4.375 -2.53125 C 4.25 -2.078125 4.03125 -1.65625 3.734375 -1.28125 C 3.734375 -1.390625 3.71875 -1.84375 3.703125 -1.90625 C 3.59375 -2.59375 3.09375 -3.03125 2.40625 -3.03125 C 1.390625 -3.03125 0.421875 -2.078125 0.421875 -1.125 C 0.421875 -0.5 0.890625 0.0625 1.6875 0.0625 C 2.3125 0.0625 2.875 -0.21875 3.265625 -0.515625 C 3.421875 -0.015625 3.765625 0.0625 3.984375 0.0625 C 4.375 0.0625 4.625 -0.265625 4.625 -0.40625 C 4.625 -0.5 4.546875 -0.5 4.5 -0.5 C 4.421875 -0.5 4.40625 -0.46875 4.390625 -0.421875 C 4.296875 -0.171875 4.078125 -0.125 4 -0.125 C 3.90625 -0.125 3.78125 -0.125 3.75 -0.96875 Z M 3.21875 -0.734375 C 2.546875 -0.1875 1.96875 -0.125 1.703125 -0.125 C 1.25 -0.125 1 -0.421875 1 -0.890625 C 1 -1.078125 1.09375 -1.828125 1.453125 -2.3125 C 1.765625 -2.71875 2.15625 -2.828125 2.390625 -2.828125 C 2.9375 -2.828125 3.09375 -2.3125 3.15625 -1.875 C 3.203125 -1.578125 3.1875 -1.09375 3.21875 -0.734375 Z M 3.21875 -0.734375 "/></g><g id="31206c9b796fcd17d519a392615ec355qer58ty7__glyph-2-4"><path d="M 4.34375 -3.875 C 4.34375 -4.484375 3.828125 -4.828125 3.21875 -4.828125 C 2.28125 -4.828125 1.578125 -3.765625 1.40625 -3.078125 L 0.34375 1.25 C 0.328125 1.296875 0.390625 1.328125 0.4375 1.328125 C 0.5 1.328125 0.546875 1.328125 0.5625 1.28125 L 1.015625 -0.546875 C 1.171875 -0.234375 1.5 0.0625 2.046875 0.0625 C 3.015625 0.0625 4.09375 -0.625 4.09375 -1.6875 C 4.09375 -2.078125 3.90625 -2.5 3.5625 -2.71875 C 3.890625 -2.9375 4.34375 -3.328125 4.34375 -3.875 Z M 2.984375 -2.734375 C 2.875 -2.703125 2.828125 -2.6875 2.640625 -2.6875 C 2.53125 -2.6875 2.359375 -2.6875 2.3125 -2.71875 C 2.375 -2.75 2.578125 -2.765625 2.640625 -2.765625 C 2.734375 -2.765625 2.890625 -2.75 2.984375 -2.734375 Z M 3.890625 -4 C 3.890625 -3.640625 3.703125 -3.109375 3.28125 -2.875 C 3.15625 -2.90625 3.03125 -2.953125 2.640625 -2.953125 C 2.40625 -2.953125 2.0625 -2.9375 2.0625 -2.703125 C 2.0625 -2.53125 2.265625 -2.5 2.625 -2.5 C 2.859375 -2.5 3.0625 -2.53125 3.265625 -2.59375 C 3.484375 -2.453125 3.59375 -2.171875 3.59375 -1.859375 C 3.59375 -0.875 2.90625 -0.125 2.078125 -0.125 C 1.546875 -0.125 1.171875 -0.453125 1.171875 -1 C 1.171875 -1.0625 1.171875 -1.125 1.1875 -1.1875 L 1.640625 -3.015625 C 1.796875 -3.671875 2.40625 -4.640625 3.203125 -4.640625 C 3.609375 -4.640625 3.890625 -4.421875 3.890625 -4 Z M 3.890625 -4 "/></g><g id="31206c9b796fcd17d519a392615ec355qer58ty7__glyph-2-5"><path d="M 3.0625 -0.953125 C 3.03125 -1.359375 2.796875 -3.03125 1.6875 -3.03125 C 1.28125 -3.03125 0.921875 -2.8125 0.734375 -2.625 C 0.3125 -2.25 0.234375 -1.8125 0.234375 -1.796875 C 0.234375 -1.703125 0.328125 -1.703125 0.34375 -1.703125 C 0.4375 -1.703125 0.4375 -1.71875 0.46875 -1.828125 C 0.625 -2.234375 1.125 -2.46875 1.578125 -2.46875 C 2.6875 -2.46875 2.828125 -1.375 2.828125 -0.671875 C 2.828125 -0.328125 2.8125 -0.25 2.78125 -0.171875 C 2.625 0.34375 2.421875 1.09375 2.421875 1.296875 C 2.421875 1.375 2.453125 1.46875 2.53125 1.46875 C 2.59375 1.46875 2.65625 1.46875 2.765625 1.109375 C 2.859375 0.84375 2.984375 0.34375 3.03125 -0.15625 C 3.0625 -0.390625 3.453125 -1.328125 3.59375 -1.65625 C 3.6875 -1.859375 3.828125 -2.1875 4.15625 -2.78125 C 4.171875 -2.8125 4.1875 -2.84375 4.1875 -2.875 C 4.1875 -2.953125 4.109375 -2.953125 4.078125 -2.953125 C 4.0625 -2.953125 4 -2.953125 3.984375 -2.921875 C 3.890625 -2.78125 3.375 -1.796875 3.0625 -0.953125 Z M 3.0625 -0.953125 "/></g><g id="31206c9b796fcd17d519a392615ec355qer58ty7__glyph-2-6"><path d="M 2.03125 -2.984375 C 1 -2.71875 0.421875 -1.84375 0.421875 -1.125 C 0.421875 -0.390625 0.96875 0.078125 1.65625 0.078125 C 2.484375 0.078125 3.125 -0.890625 3.125 -1.890625 C 3.125 -2.5625 2.765625 -2.953125 2.5625 -3.1875 C 2.3125 -3.46875 1.796875 -4.03125 1.796875 -4.34375 C 1.796875 -4.4375 1.890625 -4.640625 2.171875 -4.640625 C 2.40625 -4.640625 2.59375 -4.53125 2.75 -4.4375 C 2.8125 -4.40625 3.046875 -4.265625 3.15625 -4.265625 C 3.3125 -4.265625 3.4375 -4.421875 3.4375 -4.546875 C 3.4375 -4.71875 3.359375 -4.734375 2.984375 -4.8125 C 2.90625 -4.828125 2.59375 -4.890625 2.359375 -4.890625 C 1.859375 -4.890625 1.5625 -4.59375 1.5625 -4.171875 C 1.5625 -3.8125 1.78125 -3.390625 2.03125 -2.984375 Z M 2.140625 -2.796875 C 2.328125 -2.484375 2.578125 -2.09375 2.578125 -1.59375 C 2.578125 -1.03125 2.25 -0.109375 1.671875 -0.109375 C 1.296875 -0.109375 0.921875 -0.359375 0.921875 -0.921875 C 0.921875 -1.375 1.1875 -2.5625 2.140625 -2.796875 Z M 2.140625 -2.796875 "/></g><g id="31206c9b796fcd17d519a392615ec355qer58ty7__glyph-3-0"><path d="M 1.765625 -2.28125 C 1.765625 -2.28125 1.8125 -2.375 1.8125 -2.453125 C 1.8125 -2.625 1.65625 -2.734375 1.5 -2.734375 C 1.3125 -2.734375 1.25 -2.578125 1.234375 -2.515625 L 0.46875 -0.390625 C 0.453125 -0.328125 0.453125 -0.3125 0.453125 -0.3125 C 0.453125 -0.234375 0.65625 -0.1875 0.671875 -0.1875 C 0.703125 -0.1875 0.71875 -0.203125 0.75 -0.265625 Z M 1.765625 -2.28125 "/></g></g></defs><g fill="rgb(0%, 0%, 0%)" fill-opacity="1"><use xlink:href="#31206c9b796fcd17d519a392615ec355qer58ty7__glyph-0-0" x="38.650037" y="12.94762"/></g><g fill="rgb(0%, 0%, 0%)" fill-opacity="1"><use xlink:href="#31206c9b796fcd17d519a392615ec355qer58ty7__glyph-0-1" x="80.659553" y="12.94762"/></g><g fill="rgb(0%, 0%, 0%)" fill-opacity="1"><use xlink:href="#31206c9b796fcd17d519a392615ec355qer58ty7__glyph-0-2" x="123.24286" y="12.94762"/></g><g fill="rgb(0%, 0%, 0%)" fill-opacity="1"><use xlink:href="#31206c9b796fcd17d519a392615ec355qer58ty7__glyph-0-3" x="165.606082" y="12.94762"/></g><g fill="rgb(0%, 0%, 0%)" fill-opacity="1"><use xlink:href="#31206c9b796fcd17d519a392615ec355qer58ty7__glyph-0-0" x="37.27746" y="45.090692"/></g><g fill="rgb(0%, 0%, 0%)" fill-opacity="1"><use xlink:href="#31206c9b796fcd17d519a392615ec355qer58ty7__glyph-1-0" x="44.618833" y="41.53889"/></g><g fill="rgb(0%, 0%, 0%)" fill-opacity="1"><use xlink:href="#31206c9b796fcd17d519a392615ec355qer58ty7__glyph-0-1" x="79.285993" y="45.090692"/></g><g fill="rgb(0%, 0%, 0%)" fill-opacity="1"><use xlink:href="#31206c9b796fcd17d519a392615ec355qer58ty7__glyph-1-0" x="87.20214" y="41.53889"/></g><g fill="rgb(0%, 0%, 0%)" fill-opacity="1"><use xlink:href="#31206c9b796fcd17d519a392615ec355qer58ty7__glyph-0-2" x="121.8693" y="45.090692"/></g><g fill="rgb(0%, 0%, 0%)" fill-opacity="1"><use xlink:href="#31206c9b796fcd17d519a392615ec355qer58ty7__glyph-1-0" x="129.565362" y="41.53889"/></g><g fill="rgb(0%, 0%, 0%)" fill-opacity="1"><use xlink:href="#31206c9b796fcd17d519a392615ec355qer58ty7__glyph-0-3" x="164.232522" y="45.090692"/></g><g fill="rgb(0%, 0%, 0%)" fill-opacity="1"><use xlink:href="#31206c9b796fcd17d519a392615ec355qer58ty7__glyph-1-0" x="172.608487" y="41.53889"/></g><path fill="none" stroke="rgb(0%, 0%, 0%)" stroke-linecap="butt" stroke-linejoin="miter" stroke-miterlimit="10" stroke-opacity="1" stroke-width="0.39848" d="M -56.908582 15.445171 L -31.002564 15.445171 " transform="matrix(0.982518, 0, 0, -0.982518, 106.316042, 25.675157)"/><path fill="none" stroke="rgb(0%, 0%, 0%)" stroke-linecap="round" stroke-linejoin="round" stroke-miterlimit="10" stroke-opacity="1" stroke-width="0.39848" d="M -2.073345 2.39031 C -1.691672 0.955062 -0.848812 0.279184 -0.00197672 0.000881335 C -0.848812 -0.277421 -1.691672 -0.957276 -2.073345 -2.392523 " transform="matrix(0.982518, 0, 0, -0.982518, 76.052723, 10.500866)"/><g fill="rgb(0%, 0%, 0%)" fill-opacity="1"><use xlink:href="#31206c9b796fcd17d519a392615ec355qer58ty7__glyph-2-0" x="61.032776" y="6.865835"/></g><path fill="none" stroke="rgb(0%, 0%, 0%)" stroke-linecap="butt" stroke-linejoin="miter" stroke-miterlimit="10" stroke-opacity="1" stroke-width="0.39848" d="M -13.56888 15.445171 L 12.341113 15.445171 " transform="matrix(0.982518, 0, 0, -0.982518, 106.316042, 25.675157)"/><path fill="none" stroke="rgb(0%, 0%, 0%)" stroke-linecap="round" stroke-linejoin="round" stroke-miterlimit="10" stroke-opacity="1" stroke-width="0.39848" d="M -2.071077 2.39031 C -1.69338 0.955062 -0.85052 0.279184 0.000291147 0.000881335 C -0.85052 -0.277421 -1.69338 -0.957276 -2.071077 -2.392523 " transform="matrix(0.982518, 0, 0, -0.982518, 118.636433, 10.500866)"/><g fill="rgb(0%, 0%, 0%)" fill-opacity="1"><use xlink:href="#31206c9b796fcd17d519a392615ec355qer58ty7__glyph-2-1" x="103.87645" y="6.865835"/></g><path fill="none" stroke="rgb(0%, 0%, 0%)" stroke-linecap="butt" stroke-linejoin="miter" stroke-miterlimit="10" stroke-opacity="1" stroke-width="0.39848" d="M 29.54818 15.445171 L 55.458173 15.445171 " transform="matrix(0.982518, 0, 0, -0.982518, 106.316042, 25.675157)"/><path fill="none" stroke="rgb(0%, 0%, 0%)" stroke-linecap="round" stroke-linejoin="round" stroke-miterlimit="10" stroke-opacity="1" stroke-width="0.39848" d="M -2.071967 2.39031 C -1.694271 0.955062 -0.851411 0.279184 -0.000599003 0.000881335 C -0.851411 -0.277421 -1.694271 -0.957276 -2.071967 -2.392523 " transform="matrix(0.982518, 0, 0, -0.982518, 161.000589, 10.500866)"/><g fill="rgb(0%, 0%, 0%)" fill-opacity="1"><use xlink:href="#31206c9b796fcd17d519a392615ec355qer58ty7__glyph-2-2" x="145.98127" y="8.198129"/></g><path fill="none" stroke="rgb(0%, 0%, 0%)" stroke-linecap="butt" stroke-linejoin="miter" stroke-miterlimit="10" stroke-opacity="1" stroke-width="0.39848" d="M -55.513092 -17.271314 L -32.398054 -17.271314 " transform="matrix(0.982518, 0, 0, -0.982518, 106.316042, 25.675157)"/><path fill="none" stroke="rgb(0%, 0%, 0%)" stroke-linecap="round" stroke-linejoin="round" stroke-miterlimit="10" stroke-opacity="1" stroke-width="0.39848" d="M -2.071275 2.39286 C -1.693578 0.957613 -0.850718 0.277759 0.0000933745 -0.000544189 C -0.850718 -0.278847 -1.693578 -0.954725 -2.071275 -2.389973 " transform="matrix(0.982518, 0, 0, -0.982518, 74.679596, 42.643997)"/><g fill="rgb(0%, 0%, 0%)" fill-opacity="1"><use xlink:href="#31206c9b796fcd17d519a392615ec355qer58ty7__glyph-2-0" x="59.709325" y="50.61932"/></g><g fill="rgb(0%, 0%, 0%)" fill-opacity="1"><use xlink:href="#31206c9b796fcd17d519a392615ec355qer58ty7__glyph-3-0" x="64.293753" y="47.665871"/></g><path fill="none" stroke="rgb(0%, 0%, 0%)" stroke-linecap="butt" stroke-linejoin="miter" stroke-miterlimit="10" stroke-opacity="1" stroke-width="0.39848" d="M -12.169414 -17.271314 L 10.941648 -17.271314 " transform="matrix(0.982518, 0, 0, -0.982518, 106.316042, 25.675157)"/><path fill="none" stroke="rgb(0%, 0%, 0%)" stroke-linecap="round" stroke-linejoin="round" stroke-miterlimit="10" stroke-opacity="1" stroke-width="0.39848" d="M -2.073003 2.39286 C -1.695306 0.957613 -0.84847 0.277759 -0.00163451 -0.000544189 C -0.84847 -0.278847 -1.695306 -0.954725 -2.073003 -2.389973 " transform="matrix(0.982518, 0, 0, -0.982518, 117.263325, 42.643997)"/><g fill="rgb(0%, 0%, 0%)" fill-opacity="1"><use xlink:href="#31206c9b796fcd17d519a392615ec355qer58ty7__glyph-2-1" x="102.552999" y="50.61932"/></g><g fill="rgb(0%, 0%, 0%)" fill-opacity="1"><use xlink:href="#31206c9b796fcd17d519a392615ec355qer58ty7__glyph-3-0" x="106.616692" y="47.665871"/></g><path fill="none" stroke="rgb(0%, 0%, 0%)" stroke-linecap="butt" stroke-linejoin="miter" stroke-miterlimit="10" stroke-opacity="1" stroke-width="0.39848" d="M 30.947645 -17.271314 L 54.062683 -17.271314 " transform="matrix(0.982518, 0, 0, -0.982518, 106.316042, 25.675157)"/><path fill="none" stroke="rgb(0%, 0%, 0%)" stroke-linecap="round" stroke-linejoin="round" stroke-miterlimit="10" stroke-opacity="1" stroke-width="0.39848" d="M -2.073903 2.39286 C -1.69223 0.957613 -0.84937 0.277759 0.00144109 -0.000544189 C -0.84937 -0.278847 -1.69223 -0.954725 -2.073903 -2.389973 " transform="matrix(0.982518, 0, 0, -0.982518, 159.62749, 42.643997)"/><g fill="rgb(0%, 0%, 0%)" fill-opacity="1"><use xlink:href="#31206c9b796fcd17d519a392615ec355qer58ty7__glyph-2-2" x="144.656836" y="50.61932"/></g><g fill="rgb(0%, 0%, 0%)" fill-opacity="1"><use xlink:href="#31206c9b796fcd17d519a392615ec355qer58ty7__glyph-3-0" x="149.2393" y="47.665871"/></g><path fill="none" stroke="rgb(0%, 0%, 0%)" stroke-linecap="butt" stroke-linejoin="miter" stroke-miterlimit="10" stroke-opacity="1" stroke-width="0.39848" d="M -65.134419 9.107818 L -65.134419 -8.027684 " transform="matrix(0.982518, 0, 0, -0.982518, 106.316042, 25.675157)"/><path fill="none" stroke="rgb(0%, 0%, 0%)" stroke-linecap="round" stroke-linejoin="round" stroke-miterlimit="10" stroke-opacity="1" stroke-width="0.39848" d="M -2.071936 2.38961 C -1.694239 0.954362 -0.851379 0.278484 -0.00056778 0.000181342 C -0.851379 -0.278121 -1.694239 -0.957976 -2.071936 -2.389247 " transform="matrix(0, 0.982518, 0.982518, 0, 42.320134, 33.75837)"/><g fill="rgb(0%, 0%, 0%)" fill-opacity="1"><use xlink:href="#31206c9b796fcd17d519a392615ec355qer58ty7__glyph-2-3" x="34.929242" y="26.814877"/></g><path fill="none" stroke="rgb(0%, 0%, 0%)" stroke-linecap="butt" stroke-linejoin="miter" stroke-miterlimit="10" stroke-opacity="1" stroke-width="0.39848" d="M -22.084947 9.107818 L -22.084947 -8.027684 " transform="matrix(0.982518, 0, 0, -0.982518, 106.316042, 25.675157)"/><path fill="none" stroke="rgb(0%, 0%, 0%)" stroke-linecap="round" stroke-linejoin="round" stroke-miterlimit="10" stroke-opacity="1" stroke-width="0.39848" d="M -2.071936 2.389942 C -1.694239 0.954694 -0.851379 0.278816 -0.00056778 0.000513361 C -0.851379 -0.277789 -1.694239 -0.957644 -2.071936 -2.392891 " transform="matrix(0, 0.982518, 0.982518, 0, 84.616683, 33.75837)"/><g fill="rgb(0%, 0%, 0%)" fill-opacity="1"><use xlink:href="#31206c9b796fcd17d519a392615ec355qer58ty7__glyph-2-4" x="86.920157" y="27.052647"/></g><path fill="none" stroke="rgb(0%, 0%, 0%)" stroke-linecap="butt" stroke-linejoin="miter" stroke-miterlimit="10" stroke-opacity="1" stroke-width="0.39848" d="M 21.143434 9.107818 L 21.143434 -8.027684 " transform="matrix(0.982518, 0, 0, -0.982518, 106.316042, 25.675157)"/><path fill="none" stroke="rgb(0%, 0%, 0%)" stroke-linecap="round" stroke-linejoin="round" stroke-miterlimit="10" stroke-opacity="1" stroke-width="0.39848" d="M -2.071936 2.392609 C -1.694239 0.957361 -0.851379 0.277507 -0.00056778 -0.000795657 C -0.851379 -0.279098 -1.694239 -0.954977 -2.071936 -2.390224 " transform="matrix(0, 0.982518, 0.982518, 0, 127.090625, 33.75837)"/><g fill="rgb(0%, 0%, 0%)" fill-opacity="1"><use xlink:href="#31206c9b796fcd17d519a392615ec355qer58ty7__glyph-2-5" x="129.393421" y="26.14873"/></g><path fill="none" stroke="rgb(0%, 0%, 0%)" stroke-linecap="butt" stroke-linejoin="miter" stroke-miterlimit="10" stroke-opacity="1" stroke-width="0.39848" d="M 64.606385 9.107818 L 64.606385 -8.027684 " transform="matrix(0.982518, 0, 0, -0.982518, 106.316042, 25.675157)"/><path fill="none" stroke="rgb(0%, 0%, 0%)" stroke-linecap="round" stroke-linejoin="round" stroke-miterlimit="10" stroke-opacity="1" stroke-width="0.39848" d="M -2.071936 2.391679 C -1.694239 0.956432 -0.851379 0.280553 -0.00056778 -0.00172515 C -0.851379 -0.280028 -1.694239 -0.955906 -2.071936 -2.391154 " transform="matrix(0, 0.982518, 0.982518, 0, 169.794664, 33.75837)"/><g fill="rgb(0%, 0%, 0%)" fill-opacity="1"><use xlink:href="#31206c9b796fcd17d519a392615ec355qer58ty7__glyph-2-6" x="172.096595" y="27.718794"/></g></svg>