<?xml version="1.0" encoding="UTF-8"?><svg xmlns="http://www.w3.org/2000/svg" xmlns:xlink="http://www.w3.org/1999/xlink" width="343.711" height="109.985" viewBox="0 0 343.711 109.985"><defs><g><g id="533ca8579bc13050ceb8e296b863206djpoyguf7__glyph-0-0"><path d="M 7.046875 -2.3125 C 7.0625 -2.375 7.09375 -2.4375 7.09375 -2.453125 C 7.09375 -2.46875 7.09375 -2.5625 6.984375 -2.5625 C 6.890625 -2.5625 6.875 -2.515625 6.84375 -2.453125 C 6.203125 -0.96875 5.828125 -0.3125 4.125 -0.3125 L 2.671875 -0.3125 C 2.53125 -0.3125 2.515625 -0.3125 2.453125 -0.3125 C 2.359375 -0.328125 2.328125 -0.34375 2.328125 -0.421875 C 2.328125 -0.453125 2.328125 -0.46875 2.375 -0.640625 L 3.0625 -3.359375 L 4.046875 -3.359375 C 4.890625 -3.359375 4.890625 -3.15625 4.890625 -2.90625 C 4.890625 -2.84375 4.890625 -2.71875 4.8125 -2.421875 C 4.796875 -2.375 4.78125 -2.34375 4.78125 -2.3125 C 4.78125 -2.265625 4.828125 -2.203125 4.921875 -2.203125 C 5 -2.203125 5.03125 -2.25 5.0625 -2.40625 L 5.640625 -4.734375 C 5.640625 -4.78125 5.578125 -4.84375 5.515625 -4.84375 C 5.421875 -4.84375 5.40625 -4.78125 5.375 -4.65625 C 5.171875 -3.90625 4.984375 -3.671875 4.078125 -3.671875 L 3.140625 -3.671875 L 3.734375 -6.078125 C 3.828125 -6.421875 3.828125 -6.453125 4.265625 -6.453125 L 5.671875 -6.453125 C 6.890625 -6.453125 7.1875 -6.171875 7.1875 -5.359375 C 7.1875 -5.109375 7.1875 -5.09375 7.140625 -4.828125 C 7.140625 -4.765625 7.140625 -4.703125 7.140625 -4.640625 C 7.140625 -4.59375 7.171875 -4.53125 7.25 -4.53125 C 7.359375 -4.53125 7.375 -4.59375 7.390625 -4.78125 L 7.59375 -6.5 C 7.625 -6.765625 7.578125 -6.765625 7.328125 -6.765625 L 2.296875 -6.765625 C 2.09375 -6.765625 2 -6.765625 2 -6.5625 C 2 -6.453125 2.09375 -6.453125 2.28125 -6.453125 C 2.640625 -6.453125 2.921875 -6.453125 2.921875 -6.28125 C 2.921875 -6.234375 2.921875 -6.21875 2.875 -6.046875 L 1.5625 -0.78125 C 1.46875 -0.390625 1.4375 -0.3125 0.65625 -0.3125 C 0.484375 -0.3125 0.375 -0.3125 0.375 -0.125 C 0.375 0 0.46875 0 0.65625 0 L 5.828125 0 C 6.046875 0 6.0625 -0.015625 6.125 -0.171875 Z M 7.046875 -2.3125 "/></g><g id="533ca8579bc13050ceb8e296b863206djpoyguf7__glyph-0-1"><path d="M 3.015625 -3.234375 L 3.984375 -3.234375 C 4.734375 -3.234375 4.8125 -3.078125 4.8125 -2.78125 C 4.8125 -2.71875 4.8125 -2.59375 4.734375 -2.296875 C 4.71875 -2.25 4.703125 -2.203125 4.703125 -2.1875 C 4.703125 -2.109375 4.765625 -2.0625 4.828125 -2.0625 C 4.921875 -2.0625 4.921875 -2.09375 4.96875 -2.28125 L 5.53125 -4.4375 C 5.546875 -4.546875 5.546875 -4.5625 5.546875 -4.59375 C 5.546875 -4.625 5.53125 -4.703125 5.4375 -4.703125 C 5.328125 -4.703125 5.328125 -4.65625 5.28125 -4.5 C 5.078125 -3.71875 4.84375 -3.546875 4 -3.546875 L 3.09375 -3.546875 L 3.734375 -6.078125 C 3.828125 -6.421875 3.828125 -6.453125 4.265625 -6.453125 L 5.578125 -6.453125 C 6.8125 -6.453125 7.03125 -6.125 7.03125 -5.359375 C 7.03125 -5.140625 7.03125 -5.09375 7 -4.828125 C 6.984375 -4.703125 6.984375 -4.671875 6.984375 -4.640625 C 6.984375 -4.59375 7.015625 -4.53125 7.109375 -4.53125 C 7.21875 -4.53125 7.21875 -4.59375 7.25 -4.78125 L 7.4375 -6.5 C 7.46875 -6.765625 7.421875 -6.765625 7.171875 -6.765625 L 2.296875 -6.765625 C 2.09375 -6.765625 2 -6.765625 2 -6.5625 C 2 -6.453125 2.09375 -6.453125 2.28125 -6.453125 C 2.640625 -6.453125 2.921875 -6.453125 2.921875 -6.28125 C 2.921875 -6.234375 2.921875 -6.21875 2.875 -6.046875 L 1.5625 -0.78125 C 1.46875 -0.390625 1.4375 -0.3125 0.65625 -0.3125 C 0.484375 -0.3125 0.375 -0.3125 0.375 -0.125 C 0.375 0 0.5 0 0.53125 0 C 0.8125 0 1.546875 -0.03125 1.84375 -0.03125 C 2.171875 -0.03125 3 0 3.328125 0 C 3.40625 0 3.53125 0 3.53125 -0.1875 C 3.53125 -0.265625 3.46875 -0.28125 3.46875 -0.296875 C 3.4375 -0.3125 3.421875 -0.3125 3.1875 -0.3125 C 2.96875 -0.3125 2.921875 -0.3125 2.671875 -0.328125 C 2.390625 -0.359375 2.359375 -0.390625 2.359375 -0.53125 C 2.359375 -0.546875 2.359375 -0.609375 2.40625 -0.75 Z M 3.015625 -3.234375 "/></g><g id="533ca8579bc13050ceb8e296b863206djpoyguf7__glyph-0-2"><path d="M 1.59375 -0.78125 C 1.5 -0.390625 1.46875 -0.3125 0.6875 -0.3125 C 0.515625 -0.3125 0.421875 -0.3125 0.421875 -0.109375 C 0.421875 0 0.5 0 0.6875 0 L 4.234375 0 C 5.8125 0 6.984375 -1.171875 6.984375 -2.15625 C 6.984375 -2.859375 6.40625 -3.4375 5.4375 -3.546875 C 6.484375 -3.75 7.53125 -4.484375 7.53125 -5.421875 C 7.53125 -6.15625 6.875 -6.796875 5.671875 -6.796875 L 2.328125 -6.796875 C 2.140625 -6.796875 2.046875 -6.796875 2.046875 -6.59375 C 2.046875 -6.484375 2.125 -6.484375 2.3125 -6.484375 C 2.34375 -6.484375 2.53125 -6.484375 2.703125 -6.46875 C 2.875 -6.453125 2.96875 -6.4375 2.96875 -6.3125 C 2.96875 -6.265625 2.953125 -6.234375 2.921875 -6.125 Z M 3.09375 -3.640625 L 3.71875 -6.109375 C 3.796875 -6.453125 3.828125 -6.484375 4.25 -6.484375 L 5.53125 -6.484375 C 6.40625 -6.484375 6.625 -5.90625 6.625 -5.46875 C 6.625 -4.59375 5.765625 -3.640625 4.546875 -3.640625 Z M 2.640625 -0.3125 C 2.515625 -0.3125 2.484375 -0.3125 2.421875 -0.3125 C 2.328125 -0.328125 2.296875 -0.34375 2.296875 -0.421875 C 2.296875 -0.453125 2.296875 -0.46875 2.34375 -0.640625 L 3.03125 -3.421875 L 4.921875 -3.421875 C 5.875 -3.421875 6.0625 -2.6875 6.0625 -2.265625 C 6.0625 -1.28125 5.171875 -0.3125 4 -0.3125 Z M 2.640625 -0.3125 "/></g><g id="533ca8579bc13050ceb8e296b863206djpoyguf7__glyph-1-0"><path d="M 7.1875 -2.484375 C 7.1875 -4.3125 5.6875 -5.796875 3.875 -5.796875 C 2.015625 -5.796875 0.546875 -4.296875 0.546875 -2.484375 C 0.546875 -0.65625 2.046875 0.828125 3.859375 0.828125 C 5.71875 0.828125 7.1875 -0.671875 7.1875 -2.484375 Z M 0.796875 -2.625 C 0.890625 -4.296875 2.1875 -5.46875 3.75 -5.546875 L 3.75 -2.625 Z M 3.984375 -5.546875 C 5.546875 -5.46875 6.84375 -4.28125 6.9375 -2.625 L 3.984375 -2.625 Z M 3.75 0.578125 C 2.203125 0.5 0.890625 -0.671875 0.796875 -2.375 L 3.75 -2.375 Z M 6.9375 -2.375 C 6.84375 -0.671875 5.53125 0.5 3.984375 0.578125 L 3.984375 -2.375 Z M 6.9375 -2.375 "/></g><g id="533ca8579bc13050ceb8e296b863206djpoyguf7__glyph-1-1"><path d="M 3.875 -2.765625 L 1.875 -4.75 C 1.765625 -4.859375 1.734375 -4.890625 1.65625 -4.890625 C 1.5625 -4.890625 1.46875 -4.796875 1.46875 -4.6875 C 1.46875 -4.625 1.484375 -4.59375 1.59375 -4.484375 L 3.578125 -2.484375 L 1.59375 -0.484375 C 1.484375 -0.375 1.46875 -0.359375 1.46875 -0.28125 C 1.46875 -0.171875 1.5625 -0.09375 1.65625 -0.09375 C 1.734375 -0.09375 1.765625 -0.109375 1.875 -0.234375 L 3.859375 -2.203125 L 5.921875 -0.15625 C 5.9375 -0.140625 6.015625 -0.09375 6.078125 -0.09375 C 6.1875 -0.09375 6.265625 -0.171875 6.265625 -0.28125 C 6.265625 -0.3125 6.265625 -0.34375 6.234375 -0.390625 C 6.234375 -0.421875 4.640625 -1.984375 4.15625 -2.484375 L 5.96875 -4.3125 C 6.015625 -4.375 6.171875 -4.5 6.21875 -4.5625 C 6.234375 -4.578125 6.265625 -4.625 6.265625 -4.6875 C 6.265625 -4.796875 6.1875 -4.890625 6.078125 -4.890625 C 5.984375 -4.890625 5.953125 -4.84375 5.84375 -4.734375 Z M 3.875 -2.765625 "/></g><g id="533ca8579bc13050ceb8e296b863206djpoyguf7__glyph-2-0"><path d="M 3.28125 -4.5625 C 3.28125 -4.671875 3.28125 -4.84375 3.109375 -4.84375 C 2.9375 -4.84375 2.9375 -4.671875 2.9375 -4.5625 L 2.9375 -0.34375 L 0.8125 -0.34375 C 0.703125 -0.34375 0.53125 -0.34375 0.53125 -0.171875 C 0.53125 0 0.703125 0 0.8125 0 L 5.40625 0 C 5.515625 0 5.6875 0 5.6875 -0.171875 C 5.6875 -0.34375 5.53125 -0.34375 5.40625 -0.34375 L 3.28125 -0.34375 Z M 3.28125 -4.5625 "/></g><g id="533ca8579bc13050ceb8e296b863206djpoyguf7__glyph-2-1"><path d="M 1.359375 -4.953125 C 1.359375 -5.0625 1.359375 -5.21875 1.1875 -5.21875 C 1.015625 -5.21875 1.015625 -5.0625 1.015625 -4.953125 L 1.015625 1.46875 C 1.015625 1.578125 1.015625 1.734375 1.171875 1.734375 C 1.359375 1.734375 1.359375 1.578125 1.359375 1.46875 Z M 1.359375 -4.953125 "/></g><g id="533ca8579bc13050ceb8e296b863206djpoyguf7__glyph-2-2"><path d="M 4.875 -3.265625 C 4.953125 -3.34375 4.96875 -3.390625 4.96875 -3.4375 C 4.96875 -3.546875 4.890625 -3.609375 4.8125 -3.609375 C 4.734375 -3.609375 4.71875 -3.59375 4.640625 -3.5 L 3.109375 -1.984375 L 1.578125 -3.515625 C 1.5 -3.578125 1.484375 -3.609375 1.421875 -3.609375 C 1.3125 -3.609375 1.234375 -3.53125 1.234375 -3.4375 C 1.234375 -3.375 1.265625 -3.359375 1.34375 -3.265625 L 2.859375 -1.75 L 1.34375 -0.234375 C 1.25 -0.125 1.234375 -0.09375 1.234375 -0.0625 C 1.234375 0.046875 1.3125 0.125 1.421875 0.125 C 1.484375 0.125 1.5 0.09375 1.578125 0.015625 L 3.109375 -1.5 L 4.703125 0.078125 C 4.734375 0.109375 4.765625 0.125 4.8125 0.125 C 4.890625 0.125 4.96875 0.0625 4.96875 -0.0625 C 4.96875 -0.109375 4.96875 -0.125 4.9375 -0.140625 C 4.921875 -0.171875 3.578125 -1.53125 3.359375 -1.734375 Z M 4.875 -3.265625 "/></g><g id="533ca8579bc13050ceb8e296b863206djpoyguf7__glyph-3-0"><path d="M 2.46875 -5.21875 C 1.15625 -4.296875 0.796875 -2.8125 0.796875 -1.75 C 0.796875 -0.765625 1.09375 0.765625 2.46875 1.734375 C 2.53125 1.734375 2.609375 1.734375 2.609375 1.65625 C 2.609375 1.609375 2.59375 1.59375 2.546875 1.546875 C 1.609375 0.703125 1.28125 -0.46875 1.28125 -1.734375 C 1.28125 -3.625 2 -4.546875 2.5625 -5.0625 C 2.59375 -5.09375 2.609375 -5.109375 2.609375 -5.140625 C 2.609375 -5.21875 2.53125 -5.21875 2.46875 -5.21875 Z M 2.46875 -5.21875 "/></g><g id="533ca8579bc13050ceb8e296b863206djpoyguf7__glyph-3-1"><path d="M 0.625 -5.21875 C 0.578125 -5.21875 0.5 -5.21875 0.5 -5.140625 C 0.5 -5.109375 0.515625 -5.09375 0.5625 -5.03125 C 1.15625 -4.484375 1.828125 -3.546875 1.828125 -1.75 C 1.828125 -0.296875 1.375 0.8125 0.625 1.484375 C 0.5 1.609375 0.5 1.609375 0.5 1.65625 C 0.5 1.6875 0.515625 1.734375 0.578125 1.734375 C 0.671875 1.734375 1.328125 1.28125 1.796875 0.40625 C 2.09375 -0.171875 2.296875 -0.921875 2.296875 -1.734375 C 2.296875 -2.71875 2 -4.25 0.625 -5.21875 Z M 0.625 -5.21875 "/></g><g id="533ca8579bc13050ceb8e296b863206djpoyguf7__glyph-3-2"><path d="M 3.484375 -4.8125 C 3.421875 -4.9375 3.40625 -4.96875 3.265625 -4.96875 C 3.171875 -4.96875 3.109375 -4.953125 3.046875 -4.84375 L 0.46875 -0.171875 C 0.421875 -0.09375 0.421875 -0.078125 0.421875 -0.0625 C 0.421875 0 0.484375 0 0.59375 0 L 5.9375 0 C 6.046875 0 6.109375 0 6.109375 -0.0625 C 6.109375 -0.078125 6.109375 -0.09375 6.0625 -0.171875 Z M 3.03125 -4.28125 L 5.078125 -0.578125 L 0.984375 -0.578125 Z M 3.03125 -4.28125 "/></g><g id="533ca8579bc13050ceb8e296b863206djpoyguf7__glyph-4-0"><path d="M 2.171875 -2.53125 L 3 -2.53125 C 2.890625 -2.109375 2.734375 -1.484375 2.734375 -0.921875 C 2.734375 -0.640625 2.78125 -0.453125 2.8125 -0.3125 C 2.921875 0.046875 3.015625 0.0625 3.125 0.0625 C 3.296875 0.0625 3.453125 -0.078125 3.453125 -0.25 C 3.453125 -0.296875 3.4375 -0.328125 3.40625 -0.390625 C 3.265625 -0.65625 3.140625 -1.046875 3.140625 -1.625 C 3.140625 -1.75 3.140625 -2.03125 3.234375 -2.53125 L 4.109375 -2.53125 C 4.234375 -2.53125 4.296875 -2.53125 4.375 -2.578125 C 4.46875 -2.65625 4.484375 -2.765625 4.484375 -2.796875 C 4.484375 -3 4.3125 -3 4.1875 -3 L 1.5625 -3 C 1.28125 -3 1.078125 -2.9375 0.765625 -2.640625 C 0.578125 -2.484375 0.3125 -2.109375 0.3125 -2.046875 C 0.3125 -1.96875 0.40625 -1.96875 0.4375 -1.96875 C 0.515625 -1.96875 0.515625 -1.984375 0.5625 -2.046875 C 0.90625 -2.53125 1.34375 -2.53125 1.5 -2.53125 L 1.921875 -2.53125 C 1.703125 -1.765625 1.328125 -0.9375 1.125 -0.515625 C 1.078125 -0.4375 1.015625 -0.28125 0.984375 -0.265625 C 0.984375 -0.234375 0.96875 -0.203125 0.96875 -0.15625 C 0.96875 -0.046875 1.046875 0.0625 1.21875 0.0625 C 1.484375 0.0625 1.5625 -0.25 1.734375 -0.875 Z M 2.171875 -2.53125 "/></g><g id="533ca8579bc13050ceb8e296b863206djpoyguf7__glyph-4-1"><path d="M 1.46875 -0.109375 C 1.46875 0.265625 1.40625 0.71875 0.921875 1.15625 C 0.90625 1.1875 0.875 1.21875 0.875 1.25 C 0.875 1.296875 0.9375 1.34375 0.96875 1.34375 C 1.078125 1.34375 1.671875 0.78125 1.671875 -0.046875 C 1.671875 -0.46875 1.5 -0.796875 1.171875 -0.796875 C 0.953125 -0.796875 0.78125 -0.625 0.78125 -0.40625 C 0.78125 -0.1875 0.9375 0 1.1875 0 C 1.359375 0 1.46875 -0.109375 1.46875 -0.109375 Z M 1.46875 -0.109375 "/></g><g id="533ca8579bc13050ceb8e296b863206djpoyguf7__glyph-5-0"><path d="M 2.03125 -1.578125 L 2.640625 -1.578125 C 3.09375 -1.578125 3.125 -1.515625 3.125 -1.34375 C 3.125 -1.265625 3.109375 -1.140625 3.09375 -1.109375 C 3.09375 -1.09375 3.09375 -1.09375 3.09375 -1.078125 C 3.09375 -1.046875 3.109375 -1 3.1875 -1 C 3.265625 -1 3.296875 -1.015625 3.3125 -1.09375 L 3.609375 -2.296875 C 3.609375 -2.3125 3.609375 -2.390625 3.5 -2.390625 C 3.421875 -2.390625 3.40625 -2.359375 3.390625 -2.265625 C 3.28125 -1.875 3.140625 -1.796875 2.671875 -1.796875 L 2.078125 -1.796875 L 2.375 -3 C 2.421875 -3.15625 2.421875 -3.15625 2.625 -3.15625 L 3.546875 -3.15625 C 4.25 -3.15625 4.421875 -3.03125 4.421875 -2.53125 C 4.421875 -2.421875 4.40625 -2.296875 4.40625 -2.28125 C 4.40625 -2.21875 4.46875 -2.1875 4.515625 -2.1875 C 4.609375 -2.1875 4.609375 -2.234375 4.625 -2.328125 L 4.703125 -3.21875 L 4.71875 -3.296875 C 4.71875 -3.390625 4.640625 -3.390625 4.546875 -3.390625 L 1.546875 -3.390625 C 1.453125 -3.390625 1.375 -3.390625 1.375 -3.25 C 1.375 -3.15625 1.4375 -3.15625 1.5625 -3.15625 C 1.609375 -3.15625 1.78125 -3.15625 1.875 -3.125 C 1.875 -3.078125 1.875 -3.0625 1.859375 -3 L 1.21875 -0.40625 C 1.171875 -0.265625 1.171875 -0.21875 0.78125 -0.21875 C 0.65625 -0.21875 0.578125 -0.21875 0.578125 -0.078125 C 0.578125 -0.046875 0.625 0 0.671875 0 C 0.78125 0 0.90625 -0.015625 1.015625 -0.015625 C 1.140625 -0.015625 1.265625 -0.015625 1.40625 -0.015625 C 1.546875 -0.015625 1.671875 -0.015625 1.8125 -0.015625 C 1.953125 -0.015625 2.09375 0 2.234375 0 C 2.265625 0 2.359375 0 2.359375 -0.140625 C 2.359375 -0.21875 2.28125 -0.21875 2.15625 -0.21875 C 2.03125 -0.21875 2 -0.21875 1.875 -0.234375 C 1.75 -0.25 1.71875 -0.25 1.71875 -0.3125 C 1.71875 -0.34375 1.71875 -0.34375 1.734375 -0.421875 Z M 2.03125 -1.578125 "/></g><g id="533ca8579bc13050ceb8e296b863206djpoyguf7__glyph-6-0"><path d="M 2.84375 -3.25 C 2.84375 -3.328125 2.84375 -3.453125 2.703125 -3.453125 C 2.5625 -3.453125 2.5625 -3.3125 2.5625 -3.25 L 2.5625 -0.28125 L 0.84375 -0.28125 C 0.765625 -0.28125 0.625 -0.28125 0.625 -0.140625 C 0.625 0 0.765625 0 0.84375 0 L 4.5625 0 C 4.640625 0 4.78125 0 4.78125 -0.140625 C 4.78125 -0.28125 4.640625 -0.28125 4.5625 -0.28125 L 2.84375 -0.28125 Z M 2.84375 -3.25 "/></g><g id="533ca8579bc13050ceb8e296b863206djpoyguf7__glyph-7-0"><path d="M 3.53125 -2.578125 C 3.53125 -2.6875 3.53125 -2.84375 3.359375 -2.84375 C 3.1875 -2.84375 3.1875 -2.671875 3.1875 -2.546875 L 3.1875 -0.203125 L 0.8125 -0.203125 C 0.703125 -0.203125 0.546875 -0.203125 0.546875 -0.03125 C 0.546875 0.140625 0.703125 0.140625 0.8125 0.140625 L 3.25 0.140625 C 3.484375 0.140625 3.53125 0.09375 3.53125 -0.125 Z M 3.53125 -2.578125 "/></g></g></defs><g fill="rgb(0%, 0%, 0%)" fill-opacity="1"><use xlink:href="#533ca8579bc13050ceb8e296b863206djpoyguf7__glyph-0-0" x="68.757187" y="11.479087"/></g><g fill="rgb(0%, 0%, 0%)" fill-opacity="1"><use xlink:href="#533ca8579bc13050ceb8e296b863206djpoyguf7__glyph-0-1" x="109.141232" y="45.134789"/></g><g fill="rgb(0%, 0%, 0%)" fill-opacity="1"><use xlink:href="#533ca8579bc13050ceb8e296b863206djpoyguf7__glyph-1-0" x="119.136274" y="45.134789"/></g><g fill="rgb(0%, 0%, 0%)" fill-opacity="1"><use xlink:href="#533ca8579bc13050ceb8e296b863206djpoyguf7__glyph-0-1" x="129.088514" y="45.134789"/></g><g fill="rgb(0%, 0%, 0%)" fill-opacity="1"><use xlink:href="#533ca8579bc13050ceb8e296b863206djpoyguf7__glyph-2-0" x="136.874912" y="41.521826"/></g><g fill="rgb(0%, 0%, 0%)" fill-opacity="1"><use xlink:href="#533ca8579bc13050ceb8e296b863206djpoyguf7__glyph-0-1" x="223.397163" y="45.134789"/></g><g fill="rgb(0%, 0%, 0%)" fill-opacity="1"><use xlink:href="#533ca8579bc13050ceb8e296b863206djpoyguf7__glyph-1-1" x="233.392205" y="45.134789"/></g><g fill="rgb(0%, 0%, 0%)" fill-opacity="1"><use xlink:href="#533ca8579bc13050ceb8e296b863206djpoyguf7__glyph-0-1" x="243.344445" y="45.134789"/></g><g fill="rgb(0%, 0%, 0%)" fill-opacity="1"><use xlink:href="#533ca8579bc13050ceb8e296b863206djpoyguf7__glyph-2-0" x="251.130843" y="41.521826"/></g><g fill="rgb(0%, 0%, 0%)" fill-opacity="1"><use xlink:href="#533ca8579bc13050ceb8e296b863206djpoyguf7__glyph-0-2" x="122.342132" y="103.173988"/></g><g fill="rgb(0%, 0%, 0%)" fill-opacity="1"><use xlink:href="#533ca8579bc13050ceb8e296b863206djpoyguf7__glyph-0-2" x="199.945881" y="103.173988"/></g><g fill="rgb(0%, 0%, 0%)" fill-opacity="1"><use xlink:href="#533ca8579bc13050ceb8e296b863206djpoyguf7__glyph-1-1" x="210.203715" y="103.173988"/></g><g fill="rgb(0%, 0%, 0%)" fill-opacity="1"><use xlink:href="#533ca8579bc13050ceb8e296b863206djpoyguf7__glyph-0-2" x="220.165909" y="103.173988"/></g><path fill="none" stroke="rgb(0%, 0%, 0%)" stroke-dasharray="2.78941 1.59395" stroke-linecap="butt" stroke-linejoin="miter" stroke-miterlimit="10" stroke-opacity="1" stroke-width="0.39848" d="M -91.675358 39.052545 L -62.334302 21.721578 " transform="matrix(0.99916, 0, 0, -0.99916, 171.711621, 54.340049)"/><path fill="none" stroke="rgb(0%, 0%, 0%)" stroke-linecap="round" stroke-linejoin="round" stroke-miterlimit="10" stroke-opacity="1" stroke-width="0.39848" d="M -2.072703 2.39158 C -1.693627 0.958076 -0.852077 0.279097 -0.00174897 0.00036135 C -0.849864 -0.278127 -1.692682 -0.957626 -2.072634 -2.389948 " transform="matrix(0.860237, 0.508153, 0.508153, -0.860237, 109.602883, 32.739481)"/><path fill="none" stroke="rgb(0%, 0%, 0%)" stroke-linecap="butt" stroke-linejoin="miter" stroke-miterlimit="10" stroke-opacity="1" stroke-width="0.39848" d="M -90.623693 43.075456 L 46.851177 16.052754 " transform="matrix(0.99916, 0, 0, -0.99916, 171.711621, 54.340049)"/><path fill="none" stroke="rgb(0%, 0%, 0%)" stroke-linecap="round" stroke-linejoin="round" stroke-miterlimit="10" stroke-opacity="1" stroke-width="0.39848" d="M -2.070803 2.390033 C -1.693703 0.95802 -0.850989 0.278951 0.000718187 0.000098544 C -0.849002 -0.278486 -1.69237 -0.954269 -2.071306 -2.391445 " transform="matrix(0.980366, 0.192698, 0.192698, -0.980366, 218.718027, 38.339802)"/><g fill="rgb(0%, 0%, 0%)" fill-opacity="1"><use xlink:href="#533ca8579bc13050ceb8e296b863206djpoyguf7__glyph-3-0" x="152.379876" y="19.975943"/></g><g fill="rgb(0%, 0%, 0%)" fill-opacity="1"><use xlink:href="#533ca8579bc13050ceb8e296b863206djpoyguf7__glyph-4-0" x="155.490364" y="19.975943"/></g><g fill="rgb(0%, 0%, 0%)" fill-opacity="1"><use xlink:href="#533ca8579bc13050ceb8e296b863206djpoyguf7__glyph-5-0" x="160.145346" y="20.977101"/></g><g fill="rgb(0%, 0%, 0%)" fill-opacity="1"><use xlink:href="#533ca8579bc13050ceb8e296b863206djpoyguf7__glyph-4-1" x="165.824571" y="19.975943"/><use xlink:href="#533ca8579bc13050ceb8e296b863206djpoyguf7__glyph-4-0" x="168.188793" y="19.975943"/></g><g fill="rgb(0%, 0%, 0%)" fill-opacity="1"><use xlink:href="#533ca8579bc13050ceb8e296b863206djpoyguf7__glyph-5-0" x="172.843669" y="22.497822"/></g><g fill="rgb(0%, 0%, 0%)" fill-opacity="1"><use xlink:href="#533ca8579bc13050ceb8e296b863206djpoyguf7__glyph-6-0" x="178.025312" y="21.032055"/></g><g fill="rgb(0%, 0%, 0%)" fill-opacity="1"><use xlink:href="#533ca8579bc13050ceb8e296b863206djpoyguf7__glyph-3-1" x="184.411942" y="19.975943"/></g><path fill="none" stroke="rgb(0%, 0%, 0%)" stroke-linecap="butt" stroke-linejoin="miter" stroke-miterlimit="10" stroke-opacity="1" stroke-width="0.39848" d="M -98.466219 39.052545 L -50.660432 -37.883184 " transform="matrix(0.99916, 0, 0, -0.99916, 171.711621, 54.340049)"/><path fill="none" stroke="rgb(0%, 0%, 0%)" stroke-linecap="round" stroke-linejoin="round" stroke-miterlimit="10" stroke-opacity="1" stroke-width="0.39848" d="M -2.072486 2.393076 C -1.694503 0.956834 -0.849375 0.279798 -0.000728804 0.0010366 C -0.849991 -0.276778 -1.696129 -0.956993 -2.071167 -2.390232 " transform="matrix(0.527317, 0.848636, 0.848636, -0.527317, 121.198723, 92.36054)"/><g fill="rgb(0%, 0%, 0%)" fill-opacity="1"><use xlink:href="#533ca8579bc13050ceb8e296b863206djpoyguf7__glyph-4-0" x="90.069268" y="59.267905"/></g><path fill="none" stroke="rgb(0%, 0%, 0%)" stroke-linecap="butt" stroke-linejoin="miter" stroke-miterlimit="10" stroke-opacity="1" stroke-width="0.39848" d="M -23.653368 11.705351 L 46.843358 11.705351 " transform="matrix(0.99916, 0, 0, -0.99916, 171.711621, 54.340049)"/><path fill="none" stroke="rgb(0%, 0%, 0%)" stroke-linecap="round" stroke-linejoin="round" stroke-miterlimit="10" stroke-opacity="1" stroke-width="0.39848" d="M -2.071499 2.389757 C -1.692274 0.954958 -0.851724 0.278608 0.000554148 0.0010312 C -0.851724 -0.280455 -1.692274 -0.956805 -2.071499 -2.391604 " transform="matrix(0.99916, 0, 0, -0.99916, 218.71429, 42.645562)"/><path fill="none" stroke="rgb(0%, 0%, 0%)" stroke-linecap="butt" stroke-linejoin="miter" stroke-miterlimit="10" stroke-opacity="1" stroke-width="0.39848" d="M -45.38256 4.539175 L -45.38256 -37.824541 " transform="matrix(0.99916, 0, 0, -0.99916, 171.711621, 54.340049)"/><path fill="none" stroke="rgb(0%, 0%, 0%)" stroke-linecap="round" stroke-linejoin="round" stroke-miterlimit="10" stroke-opacity="1" stroke-width="0.39848" d="M -2.070576 2.392475 C -1.695261 0.957676 -0.850801 0.277417 0.00147717 -0.000160104 C -0.850801 -0.277737 -1.695261 -0.957996 -2.070576 -2.392795 " transform="matrix(0, 0.99916, 0.99916, 0, 126.367347, 92.330555)"/><g fill="rgb(0%, 0%, 0%)" fill-opacity="1"><use xlink:href="#533ca8579bc13050ceb8e296b863206djpoyguf7__glyph-7-0" x="148.929776" y="56.64611"/></g><path fill="none" stroke="rgb(0%, 0%, 0%)" stroke-linecap="butt" stroke-linejoin="miter" stroke-miterlimit="10" stroke-opacity="1" stroke-width="0.39848" d="M 68.971323 4.539175 L 68.971323 -37.824541 " transform="matrix(0.99916, 0, 0, -0.99916, 171.711621, 54.340049)"/><path fill="none" stroke="rgb(0%, 0%, 0%)" stroke-linecap="round" stroke-linejoin="round" stroke-miterlimit="10" stroke-opacity="1" stroke-width="0.39848" d="M -2.070576 2.392658 C -1.695261 0.957859 -0.850801 0.2776 0.00147717 0.0000229545 C -0.850801 -0.277554 -1.695261 -0.957813 -2.070576 -2.392612 " transform="matrix(0, 0.99916, 0.99916, 0, 240.624977, 92.330555)"/><g fill="rgb(0%, 0%, 0%)" fill-opacity="1"><use xlink:href="#533ca8579bc13050ceb8e296b863206djpoyguf7__glyph-4-0" x="242.965709" y="72.519763"/></g><g fill="rgb(0%, 0%, 0%)" fill-opacity="1"><use xlink:href="#533ca8579bc13050ceb8e296b863206djpoyguf7__glyph-2-1" x="247.87114" y="72.519763"/></g><g fill="rgb(0%, 0%, 0%)" fill-opacity="1"><use xlink:href="#533ca8579bc13050ceb8e296b863206djpoyguf7__glyph-5-0" x="250.234597" y="73.520921"/></g><g fill="rgb(0%, 0%, 0%)" fill-opacity="1"><use xlink:href="#533ca8579bc13050ceb8e296b863206djpoyguf7__glyph-2-2" x="255.913822" y="72.519763"/></g><g fill="rgb(0%, 0%, 0%)" fill-opacity="1"><use xlink:href="#533ca8579bc13050ceb8e296b863206djpoyguf7__glyph-4-0" x="262.135497" y="72.519763"/></g><g fill="rgb(0%, 0%, 0%)" fill-opacity="1"><use xlink:href="#533ca8579bc13050ceb8e296b863206djpoyguf7__glyph-2-1" x="267.040927" y="72.519763"/></g><g fill="rgb(0%, 0%, 0%)" fill-opacity="1"><use xlink:href="#533ca8579bc13050ceb8e296b863206djpoyguf7__glyph-5-0" x="269.404479" y="75.041642"/></g><g fill="rgb(0%, 0%, 0%)" fill-opacity="1"><use xlink:href="#533ca8579bc13050ceb8e296b863206djpoyguf7__glyph-6-0" x="274.585123" y="73.575875"/></g><path fill="none" stroke="rgb(0%, 0%, 0%)" stroke-linecap="butt" stroke-linejoin="miter" stroke-miterlimit="10" stroke-opacity="1" stroke-width="0.39848" d="M -36.863685 -46.382512 L 23.370513 -46.382512 " transform="matrix(0.99916, 0, 0, -0.99916, 171.711621, 54.340049)"/><path fill="none" stroke="rgb(0%, 0%, 0%)" stroke-linecap="round" stroke-linejoin="round" stroke-miterlimit="10" stroke-opacity="1" stroke-width="0.39848" d="M -2.073094 2.390434 C -1.693869 0.955635 -0.84941 0.279285 -0.00104077 0.00170814 C -0.84941 -0.279778 -1.693869 -0.956128 -2.073094 -2.390927 " transform="matrix(0.99916, 0, 0, -0.99916, 195.262759, 100.6853)"/><g fill="rgb(0%, 0%, 0%)" fill-opacity="1"><use xlink:href="#533ca8579bc13050ceb8e296b863206djpoyguf7__glyph-3-2" x="161.899871" y="107.788108"/></g></svg>