<?xml version="1.0" encoding="UTF-8"?><svg xmlns="http://www.w3.org/2000/svg" xmlns:xlink="http://www.w3.org/1999/xlink" width="343.711" height="137.913" viewBox="0 0 343.711 137.913"><defs><g><g id="b106d3dc390024c091ce9e587e19e4478hmetc1d__glyph-0-0"><path d="M 1.140625 -2.1875 C 1.265625 -2.234375 1.609375 -2.453125 1.609375 -2.59375 C 1.609375 -2.65625 1.546875 -2.65625 1.5 -2.65625 C 1.15625 -2.65625 0.171875 -2.234375 0.171875 -1.234375 C 0.171875 -0.515625 0.984375 0.21875 2.203125 0.21875 C 3.828125 0.21875 5.703125 -0.90625 5.703125 -2.265625 C 5.703125 -3.203125 4.703125 -3.65625 3.90625 -4.015625 C 3.203125 -4.34375 2.75 -4.75 2.75 -5.3125 C 2.75 -5.53125 2.84375 -5.90625 3.140625 -6.1875 C 3.4375 -6.4375 4 -6.46875 4.140625 -6.46875 C 4.25 -6.46875 4.671875 -6.453125 5.09375 -6.265625 C 5.28125 -6.1875 5.546875 -6.0625 5.546875 -5.640625 C 5.546875 -5.5 5.53125 -5.4375 5.5 -5.328125 C 5.5 -5.3125 5.484375 -5.265625 5.484375 -5.234375 C 5.484375 -5.171875 5.546875 -5.171875 5.578125 -5.171875 C 5.71875 -5.171875 5.953125 -5.265625 6.15625 -5.4375 C 6.28125 -5.53125 6.390625 -5.65625 6.390625 -6.046875 C 6.390625 -6.546875 6.125 -6.671875 5.859375 -6.796875 C 5.390625 -7.015625 4.9375 -7.015625 4.796875 -7.015625 C 3.5 -7.015625 1.90625 -6.015625 1.90625 -4.890625 C 1.90625 -4.046875 2.765625 -3.65625 3.25 -3.4375 C 3.953125 -3.125 4.859375 -2.671875 4.859375 -1.828125 C 4.859375 -1.171875 4.375 -0.328125 2.859375 -0.328125 C 1.84375 -0.328125 1.03125 -0.984375 1.03125 -1.65625 C 1.03125 -1.84375 1.078125 -2.015625 1.140625 -2.1875 Z M 1.140625 -2.1875 "/></g><g id="b106d3dc390024c091ce9e587e19e4478hmetc1d__glyph-1-0"><path d="M 5.875 -4.8125 C 5.875 -4.84375 5.859375 -4.90625 5.78125 -4.90625 C 5.734375 -4.90625 5.71875 -4.890625 5.65625 -4.8125 L 5.15625 -4.28125 C 5.09375 -4.359375 4.703125 -4.90625 3.84375 -4.90625 C 2.140625 -4.90625 0.484375 -3.40625 0.484375 -1.828125 C 0.484375 -0.75 1.3125 0.140625 2.640625 0.140625 C 3.265625 0.140625 3.90625 -0.015625 4.265625 -0.40625 C 4.34375 -0.265625 4.53125 0 4.609375 0 C 4.671875 0 4.6875 -0.03125 4.71875 -0.1875 L 4.859375 -0.71875 C 4.890625 -0.84375 4.984375 -1.265625 5.015625 -1.34375 C 5.09375 -1.65625 5.09375 -1.671875 5.515625 -1.671875 C 5.5625 -1.671875 5.671875 -1.671875 5.671875 -1.8125 C 5.671875 -1.890625 5.609375 -1.921875 5.5625 -1.921875 C 5.328125 -1.921875 5.03125 -1.890625 4.796875 -1.890625 C 4.625 -1.890625 4.390625 -1.890625 4.21875 -1.90625 C 4.046875 -1.90625 3.84375 -1.921875 3.671875 -1.921875 C 3.609375 -1.921875 3.515625 -1.921875 3.515625 -1.765625 C 3.515625 -1.671875 3.59375 -1.671875 3.765625 -1.671875 C 3.890625 -1.671875 4.03125 -1.671875 4.171875 -1.65625 C 4.390625 -1.640625 4.390625 -1.609375 4.390625 -1.53125 C 4.390625 -1.5 4.390625 -1.484375 4.34375 -1.296875 C 4.296875 -1.109375 4.21875 -0.796875 4.1875 -0.71875 C 4 -0.296875 3.34375 -0.109375 2.796875 -0.109375 C 2.109375 -0.109375 1.1875 -0.453125 1.1875 -1.625 C 1.1875 -2.375 1.546875 -3.296875 2.0625 -3.828125 C 2.78125 -4.53125 3.515625 -4.640625 3.90625 -4.640625 C 4.71875 -4.640625 5.1875 -4.0625 5.1875 -3.28125 C 5.1875 -3.09375 5.171875 -3.03125 5.171875 -3 C 5.171875 -2.90625 5.265625 -2.90625 5.296875 -2.90625 C 5.40625 -2.90625 5.40625 -2.921875 5.4375 -3.0625 Z M 5.875 -4.8125 "/></g><g id="b106d3dc390024c091ce9e587e19e4478hmetc1d__glyph-1-1"><path d="M 1.46875 -0.109375 C 1.46875 0.265625 1.40625 0.71875 0.921875 1.15625 C 0.90625 1.1875 0.875 1.21875 0.875 1.25 C 0.875 1.296875 0.9375 1.34375 0.96875 1.34375 C 1.078125 1.34375 1.671875 0.78125 1.671875 -0.046875 C 1.671875 -0.46875 1.5 -0.796875 1.171875 -0.796875 C 0.953125 -0.796875 0.78125 -0.625 0.78125 -0.40625 C 0.78125 -0.1875 0.9375 0 1.1875 0 C 1.359375 0 1.46875 -0.109375 1.46875 -0.109375 Z M 1.46875 -0.109375 "/></g><g id="b106d3dc390024c091ce9e587e19e4478hmetc1d__glyph-1-2"><path d="M 3.0625 -4.359375 C 3.0625 -4.46875 2.96875 -4.625 2.78125 -4.625 C 2.578125 -4.625 2.390625 -4.421875 2.390625 -4.234375 C 2.390625 -4.125 2.46875 -3.96875 2.671875 -3.96875 C 2.859375 -3.96875 3.0625 -4.15625 3.0625 -4.359375 Z M 1.578125 0.34375 C 1.46875 0.828125 1.09375 1.21875 0.6875 1.21875 C 0.59375 1.21875 0.515625 1.21875 0.4375 1.1875 C 0.609375 1.09375 0.671875 0.9375 0.671875 0.828125 C 0.671875 0.65625 0.53125 0.578125 0.390625 0.578125 C 0.1875 0.578125 0 0.765625 0 0.984375 C 0 1.25 0.265625 1.421875 0.6875 1.421875 C 1.109375 1.421875 1.921875 1.171875 2.140625 0.328125 L 2.765625 -2.171875 C 2.78125 -2.25 2.796875 -2.3125 2.796875 -2.421875 C 2.796875 -2.796875 2.46875 -3.078125 2.0625 -3.078125 C 1.28125 -3.078125 0.84375 -2.109375 0.84375 -2 C 0.84375 -1.921875 0.9375 -1.921875 0.953125 -1.921875 C 1.03125 -1.921875 1.046875 -1.9375 1.09375 -2.046875 C 1.265625 -2.453125 1.625 -2.875 2.03125 -2.875 C 2.203125 -2.875 2.265625 -2.765625 2.265625 -2.53125 C 2.265625 -2.453125 2.265625 -2.359375 2.25 -2.328125 Z M 1.578125 0.34375 "/></g><g id="b106d3dc390024c091ce9e587e19e4478hmetc1d__glyph-2-0"><path d="M 6.390625 -4.5 C 6.390625 -4.71875 6.046875 -4.765625 5.890625 -4.765625 L 2.65625 -4.765625 C 2 -4.765625 1.59375 -4.4375 1.5 -4.25 C 1.484375 -4.21875 1.46875 -4.1875 1.46875 -4.15625 C 1.46875 -4.109375 1.5 -4.09375 1.546875 -4.09375 C 1.703125 -4.09375 1.90625 -4.21875 2.015625 -4.328125 C 2.140625 -4.34375 2.390625 -4.34375 2.5625 -4.34375 L 3.21875 -4.34375 C 3.03125 -3.375 2.875 -2.953125 2.671875 -2.359375 C 2.515625 -1.84375 1.859375 -0.390625 1.65625 -0.203125 C 1.109375 -0.203125 0.96875 -0.484375 0.875 -0.671875 C 0.84375 -0.6875 0.828125 -0.703125 0.796875 -0.703125 C 0.59375 -0.703125 0.234375 -0.453125 0.234375 -0.328125 C 0.234375 -0.28125 0.46875 0.234375 1.125 0.234375 C 1.578125 0.234375 2.078125 -0.09375 2.296875 -0.4375 C 2.5625 -0.828125 2.9375 -1.65625 3.109375 -2.109375 L 4.609375 -2.109375 L 4.609375 -2.078125 C 4.625 -2.046875 4.640625 -2.03125 4.6875 -2.03125 C 4.890625 -2.03125 5.28125 -2.25 5.28125 -2.46875 C 5.28125 -2.5 5.25 -2.53125 5.21875 -2.53125 L 3.28125 -2.53125 C 3.515625 -3.109375 3.6875 -3.71875 3.8125 -4.34375 L 5.234375 -4.34375 C 5.5 -4.34375 5.75 -4.3125 5.75 -4.1875 C 5.75 -4.15625 5.75 -4.140625 5.75 -4.125 C 5.75 -4.09375 5.765625 -4.078125 5.828125 -4.078125 C 5.921875 -4.078125 6.390625 -4.25 6.390625 -4.5 Z M 6.390625 -4.5 "/></g><g id="b106d3dc390024c091ce9e587e19e4478hmetc1d__glyph-2-1"><path d="M 5.1875 -1.578125 C 5.296875 -1.578125 5.46875 -1.578125 5.46875 -1.734375 C 5.46875 -1.921875 5.296875 -1.921875 5.1875 -1.921875 L 1.03125 -1.921875 C 0.921875 -1.921875 0.75 -1.921875 0.75 -1.75 C 0.75 -1.578125 0.90625 -1.578125 1.03125 -1.578125 Z M 5.1875 -1.578125 "/></g><g id="b106d3dc390024c091ce9e587e19e4478hmetc1d__glyph-3-0"><path d="M 2.5625 -1.921875 C 2.484375 -1.90625 2.34375 -1.796875 2.34375 -1.625 C 2.34375 -1.5 2.4375 -1.421875 2.5625 -1.421875 C 2.671875 -1.421875 2.859375 -1.515625 2.859375 -1.765625 C 2.859375 -2.140625 2.375 -2.203125 2.109375 -2.203125 C 1.265625 -2.203125 0.53125 -1.515625 0.53125 -0.859375 C 0.53125 -0.421875 0.859375 0.0625 1.609375 0.0625 C 1.703125 0.0625 2.09375 0.0625 2.4375 -0.078125 C 2.765625 -0.203125 2.96875 -0.4375 2.96875 -0.484375 C 2.96875 -0.53125 2.90625 -0.609375 2.859375 -0.609375 C 2.84375 -0.609375 2.828125 -0.59375 2.75 -0.515625 C 2.53125 -0.265625 2.109375 -0.109375 1.609375 -0.109375 C 1.1875 -0.109375 0.984375 -0.34375 0.984375 -0.6875 C 0.984375 -1.203125 1.328125 -2.03125 2.109375 -2.03125 C 2.15625 -2.03125 2.40625 -2.03125 2.5625 -1.921875 Z M 2.5625 -1.921875 "/></g><g id="b106d3dc390024c091ce9e587e19e4478hmetc1d__glyph-4-0"><path d="M 5.796875 -1.140625 C 5.203125 -0.75 4.859375 -0.53125 3.875 -0.53125 C 2.453125 -0.53125 1.546875 -2.03125 1.546875 -3.46875 C 1.546875 -4.8125 2.375 -6.375 3.90625 -6.375 C 4.609375 -6.375 5.0625 -6.203125 5.609375 -5.859375 L 5.75 -6.671875 C 5.3125 -6.890625 4.546875 -7.015625 3.90625 -7.015625 C 2.0625 -7.015625 0.65625 -5.46875 0.65625 -3.375 C 0.65625 -1.796875 1.84375 0.109375 3.90625 0.109375 C 4.828125 0.109375 5.203125 -0.046875 5.859375 -0.453125 Z M 5.796875 -1.140625 "/></g><g id="b106d3dc390024c091ce9e587e19e4478hmetc1d__glyph-4-1"><path d="M 3.96875 -2.875 C 3.96875 -3.890625 3.25 -4.59375 2.328125 -4.59375 C 1.6875 -4.59375 1.234375 -4.421875 0.765625 -4.15625 L 0.828125 -3.5 C 1.34375 -3.875 1.84375 -4 2.328125 -4 C 2.796875 -4 3.1875 -3.609375 3.1875 -2.859375 L 3.1875 -2.4375 C 1.703125 -2.421875 0.4375 -2 0.4375 -1.125 C 0.4375 -0.703125 0.703125 0.109375 1.578125 0.109375 C 1.71875 0.109375 2.640625 0.09375 3.21875 -0.359375 L 3.21875 0 L 3.96875 0 Z M 3.1875 -1.3125 C 3.1875 -1.125 3.1875 -0.875 2.859375 -0.6875 C 2.5625 -0.5 2.1875 -0.5 2.078125 -0.5 C 1.609375 -0.5 1.15625 -0.734375 1.15625 -1.140625 C 1.15625 -1.84375 2.765625 -1.90625 3.1875 -1.9375 Z M 3.1875 -1.3125 "/></g><g id="b106d3dc390024c091ce9e587e19e4478hmetc1d__glyph-4-2"><path d="M 1.734375 -3.84375 L 3.140625 -3.84375 L 3.140625 -4.421875 L 1.734375 -4.421875 L 1.734375 -5.6875 L 1.0625 -5.6875 L 1.0625 -4.421875 L 0.1875 -4.421875 L 0.1875 -3.84375 L 1.03125 -3.84375 L 1.03125 -1.1875 C 1.03125 -0.59375 1.171875 0.109375 1.84375 0.109375 C 2.546875 0.109375 3.0625 -0.140625 3.296875 -0.265625 L 3.140625 -0.859375 C 2.890625 -0.640625 2.5625 -0.53125 2.25 -0.53125 C 1.875 -0.53125 1.734375 -0.828125 1.734375 -1.359375 Z M 1.734375 -3.84375 "/></g><g id="b106d3dc390024c091ce9e587e19e4478hmetc1d__glyph-5-0"><path d="M 2.46875 -5.21875 C 1.15625 -4.296875 0.796875 -2.8125 0.796875 -1.75 C 0.796875 -0.765625 1.09375 0.765625 2.46875 1.734375 C 2.53125 1.734375 2.609375 1.734375 2.609375 1.65625 C 2.609375 1.609375 2.59375 1.59375 2.546875 1.546875 C 1.609375 0.703125 1.28125 -0.46875 1.28125 -1.734375 C 1.28125 -3.625 2 -4.546875 2.5625 -5.0625 C 2.59375 -5.09375 2.609375 -5.109375 2.609375 -5.140625 C 2.609375 -5.21875 2.53125 -5.21875 2.46875 -5.21875 Z M 2.46875 -5.21875 "/></g><g id="b106d3dc390024c091ce9e587e19e4478hmetc1d__glyph-5-1"><path d="M 0.625 -5.21875 C 0.578125 -5.21875 0.5 -5.21875 0.5 -5.140625 C 0.5 -5.109375 0.515625 -5.09375 0.5625 -5.03125 C 1.15625 -4.484375 1.828125 -3.546875 1.828125 -1.75 C 1.828125 -0.296875 1.375 0.8125 0.625 1.484375 C 0.5 1.609375 0.5 1.609375 0.5 1.65625 C 0.5 1.6875 0.515625 1.734375 0.578125 1.734375 C 0.671875 1.734375 1.328125 1.28125 1.796875 0.40625 C 2.09375 -0.171875 2.296875 -0.921875 2.296875 -1.734375 C 2.296875 -2.71875 2 -4.25 0.625 -5.21875 Z M 0.625 -5.21875 "/></g><g id="b106d3dc390024c091ce9e587e19e4478hmetc1d__glyph-5-2"><path d="M 1.53125 -2.59375 C 1.53125 -2.84375 1.328125 -3 1.125 -3 C 0.890625 -3 0.71875 -2.8125 0.71875 -2.609375 C 0.71875 -2.359375 0.921875 -2.203125 1.125 -2.203125 C 1.359375 -2.203125 1.53125 -2.390625 1.53125 -2.59375 Z M 1.53125 -0.390625 C 1.53125 -0.640625 1.328125 -0.796875 1.125 -0.796875 C 0.890625 -0.796875 0.71875 -0.609375 0.71875 -0.40625 C 0.71875 -0.15625 0.921875 0 1.125 0 C 1.359375 0 1.53125 -0.1875 1.53125 -0.390625 Z M 1.53125 -0.390625 "/></g><g id="b106d3dc390024c091ce9e587e19e4478hmetc1d__glyph-5-3"><path d="M 5.359375 -2.34375 C 5.453125 -2.34375 5.609375 -2.34375 5.609375 -2.515625 C 5.609375 -2.6875 5.453125 -2.6875 5.359375 -2.6875 L 0.75 -2.6875 C 0.65625 -2.6875 0.484375 -2.6875 0.484375 -2.515625 C 0.484375 -2.34375 0.640625 -2.34375 0.75 -2.34375 Z M 5.359375 -0.8125 C 5.453125 -0.8125 5.609375 -0.8125 5.609375 -0.96875 C 5.609375 -1.15625 5.453125 -1.15625 5.359375 -1.15625 L 0.75 -1.15625 C 0.640625 -1.15625 0.484375 -1.15625 0.484375 -0.96875 C 0.484375 -0.8125 0.65625 -0.8125 0.75 -0.8125 Z M 5.359375 -0.8125 "/></g><g id="b106d3dc390024c091ce9e587e19e4478hmetc1d__glyph-6-0"><path d="M 3.140625 -3.484375 C 3.109375 -3.53125 3.078125 -3.5625 3.0625 -3.59375 C 2.78125 -3.390625 2.5 -3.265625 2.25 -3.265625 C 2.0625 -3.265625 1.9375 -3.296875 1.671875 -3.421875 C 1.484375 -3.515625 1.296875 -3.59375 1.09375 -3.59375 C 0.75 -3.59375 0.515625 -3.4375 0.078125 -3.125 C 0.109375 -3.078125 0.140625 -3.046875 0.171875 -3 C 0.4375 -3.21875 0.71875 -3.34375 0.984375 -3.34375 C 1.15625 -3.34375 1.28125 -3.296875 1.546875 -3.171875 C 1.734375 -3.078125 1.921875 -3 2.125 -3 C 2.46875 -3 2.703125 -3.171875 3.140625 -3.484375 Z M 3.140625 -3.484375 "/></g><g id="b106d3dc390024c091ce9e587e19e4478hmetc1d__glyph-7-0"><path d="M 5.25 -3.203125 C 5.25 -3.421875 4.875 -3.40625 4.734375 -3.40625 L 2.296875 -3.40625 C 2.125 -3.40625 1.671875 -3.40625 1.390625 -3.140625 C 1.328125 -3.078125 1.265625 -3.015625 1.265625 -2.9375 C 1.265625 -2.921875 1.296875 -2.890625 1.3125 -2.890625 C 1.46875 -2.890625 1.578125 -2.953125 1.6875 -3.046875 C 1.78125 -3.0625 2.078125 -3.0625 2.171875 -3.0625 L 2.6875 -3.0625 C 2.625 -2.75 2.484375 -2.171875 2.28125 -1.640625 C 2 -0.921875 1.609375 -0.203125 1.53125 -0.171875 C 1.515625 -0.171875 1.484375 -0.15625 1.46875 -0.15625 C 0.96875 -0.15625 0.890625 -0.515625 0.8125 -0.515625 C 0.59375 -0.515625 0.359375 -0.3125 0.359375 -0.234375 C 0.359375 -0.15625 0.625 0.1875 1.09375 0.1875 C 1.375 0.1875 1.71875 0.03125 1.984375 -0.25 C 2.140625 -0.40625 2.390625 -0.921875 2.640625 -1.46875 L 3.859375 -1.46875 C 3.859375 -1.453125 3.890625 -1.421875 3.921875 -1.421875 C 4.09375 -1.421875 4.375 -1.5625 4.375 -1.765625 C 4.375 -1.796875 4.359375 -1.828125 4.328125 -1.828125 L 2.78125 -1.828125 C 2.9375 -2.1875 3.078125 -2.6875 3.15625 -3.0625 L 4.296875 -3.0625 C 4.375 -3.0625 4.734375 -3.0625 4.734375 -2.984375 L 4.734375 -2.953125 L 4.75 -2.921875 C 4.765625 -2.90625 4.796875 -2.890625 4.8125 -2.890625 C 4.96875 -2.890625 5.25 -3.046875 5.25 -3.203125 Z M 5.25 -3.203125 "/></g><g id="b106d3dc390024c091ce9e587e19e4478hmetc1d__glyph-7-1"><path d="M 1.921875 -1.375 C 1.921875 -1.46875 2.015625 -2.109375 2.015625 -2.15625 C 2.015625 -2.25 1.9375 -2.3125 1.828125 -2.3125 C 1.734375 -2.3125 1.65625 -2.234375 1.65625 -2.15625 C 1.65625 -2.109375 1.734375 -1.484375 1.75 -1.375 L 0.984375 -1.84375 C 0.921875 -1.875 0.90625 -1.890625 0.859375 -1.890625 C 0.78125 -1.890625 0.6875 -1.8125 0.6875 -1.703125 C 0.6875 -1.625 0.75 -1.5625 0.796875 -1.546875 C 1.078125 -1.4375 1.359375 -1.34375 1.640625 -1.25 C 1.359375 -1.140625 0.890625 -0.984375 0.8125 -0.9375 C 0.78125 -0.921875 0.6875 -0.890625 0.6875 -0.78125 C 0.6875 -0.671875 0.78125 -0.609375 0.859375 -0.609375 C 0.921875 -0.609375 1.078125 -0.703125 1.75 -1.109375 C 1.734375 -1 1.65625 -0.375 1.65625 -0.328125 C 1.65625 -0.25 1.734375 -0.171875 1.828125 -0.171875 C 1.9375 -0.171875 2.015625 -0.234375 2.015625 -0.328125 C 2.015625 -0.375 1.921875 -1.015625 1.921875 -1.109375 L 2.703125 -0.640625 C 2.734375 -0.625 2.765625 -0.609375 2.8125 -0.609375 C 2.890625 -0.609375 2.96875 -0.671875 2.96875 -0.78125 C 2.96875 -0.875 2.921875 -0.921875 2.875 -0.9375 C 2.59375 -1.046875 2.3125 -1.140625 2.03125 -1.234375 C 2.3125 -1.34375 2.765625 -1.515625 2.859375 -1.546875 C 2.890625 -1.5625 2.96875 -1.59375 2.96875 -1.703125 C 2.96875 -1.8125 2.890625 -1.890625 2.8125 -1.890625 C 2.765625 -1.890625 2.734375 -1.875 2.6875 -1.84375 Z M 1.921875 -1.375 "/></g><g id="b106d3dc390024c091ce9e587e19e4478hmetc1d__glyph-8-0"><path d="M 1.3125 -3.28125 C 1.3125 -3.46875 1.140625 -3.5625 1 -3.5625 C 0.859375 -3.5625 0.703125 -3.46875 0.703125 -3.28125 C 0.703125 -3.265625 0.703125 -3.1875 0.703125 -3.15625 L 0.890625 -1.109375 C 0.890625 -1.03125 0.90625 -0.984375 1 -0.984375 C 1.09375 -0.984375 1.109375 -1.03125 1.109375 -1.109375 Z M 1.3125 -0.296875 C 1.3125 -0.46875 1.171875 -0.609375 1 -0.609375 C 0.84375 -0.609375 0.703125 -0.46875 0.703125 -0.296875 C 0.703125 -0.140625 0.828125 0 1 0 C 1.171875 0 1.3125 -0.140625 1.3125 -0.296875 Z M 1.3125 -0.296875 "/></g><g id="b106d3dc390024c091ce9e587e19e4478hmetc1d__glyph-9-0"><path d="M 4.5625 4.390625 C 4.671875 4.390625 4.84375 4.390625 4.84375 4.21875 C 4.84375 4.046875 4.671875 4.046875 4.5625 4.046875 L 2.59375 4.046875 L 2.59375 0.84375 C 2.59375 0.71875 2.59375 0.53125 2.421875 0.53125 C 2.25 0.53125 2.25 0.703125 2.25 0.796875 L 2.25 4.046875 L 0.265625 4.046875 C 0.15625 4.046875 0 4.046875 0 4.21875 C 0 4.390625 0.171875 4.390625 0.265625 4.390625 Z M 4.5625 4.390625 "/></g><g id="b106d3dc390024c091ce9e587e19e4478hmetc1d__glyph-10-0"><path d="M 4.859375 4.0625 C 4.96875 4.046875 5.140625 4.03125 5.125 3.859375 C 5.109375 3.6875 4.9375 3.703125 4.828125 3.71875 L 2.875 3.84375 L 2.65625 0.65625 C 2.640625 0.53125 2.625 0.34375 2.453125 0.359375 C 2.28125 0.375 2.296875 0.546875 2.3125 0.640625 L 2.53125 3.875 L 0.546875 4.015625 C 0.4375 4.015625 0.28125 4.03125 0.296875 4.203125 C 0.3125 4.375 0.484375 4.359375 0.578125 4.359375 Z M 4.859375 4.0625 "/></g><g id="b106d3dc390024c091ce9e587e19e4478hmetc1d__glyph-11-0"><path d="M 4.234375 4.6875 C 4.34375 4.703125 4.515625 4.71875 4.53125 4.546875 C 4.546875 4.375 4.375 4.359375 4.265625 4.34375 L 2.3125 4.21875 L 2.53125 1.03125 C 2.546875 0.90625 2.5625 0.71875 2.390625 0.703125 C 2.21875 0.6875 2.203125 0.859375 2.1875 0.953125 L 1.96875 4.1875 L -0.015625 4.046875 C -0.125 4.046875 -0.28125 4.03125 -0.296875 4.203125 C -0.3125 4.375 -0.140625 4.390625 -0.046875 4.390625 Z M 4.234375 4.6875 "/></g></g></defs><g fill="rgb(0%, 0%, 0%)" fill-opacity="1"><use xlink:href="#b106d3dc390024c091ce9e587e19e4478hmetc1d__glyph-0-0" x="112.543371" y="35.479648"/></g><g fill="rgb(0%, 0%, 0%)" fill-opacity="1"><use xlink:href="#b106d3dc390024c091ce9e587e19e4478hmetc1d__glyph-1-0" x="119.317675" y="31.867685"/></g><g fill="rgb(0%, 0%, 0%)" fill-opacity="1"><use xlink:href="#b106d3dc390024c091ce9e587e19e4478hmetc1d__glyph-2-0" x="118.571303" y="38.221343"/></g><g fill="rgb(0%, 0%, 0%)" fill-opacity="1"><use xlink:href="#b106d3dc390024c091ce9e587e19e4478hmetc1d__glyph-3-0" x="124.975917" y="36.231016"/></g><g fill="rgb(0%, 0%, 0%)" fill-opacity="1"><use xlink:href="#b106d3dc390024c091ce9e587e19e4478hmetc1d__glyph-0-0" x="222.063284" y="35.479648"/></g><g fill="rgb(0%, 0%, 0%)" fill-opacity="1"><use xlink:href="#b106d3dc390024c091ce9e587e19e4478hmetc1d__glyph-1-0" x="228.837588" y="31.867685"/></g><g fill="rgb(0%, 0%, 0%)" fill-opacity="1"><use xlink:href="#b106d3dc390024c091ce9e587e19e4478hmetc1d__glyph-4-0" x="103.907632" y="106.173207"/><use xlink:href="#b106d3dc390024c091ce9e587e19e4478hmetc1d__glyph-4-1" x="110.26739" y="106.173207"/><use xlink:href="#b106d3dc390024c091ce9e587e19e4478hmetc1d__glyph-4-2" x="115.051393" y="106.173207"/></g><g fill="rgb(0%, 0%, 0%)" fill-opacity="1"><use xlink:href="#b106d3dc390024c091ce9e587e19e4478hmetc1d__glyph-1-0" x="118.64524" y="107.666951"/><use xlink:href="#b106d3dc390024c091ce9e587e19e4478hmetc1d__glyph-1-1" x="124.842527" y="107.666951"/></g><g fill="rgb(0%, 0%, 0%)" fill-opacity="1"><use xlink:href="#b106d3dc390024c091ce9e587e19e4478hmetc1d__glyph-2-0" x="127.20675" y="107.666951"/></g><g fill="rgb(0%, 0%, 0%)" fill-opacity="1"><use xlink:href="#b106d3dc390024c091ce9e587e19e4478hmetc1d__glyph-3-0" x="133.611656" y="105.675626"/></g><g fill="rgb(0%, 0%, 0%)" fill-opacity="1"><use xlink:href="#b106d3dc390024c091ce9e587e19e4478hmetc1d__glyph-4-0" x="218.081632" y="106.173207"/><use xlink:href="#b106d3dc390024c091ce9e587e19e4478hmetc1d__glyph-4-1" x="224.44139" y="106.173207"/><use xlink:href="#b106d3dc390024c091ce9e587e19e4478hmetc1d__glyph-4-2" x="229.225393" y="106.173207"/></g><g fill="rgb(0%, 0%, 0%)" fill-opacity="1"><use xlink:href="#b106d3dc390024c091ce9e587e19e4478hmetc1d__glyph-1-0" x="232.81924" y="107.666951"/></g><path fill="none" stroke="rgb(0%, 0%, 0%)" stroke-linecap="butt" stroke-linejoin="miter" stroke-miterlimit="10" stroke-opacity="1" stroke-width="0.39848" d="M -38.056093 43.213836 C -13.074167 59.012265 19.328054 59.012265 45.56885 42.416291 " transform="matrix(0.99916, 0, 0, -0.99916, 171.711621, 68.06425)"/><path fill="none" stroke="rgb(0%, 0%, 0%)" stroke-linecap="round" stroke-linejoin="round" stroke-miterlimit="10" stroke-opacity="1" stroke-width="0.39848" d="M -2.072738 2.390024 C -1.692903 0.955619 -0.847973 0.277976 -0.0010339 -0.000554912 C -0.851623 -0.279461 -1.695524 -0.956604 -2.072851 -2.3934 " transform="matrix(0.8444, 0.534051, 0.534051, -0.8444, 217.411326, 25.789146)"/><g fill="rgb(0%, 0%, 0%)" fill-opacity="1"><use xlink:href="#b106d3dc390024c091ce9e587e19e4478hmetc1d__glyph-5-0" x="158.769503" y="8.379435"/></g><g fill="rgb(0%, 0%, 0%)" fill-opacity="1"><use xlink:href="#b106d3dc390024c091ce9e587e19e4478hmetc1d__glyph-2-1" x="161.879992" y="8.379435"/></g><g fill="rgb(0%, 0%, 0%)" fill-opacity="1"><use xlink:href="#b106d3dc390024c091ce9e587e19e4478hmetc1d__glyph-5-1" x="168.101667" y="8.379435"/></g><g fill="rgb(0%, 0%, 0%)" fill-opacity="1"><use xlink:href="#b106d3dc390024c091ce9e587e19e4478hmetc1d__glyph-6-0" x="173.00953" y="9.573431"/></g><g fill="rgb(0%, 0%, 0%)" fill-opacity="1"><use xlink:href="#b106d3dc390024c091ce9e587e19e4478hmetc1d__glyph-7-0" x="171.212041" y="10.831373"/></g><g fill="rgb(0%, 0%, 0%)" fill-opacity="1"><use xlink:href="#b106d3dc390024c091ce9e587e19e4478hmetc1d__glyph-5-2" x="177.140057" y="8.379435"/><use xlink:href="#b106d3dc390024c091ce9e587e19e4478hmetc1d__glyph-5-3" x="179.393489" y="8.379435"/></g><g fill="rgb(0%, 0%, 0%)" fill-opacity="1"><use xlink:href="#b106d3dc390024c091ce9e587e19e4478hmetc1d__glyph-1-2" x="185.504373" y="8.379435"/></g><g fill="rgb(0%, 0%, 0%)" fill-opacity="1"><use xlink:href="#b106d3dc390024c091ce9e587e19e4478hmetc1d__glyph-8-0" x="188.798254" y="9.435547"/></g><path fill="none" stroke="rgb(0%, 0%, 0%)" stroke-linecap="butt" stroke-linejoin="miter" stroke-miterlimit="10" stroke-opacity="1" stroke-width="0.39848" d="M -38.056093 26.989268 C -13.074167 11.190839 19.328054 11.190839 46.784715 28.553082 " transform="matrix(0.99916, 0, 0, -0.99916, 171.711621, 68.06425)"/><path fill="none" stroke="rgb(0%, 0%, 0%)" stroke-linecap="round" stroke-linejoin="round" stroke-miterlimit="10" stroke-opacity="1" stroke-width="0.39848" d="M -2.071613 2.39104 C -1.692112 0.957569 -0.85026 0.277169 0.000346771 -0.00168732 C -0.849882 -0.278178 -1.694773 -0.955871 -2.071221 -2.39239 " transform="matrix(0.84443, -0.534001, -0.534001, -0.84443, 218.623806, 39.428448)"/><g fill="rgb(0%, 0%, 0%)" fill-opacity="1"><use xlink:href="#b106d3dc390024c091ce9e587e19e4478hmetc1d__glyph-5-0" x="158.092073" y="62.912582"/></g><g fill="rgb(0%, 0%, 0%)" fill-opacity="1"><use xlink:href="#b106d3dc390024c091ce9e587e19e4478hmetc1d__glyph-2-1" x="161.202562" y="62.912582"/></g><g fill="rgb(0%, 0%, 0%)" fill-opacity="1"><use xlink:href="#b106d3dc390024c091ce9e587e19e4478hmetc1d__glyph-5-1" x="167.424236" y="62.912582"/></g><g fill="rgb(0%, 0%, 0%)" fill-opacity="1"><use xlink:href="#b106d3dc390024c091ce9e587e19e4478hmetc1d__glyph-6-0" x="172.3311" y="58.650166"/></g><g fill="rgb(0%, 0%, 0%)" fill-opacity="1"><use xlink:href="#b106d3dc390024c091ce9e587e19e4478hmetc1d__glyph-7-0" x="170.534611" y="59.908108"/></g><g fill="rgb(0%, 0%, 0%)" fill-opacity="1"><use xlink:href="#b106d3dc390024c091ce9e587e19e4478hmetc1d__glyph-5-2" x="176.462626" y="62.912582"/><use xlink:href="#b106d3dc390024c091ce9e587e19e4478hmetc1d__glyph-5-3" x="178.716058" y="62.912582"/></g><g fill="rgb(0%, 0%, 0%)" fill-opacity="1"><use xlink:href="#b106d3dc390024c091ce9e587e19e4478hmetc1d__glyph-1-2" x="184.826943" y="62.912582"/></g><g fill="rgb(0%, 0%, 0%)" fill-opacity="1"><use xlink:href="#b106d3dc390024c091ce9e587e19e4478hmetc1d__glyph-7-1" x="188.120824" y="63.907745"/></g><path fill="none" stroke="rgb(0%, 0%, 0%)" stroke-linecap="butt" stroke-linejoin="miter" stroke-miterlimit="10" stroke-opacity="1" stroke-width="0.39848" d="M -50.879366 24.588814 L -50.879366 -26.977946 " transform="matrix(0.99916, 0, 0, -0.99916, 171.711621, 68.06425)"/><path fill="none" stroke="rgb(0%, 0%, 0%)" stroke-linecap="round" stroke-linejoin="miter" stroke-miterlimit="10" stroke-opacity="1" stroke-width="0.39848" d="M 0.00107394 1.952612 C 0.681333 1.952612 1.236487 1.514744 1.236487 0.975229 C 1.236487 0.435713 0.681333 0.00175444 0.00107394 0.00175444 " transform="matrix(0, -0.99916, 0.99916, 0, 120.873247, 43.497167)"/><path fill="none" stroke="rgb(0%, 0%, 0%)" stroke-linecap="round" stroke-linejoin="round" stroke-miterlimit="10" stroke-opacity="1" stroke-width="0.39848" d="M -2.073781 2.39048 C -1.694557 0.955681 -0.850097 0.279331 -0.0017281 0.00175444 C -0.850097 -0.279732 -1.694557 -0.956082 -2.073781 -2.390881 " transform="matrix(0, 0.99916, 0.99916, 0, 120.873247, 95.220477)"/><path fill="none" stroke="rgb(0%, 0%, 0%)" stroke-linecap="butt" stroke-linejoin="miter" stroke-miterlimit="10" stroke-opacity="1" stroke-width="0.39848" d="M 45.90507 35.101552 L -37.65732 35.101552 " transform="matrix(0.99916, 0, 0, -0.99916, 171.711621, 68.06425)"/><path fill="none" stroke="rgb(0%, 0%, 0%)" stroke-linecap="round" stroke-linejoin="round" stroke-miterlimit="10" stroke-opacity="1" stroke-width="0.39848" d="M -2.071277 2.389593 C -1.692052 0.954794 -0.851502 0.278445 0.000776262 0.000867891 C -0.851502 -0.280619 -1.692052 -0.956968 -2.071277 -2.391767 " transform="matrix(-0.99916, 0, 0, 0.99916, 133.887494, 32.99132)"/><path fill="rgb(100%, 100%, 100%)" fill-opacity="1" fill-rule="nonzero" d="M 154.328125 39.582031 L 196.9375 39.582031 L 196.9375 26.398438 L 154.328125 26.398438 Z M 154.328125 39.582031 "/><g fill="rgb(0%, 0%, 0%)" fill-opacity="1"><use xlink:href="#b106d3dc390024c091ce9e587e19e4478hmetc1d__glyph-5-0" x="156.472434" y="35.698464"/></g><g fill="rgb(0%, 0%, 0%)" fill-opacity="1"><use xlink:href="#b106d3dc390024c091ce9e587e19e4478hmetc1d__glyph-2-1" x="159.582923" y="35.698464"/></g><g fill="rgb(0%, 0%, 0%)" fill-opacity="1"><use xlink:href="#b106d3dc390024c091ce9e587e19e4478hmetc1d__glyph-5-1" x="165.804598" y="35.698464"/></g><g fill="rgb(0%, 0%, 0%)" fill-opacity="1"><use xlink:href="#b106d3dc390024c091ce9e587e19e4478hmetc1d__glyph-7-0" x="168.914972" y="32.69399"/></g><g fill="rgb(0%, 0%, 0%)" fill-opacity="1"><use xlink:href="#b106d3dc390024c091ce9e587e19e4478hmetc1d__glyph-3-0" x="174.344407" y="30.685679"/></g><g fill="rgb(0%, 0%, 0%)" fill-opacity="1"><use xlink:href="#b106d3dc390024c091ce9e587e19e4478hmetc1d__glyph-5-2" x="178.572852" y="35.698464"/><use xlink:href="#b106d3dc390024c091ce9e587e19e4478hmetc1d__glyph-5-3" x="180.826284" y="35.698464"/></g><g fill="rgb(0%, 0%, 0%)" fill-opacity="1"><use xlink:href="#b106d3dc390024c091ce9e587e19e4478hmetc1d__glyph-1-2" x="186.937169" y="35.698464"/></g><g fill="rgb(0%, 0%, 0%)" fill-opacity="1"><use xlink:href="#b106d3dc390024c091ce9e587e19e4478hmetc1d__glyph-7-1" x="190.633711" y="32.69399"/></g><path fill="none" stroke="rgb(0%, 0%, 0%)" stroke-linecap="butt" stroke-linejoin="miter" stroke-miterlimit="10" stroke-opacity="1" stroke-width="0.39848" d="M 57.137162 27.333307 L 57.137162 -26.977946 " transform="matrix(0.99916, 0, 0, -0.99916, 171.711621, 68.06425)"/><path fill="none" stroke="rgb(0%, 0%, 0%)" stroke-linecap="round" stroke-linejoin="miter" stroke-miterlimit="10" stroke-opacity="1" stroke-width="0.39848" d="M 0.00148713 1.9522 C 0.681746 1.9522 1.2369 1.514332 1.2369 0.974816 C 1.2369 0.4353 0.681746 0.00134213 0.00148713 0.00134213 " transform="matrix(0, -0.99916, 0.99916, 0, 228.79944, 40.755392)"/><path fill="none" stroke="rgb(0%, 0%, 0%)" stroke-linecap="round" stroke-linejoin="round" stroke-miterlimit="10" stroke-opacity="1" stroke-width="0.39848" d="M -2.073771 2.390068 C -1.694547 0.955269 -0.850087 0.278919 -0.0017181 0.00134213 C -0.850087 -0.280144 -1.694547 -0.956494 -2.073771 -2.391293 " transform="matrix(0, 0.99916, 0.99916, 0, 228.79944, 95.220467)"/><path fill="none" stroke="rgb(0%, 0%, 0%)" stroke-linecap="butt" stroke-linejoin="miter" stroke-miterlimit="10" stroke-opacity="1" stroke-width="0.39848" d="M -37.801973 -27.376718 C -13.074167 -11.74249 19.328054 -11.74249 43.71964 -27.165603 " transform="matrix(0.99916, 0, 0, -0.99916, 171.711621, 68.06425)"/><path fill="none" stroke="rgb(0%, 0%, 0%)" stroke-linecap="round" stroke-linejoin="round" stroke-miterlimit="10" stroke-opacity="1" stroke-width="0.39848" d="M -2.073239 2.390398 C -1.693508 0.955969 -0.848629 0.278265 -0.0017111 -0.000325626 C -0.849015 -0.27708 -1.692963 -0.954161 -2.070393 -2.390928 " transform="matrix(0.84444, 0.533991, 0.533991, -0.84444, 215.564119, 95.313139)"/><g fill="rgb(0%, 0%, 0%)" fill-opacity="1"><use xlink:href="#b106d3dc390024c091ce9e587e19e4478hmetc1d__glyph-5-0" x="158.57067" y="78.906134"/></g><g fill="rgb(0%, 0%, 0%)" fill-opacity="1"><use xlink:href="#b106d3dc390024c091ce9e587e19e4478hmetc1d__glyph-2-1" x="161.681159" y="78.906134"/></g><g fill="rgb(0%, 0%, 0%)" fill-opacity="1"><use xlink:href="#b106d3dc390024c091ce9e587e19e4478hmetc1d__glyph-5-1" x="167.902834" y="78.906134"/></g><g fill="rgb(0%, 0%, 0%)" fill-opacity="1"><use xlink:href="#b106d3dc390024c091ce9e587e19e4478hmetc1d__glyph-6-0" x="172.809698" y="80.101129"/></g><g fill="rgb(0%, 0%, 0%)" fill-opacity="1"><use xlink:href="#b106d3dc390024c091ce9e587e19e4478hmetc1d__glyph-7-0" x="171.013208" y="81.359072"/></g><g fill="rgb(0%, 0%, 0%)" fill-opacity="1"><use xlink:href="#b106d3dc390024c091ce9e587e19e4478hmetc1d__glyph-5-2" x="176.941224" y="78.906134"/><use xlink:href="#b106d3dc390024c091ce9e587e19e4478hmetc1d__glyph-5-3" x="179.194656" y="78.906134"/></g><g fill="rgb(0%, 0%, 0%)" fill-opacity="1"><use xlink:href="#b106d3dc390024c091ce9e587e19e4478hmetc1d__glyph-1-2" x="185.30554" y="78.906134"/></g><g fill="rgb(0%, 0%, 0%)" fill-opacity="1"><use xlink:href="#b106d3dc390024c091ce9e587e19e4478hmetc1d__glyph-8-0" x="188.599421" y="79.962246"/></g><path fill="none" stroke="rgb(0%, 0%, 0%)" stroke-linecap="butt" stroke-linejoin="miter" stroke-miterlimit="10" stroke-opacity="1" stroke-width="0.39848" d="M -36.359355 -44.836699 C -13.074167 -59.563915 19.328054 -59.563915 44.419447 -43.695115 " transform="matrix(0.99916, 0, 0, -0.99916, 171.711621, 68.06425)"/><path fill="none" stroke="rgb(0%, 0%, 0%)" stroke-linecap="round" stroke-linejoin="round" stroke-miterlimit="10" stroke-opacity="1" stroke-width="0.39848" d="M -2.070776 2.390628 C -1.691256 0.957166 -0.849398 0.27678 -0.00209411 0.0000255594 C -0.849012 -0.278566 -1.693891 -0.956269 -2.073622 -2.390698 " transform="matrix(0.84444, -0.533991, -0.533991, -0.84444, 216.263501, 111.616091)"/><g fill="rgb(0%, 0%, 0%)" fill-opacity="1"><use xlink:href="#b106d3dc390024c091ce9e587e19e4478hmetc1d__glyph-5-0" x="158.008143" y="133.926871"/></g><g fill="rgb(0%, 0%, 0%)" fill-opacity="1"><use xlink:href="#b106d3dc390024c091ce9e587e19e4478hmetc1d__glyph-2-1" x="161.118632" y="133.926871"/></g><g fill="rgb(0%, 0%, 0%)" fill-opacity="1"><use xlink:href="#b106d3dc390024c091ce9e587e19e4478hmetc1d__glyph-5-1" x="167.340307" y="133.926871"/></g><g fill="rgb(0%, 0%, 0%)" fill-opacity="1"><use xlink:href="#b106d3dc390024c091ce9e587e19e4478hmetc1d__glyph-6-0" x="172.24817" y="129.664455"/></g><g fill="rgb(0%, 0%, 0%)" fill-opacity="1"><use xlink:href="#b106d3dc390024c091ce9e587e19e4478hmetc1d__glyph-7-0" x="170.45168" y="130.922398"/></g><g fill="rgb(0%, 0%, 0%)" fill-opacity="1"><use xlink:href="#b106d3dc390024c091ce9e587e19e4478hmetc1d__glyph-5-2" x="176.378697" y="133.926871"/><use xlink:href="#b106d3dc390024c091ce9e587e19e4478hmetc1d__glyph-5-3" x="178.632129" y="133.926871"/></g><g fill="rgb(0%, 0%, 0%)" fill-opacity="1"><use xlink:href="#b106d3dc390024c091ce9e587e19e4478hmetc1d__glyph-1-2" x="184.743013" y="133.926871"/></g><g fill="rgb(0%, 0%, 0%)" fill-opacity="1"><use xlink:href="#b106d3dc390024c091ce9e587e19e4478hmetc1d__glyph-7-1" x="188.036894" y="134.922035"/></g><path fill="none" stroke="rgb(0%, 0%, 0%)" stroke-linecap="butt" stroke-linejoin="miter" stroke-miterlimit="10" stroke-opacity="1" stroke-width="0.39848" d="M 41.921254 -35.653203 L -29.013339 -35.653203 " transform="matrix(0.99916, 0, 0, -0.99916, 171.711621, 68.06425)"/><path fill="none" stroke="rgb(0%, 0%, 0%)" stroke-linecap="round" stroke-linejoin="round" stroke-miterlimit="10" stroke-opacity="1" stroke-width="0.39848" d="M -2.072048 2.390388 C -1.692823 0.955589 -0.848363 0.27924 0.00000556305 0.00166261 C -0.848363 -0.279824 -1.692823 -0.956173 -2.072048 -2.390972 " transform="matrix(-0.99916, 0, 0, 0.99916, 142.523443, 103.685839)"/><path fill="rgb(100%, 100%, 100%)" fill-opacity="1" fill-rule="nonzero" d="M 156.65625 110.277344 L 199.265625 110.277344 L 199.265625 97.09375 L 156.65625 97.09375 Z M 156.65625 110.277344 "/><g fill="rgb(0%, 0%, 0%)" fill-opacity="1"><use xlink:href="#b106d3dc390024c091ce9e587e19e4478hmetc1d__glyph-5-0" x="158.799478" y="106.392023"/></g><g fill="rgb(0%, 0%, 0%)" fill-opacity="1"><use xlink:href="#b106d3dc390024c091ce9e587e19e4478hmetc1d__glyph-2-1" x="161.909967" y="106.392023"/></g><g fill="rgb(0%, 0%, 0%)" fill-opacity="1"><use xlink:href="#b106d3dc390024c091ce9e587e19e4478hmetc1d__glyph-5-1" x="168.131641" y="106.392023"/></g><g fill="rgb(0%, 0%, 0%)" fill-opacity="1"><use xlink:href="#b106d3dc390024c091ce9e587e19e4478hmetc1d__glyph-7-0" x="171.242016" y="103.38755"/></g><g fill="rgb(0%, 0%, 0%)" fill-opacity="1"><use xlink:href="#b106d3dc390024c091ce9e587e19e4478hmetc1d__glyph-3-0" x="176.67245" y="101.379238"/></g><g fill="rgb(0%, 0%, 0%)" fill-opacity="1"><use xlink:href="#b106d3dc390024c091ce9e587e19e4478hmetc1d__glyph-5-2" x="180.899895" y="106.392023"/><use xlink:href="#b106d3dc390024c091ce9e587e19e4478hmetc1d__glyph-5-3" x="183.153327" y="106.392023"/></g><g fill="rgb(0%, 0%, 0%)" fill-opacity="1"><use xlink:href="#b106d3dc390024c091ce9e587e19e4478hmetc1d__glyph-1-2" x="189.264212" y="106.392023"/></g><g fill="rgb(0%, 0%, 0%)" fill-opacity="1"><use xlink:href="#b106d3dc390024c091ce9e587e19e4478hmetc1d__glyph-7-1" x="192.960754" y="103.38755"/></g><g fill="rgb(0%, 0%, 0%)" fill-opacity="1"><use xlink:href="#b106d3dc390024c091ce9e587e19e4478hmetc1d__glyph-9-0" x="172.914609" y="20.615147"/></g><g fill="rgb(0%, 0%, 0%)" fill-opacity="1"><use xlink:href="#b106d3dc390024c091ce9e587e19e4478hmetc1d__glyph-9-0" x="172.990546" y="40.384524"/></g><g fill="rgb(0%, 0%, 0%)" fill-opacity="1"><use xlink:href="#b106d3dc390024c091ce9e587e19e4478hmetc1d__glyph-10-0" x="173.812854" y="91.399629"/></g><g fill="rgb(0%, 0%, 0%)" fill-opacity="1"><use xlink:href="#b106d3dc390024c091ce9e587e19e4478hmetc1d__glyph-11-0" x="174.290453" y="111.076085"/></g></svg>