<?xml version="1.0" encoding="UTF-8"?><svg xmlns="http://www.w3.org/2000/svg" xmlns:xlink="http://www.w3.org/1999/xlink" width="210.892" height="66.416" viewBox="0 0 210.892 66.416"><defs><g><g id="cb080df03555d34ee26f2f23f41e4d85dokas513__glyph-0-0"><path d="M 6.984375 -2.296875 C 7.015625 -2.34375 7.046875 -2.421875 7.046875 -2.4375 C 7.046875 -2.453125 7.046875 -2.546875 6.921875 -2.546875 C 6.828125 -2.546875 6.8125 -2.484375 6.796875 -2.421875 C 6.15625 -0.96875 5.78125 -0.3125 4.09375 -0.3125 L 2.65625 -0.3125 C 2.515625 -0.3125 2.5 -0.3125 2.4375 -0.3125 C 2.34375 -0.328125 2.3125 -0.328125 2.3125 -0.421875 C 2.3125 -0.4375 2.3125 -0.46875 2.359375 -0.640625 L 3.03125 -3.34375 L 4.015625 -3.34375 C 4.84375 -3.34375 4.84375 -3.125 4.84375 -2.890625 C 4.84375 -2.8125 4.84375 -2.703125 4.78125 -2.40625 C 4.765625 -2.34375 4.75 -2.328125 4.75 -2.296875 C 4.75 -2.234375 4.796875 -2.1875 4.875 -2.1875 C 4.953125 -2.1875 4.984375 -2.234375 5.03125 -2.375 L 5.59375 -4.6875 C 5.59375 -4.75 5.546875 -4.796875 5.46875 -4.796875 C 5.375 -4.796875 5.359375 -4.734375 5.328125 -4.625 C 5.125 -3.875 4.953125 -3.640625 4.03125 -3.640625 L 3.109375 -3.640625 L 3.703125 -6.03125 C 3.796875 -6.375 3.796875 -6.40625 4.234375 -6.40625 L 5.625 -6.40625 C 6.828125 -6.40625 7.125 -6.125 7.125 -5.3125 C 7.125 -5.078125 7.125 -5.0625 7.09375 -4.796875 C 7.09375 -4.734375 7.078125 -4.65625 7.078125 -4.609375 C 7.078125 -4.5625 7.109375 -4.5 7.203125 -4.5 C 7.3125 -4.5 7.3125 -4.546875 7.34375 -4.734375 L 7.53125 -6.453125 C 7.5625 -6.71875 7.515625 -6.71875 7.265625 -6.71875 L 2.28125 -6.71875 C 2.078125 -6.71875 1.984375 -6.71875 1.984375 -6.515625 C 1.984375 -6.40625 2.078125 -6.40625 2.265625 -6.40625 C 2.625 -6.40625 2.90625 -6.40625 2.90625 -6.234375 C 2.90625 -6.1875 2.90625 -6.171875 2.859375 -6 L 1.546875 -0.765625 C 1.453125 -0.390625 1.4375 -0.3125 0.65625 -0.3125 C 0.484375 -0.3125 0.375 -0.3125 0.375 -0.125 C 0.375 0 0.46875 0 0.65625 0 L 5.78125 0 C 6 0 6.015625 -0.015625 6.078125 -0.171875 Z M 6.984375 -2.296875 "/></g><g id="cb080df03555d34ee26f2f23f41e4d85dokas513__glyph-0-1"><path d="M 4.21875 -6 C 4.28125 -6.265625 4.328125 -6.328125 4.4375 -6.359375 C 4.53125 -6.375 4.859375 -6.375 5.0625 -6.375 C 6.0625 -6.375 6.5 -6.34375 6.5 -5.5625 C 6.5 -5.421875 6.46875 -5.03125 6.421875 -4.78125 C 6.421875 -4.734375 6.40625 -4.625 6.40625 -4.59375 C 6.40625 -4.53125 6.421875 -4.46875 6.515625 -4.46875 C 6.625 -4.46875 6.640625 -4.546875 6.671875 -4.6875 L 6.9375 -6.40625 C 6.9375 -6.453125 6.953125 -6.546875 6.953125 -6.578125 C 6.953125 -6.6875 6.859375 -6.6875 6.6875 -6.6875 L 1.203125 -6.6875 C 0.96875 -6.6875 0.953125 -6.671875 0.890625 -6.484375 L 0.296875 -4.75 C 0.28125 -4.734375 0.234375 -4.59375 0.234375 -4.578125 C 0.234375 -4.515625 0.28125 -4.46875 0.359375 -4.46875 C 0.453125 -4.46875 0.46875 -4.515625 0.515625 -4.671875 C 1.0625 -6.203125 1.3125 -6.375 2.78125 -6.375 L 3.15625 -6.375 C 3.4375 -6.375 3.4375 -6.34375 3.4375 -6.265625 C 3.4375 -6.203125 3.40625 -6.078125 3.390625 -6.046875 L 2.078125 -0.78125 C 1.984375 -0.421875 1.953125 -0.3125 0.90625 -0.3125 C 0.546875 -0.3125 0.484375 -0.3125 0.484375 -0.125 C 0.484375 0 0.59375 0 0.65625 0 C 0.921875 0 1.1875 -0.015625 1.46875 -0.015625 C 1.734375 -0.015625 2.03125 -0.03125 2.296875 -0.03125 C 2.578125 -0.03125 2.859375 -0.015625 3.125 -0.015625 C 3.40625 -0.015625 3.703125 0 3.984375 0 C 4.078125 0 4.203125 0 4.203125 -0.203125 C 4.203125 -0.3125 4.125 -0.3125 3.859375 -0.3125 C 3.609375 -0.3125 3.484375 -0.3125 3.234375 -0.328125 C 2.9375 -0.359375 2.859375 -0.390625 2.859375 -0.546875 C 2.859375 -0.546875 2.859375 -0.609375 2.90625 -0.75 Z M 4.21875 -6 "/></g><g id="cb080df03555d34ee26f2f23f41e4d85dokas513__glyph-0-2"><path d="M 9.140625 -5.984375 C 9.234375 -6.34375 9.25 -6.4375 10 -6.4375 C 10.21875 -6.4375 10.3125 -6.4375 10.3125 -6.640625 C 10.3125 -6.75 10.203125 -6.75 10.046875 -6.75 L 8.734375 -6.75 C 8.484375 -6.75 8.46875 -6.75 8.359375 -6.5625 L 4.75 -0.921875 L 3.984375 -6.515625 C 3.953125 -6.75 3.9375 -6.75 3.671875 -6.75 L 2.328125 -6.75 C 2.140625 -6.75 2.03125 -6.75 2.03125 -6.5625 C 2.03125 -6.4375 2.109375 -6.4375 2.3125 -6.4375 C 2.4375 -6.4375 2.609375 -6.421875 2.734375 -6.421875 C 2.890625 -6.40625 2.953125 -6.375 2.953125 -6.265625 C 2.953125 -6.21875 2.9375 -6.1875 2.90625 -6.078125 L 1.65625 -1.046875 C 1.5625 -0.65625 1.390625 -0.328125 0.59375 -0.3125 C 0.546875 -0.3125 0.421875 -0.296875 0.421875 -0.125 C 0.421875 -0.03125 0.46875 0 0.546875 0 C 0.875 0 1.21875 -0.03125 1.546875 -0.03125 C 1.875 -0.03125 2.234375 0 2.5625 0 C 2.609375 0 2.734375 0 2.734375 -0.203125 C 2.734375 -0.3125 2.625 -0.3125 2.5625 -0.3125 C 2 -0.3125 1.890625 -0.515625 1.890625 -0.734375 C 1.890625 -0.8125 1.890625 -0.859375 1.921875 -0.96875 L 3.265625 -6.34375 L 3.28125 -6.34375 L 4.125 -0.234375 C 4.140625 -0.109375 4.15625 0 4.28125 0 C 4.390625 0 4.4375 -0.109375 4.5 -0.171875 L 8.484375 -6.421875 L 8.5 -6.421875 L 7.078125 -0.765625 C 6.984375 -0.390625 6.96875 -0.3125 6.1875 -0.3125 C 6.015625 -0.3125 5.90625 -0.3125 5.90625 -0.125 C 5.90625 0 6.03125 0 6.046875 0 C 6.328125 0 7 -0.03125 7.28125 -0.03125 C 7.6875 -0.03125 8.109375 0 8.515625 0 C 8.578125 0 8.703125 0 8.703125 -0.203125 C 8.703125 -0.3125 8.609375 -0.3125 8.421875 -0.3125 C 8.0625 -0.3125 7.78125 -0.3125 7.78125 -0.484375 C 7.78125 -0.515625 7.78125 -0.546875 7.828125 -0.71875 Z M 9.140625 -5.984375 "/></g><g id="cb080df03555d34ee26f2f23f41e4d85dokas513__glyph-1-0"><path d="M 3.6875 -2.5 C 3.6875 -3.046875 3.359375 -3.046875 3.34375 -3.046875 C 3.15625 -3.046875 2.96875 -2.859375 2.96875 -2.6875 C 2.96875 -2.5625 3.03125 -2.515625 3.09375 -2.46875 C 3.203125 -2.375 3.34375 -2.203125 3.34375 -1.921875 C 3.34375 -1.609375 2.890625 -0.125 2.0625 -0.125 C 1.5 -0.125 1.5 -0.625 1.5 -0.734375 C 1.5 -1.0625 1.625 -1.4375 1.890625 -2.078125 C 1.9375 -2.234375 1.984375 -2.328125 1.984375 -2.453125 C 1.984375 -2.8125 1.671875 -3.046875 1.328125 -3.046875 C 0.640625 -3.046875 0.328125 -2.09375 0.328125 -1.984375 C 0.328125 -1.90625 0.421875 -1.90625 0.4375 -1.90625 C 0.53125 -1.90625 0.546875 -1.9375 0.5625 -2.015625 C 0.734375 -2.578125 1.03125 -2.859375 1.3125 -2.859375 C 1.421875 -2.859375 1.484375 -2.78125 1.484375 -2.609375 C 1.484375 -2.453125 1.421875 -2.3125 1.359375 -2.140625 C 1.0625 -1.375 0.984375 -1.078125 0.984375 -0.828125 C 0.984375 -0.15625 1.515625 0.0625 2.046875 0.0625 C 3.203125 0.0625 3.6875 -1.9375 3.6875 -2.5 Z M 3.6875 -2.5 "/></g><g id="cb080df03555d34ee26f2f23f41e4d85dokas513__glyph-1-1"><path d="M 0.515625 0.84375 C 0.46875 1.03125 0.453125 1.09375 0.171875 1.09375 C 0.09375 1.09375 0 1.09375 0 1.234375 C 0 1.3125 0.0625 1.34375 0.09375 1.34375 C 0.265625 1.34375 0.5 1.3125 0.6875 1.3125 C 0.921875 1.3125 1.1875 1.34375 1.40625 1.34375 C 1.46875 1.34375 1.546875 1.3125 1.546875 1.1875 C 1.546875 1.09375 1.453125 1.09375 1.375 1.09375 C 1.21875 1.09375 1.03125 1.09375 1.03125 1.015625 C 1.03125 0.96875 1.078125 0.796875 1.109375 0.6875 C 1.1875 0.328125 1.28125 -0.046875 1.359375 -0.34375 C 1.4375 -0.203125 1.65625 0.0625 2.078125 0.0625 C 2.921875 0.0625 3.84375 -0.859375 3.84375 -1.890625 C 3.84375 -2.703125 3.28125 -3.046875 2.8125 -3.046875 C 2.375 -3.046875 2.015625 -2.75 1.828125 -2.5625 C 1.71875 -2.953125 1.328125 -3.046875 1.125 -3.046875 C 0.84375 -3.046875 0.6875 -2.859375 0.578125 -2.671875 C 0.4375 -2.4375 0.328125 -2.03125 0.328125 -1.984375 C 0.328125 -1.90625 0.421875 -1.90625 0.4375 -1.90625 C 0.53125 -1.90625 0.546875 -1.921875 0.59375 -2.109375 C 0.703125 -2.5 0.828125 -2.859375 1.09375 -2.859375 C 1.28125 -2.859375 1.328125 -2.703125 1.328125 -2.515625 C 1.328125 -2.4375 1.3125 -2.34375 1.3125 -2.3125 Z M 1.828125 -2.21875 C 2.21875 -2.75 2.5625 -2.859375 2.796875 -2.859375 C 3.0625 -2.859375 3.296875 -2.65625 3.296875 -2.1875 C 3.296875 -1.90625 3.140625 -1.1875 2.9375 -0.796875 C 2.765625 -0.453125 2.421875 -0.125 2.078125 -0.125 C 1.578125 -0.125 1.453125 -0.65625 1.453125 -0.71875 C 1.453125 -0.75 1.46875 -0.796875 1.484375 -0.828125 Z M 1.828125 -2.21875 "/></g><g id="cb080df03555d34ee26f2f23f41e4d85dokas513__glyph-1-2"><path d="M 2.984375 -2.59375 C 2.796875 -2.5625 2.6875 -2.40625 2.6875 -2.265625 C 2.6875 -2.109375 2.828125 -2.046875 2.921875 -2.046875 C 2.984375 -2.046875 3.25 -2.09375 3.25 -2.4375 C 3.25 -2.890625 2.75 -3.046875 2.328125 -3.046875 C 1.25 -3.046875 1.0625 -2.25 1.0625 -2.03125 C 1.0625 -1.78125 1.203125 -1.609375 1.296875 -1.53125 C 1.484375 -1.390625 1.609375 -1.375 2.078125 -1.28125 C 2.21875 -1.25 2.671875 -1.171875 2.671875 -0.828125 C 2.671875 -0.71875 2.59375 -0.453125 2.296875 -0.28125 C 2.03125 -0.125 1.6875 -0.125 1.609375 -0.125 C 1.328125 -0.125 0.9375 -0.1875 0.78125 -0.421875 C 1.015625 -0.4375 1.15625 -0.609375 1.15625 -0.8125 C 1.15625 -0.984375 1.03125 -1.0625 0.890625 -1.0625 C 0.6875 -1.0625 0.484375 -0.90625 0.484375 -0.59375 C 0.484375 -0.1875 0.9375 0.0625 1.609375 0.0625 C 2.875 0.0625 3.109375 -0.796875 3.109375 -1.078125 C 3.109375 -1.703125 2.40625 -1.828125 2.15625 -1.875 C 2.09375 -1.890625 1.921875 -1.921875 1.875 -1.9375 C 1.625 -1.984375 1.5 -2.125 1.5 -2.28125 C 1.5 -2.4375 1.625 -2.625 1.78125 -2.71875 C 1.96875 -2.84375 2.203125 -2.859375 2.328125 -2.859375 C 2.46875 -2.859375 2.828125 -2.828125 2.984375 -2.59375 Z M 2.984375 -2.59375 "/></g><g id="cb080df03555d34ee26f2f23f41e4d85dokas513__glyph-2-0"><path d="M 2.96875 -1.578125 C 2.96875 -1.9375 2.96875 -3.28125 1.671875 -3.28125 C 0.390625 -3.28125 0.390625 -1.9375 0.390625 -1.578125 C 0.390625 -1.21875 0.390625 0.109375 1.671875 0.109375 C 2.96875 0.109375 2.96875 -1.21875 2.96875 -1.578125 Z M 1.671875 -0.046875 C 1.5 -0.046875 1.078125 -0.125 0.953125 -0.609375 C 0.890625 -0.890625 0.890625 -1.234375 0.890625 -1.640625 C 0.890625 -2 0.890625 -2.34375 0.96875 -2.625 C 1.09375 -3.046875 1.46875 -3.125 1.671875 -3.125 C 2.046875 -3.125 2.3125 -2.9375 2.40625 -2.59375 C 2.46875 -2.34375 2.46875 -1.9375 2.46875 -1.640625 C 2.46875 -1.296875 2.46875 -0.90625 2.40625 -0.609375 C 2.265625 -0.125 1.875 -0.046875 1.671875 -0.046875 Z M 1.671875 -0.046875 "/></g></g></defs><g fill="rgb(0%, 0%, 0%)" fill-opacity="1"><use xlink:href="#cb080df03555d34ee26f2f23f41e4d85dokas513__glyph-0-0" x="66.007783" y="10.362879"/></g><g fill="rgb(0%, 0%, 0%)" fill-opacity="1"><use xlink:href="#cb080df03555d34ee26f2f23f41e4d85dokas513__glyph-0-1" x="131.173774" y="10.362879"/></g><g fill="rgb(0%, 0%, 0%)" fill-opacity="1"><use xlink:href="#cb080df03555d34ee26f2f23f41e4d85dokas513__glyph-0-0" x="138.3179" y="10.362879"/></g><g fill="rgb(0%, 0%, 0%)" fill-opacity="1"><use xlink:href="#cb080df03555d34ee26f2f23f41e4d85dokas513__glyph-0-2" x="64.60809" y="59.892363"/></g><g fill="rgb(0%, 0%, 0%)" fill-opacity="1"><use xlink:href="#cb080df03555d34ee26f2f23f41e4d85dokas513__glyph-0-0" x="134.745369" y="59.892363"/></g><path fill="none" stroke="rgb(0%, 0%, 0%)" stroke-linecap="butt" stroke-linejoin="miter" stroke-miterlimit="10" stroke-opacity="1" stroke-width="0.39848" d="M -27.314146 24.068052 L 21.119743 24.068052 " transform="matrix(0.991284, 0, 0, -0.991284, 105.392471, 31.752796)"/><path fill="none" stroke="rgb(0%, 0%, 0%)" stroke-linecap="round" stroke-linejoin="round" stroke-miterlimit="10" stroke-opacity="1" stroke-width="0.39848" d="M -2.072701 2.390175 C -1.694404 0.955797 -0.851116 0.278014 0.0000533108 -0.00176835 C -0.851116 -0.27761 -1.694404 -0.955393 -2.072701 -2.389771 " transform="matrix(0.991284, 0, 0, -0.991284, 126.527291, 7.892778)"/><g fill="rgb(0%, 0%, 0%)" fill-opacity="1"><use xlink:href="#cb080df03555d34ee26f2f23f41e4d85dokas513__glyph-1-0" x="100.421184" y="5.570022"/></g><path fill="none" stroke="rgb(0%, 0%, 0%)" stroke-linecap="butt" stroke-linejoin="miter" stroke-miterlimit="10" stroke-opacity="1" stroke-width="0.39848" d="M -35.766728 17.735511 L -35.766728 -17.33581 " transform="matrix(0.991284, 0, 0, -0.991284, 105.392471, 31.752796)"/><path fill="none" stroke="rgb(0%, 0%, 0%)" stroke-linecap="round" stroke-linejoin="round" stroke-miterlimit="10" stroke-opacity="1" stroke-width="0.39848" d="M -2.070504 2.392534 C -1.692206 0.958157 -0.848918 0.280374 -0.00168964 0.000591561 C -0.848918 -0.279191 -1.692206 -0.956974 -2.070504 -2.391351 " transform="matrix(0, 0.991284, 0.991284, 0, 69.936914, 49.134487)"/><g fill="rgb(0%, 0%, 0%)" fill-opacity="1"><use xlink:href="#cb080df03555d34ee26f2f23f41e4d85dokas513__glyph-1-1" x="63.54246" y="32.569613"/></g><path fill="none" stroke="rgb(0%, 0%, 0%)" stroke-linecap="butt" stroke-linejoin="miter" stroke-miterlimit="10" stroke-opacity="1" stroke-width="0.39848" d="M 33.575973 17.735511 L 33.575973 -17.33581 " transform="matrix(0.991284, 0, 0, -0.991284, 105.392471, 31.752796)"/><path fill="none" stroke="rgb(0%, 0%, 0%)" stroke-linecap="round" stroke-linejoin="round" stroke-miterlimit="10" stroke-opacity="1" stroke-width="0.39848" d="M -2.070504 2.392066 C -1.692206 0.957688 -0.848918 0.279905 -0.00168964 0.000122774 C -0.848918 -0.27966 -1.692206 -0.957443 -2.070504 -2.39182 " transform="matrix(0, 0.991284, 0.991284, 0, 138.67566, 49.134487)"/><path fill="none" stroke="rgb(0%, 0%, 0%)" stroke-linecap="butt" stroke-linejoin="miter" stroke-miterlimit="10" stroke-opacity="1" stroke-width="0.39848" d="M -25.903412 -25.894789 L 24.72539 -25.894789 " transform="matrix(0.991284, 0, 0, -0.991284, 105.392471, 31.752796)"/><path fill="none" stroke="rgb(0%, 0%, 0%)" stroke-linecap="round" stroke-linejoin="round" stroke-miterlimit="10" stroke-opacity="1" stroke-width="0.39848" d="M -2.073845 2.389513 C -1.691607 0.955136 -0.848319 0.277353 -0.00109021 0.0015109 C -0.848319 -0.278272 -1.691607 -0.956054 -2.073845 -2.390432 " transform="matrix(0.991284, 0, 0, -0.991284, 130.098737, 57.423373)"/><g fill="rgb(0%, 0%, 0%)" fill-opacity="1"><use xlink:href="#cb080df03555d34ee26f2f23f41e4d85dokas513__glyph-1-2" x="101.215202" y="62.723469"/></g><g fill="rgb(0%, 0%, 0%)" fill-opacity="1"><use xlink:href="#cb080df03555d34ee26f2f23f41e4d85dokas513__glyph-2-0" x="104.942428" y="63.710787"/></g></svg>