<?xml version="1.0" encoding="UTF-8"?><svg xmlns="http://www.w3.org/2000/svg" xmlns:xlink="http://www.w3.org/1999/xlink" width="265.287" height="72.518" viewBox="0 0 265.287 72.518"><defs><g><g id="82bcfef46851bf34eae41ad10b5dc041vca5n6ez__glyph-0-0"><path d="M 2.359375 -3.59375 C 0.390625 -2.515625 0.28125 -1.25 0.28125 -1.015625 C 0.28125 -0.25 1.015625 0.21875 1.953125 0.21875 C 3.59375 0.21875 4.921875 -1.34375 4.921875 -1.546875 C 4.921875 -1.609375 4.875 -1.625 4.828125 -1.625 C 4.703125 -1.625 4.328125 -1.5 4.109375 -1.1875 C 3.890625 -0.90625 3.484375 -0.328125 2.59375 -0.328125 C 1.90625 -0.328125 1.125 -0.6875 1.125 -1.4375 C 1.125 -1.921875 1.671875 -3.375 3.234375 -3.4375 C 3.703125 -3.46875 4.046875 -3.8125 4.046875 -3.921875 C 4.046875 -3.96875 4 -3.984375 3.953125 -3.984375 C 2.546875 -4.046875 2.28125 -4.734375 2.28125 -5.125 C 2.28125 -5.34375 2.421875 -6.421875 3.8125 -6.421875 C 4 -6.421875 4.75 -6.40625 4.75 -5.890625 C 4.75 -5.734375 4.671875 -5.59375 4.625 -5.53125 C 4.609375 -5.5 4.578125 -5.453125 4.578125 -5.421875 C 4.578125 -5.34375 4.65625 -5.34375 4.671875 -5.34375 C 4.96875 -5.34375 5.59375 -5.734375 5.59375 -6.296875 C 5.59375 -6.890625 4.90625 -6.96875 4.453125 -6.96875 C 3.109375 -6.96875 1.4375 -5.90625 1.4375 -4.703125 C 1.4375 -4.109375 1.875 -3.765625 2.359375 -3.59375 Z M 2.359375 -3.59375 "/></g><g id="82bcfef46851bf34eae41ad10b5dc041vca5n6ez__glyph-0-1"><path d="M 2.765625 -6.71875 C 2.796875 -6.828125 2.796875 -6.84375 2.796875 -6.875 C 2.796875 -6.9375 2.765625 -6.96875 2.6875 -6.96875 C 2.578125 -6.96875 2.28125 -6.828125 2.078125 -6.71875 C 1.625 -6.5 1.25 -6.3125 1.25 -6.125 C 1.25 -6.078125 1.3125 -6.078125 1.359375 -6.078125 C 1.46875 -6.078125 1.734375 -6.21875 1.921875 -6.296875 C 1.796875 -5.328125 1.5625 -4.0625 1.390625 -3.21875 C 1.015625 -1.53125 0.828125 -0.9375 0.34375 0.03125 C 0.296875 0.125 0.296875 0.140625 0.296875 0.140625 C 0.296875 0.21875 0.375 0.21875 0.390625 0.21875 C 0.546875 0.21875 0.96875 0.046875 1.125 -0.234375 C 1.25 -0.46875 1.625 -1.1875 1.921875 -2.328125 C 2.140625 -3.1875 2.515625 -4.484375 3.21875 -5.5 C 3.671875 -6.140625 4.09375 -6.4375 4.71875 -6.4375 C 5.25 -6.4375 5.734375 -6.09375 5.734375 -5.5625 C 5.734375 -4.703125 4.796875 -4.375 3.765625 -4.03125 C 3.65625 -4 2.96875 -3.765625 2.96875 -3.515625 C 2.96875 -3.453125 3.03125 -3.4375 3.0625 -3.4375 C 3.109375 -3.4375 3.328125 -3.484375 3.546875 -3.484375 C 4.546875 -3.484375 5.34375 -2.890625 5.34375 -1.953125 C 5.34375 -0.71875 4.296875 -0.328125 3.40625 -0.328125 C 2.640625 -0.328125 2.28125 -0.734375 2.140625 -0.875 C 2.109375 -0.9375 2.09375 -0.953125 2.015625 -0.953125 C 1.796875 -0.953125 1.296875 -0.640625 1.296875 -0.46875 C 1.296875 -0.4375 1.6875 0.21875 2.75 0.21875 C 4.140625 0.21875 6.1875 -0.765625 6.1875 -2.359375 C 6.1875 -3.1875 5.640625 -3.8125 4.625 -4 C 5.421875 -4.34375 6.578125 -5.046875 6.578125 -5.984375 C 6.578125 -6.5625 6.109375 -6.984375 5.375 -6.984375 C 5.03125 -6.984375 3.765625 -6.890625 2.578125 -5.40625 Z M 2.765625 -6.71875 "/></g><g id="82bcfef46851bf34eae41ad10b5dc041vca5n6ez__glyph-1-0"><path d="M 3.46875 -4.890625 C 3.515625 -4.984375 3.515625 -4.984375 3.515625 -5.015625 C 3.515625 -5.125 3.421875 -5.1875 3.34375 -5.1875 C 3.21875 -5.1875 3.1875 -5.109375 3.15625 -5.015625 L 0.578125 1.421875 C 0.53125 1.515625 0.53125 1.53125 0.53125 1.5625 C 0.53125 1.671875 0.625 1.734375 0.703125 1.734375 C 0.8125 1.734375 0.84375 1.640625 0.890625 1.5625 Z M 3.46875 -4.890625 "/></g><g id="82bcfef46851bf34eae41ad10b5dc041vca5n6ez__glyph-1-1"><path d="M 2.1875 0.0625 C 2.265625 0.0625 2.34375 0.0625 2.421875 0.0625 C 3.671875 0.0625 4.8125 -0.953125 4.8125 -2.046875 C 4.8125 -2.65625 4.4375 -3.046875 3.90625 -3.046875 C 2.953125 -3.046875 2.4375 -1.828125 2.25 -1.3125 C 2.15625 -1.0625 2 -0.578125 1.96875 -0.4375 C 1.203125 -0.546875 0.71875 -0.890625 0.71875 -1.40625 C 0.71875 -1.40625 0.765625 -2.1875 1.328125 -2.8125 C 1.375 -2.859375 1.375 -2.875 1.375 -2.90625 C 1.375 -2.984375 1.28125 -2.984375 1.265625 -2.984375 C 1.203125 -2.984375 1.171875 -2.984375 1.046875 -2.828125 C 0.65625 -2.359375 0.484375 -1.640625 0.484375 -1.328125 C 0.484375 -0.71875 0.921875 -0.1875 1.828125 0 C 1.46875 1.078125 1.4375 1.21875 1.4375 1.28125 C 1.4375 1.453125 1.59375 1.5 1.671875 1.5 C 1.75 1.5 1.875 1.453125 1.9375 1.34375 C 1.984375 1.234375 2.046875 0.890625 2.1875 0.0625 Z M 2.28125 -0.40625 C 2.421875 -1.203125 2.46875 -1.515625 2.796875 -1.96875 C 3.109375 -2.390625 3.484375 -2.578125 3.828125 -2.578125 C 4.3125 -2.578125 4.5625 -2.265625 4.5625 -1.90625 C 4.5625 -1.203125 3.6875 -0.40625 2.5 -0.40625 C 2.4375 -0.40625 2.34375 -0.40625 2.28125 -0.40625 Z M 2.28125 -0.40625 "/></g><g id="82bcfef46851bf34eae41ad10b5dc041vca5n6ez__glyph-1-2"><path d="M 1.546875 -1.578125 C 1.75 -1.578125 2.296875 -1.59375 2.671875 -1.71875 C 3.171875 -1.90625 3.28125 -2.234375 3.28125 -2.4375 C 3.28125 -2.828125 2.890625 -3.046875 2.421875 -3.046875 C 1.578125 -3.046875 0.46875 -2.421875 0.46875 -1.234375 C 0.46875 -0.53125 0.90625 0.0625 1.703125 0.0625 C 2.875 0.0625 3.421875 -0.609375 3.421875 -0.71875 C 3.421875 -0.75 3.359375 -0.828125 3.3125 -0.828125 C 3.265625 -0.828125 3.25 -0.8125 3.203125 -0.765625 C 2.65625 -0.125 1.84375 -0.125 1.71875 -0.125 C 1.3125 -0.125 1.03125 -0.40625 1.03125 -0.96875 C 1.03125 -1.0625 1.03125 -1.203125 1.109375 -1.578125 Z M 1.171875 -1.765625 C 1.453125 -2.78125 2.21875 -2.859375 2.421875 -2.859375 C 2.71875 -2.859375 2.96875 -2.703125 2.96875 -2.4375 C 2.96875 -1.765625 1.8125 -1.765625 1.515625 -1.765625 Z M 1.171875 -1.765625 "/></g><g id="82bcfef46851bf34eae41ad10b5dc041vca5n6ez__glyph-1-3"><path d="M 0.515625 0.84375 C 0.46875 1.03125 0.453125 1.09375 0.1875 1.09375 C 0.09375 1.09375 0 1.09375 0 1.234375 C 0 1.3125 0.0625 1.34375 0.09375 1.34375 C 0.265625 1.34375 0.5 1.3125 0.6875 1.3125 C 0.921875 1.3125 1.1875 1.34375 1.40625 1.34375 C 1.46875 1.34375 1.546875 1.328125 1.546875 1.1875 C 1.546875 1.09375 1.453125 1.09375 1.375 1.09375 C 1.21875 1.09375 1.03125 1.09375 1.03125 1.015625 C 1.03125 0.96875 1.078125 0.796875 1.109375 0.6875 C 1.1875 0.328125 1.28125 -0.046875 1.359375 -0.34375 C 1.453125 -0.203125 1.65625 0.0625 2.078125 0.0625 C 2.921875 0.0625 3.859375 -0.859375 3.859375 -1.890625 C 3.859375 -2.703125 3.296875 -3.046875 2.8125 -3.046875 C 2.390625 -3.046875 2.015625 -2.765625 1.828125 -2.5625 C 1.71875 -2.96875 1.328125 -3.046875 1.125 -3.046875 C 0.84375 -3.046875 0.6875 -2.875 0.578125 -2.6875 C 0.4375 -2.453125 0.328125 -2.03125 0.328125 -2 C 0.328125 -1.90625 0.421875 -1.90625 0.4375 -1.90625 C 0.546875 -1.90625 0.546875 -1.921875 0.59375 -2.109375 C 0.703125 -2.515625 0.828125 -2.859375 1.09375 -2.859375 C 1.28125 -2.859375 1.328125 -2.703125 1.328125 -2.515625 C 1.328125 -2.4375 1.3125 -2.359375 1.3125 -2.3125 Z M 1.828125 -2.21875 C 2.234375 -2.75 2.578125 -2.859375 2.796875 -2.859375 C 3.0625 -2.859375 3.296875 -2.65625 3.296875 -2.1875 C 3.296875 -1.90625 3.15625 -1.203125 2.9375 -0.796875 C 2.765625 -0.453125 2.421875 -0.125 2.078125 -0.125 C 1.578125 -0.125 1.453125 -0.65625 1.453125 -0.734375 C 1.453125 -0.75 1.46875 -0.796875 1.484375 -0.828125 Z M 1.828125 -2.21875 "/></g><g id="82bcfef46851bf34eae41ad10b5dc041vca5n6ez__glyph-2-0"><path d="M 2.453125 -5.1875 C 1.140625 -4.265625 0.796875 -2.796875 0.796875 -1.734375 C 0.796875 -0.765625 1.09375 0.75 2.453125 1.71875 C 2.515625 1.71875 2.59375 1.71875 2.59375 1.640625 C 2.59375 1.59375 2.578125 1.578125 2.53125 1.53125 C 1.609375 0.703125 1.265625 -0.46875 1.265625 -1.734375 C 1.265625 -3.59375 1.984375 -4.515625 2.546875 -5.03125 C 2.578125 -5.046875 2.59375 -5.078125 2.59375 -5.109375 C 2.59375 -5.1875 2.515625 -5.1875 2.453125 -5.1875 Z M 2.453125 -5.1875 "/></g><g id="82bcfef46851bf34eae41ad10b5dc041vca5n6ez__glyph-2-1"><path d="M 0.625 -5.1875 C 0.578125 -5.1875 0.484375 -5.1875 0.484375 -5.109375 C 0.484375 -5.078125 0.515625 -5.046875 0.546875 -5 C 1.15625 -4.453125 1.8125 -3.515625 1.8125 -1.734375 C 1.8125 -0.296875 1.359375 0.796875 0.609375 1.484375 C 0.5 1.59375 0.484375 1.609375 0.484375 1.640625 C 0.484375 1.671875 0.515625 1.71875 0.578125 1.71875 C 0.671875 1.71875 1.328125 1.265625 1.78125 0.40625 C 2.078125 -0.171875 2.28125 -0.921875 2.28125 -1.734375 C 2.28125 -2.703125 2 -4.21875 0.625 -5.1875 Z M 0.625 -5.1875 "/></g><g id="82bcfef46851bf34eae41ad10b5dc041vca5n6ez__glyph-2-2"><path d="M 2.6875 -2.765625 C 2.5625 -2.703125 2.5 -2.59375 2.5 -2.453125 C 2.5 -2.265625 2.625 -2.125 2.828125 -2.125 C 3.015625 -2.125 3.15625 -2.25 3.15625 -2.46875 C 3.15625 -3.09375 2.1875 -3.09375 2 -3.09375 C 0.96875 -3.09375 0.3125 -2.296875 0.3125 -1.5 C 0.3125 -0.625 1.0625 0.0625 1.96875 0.0625 C 3 0.0625 3.234375 -0.75 3.234375 -0.828125 C 3.234375 -0.90625 3.15625 -0.90625 3.125 -0.90625 C 3.03125 -0.90625 3.03125 -0.890625 2.984375 -0.796875 C 2.84375 -0.359375 2.46875 -0.15625 2.046875 -0.15625 C 1.578125 -0.15625 0.953125 -0.5 0.953125 -1.5 C 0.953125 -2.375 1.375 -2.859375 2.015625 -2.859375 C 2.109375 -2.859375 2.4375 -2.859375 2.6875 -2.765625 Z M 2.6875 -2.765625 "/></g><g id="82bcfef46851bf34eae41ad10b5dc041vca5n6ez__glyph-2-3"><path d="M 3.65625 -1.46875 C 3.65625 -2.34375 2.921875 -3.09375 1.96875 -3.09375 C 1.015625 -3.09375 0.265625 -2.34375 0.265625 -1.46875 C 0.265625 -0.609375 1.03125 0.0625 1.96875 0.0625 C 2.90625 0.0625 3.65625 -0.609375 3.65625 -1.46875 Z M 1.96875 -0.15625 C 1.703125 -0.15625 1.328125 -0.234375 1.109375 -0.578125 C 0.921875 -0.859375 0.90625 -1.21875 0.90625 -1.53125 C 0.90625 -1.828125 0.90625 -2.25 1.15625 -2.546875 C 1.328125 -2.734375 1.609375 -2.890625 1.96875 -2.890625 C 2.375 -2.890625 2.671875 -2.703125 2.8125 -2.484375 C 3.015625 -2.21875 3.03125 -1.875 3.03125 -1.53125 C 3.03125 -1.203125 3.015625 -0.84375 2.8125 -0.546875 C 2.625 -0.296875 2.3125 -0.15625 1.96875 -0.15625 Z M 1.96875 -0.15625 "/></g><g id="82bcfef46851bf34eae41ad10b5dc041vca5n6ez__glyph-2-4"><path d="M 2.46875 -4.734375 L 2.46875 -4.484375 C 2.921875 -4.484375 2.984375 -4.4375 2.984375 -4.09375 L 2.984375 -2.65625 C 2.734375 -2.90625 2.390625 -3.046875 2.015625 -3.046875 C 1.09375 -3.046875 0.3125 -2.359375 0.3125 -1.484375 C 0.3125 -0.625 1.046875 0.0625 1.9375 0.0625 C 2.5 0.0625 2.84375 -0.234375 2.953125 -0.359375 L 2.953125 0.0625 L 4.015625 0 L 4.015625 -0.25 C 3.5625 -0.25 3.5 -0.296875 3.5 -0.640625 L 3.5 -4.796875 Z M 2.953125 -0.734375 C 2.78125 -0.40625 2.421875 -0.125 1.96875 -0.125 C 1.578125 -0.125 1.3125 -0.359375 1.171875 -0.546875 C 1.03125 -0.765625 0.953125 -1.03125 0.953125 -1.484375 C 0.953125 -1.640625 0.953125 -2.15625 1.234375 -2.484375 C 1.515625 -2.796875 1.84375 -2.859375 2.046875 -2.859375 C 2.375 -2.859375 2.671875 -2.703125 2.875 -2.453125 C 2.953125 -2.34375 2.953125 -2.34375 2.953125 -2.203125 Z M 2.953125 -0.734375 "/></g><g id="82bcfef46851bf34eae41ad10b5dc041vca5n6ez__glyph-3-0"><path d="M 3.5 -2.5625 C 3.5 -2.671875 3.5 -2.828125 3.34375 -2.828125 C 3.15625 -2.828125 3.15625 -2.65625 3.15625 -2.53125 L 3.15625 -0.203125 L 0.8125 -0.203125 C 0.703125 -0.203125 0.546875 -0.203125 0.546875 -0.03125 C 0.546875 0.140625 0.6875 0.140625 0.8125 0.140625 L 3.234375 0.140625 C 3.46875 0.140625 3.5 0.09375 3.5 -0.125 Z M 3.5 -2.5625 "/></g></g></defs><g fill="rgb(0%, 0%, 0%)" fill-opacity="1"><use xlink:href="#82bcfef46851bf34eae41ad10b5dc041vca5n6ez__glyph-0-0" x="84.251146" y="11.743942"/></g><g fill="rgb(0%, 0%, 0%)" fill-opacity="1"><use xlink:href="#82bcfef46851bf34eae41ad10b5dc041vca5n6ez__glyph-1-0" x="89.474429" y="13.531064"/><use xlink:href="#82bcfef46851bf34eae41ad10b5dc041vca5n6ez__glyph-1-1" x="93.529243" y="13.531064"/></g><g fill="rgb(0%, 0%, 0%)" fill-opacity="1"><use xlink:href="#82bcfef46851bf34eae41ad10b5dc041vca5n6ez__glyph-0-0" x="166.799478" y="11.743942"/></g><g fill="rgb(0%, 0%, 0%)" fill-opacity="1"><use xlink:href="#82bcfef46851bf34eae41ad10b5dc041vca5n6ez__glyph-1-0" x="172.022761" y="13.531064"/><use xlink:href="#82bcfef46851bf34eae41ad10b5dc041vca5n6ez__glyph-1-2" x="176.077575" y="13.531064"/></g><g fill="rgb(0%, 0%, 0%)" fill-opacity="1"><use xlink:href="#82bcfef46851bf34eae41ad10b5dc041vca5n6ez__glyph-0-1" x="78.479508" y="64.898643"/></g><g fill="rgb(0%, 0%, 0%)" fill-opacity="1"><use xlink:href="#82bcfef46851bf34eae41ad10b5dc041vca5n6ez__glyph-1-0" x="84.980299" y="66.684771"/><use xlink:href="#82bcfef46851bf34eae41ad10b5dc041vca5n6ez__glyph-1-3" x="89.035114" y="66.684771"/></g><g fill="rgb(0%, 0%, 0%)" fill-opacity="1"><use xlink:href="#82bcfef46851bf34eae41ad10b5dc041vca5n6ez__glyph-2-0" x="93.114868" y="66.684771"/></g><g fill="rgb(0%, 0%, 0%)" fill-opacity="1"><use xlink:href="#82bcfef46851bf34eae41ad10b5dc041vca5n6ez__glyph-1-1" x="96.207417" y="66.684771"/></g><g fill="rgb(0%, 0%, 0%)" fill-opacity="1"><use xlink:href="#82bcfef46851bf34eae41ad10b5dc041vca5n6ez__glyph-2-1" x="101.412931" y="66.684771"/></g><g fill="rgb(0%, 0%, 0%)" fill-opacity="1"><use xlink:href="#82bcfef46851bf34eae41ad10b5dc041vca5n6ez__glyph-0-1" x="161.02784" y="64.898643"/></g><g fill="rgb(0%, 0%, 0%)" fill-opacity="1"><use xlink:href="#82bcfef46851bf34eae41ad10b5dc041vca5n6ez__glyph-1-0" x="167.528632" y="66.684771"/><use xlink:href="#82bcfef46851bf34eae41ad10b5dc041vca5n6ez__glyph-1-3" x="171.583446" y="66.684771"/></g><g fill="rgb(0%, 0%, 0%)" fill-opacity="1"><use xlink:href="#82bcfef46851bf34eae41ad10b5dc041vca5n6ez__glyph-2-0" x="175.6632" y="66.684771"/></g><g fill="rgb(0%, 0%, 0%)" fill-opacity="1"><use xlink:href="#82bcfef46851bf34eae41ad10b5dc041vca5n6ez__glyph-1-2" x="178.755749" y="66.684771"/></g><g fill="rgb(0%, 0%, 0%)" fill-opacity="1"><use xlink:href="#82bcfef46851bf34eae41ad10b5dc041vca5n6ez__glyph-2-1" x="182.510592" y="66.684771"/></g><path fill="none" stroke="rgb(0%, 0%, 0%)" stroke-linecap="butt" stroke-linejoin="miter" stroke-miterlimit="10" stroke-opacity="1" stroke-width="0.39848" d="M -28.79146 27.611858 L 29.853571 27.611858 " transform="matrix(0.993397, 0, 0, -0.993397, 132.288857, 36.699075)"/><path fill="none" stroke="rgb(0%, 0%, 0%)" stroke-linecap="round" stroke-linejoin="round" stroke-miterlimit="10" stroke-opacity="1" stroke-width="0.39848" d="M -2.073915 2.390493 C -1.69249 0.955235 -0.850997 0.278895 -0.00163865 -0.000292354 C -0.850997 -0.27948 -1.69249 -0.95582 -2.073915 -2.391078 " transform="matrix(0.993397, 0, 0, -0.993397, 162.142253, 9.269241)"/><g fill="rgb(0%, 0%, 0%)" fill-opacity="1"><use xlink:href="#82bcfef46851bf34eae41ad10b5dc041vca5n6ez__glyph-2-2" x="126.990076" y="6.940867"/><use xlink:href="#82bcfef46851bf34eae41ad10b5dc041vca5n6ez__glyph-2-3" x="130.508682" y="6.940867"/></g><g fill="rgb(0%, 0%, 0%)" fill-opacity="1"><use xlink:href="#82bcfef46851bf34eae41ad10b5dc041vca5n6ez__glyph-2-4" x="134.668799" y="6.940867"/></g><path fill="none" stroke="rgb(0%, 0%, 0%)" stroke-linecap="butt" stroke-linejoin="miter" stroke-miterlimit="10" stroke-opacity="1" stroke-width="0.39848" d="M -40.8201 17.734138 L -40.8201 -17.333341 " transform="matrix(0.993397, 0, 0, -0.993397, 132.288857, 36.699075)"/><path fill="none" stroke="rgb(0%, 0%, 0%)" stroke-linecap="round" stroke-linejoin="round" stroke-miterlimit="10" stroke-opacity="1" stroke-width="0.39848" d="M -2.072922 2.389535 C -1.69543 0.95821 -0.850004 0.277937 -0.000645813 -0.00125043 C -0.850004 -0.280438 -1.69543 -0.956778 -2.072922 -2.392036 " transform="matrix(0, 0.993397, 0.993397, 0, 91.739523, 54.117829)"/><g fill="rgb(0%, 0%, 0%)" fill-opacity="1"><use xlink:href="#82bcfef46851bf34eae41ad10b5dc041vca5n6ez__glyph-1-3" x="85.331962" y="37.516641"/></g><g fill="rgb(0%, 0%, 0%)" fill-opacity="1"><use xlink:href="#82bcfef46851bf34eae41ad10b5dc041vca5n6ez__glyph-3-0" x="108.835741" y="23.180925"/></g><path fill="none" stroke="rgb(0%, 0%, 0%)" stroke-linecap="butt" stroke-linejoin="miter" stroke-miterlimit="10" stroke-opacity="1" stroke-width="0.39848" d="M 41.547973 17.734138 L 41.547973 -17.333341 " transform="matrix(0.993397, 0, 0, -0.993397, 132.288857, 36.699075)"/><path fill="none" stroke="rgb(0%, 0%, 0%)" stroke-linecap="round" stroke-linejoin="round" stroke-miterlimit="10" stroke-opacity="1" stroke-width="0.39848" d="M -2.072922 2.389809 C -1.69543 0.954551 -0.850004 0.27821 -0.000645813 -0.000976724 C -0.850004 -0.280164 -1.69543 -0.956505 -2.072922 -2.391762 " transform="matrix(0, 0.993397, 0.993397, 0, 173.56347, 54.117829)"/><g fill="rgb(0%, 0%, 0%)" fill-opacity="1"><use xlink:href="#82bcfef46851bf34eae41ad10b5dc041vca5n6ez__glyph-1-3" x="175.892043" y="37.516641"/></g><path fill="none" stroke="rgb(0%, 0%, 0%)" stroke-linecap="butt" stroke-linejoin="miter" stroke-miterlimit="10" stroke-opacity="1" stroke-width="0.39848" d="M -22.979648 -25.897702 L 24.041759 -25.897702 " transform="matrix(0.993397, 0, 0, -0.993397, 132.288857, 36.699075)"/><path fill="none" stroke="rgb(0%, 0%, 0%)" stroke-linecap="round" stroke-linejoin="round" stroke-miterlimit="10" stroke-opacity="1" stroke-width="0.39848" d="M -2.072174 2.389384 C -1.694682 0.958058 -0.849256 0.277785 0.000102184 -0.00140205 C -0.849256 -0.280589 -1.694682 -0.95693 -2.072174 -2.392188 " transform="matrix(0.993397, 0, 0, -0.993397, 156.370992, 62.424388)"/><g fill="rgb(0%, 0%, 0%)" fill-opacity="1"><use xlink:href="#82bcfef46851bf34eae41ad10b5dc041vca5n6ez__glyph-2-2" x="126.990076" y="69.563637"/><use xlink:href="#82bcfef46851bf34eae41ad10b5dc041vca5n6ez__glyph-2-3" x="130.508682" y="69.563637"/></g><g fill="rgb(0%, 0%, 0%)" fill-opacity="1"><use xlink:href="#82bcfef46851bf34eae41ad10b5dc041vca5n6ez__glyph-2-4" x="134.668799" y="69.563637"/></g></svg>