<?xml version="1.0" encoding="UTF-8"?><svg xmlns="http://www.w3.org/2000/svg" xmlns:xlink="http://www.w3.org/1999/xlink" width="343.711" height="71.961" viewBox="0 0 343.711 71.961"><defs><g><g id="b680dcb184104411b783c02f7ce358bbp3ilyisr__glyph-0-0"><path d="M 5.796875 -1.140625 C 5.203125 -0.75 4.859375 -0.53125 3.875 -0.53125 C 2.453125 -0.53125 1.546875 -2.03125 1.546875 -3.46875 C 1.546875 -4.8125 2.375 -6.375 3.90625 -6.375 C 4.609375 -6.375 5.0625 -6.203125 5.609375 -5.859375 L 5.75 -6.671875 C 5.3125 -6.890625 4.546875 -7.015625 3.90625 -7.015625 C 2.0625 -7.015625 0.65625 -5.46875 0.65625 -3.375 C 0.65625 -1.796875 1.84375 0.109375 3.90625 0.109375 C 4.828125 0.109375 5.203125 -0.046875 5.859375 -0.453125 Z M 5.796875 -1.140625 "/></g><g id="b680dcb184104411b783c02f7ce358bbp3ilyisr__glyph-0-1"><path d="M 3.96875 -2.875 C 3.96875 -3.890625 3.25 -4.59375 2.328125 -4.59375 C 1.6875 -4.59375 1.234375 -4.421875 0.765625 -4.15625 L 0.828125 -3.5 C 1.34375 -3.875 1.84375 -4 2.328125 -4 C 2.796875 -4 3.1875 -3.609375 3.1875 -2.859375 L 3.1875 -2.4375 C 1.703125 -2.421875 0.4375 -2 0.4375 -1.125 C 0.4375 -0.703125 0.703125 0.109375 1.578125 0.109375 C 1.71875 0.109375 2.640625 0.09375 3.21875 -0.359375 L 3.21875 0 L 3.96875 0 Z M 3.1875 -1.3125 C 3.1875 -1.125 3.1875 -0.875 2.859375 -0.6875 C 2.5625 -0.5 2.1875 -0.5 2.078125 -0.5 C 1.609375 -0.5 1.15625 -0.734375 1.15625 -1.140625 C 1.15625 -1.84375 2.765625 -1.90625 3.1875 -1.9375 Z M 3.1875 -1.3125 "/></g><g id="b680dcb184104411b783c02f7ce358bbp3ilyisr__glyph-0-2"><path d="M 1.734375 -3.84375 L 3.140625 -3.84375 L 3.140625 -4.421875 L 1.734375 -4.421875 L 1.734375 -5.6875 L 1.0625 -5.6875 L 1.0625 -4.421875 L 0.1875 -4.421875 L 0.1875 -3.84375 L 1.03125 -3.84375 L 1.03125 -1.1875 C 1.03125 -0.59375 1.171875 0.109375 1.84375 0.109375 C 2.546875 0.109375 3.0625 -0.140625 3.296875 -0.265625 L 3.140625 -0.859375 C 2.890625 -0.640625 2.5625 -0.53125 2.25 -0.53125 C 1.875 -0.53125 1.734375 -0.828125 1.734375 -1.359375 Z M 1.734375 -3.84375 "/></g><g id="b680dcb184104411b783c02f7ce358bbp3ilyisr__glyph-1-0"><path d="M 5.875 -4.8125 C 5.875 -4.84375 5.859375 -4.90625 5.78125 -4.90625 C 5.734375 -4.90625 5.71875 -4.890625 5.65625 -4.8125 L 5.15625 -4.28125 C 5.09375 -4.359375 4.703125 -4.90625 3.84375 -4.90625 C 2.140625 -4.90625 0.484375 -3.40625 0.484375 -1.828125 C 0.484375 -0.75 1.3125 0.140625 2.640625 0.140625 C 3.265625 0.140625 3.90625 -0.015625 4.265625 -0.40625 C 4.34375 -0.265625 4.53125 0 4.609375 0 C 4.671875 0 4.6875 -0.03125 4.71875 -0.1875 L 4.859375 -0.71875 C 4.890625 -0.84375 4.984375 -1.265625 5.015625 -1.34375 C 5.09375 -1.65625 5.09375 -1.671875 5.515625 -1.671875 C 5.5625 -1.671875 5.671875 -1.671875 5.671875 -1.8125 C 5.671875 -1.890625 5.609375 -1.921875 5.5625 -1.921875 C 5.328125 -1.921875 5.03125 -1.890625 4.796875 -1.890625 C 4.625 -1.890625 4.390625 -1.890625 4.21875 -1.90625 C 4.046875 -1.90625 3.84375 -1.921875 3.671875 -1.921875 C 3.609375 -1.921875 3.515625 -1.921875 3.515625 -1.765625 C 3.515625 -1.671875 3.59375 -1.671875 3.765625 -1.671875 C 3.890625 -1.671875 4.03125 -1.671875 4.171875 -1.65625 C 4.390625 -1.640625 4.390625 -1.609375 4.390625 -1.53125 C 4.390625 -1.5 4.390625 -1.484375 4.34375 -1.296875 C 4.296875 -1.109375 4.21875 -0.796875 4.1875 -0.71875 C 4 -0.296875 3.34375 -0.109375 2.796875 -0.109375 C 2.109375 -0.109375 1.1875 -0.453125 1.1875 -1.625 C 1.1875 -2.375 1.546875 -3.296875 2.0625 -3.828125 C 2.78125 -4.53125 3.515625 -4.640625 3.90625 -4.640625 C 4.71875 -4.640625 5.1875 -4.0625 5.1875 -3.28125 C 5.1875 -3.09375 5.171875 -3.03125 5.171875 -3 C 5.171875 -2.90625 5.265625 -2.90625 5.296875 -2.90625 C 5.40625 -2.90625 5.40625 -2.921875 5.4375 -3.0625 Z M 5.875 -4.8125 "/></g><g id="b680dcb184104411b783c02f7ce358bbp3ilyisr__glyph-1-1"><path d="M 3.484375 -4.921875 C 3.53125 -5.015625 3.53125 -5.03125 3.53125 -5.046875 C 3.53125 -5.15625 3.4375 -5.21875 3.359375 -5.21875 C 3.25 -5.21875 3.21875 -5.140625 3.171875 -5.046875 L 0.578125 1.4375 C 0.53125 1.53125 0.53125 1.546875 0.53125 1.5625 C 0.53125 1.671875 0.625 1.734375 0.703125 1.734375 C 0.828125 1.734375 0.859375 1.65625 0.890625 1.5625 Z M 3.484375 -4.921875 "/></g><g id="b680dcb184104411b783c02f7ce358bbp3ilyisr__glyph-1-2"><path d="M 5.8125 -4 C 5.875 -4.265625 6 -4.5 6.546875 -4.515625 C 6.578125 -4.515625 6.6875 -4.515625 6.6875 -4.65625 C 6.6875 -4.703125 6.65625 -4.765625 6.578125 -4.765625 C 6.359375 -4.765625 6.09375 -4.734375 5.859375 -4.734375 C 5.6875 -4.734375 5.296875 -4.765625 5.125 -4.765625 C 5.09375 -4.765625 4.984375 -4.765625 4.984375 -4.609375 C 4.984375 -4.515625 5.078125 -4.515625 5.140625 -4.515625 C 5.46875 -4.5 5.578125 -4.390625 5.578125 -4.21875 C 5.578125 -4.171875 5.578125 -4.125 5.546875 -4.0625 L 4.796875 -1.015625 L 3.03125 -4.640625 C 2.96875 -4.765625 2.953125 -4.765625 2.78125 -4.765625 L 1.828125 -4.765625 C 1.703125 -4.765625 1.609375 -4.765625 1.609375 -4.609375 C 1.609375 -4.515625 1.6875 -4.515625 1.84375 -4.515625 C 1.984375 -4.515625 2.140625 -4.5 2.28125 -4.46875 L 1.359375 -0.75 C 1.296875 -0.484375 1.171875 -0.265625 0.625 -0.25 C 0.578125 -0.25 0.484375 -0.25 0.484375 -0.109375 C 0.484375 -0.03125 0.53125 0 0.578125 0 C 0.8125 0 1.078125 -0.03125 1.3125 -0.03125 C 1.484375 -0.03125 1.875 0 2.046875 0 C 2.125 0 2.1875 -0.03125 2.1875 -0.140625 C 2.1875 -0.25 2.109375 -0.25 2.03125 -0.25 C 1.59375 -0.265625 1.59375 -0.453125 1.59375 -0.546875 C 1.59375 -0.578125 1.59375 -0.609375 1.609375 -0.71875 L 2.515625 -4.28125 L 4.546875 -0.125 C 4.59375 0 4.625 0 4.703125 0 C 4.8125 0 4.8125 -0.015625 4.84375 -0.140625 Z M 5.8125 -4 "/></g><g id="b680dcb184104411b783c02f7ce358bbp3ilyisr__glyph-2-0"><path d="M 3.171875 1.5625 C 3.21875 1.6875 3.265625 1.734375 3.359375 1.734375 C 3.4375 1.734375 3.53125 1.671875 3.53125 1.5625 C 3.53125 1.546875 3.53125 1.53125 3.484375 1.4375 L 0.90625 -5.046875 C 0.84375 -5.171875 0.796875 -5.21875 0.703125 -5.21875 C 0.625 -5.21875 0.53125 -5.15625 0.53125 -5.046875 C 0.53125 -5.03125 0.53125 -5.015625 0.578125 -4.921875 Z M 3.171875 1.5625 "/></g><g id="b680dcb184104411b783c02f7ce358bbp3ilyisr__glyph-2-1"><path d="M 5.1875 -1.578125 C 5.296875 -1.578125 5.46875 -1.578125 5.46875 -1.734375 C 5.46875 -1.921875 5.296875 -1.921875 5.1875 -1.921875 L 1.03125 -1.921875 C 0.921875 -1.921875 0.75 -1.921875 0.75 -1.75 C 0.75 -1.578125 0.90625 -1.578125 1.03125 -1.578125 Z M 5.1875 -1.578125 "/></g><g id="b680dcb184104411b783c02f7ce358bbp3ilyisr__glyph-3-0"><path d="M 2.46875 -5.21875 C 1.15625 -4.296875 0.796875 -2.8125 0.796875 -1.75 C 0.796875 -0.765625 1.09375 0.765625 2.46875 1.734375 C 2.53125 1.734375 2.609375 1.734375 2.609375 1.65625 C 2.609375 1.609375 2.59375 1.59375 2.546875 1.546875 C 1.609375 0.703125 1.28125 -0.46875 1.28125 -1.734375 C 1.28125 -3.625 2 -4.546875 2.5625 -5.0625 C 2.59375 -5.09375 2.609375 -5.109375 2.609375 -5.140625 C 2.609375 -5.21875 2.53125 -5.21875 2.46875 -5.21875 Z M 2.46875 -5.21875 "/></g><g id="b680dcb184104411b783c02f7ce358bbp3ilyisr__glyph-3-1"><path d="M 0.625 -5.21875 C 0.578125 -5.21875 0.5 -5.21875 0.5 -5.140625 C 0.5 -5.109375 0.515625 -5.09375 0.5625 -5.03125 C 1.15625 -4.484375 1.828125 -3.546875 1.828125 -1.75 C 1.828125 -0.296875 1.375 0.8125 0.625 1.484375 C 0.5 1.609375 0.5 1.609375 0.5 1.65625 C 0.5 1.6875 0.515625 1.734375 0.578125 1.734375 C 0.671875 1.734375 1.328125 1.28125 1.796875 0.40625 C 2.09375 -0.171875 2.296875 -0.921875 2.296875 -1.734375 C 2.296875 -2.71875 2 -4.25 0.625 -5.21875 Z M 0.625 -5.21875 "/></g><g id="b680dcb184104411b783c02f7ce358bbp3ilyisr__glyph-3-2"><path d="M 1.53125 -2.59375 C 1.53125 -2.84375 1.328125 -3 1.125 -3 C 0.890625 -3 0.71875 -2.8125 0.71875 -2.609375 C 0.71875 -2.359375 0.921875 -2.203125 1.125 -2.203125 C 1.359375 -2.203125 1.53125 -2.390625 1.53125 -2.59375 Z M 1.53125 -0.390625 C 1.53125 -0.640625 1.328125 -0.796875 1.125 -0.796875 C 0.890625 -0.796875 0.71875 -0.609375 0.71875 -0.40625 C 0.71875 -0.15625 0.921875 0 1.125 0 C 1.359375 0 1.53125 -0.1875 1.53125 -0.390625 Z M 1.53125 -0.390625 "/></g><g id="b680dcb184104411b783c02f7ce358bbp3ilyisr__glyph-3-3"><path d="M 5.359375 -2.34375 C 5.453125 -2.34375 5.609375 -2.34375 5.609375 -2.515625 C 5.609375 -2.6875 5.453125 -2.6875 5.359375 -2.6875 L 0.75 -2.6875 C 0.65625 -2.6875 0.484375 -2.6875 0.484375 -2.515625 C 0.484375 -2.34375 0.640625 -2.34375 0.75 -2.34375 Z M 5.359375 -0.8125 C 5.453125 -0.8125 5.609375 -0.8125 5.609375 -0.96875 C 5.609375 -1.15625 5.453125 -1.15625 5.359375 -1.15625 L 0.75 -1.15625 C 0.640625 -1.15625 0.484375 -1.15625 0.484375 -0.96875 C 0.484375 -0.8125 0.65625 -0.8125 0.75 -0.8125 Z M 5.359375 -0.8125 "/></g><g id="b680dcb184104411b783c02f7ce358bbp3ilyisr__glyph-4-0"><path d="M 1.375 -4.84375 L 0.671875 -4.84375 L 0.671875 0 L 1.375 0 Z M 1.375 -4.84375 "/></g><g id="b680dcb184104411b783c02f7ce358bbp3ilyisr__glyph-4-1"><path d="M 3.234375 -2.0625 C 3.234375 -2.609375 3.078125 -3.15625 2.21875 -3.15625 C 1.828125 -3.15625 1.4375 -3 1.140625 -2.640625 L 1.140625 -3.140625 L 0.578125 -3.140625 L 0.578125 0 L 1.1875 0 L 1.1875 -1.6875 C 1.1875 -2.15625 1.375 -2.703125 1.921875 -2.703125 C 2.640625 -2.703125 2.640625 -2.21875 2.640625 -2.015625 L 2.640625 0 L 3.234375 0 Z M 3.234375 -2.0625 "/></g><g id="b680dcb184104411b783c02f7ce358bbp3ilyisr__glyph-4-2"><path d="M 3.21875 -4.84375 L 2.640625 -4.84375 L 2.640625 -2.796875 C 2.1875 -3.125 1.734375 -3.15625 1.546875 -3.15625 C 0.8125 -3.15625 0.25 -2.4375 0.25 -1.546875 C 0.25 -0.65625 0.796875 0.0625 1.515625 0.0625 C 1.953125 0.0625 2.359375 -0.125 2.625 -0.359375 L 2.625 0 L 3.21875 0 Z M 2.625 -0.859375 C 2.453125 -0.578125 2.1875 -0.390625 1.84375 -0.390625 C 1.359375 -0.390625 0.859375 -0.734375 0.859375 -1.546875 C 0.859375 -2.40625 1.453125 -2.703125 1.921875 -2.703125 C 2.203125 -2.703125 2.4375 -2.578125 2.625 -2.34375 Z M 2.625 -0.859375 "/></g><g id="b680dcb184104411b783c02f7ce358bbp3ilyisr__glyph-4-3"><path d="M 4.3125 -0.84375 C 3.828125 -0.546875 3.609375 -0.421875 2.90625 -0.421875 C 1.828125 -0.421875 1.171875 -1.421875 1.171875 -2.4375 C 1.171875 -3.46875 1.890625 -4.4375 2.90625 -4.4375 C 3.359375 -4.4375 3.84375 -4.28125 4.15625 -4.046875 L 4.265625 -4.671875 C 3.78125 -4.859375 3.390625 -4.90625 2.890625 -4.90625 C 1.5 -4.90625 0.46875 -3.765625 0.46875 -2.421875 C 0.46875 -0.984375 1.5625 0.0625 2.921875 0.0625 C 3.609375 0.0625 3.890625 -0.0625 4.359375 -0.328125 Z M 4.3125 -0.84375 "/></g><g id="b680dcb184104411b783c02f7ce358bbp3ilyisr__glyph-4-4"><path d="M 3.484375 -1.53125 C 3.484375 -2.453125 2.75 -3.203125 1.84375 -3.203125 C 0.9375 -3.203125 0.203125 -2.4375 0.203125 -1.53125 C 0.203125 -0.640625 0.953125 0.0625 1.84375 0.0625 C 2.75 0.0625 3.484375 -0.640625 3.484375 -1.53125 Z M 1.84375 -0.40625 C 1.296875 -0.40625 0.8125 -0.8125 0.8125 -1.609375 C 0.8125 -2.390625 1.328125 -2.734375 1.84375 -2.734375 C 2.375 -2.734375 2.875 -2.375 2.875 -1.609375 C 2.875 -0.8125 2.390625 -0.40625 1.84375 -0.40625 Z M 1.84375 -0.40625 "/></g><g id="b680dcb184104411b783c02f7ce358bbp3ilyisr__glyph-4-5"><path d="M 1.328125 -2.65625 L 2.1875 -2.65625 L 2.1875 -3.09375 L 1.296875 -3.09375 L 1.296875 -3.90625 C 1.296875 -4.328125 1.53125 -4.453125 1.734375 -4.453125 C 1.953125 -4.453125 2.125 -4.359375 2.1875 -4.328125 L 2.1875 -4.84375 C 2.15625 -4.84375 1.96875 -4.90625 1.734375 -4.90625 C 1.203125 -4.90625 0.734375 -4.421875 0.734375 -3.703125 L 0.734375 -3.09375 L 0.203125 -3.09375 L 0.203125 -2.65625 L 0.734375 -2.65625 L 0.734375 0 L 1.328125 0 Z M 3.359375 -4.84375 L 2.78125 -4.84375 L 2.78125 0 L 3.359375 0 Z M 3.359375 -4.84375 "/></g><g id="b680dcb184104411b783c02f7ce358bbp3ilyisr__glyph-4-6"><path d="M 3.125 -2.265625 C 4.125 -2.546875 4.375 -3.15625 4.375 -3.53125 C 4.375 -4.265625 3.53125 -4.84375 2.515625 -4.84375 L 0.6875 -4.84375 L 0.6875 0 L 1.359375 0 L 1.359375 -2.1875 L 2.515625 -2.1875 L 3.875 0 L 4.578125 0 Z M 1.359375 -2.640625 L 1.359375 -4.421875 L 2.421875 -4.421875 C 3.21875 -4.421875 3.75 -4.046875 3.75 -3.53125 C 3.75 -3.046875 3.265625 -2.640625 2.421875 -2.640625 Z M 1.359375 -2.640625 "/></g><g id="b680dcb184104411b783c02f7ce358bbp3ilyisr__glyph-4-7"><path d="M 3 -0.765625 C 2.609375 -0.484375 2.171875 -0.390625 1.875 -0.390625 C 1.265625 -0.390625 0.796875 -0.890625 0.78125 -1.53125 L 3.0625 -1.53125 C 3.0625 -1.84375 3.03125 -2.3125 2.765625 -2.703125 C 2.515625 -3.0625 2.09375 -3.203125 1.75 -3.203125 C 0.90625 -3.203125 0.25 -2.453125 0.25 -1.5625 C 0.25 -0.671875 0.9375 0.0625 1.859375 0.0625 C 2.265625 0.0625 2.6875 -0.046875 3.03125 -0.265625 Z M 0.828125 -1.9375 C 0.984375 -2.5 1.40625 -2.734375 1.75 -2.734375 C 2.0625 -2.734375 2.515625 -2.59375 2.640625 -1.9375 Z M 0.828125 -1.9375 "/></g><g id="b680dcb184104411b783c02f7ce358bbp3ilyisr__glyph-4-8"><path d="M 2.546875 -2.984375 C 2.0625 -3.171875 1.71875 -3.203125 1.46875 -3.203125 C 1.296875 -3.203125 0.25 -3.203125 0.25 -2.265625 C 0.25 -1.9375 0.421875 -1.765625 0.515625 -1.671875 C 0.765625 -1.4375 1.046875 -1.375 1.421875 -1.3125 C 1.75 -1.25 2.125 -1.171875 2.125 -0.84375 C 2.125 -0.40625 1.546875 -0.40625 1.453125 -0.40625 C 1 -0.40625 0.578125 -0.5625 0.3125 -0.765625 L 0.203125 -0.234375 C 0.453125 -0.125 0.875 0.0625 1.453125 0.0625 C 1.765625 0.0625 2.0625 0.015625 2.328125 -0.171875 C 2.578125 -0.359375 2.671875 -0.671875 2.671875 -0.90625 C 2.671875 -1.03125 2.65625 -1.296875 2.359375 -1.5625 C 2.109375 -1.796875 1.859375 -1.84375 1.515625 -1.90625 C 1.109375 -1.984375 0.78125 -2.046875 0.78125 -2.359375 C 0.78125 -2.75 1.296875 -2.75 1.40625 -2.75 C 1.796875 -2.75 2.109375 -2.671875 2.453125 -2.484375 Z M 2.546875 -2.984375 "/></g><g id="b680dcb184104411b783c02f7ce358bbp3ilyisr__glyph-5-0"><path d="M 3.015625 -2.359375 C 3.015625 -2.96875 2.734375 -3.515625 2.203125 -3.515625 C 1.40625 -3.515625 0.53125 -2.265625 0.53125 -1.09375 C 0.53125 -0.421875 0.859375 0.0625 1.34375 0.0625 C 2.15625 0.0625 3.015625 -1.234375 3.015625 -2.359375 Z M 1.140625 -1.84375 C 1.453125 -3.078125 1.953125 -3.34375 2.1875 -3.34375 C 2.46875 -3.34375 2.59375 -3.03125 2.59375 -2.640625 C 2.59375 -2.484375 2.578125 -2.28125 2.46875 -1.84375 Z M 2.40625 -1.609375 C 2.109375 -0.421875 1.609375 -0.109375 1.359375 -0.109375 C 0.984375 -0.109375 0.953125 -0.671875 0.953125 -0.8125 C 0.953125 -1.015625 0.984375 -1.25 1.078125 -1.609375 Z M 2.40625 -1.609375 "/></g><g id="b680dcb184104411b783c02f7ce358bbp3ilyisr__glyph-5-1"><path d="M 4.765625 -2.84375 C 4.796875 -2.96875 4.84375 -3.171875 5.296875 -3.1875 C 5.34375 -3.1875 5.421875 -3.1875 5.421875 -3.3125 C 5.421875 -3.34375 5.40625 -3.40625 5.34375 -3.40625 C 5.25 -3.40625 5.15625 -3.390625 5.0625 -3.390625 C 4.96875 -3.390625 4.875 -3.390625 4.78125 -3.390625 C 4.6875 -3.390625 4.578125 -3.390625 4.484375 -3.390625 C 4.390625 -3.390625 4.296875 -3.40625 4.203125 -3.40625 C 4.171875 -3.40625 4.078125 -3.40625 4.078125 -3.265625 C 4.078125 -3.1875 4.15625 -3.1875 4.203125 -3.1875 C 4.53125 -3.171875 4.5625 -3.078125 4.5625 -2.984375 C 4.5625 -2.953125 4.546875 -2.921875 4.546875 -2.890625 L 4 -0.75 L 2.5 -3.3125 C 2.453125 -3.40625 2.453125 -3.40625 2.328125 -3.40625 L 1.5625 -3.40625 C 1.453125 -3.40625 1.375 -3.40625 1.375 -3.265625 C 1.375 -3.1875 1.453125 -3.1875 1.5625 -3.1875 C 1.578125 -3.1875 1.78125 -3.1875 1.90625 -3.15625 L 1.25 -0.5625 C 1.21875 -0.421875 1.171875 -0.234375 0.703125 -0.21875 C 0.671875 -0.21875 0.578125 -0.21875 0.578125 -0.078125 C 0.578125 -0.046875 0.625 0 0.671875 0 C 0.75 0 0.859375 -0.015625 0.953125 -0.015625 C 1.046875 -0.015625 1.140625 -0.015625 1.234375 -0.015625 C 1.328125 -0.015625 1.4375 -0.015625 1.53125 -0.015625 C 1.625 -0.015625 1.71875 0 1.8125 0 C 1.875 0 1.9375 -0.03125 1.9375 -0.140625 C 1.9375 -0.21875 1.859375 -0.21875 1.796875 -0.21875 C 1.5625 -0.234375 1.453125 -0.296875 1.453125 -0.40625 C 1.453125 -0.453125 1.46875 -0.484375 1.484375 -0.53125 L 2.109375 -3.03125 L 3.8125 -0.09375 C 3.875 0 3.890625 0 3.953125 0 C 4.046875 0 4.0625 -0.03125 4.078125 -0.125 Z M 4.765625 -2.84375 "/></g><g id="b680dcb184104411b783c02f7ce358bbp3ilyisr__glyph-6-0"><path d="M 4.171875 4.765625 C 4.28125 4.78125 4.453125 4.796875 4.453125 4.625 C 4.46875 4.453125 4.296875 4.4375 4.1875 4.421875 L 2.21875 4.25 L 2.5 1.0625 C 2.515625 0.9375 2.53125 0.75 2.359375 0.75 C 2.1875 0.734375 2.171875 0.90625 2.171875 1 L 1.875 4.234375 L -0.09375 4.046875 C -0.203125 4.046875 -0.359375 4.03125 -0.375 4.203125 C -0.375 4.375 -0.203125 4.390625 -0.109375 4.390625 Z M 4.171875 4.765625 "/></g><g id="b680dcb184104411b783c02f7ce358bbp3ilyisr__glyph-7-0"><path d="M 4.921875 3.984375 C 5.03125 3.96875 5.203125 3.953125 5.203125 3.78125 C 5.1875 3.609375 5.015625 3.625 4.90625 3.640625 L 2.9375 3.8125 L 2.65625 0.625 C 2.640625 0.5 2.625 0.3125 2.453125 0.3125 C 2.28125 0.328125 2.296875 0.5 2.296875 0.59375 L 2.59375 3.828125 L 0.625 4.015625 C 0.515625 4.015625 0.359375 4.03125 0.375 4.203125 C 0.375 4.375 0.546875 4.359375 0.640625 4.359375 Z M 4.921875 3.984375 "/></g><g id="b680dcb184104411b783c02f7ce358bbp3ilyisr__glyph-8-0"><path d="M 4.5625 4.390625 C 4.671875 4.390625 4.84375 4.390625 4.84375 4.21875 C 4.84375 4.046875 4.671875 4.046875 4.5625 4.046875 L 2.59375 4.046875 L 2.59375 0.84375 C 2.59375 0.71875 2.59375 0.53125 2.421875 0.53125 C 2.25 0.53125 2.25 0.703125 2.25 0.796875 L 2.25 4.046875 L 0.265625 4.046875 C 0.15625 4.046875 0 4.046875 0 4.21875 C 0 4.390625 0.171875 4.390625 0.265625 4.390625 Z M 4.5625 4.390625 "/></g></g></defs><g fill="rgb(0%, 0%, 0%)" fill-opacity="1"><use xlink:href="#b680dcb184104411b783c02f7ce358bbp3ilyisr__glyph-0-0" x="92.86092" y="39.410616"/><use xlink:href="#b680dcb184104411b783c02f7ce358bbp3ilyisr__glyph-0-1" x="99.220678" y="39.410616"/><use xlink:href="#b680dcb184104411b783c02f7ce358bbp3ilyisr__glyph-0-2" x="104.004681" y="39.410616"/></g><g fill="rgb(0%, 0%, 0%)" fill-opacity="1"><use xlink:href="#b680dcb184104411b783c02f7ce358bbp3ilyisr__glyph-1-0" x="107.598529" y="40.90436"/></g><g fill="rgb(0%, 0%, 0%)" fill-opacity="1"><use xlink:href="#b680dcb184104411b783c02f7ce358bbp3ilyisr__glyph-0-0" x="218.426342" y="39.410616"/><use xlink:href="#b680dcb184104411b783c02f7ce358bbp3ilyisr__glyph-0-1" x="224.7861" y="39.410616"/><use xlink:href="#b680dcb184104411b783c02f7ce358bbp3ilyisr__glyph-0-2" x="229.570103" y="39.410616"/></g><g fill="rgb(0%, 0%, 0%)" fill-opacity="1"><use xlink:href="#b680dcb184104411b783c02f7ce358bbp3ilyisr__glyph-1-0" x="233.16395" y="41.208105"/><use xlink:href="#b680dcb184104411b783c02f7ce358bbp3ilyisr__glyph-1-1" x="239.361237" y="41.208105"/></g><g fill="rgb(0%, 0%, 0%)" fill-opacity="1"><use xlink:href="#b680dcb184104411b783c02f7ce358bbp3ilyisr__glyph-1-2" x="243.014529" y="41.208105"/></g><path fill="none" stroke="rgb(0%, 0%, 0%)" stroke-linecap="butt" stroke-linejoin="miter" stroke-miterlimit="10" stroke-opacity="1" stroke-width="0.39848" d="M -55.500435 9.075408 C -22.331945 30.691224 16.974515 30.691224 49.810695 9.294342 " transform="matrix(0.99916, 0, 0, -0.99916, 171.711621, 37.724034)"/><path fill="none" stroke="rgb(0%, 0%, 0%)" stroke-linecap="round" stroke-linejoin="round" stroke-miterlimit="10" stroke-opacity="1" stroke-width="0.39848" d="M -2.071824 2.392824 C -1.694328 0.954199 -0.847972 0.278427 0.000381672 0.000613205 C -0.849457 -0.277859 -1.693748 -0.958705 -2.072014 -2.390504 " transform="matrix(0.837076, 0.545481, 0.545481, -0.837076, 221.647784, 28.54718)"/><g fill="rgb(0%, 0%, 0%)" fill-opacity="1"><use xlink:href="#b680dcb184104411b783c02f7ce358bbp3ilyisr__glyph-1-2" x="146.195076" y="8.374712"/></g><g fill="rgb(0%, 0%, 0%)" fill-opacity="1"><use xlink:href="#b680dcb184104411b783c02f7ce358bbp3ilyisr__glyph-2-0" x="153.245936" y="8.374712"/></g><g fill="rgb(0%, 0%, 0%)" fill-opacity="1"><use xlink:href="#b680dcb184104411b783c02f7ce358bbp3ilyisr__glyph-3-0" x="157.324272" y="8.374712"/></g><g fill="rgb(0%, 0%, 0%)" fill-opacity="1"><use xlink:href="#b680dcb184104411b783c02f7ce358bbp3ilyisr__glyph-2-1" x="160.43476" y="8.374712"/></g><g fill="rgb(0%, 0%, 0%)" fill-opacity="1"><use xlink:href="#b680dcb184104411b783c02f7ce358bbp3ilyisr__glyph-3-1" x="166.656435" y="8.374712"/><use xlink:href="#b680dcb184104411b783c02f7ce358bbp3ilyisr__glyph-3-2" x="169.766924" y="8.374712"/><use xlink:href="#b680dcb184104411b783c02f7ce358bbp3ilyisr__glyph-3-3" x="172.020356" y="8.374712"/></g><g fill="rgb(0%, 0%, 0%)" fill-opacity="1"><use xlink:href="#b680dcb184104411b783c02f7ce358bbp3ilyisr__glyph-4-0" x="178.131241" y="8.374712"/><use xlink:href="#b680dcb184104411b783c02f7ce358bbp3ilyisr__glyph-4-1" x="180.18748" y="8.374712"/><use xlink:href="#b680dcb184104411b783c02f7ce358bbp3ilyisr__glyph-4-2" x="184.010093" y="8.374712"/></g><g fill="rgb(0%, 0%, 0%)" fill-opacity="1"><use xlink:href="#b680dcb184104411b783c02f7ce358bbp3ilyisr__glyph-5-0" x="187.835064" y="9.430824"/></g><path fill="none" stroke="rgb(0%, 0%, 0%)" stroke-linecap="butt" stroke-linejoin="miter" stroke-miterlimit="10" stroke-opacity="1" stroke-width="0.39848" d="M -52.978786 -3.161434 C -22.331945 -11.152523 16.974515 -11.152523 41.882159 -4.658786 " transform="matrix(0.99916, 0, 0, -0.99916, 171.711621, 37.724034)"/><path fill="none" stroke="rgb(0%, 0%, 0%)" stroke-linecap="round" stroke-linejoin="round" stroke-miterlimit="10" stroke-opacity="1" stroke-width="0.39848" d="M -2.071484 2.390167 C -1.693368 0.958204 -0.848681 0.277318 0.0000817194 -0.000581699 C -0.84863 -0.280282 -1.691877 -0.957375 -2.073348 -2.389243 " transform="matrix(0.966777, -0.252108, -0.252108, -0.966777, 213.749774, 42.327583)"/><path fill="rgb(100%, 100%, 100%)" fill-opacity="1" fill-rule="nonzero" d="M 141.535156 53.261719 L 195.199219 53.261719 L 195.199219 40.828125 L 141.535156 40.828125 Z M 141.535156 53.261719 "/><g fill="rgb(0%, 0%, 0%)" fill-opacity="1"><use xlink:href="#b680dcb184104411b783c02f7ce358bbp3ilyisr__glyph-3-0" x="143.679191" y="49.377236"/></g><g fill="rgb(0%, 0%, 0%)" fill-opacity="1"><use xlink:href="#b680dcb184104411b783c02f7ce358bbp3ilyisr__glyph-2-1" x="146.78968" y="49.377236"/></g><g fill="rgb(0%, 0%, 0%)" fill-opacity="1"><use xlink:href="#b680dcb184104411b783c02f7ce358bbp3ilyisr__glyph-3-1" x="153.011355" y="49.377236"/></g><g fill="rgb(0%, 0%, 0%)" fill-opacity="1"><use xlink:href="#b680dcb184104411b783c02f7ce358bbp3ilyisr__glyph-5-1" x="156.121729" y="46.372762"/></g><g fill="rgb(0%, 0%, 0%)" fill-opacity="1"><use xlink:href="#b680dcb184104411b783c02f7ce358bbp3ilyisr__glyph-3-2" x="162.516353" y="49.377236"/><use xlink:href="#b680dcb184104411b783c02f7ce358bbp3ilyisr__glyph-3-3" x="164.769785" y="49.377236"/></g><g fill="rgb(0%, 0%, 0%)" fill-opacity="1"><use xlink:href="#b680dcb184104411b783c02f7ce358bbp3ilyisr__glyph-4-3" x="170.880669" y="49.377236"/><use xlink:href="#b680dcb184104411b783c02f7ce358bbp3ilyisr__glyph-4-4" x="175.610508" y="49.377236"/><use xlink:href="#b680dcb184104411b783c02f7ce358bbp3ilyisr__glyph-4-0" x="179.312575" y="49.377236"/><use xlink:href="#b680dcb184104411b783c02f7ce358bbp3ilyisr__glyph-4-1" x="181.368814" y="49.377236"/><use xlink:href="#b680dcb184104411b783c02f7ce358bbp3ilyisr__glyph-4-2" x="185.191427" y="49.377236"/></g><g fill="rgb(0%, 0%, 0%)" fill-opacity="1"><use xlink:href="#b680dcb184104411b783c02f7ce358bbp3ilyisr__glyph-5-0" x="189.014073" y="50.433348"/></g><path fill="none" stroke="rgb(0%, 0%, 0%)" stroke-linecap="butt" stroke-linejoin="miter" stroke-miterlimit="10" stroke-opacity="1" stroke-width="0.39848" d="M 40.877408 6.522482 C 16.974515 12.75819 -22.331945 12.75819 -52.591742 4.868749 " transform="matrix(0.99916, 0, 0, -0.99916, 171.711621, 37.724034)"/><path fill="none" stroke="rgb(0%, 0%, 0%)" stroke-linecap="round" stroke-linejoin="miter" stroke-miterlimit="10" stroke-opacity="1" stroke-width="0.39848" d="M -0.00127304 1.953757 C 0.681505 1.954031 1.235949 1.516786 1.235742 0.975301 C 1.234547 0.437599 0.682336 -0.00136761 -0.00044162 -0.00164229 " transform="matrix(0.966767, 0.252118, 0.252118, -0.966767, 212.555528, 31.205555)"/><path fill="none" stroke="rgb(0%, 0%, 0%)" stroke-linecap="round" stroke-linejoin="round" stroke-miterlimit="10" stroke-opacity="1" stroke-width="0.39848" d="M -2.073411 2.390086 C -1.691483 0.957137 -0.850561 0.27725 -0.00178923 -0.000634506 C -0.850499 -0.280353 -1.693738 -0.957466 -2.0714 -2.390334 " transform="matrix(-0.966777, 0.252088, 0.252088, 0.966777, 118.971086, 32.911221)"/><path fill="rgb(100%, 100%, 100%)" fill-opacity="1" fill-rule="nonzero" d="M 147.617188 31.890625 L 189.117188 31.890625 L 189.117188 21.707031 L 147.617188 21.707031 Z M 147.617188 31.890625 "/><g fill="rgb(0%, 0%, 0%)" fill-opacity="1"><use xlink:href="#b680dcb184104411b783c02f7ce358bbp3ilyisr__glyph-4-0" x="149.761077" y="28.690629"/><use xlink:href="#b680dcb184104411b783c02f7ce358bbp3ilyisr__glyph-4-1" x="151.817317" y="28.690629"/><use xlink:href="#b680dcb184104411b783c02f7ce358bbp3ilyisr__glyph-4-5" x="155.639929" y="28.690629"/></g><g fill="rgb(0%, 0%, 0%)" fill-opacity="1"><use xlink:href="#b680dcb184104411b783c02f7ce358bbp3ilyisr__glyph-5-0" x="159.607798" y="29.746741"/></g><g fill="rgb(0%, 0%, 0%)" fill-opacity="1"><use xlink:href="#b680dcb184104411b783c02f7ce358bbp3ilyisr__glyph-3-2" x="163.648401" y="28.690629"/><use xlink:href="#b680dcb184104411b783c02f7ce358bbp3ilyisr__glyph-3-3" x="165.901833" y="28.690629"/></g><g fill="rgb(0%, 0%, 0%)" fill-opacity="1"><use xlink:href="#b680dcb184104411b783c02f7ce358bbp3ilyisr__glyph-4-6" x="172.012717" y="28.690629"/><use xlink:href="#b680dcb184104411b783c02f7ce358bbp3ilyisr__glyph-4-7" x="176.803177" y="28.690629"/><use xlink:href="#b680dcb184104411b783c02f7ce358bbp3ilyisr__glyph-4-8" x="180.093439" y="28.690629"/></g><g fill="rgb(0%, 0%, 0%)" fill-opacity="1"><use xlink:href="#b680dcb184104411b783c02f7ce358bbp3ilyisr__glyph-5-0" x="182.932186" y="29.746741"/></g><path fill="none" stroke="rgb(0%, 0%, 0%)" stroke-linecap="butt" stroke-linejoin="miter" stroke-miterlimit="10" stroke-opacity="1" stroke-width="0.39848" d="M 47.683908 -9.07656 C 16.974515 -29.085558 -22.331945 -29.085558 -55.844474 -7.246898 " transform="matrix(0.99916, 0, 0, -0.99916, 171.711621, 37.724034)"/><path fill="none" stroke="rgb(0%, 0%, 0%)" stroke-linecap="round" stroke-linejoin="round" stroke-miterlimit="10" stroke-opacity="1" stroke-width="0.39848" d="M -2.073053 2.392603 C -1.692281 0.956112 -0.8492 0.278206 -0.000847194 0.000392117 C -0.850686 -0.27808 -1.691702 -0.956792 -2.073243 -2.390725 " transform="matrix(-0.837076, -0.545481, -0.545481, 0.837076, 115.745598, 44.854678)"/><g fill="rgb(0%, 0%, 0%)" fill-opacity="1"><use xlink:href="#b680dcb184104411b783c02f7ce358bbp3ilyisr__glyph-4-3" x="157.483584" y="68.711979"/><use xlink:href="#b680dcb184104411b783c02f7ce358bbp3ilyisr__glyph-4-4" x="162.213423" y="68.711979"/><use xlink:href="#b680dcb184104411b783c02f7ce358bbp3ilyisr__glyph-4-0" x="165.91549" y="68.711979"/><use xlink:href="#b680dcb184104411b783c02f7ce358bbp3ilyisr__glyph-4-1" x="167.971729" y="68.711979"/><use xlink:href="#b680dcb184104411b783c02f7ce358bbp3ilyisr__glyph-4-5" x="171.794342" y="68.711979"/></g><g fill="rgb(0%, 0%, 0%)" fill-opacity="1"><use xlink:href="#b680dcb184104411b783c02f7ce358bbp3ilyisr__glyph-5-0" x="175.762215" y="69.768091"/></g><g fill="rgb(0%, 0%, 0%)" fill-opacity="1"><use xlink:href="#b680dcb184104411b783c02f7ce358bbp3ilyisr__glyph-6-0" x="166.505998" y="16.959493"/></g><g fill="rgb(0%, 0%, 0%)" fill-opacity="1"><use xlink:href="#b680dcb184104411b783c02f7ce358bbp3ilyisr__glyph-7-0" x="165.879525" y="52.040996"/></g><g fill="rgb(0%, 0%, 0%)" fill-opacity="1"><use xlink:href="#b680dcb184104411b783c02f7ce358bbp3ilyisr__glyph-8-0" x="165.947468" y="34.454783"/></g></svg>