<?xml version="1.0" encoding="UTF-8"?><svg xmlns="http://www.w3.org/2000/svg" xmlns:xlink="http://www.w3.org/1999/xlink" width="263.101" height="55.021" viewBox="0 0 263.101 55.021"><defs><g><g id="2db76039492618ed512a51982e3e6d15poth0e7x__glyph-0-0"><path d="M 1.75 -1.125 C 1.359375 -0.46875 0.984375 -0.328125 0.546875 -0.296875 C 0.4375 -0.296875 0.34375 -0.296875 0.34375 -0.109375 C 0.34375 -0.046875 0.390625 0 0.46875 0 C 0.734375 0 1.03125 -0.03125 1.3125 -0.03125 C 1.640625 -0.03125 1.96875 0 2.28125 0 C 2.34375 0 2.46875 0 2.46875 -0.1875 C 2.46875 -0.296875 2.390625 -0.296875 2.3125 -0.296875 C 2.09375 -0.328125 1.859375 -0.40625 1.859375 -0.640625 C 1.859375 -0.765625 1.921875 -0.875 2 -1 L 2.734375 -2.265625 L 5.1875 -2.265625 C 5.21875 -2.046875 5.34375 -0.71875 5.34375 -0.625 C 5.34375 -0.328125 4.84375 -0.296875 4.640625 -0.296875 C 4.515625 -0.296875 4.40625 -0.296875 4.40625 -0.109375 C 4.40625 0 4.53125 0 4.546875 0 C 4.953125 0 5.375 -0.03125 5.765625 -0.03125 C 6.015625 -0.03125 6.625 0 6.875 0 C 6.9375 0 7.046875 0 7.046875 -0.203125 C 7.046875 -0.296875 6.953125 -0.296875 6.828125 -0.296875 C 6.21875 -0.296875 6.21875 -0.375 6.1875 -0.65625 L 5.59375 -6.765625 C 5.578125 -6.96875 5.578125 -7 5.40625 -7 C 5.25 -7 5.21875 -6.9375 5.15625 -6.84375 Z M 2.921875 -2.5625 L 4.84375 -5.796875 L 5.171875 -2.5625 Z M 2.921875 -2.5625 "/></g><g id="2db76039492618ed512a51982e3e6d15poth0e7x__glyph-0-1"><path d="M 1.5625 -0.765625 C 1.46875 -0.375 1.453125 -0.296875 0.671875 -0.296875 C 0.515625 -0.296875 0.40625 -0.296875 0.40625 -0.109375 C 0.40625 0 0.5 0 0.671875 0 L 4.171875 0 C 5.71875 0 6.859375 -1.15625 6.859375 -2.109375 C 6.859375 -2.8125 6.296875 -3.390625 5.34375 -3.484375 C 6.375 -3.671875 7.390625 -4.40625 7.390625 -5.328125 C 7.390625 -6.046875 6.75 -6.6875 5.578125 -6.6875 L 2.28125 -6.6875 C 2.109375 -6.6875 2 -6.6875 2 -6.484375 C 2 -6.375 2.09375 -6.375 2.28125 -6.375 C 2.296875 -6.375 2.484375 -6.375 2.65625 -6.359375 C 2.828125 -6.34375 2.921875 -6.328125 2.921875 -6.203125 C 2.921875 -6.15625 2.90625 -6.140625 2.875 -6.015625 Z M 3.046875 -3.578125 L 3.65625 -6 C 3.734375 -6.34375 3.75 -6.375 4.171875 -6.375 L 5.4375 -6.375 C 6.296875 -6.375 6.5 -5.796875 6.5 -5.375 C 6.5 -4.515625 5.65625 -3.578125 4.46875 -3.578125 Z M 2.609375 -0.296875 C 2.46875 -0.296875 2.453125 -0.296875 2.390625 -0.3125 C 2.28125 -0.328125 2.265625 -0.328125 2.265625 -0.40625 C 2.265625 -0.4375 2.265625 -0.453125 2.3125 -0.640625 L 2.984375 -3.359375 L 4.828125 -3.359375 C 5.765625 -3.359375 5.953125 -2.640625 5.953125 -2.21875 C 5.953125 -1.25 5.09375 -0.296875 3.9375 -0.296875 Z M 2.609375 -0.296875 "/></g><g id="2db76039492618ed512a51982e3e6d15poth0e7x__glyph-0-2"><path d="M 7.4375 -6.796875 C 7.4375 -6.828125 7.421875 -6.890625 7.328125 -6.890625 C 7.296875 -6.890625 7.28125 -6.890625 7.171875 -6.78125 L 6.5 -6.03125 C 6.40625 -6.15625 5.953125 -6.890625 4.875 -6.890625 C 2.6875 -6.890625 0.484375 -4.734375 0.484375 -2.46875 C 0.484375 -0.84375 1.640625 0.21875 3.140625 0.21875 C 3.984375 0.21875 4.734375 -0.171875 5.25 -0.625 C 6.15625 -1.421875 6.328125 -2.3125 6.328125 -2.34375 C 6.328125 -2.453125 6.234375 -2.453125 6.21875 -2.453125 C 6.15625 -2.453125 6.109375 -2.421875 6.078125 -2.34375 C 6 -2.0625 5.765625 -1.375 5.09375 -0.796875 C 4.421875 -0.25 3.8125 -0.09375 3.296875 -0.09375 C 2.421875 -0.09375 1.375 -0.59375 1.375 -2.125 C 1.375 -2.6875 1.578125 -4.265625 2.5625 -5.40625 C 3.15625 -6.109375 4.078125 -6.59375 4.953125 -6.59375 C 5.953125 -6.59375 6.53125 -5.84375 6.53125 -4.703125 C 6.53125 -4.3125 6.5 -4.296875 6.5 -4.203125 C 6.5 -4.109375 6.609375 -4.109375 6.640625 -4.109375 C 6.765625 -4.109375 6.765625 -4.125 6.8125 -4.296875 Z M 7.4375 -6.796875 "/></g><g id="2db76039492618ed512a51982e3e6d15poth0e7x__glyph-0-3"><path d="M 1.5625 -0.765625 C 1.453125 -0.375 1.4375 -0.296875 0.671875 -0.296875 C 0.5 -0.296875 0.390625 -0.296875 0.390625 -0.125 C 0.390625 0 0.484375 0 0.671875 0 L 3.90625 0 C 5.9375 0 7.859375 -2.0625 7.859375 -4.203125 C 7.859375 -5.578125 7.03125 -6.6875 5.5625 -6.6875 L 2.28125 -6.6875 C 2.09375 -6.6875 1.984375 -6.6875 1.984375 -6.5 C 1.984375 -6.375 2.078125 -6.375 2.265625 -6.375 C 2.390625 -6.375 2.578125 -6.375 2.6875 -6.359375 C 2.84375 -6.34375 2.90625 -6.3125 2.90625 -6.203125 C 2.90625 -6.15625 2.890625 -6.140625 2.859375 -6.015625 Z M 3.671875 -6 C 3.75 -6.34375 3.78125 -6.375 4.203125 -6.375 L 5.25 -6.375 C 6.203125 -6.375 7.015625 -5.859375 7.015625 -4.5625 C 7.015625 -4.09375 6.8125 -2.484375 5.984375 -1.40625 C 5.703125 -1.046875 4.9375 -0.296875 3.734375 -0.296875 L 2.625 -0.296875 C 2.484375 -0.296875 2.46875 -0.296875 2.40625 -0.3125 C 2.3125 -0.328125 2.28125 -0.328125 2.28125 -0.40625 C 2.28125 -0.4375 2.28125 -0.453125 2.328125 -0.640625 Z M 3.671875 -6 "/></g><g id="2db76039492618ed512a51982e3e6d15poth0e7x__glyph-0-4"><path d="M 6.921875 -2.28125 C 6.9375 -2.328125 6.96875 -2.390625 6.96875 -2.421875 C 6.96875 -2.421875 6.96875 -2.53125 6.859375 -2.53125 C 6.765625 -2.53125 6.75 -2.46875 6.734375 -2.40625 C 6.09375 -0.953125 5.734375 -0.296875 4.0625 -0.296875 L 2.625 -0.296875 C 2.5 -0.296875 2.46875 -0.296875 2.421875 -0.3125 C 2.3125 -0.328125 2.28125 -0.328125 2.28125 -0.40625 C 2.28125 -0.4375 2.28125 -0.453125 2.34375 -0.640625 L 3 -3.3125 L 3.96875 -3.3125 C 4.796875 -3.3125 4.796875 -3.09375 4.796875 -2.859375 C 4.796875 -2.78125 4.796875 -2.671875 4.734375 -2.375 C 4.71875 -2.328125 4.703125 -2.296875 4.703125 -2.265625 C 4.703125 -2.21875 4.75 -2.15625 4.828125 -2.15625 C 4.90625 -2.15625 4.9375 -2.203125 4.984375 -2.359375 L 5.53125 -4.640625 C 5.53125 -4.703125 5.484375 -4.75 5.421875 -4.75 C 5.328125 -4.75 5.3125 -4.6875 5.28125 -4.578125 C 5.078125 -3.828125 4.90625 -3.609375 4 -3.609375 L 3.078125 -3.609375 L 3.671875 -5.96875 C 3.75 -6.3125 3.765625 -6.34375 4.203125 -6.34375 L 5.578125 -6.34375 C 6.765625 -6.34375 7.0625 -6.0625 7.0625 -5.265625 C 7.0625 -5.03125 7.0625 -5.015625 7.015625 -4.75 C 7.015625 -4.6875 7.015625 -4.609375 7.015625 -4.5625 C 7.015625 -4.515625 7.046875 -4.453125 7.125 -4.453125 C 7.234375 -4.453125 7.25 -4.515625 7.265625 -4.6875 L 7.46875 -6.390625 C 7.5 -6.65625 7.4375 -6.65625 7.203125 -6.65625 L 2.265625 -6.65625 C 2.0625 -6.65625 1.96875 -6.65625 1.96875 -6.453125 C 1.96875 -6.34375 2.046875 -6.34375 2.234375 -6.34375 C 2.609375 -6.34375 2.875 -6.34375 2.875 -6.171875 C 2.875 -6.140625 2.875 -6.109375 2.828125 -5.9375 L 1.53125 -0.765625 C 1.4375 -0.375 1.421875 -0.296875 0.640625 -0.296875 C 0.484375 -0.296875 0.375 -0.296875 0.375 -0.125 C 0.375 0 0.453125 0 0.640625 0 L 5.71875 0 C 5.953125 0 5.953125 -0.015625 6.03125 -0.171875 Z M 6.921875 -2.28125 "/></g><g id="2db76039492618ed512a51982e3e6d15poth0e7x__glyph-0-5"><path d="M 1.984375 -0.015625 C 1.984375 -0.65625 1.734375 -1.03125 1.359375 -1.03125 C 1.03125 -1.03125 0.84375 -0.796875 0.84375 -0.515625 C 0.84375 -0.25 1.03125 0 1.359375 0 C 1.484375 0 1.609375 -0.046875 1.703125 -0.125 C 1.734375 -0.140625 1.734375 -0.15625 1.75 -0.15625 C 1.765625 -0.15625 1.765625 -0.140625 1.765625 -0.015625 C 1.765625 0.71875 1.421875 1.296875 1.109375 1.625 C 1 1.734375 1 1.75 1 1.78125 C 1 1.84375 1.046875 1.890625 1.09375 1.890625 C 1.203125 1.890625 1.984375 1.140625 1.984375 -0.015625 Z M 1.984375 -0.015625 "/></g><g id="2db76039492618ed512a51982e3e6d15poth0e7x__glyph-1-0"><path d="M 1.984375 -3.234375 C 2.046875 -3.359375 2.046875 -3.40625 2.046875 -3.453125 C 2.046875 -3.671875 1.859375 -3.828125 1.640625 -3.828125 C 1.390625 -3.828125 1.296875 -3.625 1.265625 -3.515625 L 0.359375 -0.546875 C 0.359375 -0.53125 0.328125 -0.4375 0.328125 -0.4375 C 0.328125 -0.34375 0.546875 -0.28125 0.59375 -0.28125 C 0.640625 -0.28125 0.65625 -0.296875 0.703125 -0.390625 Z M 1.984375 -3.234375 "/></g><g id="2db76039492618ed512a51982e3e6d15poth0e7x__glyph-2-0"><path d="M 2.796875 -2.703125 L 3.46875 -2.703125 C 3.59375 -2.703125 3.6875 -2.703125 3.6875 -2.859375 C 3.6875 -2.953125 3.59375 -2.953125 3.484375 -2.953125 L 2.84375 -2.953125 C 3 -3.828125 3.046875 -4.140625 3.109375 -4.34375 C 3.140625 -4.5 3.296875 -4.640625 3.453125 -4.640625 C 3.46875 -4.640625 3.65625 -4.640625 3.78125 -4.546875 C 3.5 -4.46875 3.484375 -4.21875 3.484375 -4.171875 C 3.484375 -4.03125 3.59375 -3.921875 3.75 -3.921875 C 3.9375 -3.921875 4.140625 -4.078125 4.140625 -4.34375 C 4.140625 -4.65625 3.8125 -4.828125 3.453125 -4.828125 C 3.15625 -4.828125 2.8125 -4.65625 2.640625 -4.3125 C 2.5 -4.0625 2.4375 -3.75 2.296875 -2.953125 L 1.75 -2.953125 C 1.625 -2.953125 1.53125 -2.953125 1.53125 -2.8125 C 1.53125 -2.703125 1.625 -2.703125 1.75 -2.703125 L 2.25 -2.703125 C 2.25 -2.671875 1.8125 -0.203125 1.640625 0.53125 C 1.609375 0.6875 1.5 1.203125 1.171875 1.203125 C 1.15625 1.203125 1 1.203125 0.859375 1.125 C 1.140625 1.03125 1.171875 0.78125 1.171875 0.75 C 1.171875 0.59375 1.046875 0.5 0.890625 0.5 C 0.703125 0.5 0.5 0.65625 0.5 0.90625 C 0.5 1.21875 0.828125 1.40625 1.171875 1.40625 C 1.609375 1.40625 1.90625 0.953125 1.984375 0.796875 C 2.234375 0.34375 2.390625 -0.5 2.40625 -0.59375 Z M 2.796875 -2.703125 "/></g><g id="2db76039492618ed512a51982e3e6d15poth0e7x__glyph-2-1"><path d="M 3.65625 -2.53125 C 3.671875 -2.640625 3.671875 -2.671875 3.671875 -2.671875 C 3.671875 -2.828125 3.546875 -2.890625 3.4375 -2.890625 C 3.28125 -2.890625 3.15625 -2.765625 3.125 -2.640625 C 3.015625 -2.8125 2.78125 -3.03125 2.421875 -3.03125 C 1.5625 -3.03125 0.671875 -2.109375 0.671875 -1.125 C 0.671875 -0.421875 1.140625 0 1.703125 0 C 2.03125 0 2.328125 -0.15625 2.5625 -0.375 L 2.421875 0.25 C 2.34375 0.53125 2.296875 0.71875 2.03125 0.953125 C 1.734375 1.203125 1.4375 1.203125 1.265625 1.203125 C 0.953125 1.203125 0.859375 1.1875 0.734375 1.15625 C 0.90625 1.078125 0.953125 0.90625 0.953125 0.8125 C 0.953125 0.65625 0.828125 0.5625 0.6875 0.5625 C 0.5 0.5625 0.296875 0.71875 0.296875 0.984375 C 0.296875 1.390625 0.890625 1.40625 1.265625 1.40625 C 2.34375 1.40625 2.8125 0.84375 2.90625 0.453125 Z M 2.703125 -0.90625 C 2.671875 -0.8125 2.671875 -0.796875 2.5625 -0.65625 C 2.3125 -0.375 1.984375 -0.1875 1.734375 -0.1875 C 1.375 -0.1875 1.21875 -0.484375 1.21875 -0.84375 C 1.21875 -1.140625 1.40625 -1.90625 1.578125 -2.21875 C 1.859375 -2.703125 2.1875 -2.828125 2.421875 -2.828125 C 2.90625 -2.828125 3.03125 -2.3125 3.03125 -2.25 C 3.03125 -2.234375 3.03125 -2.21875 3.015625 -2.140625 Z M 2.703125 -0.90625 "/></g><g id="2db76039492618ed512a51982e3e6d15poth0e7x__glyph-2-2"><path d="M 2.140625 -4.546875 C 2.15625 -4.5625 2.171875 -4.65625 2.171875 -4.671875 C 2.171875 -4.703125 2.140625 -4.765625 2.0625 -4.765625 C 1.921875 -4.765625 1.359375 -4.703125 1.1875 -4.6875 C 1.125 -4.6875 1.03125 -4.671875 1.03125 -4.53125 C 1.03125 -4.4375 1.125 -4.4375 1.21875 -4.4375 C 1.546875 -4.4375 1.546875 -4.390625 1.546875 -4.328125 C 1.546875 -4.28125 1.53125 -4.25 1.515625 -4.1875 L 0.546875 -0.296875 C 0.515625 -0.171875 0.515625 -0.171875 0.515625 -0.15625 C 0.515625 -0.046875 0.59375 0.0625 0.75 0.0625 C 0.828125 0.0625 0.953125 0.03125 1.03125 -0.109375 C 1.046875 -0.15625 1.109375 -0.390625 1.140625 -0.546875 L 1.296875 -1.15625 C 1.328125 -1.25 1.390625 -1.515625 1.40625 -1.625 C 1.484375 -1.875 1.484375 -1.890625 1.625 -2.109375 C 1.84375 -2.4375 2.1875 -2.828125 2.71875 -2.828125 C 3.09375 -2.828125 3.125 -2.515625 3.125 -2.359375 C 3.125 -1.9375 2.828125 -1.1875 2.71875 -0.890625 C 2.640625 -0.703125 2.609375 -0.640625 2.609375 -0.515625 C 2.609375 -0.15625 2.921875 0.0625 3.265625 0.0625 C 3.953125 0.0625 4.25 -0.875 4.25 -0.984375 C 4.25 -1.0625 4.15625 -1.0625 4.140625 -1.0625 C 4.046875 -1.0625 4.046875 -1.03125 4.015625 -0.953125 C 3.859375 -0.40625 3.546875 -0.125 3.28125 -0.125 C 3.140625 -0.125 3.109375 -0.21875 3.109375 -0.359375 C 3.109375 -0.515625 3.140625 -0.609375 3.265625 -0.921875 C 3.359375 -1.125 3.640625 -1.859375 3.640625 -2.25 C 3.640625 -2.359375 3.640625 -2.640625 3.375 -2.84375 C 3.265625 -2.921875 3.0625 -3.03125 2.75 -3.03125 C 2.25 -3.03125 1.875 -2.75 1.625 -2.453125 Z M 2.140625 -4.546875 "/></g><g id="2db76039492618ed512a51982e3e6d15poth0e7x__glyph-2-3"><path d="M 3.75 -0.96875 C 4.390625 -1.625 4.640625 -2.53125 4.640625 -2.609375 C 4.640625 -2.703125 4.546875 -2.703125 4.515625 -2.703125 C 4.421875 -2.703125 4.421875 -2.671875 4.375 -2.53125 C 4.25 -2.078125 4.03125 -1.65625 3.734375 -1.28125 C 3.734375 -1.390625 3.71875 -1.84375 3.703125 -1.90625 C 3.59375 -2.59375 3.09375 -3.03125 2.40625 -3.03125 C 1.390625 -3.03125 0.421875 -2.078125 0.421875 -1.125 C 0.421875 -0.5 0.890625 0.0625 1.6875 0.0625 C 2.3125 0.0625 2.875 -0.21875 3.265625 -0.515625 C 3.421875 -0.015625 3.765625 0.0625 3.984375 0.0625 C 4.375 0.0625 4.625 -0.265625 4.625 -0.40625 C 4.625 -0.5 4.546875 -0.5 4.5 -0.5 C 4.421875 -0.5 4.40625 -0.46875 4.390625 -0.421875 C 4.296875 -0.171875 4.078125 -0.125 4 -0.125 C 3.90625 -0.125 3.78125 -0.125 3.75 -0.96875 Z M 3.21875 -0.734375 C 2.546875 -0.1875 1.96875 -0.125 1.703125 -0.125 C 1.25 -0.125 1 -0.421875 1 -0.890625 C 1 -1.078125 1.09375 -1.828125 1.453125 -2.3125 C 1.765625 -2.71875 2.15625 -2.828125 2.390625 -2.828125 C 2.9375 -2.828125 3.09375 -2.3125 3.15625 -1.875 C 3.203125 -1.578125 3.1875 -1.09375 3.21875 -0.734375 Z M 3.21875 -0.734375 "/></g><g id="2db76039492618ed512a51982e3e6d15poth0e7x__glyph-2-4"><path d="M 4.34375 -3.875 C 4.34375 -4.484375 3.828125 -4.828125 3.21875 -4.828125 C 2.28125 -4.828125 1.578125 -3.765625 1.40625 -3.078125 L 0.34375 1.25 C 0.328125 1.296875 0.390625 1.328125 0.4375 1.328125 C 0.5 1.328125 0.546875 1.328125 0.5625 1.28125 L 1.015625 -0.546875 C 1.171875 -0.234375 1.5 0.0625 2.046875 0.0625 C 3.015625 0.0625 4.09375 -0.625 4.09375 -1.6875 C 4.09375 -2.078125 3.90625 -2.5 3.5625 -2.71875 C 3.890625 -2.9375 4.34375 -3.328125 4.34375 -3.875 Z M 2.984375 -2.734375 C 2.875 -2.703125 2.828125 -2.6875 2.640625 -2.6875 C 2.53125 -2.6875 2.359375 -2.6875 2.3125 -2.71875 C 2.375 -2.75 2.578125 -2.765625 2.640625 -2.765625 C 2.734375 -2.765625 2.890625 -2.75 2.984375 -2.734375 Z M 3.890625 -4 C 3.890625 -3.640625 3.703125 -3.109375 3.28125 -2.875 C 3.15625 -2.90625 3.03125 -2.953125 2.640625 -2.953125 C 2.40625 -2.953125 2.0625 -2.9375 2.0625 -2.703125 C 2.0625 -2.53125 2.265625 -2.5 2.625 -2.5 C 2.859375 -2.5 3.0625 -2.53125 3.265625 -2.59375 C 3.484375 -2.453125 3.59375 -2.171875 3.59375 -1.859375 C 3.59375 -0.875 2.90625 -0.125 2.078125 -0.125 C 1.546875 -0.125 1.171875 -0.453125 1.171875 -1 C 1.171875 -1.0625 1.171875 -1.125 1.1875 -1.1875 L 1.640625 -3.015625 C 1.796875 -3.671875 2.40625 -4.640625 3.203125 -4.640625 C 3.609375 -4.640625 3.890625 -4.421875 3.890625 -4 Z M 3.890625 -4 "/></g><g id="2db76039492618ed512a51982e3e6d15poth0e7x__glyph-2-5"><path d="M 3.0625 -0.953125 C 3.03125 -1.359375 2.796875 -3.03125 1.6875 -3.03125 C 1.28125 -3.03125 0.921875 -2.8125 0.734375 -2.625 C 0.3125 -2.25 0.234375 -1.8125 0.234375 -1.796875 C 0.234375 -1.703125 0.328125 -1.703125 0.34375 -1.703125 C 0.4375 -1.703125 0.4375 -1.71875 0.46875 -1.828125 C 0.625 -2.234375 1.125 -2.46875 1.578125 -2.46875 C 2.6875 -2.46875 2.828125 -1.375 2.828125 -0.671875 C 2.828125 -0.328125 2.8125 -0.25 2.78125 -0.171875 C 2.625 0.34375 2.421875 1.09375 2.421875 1.296875 C 2.421875 1.375 2.453125 1.46875 2.53125 1.46875 C 2.59375 1.46875 2.65625 1.46875 2.765625 1.109375 C 2.859375 0.84375 2.984375 0.34375 3.03125 -0.15625 C 3.0625 -0.390625 3.453125 -1.328125 3.59375 -1.65625 C 3.6875 -1.859375 3.828125 -2.1875 4.15625 -2.78125 C 4.171875 -2.8125 4.1875 -2.84375 4.1875 -2.875 C 4.1875 -2.953125 4.109375 -2.953125 4.078125 -2.953125 C 4.0625 -2.953125 4 -2.953125 3.984375 -2.921875 C 3.890625 -2.78125 3.375 -1.796875 3.0625 -0.953125 Z M 3.0625 -0.953125 "/></g><g id="2db76039492618ed512a51982e3e6d15poth0e7x__glyph-2-6"><path d="M 2.03125 -2.984375 C 1 -2.71875 0.421875 -1.84375 0.421875 -1.125 C 0.421875 -0.390625 0.96875 0.078125 1.65625 0.078125 C 2.484375 0.078125 3.125 -0.890625 3.125 -1.890625 C 3.125 -2.5625 2.765625 -2.953125 2.5625 -3.1875 C 2.3125 -3.46875 1.796875 -4.03125 1.796875 -4.34375 C 1.796875 -4.4375 1.890625 -4.640625 2.171875 -4.640625 C 2.40625 -4.640625 2.59375 -4.53125 2.75 -4.4375 C 2.8125 -4.40625 3.046875 -4.265625 3.15625 -4.265625 C 3.3125 -4.265625 3.4375 -4.421875 3.4375 -4.546875 C 3.4375 -4.71875 3.359375 -4.734375 2.984375 -4.8125 C 2.90625 -4.828125 2.59375 -4.890625 2.359375 -4.890625 C 1.859375 -4.890625 1.5625 -4.59375 1.5625 -4.171875 C 1.5625 -3.8125 1.78125 -3.390625 2.03125 -2.984375 Z M 2.140625 -2.796875 C 2.328125 -2.484375 2.578125 -2.09375 2.578125 -1.59375 C 2.578125 -1.03125 2.25 -0.109375 1.671875 -0.109375 C 1.296875 -0.109375 0.921875 -0.359375 0.921875 -0.921875 C 0.921875 -1.375 1.1875 -2.5625 2.140625 -2.796875 Z M 2.140625 -2.796875 "/></g><g id="2db76039492618ed512a51982e3e6d15poth0e7x__glyph-2-7"><path d="M 4.6875 -2.53125 C 4.6875 -2.75 4.59375 -3.03125 4.3125 -3.03125 C 4.15625 -3.03125 3.96875 -2.8125 3.96875 -2.640625 C 3.96875 -2.421875 4.328125 -2.375 4.328125 -1.90625 C 4.328125 -1.46875 3.890625 -0.484375 3.125 -0.484375 C 2.796875 -0.484375 2.53125 -0.703125 2.421875 -1.015625 C 2.515625 -1.15625 2.6875 -1.625 2.6875 -1.8125 C 2.6875 -1.90625 2.625 -2.015625 2.5 -2.015625 C 2.15625 -2.015625 2.125 -1.28125 2.125 -1.03125 C 1.9375 -0.78125 1.59375 -0.484375 1.140625 -0.484375 C 0.78125 -0.484375 0.5 -0.8125 0.5 -1.28125 C 0.5 -2.078125 1.203125 -2.734375 1.203125 -2.84375 C 1.203125 -2.921875 1.140625 -3 1.0625 -3 C 1 -3 0.953125 -2.96875 0.90625 -2.90625 C 0.8125 -2.796875 0.734375 -2.640625 0.640625 -2.515625 C 0.40625 -2.09375 0.234375 -1.515625 0.234375 -1.015625 C 0.234375 -0.46875 0.453125 0.0625 1.078125 0.0625 C 1.546875 0.0625 1.9375 -0.234375 2.1875 -0.609375 C 2.3125 -0.1875 2.625 0.0625 3.0625 0.0625 C 4.265625 0.0625 4.6875 -1.96875 4.6875 -2.53125 Z M 4.6875 -2.53125 "/></g><g id="2db76039492618ed512a51982e3e6d15poth0e7x__glyph-2-8"><path d="M 2.140625 -4.546875 C 2.15625 -4.5625 2.171875 -4.65625 2.171875 -4.671875 C 2.171875 -4.703125 2.140625 -4.765625 2.0625 -4.765625 C 1.921875 -4.765625 1.359375 -4.703125 1.1875 -4.6875 C 1.125 -4.6875 1.03125 -4.671875 1.03125 -4.53125 C 1.03125 -4.4375 1.125 -4.4375 1.21875 -4.4375 C 1.546875 -4.4375 1.546875 -4.390625 1.546875 -4.328125 C 1.546875 -4.28125 1.53125 -4.25 1.515625 -4.1875 L 0.546875 -0.296875 C 0.515625 -0.171875 0.515625 -0.171875 0.515625 -0.15625 C 0.515625 -0.046875 0.59375 0.0625 0.75 0.0625 C 0.9375 0.0625 1.015625 -0.0625 1.0625 -0.21875 C 1.078125 -0.25 1.375 -1.453125 1.40625 -1.546875 C 1.890625 -1.5 2.28125 -1.34375 2.28125 -0.984375 C 2.28125 -0.953125 2.28125 -0.921875 2.265625 -0.84375 C 2.234375 -0.75 2.234375 -0.71875 2.234375 -0.640625 C 2.234375 -0.15625 2.640625 0.0625 2.96875 0.0625 C 3.625 0.0625 3.828125 -0.96875 3.828125 -0.984375 C 3.828125 -1.0625 3.75 -1.0625 3.71875 -1.0625 C 3.625 -1.0625 3.625 -1.03125 3.59375 -0.90625 C 3.5 -0.609375 3.3125 -0.125 2.984375 -0.125 C 2.796875 -0.125 2.75 -0.296875 2.75 -0.484375 C 2.75 -0.59375 2.75 -0.609375 2.78125 -0.78125 C 2.796875 -0.8125 2.8125 -0.921875 2.8125 -1 C 2.8125 -1.609375 2 -1.703125 1.703125 -1.734375 C 1.90625 -1.859375 2.15625 -2.078125 2.28125 -2.1875 C 2.625 -2.515625 2.96875 -2.828125 3.359375 -2.828125 C 3.4375 -2.828125 3.53125 -2.8125 3.578125 -2.75 C 3.28125 -2.703125 3.21875 -2.46875 3.21875 -2.359375 C 3.21875 -2.203125 3.34375 -2.109375 3.5 -2.109375 C 3.6875 -2.109375 3.890625 -2.25 3.890625 -2.546875 C 3.890625 -2.765625 3.71875 -3.03125 3.359375 -3.03125 C 2.96875 -3.03125 2.609375 -2.75 2.265625 -2.421875 C 1.96875 -2.140625 1.75 -1.9375 1.46875 -1.8125 Z M 2.140625 -4.546875 "/></g><g id="2db76039492618ed512a51982e3e6d15poth0e7x__glyph-3-0"><path d="M 1.765625 -2.28125 C 1.765625 -2.28125 1.8125 -2.375 1.8125 -2.453125 C 1.8125 -2.625 1.65625 -2.734375 1.5 -2.734375 C 1.3125 -2.734375 1.25 -2.578125 1.234375 -2.515625 L 0.46875 -0.390625 C 0.453125 -0.328125 0.453125 -0.3125 0.453125 -0.3125 C 0.453125 -0.234375 0.65625 -0.1875 0.671875 -0.1875 C 0.703125 -0.1875 0.71875 -0.203125 0.75 -0.265625 Z M 1.765625 -2.28125 "/></g></g></defs><g fill="rgb(0%, 0%, 0%)" fill-opacity="1"><use xlink:href="#2db76039492618ed512a51982e3e6d15poth0e7x__glyph-0-0" x="38.799832" y="12.94762"/></g><g fill="rgb(0%, 0%, 0%)" fill-opacity="1"><use xlink:href="#2db76039492618ed512a51982e3e6d15poth0e7x__glyph-0-1" x="80.809348" y="12.94762"/></g><g fill="rgb(0%, 0%, 0%)" fill-opacity="1"><use xlink:href="#2db76039492618ed512a51982e3e6d15poth0e7x__glyph-0-2" x="123.392654" y="12.94762"/></g><g fill="rgb(0%, 0%, 0%)" fill-opacity="1"><use xlink:href="#2db76039492618ed512a51982e3e6d15poth0e7x__glyph-0-3" x="165.755877" y="12.94762"/></g><g fill="rgb(0%, 0%, 0%)" fill-opacity="1"><use xlink:href="#2db76039492618ed512a51982e3e6d15poth0e7x__glyph-0-4" x="212.334101" y="12.94762"/></g><g fill="rgb(0%, 0%, 0%)" fill-opacity="1"><use xlink:href="#2db76039492618ed512a51982e3e6d15poth0e7x__glyph-0-0" x="37.427254" y="45.090692"/></g><g fill="rgb(0%, 0%, 0%)" fill-opacity="1"><use xlink:href="#2db76039492618ed512a51982e3e6d15poth0e7x__glyph-1-0" x="44.768628" y="41.53889"/></g><g fill="rgb(0%, 0%, 0%)" fill-opacity="1"><use xlink:href="#2db76039492618ed512a51982e3e6d15poth0e7x__glyph-0-1" x="79.435788" y="45.090692"/></g><g fill="rgb(0%, 0%, 0%)" fill-opacity="1"><use xlink:href="#2db76039492618ed512a51982e3e6d15poth0e7x__glyph-1-0" x="87.351934" y="41.53889"/></g><g fill="rgb(0%, 0%, 0%)" fill-opacity="1"><use xlink:href="#2db76039492618ed512a51982e3e6d15poth0e7x__glyph-0-2" x="122.019094" y="45.090692"/></g><g fill="rgb(0%, 0%, 0%)" fill-opacity="1"><use xlink:href="#2db76039492618ed512a51982e3e6d15poth0e7x__glyph-1-0" x="129.715157" y="41.53889"/></g><g fill="rgb(0%, 0%, 0%)" fill-opacity="1"><use xlink:href="#2db76039492618ed512a51982e3e6d15poth0e7x__glyph-0-3" x="164.382317" y="45.090692"/></g><g fill="rgb(0%, 0%, 0%)" fill-opacity="1"><use xlink:href="#2db76039492618ed512a51982e3e6d15poth0e7x__glyph-1-0" x="172.758281" y="41.53889"/></g><g fill="rgb(0%, 0%, 0%)" fill-opacity="1"><use xlink:href="#2db76039492618ed512a51982e3e6d15poth0e7x__glyph-0-4" x="207.426424" y="45.090692"/></g><g fill="rgb(0%, 0%, 0%)" fill-opacity="1"><use xlink:href="#2db76039492618ed512a51982e3e6d15poth0e7x__glyph-1-0" x="215.215826" y="41.53889"/></g><g fill="rgb(0%, 0%, 0%)" fill-opacity="1"><use xlink:href="#2db76039492618ed512a51982e3e6d15poth0e7x__glyph-0-5" x="217.961963" y="45.090692"/></g><g fill="rgb(0%, 0%, 0%)" fill-opacity="1"><use xlink:href="#2db76039492618ed512a51982e3e6d15poth0e7x__glyph-0-5" x="222.315858" y="45.090692"/></g><path fill="none" stroke="rgb(0%, 0%, 0%)" stroke-linecap="butt" stroke-linejoin="miter" stroke-miterlimit="10" stroke-opacity="1" stroke-width="0.39848" d="M -82.113963 16.413171 L -56.20397 16.413171 " transform="matrix(0.982518, 0, 0, -0.982518, 131.229217, 26.626234)"/><path fill="none" stroke="rgb(0%, 0%, 0%)" stroke-linecap="round" stroke-linejoin="round" stroke-miterlimit="10" stroke-opacity="1" stroke-width="0.39848" d="M -2.07039 2.38971 C -1.692694 0.954462 -0.849834 0.278584 0.000977742 0.000281335 C -0.849834 -0.278021 -1.692694 -0.957876 -2.07039 -2.389147 " transform="matrix(0.982518, 0, 0, -0.982518, 76.202164, 10.500276)"/><g fill="rgb(0%, 0%, 0%)" fill-opacity="1"><use xlink:href="#2db76039492618ed512a51982e3e6d15poth0e7x__glyph-2-0" x="61.182571" y="6.865835"/></g><path fill="none" stroke="rgb(0%, 0%, 0%)" stroke-linecap="butt" stroke-linejoin="miter" stroke-miterlimit="10" stroke-opacity="1" stroke-width="0.39848" d="M -38.774261 16.413171 L -12.864268 16.413171 " transform="matrix(0.982518, 0, 0, -0.982518, 131.229217, 26.626234)"/><path fill="none" stroke="rgb(0%, 0%, 0%)" stroke-linecap="round" stroke-linejoin="round" stroke-miterlimit="10" stroke-opacity="1" stroke-width="0.39848" d="M -2.072118 2.38971 C -1.694422 0.954462 -0.851562 0.278584 -0.000750144 0.000281335 C -0.851562 -0.278021 -1.694422 -0.957876 -2.072118 -2.389147 " transform="matrix(0.982518, 0, 0, -0.982518, 118.785893, 10.500276)"/><g fill="rgb(0%, 0%, 0%)" fill-opacity="1"><use xlink:href="#2db76039492618ed512a51982e3e6d15poth0e7x__glyph-2-1" x="104.026245" y="6.865835"/></g><path fill="none" stroke="rgb(0%, 0%, 0%)" stroke-linecap="butt" stroke-linejoin="miter" stroke-miterlimit="10" stroke-opacity="1" stroke-width="0.39848" d="M 4.346774 16.413171 L 30.252792 16.413171 " transform="matrix(0.982518, 0, 0, -0.982518, 131.229217, 26.626234)"/><path fill="none" stroke="rgb(0%, 0%, 0%)" stroke-linecap="round" stroke-linejoin="round" stroke-miterlimit="10" stroke-opacity="1" stroke-width="0.39848" d="M -2.072988 2.38971 C -1.695292 0.954462 -0.848456 0.278584 -0.00162029 0.000281335 C -0.848456 -0.278021 -1.695292 -0.957876 -2.072988 -2.389147 " transform="matrix(0.982518, 0, 0, -0.982518, 161.150029, 10.500276)"/><g fill="rgb(0%, 0%, 0%)" fill-opacity="1"><use xlink:href="#2db76039492618ed512a51982e3e6d15poth0e7x__glyph-2-2" x="146.131065" y="8.198129"/></g><path fill="none" stroke="rgb(0%, 0%, 0%)" stroke-linecap="butt" stroke-linejoin="miter" stroke-miterlimit="10" stroke-opacity="1" stroke-width="0.39848" d="M -80.718474 -16.303314 L -57.603436 -16.303314 " transform="matrix(0.982518, 0, 0, -0.982518, 131.229217, 26.626234)"/><path fill="none" stroke="rgb(0%, 0%, 0%)" stroke-linecap="round" stroke-linejoin="round" stroke-miterlimit="10" stroke-opacity="1" stroke-width="0.39848" d="M -2.072286 2.39226 C -1.694589 0.957013 -0.851729 0.277159 -0.000917916 -0.00114419 C -0.851729 -0.279447 -1.694589 -0.955325 -2.072286 -2.390573 " transform="matrix(0.982518, 0, 0, -0.982518, 74.829027, 42.643407)"/><g fill="rgb(0%, 0%, 0%)" fill-opacity="1"><use xlink:href="#2db76039492618ed512a51982e3e6d15poth0e7x__glyph-2-0" x="59.85912" y="50.61932"/></g><g fill="rgb(0%, 0%, 0%)" fill-opacity="1"><use xlink:href="#2db76039492618ed512a51982e3e6d15poth0e7x__glyph-3-0" x="64.443548" y="47.665871"/></g><path fill="none" stroke="rgb(0%, 0%, 0%)" stroke-linecap="butt" stroke-linejoin="miter" stroke-miterlimit="10" stroke-opacity="1" stroke-width="0.39848" d="M -37.374796 -16.303314 L -14.259758 -16.303314 " transform="matrix(0.982518, 0, 0, -0.982518, 131.229217, 26.626234)"/><path fill="none" stroke="rgb(0%, 0%, 0%)" stroke-linecap="round" stroke-linejoin="round" stroke-miterlimit="10" stroke-opacity="1" stroke-width="0.39848" d="M -2.074044 2.39226 C -1.692372 0.957013 -0.849512 0.277159 0.00129995 -0.00114419 C -0.849512 -0.279447 -1.692372 -0.955325 -2.074044 -2.390573 " transform="matrix(0.982518, 0, 0, -0.982518, 117.412785, 42.643407)"/><g fill="rgb(0%, 0%, 0%)" fill-opacity="1"><use xlink:href="#2db76039492618ed512a51982e3e6d15poth0e7x__glyph-2-1" x="102.702793" y="50.61932"/></g><g fill="rgb(0%, 0%, 0%)" fill-opacity="1"><use xlink:href="#2db76039492618ed512a51982e3e6d15poth0e7x__glyph-3-0" x="106.766487" y="47.665871"/></g><path fill="none" stroke="rgb(0%, 0%, 0%)" stroke-linecap="butt" stroke-linejoin="miter" stroke-miterlimit="10" stroke-opacity="1" stroke-width="0.39848" d="M 5.742264 -16.303314 L 28.857302 -16.303314 " transform="matrix(0.982518, 0, 0, -0.982518, 131.229217, 26.626234)"/><path fill="none" stroke="rgb(0%, 0%, 0%)" stroke-linecap="round" stroke-linejoin="round" stroke-miterlimit="10" stroke-opacity="1" stroke-width="0.39848" d="M -2.070928 2.39226 C -1.693232 0.957013 -0.850372 0.277159 0.000439802 -0.00114419 C -0.850372 -0.279447 -1.693232 -0.955325 -2.070928 -2.390573 " transform="matrix(0.982518, 0, 0, -0.982518, 159.776912, 42.643407)"/><g fill="rgb(0%, 0%, 0%)" fill-opacity="1"><use xlink:href="#2db76039492618ed512a51982e3e6d15poth0e7x__glyph-2-2" x="144.806631" y="50.61932"/></g><g fill="rgb(0%, 0%, 0%)" fill-opacity="1"><use xlink:href="#2db76039492618ed512a51982e3e6d15poth0e7x__glyph-3-0" x="149.389094" y="47.665871"/></g><path fill="none" stroke="rgb(0%, 0%, 0%)" stroke-linecap="butt" stroke-linejoin="miter" stroke-miterlimit="10" stroke-opacity="1" stroke-width="0.39848" d="M -90.3398 10.075818 L -90.3398 -7.059684 " transform="matrix(0.982518, 0, 0, -0.982518, 131.229217, 26.626234)"/><path fill="none" stroke="rgb(0%, 0%, 0%)" stroke-linecap="round" stroke-linejoin="round" stroke-miterlimit="10" stroke-opacity="1" stroke-width="0.39848" d="M -2.071336 2.392564 C -1.693639 0.957317 -0.850779 0.277463 0.0000322197 -0.000839949 C -0.850779 -0.279143 -1.693639 -0.955021 -2.071336 -2.390269 " transform="matrix(0, 0.982518, 0.982518, 0, 42.469575, 33.757781)"/><g fill="rgb(0%, 0%, 0%)" fill-opacity="1"><use xlink:href="#2db76039492618ed512a51982e3e6d15poth0e7x__glyph-2-3" x="35.079037" y="26.814877"/></g><path fill="none" stroke="rgb(0%, 0%, 0%)" stroke-linecap="butt" stroke-linejoin="miter" stroke-miterlimit="10" stroke-opacity="1" stroke-width="0.39848" d="M -47.290328 10.075818 L -47.290328 -7.059684 " transform="matrix(0.982518, 0, 0, -0.982518, 131.229217, 26.626234)"/><path fill="none" stroke="rgb(0%, 0%, 0%)" stroke-linecap="round" stroke-linejoin="round" stroke-miterlimit="10" stroke-opacity="1" stroke-width="0.39848" d="M -2.071336 2.388931 C -1.693639 0.957659 -0.850779 0.277805 0.0000322197 -0.000497929 C -0.850779 -0.278801 -1.693639 -0.954679 -2.071336 -2.389927 " transform="matrix(0, 0.982518, 0.982518, 0, 84.766114, 33.757781)"/><g fill="rgb(0%, 0%, 0%)" fill-opacity="1"><use xlink:href="#2db76039492618ed512a51982e3e6d15poth0e7x__glyph-2-4" x="87.069952" y="27.052647"/></g><path fill="none" stroke="rgb(0%, 0%, 0%)" stroke-linecap="butt" stroke-linejoin="miter" stroke-miterlimit="10" stroke-opacity="1" stroke-width="0.39848" d="M -4.061947 10.075818 L -4.061947 -7.059684 " transform="matrix(0.982518, 0, 0, -0.982518, 131.229217, 26.626234)"/><path fill="none" stroke="rgb(0%, 0%, 0%)" stroke-linecap="round" stroke-linejoin="round" stroke-miterlimit="10" stroke-opacity="1" stroke-width="0.39848" d="M -2.071336 2.391577 C -1.693639 0.95633 -0.850779 0.280452 0.0000322197 -0.00182695 C -0.850779 -0.28013 -1.693639 -0.956008 -2.071336 -2.391256 " transform="matrix(0, 0.982518, 0.982518, 0, 127.240076, 33.757781)"/><g fill="rgb(0%, 0%, 0%)" fill-opacity="1"><use xlink:href="#2db76039492618ed512a51982e3e6d15poth0e7x__glyph-2-5" x="129.543216" y="26.14873"/></g><path fill="none" stroke="rgb(0%, 0%, 0%)" stroke-linecap="butt" stroke-linejoin="miter" stroke-miterlimit="10" stroke-opacity="1" stroke-width="0.39848" d="M 39.404979 10.075818 L 39.404979 -7.059684 " transform="matrix(0.982518, 0, 0, -0.982518, 131.229217, 26.626234)"/><path fill="none" stroke="rgb(0%, 0%, 0%)" stroke-linecap="round" stroke-linejoin="round" stroke-miterlimit="10" stroke-opacity="1" stroke-width="0.39848" d="M -2.071336 2.390658 C -1.693639 0.95541 -0.850779 0.279532 0.0000322197 0.00122932 C -0.850779 -0.277074 -1.693639 -0.956928 -2.071336 -2.392175 " transform="matrix(0, 0.982518, 0.982518, 0, 169.944105, 33.757781)"/><g fill="rgb(0%, 0%, 0%)" fill-opacity="1"><use xlink:href="#2db76039492618ed512a51982e3e6d15poth0e7x__glyph-2-6" x="172.24639" y="27.718794"/></g><path fill="none" stroke="rgb(0%, 0%, 0%)" stroke-linecap="butt" stroke-linejoin="miter" stroke-miterlimit="10" stroke-opacity="1" stroke-width="0.39848" d="M 86.513697 10.075818 L 86.513697 -7.059684 " transform="matrix(0.982518, 0, 0, -0.982518, 131.229217, 26.626234)"/><path fill="none" stroke="rgb(0%, 0%, 0%)" stroke-linecap="round" stroke-linejoin="round" stroke-miterlimit="10" stroke-opacity="1" stroke-width="0.39848" d="M -2.071336 2.390105 C -1.693639 0.954858 -0.850779 0.27898 0.0000322197 0.000676898 C -0.850779 -0.277626 -1.693639 -0.95748 -2.071336 -2.392727 " transform="matrix(0, 0.982518, 0.982518, 0, 216.229804, 33.757781)"/><g fill="rgb(0%, 0%, 0%)" fill-opacity="1"><use xlink:href="#2db76039492618ed512a51982e3e6d15poth0e7x__glyph-2-7" x="218.531823" y="26.814877"/></g><path fill="none" stroke="rgb(0%, 0%, 0%)" stroke-linecap="butt" stroke-linejoin="miter" stroke-miterlimit="10" stroke-opacity="1" stroke-width="0.39848" d="M 48.155615 16.413171 L 77.659691 16.413171 " transform="matrix(0.982518, 0, 0, -0.982518, 131.229217, 26.626234)"/><path fill="none" stroke="rgb(0%, 0%, 0%)" stroke-linecap="round" stroke-linejoin="round" stroke-miterlimit="10" stroke-opacity="1" stroke-width="0.39848" d="M -2.073559 2.38971 C -1.691887 0.954462 -0.849027 0.278584 0.00178464 0.000281335 C -0.849027 -0.278021 -1.691887 -0.957876 -2.073559 -2.389147 " transform="matrix(0.982518, 0, 0, -0.982518, 207.728715, 10.500276)"/><g fill="rgb(0%, 0%, 0%)" fill-opacity="1"><use xlink:href="#2db76039492618ed512a51982e3e6d15poth0e7x__glyph-2-8" x="191.069467" y="8.198129"/></g><path fill="none" stroke="rgb(0%, 0%, 0%)" stroke-linecap="butt" stroke-linejoin="miter" stroke-miterlimit="10" stroke-opacity="1" stroke-width="0.39848" d="M 49.551105 -16.303314 L 72.666143 -16.303314 " transform="matrix(0.982518, 0, 0, -0.982518, 131.229217, 26.626234)"/><path fill="none" stroke="rgb(0%, 0%, 0%)" stroke-linecap="round" stroke-linejoin="round" stroke-miterlimit="10" stroke-opacity="1" stroke-width="0.39848" d="M -2.071917 2.39226 C -1.694221 0.957013 -0.851361 0.277159 -0.000549028 -0.00114419 C -0.851361 -0.279447 -1.694221 -0.955325 -2.071917 -2.390573 " transform="matrix(0.982518, 0, 0, -0.982518, 202.820852, 42.643407)"/><g fill="rgb(0%, 0%, 0%)" fill-opacity="1"><use xlink:href="#2db76039492618ed512a51982e3e6d15poth0e7x__glyph-2-8" x="187.978466" y="50.61932"/></g><g fill="rgb(0%, 0%, 0%)" fill-opacity="1"><use xlink:href="#2db76039492618ed512a51982e3e6d15poth0e7x__glyph-3-0" x="192.304492" y="47.665871"/></g></svg>