<?xml version="1.0" encoding="UTF-8"?><svg xmlns="http://www.w3.org/2000/svg" xmlns:xlink="http://www.w3.org/1999/xlink" width="343.711" height="73.129" viewBox="0 0 343.711 73.129"><defs><g><g id="cb76f184f1336394a87fa440a126aaa9xshawnrq__glyph-0-0"><path d="M 1.890625 -2.46875 C 1.890625 -2.75 1.65625 -2.984375 1.375 -2.984375 C 1.078125 -2.984375 0.84375 -2.75 0.84375 -2.46875 C 0.84375 -2.171875 1.078125 -1.9375 1.375 -1.9375 C 1.65625 -1.9375 1.890625 -2.171875 1.890625 -2.46875 Z M 1.890625 -2.46875 "/></g><g id="cb76f184f1336394a87fa440a126aaa9xshawnrq__glyph-0-1"><path d="M 1.5625 -7.03125 C 1.5625 -7.203125 1.5625 -7.390625 1.375 -7.390625 C 1.171875 -7.390625 1.171875 -7.203125 1.171875 -7.03125 L 1.171875 2.109375 C 1.171875 2.28125 1.171875 2.46875 1.375 2.46875 C 1.5625 2.46875 1.5625 2.28125 1.5625 2.109375 Z M 1.5625 -7.03125 "/></g><g id="cb76f184f1336394a87fa440a126aaa9xshawnrq__glyph-0-2"><path d="M 4.375 -2.46875 C 4.375 -3.515625 3.5 -4.375 2.46875 -4.375 C 1.390625 -4.375 0.546875 -3.5 0.546875 -2.46875 C 0.546875 -1.421875 1.390625 -0.546875 2.46875 -0.546875 C 3.5 -0.546875 4.375 -1.40625 4.375 -2.46875 Z M 4.375 -2.46875 "/></g></g></defs><g fill="rgb(0%, 0%, 0%)" fill-opacity="1"><use xlink:href="#cb76f184f1336394a87fa440a126aaa9xshawnrq__glyph-0-0" x="220.420074" y="8.963244"/></g><g fill="rgb(0%, 0%, 0%)" fill-opacity="1"><use xlink:href="#cb76f184f1336394a87fa440a126aaa9xshawnrq__glyph-0-0" x="224.79928" y="8.963244"/></g><g fill="rgb(0%, 0%, 0%)" fill-opacity="1"><use xlink:href="#cb76f184f1336394a87fa440a126aaa9xshawnrq__glyph-0-0" x="229.168641" y="8.963244"/></g><g fill="rgb(0%, 0%, 0%)" fill-opacity="1"><use xlink:href="#cb76f184f1336394a87fa440a126aaa9xshawnrq__glyph-0-1" x="79.412538" y="41.275391"/></g><g fill="rgb(0%, 0%, 0%)" fill-opacity="1"><use xlink:href="#cb76f184f1336394a87fa440a126aaa9xshawnrq__glyph-0-2" x="114.254554" y="41.275391"/></g><g fill="rgb(0%, 0%, 0%)" fill-opacity="1"><use xlink:href="#cb76f184f1336394a87fa440a126aaa9xshawnrq__glyph-0-2" x="151.283522" y="41.275391"/></g><g fill="rgb(0%, 0%, 0%)" fill-opacity="1"><use xlink:href="#cb76f184f1336394a87fa440a126aaa9xshawnrq__glyph-0-2" x="223.701985" y="41.275391"/></g><path fill="none" stroke="rgb(0%, 0%, 0%)" stroke-linecap="butt" stroke-linejoin="miter" stroke-miterlimit="10" stroke-opacity="1" stroke-width="0.39848" d="M -18.181098 24.149283 L -18.181098 3.567183 " transform="matrix(0.98823, 0, 0, -0.98823, 171.713195, 36.626758)"/><path fill="none" stroke="rgb(0%, 0%, 0%)" stroke-linecap="butt" stroke-linejoin="miter" stroke-miterlimit="10" stroke-opacity="1" stroke-width="0.39848" d="M 21.287363 26.65139 L 48.328298 3.567183 " transform="matrix(0.98823, 0, 0, -0.98823, 171.713195, 36.626758)"/><path fill="none" stroke="rgb(0%, 0%, 0%)" stroke-linecap="butt" stroke-linejoin="miter" stroke-miterlimit="10" stroke-opacity="1" stroke-width="0.39848" d="M 88.911442 26.65139 L 61.870506 3.567183 " transform="matrix(0.98823, 0, 0, -0.98823, 171.713195, 36.626758)"/><path fill="none" stroke="rgb(0%, 0%, 0%)" stroke-linecap="butt" stroke-linejoin="miter" stroke-miterlimit="10" stroke-opacity="1" stroke-width="0.39848" d="M -55.653407 -8.548073 L -55.653407 -28.576786 " transform="matrix(0.98823, 0, 0, -0.98823, 171.713195, 36.626758)"/><path fill="none" stroke="rgb(0%, 0%, 0%)" stroke-linecap="butt" stroke-linejoin="miter" stroke-miterlimit="10" stroke-opacity="1" stroke-width="0.39848" d="M -18.181098 -8.548073 L -18.181098 -28.576786 " transform="matrix(0.98823, 0, 0, -0.98823, 171.713195, 36.626758)"/><path fill="none" stroke="rgb(0%, 0%, 0%)" stroke-linecap="butt" stroke-linejoin="miter" stroke-miterlimit="10" stroke-opacity="1" stroke-width="0.39848" d="M 55.099402 -8.548073 L 55.099402 -28.576786 " transform="matrix(0.98823, 0, 0, -0.98823, 171.713195, 36.626758)"/></svg>