<?xml version="1.0" encoding="UTF-8"?><svg xmlns="http://www.w3.org/2000/svg" xmlns:xlink="http://www.w3.org/1999/xlink" width="746.789" height="146.382" viewBox="0 0 746.789 146.382"><defs><g><g id="8c96253cdfb6366c89d9e572a440932epapgc5cx__glyph-0-0"><path d="M 4.5625 -3.171875 C 4.5625 -3.96875 4.515625 -4.765625 4.171875 -5.5 C 3.703125 -6.453125 2.890625 -6.609375 2.484375 -6.609375 C 1.890625 -6.609375 1.15625 -6.34375 0.75 -5.421875 C 0.4375 -4.75 0.390625 -3.96875 0.390625 -3.171875 C 0.390625 -2.4375 0.421875 -1.53125 0.828125 -0.78125 C 1.265625 0.015625 1.984375 0.21875 2.46875 0.21875 C 3 0.21875 3.765625 0.015625 4.203125 -0.9375 C 4.515625 -1.625 4.5625 -2.390625 4.5625 -3.171875 Z M 2.46875 0 C 2.078125 0 1.5 -0.25 1.3125 -1.203125 C 1.203125 -1.796875 1.203125 -2.703125 1.203125 -3.296875 C 1.203125 -3.921875 1.203125 -4.578125 1.296875 -5.125 C 1.484375 -6.296875 2.21875 -6.390625 2.46875 -6.390625 C 2.796875 -6.390625 3.453125 -6.21875 3.640625 -5.234375 C 3.734375 -4.671875 3.734375 -3.921875 3.734375 -3.296875 C 3.734375 -2.546875 3.734375 -1.875 3.625 -1.234375 C 3.484375 -0.296875 2.921875 0 2.46875 0 Z M 2.46875 0 "/></g><g id="8c96253cdfb6366c89d9e572a440932epapgc5cx__glyph-0-1"><path d="M 1.046875 -0.75 C 1.046875 -0.3125 0.9375 -0.3125 0.28125 -0.3125 L 0.28125 0 C 0.609375 -0.015625 1.078125 -0.03125 1.359375 -0.03125 C 1.65625 -0.03125 2.046875 -0.015625 2.453125 0 L 2.453125 -0.3125 C 1.78125 -0.3125 1.671875 -0.3125 1.671875 -0.75 L 1.671875 -1.78125 L 2.3125 -2.328125 C 3.078125 -1.265625 3.5 -0.71875 3.5 -0.53125 C 3.5 -0.34375 3.328125 -0.3125 3.140625 -0.3125 L 3.140625 0 C 3.40625 -0.015625 4 -0.03125 4.203125 -0.03125 C 4.5 -0.03125 4.78125 -0.015625 5.0625 0 L 5.0625 -0.3125 C 4.703125 -0.3125 4.484375 -0.3125 4.109375 -0.828125 L 2.84375 -2.609375 C 2.84375 -2.625 2.78125 -2.6875 2.78125 -2.71875 C 2.78125 -2.765625 3.5 -3.359375 3.59375 -3.4375 C 4.21875 -3.9375 4.640625 -3.953125 4.84375 -3.96875 L 4.84375 -4.28125 C 4.546875 -4.25 4.421875 -4.25 4.140625 -4.25 C 3.796875 -4.25 3.171875 -4.265625 3.03125 -4.28125 L 3.03125 -3.96875 C 3.21875 -3.953125 3.328125 -3.84375 3.328125 -3.71875 C 3.328125 -3.515625 3.1875 -3.40625 3.109375 -3.328125 L 1.703125 -2.125 L 1.703125 -6.890625 L 0.28125 -6.78125 L 0.28125 -6.46875 C 0.96875 -6.46875 1.046875 -6.40625 1.046875 -5.90625 Z M 1.046875 -0.75 "/></g><g id="8c96253cdfb6366c89d9e572a440932epapgc5cx__glyph-0-2"><path d="M 1.109375 -2.5 C 1.171875 -3.984375 2 -4.234375 2.34375 -4.234375 C 3.359375 -4.234375 3.46875 -2.890625 3.46875 -2.5 Z M 1.09375 -2.296875 L 3.875 -2.296875 C 4.09375 -2.296875 4.125 -2.296875 4.125 -2.5 C 4.125 -3.484375 3.578125 -4.4375 2.34375 -4.4375 C 1.1875 -4.4375 0.28125 -3.421875 0.28125 -2.1875 C 0.28125 -0.859375 1.3125 0.109375 2.453125 0.109375 C 3.671875 0.109375 4.125 -0.984375 4.125 -1.1875 C 4.125 -1.28125 4.03125 -1.296875 3.984375 -1.296875 C 3.90625 -1.296875 3.875 -1.234375 3.859375 -1.15625 C 3.515625 -0.140625 2.625 -0.140625 2.515625 -0.140625 C 2.03125 -0.140625 1.625 -0.4375 1.40625 -0.796875 C 1.09375 -1.28125 1.09375 -1.9375 1.09375 -2.296875 Z M 1.09375 -2.296875 "/></g><g id="8c96253cdfb6366c89d9e572a440932epapgc5cx__glyph-0-3"><path d="M 1.65625 -3.296875 L 1.65625 -4.390625 L 0.28125 -4.28125 L 0.28125 -3.96875 C 0.96875 -3.96875 1.046875 -3.90625 1.046875 -3.40625 L 1.046875 -0.75 C 1.046875 -0.3125 0.9375 -0.3125 0.28125 -0.3125 L 0.28125 0 C 0.671875 -0.015625 1.125 -0.03125 1.40625 -0.03125 C 1.8125 -0.03125 2.265625 -0.03125 2.671875 0 L 2.671875 -0.3125 L 2.453125 -0.3125 C 1.71875 -0.3125 1.703125 -0.421875 1.703125 -0.78125 L 1.703125 -2.296875 C 1.703125 -3.28125 2.125 -4.171875 2.875 -4.171875 C 2.953125 -4.171875 2.96875 -4.171875 2.984375 -4.15625 C 2.953125 -4.140625 2.765625 -4.03125 2.765625 -3.765625 C 2.765625 -3.5 2.96875 -3.34375 3.1875 -3.34375 C 3.359375 -3.34375 3.609375 -3.46875 3.609375 -3.78125 C 3.609375 -4.09375 3.296875 -4.390625 2.875 -4.390625 C 2.15625 -4.390625 1.796875 -3.71875 1.65625 -3.296875 Z M 1.65625 -3.296875 "/></g><g id="8c96253cdfb6366c89d9e572a440932epapgc5cx__glyph-0-4"><path d="M 1.75 -4.390625 L 0.359375 -4.28125 L 0.359375 -3.96875 C 1.015625 -3.96875 1.09375 -3.90625 1.09375 -3.421875 L 1.09375 -0.75 C 1.09375 -0.3125 0.984375 -0.3125 0.328125 -0.3125 L 0.328125 0 C 0.640625 -0.015625 1.1875 -0.03125 1.421875 -0.03125 C 1.765625 -0.03125 2.109375 -0.015625 2.453125 0 L 2.453125 -0.3125 C 1.796875 -0.3125 1.75 -0.359375 1.75 -0.75 Z M 1.796875 -6.109375 C 1.796875 -6.421875 1.546875 -6.640625 1.265625 -6.640625 C 0.96875 -6.640625 0.75 -6.375 0.75 -6.109375 C 0.75 -5.84375 0.96875 -5.59375 1.265625 -5.59375 C 1.546875 -5.59375 1.796875 -5.796875 1.796875 -6.109375 Z M 1.796875 -6.109375 "/></g><g id="8c96253cdfb6366c89d9e572a440932epapgc5cx__glyph-0-5"><path d="M 1.09375 -3.40625 L 1.09375 -0.75 C 1.09375 -0.3125 0.984375 -0.3125 0.3125 -0.3125 L 0.3125 0 C 0.671875 -0.015625 1.171875 -0.03125 1.4375 -0.03125 C 1.703125 -0.03125 2.21875 -0.015625 2.546875 0 L 2.546875 -0.3125 C 1.890625 -0.3125 1.78125 -0.3125 1.78125 -0.75 L 1.78125 -2.578125 C 1.78125 -3.609375 2.484375 -4.171875 3.109375 -4.171875 C 3.734375 -4.171875 3.84375 -3.625 3.84375 -3.0625 L 3.84375 -0.75 C 3.84375 -0.3125 3.734375 -0.3125 3.078125 -0.3125 L 3.078125 0 C 3.421875 -0.015625 3.921875 -0.03125 4.203125 -0.03125 C 4.453125 -0.03125 4.96875 -0.015625 5.3125 0 L 5.3125 -0.3125 C 4.640625 -0.3125 4.53125 -0.3125 4.53125 -0.75 L 4.53125 -2.578125 C 4.53125 -3.609375 5.234375 -4.171875 5.875 -4.171875 C 6.5 -4.171875 6.609375 -3.625 6.609375 -3.0625 L 6.609375 -0.75 C 6.609375 -0.3125 6.5 -0.3125 5.828125 -0.3125 L 5.828125 0 C 6.1875 -0.015625 6.6875 -0.03125 6.953125 -0.03125 C 7.21875 -0.03125 7.734375 -0.015625 8.0625 0 L 8.0625 -0.3125 C 7.546875 -0.3125 7.296875 -0.3125 7.296875 -0.609375 L 7.296875 -2.5 C 7.296875 -3.359375 7.296875 -3.65625 6.984375 -4.015625 C 6.84375 -4.1875 6.515625 -4.390625 5.9375 -4.390625 C 5.109375 -4.390625 4.671875 -3.796875 4.5 -3.40625 C 4.359375 -4.28125 3.625 -4.390625 3.1875 -4.390625 C 2.453125 -4.390625 2 -3.953125 1.71875 -3.34375 L 1.71875 -4.390625 L 0.3125 -4.28125 L 0.3125 -3.96875 C 1.015625 -3.96875 1.09375 -3.90625 1.09375 -3.40625 Z M 1.09375 -3.40625 "/></g><g id="8c96253cdfb6366c89d9e572a440932epapgc5cx__glyph-1-0"><path d="M 5.125 -6.78125 C 5.125 -6.78125 5.125 -6.890625 4.984375 -6.890625 C 4.84375 -6.890625 3.90625 -6.796875 3.734375 -6.78125 C 3.65625 -6.765625 3.59375 -6.71875 3.59375 -6.59375 C 3.59375 -6.46875 3.6875 -6.46875 3.828125 -6.46875 C 4.3125 -6.46875 4.328125 -6.40625 4.328125 -6.296875 L 4.296875 -6.109375 L 3.703125 -3.75 C 3.515625 -4.125 3.234375 -4.390625 2.78125 -4.390625 C 1.625 -4.390625 0.390625 -2.921875 0.390625 -1.484375 C 0.390625 -0.546875 0.9375 0.109375 1.71875 0.109375 C 1.921875 0.109375 2.40625 0.0625 3 -0.640625 C 3.078125 -0.21875 3.4375 0.109375 3.90625 0.109375 C 4.25 0.109375 4.484375 -0.125 4.640625 -0.4375 C 4.8125 -0.796875 4.9375 -1.40625 4.9375 -1.421875 C 4.9375 -1.515625 4.859375 -1.515625 4.828125 -1.515625 C 4.71875 -1.515625 4.71875 -1.484375 4.6875 -1.34375 C 4.515625 -0.6875 4.328125 -0.109375 3.921875 -0.109375 C 3.65625 -0.109375 3.625 -0.359375 3.625 -0.5625 C 3.625 -0.796875 3.65625 -0.875 3.6875 -1.046875 Z M 3.0625 -1.1875 C 3 -1 3 -0.984375 2.859375 -0.8125 C 2.421875 -0.265625 2.015625 -0.109375 1.734375 -0.109375 C 1.234375 -0.109375 1.09375 -0.65625 1.09375 -1.046875 C 1.09375 -1.53125 1.421875 -2.765625 1.640625 -3.21875 C 1.953125 -3.796875 2.40625 -4.171875 2.796875 -4.171875 C 3.4375 -4.171875 3.578125 -3.359375 3.578125 -3.296875 C 3.578125 -3.234375 3.5625 -3.171875 3.546875 -3.125 Z M 3.0625 -1.1875 "/></g><g id="8c96253cdfb6366c89d9e572a440932epapgc5cx__glyph-2-0"><path d="M 0.84375 -0.4375 C 0.8125 -0.34375 0.78125 -0.171875 0.78125 -0.15625 C 0.78125 0 0.90625 0.0625 1.015625 0.0625 C 1.140625 0.0625 1.25 -0.015625 1.28125 -0.078125 C 1.3125 -0.140625 1.375 -0.375 1.40625 -0.515625 C 1.4375 -0.640625 1.515625 -0.96875 1.5625 -1.140625 C 1.609375 -1.296875 1.640625 -1.4375 1.671875 -1.609375 C 1.75 -1.890625 1.765625 -1.9375 1.96875 -2.234375 C 2.171875 -2.5 2.484375 -2.859375 3.015625 -2.859375 C 3.40625 -2.859375 3.421875 -2.515625 3.421875 -2.375 C 3.421875 -1.96875 3.125 -1.1875 3.015625 -0.90625 C 2.9375 -0.703125 2.90625 -0.640625 2.90625 -0.53125 C 2.90625 -0.15625 3.21875 0.0625 3.5625 0.0625 C 4.265625 0.0625 4.5625 -0.890625 4.5625 -0.984375 C 4.5625 -1.078125 4.46875 -1.078125 4.453125 -1.078125 C 4.359375 -1.078125 4.34375 -1.046875 4.328125 -0.96875 C 4.15625 -0.40625 3.859375 -0.125 3.59375 -0.125 C 3.4375 -0.125 3.40625 -0.21875 3.40625 -0.375 C 3.40625 -0.53125 3.453125 -0.625 3.578125 -0.921875 C 3.65625 -1.140625 3.9375 -1.875 3.9375 -2.265625 C 3.9375 -2.9375 3.40625 -3.0625 3.03125 -3.0625 C 2.46875 -3.0625 2.078125 -2.703125 1.859375 -2.421875 C 1.8125 -2.90625 1.40625 -3.0625 1.125 -3.0625 C 0.828125 -3.0625 0.671875 -2.84375 0.578125 -2.6875 C 0.421875 -2.421875 0.328125 -2.03125 0.328125 -2 C 0.328125 -1.90625 0.421875 -1.90625 0.4375 -1.90625 C 0.546875 -1.90625 0.546875 -1.921875 0.59375 -2.109375 C 0.703125 -2.53125 0.828125 -2.859375 1.109375 -2.859375 C 1.28125 -2.859375 1.328125 -2.71875 1.328125 -2.53125 C 1.328125 -2.390625 1.265625 -2.140625 1.21875 -1.953125 C 1.171875 -1.765625 1.109375 -1.484375 1.0625 -1.328125 Z M 0.84375 -0.4375 "/></g><g id="8c96253cdfb6366c89d9e572a440932epapgc5cx__glyph-2-1"><path d="M 1.625 -1.40625 C 1.640625 -1.4375 1.796875 -2.0625 1.8125 -2.109375 C 1.828125 -2.15625 2.03125 -2.5 2.25 -2.671875 C 2.328125 -2.71875 2.515625 -2.859375 2.8125 -2.859375 C 2.875 -2.859375 3.046875 -2.859375 3.1875 -2.765625 C 2.96875 -2.703125 2.890625 -2.515625 2.890625 -2.390625 C 2.890625 -2.234375 3 -2.125 3.15625 -2.125 C 3.328125 -2.125 3.546875 -2.265625 3.546875 -2.546875 C 3.546875 -2.90625 3.171875 -3.0625 2.8125 -3.0625 C 2.453125 -3.0625 2.140625 -2.90625 1.84375 -2.5625 C 1.71875 -2.984375 1.296875 -3.0625 1.125 -3.0625 C 0.875 -3.0625 0.6875 -2.90625 0.578125 -2.703125 C 0.421875 -2.4375 0.328125 -2.03125 0.328125 -2 C 0.328125 -1.90625 0.421875 -1.90625 0.4375 -1.90625 C 0.546875 -1.90625 0.546875 -1.921875 0.59375 -2.109375 C 0.703125 -2.546875 0.828125 -2.859375 1.109375 -2.859375 C 1.28125 -2.859375 1.328125 -2.71875 1.328125 -2.53125 C 1.328125 -2.390625 1.265625 -2.140625 1.21875 -1.953125 C 1.171875 -1.765625 1.109375 -1.484375 1.0625 -1.328125 L 0.84375 -0.4375 C 0.8125 -0.34375 0.78125 -0.171875 0.78125 -0.15625 C 0.78125 0 0.90625 0.0625 1.015625 0.0625 C 1.109375 0.0625 1.25 0 1.3125 -0.125 C 1.328125 -0.171875 1.40625 -0.484375 1.4375 -0.65625 Z M 1.625 -1.40625 "/></g><g id="8c96253cdfb6366c89d9e572a440932epapgc5cx__glyph-3-0"><path d="M 3.21875 -1.5625 L 5.328125 -1.5625 C 5.421875 -1.5625 5.59375 -1.5625 5.59375 -1.734375 C 5.59375 -1.90625 5.4375 -1.90625 5.328125 -1.90625 L 3.21875 -1.90625 L 3.21875 -4.03125 C 3.21875 -4.125 3.21875 -4.296875 3.046875 -4.296875 C 2.875 -4.296875 2.875 -4.140625 2.875 -4.03125 L 2.875 -1.90625 L 0.75 -1.90625 C 0.65625 -1.90625 0.484375 -1.90625 0.484375 -1.734375 C 0.484375 -1.5625 0.640625 -1.5625 0.75 -1.5625 L 2.875 -1.5625 L 2.875 0.5625 C 2.875 0.65625 2.875 0.8125 3.03125 0.8125 C 3.21875 0.8125 3.21875 0.65625 3.21875 0.5625 Z M 3.21875 -1.5625 "/></g><g id="8c96253cdfb6366c89d9e572a440932epapgc5cx__glyph-3-1"><path d="M 2.328125 -4.40625 C 2.328125 -4.59375 2.3125 -4.609375 2.109375 -4.609375 C 1.671875 -4.171875 1.046875 -4.15625 0.75 -4.15625 L 0.75 -3.90625 C 0.921875 -3.90625 1.375 -3.90625 1.765625 -4.109375 L 1.765625 -0.5625 C 1.765625 -0.34375 1.765625 -0.25 1.0625 -0.25 L 0.8125 -0.25 L 0.8125 0 C 0.921875 0 1.78125 -0.03125 2.046875 -0.03125 C 2.25 -0.03125 3.125 0 3.28125 0 L 3.28125 -0.25 L 3.015625 -0.25 C 2.328125 -0.25 2.328125 -0.34375 2.328125 -0.5625 Z M 2.328125 -4.40625 "/></g><g id="8c96253cdfb6366c89d9e572a440932epapgc5cx__glyph-4-0"><path d="M 5.15625 -1.5625 C 5.265625 -1.5625 5.4375 -1.5625 5.4375 -1.734375 C 5.4375 -1.90625 5.28125 -1.90625 5.15625 -1.90625 L 1.03125 -1.90625 C 0.921875 -1.90625 0.75 -1.90625 0.75 -1.734375 C 0.75 -1.5625 0.90625 -1.5625 1.03125 -1.5625 Z M 5.15625 -1.5625 "/></g><g id="8c96253cdfb6366c89d9e572a440932epapgc5cx__glyph-5-0"><path d="M 1.90625 -2.484375 C 1.90625 -2.765625 1.671875 -3 1.375 -3 C 1.09375 -3 0.859375 -2.765625 0.859375 -2.484375 C 0.859375 -2.1875 1.09375 -1.953125 1.375 -1.953125 C 1.671875 -1.953125 1.90625 -2.1875 1.90625 -2.484375 Z M 1.90625 -2.484375 "/></g><g id="8c96253cdfb6366c89d9e572a440932epapgc5cx__glyph-6-0"><path d="M 5.90625 -6.4375 C 6 -6.5625 6 -6.59375 6 -6.625 C 6 -6.796875 5.859375 -6.796875 5.671875 -6.796875 L 1.125 -6.796875 C 0.8125 -6.796875 0.8125 -6.765625 0.78125 -6.515625 L 0.640625 -5.171875 L 0.609375 -5.046875 C 0.609375 -4.90625 0.71875 -4.859375 0.796875 -4.859375 C 0.890625 -4.859375 0.9375 -4.921875 0.96875 -5 C 1 -5.234375 1.09375 -5.671875 1.703125 -6.046875 C 2.265625 -6.421875 2.953125 -6.453125 3.296875 -6.453125 L 4.09375 -6.453125 L 0.359375 -0.359375 C 0.28125 -0.234375 0.28125 -0.203125 0.28125 -0.171875 C 0.28125 0 0.4375 0 0.609375 0 L 5.703125 0 C 6 0 6 -0.015625 6.046875 -0.28125 L 6.3125 -2.234375 C 6.3125 -2.34375 6.21875 -2.40625 6.140625 -2.40625 C 6 -2.40625 5.96875 -2.3125 5.9375 -2.109375 C 5.78125 -1.296875 5 -0.34375 3.59375 -0.34375 L 2.1875 -0.34375 Z M 1.125 -6.453125 L 1.640625 -6.453125 L 1.640625 -6.4375 C 1.375 -6.296875 1.1875 -6.109375 1.078125 -6 Z M 4.5 -6.453125 L 5.515625 -6.453125 L 1.78125 -0.34375 L 0.765625 -0.34375 Z M 5.03125 -0.359375 C 5.3125 -0.515625 5.5625 -0.734375 5.796875 -1.015625 C 5.78125 -0.8125 5.75 -0.703125 5.703125 -0.34375 L 5.03125 -0.34375 Z M 5.03125 -0.359375 "/></g><g id="8c96253cdfb6366c89d9e572a440932epapgc5cx__glyph-7-0"><path d="M 0.96875 -0.484375 C 0.9375 -0.359375 0.875 -0.140625 0.875 -0.125 C 0.875 -0.015625 0.96875 0.046875 1.0625 0.046875 C 1.140625 0.046875 1.25 0.015625 1.296875 -0.109375 C 1.3125 -0.140625 1.359375 -0.359375 1.390625 -0.5 C 1.5625 -1.15625 1.5625 -1.171875 1.578125 -1.1875 C 1.640625 -1.328125 2 -2.015625 2.59375 -2.015625 C 2.84375 -2.015625 2.953125 -1.890625 2.953125 -1.671875 C 2.953125 -1.375 2.734375 -0.875 2.625 -0.59375 C 2.59375 -0.53125 2.578125 -0.46875 2.578125 -0.375 C 2.578125 -0.125 2.828125 0.046875 3.109375 0.046875 C 3.640625 0.046875 3.921875 -0.59375 3.921875 -0.71875 C 3.921875 -0.78125 3.828125 -0.78125 3.8125 -0.78125 C 3.734375 -0.78125 3.71875 -0.765625 3.6875 -0.671875 C 3.59375 -0.375 3.375 -0.109375 3.140625 -0.109375 C 3.015625 -0.109375 2.984375 -0.1875 2.984375 -0.296875 C 2.984375 -0.40625 3 -0.453125 3.046875 -0.5625 C 3.140625 -0.765625 3.359375 -1.328125 3.359375 -1.59375 C 3.359375 -1.96875 3.09375 -2.1875 2.625 -2.1875 C 2.171875 -2.1875 1.875 -1.921875 1.6875 -1.703125 C 1.671875 -2.109375 1.265625 -2.1875 1.09375 -2.1875 C 0.59375 -2.1875 0.453125 -1.4375 0.453125 -1.421875 C 0.453125 -1.359375 0.53125 -1.359375 0.5625 -1.359375 C 0.640625 -1.359375 0.65625 -1.375 0.671875 -1.453125 C 0.75 -1.734375 0.859375 -2.015625 1.0625 -2.015625 C 1.234375 -2.015625 1.265625 -1.859375 1.265625 -1.765625 C 1.265625 -1.6875 1.21875 -1.5 1.1875 -1.375 C 1.15625 -1.234375 1.109375 -1.03125 1.078125 -0.921875 Z M 0.96875 -0.484375 "/></g><g id="8c96253cdfb6366c89d9e572a440932epapgc5cx__glyph-8-0"><path d="M 2.6875 -1.09375 L 4.40625 -1.09375 C 4.46875 -1.09375 4.609375 -1.09375 4.609375 -1.234375 C 4.609375 -1.375 4.46875 -1.375 4.40625 -1.375 L 2.6875 -1.375 L 2.6875 -3.09375 C 2.6875 -3.171875 2.6875 -3.296875 2.546875 -3.296875 C 2.40625 -3.296875 2.40625 -3.171875 2.40625 -3.09375 L 2.40625 -1.375 L 0.671875 -1.375 C 0.609375 -1.375 0.484375 -1.375 0.484375 -1.234375 C 0.484375 -1.09375 0.609375 -1.09375 0.671875 -1.09375 L 2.40625 -1.09375 L 2.40625 0.625 C 2.40625 0.6875 2.40625 0.828125 2.546875 0.828125 C 2.6875 0.828125 2.6875 0.6875 2.6875 0.625 Z M 2.6875 -1.09375 "/></g><g id="8c96253cdfb6366c89d9e572a440932epapgc5cx__glyph-8-1"><path d="M 1.96875 -3.15625 C 1.96875 -3.296875 1.953125 -3.296875 1.796875 -3.296875 C 1.4375 -2.984375 0.890625 -2.984375 0.796875 -2.984375 L 0.703125 -2.984375 L 0.703125 -2.765625 L 0.796875 -2.765625 C 0.90625 -2.765625 1.234375 -2.78125 1.515625 -2.90625 L 1.515625 -0.421875 C 1.515625 -0.265625 1.515625 -0.21875 0.984375 -0.21875 L 0.75 -0.21875 L 0.75 0 C 1.015625 -0.015625 1.453125 -0.015625 1.75 -0.015625 C 2.03125 -0.015625 2.46875 -0.015625 2.75 0 L 2.75 -0.21875 L 2.5 -0.21875 C 1.96875 -0.21875 1.96875 -0.265625 1.96875 -0.421875 Z M 1.96875 -3.15625 "/></g><g id="8c96253cdfb6366c89d9e572a440932epapgc5cx__glyph-9-0"><path d="M 4.359375 -1.09375 C 4.4375 -1.09375 4.578125 -1.09375 4.578125 -1.234375 C 4.578125 -1.375 4.4375 -1.375 4.359375 -1.375 L 1 -1.375 C 0.921875 -1.375 0.796875 -1.375 0.796875 -1.234375 C 0.796875 -1.09375 0.921875 -1.09375 1 -1.09375 Z M 4.359375 -1.09375 "/></g></g></defs><g fill="rgb(0%, 0%, 0%)" fill-opacity="1"><use xlink:href="#8c96253cdfb6366c89d9e572a440932epapgc5cx__glyph-0-0" x="40.577597" y="10.024678"/></g><g fill="rgb(0%, 0%, 0%)" fill-opacity="1"><use xlink:href="#8c96253cdfb6366c89d9e572a440932epapgc5cx__glyph-0-0" x="469.931935" y="10.024678"/></g><g fill="rgb(0%, 0%, 0%)" fill-opacity="1"><use xlink:href="#8c96253cdfb6366c89d9e572a440932epapgc5cx__glyph-0-1" x="81.197108" y="42.032546"/></g><g fill="rgb(0%, 0%, 0%)" fill-opacity="1"><use xlink:href="#8c96253cdfb6366c89d9e572a440932epapgc5cx__glyph-0-2" x="86.155482" y="42.032546"/><use xlink:href="#8c96253cdfb6366c89d9e572a440932epapgc5cx__glyph-0-3" x="90.564248" y="42.032546"/></g><g fill="rgb(0%, 0%, 0%)" fill-opacity="1"><use xlink:href="#8c96253cdfb6366c89d9e572a440932epapgc5cx__glyph-1-0" x="96.106953" y="42.032546"/></g><g fill="rgb(0%, 0%, 0%)" fill-opacity="1"><use xlink:href="#8c96253cdfb6366c89d9e572a440932epapgc5cx__glyph-2-0" x="101.269366" y="43.520265"/></g><g fill="rgb(0%, 0%, 0%)" fill-opacity="1"><use xlink:href="#8c96253cdfb6366c89d9e572a440932epapgc5cx__glyph-3-0" x="106.173559" y="43.520265"/><use xlink:href="#8c96253cdfb6366c89d9e572a440932epapgc5cx__glyph-3-1" x="112.263869" y="43.520265"/></g><g fill="rgb(0%, 0%, 0%)" fill-opacity="1"><use xlink:href="#8c96253cdfb6366c89d9e572a440932epapgc5cx__glyph-0-4" x="414.339637" y="42.032546"/><use xlink:href="#8c96253cdfb6366c89d9e572a440932epapgc5cx__glyph-0-5" x="417.095612" y="42.032546"/></g><g fill="rgb(0%, 0%, 0%)" fill-opacity="1"><use xlink:href="#8c96253cdfb6366c89d9e572a440932epapgc5cx__glyph-1-0" x="427.019304" y="42.032546"/></g><g fill="rgb(0%, 0%, 0%)" fill-opacity="1"><use xlink:href="#8c96253cdfb6366c89d9e572a440932epapgc5cx__glyph-2-0" x="432.17932" y="43.520265"/></g><g fill="rgb(0%, 0%, 0%)" fill-opacity="1"><use xlink:href="#8c96253cdfb6366c89d9e572a440932epapgc5cx__glyph-0-1" x="507.245404" y="42.032546"/></g><g fill="rgb(0%, 0%, 0%)" fill-opacity="1"><use xlink:href="#8c96253cdfb6366c89d9e572a440932epapgc5cx__glyph-0-2" x="512.203778" y="42.032546"/><use xlink:href="#8c96253cdfb6366c89d9e572a440932epapgc5cx__glyph-0-3" x="516.612545" y="42.032546"/></g><g fill="rgb(0%, 0%, 0%)" fill-opacity="1"><use xlink:href="#8c96253cdfb6366c89d9e572a440932epapgc5cx__glyph-1-0" x="522.155249" y="42.032546"/></g><g fill="rgb(0%, 0%, 0%)" fill-opacity="1"><use xlink:href="#8c96253cdfb6366c89d9e572a440932epapgc5cx__glyph-2-0" x="527.317662" y="43.520265"/></g><g fill="rgb(0%, 0%, 0%)" fill-opacity="1"><use xlink:href="#8c96253cdfb6366c89d9e572a440932epapgc5cx__glyph-4-0" x="532.221855" y="43.520265"/></g><g fill="rgb(0%, 0%, 0%)" fill-opacity="1"><use xlink:href="#8c96253cdfb6366c89d9e572a440932epapgc5cx__glyph-3-1" x="538.422583" y="43.520265"/></g><g fill="rgb(0%, 0%, 0%)" fill-opacity="1"><use xlink:href="#8c96253cdfb6366c89d9e572a440932epapgc5cx__glyph-5-0" x="37.270558" y="76.300871"/></g><g fill="rgb(0%, 0%, 0%)" fill-opacity="1"><use xlink:href="#8c96253cdfb6366c89d9e572a440932epapgc5cx__glyph-5-0" x="41.683293" y="76.300871"/></g><g fill="rgb(0%, 0%, 0%)" fill-opacity="1"><use xlink:href="#8c96253cdfb6366c89d9e572a440932epapgc5cx__glyph-5-0" x="46.086107" y="76.300871"/></g><g fill="rgb(0%, 0%, 0%)" fill-opacity="1"><use xlink:href="#8c96253cdfb6366c89d9e572a440932epapgc5cx__glyph-6-0" x="149.066574" y="76.300871"/></g><g fill="rgb(0%, 0%, 0%)" fill-opacity="1"><use xlink:href="#8c96253cdfb6366c89d9e572a440932epapgc5cx__glyph-2-1" x="155.680651" y="72.700073"/></g><g fill="rgb(0%, 0%, 0%)" fill-opacity="1"><use xlink:href="#8c96253cdfb6366c89d9e572a440932epapgc5cx__glyph-7-0" x="159.3641" y="73.692881"/></g><g fill="rgb(0%, 0%, 0%)" fill-opacity="1"><use xlink:href="#8c96253cdfb6366c89d9e572a440932epapgc5cx__glyph-8-0" x="163.733184" y="73.692881"/><use xlink:href="#8c96253cdfb6366c89d9e572a440932epapgc5cx__glyph-8-1" x="168.83144" y="73.692881"/></g><g fill="rgb(0%, 0%, 0%)" fill-opacity="1"><use xlink:href="#8c96253cdfb6366c89d9e572a440932epapgc5cx__glyph-6-0" x="366.328332" y="76.300871"/></g><g fill="rgb(0%, 0%, 0%)" fill-opacity="1"><use xlink:href="#8c96253cdfb6366c89d9e572a440932epapgc5cx__glyph-2-1" x="372.942409" y="72.700073"/></g><g fill="rgb(0%, 0%, 0%)" fill-opacity="1"><use xlink:href="#8c96253cdfb6366c89d9e572a440932epapgc5cx__glyph-7-0" x="376.625858" y="73.692881"/></g><g fill="rgb(0%, 0%, 0%)" fill-opacity="1"><use xlink:href="#8c96253cdfb6366c89d9e572a440932epapgc5cx__glyph-6-0" x="575.225404" y="76.300871"/></g><g fill="rgb(0%, 0%, 0%)" fill-opacity="1"><use xlink:href="#8c96253cdfb6366c89d9e572a440932epapgc5cx__glyph-2-1" x="581.839481" y="72.700073"/></g><g fill="rgb(0%, 0%, 0%)" fill-opacity="1"><use xlink:href="#8c96253cdfb6366c89d9e572a440932epapgc5cx__glyph-7-0" x="585.52293" y="73.692881"/></g><g fill="rgb(0%, 0%, 0%)" fill-opacity="1"><use xlink:href="#8c96253cdfb6366c89d9e572a440932epapgc5cx__glyph-9-0" x="589.892013" y="73.692881"/></g><g fill="rgb(0%, 0%, 0%)" fill-opacity="1"><use xlink:href="#8c96253cdfb6366c89d9e572a440932epapgc5cx__glyph-8-1" x="595.265569" y="73.692881"/></g><g fill="rgb(0%, 0%, 0%)" fill-opacity="1"><use xlink:href="#8c96253cdfb6366c89d9e572a440932epapgc5cx__glyph-5-0" x="697.734193" y="76.300871"/></g><g fill="rgb(0%, 0%, 0%)" fill-opacity="1"><use xlink:href="#8c96253cdfb6366c89d9e572a440932epapgc5cx__glyph-5-0" x="702.146927" y="76.300871"/></g><g fill="rgb(0%, 0%, 0%)" fill-opacity="1"><use xlink:href="#8c96253cdfb6366c89d9e572a440932epapgc5cx__glyph-5-0" x="706.549741" y="76.300871"/></g><g fill="rgb(0%, 0%, 0%)" fill-opacity="1"><use xlink:href="#8c96253cdfb6366c89d9e572a440932epapgc5cx__glyph-0-4" x="205.552102" y="108.308739"/><use xlink:href="#8c96253cdfb6366c89d9e572a440932epapgc5cx__glyph-0-5" x="208.308077" y="108.308739"/></g><g fill="rgb(0%, 0%, 0%)" fill-opacity="1"><use xlink:href="#8c96253cdfb6366c89d9e572a440932epapgc5cx__glyph-1-0" x="218.23177" y="108.308739"/></g><g fill="rgb(0%, 0%, 0%)" fill-opacity="1"><use xlink:href="#8c96253cdfb6366c89d9e572a440932epapgc5cx__glyph-2-0" x="223.392782" y="109.796458"/></g><g fill="rgb(0%, 0%, 0%)" fill-opacity="1"><use xlink:href="#8c96253cdfb6366c89d9e572a440932epapgc5cx__glyph-3-0" x="228.296975" y="109.796458"/><use xlink:href="#8c96253cdfb6366c89d9e572a440932epapgc5cx__glyph-3-1" x="234.387285" y="109.796458"/></g><g fill="rgb(0%, 0%, 0%)" fill-opacity="1"><use xlink:href="#8c96253cdfb6366c89d9e572a440932epapgc5cx__glyph-0-1" x="308.503459" y="108.308739"/></g><g fill="rgb(0%, 0%, 0%)" fill-opacity="1"><use xlink:href="#8c96253cdfb6366c89d9e572a440932epapgc5cx__glyph-0-2" x="313.461833" y="108.308739"/><use xlink:href="#8c96253cdfb6366c89d9e572a440932epapgc5cx__glyph-0-3" x="317.870599" y="108.308739"/></g><g fill="rgb(0%, 0%, 0%)" fill-opacity="1"><use xlink:href="#8c96253cdfb6366c89d9e572a440932epapgc5cx__glyph-1-0" x="323.413304" y="108.308739"/></g><g fill="rgb(0%, 0%, 0%)" fill-opacity="1"><use xlink:href="#8c96253cdfb6366c89d9e572a440932epapgc5cx__glyph-2-0" x="328.575717" y="109.796458"/></g><g fill="rgb(0%, 0%, 0%)" fill-opacity="1"><use xlink:href="#8c96253cdfb6366c89d9e572a440932epapgc5cx__glyph-0-4" x="631.986767" y="108.308739"/><use xlink:href="#8c96253cdfb6366c89d9e572a440932epapgc5cx__glyph-0-5" x="634.742742" y="108.308739"/></g><g fill="rgb(0%, 0%, 0%)" fill-opacity="1"><use xlink:href="#8c96253cdfb6366c89d9e572a440932epapgc5cx__glyph-1-0" x="644.666435" y="108.308739"/></g><g fill="rgb(0%, 0%, 0%)" fill-opacity="1"><use xlink:href="#8c96253cdfb6366c89d9e572a440932epapgc5cx__glyph-2-0" x="649.826451" y="109.796458"/></g><g fill="rgb(0%, 0%, 0%)" fill-opacity="1"><use xlink:href="#8c96253cdfb6366c89d9e572a440932epapgc5cx__glyph-4-0" x="654.730644" y="109.796458"/></g><g fill="rgb(0%, 0%, 0%)" fill-opacity="1"><use xlink:href="#8c96253cdfb6366c89d9e572a440932epapgc5cx__glyph-3-1" x="660.931372" y="109.796458"/></g><g fill="rgb(0%, 0%, 0%)" fill-opacity="1"><use xlink:href="#8c96253cdfb6366c89d9e572a440932epapgc5cx__glyph-0-0" x="271.18999" y="142.135926"/></g><g fill="rgb(0%, 0%, 0%)" fill-opacity="1"><use xlink:href="#8c96253cdfb6366c89d9e572a440932epapgc5cx__glyph-0-0" x="701.041231" y="142.135926"/></g><path fill="none" stroke="rgb(0%, 0%, 0%)" stroke-linecap="butt" stroke-linejoin="miter" stroke-miterlimit="10" stroke-opacity="1" stroke-width="0.39848" d="M -324.649894 61.618912 L -290.286678 41.942441 " transform="matrix(0.995796, 0, 0, -0.995796, 373.288946, 72.883299)"/><path fill="none" stroke="rgb(0%, 0%, 0%)" stroke-linecap="round" stroke-linejoin="round" stroke-miterlimit="10" stroke-opacity="1" stroke-width="0.39848" d="M -2.072375 2.389016 C -1.694526 0.955405 -0.849732 0.277362 0.000555047 0.000263033 C -0.851683 -0.279768 -1.693847 -0.956349 -2.07165 -2.388667 " transform="matrix(0.864132, 0.494781, 0.494781, -0.864132, 84.393921, 31.214796)"/><path fill="none" stroke="rgb(0%, 0%, 0%)" stroke-linecap="butt" stroke-linejoin="miter" stroke-miterlimit="10" stroke-opacity="1" stroke-width="0.39848" d="M 106.522163 61.375703 L 138.465048 41.954209 " transform="matrix(0.995796, 0, 0, -0.995796, 373.288946, 72.883299)"/><path fill="none" stroke="rgb(0%, 0%, 0%)" stroke-linecap="round" stroke-linejoin="round" stroke-miterlimit="10" stroke-opacity="1" stroke-width="0.39848" d="M -2.071211 2.389879 C -1.695452 0.956362 -0.850477 0.276429 0.00154513 0.000208217 C -0.848568 -0.277935 -1.693635 -0.957028 -2.071401 -2.389588 " transform="matrix(0.850828, 0.517316, 0.517316, -0.850828, 511.342328, 31.210315)"/><path fill="none" stroke="rgb(0%, 0%, 0%)" stroke-linecap="butt" stroke-linejoin="miter" stroke-miterlimit="10" stroke-opacity="1" stroke-width="0.39848" d="M -259.78344 24.811829 L -228.311285 7.469388 " transform="matrix(0.995796, 0, 0, -0.995796, 373.288946, 72.883299)"/><path fill="none" stroke="rgb(0%, 0%, 0%)" stroke-linecap="round" stroke-linejoin="round" stroke-miterlimit="10" stroke-opacity="1" stroke-width="0.39848" d="M -2.071067 2.390667 C -1.692336 0.955555 -0.8488 0.278222 -0.0000809146 -0.00209992 C -0.851106 -0.278449 -1.691327 -0.956438 -2.071209 -2.388545 " transform="matrix(0.872118, 0.480571, 0.480571, -0.872118, 146.110455, 65.541176)"/><path fill="none" stroke="rgb(0%, 0%, 0%)" stroke-linecap="butt" stroke-linejoin="miter" stroke-miterlimit="10" stroke-opacity="1" stroke-width="0.39848" d="M 64.897953 41.746304 L 92.235539 60.583309 " transform="matrix(0.995796, 0, 0, -0.995796, 373.288946, 72.883299)"/><path fill="none" stroke="rgb(0%, 0%, 0%)" stroke-linecap="round" stroke-linejoin="round" stroke-miterlimit="10" stroke-opacity="1" stroke-width="0.39848" d="M -2.07195 2.391315 C -1.692381 0.957834 -0.850768 0.277897 0.00136248 0.000419282 C -0.849528 -0.280348 -1.692342 -0.957329 -2.071243 -2.392248 " transform="matrix(0.819948, -0.564965, -0.564965, -0.819948, 465.299901, 12.44252)"/><path fill="none" stroke="rgb(0%, 0%, 0%)" stroke-linecap="butt" stroke-linejoin="miter" stroke-miterlimit="10" stroke-opacity="1" stroke-width="0.39848" d="M 70.48786 33.473242 L 129.634957 33.473242 " transform="matrix(0.995796, 0, 0, -0.995796, 373.288946, 72.883299)"/><path fill="none" stroke="rgb(0%, 0%, 0%)" stroke-linecap="round" stroke-linejoin="miter" stroke-miterlimit="10" stroke-opacity="1" stroke-width="0.39848" d="M -0.00195983 1.950665 C 0.680597 1.950665 1.233704 1.51524 1.233704 0.977825 C 1.233704 0.436486 0.680597 0.00106205 -0.00195983 0.00106205 " transform="matrix(-0.995796, 0, 0, -0.995796, 443.478517, 39.551839)"/><path fill="none" stroke="rgb(0%, 0%, 0%)" stroke-linecap="round" stroke-linejoin="round" stroke-miterlimit="10" stroke-opacity="1" stroke-width="0.39848" d="M -2.071431 2.390012 C -1.694848 0.958211 -0.851459 0.279577 -0.000223625 0.00106205 C -0.851459 -0.277453 -1.694848 -0.956087 -2.071431 -2.39181 " transform="matrix(0.995796, 0, 0, -0.995796, 502.578348, 39.551839)"/><path fill="none" stroke="rgb(0%, 0%, 0%)" stroke-linecap="butt" stroke-linejoin="miter" stroke-miterlimit="10" stroke-opacity="1" stroke-width="0.39848" d="M 168.171969 24.811829 L 199.742193 7.469388 " transform="matrix(0.995796, 0, 0, -0.995796, 373.288946, 72.883299)"/><path fill="none" stroke="rgb(0%, 0%, 0%)" stroke-linecap="round" stroke-linejoin="round" stroke-miterlimit="10" stroke-opacity="1" stroke-width="0.39848" d="M -2.073059 2.390823 C -1.692771 0.957101 -0.850122 0.278661 0.00166924 -0.000885869 C -0.847831 -0.279558 -1.694269 -0.954896 -2.074141 -2.389946 " transform="matrix(0.872745, 0.479426, 0.479426, -0.872745, 572.366155, 65.541395)"/><path fill="none" stroke="rgb(0%, 0%, 0%)" stroke-linecap="butt" stroke-linejoin="miter" stroke-miterlimit="10" stroke-opacity="1" stroke-width="0.39848" d="M -321.331255 -0.940969 L -230.060828 -0.940969 " transform="matrix(0.995796, 0, 0, -0.995796, 373.288946, 72.883299)"/><path fill="none" stroke="rgb(0%, 0%, 0%)" stroke-linecap="round" stroke-linejoin="round" stroke-miterlimit="10" stroke-opacity="1" stroke-width="0.39848" d="M -2.072035 2.392823 C -1.695452 0.9571 -0.84814 0.278465 -0.000827815 -0.0000493507 C -0.84814 -0.278564 -1.695452 -0.957198 -2.072035 -2.388999 " transform="matrix(0.995796, 0, 0, -0.995796, 144.395356, 73.820263)"/><path fill="none" stroke="rgb(0%, 0%, 0%)" stroke-linecap="butt" stroke-linejoin="miter" stroke-miterlimit="10" stroke-opacity="1" stroke-width="0.39848" d="M -220.226515 7.277174 C -229.295893 20.030007 -238.027916 26.055338 -252.785269 29.895702 " transform="matrix(0.995796, 0, 0, -0.995796, 373.288946, 72.883299)"/><path fill="none" stroke="rgb(0%, 0%, 0%)" stroke-linecap="round" stroke-linejoin="round" stroke-miterlimit="10" stroke-opacity="1" stroke-width="0.39848" d="M -2.071909 2.390462 C -1.694616 0.956384 -0.849832 0.280398 0.00161273 -0.000652302 C -0.850149 -0.279086 -1.695206 -0.957085 -2.071486 -2.392715 " transform="matrix(-0.963642, -0.250801, -0.250801, 0.963642, 121.372484, 43.063533)"/><path fill="none" stroke="rgb(0%, 0%, 0%)" stroke-linecap="butt" stroke-linejoin="miter" stroke-miterlimit="10" stroke-opacity="1" stroke-width="0.39848" d="M -196.446855 -0.940969 L -11.877944 -0.940969 " transform="matrix(0.995796, 0, 0, -0.995796, 373.288946, 72.883299)"/><path fill="none" stroke="rgb(0%, 0%, 0%)" stroke-linecap="round" stroke-linejoin="round" stroke-miterlimit="10" stroke-opacity="1" stroke-width="0.39848" d="M -2.070412 2.392823 C -1.693829 0.9571 -0.850439 0.278465 0.000795839 -0.0000493507 C -0.850439 -0.278564 -1.693829 -0.957198 -2.070412 -2.388999 " transform="matrix(0.995796, 0, 0, -0.995796, 361.659364, 73.820263)"/><path fill="none" stroke="rgb(0%, 0%, 0%)" stroke-linecap="butt" stroke-linejoin="miter" stroke-miterlimit="10" stroke-opacity="1" stroke-width="0.39848" d="M -200.969776 -7.276197 L -167.869683 -24.626483 " transform="matrix(0.995796, 0, 0, -0.995796, 373.288946, 72.883299)"/><path fill="none" stroke="rgb(0%, 0%, 0%)" stroke-linecap="round" stroke-linejoin="round" stroke-miterlimit="10" stroke-opacity="1" stroke-width="0.39848" d="M -2.069603 2.390308 C -1.69477 0.956849 -0.84834 0.279914 -0.000683664 -0.00218573 C -0.848203 -0.278083 -1.693307 -0.955765 -2.071241 -2.389574 " transform="matrix(0.881947, 0.462248, 0.462248, -0.881947, 206.302395, 97.498388)"/><path fill="none" stroke="rgb(0%, 0%, 0%)" stroke-linecap="butt" stroke-linejoin="miter" stroke-miterlimit="10" stroke-opacity="1" stroke-width="0.39848" d="M 13.223679 7.226179 L 40.72602 25.423776 " transform="matrix(0.995796, 0, 0, -0.995796, 373.288946, 72.883299)"/><path fill="none" stroke="rgb(0%, 0%, 0%)" stroke-linecap="round" stroke-linejoin="round" stroke-miterlimit="10" stroke-opacity="1" stroke-width="0.39848" d="M -2.074546 2.390742 C -1.691959 0.95695 -0.85178 0.278781 0.0000455822 0.00214411 C -0.848736 -0.278289 -1.692854 -0.956931 -2.071903 -2.390134 " transform="matrix(0.830434, -0.54942, -0.54942, -0.830434, 414.008953, 47.458837)"/><path fill="none" stroke="rgb(0%, 0%, 0%)" stroke-linecap="butt" stroke-linejoin="miter" stroke-miterlimit="10" stroke-opacity="1" stroke-width="0.39848" d="M 13.223679 -0.940969 L 197.902427 -0.940969 " transform="matrix(0.995796, 0, 0, -0.995796, 373.288946, 72.883299)"/><path fill="none" stroke="rgb(0%, 0%, 0%)" stroke-linecap="round" stroke-linejoin="round" stroke-miterlimit="10" stroke-opacity="1" stroke-width="0.39848" d="M -2.07198 2.392823 C -1.695397 0.9571 -0.848085 0.278465 -0.000772855 -0.0000493507 C -0.848085 -0.278564 -1.695397 -0.957198 -2.07198 -2.388999 " transform="matrix(0.995796, 0, 0, -0.995796, 570.559363, 73.820263)"/><path fill="none" stroke="rgb(0%, 0%, 0%)" stroke-linecap="butt" stroke-linejoin="miter" stroke-miterlimit="10" stroke-opacity="1" stroke-width="0.39848" d="M -4.224675 -7.276197 C -12.54481 -19.632833 -20.676653 -25.556172 -34.610231 -29.565214 " transform="matrix(0.995796, 0, 0, -0.995796, 373.288946, 72.883299)"/><path fill="none" stroke="rgb(0%, 0%, 0%)" stroke-linecap="round" stroke-linejoin="round" stroke-miterlimit="10" stroke-opacity="1" stroke-width="0.39848" d="M -2.072622 2.392342 C -1.693862 0.956685 -0.84864 0.276672 -0.00157038 0.000246553 C -0.84916 -0.278334 -1.693743 -0.957817 -2.073667 -2.391487 " transform="matrix(-0.95694, 0.275387, 0.275387, 0.95694, 338.635148, 102.379103)"/><path fill="none" stroke="rgb(0%, 0%, 0%)" stroke-linecap="butt" stroke-linejoin="miter" stroke-miterlimit="10" stroke-opacity="1" stroke-width="0.39848" d="M 207.8505 7.277174 C 198.737971 20.065312 189.990258 26.078874 175.177986 29.915315 " transform="matrix(0.995796, 0, 0, -0.995796, 373.288946, 72.883299)"/><path fill="none" stroke="rgb(0%, 0%, 0%)" stroke-linecap="round" stroke-linejoin="round" stroke-miterlimit="10" stroke-opacity="1" stroke-width="0.39848" d="M -2.072834 2.392414 C -1.692538 0.955053 -0.848591 0.278019 0.00152247 -0.000288741 C -0.850585 -0.277667 -1.691702 -0.957433 -2.070745 -2.388801 " transform="matrix(-0.96395, -0.249606, -0.249606, 0.96395, 547.536552, 43.043627)"/><path fill="none" stroke="rgb(0%, 0%, 0%)" stroke-linecap="butt" stroke-linejoin="miter" stroke-miterlimit="10" stroke-opacity="1" stroke-width="0.39848" d="M 231.790991 -0.940969 L 320.93137 -0.940969 " transform="matrix(0.995796, 0, 0, -0.995796, 373.288946, 72.883299)"/><path fill="none" stroke="rgb(0%, 0%, 0%)" stroke-linecap="round" stroke-linejoin="round" stroke-miterlimit="10" stroke-opacity="1" stroke-width="0.39848" d="M -2.070698 2.392823 C -1.694115 0.9571 -0.850725 0.278465 0.000509612 -0.0000493507 C -0.850725 -0.278564 -1.694115 -0.957198 -2.070698 -2.388999 " transform="matrix(0.995796, 0, 0, -0.995796, 693.069805, 73.820263)"/><path fill="none" stroke="rgb(0%, 0%, 0%)" stroke-linecap="butt" stroke-linejoin="miter" stroke-miterlimit="10" stroke-opacity="1" stroke-width="0.39848" d="M 227.170002 -7.276197 L 260.376009 -24.626483 " transform="matrix(0.995796, 0, 0, -0.995796, 373.288946, 72.883299)"/><path fill="none" stroke="rgb(0%, 0%, 0%)" stroke-linecap="round" stroke-linejoin="round" stroke-miterlimit="10" stroke-opacity="1" stroke-width="0.39848" d="M -2.073204 2.389734 C -1.691439 0.955943 -0.851167 0.279579 -0.000391644 -0.00179387 C -0.851746 -0.278422 -1.692431 -0.956682 -2.072207 -2.390014 " transform="matrix(0.882534, 0.461113, 0.461113, -0.882534, 632.747267, 97.498597)"/><path fill="none" stroke="rgb(0%, 0%, 0%)" stroke-linecap="butt" stroke-linejoin="miter" stroke-miterlimit="10" stroke-opacity="1" stroke-width="0.39848" d="M -129.097306 -33.083913 L -69.946287 -33.083913 " transform="matrix(0.995796, 0, 0, -0.995796, 373.288946, 72.883299)"/><path fill="none" stroke="rgb(0%, 0%, 0%)" stroke-linecap="round" stroke-linejoin="miter" stroke-miterlimit="10" stroke-opacity="1" stroke-width="0.39848" d="M -0.000693753 1.954362 C 0.681863 1.954362 1.23497 1.515015 1.23497 0.977599 C 1.23497 0.436261 0.681863 0.000836589 -0.000693753 0.000836589 " transform="matrix(-0.995796, 0, 0, -0.995796, 244.733684, 105.828958)"/><path fill="none" stroke="rgb(0%, 0%, 0%)" stroke-linecap="round" stroke-linejoin="round" stroke-miterlimit="10" stroke-opacity="1" stroke-width="0.39848" d="M -2.072697 2.389786 C -1.692191 0.957986 -0.848802 0.279351 -0.00148971 0.000836589 C -0.848802 -0.277678 -1.692191 -0.956312 -2.072697 -2.392036 " transform="matrix(0.995796, 0, 0, -0.995796, 303.833515, 105.828958)"/><path fill="none" stroke="rgb(0%, 0%, 0%)" stroke-linecap="butt" stroke-linejoin="miter" stroke-miterlimit="10" stroke-opacity="1" stroke-width="0.39848" d="M -138.555036 -41.745327 L -107.35355 -62.249497 " transform="matrix(0.995796, 0, 0, -0.995796, 373.288946, 72.883299)"/><path fill="none" stroke="rgb(0%, 0%, 0%)" stroke-linecap="round" stroke-linejoin="round" stroke-miterlimit="10" stroke-opacity="1" stroke-width="0.39848" d="M -2.07048 2.390126 C -1.692605 0.957931 -0.850608 0.276685 -0.00158935 -0.000940841 C -0.852101 -0.278209 -1.692211 -0.957037 -2.073804 -2.390738 " transform="matrix(0.832147, 0.546851, 0.546851, -0.832147, 266.552618, 134.980555)"/><path fill="none" stroke="rgb(0%, 0%, 0%)" stroke-linecap="butt" stroke-linejoin="miter" stroke-miterlimit="10" stroke-opacity="1" stroke-width="0.39848" d="M -38.595737 -24.810852 L -9.944032 -7.484102 " transform="matrix(0.995796, 0, 0, -0.995796, 373.288946, 72.883299)"/><path fill="none" stroke="rgb(0%, 0%, 0%)" stroke-linecap="round" stroke-linejoin="round" stroke-miterlimit="10" stroke-opacity="1" stroke-width="0.39848" d="M -2.072618 2.392533 C -1.69346 0.95754 -0.84881 0.277121 0.00195638 0.00101611 C -0.849393 -0.277239 -1.694056 -0.953798 -2.071767 -2.389521 " transform="matrix(0.852073, -0.515285, -0.515285, -0.852073, 363.55745, 80.232343)"/><path fill="none" stroke="rgb(0%, 0%, 0%)" stroke-linecap="butt" stroke-linejoin="miter" stroke-miterlimit="10" stroke-opacity="1" stroke-width="0.39848" d="M 290.592887 -41.745327 L 324.312773 -62.543702 " transform="matrix(0.995796, 0, 0, -0.995796, 373.288946, 72.883299)"/><path fill="none" stroke="rgb(0%, 0%, 0%)" stroke-linecap="round" stroke-linejoin="round" stroke-miterlimit="10" stroke-opacity="1" stroke-width="0.39848" d="M -2.07432 2.391477 C -1.692732 0.958319 -0.850094 0.279679 -0.000931188 0.0014542 C -0.851316 -0.278786 -1.69281 -0.954542 -2.073483 -2.392344 " transform="matrix(0.847492, 0.522743, 0.522743, -0.847492, 696.406279, 135.267344)"/><path fill="none" stroke="rgb(0%, 0%, 0%)" stroke-linecap="butt" stroke-linejoin="miter" stroke-miterlimit="10" stroke-opacity="1" stroke-width="0.39848" d="M -93.063003 -62.092587 L -63.607136 -41.145147 " transform="matrix(0.995796, 0, 0, -0.995796, 373.288946, 72.883299)"/><path fill="none" stroke="rgb(0%, 0%, 0%)" stroke-linecap="round" stroke-linejoin="round" stroke-miterlimit="10" stroke-opacity="1" stroke-width="0.39848" d="M -2.071194 2.391414 C -1.694245 0.958421 -0.848244 0.279784 0.00103018 -0.00163791 C -0.849814 -0.277497 -1.694341 -0.957391 -2.073955 -2.391511 " transform="matrix(0.811474, -0.577064, -0.577064, -0.811474, 310.1115, 113.741453)"/></svg>