<?xml version="1.0" encoding="UTF-8"?><svg xmlns="http://www.w3.org/2000/svg" xmlns:xlink="http://www.w3.org/1999/xlink" width="343.711" height="187.064" viewBox="0 0 343.711 187.064"><defs><clipPath id="638650ad1084ac1420a7f51d083a5d441dndkub9__clip-0"><path d="M 87 0 L 172 0 L 172 186.132812 L 87 186.132812 Z M 87 0 " clip-rule="nonzero"/></clipPath><clipPath id="638650ad1084ac1420a7f51d083a5d441dndkub9__clip-1"><path d="M 143 0 L 257 0 L 257 186.132812 L 143 186.132812 Z M 143 0 " clip-rule="nonzero"/></clipPath><clipPath id="638650ad1084ac1420a7f51d083a5d441dndkub9__clip-2"><path d="M 143 0 L 228 0 L 228 186.132812 L 143 186.132812 Z M 143 0 " clip-rule="nonzero"/></clipPath><clipPath id="638650ad1084ac1420a7f51d083a5d441dndkub9__clip-3"><path d="M 143 0 L 257 0 L 257 186.132812 L 143 186.132812 Z M 143 0 " clip-rule="nonzero"/></clipPath><clipPath id="638650ad1084ac1420a7f51d083a5d441dndkub9__clip-4"><path d="M 106 185 L 237 185 L 237 186.132812 L 106 186.132812 Z M 106 185 " clip-rule="nonzero"/></clipPath></defs><g clip-path="url(#638650ad1084ac1420a7f51d083a5d441dndkub9__clip-0)"><path fill="none" stroke="rgb(0%, 0%, 100%)" stroke-linecap="butt" stroke-linejoin="miter" stroke-miterlimit="10" stroke-opacity="1" stroke-width="1.99255" d="M 28.347471 -0.00115204 C 28.347471 -8.504425 23.813177 -13.607959 18.368099 -18.028405 M 9.978674 -24.490264 C 4.533596 -28.914636 -0.000697927 -34.01817 -0.000697927 -42.521443 L -0.000697927 -56.693564 C -0.000697927 -77.955672 28.347471 -77.951746 28.347471 -99.213855 L 28.347471 -113.385976 C 28.347471 -121.889249 23.813177 -126.992783 18.368099 -131.417155 M 9.978674 -137.879014 C 4.533596 -142.29946 -0.000697927 -147.402994 -0.000697927 -155.906267 L -0.000697927 -184.254436 " transform="matrix(0.995021, 0, 0, -0.995021, 115.301476, 0.991041)"/><path fill="none" stroke="rgb(100%, 0%, 0%)" stroke-linecap="butt" stroke-linejoin="miter" stroke-miterlimit="10" stroke-opacity="1" stroke-width="1.99255" d="M -0.000697927 -0.00115204 C -0.000697927 -21.259334 28.347471 -21.259334 28.347471 -42.521443 L 28.347471 -56.693564 C 28.347471 -65.196837 23.813177 -70.300371 18.368099 -74.720817 M 9.978674 -81.186602 C 4.533596 -85.607048 -0.000697927 -90.710582 -0.000697927 -99.213855 L -0.000697927 -113.385976 C -0.000697927 -134.648084 28.347471 -134.648084 28.347471 -155.906267 L 28.347471 -184.254436 " transform="matrix(0.995021, 0, 0, -0.995021, 115.301476, 0.991041)"/></g><g clip-path="url(#638650ad1084ac1420a7f51d083a5d441dndkub9__clip-1)"><path fill="none" stroke="rgb(100%, 94.898987%, 0%)" stroke-linecap="butt" stroke-linejoin="miter" stroke-miterlimit="10" stroke-opacity="1" stroke-width="1.99255" d="M 113.388052 -0.00115204 L 113.388052 -85.041733 C 113.388052 -93.545006 108.853758 -98.64854 103.40868 -103.068986 M 95.019255 -109.530845 C 89.574177 -113.955217 85.039883 -119.054825 85.039883 -127.562024 L 85.039883 -141.734145 C 85.039883 -162.992328 56.691714 -162.992328 56.691714 -184.254436 " transform="matrix(0.995021, 0, 0, -0.995021, 115.301476, 0.991041)"/></g><g clip-path="url(#638650ad1084ac1420a7f51d083a5d441dndkub9__clip-2)"><path fill="none" stroke="rgb(0%, 100%, 0%)" stroke-linecap="butt" stroke-linejoin="miter" stroke-miterlimit="10" stroke-opacity="1" stroke-width="1.99255" d="M 85.039883 -0.00115204 L 85.039883 -28.345395 C 85.039883 -36.852594 80.505589 -41.952202 75.064437 -46.376574 M 66.671086 -52.838433 C 61.229934 -57.258879 56.691714 -62.362413 56.691714 -70.865686 L 56.691714 -141.734145 C 56.691714 -150.237418 61.229934 -155.340952 66.671086 -159.761398 M 75.064437 -166.227183 C 80.505589 -170.647629 85.039883 -175.751163 85.039883 -184.254436 " transform="matrix(0.995021, 0, 0, -0.995021, 115.301476, 0.991041)"/></g><g clip-path="url(#638650ad1084ac1420a7f51d083a5d441dndkub9__clip-3)"><path fill="none" stroke="rgb(0%, 0%, 0%)" stroke-linecap="butt" stroke-linejoin="miter" stroke-miterlimit="10" stroke-opacity="1" stroke-width="1.99255" d="M 56.691714 -0.00115204 L 56.691714 -28.345395 C 56.691714 -49.607503 85.039883 -49.607503 85.039883 -70.865686 L 85.039883 -85.041733 C 85.039883 -106.299915 113.388052 -106.299915 113.388052 -127.562024 L 113.388052 -184.254436 " transform="matrix(0.995021, 0, 0, -0.995021, 115.301476, 0.991041)"/></g><path fill="none" stroke="rgb(0%, 0%, 0%)" stroke-linecap="butt" stroke-linejoin="miter" stroke-miterlimit="10" stroke-opacity="1" stroke-width="0.79701" d="M -8.503971 -0.00115204 L 121.891325 -0.00115204 " transform="matrix(0.995021, 0, 0, -0.995021, 115.301476, 0.991041)"/><g clip-path="url(#638650ad1084ac1420a7f51d083a5d441dndkub9__clip-4)"><path fill="none" stroke="rgb(0%, 0%, 0%)" stroke-linecap="butt" stroke-linejoin="miter" stroke-miterlimit="10" stroke-opacity="1" stroke-width="0.79701" d="M -8.503971 -185.671648 L 121.891325 -185.671648 " transform="matrix(0.995021, 0, 0, -0.995021, 115.301476, 0.991041)"/></g></svg>