<?xml version="1.0" encoding="UTF-8"?><svg xmlns="http://www.w3.org/2000/svg" xmlns:xlink="http://www.w3.org/1999/xlink" width="457.139" height="52.442" viewBox="0 0 457.139 52.442"><defs><g><g id="3caadae7d50c2917ac7df4804b6c5511sy06pj4r__glyph-0-0"><path d="M 1.890625 -2.46875 C 1.890625 -2.75 1.65625 -2.984375 1.375 -2.984375 C 1.078125 -2.984375 0.84375 -2.75 0.84375 -2.46875 C 0.84375 -2.171875 1.078125 -1.9375 1.375 -1.9375 C 1.65625 -1.9375 1.890625 -2.171875 1.890625 -2.46875 Z M 1.890625 -2.46875 "/></g><g id="3caadae7d50c2917ac7df4804b6c5511sy06pj4r__glyph-0-1"><path d="M 6.03125 -3.75 C 6.03125 -5.25 4.515625 -5.890625 3.28125 -5.890625 C 2 -5.890625 0.546875 -5.203125 0.546875 -3.75 L 0.546875 -0.140625 C 0.546875 0.046875 0.546875 0.21875 0.734375 0.21875 C 0.9375 0.21875 0.9375 0.046875 0.9375 -0.140625 L 0.9375 -3.703125 C 0.9375 -5.1875 2.546875 -5.5 3.28125 -5.5 C 3.734375 -5.5 4.34375 -5.40625 4.875 -5.078125 C 5.625 -4.59375 5.625 -3.96875 5.625 -3.703125 L 5.625 -0.140625 C 5.625 0.046875 5.625 0.21875 5.828125 0.21875 C 6.03125 0.21875 6.03125 0.046875 6.03125 -0.140625 Z M 6.03125 -3.75 "/></g><g id="3caadae7d50c2917ac7df4804b6c5511sy06pj4r__glyph-1-0"><path d="M 2.828125 -6.734375 C 2.828125 -6.75 2.828125 -6.84375 2.703125 -6.84375 C 2.46875 -6.84375 1.75 -6.765625 1.5 -6.75 C 1.421875 -6.734375 1.3125 -6.71875 1.3125 -6.546875 C 1.3125 -6.421875 1.40625 -6.421875 1.546875 -6.421875 C 2.015625 -6.421875 2.046875 -6.359375 2.046875 -6.265625 L 2.015625 -6.0625 L 0.578125 -0.390625 C 0.546875 -0.25 0.546875 -0.234375 0.546875 -0.171875 C 0.546875 0.0625 0.734375 0.109375 0.828125 0.109375 C 0.984375 0.109375 1.140625 -0.015625 1.1875 -0.140625 L 1.375 -0.890625 L 1.59375 -1.78125 C 1.65625 -2 1.71875 -2.21875 1.765625 -2.4375 C 1.78125 -2.5 1.859375 -2.828125 1.875 -2.890625 C 1.90625 -2.984375 2.203125 -3.53125 2.546875 -3.796875 C 2.765625 -3.953125 3.0625 -4.140625 3.484375 -4.140625 C 3.921875 -4.140625 4.015625 -3.8125 4.015625 -3.453125 C 4.015625 -2.921875 3.640625 -1.84375 3.40625 -1.25 C 3.328125 -1.015625 3.28125 -0.890625 3.28125 -0.703125 C 3.28125 -0.234375 3.625 0.109375 4.09375 0.109375 C 5.015625 0.109375 5.390625 -1.328125 5.390625 -1.40625 C 5.390625 -1.515625 5.296875 -1.515625 5.265625 -1.515625 C 5.171875 -1.515625 5.171875 -1.484375 5.109375 -1.328125 C 4.96875 -0.8125 4.65625 -0.109375 4.109375 -0.109375 C 3.9375 -0.109375 3.875 -0.203125 3.875 -0.4375 C 3.875 -0.6875 3.96875 -0.921875 4.046875 -1.140625 C 4.203125 -1.5625 4.65625 -2.734375 4.65625 -3.296875 C 4.65625 -3.9375 4.265625 -4.359375 3.515625 -4.359375 C 2.90625 -4.359375 2.421875 -4.046875 2.0625 -3.59375 Z M 2.828125 -6.734375 "/></g><g id="3caadae7d50c2917ac7df4804b6c5511sy06pj4r__glyph-1-1"><path d="M 1.578125 -0.765625 C 1.484375 -0.390625 1.453125 -0.3125 0.6875 -0.3125 C 0.515625 -0.3125 0.421875 -0.3125 0.421875 -0.109375 C 0.421875 0 0.5 0 0.6875 0 L 4.203125 0 C 5.765625 0 6.921875 -1.15625 6.921875 -2.125 C 6.921875 -2.84375 6.34375 -3.40625 5.390625 -3.515625 C 6.421875 -3.703125 7.453125 -4.4375 7.453125 -5.375 C 7.453125 -6.109375 6.796875 -6.734375 5.625 -6.734375 L 2.3125 -6.734375 C 2.125 -6.734375 2.015625 -6.734375 2.015625 -6.53125 C 2.015625 -6.421875 2.109375 -6.421875 2.296875 -6.421875 C 2.3125 -6.421875 2.5 -6.421875 2.671875 -6.40625 C 2.84375 -6.390625 2.9375 -6.375 2.9375 -6.25 C 2.9375 -6.21875 2.921875 -6.1875 2.90625 -6.0625 Z M 3.0625 -3.609375 L 3.671875 -6.046875 C 3.765625 -6.40625 3.78125 -6.421875 4.203125 -6.421875 L 5.484375 -6.421875 C 6.34375 -6.421875 6.5625 -5.84375 6.5625 -5.40625 C 6.5625 -4.546875 5.703125 -3.609375 4.5 -3.609375 Z M 2.625 -0.3125 C 2.484375 -0.3125 2.46875 -0.3125 2.40625 -0.3125 C 2.3125 -0.328125 2.28125 -0.328125 2.28125 -0.421875 C 2.28125 -0.4375 2.28125 -0.46875 2.328125 -0.640625 L 3 -3.390625 L 4.875 -3.390625 C 5.8125 -3.390625 6 -2.65625 6 -2.234375 C 6 -1.265625 5.125 -0.3125 3.96875 -0.3125 Z M 2.625 -0.3125 "/></g><g id="3caadae7d50c2917ac7df4804b6c5511sy06pj4r__glyph-1-2"><path d="M 2 -0.015625 C 2 -0.65625 1.75 -1.046875 1.375 -1.046875 C 1.046875 -1.046875 0.84375 -0.796875 0.84375 -0.515625 C 0.84375 -0.25 1.046875 0 1.375 0 C 1.484375 0 1.609375 -0.046875 1.71875 -0.125 C 1.75 -0.140625 1.75 -0.15625 1.765625 -0.15625 C 1.78125 -0.15625 1.78125 -0.140625 1.78125 -0.015625 C 1.78125 0.71875 1.4375 1.3125 1.109375 1.640625 C 1 1.75 1 1.765625 1 1.796875 C 1 1.859375 1.0625 1.90625 1.109375 1.90625 C 1.21875 1.90625 2 1.140625 2 -0.015625 Z M 2 -0.015625 "/></g><g id="3caadae7d50c2917ac7df4804b6c5511sy06pj4r__glyph-1-3"><path d="M 1.765625 -1.140625 C 1.375 -0.46875 0.984375 -0.328125 0.546875 -0.3125 C 0.4375 -0.296875 0.34375 -0.296875 0.34375 -0.109375 C 0.34375 -0.046875 0.390625 0 0.46875 0 C 0.734375 0 1.046875 -0.03125 1.328125 -0.03125 C 1.640625 -0.03125 1.984375 0 2.3125 0 C 2.359375 0 2.5 0 2.5 -0.1875 C 2.5 -0.296875 2.40625 -0.3125 2.34375 -0.3125 C 2.109375 -0.328125 1.875 -0.40625 1.875 -0.65625 C 1.875 -0.765625 1.9375 -0.875 2.015625 -1.015625 L 2.765625 -2.28125 L 5.234375 -2.28125 C 5.25 -2.078125 5.390625 -0.734375 5.390625 -0.625 C 5.390625 -0.328125 4.875 -0.3125 4.6875 -0.3125 C 4.546875 -0.3125 4.453125 -0.3125 4.453125 -0.109375 C 4.453125 0 4.5625 0 4.578125 0 C 4.984375 0 5.40625 -0.03125 5.8125 -0.03125 C 6.0625 -0.03125 6.6875 0 6.9375 0 C 6.984375 0 7.109375 0 7.109375 -0.203125 C 7.109375 -0.3125 7.015625 -0.3125 6.875 -0.3125 C 6.265625 -0.3125 6.265625 -0.375 6.234375 -0.65625 L 5.640625 -6.828125 C 5.625 -7.015625 5.625 -7.0625 5.453125 -7.0625 C 5.296875 -7.0625 5.25 -6.984375 5.203125 -6.890625 Z M 2.953125 -2.578125 L 4.890625 -5.84375 L 5.203125 -2.578125 Z M 2.953125 -2.578125 "/></g><g id="3caadae7d50c2917ac7df4804b6c5511sy06pj4r__glyph-1-4"><path d="M 4.78125 -4.046875 L 3.953125 -6.015625 C 3.921875 -6.09375 3.90625 -6.125 3.90625 -6.140625 C 3.90625 -6.203125 4.078125 -6.390625 4.484375 -6.421875 C 4.578125 -6.4375 4.6875 -6.453125 4.6875 -6.609375 C 4.6875 -6.734375 4.5625 -6.734375 4.53125 -6.734375 C 4.125 -6.734375 3.703125 -6.703125 3.296875 -6.703125 C 3.046875 -6.703125 2.4375 -6.734375 2.1875 -6.734375 C 2.125 -6.734375 2.015625 -6.734375 2.015625 -6.53125 C 2.015625 -6.421875 2.109375 -6.421875 2.234375 -6.421875 C 2.828125 -6.421875 2.890625 -6.328125 2.984375 -6.109375 L 4.140625 -3.359375 L 2.0625 -1.125 L 1.9375 -1.015625 C 1.453125 -0.5 0.984375 -0.328125 0.484375 -0.3125 C 0.359375 -0.296875 0.265625 -0.296875 0.265625 -0.109375 C 0.265625 -0.09375 0.265625 0 0.390625 0 C 0.6875 0 1.015625 -0.03125 1.328125 -0.03125 C 1.6875 -0.03125 2.078125 0 2.421875 0 C 2.484375 0 2.609375 0 2.609375 -0.203125 C 2.609375 -0.296875 2.5 -0.3125 2.484375 -0.3125 C 2.390625 -0.3125 2.09375 -0.328125 2.09375 -0.609375 C 2.09375 -0.765625 2.234375 -0.921875 2.359375 -1.0625 L 3.359375 -2.125 L 4.25 -3.09375 L 5.25 -0.734375 C 5.28125 -0.625 5.296875 -0.609375 5.296875 -0.59375 C 5.296875 -0.515625 5.109375 -0.34375 4.71875 -0.3125 C 4.609375 -0.296875 4.53125 -0.28125 4.53125 -0.125 C 4.53125 0 4.640625 0 4.671875 0 C 4.953125 0 5.640625 -0.03125 5.921875 -0.03125 C 6.15625 -0.03125 6.765625 0 7.015625 0 C 7.078125 0 7.203125 0 7.203125 -0.1875 C 7.203125 -0.3125 7.09375 -0.3125 7.015625 -0.3125 C 6.359375 -0.3125 6.34375 -0.34375 6.171875 -0.734375 C 5.78125 -1.65625 5.125 -3.1875 4.90625 -3.78125 C 5.578125 -4.46875 6.609375 -5.65625 6.921875 -5.921875 C 7.203125 -6.15625 7.578125 -6.40625 8.171875 -6.421875 C 8.296875 -6.4375 8.390625 -6.4375 8.390625 -6.625 C 8.390625 -6.640625 8.390625 -6.734375 8.265625 -6.734375 C 7.96875 -6.734375 7.640625 -6.703125 7.328125 -6.703125 C 6.96875 -6.703125 6.59375 -6.734375 6.234375 -6.734375 C 6.1875 -6.734375 6.046875 -6.734375 6.046875 -6.53125 C 6.046875 -6.46875 6.109375 -6.4375 6.171875 -6.421875 C 6.265625 -6.421875 6.5625 -6.40625 6.5625 -6.125 C 6.5625 -5.984375 6.453125 -5.859375 6.375 -5.765625 Z M 4.78125 -4.046875 "/></g><g id="3caadae7d50c2917ac7df4804b6c5511sy06pj4r__glyph-2-0"><path d="M 0.84375 -0.4375 C 0.8125 -0.34375 0.78125 -0.171875 0.78125 -0.15625 C 0.78125 0 0.890625 0.0625 1.015625 0.0625 C 1.125 0.0625 1.25 -0.015625 1.28125 -0.078125 C 1.3125 -0.140625 1.375 -0.359375 1.40625 -0.515625 C 1.4375 -0.640625 1.515625 -0.953125 1.546875 -1.125 C 1.59375 -1.28125 1.640625 -1.4375 1.671875 -1.59375 C 1.75 -1.875 1.765625 -1.9375 1.96875 -2.21875 C 2.15625 -2.5 2.484375 -2.859375 3 -2.859375 C 3.390625 -2.859375 3.40625 -2.5 3.40625 -2.375 C 3.40625 -1.953125 3.109375 -1.1875 3 -0.890625 C 2.921875 -0.703125 2.890625 -0.640625 2.890625 -0.53125 C 2.890625 -0.15625 3.203125 0.0625 3.546875 0.0625 C 4.234375 0.0625 4.546875 -0.890625 4.546875 -0.984375 C 4.546875 -1.078125 4.453125 -1.078125 4.4375 -1.078125 C 4.34375 -1.078125 4.328125 -1.03125 4.296875 -0.953125 C 4.140625 -0.40625 3.84375 -0.125 3.578125 -0.125 C 3.421875 -0.125 3.390625 -0.21875 3.390625 -0.359375 C 3.390625 -0.53125 3.4375 -0.609375 3.5625 -0.921875 C 3.640625 -1.140625 3.921875 -1.875 3.921875 -2.265625 C 3.921875 -2.921875 3.390625 -3.046875 3.03125 -3.046875 C 2.453125 -3.046875 2.0625 -2.6875 1.859375 -2.421875 C 1.8125 -2.890625 1.40625 -3.046875 1.125 -3.046875 C 0.828125 -3.046875 0.65625 -2.828125 0.578125 -2.671875 C 0.421875 -2.421875 0.328125 -2.03125 0.328125 -1.984375 C 0.328125 -1.90625 0.421875 -1.90625 0.4375 -1.90625 C 0.53125 -1.90625 0.546875 -1.921875 0.59375 -2.109375 C 0.703125 -2.515625 0.828125 -2.859375 1.09375 -2.859375 C 1.28125 -2.859375 1.328125 -2.703125 1.328125 -2.515625 C 1.328125 -2.375 1.265625 -2.125 1.21875 -1.9375 C 1.171875 -1.75 1.09375 -1.46875 1.0625 -1.3125 Z M 0.84375 -0.4375 "/></g><g id="3caadae7d50c2917ac7df4804b6c5511sy06pj4r__glyph-3-0"><path d="M 3.203125 -1.5625 L 5.3125 -1.5625 C 5.40625 -1.5625 5.5625 -1.5625 5.5625 -1.734375 C 5.5625 -1.90625 5.40625 -1.90625 5.3125 -1.90625 L 3.203125 -1.90625 L 3.203125 -4.015625 C 3.203125 -4.109375 3.203125 -4.28125 3.03125 -4.28125 C 2.859375 -4.28125 2.859375 -4.109375 2.859375 -4.015625 L 2.859375 -1.90625 L 0.734375 -1.90625 C 0.65625 -1.90625 0.484375 -1.90625 0.484375 -1.734375 C 0.484375 -1.5625 0.640625 -1.5625 0.734375 -1.5625 L 2.859375 -1.5625 L 2.859375 0.5625 C 2.859375 0.65625 2.859375 0.8125 3.03125 0.8125 C 3.203125 0.8125 3.203125 0.65625 3.203125 0.5625 Z M 3.203125 -1.5625 "/></g><g id="3caadae7d50c2917ac7df4804b6c5511sy06pj4r__glyph-3-1"><path d="M 2.3125 -4.390625 C 2.3125 -4.578125 2.296875 -4.578125 2.109375 -4.578125 C 1.671875 -4.15625 1.03125 -4.140625 0.75 -4.140625 L 0.75 -3.890625 C 0.921875 -3.890625 1.375 -3.890625 1.75 -4.09375 L 1.75 -0.5625 C 1.75 -0.34375 1.75 -0.25 1.0625 -0.25 L 0.796875 -0.25 L 0.796875 0 C 0.921875 0 1.78125 -0.03125 2.03125 -0.03125 C 2.25 -0.03125 3.109375 0 3.265625 0 L 3.265625 -0.25 L 3 -0.25 C 2.3125 -0.25 2.3125 -0.34375 2.3125 -0.5625 Z M 2.3125 -4.390625 "/></g><g id="3caadae7d50c2917ac7df4804b6c5511sy06pj4r__glyph-3-2"><path d="M 5.296875 -2.328125 C 5.40625 -2.328125 5.5625 -2.328125 5.5625 -2.5 C 5.5625 -2.65625 5.40625 -2.65625 5.3125 -2.65625 L 0.734375 -2.65625 C 0.65625 -2.65625 0.484375 -2.65625 0.484375 -2.5 C 0.484375 -2.328125 0.640625 -2.328125 0.75 -2.328125 Z M 5.3125 -0.796875 C 5.40625 -0.796875 5.5625 -0.796875 5.5625 -0.96875 C 5.5625 -1.140625 5.40625 -1.140625 5.296875 -1.140625 L 0.75 -1.140625 C 0.640625 -1.140625 0.484375 -1.140625 0.484375 -0.96875 C 0.484375 -0.796875 0.65625 -0.796875 0.734375 -0.796875 Z M 5.3125 -0.796875 "/></g><g id="3caadae7d50c2917ac7df4804b6c5511sy06pj4r__glyph-4-0"><path d="M 3.265625 2.359375 C 3.265625 2.34375 3.265625 2.3125 3.09375 2.15625 C 1.859375 0.90625 1.546875 -0.953125 1.546875 -2.46875 C 1.546875 -4.1875 1.921875 -5.890625 3.140625 -7.125 C 3.265625 -7.25 3.265625 -7.265625 3.265625 -7.296875 C 3.265625 -7.359375 3.21875 -7.390625 3.171875 -7.390625 C 3.0625 -7.390625 2.171875 -6.71875 1.59375 -5.46875 C 1.09375 -4.390625 0.96875 -3.296875 0.96875 -2.46875 C 0.96875 -1.703125 1.078125 -0.5 1.625 0.609375 C 2.21875 1.828125 3.0625 2.46875 3.171875 2.46875 C 3.21875 2.46875 3.265625 2.4375 3.265625 2.359375 Z M 3.265625 2.359375 "/></g><g id="3caadae7d50c2917ac7df4804b6c5511sy06pj4r__glyph-4-1"><path d="M 2.84375 -2.46875 C 2.84375 -3.234375 2.734375 -4.421875 2.203125 -5.546875 C 1.609375 -6.75 0.765625 -7.390625 0.65625 -7.390625 C 0.59375 -7.390625 0.5625 -7.359375 0.5625 -7.296875 C 0.5625 -7.265625 0.5625 -7.25 0.75 -7.0625 C 1.71875 -6.09375 2.28125 -4.53125 2.28125 -2.46875 C 2.28125 -0.78125 1.90625 0.953125 0.6875 2.203125 C 0.5625 2.3125 0.5625 2.34375 0.5625 2.359375 C 0.5625 2.421875 0.59375 2.46875 0.65625 2.46875 C 0.765625 2.46875 1.640625 1.796875 2.234375 0.546875 C 2.734375 -0.546875 2.84375 -1.640625 2.84375 -2.46875 Z M 2.84375 -2.46875 "/></g><g id="3caadae7d50c2917ac7df4804b6c5511sy06pj4r__glyph-5-0"><path d="M 5.625 -2.375 C 5.625 -2.640625 5.53125 -2.640625 5.515625 -2.640625 C 5.40625 -2.640625 5.390625 -2.453125 5.390625 -2.359375 C 5.359375 -1.859375 5 -1.28125 4.34375 -1.28125 C 3.859375 -1.28125 3.515625 -1.609375 3.125 -1.953125 C 2.765625 -2.28125 2.34375 -2.65625 1.8125 -2.65625 C 1.015625 -2.65625 0.53125 -1.84375 0.53125 -1.078125 C 0.53125 -0.8125 0.625 -0.8125 0.65625 -0.8125 C 0.75 -0.8125 0.765625 -0.984375 0.765625 -1.09375 C 0.796875 -1.59375 1.15625 -2.171875 1.8125 -2.171875 C 2.296875 -2.171875 2.65625 -1.84375 3.03125 -1.5 C 3.390625 -1.171875 3.8125 -0.796875 4.34375 -0.796875 C 5.140625 -0.796875 5.625 -1.609375 5.625 -2.375 Z M 5.625 -2.375 "/></g></g></defs><g fill="rgb(0%, 0%, 0%)" fill-opacity="1"><use xlink:href="#3caadae7d50c2917ac7df4804b6c5511sy06pj4r__glyph-0-0" x="37.558915" y="11.000946"/></g><g fill="rgb(0%, 0%, 0%)" fill-opacity="1"><use xlink:href="#3caadae7d50c2917ac7df4804b6c5511sy06pj4r__glyph-0-0" x="41.943625" y="11.000946"/></g><g fill="rgb(0%, 0%, 0%)" fill-opacity="1"><use xlink:href="#3caadae7d50c2917ac7df4804b6c5511sy06pj4r__glyph-0-0" x="46.318477" y="11.000946"/></g><g fill="rgb(0%, 0%, 0%)" fill-opacity="1"><use xlink:href="#3caadae7d50c2917ac7df4804b6c5511sy06pj4r__glyph-1-0" x="81.206491" y="11.000946"/></g><g fill="rgb(0%, 0%, 0%)" fill-opacity="1"><use xlink:href="#3caadae7d50c2917ac7df4804b6c5511sy06pj4r__glyph-2-0" x="86.886058" y="12.479217"/></g><g fill="rgb(0%, 0%, 0%)" fill-opacity="1"><use xlink:href="#3caadae7d50c2917ac7df4804b6c5511sy06pj4r__glyph-3-0" x="91.759105" y="12.479217"/><use xlink:href="#3caadae7d50c2917ac7df4804b6c5511sy06pj4r__glyph-3-1" x="97.810736" y="12.479217"/></g><g fill="rgb(0%, 0%, 0%)" fill-opacity="1"><use xlink:href="#3caadae7d50c2917ac7df4804b6c5511sy06pj4r__glyph-4-0" x="102.232764" y="11.000946"/></g><g fill="rgb(0%, 0%, 0%)" fill-opacity="1"><use xlink:href="#3caadae7d50c2917ac7df4804b6c5511sy06pj4r__glyph-1-1" x="106.066428" y="11.000946"/></g><g fill="rgb(0%, 0%, 0%)" fill-opacity="1"><use xlink:href="#3caadae7d50c2917ac7df4804b6c5511sy06pj4r__glyph-1-2" x="114.036387" y="11.000946"/></g><g fill="rgb(0%, 0%, 0%)" fill-opacity="1"><use xlink:href="#3caadae7d50c2917ac7df4804b6c5511sy06pj4r__glyph-1-3" x="118.421097" y="11.000946"/></g><g fill="rgb(0%, 0%, 0%)" fill-opacity="1"><use xlink:href="#3caadae7d50c2917ac7df4804b6c5511sy06pj4r__glyph-0-1" x="128.002792" y="11.000946"/></g><g fill="rgb(0%, 0%, 0%)" fill-opacity="1"><use xlink:href="#3caadae7d50c2917ac7df4804b6c5511sy06pj4r__glyph-1-1" x="136.763339" y="11.000946"/></g><g fill="rgb(0%, 0%, 0%)" fill-opacity="1"><use xlink:href="#3caadae7d50c2917ac7df4804b6c5511sy06pj4r__glyph-4-1" x="144.733298" y="11.000946"/></g><g fill="rgb(0%, 0%, 0%)" fill-opacity="1"><use xlink:href="#3caadae7d50c2917ac7df4804b6c5511sy06pj4r__glyph-1-0" x="180.718649" y="11.000946"/></g><g fill="rgb(0%, 0%, 0%)" fill-opacity="1"><use xlink:href="#3caadae7d50c2917ac7df4804b6c5511sy06pj4r__glyph-2-0" x="186.398216" y="12.479217"/></g><g fill="rgb(0%, 0%, 0%)" fill-opacity="1"><use xlink:href="#3caadae7d50c2917ac7df4804b6c5511sy06pj4r__glyph-4-0" x="191.764121" y="11.000946"/></g><g fill="rgb(0%, 0%, 0%)" fill-opacity="1"><use xlink:href="#3caadae7d50c2917ac7df4804b6c5511sy06pj4r__glyph-1-3" x="195.597785" y="11.000946"/></g><g fill="rgb(0%, 0%, 0%)" fill-opacity="1"><use xlink:href="#3caadae7d50c2917ac7df4804b6c5511sy06pj4r__glyph-0-1" x="205.17948" y="11.000946"/></g><g fill="rgb(0%, 0%, 0%)" fill-opacity="1"><use xlink:href="#3caadae7d50c2917ac7df4804b6c5511sy06pj4r__glyph-1-1" x="213.940027" y="11.000946"/></g><g fill="rgb(0%, 0%, 0%)" fill-opacity="1"><use xlink:href="#3caadae7d50c2917ac7df4804b6c5511sy06pj4r__glyph-4-1" x="221.919844" y="11.000946"/></g><g fill="rgb(0%, 0%, 0%)" fill-opacity="1"><use xlink:href="#3caadae7d50c2917ac7df4804b6c5511sy06pj4r__glyph-1-0" x="258.380303" y="11.000946"/></g><g fill="rgb(0%, 0%, 0%)" fill-opacity="1"><use xlink:href="#3caadae7d50c2917ac7df4804b6c5511sy06pj4r__glyph-2-0" x="264.059871" y="12.479217"/></g><g fill="rgb(0%, 0%, 0%)" fill-opacity="1"><use xlink:href="#3caadae7d50c2917ac7df4804b6c5511sy06pj4r__glyph-4-0" x="269.425776" y="11.000946"/></g><g fill="rgb(0%, 0%, 0%)" fill-opacity="1"><use xlink:href="#3caadae7d50c2917ac7df4804b6c5511sy06pj4r__glyph-1-1" x="273.25944" y="11.000946"/></g><g fill="rgb(0%, 0%, 0%)" fill-opacity="1"><use xlink:href="#3caadae7d50c2917ac7df4804b6c5511sy06pj4r__glyph-4-1" x="281.229399" y="11.000946"/></g><g fill="rgb(0%, 0%, 0%)" fill-opacity="1"><use xlink:href="#3caadae7d50c2917ac7df4804b6c5511sy06pj4r__glyph-1-0" x="317.696163" y="11.000946"/></g><g fill="rgb(0%, 0%, 0%)" fill-opacity="1"><use xlink:href="#3caadae7d50c2917ac7df4804b6c5511sy06pj4r__glyph-2-0" x="323.375731" y="12.479217"/></g><g fill="rgb(0%, 0%, 0%)" fill-opacity="1"><use xlink:href="#3caadae7d50c2917ac7df4804b6c5511sy06pj4r__glyph-4-0" x="328.741636" y="11.000946"/></g><g fill="rgb(0%, 0%, 0%)" fill-opacity="1"><use xlink:href="#3caadae7d50c2917ac7df4804b6c5511sy06pj4r__glyph-1-1" x="332.575299" y="11.000946"/></g><g fill="rgb(0%, 0%, 0%)" fill-opacity="1"><use xlink:href="#3caadae7d50c2917ac7df4804b6c5511sy06pj4r__glyph-1-2" x="340.545259" y="11.000946"/></g><g fill="rgb(0%, 0%, 0%)" fill-opacity="1"><use xlink:href="#3caadae7d50c2917ac7df4804b6c5511sy06pj4r__glyph-1-3" x="344.929968" y="11.000946"/></g><g fill="rgb(0%, 0%, 0%)" fill-opacity="1"><use xlink:href="#3caadae7d50c2917ac7df4804b6c5511sy06pj4r__glyph-0-1" x="354.511663" y="11.000946"/></g><g fill="rgb(0%, 0%, 0%)" fill-opacity="1"><use xlink:href="#3caadae7d50c2917ac7df4804b6c5511sy06pj4r__glyph-1-1" x="363.272211" y="11.000946"/></g><g fill="rgb(0%, 0%, 0%)" fill-opacity="1"><use xlink:href="#3caadae7d50c2917ac7df4804b6c5511sy06pj4r__glyph-4-1" x="371.24217" y="11.000946"/></g><g fill="rgb(0%, 0%, 0%)" fill-opacity="1"><use xlink:href="#3caadae7d50c2917ac7df4804b6c5511sy06pj4r__glyph-0-0" x="407.22752" y="11.000946"/></g><g fill="rgb(0%, 0%, 0%)" fill-opacity="1"><use xlink:href="#3caadae7d50c2917ac7df4804b6c5511sy06pj4r__glyph-0-0" x="411.61223" y="11.000946"/></g><g fill="rgb(0%, 0%, 0%)" fill-opacity="1"><use xlink:href="#3caadae7d50c2917ac7df4804b6c5511sy06pj4r__glyph-0-0" x="415.987082" y="11.000946"/></g><g fill="rgb(0%, 0%, 0%)" fill-opacity="1"><use xlink:href="#3caadae7d50c2917ac7df4804b6c5511sy06pj4r__glyph-0-0" x="37.558915" y="45.817487"/></g><g fill="rgb(0%, 0%, 0%)" fill-opacity="1"><use xlink:href="#3caadae7d50c2917ac7df4804b6c5511sy06pj4r__glyph-0-0" x="41.943625" y="45.817487"/></g><g fill="rgb(0%, 0%, 0%)" fill-opacity="1"><use xlink:href="#3caadae7d50c2917ac7df4804b6c5511sy06pj4r__glyph-0-0" x="46.318477" y="45.817487"/></g><g fill="rgb(0%, 0%, 0%)" fill-opacity="1"><use xlink:href="#3caadae7d50c2917ac7df4804b6c5511sy06pj4r__glyph-1-0" x="90.458051" y="45.817487"/></g><g fill="rgb(0%, 0%, 0%)" fill-opacity="1"><use xlink:href="#3caadae7d50c2917ac7df4804b6c5511sy06pj4r__glyph-2-0" x="96.137618" y="47.296747"/></g><g fill="rgb(0%, 0%, 0%)" fill-opacity="1"><use xlink:href="#3caadae7d50c2917ac7df4804b6c5511sy06pj4r__glyph-3-0" x="101.010665" y="47.296747"/><use xlink:href="#3caadae7d50c2917ac7df4804b6c5511sy06pj4r__glyph-3-1" x="107.062296" y="47.296747"/></g><g fill="rgb(0%, 0%, 0%)" fill-opacity="1"><use xlink:href="#3caadae7d50c2917ac7df4804b6c5511sy06pj4r__glyph-4-0" x="111.485314" y="45.817487"/></g><g fill="rgb(0%, 0%, 0%)" fill-opacity="1"><use xlink:href="#3caadae7d50c2917ac7df4804b6c5511sy06pj4r__glyph-1-4" x="115.318978" y="45.817487"/></g><g fill="rgb(0%, 0%, 0%)" fill-opacity="1"><use xlink:href="#3caadae7d50c2917ac7df4804b6c5511sy06pj4r__glyph-1-2" x="123.712818" y="45.817487"/></g><g fill="rgb(0%, 0%, 0%)" fill-opacity="1"><use xlink:href="#3caadae7d50c2917ac7df4804b6c5511sy06pj4r__glyph-1-3" x="128.08767" y="45.817487"/></g><g fill="rgb(0%, 0%, 0%)" fill-opacity="1"><use xlink:href="#3caadae7d50c2917ac7df4804b6c5511sy06pj4r__glyph-4-1" x="135.480953" y="45.817487"/></g><g fill="rgb(0%, 0%, 0%)" fill-opacity="1"><use xlink:href="#3caadae7d50c2917ac7df4804b6c5511sy06pj4r__glyph-1-0" x="190.180967" y="45.817487"/></g><g fill="rgb(0%, 0%, 0%)" fill-opacity="1"><use xlink:href="#3caadae7d50c2917ac7df4804b6c5511sy06pj4r__glyph-2-0" x="195.860534" y="47.296747"/></g><g fill="rgb(0%, 0%, 0%)" fill-opacity="1"><use xlink:href="#3caadae7d50c2917ac7df4804b6c5511sy06pj4r__glyph-4-0" x="201.226439" y="45.817487"/></g><g fill="rgb(0%, 0%, 0%)" fill-opacity="1"><use xlink:href="#3caadae7d50c2917ac7df4804b6c5511sy06pj4r__glyph-1-3" x="205.060103" y="45.817487"/></g><g fill="rgb(0%, 0%, 0%)" fill-opacity="1"><use xlink:href="#3caadae7d50c2917ac7df4804b6c5511sy06pj4r__glyph-4-1" x="212.453386" y="45.817487"/></g><g fill="rgb(0%, 0%, 0%)" fill-opacity="1"><use xlink:href="#3caadae7d50c2917ac7df4804b6c5511sy06pj4r__glyph-1-0" x="257.896452" y="45.817487"/></g><g fill="rgb(0%, 0%, 0%)" fill-opacity="1"><use xlink:href="#3caadae7d50c2917ac7df4804b6c5511sy06pj4r__glyph-2-0" x="263.576019" y="47.296747"/></g><g fill="rgb(0%, 0%, 0%)" fill-opacity="1"><use xlink:href="#3caadae7d50c2917ac7df4804b6c5511sy06pj4r__glyph-4-0" x="268.941924" y="45.817487"/></g><g fill="rgb(0%, 0%, 0%)" fill-opacity="1"><use xlink:href="#3caadae7d50c2917ac7df4804b6c5511sy06pj4r__glyph-1-4" x="272.775588" y="45.817487"/></g><g fill="rgb(0%, 0%, 0%)" fill-opacity="1"><use xlink:href="#3caadae7d50c2917ac7df4804b6c5511sy06pj4r__glyph-4-1" x="281.711603" y="45.817487"/></g><g fill="rgb(0%, 0%, 0%)" fill-opacity="1"><use xlink:href="#3caadae7d50c2917ac7df4804b6c5511sy06pj4r__glyph-1-0" x="326.948713" y="45.817487"/></g><g fill="rgb(0%, 0%, 0%)" fill-opacity="1"><use xlink:href="#3caadae7d50c2917ac7df4804b6c5511sy06pj4r__glyph-2-0" x="332.628281" y="47.296747"/></g><g fill="rgb(0%, 0%, 0%)" fill-opacity="1"><use xlink:href="#3caadae7d50c2917ac7df4804b6c5511sy06pj4r__glyph-4-0" x="337.994186" y="45.817487"/></g><g fill="rgb(0%, 0%, 0%)" fill-opacity="1"><use xlink:href="#3caadae7d50c2917ac7df4804b6c5511sy06pj4r__glyph-1-4" x="341.827849" y="45.817487"/></g><g fill="rgb(0%, 0%, 0%)" fill-opacity="1"><use xlink:href="#3caadae7d50c2917ac7df4804b6c5511sy06pj4r__glyph-1-2" x="350.22169" y="45.817487"/></g><g fill="rgb(0%, 0%, 0%)" fill-opacity="1"><use xlink:href="#3caadae7d50c2917ac7df4804b6c5511sy06pj4r__glyph-1-3" x="354.6064" y="45.817487"/></g><g fill="rgb(0%, 0%, 0%)" fill-opacity="1"><use xlink:href="#3caadae7d50c2917ac7df4804b6c5511sy06pj4r__glyph-4-1" x="361.999683" y="45.817487"/></g><g fill="rgb(0%, 0%, 0%)" fill-opacity="1"><use xlink:href="#3caadae7d50c2917ac7df4804b6c5511sy06pj4r__glyph-0-0" x="407.22752" y="45.817487"/></g><g fill="rgb(0%, 0%, 0%)" fill-opacity="1"><use xlink:href="#3caadae7d50c2917ac7df4804b6c5511sy06pj4r__glyph-0-0" x="411.61223" y="45.817487"/></g><g fill="rgb(0%, 0%, 0%)" fill-opacity="1"><use xlink:href="#3caadae7d50c2917ac7df4804b6c5511sy06pj4r__glyph-0-0" x="415.987082" y="45.817487"/></g><path fill="none" stroke="rgb(0%, 0%, 0%)" stroke-linecap="butt" stroke-linejoin="miter" stroke-miterlimit="10" stroke-opacity="1" stroke-width="0.39848" d="M -176.501297 17.595027 L -153.390795 17.595027 " transform="matrix(0.989472, 0, 0, -0.989472, 228.143038, 25.944937)"/><path fill="none" stroke="rgb(0%, 0%, 0%)" stroke-linecap="round" stroke-linejoin="round" stroke-miterlimit="10" stroke-opacity="1" stroke-width="0.39848" d="M -2.071829 2.389444 C -1.692838 0.956388 -0.848006 0.277364 0.00077371 0.0010169 C -0.848006 -0.279278 -1.692838 -0.958302 -2.071829 -2.391358 " transform="matrix(0.989472, 0, 0, -0.989472, 76.565641, 8.536162)"/><path fill="none" stroke="rgb(0%, 0%, 0%)" stroke-linecap="butt" stroke-linejoin="miter" stroke-miterlimit="10" stroke-opacity="1" stroke-width="0.39848" d="M -75.930741 17.595027 L -52.816291 17.595027 " transform="matrix(0.989472, 0, 0, -0.989472, 228.143038, 25.944937)"/><path fill="none" stroke="rgb(0%, 0%, 0%)" stroke-linecap="round" stroke-linejoin="round" stroke-miterlimit="10" stroke-opacity="1" stroke-width="0.39848" d="M -2.073293 2.389444 C -1.694302 0.956388 -0.84947 0.277364 -0.000690366 0.0010169 C -0.84947 -0.279278 -1.694302 -0.958302 -2.073293 -2.391358 " transform="matrix(0.989472, 0, 0, -0.989472, 176.078808, 8.536162)"/><path fill="none" stroke="rgb(0%, 0%, 0%)" stroke-linecap="butt" stroke-linejoin="miter" stroke-miterlimit="10" stroke-opacity="1" stroke-width="0.39848" d="M -114.461403 8.767715 L -114.461403 -8.369744 " transform="matrix(0.989472, 0, 0, -0.989472, 228.143038, 25.944937)"/><path fill="none" stroke="rgb(0%, 0%, 0%)" stroke-linecap="round" stroke-linejoin="round" stroke-miterlimit="10" stroke-opacity="1" stroke-width="0.39848" d="M -2.073477 2.392012 C -1.694487 0.955008 -0.849655 0.279932 -0.000875013 -0.000363155 C -0.849655 -0.280658 -1.694487 -0.955734 -2.073477 -2.392738 " transform="matrix(0, 0.989472, 0.989472, 0, 114.887078, 34.422741)"/><g fill="rgb(0%, 0%, 0%)" fill-opacity="1"><use xlink:href="#3caadae7d50c2917ac7df4804b6c5511sy06pj4r__glyph-5-0" x="117.208418" y="26.191316"/></g><g fill="rgb(0%, 0%, 0%)" fill-opacity="1"><use xlink:href="#3caadae7d50c2917ac7df4804b6c5511sy06pj4r__glyph-3-2" x="117.262839" y="28.348364"/></g><path fill="none" stroke="rgb(0%, 0%, 0%)" stroke-linecap="butt" stroke-linejoin="miter" stroke-miterlimit="10" stroke-opacity="1" stroke-width="0.39848" d="M 2.070164 17.595027 L 25.670195 17.595027 " transform="matrix(0.989472, 0, 0, -0.989472, 228.143038, 25.944937)"/><path fill="none" stroke="rgb(0%, 0%, 0%)" stroke-linecap="round" stroke-linejoin="round" stroke-miterlimit="10" stroke-opacity="1" stroke-width="0.39848" d="M -2.072419 2.389444 C -1.693429 0.956388 -0.848597 0.277364 0.000183113 0.0010169 C -0.848597 -0.279278 -1.693429 -0.958302 -2.072419 -2.391358 " transform="matrix(0.989472, 0, 0, -0.989472, 253.742006, 8.536162)"/><path fill="none" stroke="rgb(0%, 0%, 0%)" stroke-linecap="butt" stroke-linejoin="miter" stroke-miterlimit="10" stroke-opacity="1" stroke-width="0.39848" d="M -25.173699 8.767715 L -25.173699 -8.369744 " transform="matrix(0.989472, 0, 0, -0.989472, 228.143038, 25.944937)"/><path fill="none" stroke="rgb(0%, 0%, 0%)" stroke-linecap="round" stroke-linejoin="round" stroke-miterlimit="10" stroke-opacity="1" stroke-width="0.39848" d="M -2.073477 2.389698 C -1.694487 0.956642 -0.849655 0.277618 -0.000875013 0.001271 C -0.849655 -0.279024 -1.694487 -0.958048 -2.073477 -2.391104 " transform="matrix(0, 0.989472, 0.989472, 0, 203.233117, 34.422741)"/><path fill="none" stroke="rgb(0%, 0%, 0%)" stroke-linecap="butt" stroke-linejoin="miter" stroke-miterlimit="10" stroke-opacity="1" stroke-width="0.39848" d="M 62.017716 17.595027 L 85.621695 17.595027 " transform="matrix(0.989472, 0, 0, -0.989472, 228.143038, 25.944937)"/><path fill="none" stroke="rgb(0%, 0%, 0%)" stroke-linecap="round" stroke-linejoin="round" stroke-miterlimit="10" stroke-opacity="1" stroke-width="0.39848" d="M -2.072717 2.389444 C -1.693727 0.956388 -0.848895 0.277364 -0.000114711 0.0010169 C -0.848895 -0.279278 -1.693727 -0.958302 -2.072717 -2.391358 " transform="matrix(0.989472, 0, 0, -0.989472, 313.058707, 8.536162)"/><path fill="none" stroke="rgb(0%, 0%, 0%)" stroke-linecap="butt" stroke-linejoin="miter" stroke-miterlimit="10" stroke-opacity="1" stroke-width="0.39848" d="M 44.04332 8.767715 L 44.04332 -8.369744 " transform="matrix(0.989472, 0, 0, -0.989472, 228.143038, 25.944937)"/><path fill="none" stroke="rgb(0%, 0%, 0%)" stroke-linecap="round" stroke-linejoin="round" stroke-miterlimit="10" stroke-opacity="1" stroke-width="0.39848" d="M -2.073477 2.391965 C -1.694487 0.954961 -0.849655 0.279885 -0.000875013 -0.00041008 C -0.849655 -0.280705 -1.694487 -0.955781 -2.073477 -2.392785 " transform="matrix(0, 0.989472, 0.989472, 0, 271.723062, 34.422741)"/><path fill="none" stroke="rgb(0%, 0%, 0%)" stroke-linecap="butt" stroke-linejoin="miter" stroke-miterlimit="10" stroke-opacity="1" stroke-width="0.39848" d="M 152.991137 17.595027 L 176.105586 17.595027 " transform="matrix(0.989472, 0, 0, -0.989472, 228.143038, 25.944937)"/><path fill="none" stroke="rgb(0%, 0%, 0%)" stroke-linecap="round" stroke-linejoin="round" stroke-miterlimit="10" stroke-opacity="1" stroke-width="0.39848" d="M -2.073505 2.389444 C -1.694515 0.956388 -0.849683 0.277364 -0.000902983 0.0010169 C -0.849683 -0.279278 -1.694515 -0.958302 -2.073505 -2.391358 " transform="matrix(0.989472, 0, 0, -0.989472, 402.590737, 8.536162)"/><path fill="none" stroke="rgb(0%, 0%, 0%)" stroke-linecap="butt" stroke-linejoin="miter" stroke-miterlimit="10" stroke-opacity="1" stroke-width="0.39848" d="M 119.50578 8.767715 L 119.50578 -8.369744 " transform="matrix(0.989472, 0, 0, -0.989472, 228.143038, 25.944937)"/><path fill="none" stroke="rgb(0%, 0%, 0%)" stroke-linecap="round" stroke-linejoin="round" stroke-miterlimit="10" stroke-opacity="1" stroke-width="0.39848" d="M -2.073477 2.389498 C -1.694487 0.956441 -0.849655 0.277417 -0.000875013 0.00107023 C -0.849655 -0.279225 -1.694487 -0.958249 -2.073477 -2.391305 " transform="matrix(0, 0.989472, 0.989472, 0, 346.389566, 34.422741)"/><g fill="rgb(0%, 0%, 0%)" fill-opacity="1"><use xlink:href="#3caadae7d50c2917ac7df4804b6c5511sy06pj4r__glyph-5-0" x="348.708185" y="26.191316"/></g><g fill="rgb(0%, 0%, 0%)" fill-opacity="1"><use xlink:href="#3caadae7d50c2917ac7df4804b6c5511sy06pj4r__glyph-3-2" x="348.762606" y="28.348364"/></g><path fill="none" stroke="rgb(0%, 0%, 0%)" stroke-linecap="butt" stroke-linejoin="miter" stroke-miterlimit="10" stroke-opacity="1" stroke-width="0.39848" d="M -176.501297 -17.595785 L -144.038424 -17.595785 " transform="matrix(0.989472, 0, 0, -0.989472, 228.143038, 25.944937)"/><path fill="none" stroke="rgb(0%, 0%, 0%)" stroke-linecap="round" stroke-linejoin="round" stroke-miterlimit="10" stroke-opacity="1" stroke-width="0.39848" d="M -2.073856 2.39059 C -1.694865 0.957534 -0.850033 0.27851 -0.00125327 -0.00178509 C -0.850033 -0.278132 -1.694865 -0.957156 -2.073856 -2.390212 " transform="matrix(0.989472, 0, 0, -0.989472, 85.817646, 43.353702)"/><path fill="none" stroke="rgb(0%, 0%, 0%)" stroke-linecap="butt" stroke-linejoin="miter" stroke-miterlimit="10" stroke-opacity="1" stroke-width="0.39848" d="M -85.283112 -17.595785 L -43.254686 -17.595785 " transform="matrix(0.989472, 0, 0, -0.989472, 228.143038, 25.944937)"/><path fill="none" stroke="rgb(0%, 0%, 0%)" stroke-linecap="round" stroke-linejoin="round" stroke-miterlimit="10" stroke-opacity="1" stroke-width="0.39848" d="M -2.07091 2.39059 C -1.69192 0.957534 -0.851035 0.27851 0.00169241 -0.00178509 C -0.851035 -0.278132 -1.69192 -0.957156 -2.07091 -2.390212 " transform="matrix(0.989472, 0, 0, -0.989472, 185.541294, 43.353702)"/><path fill="none" stroke="rgb(0%, 0%, 0%)" stroke-linecap="butt" stroke-linejoin="miter" stroke-miterlimit="10" stroke-opacity="1" stroke-width="0.39848" d="M -7.495389 -17.595785 L 25.184614 -17.595785 " transform="matrix(0.989472, 0, 0, -0.989472, 228.143038, 25.944937)"/><path fill="none" stroke="rgb(0%, 0%, 0%)" stroke-linecap="round" stroke-linejoin="round" stroke-miterlimit="10" stroke-opacity="1" stroke-width="0.39848" d="M -2.072478 2.39059 C -1.693488 0.957534 -0.848656 0.27851 0.000124205 -0.00178509 C -0.848656 -0.278132 -1.693488 -0.957156 -2.072478 -2.390212 " transform="matrix(0.989472, 0, 0, -0.989472, 253.25769, 43.353702)"/><path fill="none" stroke="rgb(0%, 0%, 0%)" stroke-linecap="butt" stroke-linejoin="miter" stroke-miterlimit="10" stroke-opacity="1" stroke-width="0.39848" d="M 62.507245 -17.595785 L 94.970118 -17.595785 " transform="matrix(0.989472, 0, 0, -0.989472, 228.143038, 25.944937)"/><path fill="none" stroke="rgb(0%, 0%, 0%)" stroke-linecap="round" stroke-linejoin="round" stroke-miterlimit="10" stroke-opacity="1" stroke-width="0.39848" d="M -2.070776 2.39059 C -1.691786 0.957534 -0.850902 0.27851 0.00182612 -0.00178509 C -0.850902 -0.278132 -1.691786 -0.957156 -2.070776 -2.390212 " transform="matrix(0.989472, 0, 0, -0.989472, 322.310693, 43.353702)"/><path fill="none" stroke="rgb(0%, 0%, 0%)" stroke-linecap="butt" stroke-linejoin="miter" stroke-miterlimit="10" stroke-opacity="1" stroke-width="0.39848" d="M 143.638766 -17.595785 L 176.105586 -17.595785 " transform="matrix(0.989472, 0, 0, -0.989472, 228.143038, 25.944937)"/><path fill="none" stroke="rgb(0%, 0%, 0%)" stroke-linecap="round" stroke-linejoin="round" stroke-miterlimit="10" stroke-opacity="1" stroke-width="0.39848" d="M -2.073505 2.39059 C -1.694515 0.957534 -0.849683 0.27851 -0.000902983 -0.00178509 C -0.849683 -0.278132 -1.694515 -0.957156 -2.073505 -2.390212 " transform="matrix(0.989472, 0, 0, -0.989472, 402.590737, 43.353702)"/></svg>