<?xml version="1.0" encoding="UTF-8"?><svg xmlns="http://www.w3.org/2000/svg" xmlns:xlink="http://www.w3.org/1999/xlink" width="343.711" height="52.601" viewBox="0 0 343.711 52.601"><defs><g><g id="90e9956e8327625b4aa03295301a7d437wepo8j0__glyph-0-0"><path d="M 5.75 -1.125 C 5.171875 -0.734375 4.84375 -0.53125 3.859375 -0.53125 C 2.4375 -0.53125 1.546875 -2.015625 1.546875 -3.4375 C 1.546875 -4.78125 2.359375 -6.34375 3.875 -6.34375 C 4.578125 -6.34375 5.03125 -6.171875 5.5625 -5.828125 L 5.703125 -6.640625 C 5.28125 -6.84375 4.515625 -6.96875 3.890625 -6.96875 C 2.0625 -6.96875 0.65625 -5.4375 0.65625 -3.359375 C 0.65625 -1.796875 1.828125 0.109375 3.890625 0.109375 C 4.796875 0.109375 5.171875 -0.046875 5.8125 -0.4375 Z M 5.75 -1.125 "/></g><g id="90e9956e8327625b4aa03295301a7d437wepo8j0__glyph-0-1"><path d="M 3.953125 -2.859375 C 3.953125 -3.875 3.21875 -4.5625 2.3125 -4.5625 C 1.671875 -4.5625 1.21875 -4.40625 0.765625 -4.140625 L 0.828125 -3.484375 C 1.328125 -3.84375 1.828125 -3.96875 2.3125 -3.96875 C 2.78125 -3.96875 3.171875 -3.578125 3.171875 -2.84375 L 3.171875 -2.421875 C 1.6875 -2.40625 0.4375 -1.984375 0.4375 -1.125 C 0.4375 -0.6875 0.703125 0.109375 1.5625 0.109375 C 1.703125 0.109375 2.625 0.09375 3.203125 -0.359375 L 3.203125 0 L 3.953125 0 Z M 3.171875 -1.3125 C 3.171875 -1.125 3.171875 -0.875 2.84375 -0.6875 C 2.546875 -0.5 2.171875 -0.5 2.0625 -0.5 C 1.59375 -0.5 1.140625 -0.71875 1.140625 -1.140625 C 1.140625 -1.828125 2.75 -1.90625 3.171875 -1.921875 Z M 3.171875 -1.3125 "/></g><g id="90e9956e8327625b4aa03295301a7d437wepo8j0__glyph-0-2"><path d="M 1.734375 -3.8125 L 3.125 -3.8125 L 3.125 -4.390625 L 1.734375 -4.390625 L 1.734375 -5.640625 L 1.046875 -5.640625 L 1.046875 -4.390625 L 0.1875 -4.390625 L 0.1875 -3.8125 L 1.015625 -3.8125 L 1.015625 -1.171875 C 1.015625 -0.578125 1.15625 0.109375 1.84375 0.109375 C 2.53125 0.109375 3.03125 -0.140625 3.28125 -0.265625 L 3.125 -0.84375 C 2.875 -0.640625 2.546875 -0.53125 2.234375 -0.53125 C 1.875 -0.53125 1.734375 -0.828125 1.734375 -1.34375 Z M 1.734375 -3.8125 "/></g><g id="90e9956e8327625b4aa03295301a7d437wepo8j0__glyph-1-0"><path d="M 5.828125 -4.171875 C 5.890625 -4.421875 5.890625 -4.484375 6.40625 -4.484375 C 6.5625 -4.484375 6.640625 -4.484375 6.640625 -4.625 C 6.640625 -4.65625 6.625 -4.734375 6.53125 -4.734375 C 6.328125 -4.734375 5.828125 -4.703125 5.625 -4.703125 C 5.515625 -4.703125 5.265625 -4.703125 5.15625 -4.703125 C 5.015625 -4.71875 4.84375 -4.734375 4.71875 -4.734375 C 4.671875 -4.734375 4.5625 -4.734375 4.5625 -4.578125 C 4.5625 -4.484375 4.65625 -4.484375 4.796875 -4.484375 C 4.796875 -4.484375 4.921875 -4.484375 5.046875 -4.46875 C 5.203125 -4.453125 5.21875 -4.4375 5.21875 -4.375 C 5.21875 -4.359375 5.21875 -4.3125 5.1875 -4.21875 L 4.78125 -2.578125 L 2.453125 -2.578125 L 2.859375 -4.1875 C 2.921875 -4.421875 2.9375 -4.484375 3.46875 -4.484375 C 3.578125 -4.484375 3.671875 -4.484375 3.671875 -4.625 C 3.671875 -4.65625 3.65625 -4.734375 3.5625 -4.734375 C 3.359375 -4.734375 2.859375 -4.703125 2.65625 -4.703125 C 2.546875 -4.703125 2.296875 -4.703125 2.1875 -4.703125 C 2.046875 -4.71875 1.875 -4.734375 1.75 -4.734375 C 1.703125 -4.734375 1.59375 -4.734375 1.59375 -4.578125 C 1.59375 -4.484375 1.6875 -4.484375 1.828125 -4.484375 C 1.828125 -4.484375 1.953125 -4.484375 2.078125 -4.46875 C 2.234375 -4.453125 2.25 -4.4375 2.25 -4.375 C 2.25 -4.359375 2.25 -4.3125 2.21875 -4.21875 L 1.296875 -0.546875 C 1.234375 -0.296875 1.21875 -0.25 0.6875 -0.25 C 0.5625 -0.25 0.484375 -0.25 0.484375 -0.109375 C 0.484375 -0.03125 0.53125 0 0.59375 0 C 0.796875 0 1.28125 -0.03125 1.484375 -0.03125 C 1.609375 -0.03125 1.84375 -0.03125 1.96875 -0.015625 C 2.109375 -0.015625 2.28125 0 2.40625 0 C 2.4375 0 2.546875 0 2.546875 -0.140625 C 2.546875 -0.25 2.484375 -0.25 2.328125 -0.25 C 2.21875 -0.25 2.1875 -0.25 2.0625 -0.265625 C 1.90625 -0.28125 1.90625 -0.296875 1.90625 -0.359375 C 1.90625 -0.375 1.90625 -0.421875 1.9375 -0.515625 L 2.390625 -2.328125 L 4.71875 -2.328125 L 4.265625 -0.546875 C 4.203125 -0.296875 4.1875 -0.25 3.65625 -0.25 C 3.53125 -0.25 3.453125 -0.25 3.453125 -0.109375 C 3.453125 -0.03125 3.5 0 3.5625 0 C 3.765625 0 4.25 -0.03125 4.453125 -0.03125 C 4.578125 -0.03125 4.8125 -0.03125 4.9375 -0.015625 C 5.078125 -0.015625 5.25 0 5.375 0 C 5.40625 0 5.53125 0 5.53125 -0.140625 C 5.53125 -0.25 5.453125 -0.25 5.296875 -0.25 C 5.1875 -0.25 5.15625 -0.25 5.03125 -0.265625 C 4.875 -0.28125 4.875 -0.296875 4.875 -0.359375 C 4.875 -0.40625 4.90625 -0.484375 4.90625 -0.515625 Z M 5.828125 -4.171875 "/></g><g id="90e9956e8327625b4aa03295301a7d437wepo8j0__glyph-1-1"><path d="M 5.828125 -4.78125 C 5.828125 -4.8125 5.8125 -4.859375 5.75 -4.859375 C 5.703125 -4.859375 5.6875 -4.859375 5.625 -4.78125 L 5.109375 -4.25 C 5.046875 -4.328125 4.671875 -4.859375 3.8125 -4.859375 C 2.125 -4.859375 0.484375 -3.375 0.484375 -1.8125 C 0.484375 -0.734375 1.296875 0.140625 2.625 0.140625 C 3.234375 0.140625 3.890625 -0.015625 4.25 -0.40625 C 4.3125 -0.25 4.5 0 4.578125 0 C 4.640625 0 4.65625 -0.03125 4.6875 -0.1875 L 4.828125 -0.71875 C 4.859375 -0.84375 4.953125 -1.25 4.984375 -1.328125 C 5.0625 -1.640625 5.0625 -1.65625 5.46875 -1.65625 C 5.53125 -1.65625 5.625 -1.65625 5.625 -1.8125 C 5.625 -1.875 5.578125 -1.90625 5.53125 -1.90625 C 5.296875 -1.90625 5 -1.875 4.765625 -1.875 C 4.59375 -1.875 4.359375 -1.875 4.1875 -1.890625 C 4.015625 -1.890625 3.8125 -1.90625 3.640625 -1.90625 C 3.59375 -1.90625 3.484375 -1.90625 3.484375 -1.765625 C 3.484375 -1.65625 3.5625 -1.65625 3.734375 -1.65625 C 3.875 -1.65625 4 -1.65625 4.140625 -1.640625 C 4.359375 -1.625 4.375 -1.59375 4.375 -1.515625 C 4.375 -1.484375 4.375 -1.46875 4.3125 -1.296875 C 4.265625 -1.09375 4.1875 -0.796875 4.171875 -0.71875 C 3.96875 -0.296875 3.328125 -0.109375 2.78125 -0.109375 C 2.09375 -0.109375 1.1875 -0.4375 1.1875 -1.609375 C 1.1875 -2.359375 1.53125 -3.28125 2.046875 -3.796875 C 2.75 -4.5 3.5 -4.609375 3.890625 -4.609375 C 4.6875 -4.609375 5.15625 -4.03125 5.15625 -3.265625 C 5.15625 -3.0625 5.140625 -3.015625 5.140625 -2.96875 C 5.140625 -2.890625 5.21875 -2.890625 5.265625 -2.890625 C 5.375 -2.890625 5.375 -2.90625 5.40625 -3.03125 Z M 5.828125 -4.78125 "/></g><g id="90e9956e8327625b4aa03295301a7d437wepo8j0__glyph-2-0"><path d="M 1.375 -4.796875 L 0.671875 -4.796875 L 0.671875 0 L 1.375 0 Z M 1.375 -4.796875 "/></g><g id="90e9956e8327625b4aa03295301a7d437wepo8j0__glyph-2-1"><path d="M 3.21875 -2.046875 C 3.21875 -2.59375 3.0625 -3.140625 2.203125 -3.140625 C 1.8125 -3.140625 1.4375 -2.984375 1.125 -2.609375 L 1.125 -3.125 L 0.578125 -3.125 L 0.578125 0 L 1.171875 0 L 1.171875 -1.6875 C 1.171875 -2.140625 1.375 -2.6875 1.90625 -2.6875 C 2.609375 -2.6875 2.609375 -2.203125 2.609375 -2 L 2.609375 0 L 3.21875 0 Z M 3.21875 -2.046875 "/></g><g id="90e9956e8327625b4aa03295301a7d437wepo8j0__glyph-2-2"><path d="M 3.203125 -4.796875 L 2.625 -4.796875 L 2.625 -2.78125 C 2.1875 -3.09375 1.734375 -3.140625 1.53125 -3.140625 C 0.796875 -3.140625 0.25 -2.421875 0.25 -1.53125 C 0.25 -0.65625 0.796875 0.0625 1.515625 0.0625 C 1.9375 0.0625 2.34375 -0.125 2.609375 -0.359375 L 2.609375 0 L 3.203125 0 Z M 2.609375 -0.859375 C 2.421875 -0.578125 2.171875 -0.390625 1.828125 -0.390625 C 1.34375 -0.390625 0.84375 -0.734375 0.84375 -1.53125 C 0.84375 -2.390625 1.4375 -2.6875 1.90625 -2.6875 C 2.1875 -2.6875 2.421875 -2.5625 2.609375 -2.328125 Z M 2.609375 -0.859375 "/></g><g id="90e9956e8327625b4aa03295301a7d437wepo8j0__glyph-2-3"><path d="M 4.28125 -0.84375 C 3.796875 -0.546875 3.578125 -0.421875 2.890625 -0.421875 C 1.8125 -0.421875 1.15625 -1.421875 1.15625 -2.421875 C 1.15625 -3.4375 1.875 -4.40625 2.890625 -4.40625 C 3.34375 -4.40625 3.8125 -4.25 4.125 -4.015625 L 4.25 -4.640625 C 3.765625 -4.828125 3.375 -4.875 2.859375 -4.875 C 1.5 -4.875 0.46875 -3.75 0.46875 -2.40625 C 0.46875 -0.984375 1.5625 0.0625 2.90625 0.0625 C 3.578125 0.0625 3.875 -0.0625 4.328125 -0.3125 Z M 4.28125 -0.84375 "/></g><g id="90e9956e8327625b4aa03295301a7d437wepo8j0__glyph-2-4"><path d="M 3.453125 -1.515625 C 3.453125 -2.421875 2.734375 -3.171875 1.828125 -3.171875 C 0.9375 -3.171875 0.203125 -2.421875 0.203125 -1.515625 C 0.203125 -0.640625 0.9375 0.0625 1.828125 0.0625 C 2.734375 0.0625 3.453125 -0.640625 3.453125 -1.515625 Z M 1.828125 -0.40625 C 1.28125 -0.40625 0.8125 -0.8125 0.8125 -1.59375 C 0.8125 -2.375 1.328125 -2.71875 1.828125 -2.71875 C 2.359375 -2.71875 2.859375 -2.359375 2.859375 -1.59375 C 2.859375 -0.796875 2.375 -0.40625 1.828125 -0.40625 Z M 1.828125 -0.40625 "/></g><g id="90e9956e8327625b4aa03295301a7d437wepo8j0__glyph-2-5"><path d="M 3.109375 -2.25 C 4.09375 -2.53125 4.34375 -3.140625 4.34375 -3.515625 C 4.34375 -4.234375 3.5 -4.796875 2.5 -4.796875 L 0.671875 -4.796875 L 0.671875 0 L 1.359375 0 L 1.359375 -2.171875 L 2.5 -2.171875 L 3.84375 0 L 4.546875 0 Z M 1.359375 -2.625 L 1.359375 -4.390625 L 2.40625 -4.390625 C 3.203125 -4.390625 3.71875 -4.015625 3.71875 -3.515625 C 3.71875 -3.03125 3.234375 -2.625 2.40625 -2.625 Z M 1.359375 -2.625 "/></g><g id="90e9956e8327625b4aa03295301a7d437wepo8j0__glyph-2-6"><path d="M 2.96875 -0.75 C 2.59375 -0.484375 2.15625 -0.390625 1.859375 -0.390625 C 1.25 -0.390625 0.796875 -0.875 0.78125 -1.515625 L 3.046875 -1.515625 C 3.046875 -1.828125 3.015625 -2.296875 2.734375 -2.6875 C 2.484375 -3.046875 2.078125 -3.171875 1.734375 -3.171875 C 0.890625 -3.171875 0.25 -2.4375 0.25 -1.5625 C 0.25 -0.671875 0.9375 0.0625 1.84375 0.0625 C 2.25 0.0625 2.671875 -0.046875 3.015625 -0.265625 Z M 0.828125 -1.9375 C 0.984375 -2.484375 1.390625 -2.71875 1.734375 -2.71875 C 2.046875 -2.71875 2.484375 -2.578125 2.625 -1.9375 Z M 0.828125 -1.9375 "/></g><g id="90e9956e8327625b4aa03295301a7d437wepo8j0__glyph-2-7"><path d="M 2.53125 -2.96875 C 2.0625 -3.15625 1.703125 -3.171875 1.453125 -3.171875 C 1.28125 -3.171875 0.25 -3.171875 0.25 -2.25 C 0.25 -1.9375 0.421875 -1.75 0.515625 -1.671875 C 0.75 -1.421875 1.046875 -1.375 1.40625 -1.296875 C 1.734375 -1.234375 2.109375 -1.171875 2.109375 -0.84375 C 2.109375 -0.40625 1.53125 -0.40625 1.4375 -0.40625 C 1 -0.40625 0.578125 -0.5625 0.296875 -0.75 L 0.203125 -0.234375 C 0.4375 -0.125 0.859375 0.0625 1.4375 0.0625 C 1.75 0.0625 2.0625 0.015625 2.3125 -0.171875 C 2.5625 -0.359375 2.65625 -0.671875 2.65625 -0.90625 C 2.65625 -1.03125 2.640625 -1.296875 2.34375 -1.5625 C 2.09375 -1.78125 1.84375 -1.828125 1.515625 -1.890625 C 1.09375 -1.96875 0.78125 -2.03125 0.78125 -2.34375 C 0.78125 -2.734375 1.28125 -2.734375 1.390625 -2.734375 C 1.78125 -2.734375 2.09375 -2.65625 2.4375 -2.46875 Z M 2.53125 -2.96875 "/></g><g id="90e9956e8327625b4aa03295301a7d437wepo8j0__glyph-3-0"><path d="M 3.234375 -0.703125 C 3.671875 -1.09375 3.90625 -1.765625 3.90625 -1.875 C 3.90625 -1.9375 3.84375 -1.9375 3.8125 -1.9375 C 3.71875 -1.9375 3.71875 -1.921875 3.6875 -1.828125 C 3.578125 -1.421875 3.34375 -1.09375 3.21875 -0.953125 C 3.203125 -1.0625 3.203125 -1.078125 3.1875 -1.21875 C 3.125 -1.953125 2.53125 -2.1875 2.078125 -2.1875 C 1.265625 -2.1875 0.53125 -1.515625 0.53125 -0.84375 C 0.53125 -0.34375 0.921875 0.046875 1.5625 0.046875 C 1.8125 0.046875 2.296875 0 2.84375 -0.375 C 2.9375 -0.15625 3.125 0.046875 3.4375 0.046875 C 3.765625 0.046875 3.953125 -0.1875 3.953125 -0.296875 C 3.953125 -0.359375 3.890625 -0.359375 3.859375 -0.359375 C 3.796875 -0.359375 3.78125 -0.359375 3.75 -0.296875 C 3.6875 -0.140625 3.5 -0.109375 3.453125 -0.109375 C 3.359375 -0.109375 3.265625 -0.203125 3.234375 -0.703125 Z M 2.796875 -0.5625 C 2.609375 -0.421875 2.15625 -0.109375 1.578125 -0.109375 C 1.28125 -0.109375 0.984375 -0.265625 0.984375 -0.6875 C 0.984375 -0.859375 1.046875 -1.3125 1.296875 -1.625 C 1.46875 -1.84375 1.765625 -2.015625 2.078125 -2.015625 C 2.578125 -2.015625 2.703125 -1.515625 2.75 -1.21875 C 2.765625 -1.109375 2.765625 -0.859375 2.796875 -0.5625 Z M 2.796875 -0.5625 "/></g><g id="90e9956e8327625b4aa03295301a7d437wepo8j0__glyph-4-0"><path d="M 4.53125 4.359375 C 4.640625 4.359375 4.796875 4.359375 4.796875 4.1875 C 4.796875 4.015625 4.640625 4.015625 4.53125 4.015625 L 2.578125 4.015625 L 2.578125 0.828125 C 2.578125 0.71875 2.578125 0.53125 2.40625 0.53125 C 2.234375 0.53125 2.234375 0.6875 2.234375 0.796875 L 2.234375 4.015625 L 0.265625 4.015625 C 0.15625 4.015625 0 4.015625 0 4.1875 C 0 4.359375 0.171875 4.359375 0.265625 4.359375 Z M 4.53125 4.359375 "/></g></g></defs><g fill="rgb(0%, 0%, 0%)" fill-opacity="1"><use xlink:href="#90e9956e8327625b4aa03295301a7d437wepo8j0__glyph-0-0" x="122.010594" y="29.320591"/><use xlink:href="#90e9956e8327625b4aa03295301a7d437wepo8j0__glyph-0-1" x="128.327781" y="29.320591"/><use xlink:href="#90e9956e8327625b4aa03295301a7d437wepo8j0__glyph-0-2" x="133.07976" y="29.320591"/></g><g fill="rgb(0%, 0%, 0%)" fill-opacity="1"><use xlink:href="#90e9956e8327625b4aa03295301a7d437wepo8j0__glyph-1-0" x="136.649551" y="30.804337"/></g><g fill="rgb(0%, 0%, 0%)" fill-opacity="1"><use xlink:href="#90e9956e8327625b4aa03295301a7d437wepo8j0__glyph-0-0" x="200.124071" y="29.320591"/><use xlink:href="#90e9956e8327625b4aa03295301a7d437wepo8j0__glyph-0-1" x="206.441258" y="29.320591"/><use xlink:href="#90e9956e8327625b4aa03295301a7d437wepo8j0__glyph-0-2" x="211.193238" y="29.320591"/></g><g fill="rgb(0%, 0%, 0%)" fill-opacity="1"><use xlink:href="#90e9956e8327625b4aa03295301a7d437wepo8j0__glyph-1-1" x="214.763029" y="24.89913"/></g><path fill="none" stroke="rgb(0%, 0%, 0%)" stroke-linecap="butt" stroke-linejoin="miter" stroke-miterlimit="10" stroke-opacity="1" stroke-width="0.39848" d="M -26.289405 6.901914 C -11.525917 16.560565 11.955546 16.560565 23.806482 8.802944 " transform="matrix(0.992472, 0, 0, -0.992472, 171.712584, 25.486673)"/><path fill="none" stroke="rgb(0%, 0%, 0%)" stroke-linecap="round" stroke-linejoin="round" stroke-miterlimit="10" stroke-opacity="1" stroke-width="0.39848" d="M -2.07331 2.390165 C -1.693503 0.954655 -0.850962 0.278336 0.000381023 -0.00177078 C -0.848027 -0.279545 -1.694339 -0.955806 -2.071088 -2.392574 " transform="matrix(0.830371, 0.543517, 0.543517, -0.830371, 195.504552, 16.857698)"/><g fill="rgb(0%, 0%, 0%)" fill-opacity="1"><use xlink:href="#90e9956e8327625b4aa03295301a7d437wepo8j0__glyph-2-0" x="164.280956" y="7.923894"/><use xlink:href="#90e9956e8327625b4aa03295301a7d437wepo8j0__glyph-2-1" x="166.323431" y="7.923894"/><use xlink:href="#90e9956e8327625b4aa03295301a7d437wepo8j0__glyph-2-2" x="170.120456" y="7.923894"/></g><g fill="rgb(0%, 0%, 0%)" fill-opacity="1"><use xlink:href="#90e9956e8327625b4aa03295301a7d437wepo8j0__glyph-3-0" x="173.918849" y="8.912396"/></g><path fill="none" stroke="rgb(0%, 0%, 0%)" stroke-linecap="butt" stroke-linejoin="miter" stroke-miterlimit="10" stroke-opacity="1" stroke-width="0.39848" d="M -26.966376 -9.203709 C -11.525917 -19.307114 11.955546 -19.307114 29.344266 -7.928484 " transform="matrix(0.992472, 0, 0, -0.992472, 171.712584, 25.486673)"/><path fill="none" stroke="rgb(0%, 0%, 0%)" stroke-linecap="round" stroke-linejoin="round" stroke-miterlimit="10" stroke-opacity="1" stroke-width="0.39848" d="M -2.071465 2.38998 C -1.692434 0.95651 -0.851499 0.279169 0.000241934 -0.000694849 C -0.848938 -0.277585 -1.693594 -0.95728 -2.071133 -2.389555 " transform="matrix(0.830401, -0.543438, -0.543438, -0.830401, 200.999421, 33.245648)"/><g fill="rgb(0%, 0%, 0%)" fill-opacity="1"><use xlink:href="#90e9956e8327625b4aa03295301a7d437wepo8j0__glyph-2-3" x="160.696148" y="49.08765"/><use xlink:href="#90e9956e8327625b4aa03295301a7d437wepo8j0__glyph-2-4" x="165.394326" y="49.08765"/><use xlink:href="#90e9956e8327625b4aa03295301a7d437wepo8j0__glyph-2-0" x="169.071612" y="49.08765"/><use xlink:href="#90e9956e8327625b4aa03295301a7d437wepo8j0__glyph-2-1" x="171.114088" y="49.08765"/><use xlink:href="#90e9956e8327625b4aa03295301a7d437wepo8j0__glyph-2-2" x="174.911112" y="49.08765"/></g><g fill="rgb(0%, 0%, 0%)" fill-opacity="1"><use xlink:href="#90e9956e8327625b4aa03295301a7d437wepo8j0__glyph-3-0" x="178.708517" y="50.076152"/></g><path fill="none" stroke="rgb(0%, 0%, 0%)" stroke-linecap="butt" stroke-linejoin="miter" stroke-miterlimit="10" stroke-opacity="1" stroke-width="0.39848" d="M 24.141032 -1.371307 L -22.884868 -1.371307 " transform="matrix(0.992472, 0, 0, -0.992472, 171.712584, 25.486673)"/><path fill="none" stroke="rgb(0%, 0%, 0%)" stroke-linecap="round" stroke-linejoin="round" stroke-miterlimit="10" stroke-opacity="1" stroke-width="0.39848" d="M -2.072951 2.391652 C -1.695106 0.955056 -0.848892 0.278084 0.00125818 -0.00136335 C -0.848892 -0.280811 -1.695106 -0.957782 -2.072951 -2.390443 " transform="matrix(-0.992472, 0, 0, 0.992472, 148.80203, 26.849009)"/><path fill="rgb(100%, 100%, 100%)" fill-opacity="1" fill-rule="nonzero" d="M 162.082031 31.875 L 182.195312 31.875 L 182.195312 21.824219 L 162.082031 21.824219 Z M 162.082031 31.875 "/><g fill="rgb(0%, 0%, 0%)" fill-opacity="1"><use xlink:href="#90e9956e8327625b4aa03295301a7d437wepo8j0__glyph-2-5" x="164.208506" y="28.75786"/><use xlink:href="#90e9956e8327625b4aa03295301a7d437wepo8j0__glyph-2-6" x="168.966899" y="28.75786"/><use xlink:href="#90e9956e8327625b4aa03295301a7d437wepo8j0__glyph-2-7" x="172.235136" y="28.75786"/></g><g fill="rgb(0%, 0%, 0%)" fill-opacity="1"><use xlink:href="#90e9956e8327625b4aa03295301a7d437wepo8j0__glyph-3-0" x="175.055229" y="29.746362"/></g><g fill="rgb(0%, 0%, 0%)" fill-opacity="1"><use xlink:href="#90e9956e8327625b4aa03295301a7d437wepo8j0__glyph-4-0" x="169.467613" y="16.593134"/></g><g fill="rgb(0%, 0%, 0%)" fill-opacity="1"><use xlink:href="#90e9956e8327625b4aa03295301a7d437wepo8j0__glyph-4-0" x="169.769324" y="31.950641"/></g></svg>