<?xml version="1.0" encoding="UTF-8"?><svg xmlns="http://www.w3.org/2000/svg" xmlns:xlink="http://www.w3.org/1999/xlink" width="217.042" height="78.165" viewBox="0 0 217.042 78.165"><defs><g><g id="c0d03d02d743a73be4e0d8b787f0dcf43lxq0uxv__glyph-0-0"><path d="M 6.984375 -2.296875 C 7 -2.34375 7.03125 -2.421875 7.03125 -2.4375 C 7.03125 -2.4375 7.03125 -2.546875 6.90625 -2.546875 C 6.828125 -2.546875 6.796875 -2.484375 6.78125 -2.421875 C 6.140625 -0.96875 5.78125 -0.3125 4.09375 -0.3125 L 2.65625 -0.3125 C 2.515625 -0.3125 2.5 -0.3125 2.4375 -0.3125 C 2.34375 -0.328125 2.3125 -0.328125 2.3125 -0.421875 C 2.3125 -0.4375 2.3125 -0.46875 2.359375 -0.640625 L 3.03125 -3.328125 L 4 -3.328125 C 4.84375 -3.328125 4.84375 -3.125 4.84375 -2.875 C 4.84375 -2.8125 4.84375 -2.6875 4.765625 -2.390625 C 4.75 -2.34375 4.75 -2.3125 4.75 -2.28125 C 4.75 -2.234375 4.78125 -2.171875 4.875 -2.171875 C 4.953125 -2.171875 4.984375 -2.234375 5.015625 -2.375 L 5.578125 -4.6875 C 5.578125 -4.75 5.53125 -4.796875 5.46875 -4.796875 C 5.375 -4.796875 5.359375 -4.734375 5.328125 -4.609375 C 5.109375 -3.859375 4.9375 -3.640625 4.03125 -3.640625 L 3.109375 -3.640625 L 3.703125 -6.015625 C 3.78125 -6.359375 3.796875 -6.40625 4.234375 -6.40625 L 5.625 -6.40625 C 6.828125 -6.40625 7.125 -6.109375 7.125 -5.296875 C 7.125 -5.0625 7.125 -5.046875 7.078125 -4.78125 C 7.078125 -4.71875 7.0625 -4.65625 7.0625 -4.609375 C 7.0625 -4.5625 7.09375 -4.484375 7.1875 -4.484375 C 7.296875 -4.484375 7.3125 -4.546875 7.328125 -4.734375 L 7.515625 -6.4375 C 7.546875 -6.703125 7.5 -6.703125 7.25 -6.703125 L 2.28125 -6.703125 C 2.078125 -6.703125 1.984375 -6.703125 1.984375 -6.5 C 1.984375 -6.40625 2.078125 -6.40625 2.25 -6.40625 C 2.625 -6.40625 2.90625 -6.40625 2.90625 -6.21875 C 2.90625 -6.1875 2.90625 -6.15625 2.84375 -5.984375 L 1.546875 -0.765625 C 1.453125 -0.390625 1.421875 -0.3125 0.65625 -0.3125 C 0.484375 -0.3125 0.375 -0.3125 0.375 -0.125 C 0.375 0 0.46875 0 0.65625 0 L 5.765625 0 C 6 0 6 -0.015625 6.078125 -0.171875 Z M 6.984375 -2.296875 "/></g><g id="c0d03d02d743a73be4e0d8b787f0dcf43lxq0uxv__glyph-0-1"><path d="M 1.765625 -1.140625 C 1.375 -0.46875 0.984375 -0.328125 0.546875 -0.3125 C 0.4375 -0.296875 0.34375 -0.296875 0.34375 -0.109375 C 0.34375 -0.046875 0.390625 0 0.46875 0 C 0.734375 0 1.046875 -0.03125 1.328125 -0.03125 C 1.640625 -0.03125 1.984375 0 2.3125 0 C 2.359375 0 2.5 0 2.5 -0.1875 C 2.5 -0.296875 2.40625 -0.3125 2.34375 -0.3125 C 2.109375 -0.328125 1.875 -0.40625 1.875 -0.65625 C 1.875 -0.765625 1.9375 -0.875 2.015625 -1.015625 L 2.765625 -2.28125 L 5.234375 -2.28125 C 5.25 -2.078125 5.390625 -0.734375 5.390625 -0.625 C 5.390625 -0.328125 4.875 -0.3125 4.6875 -0.3125 C 4.546875 -0.3125 4.453125 -0.3125 4.453125 -0.109375 C 4.453125 0 4.5625 0 4.578125 0 C 4.984375 0 5.40625 -0.03125 5.8125 -0.03125 C 6.0625 -0.03125 6.6875 0 6.9375 0 C 6.984375 0 7.109375 0 7.109375 -0.203125 C 7.109375 -0.3125 7.015625 -0.3125 6.875 -0.3125 C 6.265625 -0.3125 6.265625 -0.375 6.234375 -0.65625 L 5.640625 -6.828125 C 5.625 -7.015625 5.625 -7.0625 5.453125 -7.0625 C 5.296875 -7.0625 5.25 -6.984375 5.203125 -6.890625 Z M 2.953125 -2.578125 L 4.890625 -5.84375 L 5.203125 -2.578125 Z M 2.953125 -2.578125 "/></g><g id="c0d03d02d743a73be4e0d8b787f0dcf43lxq0uxv__glyph-0-2"><path d="M 1.578125 -0.765625 C 1.484375 -0.390625 1.453125 -0.3125 0.6875 -0.3125 C 0.515625 -0.3125 0.421875 -0.3125 0.421875 -0.109375 C 0.421875 0 0.5 0 0.6875 0 L 4.203125 0 C 5.765625 0 6.921875 -1.15625 6.921875 -2.125 C 6.921875 -2.84375 6.34375 -3.40625 5.390625 -3.515625 C 6.421875 -3.703125 7.453125 -4.4375 7.453125 -5.375 C 7.453125 -6.109375 6.796875 -6.734375 5.625 -6.734375 L 2.3125 -6.734375 C 2.125 -6.734375 2.015625 -6.734375 2.015625 -6.53125 C 2.015625 -6.421875 2.109375 -6.421875 2.296875 -6.421875 C 2.3125 -6.421875 2.5 -6.421875 2.671875 -6.40625 C 2.84375 -6.390625 2.9375 -6.375 2.9375 -6.25 C 2.9375 -6.21875 2.921875 -6.1875 2.90625 -6.0625 Z M 3.0625 -3.609375 L 3.671875 -6.046875 C 3.765625 -6.40625 3.78125 -6.421875 4.203125 -6.421875 L 5.484375 -6.421875 C 6.34375 -6.421875 6.5625 -5.84375 6.5625 -5.40625 C 6.5625 -4.546875 5.703125 -3.609375 4.5 -3.609375 Z M 2.625 -0.3125 C 2.484375 -0.3125 2.46875 -0.3125 2.40625 -0.3125 C 2.3125 -0.328125 2.28125 -0.328125 2.28125 -0.421875 C 2.28125 -0.4375 2.28125 -0.46875 2.328125 -0.640625 L 3 -3.390625 L 4.875 -3.390625 C 5.8125 -3.390625 6 -2.65625 6 -2.234375 C 6 -1.265625 5.125 -0.3125 3.96875 -0.3125 Z M 2.625 -0.3125 "/></g><g id="c0d03d02d743a73be4e0d8b787f0dcf43lxq0uxv__glyph-0-3"><path d="M 2.984375 -3.203125 L 3.9375 -3.203125 C 4.6875 -3.203125 4.765625 -3.046875 4.765625 -2.765625 C 4.765625 -2.6875 4.765625 -2.578125 4.6875 -2.28125 C 4.671875 -2.234375 4.65625 -2.1875 4.65625 -2.171875 C 4.65625 -2.09375 4.71875 -2.046875 4.78125 -2.046875 C 4.875 -2.046875 4.875 -2.078125 4.921875 -2.25 L 5.46875 -4.390625 C 5.5 -4.5 5.5 -4.53125 5.5 -4.5625 C 5.5 -4.578125 5.484375 -4.65625 5.390625 -4.65625 C 5.28125 -4.65625 5.28125 -4.609375 5.234375 -4.453125 C 5.03125 -3.6875 4.796875 -3.515625 3.96875 -3.515625 L 3.0625 -3.515625 L 3.703125 -6.015625 C 3.78125 -6.359375 3.796875 -6.40625 4.234375 -6.40625 L 5.53125 -6.40625 C 6.75 -6.40625 6.96875 -6.078125 6.96875 -5.3125 C 6.96875 -5.09375 6.96875 -5.046875 6.9375 -4.78125 C 6.921875 -4.65625 6.921875 -4.640625 6.921875 -4.609375 C 6.921875 -4.5625 6.953125 -4.484375 7.046875 -4.484375 C 7.140625 -4.484375 7.15625 -4.546875 7.171875 -4.734375 L 7.375 -6.4375 C 7.40625 -6.703125 7.359375 -6.703125 7.109375 -6.703125 L 2.28125 -6.703125 C 2.078125 -6.703125 1.984375 -6.703125 1.984375 -6.5 C 1.984375 -6.40625 2.078125 -6.40625 2.25 -6.40625 C 2.625 -6.40625 2.90625 -6.40625 2.90625 -6.21875 C 2.90625 -6.1875 2.90625 -6.15625 2.84375 -5.984375 L 1.546875 -0.765625 C 1.453125 -0.390625 1.421875 -0.3125 0.65625 -0.3125 C 0.484375 -0.3125 0.375 -0.3125 0.375 -0.125 C 0.375 0 0.5 0 0.515625 0 C 0.8125 0 1.53125 -0.03125 1.828125 -0.03125 C 2.15625 -0.03125 2.96875 0 3.296875 0 C 3.375 0 3.5 0 3.5 -0.1875 C 3.5 -0.265625 3.4375 -0.28125 3.4375 -0.296875 C 3.40625 -0.3125 3.390625 -0.3125 3.171875 -0.3125 C 2.953125 -0.3125 2.90625 -0.3125 2.65625 -0.328125 C 2.359375 -0.359375 2.34375 -0.390625 2.34375 -0.515625 C 2.34375 -0.546875 2.34375 -0.59375 2.375 -0.75 Z M 2.984375 -3.203125 "/></g><g id="c0d03d02d743a73be4e0d8b787f0dcf43lxq0uxv__glyph-1-0"><path d="M 3.515625 -2.84375 C 3.515625 -2.875 3.53125 -2.921875 3.53125 -2.953125 C 3.53125 -2.984375 3.5 -3.046875 3.4375 -3.046875 C 3.375 -3.046875 3.078125 -2.8125 2.9375 -2.59375 C 2.875 -2.734375 2.640625 -3.046875 2.203125 -3.046875 C 1.3125 -3.046875 0.421875 -2.078125 0.421875 -1.078125 C 0.421875 -0.40625 0.875 0.0625 1.46875 0.0625 C 1.859375 0.0625 2.1875 -0.171875 2.328125 -0.3125 C 2.328125 -0.296875 2.109375 0.578125 2.078125 0.703125 C 1.984375 1.078125 1.984375 1.078125 1.546875 1.09375 C 1.46875 1.09375 1.375 1.09375 1.375 1.25 C 1.375 1.28125 1.40625 1.34375 1.484375 1.34375 C 1.703125 1.34375 1.96875 1.3125 2.203125 1.3125 C 2.4375 1.3125 2.71875 1.34375 2.9375 1.34375 C 3 1.34375 3.078125 1.3125 3.078125 1.1875 C 3.078125 1.09375 2.984375 1.09375 2.890625 1.09375 C 2.734375 1.09375 2.5625 1.09375 2.5625 1.015625 C 2.5625 0.984375 2.5625 0.96875 2.59375 0.859375 Z M 2.46875 -0.875 C 2.4375 -0.75 2.4375 -0.734375 2.34375 -0.625 C 2.078125 -0.3125 1.75 -0.125 1.484375 -0.125 C 1.234375 -0.125 0.984375 -0.296875 0.984375 -0.796875 C 0.984375 -1.15625 1.1875 -1.921875 1.34375 -2.203125 C 1.65625 -2.75 2.015625 -2.859375 2.203125 -2.859375 C 2.6875 -2.859375 2.8125 -2.328125 2.8125 -2.25 C 2.8125 -2.21875 2.796875 -2.171875 2.796875 -2.140625 Z M 2.46875 -0.875 "/></g><g id="c0d03d02d743a73be4e0d8b787f0dcf43lxq0uxv__glyph-1-1"><path d="M 0.515625 0.84375 C 0.46875 1.03125 0.453125 1.09375 0.171875 1.09375 C 0.09375 1.09375 0 1.09375 0 1.234375 C 0 1.3125 0.0625 1.34375 0.09375 1.34375 C 0.265625 1.34375 0.5 1.3125 0.6875 1.3125 C 0.921875 1.3125 1.1875 1.34375 1.40625 1.34375 C 1.46875 1.34375 1.546875 1.3125 1.546875 1.1875 C 1.546875 1.09375 1.453125 1.09375 1.375 1.09375 C 1.21875 1.09375 1.03125 1.09375 1.03125 1.015625 C 1.03125 0.96875 1.078125 0.796875 1.109375 0.6875 C 1.1875 0.328125 1.28125 -0.046875 1.359375 -0.34375 C 1.4375 -0.203125 1.65625 0.0625 2.078125 0.0625 C 2.921875 0.0625 3.84375 -0.859375 3.84375 -1.890625 C 3.84375 -2.703125 3.28125 -3.046875 2.8125 -3.046875 C 2.375 -3.046875 2.015625 -2.75 1.828125 -2.5625 C 1.71875 -2.953125 1.328125 -3.046875 1.125 -3.046875 C 0.84375 -3.046875 0.6875 -2.859375 0.578125 -2.671875 C 0.4375 -2.4375 0.328125 -2.03125 0.328125 -1.984375 C 0.328125 -1.90625 0.421875 -1.90625 0.4375 -1.90625 C 0.53125 -1.90625 0.546875 -1.921875 0.59375 -2.109375 C 0.703125 -2.5 0.828125 -2.859375 1.09375 -2.859375 C 1.28125 -2.859375 1.328125 -2.703125 1.328125 -2.515625 C 1.328125 -2.4375 1.3125 -2.34375 1.3125 -2.3125 Z M 1.828125 -2.21875 C 2.21875 -2.75 2.5625 -2.859375 2.796875 -2.859375 C 3.0625 -2.859375 3.296875 -2.65625 3.296875 -2.1875 C 3.296875 -1.90625 3.140625 -1.1875 2.9375 -0.796875 C 2.765625 -0.453125 2.421875 -0.125 2.078125 -0.125 C 1.578125 -0.125 1.453125 -0.65625 1.453125 -0.71875 C 1.453125 -0.75 1.46875 -0.796875 1.484375 -0.828125 Z M 1.828125 -2.21875 "/></g><g id="c0d03d02d743a73be4e0d8b787f0dcf43lxq0uxv__glyph-1-2"><path d="M 2.921875 -2.640625 C 2.765625 -2.859375 2.53125 -3.046875 2.203125 -3.046875 C 1.3125 -3.046875 0.421875 -2.078125 0.421875 -1.078125 C 0.421875 -0.40625 0.875 0.0625 1.46875 0.0625 C 1.84375 0.0625 2.171875 -0.140625 2.4375 -0.421875 C 2.578125 0 2.984375 0.0625 3.15625 0.0625 C 3.40625 0.0625 3.578125 -0.078125 3.703125 -0.296875 C 3.859375 -0.5625 3.9375 -0.953125 3.9375 -0.984375 C 3.9375 -1.078125 3.859375 -1.078125 3.828125 -1.078125 C 3.734375 -1.078125 3.734375 -1.046875 3.6875 -0.859375 C 3.59375 -0.53125 3.46875 -0.125 3.171875 -0.125 C 3 -0.125 2.953125 -0.28125 2.953125 -0.46875 C 2.953125 -0.578125 3 -0.828125 3.046875 -1.015625 C 3.09375 -1.1875 3.171875 -1.484375 3.203125 -1.625 L 3.34375 -2.15625 C 3.390625 -2.328125 3.46875 -2.65625 3.46875 -2.6875 C 3.46875 -2.84375 3.34375 -2.921875 3.234375 -2.921875 C 3.109375 -2.921875 2.953125 -2.828125 2.921875 -2.640625 Z M 2.46875 -0.859375 C 2.421875 -0.671875 2.265625 -0.53125 2.125 -0.40625 C 2.0625 -0.34375 1.78125 -0.125 1.484375 -0.125 C 1.234375 -0.125 0.984375 -0.296875 0.984375 -0.796875 C 0.984375 -1.15625 1.1875 -1.921875 1.34375 -2.203125 C 1.65625 -2.75 2.015625 -2.859375 2.203125 -2.859375 C 2.6875 -2.859375 2.8125 -2.328125 2.8125 -2.25 C 2.8125 -2.21875 2.796875 -2.171875 2.796875 -2.15625 Z M 2.46875 -0.859375 "/></g><g id="c0d03d02d743a73be4e0d8b787f0dcf43lxq0uxv__glyph-1-3"><path d="M 2.984375 -2.59375 C 2.796875 -2.5625 2.6875 -2.40625 2.6875 -2.265625 C 2.6875 -2.109375 2.828125 -2.046875 2.921875 -2.046875 C 2.984375 -2.046875 3.25 -2.09375 3.25 -2.4375 C 3.25 -2.890625 2.75 -3.046875 2.328125 -3.046875 C 1.25 -3.046875 1.0625 -2.25 1.0625 -2.03125 C 1.0625 -1.78125 1.203125 -1.609375 1.296875 -1.53125 C 1.484375 -1.390625 1.609375 -1.375 2.078125 -1.28125 C 2.21875 -1.25 2.671875 -1.171875 2.671875 -0.828125 C 2.671875 -0.71875 2.59375 -0.453125 2.296875 -0.28125 C 2.03125 -0.125 1.6875 -0.125 1.609375 -0.125 C 1.328125 -0.125 0.9375 -0.1875 0.78125 -0.421875 C 1.015625 -0.4375 1.15625 -0.609375 1.15625 -0.8125 C 1.15625 -0.984375 1.03125 -1.0625 0.890625 -1.0625 C 0.6875 -1.0625 0.484375 -0.90625 0.484375 -0.59375 C 0.484375 -0.1875 0.9375 0.0625 1.609375 0.0625 C 2.875 0.0625 3.109375 -0.796875 3.109375 -1.078125 C 3.109375 -1.703125 2.40625 -1.828125 2.15625 -1.875 C 2.09375 -1.890625 1.921875 -1.921875 1.875 -1.9375 C 1.625 -1.984375 1.5 -2.125 1.5 -2.28125 C 1.5 -2.4375 1.625 -2.625 1.78125 -2.71875 C 1.96875 -2.84375 2.203125 -2.859375 2.328125 -2.859375 C 2.46875 -2.859375 2.828125 -2.828125 2.984375 -2.59375 Z M 2.984375 -2.59375 "/></g><g id="c0d03d02d743a73be4e0d8b787f0dcf43lxq0uxv__glyph-1-4"><path d="M 1.625 -1.390625 C 1.625 -1.4375 1.78125 -2.0625 1.796875 -2.09375 C 1.8125 -2.140625 2.015625 -2.5 2.234375 -2.65625 C 2.3125 -2.71875 2.5 -2.859375 2.796875 -2.859375 C 2.859375 -2.859375 3.03125 -2.84375 3.171875 -2.75 C 2.953125 -2.6875 2.875 -2.5 2.875 -2.375 C 2.875 -2.21875 2.984375 -2.125 3.15625 -2.125 C 3.3125 -2.125 3.53125 -2.25 3.53125 -2.546875 C 3.53125 -2.90625 3.15625 -3.046875 2.796875 -3.046875 C 2.4375 -3.046875 2.140625 -2.90625 1.828125 -2.5625 C 1.703125 -2.984375 1.28125 -3.046875 1.125 -3.046875 C 0.859375 -3.046875 0.6875 -2.890625 0.578125 -2.6875 C 0.421875 -2.421875 0.328125 -2.03125 0.328125 -1.984375 C 0.328125 -1.90625 0.421875 -1.90625 0.4375 -1.90625 C 0.53125 -1.90625 0.546875 -1.921875 0.59375 -2.109375 C 0.703125 -2.53125 0.828125 -2.859375 1.09375 -2.859375 C 1.28125 -2.859375 1.328125 -2.703125 1.328125 -2.515625 C 1.328125 -2.375 1.265625 -2.125 1.21875 -1.9375 C 1.171875 -1.75 1.09375 -1.46875 1.0625 -1.3125 L 0.84375 -0.4375 C 0.8125 -0.34375 0.78125 -0.171875 0.78125 -0.15625 C 0.78125 0 0.890625 0.0625 1.015625 0.0625 C 1.109375 0.0625 1.25 0 1.3125 -0.125 C 1.3125 -0.171875 1.390625 -0.46875 1.4375 -0.65625 Z M 1.625 -1.390625 "/></g></g></defs><g fill="rgb(0%, 0%, 0%)" fill-opacity="1"><use xlink:href="#c0d03d02d743a73be4e0d8b787f0dcf43lxq0uxv__glyph-0-0" x="103.835058" y="10.343505"/></g><g fill="rgb(0%, 0%, 0%)" fill-opacity="1"><use xlink:href="#c0d03d02d743a73be4e0d8b787f0dcf43lxq0uxv__glyph-0-1" x="64.29643" y="42.036939"/></g><g fill="rgb(0%, 0%, 0%)" fill-opacity="1"><use xlink:href="#c0d03d02d743a73be4e0d8b787f0dcf43lxq0uxv__glyph-0-2" x="143.825855" y="42.036939"/></g><g fill="rgb(0%, 0%, 0%)" fill-opacity="1"><use xlink:href="#c0d03d02d743a73be4e0d8b787f0dcf43lxq0uxv__glyph-0-3" x="103.904318" y="73.731362"/></g><path fill="none" stroke="rgb(0%, 0%, 0%)" stroke-linecap="butt" stroke-linejoin="miter" stroke-miterlimit="10" stroke-opacity="1" stroke-width="0.39848" d="M -8.239621 24.782421 L -31.947233 5.887396 " transform="matrix(0.98943, 0, 0, -0.98943, 108.047063, 38.668918)"/><path fill="none" stroke="rgb(0%, 0%, 0%)" stroke-linecap="round" stroke-linejoin="round" stroke-miterlimit="10" stroke-opacity="1" stroke-width="0.39848" d="M -2.073083 2.390616 C -1.691898 0.955844 -0.848392 0.278481 0.000560254 0.000689751 C -0.849849 -0.280784 -1.692147 -0.957488 -2.072473 -2.391168 " transform="matrix(-0.773685, 0.616662, 0.616662, 0.773685, 77.394539, 32.081152)"/><path fill="none" stroke="rgb(0%, 0%, 0%)" stroke-linecap="round" stroke-linejoin="round" stroke-miterlimit="10" stroke-opacity="1" stroke-width="0.39848" d="M -2.072155 2.392589 C -1.693431 0.954729 -0.849925 0.277367 -0.000972647 -0.000424704 C -0.848921 -0.278811 -1.693679 -0.958602 -2.071545 -2.389195 " transform="matrix(-0.773685, 0.616662, 0.616662, 0.773685, 76.284666, 32.965772)"/><g fill="rgb(0%, 0%, 0%)" fill-opacity="1"><use xlink:href="#c0d03d02d743a73be4e0d8b787f0dcf43lxq0uxv__glyph-1-0" x="81.833094" y="19.9578"/></g><path fill="none" stroke="rgb(0%, 0%, 0%)" stroke-linecap="butt" stroke-linejoin="miter" stroke-miterlimit="10" stroke-opacity="1" stroke-width="0.39848" d="M 7.710212 24.782421 L 31.358604 6.069003 " transform="matrix(0.98943, 0, 0, -0.98943, 108.047063, 38.668918)"/><path fill="none" stroke="rgb(0%, 0%, 0%)" stroke-linecap="round" stroke-linejoin="round" stroke-miterlimit="10" stroke-opacity="1" stroke-width="0.39848" d="M -2.073366 2.390457 C -1.692544 0.954777 -0.849528 0.277548 0.000543415 -0.00138027 C -0.852492 -0.278632 -1.695944 -0.956123 -2.071098 -2.390858 " transform="matrix(0.775842, 0.613922, 0.613922, -0.775842, 138.117613, 31.904846)"/><path fill="none" stroke="rgb(0%, 0%, 0%)" stroke-linecap="round" stroke-linejoin="round" stroke-miterlimit="10" stroke-opacity="1" stroke-width="0.39848" d="M -2.071806 2.388959 C -1.693433 0.956375 -0.850417 0.279145 -0.000346096 0.000217529 C -0.850931 -0.28013 -1.694384 -0.957621 -2.071988 -2.38926 " transform="matrix(0.775842, 0.613922, 0.613922, -0.775842, 139.230604, 32.785537)"/><g fill="rgb(0%, 0%, 0%)" fill-opacity="1"><use xlink:href="#c0d03d02d743a73be4e0d8b787f0dcf43lxq0uxv__glyph-1-1" x="129.850151" y="19.866773"/></g><path fill="none" stroke="rgb(0%, 0%, 0%)" stroke-linecap="butt" stroke-linejoin="miter" stroke-miterlimit="10" stroke-opacity="1" stroke-width="0.39848" d="M -0.29234 24.782421 L -0.29234 -24.385705 " transform="matrix(0.98943, 0, 0, -0.98943, 108.047063, 38.668918)"/><path fill="none" stroke="rgb(0%, 0%, 0%)" stroke-linecap="round" stroke-linejoin="round" stroke-miterlimit="10" stroke-opacity="1" stroke-width="0.39848" d="M -2.070197 2.392435 C -1.695139 0.955371 -0.850272 0.280266 -0.00145653 -0.0000402738 C -0.850272 -0.280347 -1.695139 -0.955451 -2.070197 -2.392515 " transform="matrix(0, 0.98943, 0.98943, 0, 107.757852, 62.993629)"/><path fill="rgb(100%, 100%, 100%)" fill-opacity="1" fill-rule="nonzero" d="M 103.496094 42.277344 L 112.019531 42.277344 L 112.019531 35.0625 L 103.496094 35.0625 Z M 103.496094 42.277344 "/><g fill="rgb(0%, 0%, 0%)" fill-opacity="1"><use xlink:href="#c0d03d02d743a73be4e0d8b787f0dcf43lxq0uxv__glyph-1-2" x="105.61999" y="40.155043"/></g><path fill="none" stroke="rgb(0%, 0%, 0%)" stroke-linecap="butt" stroke-linejoin="miter" stroke-miterlimit="10" stroke-opacity="1" stroke-width="0.39848" d="M -8.677847 -26.264942 L -32.223591 -7.496252 " transform="matrix(0.98943, 0, 0, -0.98943, 108.047063, 38.668918)"/><path fill="none" stroke="rgb(0%, 0%, 0%)" stroke-linecap="round" stroke-linejoin="round" stroke-miterlimit="10" stroke-opacity="1" stroke-width="0.39848" d="M -2.072168 2.390703 C -1.691842 0.957022 -0.849544 0.280319 0.000865116 -0.00115487 C -0.848087 -0.278946 -1.691594 -0.956309 -2.072778 -2.391081 " transform="matrix(-0.773685, -0.616662, -0.616662, 0.773685, 77.121051, 46.849083)"/><path fill="none" stroke="rgb(0%, 0%, 0%)" stroke-linecap="round" stroke-linejoin="round" stroke-miterlimit="10" stroke-opacity="1" stroke-width="0.39848" d="M -2.073723 2.391812 C -1.693396 0.958132 -0.848638 0.278341 -0.000689658 -0.0000450569 C -0.849642 -0.277836 -1.693148 -0.955199 -2.071872 -2.393059 " transform="matrix(-0.773685, -0.616662, -0.616662, 0.773685, 76.011157, 45.964453)"/><g fill="rgb(0%, 0%, 0%)" fill-opacity="1"><use xlink:href="#c0d03d02d743a73be4e0d8b787f0dcf43lxq0uxv__glyph-1-3" x="81.620367" y="60.539287"/></g><path fill="none" stroke="rgb(0%, 0%, 0%)" stroke-linecap="butt" stroke-linejoin="miter" stroke-miterlimit="10" stroke-opacity="1" stroke-width="0.39848" d="M 8.093166 -26.312318 L 31.871842 -7.496252 " transform="matrix(0.98943, 0, 0, -0.98943, 108.047063, 38.668918)"/><path fill="none" stroke="rgb(0%, 0%, 0%)" stroke-linecap="round" stroke-linejoin="round" stroke-miterlimit="10" stroke-opacity="1" stroke-width="0.39848" d="M -2.072642 2.391457 C -1.691969 0.957381 -0.848538 0.279884 0.00203219 -0.000472838 C -0.848033 -0.279384 -1.694145 -0.954142 -2.071889 -2.392248 " transform="matrix(0.775842, -0.613942, -0.613942, -0.775842, 138.623133, 46.844631)"/><path fill="none" stroke="rgb(0%, 0%, 0%)" stroke-linecap="round" stroke-linejoin="round" stroke-miterlimit="10" stroke-opacity="1" stroke-width="0.39848" d="M -2.073543 2.38983 C -1.69287 0.955753 -0.849438 0.278257 -0.00196421 0.000349678 C -0.852029 -0.278561 -1.695045 -0.955769 -2.070339 -2.39078 " transform="matrix(0.775842, -0.613942, -0.613942, -0.775842, 139.736114, 45.963909)"/><g fill="rgb(0%, 0%, 0%)" fill-opacity="1"><use xlink:href="#c0d03d02d743a73be4e0d8b787f0dcf43lxq0uxv__glyph-1-4" x="130.290447" y="60.563034"/></g></svg>