<?xml version="1.0" encoding="UTF-8"?><svg xmlns="http://www.w3.org/2000/svg" xmlns:xlink="http://www.w3.org/1999/xlink" width="323.702" height="67.382" viewBox="0 0 323.702 67.382"><defs><g><g id="945ab42a684b16be9c78e8911dbb4ab7z1w1jdf1__glyph-0-0"><path d="M 1.765625 -1.140625 C 1.375 -0.46875 0.984375 -0.328125 0.546875 -0.3125 C 0.4375 -0.296875 0.34375 -0.296875 0.34375 -0.109375 C 0.34375 -0.046875 0.390625 0 0.46875 0 C 0.734375 0 1.046875 -0.03125 1.328125 -0.03125 C 1.65625 -0.03125 2 0 2.3125 0 C 2.375 0 2.5 0 2.5 -0.1875 C 2.5 -0.296875 2.40625 -0.3125 2.34375 -0.3125 C 2.109375 -0.328125 1.875 -0.40625 1.875 -0.65625 C 1.875 -0.765625 1.9375 -0.875 2.015625 -1.015625 L 2.765625 -2.28125 L 5.25 -2.28125 C 5.265625 -2.078125 5.40625 -0.734375 5.40625 -0.625 C 5.40625 -0.328125 4.890625 -0.3125 4.6875 -0.3125 C 4.546875 -0.3125 4.453125 -0.3125 4.453125 -0.109375 C 4.453125 0 4.578125 0 4.59375 0 C 5 0 5.421875 -0.03125 5.828125 -0.03125 C 6.078125 -0.03125 6.6875 0 6.9375 0 C 7 0 7.125 0 7.125 -0.203125 C 7.125 -0.3125 7.015625 -0.3125 6.890625 -0.3125 C 6.28125 -0.3125 6.28125 -0.375 6.25 -0.65625 L 5.65625 -6.828125 C 5.625 -7.03125 5.625 -7.078125 5.453125 -7.078125 C 5.296875 -7.078125 5.265625 -7 5.203125 -6.90625 Z M 2.953125 -2.59375 L 4.890625 -5.84375 L 5.21875 -2.59375 Z M 2.953125 -2.59375 "/></g><g id="945ab42a684b16be9c78e8911dbb4ab7z1w1jdf1__glyph-0-1"><path d="M 1.578125 -0.765625 C 1.484375 -0.390625 1.46875 -0.3125 0.6875 -0.3125 C 0.515625 -0.3125 0.421875 -0.3125 0.421875 -0.109375 C 0.421875 0 0.5 0 0.6875 0 L 4.203125 0 C 5.765625 0 6.9375 -1.171875 6.9375 -2.140625 C 6.9375 -2.84375 6.359375 -3.421875 5.40625 -3.53125 C 6.421875 -3.71875 7.46875 -4.4375 7.46875 -5.375 C 7.46875 -6.109375 6.8125 -6.75 5.625 -6.75 L 2.3125 -6.75 C 2.125 -6.75 2.03125 -6.75 2.03125 -6.546875 C 2.03125 -6.4375 2.109375 -6.4375 2.296875 -6.4375 C 2.328125 -6.4375 2.515625 -6.4375 2.671875 -6.421875 C 2.859375 -6.40625 2.9375 -6.390625 2.9375 -6.265625 C 2.9375 -6.21875 2.9375 -6.1875 2.90625 -6.078125 Z M 3.078125 -3.609375 L 3.6875 -6.0625 C 3.765625 -6.40625 3.796875 -6.4375 4.21875 -6.4375 L 5.484375 -6.4375 C 6.359375 -6.4375 6.5625 -5.859375 6.5625 -5.421875 C 6.5625 -4.546875 5.71875 -3.609375 4.515625 -3.609375 Z M 2.625 -0.3125 C 2.484375 -0.3125 2.46875 -0.3125 2.40625 -0.3125 C 2.3125 -0.328125 2.28125 -0.328125 2.28125 -0.421875 C 2.28125 -0.4375 2.28125 -0.46875 2.328125 -0.640625 L 3.015625 -3.390625 L 4.875 -3.390625 C 5.828125 -3.390625 6.015625 -2.671875 6.015625 -2.234375 C 6.015625 -1.265625 5.140625 -0.3125 3.96875 -0.3125 Z M 2.625 -0.3125 "/></g><g id="945ab42a684b16be9c78e8911dbb4ab7z1w1jdf1__glyph-1-0"><path d="M 1.296875 -3.90625 C 1.296875 -4.078125 1.296875 -4.25 1.09375 -4.25 C 0.90625 -4.25 0.90625 -4.0625 0.90625 -3.90625 L 0.90625 -0.125 C 0.90625 0.046875 0.90625 0.21875 1.09375 0.21875 C 1.296875 0.21875 1.296875 0.046875 1.296875 -0.125 Z M 1.296875 -3.90625 "/></g><g id="945ab42a684b16be9c78e8911dbb4ab7z1w1jdf1__glyph-2-0"><path d="M 2.34375 -1.90625 L 2.90625 -1.90625 C 3 -1.90625 3.015625 -1.90625 3.03125 -1.9375 C 3.0625 -1.953125 3.078125 -2.015625 3.078125 -2.046875 C 3.078125 -2.125 3 -2.125 2.921875 -2.125 L 2.390625 -2.125 C 2.453125 -2.5 2.546875 -3.125 2.609375 -3.1875 C 2.6875 -3.28125 2.765625 -3.3125 2.84375 -3.3125 C 2.875 -3.3125 2.984375 -3.3125 3.09375 -3.265625 C 2.890625 -3.171875 2.890625 -3 2.890625 -2.984375 C 2.890625 -2.859375 2.984375 -2.78125 3.109375 -2.78125 C 3.234375 -2.78125 3.421875 -2.890625 3.421875 -3.09375 C 3.421875 -3.390625 3.09375 -3.484375 2.859375 -3.484375 C 2.234375 -3.484375 2.109375 -2.890625 2.0625 -2.671875 C 2.015625 -2.453125 2.046875 -2.59375 1.953125 -2.125 L 1.515625 -2.125 C 1.421875 -2.125 1.34375 -2.125 1.34375 -1.984375 C 1.34375 -1.90625 1.40625 -1.90625 1.5 -1.90625 L 1.921875 -1.90625 C 1.828125 -1.421875 1.625 -0.046875 1.484375 0.46875 C 1.453125 0.59375 1.34375 0.84375 1.140625 0.84375 C 1.109375 0.84375 1 0.84375 0.921875 0.796875 C 1.046875 0.734375 1.109375 0.609375 1.109375 0.515625 C 1.109375 0.390625 1.015625 0.3125 0.90625 0.3125 C 0.765625 0.3125 0.59375 0.421875 0.59375 0.625 C 0.59375 0.9375 0.953125 1.015625 1.140625 1.015625 C 1.421875 1.015625 1.640625 0.78125 1.75 0.625 C 1.953125 0.359375 2.0625 -0.296875 2.078125 -0.3125 Z M 2.34375 -1.90625 "/></g><g id="945ab42a684b16be9c78e8911dbb4ab7z1w1jdf1__glyph-3-0"><path d="M 1.3125 -0.53125 C 1.25 -0.296875 1.234375 -0.25 0.703125 -0.25 C 0.59375 -0.25 0.5 -0.25 0.5 -0.109375 C 0.5 0 0.578125 0 0.703125 0 L 3.375 0 C 4.53125 0 5.421875 -0.796875 5.421875 -1.484375 C 5.421875 -1.96875 4.984375 -2.390625 4.25 -2.46875 C 5.078125 -2.625 5.78125 -3.140625 5.78125 -3.734375 C 5.78125 -4.265625 5.25 -4.71875 4.34375 -4.71875 L 1.84375 -4.71875 C 1.703125 -4.71875 1.609375 -4.71875 1.609375 -4.5625 C 1.609375 -4.46875 1.703125 -4.46875 1.84375 -4.46875 C 1.84375 -4.46875 1.96875 -4.46875 2.09375 -4.453125 C 2.25 -4.4375 2.265625 -4.421875 2.265625 -4.359375 C 2.265625 -4.34375 2.265625 -4.3125 2.234375 -4.203125 Z M 2.421875 -2.546875 L 2.84375 -4.234375 C 2.890625 -4.453125 2.90625 -4.46875 3.1875 -4.46875 L 4.234375 -4.46875 C 4.9375 -4.46875 5.109375 -4 5.109375 -3.75 C 5.109375 -3.1875 4.46875 -2.546875 3.546875 -2.546875 Z M 2.078125 -0.25 C 1.875 -0.25 1.859375 -0.25 1.859375 -0.3125 C 1.859375 -0.328125 1.859375 -0.359375 1.890625 -0.46875 L 2.375 -2.359375 L 3.828125 -2.359375 C 4.484375 -2.359375 4.734375 -1.921875 4.734375 -1.53125 C 4.734375 -0.84375 4.03125 -0.25 3.203125 -0.25 Z M 2.078125 -0.25 "/></g><g id="945ab42a684b16be9c78e8911dbb4ab7z1w1jdf1__glyph-3-1"><path d="M 2.8125 -2.734375 L 3.484375 -2.734375 C 3.625 -2.734375 3.71875 -2.734375 3.71875 -2.875 C 3.71875 -2.984375 3.625 -2.984375 3.5 -2.984375 L 2.859375 -2.984375 C 3.015625 -3.859375 3.078125 -4.171875 3.125 -4.375 C 3.15625 -4.53125 3.3125 -4.671875 3.484375 -4.671875 C 3.484375 -4.671875 3.671875 -4.671875 3.8125 -4.578125 C 3.515625 -4.5 3.5 -4.25 3.5 -4.203125 C 3.5 -4.046875 3.625 -3.953125 3.78125 -3.953125 C 3.96875 -3.953125 4.171875 -4.109375 4.171875 -4.375 C 4.171875 -4.6875 3.828125 -4.859375 3.484375 -4.859375 C 3.171875 -4.859375 2.84375 -4.6875 2.65625 -4.34375 C 2.515625 -4.09375 2.453125 -3.78125 2.3125 -2.984375 L 1.765625 -2.984375 C 1.625 -2.984375 1.546875 -2.984375 1.546875 -2.828125 C 1.546875 -2.734375 1.625 -2.734375 1.75 -2.734375 L 2.265625 -2.734375 C 2.265625 -2.6875 1.828125 -0.203125 1.65625 0.53125 C 1.625 0.6875 1.5 1.21875 1.171875 1.21875 C 1.171875 1.21875 1 1.21875 0.875 1.125 C 1.15625 1.046875 1.171875 0.796875 1.171875 0.75 C 1.171875 0.59375 1.0625 0.5 0.890625 0.5 C 0.71875 0.5 0.5 0.65625 0.5 0.921875 C 0.5 1.234375 0.828125 1.40625 1.171875 1.40625 C 1.609375 1.40625 1.921875 0.953125 2 0.796875 C 2.25 0.34375 2.40625 -0.515625 2.421875 -0.59375 Z M 2.8125 -2.734375 "/></g><g id="945ab42a684b16be9c78e8911dbb4ab7z1w1jdf1__glyph-4-0"><path d="M 3.28125 -0.75 C 3.328125 -0.359375 3.59375 0.0625 4.0625 0.0625 C 4.265625 0.0625 4.875 -0.078125 4.875 -0.875 L 4.875 -1.4375 L 4.625 -1.4375 L 4.625 -0.875 C 4.625 -0.3125 4.375 -0.25 4.265625 -0.25 C 3.9375 -0.25 3.90625 -0.6875 3.90625 -0.734375 L 3.90625 -2.71875 C 3.90625 -3.125 3.90625 -3.515625 3.546875 -3.875 C 3.15625 -4.265625 2.671875 -4.421875 2.1875 -4.421875 C 1.375 -4.421875 0.703125 -3.953125 0.703125 -3.3125 C 0.703125 -3.015625 0.90625 -2.84375 1.15625 -2.84375 C 1.4375 -2.84375 1.609375 -3.046875 1.609375 -3.296875 C 1.609375 -3.421875 1.5625 -3.75 1.109375 -3.75 C 1.375 -4.09375 1.859375 -4.203125 2.171875 -4.203125 C 2.65625 -4.203125 3.21875 -3.828125 3.21875 -2.9375 L 3.21875 -2.578125 C 2.71875 -2.546875 2.03125 -2.515625 1.40625 -2.21875 C 0.65625 -1.890625 0.421875 -1.375 0.421875 -0.9375 C 0.421875 -0.140625 1.375 0.109375 2 0.109375 C 2.640625 0.109375 3.09375 -0.28125 3.28125 -0.75 Z M 3.21875 -2.375 L 3.21875 -1.375 C 3.21875 -0.4375 2.515625 -0.109375 2.0625 -0.109375 C 1.578125 -0.109375 1.171875 -0.453125 1.171875 -0.953125 C 1.171875 -1.484375 1.59375 -2.3125 3.21875 -2.375 Z M 3.21875 -2.375 "/></g><g id="945ab42a684b16be9c78e8911dbb4ab7z1w1jdf1__glyph-4-1"><path d="M 1.09375 -3.390625 L 1.09375 -0.75 C 1.09375 -0.3125 0.984375 -0.3125 0.3125 -0.3125 L 0.3125 0 C 0.65625 -0.015625 1.171875 -0.03125 1.4375 -0.03125 C 1.6875 -0.03125 2.203125 -0.015625 2.53125 0 L 2.53125 -0.3125 C 1.875 -0.3125 1.765625 -0.3125 1.765625 -0.75 L 1.765625 -2.5625 C 1.765625 -3.59375 2.46875 -4.140625 3.09375 -4.140625 C 3.71875 -4.140625 3.828125 -3.609375 3.828125 -3.046875 L 3.828125 -0.75 C 3.828125 -0.3125 3.71875 -0.3125 3.0625 -0.3125 L 3.0625 0 C 3.40625 -0.015625 3.90625 -0.03125 4.171875 -0.03125 C 4.4375 -0.03125 4.953125 -0.015625 5.28125 0 L 5.28125 -0.3125 C 4.765625 -0.3125 4.515625 -0.3125 4.515625 -0.609375 L 4.515625 -2.484375 C 4.515625 -3.34375 4.515625 -3.640625 4.203125 -4 C 4.0625 -4.171875 3.75 -4.359375 3.171875 -4.359375 C 2.453125 -4.359375 1.984375 -3.9375 1.703125 -3.328125 L 1.703125 -4.359375 L 0.3125 -4.25 L 0.3125 -3.953125 C 1 -3.953125 1.09375 -3.875 1.09375 -3.390625 Z M 1.09375 -3.390625 "/></g><g id="945ab42a684b16be9c78e8911dbb4ab7z1w1jdf1__glyph-4-2"><path d="M 3.75 -0.546875 L 3.75 0.109375 L 5.203125 0 L 5.203125 -0.3125 C 4.515625 -0.3125 4.4375 -0.375 4.4375 -0.859375 L 4.4375 -6.859375 L 3.015625 -6.75 L 3.015625 -6.4375 C 3.703125 -6.4375 3.78125 -6.375 3.78125 -5.890625 L 3.78125 -3.75 C 3.5 -4.109375 3.078125 -4.359375 2.53125 -4.359375 C 1.375 -4.359375 0.328125 -3.390625 0.328125 -2.125 C 0.328125 -0.875 1.296875 0.109375 2.421875 0.109375 C 3.0625 0.109375 3.5 -0.234375 3.75 -0.546875 Z M 3.75 -3.1875 L 3.75 -1.171875 C 3.75 -0.984375 3.75 -0.96875 3.640625 -0.796875 C 3.34375 -0.328125 2.90625 -0.109375 2.484375 -0.109375 C 2.03125 -0.109375 1.671875 -0.359375 1.4375 -0.734375 C 1.1875 -1.140625 1.15625 -1.703125 1.15625 -2.109375 C 1.15625 -2.484375 1.171875 -3.078125 1.46875 -3.515625 C 1.671875 -3.828125 2.046875 -4.140625 2.578125 -4.140625 C 2.921875 -4.140625 3.34375 -4 3.640625 -3.5625 C 3.75 -3.390625 3.75 -3.375 3.75 -3.1875 Z M 3.75 -3.1875 "/></g></g><clipPath id="945ab42a684b16be9c78e8911dbb4ab7z1w1jdf1__clip-0"><path d="M 69 0 L 135 0 L 135 66.769531 L 69 66.769531 Z M 69 0 " clip-rule="nonzero"/></clipPath><clipPath id="945ab42a684b16be9c78e8911dbb4ab7z1w1jdf1__clip-1"><path d="M 80 0 L 124 0 L 124 66.769531 L 80 66.769531 Z M 80 0 " clip-rule="nonzero"/></clipPath><clipPath id="945ab42a684b16be9c78e8911dbb4ab7z1w1jdf1__clip-2"><path d="M 189 0 L 255 0 L 255 66.769531 L 189 66.769531 Z M 189 0 " clip-rule="nonzero"/></clipPath><clipPath id="945ab42a684b16be9c78e8911dbb4ab7z1w1jdf1__clip-3"><path d="M 200 0 L 244 0 L 244 66.769531 L 200 66.769531 Z M 200 0 " clip-rule="nonzero"/></clipPath></defs><g fill="rgb(0%, 0%, 0%)" fill-opacity="1"><use xlink:href="#945ab42a684b16be9c78e8911dbb4ab7z1w1jdf1__glyph-0-0" x="66.161624" y="13.644855"/></g><g fill="rgb(0%, 0%, 0%)" fill-opacity="1"><use xlink:href="#945ab42a684b16be9c78e8911dbb4ab7z1w1jdf1__glyph-0-1" x="129.742486" y="13.644855"/></g><g fill="rgb(0%, 0%, 0%)" fill-opacity="1"><use xlink:href="#945ab42a684b16be9c78e8911dbb4ab7z1w1jdf1__glyph-0-1" x="65.872277" y="63.156752"/></g><g fill="rgb(0%, 0%, 0%)" fill-opacity="1"><use xlink:href="#945ab42a684b16be9c78e8911dbb4ab7z1w1jdf1__glyph-0-1" x="129.742486" y="63.156752"/></g><path fill="none" stroke="rgb(0%, 0%, 0%)" stroke-linecap="butt" stroke-linejoin="miter" stroke-miterlimit="10" stroke-opacity="1" stroke-width="0.39848" d="M -24.005221 24.070719 L 23.311524 24.070719 " transform="matrix(0.990912, 0, 0, -0.990912, 101.798774, 35.02774)"/><path fill="none" stroke="rgb(0%, 0%, 0%)" stroke-linecap="round" stroke-linejoin="round" stroke-miterlimit="10" stroke-opacity="1" stroke-width="0.39848" d="M -2.073083 2.389797 C -1.694643 0.954882 -0.851039 0.280787 0.000449692 0.000899079 C -0.851039 -0.278988 -1.694643 -0.957026 -2.073083 -2.391941 " transform="matrix(0.990912, 0, 0, -0.990912, 125.097211, 11.176672)"/><g fill="rgb(0%, 0%, 0%)" fill-opacity="1"><use xlink:href="#945ab42a684b16be9c78e8911dbb4ab7z1w1jdf1__glyph-1-0" x="100.557162" y="13.644855"/></g><g fill="rgb(0%, 0%, 0%)" fill-opacity="1"><use xlink:href="#945ab42a684b16be9c78e8911dbb4ab7z1w1jdf1__glyph-2-0" x="96.277414" y="7.894594"/></g><g fill="rgb(0%, 0%, 0%)" fill-opacity="1"><use xlink:href="#945ab42a684b16be9c78e8911dbb4ab7z1w1jdf1__glyph-3-0" x="100.729581" y="6.8472"/></g><path fill="none" stroke="rgb(0%, 0%, 0%)" stroke-linecap="butt" stroke-linejoin="miter" stroke-miterlimit="10" stroke-opacity="1" stroke-width="2.32874" d="M 32.228501 17.73186 L 32.228501 -17.735002 " transform="matrix(0.990912, 0, 0, -0.990912, 101.798774, 35.02774)"/><path fill="none" stroke="rgb(100%, 100%, 100%)" stroke-linecap="butt" stroke-linejoin="miter" stroke-miterlimit="10" stroke-opacity="1" stroke-width="1.53175" d="M 32.228501 17.73186 L 32.228501 -17.735002 " transform="matrix(0.990912, 0, 0, -0.990912, 101.798774, 35.02774)"/><path fill="none" stroke="rgb(0%, 0%, 0%)" stroke-linecap="butt" stroke-linejoin="miter" stroke-miterlimit="10" stroke-opacity="1" stroke-width="0.39848" d="M -32.228392 17.73186 L -32.228392 -17.336853 " transform="matrix(0.990912, 0, 0, -0.990912, 101.798774, 35.02774)"/><path fill="none" stroke="rgb(0%, 0%, 0%)" stroke-linecap="round" stroke-linejoin="round" stroke-miterlimit="10" stroke-opacity="1" stroke-width="0.39848" d="M -2.070164 2.388956 C -1.691724 0.957982 -0.84812 0.279945 -0.000573498 0.0000577142 C -0.84812 -0.27983 -1.691724 -0.957867 -2.070164 -2.392783 " transform="matrix(0, 0.990912, 0.990912, 0, 69.863224, 52.402912)"/><g fill="rgb(0%, 0%, 0%)" fill-opacity="1"><use xlink:href="#945ab42a684b16be9c78e8911dbb4ab7z1w1jdf1__glyph-3-1" x="62.916388" y="36.75589"/></g><path fill="none" stroke="rgb(0%, 0%, 0%)" stroke-linecap="butt" stroke-linejoin="miter" stroke-miterlimit="10" stroke-opacity="1" stroke-width="2.32874" d="M -23.709565 -25.895101 L 23.709674 -25.895101 " transform="matrix(0.990912, 0, 0, -0.990912, 101.798774, 35.02774)"/><path fill="none" stroke="rgb(100%, 100%, 100%)" stroke-linecap="butt" stroke-linejoin="miter" stroke-miterlimit="10" stroke-opacity="1" stroke-width="1.53175" d="M -23.709565 -25.895101 L 23.709674 -25.895101 " transform="matrix(0.990912, 0, 0, -0.990912, 101.798774, 35.02774)"/><g clip-path="url(#945ab42a684b16be9c78e8911dbb4ab7z1w1jdf1__clip-0)"><path fill="none" stroke="rgb(0%, 0%, 0%)" stroke-linecap="butt" stroke-linejoin="miter" stroke-miterlimit="10" stroke-opacity="1" stroke-width="2.32874" d="M -0.112295 15.102495 L -0.0413375 -10.055837 " transform="matrix(0.990912, 0, 0, -0.990912, 101.798774, 35.02774)"/></g><g clip-path="url(#945ab42a684b16be9c78e8911dbb4ab7z1w1jdf1__clip-1)"><path fill="none" stroke="rgb(100%, 100%, 100%)" stroke-linecap="butt" stroke-linejoin="miter" stroke-miterlimit="10" stroke-opacity="1" stroke-width="1.53175" d="M -0.112295 15.102495 L -0.0413375 -10.055837 " transform="matrix(0.990912, 0, 0, -0.990912, 101.798774, 35.02774)"/></g><path fill="none" stroke="rgb(0%, 0%, 0%)" stroke-linecap="round" stroke-linejoin="round" stroke-miterlimit="10" stroke-opacity="1" stroke-width="0.39848" d="M -1.292396 2.556491 C -0.665601 1.206424 1.022202 0.0464158 1.987904 0.000222092 C 1.021925 -0.048196 -0.664786 -1.206201 -1.291609 -2.556537 " transform="matrix(0.00290337, 0.990882, 0.990882, -0.00290337, 101.759633, 44.99116)"/><g fill="rgb(0%, 0%, 0%)" fill-opacity="1"><use xlink:href="#945ab42a684b16be9c78e8911dbb4ab7z1w1jdf1__glyph-4-0" x="154.040633" y="35.02774"/><use xlink:href="#945ab42a684b16be9c78e8911dbb4ab7z1w1jdf1__glyph-4-1" x="158.976662" y="35.02774"/><use xlink:href="#945ab42a684b16be9c78e8911dbb4ab7z1w1jdf1__glyph-4-2" x="164.461577" y="35.02774"/></g><g fill="rgb(0%, 0%, 0%)" fill-opacity="1"><use xlink:href="#945ab42a684b16be9c78e8911dbb4ab7z1w1jdf1__glyph-0-0" x="186.26013" y="13.644855"/></g><g fill="rgb(0%, 0%, 0%)" fill-opacity="1"><use xlink:href="#945ab42a684b16be9c78e8911dbb4ab7z1w1jdf1__glyph-0-0" x="249.840992" y="13.644855"/></g><g fill="rgb(0%, 0%, 0%)" fill-opacity="1"><use xlink:href="#945ab42a684b16be9c78e8911dbb4ab7z1w1jdf1__glyph-0-0" x="186.26013" y="63.156752"/></g><g fill="rgb(0%, 0%, 0%)" fill-opacity="1"><use xlink:href="#945ab42a684b16be9c78e8911dbb4ab7z1w1jdf1__glyph-0-1" x="249.551646" y="63.156752"/></g><path fill="none" stroke="rgb(0%, 0%, 0%)" stroke-linecap="butt" stroke-linejoin="miter" stroke-miterlimit="10" stroke-opacity="1" stroke-width="0.39848" d="M -24.002136 -25.895101 L 23.018953 -25.895101 " transform="matrix(0.990912, 0, 0, -0.990912, 221.89728, 35.02774)"/><path fill="none" stroke="rgb(0%, 0%, 0%)" stroke-linecap="round" stroke-linejoin="round" stroke-miterlimit="10" stroke-opacity="1" stroke-width="0.39848" d="M -2.073354 2.390098 C -1.694914 0.955182 -0.85131 0.277145 0.000178605 0.0011992 C -0.85131 -0.278688 -1.694914 -0.956725 -2.073354 -2.391641 " transform="matrix(0.990912, 0, 0, -0.990912, 244.906073, 60.688688)"/><g fill="rgb(0%, 0%, 0%)" fill-opacity="1"><use xlink:href="#945ab42a684b16be9c78e8911dbb4ab7z1w1jdf1__glyph-1-0" x="220.510995" y="63.156752"/></g><g fill="rgb(0%, 0%, 0%)" fill-opacity="1"><use xlink:href="#945ab42a684b16be9c78e8911dbb4ab7z1w1jdf1__glyph-2-0" x="216.230256" y="57.406491"/></g><g fill="rgb(0%, 0%, 0%)" fill-opacity="1"><use xlink:href="#945ab42a684b16be9c78e8911dbb4ab7z1w1jdf1__glyph-3-0" x="220.683413" y="56.359098"/></g><path fill="none" stroke="rgb(0%, 0%, 0%)" stroke-linecap="butt" stroke-linejoin="miter" stroke-miterlimit="10" stroke-opacity="1" stroke-width="2.32874" d="M -32.22925 17.73186 L -32.22925 -17.735002 " transform="matrix(0.990912, 0, 0, -0.990912, 221.89728, 35.02774)"/><path fill="none" stroke="rgb(100%, 100%, 100%)" stroke-linecap="butt" stroke-linejoin="miter" stroke-miterlimit="10" stroke-opacity="1" stroke-width="1.53175" d="M -32.22925 17.73186 L -32.22925 -17.735002 " transform="matrix(0.990912, 0, 0, -0.990912, 221.89728, 35.02774)"/><path fill="none" stroke="rgb(0%, 0%, 0%)" stroke-linecap="butt" stroke-linejoin="miter" stroke-miterlimit="10" stroke-opacity="1" stroke-width="0.39848" d="M 31.93593 17.73186 L 31.93593 -17.336853 " transform="matrix(0.990912, 0, 0, -0.990912, 221.89728, 35.02774)"/><path fill="none" stroke="rgb(0%, 0%, 0%)" stroke-linecap="round" stroke-linejoin="round" stroke-miterlimit="10" stroke-opacity="1" stroke-width="0.39848" d="M -2.070164 2.39261 C -1.691724 0.957694 -0.84812 0.279657 -0.000573498 -0.000230212 C -0.84812 -0.280118 -1.691724 -0.958155 -2.070164 -2.389129 " transform="matrix(0, 0.990912, 0.990912, 0, 253.543197, 52.402912)"/><g fill="rgb(0%, 0%, 0%)" fill-opacity="1"><use xlink:href="#945ab42a684b16be9c78e8911dbb4ab7z1w1jdf1__glyph-3-1" x="255.865735" y="36.75589"/></g><path fill="none" stroke="rgb(0%, 0%, 0%)" stroke-linecap="butt" stroke-linejoin="miter" stroke-miterlimit="10" stroke-opacity="1" stroke-width="2.32874" d="M -24.002136 24.070719 L 23.712758 24.070719 " transform="matrix(0.990912, 0, 0, -0.990912, 221.89728, 35.02774)"/><path fill="none" stroke="rgb(100%, 100%, 100%)" stroke-linecap="butt" stroke-linejoin="miter" stroke-miterlimit="10" stroke-opacity="1" stroke-width="1.53175" d="M -24.002136 24.070719 L 23.712758 24.070719 " transform="matrix(0.990912, 0, 0, -0.990912, 221.89728, 35.02774)"/><g clip-path="url(#945ab42a684b16be9c78e8911dbb4ab7z1w1jdf1__clip-2)"><path fill="none" stroke="rgb(0%, 0%, 0%)" stroke-linecap="butt" stroke-linejoin="miter" stroke-miterlimit="10" stroke-opacity="1" stroke-width="2.32874" d="M -0.180168 15.102495 L -0.251125 -10.055837 " transform="matrix(0.990912, 0, 0, -0.990912, 221.89728, 35.02774)"/></g><g clip-path="url(#945ab42a684b16be9c78e8911dbb4ab7z1w1jdf1__clip-3)"><path fill="none" stroke="rgb(100%, 100%, 100%)" stroke-linecap="butt" stroke-linejoin="miter" stroke-miterlimit="10" stroke-opacity="1" stroke-width="1.53175" d="M -0.180168 15.102495 L -0.251125 -10.055837 " transform="matrix(0.990912, 0, 0, -0.990912, 221.89728, 35.02774)"/></g><path fill="none" stroke="rgb(0%, 0%, 0%)" stroke-linecap="round" stroke-linejoin="round" stroke-miterlimit="10" stroke-opacity="1" stroke-width="0.39848" d="M -1.291608 2.556365 C -0.664785 1.206029 1.021925 0.0480235 1.987905 -0.000394593 C 1.022202 -0.0465883 -0.6656 -1.206597 -1.292396 -2.556664 " transform="matrix(-0.00290337, 0.990882, 0.990882, 0.00290337, 221.646788, 44.99116)"/></svg>