<?xml version="1.0" encoding="UTF-8"?><svg xmlns="http://www.w3.org/2000/svg" xmlns:xlink="http://www.w3.org/1999/xlink" width="159.363" height="67.707" viewBox="0 0 159.363 67.707"><defs><g><g id="3e270f88d29aa46d32f15c6736030ad1qws7tbyn__glyph-0-0"><path d="M 3 -3.21875 L 3.96875 -3.21875 C 4.71875 -3.21875 4.796875 -3.0625 4.796875 -2.78125 C 4.796875 -2.703125 4.796875 -2.59375 4.71875 -2.296875 C 4.703125 -2.25 4.6875 -2.203125 4.6875 -2.1875 C 4.6875 -2.109375 4.75 -2.0625 4.8125 -2.0625 C 4.90625 -2.0625 4.90625 -2.09375 4.953125 -2.265625 L 5.5 -4.421875 C 5.53125 -4.53125 5.53125 -4.546875 5.53125 -4.578125 C 5.53125 -4.609375 5.515625 -4.6875 5.421875 -4.6875 C 5.3125 -4.6875 5.3125 -4.640625 5.265625 -4.484375 C 5.0625 -3.703125 4.828125 -3.53125 3.984375 -3.53125 L 3.078125 -3.53125 L 3.71875 -6.046875 C 3.8125 -6.40625 3.8125 -6.4375 4.25 -6.4375 L 5.5625 -6.4375 C 6.78125 -6.4375 7.015625 -6.109375 7.015625 -5.34375 C 7.015625 -5.125 7.015625 -5.078125 6.984375 -4.8125 C 6.96875 -4.6875 6.96875 -4.65625 6.96875 -4.640625 C 6.96875 -4.578125 7 -4.515625 7.078125 -4.515625 C 7.1875 -4.515625 7.203125 -4.578125 7.21875 -4.765625 L 7.421875 -6.484375 C 7.453125 -6.75 7.40625 -6.75 7.15625 -6.75 L 2.296875 -6.75 C 2.09375 -6.75 2 -6.75 2 -6.546875 C 2 -6.4375 2.078125 -6.4375 2.265625 -6.4375 C 2.640625 -6.4375 2.921875 -6.4375 2.921875 -6.265625 C 2.921875 -6.21875 2.921875 -6.203125 2.875 -6.015625 L 1.5625 -0.78125 C 1.453125 -0.390625 1.4375 -0.3125 0.65625 -0.3125 C 0.484375 -0.3125 0.375 -0.3125 0.375 -0.125 C 0.375 0 0.5 0 0.53125 0 C 0.8125 0 1.546875 -0.03125 1.828125 -0.03125 C 2.15625 -0.03125 2.984375 0 3.3125 0 C 3.40625 0 3.515625 0 3.515625 -0.1875 C 3.515625 -0.265625 3.46875 -0.28125 3.46875 -0.296875 C 3.4375 -0.3125 3.40625 -0.3125 3.1875 -0.3125 C 2.96875 -0.3125 2.921875 -0.3125 2.671875 -0.328125 C 2.375 -0.359375 2.34375 -0.390625 2.34375 -0.53125 C 2.34375 -0.546875 2.34375 -0.609375 2.390625 -0.75 Z M 3 -3.21875 "/></g><g id="3e270f88d29aa46d32f15c6736030ad1qws7tbyn__glyph-0-1"><path d="M 7.03125 -2.3125 C 7.046875 -2.359375 7.078125 -2.4375 7.078125 -2.453125 C 7.078125 -2.453125 7.078125 -2.5625 6.953125 -2.5625 C 6.859375 -2.5625 6.84375 -2.5 6.828125 -2.4375 C 6.1875 -0.96875 5.8125 -0.3125 4.125 -0.3125 L 2.671875 -0.3125 C 2.53125 -0.3125 2.515625 -0.3125 2.453125 -0.3125 C 2.34375 -0.328125 2.328125 -0.34375 2.328125 -0.421875 C 2.328125 -0.453125 2.328125 -0.46875 2.375 -0.640625 L 3.046875 -3.359375 L 4.03125 -3.359375 C 4.875 -3.359375 4.875 -3.140625 4.875 -2.890625 C 4.875 -2.828125 4.875 -2.703125 4.796875 -2.40625 C 4.78125 -2.359375 4.765625 -2.328125 4.765625 -2.296875 C 4.765625 -2.25 4.8125 -2.1875 4.90625 -2.1875 C 4.984375 -2.1875 5.015625 -2.25 5.046875 -2.390625 L 5.609375 -4.71875 C 5.609375 -4.765625 5.5625 -4.828125 5.5 -4.828125 C 5.40625 -4.828125 5.390625 -4.765625 5.359375 -4.640625 C 5.15625 -3.890625 4.96875 -3.65625 4.0625 -3.65625 L 3.125 -3.65625 L 3.71875 -6.046875 C 3.8125 -6.40625 3.8125 -6.4375 4.25 -6.4375 L 5.65625 -6.4375 C 6.859375 -6.4375 7.15625 -6.15625 7.15625 -5.34375 C 7.15625 -5.09375 7.15625 -5.078125 7.125 -4.8125 C 7.125 -4.75 7.109375 -4.6875 7.109375 -4.640625 C 7.109375 -4.578125 7.140625 -4.515625 7.234375 -4.515625 C 7.34375 -4.515625 7.359375 -4.578125 7.375 -4.765625 L 7.578125 -6.484375 C 7.59375 -6.75 7.546875 -6.75 7.296875 -6.75 L 2.296875 -6.75 C 2.09375 -6.75 2 -6.75 2 -6.546875 C 2 -6.4375 2.078125 -6.4375 2.265625 -6.4375 C 2.640625 -6.4375 2.921875 -6.4375 2.921875 -6.265625 C 2.921875 -6.21875 2.921875 -6.203125 2.875 -6.015625 L 1.5625 -0.78125 C 1.453125 -0.390625 1.4375 -0.3125 0.65625 -0.3125 C 0.484375 -0.3125 0.375 -0.3125 0.375 -0.125 C 0.375 0 0.46875 0 0.65625 0 L 5.796875 0 C 6.03125 0 6.046875 -0.015625 6.109375 -0.171875 Z M 7.03125 -2.3125 "/></g><g id="3e270f88d29aa46d32f15c6736030ad1qws7tbyn__glyph-0-2"><path d="M 7.5 -5.734375 C 7.59375 -6.125 7.78125 -6.4375 8.578125 -6.46875 C 8.625 -6.46875 8.734375 -6.484375 8.734375 -6.671875 C 8.734375 -6.671875 8.734375 -6.78125 8.609375 -6.78125 C 8.28125 -6.78125 7.9375 -6.75 7.609375 -6.75 C 7.265625 -6.75 6.921875 -6.78125 6.59375 -6.78125 C 6.53125 -6.78125 6.421875 -6.78125 6.421875 -6.578125 C 6.421875 -6.46875 6.515625 -6.46875 6.59375 -6.46875 C 7.15625 -6.453125 7.265625 -6.25 7.265625 -6.03125 C 7.265625 -6 7.25 -5.859375 7.25 -5.828125 L 6.125 -1.40625 L 3.9375 -6.59375 C 3.859375 -6.765625 3.84375 -6.78125 3.625 -6.78125 L 2.296875 -6.78125 C 2.09375 -6.78125 2 -6.78125 2 -6.578125 C 2 -6.46875 2.09375 -6.46875 2.28125 -6.46875 C 2.328125 -6.46875 2.953125 -6.46875 2.953125 -6.375 L 1.625 -1.046875 C 1.53125 -0.65625 1.359375 -0.34375 0.5625 -0.3125 C 0.5 -0.3125 0.390625 -0.296875 0.390625 -0.109375 C 0.390625 -0.046875 0.4375 0 0.515625 0 C 0.828125 0 1.1875 -0.03125 1.515625 -0.03125 C 1.84375 -0.03125 2.203125 0 2.53125 0 C 2.578125 0 2.703125 0 2.703125 -0.203125 C 2.703125 -0.296875 2.625 -0.3125 2.515625 -0.3125 C 1.9375 -0.328125 1.859375 -0.546875 1.859375 -0.75 C 1.859375 -0.8125 1.859375 -0.859375 1.890625 -0.96875 L 3.203125 -6.21875 C 3.25 -6.15625 3.25 -6.125 3.296875 -6.03125 L 5.765625 -0.1875 C 5.828125 -0.015625 5.859375 0 5.953125 0 C 6.0625 0 6.0625 -0.03125 6.109375 -0.203125 Z M 7.5 -5.734375 "/></g><g id="3e270f88d29aa46d32f15c6736030ad1qws7tbyn__glyph-0-3"><path d="M 9.1875 -6.015625 C 9.28125 -6.375 9.296875 -6.46875 10.046875 -6.46875 C 10.265625 -6.46875 10.359375 -6.46875 10.359375 -6.671875 C 10.359375 -6.78125 10.265625 -6.78125 10.09375 -6.78125 L 8.78125 -6.78125 C 8.515625 -6.78125 8.515625 -6.78125 8.390625 -6.59375 L 4.765625 -0.9375 L 4 -6.546875 C 3.96875 -6.78125 3.953125 -6.78125 3.6875 -6.78125 L 2.328125 -6.78125 C 2.140625 -6.78125 2.03125 -6.78125 2.03125 -6.59375 C 2.03125 -6.46875 2.125 -6.46875 2.328125 -6.46875 C 2.453125 -6.46875 2.625 -6.453125 2.75 -6.453125 C 2.90625 -6.421875 2.96875 -6.40625 2.96875 -6.296875 C 2.96875 -6.25 2.953125 -6.21875 2.921875 -6.109375 L 1.671875 -1.046875 C 1.5625 -0.65625 1.40625 -0.34375 0.59375 -0.3125 C 0.546875 -0.3125 0.421875 -0.296875 0.421875 -0.125 C 0.421875 -0.03125 0.46875 0 0.5625 0 C 0.875 0 1.21875 -0.03125 1.546875 -0.03125 C 1.890625 -0.03125 2.25 0 2.5625 0 C 2.625 0 2.75 0 2.75 -0.203125 C 2.75 -0.3125 2.640625 -0.3125 2.5625 -0.3125 C 2 -0.3125 1.890625 -0.515625 1.890625 -0.75 C 1.890625 -0.8125 1.90625 -0.859375 1.9375 -0.96875 L 3.28125 -6.375 L 3.296875 -6.375 L 4.140625 -0.234375 C 4.171875 -0.109375 4.171875 0 4.296875 0 C 4.40625 0 4.46875 -0.109375 4.515625 -0.171875 L 8.515625 -6.453125 L 8.53125 -6.453125 L 7.109375 -0.78125 C 7.015625 -0.390625 7 -0.3125 6.21875 -0.3125 C 6.046875 -0.3125 5.9375 -0.3125 5.9375 -0.125 C 5.9375 0 6.046875 0 6.078125 0 C 6.359375 0 7.03125 -0.03125 7.3125 -0.03125 C 7.71875 -0.03125 8.140625 0 8.546875 0 C 8.609375 0 8.734375 0 8.734375 -0.203125 C 8.734375 -0.3125 8.65625 -0.3125 8.46875 -0.3125 C 8.09375 -0.3125 7.8125 -0.3125 7.8125 -0.484375 C 7.8125 -0.53125 7.8125 -0.546875 7.875 -0.71875 Z M 9.1875 -6.015625 "/></g><g id="3e270f88d29aa46d32f15c6736030ad1qws7tbyn__glyph-1-0"><path d="M 2.234375 -1.734375 C 2.8125 -1.984375 3.0625 -2.078125 3.234375 -2.15625 C 3.375 -2.21875 3.4375 -2.234375 3.4375 -2.375 C 3.4375 -2.484375 3.34375 -2.59375 3.21875 -2.59375 C 3.171875 -2.59375 3.15625 -2.59375 3.078125 -2.53125 L 2.125 -1.90625 L 2.234375 -2.921875 C 2.25 -3.046875 2.234375 -3.21875 2.03125 -3.21875 C 1.9375 -3.21875 1.8125 -3.171875 1.8125 -3.015625 C 1.8125 -2.953125 1.84375 -2.75 1.84375 -2.671875 C 1.859375 -2.5625 1.90625 -2.0625 1.921875 -1.90625 L 0.984375 -2.53125 C 0.921875 -2.578125 0.890625 -2.59375 0.828125 -2.59375 C 0.703125 -2.59375 0.625 -2.484375 0.625 -2.375 C 0.625 -2.234375 0.703125 -2.203125 0.765625 -2.171875 L 1.8125 -1.734375 C 1.234375 -1.484375 0.984375 -1.390625 0.8125 -1.296875 C 0.6875 -1.25 0.625 -1.21875 0.625 -1.09375 C 0.625 -0.96875 0.703125 -0.875 0.828125 -0.875 C 0.875 -0.875 0.890625 -0.875 0.984375 -0.921875 L 1.921875 -1.5625 L 1.8125 -0.4375 C 1.8125 -0.296875 1.9375 -0.234375 2.03125 -0.234375 C 2.109375 -0.234375 2.234375 -0.296875 2.234375 -0.4375 C 2.234375 -0.5 2.21875 -0.71875 2.203125 -0.78125 C 2.1875 -0.90625 2.140625 -1.40625 2.125 -1.5625 L 2.96875 -1 C 3.140625 -0.875 3.15625 -0.875 3.21875 -0.875 C 3.34375 -0.875 3.4375 -0.96875 3.4375 -1.09375 C 3.4375 -1.234375 3.34375 -1.265625 3.28125 -1.296875 Z M 2.234375 -1.734375 "/></g><g id="3e270f88d29aa46d32f15c6736030ad1qws7tbyn__glyph-2-0"><path d="M 2.15625 -2.515625 L 2.984375 -2.515625 C 2.875 -2.109375 2.71875 -1.46875 2.71875 -0.921875 C 2.71875 -0.640625 2.765625 -0.453125 2.796875 -0.3125 C 2.90625 0.046875 3 0.0625 3.109375 0.0625 C 3.28125 0.0625 3.4375 -0.078125 3.4375 -0.25 C 3.4375 -0.296875 3.421875 -0.328125 3.390625 -0.390625 C 3.25 -0.65625 3.125 -1.046875 3.125 -1.609375 C 3.125 -1.75 3.125 -2.03125 3.21875 -2.515625 L 4.09375 -2.515625 C 4.21875 -2.515625 4.28125 -2.515625 4.34375 -2.578125 C 4.453125 -2.640625 4.46875 -2.75 4.46875 -2.78125 C 4.46875 -2.984375 4.28125 -2.984375 4.171875 -2.984375 L 1.546875 -2.984375 C 1.265625 -2.984375 1.078125 -2.921875 0.765625 -2.640625 C 0.578125 -2.484375 0.3125 -2.109375 0.3125 -2.046875 C 0.3125 -1.953125 0.40625 -1.953125 0.4375 -1.953125 C 0.5 -1.953125 0.515625 -1.96875 0.5625 -2.03125 C 0.90625 -2.515625 1.34375 -2.515625 1.484375 -2.515625 L 1.921875 -2.515625 C 1.703125 -1.75 1.328125 -0.9375 1.109375 -0.515625 C 1.078125 -0.4375 1 -0.28125 0.984375 -0.25 C 0.984375 -0.234375 0.96875 -0.203125 0.96875 -0.15625 C 0.96875 -0.046875 1.046875 0.0625 1.203125 0.0625 C 1.484375 0.0625 1.5625 -0.25 1.734375 -0.875 Z M 2.15625 -2.515625 "/></g><g id="3e270f88d29aa46d32f15c6736030ad1qws7tbyn__glyph-2-1"><path d="M 2.375 -2.234375 L 3.109375 -2.234375 C 3.640625 -2.234375 3.734375 -2.15625 3.734375 -1.921875 C 3.734375 -1.8125 3.734375 -1.796875 3.6875 -1.609375 C 3.671875 -1.5625 3.65625 -1.546875 3.65625 -1.53125 C 3.65625 -1.453125 3.71875 -1.421875 3.78125 -1.421875 C 3.875 -1.421875 3.875 -1.453125 3.90625 -1.578125 L 4.28125 -3.046875 C 4.296875 -3.078125 4.3125 -3.171875 4.3125 -3.1875 C 4.3125 -3.265625 4.265625 -3.296875 4.203125 -3.296875 C 4.09375 -3.296875 4.09375 -3.25 4.0625 -3.125 C 3.921875 -2.59375 3.71875 -2.484375 3.125 -2.484375 L 2.4375 -2.484375 L 2.875 -4.21875 C 2.921875 -4.4375 2.9375 -4.453125 3.21875 -4.453125 L 4.28125 -4.453125 C 5.203125 -4.453125 5.390625 -4.234375 5.390625 -3.65625 C 5.390625 -3.4375 5.359375 -3.28125 5.359375 -3.234375 C 5.359375 -3.171875 5.375 -3.109375 5.46875 -3.109375 C 5.578125 -3.109375 5.578125 -3.171875 5.59375 -3.296875 L 5.71875 -4.5 C 5.75 -4.703125 5.703125 -4.703125 5.515625 -4.703125 L 1.8125 -4.703125 C 1.6875 -4.703125 1.59375 -4.703125 1.59375 -4.5625 C 1.59375 -4.453125 1.671875 -4.453125 1.8125 -4.453125 C 1.828125 -4.453125 1.953125 -4.453125 2.078125 -4.453125 C 2.234375 -4.4375 2.234375 -4.421875 2.234375 -4.34375 C 2.234375 -4.296875 2.21875 -4.234375 2.21875 -4.203125 L 1.296875 -0.5625 C 1.234375 -0.296875 1.234375 -0.25 0.6875 -0.25 C 0.5625 -0.25 0.484375 -0.25 0.484375 -0.109375 C 0.484375 -0.03125 0.53125 0 0.59375 0 C 0.796875 0 1.296875 -0.03125 1.5 -0.03125 L 2.046875 -0.015625 C 2.21875 -0.015625 2.421875 0 2.59375 0 C 2.640625 0 2.734375 0 2.734375 -0.15625 C 2.734375 -0.25 2.65625 -0.25 2.5 -0.25 C 2.484375 -0.25 2.3125 -0.25 2.140625 -0.265625 C 1.984375 -0.28125 1.921875 -0.28125 1.921875 -0.375 C 1.921875 -0.40625 1.921875 -0.4375 1.9375 -0.5 Z M 2.375 -2.234375 "/></g><g id="3e270f88d29aa46d32f15c6736030ad1qws7tbyn__glyph-3-0"><path d="M 2.921875 -0.953125 L 2.703125 -0.953125 C 2.6875 -0.859375 2.640625 -0.5625 2.5625 -0.5 C 2.53125 -0.46875 2.109375 -0.46875 2.03125 -0.46875 L 1.0625 -0.46875 C 1.390625 -0.71875 1.765625 -1 2.0625 -1.1875 C 2.5 -1.5 2.921875 -1.78125 2.921875 -2.3125 C 2.921875 -2.953125 2.3125 -3.296875 1.609375 -3.296875 C 0.9375 -3.296875 0.453125 -2.90625 0.453125 -2.421875 C 0.453125 -2.171875 0.671875 -2.125 0.734375 -2.125 C 0.875 -2.125 1.03125 -2.21875 1.03125 -2.421875 C 1.03125 -2.59375 0.90625 -2.6875 0.75 -2.703125 C 0.890625 -2.9375 1.171875 -3.078125 1.5 -3.078125 C 1.984375 -3.078125 2.390625 -2.796875 2.390625 -2.3125 C 2.390625 -1.890625 2.09375 -1.578125 1.71875 -1.25 L 0.515625 -0.234375 C 0.453125 -0.1875 0.453125 -0.1875 0.453125 -0.15625 L 0.453125 0 L 2.75 0 Z M 2.921875 -0.953125 "/></g><g id="3e270f88d29aa46d32f15c6736030ad1qws7tbyn__glyph-3-1"><path d="M 1.96875 -3.15625 C 1.96875 -3.296875 1.953125 -3.296875 1.796875 -3.296875 C 1.4375 -2.984375 0.890625 -2.984375 0.796875 -2.984375 L 0.703125 -2.984375 L 0.703125 -2.765625 L 0.796875 -2.765625 C 0.90625 -2.765625 1.234375 -2.78125 1.515625 -2.90625 L 1.515625 -0.421875 C 1.515625 -0.265625 1.515625 -0.21875 0.984375 -0.21875 L 0.75 -0.21875 L 0.75 0 C 1.015625 -0.015625 1.453125 -0.015625 1.75 -0.015625 C 2.03125 -0.015625 2.46875 -0.015625 2.75 0 L 2.75 -0.21875 L 2.5 -0.21875 C 1.96875 -0.21875 1.96875 -0.265625 1.96875 -0.421875 Z M 1.96875 -3.15625 "/></g><g id="3e270f88d29aa46d32f15c6736030ad1qws7tbyn__glyph-4-0"><path d="M 3.515625 -2.578125 C 3.515625 -2.671875 3.515625 -2.84375 3.34375 -2.84375 C 3.171875 -2.84375 3.171875 -2.65625 3.171875 -2.546875 L 3.171875 -0.203125 L 0.8125 -0.203125 C 0.703125 -0.203125 0.546875 -0.203125 0.546875 -0.03125 C 0.546875 0.140625 0.6875 0.140625 0.8125 0.140625 L 3.234375 0.140625 C 3.46875 0.140625 3.515625 0.09375 3.515625 -0.125 Z M 3.515625 -2.578125 "/></g></g></defs><g fill="rgb(0%, 0%, 0%)" fill-opacity="1"><use xlink:href="#3e270f88d29aa46d32f15c6736030ad1qws7tbyn__glyph-0-0" x="35.828274" y="10.930698"/></g><g fill="rgb(0%, 0%, 0%)" fill-opacity="1"><use xlink:href="#3e270f88d29aa46d32f15c6736030ad1qws7tbyn__glyph-1-0" x="43.584708" y="7.331274"/></g><g fill="rgb(0%, 0%, 0%)" fill-opacity="1"><use xlink:href="#3e270f88d29aa46d32f15c6736030ad1qws7tbyn__glyph-0-1" x="48.144973" y="10.930698"/></g><g fill="rgb(0%, 0%, 0%)" fill-opacity="1"><use xlink:href="#3e270f88d29aa46d32f15c6736030ad1qws7tbyn__glyph-0-1" x="113.601711" y="10.930698"/></g><g fill="rgb(0%, 0%, 0%)" fill-opacity="1"><use xlink:href="#3e270f88d29aa46d32f15c6736030ad1qws7tbyn__glyph-0-2" x="41.408127" y="60.680407"/></g><g fill="rgb(0%, 0%, 0%)" fill-opacity="1"><use xlink:href="#3e270f88d29aa46d32f15c6736030ad1qws7tbyn__glyph-0-3" x="112.195795" y="60.681403"/></g><path fill="none" stroke="rgb(0%, 0%, 0%)" stroke-linecap="butt" stroke-linejoin="miter" stroke-miterlimit="10" stroke-opacity="1" stroke-width="0.39848" d="M -18.938661 24.045218 L 29.4966 24.045218 " transform="matrix(0.995691, 0, 0, -0.995691, 79.36487, 32.39083)"/><path fill="none" stroke="rgb(0%, 0%, 0%)" stroke-linecap="round" stroke-linejoin="round" stroke-miterlimit="10" stroke-opacity="1" stroke-width="0.39848" d="M -2.072084 2.390778 C -1.695461 0.954904 -0.84806 0.280121 -0.000658697 0.00157751 C -0.84806 -0.28089 -1.695461 -0.955672 -2.072084 -2.391547 " transform="matrix(0.995691, 0, 0, -0.995691, 108.93425, 8.450789)"/><g fill="rgb(0%, 0%, 0%)" fill-opacity="1"><use xlink:href="#3e270f88d29aa46d32f15c6736030ad1qws7tbyn__glyph-2-0" x="80.565674" y="5.124822"/></g><g fill="rgb(0%, 0%, 0%)" fill-opacity="1"><use xlink:href="#3e270f88d29aa46d32f15c6736030ad1qws7tbyn__glyph-3-0" x="85.203603" y="6.116531"/></g><path fill="none" stroke="rgb(0%, 0%, 0%)" stroke-linecap="butt" stroke-linejoin="miter" stroke-miterlimit="10" stroke-opacity="1" stroke-width="0.39848" d="M -33.575949 17.709324 L -33.575949 -17.359752 " transform="matrix(0.995691, 0, 0, -0.995691, 79.36487, 32.39083)"/><path fill="none" stroke="rgb(0%, 0%, 0%)" stroke-linecap="round" stroke-linejoin="round" stroke-miterlimit="10" stroke-opacity="1" stroke-width="0.39848" d="M -2.072303 2.389102 C -1.691757 0.95715 -0.848279 0.278445 -0.000877442 -0.0000992962 C -0.848279 -0.278643 -1.691757 -0.957349 -2.072303 -2.3893 " transform="matrix(0, 0.995691, 0.995691, 0, 45.933693, 49.875874)"/><g fill="rgb(0%, 0%, 0%)" fill-opacity="1"><use xlink:href="#3e270f88d29aa46d32f15c6736030ad1qws7tbyn__glyph-2-0" x="35.089471" y="33.415396"/></g><g fill="rgb(0%, 0%, 0%)" fill-opacity="1"><use xlink:href="#3e270f88d29aa46d32f15c6736030ad1qws7tbyn__glyph-3-1" x="39.728396" y="34.407104"/></g><g fill="rgb(0%, 0%, 0%)" fill-opacity="1"><use xlink:href="#3e270f88d29aa46d32f15c6736030ad1qws7tbyn__glyph-4-0" x="59.569534" y="20.831851"/></g><path fill="none" stroke="rgb(0%, 0%, 0%)" stroke-linecap="butt" stroke-linejoin="miter" stroke-miterlimit="10" stroke-opacity="1" stroke-width="0.39848" d="M 38.351159 17.709324 L 38.351159 -17.359752 " transform="matrix(0.995691, 0, 0, -0.995691, 79.36487, 32.39083)"/><path fill="none" stroke="rgb(0%, 0%, 0%)" stroke-linecap="round" stroke-linejoin="round" stroke-miterlimit="10" stroke-opacity="1" stroke-width="0.39848" d="M -2.072303 2.39067 C -1.691757 0.954796 -0.848279 0.280013 -0.000877442 0.00146942 C -0.848279 -0.277075 -1.691757 -0.95578 -2.072303 -2.391655 " transform="matrix(0, 0.995691, 0.995691, 0, 117.549318, 49.875874)"/><g fill="rgb(0%, 0%, 0%)" fill-opacity="1"><use xlink:href="#3e270f88d29aa46d32f15c6736030ad1qws7tbyn__glyph-2-0" x="119.882531" y="33.91125"/></g><path fill="none" stroke="rgb(0%, 0%, 0%)" stroke-linecap="butt" stroke-linejoin="miter" stroke-miterlimit="10" stroke-opacity="1" stroke-width="0.39848" d="M -24.540925 -25.923997 L 28.088188 -25.923997 " transform="matrix(0.995691, 0, 0, -0.995691, 79.36487, 32.39083)"/><path fill="none" stroke="rgb(0%, 0%, 0%)" stroke-linecap="round" stroke-linejoin="round" stroke-miterlimit="10" stroke-opacity="1" stroke-width="0.39848" d="M -2.07303 2.391617 C -1.692484 0.955742 -0.849006 0.277037 -0.0016042 -0.00150727 C -0.849006 -0.280051 -1.692484 -0.954834 -2.07303 -2.390708 " transform="matrix(0.995691, 0, 0, -0.995691, 107.528941, 58.201624)"/><g fill="rgb(0%, 0%, 0%)" fill-opacity="1"><use xlink:href="#3e270f88d29aa46d32f15c6736030ad1qws7tbyn__glyph-2-1" x="78.278571" y="65.279505"/></g></svg>