<?xml version="1.0" encoding="UTF-8"?><svg xmlns="http://www.w3.org/2000/svg" xmlns:xlink="http://www.w3.org/1999/xlink" width="343.711" height="214.591" viewBox="0 0 343.711 214.591"><defs><clipPath id="7d6d0cb3c6c9d3e4c40c86078a6bc5c7ct4mheob__clip-0"><path d="M 101 0 L 243 0 L 243 214.183594 L 101 214.183594 Z M 101 0 " clip-rule="nonzero"/></clipPath><clipPath id="7d6d0cb3c6c9d3e4c40c86078a6bc5c7ct4mheob__clip-1"><path d="M 101 0 L 214 0 L 214 214.183594 L 101 214.183594 Z M 101 0 " clip-rule="nonzero"/></clipPath><clipPath id="7d6d0cb3c6c9d3e4c40c86078a6bc5c7ct4mheob__clip-2"><path d="M 157 0 L 243 0 L 243 214.183594 L 157 214.183594 Z M 157 0 " clip-rule="nonzero"/></clipPath></defs><g clip-path="url(#7d6d0cb3c6c9d3e4c40c86078a6bc5c7ct4mheob__clip-0)"><path fill="none" stroke="rgb(100%, 0%, 0%)" stroke-linecap="butt" stroke-linejoin="miter" stroke-miterlimit="10" stroke-opacity="1" stroke-width="1.99255" d="M 0.000778162 0.00192144 C 0.000778162 -21.261184 28.347672 -21.261184 28.347672 -42.520376 L 28.347672 -28.344972 C 28.347672 -49.608078 56.694566 -49.608078 56.694566 -70.86727 L 56.694566 -56.691866 C 56.694566 -77.954972 85.041459 -77.954972 85.041459 -99.214164 L 85.041459 -113.385654 C 85.041459 -134.648759 56.694566 -134.648759 56.694566 -155.907951 L 56.694566 -141.732547 C 56.694566 -162.995653 28.347672 -162.995653 28.347672 -184.254845 L 28.347672 -170.079441 C 28.347672 -191.342547 0.000778162 -191.342547 0.000778162 -212.601739 " transform="matrix(0.998098, 0, 0, -0.998098, 129.272661, 0.994105)"/></g><g clip-path="url(#7d6d0cb3c6c9d3e4c40c86078a6bc5c7ct4mheob__clip-1)"><path fill="none" stroke="rgb(0%, 0%, 0%)" stroke-linecap="butt" stroke-linejoin="miter" stroke-miterlimit="10" stroke-opacity="1" stroke-width="1.99255" d="M 56.694566 0.00192144 L 56.694566 -28.344972 C 56.694566 -36.849432 52.158593 -41.95289 46.714643 -46.375366 M 38.323681 -52.836876 C 32.883645 -57.259352 28.347672 -62.36281 28.347672 -70.86727 L 28.347672 -85.03876 C 28.347672 -93.543219 23.811699 -98.646678 18.367749 -103.069153 M 9.976787 -109.530664 C 4.536751 -113.953139 0.000778162 -119.056598 0.000778162 -127.561057 L 0.000778162 -170.079441 C 0.000778162 -178.583901 4.536751 -183.687359 9.976787 -188.109835 M 18.367749 -194.571345 C 23.811699 -198.993821 28.347672 -204.097279 28.347672 -212.601739 " transform="matrix(0.998098, 0, 0, -0.998098, 129.272661, 0.994105)"/><path fill="none" stroke="rgb(0%, 0%, 100%)" stroke-linecap="butt" stroke-linejoin="miter" stroke-miterlimit="10" stroke-opacity="1" stroke-width="1.99255" d="M 28.347672 0.00192144 C 28.347672 -8.502538 23.811699 -13.605997 18.367749 -18.028472 M 9.976787 -24.489983 C 4.536751 -28.912458 0.000778162 -34.015917 0.000778162 -42.520376 L 0.000778162 -85.03876 C 0.000778162 -106.301865 28.347672 -106.301865 28.347672 -127.561057 L 28.347672 -141.732547 C 28.347672 -150.237007 32.883645 -155.340465 38.323681 -159.762941 M 46.714643 -166.224451 C 52.158593 -170.646927 56.694566 -175.750385 56.694566 -184.254845 L 56.694566 -212.601739 " transform="matrix(0.998098, 0, 0, -0.998098, 129.272661, 0.994105)"/></g><g clip-path="url(#7d6d0cb3c6c9d3e4c40c86078a6bc5c7ct4mheob__clip-2)"><path fill="none" stroke="rgb(0%, 100%, 0%)" stroke-linecap="butt" stroke-linejoin="miter" stroke-miterlimit="10" stroke-opacity="1" stroke-width="1.99255" d="M 85.041459 0.00192144 L 85.041459 -56.691866 C 85.041459 -65.196326 80.505487 -70.299784 75.061537 -74.72226 M 66.670575 -81.18377 C 61.230538 -85.606246 56.694566 -90.709704 56.694566 -99.214164 L 56.694566 -113.385654 C 56.694566 -121.890113 61.230538 -126.993572 66.670575 -131.416047 M 75.061537 -137.877558 C 80.505487 -142.300033 85.041459 -147.403492 85.041459 -155.907951 L 85.041459 -212.601739 " transform="matrix(0.998098, 0, 0, -0.998098, 129.272661, 0.994105)"/></g><path fill="none" stroke="rgb(0%, 0%, 0%)" stroke-linecap="butt" stroke-linejoin="miter" stroke-miterlimit="10" stroke-opacity="1" stroke-width="0.79701" d="M -8.503681 0.00192144 L 93.545919 0.00192144 " transform="matrix(0.998098, 0, 0, -0.998098, 129.272661, 0.994105)"/><path fill="none" stroke="rgb(0%, 0%, 0%)" stroke-linecap="butt" stroke-linejoin="miter" stroke-miterlimit="10" stroke-opacity="1" stroke-width="0.79701" d="M -8.503681 -212.601739 L 93.545919 -212.601739 " transform="matrix(0.998098, 0, 0, -0.998098, 129.272661, 0.994105)"/></svg>