<?xml version="1.0" encoding="UTF-8"?><svg xmlns="http://www.w3.org/2000/svg" xmlns:xlink="http://www.w3.org/1999/xlink" width="216.633" height="71.402" viewBox="0 0 216.633 71.402"><defs><g><g id="6500836de13709330a5b28c16cdd0fd6oncsqklw__glyph-0-0"><path d="M 6.984375 -2.296875 C 7.015625 -2.34375 7.046875 -2.421875 7.046875 -2.4375 C 7.046875 -2.453125 7.046875 -2.546875 6.921875 -2.546875 C 6.828125 -2.546875 6.8125 -2.484375 6.796875 -2.421875 C 6.15625 -0.96875 5.78125 -0.3125 4.09375 -0.3125 L 2.65625 -0.3125 C 2.515625 -0.3125 2.5 -0.3125 2.4375 -0.3125 C 2.34375 -0.328125 2.3125 -0.328125 2.3125 -0.421875 C 2.3125 -0.4375 2.3125 -0.46875 2.359375 -0.640625 L 3.03125 -3.34375 L 4.015625 -3.34375 C 4.84375 -3.34375 4.84375 -3.125 4.84375 -2.890625 C 4.84375 -2.8125 4.84375 -2.703125 4.78125 -2.40625 C 4.765625 -2.34375 4.75 -2.328125 4.75 -2.296875 C 4.75 -2.234375 4.796875 -2.1875 4.875 -2.1875 C 4.953125 -2.1875 4.984375 -2.234375 5.03125 -2.375 L 5.59375 -4.6875 C 5.59375 -4.75 5.546875 -4.796875 5.46875 -4.796875 C 5.375 -4.796875 5.359375 -4.734375 5.328125 -4.625 C 5.125 -3.875 4.953125 -3.640625 4.03125 -3.640625 L 3.109375 -3.640625 L 3.703125 -6.03125 C 3.796875 -6.375 3.796875 -6.40625 4.234375 -6.40625 L 5.625 -6.40625 C 6.828125 -6.40625 7.125 -6.125 7.125 -5.3125 C 7.125 -5.078125 7.125 -5.0625 7.09375 -4.796875 C 7.09375 -4.734375 7.078125 -4.65625 7.078125 -4.609375 C 7.078125 -4.5625 7.109375 -4.5 7.203125 -4.5 C 7.3125 -4.5 7.3125 -4.546875 7.34375 -4.734375 L 7.53125 -6.453125 C 7.5625 -6.71875 7.515625 -6.71875 7.265625 -6.71875 L 2.28125 -6.71875 C 2.078125 -6.71875 1.984375 -6.71875 1.984375 -6.515625 C 1.984375 -6.40625 2.078125 -6.40625 2.265625 -6.40625 C 2.625 -6.40625 2.90625 -6.40625 2.90625 -6.234375 C 2.90625 -6.1875 2.90625 -6.171875 2.859375 -6 L 1.546875 -0.765625 C 1.453125 -0.390625 1.4375 -0.3125 0.65625 -0.3125 C 0.484375 -0.3125 0.375 -0.3125 0.375 -0.125 C 0.375 0 0.46875 0 0.65625 0 L 5.78125 0 C 6 0 6.015625 -0.015625 6.078125 -0.171875 Z M 6.984375 -2.296875 "/></g><g id="6500836de13709330a5b28c16cdd0fd6oncsqklw__glyph-0-1"><path d="M 9.140625 -5.984375 C 9.234375 -6.34375 9.25 -6.4375 10 -6.4375 C 10.21875 -6.4375 10.3125 -6.4375 10.3125 -6.640625 C 10.3125 -6.75 10.203125 -6.75 10.046875 -6.75 L 8.734375 -6.75 C 8.484375 -6.75 8.46875 -6.75 8.359375 -6.5625 L 4.75 -0.921875 L 3.984375 -6.515625 C 3.953125 -6.75 3.9375 -6.75 3.671875 -6.75 L 2.328125 -6.75 C 2.140625 -6.75 2.03125 -6.75 2.03125 -6.5625 C 2.03125 -6.4375 2.109375 -6.4375 2.3125 -6.4375 C 2.4375 -6.4375 2.609375 -6.421875 2.734375 -6.421875 C 2.890625 -6.40625 2.953125 -6.375 2.953125 -6.265625 C 2.953125 -6.21875 2.9375 -6.1875 2.90625 -6.078125 L 1.65625 -1.046875 C 1.5625 -0.65625 1.390625 -0.328125 0.59375 -0.3125 C 0.546875 -0.3125 0.421875 -0.296875 0.421875 -0.125 C 0.421875 -0.03125 0.46875 0 0.546875 0 C 0.875 0 1.21875 -0.03125 1.546875 -0.03125 C 1.875 -0.03125 2.234375 0 2.5625 0 C 2.609375 0 2.734375 0 2.734375 -0.203125 C 2.734375 -0.3125 2.625 -0.3125 2.5625 -0.3125 C 2 -0.3125 1.890625 -0.515625 1.890625 -0.734375 C 1.890625 -0.8125 1.890625 -0.859375 1.921875 -0.96875 L 3.265625 -6.34375 L 3.28125 -6.34375 L 4.125 -0.234375 C 4.140625 -0.109375 4.15625 0 4.28125 0 C 4.390625 0 4.4375 -0.109375 4.5 -0.171875 L 8.484375 -6.421875 L 8.5 -6.421875 L 7.078125 -0.765625 C 6.984375 -0.390625 6.96875 -0.3125 6.1875 -0.3125 C 6.015625 -0.3125 5.90625 -0.3125 5.90625 -0.125 C 5.90625 0 6.03125 0 6.046875 0 C 6.328125 0 7 -0.03125 7.28125 -0.03125 C 7.6875 -0.03125 8.109375 0 8.515625 0 C 8.578125 0 8.703125 0 8.703125 -0.203125 C 8.703125 -0.3125 8.609375 -0.3125 8.421875 -0.3125 C 8.0625 -0.3125 7.78125 -0.3125 7.78125 -0.484375 C 7.78125 -0.515625 7.78125 -0.546875 7.828125 -0.71875 Z M 9.140625 -5.984375 "/></g><g id="6500836de13709330a5b28c16cdd0fd6oncsqklw__glyph-1-0"><path d="M 2.3125 -4.40625 C 2.3125 -4.59375 2.3125 -4.59375 2.109375 -4.59375 C 1.671875 -4.15625 1.03125 -4.15625 0.75 -4.15625 L 0.75 -3.90625 C 0.921875 -3.90625 1.375 -3.90625 1.765625 -4.09375 L 1.765625 -0.5625 C 1.765625 -0.34375 1.765625 -0.25 1.0625 -0.25 L 0.796875 -0.25 L 0.796875 0 C 0.921875 0 1.78125 -0.03125 2.03125 -0.03125 C 2.25 -0.03125 3.125 0 3.28125 0 L 3.28125 -0.25 L 3.015625 -0.25 C 2.3125 -0.25 2.3125 -0.34375 2.3125 -0.5625 Z M 2.3125 -4.40625 "/></g><g id="6500836de13709330a5b28c16cdd0fd6oncsqklw__glyph-1-1"><path d="M 3.5 -1.265625 L 3.265625 -1.265625 C 3.234375 -1.109375 3.171875 -0.703125 3.078125 -0.625 C 3.03125 -0.59375 2.484375 -0.59375 2.390625 -0.59375 L 1.125 -0.59375 C 1.84375 -1.234375 2.09375 -1.421875 2.5 -1.75 C 3.015625 -2.15625 3.5 -2.59375 3.5 -3.25 C 3.5 -4.078125 2.765625 -4.59375 1.875 -4.59375 C 1.015625 -4.59375 0.4375 -4 0.4375 -3.359375 C 0.4375 -3 0.734375 -2.96875 0.796875 -2.96875 C 0.96875 -2.96875 1.171875 -3.09375 1.171875 -3.34375 C 1.171875 -3.453125 1.125 -3.703125 0.765625 -3.703125 C 0.96875 -4.1875 1.453125 -4.34375 1.765625 -4.34375 C 2.46875 -4.34375 2.828125 -3.8125 2.828125 -3.25 C 2.828125 -2.640625 2.390625 -2.171875 2.171875 -1.921875 L 0.5 -0.265625 C 0.4375 -0.203125 0.4375 -0.1875 0.4375 0 L 3.28125 0 Z M 3.5 -1.265625 "/></g><g id="6500836de13709330a5b28c16cdd0fd6oncsqklw__glyph-1-2"><path d="M 3.09375 -0.96875 C 4.234375 -1.046875 5.15625 -1.640625 5.15625 -2.359375 C 5.15625 -3.109375 4.203125 -3.6875 3.09375 -3.765625 L 3.09375 -4.15625 C 3.09375 -4.390625 3.09375 -4.484375 3.75 -4.484375 L 4 -4.484375 L 4 -4.734375 C 3.84375 -4.71875 3.046875 -4.703125 2.796875 -4.703125 C 2.390625 -4.703125 1.671875 -4.71875 1.59375 -4.734375 L 1.59375 -4.484375 L 1.84375 -4.484375 C 2.484375 -4.484375 2.484375 -4.390625 2.484375 -4.15625 L 2.484375 -3.765625 C 1.28125 -3.65625 0.484375 -3.03125 0.484375 -2.375 C 0.484375 -1.671875 1.3125 -1.0625 2.484375 -0.96875 L 2.484375 -0.5625 C 2.484375 -0.34375 2.484375 -0.25 1.84375 -0.25 L 1.59375 -0.25 L 1.59375 0 C 1.75 0 2.546875 -0.03125 2.796875 -0.03125 C 3.203125 -0.03125 3.921875 0 4 0 L 4 -0.25 L 3.75 -0.25 C 3.09375 -0.25 3.09375 -0.34375 3.09375 -0.5625 Z M 2.484375 -1.15625 C 1.921875 -1.21875 1.203125 -1.46875 1.203125 -2.359375 C 1.203125 -3.28125 1.9375 -3.515625 2.484375 -3.5625 Z M 3.09375 -3.5625 C 3.734375 -3.515625 4.4375 -3.234375 4.4375 -2.375 C 4.4375 -1.453125 3.6875 -1.203125 3.09375 -1.15625 Z M 3.09375 -3.5625 "/></g><g id="6500836de13709330a5b28c16cdd0fd6oncsqklw__glyph-2-0"><path d="M 2.15625 -2.515625 L 2.96875 -2.515625 C 2.875 -2.09375 2.71875 -1.46875 2.71875 -0.921875 C 2.71875 -0.640625 2.75 -0.453125 2.796875 -0.296875 C 2.90625 0.046875 3 0.0625 3.109375 0.0625 C 3.265625 0.0625 3.4375 -0.078125 3.4375 -0.25 C 3.4375 -0.296875 3.421875 -0.328125 3.375 -0.390625 C 3.25 -0.65625 3.125 -1.046875 3.125 -1.609375 C 3.125 -1.75 3.125 -2.015625 3.21875 -2.515625 L 4.078125 -2.515625 C 4.203125 -2.515625 4.265625 -2.515625 4.34375 -2.5625 C 4.4375 -2.640625 4.453125 -2.75 4.453125 -2.78125 C 4.453125 -2.984375 4.28125 -2.984375 4.15625 -2.984375 L 1.546875 -2.984375 C 1.265625 -2.984375 1.078125 -2.921875 0.765625 -2.625 C 0.578125 -2.46875 0.3125 -2.09375 0.3125 -2.03125 C 0.3125 -1.953125 0.40625 -1.953125 0.421875 -1.953125 C 0.5 -1.953125 0.515625 -1.96875 0.546875 -2.03125 C 0.90625 -2.515625 1.328125 -2.515625 1.484375 -2.515625 L 1.90625 -2.515625 C 1.703125 -1.75 1.328125 -0.9375 1.109375 -0.515625 C 1.078125 -0.421875 1 -0.28125 0.984375 -0.25 C 0.96875 -0.234375 0.96875 -0.203125 0.96875 -0.15625 C 0.96875 -0.046875 1.046875 0.0625 1.203125 0.0625 C 1.484375 0.0625 1.5625 -0.25 1.71875 -0.859375 Z M 2.15625 -2.515625 "/></g><g id="6500836de13709330a5b28c16cdd0fd6oncsqklw__glyph-2-1"><path d="M 3.40625 -4.71875 C 3.40625 -4.796875 3.328125 -4.796875 3.28125 -4.796875 C 3.1875 -4.796875 3.171875 -4.765625 3.15625 -4.65625 L 2.75 -3.0625 C 1.53125 -3.015625 0.484375 -2.125 0.484375 -1.203125 C 0.484375 -0.421875 1.203125 0.046875 1.96875 0.078125 C 1.90625 0.296875 1.859375 0.515625 1.8125 0.734375 C 1.71875 1.046875 1.65625 1.3125 1.65625 1.328125 C 1.65625 1.40625 1.75 1.40625 1.765625 1.40625 C 1.875 1.40625 1.875 1.390625 1.921875 1.25 L 2.203125 0.078125 C 3.390625 0.03125 4.484375 -0.84375 4.484375 -1.78125 C 4.484375 -2.5 3.84375 -3.03125 3 -3.0625 Z M 2.015625 -0.125 C 1.484375 -0.140625 0.984375 -0.4375 0.984375 -1.09375 C 0.984375 -1.78125 1.515625 -2.75 2.703125 -2.859375 Z M 2.9375 -2.859375 C 3.46875 -2.84375 3.96875 -2.546875 3.96875 -1.890625 C 3.96875 -1.140625 3.375 -0.21875 2.25 -0.125 Z M 2.9375 -2.859375 "/></g><g id="6500836de13709330a5b28c16cdd0fd6oncsqklw__glyph-3-0"><path d="M 1.96875 -3.140625 C 1.96875 -3.28125 1.953125 -3.28125 1.78125 -3.28125 C 1.4375 -2.96875 0.890625 -2.96875 0.796875 -2.96875 L 0.703125 -2.96875 L 0.703125 -2.75 L 0.796875 -2.75 C 0.90625 -2.75 1.21875 -2.765625 1.515625 -2.890625 L 1.515625 -0.421875 C 1.515625 -0.265625 1.515625 -0.21875 0.984375 -0.21875 L 0.734375 -0.21875 L 0.734375 0 C 1.015625 -0.015625 1.453125 -0.015625 1.734375 -0.015625 C 2.03125 -0.015625 2.46875 -0.015625 2.734375 0 L 2.734375 -0.21875 L 2.484375 -0.21875 C 1.96875 -0.21875 1.96875 -0.265625 1.96875 -0.421875 Z M 1.96875 -3.140625 "/></g><g id="6500836de13709330a5b28c16cdd0fd6oncsqklw__glyph-3-1"><path d="M 2.90625 -0.953125 L 2.703125 -0.953125 C 2.6875 -0.859375 2.640625 -0.546875 2.5625 -0.5 C 2.515625 -0.46875 2.109375 -0.46875 2.03125 -0.46875 L 1.0625 -0.46875 C 1.390625 -0.71875 1.75 -1 2.046875 -1.1875 C 2.5 -1.5 2.90625 -1.78125 2.90625 -2.3125 C 2.90625 -2.9375 2.3125 -3.28125 1.609375 -3.28125 C 0.9375 -3.28125 0.453125 -2.90625 0.453125 -2.421875 C 0.453125 -2.15625 0.671875 -2.125 0.734375 -2.125 C 0.875 -2.125 1.03125 -2.203125 1.03125 -2.40625 C 1.03125 -2.59375 0.90625 -2.6875 0.75 -2.703125 C 0.890625 -2.921875 1.171875 -3.078125 1.5 -3.078125 C 1.984375 -3.078125 2.375 -2.78125 2.375 -2.296875 C 2.375 -1.890625 2.09375 -1.5625 1.71875 -1.25 L 0.515625 -0.234375 C 0.453125 -0.1875 0.453125 -0.1875 0.453125 -0.140625 L 0.453125 0 L 2.75 0 Z M 2.90625 -0.953125 "/></g></g></defs><g fill="rgb(0%, 0%, 0%)" fill-opacity="1"><use xlink:href="#6500836de13709330a5b28c16cdd0fd6oncsqklw__glyph-0-0" x="67.298034" y="11.647451"/></g><g fill="rgb(0%, 0%, 0%)" fill-opacity="1"><use xlink:href="#6500836de13709330a5b28c16cdd0fd6oncsqklw__glyph-1-0" x="74.590955" y="13.130034"/></g><g fill="rgb(0%, 0%, 0%)" fill-opacity="1"><use xlink:href="#6500836de13709330a5b28c16cdd0fd6oncsqklw__glyph-0-0" x="137.24621" y="11.647451"/></g><g fill="rgb(0%, 0%, 0%)" fill-opacity="1"><use xlink:href="#6500836de13709330a5b28c16cdd0fd6oncsqklw__glyph-1-1" x="144.539131" y="13.130034"/></g><g fill="rgb(0%, 0%, 0%)" fill-opacity="1"><use xlink:href="#6500836de13709330a5b28c16cdd0fd6oncsqklw__glyph-0-1" x="66.151636" y="62.680047"/></g><g fill="rgb(0%, 0%, 0%)" fill-opacity="1"><use xlink:href="#6500836de13709330a5b28c16cdd0fd6oncsqklw__glyph-1-0" x="75.736362" y="64.161639"/></g><g fill="rgb(0%, 0%, 0%)" fill-opacity="1"><use xlink:href="#6500836de13709330a5b28c16cdd0fd6oncsqklw__glyph-0-1" x="136.099812" y="62.680047"/></g><g fill="rgb(0%, 0%, 0%)" fill-opacity="1"><use xlink:href="#6500836de13709330a5b28c16cdd0fd6oncsqklw__glyph-1-1" x="145.68553" y="64.161639"/></g><path fill="none" stroke="rgb(0%, 0%, 0%)" stroke-linecap="butt" stroke-linejoin="miter" stroke-miterlimit="10" stroke-opacity="1" stroke-width="0.39848" d="M -24.864975 25.565371 L 24.466627 25.565371 " transform="matrix(0.991694, 0, 0, -0.991694, 108.13502, 34.528817)"/><path fill="none" stroke="rgb(0%, 0%, 0%)" stroke-linecap="round" stroke-linejoin="round" stroke-miterlimit="10" stroke-opacity="1" stroke-width="0.39848" d="M -2.071912 2.392112 C -1.693771 0.95439 -0.850833 0.280827 -0.0000162609 0.00116052 C -0.850833 -0.278506 -1.693771 -0.956008 -2.071912 -2.389791 " transform="matrix(0.991694, 0, 0, -0.991694, 132.597672, 9.176932)"/><g fill="rgb(0%, 0%, 0%)" fill-opacity="1"><use xlink:href="#6500836de13709330a5b28c16cdd0fd6oncsqklw__glyph-1-2" x="105.314641" y="6.8536"/></g><path fill="none" stroke="rgb(0%, 0%, 0%)" stroke-linecap="butt" stroke-linejoin="miter" stroke-miterlimit="10" stroke-opacity="1" stroke-width="0.39848" d="M -35.267782 17.734708 L -35.267782 -17.333901 " transform="matrix(0.991694, 0, 0, -0.991694, 108.13502, 34.528817)"/><path fill="none" stroke="rgb(0%, 0%, 0%)" stroke-linecap="round" stroke-linejoin="round" stroke-miterlimit="10" stroke-opacity="1" stroke-width="0.39848" d="M -2.071638 2.39064 C -1.693497 0.956856 -0.850559 0.279354 0.000257737 -0.000312191 C -0.850559 -0.279979 -1.693497 -0.957481 -2.071638 -2.391264 " transform="matrix(0, 0.991694, 0.991694, 0, 73.160466, 51.917713)"/><g fill="rgb(0%, 0%, 0%)" fill-opacity="1"><use xlink:href="#6500836de13709330a5b28c16cdd0fd6oncsqklw__glyph-2-0" x="62.360388" y="35.524478"/></g><g fill="rgb(0%, 0%, 0%)" fill-opacity="1"><use xlink:href="#6500836de13709330a5b28c16cdd0fd6oncsqklw__glyph-3-0" x="66.9797" y="36.512206"/></g><path fill="none" stroke="rgb(0%, 0%, 0%)" stroke-linecap="butt" stroke-linejoin="miter" stroke-miterlimit="10" stroke-opacity="1" stroke-width="0.39848" d="M 35.267269 17.734708 L 35.267269 -17.333901 " transform="matrix(0.991694, 0, 0, -0.991694, 108.13502, 34.528817)"/><path fill="none" stroke="rgb(0%, 0%, 0%)" stroke-linecap="round" stroke-linejoin="round" stroke-miterlimit="10" stroke-opacity="1" stroke-width="0.39848" d="M -2.071638 2.390751 C -1.693497 0.956968 -0.850559 0.279466 0.000257737 -0.000200652 C -0.850559 -0.279867 -1.693497 -0.957369 -2.071638 -2.391153 " transform="matrix(0, 0.991694, 0.991694, 0, 143.109574, 51.917713)"/><g fill="rgb(0%, 0%, 0%)" fill-opacity="1"><use xlink:href="#6500836de13709330a5b28c16cdd0fd6oncsqklw__glyph-2-0" x="145.43364" y="35.524478"/></g><g fill="rgb(0%, 0%, 0%)" fill-opacity="1"><use xlink:href="#6500836de13709330a5b28c16cdd0fd6oncsqklw__glyph-3-1" x="150.052952" y="36.512206"/></g><path fill="none" stroke="rgb(0%, 0%, 0%)" stroke-linecap="butt" stroke-linejoin="miter" stroke-miterlimit="10" stroke-opacity="1" stroke-width="0.39848" d="M -23.710858 -25.897211 L 23.31251 -25.897211 " transform="matrix(0.991694, 0, 0, -0.991694, 108.13502, 34.528817)"/><path fill="none" stroke="rgb(0%, 0%, 0%)" stroke-linecap="round" stroke-linejoin="round" stroke-miterlimit="10" stroke-opacity="1" stroke-width="0.39848" d="M -2.070619 2.390041 C -1.692478 0.956258 -0.84954 0.278755 0.00127691 -0.000911059 C -0.84954 -0.280578 -1.692478 -0.95808 -2.070619 -2.391863 " transform="matrix(0.991694, 0, 0, -0.991694, 131.451859, 60.210034)"/><g fill="rgb(0%, 0%, 0%)" fill-opacity="1"><use xlink:href="#6500836de13709330a5b28c16cdd0fd6oncsqklw__glyph-2-1" x="105.75892" y="67.337044"/></g></svg>