<?xml version="1.0" encoding="UTF-8"?><svg xmlns="http://www.w3.org/2000/svg" xmlns:xlink="http://www.w3.org/1999/xlink" width="243.58" height="55.021" viewBox="0 0 243.58 55.021"><defs><g><g id="5fca6af9fabe71527b71e91263618d904bbj4ail__glyph-0-0"><path d="M 1.75 -1.125 C 1.359375 -0.46875 0.984375 -0.328125 0.546875 -0.296875 C 0.4375 -0.296875 0.34375 -0.296875 0.34375 -0.109375 C 0.34375 -0.046875 0.390625 0 0.46875 0 C 0.734375 0 1.03125 -0.03125 1.3125 -0.03125 C 1.640625 -0.03125 1.96875 0 2.28125 0 C 2.34375 0 2.46875 0 2.46875 -0.1875 C 2.46875 -0.296875 2.390625 -0.296875 2.3125 -0.296875 C 2.09375 -0.328125 1.859375 -0.40625 1.859375 -0.640625 C 1.859375 -0.765625 1.921875 -0.875 2 -1 L 2.734375 -2.265625 L 5.1875 -2.265625 C 5.21875 -2.046875 5.34375 -0.71875 5.34375 -0.625 C 5.34375 -0.328125 4.84375 -0.296875 4.640625 -0.296875 C 4.515625 -0.296875 4.40625 -0.296875 4.40625 -0.109375 C 4.40625 0 4.53125 0 4.546875 0 C 4.953125 0 5.375 -0.03125 5.765625 -0.03125 C 6.015625 -0.03125 6.625 0 6.875 0 C 6.9375 0 7.046875 0 7.046875 -0.203125 C 7.046875 -0.296875 6.953125 -0.296875 6.828125 -0.296875 C 6.21875 -0.296875 6.21875 -0.375 6.1875 -0.65625 L 5.59375 -6.765625 C 5.578125 -6.96875 5.578125 -7 5.40625 -7 C 5.25 -7 5.21875 -6.9375 5.15625 -6.84375 Z M 2.921875 -2.5625 L 4.84375 -5.796875 L 5.171875 -2.5625 Z M 2.921875 -2.5625 "/></g><g id="5fca6af9fabe71527b71e91263618d904bbj4ail__glyph-0-1"><path d="M 1.5625 -0.765625 C 1.46875 -0.375 1.453125 -0.296875 0.671875 -0.296875 C 0.515625 -0.296875 0.40625 -0.296875 0.40625 -0.109375 C 0.40625 0 0.5 0 0.671875 0 L 4.171875 0 C 5.71875 0 6.859375 -1.15625 6.859375 -2.109375 C 6.859375 -2.8125 6.296875 -3.390625 5.34375 -3.484375 C 6.375 -3.671875 7.390625 -4.40625 7.390625 -5.328125 C 7.390625 -6.046875 6.75 -6.6875 5.578125 -6.6875 L 2.28125 -6.6875 C 2.109375 -6.6875 2 -6.6875 2 -6.484375 C 2 -6.375 2.09375 -6.375 2.28125 -6.375 C 2.296875 -6.375 2.484375 -6.375 2.65625 -6.359375 C 2.828125 -6.34375 2.921875 -6.328125 2.921875 -6.203125 C 2.921875 -6.15625 2.90625 -6.140625 2.875 -6.015625 Z M 3.046875 -3.578125 L 3.65625 -6 C 3.734375 -6.34375 3.75 -6.375 4.171875 -6.375 L 5.4375 -6.375 C 6.296875 -6.375 6.5 -5.796875 6.5 -5.375 C 6.5 -4.515625 5.65625 -3.578125 4.46875 -3.578125 Z M 2.609375 -0.296875 C 2.46875 -0.296875 2.453125 -0.296875 2.390625 -0.3125 C 2.28125 -0.328125 2.265625 -0.328125 2.265625 -0.40625 C 2.265625 -0.4375 2.265625 -0.453125 2.3125 -0.640625 L 2.984375 -3.359375 L 4.828125 -3.359375 C 5.765625 -3.359375 5.953125 -2.640625 5.953125 -2.21875 C 5.953125 -1.25 5.09375 -0.296875 3.9375 -0.296875 Z M 2.609375 -0.296875 "/></g><g id="5fca6af9fabe71527b71e91263618d904bbj4ail__glyph-0-2"><path d="M 7.4375 -6.796875 C 7.4375 -6.828125 7.421875 -6.890625 7.328125 -6.890625 C 7.296875 -6.890625 7.28125 -6.890625 7.171875 -6.78125 L 6.5 -6.03125 C 6.40625 -6.15625 5.953125 -6.890625 4.875 -6.890625 C 2.6875 -6.890625 0.484375 -4.734375 0.484375 -2.46875 C 0.484375 -0.84375 1.640625 0.21875 3.140625 0.21875 C 3.984375 0.21875 4.734375 -0.171875 5.25 -0.625 C 6.15625 -1.421875 6.328125 -2.3125 6.328125 -2.34375 C 6.328125 -2.453125 6.234375 -2.453125 6.21875 -2.453125 C 6.15625 -2.453125 6.109375 -2.421875 6.078125 -2.34375 C 6 -2.0625 5.765625 -1.375 5.09375 -0.796875 C 4.421875 -0.25 3.8125 -0.09375 3.296875 -0.09375 C 2.421875 -0.09375 1.375 -0.59375 1.375 -2.125 C 1.375 -2.6875 1.578125 -4.265625 2.5625 -5.40625 C 3.15625 -6.109375 4.078125 -6.59375 4.953125 -6.59375 C 5.953125 -6.59375 6.53125 -5.84375 6.53125 -4.703125 C 6.53125 -4.3125 6.5 -4.296875 6.5 -4.203125 C 6.5 -4.109375 6.609375 -4.109375 6.640625 -4.109375 C 6.765625 -4.109375 6.765625 -4.125 6.8125 -4.296875 Z M 7.4375 -6.796875 "/></g><g id="5fca6af9fabe71527b71e91263618d904bbj4ail__glyph-1-0"><path d="M 4.5 -3.125 C 4.5 -3.90625 4.453125 -4.6875 4.109375 -5.421875 C 3.65625 -6.359375 2.859375 -6.515625 2.453125 -6.515625 C 1.859375 -6.515625 1.140625 -6.265625 0.75 -5.34375 C 0.4375 -4.671875 0.375 -3.90625 0.375 -3.125 C 0.375 -2.390625 0.421875 -1.515625 0.828125 -0.765625 C 1.25 0.015625 1.953125 0.21875 2.4375 0.21875 C 2.96875 0.21875 3.703125 0.015625 4.140625 -0.921875 C 4.453125 -1.59375 4.5 -2.359375 4.5 -3.125 Z M 2.4375 0 C 2.046875 0 1.484375 -0.25 1.296875 -1.1875 C 1.1875 -1.765625 1.1875 -2.671875 1.1875 -3.25 C 1.1875 -3.875 1.1875 -4.515625 1.265625 -5.046875 C 1.453125 -6.21875 2.1875 -6.296875 2.4375 -6.296875 C 2.765625 -6.296875 3.40625 -6.125 3.59375 -5.15625 C 3.6875 -4.609375 3.6875 -3.859375 3.6875 -3.25 C 3.6875 -2.515625 3.6875 -1.84375 3.578125 -1.21875 C 3.4375 -0.296875 2.875 0 2.4375 0 Z M 2.4375 0 "/></g><g id="5fca6af9fabe71527b71e91263618d904bbj4ail__glyph-2-0"><path d="M 1.984375 -3.234375 C 2.046875 -3.359375 2.046875 -3.40625 2.046875 -3.453125 C 2.046875 -3.671875 1.859375 -3.828125 1.640625 -3.828125 C 1.390625 -3.828125 1.296875 -3.625 1.265625 -3.515625 L 0.359375 -0.546875 C 0.359375 -0.53125 0.328125 -0.4375 0.328125 -0.4375 C 0.328125 -0.34375 0.546875 -0.28125 0.59375 -0.28125 C 0.640625 -0.28125 0.65625 -0.296875 0.703125 -0.390625 Z M 1.984375 -3.234375 "/></g><g id="5fca6af9fabe71527b71e91263618d904bbj4ail__glyph-3-0"><path d="M 2.796875 -2.703125 L 3.46875 -2.703125 C 3.59375 -2.703125 3.6875 -2.703125 3.6875 -2.859375 C 3.6875 -2.953125 3.59375 -2.953125 3.484375 -2.953125 L 2.84375 -2.953125 C 3 -3.828125 3.046875 -4.140625 3.109375 -4.34375 C 3.140625 -4.5 3.296875 -4.640625 3.453125 -4.640625 C 3.46875 -4.640625 3.65625 -4.640625 3.78125 -4.546875 C 3.5 -4.46875 3.484375 -4.21875 3.484375 -4.171875 C 3.484375 -4.03125 3.59375 -3.921875 3.75 -3.921875 C 3.9375 -3.921875 4.140625 -4.078125 4.140625 -4.34375 C 4.140625 -4.65625 3.8125 -4.828125 3.453125 -4.828125 C 3.15625 -4.828125 2.8125 -4.65625 2.640625 -4.3125 C 2.5 -4.0625 2.4375 -3.75 2.296875 -2.953125 L 1.75 -2.953125 C 1.625 -2.953125 1.53125 -2.953125 1.53125 -2.8125 C 1.53125 -2.703125 1.625 -2.703125 1.75 -2.703125 L 2.25 -2.703125 C 2.25 -2.671875 1.8125 -0.203125 1.640625 0.53125 C 1.609375 0.6875 1.5 1.203125 1.171875 1.203125 C 1.15625 1.203125 1 1.203125 0.859375 1.125 C 1.140625 1.03125 1.171875 0.78125 1.171875 0.75 C 1.171875 0.59375 1.046875 0.5 0.890625 0.5 C 0.703125 0.5 0.5 0.65625 0.5 0.90625 C 0.5 1.21875 0.828125 1.40625 1.171875 1.40625 C 1.609375 1.40625 1.90625 0.953125 1.984375 0.796875 C 2.234375 0.34375 2.390625 -0.5 2.40625 -0.59375 Z M 2.796875 -2.703125 "/></g><g id="5fca6af9fabe71527b71e91263618d904bbj4ail__glyph-3-1"><path d="M 3.65625 -2.53125 C 3.671875 -2.640625 3.671875 -2.671875 3.671875 -2.671875 C 3.671875 -2.828125 3.546875 -2.890625 3.4375 -2.890625 C 3.28125 -2.890625 3.15625 -2.765625 3.125 -2.640625 C 3.015625 -2.8125 2.78125 -3.03125 2.421875 -3.03125 C 1.5625 -3.03125 0.671875 -2.109375 0.671875 -1.125 C 0.671875 -0.421875 1.140625 0 1.703125 0 C 2.03125 0 2.328125 -0.15625 2.5625 -0.375 L 2.421875 0.25 C 2.34375 0.53125 2.296875 0.71875 2.03125 0.953125 C 1.734375 1.203125 1.4375 1.203125 1.265625 1.203125 C 0.953125 1.203125 0.859375 1.1875 0.734375 1.15625 C 0.90625 1.078125 0.953125 0.90625 0.953125 0.8125 C 0.953125 0.65625 0.828125 0.5625 0.6875 0.5625 C 0.5 0.5625 0.296875 0.71875 0.296875 0.984375 C 0.296875 1.390625 0.890625 1.40625 1.265625 1.40625 C 2.34375 1.40625 2.8125 0.84375 2.90625 0.453125 Z M 2.703125 -0.90625 C 2.671875 -0.8125 2.671875 -0.796875 2.5625 -0.65625 C 2.3125 -0.375 1.984375 -0.1875 1.734375 -0.1875 C 1.375 -0.1875 1.21875 -0.484375 1.21875 -0.84375 C 1.21875 -1.140625 1.40625 -1.90625 1.578125 -2.21875 C 1.859375 -2.703125 2.1875 -2.828125 2.421875 -2.828125 C 2.90625 -2.828125 3.03125 -2.3125 3.03125 -2.25 C 3.03125 -2.234375 3.03125 -2.21875 3.015625 -2.140625 Z M 2.703125 -0.90625 "/></g><g id="5fca6af9fabe71527b71e91263618d904bbj4ail__glyph-3-2"><path d="M 3.75 -0.96875 C 4.390625 -1.625 4.640625 -2.53125 4.640625 -2.609375 C 4.640625 -2.703125 4.546875 -2.703125 4.515625 -2.703125 C 4.421875 -2.703125 4.421875 -2.671875 4.375 -2.53125 C 4.25 -2.078125 4.03125 -1.65625 3.734375 -1.28125 C 3.734375 -1.390625 3.71875 -1.84375 3.703125 -1.90625 C 3.59375 -2.59375 3.09375 -3.03125 2.40625 -3.03125 C 1.390625 -3.03125 0.421875 -2.078125 0.421875 -1.125 C 0.421875 -0.5 0.890625 0.0625 1.6875 0.0625 C 2.3125 0.0625 2.875 -0.21875 3.265625 -0.515625 C 3.421875 -0.015625 3.765625 0.0625 3.984375 0.0625 C 4.375 0.0625 4.625 -0.265625 4.625 -0.40625 C 4.625 -0.5 4.546875 -0.5 4.5 -0.5 C 4.421875 -0.5 4.40625 -0.46875 4.390625 -0.421875 C 4.296875 -0.171875 4.078125 -0.125 4 -0.125 C 3.90625 -0.125 3.78125 -0.125 3.75 -0.96875 Z M 3.21875 -0.734375 C 2.546875 -0.1875 1.96875 -0.125 1.703125 -0.125 C 1.25 -0.125 1 -0.421875 1 -0.890625 C 1 -1.078125 1.09375 -1.828125 1.453125 -2.3125 C 1.765625 -2.71875 2.15625 -2.828125 2.390625 -2.828125 C 2.9375 -2.828125 3.09375 -2.3125 3.15625 -1.875 C 3.203125 -1.578125 3.1875 -1.09375 3.21875 -0.734375 Z M 3.21875 -0.734375 "/></g><g id="5fca6af9fabe71527b71e91263618d904bbj4ail__glyph-3-3"><path d="M 4.34375 -3.875 C 4.34375 -4.484375 3.828125 -4.828125 3.21875 -4.828125 C 2.28125 -4.828125 1.578125 -3.765625 1.40625 -3.078125 L 0.34375 1.25 C 0.328125 1.296875 0.390625 1.328125 0.4375 1.328125 C 0.5 1.328125 0.546875 1.328125 0.5625 1.28125 L 1.015625 -0.546875 C 1.171875 -0.234375 1.5 0.0625 2.046875 0.0625 C 3.015625 0.0625 4.09375 -0.625 4.09375 -1.6875 C 4.09375 -2.078125 3.90625 -2.5 3.5625 -2.71875 C 3.890625 -2.9375 4.34375 -3.328125 4.34375 -3.875 Z M 2.984375 -2.734375 C 2.875 -2.703125 2.828125 -2.6875 2.640625 -2.6875 C 2.53125 -2.6875 2.359375 -2.6875 2.3125 -2.71875 C 2.375 -2.75 2.578125 -2.765625 2.640625 -2.765625 C 2.734375 -2.765625 2.890625 -2.75 2.984375 -2.734375 Z M 3.890625 -4 C 3.890625 -3.640625 3.703125 -3.109375 3.28125 -2.875 C 3.15625 -2.90625 3.03125 -2.953125 2.640625 -2.953125 C 2.40625 -2.953125 2.0625 -2.9375 2.0625 -2.703125 C 2.0625 -2.53125 2.265625 -2.5 2.625 -2.5 C 2.859375 -2.5 3.0625 -2.53125 3.265625 -2.59375 C 3.484375 -2.453125 3.59375 -2.171875 3.59375 -1.859375 C 3.59375 -0.875 2.90625 -0.125 2.078125 -0.125 C 1.546875 -0.125 1.171875 -0.453125 1.171875 -1 C 1.171875 -1.0625 1.171875 -1.125 1.1875 -1.1875 L 1.640625 -3.015625 C 1.796875 -3.671875 2.40625 -4.640625 3.203125 -4.640625 C 3.609375 -4.640625 3.890625 -4.421875 3.890625 -4 Z M 3.890625 -4 "/></g><g id="5fca6af9fabe71527b71e91263618d904bbj4ail__glyph-3-4"><path d="M 3.0625 -0.953125 C 3.03125 -1.359375 2.796875 -3.03125 1.6875 -3.03125 C 1.28125 -3.03125 0.921875 -2.8125 0.734375 -2.625 C 0.3125 -2.25 0.234375 -1.8125 0.234375 -1.796875 C 0.234375 -1.703125 0.328125 -1.703125 0.34375 -1.703125 C 0.4375 -1.703125 0.4375 -1.71875 0.46875 -1.828125 C 0.625 -2.234375 1.125 -2.46875 1.578125 -2.46875 C 2.6875 -2.46875 2.828125 -1.375 2.828125 -0.671875 C 2.828125 -0.328125 2.8125 -0.25 2.78125 -0.171875 C 2.625 0.34375 2.421875 1.09375 2.421875 1.296875 C 2.421875 1.375 2.453125 1.46875 2.53125 1.46875 C 2.59375 1.46875 2.65625 1.46875 2.765625 1.109375 C 2.859375 0.84375 2.984375 0.34375 3.03125 -0.15625 C 3.0625 -0.390625 3.453125 -1.328125 3.59375 -1.65625 C 3.6875 -1.859375 3.828125 -2.1875 4.15625 -2.78125 C 4.171875 -2.8125 4.1875 -2.84375 4.1875 -2.875 C 4.1875 -2.953125 4.109375 -2.953125 4.078125 -2.953125 C 4.0625 -2.953125 4 -2.953125 3.984375 -2.921875 C 3.890625 -2.78125 3.375 -1.796875 3.0625 -0.953125 Z M 3.0625 -0.953125 "/></g><g id="5fca6af9fabe71527b71e91263618d904bbj4ail__glyph-4-0"><path d="M 1.765625 -2.28125 C 1.765625 -2.28125 1.8125 -2.375 1.8125 -2.453125 C 1.8125 -2.625 1.65625 -2.734375 1.5 -2.734375 C 1.3125 -2.734375 1.25 -2.578125 1.234375 -2.515625 L 0.46875 -0.390625 C 0.453125 -0.328125 0.453125 -0.3125 0.453125 -0.3125 C 0.453125 -0.234375 0.65625 -0.1875 0.671875 -0.1875 C 0.703125 -0.1875 0.71875 -0.203125 0.75 -0.265625 Z M 1.765625 -2.28125 "/></g></g></defs><g fill="rgb(0%, 0%, 0%)" fill-opacity="1"><use xlink:href="#5fca6af9fabe71527b71e91263618d904bbj4ail__glyph-0-0" x="75.43972" y="12.94762"/></g><g fill="rgb(0%, 0%, 0%)" fill-opacity="1"><use xlink:href="#5fca6af9fabe71527b71e91263618d904bbj4ail__glyph-0-1" x="117.448254" y="12.94762"/></g><g fill="rgb(0%, 0%, 0%)" fill-opacity="1"><use xlink:href="#5fca6af9fabe71527b71e91263618d904bbj4ail__glyph-0-2" x="160.03156" y="12.94762"/></g><g fill="rgb(0%, 0%, 0%)" fill-opacity="1"><use xlink:href="#5fca6af9fabe71527b71e91263618d904bbj4ail__glyph-1-0" x="201.022205" y="12.94762"/></g><g fill="rgb(0%, 0%, 0%)" fill-opacity="1"><use xlink:href="#5fca6af9fabe71527b71e91263618d904bbj4ail__glyph-1-0" x="37.251216" y="45.090692"/></g><g fill="rgb(0%, 0%, 0%)" fill-opacity="1"><use xlink:href="#5fca6af9fabe71527b71e91263618d904bbj4ail__glyph-0-0" x="74.06616" y="45.090692"/></g><g fill="rgb(0%, 0%, 0%)" fill-opacity="1"><use xlink:href="#5fca6af9fabe71527b71e91263618d904bbj4ail__glyph-2-0" x="81.407534" y="41.53889"/></g><g fill="rgb(0%, 0%, 0%)" fill-opacity="1"><use xlink:href="#5fca6af9fabe71527b71e91263618d904bbj4ail__glyph-0-1" x="116.075676" y="45.090692"/></g><g fill="rgb(0%, 0%, 0%)" fill-opacity="1"><use xlink:href="#5fca6af9fabe71527b71e91263618d904bbj4ail__glyph-2-0" x="123.99084" y="41.53889"/></g><g fill="rgb(0%, 0%, 0%)" fill-opacity="1"><use xlink:href="#5fca6af9fabe71527b71e91263618d904bbj4ail__glyph-0-2" x="158.658" y="45.090692"/></g><g fill="rgb(0%, 0%, 0%)" fill-opacity="1"><use xlink:href="#5fca6af9fabe71527b71e91263618d904bbj4ail__glyph-2-0" x="166.355045" y="41.53889"/></g><path fill="none" stroke="rgb(0%, 0%, 0%)" stroke-linecap="butt" stroke-linejoin="miter" stroke-miterlimit="10" stroke-opacity="1" stroke-width="0.39848" d="M -35.004214 15.445171 L -9.09422 15.445171 " transform="matrix(0.982518, 0, 0, -0.982518, 121.583671, 25.675157)"/><path fill="none" stroke="rgb(0%, 0%, 0%)" stroke-linecap="round" stroke-linejoin="round" stroke-miterlimit="10" stroke-opacity="1" stroke-width="0.39848" d="M -2.073876 2.39031 C -1.692204 0.955062 -0.849344 0.279184 0.00146753 0.000881335 C -0.849344 -0.277421 -1.692204 -0.957276 -2.073876 -2.392523 " transform="matrix(0.982518, 0, 0, -0.982518, 112.842308, 10.500866)"/><g fill="rgb(0%, 0%, 0%)" fill-opacity="1"><use xlink:href="#5fca6af9fabe71527b71e91263618d904bbj4ail__glyph-3-0" x="97.822459" y="6.865835"/></g><path fill="none" stroke="rgb(0%, 0%, 0%)" stroke-linecap="butt" stroke-linejoin="miter" stroke-miterlimit="10" stroke-opacity="1" stroke-width="0.39848" d="M 8.335488 15.445171 L 34.245482 15.445171 " transform="matrix(0.982518, 0, 0, -0.982518, 121.583671, 25.675157)"/><path fill="none" stroke="rgb(0%, 0%, 0%)" stroke-linecap="round" stroke-linejoin="round" stroke-miterlimit="10" stroke-opacity="1" stroke-width="0.39848" d="M -2.071629 2.39031 C -1.693932 0.955062 -0.851072 0.279184 -0.000260357 0.000881335 C -0.851072 -0.277421 -1.693932 -0.957276 -2.071629 -2.392523 " transform="matrix(0.982518, 0, 0, -0.982518, 155.426037, 10.500866)"/><g fill="rgb(0%, 0%, 0%)" fill-opacity="1"><use xlink:href="#5fca6af9fabe71527b71e91263618d904bbj4ail__glyph-3-1" x="140.665151" y="6.865835"/></g><path fill="none" stroke="rgb(0%, 0%, 0%)" stroke-linecap="butt" stroke-linejoin="miter" stroke-miterlimit="10" stroke-opacity="1" stroke-width="0.39848" d="M -33.608724 -17.271314 L -10.493686 -17.271314 " transform="matrix(0.982518, 0, 0, -0.982518, 121.583671, 25.675157)"/><path fill="none" stroke="rgb(0%, 0%, 0%)" stroke-linecap="round" stroke-linejoin="round" stroke-miterlimit="10" stroke-opacity="1" stroke-width="0.39848" d="M -2.071816 2.39286 C -1.69412 0.957613 -0.85126 0.277759 -0.00044813 -0.000544189 C -0.85126 -0.278847 -1.69412 -0.954725 -2.071816 -2.389973 " transform="matrix(0.982518, 0, 0, -0.982518, 111.46919, 42.643997)"/><g fill="rgb(0%, 0%, 0%)" fill-opacity="1"><use xlink:href="#5fca6af9fabe71527b71e91263618d904bbj4ail__glyph-3-0" x="96.498025" y="50.61932"/></g><g fill="rgb(0%, 0%, 0%)" fill-opacity="1"><use xlink:href="#5fca6af9fabe71527b71e91263618d904bbj4ail__glyph-4-0" x="101.083436" y="47.665871"/></g><path fill="none" stroke="rgb(0%, 0%, 0%)" stroke-linecap="butt" stroke-linejoin="miter" stroke-miterlimit="10" stroke-opacity="1" stroke-width="0.39848" d="M 9.734954 -17.271314 L 32.846016 -17.271314 " transform="matrix(0.982518, 0, 0, -0.982518, 121.583671, 25.675157)"/><path fill="none" stroke="rgb(0%, 0%, 0%)" stroke-linecap="round" stroke-linejoin="round" stroke-miterlimit="10" stroke-opacity="1" stroke-width="0.39848" d="M -2.073544 2.39286 C -1.691872 0.957613 -0.849012 0.277759 0.00179974 -0.000544189 C -0.849012 -0.278847 -1.691872 -0.954725 -2.073544 -2.389973 " transform="matrix(0.982518, 0, 0, -0.982518, 154.052919, 42.643997)"/><g fill="rgb(0%, 0%, 0%)" fill-opacity="1"><use xlink:href="#5fca6af9fabe71527b71e91263618d904bbj4ail__glyph-3-1" x="139.341699" y="50.61932"/></g><g fill="rgb(0%, 0%, 0%)" fill-opacity="1"><use xlink:href="#5fca6af9fabe71527b71e91263618d904bbj4ail__glyph-4-0" x="143.406375" y="47.665871"/></g><path fill="none" stroke="rgb(0%, 0%, 0%)" stroke-linecap="butt" stroke-linejoin="miter" stroke-miterlimit="10" stroke-opacity="1" stroke-width="0.39848" d="M -43.23005 9.107818 L -43.23005 -8.027684 " transform="matrix(0.982518, 0, 0, -0.982518, 121.583671, 25.675157)"/><path fill="none" stroke="rgb(0%, 0%, 0%)" stroke-linecap="round" stroke-linejoin="round" stroke-miterlimit="10" stroke-opacity="1" stroke-width="0.39848" d="M -2.071936 2.389068 C -1.694239 0.957797 -0.851379 0.277943 -0.00056778 -0.000360163 C -0.851379 -0.278663 -1.694239 -0.954541 -2.071936 -2.389789 " transform="matrix(0, 0.982518, 0.982518, 0, 79.109729, 33.75837)"/><g fill="rgb(0%, 0%, 0%)" fill-opacity="1"><use xlink:href="#5fca6af9fabe71527b71e91263618d904bbj4ail__glyph-3-2" x="71.718925" y="26.814877"/></g><path fill="none" stroke="rgb(0%, 0%, 0%)" stroke-linecap="butt" stroke-linejoin="miter" stroke-miterlimit="10" stroke-opacity="1" stroke-width="0.39848" d="M -0.180578 9.107818 L -0.180578 -8.027684 " transform="matrix(0.982518, 0, 0, -0.982518, 121.583671, 25.675157)"/><path fill="none" stroke="rgb(0%, 0%, 0%)" stroke-linecap="round" stroke-linejoin="round" stroke-miterlimit="10" stroke-opacity="1" stroke-width="0.39848" d="M -2.071936 2.38939 C -1.694239 0.958119 -0.851379 0.278265 -0.00056778 -0.0000381429 C -0.851379 -0.278341 -1.694239 -0.958195 -2.071936 -2.389467 " transform="matrix(0, 0.982518, 0.982518, 0, 121.406287, 33.75837)"/><g fill="rgb(0%, 0%, 0%)" fill-opacity="1"><use xlink:href="#5fca6af9fabe71527b71e91263618d904bbj4ail__glyph-3-3" x="123.708857" y="27.052647"/></g><path fill="none" stroke="rgb(0%, 0%, 0%)" stroke-linecap="butt" stroke-linejoin="miter" stroke-miterlimit="10" stroke-opacity="1" stroke-width="0.39848" d="M 43.047803 9.107818 L 43.047803 -8.027684 " transform="matrix(0.982518, 0, 0, -0.982518, 121.583671, 25.675157)"/><path fill="none" stroke="rgb(0%, 0%, 0%)" stroke-linecap="round" stroke-linejoin="round" stroke-miterlimit="10" stroke-opacity="1" stroke-width="0.39848" d="M -2.071936 2.392077 C -1.694239 0.95683 -0.851379 0.276976 -0.00056778 -0.00132716 C -0.851379 -0.27963 -1.694239 -0.955508 -2.071936 -2.390756 " transform="matrix(0, 0.982518, 0.982518, 0, 163.88021, 33.75837)"/><g fill="rgb(0%, 0%, 0%)" fill-opacity="1"><use xlink:href="#5fca6af9fabe71527b71e91263618d904bbj4ail__glyph-3-4" x="166.183104" y="26.14873"/></g><path fill="none" stroke="rgb(0%, 0%, 0%)" stroke-linecap="butt" stroke-linejoin="miter" stroke-miterlimit="10" stroke-opacity="1" stroke-width="0.39848" d="M -76.36399 -17.271314 L -53.248952 -17.271314 " transform="matrix(0.982518, 0, 0, -0.982518, 121.583671, 25.675157)"/><path fill="none" stroke="rgb(0%, 0%, 0%)" stroke-linecap="round" stroke-linejoin="round" stroke-miterlimit="10" stroke-opacity="1" stroke-width="0.39848" d="M -2.070233 2.39286 C -1.692536 0.957613 -0.849676 0.277759 0.0011357 -0.000544189 C -0.849676 -0.278847 -1.692536 -0.954725 -2.070233 -2.389973 " transform="matrix(0.982518, 0, 0, -0.982518, 69.459822, 42.643997)"/><path fill="none" stroke="rgb(0%, 0%, 0%)" stroke-linecap="butt" stroke-linejoin="miter" stroke-miterlimit="10" stroke-opacity="1" stroke-width="0.39848" d="M 51.452548 15.445171 L 75.967052 15.445171 " transform="matrix(0.982518, 0, 0, -0.982518, 121.583671, 25.675157)"/><path fill="none" stroke="rgb(0%, 0%, 0%)" stroke-linecap="round" stroke-linejoin="round" stroke-miterlimit="10" stroke-opacity="1" stroke-width="0.39848" d="M -2.070459 2.39031 C -1.692762 0.955062 -0.849902 0.279184 0.000909589 0.000881335 C -0.849902 -0.277421 -1.692762 -0.957276 -2.070459 -2.392523 " transform="matrix(0.982518, 0, 0, -0.982518, 196.417075, 10.500866)"/></svg>