<?xml version="1.0" encoding="UTF-8"?><svg xmlns="http://www.w3.org/2000/svg" xmlns:xlink="http://www.w3.org/1999/xlink" width="298.419" height="69.931" viewBox="0 0 298.419 69.931"><defs><g><g id="a5ddea7c75737de1120ff42c635d15bapnhjfiwp__glyph-0-0"><path d="M 4.25 -6.03125 C 4.3125 -6.3125 4.359375 -6.375 4.46875 -6.40625 C 4.5625 -6.421875 4.890625 -6.421875 5.09375 -6.421875 C 6.109375 -6.421875 6.546875 -6.375 6.546875 -5.609375 C 6.546875 -5.453125 6.515625 -5.0625 6.46875 -4.8125 C 6.453125 -4.765625 6.4375 -4.65625 6.4375 -4.625 C 6.4375 -4.5625 6.46875 -4.484375 6.5625 -4.484375 C 6.671875 -4.484375 6.6875 -4.578125 6.703125 -4.71875 L 6.96875 -6.453125 C 6.984375 -6.484375 7 -6.59375 7 -6.625 C 7 -6.734375 6.890625 -6.734375 6.734375 -6.734375 L 1.21875 -6.734375 C 0.96875 -6.734375 0.96875 -6.71875 0.890625 -6.53125 L 0.296875 -4.78125 C 0.28125 -4.765625 0.234375 -4.625 0.234375 -4.59375 C 0.234375 -4.546875 0.28125 -4.484375 0.359375 -4.484375 C 0.453125 -4.484375 0.46875 -4.546875 0.53125 -4.703125 C 1.0625 -6.234375 1.328125 -6.421875 2.796875 -6.421875 L 3.1875 -6.421875 C 3.453125 -6.421875 3.453125 -6.375 3.453125 -6.296875 C 3.453125 -6.234375 3.421875 -6.125 3.421875 -6.09375 L 2.09375 -0.78125 C 2 -0.421875 1.96875 -0.3125 0.90625 -0.3125 C 0.546875 -0.3125 0.484375 -0.3125 0.484375 -0.125 C 0.484375 0 0.59375 0 0.65625 0 C 0.921875 0 1.203125 -0.015625 1.46875 -0.015625 C 1.75 -0.015625 2.03125 -0.03125 2.3125 -0.03125 C 2.59375 -0.03125 2.875 -0.015625 3.140625 -0.015625 C 3.421875 -0.015625 3.734375 0 4 0 C 4.109375 0 4.21875 0 4.21875 -0.203125 C 4.21875 -0.3125 4.140625 -0.3125 3.890625 -0.3125 C 3.640625 -0.3125 3.515625 -0.3125 3.25 -0.328125 C 2.96875 -0.359375 2.875 -0.390625 2.875 -0.546875 C 2.875 -0.5625 2.875 -0.609375 2.921875 -0.75 Z M 4.25 -6.03125 "/></g><g id="a5ddea7c75737de1120ff42c635d15bapnhjfiwp__glyph-0-1"><path d="M 7.03125 -2.3125 C 7.0625 -2.359375 7.078125 -2.4375 7.078125 -2.453125 C 7.078125 -2.46875 7.078125 -2.5625 6.96875 -2.5625 C 6.875 -2.5625 6.859375 -2.5 6.84375 -2.4375 C 6.1875 -0.96875 5.828125 -0.3125 4.125 -0.3125 L 2.671875 -0.3125 C 2.53125 -0.3125 2.515625 -0.3125 2.453125 -0.3125 C 2.359375 -0.328125 2.328125 -0.34375 2.328125 -0.421875 C 2.328125 -0.453125 2.328125 -0.46875 2.375 -0.640625 L 3.046875 -3.359375 L 4.03125 -3.359375 C 4.875 -3.359375 4.875 -3.15625 4.875 -2.90625 C 4.875 -2.828125 4.875 -2.71875 4.8125 -2.421875 C 4.796875 -2.359375 4.78125 -2.328125 4.78125 -2.3125 C 4.78125 -2.25 4.8125 -2.203125 4.90625 -2.203125 C 4.984375 -2.203125 5.015625 -2.25 5.0625 -2.390625 L 5.625 -4.71875 C 5.625 -4.78125 5.578125 -4.828125 5.5 -4.828125 C 5.421875 -4.828125 5.390625 -4.765625 5.359375 -4.65625 C 5.15625 -3.890625 4.984375 -3.671875 4.0625 -3.671875 L 3.125 -3.671875 L 3.734375 -6.0625 C 3.8125 -6.40625 3.828125 -6.453125 4.265625 -6.453125 L 5.671875 -6.453125 C 6.875 -6.453125 7.171875 -6.15625 7.171875 -5.34375 C 7.171875 -5.109375 7.171875 -5.09375 7.140625 -4.8125 C 7.140625 -4.765625 7.125 -4.6875 7.125 -4.640625 C 7.125 -4.59375 7.15625 -4.515625 7.25 -4.515625 C 7.359375 -4.515625 7.359375 -4.578125 7.390625 -4.765625 L 7.578125 -6.484375 C 7.609375 -6.75 7.5625 -6.75 7.3125 -6.75 L 2.296875 -6.75 C 2.09375 -6.75 2 -6.75 2 -6.5625 C 2 -6.453125 2.09375 -6.453125 2.28125 -6.453125 C 2.640625 -6.453125 2.921875 -6.453125 2.921875 -6.265625 C 2.921875 -6.234375 2.921875 -6.21875 2.875 -6.03125 L 1.5625 -0.78125 C 1.453125 -0.390625 1.4375 -0.3125 0.65625 -0.3125 C 0.484375 -0.3125 0.375 -0.3125 0.375 -0.125 C 0.375 0 0.46875 0 0.65625 0 L 5.8125 0 C 6.046875 0 6.046875 -0.015625 6.125 -0.171875 Z M 7.03125 -2.3125 "/></g><g id="a5ddea7c75737de1120ff42c635d15bapnhjfiwp__glyph-0-2"><path d="M 9.203125 -6.015625 C 9.296875 -6.375 9.3125 -6.484375 10.0625 -6.484375 C 10.28125 -6.484375 10.375 -6.484375 10.375 -6.671875 C 10.375 -6.78125 10.28125 -6.78125 10.109375 -6.78125 L 8.796875 -6.78125 C 8.53125 -6.78125 8.53125 -6.78125 8.40625 -6.59375 L 4.78125 -0.9375 L 4 -6.5625 C 3.96875 -6.78125 3.953125 -6.78125 3.703125 -6.78125 L 2.328125 -6.78125 C 2.140625 -6.78125 2.03125 -6.78125 2.03125 -6.59375 C 2.03125 -6.484375 2.125 -6.484375 2.328125 -6.484375 C 2.453125 -6.484375 2.640625 -6.46875 2.75 -6.453125 C 2.90625 -6.4375 2.96875 -6.40625 2.96875 -6.296875 C 2.96875 -6.265625 2.96875 -6.234375 2.9375 -6.109375 L 1.671875 -1.046875 C 1.5625 -0.65625 1.40625 -0.34375 0.59375 -0.3125 C 0.546875 -0.3125 0.421875 -0.296875 0.421875 -0.125 C 0.421875 -0.03125 0.484375 0 0.5625 0 C 0.875 0 1.21875 -0.03125 1.546875 -0.03125 C 1.890625 -0.03125 2.25 0 2.578125 0 C 2.625 0 2.75 0 2.75 -0.203125 C 2.75 -0.3125 2.640625 -0.3125 2.578125 -0.3125 C 2 -0.3125 1.890625 -0.515625 1.890625 -0.75 C 1.890625 -0.8125 1.90625 -0.859375 1.9375 -0.96875 L 3.296875 -6.390625 L 4.15625 -0.234375 C 4.171875 -0.109375 4.1875 0 4.296875 0 C 4.40625 0 4.46875 -0.109375 4.515625 -0.171875 L 8.53125 -6.46875 L 8.546875 -6.46875 L 7.125 -0.78125 C 7.03125 -0.390625 7 -0.3125 6.21875 -0.3125 C 6.046875 -0.3125 5.9375 -0.3125 5.9375 -0.125 C 5.9375 0 6.0625 0 6.09375 0 C 6.375 0 7.046875 -0.03125 7.328125 -0.03125 C 7.734375 -0.03125 8.15625 0 8.5625 0 C 8.625 0 8.75 0 8.75 -0.203125 C 8.75 -0.3125 8.671875 -0.3125 8.484375 -0.3125 C 8.109375 -0.3125 7.828125 -0.3125 7.828125 -0.484375 C 7.828125 -0.53125 7.828125 -0.546875 7.875 -0.71875 Z M 9.203125 -6.015625 "/></g><g id="a5ddea7c75737de1120ff42c635d15bapnhjfiwp__glyph-1-0"><path d="M 1.578125 -7.09375 C 1.578125 -7.28125 1.578125 -7.453125 1.375 -7.453125 C 1.1875 -7.453125 1.1875 -7.28125 1.1875 -7.09375 L 1.1875 2.125 C 1.1875 2.3125 1.1875 2.484375 1.375 2.484375 C 1.578125 2.484375 1.578125 2.3125 1.578125 2.125 Z M 1.578125 -7.09375 "/></g><g id="a5ddea7c75737de1120ff42c635d15bapnhjfiwp__glyph-2-0"><path d="M 7.09375 -4.1875 C 7.15625 -4.4375 7.171875 -4.5 7.6875 -4.5 C 7.84375 -4.5 7.921875 -4.5 7.921875 -4.640625 C 7.921875 -4.75 7.84375 -4.75 7.71875 -4.75 L 6.765625 -4.75 C 6.578125 -4.75 6.5625 -4.734375 6.46875 -4.609375 L 3.796875 -0.640625 L 3.09375 -4.5625 C 3.0625 -4.734375 3.0625 -4.75 2.859375 -4.75 L 1.859375 -4.75 C 1.71875 -4.75 1.640625 -4.75 1.640625 -4.59375 C 1.640625 -4.5 1.71875 -4.5 1.875 -4.5 C 1.984375 -4.5 2.015625 -4.5 2.140625 -4.484375 C 2.28125 -4.46875 2.28125 -4.453125 2.28125 -4.390625 C 2.28125 -4.375 2.28125 -4.34375 2.265625 -4.234375 L 1.390625 -0.75 C 1.328125 -0.5 1.21875 -0.265625 0.65625 -0.25 C 0.609375 -0.25 0.515625 -0.25 0.515625 -0.09375 C 0.515625 -0.09375 0.515625 0 0.625 0 C 0.828125 0 1.125 -0.03125 1.34375 -0.03125 C 1.515625 -0.03125 1.90625 0 2.078125 0 C 2.109375 0 2.21875 0 2.21875 -0.15625 C 2.21875 -0.25 2.125 -0.25 2.0625 -0.25 C 1.625 -0.265625 1.625 -0.4375 1.625 -0.546875 C 1.625 -0.5625 1.625 -0.609375 1.640625 -0.71875 L 2.578125 -4.421875 L 3.328125 -0.1875 C 3.34375 -0.0625 3.359375 0 3.46875 0 C 3.5625 0 3.609375 -0.078125 3.671875 -0.15625 L 6.578125 -4.484375 L 6.59375 -4.484375 L 5.609375 -0.546875 C 5.5625 -0.3125 5.546875 -0.25 5 -0.25 C 4.875 -0.25 4.796875 -0.25 4.796875 -0.09375 C 4.796875 -0.09375 4.796875 0 4.90625 0 C 5.03125 0 5.1875 -0.015625 5.328125 -0.015625 C 5.46875 -0.015625 5.625 -0.03125 5.765625 -0.03125 C 5.96875 -0.03125 6.453125 0 6.65625 0 C 6.703125 0 6.796875 0 6.796875 -0.15625 C 6.796875 -0.25 6.71875 -0.25 6.578125 -0.25 C 6.578125 -0.25 6.4375 -0.25 6.3125 -0.265625 C 6.15625 -0.28125 6.15625 -0.296875 6.15625 -0.375 C 6.15625 -0.40625 6.171875 -0.484375 6.1875 -0.515625 Z M 7.09375 -4.1875 "/></g><g id="a5ddea7c75737de1120ff42c635d15bapnhjfiwp__glyph-2-1"><path d="M 0.515625 0.84375 C 0.46875 1.046875 0.453125 1.09375 0.1875 1.09375 C 0.09375 1.09375 0 1.09375 0 1.25 C 0 1.328125 0.0625 1.34375 0.09375 1.34375 C 0.265625 1.34375 0.5 1.328125 0.6875 1.328125 C 0.921875 1.328125 1.1875 1.34375 1.421875 1.34375 C 1.484375 1.34375 1.5625 1.328125 1.5625 1.203125 C 1.5625 1.09375 1.453125 1.09375 1.375 1.09375 C 1.21875 1.09375 1.03125 1.09375 1.03125 1.015625 C 1.03125 0.984375 1.078125 0.796875 1.109375 0.703125 C 1.203125 0.328125 1.296875 -0.046875 1.375 -0.34375 C 1.453125 -0.203125 1.671875 0.0625 2.09375 0.0625 C 2.9375 0.0625 3.875 -0.875 3.875 -1.90625 C 3.875 -2.71875 3.3125 -3.0625 2.828125 -3.0625 C 2.40625 -3.0625 2.03125 -2.78125 1.84375 -2.578125 C 1.71875 -2.96875 1.328125 -3.0625 1.125 -3.0625 C 0.859375 -3.0625 0.6875 -2.890625 0.578125 -2.703125 C 0.4375 -2.46875 0.328125 -2.046875 0.328125 -2 C 0.328125 -1.90625 0.421875 -1.90625 0.4375 -1.90625 C 0.546875 -1.90625 0.546875 -1.9375 0.59375 -2.125 C 0.703125 -2.53125 0.828125 -2.875 1.109375 -2.875 C 1.28125 -2.875 1.328125 -2.71875 1.328125 -2.53125 C 1.328125 -2.453125 1.328125 -2.359375 1.3125 -2.328125 Z M 1.828125 -2.234375 C 2.234375 -2.765625 2.59375 -2.875 2.8125 -2.875 C 3.078125 -2.875 3.3125 -2.671875 3.3125 -2.203125 C 3.3125 -1.90625 3.15625 -1.203125 2.953125 -0.796875 C 2.78125 -0.453125 2.4375 -0.125 2.09375 -0.125 C 1.59375 -0.125 1.46875 -0.65625 1.46875 -0.734375 C 1.46875 -0.765625 1.484375 -0.8125 1.484375 -0.828125 Z M 1.828125 -2.234375 "/></g><g id="a5ddea7c75737de1120ff42c635d15bapnhjfiwp__glyph-2-2"><path d="M 3 -2.609375 C 2.8125 -2.578125 2.703125 -2.421875 2.703125 -2.28125 C 2.703125 -2.125 2.84375 -2.0625 2.9375 -2.0625 C 3 -2.0625 3.265625 -2.109375 3.265625 -2.46875 C 3.265625 -2.90625 2.765625 -3.0625 2.34375 -3.0625 C 1.265625 -3.0625 1.0625 -2.265625 1.0625 -2.046875 C 1.0625 -1.796875 1.203125 -1.625 1.3125 -1.546875 C 1.484375 -1.40625 1.609375 -1.375 2.09375 -1.296875 C 2.234375 -1.265625 2.6875 -1.1875 2.6875 -0.828125 C 2.6875 -0.71875 2.609375 -0.453125 2.3125 -0.28125 C 2.046875 -0.125 1.703125 -0.125 1.625 -0.125 C 1.34375 -0.125 0.953125 -0.1875 0.78125 -0.421875 C 1.015625 -0.4375 1.171875 -0.625 1.171875 -0.8125 C 1.171875 -0.984375 1.046875 -1.078125 0.890625 -1.078125 C 0.703125 -1.078125 0.5 -0.90625 0.5 -0.609375 C 0.5 -0.1875 0.9375 0.0625 1.609375 0.0625 C 2.890625 0.0625 3.125 -0.8125 3.125 -1.078125 C 3.125 -1.71875 2.421875 -1.84375 2.171875 -1.890625 C 2.109375 -1.90625 1.9375 -1.9375 1.890625 -1.953125 C 1.640625 -2 1.515625 -2.140625 1.515625 -2.296875 C 1.515625 -2.453125 1.640625 -2.640625 1.78125 -2.734375 C 1.96875 -2.859375 2.21875 -2.875 2.34375 -2.875 C 2.484375 -2.875 2.84375 -2.84375 3 -2.609375 Z M 3 -2.609375 "/></g><g id="a5ddea7c75737de1120ff42c635d15bapnhjfiwp__glyph-3-0"><path d="M 3.515625 -2.578125 C 3.515625 -2.6875 3.515625 -2.84375 3.34375 -2.84375 C 3.171875 -2.84375 3.171875 -2.65625 3.171875 -2.546875 L 3.171875 -0.203125 L 0.8125 -0.203125 C 0.703125 -0.203125 0.546875 -0.203125 0.546875 -0.03125 C 0.546875 0.140625 0.703125 0.140625 0.8125 0.140625 L 3.25 0.140625 C 3.484375 0.140625 3.515625 0.09375 3.515625 -0.125 Z M 3.515625 -2.578125 "/></g><g id="a5ddea7c75737de1120ff42c635d15bapnhjfiwp__glyph-4-0"><path d="M 2.984375 -1.59375 C 2.984375 -1.953125 2.984375 -3.3125 1.6875 -3.3125 C 0.390625 -3.3125 0.390625 -1.953125 0.390625 -1.59375 C 0.390625 -1.234375 0.390625 0.109375 1.6875 0.109375 C 2.984375 0.109375 2.984375 -1.234375 2.984375 -1.59375 Z M 1.6875 -0.046875 C 1.5 -0.046875 1.09375 -0.125 0.96875 -0.625 C 0.890625 -0.890625 0.890625 -1.234375 0.890625 -1.65625 C 0.890625 -2.015625 0.890625 -2.359375 0.96875 -2.640625 C 1.09375 -3.0625 1.46875 -3.140625 1.6875 -3.140625 C 2.0625 -3.140625 2.328125 -2.953125 2.421875 -2.609375 C 2.484375 -2.359375 2.484375 -1.9375 2.484375 -1.65625 C 2.484375 -1.3125 2.484375 -0.90625 2.421875 -0.609375 C 2.28125 -0.125 1.890625 -0.046875 1.6875 -0.046875 Z M 1.6875 -0.046875 "/></g></g></defs><g fill="rgb(0%, 0%, 0%)" fill-opacity="1"><use xlink:href="#a5ddea7c75737de1120ff42c635d15bapnhjfiwp__glyph-0-0" x="64.17805" y="11.129906"/></g><g fill="rgb(0%, 0%, 0%)" fill-opacity="1"><use xlink:href="#a5ddea7c75737de1120ff42c635d15bapnhjfiwp__glyph-0-1" x="71.370991" y="11.129906"/></g><g fill="rgb(0%, 0%, 0%)" fill-opacity="1"><use xlink:href="#a5ddea7c75737de1120ff42c635d15bapnhjfiwp__glyph-0-0" x="135.573049" y="11.129906"/></g><g fill="rgb(0%, 0%, 0%)" fill-opacity="1"><use xlink:href="#a5ddea7c75737de1120ff42c635d15bapnhjfiwp__glyph-0-1" x="142.76599" y="11.129906"/></g><g fill="rgb(0%, 0%, 0%)" fill-opacity="1"><use xlink:href="#a5ddea7c75737de1120ff42c635d15bapnhjfiwp__glyph-1-0" x="150.672855" y="11.129906"/></g><g fill="rgb(0%, 0%, 0%)" fill-opacity="1"><use xlink:href="#a5ddea7c75737de1120ff42c635d15bapnhjfiwp__glyph-2-0" x="153.440263" y="12.622001"/></g><g fill="rgb(0%, 0%, 0%)" fill-opacity="1"><use xlink:href="#a5ddea7c75737de1120ff42c635d15bapnhjfiwp__glyph-0-0" x="218.555488" y="11.129906"/></g><g fill="rgb(0%, 0%, 0%)" fill-opacity="1"><use xlink:href="#a5ddea7c75737de1120ff42c635d15bapnhjfiwp__glyph-0-1" x="225.748429" y="11.129906"/></g><g fill="rgb(0%, 0%, 0%)" fill-opacity="1"><use xlink:href="#a5ddea7c75737de1120ff42c635d15bapnhjfiwp__glyph-0-1" x="67.774049" y="63.483977"/></g><g fill="rgb(0%, 0%, 0%)" fill-opacity="1"><use xlink:href="#a5ddea7c75737de1120ff42c635d15bapnhjfiwp__glyph-0-2" x="143.55451" y="63.483977"/></g><g fill="rgb(0%, 0%, 0%)" fill-opacity="1"><use xlink:href="#a5ddea7c75737de1120ff42c635d15bapnhjfiwp__glyph-0-1" x="222.151487" y="63.483977"/></g><path fill="none" stroke="rgb(0%, 0%, 0%)" stroke-linecap="butt" stroke-linejoin="miter" stroke-miterlimit="10" stroke-opacity="1" stroke-width="0.39848" d="M -65.284203 24.982214 L -18.259233 24.982214 " transform="matrix(0.998057, 0, 0, -0.998057, 148.919065, 33.578201)"/><path fill="none" stroke="rgb(0%, 0%, 0%)" stroke-linecap="round" stroke-linejoin="round" stroke-miterlimit="10" stroke-opacity="1" stroke-width="0.39848" d="M -2.07337 2.390519 C -1.693726 0.958048 -0.848333 0.277037 0.000973343 -0.000846246 C -0.848333 -0.27873 -1.693726 -0.955827 -2.07337 -2.392212 " transform="matrix(0.998057, 0, 0, -0.998057, 130.89356, 8.643687)"/><path fill="none" stroke="rgb(0%, 0%, 0%)" stroke-linecap="butt" stroke-linejoin="miter" stroke-miterlimit="10" stroke-opacity="1" stroke-width="0.39848" d="M -77.338877 18.645682 L -77.338877 -18.911672 " transform="matrix(0.998057, 0, 0, -0.998057, 148.919065, 33.578201)"/><path fill="none" stroke="rgb(0%, 0%, 0%)" stroke-linecap="round" stroke-linejoin="round" stroke-miterlimit="10" stroke-opacity="1" stroke-width="0.39848" d="M -2.071131 2.392528 C -1.695401 0.956143 -0.850008 0.279046 -0.000701257 0.00116273 C -0.850008 -0.280635 -1.695401 -0.957732 -2.071131 -2.390203 " transform="matrix(0, 0.998057, 0.998057, 0, 71.729308, 52.653044)"/><g fill="rgb(0%, 0%, 0%)" fill-opacity="1"><use xlink:href="#a5ddea7c75737de1120ff42c635d15bapnhjfiwp__glyph-3-0" x="86.266046" y="21.385938"/></g><path fill="none" stroke="rgb(0%, 0%, 0%)" stroke-linecap="butt" stroke-linejoin="miter" stroke-miterlimit="10" stroke-opacity="1" stroke-width="0.39848" d="M 17.861736 24.982214 L 64.886706 24.982214 " transform="matrix(0.998057, 0, 0, -0.998057, 148.919065, 33.578201)"/><path fill="none" stroke="rgb(0%, 0%, 0%)" stroke-linecap="round" stroke-linejoin="round" stroke-miterlimit="10" stroke-opacity="1" stroke-width="0.39848" d="M -2.07287 2.390519 C -1.693226 0.958048 -0.851748 0.277037 0.00147286 -0.000846246 C -0.851748 -0.27873 -1.693226 -0.955827 -2.07287 -2.392212 " transform="matrix(0.998057, 0, 0, -0.998057, 213.877436, 8.643687)"/><path fill="none" stroke="rgb(0%, 0%, 0%)" stroke-linecap="butt" stroke-linejoin="miter" stroke-miterlimit="10" stroke-opacity="1" stroke-width="0.39848" d="M -0.00109884 16.15647 L -0.00109884 -18.911672 " transform="matrix(0.998057, 0, 0, -0.998057, 148.919065, 33.578201)"/><path fill="none" stroke="rgb(0%, 0%, 0%)" stroke-linecap="round" stroke-linejoin="round" stroke-miterlimit="10" stroke-opacity="1" stroke-width="0.39848" d="M -2.071131 2.390267 C -1.695401 0.957796 -0.850008 0.280699 -0.000701257 -0.00109884 C -0.850008 -0.278983 -1.695401 -0.95608 -2.071131 -2.392464 " transform="matrix(0, 0.998057, 0.998057, 0, 148.919065, 52.653044)"/><g fill="rgb(0%, 0%, 0%)" fill-opacity="1"><use xlink:href="#a5ddea7c75737de1120ff42c635d15bapnhjfiwp__glyph-3-0" x="166.838178" y="23.680471"/></g><path fill="none" stroke="rgb(0%, 0%, 0%)" stroke-linecap="butt" stroke-linejoin="miter" stroke-miterlimit="10" stroke-opacity="1" stroke-width="0.39848" d="M 77.340593 18.645682 L 77.340593 -18.911672 " transform="matrix(0.998057, 0, 0, -0.998057, 148.919065, 33.578201)"/><path fill="none" stroke="rgb(0%, 0%, 0%)" stroke-linecap="round" stroke-linejoin="round" stroke-miterlimit="10" stroke-opacity="1" stroke-width="0.39848" d="M -2.071131 2.391919 C -1.695401 0.955534 -0.850008 0.278437 -0.000701257 0.000553441 C -0.850008 -0.27733 -1.695401 -0.954427 -2.071131 -2.390812 " transform="matrix(0, 0.998057, 0.998057, 0, 226.108823, 52.653044)"/><path fill="none" stroke="rgb(0%, 0%, 0%)" stroke-linecap="butt" stroke-linejoin="miter" stroke-miterlimit="10" stroke-opacity="1" stroke-width="0.39848" d="M -68.888864 -27.475187 L -10.263227 -27.475187 " transform="matrix(0.998057, 0, 0, -0.998057, 148.919065, 33.578201)"/><path fill="none" stroke="rgb(0%, 0%, 0%)" stroke-linecap="round" stroke-linejoin="round" stroke-miterlimit="10" stroke-opacity="1" stroke-width="0.39848" d="M -2.07031 2.389928 C -1.69458 0.957457 -0.849187 0.28036 0.000119483 -0.00143727 C -0.849187 -0.279321 -1.69458 -0.956418 -2.07031 -2.392803 " transform="matrix(0.998057, 0, 0, -0.998057, 138.874881, 60.998566)"/><g fill="rgb(0%, 0%, 0%)" fill-opacity="1"><use xlink:href="#a5ddea7c75737de1120ff42c635d15bapnhjfiwp__glyph-2-1" x="107.571566" y="66.334427"/></g><path fill="none" stroke="rgb(0%, 0%, 0%)" stroke-linecap="butt" stroke-linejoin="miter" stroke-miterlimit="10" stroke-opacity="1" stroke-width="0.39848" d="M 9.86573 -27.475187 L 68.487453 -27.475187 " transform="matrix(0.998057, 0, 0, -0.998057, 148.919065, 33.578201)"/><path fill="none" stroke="rgb(0%, 0%, 0%)" stroke-linecap="round" stroke-linejoin="round" stroke-miterlimit="10" stroke-opacity="1" stroke-width="0.39848" d="M -2.07107 2.389928 C -1.69534 0.957457 -0.849947 0.28036 -0.00064037 -0.00143727 C -0.849947 -0.279321 -1.69534 -0.956418 -2.07107 -2.392803 " transform="matrix(0.998057, 0, 0, -0.998057, 217.473295, 60.998566)"/><g fill="rgb(0%, 0%, 0%)" fill-opacity="1"><use xlink:href="#a5ddea7c75737de1120ff42c635d15bapnhjfiwp__glyph-2-2" x="184.400985" y="66.334427"/></g><g fill="rgb(0%, 0%, 0%)" fill-opacity="1"><use xlink:href="#a5ddea7c75737de1120ff42c635d15bapnhjfiwp__glyph-4-0" x="188.154677" y="67.328492"/></g></svg>