<?xml version="1.0" encoding="UTF-8"?><svg xmlns="http://www.w3.org/2000/svg" xmlns:xlink="http://www.w3.org/1999/xlink" width="343.711" height="118.771" viewBox="0 0 343.711 118.771"><defs><g><g id="b0ba0e6c0f3f5688424b5917ad2a9a9anw2s3h0t__glyph-0-0"><path d="M 6.34375 -2.09375 C 6.359375 -2.125 6.390625 -2.1875 6.390625 -2.21875 C 6.390625 -2.21875 6.390625 -2.3125 6.28125 -2.3125 C 6.203125 -2.3125 6.171875 -2.25 6.15625 -2.203125 C 5.578125 -0.875 5.25 -0.28125 3.71875 -0.28125 L 2.40625 -0.28125 C 2.28125 -0.28125 2.265625 -0.28125 2.21875 -0.28125 C 2.125 -0.296875 2.09375 -0.296875 2.09375 -0.375 C 2.09375 -0.40625 2.09375 -0.421875 2.140625 -0.578125 L 2.75 -3.03125 L 3.640625 -3.03125 C 4.390625 -3.03125 4.390625 -2.84375 4.390625 -2.609375 C 4.390625 -2.546875 4.390625 -2.4375 4.328125 -2.171875 C 4.3125 -2.125 4.3125 -2.109375 4.3125 -2.078125 C 4.3125 -2.03125 4.34375 -1.984375 4.421875 -1.984375 C 4.5 -1.984375 4.515625 -2.015625 4.5625 -2.15625 L 5.0625 -4.25 C 5.0625 -4.3125 5.015625 -4.34375 4.953125 -4.34375 C 4.875 -4.34375 4.859375 -4.296875 4.828125 -4.1875 C 4.640625 -3.515625 4.484375 -3.296875 3.65625 -3.296875 L 2.8125 -3.296875 L 3.359375 -5.46875 C 3.4375 -5.78125 3.453125 -5.8125 3.84375 -5.8125 L 5.109375 -5.8125 C 6.203125 -5.8125 6.46875 -5.546875 6.46875 -4.8125 C 6.46875 -4.609375 6.46875 -4.578125 6.421875 -4.34375 C 6.421875 -4.28125 6.421875 -4.21875 6.421875 -4.1875 C 6.421875 -4.140625 6.453125 -4.078125 6.53125 -4.078125 C 6.625 -4.078125 6.640625 -4.125 6.65625 -4.296875 L 6.828125 -5.84375 C 6.859375 -6.09375 6.8125 -6.09375 6.59375 -6.09375 L 2.0625 -6.09375 C 1.890625 -6.09375 1.796875 -6.09375 1.796875 -5.90625 C 1.796875 -5.8125 1.875 -5.8125 2.046875 -5.8125 C 2.375 -5.8125 2.625 -5.8125 2.625 -5.65625 C 2.625 -5.609375 2.625 -5.59375 2.59375 -5.4375 L 1.40625 -0.703125 C 1.3125 -0.34375 1.296875 -0.28125 0.59375 -0.28125 C 0.4375 -0.28125 0.34375 -0.28125 0.34375 -0.109375 C 0.34375 0 0.421875 0 0.59375 0 L 5.234375 0 C 5.4375 0 5.453125 -0.015625 5.515625 -0.15625 Z M 6.34375 -2.09375 "/></g><g id="b0ba0e6c0f3f5688424b5917ad2a9a9anw2s3h0t__glyph-0-1"><path d="M 3.34375 -5.421875 C 3.421875 -5.75 3.453125 -5.84375 4.15625 -5.84375 C 4.375 -5.84375 4.453125 -5.84375 4.453125 -6 C 4.453125 -6.109375 4.34375 -6.109375 4.3125 -6.109375 C 4.0625 -6.109375 3.390625 -6.09375 3.140625 -6.09375 C 2.859375 -6.09375 2.21875 -6.109375 1.9375 -6.109375 C 1.875 -6.109375 1.765625 -6.109375 1.765625 -5.9375 C 1.765625 -5.84375 1.84375 -5.84375 2.015625 -5.84375 C 2.390625 -5.84375 2.625 -5.84375 2.625 -5.671875 C 2.625 -5.625 2.625 -5.609375 2.609375 -5.53125 L 1.40625 -0.703125 C 1.328125 -0.359375 1.296875 -0.28125 0.59375 -0.28125 C 0.390625 -0.28125 0.296875 -0.28125 0.296875 -0.09375 C 0.296875 0 0.40625 0 0.4375 0 C 0.703125 0 1.359375 -0.03125 1.609375 -0.03125 C 1.875 -0.03125 2.546875 0 2.8125 0 C 2.890625 0 2.984375 0 2.984375 -0.171875 C 2.984375 -0.28125 2.921875 -0.28125 2.71875 -0.28125 C 2.5625 -0.28125 2.515625 -0.28125 2.34375 -0.296875 C 2.15625 -0.3125 2.109375 -0.34375 2.109375 -0.453125 C 2.109375 -0.515625 2.125 -0.59375 2.15625 -0.65625 Z M 3.34375 -5.421875 "/></g><g id="b0ba0e6c0f3f5688424b5917ad2a9a9anw2s3h0t__glyph-0-2"><path d="M 6.828125 -5.421875 C 6.90625 -5.75 6.9375 -5.84375 7.578125 -5.84375 C 7.8125 -5.84375 7.890625 -5.84375 7.890625 -6.015625 C 7.890625 -6.109375 7.796875 -6.109375 7.765625 -6.109375 C 7.515625 -6.109375 6.859375 -6.09375 6.609375 -6.09375 C 6.359375 -6.09375 5.71875 -6.109375 5.46875 -6.109375 C 5.390625 -6.109375 5.296875 -6.109375 5.296875 -5.9375 C 5.296875 -5.84375 5.375 -5.84375 5.546875 -5.84375 C 5.5625 -5.84375 5.734375 -5.84375 5.875 -5.8125 C 6.046875 -5.796875 6.125 -5.796875 6.125 -5.671875 C 6.125 -5.640625 6.109375 -5.625 6.09375 -5.5 L 5.546875 -3.328125 L 2.8125 -3.328125 L 3.34375 -5.421875 C 3.421875 -5.75 3.453125 -5.84375 4.09375 -5.84375 C 4.328125 -5.84375 4.40625 -5.84375 4.40625 -6.015625 C 4.40625 -6.109375 4.3125 -6.109375 4.28125 -6.109375 C 4.03125 -6.109375 3.390625 -6.09375 3.140625 -6.09375 C 2.875 -6.09375 2.234375 -6.109375 1.984375 -6.109375 C 1.90625 -6.109375 1.8125 -6.109375 1.8125 -5.9375 C 1.8125 -5.84375 1.890625 -5.84375 2.0625 -5.84375 C 2.078125 -5.84375 2.25 -5.84375 2.40625 -5.8125 C 2.5625 -5.796875 2.640625 -5.796875 2.640625 -5.671875 C 2.640625 -5.640625 2.625 -5.609375 2.609375 -5.5 L 1.40625 -0.703125 C 1.3125 -0.34375 1.296875 -0.28125 0.59375 -0.28125 C 0.4375 -0.28125 0.34375 -0.28125 0.34375 -0.09375 C 0.34375 0 0.453125 0 0.46875 0 C 0.71875 0 1.359375 -0.03125 1.609375 -0.03125 C 1.796875 -0.03125 2 -0.015625 2.1875 -0.015625 C 2.375 -0.015625 2.578125 0 2.765625 0 C 2.84375 0 2.953125 0 2.953125 -0.171875 C 2.953125 -0.28125 2.859375 -0.28125 2.6875 -0.28125 C 2.359375 -0.28125 2.109375 -0.28125 2.109375 -0.4375 C 2.109375 -0.5 2.125 -0.53125 2.140625 -0.59375 L 2.75 -3.046875 L 5.484375 -3.046875 C 5.109375 -1.5625 4.890625 -0.703125 4.859375 -0.578125 C 4.765625 -0.28125 4.609375 -0.28125 4.046875 -0.28125 C 3.90625 -0.28125 3.828125 -0.28125 3.828125 -0.09375 C 3.828125 0 3.9375 0 3.953125 0 C 4.203125 0 4.84375 -0.03125 5.09375 -0.03125 C 5.28125 -0.03125 5.484375 -0.015625 5.671875 -0.015625 C 5.859375 -0.015625 6.0625 0 6.25 0 C 6.328125 0 6.421875 0 6.421875 -0.171875 C 6.421875 -0.28125 6.34375 -0.28125 6.171875 -0.28125 C 5.84375 -0.28125 5.59375 -0.28125 5.59375 -0.4375 C 5.59375 -0.5 5.609375 -0.53125 5.625 -0.59375 Z M 6.828125 -5.421875 "/></g><g id="b0ba0e6c0f3f5688424b5917ad2a9a9anw2s3h0t__glyph-0-3"><path d="M 1.4375 -0.703125 C 1.34375 -0.34375 1.328125 -0.28125 0.625 -0.28125 C 0.46875 -0.28125 0.375 -0.28125 0.375 -0.09375 C 0.375 0 0.453125 0 0.625 0 L 3.8125 0 C 5.234375 0 6.28125 -1.0625 6.28125 -1.9375 C 6.28125 -2.578125 5.765625 -3.09375 4.890625 -3.203125 C 5.828125 -3.359375 6.765625 -4.03125 6.765625 -4.875 C 6.765625 -5.546875 6.171875 -6.109375 5.109375 -6.109375 L 2.09375 -6.109375 C 1.921875 -6.109375 1.828125 -6.109375 1.828125 -5.9375 C 1.828125 -5.84375 1.921875 -5.84375 2.09375 -5.84375 C 2.109375 -5.84375 2.28125 -5.84375 2.421875 -5.8125 C 2.59375 -5.796875 2.671875 -5.796875 2.671875 -5.671875 C 2.671875 -5.640625 2.65625 -5.609375 2.625 -5.5 Z M 2.78125 -3.28125 L 3.34375 -5.5 C 3.421875 -5.8125 3.4375 -5.84375 3.828125 -5.84375 L 4.984375 -5.84375 C 5.765625 -5.84375 5.953125 -5.3125 5.953125 -4.921875 C 5.953125 -4.125 5.1875 -3.28125 4.09375 -3.28125 Z M 2.375 -0.28125 C 2.25 -0.28125 2.234375 -0.28125 2.1875 -0.28125 C 2.09375 -0.296875 2.0625 -0.296875 2.0625 -0.375 C 2.0625 -0.40625 2.0625 -0.421875 2.109375 -0.578125 L 2.734375 -3.078125 L 4.421875 -3.078125 C 5.28125 -3.078125 5.453125 -2.421875 5.453125 -2.03125 C 5.453125 -1.140625 4.65625 -0.28125 3.59375 -0.28125 Z M 2.375 -0.28125 "/></g><g id="b0ba0e6c0f3f5688424b5917ad2a9a9anw2s3h0t__glyph-1-0"><path d="M 1.8125 -2.953125 C 1.859375 -3.0625 1.875 -3.109375 1.875 -3.15625 C 1.875 -3.359375 1.703125 -3.5 1.5 -3.5 C 1.265625 -3.5 1.1875 -3.3125 1.15625 -3.203125 L 0.328125 -0.5 C 0.328125 -0.484375 0.296875 -0.40625 0.296875 -0.390625 C 0.296875 -0.3125 0.5 -0.25 0.546875 -0.25 C 0.59375 -0.25 0.59375 -0.265625 0.640625 -0.359375 Z M 1.8125 -2.953125 "/></g><g id="b0ba0e6c0f3f5688424b5917ad2a9a9anw2s3h0t__glyph-1-1"><path d="M 2.03125 -1.5625 C 2.53125 -1.78125 2.765625 -1.875 2.921875 -1.953125 C 3.046875 -2 3.09375 -2.03125 3.09375 -2.140625 C 3.09375 -2.25 3.015625 -2.34375 2.90625 -2.34375 C 2.859375 -2.34375 2.84375 -2.34375 2.78125 -2.28125 L 1.921875 -1.71875 L 2.015625 -2.640625 C 2.03125 -2.75 2.015625 -2.90625 1.828125 -2.90625 C 1.75 -2.90625 1.640625 -2.859375 1.640625 -2.71875 C 1.640625 -2.671875 1.65625 -2.484375 1.671875 -2.421875 C 1.671875 -2.3125 1.71875 -1.859375 1.734375 -1.71875 L 0.890625 -2.28125 C 0.828125 -2.328125 0.8125 -2.34375 0.75 -2.34375 C 0.640625 -2.34375 0.5625 -2.25 0.5625 -2.140625 C 0.5625 -2.015625 0.640625 -1.984375 0.6875 -1.96875 L 1.640625 -1.5625 C 1.125 -1.34375 0.890625 -1.25 0.734375 -1.171875 C 0.609375 -1.125 0.5625 -1.109375 0.5625 -0.984375 C 0.5625 -0.875 0.640625 -0.78125 0.75 -0.78125 C 0.796875 -0.78125 0.8125 -0.78125 0.890625 -0.84375 L 1.734375 -1.40625 L 1.640625 -0.40625 C 1.640625 -0.265625 1.75 -0.21875 1.828125 -0.21875 C 1.90625 -0.21875 2.03125 -0.265625 2.03125 -0.40625 C 2.03125 -0.453125 2 -0.640625 2 -0.703125 C 1.984375 -0.8125 1.9375 -1.265625 1.921875 -1.40625 L 2.671875 -0.90625 C 2.84375 -0.78125 2.84375 -0.78125 2.90625 -0.78125 C 3.015625 -0.78125 3.09375 -0.875 3.09375 -0.984375 C 3.09375 -1.109375 3.03125 -1.140625 2.96875 -1.171875 Z M 2.03125 -1.5625 "/></g><g id="b0ba0e6c0f3f5688424b5917ad2a9a9anw2s3h0t__glyph-1-2"><path d="M 4.390625 -2.9375 C 4.453125 -3 4.46875 -3.046875 4.46875 -3.09375 C 4.46875 -3.1875 4.390625 -3.25 4.328125 -3.25 C 4.265625 -3.25 4.234375 -3.234375 4.171875 -3.15625 L 2.796875 -1.78125 L 1.421875 -3.15625 C 1.359375 -3.21875 1.328125 -3.25 1.265625 -3.25 C 1.1875 -3.25 1.109375 -3.171875 1.109375 -3.09375 C 1.109375 -3.03125 1.140625 -3.015625 1.203125 -2.9375 L 2.578125 -1.578125 L 1.203125 -0.203125 C 1.125 -0.125 1.109375 -0.09375 1.109375 -0.046875 C 1.109375 0.03125 1.1875 0.109375 1.265625 0.109375 C 1.328125 0.109375 1.34375 0.09375 1.421875 0.015625 L 2.796875 -1.359375 L 4.21875 0.078125 C 4.25 0.09375 4.28125 0.109375 4.328125 0.109375 C 4.390625 0.109375 4.46875 0.046875 4.46875 -0.046875 C 4.46875 -0.09375 4.46875 -0.109375 4.4375 -0.125 C 4.4375 -0.15625 3.21875 -1.375 3.015625 -1.5625 Z M 4.390625 -2.9375 "/></g><g id="b0ba0e6c0f3f5688424b5917ad2a9a9anw2s3h0t__glyph-1-3"><path d="M 3.171875 -1.5625 C 3.171875 -2.328125 2.5625 -2.90625 1.828125 -2.90625 C 1.078125 -2.90625 0.484375 -2.3125 0.484375 -1.578125 C 0.484375 -0.8125 1.09375 -0.21875 1.828125 -0.21875 C 2.578125 -0.21875 3.171875 -0.828125 3.171875 -1.5625 Z M 1.828125 -0.53125 C 1.234375 -0.53125 0.796875 -1.015625 0.796875 -1.5625 C 0.796875 -2.15625 1.25 -2.609375 1.828125 -2.609375 C 2.421875 -2.609375 2.875 -2.125 2.875 -1.578125 C 2.875 -0.984375 2.40625 -0.53125 1.828125 -0.53125 Z M 1.828125 -0.53125 "/></g><g id="b0ba0e6c0f3f5688424b5917ad2a9a9anw2s3h0t__glyph-1-4"><path d="M 5.109375 -2.15625 C 5.109375 -2.390625 5.015625 -2.40625 5 -2.40625 C 4.90625 -2.40625 4.890625 -2.21875 4.890625 -2.140625 C 4.875 -1.6875 4.53125 -1.15625 3.953125 -1.15625 C 3.5 -1.15625 3.1875 -1.453125 2.84375 -1.765625 C 2.5 -2.0625 2.125 -2.40625 1.640625 -2.40625 C 0.921875 -2.40625 0.484375 -1.671875 0.484375 -0.984375 C 0.484375 -0.734375 0.5625 -0.734375 0.59375 -0.734375 C 0.6875 -0.734375 0.6875 -0.890625 0.703125 -0.984375 C 0.71875 -1.453125 1.046875 -1.96875 1.640625 -1.96875 C 2.09375 -1.96875 2.40625 -1.671875 2.75 -1.359375 C 3.078125 -1.0625 3.453125 -0.734375 3.953125 -0.734375 C 4.65625 -0.734375 5.109375 -1.453125 5.109375 -2.15625 Z M 5.109375 -2.15625 "/></g><g id="b0ba0e6c0f3f5688424b5917ad2a9a9anw2s3h0t__glyph-2-0"><path d="M 3.484375 -2.484375 L 1.6875 -4.265625 C 1.578125 -4.375 1.5625 -4.390625 1.5 -4.390625 C 1.40625 -4.390625 1.3125 -4.3125 1.3125 -4.21875 C 1.3125 -4.15625 1.328125 -4.140625 1.4375 -4.03125 L 3.21875 -2.234375 L 1.4375 -0.4375 C 1.328125 -0.34375 1.3125 -0.328125 1.3125 -0.265625 C 1.3125 -0.15625 1.40625 -0.078125 1.5 -0.078125 C 1.5625 -0.078125 1.578125 -0.09375 1.6875 -0.203125 L 3.46875 -1.984375 L 5.328125 -0.140625 C 5.34375 -0.125 5.40625 -0.078125 5.46875 -0.078125 C 5.5625 -0.078125 5.640625 -0.15625 5.640625 -0.265625 C 5.640625 -0.28125 5.640625 -0.3125 5.609375 -0.359375 C 5.609375 -0.375 4.1875 -1.78125 3.734375 -2.234375 L 5.375 -3.875 C 5.421875 -3.9375 5.546875 -4.046875 5.59375 -4.09375 C 5.609375 -4.125 5.640625 -4.15625 5.640625 -4.21875 C 5.640625 -4.3125 5.5625 -4.390625 5.46875 -4.390625 C 5.390625 -4.390625 5.359375 -4.359375 5.25 -4.265625 Z M 3.484375 -2.484375 "/></g><g id="b0ba0e6c0f3f5688424b5917ad2a9a9anw2s3h0t__glyph-2-1"><path d="M 1.421875 -6.390625 C 1.421875 -6.546875 1.421875 -6.71875 1.25 -6.71875 C 1.0625 -6.71875 1.0625 -6.546875 1.0625 -6.390625 L 1.0625 1.921875 C 1.0625 2.078125 1.0625 2.234375 1.25 2.234375 C 1.421875 2.234375 1.421875 2.078125 1.421875 1.921875 Z M 1.421875 -6.390625 "/></g><g id="b0ba0e6c0f3f5688424b5917ad2a9a9anw2s3h0t__glyph-3-0"><path d="M 1.1875 -0.484375 C 1.140625 -0.28125 1.125 -0.21875 0.640625 -0.21875 C 0.53125 -0.21875 0.453125 -0.21875 0.453125 -0.09375 C 0.453125 0 0.53125 0 0.640625 0 L 3.0625 0 C 4.109375 0 4.921875 -0.71875 4.921875 -1.34375 C 4.921875 -1.78125 4.515625 -2.171875 3.859375 -2.234375 C 4.609375 -2.375 5.25 -2.84375 5.25 -3.390625 C 5.25 -3.859375 4.765625 -4.28125 3.953125 -4.28125 L 1.671875 -4.28125 C 1.546875 -4.28125 1.46875 -4.28125 1.46875 -4.140625 C 1.46875 -4.046875 1.546875 -4.046875 1.671875 -4.046875 C 1.671875 -4.046875 1.796875 -4.046875 1.90625 -4.046875 C 2.03125 -4.03125 2.046875 -4.015625 2.046875 -3.953125 C 2.046875 -3.9375 2.046875 -3.90625 2.03125 -3.8125 Z M 2.1875 -2.3125 L 2.578125 -3.84375 C 2.625 -4.03125 2.625 -4.046875 2.890625 -4.046875 L 3.84375 -4.046875 C 4.484375 -4.046875 4.625 -3.640625 4.625 -3.390625 C 4.625 -2.890625 4.0625 -2.3125 3.21875 -2.3125 Z M 1.890625 -0.21875 C 1.703125 -0.21875 1.6875 -0.234375 1.6875 -0.28125 C 1.6875 -0.296875 1.6875 -0.328125 1.71875 -0.421875 L 2.15625 -2.140625 L 3.484375 -2.140625 C 4.0625 -2.140625 4.296875 -1.75 4.296875 -1.390625 C 4.296875 -0.765625 3.65625 -0.21875 2.90625 -0.21875 Z M 1.890625 -0.21875 "/></g><g id="b0ba0e6c0f3f5688424b5917ad2a9a9anw2s3h0t__glyph-3-1"><path d="M 2.59375 -3.78125 C 2.640625 -4 2.65625 -4.046875 3.125 -4.046875 C 3.28125 -4.046875 3.359375 -4.046875 3.359375 -4.1875 C 3.359375 -4.234375 3.3125 -4.28125 3.265625 -4.28125 C 3.125 -4.28125 2.96875 -4.265625 2.84375 -4.265625 C 2.703125 -4.265625 2.546875 -4.25 2.40625 -4.25 C 2.40625 -4.25 1.984375 -4.265625 1.984375 -4.265625 C 1.84375 -4.265625 1.6875 -4.28125 1.546875 -4.28125 C 1.515625 -4.28125 1.421875 -4.28125 1.421875 -4.140625 C 1.421875 -4.046875 1.484375 -4.046875 1.625 -4.046875 C 1.625 -4.046875 1.75 -4.046875 1.859375 -4.046875 C 1.984375 -4.03125 2.03125 -4.015625 2.03125 -3.953125 C 2.03125 -3.921875 2.015625 -3.875 2 -3.828125 L 1.171875 -0.5 C 1.125 -0.28125 1.109375 -0.21875 0.640625 -0.21875 C 0.46875 -0.21875 0.40625 -0.21875 0.40625 -0.09375 C 0.40625 -0.078125 0.40625 0 0.5 0 C 0.6875 0 1.15625 -0.03125 1.34375 -0.03125 L 1.78125 -0.015625 C 1.921875 -0.015625 2.078125 0 2.21875 0 C 2.25 0 2.34375 0 2.34375 -0.140625 C 2.34375 -0.21875 2.265625 -0.21875 2.140625 -0.21875 C 2.125 -0.21875 2 -0.21875 1.875 -0.234375 C 1.734375 -0.25 1.734375 -0.28125 1.734375 -0.328125 C 1.734375 -0.34375 1.734375 -0.375 1.75 -0.46875 Z M 2.59375 -3.78125 "/></g><g id="b0ba0e6c0f3f5688424b5917ad2a9a9anw2s3h0t__glyph-3-2"><path d="M 3.40625 -4.171875 C 3.421875 -4.234375 3.421875 -4.265625 3.421875 -4.265625 C 3.421875 -4.34375 3.34375 -4.34375 3.328125 -4.34375 C 3.234375 -4.34375 3.234375 -4.328125 3.203125 -4.203125 L 2.1875 -0.125 C 1.671875 -0.1875 1.390625 -0.40625 1.390625 -0.828125 C 1.390625 -0.921875 1.390625 -1.09375 1.703125 -1.875 C 1.75 -2.015625 1.796875 -2.125 1.796875 -2.21875 C 1.796875 -2.546875 1.515625 -2.765625 1.203125 -2.765625 C 0.578125 -2.765625 0.296875 -1.90625 0.296875 -1.796875 C 0.296875 -1.71875 0.375 -1.71875 0.40625 -1.71875 C 0.484375 -1.71875 0.5 -1.75 0.515625 -1.828125 C 0.671875 -2.34375 0.9375 -2.59375 1.1875 -2.59375 C 1.296875 -2.59375 1.34375 -2.515625 1.34375 -2.375 C 1.34375 -2.21875 1.296875 -2.109375 1.21875 -1.921875 C 0.90625 -1.125 0.90625 -0.984375 0.90625 -0.875 C 0.90625 -0.15625 1.671875 0.03125 2.140625 0.046875 C 2.09375 0.21875 1.859375 1.171875 1.859375 1.203125 C 1.859375 1.28125 1.9375 1.28125 1.953125 1.28125 C 2.046875 1.28125 2.0625 1.25 2.078125 1.140625 L 2.34375 0.0625 C 2.59375 0.0625 3.171875 0.0625 3.828125 -0.59375 C 4 -0.765625 4.171875 -0.984375 4.28125 -1.265625 C 4.359375 -1.46875 4.5 -1.984375 4.5 -2.28125 C 4.5 -2.765625 4.203125 -2.765625 4.1875 -2.765625 C 4.015625 -2.765625 3.84375 -2.59375 3.84375 -2.4375 C 3.84375 -2.328125 3.90625 -2.28125 3.9375 -2.265625 C 4.03125 -2.171875 4.1875 -2.015625 4.1875 -1.734375 C 4.1875 -1.21875 3.46875 -0.109375 2.390625 -0.109375 Z M 3.40625 -4.171875 "/></g><g id="b0ba0e6c0f3f5688424b5917ad2a9a9anw2s3h0t__glyph-3-3"><path d="M 0.734375 -1.296875 C 0.671875 -1.109375 0.46875 -0.640625 0.46875 -0.46875 C 0.46875 -0.21875 0.65625 0.0625 1.078125 0.0625 C 1.359375 0.0625 1.671875 -0.046875 1.9375 -0.25 C 2.28125 -0.546875 2.34375 -0.890625 2.34375 -0.890625 C 2.34375 -0.984375 2.265625 -0.984375 2.25 -0.984375 C 2.15625 -0.984375 2.15625 -0.953125 2.125 -0.859375 C 1.96875 -0.40625 1.46875 -0.109375 1.09375 -0.109375 C 1 -0.109375 0.921875 -0.125 0.921875 -0.328125 C 0.921875 -0.375 0.921875 -0.46875 1 -0.65625 C 1.328125 -1.5625 1.5625 -2.53125 1.5625 -2.5625 C 1.5625 -2.671875 1.46875 -2.765625 1.34375 -2.765625 C 1.234375 -2.765625 1.125 -2.671875 1.078125 -2.59375 C 1.046875 -2.484375 0.984375 -2.1875 0.953125 -2.0625 C 0.90625 -1.96875 0.84375 -1.6875 0.8125 -1.59375 Z M 0.734375 -1.296875 "/></g><g id="b0ba0e6c0f3f5688424b5917ad2a9a9anw2s3h0t__glyph-3-4"><path d="M 1.953125 -2.28125 L 2.6875 -2.28125 C 2.59375 -1.90625 2.46875 -1.328125 2.46875 -0.828125 C 2.46875 -0.578125 2.5 -0.40625 2.53125 -0.28125 C 2.625 0.03125 2.71875 0.0625 2.8125 0.0625 C 2.953125 0.0625 3.109375 -0.0625 3.109375 -0.21875 C 3.109375 -0.265625 3.09375 -0.296875 3.0625 -0.359375 C 2.9375 -0.59375 2.828125 -0.953125 2.828125 -1.453125 C 2.828125 -1.578125 2.828125 -1.828125 2.90625 -2.28125 L 3.703125 -2.28125 C 3.8125 -2.28125 3.859375 -2.28125 3.921875 -2.328125 C 4.015625 -2.390625 4.03125 -2.484375 4.03125 -2.515625 C 4.03125 -2.703125 3.875 -2.703125 3.765625 -2.703125 L 1.40625 -2.703125 C 1.140625 -2.703125 0.96875 -2.640625 0.6875 -2.375 C 0.53125 -2.234375 0.28125 -1.90625 0.28125 -1.84375 C 0.28125 -1.765625 0.359375 -1.765625 0.390625 -1.765625 C 0.453125 -1.765625 0.46875 -1.78125 0.5 -1.828125 C 0.828125 -2.28125 1.203125 -2.28125 1.34375 -2.28125 L 1.734375 -2.28125 C 1.53125 -1.578125 1.203125 -0.84375 1.015625 -0.46875 C 0.96875 -0.390625 0.90625 -0.25 0.890625 -0.234375 C 0.890625 -0.203125 0.875 -0.1875 0.875 -0.140625 C 0.875 -0.03125 0.953125 0.0625 1.09375 0.0625 C 1.34375 0.0625 1.40625 -0.21875 1.5625 -0.78125 Z M 1.953125 -2.28125 "/></g><g id="b0ba0e6c0f3f5688424b5917ad2a9a9anw2s3h0t__glyph-3-5"><path d="M 2.03125 -3.921875 C 2.03125 -4.015625 1.953125 -4.15625 1.78125 -4.15625 C 1.609375 -4.15625 1.421875 -3.984375 1.421875 -3.8125 C 1.421875 -3.703125 1.515625 -3.578125 1.671875 -3.578125 C 1.859375 -3.578125 2.03125 -3.75 2.03125 -3.921875 Z M 0.75 -0.734375 C 0.734375 -0.65625 0.703125 -0.578125 0.703125 -0.46875 C 0.703125 -0.171875 0.953125 0.0625 1.296875 0.0625 C 1.921875 0.0625 2.1875 -0.796875 2.1875 -0.890625 C 2.1875 -0.984375 2.109375 -0.984375 2.09375 -0.984375 C 2 -0.984375 2 -0.9375 1.96875 -0.875 C 1.828125 -0.375 1.546875 -0.109375 1.3125 -0.109375 C 1.1875 -0.109375 1.15625 -0.1875 1.15625 -0.328125 C 1.15625 -0.46875 1.203125 -0.59375 1.25 -0.734375 C 1.3125 -0.90625 1.390625 -1.078125 1.453125 -1.234375 C 1.515625 -1.390625 1.734375 -1.953125 1.765625 -2.03125 C 1.78125 -2.09375 1.796875 -2.171875 1.796875 -2.234375 C 1.796875 -2.53125 1.546875 -2.765625 1.203125 -2.765625 C 0.578125 -2.765625 0.296875 -1.90625 0.296875 -1.796875 C 0.296875 -1.71875 0.375 -1.71875 0.40625 -1.71875 C 0.484375 -1.71875 0.5 -1.75 0.515625 -1.828125 C 0.671875 -2.359375 0.953125 -2.59375 1.1875 -2.59375 C 1.28125 -2.59375 1.34375 -2.53125 1.34375 -2.375 C 1.34375 -2.21875 1.296875 -2.125 1.140625 -1.734375 Z M 0.75 -0.734375 "/></g><g id="b0ba0e6c0f3f5688424b5917ad2a9a9anw2s3h0t__glyph-3-6"><path d="M 5.265625 -3.765625 C 5.328125 -4 5.34375 -4.046875 5.796875 -4.046875 C 5.9375 -4.046875 6.015625 -4.046875 6.015625 -4.1875 C 6.015625 -4.21875 6 -4.28125 5.921875 -4.28125 C 5.734375 -4.28125 5.28125 -4.25 5.09375 -4.25 C 4.984375 -4.25 4.765625 -4.25 4.65625 -4.265625 C 4.53125 -4.265625 4.390625 -4.28125 4.265625 -4.28125 C 4.234375 -4.28125 4.140625 -4.28125 4.140625 -4.140625 C 4.140625 -4.046875 4.203125 -4.046875 4.328125 -4.046875 C 4.34375 -4.046875 4.46875 -4.046875 4.578125 -4.046875 C 4.703125 -4.03125 4.71875 -4.015625 4.71875 -3.953125 C 4.71875 -3.953125 4.71875 -3.90625 4.6875 -3.8125 L 4.328125 -2.34375 L 2.21875 -2.34375 L 2.59375 -3.796875 C 2.640625 -4 2.65625 -4.046875 3.140625 -4.046875 C 3.25 -4.046875 3.328125 -4.046875 3.328125 -4.1875 C 3.328125 -4.21875 3.3125 -4.28125 3.234375 -4.28125 C 3.046875 -4.28125 2.59375 -4.25 2.40625 -4.25 C 2.296875 -4.25 2.078125 -4.25 1.96875 -4.265625 C 1.84375 -4.265625 1.703125 -4.28125 1.578125 -4.28125 C 1.546875 -4.28125 1.453125 -4.28125 1.453125 -4.140625 C 1.453125 -4.046875 1.515625 -4.046875 1.640625 -4.046875 C 1.65625 -4.046875 1.765625 -4.046875 1.890625 -4.046875 C 2.015625 -4.03125 2.03125 -4.015625 2.03125 -3.953125 C 2.03125 -3.9375 2.03125 -3.90625 2 -3.8125 L 1.171875 -0.484375 C 1.125 -0.28125 1.109375 -0.21875 0.625 -0.21875 C 0.515625 -0.21875 0.4375 -0.21875 0.4375 -0.09375 C 0.4375 -0.03125 0.46875 0 0.53125 0 C 0.71875 0 1.171875 -0.03125 1.34375 -0.03125 C 1.453125 -0.03125 1.671875 -0.03125 1.78125 -0.015625 C 1.90625 -0.015625 2.0625 0 2.1875 0 C 2.21875 0 2.3125 0 2.3125 -0.125 C 2.3125 -0.21875 2.25 -0.21875 2.109375 -0.21875 C 2 -0.21875 1.984375 -0.21875 1.859375 -0.234375 C 1.734375 -0.25 1.734375 -0.265625 1.734375 -0.328125 C 1.734375 -0.34375 1.734375 -0.375 1.75 -0.46875 L 2.171875 -2.109375 L 4.265625 -2.109375 L 3.859375 -0.484375 C 3.8125 -0.28125 3.796875 -0.21875 3.3125 -0.21875 C 3.203125 -0.21875 3.125 -0.21875 3.125 -0.09375 C 3.125 -0.03125 3.171875 0 3.21875 0 C 3.40625 0 3.859375 -0.03125 4.03125 -0.03125 C 4.140625 -0.03125 4.359375 -0.03125 4.46875 -0.015625 C 4.59375 -0.015625 4.75 0 4.875 0 C 4.90625 0 5 0 5 -0.125 C 5 -0.21875 4.9375 -0.21875 4.796875 -0.21875 C 4.6875 -0.21875 4.671875 -0.21875 4.5625 -0.234375 C 4.421875 -0.25 4.421875 -0.265625 4.421875 -0.328125 C 4.421875 -0.375 4.4375 -0.4375 4.4375 -0.46875 Z M 5.265625 -3.765625 "/></g><g id="b0ba0e6c0f3f5688424b5917ad2a9a9anw2s3h0t__glyph-4-0"><path d="M 2.09375 -3.984375 C 2.09375 -4.15625 2.09375 -4.15625 1.90625 -4.15625 C 1.515625 -3.765625 0.9375 -3.765625 0.6875 -3.765625 L 0.6875 -3.53125 C 0.828125 -3.53125 1.25 -3.53125 1.59375 -3.703125 L 1.59375 -0.515625 C 1.59375 -0.3125 1.59375 -0.21875 0.96875 -0.21875 L 0.734375 -0.21875 L 0.734375 0 C 0.84375 0 1.609375 -0.03125 1.84375 -0.03125 C 2.03125 -0.03125 2.828125 0 2.96875 0 L 2.96875 -0.21875 L 2.71875 -0.21875 C 2.09375 -0.21875 2.09375 -0.3125 2.09375 -0.515625 Z M 2.09375 -3.984375 "/></g><g id="b0ba0e6c0f3f5688424b5917ad2a9a9anw2s3h0t__glyph-4-1"><path d="M 4.8125 -2.109375 C 4.90625 -2.109375 5.046875 -2.109375 5.046875 -2.265625 C 5.046875 -2.40625 4.90625 -2.40625 4.8125 -2.40625 L 0.671875 -2.40625 C 0.59375 -2.40625 0.4375 -2.40625 0.4375 -2.265625 C 0.4375 -2.109375 0.578125 -2.109375 0.671875 -2.109375 Z M 4.8125 -0.734375 C 4.90625 -0.734375 5.046875 -0.734375 5.046875 -0.875 C 5.046875 -1.03125 4.90625 -1.03125 4.8125 -1.03125 L 0.671875 -1.03125 C 0.578125 -1.03125 0.4375 -1.03125 0.4375 -0.875 C 0.4375 -0.734375 0.59375 -0.734375 0.671875 -0.734375 Z M 4.8125 -0.734375 "/></g><g id="b0ba0e6c0f3f5688424b5917ad2a9a9anw2s3h0t__glyph-5-0"><path d="M 2.625 -5.734375 C 2.625 -5.9375 2.625 -5.96875 2.421875 -5.96875 C 1.875 -5.390625 1.078125 -5.390625 0.796875 -5.390625 L 0.796875 -5.109375 C 0.96875 -5.109375 1.5 -5.109375 1.96875 -5.34375 L 1.96875 -0.703125 C 1.96875 -0.390625 1.9375 -0.28125 1.140625 -0.28125 L 0.84375 -0.28125 L 0.84375 0 C 1.15625 -0.03125 1.9375 -0.03125 2.296875 -0.03125 C 2.65625 -0.03125 3.4375 -0.03125 3.75 0 L 3.75 -0.28125 L 3.46875 -0.28125 C 2.65625 -0.28125 2.625 -0.375 2.625 -0.703125 Z M 2.625 -5.734375 "/></g><g id="b0ba0e6c0f3f5688424b5917ad2a9a9anw2s3h0t__glyph-6-0"><path d="M 1.78125 -2.859375 C 1.78125 -2.984375 1.765625 -2.984375 1.625 -2.984375 C 1.3125 -2.703125 0.8125 -2.703125 0.71875 -2.703125 L 0.640625 -2.703125 L 0.640625 -2.5 L 0.71875 -2.5 C 0.828125 -2.5 1.109375 -2.515625 1.375 -2.625 L 1.375 -0.390625 C 1.375 -0.25 1.375 -0.203125 0.890625 -0.203125 L 0.671875 -0.203125 L 0.671875 0 C 0.921875 -0.015625 1.3125 -0.015625 1.578125 -0.015625 C 1.84375 -0.015625 2.234375 -0.015625 2.484375 0 L 2.484375 -0.203125 L 2.265625 -0.203125 C 1.78125 -0.203125 1.78125 -0.25 1.78125 -0.390625 Z M 1.78125 -2.859375 "/></g><g id="b0ba0e6c0f3f5688424b5917ad2a9a9anw2s3h0t__glyph-7-0"><path d="M 1.609375 -2.078125 C 1.625 -2.09375 1.65625 -2.171875 1.65625 -2.25 C 1.65625 -2.40625 1.515625 -2.5 1.375 -2.5 C 1.203125 -2.5 1.140625 -2.375 1.125 -2.296875 L 0.4375 -0.359375 C 0.421875 -0.3125 0.421875 -0.296875 0.421875 -0.28125 C 0.421875 -0.21875 0.609375 -0.171875 0.609375 -0.171875 C 0.65625 -0.171875 0.65625 -0.1875 0.6875 -0.25 Z M 1.609375 -2.078125 "/></g><g id="b0ba0e6c0f3f5688424b5917ad2a9a9anw2s3h0t__glyph-8-0"><path d="M 3.171875 -2.328125 C 3.171875 -2.421875 3.171875 -2.5625 3.015625 -2.5625 C 2.859375 -2.5625 2.859375 -2.40625 2.859375 -2.296875 L 2.859375 -0.1875 L 0.734375 -0.1875 C 0.640625 -0.1875 0.484375 -0.1875 0.484375 -0.03125 C 0.484375 0.125 0.625 0.125 0.734375 0.125 L 2.921875 0.125 C 3.140625 0.125 3.171875 0.09375 3.171875 -0.109375 Z M 3.171875 -2.328125 "/></g></g></defs><g fill="rgb(0%, 0%, 0%)" fill-opacity="1"><use xlink:href="#b0ba0e6c0f3f5688424b5917ad2a9a9anw2s3h0t__glyph-0-0" x="10.01637" y="20.952176"/></g><g fill="rgb(0%, 0%, 0%)" fill-opacity="1"><use xlink:href="#b0ba0e6c0f3f5688424b5917ad2a9a9anw2s3h0t__glyph-1-0" x="17.146651" y="17.700429"/></g><g fill="rgb(0%, 0%, 0%)" fill-opacity="1"><use xlink:href="#b0ba0e6c0f3f5688424b5917ad2a9a9anw2s3h0t__glyph-2-0" x="21.651075" y="20.952176"/></g><g fill="rgb(0%, 0%, 0%)" fill-opacity="1"><use xlink:href="#b0ba0e6c0f3f5688424b5917ad2a9a9anw2s3h0t__glyph-0-1" x="30.608312" y="20.952176"/></g><g fill="rgb(0%, 0%, 0%)" fill-opacity="1"><use xlink:href="#b0ba0e6c0f3f5688424b5917ad2a9a9anw2s3h0t__glyph-0-2" x="64.467834" y="51.101871"/></g><g fill="rgb(0%, 0%, 0%)" fill-opacity="1"><use xlink:href="#b0ba0e6c0f3f5688424b5917ad2a9a9anw2s3h0t__glyph-1-1" x="72.643063" y="47.851024"/></g><g fill="rgb(0%, 0%, 0%)" fill-opacity="1"><use xlink:href="#b0ba0e6c0f3f5688424b5917ad2a9a9anw2s3h0t__glyph-0-0" x="76.761701" y="51.101871"/></g><g fill="rgb(0%, 0%, 0%)" fill-opacity="1"><use xlink:href="#b0ba0e6c0f3f5688424b5917ad2a9a9anw2s3h0t__glyph-2-1" x="83.89488" y="51.101871"/></g><g fill="rgb(0%, 0%, 0%)" fill-opacity="1"><use xlink:href="#b0ba0e6c0f3f5688424b5917ad2a9a9anw2s3h0t__glyph-3-0" x="86.380252" y="52.445375"/></g><g fill="rgb(0%, 0%, 0%)" fill-opacity="1"><use xlink:href="#b0ba0e6c0f3f5688424b5917ad2a9a9anw2s3h0t__glyph-1-2" x="92.100934" y="52.445375"/></g><g fill="rgb(0%, 0%, 0%)" fill-opacity="1"><use xlink:href="#b0ba0e6c0f3f5688424b5917ad2a9a9anw2s3h0t__glyph-3-1" x="97.70058" y="52.445375"/></g><g fill="rgb(0%, 0%, 0%)" fill-opacity="1"><use xlink:href="#b0ba0e6c0f3f5688424b5917ad2a9a9anw2s3h0t__glyph-1-2" x="101.35863" y="52.445375"/></g><g fill="rgb(0%, 0%, 0%)" fill-opacity="1"><use xlink:href="#b0ba0e6c0f3f5688424b5917ad2a9a9anw2s3h0t__glyph-4-0" x="106.958276" y="52.445375"/></g><g fill="rgb(0%, 0%, 0%)" fill-opacity="1"><use xlink:href="#b0ba0e6c0f3f5688424b5917ad2a9a9anw2s3h0t__glyph-0-2" x="171.199035" y="51.101871"/></g><g fill="rgb(0%, 0%, 0%)" fill-opacity="1"><use xlink:href="#b0ba0e6c0f3f5688424b5917ad2a9a9anw2s3h0t__glyph-1-1" x="179.374263" y="47.851024"/></g><g fill="rgb(0%, 0%, 0%)" fill-opacity="1"><use xlink:href="#b0ba0e6c0f3f5688424b5917ad2a9a9anw2s3h0t__glyph-0-0" x="183.492902" y="51.101871"/></g><g fill="rgb(0%, 0%, 0%)" fill-opacity="1"><use xlink:href="#b0ba0e6c0f3f5688424b5917ad2a9a9anw2s3h0t__glyph-0-0" x="291.546024" y="51.101871"/></g><g fill="rgb(0%, 0%, 0%)" fill-opacity="1"><use xlink:href="#b0ba0e6c0f3f5688424b5917ad2a9a9anw2s3h0t__glyph-0-3" x="11.215991" y="82.147237"/></g><g fill="rgb(0%, 0%, 0%)" fill-opacity="1"><use xlink:href="#b0ba0e6c0f3f5688424b5917ad2a9a9anw2s3h0t__glyph-2-0" x="20.44827" y="82.147237"/></g><g fill="rgb(0%, 0%, 0%)" fill-opacity="1"><use xlink:href="#b0ba0e6c0f3f5688424b5917ad2a9a9anw2s3h0t__glyph-0-1" x="29.414466" y="82.147237"/></g><g fill="rgb(0%, 0%, 0%)" fill-opacity="1"><use xlink:href="#b0ba0e6c0f3f5688424b5917ad2a9a9anw2s3h0t__glyph-0-3" x="68.590969" y="111.69982"/></g><g fill="rgb(0%, 0%, 0%)" fill-opacity="1"><use xlink:href="#b0ba0e6c0f3f5688424b5917ad2a9a9anw2s3h0t__glyph-2-0" x="77.823249" y="111.69982"/></g><g fill="rgb(0%, 0%, 0%)" fill-opacity="1"><use xlink:href="#b0ba0e6c0f3f5688424b5917ad2a9a9anw2s3h0t__glyph-0-1" x="86.789445" y="111.69982"/></g><g fill="rgb(0%, 0%, 0%)" fill-opacity="1"><use xlink:href="#b0ba0e6c0f3f5688424b5917ad2a9a9anw2s3h0t__glyph-2-0" x="93.415542" y="111.69982"/></g><g fill="rgb(0%, 0%, 0%)" fill-opacity="1"><use xlink:href="#b0ba0e6c0f3f5688424b5917ad2a9a9anw2s3h0t__glyph-5-0" x="102.372779" y="111.69982"/></g><g fill="rgb(0%, 0%, 0%)" fill-opacity="1"><use xlink:href="#b0ba0e6c0f3f5688424b5917ad2a9a9anw2s3h0t__glyph-0-3" x="161.697389" y="111.69982"/></g><g fill="rgb(0%, 0%, 0%)" fill-opacity="1"><use xlink:href="#b0ba0e6c0f3f5688424b5917ad2a9a9anw2s3h0t__glyph-2-0" x="170.929668" y="111.69982"/></g><g fill="rgb(0%, 0%, 0%)" fill-opacity="1"><use xlink:href="#b0ba0e6c0f3f5688424b5917ad2a9a9anw2s3h0t__glyph-0-1" x="179.895864" y="111.69982"/></g><g fill="rgb(0%, 0%, 0%)" fill-opacity="1"><use xlink:href="#b0ba0e6c0f3f5688424b5917ad2a9a9anw2s3h0t__glyph-2-0" x="186.521962" y="111.69982"/></g><g fill="rgb(0%, 0%, 0%)" fill-opacity="1"><use xlink:href="#b0ba0e6c0f3f5688424b5917ad2a9a9anw2s3h0t__glyph-0-1" x="195.479199" y="111.69982"/></g><g fill="rgb(0%, 0%, 0%)" fill-opacity="1"><use xlink:href="#b0ba0e6c0f3f5688424b5917ad2a9a9anw2s3h0t__glyph-0-3" x="250.842541" y="111.69982"/></g><g fill="rgb(0%, 0%, 0%)" fill-opacity="1"><use xlink:href="#b0ba0e6c0f3f5688424b5917ad2a9a9anw2s3h0t__glyph-2-0" x="260.07482" y="111.69982"/></g><g fill="rgb(0%, 0%, 0%)" fill-opacity="1"><use xlink:href="#b0ba0e6c0f3f5688424b5917ad2a9a9anw2s3h0t__glyph-0-1" x="269.041016" y="111.69982"/></g><path fill="none" stroke="rgb(0%, 0%, 0%)" stroke-dasharray="2.78941 1.59395" stroke-linecap="butt" stroke-linejoin="miter" stroke-miterlimit="10" stroke-opacity="1" stroke-width="0.39848" d="M -152.920584 42.451994 L -113.687205 25.076715 " transform="matrix(0.899266, 0, 0, -0.899266, 171.711616, 63.331891)"/><path fill="none" stroke="rgb(0%, 0%, 0%)" stroke-linecap="round" stroke-linejoin="round" stroke-miterlimit="10" stroke-opacity="1" stroke-width="0.39848" d="M -2.069995 2.390438 C -1.691739 0.956893 -0.850217 0.279593 0.000225863 0.000566531 C -0.849213 -0.280565 -1.693897 -0.958665 -2.07207 -2.38986 " transform="matrix(0.822217, 0.364095, 0.364095, -0.822217, 69.640233, 40.851946)"/><g fill="rgb(0%, 0%, 0%)" fill-opacity="1"><use xlink:href="#b0ba0e6c0f3f5688424b5917ad2a9a9anw2s3h0t__glyph-3-2" x="44.92768" y="39.503137"/></g><path fill="none" stroke="rgb(0%, 0%, 0%)" stroke-linecap="butt" stroke-linejoin="miter" stroke-miterlimit="10" stroke-opacity="1" stroke-width="0.39848" d="M -147.260587 47.230196 L 128.376493 17.058024 " transform="matrix(0.899266, 0, 0, -0.899266, 171.711616, 63.331891)"/><path fill="none" stroke="rgb(0%, 0%, 0%)" stroke-linecap="round" stroke-linejoin="round" stroke-miterlimit="10" stroke-opacity="1" stroke-width="0.39848" d="M -2.071892 2.390215 C -1.691907 0.954762 -0.848715 0.277942 -0.0010329 -0.000721688 C -0.849144 -0.277089 -1.692635 -0.954987 -2.073001 -2.390634 " transform="matrix(0.893889, 0.0978402, 0.0978402, -0.893889, 287.333025, 48.011175)"/><g fill="rgb(0%, 0%, 0%)" fill-opacity="1"><use xlink:href="#b0ba0e6c0f3f5688424b5917ad2a9a9anw2s3h0t__glyph-3-3" x="165.50668" y="31.441216"/></g><g fill="rgb(0%, 0%, 0%)" fill-opacity="1"><use xlink:href="#b0ba0e6c0f3f5688424b5917ad2a9a9anw2s3h0t__glyph-1-3" x="168.158187" y="31.441216"/></g><g fill="rgb(0%, 0%, 0%)" fill-opacity="1"><use xlink:href="#b0ba0e6c0f3f5688424b5917ad2a9a9anw2s3h0t__glyph-3-4" x="171.82878" y="31.441216"/></g><g fill="rgb(0%, 0%, 0%)" fill-opacity="1"><use xlink:href="#b0ba0e6c0f3f5688424b5917ad2a9a9anw2s3h0t__glyph-6-0" x="176.018202" y="32.337784"/></g><path fill="none" stroke="rgb(0%, 0%, 0%)" stroke-linecap="butt" stroke-linejoin="miter" stroke-miterlimit="10" stroke-opacity="1" stroke-width="0.39848" d="M -169.101313 42.451994 L -169.101313 -9.873658 " transform="matrix(0.899266, 0, 0, -0.899266, 171.711616, 63.331891)"/><path fill="none" stroke="rgb(0%, 0%, 0%)" stroke-linecap="round" stroke-linejoin="round" stroke-miterlimit="10" stroke-opacity="1" stroke-width="0.39848" d="M -2.074202 2.391982 C -1.691946 0.954178 -0.849245 0.280886 0.00214383 -0.00146264 C -0.849245 -0.279467 -1.691946 -0.957103 -2.074202 -2.390563 " transform="matrix(0, 0.899266, 0.899266, 0, 19.645847, 72.388697)"/><g fill="rgb(0%, 0%, 0%)" fill-opacity="1"><use xlink:href="#b0ba0e6c0f3f5688424b5917ad2a9a9anw2s3h0t__glyph-3-4" x="10.701611" y="51.457981"/></g><g fill="rgb(0%, 0%, 0%)" fill-opacity="1"><use xlink:href="#b0ba0e6c0f3f5688424b5917ad2a9a9anw2s3h0t__glyph-7-0" x="15.116108" y="48.754787"/></g><path fill="none" stroke="rgb(0%, 0%, 0%)" stroke-linecap="butt" stroke-linejoin="miter" stroke-miterlimit="10" stroke-opacity="1" stroke-width="0.39848" d="M -63.046954 16.089352 L -5.456593 16.089352 " transform="matrix(0.899266, 0, 0, -0.899266, 171.711616, 63.331891)"/><path fill="none" stroke="rgb(0%, 0%, 0%)" stroke-linecap="round" stroke-linejoin="round" stroke-miterlimit="10" stroke-opacity="1" stroke-width="0.39848" d="M -2.071259 2.392117 C -1.693347 0.954313 -0.850645 0.281021 0.000743175 -0.00132769 C -0.850645 -0.279332 -1.693347 -0.956968 -2.071259 -2.390429 " transform="matrix(0.899266, 0, 0, -0.899266, 166.983707, 48.862087)"/><path fill="none" stroke="rgb(0%, 0%, 0%)" stroke-linecap="butt" stroke-linejoin="miter" stroke-miterlimit="10" stroke-opacity="1" stroke-width="0.39848" d="M -93.397223 7.262711 L -93.397223 -42.734654 " transform="matrix(0.899266, 0, 0, -0.899266, 171.711616, 63.331891)"/><path fill="none" stroke="rgb(0%, 0%, 0%)" stroke-linecap="round" stroke-linejoin="round" stroke-miterlimit="10" stroke-opacity="1" stroke-width="0.39848" d="M -2.072182 2.389158 C -1.69427 0.955698 -0.851569 0.278062 -0.000180027 0.0000573466 C -0.851569 -0.277947 -1.69427 -0.955583 -2.072182 -2.389043 " transform="matrix(0, 0.899266, 0.899266, 0, 87.722605, 101.941568)"/><g fill="rgb(0%, 0%, 0%)" fill-opacity="1"><use xlink:href="#b0ba0e6c0f3f5688424b5917ad2a9a9anw2s3h0t__glyph-8-0" x="106.804385" y="63.814797"/></g><path fill="none" stroke="rgb(0%, 0%, 0%)" stroke-linecap="butt" stroke-linejoin="miter" stroke-miterlimit="10" stroke-opacity="1" stroke-width="0.39848" d="M 25.519186 16.089352 L 128.372149 16.089352 " transform="matrix(0.899266, 0, 0, -0.899266, 171.711616, 63.331891)"/><path fill="none" stroke="rgb(0%, 0%, 0%)" stroke-linecap="round" stroke-linejoin="round" stroke-miterlimit="10" stroke-opacity="1" stroke-width="0.39848" d="M -2.071917 2.392117 C -1.694005 0.954313 -0.851304 0.281021 0.0000847618 -0.00132769 C -0.851304 -0.279332 -1.694005 -0.956968 -2.071917 -2.390429 " transform="matrix(0.899266, 0, 0, -0.899266, 287.331955, 48.862087)"/><path fill="none" stroke="rgb(0%, 0%, 0%)" stroke-linecap="butt" stroke-linejoin="miter" stroke-miterlimit="10" stroke-opacity="1" stroke-width="0.39848" d="M 137.224854 9.756063 L 137.224854 -42.734654 " transform="matrix(0.899266, 0, 0, -0.899266, 171.711616, 63.331891)"/><path fill="none" stroke="rgb(0%, 0%, 0%)" stroke-linecap="round" stroke-linejoin="round" stroke-miterlimit="10" stroke-opacity="1" stroke-width="0.39848" d="M -2.072182 2.389724 C -1.69427 0.956264 -0.851569 0.278628 -0.000180027 0.000623633 C -0.851569 -0.277381 -1.69427 -0.955017 -2.072182 -2.392821 " transform="matrix(0, 0.899266, 0.899266, 0, 295.11272, 101.941568)"/><g fill="rgb(0%, 0%, 0%)" fill-opacity="1"><use xlink:href="#b0ba0e6c0f3f5688424b5917ad2a9a9anw2s3h0t__glyph-3-4" x="297.218595" y="79.689542"/></g><path fill="none" stroke="rgb(0%, 0%, 0%)" stroke-linecap="butt" stroke-linejoin="miter" stroke-miterlimit="10" stroke-opacity="1" stroke-width="0.39848" d="M -152.590454 -25.598285 L -112.557811 -42.973564 " transform="matrix(0.899266, 0, 0, -0.899266, 171.711616, 63.331891)"/><path fill="none" stroke="rgb(0%, 0%, 0%)" stroke-linecap="round" stroke-linejoin="round" stroke-miterlimit="10" stroke-opacity="1" stroke-width="0.39848" d="M -2.069986 2.391144 C -1.694339 0.958289 -0.849855 0.278252 0.000772193 -0.00132949 C -0.848998 -0.280176 -1.692957 -0.954291 -2.072507 -2.392901 " transform="matrix(0.82487, 0.358016, 0.358016, -0.82487, 70.656089, 102.049408)"/><g fill="rgb(0%, 0%, 0%)" fill-opacity="1"><use xlink:href="#b0ba0e6c0f3f5688424b5917ad2a9a9anw2s3h0t__glyph-1-4" x="44.949262" y="98.752186"/></g><g fill="rgb(0%, 0%, 0%)" fill-opacity="1"><use xlink:href="#b0ba0e6c0f3f5688424b5917ad2a9a9anw2s3h0t__glyph-4-1" x="44.999621" y="100.713485"/></g><path fill="none" stroke="rgb(0%, 0%, 0%)" stroke-linecap="butt" stroke-linejoin="miter" stroke-miterlimit="10" stroke-opacity="1" stroke-width="0.39848" d="M -66.196224 -51.296323 L -16.025106 -51.296323 " transform="matrix(0.899266, 0, 0, -0.899266, 171.711616, 63.331891)"/><path fill="none" stroke="rgb(0%, 0%, 0%)" stroke-linecap="round" stroke-linejoin="miter" stroke-miterlimit="10" stroke-opacity="1" stroke-width="0.39848" d="M -0.0014364 1.950472 C 0.680543 1.950472 1.236552 1.51609 1.236552 0.977457 C 1.236552 0.438823 0.680543 0.0000970767 -0.0014364 0.0000970767 " transform="matrix(-0.899266, 0, 0, -0.899266, 112.182302, 109.461025)"/><path fill="none" stroke="rgb(0%, 0%, 0%)" stroke-linecap="round" stroke-linejoin="round" stroke-miterlimit="10" stroke-opacity="1" stroke-width="0.39848" d="M -2.073442 2.389198 C -1.69553 0.955737 -0.848485 0.278102 -0.00144019 0.0000970767 C -0.848485 -0.277907 -1.69553 -0.955543 -2.073442 -2.389004 " transform="matrix(0.899266, 0, 0, -0.899266, 157.481764, 109.461025)"/><g fill="rgb(0%, 0%, 0%)" fill-opacity="1"><use xlink:href="#b0ba0e6c0f3f5688424b5917ad2a9a9anw2s3h0t__glyph-3-5" x="131.260827" y="115.717741"/></g><g fill="rgb(0%, 0%, 0%)" fill-opacity="1"><use xlink:href="#b0ba0e6c0f3f5688424b5917ad2a9a9anw2s3h0t__glyph-6-0" x="133.795858" y="116.61341"/></g><path fill="none" stroke="rgb(0%, 0%, 0%)" stroke-linecap="butt" stroke-linejoin="miter" stroke-miterlimit="10" stroke-opacity="1" stroke-width="0.39848" d="M 36.083355 -51.296323 L 83.109548 -51.296323 " transform="matrix(0.899266, 0, 0, -0.899266, 171.711616, 63.331891)"/><path fill="none" stroke="rgb(0%, 0%, 0%)" stroke-linecap="round" stroke-linejoin="round" stroke-miterlimit="10" stroke-opacity="1" stroke-width="0.39848" d="M -2.071479 2.389198 C -1.693566 0.955737 -0.850865 0.278102 0.000523336 0.0000970767 C -0.850865 -0.277907 -1.693566 -0.955543 -2.071479 -2.389004 " transform="matrix(0.899266, 0, 0, -0.899266, 246.628436, 109.461025)"/><g fill="rgb(0%, 0%, 0%)" fill-opacity="1"><use xlink:href="#b0ba0e6c0f3f5688424b5917ad2a9a9anw2s3h0t__glyph-3-6" x="222.309725" y="115.85353"/></g></svg>