<?xml version="1.0" encoding="UTF-8"?><svg xmlns="http://www.w3.org/2000/svg" xmlns:xlink="http://www.w3.org/1999/xlink" width="343.711" height="107.366" viewBox="0 0 343.711 107.366"><defs><g><g id="a0d3579c4c58cd8b4cebdefbfcc2ab89l7m19k1u__glyph-0-0"><path d="M 3.6875 -2.5625 C 3.6875 -3.203125 3.640625 -3.84375 3.359375 -4.4375 C 2.984375 -5.203125 2.34375 -5.328125 2 -5.328125 C 1.515625 -5.328125 0.9375 -5.125 0.609375 -4.375 C 0.359375 -3.828125 0.3125 -3.203125 0.3125 -2.5625 C 0.3125 -1.953125 0.34375 -1.234375 0.671875 -0.625 C 1.015625 0.015625 1.59375 0.171875 1.984375 0.171875 C 2.421875 0.171875 3.03125 0.015625 3.390625 -0.75 C 3.640625 -1.296875 3.6875 -1.921875 3.6875 -2.5625 Z M 1.984375 0 C 1.6875 0 1.203125 -0.203125 1.0625 -0.96875 C 0.96875 -1.453125 0.96875 -2.1875 0.96875 -2.65625 C 0.96875 -3.171875 0.96875 -3.703125 1.046875 -4.125 C 1.1875 -5.078125 1.796875 -5.15625 1.984375 -5.15625 C 2.25 -5.15625 2.78125 -5.015625 2.9375 -4.21875 C 3.015625 -3.765625 3.015625 -3.15625 3.015625 -2.65625 C 3.015625 -2.0625 3.015625 -1.515625 2.921875 -1 C 2.8125 -0.234375 2.359375 0 1.984375 0 Z M 1.984375 0 "/></g><g id="a0d3579c4c58cd8b4cebdefbfcc2ab89l7m19k1u__glyph-0-1"><path d="M 2.640625 1.921875 C 2.640625 1.890625 2.640625 1.875 2.515625 1.75 C 1.515625 0.734375 1.25 -0.78125 1.25 -2 C 1.25 -3.390625 1.5625 -4.78125 2.546875 -5.78125 C 2.640625 -5.875 2.640625 -5.890625 2.640625 -5.921875 C 2.640625 -5.96875 2.609375 -6 2.5625 -6 C 2.484375 -6 1.765625 -5.453125 1.296875 -4.4375 C 0.890625 -3.5625 0.796875 -2.671875 0.796875 -2 C 0.796875 -1.375 0.875 -0.40625 1.3125 0.5 C 1.796875 1.484375 2.484375 2 2.5625 2 C 2.609375 2 2.640625 1.96875 2.640625 1.921875 Z M 2.640625 1.921875 "/></g><g id="a0d3579c4c58cd8b4cebdefbfcc2ab89l7m19k1u__glyph-0-2"><path d="M 2.3125 -2 C 2.3125 -2.625 2.21875 -3.59375 1.78125 -4.5 C 1.296875 -5.484375 0.609375 -6 0.53125 -6 C 0.484375 -6 0.453125 -5.96875 0.453125 -5.921875 C 0.453125 -5.890625 0.453125 -5.875 0.609375 -5.734375 C 1.390625 -4.9375 1.84375 -3.671875 1.84375 -2 C 1.84375 -0.625 1.546875 0.78125 0.5625 1.78125 C 0.453125 1.875 0.453125 1.890625 0.453125 1.921875 C 0.453125 1.96875 0.484375 2 0.53125 2 C 0.609375 2 1.34375 1.453125 1.8125 0.4375 C 2.21875 -0.4375 2.3125 -1.328125 2.3125 -2 Z M 2.3125 -2 "/></g><g id="a0d3579c4c58cd8b4cebdefbfcc2ab89l7m19k1u__glyph-1-0"><path d="M 6.109375 -4.84375 C 6.171875 -5.140625 6.1875 -5.21875 6.78125 -5.21875 C 6.984375 -5.21875 7.046875 -5.21875 7.046875 -5.375 C 7.046875 -5.46875 6.953125 -5.46875 6.9375 -5.46875 C 6.71875 -5.46875 6.140625 -5.4375 5.90625 -5.4375 C 5.6875 -5.4375 5.109375 -5.46875 4.875 -5.46875 C 4.8125 -5.46875 4.734375 -5.46875 4.734375 -5.296875 C 4.734375 -5.21875 4.796875 -5.21875 4.953125 -5.21875 C 4.96875 -5.21875 5.125 -5.21875 5.25 -5.203125 C 5.40625 -5.1875 5.46875 -5.171875 5.46875 -5.078125 C 5.46875 -5.046875 5.46875 -5.03125 5.4375 -4.921875 L 4.953125 -2.96875 L 2.515625 -2.96875 L 2.984375 -4.84375 C 3.0625 -5.140625 3.09375 -5.21875 3.65625 -5.21875 C 3.875 -5.21875 3.9375 -5.21875 3.9375 -5.375 C 3.9375 -5.46875 3.84375 -5.46875 3.828125 -5.46875 C 3.59375 -5.46875 3.03125 -5.4375 2.796875 -5.4375 C 2.5625 -5.4375 2 -5.46875 1.765625 -5.46875 C 1.703125 -5.46875 1.609375 -5.46875 1.609375 -5.296875 C 1.609375 -5.21875 1.6875 -5.21875 1.84375 -5.21875 C 1.859375 -5.21875 2.015625 -5.21875 2.140625 -5.203125 C 2.28125 -5.1875 2.359375 -5.171875 2.359375 -5.078125 C 2.359375 -5.046875 2.359375 -5.015625 2.328125 -4.921875 L 1.25 -0.625 C 1.171875 -0.3125 1.15625 -0.25 0.53125 -0.25 C 0.390625 -0.25 0.3125 -0.25 0.3125 -0.09375 C 0.3125 0 0.40625 0 0.421875 0 C 0.640625 0 1.21875 -0.03125 1.4375 -0.03125 C 1.609375 -0.03125 1.78125 -0.015625 1.953125 -0.015625 C 2.125 -0.015625 2.296875 0 2.46875 0 C 2.53125 0 2.625 0 2.625 -0.15625 C 2.625 -0.25 2.5625 -0.25 2.40625 -0.25 C 2.109375 -0.25 1.890625 -0.25 1.890625 -0.390625 C 1.890625 -0.4375 1.90625 -0.484375 1.90625 -0.53125 L 2.453125 -2.71875 L 4.890625 -2.71875 C 4.5625 -1.390625 4.375 -0.625 4.34375 -0.515625 C 4.265625 -0.25 4.109375 -0.25 3.609375 -0.25 C 3.5 -0.25 3.421875 -0.25 3.421875 -0.09375 C 3.421875 0 3.515625 0 3.53125 0 C 3.765625 0 4.328125 -0.03125 4.546875 -0.03125 C 4.71875 -0.03125 4.890625 -0.015625 5.0625 -0.015625 C 5.234375 -0.015625 5.421875 0 5.578125 0 C 5.640625 0 5.75 0 5.75 -0.15625 C 5.75 -0.25 5.671875 -0.25 5.515625 -0.25 C 5.21875 -0.25 5 -0.25 5 -0.390625 C 5 -0.4375 5.015625 -0.484375 5.03125 -0.53125 Z M 6.109375 -4.84375 "/></g><g id="a0d3579c4c58cd8b4cebdefbfcc2ab89l7m19k1u__glyph-1-1"><path d="M 5.15625 -5.5625 C 5.15625 -5.578125 5.140625 -5.640625 5.078125 -5.640625 C 5.03125 -5.640625 5.03125 -5.625 4.921875 -5.515625 L 4.546875 -5.0625 C 4.34375 -5.4375 3.921875 -5.640625 3.40625 -5.640625 C 2.390625 -5.640625 1.421875 -4.71875 1.421875 -3.75 C 1.421875 -3.109375 1.84375 -2.734375 2.25 -2.609375 L 3.109375 -2.390625 C 3.40625 -2.3125 3.84375 -2.203125 3.84375 -1.546875 C 3.84375 -0.828125 3.1875 -0.078125 2.40625 -0.078125 C 1.890625 -0.078125 1.015625 -0.25 1.015625 -1.234375 C 1.015625 -1.4375 1.046875 -1.625 1.0625 -1.671875 C 1.0625 -1.703125 1.078125 -1.71875 1.078125 -1.734375 C 1.078125 -1.8125 1.015625 -1.8125 0.96875 -1.8125 C 0.9375 -1.8125 0.921875 -1.8125 0.890625 -1.78125 C 0.859375 -1.75 0.421875 0.078125 0.421875 0.09375 C 0.421875 0.140625 0.453125 0.171875 0.5 0.171875 C 0.546875 0.171875 0.546875 0.171875 0.640625 0.0625 L 1.046875 -0.40625 C 1.390625 0.0625 1.921875 0.171875 2.390625 0.171875 C 3.484375 0.171875 4.421875 -0.890625 4.421875 -1.875 C 4.421875 -2.4375 4.15625 -2.703125 4.03125 -2.8125 C 3.84375 -3 3.734375 -3.03125 3.015625 -3.21875 C 2.84375 -3.265625 2.546875 -3.34375 2.484375 -3.359375 C 2.265625 -3.4375 1.984375 -3.65625 1.984375 -4.09375 C 1.984375 -4.734375 2.625 -5.421875 3.390625 -5.421875 C 4.0625 -5.421875 4.546875 -5.078125 4.546875 -4.171875 C 4.546875 -3.921875 4.515625 -3.78125 4.515625 -3.734375 C 4.515625 -3.71875 4.515625 -3.640625 4.609375 -3.640625 C 4.6875 -3.640625 4.703125 -3.671875 4.734375 -3.8125 Z M 5.15625 -5.5625 "/></g><g id="a0d3579c4c58cd8b4cebdefbfcc2ab89l7m19k1u__glyph-2-0"><path d="M 2.890625 -1.796875 C 2.890625 -2.40625 2.828125 -2.84375 2.5625 -3.234375 C 2.390625 -3.5 2.046875 -3.71875 1.59375 -3.71875 C 0.296875 -3.71875 0.296875 -2.1875 0.296875 -1.796875 C 0.296875 -1.390625 0.296875 0.109375 1.59375 0.109375 C 2.890625 0.109375 2.890625 -1.390625 2.890625 -1.796875 Z M 1.59375 -0.046875 C 1.328125 -0.046875 1 -0.203125 0.875 -0.65625 C 0.796875 -0.984375 0.796875 -1.453125 0.796875 -1.859375 C 0.796875 -2.265625 0.796875 -2.703125 0.890625 -3 C 1 -3.453125 1.359375 -3.5625 1.59375 -3.5625 C 1.890625 -3.5625 2.1875 -3.375 2.28125 -3.0625 C 2.375 -2.75 2.390625 -2.34375 2.390625 -1.859375 C 2.390625 -1.453125 2.390625 -1.03125 2.3125 -0.671875 C 2.203125 -0.171875 1.8125 -0.046875 1.59375 -0.046875 Z M 1.59375 -0.046875 "/></g><g id="a0d3579c4c58cd8b4cebdefbfcc2ab89l7m19k1u__glyph-2-1"><path d="M 1.875 -3.5625 C 1.875 -3.71875 1.875 -3.71875 1.703125 -3.71875 C 1.359375 -3.375 0.84375 -3.359375 0.609375 -3.359375 L 0.609375 -3.15625 C 0.75 -3.15625 1.109375 -3.15625 1.421875 -3.328125 L 1.421875 -0.453125 C 1.421875 -0.28125 1.421875 -0.203125 0.859375 -0.203125 L 0.65625 -0.203125 L 0.65625 0 C 0.75 0 1.4375 -0.015625 1.65625 -0.015625 C 1.828125 -0.015625 2.53125 0 2.65625 0 L 2.65625 -0.203125 L 2.4375 -0.203125 C 1.875 -0.203125 1.875 -0.28125 1.875 -0.453125 Z M 1.875 -3.5625 "/></g><g id="a0d3579c4c58cd8b4cebdefbfcc2ab89l7m19k1u__glyph-2-2"><path d="M 1.53125 -1.875 C 1.96875 -1.875 2.28125 -1.578125 2.28125 -0.96875 C 2.28125 -0.28125 1.875 -0.0625 1.546875 -0.0625 C 1.328125 -0.0625 0.828125 -0.125 0.59375 -0.453125 C 0.859375 -0.46875 0.921875 -0.65625 0.921875 -0.78125 C 0.921875 -0.953125 0.796875 -1.078125 0.609375 -1.078125 C 0.453125 -1.078125 0.296875 -0.984375 0.296875 -0.75 C 0.296875 -0.234375 0.890625 0.109375 1.5625 0.109375 C 2.34375 0.109375 2.890625 -0.40625 2.890625 -0.96875 C 2.890625 -1.40625 2.53125 -1.84375 1.90625 -1.96875 C 2.5 -2.1875 2.703125 -2.609375 2.703125 -2.953125 C 2.703125 -3.390625 2.203125 -3.71875 1.578125 -3.71875 C 0.953125 -3.71875 0.484375 -3.421875 0.484375 -2.96875 C 0.484375 -2.78125 0.59375 -2.671875 0.765625 -2.671875 C 0.9375 -2.671875 1.046875 -2.796875 1.046875 -2.96875 C 1.046875 -3.125 0.9375 -3.234375 0.765625 -3.25 C 0.96875 -3.5 1.359375 -3.5625 1.5625 -3.5625 C 1.8125 -3.5625 2.171875 -3.4375 2.171875 -2.953125 C 2.171875 -2.71875 2.09375 -2.453125 1.9375 -2.28125 C 1.75 -2.0625 1.59375 -2.0625 1.3125 -2.046875 C 1.171875 -2.03125 1.171875 -2.03125 1.140625 -2.03125 C 1.125 -2.03125 1.078125 -2.015625 1.078125 -1.953125 C 1.078125 -1.875 1.140625 -1.875 1.234375 -1.875 Z M 1.53125 -1.875 "/></g><g id="a0d3579c4c58cd8b4cebdefbfcc2ab89l7m19k1u__glyph-2-3"><path d="M 2.828125 -1.015625 L 2.640625 -1.015625 C 2.625 -0.890625 2.5625 -0.5625 2.5 -0.515625 C 2.453125 -0.484375 2.015625 -0.484375 1.9375 -0.484375 L 0.90625 -0.484375 C 1.5 -1 1.6875 -1.15625 2.03125 -1.421875 C 2.453125 -1.75 2.828125 -2.09375 2.828125 -2.625 C 2.828125 -3.3125 2.234375 -3.71875 1.515625 -3.71875 C 0.828125 -3.71875 0.359375 -3.234375 0.359375 -2.71875 C 0.359375 -2.4375 0.59375 -2.40625 0.65625 -2.40625 C 0.78125 -2.40625 0.953125 -2.5 0.953125 -2.703125 C 0.953125 -2.796875 0.90625 -3 0.609375 -3 C 0.796875 -3.40625 1.171875 -3.515625 1.4375 -3.515625 C 2 -3.515625 2.28125 -3.078125 2.28125 -2.625 C 2.28125 -2.140625 1.9375 -1.75 1.765625 -1.546875 L 0.40625 -0.21875 C 0.359375 -0.171875 0.359375 -0.15625 0.359375 0 L 2.671875 0 Z M 2.828125 -1.015625 "/></g><g id="a0d3579c4c58cd8b4cebdefbfcc2ab89l7m19k1u__glyph-2-4"><path d="M 4.3125 -1.890625 C 4.390625 -1.890625 4.515625 -1.890625 4.515625 -2.03125 C 4.515625 -2.15625 4.390625 -2.15625 4.3125 -2.15625 L 0.59375 -2.15625 C 0.53125 -2.15625 0.390625 -2.15625 0.390625 -2.03125 C 0.390625 -1.890625 0.515625 -1.890625 0.609375 -1.890625 Z M 4.3125 -0.65625 C 4.390625 -0.65625 4.515625 -0.65625 4.515625 -0.78125 C 4.515625 -0.921875 4.390625 -0.921875 4.3125 -0.921875 L 0.609375 -0.921875 C 0.515625 -0.921875 0.390625 -0.921875 0.390625 -0.78125 C 0.390625 -0.65625 0.53125 -0.65625 0.59375 -0.65625 Z M 4.3125 -0.65625 "/></g><g id="a0d3579c4c58cd8b4cebdefbfcc2ab89l7m19k1u__glyph-2-5"><path d="M 1.984375 -4.203125 C 0.921875 -3.453125 0.640625 -2.265625 0.640625 -1.40625 C 0.640625 -0.609375 0.875 0.609375 1.984375 1.390625 C 2.03125 1.390625 2.109375 1.390625 2.109375 1.328125 C 2.109375 1.296875 2.09375 1.28125 2.046875 1.25 C 1.296875 0.578125 1.03125 -0.375 1.03125 -1.40625 C 1.03125 -2.921875 1.609375 -3.65625 2.0625 -4.078125 C 2.09375 -4.09375 2.109375 -4.109375 2.109375 -4.140625 C 2.109375 -4.203125 2.03125 -4.203125 1.984375 -4.203125 Z M 1.984375 -4.203125 "/></g><g id="a0d3579c4c58cd8b4cebdefbfcc2ab89l7m19k1u__glyph-2-6"><path d="M 0.5 -4.203125 C 0.46875 -4.203125 0.390625 -4.203125 0.390625 -4.140625 C 0.390625 -4.109375 0.421875 -4.09375 0.453125 -4.0625 C 0.9375 -3.609375 1.46875 -2.859375 1.46875 -1.40625 C 1.46875 -0.234375 1.109375 0.65625 0.5 1.203125 C 0.40625 1.296875 0.390625 1.296875 0.390625 1.328125 C 0.390625 1.359375 0.421875 1.390625 0.46875 1.390625 C 0.53125 1.390625 1.078125 1.03125 1.4375 0.328125 C 1.6875 -0.140625 1.84375 -0.75 1.84375 -1.40625 C 1.84375 -2.1875 1.609375 -3.421875 0.5 -4.203125 Z M 0.5 -4.203125 "/></g><g id="a0d3579c4c58cd8b4cebdefbfcc2ab89l7m19k1u__glyph-3-0"><path d="M 5.25 -5.375 C 5.25 -5.5 5.25 -5.625 5.125 -5.625 C 5.109375 -5.625 4.984375 -5.625 4.96875 -5.484375 C 4.953125 -5.265625 4.765625 -5.265625 4.71875 -5.265625 C 4.4375 -5.265625 4.15625 -5.390625 3.984375 -5.453125 C 3.578125 -5.625 3.234375 -5.625 3.109375 -5.625 C 1.78125 -5.625 0.296875 -4.796875 0.296875 -2.75 C 0.296875 -0.703125 1.75 0.15625 3.125 0.15625 C 3.546875 0.15625 4.125 0.0625 4.703125 -0.28125 C 5.078125 -0.515625 5.484375 -0.921875 5.484375 -1.03125 C 5.484375 -1.140625 5.359375 -1.1875 5.3125 -1.1875 C 5.25 -1.1875 5.21875 -1.171875 5.140625 -1.078125 C 4.6875 -0.546875 3.96875 -0.234375 3.25 -0.234375 C 2.015625 -0.234375 1.703125 -1.484375 1.703125 -2.734375 C 1.703125 -4.296875 2.28125 -5.359375 3.140625 -5.359375 C 3.734375 -5.359375 4.703125 -4.765625 4.96875 -3.921875 C 4.984375 -3.84375 5.015625 -3.765625 5.125 -3.765625 C 5.25 -3.765625 5.25 -3.890625 5.25 -4.03125 Z M 4.96875 -4.546875 C 4.875 -4.6875 4.78125 -4.78125 4.578125 -4.984375 C 4.609375 -4.984375 4.6875 -4.984375 4.71875 -4.984375 C 4.8125 -4.984375 4.90625 -5 4.96875 -5.046875 Z M 2.140625 -5.171875 C 1.953125 -4.984375 1.421875 -4.296875 1.421875 -2.734375 C 1.421875 -1.9375 1.546875 -0.828125 2.265625 -0.25 C 0.953125 -0.6875 0.578125 -1.765625 0.578125 -2.734375 C 0.578125 -4.203125 1.390625 -4.921875 2.140625 -5.171875 Z M 2.140625 -5.171875 "/></g><g id="a0d3579c4c58cd8b4cebdefbfcc2ab89l7m19k1u__glyph-3-1"><path d="M 2.09375 -2.46875 C 2.125 -2.46875 2.296875 -2.46875 2.3125 -2.453125 L 2.578125 -2.453125 C 4.203125 -2.453125 4.796875 -3.21875 4.796875 -3.96875 C 4.796875 -5.109375 3.765625 -5.484375 2.734375 -5.484375 L 0.40625 -5.484375 C 0.25 -5.484375 0.125 -5.484375 0.125 -5.328125 C 0.125 -5.203125 0.28125 -5.203125 0.34375 -5.203125 C 0.765625 -5.203125 0.796875 -5.140625 0.796875 -4.75 L 0.796875 -0.734375 C 0.796875 -0.34375 0.765625 -0.28125 0.359375 -0.28125 C 0.265625 -0.28125 0.125 -0.28125 0.125 -0.140625 C 0.125 0 0.25 0 0.40625 0 L 2.546875 0 C 2.6875 0 2.8125 0 2.8125 -0.140625 C 2.8125 -0.28125 2.671875 -0.28125 2.578125 -0.28125 C 2.125 -0.28125 2.09375 -0.34375 2.09375 -0.734375 Z M 3.421875 -2.828125 C 3.671875 -3.15625 3.703125 -3.65625 3.703125 -3.984375 C 3.703125 -4.40625 3.65625 -4.828125 3.453125 -5.125 C 3.890625 -5.03125 4.515625 -4.78125 4.515625 -3.96875 C 4.515625 -3.421875 4.15625 -3.015625 3.421875 -2.828125 Z M 2.09375 -4.765625 C 2.09375 -4.921875 2.09375 -5.203125 2.578125 -5.203125 C 3.15625 -5.203125 3.421875 -4.984375 3.421875 -3.984375 C 3.421875 -2.84375 2.984375 -2.75 2.5 -2.75 L 2.09375 -2.75 Z M 1.015625 -0.28125 C 1.078125 -0.421875 1.078125 -0.609375 1.078125 -0.71875 L 1.078125 -4.765625 C 1.078125 -4.859375 1.078125 -5.0625 1.015625 -5.203125 L 1.921875 -5.203125 C 1.8125 -5.078125 1.8125 -4.90625 1.8125 -4.796875 L 1.8125 -0.71875 C 1.8125 -0.640625 1.8125 -0.421875 1.875 -0.28125 Z M 1.015625 -0.28125 "/></g><g id="a0d3579c4c58cd8b4cebdefbfcc2ab89l7m19k1u__glyph-4-0"><path d="M 1.53125 -2 C 1.53125 -2.234375 1.34375 -2.421875 1.109375 -2.421875 C 0.875 -2.421875 0.6875 -2.234375 0.6875 -2 C 0.6875 -1.765625 0.875 -1.578125 1.109375 -1.578125 C 1.34375 -1.578125 1.53125 -1.765625 1.53125 -2 Z M 1.53125 -2 "/></g><g id="a0d3579c4c58cd8b4cebdefbfcc2ab89l7m19k1u__glyph-5-0"><path d="M 4.578125 -1.921875 C 4.578125 -2.140625 4.5 -2.140625 4.46875 -2.140625 C 4.390625 -2.140625 4.375 -1.984375 4.375 -1.921875 C 4.359375 -1.515625 4.0625 -1.03125 3.53125 -1.03125 C 3.140625 -1.03125 2.84375 -1.296875 2.546875 -1.578125 C 2.25 -1.84375 1.90625 -2.15625 1.46875 -2.15625 C 0.828125 -2.15625 0.4375 -1.5 0.4375 -0.875 C 0.4375 -0.65625 0.515625 -0.65625 0.53125 -0.65625 C 0.609375 -0.65625 0.609375 -0.796875 0.625 -0.890625 C 0.640625 -1.296875 0.9375 -1.765625 1.46875 -1.765625 C 1.875 -1.765625 2.15625 -1.5 2.46875 -1.21875 C 2.765625 -0.953125 3.09375 -0.65625 3.53125 -0.65625 C 4.171875 -0.65625 4.578125 -1.3125 4.578125 -1.921875 Z M 4.578125 -1.921875 "/></g><g id="a0d3579c4c58cd8b4cebdefbfcc2ab89l7m19k1u__glyph-5-1"><path d="M 4.171875 -1.265625 C 4.265625 -1.265625 4.390625 -1.265625 4.390625 -1.40625 C 4.390625 -1.546875 4.265625 -1.546875 4.171875 -1.546875 L 0.828125 -1.546875 C 0.734375 -1.546875 0.609375 -1.546875 0.609375 -1.40625 C 0.609375 -1.265625 0.734375 -1.265625 0.828125 -1.265625 Z M 4.171875 -1.265625 "/></g><g id="a0d3579c4c58cd8b4cebdefbfcc2ab89l7m19k1u__glyph-5-2"><path d="M 3.875 -3.15625 C 3.875 -3.234375 3.875 -3.375 3.75 -3.375 C 3.609375 -3.375 3.609375 -3.234375 3.609375 -3.15625 L 3.609375 -1.140625 C 3.609375 -1 3.609375 -0.65625 3.140625 -0.390625 C 2.796875 -0.203125 2.390625 -0.15625 2.15625 -0.15625 C 1.65625 -0.15625 1.3125 -0.3125 1.171875 -0.390625 C 0.765625 -0.625 0.703125 -0.875 0.703125 -1.140625 L 0.703125 -3.15625 C 0.703125 -3.234375 0.703125 -3.375 0.578125 -3.375 C 0.4375 -3.375 0.4375 -3.234375 0.4375 -3.15625 L 0.4375 -1.125 C 0.4375 -0.203125 1.4375 0.109375 2.15625 0.109375 C 2.875 0.109375 3.875 -0.1875 3.875 -1.140625 Z M 3.875 -3.15625 "/></g><g id="a0d3579c4c58cd8b4cebdefbfcc2ab89l7m19k1u__glyph-6-0"><path d="M 1.25 -1.28125 C 1.40625 -1.28125 1.859375 -1.296875 2.15625 -1.390625 C 2.578125 -1.546875 2.65625 -1.8125 2.65625 -1.984375 C 2.65625 -2.28125 2.34375 -2.46875 1.953125 -2.46875 C 1.28125 -2.46875 0.375 -1.953125 0.375 -1 C 0.375 -0.4375 0.734375 0.0625 1.390625 0.0625 C 2.328125 0.0625 2.78125 -0.5 2.78125 -0.578125 C 2.78125 -0.609375 2.71875 -0.671875 2.6875 -0.671875 C 2.640625 -0.671875 2.640625 -0.65625 2.59375 -0.609375 C 2.15625 -0.09375 1.5 -0.09375 1.390625 -0.09375 C 1.0625 -0.09375 0.828125 -0.328125 0.828125 -0.78125 C 0.828125 -0.859375 0.828125 -0.96875 0.90625 -1.28125 Z M 0.953125 -1.4375 C 1.171875 -2.25 1.796875 -2.3125 1.953125 -2.3125 C 2.203125 -2.3125 2.40625 -2.1875 2.40625 -1.984375 C 2.40625 -1.4375 1.46875 -1.4375 1.21875 -1.4375 Z M 0.953125 -1.4375 "/></g><g id="a0d3579c4c58cd8b4cebdefbfcc2ab89l7m19k1u__glyph-6-1"><path d="M 4.4375 -1.296875 C 4.46875 -1.375 4.46875 -1.390625 4.46875 -1.390625 C 4.46875 -1.4375 4.453125 -1.46875 4.375 -1.46875 C 4.375 -1.46875 4.34375 -1.46875 4.3125 -1.453125 C 4.3125 -1.4375 4.296875 -1.4375 4.234375 -1.296875 C 3.875 -0.484375 3.578125 -0.203125 2.671875 -0.203125 L 1.71875 -0.203125 C 1.546875 -0.203125 1.53125 -0.203125 1.53125 -0.265625 C 1.53125 -0.265625 1.53125 -0.296875 1.5625 -0.375 L 1.9375 -1.875 L 2.5625 -1.875 C 3 -1.875 3.078125 -1.8125 3.078125 -1.625 C 3.078125 -1.5625 3.0625 -1.46875 3.03125 -1.375 C 3.015625 -1.3125 3.015625 -1.3125 3.015625 -1.296875 C 3.015625 -1.296875 3.015625 -1.21875 3.109375 -1.21875 C 3.1875 -1.21875 3.203125 -1.25 3.21875 -1.34375 L 3.53125 -2.578125 C 3.546875 -2.640625 3.546875 -2.65625 3.546875 -2.65625 C 3.546875 -2.71875 3.5 -2.734375 3.453125 -2.734375 C 3.375 -2.734375 3.375 -2.703125 3.34375 -2.59375 C 3.21875 -2.15625 3.046875 -2.078125 2.578125 -2.078125 L 1.984375 -2.078125 L 2.328125 -3.421875 C 2.359375 -3.59375 2.375 -3.609375 2.609375 -3.609375 L 3.515625 -3.609375 C 4.25 -3.609375 4.4375 -3.453125 4.4375 -2.953125 C 4.4375 -2.8125 4.421875 -2.640625 4.421875 -2.609375 C 4.421875 -2.5625 4.4375 -2.515625 4.515625 -2.515625 C 4.59375 -2.515625 4.609375 -2.5625 4.609375 -2.671875 L 4.71875 -3.640625 C 4.734375 -3.8125 4.6875 -3.8125 4.5625 -3.8125 L 1.46875 -3.8125 C 1.359375 -3.8125 1.296875 -3.8125 1.296875 -3.6875 C 1.296875 -3.609375 1.359375 -3.609375 1.46875 -3.609375 C 1.5625 -3.609375 1.59375 -3.609375 1.6875 -3.59375 C 1.796875 -3.578125 1.8125 -3.578125 1.8125 -3.515625 C 1.8125 -3.484375 1.796875 -3.421875 1.796875 -3.390625 L 1.046875 -0.453125 C 1 -0.234375 1 -0.203125 0.5625 -0.203125 C 0.453125 -0.203125 0.390625 -0.203125 0.390625 -0.078125 C 0.390625 0 0.453125 0 0.5625 0 L 3.71875 0 C 3.859375 0 3.875 0 3.921875 -0.09375 Z M 4.4375 -1.296875 "/></g><g id="a0d3579c4c58cd8b4cebdefbfcc2ab89l7m19k1u__glyph-7-0"><path d="M 1.078125 -1.25 L 1.21875 -1.25 L 1.8125 -0.328125 C 1.859375 -0.265625 1.953125 -0.109375 2 -0.046875 C 2.03125 0 2.03125 0 2.125 0 L 2.6875 0 C 2.75 0 2.8125 0 2.8125 -0.078125 C 2.8125 -0.109375 2.78125 -0.125 2.75 -0.140625 C 2.609375 -0.171875 2.40625 -0.4375 2.3125 -0.5625 C 2.28125 -0.609375 2.078125 -0.875 1.8125 -1.296875 C 2.171875 -1.359375 2.515625 -1.515625 2.515625 -1.984375 C 2.515625 -2.546875 1.921875 -2.734375 1.453125 -2.734375 L 0.203125 -2.734375 C 0.125 -2.734375 0.0625 -2.734375 0.0625 -2.671875 C 0.0625 -2.59375 0.140625 -2.59375 0.171875 -2.59375 C 0.40625 -2.59375 0.421875 -2.578125 0.421875 -2.375 L 0.421875 -0.375 C 0.421875 -0.171875 0.40625 -0.140625 0.171875 -0.140625 C 0.140625 -0.140625 0.0625 -0.140625 0.0625 -0.078125 C 0.0625 0 0.125 0 0.203125 0 L 1.296875 0 C 1.375 0 1.421875 0 1.421875 -0.078125 C 1.421875 -0.140625 1.359375 -0.140625 1.3125 -0.140625 C 1.09375 -0.140625 1.078125 -0.171875 1.078125 -0.375 Z M 1.84375 -1.453125 C 1.953125 -1.59375 1.96875 -1.8125 1.96875 -1.984375 C 1.96875 -2.1875 1.9375 -2.390625 1.8125 -2.5625 C 1.984375 -2.515625 2.375 -2.390625 2.375 -1.984375 C 2.375 -1.734375 2.25 -1.53125 1.84375 -1.453125 Z M 1.078125 -2.390625 C 1.078125 -2.46875 1.078125 -2.59375 1.3125 -2.59375 C 1.65625 -2.59375 1.828125 -2.453125 1.828125 -1.984375 C 1.828125 -1.46875 1.703125 -1.390625 1.078125 -1.390625 Z M 0.53125 -0.140625 C 0.5625 -0.21875 0.5625 -0.328125 0.5625 -0.359375 L 0.5625 -2.375 C 0.5625 -2.421875 0.5625 -2.53125 0.53125 -2.59375 L 0.984375 -2.59375 C 0.9375 -2.53125 0.9375 -2.453125 0.9375 -2.390625 L 0.9375 -0.359375 C 0.9375 -0.3125 0.9375 -0.21875 0.96875 -0.140625 Z M 1.375 -1.25 C 1.40625 -1.265625 1.421875 -1.265625 1.453125 -1.265625 C 1.515625 -1.265625 1.609375 -1.265625 1.65625 -1.28125 C 1.71875 -1.1875 2.15625 -0.46875 2.484375 -0.140625 L 2.09375 -0.140625 Z M 1.375 -1.25 "/></g></g></defs><g fill="rgb(0%, 0%, 0%)" fill-opacity="1"><use xlink:href="#a0d3579c4c58cd8b4cebdefbfcc2ab89l7m19k1u__glyph-0-0" x="9.648429" y="20.406723"/></g><g fill="rgb(0%, 0%, 0%)" fill-opacity="1"><use xlink:href="#a0d3579c4c58cd8b4cebdefbfcc2ab89l7m19k1u__glyph-1-0" x="39.756947" y="20.406723"/></g><g fill="rgb(0%, 0%, 0%)" fill-opacity="1"><use xlink:href="#a0d3579c4c58cd8b4cebdefbfcc2ab89l7m19k1u__glyph-2-0" x="47.061704" y="17.501212"/></g><g fill="rgb(0%, 0%, 0%)" fill-opacity="1"><use xlink:href="#a0d3579c4c58cd8b4cebdefbfcc2ab89l7m19k1u__glyph-0-1" x="50.652613" y="20.406723"/></g><g fill="rgb(0%, 0%, 0%)" fill-opacity="1"><use xlink:href="#a0d3579c4c58cd8b4cebdefbfcc2ab89l7m19k1u__glyph-3-0" x="53.765797" y="20.406723"/><use xlink:href="#a0d3579c4c58cd8b4cebdefbfcc2ab89l7m19k1u__glyph-3-1" x="59.547081" y="20.406723"/></g><g fill="rgb(0%, 0%, 0%)" fill-opacity="1"><use xlink:href="#a0d3579c4c58cd8b4cebdefbfcc2ab89l7m19k1u__glyph-2-1" x="64.439327" y="17.501212"/></g><g fill="rgb(0%, 0%, 0%)" fill-opacity="1"><use xlink:href="#a0d3579c4c58cd8b4cebdefbfcc2ab89l7m19k1u__glyph-0-2" x="68.030237" y="20.406723"/></g><g fill="rgb(0%, 0%, 0%)" fill-opacity="1"><use xlink:href="#a0d3579c4c58cd8b4cebdefbfcc2ab89l7m19k1u__glyph-1-0" x="99.900864" y="20.406723"/></g><g fill="rgb(0%, 0%, 0%)" fill-opacity="1"><use xlink:href="#a0d3579c4c58cd8b4cebdefbfcc2ab89l7m19k1u__glyph-2-0" x="107.205621" y="17.501212"/></g><g fill="rgb(0%, 0%, 0%)" fill-opacity="1"><use xlink:href="#a0d3579c4c58cd8b4cebdefbfcc2ab89l7m19k1u__glyph-0-1" x="110.796531" y="20.406723"/></g><g fill="rgb(0%, 0%, 0%)" fill-opacity="1"><use xlink:href="#a0d3579c4c58cd8b4cebdefbfcc2ab89l7m19k1u__glyph-1-1" x="113.909714" y="20.406723"/></g><g fill="rgb(0%, 0%, 0%)" fill-opacity="1"><use xlink:href="#a0d3579c4c58cd8b4cebdefbfcc2ab89l7m19k1u__glyph-2-2" x="119.280044" y="17.501212"/></g><g fill="rgb(0%, 0%, 0%)" fill-opacity="1"><use xlink:href="#a0d3579c4c58cd8b4cebdefbfcc2ab89l7m19k1u__glyph-0-2" x="122.870954" y="20.406723"/></g><g fill="rgb(0%, 0%, 0%)" fill-opacity="1"><use xlink:href="#a0d3579c4c58cd8b4cebdefbfcc2ab89l7m19k1u__glyph-0-0" x="220.622597" y="20.406723"/></g><g fill="rgb(0%, 0%, 0%)" fill-opacity="1"><use xlink:href="#a0d3579c4c58cd8b4cebdefbfcc2ab89l7m19k1u__glyph-1-0" x="286.086589" y="20.406723"/></g><g fill="rgb(0%, 0%, 0%)" fill-opacity="1"><use xlink:href="#a0d3579c4c58cd8b4cebdefbfcc2ab89l7m19k1u__glyph-2-1" x="293.391346" y="17.501212"/></g><g fill="rgb(0%, 0%, 0%)" fill-opacity="1"><use xlink:href="#a0d3579c4c58cd8b4cebdefbfcc2ab89l7m19k1u__glyph-0-1" x="296.982255" y="20.406723"/></g><g fill="rgb(0%, 0%, 0%)" fill-opacity="1"><use xlink:href="#a0d3579c4c58cd8b4cebdefbfcc2ab89l7m19k1u__glyph-3-0" x="300.095439" y="20.406723"/><use xlink:href="#a0d3579c4c58cd8b4cebdefbfcc2ab89l7m19k1u__glyph-3-1" x="305.876722" y="20.406723"/></g><g fill="rgb(0%, 0%, 0%)" fill-opacity="1"><use xlink:href="#a0d3579c4c58cd8b4cebdefbfcc2ab89l7m19k1u__glyph-2-1" x="310.768969" y="17.501212"/></g><g fill="rgb(0%, 0%, 0%)" fill-opacity="1"><use xlink:href="#a0d3579c4c58cd8b4cebdefbfcc2ab89l7m19k1u__glyph-0-2" x="314.360682" y="20.406723"/></g><g fill="rgb(0%, 0%, 0%)" fill-opacity="1"><use xlink:href="#a0d3579c4c58cd8b4cebdefbfcc2ab89l7m19k1u__glyph-1-0" x="42.408547" y="49.192655"/></g><g fill="rgb(0%, 0%, 0%)" fill-opacity="1"><use xlink:href="#a0d3579c4c58cd8b4cebdefbfcc2ab89l7m19k1u__glyph-2-1" x="49.713304" y="46.287144"/></g><g fill="rgb(0%, 0%, 0%)" fill-opacity="1"><use xlink:href="#a0d3579c4c58cd8b4cebdefbfcc2ab89l7m19k1u__glyph-0-1" x="53.304214" y="49.192655"/></g><g fill="rgb(0%, 0%, 0%)" fill-opacity="1"><use xlink:href="#a0d3579c4c58cd8b4cebdefbfcc2ab89l7m19k1u__glyph-1-1" x="56.417397" y="49.192655"/></g><g fill="rgb(0%, 0%, 0%)" fill-opacity="1"><use xlink:href="#a0d3579c4c58cd8b4cebdefbfcc2ab89l7m19k1u__glyph-2-2" x="61.787727" y="46.287144"/></g><g fill="rgb(0%, 0%, 0%)" fill-opacity="1"><use xlink:href="#a0d3579c4c58cd8b4cebdefbfcc2ab89l7m19k1u__glyph-0-2" x="65.378637" y="49.192655"/></g><g fill="rgb(0%, 0%, 0%)" fill-opacity="1"><use xlink:href="#a0d3579c4c58cd8b4cebdefbfcc2ab89l7m19k1u__glyph-1-0" x="97.249264" y="49.192655"/></g><g fill="rgb(0%, 0%, 0%)" fill-opacity="1"><use xlink:href="#a0d3579c4c58cd8b4cebdefbfcc2ab89l7m19k1u__glyph-2-0" x="104.554021" y="46.287144"/></g><g fill="rgb(0%, 0%, 0%)" fill-opacity="1"><use xlink:href="#a0d3579c4c58cd8b4cebdefbfcc2ab89l7m19k1u__glyph-0-1" x="108.144931" y="49.192655"/></g><g fill="rgb(0%, 0%, 0%)" fill-opacity="1"><use xlink:href="#a0d3579c4c58cd8b4cebdefbfcc2ab89l7m19k1u__glyph-3-0" x="111.258114" y="49.192655"/><use xlink:href="#a0d3579c4c58cd8b4cebdefbfcc2ab89l7m19k1u__glyph-3-1" x="117.039398" y="49.192655"/></g><g fill="rgb(0%, 0%, 0%)" fill-opacity="1"><use xlink:href="#a0d3579c4c58cd8b4cebdefbfcc2ab89l7m19k1u__glyph-2-1" x="121.931645" y="46.287144"/></g><g fill="rgb(0%, 0%, 0%)" fill-opacity="1"><use xlink:href="#a0d3579c4c58cd8b4cebdefbfcc2ab89l7m19k1u__glyph-0-2" x="125.522554" y="49.192655"/></g><g fill="rgb(0%, 0%, 0%)" fill-opacity="1"><use xlink:href="#a0d3579c4c58cd8b4cebdefbfcc2ab89l7m19k1u__glyph-1-0" x="206.930698" y="49.192655"/></g><g fill="rgb(0%, 0%, 0%)" fill-opacity="1"><use xlink:href="#a0d3579c4c58cd8b4cebdefbfcc2ab89l7m19k1u__glyph-2-3" x="214.235455" y="46.287144"/></g><g fill="rgb(0%, 0%, 0%)" fill-opacity="1"><use xlink:href="#a0d3579c4c58cd8b4cebdefbfcc2ab89l7m19k1u__glyph-0-1" x="217.826364" y="49.192655"/></g><g fill="rgb(0%, 0%, 0%)" fill-opacity="1"><use xlink:href="#a0d3579c4c58cd8b4cebdefbfcc2ab89l7m19k1u__glyph-3-0" x="220.939548" y="49.192655"/><use xlink:href="#a0d3579c4c58cd8b4cebdefbfcc2ab89l7m19k1u__glyph-3-1" x="226.720832" y="49.192655"/></g><g fill="rgb(0%, 0%, 0%)" fill-opacity="1"><use xlink:href="#a0d3579c4c58cd8b4cebdefbfcc2ab89l7m19k1u__glyph-2-1" x="231.613078" y="46.287144"/></g><g fill="rgb(0%, 0%, 0%)" fill-opacity="1"><use xlink:href="#a0d3579c4c58cd8b4cebdefbfcc2ab89l7m19k1u__glyph-0-2" x="235.203988" y="49.192655"/></g><g fill="rgb(0%, 0%, 0%)" fill-opacity="1"><use xlink:href="#a0d3579c4c58cd8b4cebdefbfcc2ab89l7m19k1u__glyph-1-0" x="288.738189" y="49.192655"/></g><g fill="rgb(0%, 0%, 0%)" fill-opacity="1"><use xlink:href="#a0d3579c4c58cd8b4cebdefbfcc2ab89l7m19k1u__glyph-2-3" x="296.042946" y="46.287144"/></g><g fill="rgb(0%, 0%, 0%)" fill-opacity="1"><use xlink:href="#a0d3579c4c58cd8b4cebdefbfcc2ab89l7m19k1u__glyph-0-1" x="299.634659" y="49.192655"/></g><g fill="rgb(0%, 0%, 0%)" fill-opacity="1"><use xlink:href="#a0d3579c4c58cd8b4cebdefbfcc2ab89l7m19k1u__glyph-1-1" x="302.747843" y="49.192655"/></g><g fill="rgb(0%, 0%, 0%)" fill-opacity="1"><use xlink:href="#a0d3579c4c58cd8b4cebdefbfcc2ab89l7m19k1u__glyph-2-2" x="308.117369" y="46.287144"/></g><g fill="rgb(0%, 0%, 0%)" fill-opacity="1"><use xlink:href="#a0d3579c4c58cd8b4cebdefbfcc2ab89l7m19k1u__glyph-0-2" x="311.709082" y="49.192655"/></g><g fill="rgb(0%, 0%, 0%)" fill-opacity="1"><use xlink:href="#a0d3579c4c58cd8b4cebdefbfcc2ab89l7m19k1u__glyph-1-0" x="39.756947" y="77.978588"/></g><g fill="rgb(0%, 0%, 0%)" fill-opacity="1"><use xlink:href="#a0d3579c4c58cd8b4cebdefbfcc2ab89l7m19k1u__glyph-2-1" x="47.061704" y="75.07388"/></g><g fill="rgb(0%, 0%, 0%)" fill-opacity="1"><use xlink:href="#a0d3579c4c58cd8b4cebdefbfcc2ab89l7m19k1u__glyph-0-1" x="50.652613" y="77.978588"/></g><g fill="rgb(0%, 0%, 0%)" fill-opacity="1"><use xlink:href="#a0d3579c4c58cd8b4cebdefbfcc2ab89l7m19k1u__glyph-3-0" x="53.765797" y="77.978588"/><use xlink:href="#a0d3579c4c58cd8b4cebdefbfcc2ab89l7m19k1u__glyph-3-1" x="59.547081" y="77.978588"/></g><g fill="rgb(0%, 0%, 0%)" fill-opacity="1"><use xlink:href="#a0d3579c4c58cd8b4cebdefbfcc2ab89l7m19k1u__glyph-2-1" x="64.439327" y="75.07388"/></g><g fill="rgb(0%, 0%, 0%)" fill-opacity="1"><use xlink:href="#a0d3579c4c58cd8b4cebdefbfcc2ab89l7m19k1u__glyph-0-2" x="68.030237" y="77.978588"/></g><g fill="rgb(0%, 0%, 0%)" fill-opacity="1"><use xlink:href="#a0d3579c4c58cd8b4cebdefbfcc2ab89l7m19k1u__glyph-0-0" x="110.941163" y="77.978588"/></g><g fill="rgb(0%, 0%, 0%)" fill-opacity="1"><use xlink:href="#a0d3579c4c58cd8b4cebdefbfcc2ab89l7m19k1u__glyph-1-0" x="154.741581" y="77.978588"/></g><g fill="rgb(0%, 0%, 0%)" fill-opacity="1"><use xlink:href="#a0d3579c4c58cd8b4cebdefbfcc2ab89l7m19k1u__glyph-2-2" x="162.046338" y="75.07388"/></g><g fill="rgb(0%, 0%, 0%)" fill-opacity="1"><use xlink:href="#a0d3579c4c58cd8b4cebdefbfcc2ab89l7m19k1u__glyph-0-1" x="165.637248" y="77.978588"/></g><g fill="rgb(0%, 0%, 0%)" fill-opacity="1"><use xlink:href="#a0d3579c4c58cd8b4cebdefbfcc2ab89l7m19k1u__glyph-1-1" x="168.750431" y="77.978588"/></g><g fill="rgb(0%, 0%, 0%)" fill-opacity="1"><use xlink:href="#a0d3579c4c58cd8b4cebdefbfcc2ab89l7m19k1u__glyph-2-2" x="174.120761" y="75.07388"/></g><g fill="rgb(0%, 0%, 0%)" fill-opacity="1"><use xlink:href="#a0d3579c4c58cd8b4cebdefbfcc2ab89l7m19k1u__glyph-0-2" x="177.711671" y="77.978588"/></g><g fill="rgb(0%, 0%, 0%)" fill-opacity="1"><use xlink:href="#a0d3579c4c58cd8b4cebdefbfcc2ab89l7m19k1u__glyph-1-0" x="206.930698" y="77.978588"/></g><g fill="rgb(0%, 0%, 0%)" fill-opacity="1"><use xlink:href="#a0d3579c4c58cd8b4cebdefbfcc2ab89l7m19k1u__glyph-2-3" x="214.235455" y="75.07388"/></g><g fill="rgb(0%, 0%, 0%)" fill-opacity="1"><use xlink:href="#a0d3579c4c58cd8b4cebdefbfcc2ab89l7m19k1u__glyph-0-1" x="217.826364" y="77.978588"/></g><g fill="rgb(0%, 0%, 0%)" fill-opacity="1"><use xlink:href="#a0d3579c4c58cd8b4cebdefbfcc2ab89l7m19k1u__glyph-3-0" x="220.939548" y="77.978588"/><use xlink:href="#a0d3579c4c58cd8b4cebdefbfcc2ab89l7m19k1u__glyph-3-1" x="226.720832" y="77.978588"/></g><g fill="rgb(0%, 0%, 0%)" fill-opacity="1"><use xlink:href="#a0d3579c4c58cd8b4cebdefbfcc2ab89l7m19k1u__glyph-2-1" x="231.613078" y="75.07388"/></g><g fill="rgb(0%, 0%, 0%)" fill-opacity="1"><use xlink:href="#a0d3579c4c58cd8b4cebdefbfcc2ab89l7m19k1u__glyph-0-2" x="235.203988" y="77.978588"/></g><g fill="rgb(0%, 0%, 0%)" fill-opacity="1"><use xlink:href="#a0d3579c4c58cd8b4cebdefbfcc2ab89l7m19k1u__glyph-0-0" x="299.779292" y="77.978588"/></g><g fill="rgb(0%, 0%, 0%)" fill-opacity="1"><use xlink:href="#a0d3579c4c58cd8b4cebdefbfcc2ab89l7m19k1u__glyph-4-0" x="50.780372" y="103.805977"/></g><g fill="rgb(0%, 0%, 0%)" fill-opacity="1"><use xlink:href="#a0d3579c4c58cd8b4cebdefbfcc2ab89l7m19k1u__glyph-4-0" x="54.341041" y="103.805977"/></g><g fill="rgb(0%, 0%, 0%)" fill-opacity="1"><use xlink:href="#a0d3579c4c58cd8b4cebdefbfcc2ab89l7m19k1u__glyph-4-0" x="57.893705" y="103.805977"/></g><path fill="none" stroke="rgb(0%, 0%, 0%)" stroke-linecap="butt" stroke-linejoin="miter" stroke-miterlimit="10" stroke-opacity="1" stroke-width="0.39848" d="M -192.238882 50.331651 L -169.127543 50.331651 " transform="matrix(0.803515, 0, 0, -0.803515, 171.724679, 58.848498)"/><path fill="none" stroke="rgb(0%, 0%, 0%)" stroke-linecap="round" stroke-linejoin="round" stroke-miterlimit="10" stroke-opacity="1" stroke-width="0.39848" d="M -2.070902 2.390115 C -1.691708 0.955987 -0.850677 0.280245 0.0000765973 -0.00171874 C -0.850677 -0.278821 -1.691708 -0.954563 -2.070902 -2.388691 " transform="matrix(0.803515, 0, 0, -0.803515, 35.98822, 18.404869)"/><path fill="none" stroke="rgb(0%, 0%, 0%)" stroke-linecap="butt" stroke-linejoin="miter" stroke-miterlimit="10" stroke-opacity="1" stroke-width="0.39848" d="M -120.688043 50.331651 L -94.275779 50.331651 " transform="matrix(0.803515, 0, 0, -0.803515, 171.724679, 58.848498)"/><path fill="none" stroke="rgb(0%, 0%, 0%)" stroke-linecap="round" stroke-linejoin="round" stroke-miterlimit="10" stroke-opacity="1" stroke-width="0.39848" d="M -2.071358 2.390115 C -1.692164 0.955987 -0.851133 0.280245 -0.000379343 -0.00171874 C -0.851133 -0.278821 -1.692164 -0.954563 -2.071358 -2.388691 " transform="matrix(0.803515, 0, 0, -0.803515, 96.133117, 18.404869)"/><g fill="rgb(0%, 0%, 0%)" fill-opacity="1"><use xlink:href="#a0d3579c4c58cd8b4cebdefbfcc2ab89l7m19k1u__glyph-5-0" x="83.020617" y="14.770063"/></g><g fill="rgb(0%, 0%, 0%)" fill-opacity="1"><use xlink:href="#a0d3579c4c58cd8b4cebdefbfcc2ab89l7m19k1u__glyph-2-4" x="83.06481" y="16.521727"/></g><path fill="none" stroke="rgb(0%, 0%, 0%)" stroke-linecap="butt" stroke-linejoin="miter" stroke-miterlimit="10" stroke-opacity="1" stroke-width="0.39848" d="M -52.43813 50.331651 L 55.96737 50.331651 " transform="matrix(0.803515, 0, 0, -0.803515, 171.724679, 58.848498)"/><path fill="none" stroke="rgb(0%, 0%, 0%)" stroke-linecap="round" stroke-linejoin="round" stroke-miterlimit="10" stroke-opacity="1" stroke-width="0.39848" d="M -2.072208 2.390115 C -1.693015 0.955987 -0.851984 0.280245 -0.00123014 -0.00171874 C -0.851984 -0.278821 -1.693015 -0.954563 -2.072208 -2.388691 " transform="matrix(0.803515, 0, 0, -0.803515, 216.856457, 18.404869)"/><path fill="none" stroke="rgb(0%, 0%, 0%)" stroke-linecap="butt" stroke-linejoin="miter" stroke-miterlimit="10" stroke-opacity="1" stroke-width="0.39848" d="M 70.328097 50.331651 L 137.440431 50.331651 " transform="matrix(0.803515, 0, 0, -0.803515, 171.724679, 58.848498)"/><path fill="none" stroke="rgb(0%, 0%, 0%)" stroke-linecap="round" stroke-linejoin="round" stroke-miterlimit="10" stroke-opacity="1" stroke-width="0.39848" d="M -2.072338 2.390115 C -1.693145 0.955987 -0.852114 0.280245 -0.00135955 -0.00171874 C -0.852114 -0.278821 -1.693145 -0.954563 -2.072338 -2.388691 " transform="matrix(0.803515, 0, 0, -0.803515, 282.321405, 18.404869)"/><path fill="none" stroke="rgb(0%, 0%, 0%)" stroke-linecap="butt" stroke-linejoin="miter" stroke-miterlimit="10" stroke-opacity="1" stroke-width="0.39848" d="M 137.83907 47.531455 L -123.595191 16.96265 " transform="matrix(0.803515, 0, 0, -0.803515, 171.724679, 58.848498)"/><path fill="none" stroke="rgb(0%, 0%, 0%)" stroke-linecap="round" stroke-linejoin="round" stroke-miterlimit="10" stroke-opacity="1" stroke-width="0.39848" d="M -2.072081 2.388783 C -1.691563 0.954168 -0.850348 0.278242 -0.00204071 -0.00203138 C -0.851923 -0.279585 -1.694411 -0.954484 -2.072524 -2.388523 " transform="matrix(-0.798035, 0.0932881, 0.0932881, 0.798035, 72.256373, 45.236186)"/><path fill="none" stroke="rgb(0%, 0%, 0%)" stroke-linecap="butt" stroke-linejoin="miter" stroke-miterlimit="10" stroke-opacity="1" stroke-width="0.39848" d="M -123.988969 14.507617 L -97.576704 14.507617 " transform="matrix(0.803515, 0, 0, -0.803515, 171.724679, 58.848498)"/><path fill="none" stroke="rgb(0%, 0%, 0%)" stroke-linecap="round" stroke-linejoin="round" stroke-miterlimit="10" stroke-opacity="1" stroke-width="0.39848" d="M -2.072093 2.391711 C -1.6929 0.957583 -0.851869 0.27698 -0.0011147 -0.000122601 C -0.851869 -0.277225 -1.6929 -0.957828 -2.072093 -2.391957 " transform="matrix(0.803515, 0, 0, -0.803515, 93.481364, 47.191308)"/><path fill="none" stroke="rgb(0%, 0%, 0%)" stroke-linecap="butt" stroke-linejoin="miter" stroke-miterlimit="10" stroke-opacity="1" stroke-width="0.39848" d="M -49.137204 14.507617 L 38.927984 14.507617 " transform="matrix(0.803515, 0, 0, -0.803515, 171.724679, 58.848498)"/><path fill="none" stroke="rgb(0%, 0%, 0%)" stroke-linecap="round" stroke-linejoin="round" stroke-miterlimit="10" stroke-opacity="1" stroke-width="0.39848" d="M -2.071105 2.391711 C -1.691912 0.957583 -0.850881 0.27698 -0.000126582 -0.000122601 C -0.850881 -0.277225 -1.691912 -0.957828 -2.071105 -2.391957 " transform="matrix(0.803515, 0, 0, -0.803515, 203.164164, 47.191308)"/><g fill="rgb(0%, 0%, 0%)" fill-opacity="1"><use xlink:href="#a0d3579c4c58cd8b4cebdefbfcc2ab89l7m19k1u__glyph-5-1" x="155.109591" y="43.907132"/><use xlink:href="#a0d3579c4c58cd8b4cebdefbfcc2ab89l7m19k1u__glyph-5-2" x="160.113005" y="43.907132"/></g><g fill="rgb(0%, 0%, 0%)" fill-opacity="1"><use xlink:href="#a0d3579c4c58cd8b4cebdefbfcc2ab89l7m19k1u__glyph-6-0" x="164.426621" y="43.907132"/></g><g fill="rgb(0%, 0%, 0%)" fill-opacity="1"><use xlink:href="#a0d3579c4c58cd8b4cebdefbfcc2ab89l7m19k1u__glyph-2-5" x="167.463748" y="43.907132"/></g><g fill="rgb(0%, 0%, 0%)" fill-opacity="1"><use xlink:href="#a0d3579c4c58cd8b4cebdefbfcc2ab89l7m19k1u__glyph-6-1" x="169.965174" y="43.907132"/></g><g fill="rgb(0%, 0%, 0%)" fill-opacity="1"><use xlink:href="#a0d3579c4c58cd8b4cebdefbfcc2ab89l7m19k1u__glyph-7-0" x="174.664741" y="44.733949"/></g><g fill="rgb(0%, 0%, 0%)" fill-opacity="1"><use xlink:href="#a0d3579c4c58cd8b4cebdefbfcc2ab89l7m19k1u__glyph-2-6" x="177.955939" y="43.907132"/></g><path fill="none" stroke="rgb(0%, 0%, 0%)" stroke-linecap="butt" stroke-linejoin="miter" stroke-miterlimit="10" stroke-opacity="1" stroke-width="0.39848" d="M 87.367484 14.507617 L 140.741356 14.507617 " transform="matrix(0.803515, 0, 0, -0.803515, 171.724679, 58.848498)"/><path fill="none" stroke="rgb(0%, 0%, 0%)" stroke-linecap="round" stroke-linejoin="round" stroke-miterlimit="10" stroke-opacity="1" stroke-width="0.39848" d="M -2.071582 2.391711 C -1.692389 0.957583 -0.851358 0.27698 -0.000604191 -0.000122601 C -0.851358 -0.277225 -1.692389 -0.957828 -2.071582 -2.391957 " transform="matrix(0.803515, 0, 0, -0.803515, 284.973142, 47.191308)"/><path fill="none" stroke="rgb(0%, 0%, 0%)" stroke-linecap="butt" stroke-linejoin="miter" stroke-miterlimit="10" stroke-opacity="1" stroke-width="0.39848" d="M 141.139995 12.086615 L -120.294266 -18.477329 " transform="matrix(0.803515, 0, 0, -0.803515, 171.724679, 58.848498)"/><path fill="none" stroke="rgb(0%, 0%, 0%)" stroke-linecap="round" stroke-linejoin="round" stroke-miterlimit="10" stroke-opacity="1" stroke-width="0.39848" d="M -2.072463 2.391939 C -1.691944 0.957325 -0.850729 0.281399 0.00240664 0.000560632 C -0.847476 -0.276993 -1.695357 -0.956156 -2.07347 -2.390196 " transform="matrix(-0.798035, 0.0932881, 0.0932881, 0.798035, 74.908118, 73.714172)"/><path fill="none" stroke="rgb(0%, 0%, 0%)" stroke-linecap="butt" stroke-linejoin="miter" stroke-miterlimit="10" stroke-opacity="1" stroke-width="0.39848" d="M -120.688043 -21.316416 L -80.537318 -21.316416 " transform="matrix(0.803515, 0, 0, -0.803515, 171.724679, 58.848498)"/><path fill="none" stroke="rgb(0%, 0%, 0%)" stroke-linecap="round" stroke-linejoin="round" stroke-miterlimit="10" stroke-opacity="1" stroke-width="0.39848" d="M -2.073226 2.393288 C -1.694033 0.954298 -0.848141 0.278556 -0.00224826 0.00145354 C -0.848141 -0.280511 -1.694033 -0.956252 -2.073226 -2.39038 " transform="matrix(0.803515, 0, 0, -0.803515, 107.173682, 75.97773)"/><path fill="none" stroke="rgb(0%, 0%, 0%)" stroke-linecap="butt" stroke-linejoin="miter" stroke-miterlimit="10" stroke-opacity="1" stroke-width="0.39848" d="M -66.176591 -21.316416 L -26.025866 -21.316416 " transform="matrix(0.803515, 0, 0, -0.803515, 171.724679, 58.848498)"/><path fill="none" stroke="rgb(0%, 0%, 0%)" stroke-linecap="round" stroke-linejoin="round" stroke-miterlimit="10" stroke-opacity="1" stroke-width="0.39848" d="M -2.073294 2.393288 C -1.694101 0.954298 -0.848209 0.278556 -0.00231601 0.00145354 C -0.848209 -0.280511 -1.694101 -0.956252 -2.073294 -2.39038 " transform="matrix(0.803515, 0, 0, -0.803515, 150.974517, 75.97773)"/><path fill="none" stroke="rgb(0%, 0%, 0%)" stroke-linecap="butt" stroke-linejoin="miter" stroke-miterlimit="10" stroke-opacity="1" stroke-width="0.39848" d="M 15.816645 -21.316416 L 38.927984 -21.316416 " transform="matrix(0.803515, 0, 0, -0.803515, 171.724679, 58.848498)"/><path fill="none" stroke="rgb(0%, 0%, 0%)" stroke-linecap="round" stroke-linejoin="round" stroke-miterlimit="10" stroke-opacity="1" stroke-width="0.39848" d="M -2.071105 2.393288 C -1.691912 0.954298 -0.850881 0.278556 -0.000126582 0.00145354 C -0.850881 -0.280511 -1.691912 -0.956252 -2.071105 -2.39038 " transform="matrix(0.803515, 0, 0, -0.803515, 203.164164, 75.97773)"/><path fill="none" stroke="rgb(0%, 0%, 0%)" stroke-linecap="butt" stroke-linejoin="miter" stroke-miterlimit="10" stroke-opacity="1" stroke-width="0.39848" d="M 87.367484 -21.316416 L 154.484679 -21.316416 " transform="matrix(0.803515, 0, 0, -0.803515, 171.724679, 58.848498)"/><path fill="none" stroke="rgb(0%, 0%, 0%)" stroke-linecap="round" stroke-linejoin="round" stroke-miterlimit="10" stroke-opacity="1" stroke-width="0.39848" d="M -2.073451 2.393288 C -1.694258 0.954298 -0.848366 0.278556 0.00238834 0.00145354 C -0.848366 -0.280511 -1.694258 -0.956252 -2.073451 -2.39038 " transform="matrix(0.803515, 0, 0, -0.803515, 296.013706, 75.97773)"/><path fill="none" stroke="rgb(0%, 0%, 0%)" stroke-linecap="butt" stroke-linejoin="miter" stroke-miterlimit="10" stroke-opacity="1" stroke-width="0.39848" d="M 154.878456 -22.050496 L -134.013281 -52.347059 " transform="matrix(0.803515, 0, 0, -0.803515, 171.724679, 58.848498)"/><path fill="none" stroke="rgb(0%, 0%, 0%)" stroke-linecap="round" stroke-linejoin="round" stroke-miterlimit="10" stroke-opacity="1" stroke-width="0.39848" d="M -2.07387 2.393219 C -1.691843 0.955125 -0.848521 0.280111 0.00202132 0.000286033 C -0.848296 -0.277172 -1.691834 -0.956177 -2.072191 -2.392543 " transform="matrix(-0.799112, 0.0837906, 0.0837906, 0.799112, 63.884404, 100.925383)"/></svg>