<?xml version="1.0" encoding="UTF-8"?><svg xmlns="http://www.w3.org/2000/svg" xmlns:xlink="http://www.w3.org/1999/xlink" width="289.086" height="72.265" viewBox="0 0 289.086 72.265"><defs><g><g id="eac91873c2cb3bec8a3d7f3fc8617815y742i4by__glyph-0-0"><path d="M 7.515625 -5.96875 C 7.609375 -6.328125 7.625 -6.421875 8.34375 -6.421875 C 8.609375 -6.421875 8.6875 -6.421875 8.6875 -6.625 C 8.6875 -6.734375 8.578125 -6.734375 8.546875 -6.734375 C 8.265625 -6.734375 7.5625 -6.703125 7.28125 -6.703125 C 7 -6.703125 6.296875 -6.734375 6.015625 -6.734375 C 5.9375 -6.734375 5.828125 -6.734375 5.828125 -6.53125 C 5.828125 -6.421875 5.921875 -6.421875 6.109375 -6.421875 C 6.125 -6.421875 6.3125 -6.421875 6.484375 -6.40625 C 6.65625 -6.390625 6.75 -6.375 6.75 -6.25 C 6.75 -6.21875 6.734375 -6.1875 6.703125 -6.0625 L 6.109375 -3.65625 L 3.109375 -3.65625 L 3.6875 -5.96875 C 3.78125 -6.328125 3.8125 -6.421875 4.515625 -6.421875 C 4.765625 -6.421875 4.84375 -6.421875 4.84375 -6.625 C 4.84375 -6.734375 4.75 -6.734375 4.71875 -6.734375 C 4.4375 -6.734375 3.734375 -6.703125 3.453125 -6.703125 C 3.171875 -6.703125 2.46875 -6.734375 2.171875 -6.734375 C 2.09375 -6.734375 1.984375 -6.734375 1.984375 -6.53125 C 1.984375 -6.421875 2.078125 -6.421875 2.265625 -6.421875 C 2.28125 -6.421875 2.46875 -6.421875 2.640625 -6.40625 C 2.8125 -6.390625 2.90625 -6.375 2.90625 -6.25 C 2.90625 -6.21875 2.90625 -6.1875 2.875 -6.0625 L 1.546875 -0.765625 C 1.453125 -0.390625 1.421875 -0.3125 0.65625 -0.3125 C 0.46875 -0.3125 0.390625 -0.3125 0.390625 -0.109375 C 0.390625 0 0.5 0 0.515625 0 C 0.796875 0 1.5 -0.03125 1.78125 -0.03125 C 1.984375 -0.03125 2.203125 -0.015625 2.40625 -0.015625 C 2.625 -0.015625 2.84375 0 3.046875 0 C 3.125 0 3.25 0 3.25 -0.203125 C 3.25 -0.3125 3.15625 -0.3125 2.96875 -0.3125 C 2.609375 -0.3125 2.328125 -0.3125 2.328125 -0.484375 C 2.328125 -0.546875 2.34375 -0.59375 2.359375 -0.65625 L 3.03125 -3.359375 L 6.03125 -3.359375 C 5.625 -1.71875 5.390625 -0.78125 5.359375 -0.625 C 5.25 -0.3125 5.0625 -0.3125 4.453125 -0.3125 C 4.3125 -0.3125 4.21875 -0.3125 4.21875 -0.109375 C 4.21875 0 4.34375 0 4.359375 0 C 4.640625 0 5.328125 -0.03125 5.609375 -0.03125 C 5.8125 -0.03125 6.03125 -0.015625 6.234375 -0.015625 C 6.453125 -0.015625 6.671875 0 6.875 0 C 6.953125 0 7.078125 0 7.078125 -0.203125 C 7.078125 -0.3125 6.984375 -0.3125 6.796875 -0.3125 C 6.4375 -0.3125 6.15625 -0.3125 6.15625 -0.484375 C 6.15625 -0.546875 6.1875 -0.59375 6.1875 -0.65625 Z M 7.515625 -5.96875 "/></g><g id="eac91873c2cb3bec8a3d7f3fc8617815y742i4by__glyph-0-1"><path d="M 1.765625 -1.140625 C 1.375 -0.46875 0.984375 -0.328125 0.546875 -0.3125 C 0.4375 -0.296875 0.34375 -0.296875 0.34375 -0.109375 C 0.34375 -0.046875 0.390625 0 0.46875 0 C 0.734375 0 1.046875 -0.03125 1.328125 -0.03125 C 1.640625 -0.03125 1.984375 0 2.3125 0 C 2.359375 0 2.5 0 2.5 -0.1875 C 2.5 -0.296875 2.40625 -0.3125 2.34375 -0.3125 C 2.109375 -0.328125 1.875 -0.40625 1.875 -0.65625 C 1.875 -0.765625 1.9375 -0.875 2.015625 -1.015625 L 2.765625 -2.28125 L 5.234375 -2.28125 C 5.25 -2.078125 5.390625 -0.734375 5.390625 -0.625 C 5.390625 -0.328125 4.875 -0.3125 4.6875 -0.3125 C 4.546875 -0.3125 4.453125 -0.3125 4.453125 -0.109375 C 4.453125 0 4.5625 0 4.578125 0 C 4.984375 0 5.40625 -0.03125 5.8125 -0.03125 C 6.0625 -0.03125 6.6875 0 6.9375 0 C 6.984375 0 7.109375 0 7.109375 -0.203125 C 7.109375 -0.3125 7.015625 -0.3125 6.875 -0.3125 C 6.265625 -0.3125 6.265625 -0.375 6.234375 -0.65625 L 5.640625 -6.828125 C 5.625 -7.015625 5.625 -7.0625 5.453125 -7.0625 C 5.296875 -7.0625 5.25 -6.984375 5.203125 -6.890625 Z M 2.953125 -2.578125 L 4.890625 -5.84375 L 5.203125 -2.578125 Z M 2.953125 -2.578125 "/></g><g id="eac91873c2cb3bec8a3d7f3fc8617815y742i4by__glyph-0-2"><path d="M 7.5 -6.859375 C 7.5 -6.875 7.46875 -6.953125 7.390625 -6.953125 C 7.359375 -6.953125 7.34375 -6.9375 7.234375 -6.828125 L 6.546875 -6.078125 C 6.453125 -6.21875 6 -6.953125 4.90625 -6.953125 C 2.71875 -6.953125 0.5 -4.765625 0.5 -2.484375 C 0.5 -0.921875 1.59375 0.21875 3.1875 0.21875 C 3.625 0.21875 4.0625 0.125 4.421875 -0.015625 C 4.90625 -0.21875 5.09375 -0.421875 5.28125 -0.625 C 5.359375 -0.375 5.625 -0.015625 5.71875 -0.015625 C 5.765625 -0.015625 5.78125 -0.046875 5.78125 -0.046875 C 5.8125 -0.0625 5.90625 -0.4375 5.953125 -0.65625 L 6.140625 -1.40625 C 6.1875 -1.578125 6.234375 -1.75 6.265625 -1.90625 C 6.375 -2.359375 6.390625 -2.375 6.953125 -2.390625 C 7 -2.390625 7.109375 -2.390625 7.109375 -2.578125 C 7.109375 -2.65625 7.0625 -2.6875 6.984375 -2.6875 C 6.75 -2.6875 6.171875 -2.65625 5.9375 -2.65625 C 5.640625 -2.65625 4.875 -2.6875 4.5625 -2.6875 C 4.46875 -2.6875 4.359375 -2.6875 4.359375 -2.5 C 4.359375 -2.390625 4.4375 -2.390625 4.65625 -2.390625 C 4.65625 -2.390625 4.953125 -2.390625 5.171875 -2.359375 C 5.4375 -2.34375 5.484375 -2.3125 5.484375 -2.171875 C 5.484375 -2.09375 5.375 -1.640625 5.28125 -1.28125 C 5 -0.203125 3.71875 -0.09375 3.375 -0.09375 C 2.421875 -0.09375 1.390625 -0.65625 1.390625 -2.15625 C 1.390625 -2.46875 1.484375 -4.09375 2.53125 -5.375 C 3.0625 -6.046875 4.015625 -6.640625 4.984375 -6.640625 C 6 -6.640625 6.578125 -5.890625 6.578125 -4.75 C 6.578125 -4.34375 6.546875 -4.34375 6.546875 -4.234375 C 6.546875 -4.140625 6.65625 -4.140625 6.6875 -4.140625 C 6.828125 -4.140625 6.828125 -4.15625 6.875 -4.34375 Z M 7.5 -6.859375 "/></g><g id="eac91873c2cb3bec8a3d7f3fc8617815y742i4by__glyph-0-3"><path d="M 4.78125 -4.046875 L 3.953125 -6.015625 C 3.921875 -6.09375 3.90625 -6.125 3.90625 -6.140625 C 3.90625 -6.203125 4.078125 -6.390625 4.484375 -6.421875 C 4.578125 -6.4375 4.6875 -6.453125 4.6875 -6.609375 C 4.6875 -6.734375 4.5625 -6.734375 4.53125 -6.734375 C 4.125 -6.734375 3.703125 -6.703125 3.296875 -6.703125 C 3.046875 -6.703125 2.4375 -6.734375 2.1875 -6.734375 C 2.125 -6.734375 2.015625 -6.734375 2.015625 -6.53125 C 2.015625 -6.421875 2.109375 -6.421875 2.234375 -6.421875 C 2.828125 -6.421875 2.890625 -6.328125 2.984375 -6.109375 L 4.140625 -3.359375 L 2.0625 -1.125 L 1.9375 -1.015625 C 1.453125 -0.5 0.984375 -0.328125 0.484375 -0.3125 C 0.359375 -0.296875 0.265625 -0.296875 0.265625 -0.109375 C 0.265625 -0.09375 0.265625 0 0.390625 0 C 0.6875 0 1.015625 -0.03125 1.328125 -0.03125 C 1.6875 -0.03125 2.078125 0 2.421875 0 C 2.484375 0 2.609375 0 2.609375 -0.203125 C 2.609375 -0.296875 2.5 -0.3125 2.484375 -0.3125 C 2.390625 -0.3125 2.09375 -0.328125 2.09375 -0.609375 C 2.09375 -0.765625 2.234375 -0.921875 2.359375 -1.0625 L 3.359375 -2.125 L 4.25 -3.09375 L 5.25 -0.734375 C 5.28125 -0.625 5.296875 -0.609375 5.296875 -0.59375 C 5.296875 -0.515625 5.109375 -0.34375 4.71875 -0.3125 C 4.609375 -0.296875 4.53125 -0.28125 4.53125 -0.125 C 4.53125 0 4.640625 0 4.671875 0 C 4.953125 0 5.640625 -0.03125 5.921875 -0.03125 C 6.15625 -0.03125 6.765625 0 7.015625 0 C 7.078125 0 7.203125 0 7.203125 -0.1875 C 7.203125 -0.3125 7.09375 -0.3125 7.015625 -0.3125 C 6.359375 -0.3125 6.34375 -0.34375 6.171875 -0.734375 C 5.78125 -1.65625 5.125 -3.1875 4.90625 -3.78125 C 5.578125 -4.46875 6.609375 -5.65625 6.921875 -5.921875 C 7.203125 -6.15625 7.578125 -6.40625 8.171875 -6.421875 C 8.296875 -6.4375 8.390625 -6.4375 8.390625 -6.625 C 8.390625 -6.640625 8.390625 -6.734375 8.265625 -6.734375 C 7.96875 -6.734375 7.640625 -6.703125 7.328125 -6.703125 C 6.96875 -6.703125 6.59375 -6.734375 6.234375 -6.734375 C 6.1875 -6.734375 6.046875 -6.734375 6.046875 -6.53125 C 6.046875 -6.46875 6.109375 -6.4375 6.171875 -6.421875 C 6.265625 -6.421875 6.5625 -6.40625 6.5625 -6.125 C 6.5625 -5.984375 6.453125 -5.859375 6.375 -5.765625 Z M 4.78125 -4.046875 "/></g><g id="eac91873c2cb3bec8a3d7f3fc8617815y742i4by__glyph-0-4"><path d="M 2 -0.015625 C 2 -0.65625 1.75 -1.046875 1.375 -1.046875 C 1.046875 -1.046875 0.84375 -0.796875 0.84375 -0.515625 C 0.84375 -0.25 1.046875 0 1.375 0 C 1.484375 0 1.609375 -0.046875 1.71875 -0.125 C 1.75 -0.140625 1.75 -0.15625 1.765625 -0.15625 C 1.78125 -0.15625 1.78125 -0.140625 1.78125 -0.015625 C 1.78125 0.71875 1.4375 1.3125 1.109375 1.640625 C 1 1.75 1 1.765625 1 1.796875 C 1 1.859375 1.0625 1.90625 1.109375 1.90625 C 1.21875 1.90625 2 1.140625 2 -0.015625 Z M 2 -0.015625 "/></g><g id="eac91873c2cb3bec8a3d7f3fc8617815y742i4by__glyph-1-0"><path d="M 0.84375 -0.4375 C 0.8125 -0.34375 0.78125 -0.171875 0.78125 -0.15625 C 0.78125 0 0.890625 0.0625 1.015625 0.0625 C 1.125 0.0625 1.25 -0.015625 1.28125 -0.078125 C 1.3125 -0.140625 1.375 -0.359375 1.40625 -0.515625 C 1.4375 -0.640625 1.515625 -0.953125 1.546875 -1.125 C 1.59375 -1.28125 1.640625 -1.4375 1.671875 -1.59375 C 1.75 -1.875 1.765625 -1.9375 1.96875 -2.21875 C 2.15625 -2.5 2.484375 -2.859375 3 -2.859375 C 3.390625 -2.859375 3.40625 -2.5 3.40625 -2.375 C 3.40625 -1.953125 3.109375 -1.1875 3 -0.890625 C 2.921875 -0.703125 2.890625 -0.640625 2.890625 -0.53125 C 2.890625 -0.15625 3.203125 0.0625 3.546875 0.0625 C 4.234375 0.0625 4.546875 -0.890625 4.546875 -0.984375 C 4.546875 -1.078125 4.453125 -1.078125 4.4375 -1.078125 C 4.34375 -1.078125 4.328125 -1.03125 4.296875 -0.953125 C 4.140625 -0.40625 3.84375 -0.125 3.578125 -0.125 C 3.421875 -0.125 3.390625 -0.21875 3.390625 -0.359375 C 3.390625 -0.53125 3.4375 -0.609375 3.5625 -0.921875 C 3.640625 -1.140625 3.921875 -1.875 3.921875 -2.265625 C 3.921875 -2.921875 3.390625 -3.046875 3.03125 -3.046875 C 2.453125 -3.046875 2.0625 -2.6875 1.859375 -2.421875 C 1.8125 -2.890625 1.40625 -3.046875 1.125 -3.046875 C 0.828125 -3.046875 0.65625 -2.828125 0.578125 -2.671875 C 0.421875 -2.421875 0.328125 -2.03125 0.328125 -1.984375 C 0.328125 -1.90625 0.421875 -1.90625 0.4375 -1.90625 C 0.53125 -1.90625 0.546875 -1.921875 0.59375 -2.109375 C 0.703125 -2.515625 0.828125 -2.859375 1.09375 -2.859375 C 1.28125 -2.859375 1.328125 -2.703125 1.328125 -2.515625 C 1.328125 -2.375 1.265625 -2.125 1.21875 -1.9375 C 1.171875 -1.75 1.09375 -1.46875 1.0625 -1.3125 Z M 0.84375 -0.4375 "/></g><g id="eac91873c2cb3bec8a3d7f3fc8617815y742i4by__glyph-1-1"><path d="M 2.03125 -3 C 1 -2.734375 0.421875 -1.84375 0.421875 -1.125 C 0.421875 -0.390625 0.984375 0.078125 1.671875 0.078125 C 2.5 0.078125 3.15625 -0.890625 3.15625 -1.90625 C 3.15625 -2.578125 2.796875 -2.96875 2.578125 -3.203125 C 2.328125 -3.5 1.796875 -4.0625 1.796875 -4.375 C 1.796875 -4.46875 1.90625 -4.671875 2.1875 -4.671875 C 2.421875 -4.671875 2.609375 -4.5625 2.765625 -4.46875 C 2.828125 -4.4375 3.078125 -4.296875 3.171875 -4.296875 C 3.34375 -4.296875 3.46875 -4.453125 3.46875 -4.578125 C 3.46875 -4.765625 3.375 -4.765625 3 -4.84375 C 2.921875 -4.859375 2.609375 -4.9375 2.375 -4.9375 C 1.859375 -4.9375 1.578125 -4.625 1.578125 -4.203125 C 1.578125 -3.84375 1.796875 -3.421875 2.03125 -3 Z M 2.15625 -2.8125 C 2.34375 -2.5 2.59375 -2.109375 2.59375 -1.609375 C 2.59375 -1.046875 2.265625 -0.109375 1.671875 -0.109375 C 1.296875 -0.109375 0.921875 -0.359375 0.921875 -0.9375 C 0.921875 -1.390625 1.1875 -2.578125 2.15625 -2.8125 Z M 2.15625 -2.8125 "/></g><g id="eac91873c2cb3bec8a3d7f3fc8617815y742i4by__glyph-1-2"><path d="M 2.15625 -4.578125 C 2.171875 -4.59375 2.1875 -4.6875 2.1875 -4.703125 C 2.1875 -4.734375 2.15625 -4.796875 2.078125 -4.796875 C 1.9375 -4.796875 1.375 -4.734375 1.1875 -4.71875 C 1.140625 -4.71875 1.046875 -4.703125 1.046875 -4.5625 C 1.046875 -4.46875 1.140625 -4.46875 1.21875 -4.46875 C 1.546875 -4.46875 1.546875 -4.421875 1.546875 -4.359375 C 1.546875 -4.3125 1.546875 -4.28125 1.53125 -4.21875 L 0.546875 -0.296875 C 0.515625 -0.171875 0.515625 -0.171875 0.515625 -0.15625 C 0.515625 -0.046875 0.59375 0.0625 0.75 0.0625 C 0.828125 0.0625 0.953125 0.03125 1.03125 -0.109375 C 1.0625 -0.15625 1.125 -0.40625 1.15625 -0.546875 L 1.3125 -1.15625 C 1.328125 -1.265625 1.40625 -1.53125 1.421875 -1.625 C 1.484375 -1.890625 1.484375 -1.90625 1.625 -2.125 C 1.84375 -2.453125 2.203125 -2.859375 2.734375 -2.859375 C 3.125 -2.859375 3.140625 -2.53125 3.140625 -2.375 C 3.140625 -1.953125 2.84375 -1.1875 2.734375 -0.890625 C 2.65625 -0.703125 2.625 -0.640625 2.625 -0.53125 C 2.625 -0.15625 2.9375 0.0625 3.28125 0.0625 C 3.984375 0.0625 4.28125 -0.890625 4.28125 -0.984375 C 4.28125 -1.078125 4.1875 -1.078125 4.171875 -1.078125 C 4.078125 -1.078125 4.0625 -1.03125 4.046875 -0.953125 C 3.875 -0.40625 3.578125 -0.125 3.3125 -0.125 C 3.15625 -0.125 3.140625 -0.21875 3.140625 -0.359375 C 3.140625 -0.53125 3.171875 -0.609375 3.296875 -0.921875 C 3.375 -1.140625 3.65625 -1.875 3.65625 -2.265625 C 3.65625 -2.375 3.65625 -2.65625 3.40625 -2.859375 C 3.28125 -2.953125 3.09375 -3.046875 2.765625 -3.046875 C 2.265625 -3.046875 1.890625 -2.765625 1.640625 -2.46875 Z M 2.15625 -4.578125 "/></g><g id="eac91873c2cb3bec8a3d7f3fc8617815y742i4by__glyph-1-3"><path d="M 3.625 -2.328125 C 3.53125 -2.734375 3.21875 -3.15625 2.5625 -3.15625 C 1.609375 -3.15625 0.796875 -2.421875 0.546875 -1.796875 C 0.515625 -1.6875 0.421875 -1.40625 0.421875 -1.125 C 0.421875 -0.65625 0.78125 0.140625 1.859375 0.140625 C 3.65625 0.140625 4.375 -2.09375 4.375 -3.078125 C 4.375 -4.25 3.609375 -4.9375 2.671875 -4.9375 C 1.546875 -4.9375 1.25 -4.03125 1.25 -3.8125 C 1.25 -3.765625 1.28125 -3.578125 1.515625 -3.578125 C 1.765625 -3.578125 1.90625 -3.78125 1.90625 -3.953125 C 1.90625 -4.140625 1.765625 -4.203125 1.640625 -4.21875 C 1.984375 -4.734375 2.546875 -4.734375 2.671875 -4.734375 C 3.1875 -4.734375 3.796875 -4.40625 3.796875 -3.421875 C 3.796875 -3.125 3.765625 -2.890625 3.625 -2.328125 Z M 1.875 -0.078125 C 1.09375 -0.078125 1.015625 -0.671875 1.015625 -0.890625 C 1.015625 -1.15625 1.1875 -1.828125 1.265625 -2 C 1.390625 -2.328125 1.8125 -2.953125 2.59375 -2.953125 C 3.265625 -2.953125 3.484375 -2.4375 3.484375 -2.015625 C 3.484375 -1.546875 3.03125 -0.078125 1.875 -0.078125 Z M 1.875 -0.078125 "/></g><g id="eac91873c2cb3bec8a3d7f3fc8617815y742i4by__glyph-2-0"><path d="M 3.265625 2.359375 C 3.265625 2.34375 3.265625 2.3125 3.09375 2.15625 C 1.859375 0.90625 1.546875 -0.953125 1.546875 -2.46875 C 1.546875 -4.1875 1.921875 -5.890625 3.140625 -7.125 C 3.265625 -7.25 3.265625 -7.265625 3.265625 -7.296875 C 3.265625 -7.359375 3.21875 -7.390625 3.171875 -7.390625 C 3.0625 -7.390625 2.171875 -6.71875 1.59375 -5.46875 C 1.09375 -4.390625 0.96875 -3.296875 0.96875 -2.46875 C 0.96875 -1.703125 1.078125 -0.5 1.625 0.609375 C 2.21875 1.828125 3.0625 2.46875 3.171875 2.46875 C 3.21875 2.46875 3.265625 2.4375 3.265625 2.359375 Z M 3.265625 2.359375 "/></g><g id="eac91873c2cb3bec8a3d7f3fc8617815y742i4by__glyph-2-1"><path d="M 1.890625 -3.734375 C 1.890625 -4.015625 1.65625 -4.25 1.375 -4.25 C 1.078125 -4.25 0.84375 -4.015625 0.84375 -3.734375 C 0.84375 -3.4375 1.078125 -3.203125 1.375 -3.203125 C 1.65625 -3.203125 1.890625 -3.4375 1.890625 -3.734375 Z M 1.703125 -0.109375 C 1.703125 0.171875 1.703125 0.9375 1.078125 1.671875 C 1 1.75 1 1.765625 1 1.796875 C 1 1.859375 1.0625 1.90625 1.109375 1.90625 C 1.21875 1.90625 1.921875 1.109375 1.921875 -0.03125 C 1.921875 -0.3125 1.90625 -1.046875 1.375 -1.046875 C 1.03125 -1.046875 0.84375 -0.78125 0.84375 -0.515625 C 0.84375 -0.265625 1.015625 0 1.375 0 C 1.421875 0 1.4375 0 1.453125 -0.015625 C 1.515625 -0.015625 1.625 -0.046875 1.703125 -0.109375 Z M 1.703125 -0.109375 "/></g><g id="eac91873c2cb3bec8a3d7f3fc8617815y742i4by__glyph-2-2"><path d="M 2.84375 -2.46875 C 2.84375 -3.234375 2.734375 -4.421875 2.203125 -5.546875 C 1.609375 -6.75 0.765625 -7.390625 0.65625 -7.390625 C 0.59375 -7.390625 0.5625 -7.359375 0.5625 -7.296875 C 0.5625 -7.265625 0.5625 -7.25 0.75 -7.0625 C 1.71875 -6.09375 2.28125 -4.53125 2.28125 -2.46875 C 2.28125 -0.78125 1.90625 0.953125 0.6875 2.203125 C 0.5625 2.3125 0.5625 2.34375 0.5625 2.359375 C 0.5625 2.421875 0.59375 2.46875 0.65625 2.46875 C 0.765625 2.46875 1.640625 1.796875 2.234375 0.546875 C 2.734375 -0.546875 2.84375 -1.640625 2.84375 -2.46875 Z M 2.84375 -2.46875 "/></g><g id="eac91873c2cb3bec8a3d7f3fc8617815y742i4by__glyph-3-0"><path d="M 3.203125 -1.5625 L 5.3125 -1.5625 C 5.40625 -1.5625 5.5625 -1.5625 5.5625 -1.734375 C 5.5625 -1.90625 5.40625 -1.90625 5.3125 -1.90625 L 3.203125 -1.90625 L 3.203125 -4.015625 C 3.203125 -4.109375 3.203125 -4.28125 3.03125 -4.28125 C 2.859375 -4.28125 2.859375 -4.109375 2.859375 -4.015625 L 2.859375 -1.90625 L 0.734375 -1.90625 C 0.65625 -1.90625 0.484375 -1.90625 0.484375 -1.734375 C 0.484375 -1.5625 0.640625 -1.5625 0.734375 -1.5625 L 2.859375 -1.5625 L 2.859375 0.5625 C 2.859375 0.65625 2.859375 0.8125 3.03125 0.8125 C 3.203125 0.8125 3.203125 0.65625 3.203125 0.5625 Z M 3.203125 -1.5625 "/></g><g id="eac91873c2cb3bec8a3d7f3fc8617815y742i4by__glyph-3-1"><path d="M 2.3125 -4.390625 C 2.3125 -4.578125 2.296875 -4.578125 2.109375 -4.578125 C 1.671875 -4.15625 1.03125 -4.140625 0.75 -4.140625 L 0.75 -3.890625 C 0.921875 -3.890625 1.375 -3.890625 1.75 -4.09375 L 1.75 -0.5625 C 1.75 -0.34375 1.75 -0.25 1.0625 -0.25 L 0.796875 -0.25 L 0.796875 0 C 0.921875 0 1.78125 -0.03125 2.03125 -0.03125 C 2.25 -0.03125 3.109375 0 3.265625 0 L 3.265625 -0.25 L 3 -0.25 C 2.3125 -0.25 2.3125 -0.34375 2.3125 -0.5625 Z M 2.3125 -4.390625 "/></g><g id="eac91873c2cb3bec8a3d7f3fc8617815y742i4by__glyph-4-0"><path d="M 6.046875 -6.84375 L 5.171875 -6.84375 L 5.171875 -3.859375 L 1.796875 -3.859375 L 1.796875 -6.84375 L 0.921875 -6.84375 L 0.921875 0 L 1.796875 0 L 1.796875 -3.25 L 5.171875 -3.25 L 5.171875 0 L 6.046875 0 Z M 6.046875 -6.84375 "/></g><g id="eac91873c2cb3bec8a3d7f3fc8617815y742i4by__glyph-4-1"><path d="M 4.625 -2.171875 C 4.625 -3.484375 3.640625 -4.546875 2.46875 -4.546875 C 1.25 -4.546875 0.296875 -3.453125 0.296875 -2.171875 C 0.296875 -0.875 1.296875 0.109375 2.453125 0.109375 C 3.640625 0.109375 4.625 -0.890625 4.625 -2.171875 Z M 2.453125 -0.515625 C 1.78125 -0.515625 1.0625 -1.078125 1.0625 -2.265625 C 1.0625 -3.453125 1.8125 -3.9375 2.453125 -3.9375 C 3.140625 -3.9375 3.859375 -3.4375 3.859375 -2.265625 C 3.859375 -1.109375 3.1875 -0.515625 2.453125 -0.515625 Z M 2.453125 -0.515625 "/></g><g id="eac91873c2cb3bec8a3d7f3fc8617815y742i4by__glyph-4-2"><path d="M 7.03125 -2.9375 C 7.03125 -3.59375 6.875 -4.484375 5.671875 -4.484375 C 5.09375 -4.484375 4.578125 -4.203125 4.203125 -3.671875 C 3.953125 -4.421875 3.265625 -4.484375 2.953125 -4.484375 C 2.234375 -4.484375 1.78125 -4.078125 1.515625 -3.734375 L 1.515625 -4.4375 L 0.796875 -4.4375 L 0.796875 0 L 1.5625 0 L 1.5625 -2.421875 C 1.5625 -3.09375 1.828125 -3.890625 2.5625 -3.890625 C 3.484375 -3.890625 3.53125 -3.25 3.53125 -2.875 L 3.53125 0 L 4.296875 0 L 4.296875 -2.421875 C 4.296875 -3.09375 4.5625 -3.890625 5.296875 -3.890625 C 6.21875 -3.890625 6.265625 -3.25 6.265625 -2.875 L 6.265625 0 L 7.03125 0 Z M 7.03125 -2.9375 "/></g><g id="eac91873c2cb3bec8a3d7f3fc8617815y742i4by__glyph-5-0"><path d="M 1.90625 -1.359375 C 1.90625 -1.46875 1.984375 -2.09375 1.984375 -2.140625 C 1.984375 -2.234375 1.921875 -2.296875 1.8125 -2.296875 C 1.71875 -2.296875 1.640625 -2.21875 1.640625 -2.140625 C 1.640625 -2.09375 1.71875 -1.46875 1.734375 -1.359375 L 0.96875 -1.828125 C 0.921875 -1.84375 0.90625 -1.859375 0.859375 -1.859375 C 0.78125 -1.859375 0.6875 -1.796875 0.6875 -1.6875 C 0.6875 -1.609375 0.734375 -1.5625 0.796875 -1.53125 C 1.0625 -1.421875 1.34375 -1.328125 1.625 -1.234375 C 1.34375 -1.125 0.890625 -0.96875 0.8125 -0.9375 C 0.765625 -0.921875 0.6875 -0.890625 0.6875 -0.78125 C 0.6875 -0.671875 0.78125 -0.59375 0.859375 -0.59375 C 0.90625 -0.59375 1.0625 -0.6875 1.734375 -1.09375 C 1.71875 -1 1.640625 -0.375 1.640625 -0.328125 C 1.640625 -0.25 1.71875 -0.171875 1.8125 -0.171875 C 1.921875 -0.171875 1.984375 -0.234375 1.984375 -0.328125 C 1.984375 -0.375 1.90625 -1 1.90625 -1.09375 L 2.6875 -0.625 C 2.71875 -0.609375 2.734375 -0.59375 2.78125 -0.59375 C 2.859375 -0.59375 2.953125 -0.671875 2.953125 -0.78125 C 2.953125 -0.859375 2.890625 -0.90625 2.84375 -0.921875 C 2.578125 -1.03125 2.296875 -1.140625 2.015625 -1.234375 C 2.296875 -1.328125 2.75 -1.5 2.828125 -1.53125 C 2.859375 -1.546875 2.953125 -1.578125 2.953125 -1.6875 C 2.953125 -1.796875 2.859375 -1.859375 2.78125 -1.859375 C 2.734375 -1.859375 2.71875 -1.84375 2.671875 -1.828125 Z M 1.90625 -1.359375 "/></g></g></defs><g fill="rgb(0%, 0%, 0%)" fill-opacity="1"><use xlink:href="#eac91873c2cb3bec8a3d7f3fc8617815y742i4by__glyph-0-0" x="49.908518" y="11.70297"/></g><g fill="rgb(0%, 0%, 0%)" fill-opacity="1"><use xlink:href="#eac91873c2cb3bec8a3d7f3fc8617815y742i4by__glyph-1-0" x="58.907985" y="8.124368"/></g><g fill="rgb(0%, 0%, 0%)" fill-opacity="1"><use xlink:href="#eac91873c2cb3bec8a3d7f3fc8617815y742i4by__glyph-2-0" x="64.276384" y="11.70297"/></g><g fill="rgb(0%, 0%, 0%)" fill-opacity="1"><use xlink:href="#eac91873c2cb3bec8a3d7f3fc8617815y742i4by__glyph-0-1" x="68.111829" y="11.70297"/></g><g fill="rgb(0%, 0%, 0%)" fill-opacity="1"><use xlink:href="#eac91873c2cb3bec8a3d7f3fc8617815y742i4by__glyph-2-1" x="75.508548" y="11.70297"/></g><g fill="rgb(0%, 0%, 0%)" fill-opacity="1"><use xlink:href="#eac91873c2cb3bec8a3d7f3fc8617815y742i4by__glyph-0-2" x="79.895295" y="11.70297"/></g><g fill="rgb(0%, 0%, 0%)" fill-opacity="1"><use xlink:href="#eac91873c2cb3bec8a3d7f3fc8617815y742i4by__glyph-2-2" x="87.650015" y="11.70297"/></g><g fill="rgb(0%, 0%, 0%)" fill-opacity="1"><use xlink:href="#eac91873c2cb3bec8a3d7f3fc8617815y742i4by__glyph-0-0" x="173.934066" y="11.70297"/></g><g fill="rgb(0%, 0%, 0%)" fill-opacity="1"><use xlink:href="#eac91873c2cb3bec8a3d7f3fc8617815y742i4by__glyph-1-0" x="182.933534" y="8.124368"/></g><g fill="rgb(0%, 0%, 0%)" fill-opacity="1"><use xlink:href="#eac91873c2cb3bec8a3d7f3fc8617815y742i4by__glyph-3-0" x="187.808845" y="8.124368"/><use xlink:href="#eac91873c2cb3bec8a3d7f3fc8617815y742i4by__glyph-3-1" x="193.863288" y="8.124368"/></g><g fill="rgb(0%, 0%, 0%)" fill-opacity="1"><use xlink:href="#eac91873c2cb3bec8a3d7f3fc8617815y742i4by__glyph-2-0" x="198.287371" y="11.70297"/></g><g fill="rgb(0%, 0%, 0%)" fill-opacity="1"><use xlink:href="#eac91873c2cb3bec8a3d7f3fc8617815y742i4by__glyph-0-3" x="202.122817" y="11.70297"/></g><g fill="rgb(0%, 0%, 0%)" fill-opacity="1"><use xlink:href="#eac91873c2cb3bec8a3d7f3fc8617815y742i4by__glyph-0-4" x="210.520558" y="11.70297"/></g><g fill="rgb(0%, 0%, 0%)" fill-opacity="1"><use xlink:href="#eac91873c2cb3bec8a3d7f3fc8617815y742i4by__glyph-0-1" x="214.907305" y="11.70297"/></g><g fill="rgb(0%, 0%, 0%)" fill-opacity="1"><use xlink:href="#eac91873c2cb3bec8a3d7f3fc8617815y742i4by__glyph-2-1" x="222.304024" y="11.70297"/></g><g fill="rgb(0%, 0%, 0%)" fill-opacity="1"><use xlink:href="#eac91873c2cb3bec8a3d7f3fc8617815y742i4by__glyph-0-2" x="226.680909" y="11.70297"/></g><g fill="rgb(0%, 0%, 0%)" fill-opacity="1"><use xlink:href="#eac91873c2cb3bec8a3d7f3fc8617815y742i4by__glyph-2-2" x="234.435629" y="11.70297"/></g><g fill="rgb(0%, 0%, 0%)" fill-opacity="1"><use xlink:href="#eac91873c2cb3bec8a3d7f3fc8617815y742i4by__glyph-4-0" x="36.597899" y="64.289122"/><use xlink:href="#eac91873c2cb3bec8a3d7f3fc8617815y742i4by__glyph-4-1" x="43.58336" y="64.289122"/><use xlink:href="#eac91873c2cb3bec8a3d7f3fc8617815y742i4by__glyph-4-2" x="48.514506" y="64.289122"/></g><g fill="rgb(0%, 0%, 0%)" fill-opacity="1"><use xlink:href="#eac91873c2cb3bec8a3d7f3fc8617815y742i4by__glyph-2-0" x="56.34911" y="64.289122"/></g><g fill="rgb(0%, 0%, 0%)" fill-opacity="1"><use xlink:href="#eac91873c2cb3bec8a3d7f3fc8617815y742i4by__glyph-0-0" x="60.184555" y="64.289122"/></g><g fill="rgb(0%, 0%, 0%)" fill-opacity="1"><use xlink:href="#eac91873c2cb3bec8a3d7f3fc8617815y742i4by__glyph-1-0" x="68.383609" y="65.76808"/></g><g fill="rgb(0%, 0%, 0%)" fill-opacity="1"><use xlink:href="#eac91873c2cb3bec8a3d7f3fc8617815y742i4by__glyph-2-0" x="73.752008" y="64.289122"/></g><g fill="rgb(0%, 0%, 0%)" fill-opacity="1"><use xlink:href="#eac91873c2cb3bec8a3d7f3fc8617815y742i4by__glyph-0-1" x="77.587453" y="64.289122"/></g><g fill="rgb(0%, 0%, 0%)" fill-opacity="1"><use xlink:href="#eac91873c2cb3bec8a3d7f3fc8617815y742i4by__glyph-2-2" x="84.984172" y="64.289122"/></g><g fill="rgb(0%, 0%, 0%)" fill-opacity="1"><use xlink:href="#eac91873c2cb3bec8a3d7f3fc8617815y742i4by__glyph-0-4" x="88.819617" y="64.289122"/></g><g fill="rgb(0%, 0%, 0%)" fill-opacity="1"><use xlink:href="#eac91873c2cb3bec8a3d7f3fc8617815y742i4by__glyph-0-2" x="93.206364" y="64.289122"/></g><g fill="rgb(0%, 0%, 0%)" fill-opacity="1"><use xlink:href="#eac91873c2cb3bec8a3d7f3fc8617815y742i4by__glyph-2-2" x="100.961084" y="64.289122"/></g><g fill="rgb(0%, 0%, 0%)" fill-opacity="1"><use xlink:href="#eac91873c2cb3bec8a3d7f3fc8617815y742i4by__glyph-4-0" x="160.623447" y="64.289122"/><use xlink:href="#eac91873c2cb3bec8a3d7f3fc8617815y742i4by__glyph-4-1" x="167.608909" y="64.289122"/><use xlink:href="#eac91873c2cb3bec8a3d7f3fc8617815y742i4by__glyph-4-2" x="172.540054" y="64.289122"/></g><g fill="rgb(0%, 0%, 0%)" fill-opacity="1"><use xlink:href="#eac91873c2cb3bec8a3d7f3fc8617815y742i4by__glyph-2-0" x="180.374659" y="64.289122"/></g><g fill="rgb(0%, 0%, 0%)" fill-opacity="1"><use xlink:href="#eac91873c2cb3bec8a3d7f3fc8617815y742i4by__glyph-0-0" x="184.210104" y="64.289122"/></g><g fill="rgb(0%, 0%, 0%)" fill-opacity="1"><use xlink:href="#eac91873c2cb3bec8a3d7f3fc8617815y742i4by__glyph-1-0" x="192.409158" y="65.76808"/></g><g fill="rgb(0%, 0%, 0%)" fill-opacity="1"><use xlink:href="#eac91873c2cb3bec8a3d7f3fc8617815y742i4by__glyph-3-0" x="197.284469" y="65.76808"/><use xlink:href="#eac91873c2cb3bec8a3d7f3fc8617815y742i4by__glyph-3-1" x="203.338913" y="65.76808"/></g><g fill="rgb(0%, 0%, 0%)" fill-opacity="1"><use xlink:href="#eac91873c2cb3bec8a3d7f3fc8617815y742i4by__glyph-2-0" x="207.762996" y="64.289122"/></g><g fill="rgb(0%, 0%, 0%)" fill-opacity="1"><use xlink:href="#eac91873c2cb3bec8a3d7f3fc8617815y742i4by__glyph-0-3" x="211.598441" y="64.289122"/></g><g fill="rgb(0%, 0%, 0%)" fill-opacity="1"><use xlink:href="#eac91873c2cb3bec8a3d7f3fc8617815y742i4by__glyph-0-4" x="219.996182" y="64.289122"/></g><g fill="rgb(0%, 0%, 0%)" fill-opacity="1"><use xlink:href="#eac91873c2cb3bec8a3d7f3fc8617815y742i4by__glyph-0-1" x="224.38293" y="64.289122"/></g><g fill="rgb(0%, 0%, 0%)" fill-opacity="1"><use xlink:href="#eac91873c2cb3bec8a3d7f3fc8617815y742i4by__glyph-2-2" x="231.779648" y="64.289122"/></g><g fill="rgb(0%, 0%, 0%)" fill-opacity="1"><use xlink:href="#eac91873c2cb3bec8a3d7f3fc8617815y742i4by__glyph-0-4" x="235.615094" y="64.289122"/></g><g fill="rgb(0%, 0%, 0%)" fill-opacity="1"><use xlink:href="#eac91873c2cb3bec8a3d7f3fc8617815y742i4by__glyph-0-2" x="239.991979" y="64.289122"/></g><g fill="rgb(0%, 0%, 0%)" fill-opacity="1"><use xlink:href="#eac91873c2cb3bec8a3d7f3fc8617815y742i4by__glyph-2-2" x="247.746699" y="64.289122"/></g><path fill="none" stroke="rgb(0%, 0%, 0%)" stroke-linecap="butt" stroke-linejoin="miter" stroke-miterlimit="10" stroke-opacity="1" stroke-width="0.39848" d="M -48.6547 26.240757 L 25.261399 26.240757 " transform="matrix(0.989932, 0, 0, -0.989932, 144.090601, 35.214833)"/><path fill="none" stroke="rgb(0%, 0%, 0%)" stroke-linecap="round" stroke-linejoin="round" stroke-miterlimit="10" stroke-opacity="1" stroke-width="0.39848" d="M -2.072701 2.390321 C -1.693887 0.95793 -0.849448 0.279222 -0.00106182 -0.000942873 C -0.849448 -0.277161 -1.693887 -0.95587 -2.072701 -2.392207 " transform="matrix(0.989932, 0, 0, -0.989932, 169.29402, 9.237348)"/><g fill="rgb(0%, 0%, 0%)" fill-opacity="1"><use xlink:href="#eac91873c2cb3bec8a3d7f3fc8617815y742i4by__glyph-1-1" x="130.789882" y="6.917641"/></g><path fill="none" stroke="rgb(0%, 0%, 0%)" stroke-linecap="butt" stroke-linejoin="miter" stroke-miterlimit="10" stroke-opacity="1" stroke-width="0.39848" d="M -74.141785 17.4136 L -74.141785 -17.654325 " transform="matrix(0.989932, 0, 0, -0.989932, 144.090601, 35.214833)"/><path fill="none" stroke="rgb(0%, 0%, 0%)" stroke-linecap="round" stroke-linejoin="round" stroke-miterlimit="10" stroke-opacity="1" stroke-width="0.39848" d="M -2.073365 2.392669 C -1.694551 0.956332 -0.850112 0.277624 -0.00172579 0.00140515 C -0.850112 -0.278759 -1.694551 -0.957468 -2.073365 -2.389859 " transform="matrix(0, 0.989932, 0.989932, 0, 70.693922, 52.888427)"/><g fill="rgb(0%, 0%, 0%)" fill-opacity="1"><use xlink:href="#eac91873c2cb3bec8a3d7f3fc8617815y742i4by__glyph-1-2" x="63.75667" y="37.927246"/></g><path fill="none" stroke="rgb(0%, 0%, 0%)" stroke-linecap="butt" stroke-linejoin="miter" stroke-miterlimit="10" stroke-opacity="1" stroke-width="0.39848" d="M 62.645614 17.4136 L 62.645614 -17.654325 " transform="matrix(0.989932, 0, 0, -0.989932, 144.090601, 35.214833)"/><path fill="none" stroke="rgb(0%, 0%, 0%)" stroke-linecap="round" stroke-linejoin="round" stroke-miterlimit="10" stroke-opacity="1" stroke-width="0.39848" d="M -2.073365 2.392388 C -1.694551 0.956052 -0.850112 0.277343 -0.00172579 0.00112439 C -0.850112 -0.27904 -1.694551 -0.957749 -2.073365 -2.39014 " transform="matrix(0, 0.989932, 0.989932, 0, 206.104356, 52.888427)"/><g fill="rgb(0%, 0%, 0%)" fill-opacity="1"><use xlink:href="#eac91873c2cb3bec8a3d7f3fc8617815y742i4by__glyph-1-2" x="208.42427" y="37.927246"/></g><path fill="none" stroke="rgb(0%, 0%, 0%)" stroke-linecap="butt" stroke-linejoin="miter" stroke-miterlimit="10" stroke-opacity="1" stroke-width="0.39848" d="M -35.210745 -26.880027 L 11.813499 -26.880027 " transform="matrix(0.989932, 0, 0, -0.989932, 144.090601, 35.214833)"/><path fill="none" stroke="rgb(0%, 0%, 0%)" stroke-linecap="round" stroke-linejoin="round" stroke-miterlimit="10" stroke-opacity="1" stroke-width="0.39848" d="M -2.070305 2.390557 C -1.695437 0.958167 -0.850998 0.279458 0.00133407 -0.000706621 C -0.850998 -0.280871 -1.695437 -0.955634 -2.070305 -2.391971 " transform="matrix(0.989932, 0, 0, -0.989932, 155.983054, 61.823519)"/><g fill="rgb(0%, 0%, 0%)" fill-opacity="1"><use xlink:href="#eac91873c2cb3bec8a3d7f3fc8617815y742i4by__glyph-1-3" x="128.327922" y="69.413997"/></g><g fill="rgb(0%, 0%, 0%)" fill-opacity="1"><use xlink:href="#eac91873c2cb3bec8a3d7f3fc8617815y742i4by__glyph-5-0" x="132.964761" y="66.438263"/></g></svg>