<?xml version="1.0" encoding="UTF-8"?><svg xmlns="http://www.w3.org/2000/svg" xmlns:xlink="http://www.w3.org/1999/xlink" width="450.355" height="122.491" viewBox="0 0 450.355 122.491"><defs><g><g id="f5d3132aa0c9c1d306c9b929d4b5b5cehl90udi0__glyph-0-0"><path d="M 1.78125 -1.140625 C 1.375 -0.46875 0.984375 -0.34375 0.5625 -0.3125 C 0.4375 -0.296875 0.34375 -0.296875 0.34375 -0.109375 C 0.34375 -0.046875 0.390625 0 0.46875 0 C 0.75 0 1.046875 -0.03125 1.328125 -0.03125 C 1.65625 -0.03125 2 0 2.328125 0 C 2.375 0 2.515625 0 2.515625 -0.1875 C 2.515625 -0.296875 2.421875 -0.3125 2.34375 -0.3125 C 2.125 -0.328125 1.890625 -0.40625 1.890625 -0.65625 C 1.890625 -0.78125 1.9375 -0.890625 2.03125 -1.015625 L 2.78125 -2.296875 L 5.265625 -2.296875 C 5.28125 -2.078125 5.421875 -0.734375 5.421875 -0.640625 C 5.421875 -0.34375 4.90625 -0.3125 4.71875 -0.3125 C 4.578125 -0.3125 4.46875 -0.3125 4.46875 -0.109375 C 4.46875 0 4.59375 0 4.609375 0 C 5.015625 0 5.453125 -0.03125 5.859375 -0.03125 C 6.109375 -0.03125 6.734375 0 6.96875 0 C 7.03125 0 7.15625 0 7.15625 -0.203125 C 7.15625 -0.3125 7.046875 -0.3125 6.921875 -0.3125 C 6.3125 -0.3125 6.3125 -0.375 6.28125 -0.671875 L 5.671875 -6.859375 C 5.65625 -7.0625 5.65625 -7.109375 5.484375 -7.109375 C 5.328125 -7.109375 5.28125 -7.03125 5.234375 -6.9375 Z M 2.96875 -2.59375 L 4.921875 -5.875 L 5.234375 -2.59375 Z M 2.96875 -2.59375 "/></g><g id="f5d3132aa0c9c1d306c9b929d4b5b5cehl90udi0__glyph-0-1"><path d="M 1.59375 -0.78125 C 1.484375 -0.390625 1.46875 -0.3125 0.6875 -0.3125 C 0.515625 -0.3125 0.421875 -0.3125 0.421875 -0.109375 C 0.421875 0 0.5 0 0.6875 0 L 4.234375 0 C 5.796875 0 6.96875 -1.171875 6.96875 -2.140625 C 6.96875 -2.859375 6.390625 -3.4375 5.421875 -3.546875 C 6.453125 -3.734375 7.5 -4.46875 7.5 -5.40625 C 7.5 -6.140625 6.84375 -6.78125 5.65625 -6.78125 L 2.328125 -6.78125 C 2.140625 -6.78125 2.03125 -6.78125 2.03125 -6.578125 C 2.03125 -6.46875 2.125 -6.46875 2.3125 -6.46875 C 2.328125 -6.46875 2.515625 -6.46875 2.6875 -6.453125 C 2.875 -6.421875 2.953125 -6.421875 2.953125 -6.296875 C 2.953125 -6.25 2.953125 -6.21875 2.921875 -6.109375 Z M 3.078125 -3.625 L 3.703125 -6.09375 C 3.796875 -6.4375 3.8125 -6.46875 4.234375 -6.46875 L 5.515625 -6.46875 C 6.390625 -6.46875 6.59375 -5.890625 6.59375 -5.453125 C 6.59375 -4.578125 5.75 -3.625 4.53125 -3.625 Z M 2.640625 -0.3125 C 2.5 -0.3125 2.484375 -0.3125 2.421875 -0.3125 C 2.328125 -0.328125 2.296875 -0.34375 2.296875 -0.421875 C 2.296875 -0.453125 2.296875 -0.46875 2.34375 -0.640625 L 3.03125 -3.40625 L 4.90625 -3.40625 C 5.859375 -3.40625 6.046875 -2.671875 6.046875 -2.25 C 6.046875 -1.265625 5.15625 -0.3125 3.984375 -0.3125 Z M 2.640625 -0.3125 "/></g><g id="f5d3132aa0c9c1d306c9b929d4b5b5cehl90udi0__glyph-1-0"><path d="M 2.828125 -2.734375 L 3.5 -2.734375 C 3.640625 -2.734375 3.734375 -2.734375 3.734375 -2.890625 C 3.734375 -2.984375 3.640625 -2.984375 3.515625 -2.984375 L 2.875 -2.984375 C 3.03125 -3.875 3.09375 -4.1875 3.140625 -4.390625 C 3.171875 -4.546875 3.328125 -4.6875 3.5 -4.6875 C 3.5 -4.6875 3.6875 -4.6875 3.828125 -4.609375 C 3.53125 -4.515625 3.515625 -4.265625 3.515625 -4.21875 C 3.515625 -4.078125 3.640625 -3.96875 3.796875 -3.96875 C 3.984375 -3.96875 4.1875 -4.125 4.1875 -4.390625 C 4.1875 -4.703125 3.84375 -4.890625 3.5 -4.890625 C 3.1875 -4.890625 2.84375 -4.703125 2.65625 -4.359375 C 2.53125 -4.109375 2.46875 -3.796875 2.328125 -2.984375 L 1.78125 -2.984375 C 1.640625 -2.984375 1.546875 -2.984375 1.546875 -2.84375 C 1.546875 -2.734375 1.640625 -2.734375 1.765625 -2.734375 L 2.28125 -2.734375 C 2.265625 -2.703125 1.828125 -0.203125 1.671875 0.546875 C 1.625 0.6875 1.515625 1.21875 1.171875 1.21875 C 1.171875 1.21875 1 1.21875 0.875 1.140625 C 1.15625 1.046875 1.171875 0.796875 1.171875 0.75 C 1.171875 0.609375 1.0625 0.5 0.90625 0.5 C 0.71875 0.5 0.5 0.65625 0.5 0.921875 C 0.5 1.234375 0.828125 1.421875 1.171875 1.421875 C 1.625 1.421875 1.921875 0.953125 2.015625 0.8125 C 2.265625 0.34375 2.421875 -0.515625 2.4375 -0.59375 Z M 2.828125 -2.734375 "/></g><g id="f5d3132aa0c9c1d306c9b929d4b5b5cehl90udi0__glyph-1-1"><path d="M 1.3125 -0.546875 C 1.25 -0.3125 1.234375 -0.25 0.703125 -0.25 C 0.59375 -0.25 0.5 -0.25 0.5 -0.109375 C 0.5 0 0.578125 0 0.703125 0 L 3.390625 0 C 4.5625 0 5.453125 -0.796875 5.453125 -1.484375 C 5.453125 -1.984375 5 -2.40625 4.265625 -2.484375 C 5.109375 -2.625 5.8125 -3.15625 5.8125 -3.75 C 5.8125 -4.28125 5.265625 -4.734375 4.375 -4.734375 L 1.84375 -4.734375 C 1.71875 -4.734375 1.625 -4.734375 1.625 -4.578125 C 1.625 -4.484375 1.703125 -4.484375 1.84375 -4.484375 C 1.859375 -4.484375 1.984375 -4.484375 2.109375 -4.46875 C 2.25 -4.453125 2.265625 -4.453125 2.265625 -4.375 C 2.265625 -4.359375 2.265625 -4.328125 2.234375 -4.21875 Z M 2.421875 -2.5625 L 2.84375 -4.25 C 2.90625 -4.46875 2.90625 -4.484375 3.203125 -4.484375 L 4.265625 -4.484375 C 4.96875 -4.484375 5.125 -4.03125 5.125 -3.765625 C 5.125 -3.203125 4.5 -2.5625 3.5625 -2.5625 Z M 2.09375 -0.25 C 1.875 -0.25 1.875 -0.25 1.875 -0.3125 C 1.875 -0.328125 1.875 -0.359375 1.90625 -0.46875 L 2.375 -2.359375 L 3.84375 -2.359375 C 4.5 -2.359375 4.75 -1.9375 4.75 -1.53125 C 4.75 -0.84375 4.046875 -0.25 3.21875 -0.25 Z M 2.09375 -0.25 "/></g><g id="f5d3132aa0c9c1d306c9b929d4b5b5cehl90udi0__glyph-2-0"><path d="M 2.359375 -1.90625 L 2.90625 -1.90625 C 3.015625 -1.90625 3.015625 -1.921875 3.046875 -1.9375 C 3.078125 -1.953125 3.078125 -2.015625 3.078125 -2.046875 C 3.078125 -2.140625 3.015625 -2.140625 2.921875 -2.140625 L 2.390625 -2.140625 C 2.453125 -2.5 2.5625 -3.125 2.625 -3.203125 C 2.6875 -3.28125 2.78125 -3.328125 2.859375 -3.328125 C 2.890625 -3.328125 3 -3.328125 3.09375 -3.265625 C 2.90625 -3.1875 2.90625 -3 2.90625 -2.984375 C 2.90625 -2.859375 3 -2.78125 3.125 -2.78125 C 3.25 -2.78125 3.421875 -2.890625 3.421875 -3.109375 C 3.421875 -3.390625 3.09375 -3.484375 2.859375 -3.484375 C 2.234375 -3.484375 2.109375 -2.890625 2.0625 -2.671875 C 2.015625 -2.46875 2.046875 -2.59375 1.96875 -2.140625 L 1.515625 -2.140625 C 1.421875 -2.140625 1.34375 -2.140625 1.34375 -2 C 1.34375 -1.90625 1.421875 -1.90625 1.5 -1.90625 L 1.9375 -1.90625 C 1.84375 -1.421875 1.625 -0.046875 1.484375 0.46875 C 1.46875 0.59375 1.34375 0.84375 1.15625 0.84375 C 1.125 0.84375 1.015625 0.84375 0.921875 0.796875 C 1.0625 0.734375 1.125 0.609375 1.125 0.515625 C 1.125 0.390625 1.03125 0.3125 0.90625 0.3125 C 0.765625 0.3125 0.59375 0.421875 0.59375 0.640625 C 0.59375 0.9375 0.953125 1.015625 1.140625 1.015625 C 1.4375 1.015625 1.65625 0.78125 1.765625 0.640625 C 1.96875 0.359375 2.078125 -0.296875 2.078125 -0.3125 Z M 2.359375 -1.90625 "/></g><g id="f5d3132aa0c9c1d306c9b929d4b5b5cehl90udi0__glyph-3-0"><path d="M 1.296875 -3.921875 C 1.296875 -4.09375 1.296875 -4.28125 1.09375 -4.28125 C 0.90625 -4.28125 0.90625 -4.09375 0.90625 -3.921875 L 0.90625 -0.125 C 0.90625 0.046875 0.90625 0.21875 1.09375 0.21875 C 1.296875 0.21875 1.296875 0.046875 1.296875 -0.125 Z M 1.296875 -3.921875 "/></g><g id="f5d3132aa0c9c1d306c9b929d4b5b5cehl90udi0__glyph-4-0"><path d="M 5.65625 -2.390625 C 5.65625 -2.65625 5.5625 -2.65625 5.53125 -2.65625 C 5.4375 -2.65625 5.421875 -2.46875 5.421875 -2.375 C 5.390625 -1.859375 5.015625 -1.28125 4.375 -1.28125 C 3.875 -1.28125 3.53125 -1.609375 3.140625 -1.953125 C 2.78125 -2.296875 2.359375 -2.65625 1.8125 -2.65625 C 1.03125 -2.65625 0.53125 -1.859375 0.53125 -1.078125 C 0.53125 -0.8125 0.625 -0.8125 0.65625 -0.8125 C 0.75 -0.8125 0.765625 -0.984375 0.765625 -1.09375 C 0.796875 -1.609375 1.171875 -2.1875 1.8125 -2.1875 C 2.3125 -2.1875 2.65625 -1.859375 3.046875 -1.515625 C 3.40625 -1.171875 3.828125 -0.8125 4.375 -0.8125 C 5.15625 -0.8125 5.65625 -1.609375 5.65625 -2.390625 Z M 5.65625 -2.390625 "/></g><g id="f5d3132aa0c9c1d306c9b929d4b5b5cehl90udi0__glyph-5-0"><path d="M 5.328125 -2.328125 C 5.4375 -2.328125 5.59375 -2.328125 5.59375 -2.5 C 5.59375 -2.671875 5.421875 -2.671875 5.328125 -2.671875 L 0.75 -2.671875 C 0.65625 -2.671875 0.484375 -2.671875 0.484375 -2.5 C 0.484375 -2.328125 0.640625 -2.328125 0.75 -2.328125 Z M 5.328125 -0.8125 C 5.421875 -0.8125 5.59375 -0.8125 5.59375 -0.96875 C 5.59375 -1.140625 5.4375 -1.140625 5.328125 -1.140625 L 0.75 -1.140625 C 0.640625 -1.140625 0.484375 -1.140625 0.484375 -0.96875 C 0.484375 -0.8125 0.65625 -0.8125 0.75 -0.8125 Z M 5.328125 -0.8125 "/></g><g id="f5d3132aa0c9c1d306c9b929d4b5b5cehl90udi0__glyph-6-0"><path d="M 3.296875 -0.75 C 3.34375 -0.359375 3.609375 0.0625 4.078125 0.0625 C 4.28125 0.0625 4.890625 -0.078125 4.890625 -0.890625 L 4.890625 -1.4375 L 4.640625 -1.4375 L 4.640625 -0.890625 C 4.640625 -0.3125 4.390625 -0.25 4.28125 -0.25 C 3.953125 -0.25 3.921875 -0.6875 3.921875 -0.75 L 3.921875 -2.734375 C 3.921875 -3.140625 3.921875 -3.53125 3.5625 -3.90625 C 3.171875 -4.28125 2.671875 -4.4375 2.203125 -4.4375 C 1.390625 -4.4375 0.703125 -3.984375 0.703125 -3.328125 C 0.703125 -3.03125 0.90625 -2.859375 1.15625 -2.859375 C 1.4375 -2.859375 1.625 -3.0625 1.625 -3.3125 C 1.625 -3.4375 1.5625 -3.765625 1.109375 -3.765625 C 1.375 -4.125 1.859375 -4.234375 2.1875 -4.234375 C 2.671875 -4.234375 3.234375 -3.84375 3.234375 -2.953125 L 3.234375 -2.59375 C 2.734375 -2.5625 2.03125 -2.53125 1.40625 -2.234375 C 0.671875 -1.890625 0.421875 -1.375 0.421875 -0.9375 C 0.421875 -0.140625 1.375 0.109375 2 0.109375 C 2.65625 0.109375 3.109375 -0.28125 3.296875 -0.75 Z M 3.234375 -2.375 L 3.234375 -1.390625 C 3.234375 -0.453125 2.515625 -0.109375 2.078125 -0.109375 C 1.59375 -0.109375 1.1875 -0.453125 1.1875 -0.953125 C 1.1875 -1.5 1.59375 -2.328125 3.234375 -2.375 Z M 3.234375 -2.375 "/></g><g id="f5d3132aa0c9c1d306c9b929d4b5b5cehl90udi0__glyph-6-1"><path d="M 1.09375 -3.40625 L 1.09375 -0.75 C 1.09375 -0.3125 0.984375 -0.3125 0.3125 -0.3125 L 0.3125 0 C 0.671875 -0.015625 1.171875 -0.03125 1.4375 -0.03125 C 1.703125 -0.03125 2.21875 -0.015625 2.546875 0 L 2.546875 -0.3125 C 1.890625 -0.3125 1.78125 -0.3125 1.78125 -0.75 L 1.78125 -2.578125 C 1.78125 -3.609375 2.484375 -4.171875 3.109375 -4.171875 C 3.734375 -4.171875 3.84375 -3.625 3.84375 -3.0625 L 3.84375 -0.75 C 3.84375 -0.3125 3.734375 -0.3125 3.078125 -0.3125 L 3.078125 0 C 3.421875 -0.015625 3.921875 -0.03125 4.203125 -0.03125 C 4.453125 -0.03125 4.96875 -0.015625 5.3125 0 L 5.3125 -0.3125 C 4.796875 -0.3125 4.546875 -0.3125 4.53125 -0.609375 L 4.53125 -2.5 C 4.53125 -3.359375 4.53125 -3.65625 4.234375 -4.015625 C 4.09375 -4.1875 3.765625 -4.390625 3.1875 -4.390625 C 2.453125 -4.390625 2 -3.953125 1.71875 -3.34375 L 1.71875 -4.390625 L 0.3125 -4.28125 L 0.3125 -3.96875 C 1.015625 -3.96875 1.09375 -3.90625 1.09375 -3.40625 Z M 1.09375 -3.40625 "/></g><g id="f5d3132aa0c9c1d306c9b929d4b5b5cehl90udi0__glyph-6-2"><path d="M 3.765625 -0.546875 L 3.765625 0.109375 L 5.234375 0 L 5.234375 -0.3125 C 4.53125 -0.3125 4.453125 -0.375 4.453125 -0.859375 L 4.453125 -6.890625 L 3.03125 -6.78125 L 3.03125 -6.46875 C 3.71875 -6.46875 3.796875 -6.40625 3.796875 -5.90625 L 3.796875 -3.765625 C 3.515625 -4.125 3.078125 -4.390625 2.546875 -4.390625 C 1.375 -4.390625 0.34375 -3.40625 0.34375 -2.140625 C 0.34375 -0.875 1.3125 0.109375 2.4375 0.109375 C 3.078125 0.109375 3.515625 -0.234375 3.765625 -0.546875 Z M 3.765625 -3.203125 L 3.765625 -1.171875 C 3.765625 -0.984375 3.765625 -0.96875 3.65625 -0.796875 C 3.359375 -0.328125 2.921875 -0.109375 2.484375 -0.109375 C 2.046875 -0.109375 1.6875 -0.359375 1.453125 -0.75 C 1.1875 -1.15625 1.15625 -1.71875 1.15625 -2.125 C 1.15625 -2.484375 1.1875 -3.078125 1.46875 -3.53125 C 1.671875 -3.84375 2.046875 -4.171875 2.59375 -4.171875 C 2.9375 -4.171875 3.359375 -4.015625 3.65625 -3.578125 C 3.765625 -3.40625 3.765625 -3.390625 3.765625 -3.203125 Z M 3.765625 -3.203125 "/></g></g><clipPath id="f5d3132aa0c9c1d306c9b929d4b5b5cehl90udi0__clip-0"><path d="M 67 37 L 134 37 L 134 121.984375 L 67 121.984375 Z M 67 37 " clip-rule="nonzero"/></clipPath><clipPath id="f5d3132aa0c9c1d306c9b929d4b5b5cehl90udi0__clip-1"><path d="M 131 37 L 198 37 L 198 121.984375 L 131 121.984375 Z M 131 37 " clip-rule="nonzero"/></clipPath></defs><g fill="rgb(0%, 0%, 0%)" fill-opacity="1"><use xlink:href="#f5d3132aa0c9c1d306c9b929d4b5b5cehl90udi0__glyph-0-0" x="64.647567" y="13.714013"/></g><g fill="rgb(0%, 0%, 0%)" fill-opacity="1"><use xlink:href="#f5d3132aa0c9c1d306c9b929d4b5b5cehl90udi0__glyph-0-0" x="192.444519" y="13.714013"/></g><g fill="rgb(0%, 0%, 0%)" fill-opacity="1"><use xlink:href="#f5d3132aa0c9c1d306c9b929d4b5b5cehl90udi0__glyph-0-0" x="64.647567" y="63.472247"/></g><g fill="rgb(0%, 0%, 0%)" fill-opacity="1"><use xlink:href="#f5d3132aa0c9c1d306c9b929d4b5b5cehl90udi0__glyph-0-0" x="128.546043" y="63.472247"/></g><g fill="rgb(0%, 0%, 0%)" fill-opacity="1"><use xlink:href="#f5d3132aa0c9c1d306c9b929d4b5b5cehl90udi0__glyph-0-0" x="192.444519" y="63.472247"/></g><g fill="rgb(0%, 0%, 0%)" fill-opacity="1"><use xlink:href="#f5d3132aa0c9c1d306c9b929d4b5b5cehl90udi0__glyph-0-0" x="64.647567" y="113.231477"/></g><g fill="rgb(0%, 0%, 0%)" fill-opacity="1"><use xlink:href="#f5d3132aa0c9c1d306c9b929d4b5b5cehl90udi0__glyph-0-1" x="128.255251" y="113.231477"/></g><g fill="rgb(0%, 0%, 0%)" fill-opacity="1"><use xlink:href="#f5d3132aa0c9c1d306c9b929d4b5b5cehl90udi0__glyph-0-0" x="192.444519" y="113.231477"/></g><path fill="none" stroke="rgb(0%, 0%, 0%)" stroke-linecap="butt" stroke-linejoin="miter" stroke-miterlimit="10" stroke-opacity="1" stroke-width="2.32874" d="M -55.939478 49.050942 L 55.941477 49.050942 " transform="matrix(0.995862, 0, 0, -0.995862, 132.266583, 60.082333)"/><path fill="none" stroke="rgb(100%, 100%, 100%)" stroke-linecap="butt" stroke-linejoin="miter" stroke-miterlimit="10" stroke-opacity="1" stroke-width="1.53175" d="M -55.939478 49.050942 L 55.941477 49.050942 " transform="matrix(0.995862, 0, 0, -0.995862, 132.266583, 60.082333)"/><path fill="none" stroke="rgb(0%, 0%, 0%)" stroke-linecap="butt" stroke-linejoin="miter" stroke-miterlimit="10" stroke-opacity="1" stroke-width="2.32874" d="M -64.164923 42.716133 L -64.164923 7.24905 " transform="matrix(0.995862, 0, 0, -0.995862, 132.266583, 60.082333)"/><path fill="none" stroke="rgb(100%, 100%, 100%)" stroke-linecap="butt" stroke-linejoin="miter" stroke-miterlimit="10" stroke-opacity="1" stroke-width="1.53175" d="M -64.164923 42.716133 L -64.164923 7.24905 " transform="matrix(0.995862, 0, 0, -0.995862, 132.266583, 60.082333)"/><path fill="none" stroke="rgb(0%, 0%, 0%)" stroke-linecap="butt" stroke-linejoin="miter" stroke-miterlimit="10" stroke-opacity="1" stroke-width="2.32874" d="M 64.163 42.716133 L 64.163 7.24905 " transform="matrix(0.995862, 0, 0, -0.995862, 132.266583, 60.082333)"/><path fill="none" stroke="rgb(100%, 100%, 100%)" stroke-linecap="butt" stroke-linejoin="miter" stroke-miterlimit="10" stroke-opacity="1" stroke-width="1.53175" d="M 64.163 42.716133 L 64.163 7.24905 " transform="matrix(0.995862, 0, 0, -0.995862, 132.266583, 60.082333)"/><path fill="none" stroke="rgb(0%, 0%, 0%)" stroke-linecap="butt" stroke-linejoin="miter" stroke-miterlimit="10" stroke-opacity="1" stroke-width="2.32874" d="M -55.939478 -0.913635 L -8.226407 -0.913635 " transform="matrix(0.995862, 0, 0, -0.995862, 132.266583, 60.082333)"/><path fill="none" stroke="rgb(100%, 100%, 100%)" stroke-linecap="butt" stroke-linejoin="miter" stroke-miterlimit="10" stroke-opacity="1" stroke-width="1.53175" d="M -55.939478 -0.913635 L -8.226407 -0.913635 " transform="matrix(0.995862, 0, 0, -0.995862, 132.266583, 60.082333)"/><path fill="none" stroke="rgb(0%, 0%, 0%)" stroke-linecap="butt" stroke-linejoin="miter" stroke-miterlimit="10" stroke-opacity="1" stroke-width="2.32874" d="M -64.164923 -7.248443 L -64.164923 -42.715526 " transform="matrix(0.995862, 0, 0, -0.995862, 132.266583, 60.082333)"/><path fill="none" stroke="rgb(100%, 100%, 100%)" stroke-linecap="butt" stroke-linejoin="miter" stroke-miterlimit="10" stroke-opacity="1" stroke-width="1.53175" d="M -64.164923 -7.248443 L -64.164923 -42.715526 " transform="matrix(0.995862, 0, 0, -0.995862, 132.266583, 60.082333)"/><path fill="none" stroke="rgb(0%, 0%, 0%)" stroke-linecap="butt" stroke-linejoin="miter" stroke-miterlimit="10" stroke-opacity="1" stroke-width="2.32874" d="M 8.224483 -0.913635 L 55.941477 -0.913635 " transform="matrix(0.995862, 0, 0, -0.995862, 132.266583, 60.082333)"/><path fill="none" stroke="rgb(100%, 100%, 100%)" stroke-linecap="butt" stroke-linejoin="miter" stroke-miterlimit="10" stroke-opacity="1" stroke-width="1.53175" d="M 8.224483 -0.913635 L 55.941477 -0.913635 " transform="matrix(0.995862, 0, 0, -0.995862, 132.266583, 60.082333)"/><path fill="none" stroke="rgb(0%, 0%, 0%)" stroke-linecap="butt" stroke-linejoin="miter" stroke-miterlimit="10" stroke-opacity="1" stroke-width="0.39848" d="M -0.000961687 -7.248443 L -0.000961687 -42.319356 " transform="matrix(0.995862, 0, 0, -0.995862, 132.266583, 60.082333)"/><path fill="none" stroke="rgb(0%, 0%, 0%)" stroke-linecap="round" stroke-linejoin="round" stroke-miterlimit="10" stroke-opacity="1" stroke-width="0.39848" d="M -2.073191 2.391752 C -1.69271 0.956124 -0.849377 0.277535 0.00180209 -0.000961687 C -0.849377 -0.279458 -1.69271 -0.958047 -2.073191 -2.389753 " transform="matrix(0, 0.995862, 0.995862, 0, 132.266583, 102.423987)"/><g fill="rgb(0%, 0%, 0%)" fill-opacity="1"><use xlink:href="#f5d3132aa0c9c1d306c9b929d4b5b5cehl90udi0__glyph-1-0" x="125.284596" y="86.698731"/></g><path fill="none" stroke="rgb(0%, 0%, 0%)" stroke-linecap="butt" stroke-linejoin="miter" stroke-miterlimit="10" stroke-opacity="1" stroke-width="2.32874" d="M 64.163 -7.248443 L 64.163 -42.715526 " transform="matrix(0.995862, 0, 0, -0.995862, 132.266583, 60.082333)"/><path fill="none" stroke="rgb(100%, 100%, 100%)" stroke-linecap="butt" stroke-linejoin="miter" stroke-miterlimit="10" stroke-opacity="1" stroke-width="1.53175" d="M 64.163 -7.248443 L 64.163 -42.715526 " transform="matrix(0.995862, 0, 0, -0.995862, 132.266583, 60.082333)"/><path fill="none" stroke="rgb(0%, 0%, 0%)" stroke-linecap="butt" stroke-linejoin="miter" stroke-miterlimit="10" stroke-opacity="1" stroke-width="0.39848" d="M -55.939478 -50.878211 L -8.916763 -50.878211 " transform="matrix(0.995862, 0, 0, -0.995862, 132.266583, 60.082333)"/><path fill="none" stroke="rgb(0%, 0%, 0%)" stroke-linecap="round" stroke-linejoin="round" stroke-miterlimit="10" stroke-opacity="1" stroke-width="0.39848" d="M -2.071447 2.38996 C -1.694889 0.958254 -0.851555 0.279665 -0.000376824 0.00116864 C -0.851555 -0.277328 -1.694889 -0.955917 -2.071447 -2.391545 " transform="matrix(0.995862, 0, 0, -0.995862, 123.586313, 110.751164)"/><g fill="rgb(0%, 0%, 0%)" fill-opacity="1"><use xlink:href="#f5d3132aa0c9c1d306c9b929d4b5b5cehl90udi0__glyph-2-0" x="94.768403" y="118.883989"/></g><g fill="rgb(0%, 0%, 0%)" fill-opacity="1"><use xlink:href="#f5d3132aa0c9c1d306c9b929d4b5b5cehl90udi0__glyph-1-1" x="99.24281" y="117.831363"/></g><g fill="rgb(0%, 0%, 0%)" fill-opacity="1"><use xlink:href="#f5d3132aa0c9c1d306c9b929d4b5b5cehl90udi0__glyph-3-0" x="99.06953" y="113.231477"/></g><path fill="none" stroke="rgb(0%, 0%, 0%)" stroke-linecap="butt" stroke-linejoin="miter" stroke-miterlimit="10" stroke-opacity="1" stroke-width="0.39848" d="M 8.518669 -50.878211 L 55.541384 -50.878211 " transform="matrix(0.995862, 0, 0, -0.995862, 132.266583, 60.082333)"/><path fill="none" stroke="rgb(0%, 0%, 0%)" stroke-linecap="round" stroke-linejoin="round" stroke-miterlimit="10" stroke-opacity="1" stroke-width="0.39848" d="M -2.07023 2.38996 C -1.693671 0.958254 -0.850338 0.279665 0.000840866 0.00116864 C -0.850338 -0.277328 -1.693671 -0.955917 -2.07023 -2.391545 " transform="matrix(0.995862, 0, 0, -0.995862, 187.776506, 110.751164)"/><g fill="rgb(0%, 0%, 0%)" fill-opacity="1"><use xlink:href="#f5d3132aa0c9c1d306c9b929d4b5b5cehl90udi0__glyph-1-1" x="159.125971" y="117.831363"/></g><g fill="rgb(0%, 0%, 0%)" fill-opacity="1"><use xlink:href="#f5d3132aa0c9c1d306c9b929d4b5b5cehl90udi0__glyph-2-0" x="165.121059" y="118.883989"/></g><g fill="rgb(0%, 0%, 0%)" fill-opacity="1"><use xlink:href="#f5d3132aa0c9c1d306c9b929d4b5b5cehl90udi0__glyph-3-0" x="163.258797" y="113.231477"/></g><path fill="none" stroke="rgb(0%, 0%, 0%)" stroke-linecap="butt" stroke-linejoin="miter" stroke-miterlimit="10" stroke-opacity="1" stroke-width="2.32874" d="M -0.000961687 41.382489 L -0.000961687 9.437795 " transform="matrix(0.995862, 0, 0, -0.995862, 132.266583, 60.082333)"/><path fill="none" stroke="rgb(100%, 100%, 100%)" stroke-linecap="butt" stroke-linejoin="miter" stroke-miterlimit="10" stroke-opacity="1" stroke-width="1.53175" d="M -0.000961687 41.382489 L -0.000961687 9.437795 " transform="matrix(0.995862, 0, 0, -0.995862, 132.266583, 60.082333)"/><path fill="none" stroke="rgb(0%, 0%, 0%)" stroke-linecap="round" stroke-linejoin="round" stroke-miterlimit="10" stroke-opacity="1" stroke-width="0.39848" d="M -1.291642 2.556497 C -0.664045 1.207163 1.022623 0.0500306 1.987553 -0.000961687 C 1.022623 -0.0480315 -0.664045 -1.205164 -1.291642 -2.55842 " transform="matrix(0, 0.995862, 0.995862, 0, 132.266583, 50.684734)"/><path fill="rgb(100%, 100%, 100%)" fill-opacity="1" fill-rule="nonzero" d="M 127.03125 36.949219 L 137.503906 36.949219 L 137.503906 27.839844 L 127.03125 27.839844 Z M 127.03125 36.949219 "/><g fill="rgb(0%, 0%, 0%)" fill-opacity="1"><use xlink:href="#f5d3132aa0c9c1d306c9b929d4b5b5cehl90udi0__glyph-4-0" x="129.166465" y="32.643354"/></g><g fill="rgb(0%, 0%, 0%)" fill-opacity="1"><use xlink:href="#f5d3132aa0c9c1d306c9b929d4b5b5cehl90udi0__glyph-5-0" x="129.221237" y="34.815328"/></g><g clip-path="url(#f5d3132aa0c9c1d306c9b929d4b5b5cehl90udi0__clip-0)"><path fill="none" stroke="rgb(0%, 0%, 0%)" stroke-linecap="butt" stroke-linejoin="miter" stroke-miterlimit="10" stroke-opacity="1" stroke-width="2.32874" d="M -32.1104 -10.578631 L -32.192772 -39.028393 " transform="matrix(0.995862, 0, 0, -0.995862, 132.266583, 60.082333)"/></g><path fill="none" stroke="rgb(100%, 100%, 100%)" stroke-linecap="butt" stroke-linejoin="miter" stroke-miterlimit="10" stroke-opacity="1" stroke-width="1.53175" d="M -32.1104 -10.578631 L -32.192772 -39.028393 " transform="matrix(0.995862, 0, 0, -0.995862, 132.266583, 60.082333)"/><path fill="none" stroke="rgb(0%, 0%, 0%)" stroke-linecap="round" stroke-linejoin="round" stroke-miterlimit="10" stroke-opacity="1" stroke-width="0.39848" d="M -1.294187 2.558654 C -0.666533 1.207196 1.023583 0.0471359 1.988684 -0.0010301 C 1.023859 -0.0470057 -0.66731 -1.205205 -1.29489 -2.556418 " transform="matrix(-0.00291788, 0.995832, 0.995832, 0.00291788, 100.206047, 98.949295)"/><g clip-path="url(#f5d3132aa0c9c1d306c9b929d4b5b5cehl90udi0__clip-1)"><path fill="none" stroke="rgb(0%, 0%, 0%)" stroke-linecap="butt" stroke-linejoin="miter" stroke-miterlimit="10" stroke-opacity="1" stroke-width="2.32874" d="M 32.112399 -10.578631 L 32.194771 -39.028393 " transform="matrix(0.995862, 0, 0, -0.995862, 132.266583, 60.082333)"/></g><path fill="none" stroke="rgb(100%, 100%, 100%)" stroke-linecap="butt" stroke-linejoin="miter" stroke-miterlimit="10" stroke-opacity="1" stroke-width="1.53175" d="M 32.112399 -10.578631 L 32.194771 -39.028393 " transform="matrix(0.995862, 0, 0, -0.995862, 132.266583, 60.082333)"/><path fill="none" stroke="rgb(0%, 0%, 0%)" stroke-linecap="round" stroke-linejoin="round" stroke-miterlimit="10" stroke-opacity="1" stroke-width="0.39848" d="M -1.294884 2.558418 C -0.667304 1.207204 1.023865 0.0490049 1.988679 -0.000893312 C 1.023578 -0.0490593 -0.666528 -1.205197 -1.294181 -2.556654 " transform="matrix(0.00291788, 0.995832, 0.995832, -0.00291788, 164.327118, 98.949295)"/><g fill="rgb(0%, 0%, 0%)" fill-opacity="1"><use xlink:href="#f5d3132aa0c9c1d306c9b929d4b5b5cehl90udi0__glyph-6-0" x="216.281467" y="60.082333"/><use xlink:href="#f5d3132aa0c9c1d306c9b929d4b5b5cehl90udi0__glyph-6-1" x="221.242153" y="60.082333"/><use xlink:href="#f5d3132aa0c9c1d306c9b929d4b5b5cehl90udi0__glyph-6-2" x="226.754468" y="60.082333"/></g><g fill="rgb(0%, 0%, 0%)" fill-opacity="1"><use xlink:href="#f5d3132aa0c9c1d306c9b929d4b5b5cehl90udi0__glyph-0-1" x="248.661913" y="13.714013"/></g><g fill="rgb(0%, 0%, 0%)" fill-opacity="1"><use xlink:href="#f5d3132aa0c9c1d306c9b929d4b5b5cehl90udi0__glyph-0-0" x="313.142968" y="13.714013"/></g><g fill="rgb(0%, 0%, 0%)" fill-opacity="1"><use xlink:href="#f5d3132aa0c9c1d306c9b929d4b5b5cehl90udi0__glyph-0-1" x="377.041443" y="13.714013"/></g><g fill="rgb(0%, 0%, 0%)" fill-opacity="1"><use xlink:href="#f5d3132aa0c9c1d306c9b929d4b5b5cehl90udi0__glyph-0-1" x="248.662909" y="63.472247"/></g><g fill="rgb(0%, 0%, 0%)" fill-opacity="1"><use xlink:href="#f5d3132aa0c9c1d306c9b929d4b5b5cehl90udi0__glyph-0-1" x="312.852176" y="63.472247"/></g><g fill="rgb(0%, 0%, 0%)" fill-opacity="1"><use xlink:href="#f5d3132aa0c9c1d306c9b929d4b5b5cehl90udi0__glyph-0-1" x="377.041443" y="63.472247"/></g><g fill="rgb(0%, 0%, 0%)" fill-opacity="1"><use xlink:href="#f5d3132aa0c9c1d306c9b929d4b5b5cehl90udi0__glyph-0-1" x="248.662909" y="113.231477"/></g><g fill="rgb(0%, 0%, 0%)" fill-opacity="1"><use xlink:href="#f5d3132aa0c9c1d306c9b929d4b5b5cehl90udi0__glyph-0-1" x="377.041443" y="113.231477"/></g><path fill="none" stroke="rgb(0%, 0%, 0%)" stroke-linecap="butt" stroke-linejoin="miter" stroke-miterlimit="10" stroke-opacity="1" stroke-width="0.39848" d="M -55.938744 49.050942 L -8.621843 49.050942 " transform="matrix(0.995862, 0, 0, -0.995862, 316.863507, 60.082333)"/><path fill="none" stroke="rgb(0%, 0%, 0%)" stroke-linecap="round" stroke-linejoin="round" stroke-miterlimit="10" stroke-opacity="1" stroke-width="0.39848" d="M -2.072759 2.390766 C -1.692278 0.955137 -0.848945 0.28047 -0.00168845 -0.0019484 C -0.848945 -0.280445 -1.692278 -0.955112 -2.072759 -2.39074 " transform="matrix(0.995862, 0, 0, -0.995862, 308.474338, 11.232435)"/><g fill="rgb(0%, 0%, 0%)" fill-opacity="1"><use xlink:href="#f5d3132aa0c9c1d306c9b929d4b5b5cehl90udi0__glyph-1-1" x="279.510723" y="6.881405"/></g><g fill="rgb(0%, 0%, 0%)" fill-opacity="1"><use xlink:href="#f5d3132aa0c9c1d306c9b929d4b5b5cehl90udi0__glyph-2-0" x="285.843408" y="7.935027"/></g><g fill="rgb(0%, 0%, 0%)" fill-opacity="1"><use xlink:href="#f5d3132aa0c9c1d306c9b929d4b5b5cehl90udi0__glyph-3-0" x="283.81185" y="13.714013"/></g><path fill="none" stroke="rgb(0%, 0%, 0%)" stroke-linecap="butt" stroke-linejoin="miter" stroke-miterlimit="10" stroke-opacity="1" stroke-width="2.32874" d="M -64.458375 42.716133 L -64.458375 7.24905 " transform="matrix(0.995862, 0, 0, -0.995862, 316.863507, 60.082333)"/><path fill="none" stroke="rgb(100%, 100%, 100%)" stroke-linecap="butt" stroke-linejoin="miter" stroke-miterlimit="10" stroke-opacity="1" stroke-width="1.53175" d="M -64.458375 42.716133 L -64.458375 7.24905 " transform="matrix(0.995862, 0, 0, -0.995862, 316.863507, 60.082333)"/><path fill="none" stroke="rgb(0%, 0%, 0%)" stroke-linecap="butt" stroke-linejoin="miter" stroke-miterlimit="10" stroke-opacity="1" stroke-width="0.39848" d="M 8.225218 49.050942 L 55.542119 49.050942 " transform="matrix(0.995862, 0, 0, -0.995862, 316.863507, 60.082333)"/><path fill="none" stroke="rgb(0%, 0%, 0%)" stroke-linecap="round" stroke-linejoin="round" stroke-miterlimit="10" stroke-opacity="1" stroke-width="0.39848" d="M -2.073417 2.390766 C -1.692937 0.955137 -0.849603 0.28047 0.00157557 -0.0019484 C -0.849603 -0.280445 -1.692937 -0.955112 -2.073417 -2.39074 " transform="matrix(0.995862, 0, 0, -0.995862, 372.373431, 11.232435)"/><g fill="rgb(0%, 0%, 0%)" fill-opacity="1"><use xlink:href="#f5d3132aa0c9c1d306c9b929d4b5b5cehl90udi0__glyph-2-0" x="343.409199" y="7.935027"/></g><g fill="rgb(0%, 0%, 0%)" fill-opacity="1"><use xlink:href="#f5d3132aa0c9c1d306c9b929d4b5b5cehl90udi0__glyph-1-1" x="347.883606" y="6.881405"/></g><g fill="rgb(0%, 0%, 0%)" fill-opacity="1"><use xlink:href="#f5d3132aa0c9c1d306c9b929d4b5b5cehl90udi0__glyph-3-0" x="347.710326" y="13.714013"/></g><path fill="none" stroke="rgb(0%, 0%, 0%)" stroke-linecap="butt" stroke-linejoin="miter" stroke-miterlimit="10" stroke-opacity="1" stroke-width="0.39848" d="M -0.000226982 42.716133 L -0.000226982 7.649143 " transform="matrix(0.995862, 0, 0, -0.995862, 316.863507, 60.082333)"/><path fill="none" stroke="rgb(0%, 0%, 0%)" stroke-linecap="round" stroke-linejoin="round" stroke-miterlimit="10" stroke-opacity="1" stroke-width="0.39848" d="M -2.071647 2.392487 C -1.695089 0.956859 -0.851755 0.278269 -0.000576868 -0.000226982 C -0.851755 -0.278723 -1.695089 -0.957313 -2.071647 -2.389019 " transform="matrix(0, 0.995862, 0.995862, 0, 316.863507, 52.664637)"/><path fill="rgb(100%, 100%, 100%)" fill-opacity="1" fill-rule="nonzero" d="M 312.402344 40.425781 L 321.324219 40.425781 L 321.324219 29.980469 L 312.402344 29.980469 Z M 312.402344 40.425781 "/><g fill="rgb(0%, 0%, 0%)" fill-opacity="1"><use xlink:href="#f5d3132aa0c9c1d306c9b929d4b5b5cehl90udi0__glyph-1-0" x="314.540162" y="36.939501"/></g><path fill="none" stroke="rgb(0%, 0%, 0%)" stroke-linecap="butt" stroke-linejoin="miter" stroke-miterlimit="10" stroke-opacity="1" stroke-width="2.32874" d="M 64.457921 42.716133 L 64.457921 7.24905 " transform="matrix(0.995862, 0, 0, -0.995862, 316.863507, 60.082333)"/><path fill="none" stroke="rgb(100%, 100%, 100%)" stroke-linecap="butt" stroke-linejoin="miter" stroke-miterlimit="10" stroke-opacity="1" stroke-width="1.53175" d="M 64.457921 42.716133 L 64.457921 7.24905 " transform="matrix(0.995862, 0, 0, -0.995862, 316.863507, 60.082333)"/><path fill="none" stroke="rgb(0%, 0%, 0%)" stroke-linecap="butt" stroke-linejoin="miter" stroke-miterlimit="10" stroke-opacity="1" stroke-width="2.32874" d="M -55.938744 -0.913635 L -8.515936 -0.913635 " transform="matrix(0.995862, 0, 0, -0.995862, 316.863507, 60.082333)"/><path fill="none" stroke="rgb(100%, 100%, 100%)" stroke-linecap="butt" stroke-linejoin="miter" stroke-miterlimit="10" stroke-opacity="1" stroke-width="1.53175" d="M -55.938744 -0.913635 L -8.515936 -0.913635 " transform="matrix(0.995862, 0, 0, -0.995862, 316.863507, 60.082333)"/><path fill="none" stroke="rgb(0%, 0%, 0%)" stroke-linecap="butt" stroke-linejoin="miter" stroke-miterlimit="10" stroke-opacity="1" stroke-width="2.32874" d="M -64.458375 -7.248443 L -64.458375 -42.715526 " transform="matrix(0.995862, 0, 0, -0.995862, 316.863507, 60.082333)"/><path fill="none" stroke="rgb(100%, 100%, 100%)" stroke-linecap="butt" stroke-linejoin="miter" stroke-miterlimit="10" stroke-opacity="1" stroke-width="1.53175" d="M -64.458375 -7.248443 L -64.458375 -42.715526 " transform="matrix(0.995862, 0, 0, -0.995862, 316.863507, 60.082333)"/><path fill="none" stroke="rgb(0%, 0%, 0%)" stroke-linecap="butt" stroke-linejoin="miter" stroke-miterlimit="10" stroke-opacity="1" stroke-width="2.32874" d="M 8.515482 -0.913635 L 55.93829 -0.913635 " transform="matrix(0.995862, 0, 0, -0.995862, 316.863507, 60.082333)"/><path fill="none" stroke="rgb(100%, 100%, 100%)" stroke-linecap="butt" stroke-linejoin="miter" stroke-miterlimit="10" stroke-opacity="1" stroke-width="1.53175" d="M 8.515482 -0.913635 L 55.93829 -0.913635 " transform="matrix(0.995862, 0, 0, -0.995862, 316.863507, 60.082333)"/><path fill="none" stroke="rgb(0%, 0%, 0%)" stroke-linecap="butt" stroke-linejoin="miter" stroke-miterlimit="10" stroke-opacity="1" stroke-width="2.32874" d="M 64.457921 -7.248443 L 64.457921 -42.715526 " transform="matrix(0.995862, 0, 0, -0.995862, 316.863507, 60.082333)"/><path fill="none" stroke="rgb(100%, 100%, 100%)" stroke-linecap="butt" stroke-linejoin="miter" stroke-miterlimit="10" stroke-opacity="1" stroke-width="1.53175" d="M 64.457921 -7.248443 L 64.457921 -42.715526 " transform="matrix(0.995862, 0, 0, -0.995862, 316.863507, 60.082333)"/><path fill="none" stroke="rgb(0%, 0%, 0%)" stroke-linecap="butt" stroke-linejoin="miter" stroke-miterlimit="10" stroke-opacity="1" stroke-width="2.32874" d="M -55.938744 -50.878211 L 55.93829 -50.878211 " transform="matrix(0.995862, 0, 0, -0.995862, 316.863507, 60.082333)"/><path fill="none" stroke="rgb(100%, 100%, 100%)" stroke-linecap="butt" stroke-linejoin="miter" stroke-miterlimit="10" stroke-opacity="1" stroke-width="1.53175" d="M -55.938744 -50.878211 L 55.93829 -50.878211 " transform="matrix(0.995862, 0, 0, -0.995862, 316.863507, 60.082333)"/><path fill="none" stroke="rgb(0%, 0%, 0%)" stroke-linecap="butt" stroke-linejoin="miter" stroke-miterlimit="10" stroke-opacity="1" stroke-width="2.32874" d="M -32.109665 39.389868 L -32.192037 10.936183 " transform="matrix(0.995862, 0, 0, -0.995862, 316.863507, 60.082333)"/><path fill="none" stroke="rgb(100%, 100%, 100%)" stroke-linecap="butt" stroke-linejoin="miter" stroke-miterlimit="10" stroke-opacity="1" stroke-width="1.53175" d="M -32.109665 39.389868 L -32.192037 10.936183 " transform="matrix(0.995862, 0, 0, -0.995862, 316.863507, 60.082333)"/><path fill="none" stroke="rgb(0%, 0%, 0%)" stroke-linecap="round" stroke-linejoin="round" stroke-miterlimit="10" stroke-opacity="1" stroke-width="0.39848" d="M -1.292645 2.559393 C -0.664992 1.207935 1.021202 0.0478636 1.986303 -0.000302353 C 1.02149 -0.0502005 -0.665769 -1.204466 -1.293348 -2.555679 " transform="matrix(-0.00291788, 0.995832, 0.995832, 0.00291788, 284.802972, 49.189946)"/><path fill="none" stroke="rgb(0%, 0%, 0%)" stroke-linecap="butt" stroke-linejoin="miter" stroke-miterlimit="10" stroke-opacity="1" stroke-width="2.32874" d="M 32.109211 39.389868 L 32.195506 10.936183 " transform="matrix(0.995862, 0, 0, -0.995862, 316.863507, 60.082333)"/><path fill="none" stroke="rgb(100%, 100%, 100%)" stroke-linecap="butt" stroke-linejoin="miter" stroke-miterlimit="10" stroke-opacity="1" stroke-width="1.53175" d="M 32.109211 39.389868 L 32.195506 10.936183 " transform="matrix(0.995862, 0, 0, -0.995862, 316.863507, 60.082333)"/><path fill="none" stroke="rgb(0%, 0%, 0%)" stroke-linecap="round" stroke-linejoin="round" stroke-miterlimit="10" stroke-opacity="1" stroke-width="0.39848" d="M -1.293338 2.559148 C -0.665759 1.207935 1.021488 0.0497466 1.986302 -0.000151621 C 1.021201 -0.0483176 -0.664982 -1.204466 -1.292635 -2.555924 " transform="matrix(0.00291788, 0.995832, 0.995832, -0.00291788, 348.924043, 49.189946)"/><path fill="none" stroke="rgb(0%, 0%, 0%)" stroke-linecap="butt" stroke-linejoin="miter" stroke-miterlimit="10" stroke-opacity="1" stroke-width="2.32874" d="M -0.000226982 -7.248443 L -0.000226982 -41.021014 " transform="matrix(0.995862, 0, 0, -0.995862, 316.863507, 60.082333)"/><path fill="none" stroke="rgb(100%, 100%, 100%)" stroke-linecap="butt" stroke-linejoin="miter" stroke-miterlimit="10" stroke-opacity="1" stroke-width="1.53175" d="M -0.000226982 -7.248443 L -0.000226982 -41.021014 " transform="matrix(0.995862, 0, 0, -0.995862, 316.863507, 60.082333)"/><path fill="none" stroke="rgb(0%, 0%, 0%)" stroke-linecap="round" stroke-linejoin="round" stroke-miterlimit="10" stroke-opacity="1" stroke-width="0.39848" d="M -1.294095 2.557231 C -0.666498 1.207897 1.024092 0.0468428 1.989022 -0.000226982 C 1.024092 -0.0472968 -0.666498 -1.204429 -1.294095 -2.557685 " transform="matrix(0, 0.995862, 0.995862, 0, 316.863507, 100.933271)"/><path fill="rgb(100%, 100%, 100%)" fill-opacity="1" fill-rule="nonzero" d="M 311.628906 93.234375 L 322.101562 93.234375 L 322.101562 84.125 L 311.628906 84.125 Z M 311.628906 93.234375 "/><g fill="rgb(0%, 0%, 0%)" fill-opacity="1"><use xlink:href="#f5d3132aa0c9c1d306c9b929d4b5b5cehl90udi0__glyph-4-0" x="313.76339" y="88.92747"/></g><g fill="rgb(0%, 0%, 0%)" fill-opacity="1"><use xlink:href="#f5d3132aa0c9c1d306c9b929d4b5b5cehl90udi0__glyph-5-0" x="313.818162" y="91.098449"/></g></svg>