<?xml version="1.0" encoding="UTF-8"?><svg xmlns="http://www.w3.org/2000/svg" xmlns:xlink="http://www.w3.org/1999/xlink" width="343.711" height="55.484" viewBox="0 0 343.711 55.484"><defs><g><g id="51ed60aa63c39da9c1064441d4f024d56otj9k2w__glyph-0-0"><path d="M 3.46875 -2.859375 C 4.703125 -2.859375 5.75 -3.75 5.75 -4.859375 C 5.75 -5.921875 4.765625 -6.859375 3.40625 -6.859375 L 0.953125 -6.859375 L 0.953125 0 L 1.828125 0 L 1.828125 -2.859375 Z M 3.1875 -6.296875 C 4.28125 -6.296875 4.953125 -5.703125 4.953125 -4.859375 C 4.953125 -4.078125 4.328125 -3.421875 3.1875 -3.421875 L 1.796875 -3.421875 L 1.796875 -6.296875 Z M 3.1875 -6.296875 "/></g><g id="51ed60aa63c39da9c1064441d4f024d56otj9k2w__glyph-0-1"><path d="M 1.546875 -2.109375 C 1.546875 -3.09375 2.265625 -3.8125 3.234375 -3.828125 L 3.234375 -4.5 C 2.34375 -4.484375 1.8125 -4 1.5 -3.546875 L 1.5 -4.4375 L 0.8125 -4.4375 L 0.8125 0 L 1.546875 0 Z M 1.546875 -2.109375 "/></g><g id="51ed60aa63c39da9c1064441d4f024d56otj9k2w__glyph-1-0"><path d="M 2.84375 -4.15625 C 2.90625 -4.40625 2.921875 -4.46875 3.5625 -4.46875 C 3.78125 -4.46875 3.84375 -4.46875 3.84375 -4.625 C 3.84375 -4.625 3.84375 -4.71875 3.734375 -4.71875 C 3.578125 -4.71875 3.390625 -4.703125 3.21875 -4.703125 C 3.046875 -4.6875 2.84375 -4.6875 2.671875 -4.6875 C 2.515625 -4.6875 2.328125 -4.703125 2.1875 -4.703125 C 2.046875 -4.703125 1.875 -4.71875 1.734375 -4.71875 C 1.703125 -4.71875 1.59375 -4.71875 1.59375 -4.5625 C 1.59375 -4.46875 1.671875 -4.46875 1.8125 -4.46875 C 1.828125 -4.46875 1.953125 -4.46875 2.078125 -4.453125 C 2.21875 -4.4375 2.234375 -4.421875 2.234375 -4.359375 C 2.234375 -4.34375 2.234375 -4.3125 2.203125 -4.203125 L 1.296875 -0.53125 C 1.234375 -0.296875 1.21875 -0.25 0.6875 -0.25 C 0.5625 -0.25 0.46875 -0.25 0.46875 -0.109375 C 0.46875 0 0.5625 0 0.6875 0 L 4.15625 0 C 4.328125 0 4.34375 0 4.390625 -0.140625 C 4.46875 -0.328125 4.984375 -1.671875 4.984375 -1.71875 C 4.984375 -1.734375 4.96875 -1.8125 4.859375 -1.8125 C 4.78125 -1.8125 4.765625 -1.78125 4.71875 -1.671875 C 4.46875 -1.015625 4.15625 -0.25 2.890625 -0.25 L 2.109375 -0.25 C 1.90625 -0.25 1.890625 -0.25 1.890625 -0.3125 C 1.890625 -0.328125 1.890625 -0.359375 1.921875 -0.46875 Z M 2.84375 -4.15625 "/></g><g id="51ed60aa63c39da9c1064441d4f024d56otj9k2w__glyph-1-1"><path d="M 1.453125 -0.109375 C 1.453125 0.265625 1.390625 0.71875 0.921875 1.15625 C 0.890625 1.1875 0.875 1.203125 0.875 1.234375 C 0.875 1.28125 0.921875 1.328125 0.96875 1.328125 C 1.0625 1.328125 1.65625 0.78125 1.65625 -0.046875 C 1.65625 -0.46875 1.484375 -0.796875 1.171875 -0.796875 C 0.9375 -0.796875 0.78125 -0.609375 0.78125 -0.40625 C 0.78125 -0.171875 0.9375 0 1.171875 0 C 1.34375 0 1.453125 -0.109375 1.453125 -0.109375 Z M 1.453125 -0.109375 "/></g><g id="51ed60aa63c39da9c1064441d4f024d56otj9k2w__glyph-1-2"><path d="M 5.828125 -4.765625 C 5.828125 -4.796875 5.796875 -4.859375 5.734375 -4.859375 C 5.6875 -4.859375 5.671875 -4.84375 5.609375 -4.765625 L 5.109375 -4.234375 C 5.046875 -4.328125 4.65625 -4.859375 3.8125 -4.859375 C 2.125 -4.859375 0.484375 -3.375 0.484375 -1.8125 C 0.484375 -0.734375 1.296875 0.140625 2.625 0.140625 C 3.234375 0.140625 3.875 -0.015625 4.234375 -0.40625 C 4.296875 -0.25 4.484375 0 4.578125 0 C 4.640625 0 4.640625 -0.03125 4.6875 -0.171875 L 4.8125 -0.71875 C 4.84375 -0.828125 4.9375 -1.25 4.96875 -1.328125 C 5.046875 -1.640625 5.0625 -1.65625 5.46875 -1.65625 C 5.515625 -1.65625 5.609375 -1.65625 5.609375 -1.796875 C 5.609375 -1.875 5.5625 -1.90625 5.515625 -1.90625 C 5.28125 -1.90625 5 -1.875 4.75 -1.875 C 4.578125 -1.875 4.34375 -1.875 4.171875 -1.890625 C 4 -1.890625 3.8125 -1.90625 3.625 -1.90625 C 3.578125 -1.90625 3.484375 -1.90625 3.484375 -1.75 C 3.484375 -1.65625 3.5625 -1.65625 3.734375 -1.65625 C 3.859375 -1.65625 4 -1.65625 4.125 -1.640625 C 4.34375 -1.625 4.359375 -1.59375 4.359375 -1.515625 C 4.359375 -1.484375 4.359375 -1.46875 4.3125 -1.296875 C 4.265625 -1.09375 4.1875 -0.78125 4.15625 -0.71875 C 3.953125 -0.296875 3.3125 -0.109375 2.78125 -0.109375 C 2.078125 -0.109375 1.1875 -0.4375 1.1875 -1.609375 C 1.1875 -2.34375 1.53125 -3.28125 2.03125 -3.796875 C 2.75 -4.5 3.484375 -4.609375 3.875 -4.609375 C 4.671875 -4.609375 5.140625 -4.03125 5.140625 -3.25 C 5.140625 -3.0625 5.125 -3.015625 5.125 -2.96875 C 5.125 -2.875 5.21875 -2.875 5.25 -2.875 C 5.359375 -2.875 5.359375 -2.90625 5.390625 -3.03125 Z M 5.828125 -4.765625 "/></g><g id="51ed60aa63c39da9c1064441d4f024d56otj9k2w__glyph-1-3"><path d="M 3.453125 -4.875 C 3.5 -4.96875 3.5 -4.984375 3.5 -5 C 3.5 -5.125 3.40625 -5.1875 3.328125 -5.1875 C 3.21875 -5.1875 3.1875 -5.09375 3.15625 -5 L 0.578125 1.421875 C 0.53125 1.515625 0.53125 1.53125 0.53125 1.546875 C 0.53125 1.671875 0.625 1.734375 0.703125 1.734375 C 0.8125 1.734375 0.84375 1.640625 0.890625 1.546875 Z M 3.453125 -4.875 "/></g><g id="51ed60aa63c39da9c1064441d4f024d56otj9k2w__glyph-1-4"><path d="M 5.765625 -3.96875 C 5.828125 -4.234375 5.9375 -4.453125 6.484375 -4.46875 C 6.53125 -4.46875 6.625 -4.46875 6.625 -4.625 C 6.625 -4.65625 6.59375 -4.71875 6.53125 -4.71875 C 6.296875 -4.71875 6.046875 -4.6875 5.8125 -4.6875 C 5.640625 -4.6875 5.234375 -4.71875 5.078125 -4.71875 C 5.046875 -4.71875 4.9375 -4.71875 4.9375 -4.5625 C 4.9375 -4.46875 5.03125 -4.46875 5.09375 -4.46875 C 5.421875 -4.46875 5.53125 -4.359375 5.53125 -4.1875 C 5.53125 -4.125 5.53125 -4.09375 5.5 -4.015625 L 4.75 -1.015625 L 3 -4.59375 C 2.9375 -4.71875 2.921875 -4.71875 2.765625 -4.71875 L 1.8125 -4.71875 C 1.6875 -4.71875 1.59375 -4.71875 1.59375 -4.5625 C 1.59375 -4.46875 1.671875 -4.46875 1.828125 -4.46875 C 1.96875 -4.46875 2.125 -4.46875 2.265625 -4.4375 L 1.34375 -0.734375 C 1.28125 -0.46875 1.15625 -0.265625 0.625 -0.25 C 0.578125 -0.25 0.46875 -0.234375 0.46875 -0.109375 C 0.46875 -0.03125 0.53125 0 0.578125 0 C 0.8125 0 1.0625 -0.03125 1.296875 -0.03125 C 1.46875 -0.03125 1.859375 0 2.03125 0 C 2.09375 0 2.171875 -0.03125 2.171875 -0.140625 C 2.171875 -0.234375 2.078125 -0.25 2.015625 -0.25 C 1.578125 -0.265625 1.578125 -0.4375 1.578125 -0.53125 C 1.578125 -0.5625 1.578125 -0.59375 1.609375 -0.71875 L 2.484375 -4.25 L 4.5 -0.125 C 4.5625 0 4.578125 0 4.65625 0 C 4.765625 0 4.765625 -0.015625 4.796875 -0.140625 Z M 5.765625 -3.96875 "/></g><g id="51ed60aa63c39da9c1064441d4f024d56otj9k2w__glyph-2-0"><path d="M 2.515625 -2.953125 C 2.046875 -3.15625 1.703125 -3.171875 1.453125 -3.171875 C 1.28125 -3.171875 0.234375 -3.171875 0.234375 -2.25 C 0.234375 -1.921875 0.421875 -1.75 0.515625 -1.671875 C 0.75 -1.421875 1.046875 -1.375 1.40625 -1.296875 C 1.734375 -1.234375 2.109375 -1.171875 2.109375 -0.828125 C 2.109375 -0.40625 1.53125 -0.40625 1.4375 -0.40625 C 1 -0.40625 0.578125 -0.5625 0.296875 -0.75 L 0.203125 -0.234375 C 0.4375 -0.125 0.859375 0.0625 1.4375 0.0625 C 1.75 0.0625 2.046875 0.015625 2.3125 -0.171875 C 2.5625 -0.359375 2.640625 -0.65625 2.640625 -0.890625 C 2.640625 -1.015625 2.625 -1.296875 2.34375 -1.546875 C 2.078125 -1.78125 1.84375 -1.828125 1.5 -1.890625 C 1.09375 -1.96875 0.78125 -2.03125 0.78125 -2.328125 C 0.78125 -2.734375 1.28125 -2.734375 1.390625 -2.734375 C 1.78125 -2.734375 2.078125 -2.640625 2.4375 -2.46875 Z M 2.515625 -2.953125 "/></g><g id="51ed60aa63c39da9c1064441d4f024d56otj9k2w__glyph-2-1"><path d="M 1.296875 -2.625 L 2.328125 -2.625 L 2.328125 -3.0625 L 1.296875 -3.0625 L 1.296875 -3.9375 L 0.765625 -3.9375 L 0.765625 -3.0625 L 0.140625 -3.0625 L 0.140625 -2.625 L 0.75 -2.625 L 0.75 -0.890625 C 0.75 -0.421875 0.859375 0.0625 1.359375 0.0625 C 1.859375 0.0625 2.234375 -0.09375 2.4375 -0.1875 L 2.328125 -0.625 C 2.09375 -0.46875 1.859375 -0.40625 1.671875 -0.40625 C 1.375 -0.40625 1.296875 -0.6875 1.296875 -1.015625 Z M 1.296875 -2.625 "/></g><g id="51ed60aa63c39da9c1064441d4f024d56otj9k2w__glyph-2-2"><path d="M 4.28125 -0.84375 C 3.796875 -0.546875 3.578125 -0.421875 2.875 -0.421875 C 1.8125 -0.421875 1.15625 -1.421875 1.15625 -2.40625 C 1.15625 -3.4375 1.875 -4.390625 2.875 -4.390625 C 3.328125 -4.390625 3.8125 -4.25 4.125 -4 L 4.234375 -4.640625 C 3.75 -4.8125 3.359375 -4.875 2.859375 -4.875 C 1.484375 -4.875 0.46875 -3.734375 0.46875 -2.40625 C 0.46875 -0.984375 1.546875 0.0625 2.90625 0.0625 C 3.578125 0.0625 3.859375 -0.0625 4.3125 -0.3125 Z M 4.28125 -0.84375 "/></g><g id="51ed60aa63c39da9c1064441d4f024d56otj9k2w__glyph-2-3"><path d="M 3.453125 -1.515625 C 3.453125 -2.421875 2.734375 -3.171875 1.828125 -3.171875 C 0.9375 -3.171875 0.203125 -2.421875 0.203125 -1.515625 C 0.203125 -0.640625 0.9375 0.0625 1.828125 0.0625 C 2.734375 0.0625 3.453125 -0.640625 3.453125 -1.515625 Z M 1.828125 -0.40625 C 1.28125 -0.40625 0.8125 -0.8125 0.8125 -1.59375 C 0.8125 -2.375 1.3125 -2.71875 1.828125 -2.71875 C 2.34375 -2.71875 2.859375 -2.359375 2.859375 -1.59375 C 2.859375 -0.796875 2.359375 -0.40625 1.828125 -0.40625 Z M 1.828125 -0.40625 "/></g><g id="51ed60aa63c39da9c1064441d4f024d56otj9k2w__glyph-2-4"><path d="M 1.375 -4.796875 L 0.671875 -4.796875 L 0.671875 0 L 1.375 0 Z M 1.375 -4.796875 "/></g><g id="51ed60aa63c39da9c1064441d4f024d56otj9k2w__glyph-2-5"><path d="M 3.21875 -2.046875 C 3.21875 -2.578125 3.046875 -3.140625 2.203125 -3.140625 C 1.8125 -3.140625 1.421875 -2.984375 1.125 -2.609375 L 1.125 -3.109375 L 0.578125 -3.109375 L 0.578125 0 L 1.171875 0 L 1.171875 -1.671875 C 1.171875 -2.140625 1.375 -2.671875 1.90625 -2.671875 C 2.609375 -2.671875 2.609375 -2.203125 2.609375 -2 L 2.609375 0 L 3.21875 0 Z M 3.21875 -2.046875 "/></g><g id="51ed60aa63c39da9c1064441d4f024d56otj9k2w__glyph-2-6"><path d="M 3.203125 -4.796875 L 2.625 -4.796875 L 2.625 -2.765625 C 2.171875 -3.09375 1.734375 -3.140625 1.53125 -3.140625 C 0.796875 -3.140625 0.25 -2.40625 0.25 -1.53125 C 0.25 -0.65625 0.796875 0.0625 1.5 0.0625 C 1.9375 0.0625 2.328125 -0.125 2.59375 -0.359375 L 2.59375 0 L 3.203125 0 Z M 2.59375 -0.859375 C 2.421875 -0.578125 2.15625 -0.390625 1.828125 -0.390625 C 1.34375 -0.390625 0.84375 -0.71875 0.84375 -1.53125 C 0.84375 -2.390625 1.4375 -2.671875 1.90625 -2.671875 C 2.1875 -2.671875 2.421875 -2.5625 2.59375 -2.328125 Z M 2.59375 -0.859375 "/></g><g id="51ed60aa63c39da9c1064441d4f024d56otj9k2w__glyph-2-7"><path d="M 1.3125 -2.625 L 2.15625 -2.625 L 2.15625 -3.0625 L 1.296875 -3.0625 L 1.296875 -3.875 C 1.296875 -4.28125 1.515625 -4.40625 1.734375 -4.40625 C 1.9375 -4.40625 2.109375 -4.3125 2.15625 -4.28125 L 2.15625 -4.796875 C 2.140625 -4.796875 1.953125 -4.859375 1.71875 -4.859375 C 1.1875 -4.859375 0.734375 -4.390625 0.734375 -3.671875 L 0.734375 -3.0625 L 0.203125 -3.0625 L 0.203125 -2.625 L 0.734375 -2.625 L 0.734375 0 L 1.3125 0 Z M 3.328125 -4.796875 L 2.75 -4.796875 L 2.75 0 L 3.328125 0 Z M 3.328125 -4.796875 "/></g><g id="51ed60aa63c39da9c1064441d4f024d56otj9k2w__glyph-3-0"><path d="M 3.109375 -3.453125 C 3.078125 -3.5 3.0625 -3.53125 3.03125 -3.5625 C 2.75 -3.359375 2.484375 -3.234375 2.21875 -3.234375 C 2.046875 -3.234375 1.921875 -3.265625 1.65625 -3.390625 C 1.46875 -3.484375 1.28125 -3.5625 1.078125 -3.5625 C 0.734375 -3.5625 0.515625 -3.40625 0.078125 -3.09375 C 0.109375 -3.046875 0.140625 -3.015625 0.15625 -2.984375 C 0.4375 -3.1875 0.703125 -3.3125 0.96875 -3.3125 C 1.140625 -3.3125 1.265625 -3.28125 1.53125 -3.140625 C 1.71875 -3.0625 1.90625 -2.984375 2.109375 -2.984375 C 2.453125 -2.984375 2.671875 -3.140625 3.109375 -3.453125 Z M 3.109375 -3.453125 "/></g><g id="51ed60aa63c39da9c1064441d4f024d56otj9k2w__glyph-4-0"><path d="M 3.234375 -0.703125 C 3.671875 -1.09375 3.90625 -1.765625 3.90625 -1.875 C 3.90625 -1.9375 3.84375 -1.9375 3.8125 -1.9375 C 3.71875 -1.9375 3.71875 -1.921875 3.6875 -1.828125 C 3.578125 -1.421875 3.34375 -1.09375 3.21875 -0.953125 C 3.203125 -1.0625 3.203125 -1.078125 3.1875 -1.21875 C 3.125 -1.953125 2.53125 -2.1875 2.078125 -2.1875 C 1.265625 -2.1875 0.53125 -1.515625 0.53125 -0.84375 C 0.53125 -0.34375 0.921875 0.046875 1.5625 0.046875 C 1.8125 0.046875 2.296875 0 2.84375 -0.375 C 2.9375 -0.15625 3.125 0.046875 3.4375 0.046875 C 3.765625 0.046875 3.953125 -0.1875 3.953125 -0.296875 C 3.953125 -0.359375 3.890625 -0.359375 3.859375 -0.359375 C 3.796875 -0.359375 3.78125 -0.359375 3.75 -0.296875 C 3.6875 -0.140625 3.5 -0.109375 3.453125 -0.109375 C 3.359375 -0.109375 3.265625 -0.203125 3.234375 -0.703125 Z M 2.796875 -0.5625 C 2.609375 -0.421875 2.15625 -0.109375 1.578125 -0.109375 C 1.28125 -0.109375 0.984375 -0.265625 0.984375 -0.6875 C 0.984375 -0.859375 1.046875 -1.3125 1.296875 -1.625 C 1.46875 -1.84375 1.765625 -2.015625 2.078125 -2.015625 C 2.578125 -2.015625 2.703125 -1.515625 2.75 -1.21875 C 2.765625 -1.109375 2.765625 -0.859375 2.796875 -0.5625 Z M 2.796875 -0.5625 "/></g><g id="51ed60aa63c39da9c1064441d4f024d56otj9k2w__glyph-5-0"><path d="M 4.53125 4.34375 C 4.625 4.34375 4.796875 4.34375 4.796875 4.1875 C 4.796875 4.015625 4.640625 4.015625 4.53125 4.015625 L 2.5625 4.015625 L 2.5625 0.828125 C 2.5625 0.71875 2.5625 0.53125 2.390625 0.53125 C 2.234375 0.53125 2.234375 0.6875 2.234375 0.796875 L 2.234375 4.015625 L 0.265625 4.015625 C 0.15625 4.015625 0 4.015625 0 4.1875 C 0 4.34375 0.171875 4.34375 0.265625 4.34375 Z M 4.53125 4.34375 "/></g></g></defs><g fill="rgb(0%, 0%, 0%)" fill-opacity="1"><use xlink:href="#51ed60aa63c39da9c1064441d4f024d56otj9k2w__glyph-0-0" x="106.626132" y="31.813138"/><use xlink:href="#51ed60aa63c39da9c1064441d4f024d56otj9k2w__glyph-0-1" x="112.932587" y="31.813138"/></g><g fill="rgb(0%, 0%, 0%)" fill-opacity="1"><use xlink:href="#51ed60aa63c39da9c1064441d4f024d56otj9k2w__glyph-1-0" x="116.442837" y="27.070247"/><use xlink:href="#51ed60aa63c39da9c1064441d4f024d56otj9k2w__glyph-1-1" x="121.857844" y="27.070247"/></g><g fill="rgb(0%, 0%, 0%)" fill-opacity="1"><use xlink:href="#51ed60aa63c39da9c1064441d4f024d56otj9k2w__glyph-2-0" x="124.202252" y="27.070247"/><use xlink:href="#51ed60aa63c39da9c1064441d4f024d56otj9k2w__glyph-2-1" x="127.016508" y="27.070247"/></g><g fill="rgb(0%, 0%, 0%)" fill-opacity="1"><use xlink:href="#51ed60aa63c39da9c1064441d4f024d56otj9k2w__glyph-1-2" x="116.442837" y="34.714159"/></g><g fill="rgb(0%, 0%, 0%)" fill-opacity="1"><use xlink:href="#51ed60aa63c39da9c1064441d4f024d56otj9k2w__glyph-0-0" x="209.730266" y="31.813138"/><use xlink:href="#51ed60aa63c39da9c1064441d4f024d56otj9k2w__glyph-0-1" x="216.036721" y="31.813138"/></g><g fill="rgb(0%, 0%, 0%)" fill-opacity="1"><use xlink:href="#51ed60aa63c39da9c1064441d4f024d56otj9k2w__glyph-1-0" x="219.54697" y="27.070247"/><use xlink:href="#51ed60aa63c39da9c1064441d4f024d56otj9k2w__glyph-1-1" x="224.961978" y="27.070247"/></g><g fill="rgb(0%, 0%, 0%)" fill-opacity="1"><use xlink:href="#51ed60aa63c39da9c1064441d4f024d56otj9k2w__glyph-2-0" x="227.306385" y="27.070247"/><use xlink:href="#51ed60aa63c39da9c1064441d4f024d56otj9k2w__glyph-2-1" x="230.120642" y="27.070247"/></g><g fill="rgb(0%, 0%, 0%)" fill-opacity="1"><use xlink:href="#51ed60aa63c39da9c1064441d4f024d56otj9k2w__glyph-1-2" x="219.54697" y="35.174874"/><use xlink:href="#51ed60aa63c39da9c1064441d4f024d56otj9k2w__glyph-1-3" x="225.692316" y="35.174874"/></g><g fill="rgb(0%, 0%, 0%)" fill-opacity="1"><use xlink:href="#51ed60aa63c39da9c1064441d4f024d56otj9k2w__glyph-1-4" x="229.314989" y="35.174874"/></g><path fill="none" stroke="rgb(0%, 0%, 0%)" stroke-linecap="butt" stroke-linejoin="miter" stroke-miterlimit="10" stroke-opacity="1" stroke-width="0.39848" d="M -37.448513 8.20105 C -16.769691 18.215199 14.983832 18.215199 33.525777 9.237948 " transform="matrix(0.990786, 0, 0, -0.990786, 171.712827, 29.625484)"/><path fill="none" stroke="rgb(0%, 0%, 0%)" stroke-linecap="round" stroke-linejoin="round" stroke-miterlimit="10" stroke-opacity="1" stroke-width="0.39848" d="M -2.070496 2.391852 C -1.695542 0.956955 -0.850686 0.279624 -0.000776008 -0.00100708 C -0.850778 -0.281137 -1.693472 -0.956362 -2.071503 -2.392244 " transform="matrix(0.891717, 0.431745, 0.431745, -0.891717, 205.106596, 20.558031)"/><g fill="rgb(0%, 0%, 0%)" fill-opacity="1"><use xlink:href="#51ed60aa63c39da9c1064441d4f024d56otj9k2w__glyph-2-2" x="159.116968" y="9.655207"/><use xlink:href="#51ed60aa63c39da9c1064441d4f024d56otj9k2w__glyph-2-3" x="163.807165" y="9.655207"/><use xlink:href="#51ed60aa63c39da9c1064441d4f024d56otj9k2w__glyph-2-4" x="167.478204" y="9.655207"/><use xlink:href="#51ed60aa63c39da9c1064441d4f024d56otj9k2w__glyph-2-5" x="169.51721" y="9.655207"/><use xlink:href="#51ed60aa63c39da9c1064441d4f024d56otj9k2w__glyph-2-6" x="173.307784" y="9.655207"/></g><g fill="rgb(0%, 0%, 0%)" fill-opacity="1"><use xlink:href="#51ed60aa63c39da9c1064441d4f024d56otj9k2w__glyph-3-0" x="177.520813" y="6.675914"/></g><g fill="rgb(0%, 0%, 0%)" fill-opacity="1"><use xlink:href="#51ed60aa63c39da9c1064441d4f024d56otj9k2w__glyph-4-0" x="177.098738" y="11.628852"/></g><path fill="none" stroke="rgb(0%, 0%, 0%)" stroke-linecap="butt" stroke-linejoin="miter" stroke-miterlimit="10" stroke-opacity="1" stroke-width="0.39848" d="M 32.591386 -9.12658 C 14.983832 -17.650434 -16.769691 -17.650434 -37.089739 -7.809759 " transform="matrix(0.990786, 0, 0, -0.990786, 171.712827, 29.625484)"/><path fill="none" stroke="rgb(0%, 0%, 0%)" stroke-linecap="round" stroke-linejoin="miter" stroke-miterlimit="10" stroke-opacity="1" stroke-width="0.39848" d="M -0.00157002 1.953639 C 0.680887 1.951764 1.236622 1.516241 1.234666 0.978381 C 1.236258 0.438803 0.682841 0.00147534 -0.00133416 -0.000198511 " transform="matrix(0.891727, -0.431735, -0.431735, -0.891727, 204.00501, 38.667216)"/><path fill="none" stroke="rgb(0%, 0%, 0%)" stroke-linecap="round" stroke-linejoin="round" stroke-miterlimit="10" stroke-opacity="1" stroke-width="0.39848" d="M -2.071834 2.390058 C -1.693374 0.956862 -0.848537 0.279501 0.00136821 -0.0011573 C -0.850365 -0.277713 -1.691364 -0.956463 -2.07116 -2.38879 " transform="matrix(-0.891727, -0.431715, -0.431715, 0.891727, 134.785877, 37.278966)"/><g fill="rgb(0%, 0%, 0%)" fill-opacity="1"><use xlink:href="#51ed60aa63c39da9c1064441d4f024d56otj9k2w__glyph-2-2" x="159.044641" y="51.860697"/><use xlink:href="#51ed60aa63c39da9c1064441d4f024d56otj9k2w__glyph-2-3" x="163.734837" y="51.860697"/><use xlink:href="#51ed60aa63c39da9c1064441d4f024d56otj9k2w__glyph-2-4" x="167.405877" y="51.860697"/><use xlink:href="#51ed60aa63c39da9c1064441d4f024d56otj9k2w__glyph-2-5" x="169.444882" y="51.860697"/><use xlink:href="#51ed60aa63c39da9c1064441d4f024d56otj9k2w__glyph-2-7" x="173.235457" y="51.860697"/></g><g fill="rgb(0%, 0%, 0%)" fill-opacity="1"><use xlink:href="#51ed60aa63c39da9c1064441d4f024d56otj9k2w__glyph-4-0" x="177.171065" y="52.847519"/></g><g fill="rgb(0%, 0%, 0%)" fill-opacity="1"><use xlink:href="#51ed60aa63c39da9c1064441d4f024d56otj9k2w__glyph-5-0" x="168.209409" y="26.898841"/></g></svg>