<?xml version="1.0" encoding="UTF-8"?><svg xmlns="http://www.w3.org/2000/svg" xmlns:xlink="http://www.w3.org/1999/xlink" width="343.711" height="132.308" viewBox="0 0 343.711 132.308"><defs><g><g id="4f8ec44ddfb707f05c076719bd8ca51doahxxb1r__glyph-0-0"><path d="M 2.015625 -0.015625 C 2.015625 -0.640625 1.765625 -1.046875 1.375 -1.046875 C 1.03125 -1.046875 0.859375 -0.78125 0.859375 -0.53125 C 0.859375 -0.265625 1.015625 0 1.375 0 C 1.53125 0 1.65625 -0.0625 1.75 -0.140625 L 1.765625 -0.15625 C 1.78125 -0.15625 1.796875 -0.15625 1.796875 -0.015625 C 1.796875 0.625 1.515625 1.234375 1.078125 1.6875 C 1.015625 1.75 1.015625 1.765625 1.015625 1.796875 C 1.015625 1.875 1.0625 1.90625 1.109375 1.90625 C 1.234375 1.90625 2.015625 1.125 2.015625 -0.015625 Z M 2.015625 -0.015625 "/></g></g><clipPath id="4f8ec44ddfb707f05c076719bd8ca51doahxxb1r__clip-0"><path d="M 17 0 L 102 0 L 102 131.621094 L 17 131.621094 Z M 17 0 " clip-rule="nonzero"/></clipPath><clipPath id="4f8ec44ddfb707f05c076719bd8ca51doahxxb1r__clip-1"><path d="M 73 0 L 159 0 L 159 131.621094 L 73 131.621094 Z M 73 0 " clip-rule="nonzero"/></clipPath><clipPath id="4f8ec44ddfb707f05c076719bd8ca51doahxxb1r__clip-2"><path d="M 101 0 L 187 0 L 187 131.621094 L 101 131.621094 Z M 101 0 " clip-rule="nonzero"/></clipPath><clipPath id="4f8ec44ddfb707f05c076719bd8ca51doahxxb1r__clip-3"><path d="M 73 0 L 187 0 L 187 131.621094 L 73 131.621094 Z M 73 0 " clip-rule="nonzero"/></clipPath><clipPath id="4f8ec44ddfb707f05c076719bd8ca51doahxxb1r__clip-4"><path d="M 171 128 L 173 128 L 173 131.621094 L 171 131.621094 Z M 171 128 " clip-rule="nonzero"/></clipPath><clipPath id="4f8ec44ddfb707f05c076719bd8ca51doahxxb1r__clip-5"><path d="M 185 0 L 270 0 L 270 131.621094 L 185 131.621094 Z M 185 0 " clip-rule="nonzero"/></clipPath><clipPath id="4f8ec44ddfb707f05c076719bd8ca51doahxxb1r__clip-6"><path d="M 241 0 L 327 0 L 327 131.621094 L 241 131.621094 Z M 241 0 " clip-rule="nonzero"/></clipPath></defs><g clip-path="url(#4f8ec44ddfb707f05c076719bd8ca51doahxxb1r__clip-0)"><path fill="none" stroke="rgb(100%, 0%, 0%)" stroke-linecap="butt" stroke-linejoin="miter" stroke-miterlimit="10" stroke-opacity="1" stroke-width="1.99255" d="M -0.00109421 -0.00137686 C -0.00109421 -21.260425 28.345613 -21.260425 28.345613 -42.519474 L 28.345613 -56.694791 C 28.345613 -77.953839 -0.00109421 -77.953839 -0.00109421 -99.212888 L -0.00109421 -127.559594 " transform="matrix(0.994797, 0, 0, -0.994797, 45.379995, 0.990818)"/><path fill="none" stroke="rgb(0%, 0%, 100%)" stroke-linecap="butt" stroke-linejoin="miter" stroke-miterlimit="10" stroke-opacity="1" stroke-width="1.99255" d="M 28.345613 -0.00137686 C 28.345613 -8.50264 23.810297 -13.607325 18.367917 -18.028767 M 9.976601 -24.492083 C 4.534222 -28.913526 -0.00109421 -34.01821 -0.00109421 -42.519474 L -0.00109421 -56.694791 C -0.00109421 -65.196054 4.534222 -70.300739 9.976601 -74.722181 M 18.367917 -81.185497 C 23.810297 -85.606939 28.345613 -90.711624 28.345613 -99.212888 L 28.345613 -127.559594 " transform="matrix(0.994797, 0, 0, -0.994797, 45.379995, 0.990818)"/></g><g clip-path="url(#4f8ec44ddfb707f05c076719bd8ca51doahxxb1r__clip-1)"><path fill="none" stroke="rgb(0%, 100%, 0%)" stroke-linecap="butt" stroke-linejoin="miter" stroke-miterlimit="10" stroke-opacity="1" stroke-width="1.99255" d="M 85.039026 -0.00137686 L 85.039026 -28.348084 C 85.039026 -36.849347 80.50371 -41.954032 75.061331 -46.375474 M 66.670015 -52.83879 C 61.227636 -57.260233 56.69232 -62.364917 56.69232 -70.866181 L 56.69232 -127.559594 " transform="matrix(0.994797, 0, 0, -0.994797, 45.379995, 0.990818)"/></g><g clip-path="url(#4f8ec44ddfb707f05c076719bd8ca51doahxxb1r__clip-2)"><path fill="none" stroke="rgb(100%, 94.898987%, 0%)" stroke-linecap="butt" stroke-linejoin="miter" stroke-miterlimit="10" stroke-opacity="1" stroke-width="1.99255" d="M 113.385733 -0.00137686 L 113.385733 -85.041497 C 113.385733 -93.542761 108.850417 -98.647446 103.408038 -103.068888 M 95.016722 -109.532204 C 89.574342 -113.953646 85.039026 -119.058331 85.039026 -127.559594 " transform="matrix(0.994797, 0, 0, -0.994797, 45.379995, 0.990818)"/></g><g clip-path="url(#4f8ec44ddfb707f05c076719bd8ca51doahxxb1r__clip-3)"><path fill="none" stroke="rgb(0%, 0%, 0%)" stroke-linecap="butt" stroke-linejoin="miter" stroke-miterlimit="10" stroke-opacity="1" stroke-width="1.99255" d="M 56.69232 -0.00137686 L 56.69232 -28.348084 C 56.69232 -49.607132 85.039026 -49.607132 85.039026 -70.866181 L 85.039026 -85.041497 C 85.039026 -106.300546 113.385733 -106.300546 113.385733 -127.559594 " transform="matrix(0.994797, 0, 0, -0.994797, 45.379995, 0.990818)"/></g><path fill="none" stroke="rgb(0%, 0%, 0%)" stroke-linecap="butt" stroke-linejoin="miter" stroke-miterlimit="10" stroke-opacity="1" stroke-width="0.79701" d="M -8.502358 -0.00137686 L 121.890923 -0.00137686 " transform="matrix(0.994797, 0, 0, -0.994797, 45.379995, 0.990818)"/><path fill="none" stroke="rgb(0%, 0%, 0%)" stroke-linecap="butt" stroke-linejoin="miter" stroke-miterlimit="10" stroke-opacity="1" stroke-width="0.79701" d="M -8.502358 -128.977126 L 121.890923 -128.977126 " transform="matrix(0.994797, 0, 0, -0.994797, 45.379995, 0.990818)"/><g clip-path="url(#4f8ec44ddfb707f05c076719bd8ca51doahxxb1r__clip-4)"><g fill="rgb(0%, 0%, 0%)" fill-opacity="1"><use xlink:href="#4f8ec44ddfb707f05c076719bd8ca51doahxxb1r__glyph-0-0" x="170.33545" y="129.692679"/></g></g><path fill="none" stroke="rgb(100%, 0%, 0%)" stroke-linecap="butt" stroke-linejoin="miter" stroke-miterlimit="10" stroke-opacity="1" stroke-width="1.99255" d="M 0.00155619 -0.00137686 L 0.00155619 -127.559594 " transform="matrix(0.994797, 0, 0, -0.994797, 185.248452, 0.990818)"/><g clip-path="url(#4f8ec44ddfb707f05c076719bd8ca51doahxxb1r__clip-5)"><path fill="none" stroke="rgb(0%, 0%, 100%)" stroke-linecap="butt" stroke-linejoin="miter" stroke-miterlimit="10" stroke-opacity="1" stroke-width="1.99255" d="M 28.348263 -0.00137686 C 28.348263 -21.260425 56.69497 -21.260425 56.69497 -42.519474 L 56.69497 -56.694791 C 56.69497 -65.196054 52.159654 -70.300739 46.717275 -74.722181 M 38.325958 -81.185497 C 32.883579 -85.606939 28.348263 -90.711624 28.348263 -99.212888 L 28.348263 -127.559594 " transform="matrix(0.994797, 0, 0, -0.994797, 185.248452, 0.990818)"/><path fill="none" stroke="rgb(0%, 0%, 0%)" stroke-linecap="butt" stroke-linejoin="miter" stroke-miterlimit="10" stroke-opacity="1" stroke-width="1.99255" d="M 56.69497 -0.00137686 C 56.69497 -8.50264 52.159654 -13.607325 46.717275 -18.028767 M 38.325958 -24.492083 C 32.883579 -28.913526 28.348263 -34.01821 28.348263 -42.519474 L 28.348263 -56.694791 C 28.348263 -77.953839 56.69497 -77.953839 56.69497 -99.212888 L 56.69497 -127.559594 " transform="matrix(0.994797, 0, 0, -0.994797, 185.248452, 0.990818)"/></g><g clip-path="url(#4f8ec44ddfb707f05c076719bd8ca51doahxxb1r__clip-6)"><path fill="none" stroke="rgb(0%, 100%, 0%)" stroke-linecap="butt" stroke-linejoin="miter" stroke-miterlimit="10" stroke-opacity="1" stroke-width="1.99255" d="M 85.041677 -0.00137686 L 85.041677 -28.348084 C 85.041677 -49.607132 113.388384 -49.607132 113.388384 -70.866181 L 113.388384 -85.041497 C 113.388384 -93.542761 108.853068 -98.647446 103.410688 -103.068888 M 95.019372 -109.532204 C 89.576993 -113.953646 85.041677 -119.058331 85.041677 -127.559594 " transform="matrix(0.994797, 0, 0, -0.994797, 185.248452, 0.990818)"/><path fill="none" stroke="rgb(100%, 94.898987%, 0%)" stroke-linecap="butt" stroke-linejoin="miter" stroke-miterlimit="10" stroke-opacity="1" stroke-width="1.99255" d="M 113.388384 -0.00137686 L 113.388384 -28.348084 C 113.388384 -36.849347 108.853068 -41.954032 103.410688 -46.375474 M 95.019372 -52.83879 C 89.576993 -57.260233 85.041677 -62.364917 85.041677 -70.866181 L 85.041677 -85.041497 C 85.041677 -106.300546 113.388384 -106.300546 113.388384 -127.559594 " transform="matrix(0.994797, 0, 0, -0.994797, 185.248452, 0.990818)"/></g><path fill="none" stroke="rgb(0%, 0%, 0%)" stroke-linecap="butt" stroke-linejoin="miter" stroke-miterlimit="10" stroke-opacity="1" stroke-width="0.79701" d="M -8.503634 -0.00137686 L 121.889647 -0.00137686 " transform="matrix(0.994797, 0, 0, -0.994797, 185.248452, 0.990818)"/><path fill="none" stroke="rgb(0%, 0%, 0%)" stroke-linecap="butt" stroke-linejoin="miter" stroke-miterlimit="10" stroke-opacity="1" stroke-width="0.79701" d="M -8.503634 -128.977126 L 121.889647 -128.977126 " transform="matrix(0.994797, 0, 0, -0.994797, 185.248452, 0.990818)"/></svg>