<?xml version="1.0" encoding="UTF-8"?><svg xmlns="http://www.w3.org/2000/svg" xmlns:xlink="http://www.w3.org/1999/xlink" width="343.711" height="45.332" viewBox="0 0 343.711 45.332"><defs><clipPath id="0abe1f775b339220df1b1cab440e3b7b5h472z2h__clip-0"><path d="M 129 0 L 214 0 L 214 44.671875 L 129 44.671875 Z M 129 0 " clip-rule="nonzero"/></clipPath><clipPath id="0abe1f775b339220df1b1cab440e3b7b5h472z2h__clip-1"><path d="M 148 43 L 195 43 L 195 44.671875 L 148 44.671875 Z M 148 43 " clip-rule="nonzero"/></clipPath></defs><g clip-path="url(#0abe1f775b339220df1b1cab440e3b7b5h472z2h__clip-0)"><path fill="none" stroke="rgb(0%, 0%, 100%)" stroke-linecap="butt" stroke-linejoin="miter" stroke-miterlimit="10" stroke-opacity="1" stroke-width="1.99255" d="M 28.345897 0.00108333 C 28.345897 -8.505256 23.811297 -13.606681 18.368984 -18.026331 M 9.977595 -24.491308 C 4.535282 -28.914921 0.000681384 -34.016346 0.000681384 -42.518722 " transform="matrix(0.985478, 0, 0, -0.985478, 157.745422, 0.981536)"/><path fill="none" stroke="rgb(100%, 0%, 0%)" stroke-linecap="butt" stroke-linejoin="miter" stroke-miterlimit="10" stroke-opacity="1" stroke-width="1.99255" d="M 0.000681384 0.00108333 C 0.000681384 -21.260801 28.345897 -21.260801 28.345897 -42.518722 " transform="matrix(0.985478, 0, 0, -0.985478, 157.745422, 0.981536)"/></g><path fill="none" stroke="rgb(0%, 0%, 0%)" stroke-linecap="butt" stroke-linejoin="miter" stroke-miterlimit="10" stroke-opacity="1" stroke-width="0.79701" d="M -8.505658 0.00108333 L 36.852236 0.00108333 " transform="matrix(0.985478, 0, 0, -0.985478, 157.745422, 0.981536)"/><g clip-path="url(#0abe1f775b339220df1b1cab440e3b7b5h472z2h__clip-1)"><path fill="none" stroke="rgb(0%, 0%, 0%)" stroke-linecap="butt" stroke-linejoin="miter" stroke-miterlimit="10" stroke-opacity="1" stroke-width="0.79701" d="M -8.505658 -43.937766 L 36.852236 -43.937766 " transform="matrix(0.985478, 0, 0, -0.985478, 157.745422, 0.981536)"/></g></svg>