<?xml version="1.0" encoding="UTF-8"?><svg xmlns="http://www.w3.org/2000/svg" xmlns:xlink="http://www.w3.org/1999/xlink" width="343.711" height="79.471" viewBox="0 0 343.711 79.471"><defs><g><g id="463a50f517b990f9ef5505ca68aa44c890jjbt86__glyph-0-0"><path d="M 7.546875 -6 C 7.640625 -6.34375 7.65625 -6.453125 8.375 -6.453125 C 8.640625 -6.453125 8.71875 -6.453125 8.71875 -6.640625 C 8.71875 -6.75 8.609375 -6.75 8.578125 -6.75 C 8.296875 -6.75 7.59375 -6.71875 7.3125 -6.71875 C 7.015625 -6.71875 6.3125 -6.75 6.03125 -6.75 C 5.953125 -6.75 5.84375 -6.75 5.84375 -6.5625 C 5.84375 -6.453125 5.9375 -6.453125 6.125 -6.453125 C 6.140625 -6.453125 6.328125 -6.453125 6.5 -6.421875 C 6.671875 -6.40625 6.765625 -6.40625 6.765625 -6.265625 C 6.765625 -6.234375 6.75 -6.21875 6.71875 -6.078125 L 6.125 -3.671875 L 3.109375 -3.671875 L 3.703125 -6 C 3.78125 -6.34375 3.8125 -6.453125 4.53125 -6.453125 C 4.78125 -6.453125 4.859375 -6.453125 4.859375 -6.640625 C 4.859375 -6.75 4.75 -6.75 4.734375 -6.75 C 4.453125 -6.75 3.734375 -6.71875 3.46875 -6.71875 C 3.171875 -6.71875 2.46875 -6.75 2.1875 -6.75 C 2.109375 -6.75 2 -6.75 2 -6.5625 C 2 -6.453125 2.09375 -6.453125 2.28125 -6.453125 C 2.296875 -6.453125 2.484375 -6.453125 2.65625 -6.421875 C 2.828125 -6.40625 2.921875 -6.40625 2.921875 -6.265625 C 2.921875 -6.234375 2.90625 -6.203125 2.875 -6.078125 L 1.546875 -0.765625 C 1.453125 -0.390625 1.4375 -0.3125 0.65625 -0.3125 C 0.46875 -0.3125 0.390625 -0.3125 0.390625 -0.109375 C 0.390625 0 0.5 0 0.53125 0 C 0.796875 0 1.5 -0.03125 1.78125 -0.03125 C 1.984375 -0.03125 2.203125 -0.015625 2.40625 -0.015625 C 2.625 -0.015625 2.84375 0 3.0625 0 C 3.140625 0 3.25 0 3.25 -0.203125 C 3.25 -0.3125 3.171875 -0.3125 2.984375 -0.3125 C 2.609375 -0.3125 2.328125 -0.3125 2.328125 -0.484375 C 2.328125 -0.546875 2.359375 -0.59375 2.359375 -0.65625 L 3.03125 -3.359375 L 6.046875 -3.359375 C 5.640625 -1.71875 5.40625 -0.78125 5.375 -0.640625 C 5.265625 -0.3125 5.078125 -0.3125 4.46875 -0.3125 C 4.328125 -0.3125 4.234375 -0.3125 4.234375 -0.109375 C 4.234375 0 4.359375 0 4.375 0 C 4.65625 0 5.34375 -0.03125 5.625 -0.03125 C 5.828125 -0.03125 6.046875 -0.015625 6.265625 -0.015625 C 6.484375 -0.015625 6.703125 0 6.90625 0 C 6.984375 0 7.09375 0 7.09375 -0.203125 C 7.09375 -0.3125 7.015625 -0.3125 6.828125 -0.3125 C 6.453125 -0.3125 6.1875 -0.3125 6.1875 -0.484375 C 6.1875 -0.546875 6.203125 -0.59375 6.21875 -0.65625 Z M 7.546875 -6 "/></g><g id="463a50f517b990f9ef5505ca68aa44c890jjbt86__glyph-0-1"><path d="M 7 -2.296875 C 7.015625 -2.359375 7.046875 -2.421875 7.046875 -2.4375 C 7.046875 -2.453125 7.046875 -2.546875 6.9375 -2.546875 C 6.84375 -2.546875 6.828125 -2.5 6.8125 -2.4375 C 6.15625 -0.96875 5.796875 -0.3125 4.109375 -0.3125 L 2.65625 -0.3125 C 2.515625 -0.3125 2.5 -0.3125 2.4375 -0.3125 C 2.34375 -0.328125 2.3125 -0.34375 2.3125 -0.421875 C 2.3125 -0.4375 2.3125 -0.46875 2.359375 -0.640625 L 3.03125 -3.34375 L 4.015625 -3.34375 C 4.859375 -3.34375 4.859375 -3.140625 4.859375 -2.890625 C 4.859375 -2.8125 4.859375 -2.703125 4.78125 -2.40625 C 4.765625 -2.359375 4.75 -2.328125 4.75 -2.296875 C 4.75 -2.25 4.796875 -2.1875 4.890625 -2.1875 C 4.96875 -2.1875 5 -2.234375 5.03125 -2.390625 L 5.59375 -4.703125 C 5.59375 -4.75 5.546875 -4.8125 5.484375 -4.8125 C 5.390625 -4.8125 5.375 -4.75 5.34375 -4.625 C 5.140625 -3.875 4.953125 -3.65625 4.046875 -3.65625 L 3.109375 -3.65625 L 3.703125 -6.03125 C 3.796875 -6.375 3.8125 -6.421875 4.25 -6.421875 L 5.640625 -6.421875 C 6.84375 -6.421875 7.140625 -6.125 7.140625 -5.328125 C 7.140625 -5.078125 7.140625 -5.0625 7.09375 -4.796875 C 7.09375 -4.734375 7.09375 -4.671875 7.09375 -4.625 C 7.09375 -4.5625 7.125 -4.5 7.203125 -4.5 C 7.3125 -4.5 7.328125 -4.5625 7.34375 -4.75 L 7.546875 -6.453125 C 7.578125 -6.71875 7.53125 -6.71875 7.28125 -6.71875 L 2.28125 -6.71875 C 2.09375 -6.71875 1.984375 -6.71875 1.984375 -6.53125 C 1.984375 -6.421875 2.078125 -6.421875 2.265625 -6.421875 C 2.625 -6.421875 2.90625 -6.421875 2.90625 -6.234375 C 2.90625 -6.203125 2.90625 -6.1875 2.859375 -6 L 1.546875 -0.765625 C 1.453125 -0.390625 1.4375 -0.3125 0.65625 -0.3125 C 0.484375 -0.3125 0.375 -0.3125 0.375 -0.125 C 0.375 0 0.46875 0 0.65625 0 L 5.78125 0 C 6.015625 0 6.015625 -0.015625 6.09375 -0.171875 Z M 7 -2.296875 "/></g><g id="463a50f517b990f9ef5505ca68aa44c890jjbt86__glyph-0-2"><path d="M 1.578125 -0.765625 C 1.484375 -0.390625 1.46875 -0.3125 0.6875 -0.3125 C 0.515625 -0.3125 0.421875 -0.3125 0.421875 -0.109375 C 0.421875 0 0.5 0 0.6875 0 L 4.21875 0 C 5.78125 0 6.9375 -1.171875 6.9375 -2.140625 C 6.9375 -2.84375 6.375 -3.421875 5.40625 -3.53125 C 6.4375 -3.71875 7.484375 -4.453125 7.484375 -5.390625 C 7.484375 -6.125 6.828125 -6.75 5.640625 -6.75 L 2.3125 -6.75 C 2.125 -6.75 2.03125 -6.75 2.03125 -6.5625 C 2.03125 -6.453125 2.109375 -6.453125 2.296875 -6.453125 C 2.328125 -6.453125 2.515625 -6.453125 2.6875 -6.421875 C 2.859375 -6.40625 2.953125 -6.40625 2.953125 -6.265625 C 2.953125 -6.234375 2.9375 -6.203125 2.90625 -6.078125 Z M 3.078125 -3.625 L 3.6875 -6.078125 C 3.78125 -6.421875 3.796875 -6.453125 4.21875 -6.453125 L 5.5 -6.453125 C 6.375 -6.453125 6.578125 -5.859375 6.578125 -5.4375 C 6.578125 -4.5625 5.734375 -3.625 4.515625 -3.625 Z M 2.625 -0.3125 C 2.5 -0.3125 2.46875 -0.3125 2.40625 -0.3125 C 2.3125 -0.328125 2.28125 -0.34375 2.28125 -0.421875 C 2.28125 -0.4375 2.28125 -0.46875 2.328125 -0.640625 L 3.015625 -3.40625 L 4.890625 -3.40625 C 5.828125 -3.40625 6.015625 -2.671875 6.015625 -2.25 C 6.015625 -1.265625 5.140625 -0.3125 3.96875 -0.3125 Z M 2.625 -0.3125 "/></g><g id="463a50f517b990f9ef5505ca68aa44c890jjbt86__glyph-0-3"><path d="M 3.703125 -6 C 3.78125 -6.34375 3.8125 -6.453125 4.59375 -6.453125 C 4.84375 -6.453125 4.921875 -6.453125 4.921875 -6.640625 C 4.921875 -6.75 4.8125 -6.75 4.765625 -6.75 C 4.484375 -6.75 3.75 -6.71875 3.46875 -6.71875 C 3.171875 -6.71875 2.4375 -6.75 2.140625 -6.75 C 2.078125 -6.75 1.953125 -6.75 1.953125 -6.5625 C 1.953125 -6.453125 2.03125 -6.453125 2.21875 -6.453125 C 2.640625 -6.453125 2.90625 -6.453125 2.90625 -6.265625 C 2.90625 -6.21875 2.90625 -6.1875 2.890625 -6.109375 L 1.546875 -0.765625 C 1.46875 -0.40625 1.4375 -0.3125 0.65625 -0.3125 C 0.421875 -0.3125 0.34375 -0.3125 0.34375 -0.109375 C 0.34375 0 0.453125 0 0.484375 0 C 0.765625 0 1.5 -0.03125 1.78125 -0.03125 C 2.078125 -0.03125 2.8125 0 3.109375 0 C 3.1875 0 3.296875 0 3.296875 -0.1875 C 3.296875 -0.3125 3.21875 -0.3125 3 -0.3125 C 2.828125 -0.3125 2.78125 -0.3125 2.578125 -0.328125 C 2.375 -0.34375 2.328125 -0.390625 2.328125 -0.5 C 2.328125 -0.578125 2.359375 -0.65625 2.375 -0.71875 Z M 3.703125 -6 "/></g><g id="463a50f517b990f9ef5505ca68aa44c890jjbt86__glyph-1-0"><path d="M 2.234375 -1.71875 C 2.796875 -1.96875 3.0625 -2.0625 3.234375 -2.15625 C 3.359375 -2.203125 3.421875 -2.234375 3.421875 -2.375 C 3.421875 -2.484375 3.34375 -2.59375 3.21875 -2.59375 C 3.15625 -2.59375 3.15625 -2.59375 3.0625 -2.53125 L 2.125 -1.890625 L 2.234375 -2.921875 C 2.25 -3.046875 2.234375 -3.21875 2.015625 -3.21875 C 1.9375 -3.21875 1.8125 -3.15625 1.8125 -3.015625 C 1.8125 -2.953125 1.828125 -2.734375 1.84375 -2.671875 C 1.859375 -2.546875 1.90625 -2.0625 1.921875 -1.890625 L 0.984375 -2.53125 C 0.90625 -2.5625 0.890625 -2.59375 0.828125 -2.59375 C 0.703125 -2.59375 0.609375 -2.484375 0.609375 -2.375 C 0.609375 -2.234375 0.703125 -2.1875 0.765625 -2.171875 L 1.8125 -1.734375 C 1.234375 -1.484375 0.984375 -1.390625 0.8125 -1.296875 C 0.671875 -1.25 0.609375 -1.21875 0.609375 -1.09375 C 0.609375 -0.96875 0.703125 -0.859375 0.828125 -0.859375 C 0.875 -0.859375 0.890625 -0.859375 0.96875 -0.921875 L 1.921875 -1.5625 L 1.8125 -0.4375 C 1.8125 -0.296875 1.9375 -0.234375 2.015625 -0.234375 C 2.109375 -0.234375 2.234375 -0.296875 2.234375 -0.4375 C 2.234375 -0.5 2.203125 -0.71875 2.203125 -0.78125 C 2.1875 -0.90625 2.140625 -1.390625 2.125 -1.5625 L 2.953125 -1 C 3.140625 -0.859375 3.15625 -0.859375 3.21875 -0.859375 C 3.34375 -0.859375 3.421875 -0.96875 3.421875 -1.09375 C 3.421875 -1.21875 3.34375 -1.265625 3.28125 -1.28125 Z M 2.234375 -1.71875 "/></g><g id="463a50f517b990f9ef5505ca68aa44c890jjbt86__glyph-1-1"><path d="M 4.84375 -3.25 C 4.921875 -3.328125 4.9375 -3.359375 4.9375 -3.40625 C 4.9375 -3.515625 4.859375 -3.578125 4.78125 -3.578125 C 4.703125 -3.578125 4.6875 -3.5625 4.609375 -3.484375 L 3.09375 -1.96875 L 1.5625 -3.484375 C 1.5 -3.5625 1.46875 -3.578125 1.40625 -3.578125 C 1.3125 -3.578125 1.234375 -3.515625 1.234375 -3.40625 C 1.234375 -3.34375 1.25 -3.328125 1.328125 -3.25 L 2.84375 -1.734375 L 1.328125 -0.234375 C 1.234375 -0.125 1.234375 -0.09375 1.234375 -0.0625 C 1.234375 0.046875 1.3125 0.125 1.40625 0.125 C 1.46875 0.125 1.484375 0.09375 1.5625 0.015625 L 3.09375 -1.5 L 4.671875 0.078125 C 4.703125 0.109375 4.734375 0.125 4.78125 0.125 C 4.859375 0.125 4.9375 0.0625 4.9375 -0.0625 C 4.9375 -0.109375 4.921875 -0.125 4.90625 -0.140625 C 4.890625 -0.171875 3.546875 -1.515625 3.328125 -1.734375 Z M 4.84375 -3.25 "/></g><g id="463a50f517b990f9ef5505ca68aa44c890jjbt86__glyph-2-0"><path d="M 1.578125 -7.0625 C 1.578125 -7.234375 1.578125 -7.421875 1.375 -7.421875 C 1.171875 -7.421875 1.171875 -7.234375 1.171875 -7.0625 L 1.171875 2.109375 C 1.171875 2.296875 1.171875 2.46875 1.375 2.46875 C 1.578125 2.46875 1.578125 2.296875 1.578125 2.109375 Z M 1.578125 -7.0625 "/></g><g id="463a50f517b990f9ef5505ca68aa44c890jjbt86__glyph-2-1"><path d="M 3.84375 -2.75 L 1.875 -4.71875 C 1.75 -4.84375 1.734375 -4.859375 1.65625 -4.859375 C 1.546875 -4.859375 1.453125 -4.765625 1.453125 -4.65625 C 1.453125 -4.59375 1.46875 -4.5625 1.578125 -4.453125 L 3.5625 -2.46875 L 1.578125 -0.484375 C 1.46875 -0.375 1.453125 -0.359375 1.453125 -0.28125 C 1.453125 -0.171875 1.546875 -0.09375 1.65625 -0.09375 C 1.734375 -0.09375 1.75 -0.109375 1.875 -0.234375 L 3.84375 -2.203125 L 5.890625 -0.140625 C 5.90625 -0.140625 5.96875 -0.09375 6.03125 -0.09375 C 6.15625 -0.09375 6.234375 -0.171875 6.234375 -0.28125 C 6.234375 -0.3125 6.234375 -0.34375 6.203125 -0.390625 C 6.1875 -0.421875 4.625 -1.96875 4.125 -2.46875 L 5.9375 -4.28125 C 5.984375 -4.34375 6.125 -4.46875 6.1875 -4.53125 C 6.1875 -4.546875 6.234375 -4.59375 6.234375 -4.65625 C 6.234375 -4.765625 6.15625 -4.859375 6.03125 -4.859375 C 5.953125 -4.859375 5.921875 -4.8125 5.8125 -4.703125 Z M 3.84375 -2.75 "/></g><g id="463a50f517b990f9ef5505ca68aa44c890jjbt86__glyph-3-0"><path d="M 1.3125 -0.546875 C 1.25 -0.296875 1.234375 -0.25 0.703125 -0.25 C 0.59375 -0.25 0.5 -0.25 0.5 -0.109375 C 0.5 0 0.578125 0 0.703125 0 L 3.390625 0 C 4.546875 0 5.4375 -0.796875 5.4375 -1.484375 C 5.4375 -1.96875 4.984375 -2.390625 4.25 -2.46875 C 5.09375 -2.625 5.796875 -3.15625 5.796875 -3.75 C 5.796875 -4.265625 5.265625 -4.734375 4.359375 -4.734375 L 1.84375 -4.734375 C 1.703125 -4.734375 1.625 -4.734375 1.625 -4.578125 C 1.625 -4.484375 1.703125 -4.484375 1.84375 -4.484375 C 1.84375 -4.484375 1.984375 -4.484375 2.109375 -4.46875 C 2.25 -4.453125 2.265625 -4.4375 2.265625 -4.375 C 2.265625 -4.359375 2.265625 -4.3125 2.234375 -4.21875 Z M 2.421875 -2.546875 L 2.84375 -4.25 C 2.90625 -4.453125 2.90625 -4.484375 3.203125 -4.484375 L 4.25 -4.484375 C 4.953125 -4.484375 5.109375 -4.015625 5.109375 -3.75 C 5.109375 -3.1875 4.484375 -2.546875 3.5625 -2.546875 Z M 2.09375 -0.25 C 1.875 -0.25 1.875 -0.25 1.875 -0.3125 C 1.875 -0.328125 1.875 -0.359375 1.890625 -0.46875 L 2.375 -2.359375 L 3.84375 -2.359375 C 4.5 -2.359375 4.734375 -1.9375 4.734375 -1.53125 C 4.734375 -0.84375 4.046875 -0.25 3.203125 -0.25 Z M 2.09375 -0.25 "/></g><g id="463a50f517b990f9ef5505ca68aa44c890jjbt86__glyph-3-1"><path d="M 2.859375 -4.1875 C 2.921875 -4.421875 2.9375 -4.484375 3.453125 -4.484375 C 3.625 -4.484375 3.703125 -4.484375 3.703125 -4.625 C 3.703125 -4.6875 3.65625 -4.734375 3.59375 -4.734375 C 3.453125 -4.734375 3.28125 -4.703125 3.140625 -4.703125 C 2.984375 -4.703125 2.8125 -4.703125 2.671875 -4.703125 C 2.671875 -4.703125 2.1875 -4.703125 2.1875 -4.703125 C 2.03125 -4.703125 1.859375 -4.734375 1.703125 -4.734375 C 1.671875 -4.734375 1.5625 -4.734375 1.5625 -4.578125 C 1.5625 -4.484375 1.640625 -4.484375 1.796875 -4.484375 C 1.796875 -4.484375 1.9375 -4.484375 2.0625 -4.46875 C 2.1875 -4.453125 2.25 -4.4375 2.25 -4.375 C 2.25 -4.328125 2.234375 -4.28125 2.21875 -4.21875 L 1.296875 -0.546875 C 1.234375 -0.3125 1.21875 -0.25 0.703125 -0.25 C 0.515625 -0.25 0.4375 -0.25 0.4375 -0.09375 C 0.4375 -0.09375 0.4375 0 0.546875 0 C 0.765625 0 1.28125 -0.03125 1.484375 -0.03125 L 1.96875 -0.015625 C 2.125 -0.015625 2.296875 0 2.4375 0 C 2.484375 0 2.59375 0 2.59375 -0.15625 C 2.59375 -0.25 2.5 -0.25 2.375 -0.25 C 2.359375 -0.25 2.203125 -0.25 2.0625 -0.265625 C 1.90625 -0.28125 1.90625 -0.296875 1.90625 -0.359375 C 1.90625 -0.375 1.90625 -0.421875 1.9375 -0.515625 Z M 2.859375 -4.1875 "/></g><g id="463a50f517b990f9ef5505ca68aa44c890jjbt86__glyph-3-2"><path d="M 2.15625 -2.515625 L 2.96875 -2.515625 C 2.875 -2.09375 2.71875 -1.46875 2.71875 -0.921875 C 2.71875 -0.640625 2.75 -0.453125 2.796875 -0.296875 C 2.90625 0.046875 3 0.0625 3.109375 0.0625 C 3.265625 0.0625 3.4375 -0.078125 3.4375 -0.25 C 3.4375 -0.296875 3.421875 -0.328125 3.375 -0.390625 C 3.25 -0.65625 3.125 -1.046875 3.125 -1.609375 C 3.125 -1.75 3.125 -2.015625 3.21875 -2.515625 L 4.078125 -2.515625 C 4.203125 -2.515625 4.265625 -2.515625 4.34375 -2.5625 C 4.4375 -2.640625 4.453125 -2.75 4.453125 -2.78125 C 4.453125 -2.984375 4.28125 -2.984375 4.15625 -2.984375 L 1.546875 -2.984375 C 1.265625 -2.984375 1.078125 -2.921875 0.765625 -2.625 C 0.578125 -2.46875 0.3125 -2.09375 0.3125 -2.03125 C 0.3125 -1.953125 0.40625 -1.953125 0.421875 -1.953125 C 0.5 -1.953125 0.515625 -1.96875 0.546875 -2.03125 C 0.90625 -2.515625 1.328125 -2.515625 1.484375 -2.515625 L 1.90625 -2.515625 C 1.703125 -1.75 1.328125 -0.9375 1.109375 -0.515625 C 1.078125 -0.421875 1 -0.28125 0.984375 -0.25 C 0.96875 -0.234375 0.96875 -0.203125 0.96875 -0.15625 C 0.96875 -0.046875 1.046875 0.0625 1.203125 0.0625 C 1.484375 0.0625 1.5625 -0.25 1.71875 -0.859375 Z M 2.15625 -2.515625 "/></g><g id="463a50f517b990f9ef5505ca68aa44c890jjbt86__glyph-3-3"><path d="M 2.25 -4.328125 C 2.25 -4.4375 2.15625 -4.59375 1.96875 -4.59375 C 1.78125 -4.59375 1.578125 -4.40625 1.578125 -4.203125 C 1.578125 -4.09375 1.671875 -3.953125 1.859375 -3.953125 C 2.0625 -3.953125 2.25 -4.140625 2.25 -4.328125 Z M 0.828125 -0.8125 C 0.796875 -0.71875 0.765625 -0.640625 0.765625 -0.515625 C 0.765625 -0.1875 1.046875 0.0625 1.421875 0.0625 C 2.125 0.0625 2.421875 -0.890625 2.421875 -0.984375 C 2.421875 -1.078125 2.328125 -1.078125 2.3125 -1.078125 C 2.21875 -1.078125 2.203125 -1.03125 2.1875 -0.96875 C 2.015625 -0.40625 1.71875 -0.125 1.453125 -0.125 C 1.3125 -0.125 1.28125 -0.21875 1.28125 -0.359375 C 1.28125 -0.53125 1.328125 -0.65625 1.390625 -0.8125 C 1.453125 -1 1.53125 -1.1875 1.609375 -1.359375 C 1.671875 -1.53125 1.921875 -2.15625 1.9375 -2.25 C 1.96875 -2.3125 1.984375 -2.390625 1.984375 -2.46875 C 1.984375 -2.796875 1.703125 -3.046875 1.328125 -3.046875 C 0.640625 -3.046875 0.328125 -2.109375 0.328125 -2 C 0.328125 -1.90625 0.421875 -1.90625 0.4375 -1.90625 C 0.546875 -1.90625 0.546875 -1.9375 0.5625 -2.015625 C 0.75 -2.609375 1.046875 -2.859375 1.3125 -2.859375 C 1.421875 -2.859375 1.484375 -2.796875 1.484375 -2.609375 C 1.484375 -2.453125 1.4375 -2.359375 1.265625 -1.921875 Z M 0.828125 -0.8125 "/></g><g id="463a50f517b990f9ef5505ca68aa44c890jjbt86__glyph-3-4"><path d="M 5.828125 -4.171875 C 5.890625 -4.421875 5.890625 -4.484375 6.40625 -4.484375 C 6.5625 -4.484375 6.640625 -4.484375 6.640625 -4.625 C 6.640625 -4.65625 6.625 -4.734375 6.53125 -4.734375 C 6.328125 -4.734375 5.828125 -4.703125 5.625 -4.703125 C 5.515625 -4.703125 5.265625 -4.703125 5.15625 -4.703125 C 5.015625 -4.71875 4.84375 -4.734375 4.71875 -4.734375 C 4.671875 -4.734375 4.5625 -4.734375 4.5625 -4.578125 C 4.5625 -4.484375 4.65625 -4.484375 4.796875 -4.484375 C 4.796875 -4.484375 4.921875 -4.484375 5.046875 -4.46875 C 5.203125 -4.453125 5.21875 -4.4375 5.21875 -4.375 C 5.21875 -4.359375 5.21875 -4.3125 5.1875 -4.21875 L 4.78125 -2.578125 L 2.453125 -2.578125 L 2.859375 -4.1875 C 2.921875 -4.421875 2.9375 -4.484375 3.46875 -4.484375 C 3.578125 -4.484375 3.671875 -4.484375 3.671875 -4.625 C 3.671875 -4.65625 3.65625 -4.734375 3.5625 -4.734375 C 3.359375 -4.734375 2.859375 -4.703125 2.65625 -4.703125 C 2.546875 -4.703125 2.296875 -4.703125 2.1875 -4.703125 C 2.046875 -4.71875 1.875 -4.734375 1.75 -4.734375 C 1.703125 -4.734375 1.59375 -4.734375 1.59375 -4.578125 C 1.59375 -4.484375 1.6875 -4.484375 1.828125 -4.484375 C 1.828125 -4.484375 1.953125 -4.484375 2.078125 -4.46875 C 2.234375 -4.453125 2.25 -4.4375 2.25 -4.375 C 2.25 -4.359375 2.25 -4.3125 2.21875 -4.21875 L 1.296875 -0.546875 C 1.234375 -0.296875 1.21875 -0.25 0.6875 -0.25 C 0.5625 -0.25 0.484375 -0.25 0.484375 -0.109375 C 0.484375 -0.03125 0.53125 0 0.59375 0 C 0.796875 0 1.28125 -0.03125 1.484375 -0.03125 C 1.609375 -0.03125 1.84375 -0.03125 1.96875 -0.015625 C 2.109375 -0.015625 2.28125 0 2.40625 0 C 2.4375 0 2.546875 0 2.546875 -0.140625 C 2.546875 -0.25 2.484375 -0.25 2.328125 -0.25 C 2.21875 -0.25 2.1875 -0.25 2.0625 -0.265625 C 1.90625 -0.28125 1.90625 -0.296875 1.90625 -0.359375 C 1.90625 -0.375 1.90625 -0.421875 1.9375 -0.515625 L 2.390625 -2.328125 L 4.71875 -2.328125 L 4.265625 -0.546875 C 4.203125 -0.296875 4.1875 -0.25 3.65625 -0.25 C 3.53125 -0.25 3.453125 -0.25 3.453125 -0.109375 C 3.453125 -0.03125 3.5 0 3.5625 0 C 3.765625 0 4.25 -0.03125 4.453125 -0.03125 C 4.578125 -0.03125 4.8125 -0.03125 4.9375 -0.015625 C 5.078125 -0.015625 5.25 0 5.375 0 C 5.40625 0 5.53125 0 5.53125 -0.140625 C 5.53125 -0.25 5.453125 -0.25 5.296875 -0.25 C 5.1875 -0.25 5.15625 -0.25 5.03125 -0.265625 C 4.875 -0.28125 4.875 -0.296875 4.875 -0.359375 C 4.875 -0.40625 4.90625 -0.484375 4.90625 -0.515625 Z M 5.828125 -4.171875 "/></g><g id="463a50f517b990f9ef5505ca68aa44c890jjbt86__glyph-4-0"><path d="M 3.578125 -2.203125 C 3.578125 -2.96875 3.484375 -3.515625 3.15625 -4 C 2.953125 -4.3125 2.515625 -4.59375 1.96875 -4.59375 C 0.359375 -4.59375 0.359375 -2.703125 0.359375 -2.203125 C 0.359375 -1.703125 0.359375 0.140625 1.96875 0.140625 C 3.578125 0.140625 3.578125 -1.703125 3.578125 -2.203125 Z M 1.96875 -0.0625 C 1.640625 -0.0625 1.21875 -0.25 1.09375 -0.8125 C 0.984375 -1.21875 0.984375 -1.78125 0.984375 -2.296875 C 0.984375 -2.796875 0.984375 -3.328125 1.09375 -3.703125 C 1.234375 -4.25 1.6875 -4.40625 1.96875 -4.40625 C 2.34375 -4.40625 2.703125 -4.171875 2.828125 -3.765625 C 2.9375 -3.40625 2.9375 -2.90625 2.9375 -2.296875 C 2.9375 -1.78125 2.9375 -1.28125 2.859375 -0.84375 C 2.71875 -0.203125 2.25 -0.0625 1.96875 -0.0625 Z M 1.96875 -0.0625 "/></g><g id="463a50f517b990f9ef5505ca68aa44c890jjbt86__glyph-5-0"><path d="M 4.546875 -3.171875 C 4.546875 -3.953125 4.5 -4.75 4.15625 -5.484375 C 3.703125 -6.421875 2.890625 -6.59375 2.46875 -6.59375 C 1.875 -6.59375 1.15625 -6.328125 0.75 -5.40625 C 0.4375 -4.734375 0.390625 -3.953125 0.390625 -3.171875 C 0.390625 -2.421875 0.421875 -1.53125 0.828125 -0.78125 C 1.25 0.015625 1.984375 0.21875 2.46875 0.21875 C 3 0.21875 3.75 0.015625 4.1875 -0.9375 C 4.5 -1.609375 4.546875 -2.390625 4.546875 -3.171875 Z M 2.46875 0 C 2.078125 0 1.5 -0.25 1.3125 -1.203125 C 1.203125 -1.796875 1.203125 -2.703125 1.203125 -3.28125 C 1.203125 -3.921875 1.203125 -4.5625 1.28125 -5.109375 C 1.46875 -6.28125 2.21875 -6.375 2.46875 -6.375 C 2.796875 -6.375 3.4375 -6.1875 3.625 -5.21875 C 3.734375 -4.65625 3.734375 -3.90625 3.734375 -3.28125 C 3.734375 -2.546875 3.734375 -1.875 3.625 -1.234375 C 3.46875 -0.296875 2.90625 0 2.46875 0 Z M 2.46875 0 "/></g><g id="463a50f517b990f9ef5505ca68aa44c890jjbt86__glyph-6-0"><path d="M 3.5 -2.5625 C 3.5 -2.671875 3.5 -2.828125 3.34375 -2.828125 C 3.15625 -2.828125 3.15625 -2.65625 3.15625 -2.53125 L 3.15625 -0.203125 L 0.8125 -0.203125 C 0.703125 -0.203125 0.546875 -0.203125 0.546875 -0.03125 C 0.546875 0.140625 0.6875 0.140625 0.8125 0.140625 L 3.234375 0.140625 C 3.46875 0.140625 3.5 0.09375 3.5 -0.125 Z M 3.5 -2.5625 "/></g><g id="463a50f517b990f9ef5505ca68aa44c890jjbt86__glyph-7-0"><path d="M 2.984375 -1.578125 C 2.984375 -1.9375 2.984375 -3.296875 1.6875 -3.296875 C 0.390625 -3.296875 0.390625 -1.9375 0.390625 -1.578125 C 0.390625 -1.21875 0.390625 0.109375 1.6875 0.109375 C 2.984375 0.109375 2.984375 -1.21875 2.984375 -1.578125 Z M 1.6875 -0.046875 C 1.5 -0.046875 1.078125 -0.125 0.953125 -0.625 C 0.890625 -0.890625 0.890625 -1.234375 0.890625 -1.640625 C 0.890625 -2.015625 0.890625 -2.359375 0.96875 -2.640625 C 1.09375 -3.046875 1.46875 -3.140625 1.6875 -3.140625 C 2.046875 -3.140625 2.3125 -2.953125 2.40625 -2.59375 C 2.484375 -2.34375 2.484375 -1.9375 2.484375 -1.640625 C 2.484375 -1.3125 2.484375 -0.90625 2.40625 -0.609375 C 2.28125 -0.125 1.875 -0.046875 1.6875 -0.046875 Z M 1.6875 -0.046875 "/></g></g></defs><g fill="rgb(0%, 0%, 0%)" fill-opacity="1"><use xlink:href="#463a50f517b990f9ef5505ca68aa44c890jjbt86__glyph-0-0" x="36.364399" y="12.033896"/></g><g fill="rgb(0%, 0%, 0%)" fill-opacity="1"><use xlink:href="#463a50f517b990f9ef5505ca68aa44c890jjbt86__glyph-1-0" x="45.395284" y="8.441807"/></g><g fill="rgb(0%, 0%, 0%)" fill-opacity="1"><use xlink:href="#463a50f517b990f9ef5505ca68aa44c890jjbt86__glyph-0-1" x="49.944999" y="12.033896"/></g><g fill="rgb(0%, 0%, 0%)" fill-opacity="1"><use xlink:href="#463a50f517b990f9ef5505ca68aa44c890jjbt86__glyph-2-0" x="57.82477" y="12.033896"/></g><g fill="rgb(0%, 0%, 0%)" fill-opacity="1"><use xlink:href="#463a50f517b990f9ef5505ca68aa44c890jjbt86__glyph-3-0" x="60.570272" y="13.518017"/></g><g fill="rgb(0%, 0%, 0%)" fill-opacity="1"><use xlink:href="#463a50f517b990f9ef5505ca68aa44c890jjbt86__glyph-1-1" x="66.889707" y="13.518017"/></g><g fill="rgb(0%, 0%, 0%)" fill-opacity="1"><use xlink:href="#463a50f517b990f9ef5505ca68aa44c890jjbt86__glyph-3-1" x="73.075437" y="13.518017"/></g><g fill="rgb(0%, 0%, 0%)" fill-opacity="1"><use xlink:href="#463a50f517b990f9ef5505ca68aa44c890jjbt86__glyph-1-1" x="77.116357" y="13.518017"/></g><g fill="rgb(0%, 0%, 0%)" fill-opacity="1"><use xlink:href="#463a50f517b990f9ef5505ca68aa44c890jjbt86__glyph-4-0" x="83.302087" y="13.518017"/></g><g fill="rgb(0%, 0%, 0%)" fill-opacity="1"><use xlink:href="#463a50f517b990f9ef5505ca68aa44c890jjbt86__glyph-0-0" x="154.266581" y="12.033896"/></g><g fill="rgb(0%, 0%, 0%)" fill-opacity="1"><use xlink:href="#463a50f517b990f9ef5505ca68aa44c890jjbt86__glyph-1-0" x="163.297467" y="8.441807"/></g><g fill="rgb(0%, 0%, 0%)" fill-opacity="1"><use xlink:href="#463a50f517b990f9ef5505ca68aa44c890jjbt86__glyph-0-1" x="167.847181" y="12.033896"/></g><g fill="rgb(0%, 0%, 0%)" fill-opacity="1"><use xlink:href="#463a50f517b990f9ef5505ca68aa44c890jjbt86__glyph-0-1" x="274.013484" y="12.033896"/></g><g fill="rgb(0%, 0%, 0%)" fill-opacity="1"><use xlink:href="#463a50f517b990f9ef5505ca68aa44c890jjbt86__glyph-0-2" x="40.91908" y="71.386813"/></g><g fill="rgb(0%, 0%, 0%)" fill-opacity="1"><use xlink:href="#463a50f517b990f9ef5505ca68aa44c890jjbt86__glyph-2-1" x="51.117653" y="71.386813"/></g><g fill="rgb(0%, 0%, 0%)" fill-opacity="1"><use xlink:href="#463a50f517b990f9ef5505ca68aa44c890jjbt86__glyph-0-3" x="61.022292" y="71.386813"/></g><g fill="rgb(0%, 0%, 0%)" fill-opacity="1"><use xlink:href="#463a50f517b990f9ef5505ca68aa44c890jjbt86__glyph-2-1" x="68.341908" y="71.386813"/></g><g fill="rgb(0%, 0%, 0%)" fill-opacity="1"><use xlink:href="#463a50f517b990f9ef5505ca68aa44c890jjbt86__glyph-5-0" x="78.236651" y="71.386813"/></g><g fill="rgb(0%, 0%, 0%)" fill-opacity="1"><use xlink:href="#463a50f517b990f9ef5505ca68aa44c890jjbt86__glyph-0-2" x="143.770449" y="71.386813"/></g><g fill="rgb(0%, 0%, 0%)" fill-opacity="1"><use xlink:href="#463a50f517b990f9ef5505ca68aa44c890jjbt86__glyph-2-1" x="153.969021" y="71.386813"/></g><g fill="rgb(0%, 0%, 0%)" fill-opacity="1"><use xlink:href="#463a50f517b990f9ef5505ca68aa44c890jjbt86__glyph-0-3" x="163.873661" y="71.386813"/></g><g fill="rgb(0%, 0%, 0%)" fill-opacity="1"><use xlink:href="#463a50f517b990f9ef5505ca68aa44c890jjbt86__glyph-2-1" x="171.193276" y="71.386813"/></g><g fill="rgb(0%, 0%, 0%)" fill-opacity="1"><use xlink:href="#463a50f517b990f9ef5505ca68aa44c890jjbt86__glyph-0-3" x="181.088019" y="71.386813"/></g><g fill="rgb(0%, 0%, 0%)" fill-opacity="1"><use xlink:href="#463a50f517b990f9ef5505ca68aa44c890jjbt86__glyph-0-2" x="242.246938" y="71.386813"/></g><g fill="rgb(0%, 0%, 0%)" fill-opacity="1"><use xlink:href="#463a50f517b990f9ef5505ca68aa44c890jjbt86__glyph-2-1" x="252.445511" y="71.386813"/></g><g fill="rgb(0%, 0%, 0%)" fill-opacity="1"><use xlink:href="#463a50f517b990f9ef5505ca68aa44c890jjbt86__glyph-0-3" x="262.35015" y="71.386813"/></g><path fill="none" stroke="rgb(0%, 0%, 0%)" stroke-linecap="butt" stroke-linejoin="miter" stroke-miterlimit="10" stroke-opacity="1" stroke-width="0.39848" d="M -80.038582 29.044779 L -22.446819 29.044779 " transform="matrix(0.993388, 0, 0, -0.993388, 171.712452, 38.411314)"/><path fill="none" stroke="rgb(0%, 0%, 0%)" stroke-linecap="round" stroke-linejoin="round" stroke-miterlimit="10" stroke-opacity="1" stroke-width="0.39848" d="M -2.073004 2.391319 C -1.695507 0.956047 -0.850073 0.279699 -0.000706692 0.000509316 C -0.850073 -0.278681 -1.695507 -0.955028 -2.073004 -2.3903 " transform="matrix(0.993388, 0, 0, -0.993388, 149.610077, 9.5591)"/><path fill="none" stroke="rgb(0%, 0%, 0%)" stroke-linecap="butt" stroke-linejoin="miter" stroke-miterlimit="10" stroke-opacity="1" stroke-width="0.39848" d="M -113.710456 20.216874 L -113.710456 -22.145277 " transform="matrix(0.993388, 0, 0, -0.993388, 171.712452, 38.411314)"/><path fill="none" stroke="rgb(0%, 0%, 0%)" stroke-linecap="round" stroke-linejoin="round" stroke-miterlimit="10" stroke-opacity="1" stroke-width="0.39848" d="M -2.073377 2.390543 C -1.691948 0.955271 -0.850446 0.278924 -0.00107996 -0.000266343 C -0.850446 -0.279456 -1.691948 -0.955804 -2.073377 -2.391076 " transform="matrix(0, 0.993388, 0.993388, 0, 58.754171, 60.606542)"/><g fill="rgb(0%, 0%, 0%)" fill-opacity="1"><use xlink:href="#463a50f517b990f9ef5505ca68aa44c890jjbt86__glyph-6-0" x="81.922143" y="25.12873"/></g><path fill="none" stroke="rgb(0%, 0%, 0%)" stroke-linecap="butt" stroke-linejoin="miter" stroke-miterlimit="10" stroke-opacity="1" stroke-width="0.39848" d="M 8.52753 29.044779 L 98.096366 29.044779 " transform="matrix(0.993388, 0, 0, -0.993388, 171.712452, 38.411314)"/><path fill="none" stroke="rgb(0%, 0%, 0%)" stroke-linecap="round" stroke-linejoin="round" stroke-miterlimit="10" stroke-opacity="1" stroke-width="0.39848" d="M -2.071616 2.391319 C -1.694119 0.956047 -0.848685 0.279699 0.000681125 0.000509316 C -0.848685 -0.278681 -1.694119 -0.955028 -2.071616 -2.3903 " transform="matrix(0.993388, 0, 0, -0.993388, 269.358698, 9.5591)"/><path fill="none" stroke="rgb(0%, 0%, 0%)" stroke-linecap="butt" stroke-linejoin="miter" stroke-miterlimit="10" stroke-opacity="1" stroke-width="0.39848" d="M 106.947866 22.709921 L 106.947866 -22.145277 " transform="matrix(0.993388, 0, 0, -0.993388, 171.712452, 38.411314)"/><path fill="none" stroke="rgb(0%, 0%, 0%)" stroke-linecap="round" stroke-linejoin="round" stroke-miterlimit="10" stroke-opacity="1" stroke-width="0.39848" d="M -2.073377 2.390095 C -1.691948 0.954823 -0.850446 0.278475 -0.00107996 -0.000714439 C -0.850446 -0.279904 -1.691948 -0.956252 -2.073377 -2.391524 " transform="matrix(0, 0.993388, 0.993388, 0, 277.953835, 60.606542)"/><g fill="rgb(0%, 0%, 0%)" fill-opacity="1"><use xlink:href="#463a50f517b990f9ef5505ca68aa44c890jjbt86__glyph-3-2" x="280.280765" y="39.819938"/></g><path fill="none" stroke="rgb(0%, 0%, 0%)" stroke-linecap="butt" stroke-linejoin="miter" stroke-miterlimit="10" stroke-opacity="1" stroke-width="0.39848" d="M -83.188316 -30.70579 L -33.016713 -30.70579 " transform="matrix(0.993388, 0, 0, -0.993388, 171.712452, 38.411314)"/><path fill="none" stroke="rgb(0%, 0%, 0%)" stroke-linecap="round" stroke-linejoin="miter" stroke-miterlimit="10" stroke-opacity="1" stroke-width="0.39848" d="M -0.00132381 1.953299 C 0.682888 1.953299 1.233403 1.516819 1.233403 0.978101 C 1.233403 0.43545 0.682888 -0.00103007 -0.00132381 -0.00103007 " transform="matrix(-0.993388, 0, 0, -0.993388, 89.072904, 68.913039)"/><path fill="none" stroke="rgb(0%, 0%, 0%)" stroke-linecap="round" stroke-linejoin="round" stroke-miterlimit="10" stroke-opacity="1" stroke-width="0.39848" d="M -2.072625 2.389779 C -1.695128 0.954507 -0.849694 0.27816 -0.00032786 -0.00103007 C -0.849694 -0.28022 -1.695128 -0.956567 -2.072625 -2.391839 " transform="matrix(0.993388, 0, 0, -0.993388, 139.113607, 68.913039)"/><g fill="rgb(0%, 0%, 0%)" fill-opacity="1"><use xlink:href="#463a50f517b990f9ef5505ca68aa44c890jjbt86__glyph-3-3" x="110.148255" y="75.825268"/></g><g fill="rgb(0%, 0%, 0%)" fill-opacity="1"><use xlink:href="#463a50f517b990f9ef5505ca68aa44c890jjbt86__glyph-7-0" x="112.948615" y="76.814682"/></g><path fill="none" stroke="rgb(0%, 0%, 0%)" stroke-linecap="butt" stroke-linejoin="miter" stroke-miterlimit="10" stroke-opacity="1" stroke-width="0.39848" d="M 19.093491 -30.70579 L 66.119293 -30.70579 " transform="matrix(0.993388, 0, 0, -0.993388, 171.712452, 38.411314)"/><path fill="none" stroke="rgb(0%, 0%, 0%)" stroke-linecap="round" stroke-linejoin="round" stroke-miterlimit="10" stroke-opacity="1" stroke-width="0.39848" d="M -2.073251 2.389779 C -1.691823 0.954507 -0.850321 0.27816 -0.000954525 -0.00103007 C -0.850321 -0.28022 -1.691823 -0.956567 -2.073251 -2.391839 " transform="matrix(0.993388, 0, 0, -0.993388, 237.590792, 68.913039)"/><g fill="rgb(0%, 0%, 0%)" fill-opacity="1"><use xlink:href="#463a50f517b990f9ef5505ca68aa44c890jjbt86__glyph-3-4" x="210.727746" y="75.975269"/></g></svg>