<?xml version="1.0" encoding="UTF-8"?><svg xmlns="http://www.w3.org/2000/svg" xmlns:xlink="http://www.w3.org/1999/xlink" width="901.587" height="74.567" viewBox="0 0 901.587 74.567"><defs><g><g id="522ad2ed8a68401137c4de8194a0ba70a0vymnb7__glyph-0-0"><path d="M 1.90625 -2.484375 C 1.90625 -2.765625 1.671875 -3 1.375 -3 C 1.09375 -3 0.859375 -2.765625 0.859375 -2.484375 C 0.859375 -2.1875 1.09375 -1.953125 1.375 -1.953125 C 1.671875 -1.953125 1.90625 -2.1875 1.90625 -2.484375 Z M 1.90625 -2.484375 "/></g><g id="522ad2ed8a68401137c4de8194a0ba70a0vymnb7__glyph-0-1"><path d="M 7.15625 -2.484375 C 7.15625 -4.296875 5.671875 -5.78125 3.859375 -5.78125 C 2.015625 -5.78125 0.546875 -4.28125 0.546875 -2.484375 C 0.546875 -0.65625 2.03125 0.828125 3.84375 0.828125 C 5.6875 0.828125 7.15625 -0.671875 7.15625 -2.484375 Z M 0.796875 -2.609375 C 0.890625 -4.265625 2.171875 -5.453125 3.71875 -5.53125 L 3.71875 -2.609375 Z M 3.96875 -5.53125 C 5.53125 -5.453125 6.8125 -4.265625 6.90625 -2.609375 L 3.96875 -2.609375 Z M 3.71875 0.578125 C 2.1875 0.5 0.890625 -0.65625 0.796875 -2.359375 L 3.71875 -2.359375 Z M 6.90625 -2.359375 C 6.8125 -0.65625 5.5 0.5 3.96875 0.578125 L 3.96875 -2.359375 Z M 6.90625 -2.359375 "/></g><g id="522ad2ed8a68401137c4de8194a0ba70a0vymnb7__glyph-0-2"><path d="M 6.046875 -3.765625 C 6.046875 -5.265625 4.53125 -5.921875 3.296875 -5.921875 C 2.015625 -5.921875 0.546875 -5.234375 0.546875 -3.78125 L 0.546875 -0.140625 C 0.546875 0.046875 0.546875 0.21875 0.75 0.21875 C 0.9375 0.21875 0.9375 0.046875 0.9375 -0.140625 L 0.9375 -3.71875 C 0.9375 -5.203125 2.5625 -5.53125 3.296875 -5.53125 C 3.75 -5.53125 4.375 -5.4375 4.890625 -5.109375 C 5.65625 -4.609375 5.65625 -3.984375 5.65625 -3.71875 L 5.65625 -0.140625 C 5.65625 0.046875 5.65625 0.21875 5.859375 0.21875 C 6.046875 0.21875 6.046875 0.046875 6.046875 -0.140625 Z M 6.046875 -3.765625 "/></g><g id="522ad2ed8a68401137c4de8194a0ba70a0vymnb7__glyph-1-0"><path d="M 7.5625 -6 C 7.640625 -6.359375 7.671875 -6.453125 8.390625 -6.453125 C 8.640625 -6.453125 8.734375 -6.453125 8.734375 -6.65625 C 8.734375 -6.765625 8.625 -6.765625 8.59375 -6.765625 C 8.3125 -6.765625 7.59375 -6.734375 7.328125 -6.734375 C 7.03125 -6.734375 6.328125 -6.765625 6.046875 -6.765625 C 5.96875 -6.765625 5.859375 -6.765625 5.859375 -6.5625 C 5.859375 -6.453125 5.9375 -6.453125 6.125 -6.453125 C 6.15625 -6.453125 6.34375 -6.453125 6.515625 -6.4375 C 6.6875 -6.421875 6.78125 -6.40625 6.78125 -6.28125 C 6.78125 -6.234375 6.765625 -6.21875 6.734375 -6.09375 L 6.140625 -3.671875 L 3.125 -3.671875 L 3.703125 -6 C 3.796875 -6.359375 3.828125 -6.453125 4.53125 -6.453125 C 4.796875 -6.453125 4.875 -6.453125 4.875 -6.65625 C 4.875 -6.765625 4.765625 -6.765625 4.734375 -6.765625 C 4.453125 -6.765625 3.75 -6.734375 3.46875 -6.734375 C 3.1875 -6.734375 2.484375 -6.765625 2.1875 -6.765625 C 2.109375 -6.765625 2 -6.765625 2 -6.5625 C 2 -6.453125 2.09375 -6.453125 2.28125 -6.453125 C 2.296875 -6.453125 2.484375 -6.453125 2.65625 -6.4375 C 2.828125 -6.421875 2.921875 -6.40625 2.921875 -6.28125 C 2.921875 -6.234375 2.90625 -6.21875 2.875 -6.09375 L 1.5625 -0.765625 C 1.453125 -0.390625 1.4375 -0.3125 0.65625 -0.3125 C 0.46875 -0.3125 0.390625 -0.3125 0.390625 -0.109375 C 0.390625 0 0.5 0 0.53125 0 C 0.796875 0 1.5 -0.03125 1.78125 -0.03125 C 1.984375 -0.03125 2.203125 -0.015625 2.421875 -0.015625 C 2.640625 -0.015625 2.859375 0 3.0625 0 C 3.140625 0 3.265625 0 3.265625 -0.203125 C 3.265625 -0.3125 3.171875 -0.3125 2.984375 -0.3125 C 2.609375 -0.3125 2.34375 -0.3125 2.34375 -0.484375 C 2.34375 -0.546875 2.359375 -0.59375 2.375 -0.65625 L 3.046875 -3.375 L 6.0625 -3.375 C 5.640625 -1.71875 5.421875 -0.78125 5.375 -0.640625 C 5.28125 -0.3125 5.09375 -0.3125 4.484375 -0.3125 C 4.328125 -0.3125 4.234375 -0.3125 4.234375 -0.109375 C 4.234375 0 4.359375 0 4.375 0 C 4.65625 0 5.359375 -0.03125 5.640625 -0.03125 C 5.84375 -0.03125 6.0625 -0.015625 6.265625 -0.015625 C 6.484375 -0.015625 6.703125 0 6.921875 0 C 7 0 7.109375 0 7.109375 -0.203125 C 7.109375 -0.3125 7.03125 -0.3125 6.828125 -0.3125 C 6.46875 -0.3125 6.1875 -0.3125 6.1875 -0.484375 C 6.1875 -0.546875 6.21875 -0.59375 6.21875 -0.65625 Z M 7.5625 -6 "/></g><g id="522ad2ed8a68401137c4de8194a0ba70a0vymnb7__glyph-1-1"><path d="M 7.015625 -2.3125 C 7.03125 -2.359375 7.0625 -2.421875 7.0625 -2.453125 C 7.0625 -2.453125 7.0625 -2.5625 6.9375 -2.5625 C 6.859375 -2.5625 6.828125 -2.5 6.8125 -2.4375 C 6.171875 -0.96875 5.8125 -0.3125 4.109375 -0.3125 L 2.671875 -0.3125 C 2.53125 -0.3125 2.5 -0.3125 2.453125 -0.3125 C 2.34375 -0.328125 2.3125 -0.34375 2.3125 -0.421875 C 2.3125 -0.453125 2.3125 -0.46875 2.375 -0.640625 L 3.046875 -3.34375 L 4.015625 -3.34375 C 4.859375 -3.34375 4.859375 -3.140625 4.859375 -2.890625 C 4.859375 -2.828125 4.859375 -2.703125 4.796875 -2.40625 C 4.78125 -2.359375 4.765625 -2.328125 4.765625 -2.296875 C 4.765625 -2.25 4.796875 -2.1875 4.890625 -2.1875 C 4.96875 -2.1875 5 -2.234375 5.046875 -2.390625 L 5.609375 -4.703125 C 5.609375 -4.765625 5.5625 -4.8125 5.484375 -4.8125 C 5.40625 -4.8125 5.375 -4.75 5.34375 -4.640625 C 5.140625 -3.890625 4.96875 -3.65625 4.046875 -3.65625 L 3.125 -3.65625 L 3.71875 -6.046875 C 3.796875 -6.390625 3.8125 -6.421875 4.25 -6.421875 L 5.640625 -6.421875 C 6.859375 -6.421875 7.15625 -6.140625 7.15625 -5.328125 C 7.15625 -5.09375 7.15625 -5.078125 7.109375 -4.796875 C 7.109375 -4.75 7.109375 -4.671875 7.109375 -4.625 C 7.109375 -4.578125 7.125 -4.5 7.21875 -4.5 C 7.328125 -4.5 7.34375 -4.5625 7.359375 -4.75 L 7.5625 -6.46875 C 7.59375 -6.734375 7.53125 -6.734375 7.296875 -6.734375 L 2.28125 -6.734375 C 2.09375 -6.734375 1.984375 -6.734375 1.984375 -6.53125 C 1.984375 -6.421875 2.078125 -6.421875 2.265625 -6.421875 C 2.640625 -6.421875 2.90625 -6.421875 2.90625 -6.25 C 2.90625 -6.21875 2.90625 -6.1875 2.859375 -6.015625 L 1.5625 -0.765625 C 1.453125 -0.390625 1.4375 -0.3125 0.65625 -0.3125 C 0.484375 -0.3125 0.375 -0.3125 0.375 -0.125 C 0.375 0 0.46875 0 0.65625 0 L 5.796875 0 C 6.015625 0 6.03125 -0.015625 6.109375 -0.171875 Z M 7.015625 -2.3125 "/></g><g id="522ad2ed8a68401137c4de8194a0ba70a0vymnb7__glyph-1-2"><path d="M 2.015625 -0.015625 C 2.015625 -0.65625 1.765625 -1.046875 1.375 -1.046875 C 1.046875 -1.046875 0.859375 -0.796875 0.859375 -0.53125 C 0.859375 -0.25 1.046875 0 1.375 0 C 1.5 0 1.625 -0.046875 1.71875 -0.125 C 1.75 -0.15625 1.765625 -0.15625 1.765625 -0.15625 C 1.78125 -0.15625 1.796875 -0.15625 1.796875 -0.015625 C 1.796875 0.71875 1.453125 1.3125 1.125 1.640625 C 1.015625 1.75 1.015625 1.765625 1.015625 1.796875 C 1.015625 1.875 1.0625 1.90625 1.109375 1.90625 C 1.21875 1.90625 2.015625 1.15625 2.015625 -0.015625 Z M 2.015625 -0.015625 "/></g><g id="522ad2ed8a68401137c4de8194a0ba70a0vymnb7__glyph-2-0"><path d="M 2.5625 -3.328125 C 2.96875 -3.328125 3.96875 -3.3125 4.046875 -2.203125 C 4.046875 -2.078125 4.0625 -1.953125 4.21875 -1.953125 C 4.390625 -1.953125 4.390625 -2.09375 4.390625 -2.265625 L 4.390625 -4.953125 C 4.390625 -5.109375 4.390625 -5.265625 4.21875 -5.265625 C 4.09375 -5.265625 4.046875 -5.171875 4.046875 -5.0625 C 3.984375 -3.90625 3.28125 -3.71875 2.5625 -3.6875 L 2.5625 -5.78125 C 2.5625 -6.4375 2.75 -6.4375 2.984375 -6.4375 L 3.453125 -6.4375 C 4.71875 -6.4375 5.375 -5.75 5.421875 -5.078125 C 5.4375 -5 5.453125 -4.84375 5.609375 -4.84375 C 5.78125 -4.84375 5.78125 -5 5.78125 -5.171875 L 5.78125 -6.453125 C 5.78125 -6.765625 5.75 -6.78125 5.453125 -6.78125 L 0.46875 -6.78125 C 0.296875 -6.78125 0.140625 -6.78125 0.140625 -6.609375 C 0.140625 -6.4375 0.328125 -6.4375 0.40625 -6.4375 C 0.96875 -6.4375 1.015625 -6.359375 1.015625 -5.875 L 1.015625 -0.90625 C 1.015625 -0.453125 0.984375 -0.34375 0.453125 -0.34375 C 0.3125 -0.34375 0.140625 -0.34375 0.140625 -0.171875 C 0.140625 0 0.296875 0 0.46875 0 L 3.34375 0 C 3.515625 0 3.671875 0 3.671875 -0.171875 C 3.671875 -0.34375 3.5 -0.34375 3.375 -0.34375 C 2.609375 -0.34375 2.5625 -0.421875 2.5625 -0.9375 Z M 5.421875 -6.4375 L 5.421875 -5.96875 C 5.296875 -6.125 5.125 -6.296875 4.890625 -6.4375 Z M 4.046875 -3.140625 C 3.890625 -3.328125 3.640625 -3.484375 3.515625 -3.53125 C 3.703125 -3.609375 3.90625 -3.78125 4.046875 -3.9375 Z M 1.359375 -5.890625 C 1.359375 -6.015625 1.359375 -6.265625 1.28125 -6.4375 L 2.328125 -6.4375 C 2.21875 -6.21875 2.21875 -5.890625 2.21875 -5.796875 L 2.21875 -0.921875 C 2.21875 -0.765625 2.21875 -0.53125 2.3125 -0.34375 L 1.28125 -0.34375 C 1.359375 -0.53125 1.359375 -0.765625 1.359375 -0.890625 Z M 1.359375 -5.890625 "/></g><g id="522ad2ed8a68401137c4de8194a0ba70a0vymnb7__glyph-3-0"><path d="M 3.046875 -4.34375 C 3.046875 -4.453125 2.953125 -4.59375 2.765625 -4.59375 C 2.5625 -4.59375 2.375 -4.40625 2.375 -4.21875 C 2.375 -4.109375 2.46875 -3.953125 2.65625 -3.953125 C 2.84375 -3.953125 3.046875 -4.140625 3.046875 -4.34375 Z M 1.578125 0.34375 C 1.453125 0.8125 1.09375 1.21875 0.6875 1.21875 C 0.59375 1.21875 0.5 1.203125 0.4375 1.171875 C 0.609375 1.09375 0.671875 0.921875 0.671875 0.828125 C 0.671875 0.65625 0.53125 0.5625 0.390625 0.5625 C 0.1875 0.5625 0 0.75 0 0.984375 C 0 1.234375 0.265625 1.421875 0.6875 1.421875 C 1.109375 1.421875 1.921875 1.171875 2.125 0.3125 L 2.75 -2.171875 C 2.78125 -2.234375 2.78125 -2.296875 2.78125 -2.40625 C 2.78125 -2.78125 2.46875 -3.0625 2.046875 -3.0625 C 1.28125 -3.0625 0.828125 -2.09375 0.828125 -2 C 0.828125 -1.90625 0.921875 -1.90625 0.953125 -1.90625 C 1.03125 -1.90625 1.046875 -1.921875 1.09375 -2.03125 C 1.265625 -2.4375 1.625 -2.859375 2.03125 -2.859375 C 2.203125 -2.859375 2.265625 -2.75 2.265625 -2.53125 C 2.265625 -2.453125 2.25 -2.359375 2.234375 -2.3125 Z M 1.578125 0.34375 "/></g><g id="522ad2ed8a68401137c4de8194a0ba70a0vymnb7__glyph-3-1"><path d="M 0.84375 -0.4375 C 0.8125 -0.34375 0.78125 -0.171875 0.78125 -0.15625 C 0.78125 0 0.90625 0.0625 1.015625 0.0625 C 1.140625 0.0625 1.25 -0.015625 1.28125 -0.078125 C 1.3125 -0.140625 1.375 -0.375 1.40625 -0.515625 C 1.4375 -0.640625 1.515625 -0.96875 1.5625 -1.140625 C 1.609375 -1.296875 1.640625 -1.4375 1.671875 -1.609375 C 1.75 -1.890625 1.765625 -1.9375 1.96875 -2.234375 C 2.171875 -2.5 2.484375 -2.859375 3.015625 -2.859375 C 3.40625 -2.859375 3.421875 -2.515625 3.421875 -2.375 C 3.421875 -1.96875 3.125 -1.1875 3.015625 -0.90625 C 2.9375 -0.703125 2.90625 -0.640625 2.90625 -0.53125 C 2.90625 -0.15625 3.21875 0.0625 3.5625 0.0625 C 4.265625 0.0625 4.5625 -0.890625 4.5625 -0.984375 C 4.5625 -1.078125 4.46875 -1.078125 4.453125 -1.078125 C 4.359375 -1.078125 4.34375 -1.046875 4.328125 -0.96875 C 4.15625 -0.40625 3.859375 -0.125 3.59375 -0.125 C 3.4375 -0.125 3.40625 -0.21875 3.40625 -0.375 C 3.40625 -0.53125 3.453125 -0.625 3.578125 -0.921875 C 3.65625 -1.140625 3.9375 -1.875 3.9375 -2.265625 C 3.9375 -2.9375 3.40625 -3.0625 3.03125 -3.0625 C 2.46875 -3.0625 2.078125 -2.703125 1.859375 -2.421875 C 1.8125 -2.90625 1.40625 -3.0625 1.125 -3.0625 C 0.828125 -3.0625 0.671875 -2.84375 0.578125 -2.6875 C 0.421875 -2.421875 0.328125 -2.03125 0.328125 -2 C 0.328125 -1.90625 0.421875 -1.90625 0.4375 -1.90625 C 0.546875 -1.90625 0.546875 -1.921875 0.59375 -2.109375 C 0.703125 -2.53125 0.828125 -2.859375 1.109375 -2.859375 C 1.28125 -2.859375 1.328125 -2.71875 1.328125 -2.53125 C 1.328125 -2.390625 1.265625 -2.140625 1.21875 -1.953125 C 1.171875 -1.765625 1.109375 -1.484375 1.0625 -1.328125 Z M 0.84375 -0.4375 "/></g><g id="522ad2ed8a68401137c4de8194a0ba70a0vymnb7__glyph-3-2"><path d="M 7.359375 -2.484375 C 7.359375 -2.546875 7.296875 -2.609375 7.25 -2.609375 C 7.1875 -2.609375 7.15625 -2.5625 7.109375 -2.5 C 6.265625 -1.484375 4.921875 -1.265625 3.953125 -1.265625 C 2.625 -1.265625 1.484375 -1.671875 0.8125 -2.484375 C 0.703125 -2.59375 0.703125 -2.609375 0.65625 -2.609375 C 0.59375 -2.609375 0.53125 -2.546875 0.53125 -2.484375 C 0.53125 -2.390625 0.984375 -1.859375 1.671875 -1.46875 C 2.1875 -1.171875 2.953125 -0.90625 3.953125 -0.90625 C 4.625 -0.90625 5.34375 -1.015625 6.09375 -1.40625 C 6.8125 -1.765625 7.359375 -2.375 7.359375 -2.484375 Z M 7.359375 -2.484375 "/></g><g id="522ad2ed8a68401137c4de8194a0ba70a0vymnb7__glyph-3-3"><path d="M 2.9375 -1.125 C 2.90625 -0.984375 2.84375 -0.71875 2.828125 -0.71875 C 2.6875 -0.5 2.421875 -0.125 1.984375 -0.125 C 1.5 -0.125 1.5 -0.578125 1.5 -0.703125 C 1.5 -1.109375 1.703125 -1.609375 1.890625 -2.109375 C 1.953125 -2.25 1.984375 -2.359375 1.984375 -2.46875 C 1.984375 -2.828125 1.6875 -3.0625 1.328125 -3.0625 C 0.640625 -3.0625 0.328125 -2.109375 0.328125 -2 C 0.328125 -1.90625 0.421875 -1.90625 0.4375 -1.90625 C 0.546875 -1.90625 0.546875 -1.9375 0.5625 -2.015625 C 0.734375 -2.59375 1.046875 -2.859375 1.3125 -2.859375 C 1.421875 -2.859375 1.484375 -2.78125 1.484375 -2.625 C 1.484375 -2.46875 1.421875 -2.3125 1.359375 -2.15625 C 0.984375 -1.203125 0.984375 -1 0.984375 -0.8125 C 0.984375 -0.6875 0.984375 -0.375 1.234375 -0.15625 C 1.4375 0.015625 1.71875 0.0625 1.953125 0.0625 C 2.390625 0.0625 2.625 -0.171875 2.859375 -0.390625 C 3.015625 0.0625 3.46875 0.0625 3.5625 0.0625 C 3.796875 0.0625 3.96875 -0.0625 4.109375 -0.296875 C 4.265625 -0.5625 4.359375 -0.96875 4.359375 -0.984375 C 4.359375 -1.078125 4.265625 -1.078125 4.234375 -1.078125 C 4.140625 -1.078125 4.140625 -1.046875 4.09375 -0.875 C 4 -0.546875 3.875 -0.125 3.578125 -0.125 C 3.40625 -0.125 3.34375 -0.28125 3.34375 -0.46875 C 3.34375 -0.578125 3.40625 -0.828125 3.453125 -1.015625 C 3.5 -1.203125 3.578125 -1.484375 3.609375 -1.640625 L 3.765625 -2.25 C 3.8125 -2.421875 3.890625 -2.734375 3.890625 -2.765625 C 3.890625 -2.90625 3.78125 -2.984375 3.65625 -2.984375 C 3.40625 -2.984375 3.34375 -2.78125 3.296875 -2.5625 Z M 2.9375 -1.125 "/></g><g id="522ad2ed8a68401137c4de8194a0ba70a0vymnb7__glyph-4-0"><path d="M 5.15625 -1.5625 C 5.265625 -1.5625 5.4375 -1.5625 5.4375 -1.734375 C 5.4375 -1.90625 5.28125 -1.90625 5.15625 -1.90625 L 1.03125 -1.90625 C 0.921875 -1.90625 0.75 -1.90625 0.75 -1.734375 C 0.75 -1.5625 0.90625 -1.5625 1.03125 -1.5625 Z M 5.15625 -1.5625 "/></g><g id="522ad2ed8a68401137c4de8194a0ba70a0vymnb7__glyph-4-1"><path d="M 2.015625 -3.28125 C 2.0625 -3.390625 2.078125 -3.453125 2.078125 -3.5 C 2.078125 -3.71875 1.875 -3.875 1.671875 -3.875 C 1.40625 -3.875 1.3125 -3.65625 1.28125 -3.546875 L 0.375 -0.546875 C 0.359375 -0.53125 0.328125 -0.4375 0.328125 -0.4375 C 0.328125 -0.359375 0.546875 -0.28125 0.609375 -0.28125 C 0.65625 -0.28125 0.65625 -0.296875 0.703125 -0.40625 Z M 2.015625 -3.28125 "/></g><g id="522ad2ed8a68401137c4de8194a0ba70a0vymnb7__glyph-4-2"><path d="M 5.65625 -1.734375 C 5.65625 -3.15625 4.5 -4.296875 3.09375 -4.296875 C 1.671875 -4.296875 0.53125 -3.140625 0.53125 -1.734375 C 0.53125 -0.3125 1.6875 0.8125 3.09375 0.8125 C 4.515625 0.8125 5.65625 -0.34375 5.65625 -1.734375 Z M 0.78125 -1.859375 C 0.8125 -2.9375 1.703125 -3.984375 2.96875 -4.0625 L 2.96875 -1.859375 Z M 3.21875 -4.0625 C 4.484375 -3.984375 5.375 -2.9375 5.40625 -1.859375 L 3.21875 -1.859375 Z M 2.96875 0.578125 C 1.734375 0.5 0.828125 -0.484375 0.765625 -1.625 L 2.96875 -1.625 Z M 5.421875 -1.625 C 5.359375 -0.484375 4.453125 0.5 3.21875 0.578125 L 3.21875 -1.625 Z M 5.421875 -1.625 "/></g><g id="522ad2ed8a68401137c4de8194a0ba70a0vymnb7__glyph-4-3"><path d="M 5.65625 -2.390625 C 5.65625 -2.65625 5.5625 -2.65625 5.53125 -2.65625 C 5.4375 -2.65625 5.421875 -2.46875 5.421875 -2.375 C 5.390625 -1.859375 5.015625 -1.28125 4.375 -1.28125 C 3.875 -1.28125 3.53125 -1.609375 3.140625 -1.953125 C 2.78125 -2.296875 2.359375 -2.65625 1.8125 -2.65625 C 1.03125 -2.65625 0.53125 -1.859375 0.53125 -1.078125 C 0.53125 -0.8125 0.625 -0.8125 0.65625 -0.8125 C 0.75 -0.8125 0.765625 -0.984375 0.765625 -1.09375 C 0.796875 -1.609375 1.171875 -2.1875 1.8125 -2.1875 C 2.3125 -2.1875 2.65625 -1.859375 3.046875 -1.515625 C 3.40625 -1.171875 3.828125 -0.8125 4.375 -0.8125 C 5.15625 -0.8125 5.65625 -1.609375 5.65625 -2.390625 Z M 5.65625 -2.390625 "/></g><g id="522ad2ed8a68401137c4de8194a0ba70a0vymnb7__glyph-4-4"><path d="M 1.34375 -4.9375 C 1.34375 -5.03125 1.34375 -5.203125 1.171875 -5.203125 C 1 -5.203125 1 -5.046875 1 -4.9375 L 1 1.46875 C 1 1.5625 1 1.734375 1.171875 1.734375 C 1.34375 1.734375 1.34375 1.578125 1.34375 1.46875 Z M 1.34375 -4.9375 "/></g><g id="522ad2ed8a68401137c4de8194a0ba70a0vymnb7__glyph-5-0"><path d="M 2.328125 -4.40625 C 2.328125 -4.59375 2.3125 -4.609375 2.109375 -4.609375 C 1.671875 -4.171875 1.046875 -4.15625 0.75 -4.15625 L 0.75 -3.90625 C 0.921875 -3.90625 1.375 -3.90625 1.765625 -4.109375 L 1.765625 -0.5625 C 1.765625 -0.34375 1.765625 -0.25 1.0625 -0.25 L 0.8125 -0.25 L 0.8125 0 C 0.921875 0 1.78125 -0.03125 2.046875 -0.03125 C 2.25 -0.03125 3.125 0 3.28125 0 L 3.28125 -0.25 L 3.015625 -0.25 C 2.328125 -0.25 2.328125 -0.34375 2.328125 -0.5625 Z M 2.328125 -4.40625 "/></g><g id="522ad2ed8a68401137c4de8194a0ba70a0vymnb7__glyph-5-1"><path d="M 3.5 -1.265625 L 3.265625 -1.265625 C 3.25 -1.109375 3.171875 -0.703125 3.09375 -0.625 C 3.03125 -0.59375 2.5 -0.59375 2.40625 -0.59375 L 1.125 -0.59375 C 1.859375 -1.234375 2.09375 -1.421875 2.515625 -1.75 C 3.03125 -2.171875 3.5 -2.59375 3.5 -3.25 C 3.5 -4.09375 2.765625 -4.609375 1.875 -4.609375 C 1.015625 -4.609375 0.4375 -4 0.4375 -3.359375 C 0.4375 -3.015625 0.734375 -2.96875 0.8125 -2.96875 C 0.96875 -2.96875 1.171875 -3.09375 1.171875 -3.34375 C 1.171875 -3.46875 1.125 -3.71875 0.765625 -3.71875 C 0.984375 -4.203125 1.453125 -4.359375 1.78125 -4.359375 C 2.46875 -4.359375 2.828125 -3.8125 2.828125 -3.25 C 2.828125 -2.65625 2.40625 -2.171875 2.171875 -1.921875 L 0.5 -0.265625 C 0.4375 -0.203125 0.4375 -0.1875 0.4375 0 L 3.296875 0 Z M 3.5 -1.265625 "/></g><g id="522ad2ed8a68401137c4de8194a0ba70a0vymnb7__glyph-5-2"><path d="M 3.21875 -1.5625 L 5.328125 -1.5625 C 5.421875 -1.5625 5.59375 -1.5625 5.59375 -1.734375 C 5.59375 -1.90625 5.4375 -1.90625 5.328125 -1.90625 L 3.21875 -1.90625 L 3.21875 -4.03125 C 3.21875 -4.125 3.21875 -4.296875 3.046875 -4.296875 C 2.875 -4.296875 2.875 -4.140625 2.875 -4.03125 L 2.875 -1.90625 L 0.75 -1.90625 C 0.65625 -1.90625 0.484375 -1.90625 0.484375 -1.734375 C 0.484375 -1.5625 0.640625 -1.5625 0.75 -1.5625 L 2.875 -1.5625 L 2.875 0.5625 C 2.875 0.65625 2.875 0.8125 3.03125 0.8125 C 3.21875 0.8125 3.21875 0.65625 3.21875 0.5625 Z M 3.21875 -1.5625 "/></g><g id="522ad2ed8a68401137c4de8194a0ba70a0vymnb7__glyph-5-3"><path d="M 3.578125 -2.21875 C 3.578125 -2.96875 3.484375 -3.53125 3.171875 -4.015625 C 2.953125 -4.328125 2.53125 -4.609375 1.96875 -4.609375 C 0.359375 -4.609375 0.359375 -2.71875 0.359375 -2.21875 C 0.359375 -1.71875 0.359375 0.140625 1.96875 0.140625 C 3.578125 0.140625 3.578125 -1.71875 3.578125 -2.21875 Z M 1.96875 -0.0625 C 1.65625 -0.0625 1.234375 -0.25 1.09375 -0.8125 C 0.984375 -1.21875 0.984375 -1.796875 0.984375 -2.296875 C 0.984375 -2.8125 0.984375 -3.34375 1.09375 -3.71875 C 1.234375 -4.265625 1.6875 -4.40625 1.96875 -4.40625 C 2.34375 -4.40625 2.703125 -4.1875 2.828125 -3.78125 C 2.9375 -3.40625 2.953125 -2.90625 2.953125 -2.296875 C 2.953125 -1.796875 2.953125 -1.28125 2.859375 -0.84375 C 2.71875 -0.203125 2.25 -0.0625 1.96875 -0.0625 Z M 1.96875 -0.0625 "/></g><g id="522ad2ed8a68401137c4de8194a0ba70a0vymnb7__glyph-5-4"><path d="M 2.46875 -5.203125 C 1.140625 -4.28125 0.796875 -2.796875 0.796875 -1.734375 C 0.796875 -0.765625 1.09375 0.75 2.46875 1.734375 C 2.515625 1.734375 2.609375 1.734375 2.609375 1.640625 C 2.609375 1.609375 2.578125 1.59375 2.53125 1.546875 C 1.609375 0.703125 1.265625 -0.46875 1.265625 -1.734375 C 1.265625 -3.609375 1.984375 -4.515625 2.546875 -5.03125 C 2.578125 -5.0625 2.609375 -5.078125 2.609375 -5.125 C 2.609375 -5.203125 2.515625 -5.203125 2.46875 -5.203125 Z M 2.46875 -5.203125 "/></g><g id="522ad2ed8a68401137c4de8194a0ba70a0vymnb7__glyph-5-5"><path d="M 0.625 -5.203125 C 0.578125 -5.203125 0.5 -5.203125 0.5 -5.125 C 0.5 -5.078125 0.515625 -5.0625 0.5625 -5.015625 C 1.15625 -4.46875 1.8125 -3.53125 1.8125 -1.734375 C 1.8125 -0.296875 1.359375 0.8125 0.625 1.484375 C 0.5 1.609375 0.5 1.609375 0.5 1.640625 C 0.5 1.671875 0.515625 1.734375 0.578125 1.734375 C 0.671875 1.734375 1.328125 1.265625 1.78125 0.40625 C 2.09375 -0.171875 2.296875 -0.921875 2.296875 -1.734375 C 2.296875 -2.71875 2 -4.234375 0.625 -5.203125 Z M 0.625 -5.203125 "/></g><g id="522ad2ed8a68401137c4de8194a0ba70a0vymnb7__glyph-5-6"><path d="M 5.328125 -2.328125 C 5.4375 -2.328125 5.59375 -2.328125 5.59375 -2.5 C 5.59375 -2.671875 5.421875 -2.671875 5.328125 -2.671875 L 0.75 -2.671875 C 0.65625 -2.671875 0.484375 -2.671875 0.484375 -2.5 C 0.484375 -2.328125 0.640625 -2.328125 0.75 -2.328125 Z M 5.328125 -0.8125 C 5.421875 -0.8125 5.59375 -0.8125 5.59375 -0.96875 C 5.59375 -1.140625 5.4375 -1.140625 5.328125 -1.140625 L 0.75 -1.140625 C 0.640625 -1.140625 0.484375 -1.140625 0.484375 -0.96875 C 0.484375 -0.8125 0.65625 -0.8125 0.75 -0.8125 Z M 5.328125 -0.8125 "/></g><g id="522ad2ed8a68401137c4de8194a0ba70a0vymnb7__glyph-6-0"><path d="M 3.28125 2.375 C 3.28125 2.34375 3.28125 2.328125 3.109375 2.15625 C 1.875 0.90625 1.5625 -0.953125 1.5625 -2.484375 C 1.5625 -4.203125 1.9375 -5.921875 3.15625 -7.15625 C 3.28125 -7.28125 3.28125 -7.296875 3.28125 -7.328125 C 3.28125 -7.40625 3.234375 -7.4375 3.1875 -7.4375 C 3.078125 -7.4375 2.1875 -6.75 1.609375 -5.5 C 1.09375 -4.40625 0.984375 -3.3125 0.984375 -2.484375 C 0.984375 -1.703125 1.09375 -0.5 1.640625 0.609375 C 2.234375 1.828125 3.078125 2.484375 3.1875 2.484375 C 3.234375 2.484375 3.28125 2.453125 3.28125 2.375 Z M 3.28125 2.375 "/></g><g id="522ad2ed8a68401137c4de8194a0ba70a0vymnb7__glyph-6-1"><path d="M 2.859375 -2.484375 C 2.859375 -3.25 2.75 -4.453125 2.203125 -5.5625 C 1.609375 -6.78125 0.765625 -7.4375 0.65625 -7.4375 C 0.609375 -7.4375 0.5625 -7.390625 0.5625 -7.328125 C 0.5625 -7.296875 0.5625 -7.28125 0.75 -7.109375 C 1.71875 -6.125 2.28125 -4.546875 2.28125 -2.484375 C 2.28125 -0.78125 1.921875 0.953125 0.6875 2.203125 C 0.5625 2.328125 0.5625 2.34375 0.5625 2.375 C 0.5625 2.4375 0.609375 2.484375 0.65625 2.484375 C 0.765625 2.484375 1.65625 1.796875 2.234375 0.546875 C 2.75 -0.546875 2.859375 -1.640625 2.859375 -2.484375 Z M 2.859375 -2.484375 "/></g><g id="522ad2ed8a68401137c4de8194a0ba70a0vymnb7__glyph-7-0"><path d="M 1.78125 -2.296875 C 1.78125 -2.3125 1.828125 -2.40625 1.828125 -2.484375 C 1.828125 -2.65625 1.671875 -2.765625 1.53125 -2.765625 C 1.328125 -2.765625 1.265625 -2.609375 1.25 -2.546875 L 0.484375 -0.390625 C 0.453125 -0.34375 0.453125 -0.328125 0.453125 -0.3125 C 0.453125 -0.234375 0.671875 -0.1875 0.671875 -0.1875 C 0.71875 -0.1875 0.734375 -0.21875 0.765625 -0.265625 Z M 1.78125 -2.296875 "/></g><g id="522ad2ed8a68401137c4de8194a0ba70a0vymnb7__glyph-7-1"><path d="M 4.0625 -1.890625 C 4.0625 -2.796875 3 -3 2.34375 -3 C 1.625 -3 0.625 -2.78125 0.625 -1.890625 L 0.625 -0.109375 C 0.625 -0.03125 0.625 0.109375 0.765625 0.109375 C 0.890625 0.109375 0.890625 -0.03125 0.890625 -0.109375 L 0.890625 -1.875 C 0.890625 -2.03125 0.890625 -2.359375 1.421875 -2.5625 C 1.78125 -2.71875 2.1875 -2.71875 2.34375 -2.71875 C 2.59375 -2.71875 2.953125 -2.6875 3.265625 -2.5625 C 3.78125 -2.359375 3.78125 -2.03125 3.78125 -1.875 L 3.78125 -0.109375 C 3.78125 -0.03125 3.78125 0.109375 3.921875 0.109375 C 4.0625 0.109375 4.0625 -0.03125 4.0625 -0.109375 Z M 4.0625 -1.890625 "/></g><g id="522ad2ed8a68401137c4de8194a0ba70a0vymnb7__glyph-8-0"><path d="M 4.578125 -1.171875 C 4.578125 -1.203125 4.59375 -1.234375 4.59375 -1.265625 C 4.59375 -1.296875 4.578125 -1.34375 4.5 -1.34375 C 4.421875 -1.34375 4.421875 -1.34375 4.359375 -1.21875 C 4 -0.453125 3.71875 -0.21875 2.84375 -0.21875 L 1.84375 -0.21875 C 1.8125 -0.21875 1.734375 -0.21875 1.6875 -0.234375 C 1.6875 -0.265625 1.6875 -0.28125 1.703125 -0.328125 L 2.03125 -1.640625 L 2.671875 -1.640625 C 3.15625 -1.640625 3.171875 -1.546875 3.171875 -1.390625 C 3.171875 -1.359375 3.171875 -1.3125 3.140625 -1.1875 C 3.140625 -1.171875 3.125 -1.15625 3.125 -1.140625 C 3.125 -1.140625 3.125 -1.0625 3.234375 -1.0625 C 3.3125 -1.0625 3.328125 -1.078125 3.34375 -1.171875 L 3.625 -2.28125 C 3.625 -2.296875 3.640625 -2.328125 3.640625 -2.359375 C 3.640625 -2.375 3.625 -2.4375 3.53125 -2.4375 C 3.453125 -2.4375 3.4375 -2.40625 3.421875 -2.328125 C 3.3125 -1.921875 3.15625 -1.859375 2.6875 -1.859375 L 2.078125 -1.859375 L 2.375 -2.984375 C 2.40625 -3.125 2.40625 -3.140625 2.609375 -3.140625 L 3.578125 -3.140625 C 4.28125 -3.140625 4.484375 -3.015625 4.484375 -2.5 C 4.484375 -2.4375 4.46875 -2.34375 4.46875 -2.28125 C 4.46875 -2.203125 4.515625 -2.171875 4.578125 -2.171875 C 4.671875 -2.171875 4.671875 -2.21875 4.6875 -2.3125 L 4.765625 -3.203125 L 4.78125 -3.28125 C 4.78125 -3.359375 4.703125 -3.359375 4.609375 -3.359375 L 1.546875 -3.359375 C 1.4375 -3.359375 1.359375 -3.359375 1.359375 -3.21875 C 1.359375 -3.140625 1.421875 -3.140625 1.546875 -3.140625 C 1.59375 -3.140625 1.765625 -3.140625 1.875 -3.109375 C 1.875 -3.046875 1.875 -3.046875 1.859375 -2.984375 L 1.203125 -0.40625 C 1.171875 -0.265625 1.15625 -0.21875 0.78125 -0.21875 C 0.65625 -0.21875 0.578125 -0.21875 0.578125 -0.078125 C 0.578125 0 0.65625 0 0.75 0 L 3.890625 0 C 4.015625 0 4.03125 0 4.078125 -0.09375 Z M 4.578125 -1.171875 "/></g></g></defs><g fill="rgb(0%, 0%, 0%)" fill-opacity="1"><use xlink:href="#522ad2ed8a68401137c4de8194a0ba70a0vymnb7__glyph-0-0" x="38.146682" y="12.97267"/></g><g fill="rgb(0%, 0%, 0%)" fill-opacity="1"><use xlink:href="#522ad2ed8a68401137c4de8194a0ba70a0vymnb7__glyph-0-0" x="42.552462" y="12.97267"/></g><g fill="rgb(0%, 0%, 0%)" fill-opacity="1"><use xlink:href="#522ad2ed8a68401137c4de8194a0ba70a0vymnb7__glyph-0-0" x="46.948338" y="12.97267"/></g><g fill="rgb(0%, 0%, 0%)" fill-opacity="1"><use xlink:href="#522ad2ed8a68401137c4de8194a0ba70a0vymnb7__glyph-1-0" x="109.733984" y="12.97267"/></g><g fill="rgb(0%, 0%, 0%)" fill-opacity="1"><use xlink:href="#522ad2ed8a68401137c4de8194a0ba70a0vymnb7__glyph-2-0" x="118.770391" y="12.97267"/></g><g fill="rgb(0%, 0%, 0%)" fill-opacity="1"><use xlink:href="#522ad2ed8a68401137c4de8194a0ba70a0vymnb7__glyph-3-0" x="124.825351" y="8.212312"/></g><g fill="rgb(0%, 0%, 0%)" fill-opacity="1"><use xlink:href="#522ad2ed8a68401137c4de8194a0ba70a0vymnb7__glyph-4-0" x="128.504979" y="8.212312"/></g><g fill="rgb(0%, 0%, 0%)" fill-opacity="1"><use xlink:href="#522ad2ed8a68401137c4de8194a0ba70a0vymnb7__glyph-5-0" x="134.695935" y="8.212312"/></g><g fill="rgb(0%, 0%, 0%)" fill-opacity="1"><use xlink:href="#522ad2ed8a68401137c4de8194a0ba70a0vymnb7__glyph-5-1" x="124.825351" y="15.613336"/></g><g fill="rgb(0%, 0%, 0%)" fill-opacity="1"><use xlink:href="#522ad2ed8a68401137c4de8194a0ba70a0vymnb7__glyph-6-0" x="139.138238" y="12.97267"/></g><g fill="rgb(0%, 0%, 0%)" fill-opacity="1"><use xlink:href="#522ad2ed8a68401137c4de8194a0ba70a0vymnb7__glyph-1-1" x="142.990325" y="12.97267"/></g><g fill="rgb(0%, 0%, 0%)" fill-opacity="1"><use xlink:href="#522ad2ed8a68401137c4de8194a0ba70a0vymnb7__glyph-4-1" x="150.873095" y="9.377546"/></g><g fill="rgb(0%, 0%, 0%)" fill-opacity="1"><use xlink:href="#522ad2ed8a68401137c4de8194a0ba70a0vymnb7__glyph-6-1" x="153.651959" y="12.97267"/></g><g fill="rgb(0%, 0%, 0%)" fill-opacity="1"><use xlink:href="#522ad2ed8a68401137c4de8194a0ba70a0vymnb7__glyph-0-1" x="159.702974" y="12.97267"/></g><g fill="rgb(0%, 0%, 0%)" fill-opacity="1"><use xlink:href="#522ad2ed8a68401137c4de8194a0ba70a0vymnb7__glyph-1-0" x="169.606075" y="12.97267"/></g><g fill="rgb(0%, 0%, 0%)" fill-opacity="1"><use xlink:href="#522ad2ed8a68401137c4de8194a0ba70a0vymnb7__glyph-2-0" x="178.652387" y="12.97267"/></g><g fill="rgb(0%, 0%, 0%)" fill-opacity="1"><use xlink:href="#522ad2ed8a68401137c4de8194a0ba70a0vymnb7__glyph-3-0" x="184.701658" y="8.212312"/></g><g fill="rgb(0%, 0%, 0%)" fill-opacity="1"><use xlink:href="#522ad2ed8a68401137c4de8194a0ba70a0vymnb7__glyph-4-0" x="188.381286" y="8.212312"/></g><g fill="rgb(0%, 0%, 0%)" fill-opacity="1"><use xlink:href="#522ad2ed8a68401137c4de8194a0ba70a0vymnb7__glyph-5-0" x="194.572242" y="8.212312"/></g><g fill="rgb(0%, 0%, 0%)" fill-opacity="1"><use xlink:href="#522ad2ed8a68401137c4de8194a0ba70a0vymnb7__glyph-5-1" x="184.701658" y="15.613336"/></g><g fill="rgb(0%, 0%, 0%)" fill-opacity="1"><use xlink:href="#522ad2ed8a68401137c4de8194a0ba70a0vymnb7__glyph-6-0" x="199.01355" y="12.97267"/></g><g fill="rgb(0%, 0%, 0%)" fill-opacity="1"><use xlink:href="#522ad2ed8a68401137c4de8194a0ba70a0vymnb7__glyph-1-1" x="202.865637" y="12.97267"/></g><g fill="rgb(0%, 0%, 0%)" fill-opacity="1"><use xlink:href="#522ad2ed8a68401137c4de8194a0ba70a0vymnb7__glyph-4-1" x="210.748408" y="9.377546"/><use xlink:href="#522ad2ed8a68401137c4de8194a0ba70a0vymnb7__glyph-4-1" x="213.032315" y="9.377546"/></g><g fill="rgb(0%, 0%, 0%)" fill-opacity="1"><use xlink:href="#522ad2ed8a68401137c4de8194a0ba70a0vymnb7__glyph-6-1" x="215.81101" y="12.97267"/></g><g fill="rgb(0%, 0%, 0%)" fill-opacity="1"><use xlink:href="#522ad2ed8a68401137c4de8194a0ba70a0vymnb7__glyph-1-0" x="305.237722" y="12.97267"/></g><g fill="rgb(0%, 0%, 0%)" fill-opacity="1"><use xlink:href="#522ad2ed8a68401137c4de8194a0ba70a0vymnb7__glyph-2-0" x="314.274129" y="12.97267"/></g><g fill="rgb(0%, 0%, 0%)" fill-opacity="1"><use xlink:href="#522ad2ed8a68401137c4de8194a0ba70a0vymnb7__glyph-3-0" x="320.329088" y="8.212312"/></g><g fill="rgb(0%, 0%, 0%)" fill-opacity="1"><use xlink:href="#522ad2ed8a68401137c4de8194a0ba70a0vymnb7__glyph-4-0" x="324.008717" y="8.212312"/></g><g fill="rgb(0%, 0%, 0%)" fill-opacity="1"><use xlink:href="#522ad2ed8a68401137c4de8194a0ba70a0vymnb7__glyph-5-0" x="330.199673" y="8.212312"/></g><g fill="rgb(0%, 0%, 0%)" fill-opacity="1"><use xlink:href="#522ad2ed8a68401137c4de8194a0ba70a0vymnb7__glyph-5-1" x="320.329088" y="15.613336"/></g><g fill="rgb(0%, 0%, 0%)" fill-opacity="1"><use xlink:href="#522ad2ed8a68401137c4de8194a0ba70a0vymnb7__glyph-6-0" x="334.641975" y="12.97267"/></g><g fill="rgb(0%, 0%, 0%)" fill-opacity="1"><use xlink:href="#522ad2ed8a68401137c4de8194a0ba70a0vymnb7__glyph-1-1" x="338.494062" y="12.97267"/></g><g fill="rgb(0%, 0%, 0%)" fill-opacity="1"><use xlink:href="#522ad2ed8a68401137c4de8194a0ba70a0vymnb7__glyph-4-1" x="346.376833" y="9.377546"/></g><g fill="rgb(0%, 0%, 0%)" fill-opacity="1"><use xlink:href="#522ad2ed8a68401137c4de8194a0ba70a0vymnb7__glyph-0-2" x="351.356914" y="12.97267"/></g><g fill="rgb(0%, 0%, 0%)" fill-opacity="1"><use xlink:href="#522ad2ed8a68401137c4de8194a0ba70a0vymnb7__glyph-1-1" x="360.159561" y="12.97267"/></g><g fill="rgb(0%, 0%, 0%)" fill-opacity="1"><use xlink:href="#522ad2ed8a68401137c4de8194a0ba70a0vymnb7__glyph-4-1" x="368.044015" y="9.377546"/><use xlink:href="#522ad2ed8a68401137c4de8194a0ba70a0vymnb7__glyph-4-1" x="370.327922" y="9.377546"/></g><g fill="rgb(0%, 0%, 0%)" fill-opacity="1"><use xlink:href="#522ad2ed8a68401137c4de8194a0ba70a0vymnb7__glyph-6-1" x="373.106617" y="12.97267"/></g><g fill="rgb(0%, 0%, 0%)" fill-opacity="1"><use xlink:href="#522ad2ed8a68401137c4de8194a0ba70a0vymnb7__glyph-1-0" x="448.235355" y="12.97267"/></g><g fill="rgb(0%, 0%, 0%)" fill-opacity="1"><use xlink:href="#522ad2ed8a68401137c4de8194a0ba70a0vymnb7__glyph-2-0" x="457.271762" y="12.97267"/></g><g fill="rgb(0%, 0%, 0%)" fill-opacity="1"><use xlink:href="#522ad2ed8a68401137c4de8194a0ba70a0vymnb7__glyph-3-0" x="463.327716" y="8.212312"/></g><g fill="rgb(0%, 0%, 0%)" fill-opacity="1"><use xlink:href="#522ad2ed8a68401137c4de8194a0ba70a0vymnb7__glyph-5-1" x="463.327716" y="15.613336"/></g><g fill="rgb(0%, 0%, 0%)" fill-opacity="1"><use xlink:href="#522ad2ed8a68401137c4de8194a0ba70a0vymnb7__glyph-6-0" x="467.770915" y="12.97267"/></g><g fill="rgb(0%, 0%, 0%)" fill-opacity="1"><use xlink:href="#522ad2ed8a68401137c4de8194a0ba70a0vymnb7__glyph-1-1" x="471.623001" y="12.97267"/></g><g fill="rgb(0%, 0%, 0%)" fill-opacity="1"><use xlink:href="#522ad2ed8a68401137c4de8194a0ba70a0vymnb7__glyph-6-1" x="479.509428" y="12.97267"/></g><g fill="rgb(0%, 0%, 0%)" fill-opacity="1"><use xlink:href="#522ad2ed8a68401137c4de8194a0ba70a0vymnb7__glyph-1-0" x="556.551379" y="12.97267"/></g><g fill="rgb(0%, 0%, 0%)" fill-opacity="1"><use xlink:href="#522ad2ed8a68401137c4de8194a0ba70a0vymnb7__glyph-2-0" x="565.587786" y="12.97267"/></g><g fill="rgb(0%, 0%, 0%)" fill-opacity="1"><use xlink:href="#522ad2ed8a68401137c4de8194a0ba70a0vymnb7__glyph-3-0" x="571.642746" y="8.212312"/></g><g fill="rgb(0%, 0%, 0%)" fill-opacity="1"><use xlink:href="#522ad2ed8a68401137c4de8194a0ba70a0vymnb7__glyph-5-1" x="571.642746" y="15.613336"/></g><g fill="rgb(0%, 0%, 0%)" fill-opacity="1"><use xlink:href="#522ad2ed8a68401137c4de8194a0ba70a0vymnb7__glyph-6-0" x="576.086939" y="12.97267"/></g><g fill="rgb(0%, 0%, 0%)" fill-opacity="1"><use xlink:href="#522ad2ed8a68401137c4de8194a0ba70a0vymnb7__glyph-1-1" x="579.939025" y="12.97267"/></g><g fill="rgb(0%, 0%, 0%)" fill-opacity="1"><use xlink:href="#522ad2ed8a68401137c4de8194a0ba70a0vymnb7__glyph-4-1" x="587.821796" y="9.377546"/></g><g fill="rgb(0%, 0%, 0%)" fill-opacity="1"><use xlink:href="#522ad2ed8a68401137c4de8194a0ba70a0vymnb7__glyph-6-1" x="590.60066" y="12.97267"/></g><g fill="rgb(0%, 0%, 0%)" fill-opacity="1"><use xlink:href="#522ad2ed8a68401137c4de8194a0ba70a0vymnb7__glyph-0-1" x="596.651675" y="12.97267"/></g><g fill="rgb(0%, 0%, 0%)" fill-opacity="1"><use xlink:href="#522ad2ed8a68401137c4de8194a0ba70a0vymnb7__glyph-1-0" x="606.554776" y="12.97267"/></g><g fill="rgb(0%, 0%, 0%)" fill-opacity="1"><use xlink:href="#522ad2ed8a68401137c4de8194a0ba70a0vymnb7__glyph-2-0" x="615.601088" y="12.97267"/></g><g fill="rgb(0%, 0%, 0%)" fill-opacity="1"><use xlink:href="#522ad2ed8a68401137c4de8194a0ba70a0vymnb7__glyph-3-0" x="621.650358" y="8.212312"/></g><g fill="rgb(0%, 0%, 0%)" fill-opacity="1"><use xlink:href="#522ad2ed8a68401137c4de8194a0ba70a0vymnb7__glyph-5-1" x="621.650358" y="15.613336"/></g><g fill="rgb(0%, 0%, 0%)" fill-opacity="1"><use xlink:href="#522ad2ed8a68401137c4de8194a0ba70a0vymnb7__glyph-6-0" x="626.093557" y="12.97267"/></g><g fill="rgb(0%, 0%, 0%)" fill-opacity="1"><use xlink:href="#522ad2ed8a68401137c4de8194a0ba70a0vymnb7__glyph-1-1" x="629.945644" y="12.97267"/></g><g fill="rgb(0%, 0%, 0%)" fill-opacity="1"><use xlink:href="#522ad2ed8a68401137c4de8194a0ba70a0vymnb7__glyph-4-1" x="637.828415" y="9.377546"/><use xlink:href="#522ad2ed8a68401137c4de8194a0ba70a0vymnb7__glyph-4-1" x="640.112322" y="9.377546"/></g><g fill="rgb(0%, 0%, 0%)" fill-opacity="1"><use xlink:href="#522ad2ed8a68401137c4de8194a0ba70a0vymnb7__glyph-6-1" x="642.891017" y="12.97267"/></g><g fill="rgb(0%, 0%, 0%)" fill-opacity="1"><use xlink:href="#522ad2ed8a68401137c4de8194a0ba70a0vymnb7__glyph-1-0" x="731.912084" y="12.97267"/></g><g fill="rgb(0%, 0%, 0%)" fill-opacity="1"><use xlink:href="#522ad2ed8a68401137c4de8194a0ba70a0vymnb7__glyph-2-0" x="740.948491" y="12.97267"/></g><g fill="rgb(0%, 0%, 0%)" fill-opacity="1"><use xlink:href="#522ad2ed8a68401137c4de8194a0ba70a0vymnb7__glyph-3-0" x="747.003451" y="8.212312"/></g><g fill="rgb(0%, 0%, 0%)" fill-opacity="1"><use xlink:href="#522ad2ed8a68401137c4de8194a0ba70a0vymnb7__glyph-5-1" x="747.003451" y="15.613336"/></g><g fill="rgb(0%, 0%, 0%)" fill-opacity="1"><use xlink:href="#522ad2ed8a68401137c4de8194a0ba70a0vymnb7__glyph-6-0" x="751.447644" y="12.97267"/></g><g fill="rgb(0%, 0%, 0%)" fill-opacity="1"><use xlink:href="#522ad2ed8a68401137c4de8194a0ba70a0vymnb7__glyph-1-1" x="755.299731" y="12.97267"/></g><g fill="rgb(0%, 0%, 0%)" fill-opacity="1"><use xlink:href="#522ad2ed8a68401137c4de8194a0ba70a0vymnb7__glyph-4-1" x="763.182501" y="9.377546"/></g><g fill="rgb(0%, 0%, 0%)" fill-opacity="1"><use xlink:href="#522ad2ed8a68401137c4de8194a0ba70a0vymnb7__glyph-0-2" x="768.162583" y="12.97267"/></g><g fill="rgb(0%, 0%, 0%)" fill-opacity="1"><use xlink:href="#522ad2ed8a68401137c4de8194a0ba70a0vymnb7__glyph-1-1" x="776.96523" y="12.97267"/></g><g fill="rgb(0%, 0%, 0%)" fill-opacity="1"><use xlink:href="#522ad2ed8a68401137c4de8194a0ba70a0vymnb7__glyph-4-1" x="784.849683" y="9.377546"/><use xlink:href="#522ad2ed8a68401137c4de8194a0ba70a0vymnb7__glyph-4-1" x="787.13359" y="9.377546"/></g><g fill="rgb(0%, 0%, 0%)" fill-opacity="1"><use xlink:href="#522ad2ed8a68401137c4de8194a0ba70a0vymnb7__glyph-6-1" x="789.912285" y="12.97267"/></g><g fill="rgb(0%, 0%, 0%)" fill-opacity="1"><use xlink:href="#522ad2ed8a68401137c4de8194a0ba70a0vymnb7__glyph-0-0" x="851.473806" y="12.97267"/></g><g fill="rgb(0%, 0%, 0%)" fill-opacity="1"><use xlink:href="#522ad2ed8a68401137c4de8194a0ba70a0vymnb7__glyph-0-0" x="855.879587" y="12.97267"/></g><g fill="rgb(0%, 0%, 0%)" fill-opacity="1"><use xlink:href="#522ad2ed8a68401137c4de8194a0ba70a0vymnb7__glyph-0-0" x="860.275463" y="12.97267"/></g><g fill="rgb(0%, 0%, 0%)" fill-opacity="1"><use xlink:href="#522ad2ed8a68401137c4de8194a0ba70a0vymnb7__glyph-0-0" x="38.146682" y="67.869889"/></g><g fill="rgb(0%, 0%, 0%)" fill-opacity="1"><use xlink:href="#522ad2ed8a68401137c4de8194a0ba70a0vymnb7__glyph-0-0" x="42.552462" y="67.869889"/></g><g fill="rgb(0%, 0%, 0%)" fill-opacity="1"><use xlink:href="#522ad2ed8a68401137c4de8194a0ba70a0vymnb7__glyph-0-0" x="46.948338" y="67.869889"/></g><g fill="rgb(0%, 0%, 0%)" fill-opacity="1"><use xlink:href="#522ad2ed8a68401137c4de8194a0ba70a0vymnb7__glyph-1-0" x="82.004008" y="67.869889"/></g><g fill="rgb(0%, 0%, 0%)" fill-opacity="1"><use xlink:href="#522ad2ed8a68401137c4de8194a0ba70a0vymnb7__glyph-2-0" x="91.040415" y="67.869889"/></g><g fill="rgb(0%, 0%, 0%)" fill-opacity="1"><use xlink:href="#522ad2ed8a68401137c4de8194a0ba70a0vymnb7__glyph-3-0" x="97.095375" y="63.110526"/></g><g fill="rgb(0%, 0%, 0%)" fill-opacity="1"><use xlink:href="#522ad2ed8a68401137c4de8194a0ba70a0vymnb7__glyph-5-2" x="100.775003" y="63.110526"/></g><g fill="rgb(0%, 0%, 0%)" fill-opacity="1"><use xlink:href="#522ad2ed8a68401137c4de8194a0ba70a0vymnb7__glyph-3-1" x="106.855716" y="63.110526"/></g><g fill="rgb(0%, 0%, 0%)" fill-opacity="1"><use xlink:href="#522ad2ed8a68401137c4de8194a0ba70a0vymnb7__glyph-4-0" x="111.752181" y="63.110526"/></g><g fill="rgb(0%, 0%, 0%)" fill-opacity="1"><use xlink:href="#522ad2ed8a68401137c4de8194a0ba70a0vymnb7__glyph-5-0" x="117.943137" y="63.110526"/></g><g fill="rgb(0%, 0%, 0%)" fill-opacity="1"><use xlink:href="#522ad2ed8a68401137c4de8194a0ba70a0vymnb7__glyph-5-1" x="97.095375" y="70.511549"/></g><g fill="rgb(0%, 0%, 0%)" fill-opacity="1"><use xlink:href="#522ad2ed8a68401137c4de8194a0ba70a0vymnb7__glyph-6-0" x="122.385519" y="67.869889"/></g><g fill="rgb(0%, 0%, 0%)" fill-opacity="1"><use xlink:href="#522ad2ed8a68401137c4de8194a0ba70a0vymnb7__glyph-1-1" x="126.237605" y="67.869889"/></g><g fill="rgb(0%, 0%, 0%)" fill-opacity="1"><use xlink:href="#522ad2ed8a68401137c4de8194a0ba70a0vymnb7__glyph-4-1" x="134.120376" y="64.27576"/></g><g fill="rgb(0%, 0%, 0%)" fill-opacity="1"><use xlink:href="#522ad2ed8a68401137c4de8194a0ba70a0vymnb7__glyph-1-2" x="136.899239" y="67.869889"/></g><g fill="rgb(0%, 0%, 0%)" fill-opacity="1"><use xlink:href="#522ad2ed8a68401137c4de8194a0ba70a0vymnb7__glyph-1-1" x="141.30502" y="67.869889"/></g><g fill="rgb(0%, 0%, 0%)" fill-opacity="1"><use xlink:href="#522ad2ed8a68401137c4de8194a0ba70a0vymnb7__glyph-4-1" x="149.183904" y="64.27576"/></g><g fill="rgb(0%, 0%, 0%)" fill-opacity="1"><use xlink:href="#522ad2ed8a68401137c4de8194a0ba70a0vymnb7__glyph-5-3" x="148.613218" y="70.328612"/></g><g fill="rgb(0%, 0%, 0%)" fill-opacity="1"><use xlink:href="#522ad2ed8a68401137c4de8194a0ba70a0vymnb7__glyph-6-1" x="153.056417" y="67.869889"/></g><g fill="rgb(0%, 0%, 0%)" fill-opacity="1"><use xlink:href="#522ad2ed8a68401137c4de8194a0ba70a0vymnb7__glyph-0-1" x="159.107432" y="67.869889"/></g><g fill="rgb(0%, 0%, 0%)" fill-opacity="1"><use xlink:href="#522ad2ed8a68401137c4de8194a0ba70a0vymnb7__glyph-1-0" x="169.010534" y="67.869889"/></g><g fill="rgb(0%, 0%, 0%)" fill-opacity="1"><use xlink:href="#522ad2ed8a68401137c4de8194a0ba70a0vymnb7__glyph-2-0" x="178.056845" y="67.869889"/></g><g fill="rgb(0%, 0%, 0%)" fill-opacity="1"><use xlink:href="#522ad2ed8a68401137c4de8194a0ba70a0vymnb7__glyph-3-0" x="184.106116" y="63.110526"/></g><g fill="rgb(0%, 0%, 0%)" fill-opacity="1"><use xlink:href="#522ad2ed8a68401137c4de8194a0ba70a0vymnb7__glyph-5-2" x="187.785744" y="63.110526"/></g><g fill="rgb(0%, 0%, 0%)" fill-opacity="1"><use xlink:href="#522ad2ed8a68401137c4de8194a0ba70a0vymnb7__glyph-3-1" x="193.866457" y="63.110526"/></g><g fill="rgb(0%, 0%, 0%)" fill-opacity="1"><use xlink:href="#522ad2ed8a68401137c4de8194a0ba70a0vymnb7__glyph-4-0" x="198.762922" y="63.110526"/></g><g fill="rgb(0%, 0%, 0%)" fill-opacity="1"><use xlink:href="#522ad2ed8a68401137c4de8194a0ba70a0vymnb7__glyph-5-0" x="204.953878" y="63.110526"/></g><g fill="rgb(0%, 0%, 0%)" fill-opacity="1"><use xlink:href="#522ad2ed8a68401137c4de8194a0ba70a0vymnb7__glyph-5-1" x="184.106116" y="70.511549"/></g><g fill="rgb(0%, 0%, 0%)" fill-opacity="1"><use xlink:href="#522ad2ed8a68401137c4de8194a0ba70a0vymnb7__glyph-6-0" x="209.39626" y="67.869889"/></g><g fill="rgb(0%, 0%, 0%)" fill-opacity="1"><use xlink:href="#522ad2ed8a68401137c4de8194a0ba70a0vymnb7__glyph-1-1" x="213.248346" y="67.869889"/></g><g fill="rgb(0%, 0%, 0%)" fill-opacity="1"><use xlink:href="#522ad2ed8a68401137c4de8194a0ba70a0vymnb7__glyph-4-1" x="221.131117" y="64.27576"/><use xlink:href="#522ad2ed8a68401137c4de8194a0ba70a0vymnb7__glyph-4-1" x="223.415024" y="64.27576"/></g><g fill="rgb(0%, 0%, 0%)" fill-opacity="1"><use xlink:href="#522ad2ed8a68401137c4de8194a0ba70a0vymnb7__glyph-1-2" x="226.193719" y="67.869889"/></g><g fill="rgb(0%, 0%, 0%)" fill-opacity="1"><use xlink:href="#522ad2ed8a68401137c4de8194a0ba70a0vymnb7__glyph-1-1" x="230.5995" y="67.869889"/></g><g fill="rgb(0%, 0%, 0%)" fill-opacity="1"><use xlink:href="#522ad2ed8a68401137c4de8194a0ba70a0vymnb7__glyph-4-1" x="238.478384" y="64.27576"/><use xlink:href="#522ad2ed8a68401137c4de8194a0ba70a0vymnb7__glyph-4-1" x="240.762291" y="64.27576"/></g><g fill="rgb(0%, 0%, 0%)" fill-opacity="1"><use xlink:href="#522ad2ed8a68401137c4de8194a0ba70a0vymnb7__glyph-5-3" x="237.907698" y="70.328612"/></g><g fill="rgb(0%, 0%, 0%)" fill-opacity="1"><use xlink:href="#522ad2ed8a68401137c4de8194a0ba70a0vymnb7__glyph-6-1" x="243.540986" y="67.869889"/></g><g fill="rgb(0%, 0%, 0%)" fill-opacity="1"><use xlink:href="#522ad2ed8a68401137c4de8194a0ba70a0vymnb7__glyph-1-0" x="279.695044" y="67.869889"/></g><g fill="rgb(0%, 0%, 0%)" fill-opacity="1"><use xlink:href="#522ad2ed8a68401137c4de8194a0ba70a0vymnb7__glyph-2-0" x="288.731451" y="67.869889"/></g><g fill="rgb(0%, 0%, 0%)" fill-opacity="1"><use xlink:href="#522ad2ed8a68401137c4de8194a0ba70a0vymnb7__glyph-3-0" x="294.786411" y="63.110526"/></g><g fill="rgb(0%, 0%, 0%)" fill-opacity="1"><use xlink:href="#522ad2ed8a68401137c4de8194a0ba70a0vymnb7__glyph-5-2" x="298.46604" y="63.110526"/></g><g fill="rgb(0%, 0%, 0%)" fill-opacity="1"><use xlink:href="#522ad2ed8a68401137c4de8194a0ba70a0vymnb7__glyph-3-1" x="304.546752" y="63.110526"/></g><g fill="rgb(0%, 0%, 0%)" fill-opacity="1"><use xlink:href="#522ad2ed8a68401137c4de8194a0ba70a0vymnb7__glyph-4-0" x="309.443217" y="63.110526"/></g><g fill="rgb(0%, 0%, 0%)" fill-opacity="1"><use xlink:href="#522ad2ed8a68401137c4de8194a0ba70a0vymnb7__glyph-5-0" x="315.634173" y="63.110526"/></g><g fill="rgb(0%, 0%, 0%)" fill-opacity="1"><use xlink:href="#522ad2ed8a68401137c4de8194a0ba70a0vymnb7__glyph-5-1" x="294.786411" y="70.511549"/></g><g fill="rgb(0%, 0%, 0%)" fill-opacity="1"><use xlink:href="#522ad2ed8a68401137c4de8194a0ba70a0vymnb7__glyph-6-0" x="320.076555" y="67.869889"/></g><g fill="rgb(0%, 0%, 0%)" fill-opacity="1"><use xlink:href="#522ad2ed8a68401137c4de8194a0ba70a0vymnb7__glyph-1-1" x="323.928641" y="67.869889"/></g><g fill="rgb(0%, 0%, 0%)" fill-opacity="1"><use xlink:href="#522ad2ed8a68401137c4de8194a0ba70a0vymnb7__glyph-4-1" x="331.811412" y="64.27576"/></g><g fill="rgb(0%, 0%, 0%)" fill-opacity="1"><use xlink:href="#522ad2ed8a68401137c4de8194a0ba70a0vymnb7__glyph-0-2" x="336.790499" y="67.869889"/></g><g fill="rgb(0%, 0%, 0%)" fill-opacity="1"><use xlink:href="#522ad2ed8a68401137c4de8194a0ba70a0vymnb7__glyph-1-1" x="345.593146" y="67.869889"/></g><g fill="rgb(0%, 0%, 0%)" fill-opacity="1"><use xlink:href="#522ad2ed8a68401137c4de8194a0ba70a0vymnb7__glyph-4-1" x="353.478594" y="64.27576"/><use xlink:href="#522ad2ed8a68401137c4de8194a0ba70a0vymnb7__glyph-4-1" x="355.762501" y="64.27576"/></g><g fill="rgb(0%, 0%, 0%)" fill-opacity="1"><use xlink:href="#522ad2ed8a68401137c4de8194a0ba70a0vymnb7__glyph-1-2" x="358.541196" y="67.869889"/></g><g fill="rgb(0%, 0%, 0%)" fill-opacity="1"><use xlink:href="#522ad2ed8a68401137c4de8194a0ba70a0vymnb7__glyph-1-1" x="362.946977" y="67.869889"/></g><g fill="rgb(0%, 0%, 0%)" fill-opacity="1"><use xlink:href="#522ad2ed8a68401137c4de8194a0ba70a0vymnb7__glyph-4-1" x="370.825861" y="64.27576"/></g><g fill="rgb(0%, 0%, 0%)" fill-opacity="1"><use xlink:href="#522ad2ed8a68401137c4de8194a0ba70a0vymnb7__glyph-5-3" x="370.255175" y="70.328612"/></g><g fill="rgb(0%, 0%, 0%)" fill-opacity="1"><use xlink:href="#522ad2ed8a68401137c4de8194a0ba70a0vymnb7__glyph-0-2" x="376.899591" y="67.869889"/></g><g fill="rgb(0%, 0%, 0%)" fill-opacity="1"><use xlink:href="#522ad2ed8a68401137c4de8194a0ba70a0vymnb7__glyph-1-1" x="385.702238" y="67.869889"/></g><g fill="rgb(0%, 0%, 0%)" fill-opacity="1"><use xlink:href="#522ad2ed8a68401137c4de8194a0ba70a0vymnb7__glyph-4-1" x="393.586692" y="64.27576"/><use xlink:href="#522ad2ed8a68401137c4de8194a0ba70a0vymnb7__glyph-4-1" x="395.870599" y="64.27576"/></g><g fill="rgb(0%, 0%, 0%)" fill-opacity="1"><use xlink:href="#522ad2ed8a68401137c4de8194a0ba70a0vymnb7__glyph-5-3" x="393.016006" y="70.328612"/></g><g fill="rgb(0%, 0%, 0%)" fill-opacity="1"><use xlink:href="#522ad2ed8a68401137c4de8194a0ba70a0vymnb7__glyph-6-1" x="398.649294" y="67.869889"/></g><g fill="rgb(0%, 0%, 0%)" fill-opacity="1"><use xlink:href="#522ad2ed8a68401137c4de8194a0ba70a0vymnb7__glyph-1-0" x="434.803353" y="67.869889"/></g><g fill="rgb(0%, 0%, 0%)" fill-opacity="1"><use xlink:href="#522ad2ed8a68401137c4de8194a0ba70a0vymnb7__glyph-2-0" x="443.839759" y="67.869889"/></g><g fill="rgb(0%, 0%, 0%)" fill-opacity="1"><use xlink:href="#522ad2ed8a68401137c4de8194a0ba70a0vymnb7__glyph-3-0" x="449.894719" y="63.110526"/></g><g fill="rgb(0%, 0%, 0%)" fill-opacity="1"><use xlink:href="#522ad2ed8a68401137c4de8194a0ba70a0vymnb7__glyph-5-2" x="453.574348" y="63.110526"/></g><g fill="rgb(0%, 0%, 0%)" fill-opacity="1"><use xlink:href="#522ad2ed8a68401137c4de8194a0ba70a0vymnb7__glyph-3-1" x="459.65506" y="63.110526"/></g><g fill="rgb(0%, 0%, 0%)" fill-opacity="1"><use xlink:href="#522ad2ed8a68401137c4de8194a0ba70a0vymnb7__glyph-5-1" x="449.894719" y="70.511549"/></g><g fill="rgb(0%, 0%, 0%)" fill-opacity="1"><use xlink:href="#522ad2ed8a68401137c4de8194a0ba70a0vymnb7__glyph-6-0" x="465.045739" y="67.869889"/></g><g fill="rgb(0%, 0%, 0%)" fill-opacity="1"><use xlink:href="#522ad2ed8a68401137c4de8194a0ba70a0vymnb7__glyph-1-1" x="468.897826" y="67.869889"/></g><g fill="rgb(0%, 0%, 0%)" fill-opacity="1"><use xlink:href="#522ad2ed8a68401137c4de8194a0ba70a0vymnb7__glyph-1-2" x="476.784253" y="67.869889"/></g><g fill="rgb(0%, 0%, 0%)" fill-opacity="1"><use xlink:href="#522ad2ed8a68401137c4de8194a0ba70a0vymnb7__glyph-1-1" x="481.180128" y="67.869889"/></g><g fill="rgb(0%, 0%, 0%)" fill-opacity="1"><use xlink:href="#522ad2ed8a68401137c4de8194a0ba70a0vymnb7__glyph-5-3" x="488.494575" y="69.356258"/></g><g fill="rgb(0%, 0%, 0%)" fill-opacity="1"><use xlink:href="#522ad2ed8a68401137c4de8194a0ba70a0vymnb7__glyph-6-1" x="492.937774" y="67.869889"/></g><g fill="rgb(0%, 0%, 0%)" fill-opacity="1"><use xlink:href="#522ad2ed8a68401137c4de8194a0ba70a0vymnb7__glyph-1-0" x="529.091833" y="67.869889"/></g><g fill="rgb(0%, 0%, 0%)" fill-opacity="1"><use xlink:href="#522ad2ed8a68401137c4de8194a0ba70a0vymnb7__glyph-2-0" x="538.12824" y="67.869889"/></g><g fill="rgb(0%, 0%, 0%)" fill-opacity="1"><use xlink:href="#522ad2ed8a68401137c4de8194a0ba70a0vymnb7__glyph-3-0" x="544.183199" y="63.110526"/></g><g fill="rgb(0%, 0%, 0%)" fill-opacity="1"><use xlink:href="#522ad2ed8a68401137c4de8194a0ba70a0vymnb7__glyph-5-2" x="547.862828" y="63.110526"/></g><g fill="rgb(0%, 0%, 0%)" fill-opacity="1"><use xlink:href="#522ad2ed8a68401137c4de8194a0ba70a0vymnb7__glyph-3-1" x="553.943541" y="63.110526"/></g><g fill="rgb(0%, 0%, 0%)" fill-opacity="1"><use xlink:href="#522ad2ed8a68401137c4de8194a0ba70a0vymnb7__glyph-5-1" x="544.183199" y="70.511549"/></g><g fill="rgb(0%, 0%, 0%)" fill-opacity="1"><use xlink:href="#522ad2ed8a68401137c4de8194a0ba70a0vymnb7__glyph-6-0" x="559.334219" y="67.869889"/></g><g fill="rgb(0%, 0%, 0%)" fill-opacity="1"><use xlink:href="#522ad2ed8a68401137c4de8194a0ba70a0vymnb7__glyph-1-1" x="563.186306" y="67.869889"/></g><g fill="rgb(0%, 0%, 0%)" fill-opacity="1"><use xlink:href="#522ad2ed8a68401137c4de8194a0ba70a0vymnb7__glyph-4-1" x="571.069077" y="64.27576"/></g><g fill="rgb(0%, 0%, 0%)" fill-opacity="1"><use xlink:href="#522ad2ed8a68401137c4de8194a0ba70a0vymnb7__glyph-1-2" x="573.84794" y="67.869889"/></g><g fill="rgb(0%, 0%, 0%)" fill-opacity="1"><use xlink:href="#522ad2ed8a68401137c4de8194a0ba70a0vymnb7__glyph-1-1" x="578.253721" y="67.869889"/></g><g fill="rgb(0%, 0%, 0%)" fill-opacity="1"><use xlink:href="#522ad2ed8a68401137c4de8194a0ba70a0vymnb7__glyph-4-1" x="586.132605" y="64.27576"/></g><g fill="rgb(0%, 0%, 0%)" fill-opacity="1"><use xlink:href="#522ad2ed8a68401137c4de8194a0ba70a0vymnb7__glyph-5-3" x="585.561919" y="70.328612"/></g><g fill="rgb(0%, 0%, 0%)" fill-opacity="1"><use xlink:href="#522ad2ed8a68401137c4de8194a0ba70a0vymnb7__glyph-6-1" x="590.005118" y="67.869889"/></g><g fill="rgb(0%, 0%, 0%)" fill-opacity="1"><use xlink:href="#522ad2ed8a68401137c4de8194a0ba70a0vymnb7__glyph-0-1" x="596.056133" y="67.869889"/></g><g fill="rgb(0%, 0%, 0%)" fill-opacity="1"><use xlink:href="#522ad2ed8a68401137c4de8194a0ba70a0vymnb7__glyph-1-0" x="605.959234" y="67.869889"/></g><g fill="rgb(0%, 0%, 0%)" fill-opacity="1"><use xlink:href="#522ad2ed8a68401137c4de8194a0ba70a0vymnb7__glyph-2-0" x="615.005546" y="67.869889"/></g><g fill="rgb(0%, 0%, 0%)" fill-opacity="1"><use xlink:href="#522ad2ed8a68401137c4de8194a0ba70a0vymnb7__glyph-3-0" x="621.054817" y="63.110526"/></g><g fill="rgb(0%, 0%, 0%)" fill-opacity="1"><use xlink:href="#522ad2ed8a68401137c4de8194a0ba70a0vymnb7__glyph-5-2" x="624.734445" y="63.110526"/></g><g fill="rgb(0%, 0%, 0%)" fill-opacity="1"><use xlink:href="#522ad2ed8a68401137c4de8194a0ba70a0vymnb7__glyph-3-1" x="630.815158" y="63.110526"/></g><g fill="rgb(0%, 0%, 0%)" fill-opacity="1"><use xlink:href="#522ad2ed8a68401137c4de8194a0ba70a0vymnb7__glyph-5-1" x="621.054817" y="70.511549"/></g><g fill="rgb(0%, 0%, 0%)" fill-opacity="1"><use xlink:href="#522ad2ed8a68401137c4de8194a0ba70a0vymnb7__glyph-6-0" x="636.205837" y="67.869889"/></g><g fill="rgb(0%, 0%, 0%)" fill-opacity="1"><use xlink:href="#522ad2ed8a68401137c4de8194a0ba70a0vymnb7__glyph-1-1" x="640.057923" y="67.869889"/></g><g fill="rgb(0%, 0%, 0%)" fill-opacity="1"><use xlink:href="#522ad2ed8a68401137c4de8194a0ba70a0vymnb7__glyph-4-1" x="647.940694" y="64.27576"/><use xlink:href="#522ad2ed8a68401137c4de8194a0ba70a0vymnb7__glyph-4-1" x="650.224602" y="64.27576"/></g><g fill="rgb(0%, 0%, 0%)" fill-opacity="1"><use xlink:href="#522ad2ed8a68401137c4de8194a0ba70a0vymnb7__glyph-1-2" x="653.003296" y="67.869889"/></g><g fill="rgb(0%, 0%, 0%)" fill-opacity="1"><use xlink:href="#522ad2ed8a68401137c4de8194a0ba70a0vymnb7__glyph-1-1" x="657.409077" y="67.869889"/></g><g fill="rgb(0%, 0%, 0%)" fill-opacity="1"><use xlink:href="#522ad2ed8a68401137c4de8194a0ba70a0vymnb7__glyph-4-1" x="665.287961" y="64.27576"/><use xlink:href="#522ad2ed8a68401137c4de8194a0ba70a0vymnb7__glyph-4-1" x="667.571868" y="64.27576"/></g><g fill="rgb(0%, 0%, 0%)" fill-opacity="1"><use xlink:href="#522ad2ed8a68401137c4de8194a0ba70a0vymnb7__glyph-5-3" x="664.717275" y="70.328612"/></g><g fill="rgb(0%, 0%, 0%)" fill-opacity="1"><use xlink:href="#522ad2ed8a68401137c4de8194a0ba70a0vymnb7__glyph-6-1" x="670.350563" y="67.869889"/></g><g fill="rgb(0%, 0%, 0%)" fill-opacity="1"><use xlink:href="#522ad2ed8a68401137c4de8194a0ba70a0vymnb7__glyph-1-0" x="706.504622" y="67.869889"/></g><g fill="rgb(0%, 0%, 0%)" fill-opacity="1"><use xlink:href="#522ad2ed8a68401137c4de8194a0ba70a0vymnb7__glyph-2-0" x="715.541029" y="67.869889"/></g><g fill="rgb(0%, 0%, 0%)" fill-opacity="1"><use xlink:href="#522ad2ed8a68401137c4de8194a0ba70a0vymnb7__glyph-3-0" x="721.595988" y="63.110526"/></g><g fill="rgb(0%, 0%, 0%)" fill-opacity="1"><use xlink:href="#522ad2ed8a68401137c4de8194a0ba70a0vymnb7__glyph-5-2" x="725.275617" y="63.110526"/></g><g fill="rgb(0%, 0%, 0%)" fill-opacity="1"><use xlink:href="#522ad2ed8a68401137c4de8194a0ba70a0vymnb7__glyph-3-1" x="731.35633" y="63.110526"/></g><g fill="rgb(0%, 0%, 0%)" fill-opacity="1"><use xlink:href="#522ad2ed8a68401137c4de8194a0ba70a0vymnb7__glyph-5-1" x="721.595988" y="70.511549"/></g><g fill="rgb(0%, 0%, 0%)" fill-opacity="1"><use xlink:href="#522ad2ed8a68401137c4de8194a0ba70a0vymnb7__glyph-6-0" x="736.747009" y="67.869889"/></g><g fill="rgb(0%, 0%, 0%)" fill-opacity="1"><use xlink:href="#522ad2ed8a68401137c4de8194a0ba70a0vymnb7__glyph-1-1" x="740.599095" y="67.869889"/></g><g fill="rgb(0%, 0%, 0%)" fill-opacity="1"><use xlink:href="#522ad2ed8a68401137c4de8194a0ba70a0vymnb7__glyph-4-1" x="748.481866" y="64.27576"/></g><g fill="rgb(0%, 0%, 0%)" fill-opacity="1"><use xlink:href="#522ad2ed8a68401137c4de8194a0ba70a0vymnb7__glyph-0-2" x="753.461947" y="67.869889"/></g><g fill="rgb(0%, 0%, 0%)" fill-opacity="1"><use xlink:href="#522ad2ed8a68401137c4de8194a0ba70a0vymnb7__glyph-1-1" x="762.264594" y="67.869889"/></g><g fill="rgb(0%, 0%, 0%)" fill-opacity="1"><use xlink:href="#522ad2ed8a68401137c4de8194a0ba70a0vymnb7__glyph-4-1" x="770.149048" y="64.27576"/><use xlink:href="#522ad2ed8a68401137c4de8194a0ba70a0vymnb7__glyph-4-1" x="772.432955" y="64.27576"/></g><g fill="rgb(0%, 0%, 0%)" fill-opacity="1"><use xlink:href="#522ad2ed8a68401137c4de8194a0ba70a0vymnb7__glyph-1-2" x="775.21165" y="67.869889"/></g><g fill="rgb(0%, 0%, 0%)" fill-opacity="1"><use xlink:href="#522ad2ed8a68401137c4de8194a0ba70a0vymnb7__glyph-1-1" x="779.617431" y="67.869889"/></g><g fill="rgb(0%, 0%, 0%)" fill-opacity="1"><use xlink:href="#522ad2ed8a68401137c4de8194a0ba70a0vymnb7__glyph-4-1" x="787.496314" y="64.27576"/></g><g fill="rgb(0%, 0%, 0%)" fill-opacity="1"><use xlink:href="#522ad2ed8a68401137c4de8194a0ba70a0vymnb7__glyph-5-3" x="786.925628" y="70.328612"/></g><g fill="rgb(0%, 0%, 0%)" fill-opacity="1"><use xlink:href="#522ad2ed8a68401137c4de8194a0ba70a0vymnb7__glyph-0-2" x="793.570045" y="67.869889"/></g><g fill="rgb(0%, 0%, 0%)" fill-opacity="1"><use xlink:href="#522ad2ed8a68401137c4de8194a0ba70a0vymnb7__glyph-1-1" x="802.372692" y="67.869889"/></g><g fill="rgb(0%, 0%, 0%)" fill-opacity="1"><use xlink:href="#522ad2ed8a68401137c4de8194a0ba70a0vymnb7__glyph-4-1" x="810.25814" y="64.27576"/><use xlink:href="#522ad2ed8a68401137c4de8194a0ba70a0vymnb7__glyph-4-1" x="812.542047" y="64.27576"/></g><g fill="rgb(0%, 0%, 0%)" fill-opacity="1"><use xlink:href="#522ad2ed8a68401137c4de8194a0ba70a0vymnb7__glyph-5-3" x="809.686459" y="70.328612"/></g><g fill="rgb(0%, 0%, 0%)" fill-opacity="1"><use xlink:href="#522ad2ed8a68401137c4de8194a0ba70a0vymnb7__glyph-6-1" x="815.320742" y="67.869889"/></g><g fill="rgb(0%, 0%, 0%)" fill-opacity="1"><use xlink:href="#522ad2ed8a68401137c4de8194a0ba70a0vymnb7__glyph-0-0" x="851.473806" y="67.869889"/></g><g fill="rgb(0%, 0%, 0%)" fill-opacity="1"><use xlink:href="#522ad2ed8a68401137c4de8194a0ba70a0vymnb7__glyph-0-0" x="855.879587" y="67.869889"/></g><g fill="rgb(0%, 0%, 0%)" fill-opacity="1"><use xlink:href="#522ad2ed8a68401137c4de8194a0ba70a0vymnb7__glyph-0-0" x="860.275463" y="67.869889"/></g><path fill="none" stroke="rgb(0%, 0%, 0%)" stroke-linecap="butt" stroke-linejoin="miter" stroke-miterlimit="10" stroke-opacity="1" stroke-width="0.39848" d="M -398.729537 26.725957 L -347.724129 26.725957 " transform="matrix(0.994227, 0, 0, -0.994227, 450.587695, 37.067753)"/><path fill="none" stroke="rgb(0%, 0%, 0%)" stroke-linecap="round" stroke-linejoin="round" stroke-miterlimit="10" stroke-opacity="1" stroke-width="0.39848" d="M -2.07221 2.392187 C -1.695032 0.958127 -0.850312 0.278421 -0.00166198 -0.000533079 C -0.850312 -0.279487 -1.695032 -0.955264 -2.07221 -2.389324 " transform="matrix(0.994227, 0, 0, -0.994227, 105.068059, 10.495564)"/><path fill="none" stroke="rgb(0%, 0%, 0%)" stroke-linecap="butt" stroke-linejoin="miter" stroke-miterlimit="10" stroke-opacity="1" stroke-width="0.39848" d="M -227.781661 26.725957 L -151.084959 26.725957 " transform="matrix(0.994227, 0, 0, -0.994227, 450.587695, 37.067753)"/><path fill="none" stroke="rgb(0%, 0%, 0%)" stroke-linecap="round" stroke-linejoin="round" stroke-miterlimit="10" stroke-opacity="1" stroke-width="0.39848" d="M -2.070911 2.392187 C -1.693733 0.958127 -0.849013 0.278421 -0.000363324 -0.000533079 C -0.849013 -0.279487 -1.693733 -0.955264 -2.070911 -2.389324 " transform="matrix(0.994227, 0, 0, -0.994227, 300.57458, 10.495564)"/><path fill="none" stroke="rgb(0%, 0%, 0%)" stroke-linecap="butt" stroke-linejoin="miter" stroke-miterlimit="10" stroke-opacity="1" stroke-width="0.39848" d="M -287.552519 17.732629 L -287.552519 -17.337027 " transform="matrix(0.994227, 0, 0, -0.994227, 450.587695, 37.067753)"/><path fill="none" stroke="rgb(0%, 0%, 0%)" stroke-linecap="round" stroke-linejoin="round" stroke-miterlimit="10" stroke-opacity="1" stroke-width="0.39848" d="M -2.071604 2.389582 C -1.694426 0.955522 -0.849706 0.279745 -0.00105622 0.000790876 C -0.849706 -0.278163 -1.694426 -0.957869 -2.071604 -2.391929 " transform="matrix(0, 0.994227, 0.994227, 0, 164.694526, 54.50105)"/><g fill="rgb(0%, 0%, 0%)" fill-opacity="1"><use xlink:href="#522ad2ed8a68401137c4de8194a0ba70a0vymnb7__glyph-5-4" x="167.028284" y="39.07112"/></g><g fill="rgb(0%, 0%, 0%)" fill-opacity="1"><use xlink:href="#522ad2ed8a68401137c4de8194a0ba70a0vymnb7__glyph-4-0" x="170.123416" y="39.07112"/></g><g fill="rgb(0%, 0%, 0%)" fill-opacity="1"><use xlink:href="#522ad2ed8a68401137c4de8194a0ba70a0vymnb7__glyph-3-2" x="176.314372" y="39.07112"/><use xlink:href="#522ad2ed8a68401137c4de8194a0ba70a0vymnb7__glyph-3-3" x="184.210978" y="39.07112"/></g><g fill="rgb(0%, 0%, 0%)" fill-opacity="1"><use xlink:href="#522ad2ed8a68401137c4de8194a0ba70a0vymnb7__glyph-7-0" x="188.894311" y="36.082474"/></g><g fill="rgb(0%, 0%, 0%)" fill-opacity="1"><use xlink:href="#522ad2ed8a68401137c4de8194a0ba70a0vymnb7__glyph-5-5" x="191.573752" y="39.07112"/></g><g fill="rgb(0%, 0%, 0%)" fill-opacity="1"><use xlink:href="#522ad2ed8a68401137c4de8194a0ba70a0vymnb7__glyph-4-2" x="194.668884" y="39.07112"/></g><g fill="rgb(0%, 0%, 0%)" fill-opacity="1"><use xlink:href="#522ad2ed8a68401137c4de8194a0ba70a0vymnb7__glyph-5-4" x="200.85984" y="39.07112"/></g><g fill="rgb(0%, 0%, 0%)" fill-opacity="1"><use xlink:href="#522ad2ed8a68401137c4de8194a0ba70a0vymnb7__glyph-4-0" x="203.954971" y="39.07112"/></g><g fill="rgb(0%, 0%, 0%)" fill-opacity="1"><use xlink:href="#522ad2ed8a68401137c4de8194a0ba70a0vymnb7__glyph-3-2" x="210.145927" y="39.07112"/><use xlink:href="#522ad2ed8a68401137c4de8194a0ba70a0vymnb7__glyph-3-3" x="218.042533" y="39.07112"/></g><g fill="rgb(0%, 0%, 0%)" fill-opacity="1"><use xlink:href="#522ad2ed8a68401137c4de8194a0ba70a0vymnb7__glyph-7-0" x="222.724862" y="36.082474"/><use xlink:href="#522ad2ed8a68401137c4de8194a0ba70a0vymnb7__glyph-7-0" x="224.908933" y="36.082474"/></g><g fill="rgb(0%, 0%, 0%)" fill-opacity="1"><use xlink:href="#522ad2ed8a68401137c4de8194a0ba70a0vymnb7__glyph-5-5" x="227.588619" y="39.07112"/></g><g fill="rgb(0%, 0%, 0%)" fill-opacity="1"><use xlink:href="#522ad2ed8a68401137c4de8194a0ba70a0vymnb7__glyph-4-3" x="156.1763" y="37.315315"/></g><g fill="rgb(0%, 0%, 0%)" fill-opacity="1"><use xlink:href="#522ad2ed8a68401137c4de8194a0ba70a0vymnb7__glyph-5-6" x="156.231977" y="39.483724"/></g><path fill="none" stroke="rgb(0%, 0%, 0%)" stroke-linecap="butt" stroke-linejoin="miter" stroke-miterlimit="10" stroke-opacity="1" stroke-width="0.39848" d="M -69.567456 26.725957 L -7.254578 26.725957 " transform="matrix(0.994227, 0, 0, -0.994227, 450.587695, 37.067753)"/><path fill="none" stroke="rgb(0%, 0%, 0%)" stroke-linecap="round" stroke-linejoin="round" stroke-miterlimit="10" stroke-opacity="1" stroke-width="0.39848" d="M -2.07065 2.392187 C -1.693473 0.958127 -0.848752 0.278421 -0.000102593 -0.000533079 C -0.848752 -0.279487 -1.693473 -0.955264 -2.07065 -2.389324 " transform="matrix(0.994227, 0, 0, -0.994227, 443.574321, 10.495564)"/><path fill="none" stroke="rgb(0%, 0%, 0%)" stroke-linecap="butt" stroke-linejoin="miter" stroke-miterlimit="10" stroke-opacity="1" stroke-width="0.39848" d="M -110.125832 17.732629 L -110.125832 -17.337027 " transform="matrix(0.994227, 0, 0, -0.994227, 450.587695, 37.067753)"/><path fill="none" stroke="rgb(0%, 0%, 0%)" stroke-linecap="round" stroke-linejoin="round" stroke-miterlimit="10" stroke-opacity="1" stroke-width="0.39848" d="M -2.071604 2.390019 C -1.694426 0.955959 -0.849706 0.280182 -0.00105622 0.00122803 C -0.849706 -0.277726 -1.694426 -0.957432 -2.071604 -2.391492 " transform="matrix(0, 0.994227, 0.994227, 0, 341.096435, 54.50105)"/><g fill="rgb(0%, 0%, 0%)" fill-opacity="1"><use xlink:href="#522ad2ed8a68401137c4de8194a0ba70a0vymnb7__glyph-4-0" x="343.427956" y="38.756944"/></g><g fill="rgb(0%, 0%, 0%)" fill-opacity="1"><use xlink:href="#522ad2ed8a68401137c4de8194a0ba70a0vymnb7__glyph-3-2" x="349.618913" y="38.756944"/><use xlink:href="#522ad2ed8a68401137c4de8194a0ba70a0vymnb7__glyph-3-3" x="357.515519" y="38.756944"/></g><g fill="rgb(0%, 0%, 0%)" fill-opacity="1"><use xlink:href="#522ad2ed8a68401137c4de8194a0ba70a0vymnb7__glyph-4-4" x="362.19843" y="38.756944"/></g><g fill="rgb(0%, 0%, 0%)" fill-opacity="1"><use xlink:href="#522ad2ed8a68401137c4de8194a0ba70a0vymnb7__glyph-8-0" x="364.550302" y="40.578367"/></g><g fill="rgb(0%, 0%, 0%)" fill-opacity="1"><use xlink:href="#522ad2ed8a68401137c4de8194a0ba70a0vymnb7__glyph-7-0" x="369.791865" y="39.120831"/></g><g fill="rgb(0%, 0%, 0%)" fill-opacity="1"><use xlink:href="#522ad2ed8a68401137c4de8194a0ba70a0vymnb7__glyph-7-1" x="372.471306" y="40.578367"/></g><g fill="rgb(0%, 0%, 0%)" fill-opacity="1"><use xlink:href="#522ad2ed8a68401137c4de8194a0ba70a0vymnb7__glyph-8-0" x="377.148981" y="40.578367"/></g><g fill="rgb(0%, 0%, 0%)" fill-opacity="1"><use xlink:href="#522ad2ed8a68401137c4de8194a0ba70a0vymnb7__glyph-7-0" x="382.390705" y="39.120831"/><use xlink:href="#522ad2ed8a68401137c4de8194a0ba70a0vymnb7__glyph-7-0" x="384.574776" y="39.120831"/></g><g fill="rgb(0%, 0%, 0%)" fill-opacity="1"><use xlink:href="#522ad2ed8a68401137c4de8194a0ba70a0vymnb7__glyph-4-3" x="332.575972" y="37.315315"/></g><g fill="rgb(0%, 0%, 0%)" fill-opacity="1"><use xlink:href="#522ad2ed8a68401137c4de8194a0ba70a0vymnb7__glyph-5-6" x="332.631649" y="39.483724"/></g><path fill="none" stroke="rgb(0%, 0%, 0%)" stroke-linecap="butt" stroke-linejoin="miter" stroke-miterlimit="10" stroke-opacity="1" stroke-width="0.39848" d="M 37.448822 26.725957 L 101.694735 26.725957 " transform="matrix(0.994227, 0, 0, -0.994227, 450.587695, 37.067753)"/><path fill="none" stroke="rgb(0%, 0%, 0%)" stroke-linecap="round" stroke-linejoin="round" stroke-miterlimit="10" stroke-opacity="1" stroke-width="0.39848" d="M -2.071406 2.392187 C -1.694228 0.958127 -0.849508 0.278421 -0.000858324 -0.000533079 C -0.849508 -0.279487 -1.694228 -0.955264 -2.071406 -2.389324 " transform="matrix(0.994227, 0, 0, -0.994227, 551.891478, 10.495564)"/><path fill="none" stroke="rgb(0%, 0%, 0%)" stroke-linecap="butt" stroke-linejoin="miter" stroke-miterlimit="10" stroke-opacity="1" stroke-width="0.39848" d="M 15.297497 17.732629 L 15.297497 -17.337027 " transform="matrix(0.994227, 0, 0, -0.994227, 450.587695, 37.067753)"/><path fill="none" stroke="rgb(0%, 0%, 0%)" stroke-linecap="round" stroke-linejoin="round" stroke-miterlimit="10" stroke-opacity="1" stroke-width="0.39848" d="M -2.071604 2.389249 C -1.694426 0.955188 -0.849706 0.279412 -0.00105622 0.000457472 C -0.849706 -0.278497 -1.694426 -0.958202 -2.071604 -2.392263 " transform="matrix(0, 0.994227, 0.994227, 0, 465.79642, 54.50105)"/><g fill="rgb(0%, 0%, 0%)" fill-opacity="1"><use xlink:href="#522ad2ed8a68401137c4de8194a0ba70a0vymnb7__glyph-4-0" x="468.125853" y="38.801684"/></g><g fill="rgb(0%, 0%, 0%)" fill-opacity="1"><use xlink:href="#522ad2ed8a68401137c4de8194a0ba70a0vymnb7__glyph-3-2" x="474.316809" y="38.801684"/><use xlink:href="#522ad2ed8a68401137c4de8194a0ba70a0vymnb7__glyph-3-3" x="482.213416" y="38.801684"/></g><path fill="none" stroke="rgb(0%, 0%, 0%)" stroke-linecap="butt" stroke-linejoin="miter" stroke-miterlimit="10" stroke-opacity="1" stroke-width="0.39848" d="M 201.784304 26.725957 L 278.072397 26.725957 " transform="matrix(0.994227, 0, 0, -0.994227, 450.587695, 37.067753)"/><path fill="none" stroke="rgb(0%, 0%, 0%)" stroke-linecap="round" stroke-linejoin="round" stroke-miterlimit="10" stroke-opacity="1" stroke-width="0.39848" d="M -2.071315 2.392187 C -1.694137 0.958127 -0.849417 0.278421 -0.000767356 -0.000533079 C -0.849417 -0.279487 -1.694137 -0.955264 -2.071315 -2.389324 " transform="matrix(0.994227, 0, 0, -0.994227, 727.254669, 10.495564)"/><path fill="none" stroke="rgb(0%, 0%, 0%)" stroke-linecap="butt" stroke-linejoin="miter" stroke-miterlimit="10" stroke-opacity="1" stroke-width="0.39848" d="M 151.937931 17.732629 L 151.937931 -17.337027 " transform="matrix(0.994227, 0, 0, -0.994227, 450.587695, 37.067753)"/><path fill="none" stroke="rgb(0%, 0%, 0%)" stroke-linecap="round" stroke-linejoin="round" stroke-miterlimit="10" stroke-opacity="1" stroke-width="0.39848" d="M -2.071604 2.392391 C -1.694426 0.954401 -0.849706 0.278625 -0.00105622 -0.00032926 C -0.849706 -0.279284 -1.694426 -0.95506 -2.071604 -2.389121 " transform="matrix(0, 0.994227, 0.994227, 0, 601.648765, 54.50105)"/><g fill="rgb(0%, 0%, 0%)" fill-opacity="1"><use xlink:href="#522ad2ed8a68401137c4de8194a0ba70a0vymnb7__glyph-5-4" x="603.977979" y="39.07112"/></g><g fill="rgb(0%, 0%, 0%)" fill-opacity="1"><use xlink:href="#522ad2ed8a68401137c4de8194a0ba70a0vymnb7__glyph-4-0" x="607.073111" y="39.07112"/></g><g fill="rgb(0%, 0%, 0%)" fill-opacity="1"><use xlink:href="#522ad2ed8a68401137c4de8194a0ba70a0vymnb7__glyph-3-2" x="613.264067" y="39.07112"/><use xlink:href="#522ad2ed8a68401137c4de8194a0ba70a0vymnb7__glyph-3-3" x="621.160673" y="39.07112"/></g><g fill="rgb(0%, 0%, 0%)" fill-opacity="1"><use xlink:href="#522ad2ed8a68401137c4de8194a0ba70a0vymnb7__glyph-7-0" x="625.844007" y="36.082474"/></g><g fill="rgb(0%, 0%, 0%)" fill-opacity="1"><use xlink:href="#522ad2ed8a68401137c4de8194a0ba70a0vymnb7__glyph-5-5" x="628.522453" y="39.07112"/></g><g fill="rgb(0%, 0%, 0%)" fill-opacity="1"><use xlink:href="#522ad2ed8a68401137c4de8194a0ba70a0vymnb7__glyph-4-2" x="631.617584" y="39.07112"/></g><g fill="rgb(0%, 0%, 0%)" fill-opacity="1"><use xlink:href="#522ad2ed8a68401137c4de8194a0ba70a0vymnb7__glyph-5-4" x="637.808541" y="39.07112"/></g><g fill="rgb(0%, 0%, 0%)" fill-opacity="1"><use xlink:href="#522ad2ed8a68401137c4de8194a0ba70a0vymnb7__glyph-4-0" x="640.903672" y="39.07112"/></g><g fill="rgb(0%, 0%, 0%)" fill-opacity="1"><use xlink:href="#522ad2ed8a68401137c4de8194a0ba70a0vymnb7__glyph-3-2" x="647.094628" y="39.07112"/><use xlink:href="#522ad2ed8a68401137c4de8194a0ba70a0vymnb7__glyph-3-3" x="654.991234" y="39.07112"/></g><g fill="rgb(0%, 0%, 0%)" fill-opacity="1"><use xlink:href="#522ad2ed8a68401137c4de8194a0ba70a0vymnb7__glyph-7-0" x="659.674557" y="36.082474"/><use xlink:href="#522ad2ed8a68401137c4de8194a0ba70a0vymnb7__glyph-7-0" x="661.858628" y="36.082474"/></g><g fill="rgb(0%, 0%, 0%)" fill-opacity="1"><use xlink:href="#522ad2ed8a68401137c4de8194a0ba70a0vymnb7__glyph-5-5" x="664.538314" y="39.07112"/></g><g fill="rgb(0%, 0%, 0%)" fill-opacity="1"><use xlink:href="#522ad2ed8a68401137c4de8194a0ba70a0vymnb7__glyph-4-3" x="593.125995" y="37.315315"/></g><g fill="rgb(0%, 0%, 0%)" fill-opacity="1"><use xlink:href="#522ad2ed8a68401137c4de8194a0ba70a0vymnb7__glyph-5-6" x="593.181672" y="39.483724"/></g><path fill="none" stroke="rgb(0%, 0%, 0%)" stroke-linecap="butt" stroke-linejoin="miter" stroke-miterlimit="10" stroke-opacity="1" stroke-width="0.39848" d="M 349.661486 26.725957 L 398.333108 26.725957 " transform="matrix(0.994227, 0, 0, -0.994227, 450.587695, 37.067753)"/><path fill="none" stroke="rgb(0%, 0%, 0%)" stroke-linecap="round" stroke-linejoin="round" stroke-miterlimit="10" stroke-opacity="1" stroke-width="0.39848" d="M -2.071833 2.392187 C -1.694655 0.958127 -0.849934 0.278421 -0.00128487 -0.000533079 C -0.849934 -0.279487 -1.694655 -0.955264 -2.071833 -2.389324 " transform="matrix(0.994227, 0, 0, -0.994227, 846.817684, 10.495564)"/><path fill="none" stroke="rgb(0%, 0%, 0%)" stroke-linecap="butt" stroke-linejoin="miter" stroke-miterlimit="10" stroke-opacity="1" stroke-width="0.39848" d="M 314.069282 17.732629 L 314.069282 -17.337027 " transform="matrix(0.994227, 0, 0, -0.994227, 450.587695, 37.067753)"/><path fill="none" stroke="rgb(0%, 0%, 0%)" stroke-linecap="round" stroke-linejoin="round" stroke-miterlimit="10" stroke-opacity="1" stroke-width="0.39848" d="M -2.071604 2.390603 C -1.694426 0.956542 -0.849706 0.280766 -0.00105622 0.00181157 C -0.849706 -0.277143 -1.694426 -0.956848 -2.071604 -2.390909 " transform="matrix(0, 0.994227, 0.994227, 0, 762.841949, 54.50105)"/><g fill="rgb(0%, 0%, 0%)" fill-opacity="1"><use xlink:href="#522ad2ed8a68401137c4de8194a0ba70a0vymnb7__glyph-4-0" x="765.168966" y="38.756944"/></g><g fill="rgb(0%, 0%, 0%)" fill-opacity="1"><use xlink:href="#522ad2ed8a68401137c4de8194a0ba70a0vymnb7__glyph-3-2" x="771.359922" y="38.756944"/><use xlink:href="#522ad2ed8a68401137c4de8194a0ba70a0vymnb7__glyph-3-3" x="779.256529" y="38.756944"/></g><g fill="rgb(0%, 0%, 0%)" fill-opacity="1"><use xlink:href="#522ad2ed8a68401137c4de8194a0ba70a0vymnb7__glyph-4-4" x="783.93944" y="38.756944"/></g><g fill="rgb(0%, 0%, 0%)" fill-opacity="1"><use xlink:href="#522ad2ed8a68401137c4de8194a0ba70a0vymnb7__glyph-8-0" x="786.291312" y="40.578367"/></g><g fill="rgb(0%, 0%, 0%)" fill-opacity="1"><use xlink:href="#522ad2ed8a68401137c4de8194a0ba70a0vymnb7__glyph-7-0" x="791.532875" y="39.120831"/></g><g fill="rgb(0%, 0%, 0%)" fill-opacity="1"><use xlink:href="#522ad2ed8a68401137c4de8194a0ba70a0vymnb7__glyph-7-1" x="794.212316" y="40.578367"/></g><g fill="rgb(0%, 0%, 0%)" fill-opacity="1"><use xlink:href="#522ad2ed8a68401137c4de8194a0ba70a0vymnb7__glyph-8-0" x="798.889991" y="40.578367"/></g><g fill="rgb(0%, 0%, 0%)" fill-opacity="1"><use xlink:href="#522ad2ed8a68401137c4de8194a0ba70a0vymnb7__glyph-7-0" x="804.131715" y="39.120831"/><use xlink:href="#522ad2ed8a68401137c4de8194a0ba70a0vymnb7__glyph-7-0" x="806.315786" y="39.120831"/></g><g fill="rgb(0%, 0%, 0%)" fill-opacity="1"><use xlink:href="#522ad2ed8a68401137c4de8194a0ba70a0vymnb7__glyph-4-3" x="754.316982" y="37.315315"/></g><g fill="rgb(0%, 0%, 0%)" fill-opacity="1"><use xlink:href="#522ad2ed8a68401137c4de8194a0ba70a0vymnb7__glyph-5-6" x="754.372659" y="39.483724"/></g><path fill="none" stroke="rgb(0%, 0%, 0%)" stroke-linecap="butt" stroke-linejoin="miter" stroke-miterlimit="10" stroke-opacity="1" stroke-width="0.39848" d="M -398.729537 -28.491268 L -375.615624 -28.491268 " transform="matrix(0.994227, 0, 0, -0.994227, 450.587695, 37.067753)"/><path fill="none" stroke="rgb(0%, 0%, 0%)" stroke-linecap="round" stroke-linejoin="round" stroke-miterlimit="10" stroke-opacity="1" stroke-width="0.39848" d="M -2.072535 2.392192 C -1.695358 0.958132 -0.850637 0.278426 0.0019413 -0.000528024 C -0.850637 -0.279482 -1.695358 -0.955259 -2.072535 -2.389319 " transform="matrix(0.994227, 0, 0, -0.994227, 77.337914, 65.394006)"/><path fill="none" stroke="rgb(0%, 0%, 0%)" stroke-linecap="butt" stroke-linejoin="miter" stroke-miterlimit="10" stroke-opacity="1" stroke-width="0.39848" d="M -199.890165 -28.491268 L -176.776252 -28.491268 " transform="matrix(0.994227, 0, 0, -0.994227, 450.587695, 37.067753)"/><path fill="none" stroke="rgb(0%, 0%, 0%)" stroke-linecap="round" stroke-linejoin="round" stroke-miterlimit="10" stroke-opacity="1" stroke-width="0.39848" d="M -2.070624 2.392192 C -1.693447 0.958132 -0.848726 0.278426 -0.0000764735 -0.000528024 C -0.848726 -0.279482 -1.693447 -0.955259 -2.070624 -2.389319 " transform="matrix(0.994227, 0, 0, -0.994227, 275.031326, 65.394006)"/><path fill="none" stroke="rgb(0%, 0%, 0%)" stroke-linecap="butt" stroke-linejoin="miter" stroke-miterlimit="10" stroke-opacity="1" stroke-width="0.39848" d="M -43.876163 -28.491268 L -20.76225 -28.491268 " transform="matrix(0.994227, 0, 0, -0.994227, 450.587695, 37.067753)"/><path fill="none" stroke="rgb(0%, 0%, 0%)" stroke-linecap="round" stroke-linejoin="round" stroke-miterlimit="10" stroke-opacity="1" stroke-width="0.39848" d="M -2.071671 2.392192 C -1.694493 0.958132 -0.849773 0.278426 -0.00112332 -0.000528024 C -0.849773 -0.279482 -1.694493 -0.955259 -2.071671 -2.389319 " transform="matrix(0.994227, 0, 0, -0.994227, 430.141742, 65.394006)"/><path fill="none" stroke="rgb(0%, 0%, 0%)" stroke-linecap="butt" stroke-linejoin="miter" stroke-miterlimit="10" stroke-opacity="1" stroke-width="0.39848" d="M 50.960423 -28.491268 L 74.074336 -28.491268 " transform="matrix(0.994227, 0, 0, -0.994227, 450.587695, 37.067753)"/><path fill="none" stroke="rgb(0%, 0%, 0%)" stroke-linecap="round" stroke-linejoin="round" stroke-miterlimit="10" stroke-opacity="1" stroke-width="0.39848" d="M -2.072185 2.392192 C -1.695008 0.958132 -0.850287 0.278426 -0.0016376 -0.000528024 C -0.850287 -0.279482 -1.695008 -0.955259 -2.072185 -2.389319 " transform="matrix(0.994227, 0, 0, -0.994227, 524.431316, 65.394006)"/><path fill="none" stroke="rgb(0%, 0%, 0%)" stroke-linecap="butt" stroke-linejoin="miter" stroke-miterlimit="10" stroke-opacity="1" stroke-width="0.39848" d="M 229.404703 -28.491268 L 252.518617 -28.491268 " transform="matrix(0.994227, 0, 0, -0.994227, 450.587695, 37.067753)"/><path fill="none" stroke="rgb(0%, 0%, 0%)" stroke-linecap="round" stroke-linejoin="round" stroke-miterlimit="10" stroke-opacity="1" stroke-width="0.39848" d="M -2.073224 2.392192 C -1.692118 0.958132 -0.851326 0.278426 0.00125215 -0.000528024 C -0.851326 -0.279482 -1.692118 -0.955259 -2.073224 -2.389319 " transform="matrix(0.994227, 0, 0, -0.994227, 701.846411, 65.394006)"/><path fill="none" stroke="rgb(0%, 0%, 0%)" stroke-linecap="butt" stroke-linejoin="miter" stroke-miterlimit="10" stroke-opacity="1" stroke-width="0.39848" d="M 375.219195 -28.491268 L 398.333108 -28.491268 " transform="matrix(0.994227, 0, 0, -0.994227, 450.587695, 37.067753)"/><path fill="none" stroke="rgb(0%, 0%, 0%)" stroke-linecap="round" stroke-linejoin="round" stroke-miterlimit="10" stroke-opacity="1" stroke-width="0.39848" d="M -2.071833 2.392192 C -1.694655 0.958132 -0.849934 0.278426 -0.00128487 -0.000528024 C -0.849934 -0.279482 -1.694655 -0.955259 -2.071833 -2.389319 " transform="matrix(0.994227, 0, 0, -0.994227, 846.817684, 65.394006)"/></svg>