<?xml version="1.0" encoding="UTF-8" standalone="no"?>
<!-- Created with Inkscape (http://www.inkscape.org/) -->

<svg
   width="297mm"
   height="210mm"
   viewBox="0 0 297 210"
   version="1.1"
   id="svg1"
   sodipodi:docname="BraidComparisonExample.svg"
   inkscape:version="1.4.2 (f4327f4, 2025-05-13)"
   xmlns:inkscape="http://www.inkscape.org/namespaces/inkscape"
   xmlns:sodipodi="http://sodipodi.sourceforge.net/DTD/sodipodi-0.dtd"
   xmlns="http://www.w3.org/2000/svg"
   xmlns:svg="http://www.w3.org/2000/svg">
  <sodipodi:namedview
     id="namedview1"
     pagecolor="#ffffff"
     bordercolor="#000000"
     borderopacity="0.25"
     inkscape:showpageshadow="2"
     inkscape:pageopacity="0.0"
     inkscape:pagecheckerboard="0"
     inkscape:deskcolor="#d1d1d1"
     inkscape:document-units="mm"
     inkscape:zoom="0.52473018"
     inkscape:cx="561.24083"
     inkscape:cy="446.89635"
     inkscape:window-width="1920"
     inkscape:window-height="1051"
     inkscape:window-x="-9"
     inkscape:window-y="-9"
     inkscape:window-maximized="1"
     inkscape:current-layer="layer1" />
  <defs
     id="defs1">
    <inkscape:path-effect
       effect="lattice2"
       gridpoint0="33.43733,35.086971"
       gridpoint1="52.994786,35.086971"
       gridpoint2="33.43733,135.71455"
       gridpoint3="52.994786,135.71455"
       gridpoint4="38.326694,35.086971"
       gridpoint5="48.105422,35.086971"
       gridpoint6="38.326694,135.71455"
       gridpoint7="48.105422,135.71455"
       gridpoint8x9="43.216058,35.086971"
       gridpoint10x11="43.216058,135.71455"
       gridpoint12="33.43733,60.243866"
       gridpoint13="67.256491,55.073998"
       gridpoint14="33.43733,110.55766"
       gridpoint15="52.994786,110.55766"
       gridpoint16="38.326694,60.243866"
       gridpoint17="63.971569,56.67844"
       gridpoint18="38.326694,110.55766"
       gridpoint19="48.105422,110.55766"
       gridpoint20x21="47.672841,55.965355"
       gridpoint22x23="43.216058,110.55766"
       gridpoint24x26="33.43733,85.400762"
       gridpoint25x27="94.532001,74.347941"
       gridpoint28x30="38.326694,85.400762"
       gridpoint29x31="53.631833,84.331134"
       gridpoint32x33x34x35="43.216058,85.400762"
       id="path-effect12"
       is_visible="true"
       lpeversion="1"
       horizontal_mirror="false"
       vertical_mirror="false"
       perimetral="false"
       live_update="true" />
    <inkscape:path-effect
       effect="lattice2"
       gridpoint0="33.444201,35.054308"
       gridpoint1="52.500819,35.054308"
       gridpoint2="33.444201,135.73314"
       gridpoint3="52.500819,135.73314"
       gridpoint4="38.208356,35.054308"
       gridpoint5="47.736665,35.054308"
       gridpoint6="38.208356,135.73314"
       gridpoint7="47.736665,135.73314"
       gridpoint8x9="42.97251,35.054308"
       gridpoint10x11="42.97251,135.73314"
       gridpoint12="33.444201,60.224017"
       gridpoint13="88.333352,62.363273"
       gridpoint14="35.048643,106.10665"
       gridpoint15="66.584252,103.43258"
       gridpoint16="40.704154,60.402288"
       gridpoint17="61.107013,62.719815"
       gridpoint18="48.013278,105.57184"
       gridpoint19="56.115416,106.10665"
       gridpoint20x21="54.916688,61.115373"
       gridpoint22x23="46.181394,106.99801"
       gridpoint24x26="33.444201,85.393726"
       gridpoint25x27="74.071648,79.332502"
       gridpoint28x30="42.308596,86.463353"
       gridpoint29x31="61.107012,85.037183"
       gridpoint32x33x34x35="52.064347,84.324098"
       id="path-effect8"
       is_visible="true"
       lpeversion="1"
       horizontal_mirror="false"
       vertical_mirror="false"
       perimetral="false"
       live_update="true" />
    <inkscape:path-effect
       effect="lattice2"
       gridpoint0="79.950885,35.107043"
       gridpoint1="96.149049,35.107043"
       gridpoint2="79.950885,135.77823"
       gridpoint3="96.149049,135.77823"
       gridpoint4="84.000426,35.107043"
       gridpoint5="92.099508,35.107043"
       gridpoint6="84.000426,135.77823"
       gridpoint7="92.099508,135.77823"
       gridpoint8x9="88.049967,35.107043"
       gridpoint10x11="88.049967,135.77823"
       gridpoint12="79.950885,60.27484"
       gridpoint13="96.149049,60.27484"
       gridpoint14="79.950885,110.61043"
       gridpoint15="96.149049,110.61043"
       gridpoint16="84.000426,60.27484"
       gridpoint17="92.099508,60.27484"
       gridpoint18="84.000426,110.61043"
       gridpoint19="92.099508,110.61043"
       gridpoint20x21="88.049967,60.27484"
       gridpoint22x23="88.049967,110.61043"
       gridpoint24x26="36.9875,84.551281"
       gridpoint25x27="96.149049,85.442637"
       gridpoint28x30="84.000426,85.442637"
       gridpoint29x31="92.099508,85.442637"
       gridpoint32x33x34x35="88.049967,85.442637"
       id="path-effect7"
       is_visible="true"
       lpeversion="1"
       horizontal_mirror="false"
       vertical_mirror="false"
       perimetral="false"
       live_update="true" />
    <inkscape:path-effect
       effect="lattice2"
       gridpoint0="64.960184,35.107312"
       gridpoint1="81.525708,35.107312"
       gridpoint2="64.960184,135.61145"
       gridpoint3="81.525708,135.61145"
       gridpoint4="69.101565,35.107312"
       gridpoint5="77.384327,35.107312"
       gridpoint6="69.101565,135.61145"
       gridpoint7="77.384327,135.61145"
       gridpoint8x9="73.242946,35.107312"
       gridpoint10x11="73.242946,135.61145"
       gridpoint12="64.960184,60.233346"
       gridpoint13="96.85704,55.954835"
       gridpoint14="64.960184,110.48541"
       gridpoint15="81.525708,110.48541"
       gridpoint16="69.101565,60.233346"
       gridpoint17="77.384327,60.233346"
       gridpoint18="69.101565,110.48541"
       gridpoint19="77.384327,110.48541"
       gridpoint20x21="73.242946,60.233346"
       gridpoint22x23="73.242946,110.48541"
       gridpoint24x26="64.960184,85.35938"
       gridpoint25x27="122.17157,78.228528"
       gridpoint28x30="69.101565,85.35938"
       gridpoint29x31="77.384327,85.35938"
       gridpoint32x33x34x35="73.242946,85.35938"
       id="path-effect6"
       is_visible="true"
       lpeversion="1"
       horizontal_mirror="false"
       vertical_mirror="false"
       perimetral="false"
       live_update="true" />
    <inkscape:path-effect
       effect="lattice2"
       gridpoint0="63.69808,35.109247"
       gridpoint1="96.94484,35.109247"
       gridpoint2="63.69808,135.54277"
       gridpoint3="96.94484,135.54277"
       gridpoint4="72.00977,35.109247"
       gridpoint5="88.63315,35.109247"
       gridpoint6="72.00977,135.54277"
       gridpoint7="88.63315,135.54277"
       gridpoint8x9="80.32146,35.109247"
       gridpoint10x11="80.32146,135.54277"
       gridpoint12="48.010204,64.852683"
       gridpoint13="96.94484,60.217629"
       gridpoint14="46.940577,109.89958"
       gridpoint15="96.94484,110.43439"
       gridpoint16="72.00977,60.217629"
       gridpoint17="88.63315,60.217629"
       gridpoint18="56.143624,108.11686"
       gridpoint19="88.63315,110.43439"
       gridpoint20x21="81.212817,53.443319"
       gridpoint22x23="80.32146,110.43439"
       gridpoint24x26="38.205283,86.930452"
       gridpoint25x27="96.94484,85.32601"
       gridpoint28x30="45.090803,86.930452"
       gridpoint29x31="88.63315,85.32601"
       gridpoint32x33x34x35="82.817258,76.234173"
       id="path-effect5"
       is_visible="true"
       lpeversion="1"
       horizontal_mirror="false"
       vertical_mirror="false"
       perimetral="false"
       live_update="true" />
    <inkscape:path-effect
       effect="envelope"
       id="path-effect4"
       is_visible="true"
       lpeversion="1"
       yy="true"
       xx="true"
       bendpath1="m 95,35.14444 h 2"
       bendpath2="M 97,35.14444 65.490546,135.5794"
       bendpath3="m 63.668818,135.53483 1.866296,0.0446"
       bendpath4="M 95,35.14444 63.802521,135.53483"
       bendpath3-nodetypes="cc"
       bendpath4-nodetypes="cc"
       bendpath2-nodetypes="cc" />
    <inkscape:path-effect
       effect="envelope"
       id="path-effect3"
       is_visible="true"
       lpeversion="1"
       yy="true"
       xx="true"
       bendpath1="m 80,35.14444 h 2"
       bendpath2="M 82,35.14444 92.740846,135.89138"
       bendpath3="m 94.770822,135.6055 2.248536,0.15221"
       bendpath4="M 80,35.14444 96.891206,135.7131"
       bendpath3-nodetypes="cc"
       bendpath4-nodetypes="cc"
       bendpath2-nodetypes="cc" />
    <inkscape:path-effect
       effect="envelope"
       id="path-effect2"
       is_visible="true"
       lpeversion="1"
       yy="true"
       xx="true"
       bendpath1="m 65,35.14444 h 2"
       bendpath2="M 67,35.14444 77.347476,135.64691"
       bendpath3="m 80.965964,135.65772 1.034801,-0.0891"
       bendpath4="M 65,35.14444 81.954646,135.63161"
       bendpath3-nodetypes="cc"
       bendpath4-nodetypes="cc"
       bendpath2-nodetypes="cc" />
    <inkscape:path-effect
       effect="lattice2"
       gridpoint0="65.3,35.14444"
       gridpoint1="67,35.14444"
       gridpoint2="65,135.75767"
       gridpoint3="67,135.75767"
       gridpoint4="65.5,35.14444"
       gridpoint5="66.5,35.14444"
       gridpoint6="65.5,135.75767"
       gridpoint7="66.5,135.75767"
       gridpoint8x9="66,35.14444"
       gridpoint10x11="66,135.75767"
       gridpoint12="65,60.297747"
       gridpoint13="67,60.297747"
       gridpoint14="65,110.60436"
       gridpoint15="67,110.60436"
       gridpoint16="65.5,60.297747"
       gridpoint17="66.5,60.297747"
       gridpoint18="65.5,110.60436"
       gridpoint19="66.5,110.60436"
       gridpoint20x21="66,60.297747"
       gridpoint22x23="66,110.60436"
       gridpoint24x26="65,85.451054"
       gridpoint25x27="67,85.451054"
       gridpoint28x30="65.5,85.451054"
       gridpoint29x31="66.5,85.451054"
       gridpoint32x33x34x35="66,85.451054"
       id="path-effect1"
       is_visible="true"
       lpeversion="1"
       horizontal_mirror="false"
       vertical_mirror="false"
       perimetral="false"
       live_update="true" />
    <inkscape:path-effect
       effect="envelope"
       id="path-effect11"
       is_visible="true"
       lpeversion="1"
       yy="true"
       xx="true"
       bendpath1="m 50,35.14444 2.994786,-0.05747"
       bendpath2="M 52,35.14444 38.764031,135.71455"
       bendpath3="m 33.43733,135.71455 v 0"
       bendpath4="M 50,35.14444 35.251348,135.71455"
       bendpath3-nodetypes="cc"
       bendpath4-nodetypes="cc"
       bendpath2-nodetypes="cc"
       bendpath1-nodetypes="cc" />
    <inkscape:path-effect
       effect="envelope"
       id="path-effect10"
       is_visible="true"
       lpeversion="1"
       yy="true"
       xx="true"
       bendpath1="m 35,35.149998 h 2"
       bendpath2="M 38.260569,35.14444 50,135.75766"
       bendpath3="m 50,135.75766 h 2"
       bendpath4="m 32.226749,35.14975 23.302843,99.85157"
       bendpath3-nodetypes="cc"
       bendpath4-nodetypes="cc"
       bendpath2-nodetypes="cc" />
    <inkscape:path-effect
       effect="fillet_chamfer"
       id="path-effect9"
       is_visible="true"
       lpeversion="1"
       nodesatellites_param="F,0,0,1,0,0,0,1 @ F,0,0,1,0,0,0,1 @ F,0,0,1,0,0,0,1 @ F,0,0,1,0,0,0,1"
       radius="0"
       unit="px"
       method="auto"
       mode="F"
       chamfer_steps="1"
       flexible="false"
       use_knot_distance="true"
       apply_no_radius="true"
       apply_with_radius="true"
       only_selected="false"
       hide_knots="false" />
    <inkscape:path-effect
       effect="envelope"
       id="path-effect10-1"
       is_visible="true"
       lpeversion="1"
       yy="true"
       xx="true"
       bendpath1="m 35,35.149998 h 2"
       bendpath2="M 38.260569,35.14444 50,135.75766"
       bendpath3="m 50,135.75766 h 2"
       bendpath4="m 32.226749,35.14975 23.302843,99.85157"
       bendpath3-nodetypes="cc"
       bendpath4-nodetypes="cc"
       bendpath2-nodetypes="cc" />
    <inkscape:path-effect
       effect="envelope"
       id="path-effect11-1"
       is_visible="true"
       lpeversion="1"
       yy="true"
       xx="true"
       bendpath1="m 50,35.14444 2.994786,-0.05747"
       bendpath2="M 52,35.14444 38.764031,135.71455"
       bendpath3="m 33.43733,135.71455 2.495798,-0.17827"
       bendpath4="M 50,35.14444 35.251348,135.71455"
       bendpath3-nodetypes="cc"
       bendpath4-nodetypes="cc"
       bendpath2-nodetypes="cc"
       bendpath1-nodetypes="cc" />
    <inkscape:path-effect
       effect="envelope"
       id="path-effect2-3"
       is_visible="true"
       lpeversion="1"
       yy="true"
       xx="true"
       bendpath1="m 65,35.14444 h 2"
       bendpath2="M 67,35.14444 77.347476,135.64691"
       bendpath3="m 80.965964,135.65772 1.034801,-0.0891"
       bendpath4="M 65,35.14444 81.954646,135.63161"
       bendpath3-nodetypes="cc"
       bendpath4-nodetypes="cc"
       bendpath2-nodetypes="cc" />
    <inkscape:path-effect
       effect="envelope"
       id="path-effect3-8"
       is_visible="true"
       lpeversion="1"
       yy="true"
       xx="true"
       bendpath1="m 80,35.14444 h 2"
       bendpath2="M 82,35.14444 92.740846,135.89138"
       bendpath3="m 94.770822,135.6055 2.248536,0.15221"
       bendpath4="M 80,35.14444 96.891206,135.7131"
       bendpath3-nodetypes="cc"
       bendpath4-nodetypes="cc"
       bendpath2-nodetypes="cc" />
    <inkscape:path-effect
       effect="envelope"
       id="path-effect4-7"
       is_visible="true"
       lpeversion="1"
       yy="true"
       xx="true"
       bendpath1="m 95,35.14444 h 2"
       bendpath2="M 97,35.14444 65.490546,135.5794"
       bendpath3="m 63.668818,135.53483 3.649009,0.0446"
       bendpath4="M 95,35.14444 63.802521,135.53483"
       bendpath3-nodetypes="cc"
       bendpath4-nodetypes="cc"
       bendpath2-nodetypes="cc" />
    <inkscape:path-effect
       effect="envelope"
       id="path-effect10-1-6"
       is_visible="true"
       lpeversion="1"
       yy="true"
       xx="true"
       bendpath1="m 35,35.149998 h 2"
       bendpath2="M 38.260569,35.14444 50,135.75766"
       bendpath3="m 50,135.75766 h 2"
       bendpath4="m 32.226749,35.14975 23.302843,99.85157"
       bendpath3-nodetypes="cc"
       bendpath4-nodetypes="cc"
       bendpath2-nodetypes="cc" />
    <inkscape:path-effect
       effect="lattice2"
       gridpoint0="33.43733,35.086971"
       gridpoint1="52.994786,35.086971"
       gridpoint2="33.43733,135.71455"
       gridpoint3="52.994786,135.71455"
       gridpoint4="38.326694,35.086971"
       gridpoint5="48.105422,35.086971"
       gridpoint6="38.326694,135.71455"
       gridpoint7="48.105422,135.71455"
       gridpoint8x9="43.216058,35.086971"
       gridpoint10x11="43.216058,135.71455"
       gridpoint12="33.43733,60.243866"
       gridpoint13="67.256491,55.073998"
       gridpoint14="33.43733,110.55766"
       gridpoint15="52.994786,110.55766"
       gridpoint16="38.326694,60.243866"
       gridpoint17="63.971569,56.67844"
       gridpoint18="38.326694,110.55766"
       gridpoint19="48.105422,110.55766"
       gridpoint20x21="47.672841,55.965355"
       gridpoint22x23="43.216058,110.55766"
       gridpoint24x26="33.43733,85.400762"
       gridpoint25x27="80.092025,75.061026"
       gridpoint28x30="38.326694,85.400762"
       gridpoint29x31="53.631833,84.331134"
       gridpoint32x33x34x35="43.216058,85.400762"
       id="path-effect12-0"
       is_visible="true"
       lpeversion="1"
       horizontal_mirror="false"
       vertical_mirror="false"
       perimetral="false"
       live_update="true" />
    <inkscape:path-effect
       effect="envelope"
       id="path-effect11-1-2"
       is_visible="true"
       lpeversion="1"
       yy="true"
       xx="true"
       bendpath1="m 50,35.14444 2.994786,-0.05747"
       bendpath2="M 52,35.14444 38.764031,135.71455"
       bendpath3="m 33.43733,135.71455 2.495798,-0.17827"
       bendpath4="M 50,35.14444 35.251348,135.71455"
       bendpath3-nodetypes="cc"
       bendpath4-nodetypes="cc"
       bendpath2-nodetypes="cc"
       bendpath1-nodetypes="cc" />
    <inkscape:path-effect
       effect="lattice2"
       gridpoint0="33.444201,35.054308"
       gridpoint1="52.500819,35.054308"
       gridpoint2="33.444201,135.73314"
       gridpoint3="52.500819,135.73314"
       gridpoint4="38.208356,35.054308"
       gridpoint5="47.736665,35.054308"
       gridpoint6="38.208356,135.73314"
       gridpoint7="47.736665,135.73314"
       gridpoint8x9="42.97251,35.054308"
       gridpoint10x11="42.97251,135.73314"
       gridpoint12="33.444201,60.224017"
       gridpoint13="17.381371,92.312853"
       gridpoint14="35.048643,106.10665"
       gridpoint15="104.73431,177.59344"
       gridpoint16="40.704154,60.402288"
       gridpoint17="61.107013,62.719815"
       gridpoint18="48.013278,105.57184"
       gridpoint19="56.115416,106.10665"
       gridpoint20x21="54.916688,61.115373"
       gridpoint22x23="46.181394,106.99801"
       gridpoint24x26="33.444201,85.393726"
       gridpoint25x27="74.071648,79.332502"
       gridpoint28x30="42.308596,86.463353"
       gridpoint29x31="61.107012,85.037183"
       gridpoint32x33x34x35="52.064347,84.324098"
       id="path-effect8-4"
       is_visible="true"
       lpeversion="1"
       horizontal_mirror="false"
       vertical_mirror="false"
       perimetral="false"
       live_update="true" />
    <inkscape:path-effect
       effect="envelope"
       id="path-effect2-3-8"
       is_visible="true"
       lpeversion="1"
       yy="true"
       xx="true"
       bendpath1="m 65,35.14444 h 2"
       bendpath2="M 67,35.14444 77.347476,135.64691"
       bendpath3="m 80.965964,135.65772 1.034801,-0.0891"
       bendpath4="M 65,35.14444 81.954646,135.63161"
       bendpath3-nodetypes="cc"
       bendpath4-nodetypes="cc"
       bendpath2-nodetypes="cc" />
    <inkscape:path-effect
       effect="lattice2"
       gridpoint0="64.960184,35.107312"
       gridpoint1="81.525708,35.107312"
       gridpoint2="64.960184,135.61145"
       gridpoint3="81.525708,135.61145"
       gridpoint4="69.101565,35.107312"
       gridpoint5="77.384327,35.107312"
       gridpoint6="69.101565,135.61145"
       gridpoint7="77.384327,135.61145"
       gridpoint8x9="73.242946,35.107312"
       gridpoint10x11="73.242946,135.61145"
       gridpoint12="64.960184,60.233346"
       gridpoint13="80.634351,60.055075"
       gridpoint14="64.960184,110.48541"
       gridpoint15="81.525708,110.48541"
       gridpoint16="69.101565,60.233346"
       gridpoint17="77.384327,60.233346"
       gridpoint18="69.101565,110.48541"
       gridpoint19="77.384327,110.48541"
       gridpoint20x21="73.242946,60.233346"
       gridpoint22x23="73.242946,110.48541"
       gridpoint24x26="64.960184,85.35938"
       gridpoint25x27="74.216588,83.041853"
       gridpoint28x30="69.101565,85.35938"
       gridpoint29x31="14.632827,83.93321"
       gridpoint32x33x34x35="73.242946,85.35938"
       id="path-effect6-6"
       is_visible="true"
       lpeversion="1"
       horizontal_mirror="false"
       vertical_mirror="false"
       perimetral="false"
       live_update="true" />
    <inkscape:path-effect
       effect="envelope"
       id="path-effect3-8-5"
       is_visible="true"
       lpeversion="1"
       yy="true"
       xx="true"
       bendpath1="m 80,35.14444 h 2"
       bendpath2="M 82,35.14444 92.740846,135.89138"
       bendpath3="m 94.770822,135.6055 2.248536,0.15221"
       bendpath4="M 80,35.14444 96.891206,135.7131"
       bendpath3-nodetypes="cc"
       bendpath4-nodetypes="cc"
       bendpath2-nodetypes="cc" />
    <inkscape:path-effect
       effect="lattice2"
       gridpoint0="79.950885,35.107043"
       gridpoint1="96.149049,35.107043"
       gridpoint2="79.950885,135.77823"
       gridpoint3="96.149049,135.77823"
       gridpoint4="84.000426,35.107043"
       gridpoint5="92.099508,35.107043"
       gridpoint6="84.000426,135.77823"
       gridpoint7="92.099508,135.77823"
       gridpoint8x9="88.049967,35.107043"
       gridpoint10x11="88.049967,135.77823"
       gridpoint12="79.950885,60.27484"
       gridpoint13="96.149049,60.27484"
       gridpoint14="79.950885,110.61043"
       gridpoint15="96.149049,110.61043"
       gridpoint16="84.000426,60.27484"
       gridpoint17="92.099508,60.27484"
       gridpoint18="84.000426,110.61043"
       gridpoint19="92.099508,110.61043"
       gridpoint20x21="88.049967,60.27484"
       gridpoint22x23="88.049967,110.61043"
       gridpoint24x26="36.9875,84.551281"
       gridpoint25x27="96.149049,85.442637"
       gridpoint28x30="84.000426,85.442637"
       gridpoint29x31="92.099508,85.442637"
       gridpoint32x33x34x35="88.049967,85.442637"
       id="path-effect7-0"
       is_visible="true"
       lpeversion="1"
       horizontal_mirror="false"
       vertical_mirror="false"
       perimetral="false"
       live_update="true" />
    <inkscape:path-effect
       effect="envelope"
       id="path-effect4-7-9"
       is_visible="true"
       lpeversion="1"
       yy="true"
       xx="true"
       bendpath1="m 95,35.14444 h 2"
       bendpath2="M 97,35.14444 65.490546,135.5794"
       bendpath3="m 63.668818,135.53483 3.649009,0.0446"
       bendpath4="M 95,35.14444 63.802521,135.53483"
       bendpath3-nodetypes="cc"
       bendpath4-nodetypes="cc"
       bendpath2-nodetypes="cc" />
    <inkscape:path-effect
       effect="lattice2"
       gridpoint0="63.69808,35.109247"
       gridpoint1="96.94484,35.109247"
       gridpoint2="63.69808,135.54277"
       gridpoint3="96.94484,135.54277"
       gridpoint4="72.00977,35.109247"
       gridpoint5="88.63315,35.109247"
       gridpoint6="72.00977,135.54277"
       gridpoint7="88.63315,135.54277"
       gridpoint8x9="80.32146,35.109247"
       gridpoint10x11="80.32146,135.54277"
       gridpoint12="48.010204,64.852683"
       gridpoint13="96.94484,60.217629"
       gridpoint14="46.940577,109.89958"
       gridpoint15="96.94484,110.43439"
       gridpoint16="72.00977,60.217629"
       gridpoint17="88.63315,60.217629"
       gridpoint18="56.143624,108.11686"
       gridpoint19="88.63315,110.43439"
       gridpoint20x21="81.212817,53.443319"
       gridpoint22x23="80.32146,110.43439"
       gridpoint24x26="38.205283,86.930452"
       gridpoint25x27="105.50186,80.869227"
       gridpoint28x30="81.636421,83.721568"
       gridpoint29x31="88.63315,85.32601"
       gridpoint32x33x34x35="97.792048,80.690956"
       id="path-effect5-0"
       is_visible="true"
       lpeversion="1"
       horizontal_mirror="false"
       vertical_mirror="false"
       perimetral="false"
       live_update="true" />
  </defs>
  <g
     inkscape:label="Layer 1"
     inkscape:groupmode="layer"
     id="layer1">
    <path
       style="fill:none;fill-opacity:0.62;fill-rule:evenodd;stroke:#000185;stroke-width:0.285238;stroke-dasharray:none;stroke-opacity:1"
       d="M 160.24485,43.364438 211,20.156821 261.75514,43.364438"
       id="path8-7" />
    <ellipse
       style="fill:#cc7b00;fill-opacity:0.62;fill-rule:evenodd;stroke:none;stroke-width:0.295662;stroke-dasharray:none;stroke-opacity:1"
       id="path5-7"
       cx="160.24486"
       cy="44.971783"
       rx="0.24485642"
       ry="1.607349" />
    <ellipse
       style="fill:#000000;fill-opacity:1;fill-rule:evenodd;stroke:none;stroke-width:0.295662;stroke-dasharray:none;stroke-opacity:1"
       id="path7-9"
       cx="211"
       cy="21.761387"
       rx="1.5582567"
       ry="1.6045659" />
    <ellipse
       style="fill:#cc7a00;fill-opacity:0.62;fill-rule:evenodd;stroke:none;stroke-width:0.295662;stroke-dasharray:none;stroke-opacity:1"
       id="path5-1-3"
       cx="261.75516"
       cy="44.971783"
       rx="0.24485642"
       ry="1.607349" />
    <path
       style="fill:#cc7b00;fill-opacity:0.62069;fill-rule:evenodd;stroke:none;stroke-width:0.296174;stroke-dasharray:none;stroke-opacity:0.62"
       d="m 160.24485,43.358876 h 101.51029 v 3.225823 H 160.24485 Z"
       id="path6-1" />
    <path
       id="rect8-9"
       style="fill:#ff0000;fill-opacity:1;fill-rule:evenodd;stroke:none;stroke-width:0.308528;stroke-dasharray:none;stroke-opacity:1"
       d="m 33.43733,35.117031 c 3.367119,-0.04626 1.985781,-0.03056 4.082501,-0.0097 3.858237,7.545352 12.678482,12.303574 22.540884,18.439218 9.703658,6.036886 17.872717,12.086442 20.171202,20.753854 2.332655,8.796259 -1.885078,18.222437 -10.383899,29.877713 -7.556291,10.36269 -20.096124,23.76268 -18.759249,31.53645 1.698892,-0.13995 -2.708858,0.22632 1.917475,-0.40564 -0.197855,-8.23144 13.593191,-21.47482 21.663312,-32.23312 C 83.611807,91.154847 86.256016,82.025256 79.446528,74.047151 72.728309,66.175978 59.197928,62.0018 48.761498,56.261475 43.609051,53.427486 39.899594,50.548895 37.413197,46.900751 34.936243,43.266462 34.02911,39.393587 33.43733,35.117031 Z"
       transform="translate(145,8.2146864)"
       inkscape:original-d="m 35,35.149998 h 2 V 135.75767 h -2 z"
       inkscape:path-effect="#path-effect10-1;#path-effect12" />
    <path
       style="fill:#ff00f3;fill-opacity:1;fill-rule:evenodd;stroke:none;stroke-width:0.308537;stroke-dasharray:none;stroke-opacity:1"
       id="rect8-2-8"
       width="0.32574672"
       height="99.47068"
       x="50"
       y="35.14444"
       sodipodi:type="rect"
       transform="translate(145,8.2146864)"
       d="m 49.570955,35.08458 c 0.683207,0.01104 2.350216,-0.04 2.931039,-0.02938 5.175453,4.686384 11.078383,8.441191 18.157319,12.19327 6.830396,3.620344 14.018084,6.835211 19.75117,9.904667 11.992917,6.420929 15.887277,11.487453 9.145831,19.130721 -6.434806,7.295604 -22.482039,16.25215 -36.632983,26.618392 -7.206479,5.27909 -13.435662,10.57545 -18.269946,16.22693 -4.857372,5.67846 -7.714918,11.02218 -9.43713,16.47753 -1.959211,-0.0481 -1.963734,0.14718 -1.613821,0.12695 0.896074,-5.01726 2.666301,-10.14969 6.239004,-15.55977 3.603642,-5.45693 8.669197,-10.64934 15.187571,-15.96878 C 67.792574,93.789156 84.577886,84.417988 92.70773,76.819198 101.2079,68.874276 99.629239,63.596189 88.924687,57.201513 78.663707,51.071818 61.186655,44.504889 49.570974,35.084579"
       inkscape:path-effect="#path-effect11-1;#path-effect8" />
    <path
       style="fill:#0000ff;fill-opacity:1;fill-rule:evenodd;stroke:none;stroke-width:0.308537;stroke-dasharray:none;stroke-opacity:1"
       id="rect8-2-2-6"
       width="3.6387391"
       height="100.42413"
       x="65"
       y="35.14444"
       sodipodi:type="rect"
       transform="translate(145,8.2146864)"
       d="m 64.960184,35.111476 c 0.0074,-5.14e-4 1.996965,-0.0043 2.000932,-0.0042 0.761997,4.784638 2.42661,11.00786 8.043595,19.420971 5.344617,8.005157 14.178497,16.927037 18.298011,26.780247 2.102631,5.029152 2.797188,9.99862 1.907049,15.405545 -0.889858,5.405219 -3.244532,10.567969 -6.095614,15.768699 -2.784974,5.08014 -5.779729,9.82012 -7.562162,13.77311 -1.839867,4.08038 -2.298743,6.99274 -1.695679,9.3129 3.450603,-0.0678 0.243906,0.005 1.669392,0.0427 -1.530825,-8.36469 9.36695,-19.03538 14.007049,-28.57564 C 100.41555,96.996574 99.804729,89.318096 94.550733,81.171776 89.558561,73.431415 81.137413,66.368419 75.102909,58.912557 68.535484,50.798252 66.098524,44.236317 64.960184,35.111476 Z"
       inkscape:path-effect="#path-effect2-3;#path-effect6" />
    <path
       style="fill:#00f4ff;fill-opacity:1;fill-rule:evenodd;stroke:none;stroke-width:0.308537;stroke-dasharray:none;stroke-opacity:1"
       id="rect8-2-6-5"
       width="3.7381454"
       height="100.52409"
       x="80"
       y="35.14444"
       sodipodi:type="rect"
       transform="translate(145,8.2146864)"
       d="m 79.950885,35.111907 c 0.0054,-3.71e-4 1.991188,-0.0052 2.000145,-0.0048 1.163462,6.974819 -8.566674,17.989272 -12.282867,24.872654 -4.678876,8.666529 -5.370192,16.265231 -1.838023,25.098233 3.477259,8.695686 10.254867,16.710978 16.2923,25.442218 6.670837,9.64725 9.264017,15.74557 10.944997,25.25806 2.868198,-0.16922 -1.10486,-0.21462 0.880025,-0.15016 -0.109761,-1.30556 -0.43688,-4.26086 -1.102413,-7.31865 -0.72548,-3.33322 -1.924042,-7.25036 -4.352521,-11.86246 -2.547482,-4.83812 -5.823531,-9.34626 -10.290241,-14.9706 C 75.989713,96.172018 71.228545,90.505766 67.987242,84.972319 64.636918,79.252754 63.085695,74.020125 63.731154,68.631346 c 0.641695,-5.357353 3.360405,-10.06794 6.588916,-14.62659 3.495984,-4.936322 6.102216,-7.889191 8.056187,-11.615323 1.758735,-3.353824 1.888141,-5.620039 1.574626,-7.277526"
       inkscape:path-effect="#path-effect3-8;#path-effect7" />
    <path
       style="fill:#00ff00;fill-opacity:1;fill-rule:evenodd;stroke:none;stroke-width:0.308537;stroke-dasharray:none;stroke-opacity:1"
       id="rect8-2-6-1-0"
       width="2.8913565"
       height="100.61322"
       x="95"
       y="35.14444"
       sodipodi:type="rect"
       transform="translate(145,8.2146864)"
       d="m 94.94888,35.109515 c 0.01685,-4.4e-5 1.977809,-2.9e-4 1.99596,-2.66e-4 -1.253407,4.229887 -2.773037,8.405551 -5.257481,12.091519 -2.536455,3.763134 -5.804945,6.651464 -10.416943,9.393232 -9.01577,5.359748 -22.901746,9.837025 -32.461535,18.277721 -10.108858,8.925488 -13.051413,20.013929 -6.721208,31.826889 3.08464,5.75633 7.724272,10.63115 12.719841,15.49046 4.888662,4.7553 9.504884,8.94623 11.660753,13.3537 0.155581,-0.0164 -2.08687,-0.0321 -2.79971,-0.0453 -0.223,-0.65234 -0.9397,-2.69972 -3.471283,-5.67434 C 57.646237,126.8257 52.83576,122.88843 47.257245,117.63063 41.571208,112.27148 35.848974,105.75747 34.13049,97.810249 32.39756,89.796227 35.156604,81.980518 41.922641,75.078343 48.638818,68.22703 57.840679,63.660306 66.084277,59.904454 c 8.816831,-4.017021 14.084492,-6.22586 18.823626,-9.890766 4.21252,-3.25766 6.385192,-6.661652 7.797348,-9.468985 1.256326,-2.497548 2.122778,-5.081846 2.24363,-5.435192"
       inkscape:path-effect="#path-effect4-7;#path-effect5" />
    <path
       style="fill:none;fill-opacity:0.62;fill-rule:evenodd;stroke:#000185;stroke-width:0.285238;stroke-dasharray:none;stroke-opacity:1"
       d="M 15.244849,43.364438 65.999999,20.156821 116.75514,43.364438"
       id="path8-7-1" />
    <ellipse
       style="fill:#cc7b00;fill-opacity:0.62;fill-rule:evenodd;stroke:none;stroke-width:0.295662;stroke-dasharray:none;stroke-opacity:1"
       id="path5-7-3"
       cx="15.244857"
       cy="44.971783"
       rx="0.24485642"
       ry="1.607349" />
    <ellipse
       style="fill:#000000;fill-opacity:1;fill-rule:evenodd;stroke:none;stroke-width:0.295662;stroke-dasharray:none;stroke-opacity:1"
       id="path7-9-8"
       cx="66"
       cy="21.761387"
       rx="1.5582567"
       ry="1.6045659" />
    <ellipse
       style="fill:#cc7a00;fill-opacity:0.62;fill-rule:evenodd;stroke:none;stroke-width:0.295662;stroke-dasharray:none;stroke-opacity:1"
       id="path5-1-3-9"
       cx="116.75515"
       cy="44.971783"
       rx="0.24485642"
       ry="1.607349" />
    <path
       style="fill:#cc7b00;fill-opacity:0.62069;fill-rule:evenodd;stroke:none;stroke-width:0.296174;stroke-dasharray:none;stroke-opacity:0.62"
       d="M 15.244849,43.358876 H 116.75514 v 3.225823 H 15.244849 Z"
       id="path6-1-3" />
    <path
       style="fill:#ff00f3;fill-opacity:1;fill-rule:evenodd;stroke:none;stroke-width:0.308537;stroke-dasharray:none;stroke-opacity:1"
       id="rect8-2-8-4"
       width="0.32574672"
       height="99.47068"
       x="50"
       y="35.14444"
       sodipodi:type="rect"
       transform="translate(-1.180172e-6,8.2146859)"
       d="m 49.479038,35.123424 c 0.662183,0.01994 2.46234,-0.08737 3.02064,-0.06725 -6.853115,9.611072 -6.913726,18.050259 -3.407331,25.549589 3.470229,7.421979 10.414809,13.833939 17.207676,19.207745 14.694682,11.624894 25.370361,17.143485 24.694796,23.716278 -0.608362,5.91897 -11.867249,9.94399 -25.42142,14.76341 -6.583229,2.34079 -13.168831,4.7048 -18.556643,7.46697 -5.41869,2.77801 -9.430718,5.84752 -11.781673,9.88324 -2.048695,-0.0844 -1.91062,0.10581 -1.632632,0.0903 0.943139,-4.82549 3.530097,-8.50438 7.612912,-11.71307 4.101515,-3.22339 9.617856,-5.89258 15.763852,-8.50445 12.596164,-5.35298 25.346186,-9.55456 28.430694,-15.50385 C 88.711308,93.644699 80.694791,87.905186 67.80614,77.047883 55.853212,66.978826 41.019504,52.986141 49.479056,35.123424"
       inkscape:path-effect="#path-effect11-1-2;#path-effect8-4" />
    <path
       id="rect8-9-4"
       style="fill:#ff0000;fill-opacity:1;fill-rule:evenodd;stroke:none;stroke-width:0.308528;stroke-dasharray:none;stroke-opacity:1"
       d="m 33.43733,35.117031 c 3.367115,-0.04626 1.985786,-0.03056 4.082498,-0.0097 3.828465,7.491025 11.517387,12.41671 19.369683,18.595821 7.793983,6.133224 13.911285,12.280038 15.445643,20.987216 1.55757,8.838911 -1.919309,18.219752 -8.236932,29.771688 -5.742056,10.4995 -14.384935,23.25424 -13.009454,31.25251 1.698893,-0.13996 -2.700375,0.2259 1.913808,-0.40546 -0.357476,-8.52577 8.74215,-20.93305 14.847292,-31.89653 C 74.423085,91.608526 76.922076,82.48628 71.710372,74.429185 66.529672,66.420023 55.717953,62.235714 46.859014,56.355425 42.525093,53.478702 39.331213,50.579276 37.124753,46.914996 34.930169,43.27044 34.028604,39.389934 33.43733,35.117031 Z"
       transform="translate(-1.180172e-6,8.214686)"
       inkscape:original-d="m 35,35.149998 h 2 V 135.75767 h -2 z"
       inkscape:path-effect="#path-effect10-1-6;#path-effect12-0" />
    <path
       style="fill:#0000ff;fill-opacity:1;fill-rule:evenodd;stroke:none;stroke-width:0.308537;stroke-dasharray:none;stroke-opacity:1"
       id="rect8-2-2-6-6"
       width="3.6387391"
       height="100.42413"
       x="65"
       y="35.14444"
       sodipodi:type="rect"
       transform="translate(-1.180172e-6,8.2146859)"
       d="m 64.960184,35.111475 c 0.0069,-4.76e-4 1.997299,-0.0043 2.000932,-0.0042 0.162436,2.080844 0.361593,5.285318 0.02888,8.615341 -0.351973,3.522804 -1.286009,7.368803 -3.606335,11.702689 -2.436221,4.550355 -5.76001,8.570395 -10.240721,13.585053 -4.211584,4.71346 -8.868541,9.685857 -11.310459,14.683433 -2.522407,5.162302 -2.562787,10.024877 0.625633,15.276997 3.172854,5.226479 9.059468,10.055709 15.52558,14.901629 6.860267,5.14133 11.985651,8.67092 16.131647,12.77636 3.866531,3.82871 5.111757,6.58302 5.74078,8.91998 3.449551,-0.0678 0.244584,0.005 1.669586,0.0426 -0.841428,-4.59771 -2.627759,-8.15417 -8.476705,-13.04999 -5.437644,-4.55153 -12.909068,-8.94415 -19.605374,-13.47872 -6.774582,-4.58758 -11.800365,-8.71259 -14.098369,-13.071439 -2.274049,-4.313411 -1.527552,-8.265049 1.230495,-12.355087 2.699836,-4.003716 7.229131,-7.964821 11.447598,-11.893219 4.390863,-4.088941 7.996046,-7.74077 10.492183,-11.904685 2.461199,-4.10563 3.387756,-7.997158 3.495343,-12.226793 0.09927,-3.902799 -0.556333,-8.556613 -1.050695,-12.520042 z"
       inkscape:path-effect="#path-effect2-3-8;#path-effect6-6" />
    <path
       style="fill:#00f4ff;fill-opacity:1;fill-rule:evenodd;stroke:none;stroke-width:0.308537;stroke-dasharray:none;stroke-opacity:1"
       id="rect8-2-6-5-0"
       width="3.7381454"
       height="100.52409"
       x="80"
       y="35.14444"
       sodipodi:type="rect"
       transform="translate(-1.180172e-6,8.2146859)"
       d="m 79.950885,35.111907 c 0.0054,-3.71e-4 1.991188,-0.0052 2.000145,-0.0048 1.163461,6.974818 -8.566674,17.98927 -12.282867,24.872651 -4.678876,8.666528 -5.370193,16.26523 -1.838024,25.098231 3.477259,8.695686 10.254867,16.710972 16.292301,25.442212 6.670837,9.64726 9.264016,15.74558 10.944997,25.25807 2.868198,-0.16922 -1.10486,-0.21462 0.880025,-0.15017 -0.109761,-1.30555 -0.43688,-4.26085 -1.102413,-7.31864 -0.72548,-3.33322 -1.924042,-7.25036 -4.352521,-11.86247 -2.547482,-4.83811 -5.823531,-9.34626 -10.290242,-14.9706 C 75.989713,96.172014 71.228544,90.505762 67.987242,84.972315 64.636917,79.25275 63.085695,74.020122 63.731154,68.631344 c 0.641694,-5.357352 3.360405,-10.067939 6.588916,-14.626589 3.495984,-4.936321 6.102216,-7.889191 8.056187,-11.615322 1.758735,-3.353824 1.888141,-5.620039 1.574626,-7.277526"
       inkscape:path-effect="#path-effect3-8-5;#path-effect7-0" />
    <path
       style="fill:#00ff00;fill-opacity:1;fill-rule:evenodd;stroke:none;stroke-width:0.308537;stroke-dasharray:none;stroke-opacity:1"
       id="rect8-2-6-1-0-6"
       width="2.8913565"
       height="100.61322"
       x="95"
       y="35.14444"
       sodipodi:type="rect"
       transform="translate(-1.180172e-6,8.2146859)"
       d="m 94.94888,35.109514 c 0.01685,-4.3e-5 1.977808,-2.89e-4 1.99596,-2.66e-4 -0.967036,3.263466 -2.458852,8.995099 -3.01872,11.446036 -0.83993,3.676967 -1.133945,6.028109 -1.360888,9.074345 -0.445928,5.98565 -0.50588,10.42691 -7.380572,19.790868 -3.483869,4.745347 -7.287156,8.96436 -12.11325,14.751817 -4.525382,5.426844 -8.846798,10.993526 -11.464532,16.486846 -2.67049,5.60403 -3.275907,10.48433 -1.91674,15.38473 1.321208,4.76355 4.638505,9.12462 6.778129,13.49888 0.155582,-0.0164 -2.08687,-0.0321 -2.79971,-0.0453 -0.333963,-0.97707 -0.903904,-2.36954 -3.111614,-5.70431 -1.857968,-2.80649 -5.246353,-7.3521 -6.093091,-12.443 -0.940322,-5.65355 1.01335,-11.69601 6.703294,-19.566189 5.397165,-7.465212 13.323413,-15.434799 18.930829,-22.069836 5.935634,-7.023405 8.498933,-11.531831 9.65404,-15.872989 1.078487,-4.053205 0.900176,-7.228954 1.339529,-10.424118 0.450756,-3.278092 1.279451,-6.26295 2.12878,-9.022852 0.760415,-2.470971 1.567973,-4.815182 1.728556,-5.284705"
       inkscape:path-effect="#path-effect4-7-9;#path-effect5-0" />
  </g>
</svg>
